<svg width="24" height="24" viewBox="0 0 24 24" fill="none" xmlns="http://www.w3.org/2000/svg">
<path fill-rule="evenodd" clip-rule="evenodd" d="M17.9988 15.9982C17.9988 16.2632 17.8888 16.5182 17.7088 16.7052C17.5188 16.8932 17.2588 16.9982 16.9988 16.9982C14.7388 16.9982 9.25884 16.9982 6.99884 16.9982C6.73884 16.9982 6.47888 16.8932 6.28888 16.7052C6.10888 16.5182 5.99884 16.2632 5.99884 15.9982C5.99884 15.7332 6.10888 15.4782 6.28888 15.2912C6.47888 15.1032 6.73884 14.9982 6.99884 14.9982C9.25884 14.9982 14.7388 14.9982 16.9988 14.9982C17.2588 14.9982 17.5188 15.1032 17.7088 15.2912C17.8888 15.4782 17.9988 15.7332 17.9988 15.9982ZM17.7088 11.2912C17.9888 11.5772 18.0788 12.0072 17.9188 12.3812C17.7688 12.7542 17.3988 12.9982 16.9988 12.9982C14.2388 12.9982 9.75884 12.9982 6.99884 12.9982C6.59884 12.9982 6.22892 12.7542 6.07892 12.3812C5.91892 12.0072 6.00888 11.5772 6.28888 11.2912C7.87888 9.70823 10.1489 7.43123 11.2889 6.29124C11.6789 5.90024 12.3188 5.90024 12.7088 6.29124C13.8488 7.43123 16.1188 9.70823 17.7088 11.2912ZM9.40875 10.9982H14.5889L11.9988 8.4122L9.40875 10.9982Z" fill="black"/>
<path d="M12 7L7 12H17L12 7Z" fill="black" fill-opacity="0.1"/>
</svg>
