<svg width="24" height="24" viewBox="0 0 24 24" fill="none" xmlns="http://www.w3.org/2000/svg">
<path fill-rule="evenodd" clip-rule="evenodd" d="M5 4C5 3.44772 5.44772 3 6 3H18C18.5523 3 19 3.44772 19 4V20C19 20.388 18.7755 20.741 18.4242 20.9056C18.0728 21.0702 17.6579 21.0166 17.3598 20.7682L12 16.3017L6.64018 20.7682C6.3421 21.0166 5.92723 21.0702 5.57584 20.9056C5.22446 20.741 5 20.388 5 20V4ZM7 5V17.865L11.3598 14.2318C11.7307 13.9227 12.2693 13.9227 12.6402 14.2318L17 17.865V5H7Z" fill="black"/>
<path fill-rule="evenodd" clip-rule="evenodd" d="M9.14645 7.14645C9.34171 6.95118 9.65829 6.95118 9.85355 7.14645L12 9.29289L14.1464 7.14645C14.3417 6.95118 14.6583 6.95118 14.8536 7.14645C15.0488 7.34171 15.0488 7.65829 14.8536 7.85355L12.7071 10L14.8536 12.1464C15.0488 12.3417 15.0488 12.6583 14.8536 12.8536C14.6583 13.0488 14.3417 13.0488 14.1464 12.8536L12 10.7071L9.85355 12.8536C9.65829 13.0488 9.34171 13.0488 9.14645 12.8536C8.95118 12.6583 8.95118 12.3417 9.14645 12.1464L11.2929 10L9.14645 7.85355C8.95118 7.65829 8.95118 7.34171 9.14645 7.14645Z" fill="black"/>
<path d="M6 4V20L12 15L18 20V4H6Z" fill="black" fill-opacity="0.1"/>
</svg>
