<svg width="24" height="24" viewBox="0 0 24 24" fill="none" xmlns="http://www.w3.org/2000/svg">
<path fill-rule="evenodd" clip-rule="evenodd" d="M13 5.5C13 5.22386 12.7761 5 12.5 5C12.2239 5 12 5.22386 12 5.5V11.5C12 11.7761 12.2239 12 12.5 12C12.7761 12 13 11.7761 13 11.5V5.5ZM8.61092 15.8891C6.46303 13.7412 6.46303 10.2588 8.61092 8.11091C8.80618 7.91565 8.80618 7.59907 8.61092 7.40381C8.41566 7.20854 8.09907 7.20854 7.90381 7.40381C5.3654 9.94221 5.3654 14.0578 7.90381 16.5962C10.4422 19.1346 14.5578 19.1346 17.0962 16.5962C19.6346 14.0578 19.6346 9.94221 17.0962 7.40381C16.9009 7.20854 16.5844 7.20854 16.3891 7.40381C16.1938 7.59907 16.1938 7.91565 16.3891 8.11091C18.537 10.2588 18.537 13.7412 16.3891 15.8891C14.2412 18.037 10.7588 18.037 8.61092 15.8891Z" fill="black"/>
</svg>
