<svg width="24" height="24" viewBox="0 0 24 24" fill="none" xmlns="http://www.w3.org/2000/svg">
<path fill-rule="evenodd" clip-rule="evenodd" d="M5 3.5C5 3.22386 5.22386 3 5.5 3H18.5C18.7761 3 19 3.22386 19 3.5V20.5C19 20.6947 18.887 20.8717 18.7104 20.9536C18.5338 21.0355 18.3257 21.0075 18.177 20.8817L12 15.655L5.82297 20.8817C5.67435 21.0075 5.46624 21.0355 5.28963 20.9536C5.11301 20.8717 5 20.6947 5 20.5V3.5ZM6 4V19.4219L11.677 14.6183C11.8635 14.4606 12.1365 14.4606 12.323 14.6183L18 19.4219V4H6Z" fill="black"/>
<path fill-rule="evenodd" clip-rule="evenodd" d="M9.14645 7.14645C9.34171 6.95118 9.65829 6.95118 9.85355 7.14645L12 9.29289L14.1464 7.14645C14.3417 6.95118 14.6583 6.95118 14.8536 7.14645C15.0488 7.34171 15.0488 7.65829 14.8536 7.85355L12.7071 10L14.8536 12.1464C15.0488 12.3417 15.0488 12.6583 14.8536 12.8536C14.6583 13.0488 14.3417 13.0488 14.1464 12.8536L12 10.7071L9.85355 12.8536C9.65829 13.0488 9.34171 13.0488 9.14645 12.8536C8.95118 12.6583 8.95118 12.3417 9.14645 12.1464L11.2929 10L9.14645 7.85355C8.95118 7.65829 8.95118 7.34171 9.14645 7.14645Z" fill="black"/>
<path d="M6 4V20L12 15L18 20V4H6Z" fill="black" fill-opacity="0.1"/>
</svg>
