<svg width="24" height="24" viewBox="0 0 24 24" fill="none" xmlns="http://www.w3.org/2000/svg">
<path fill-rule="evenodd" clip-rule="evenodd" d="M5 3.5C5 3.22386 5.22386 3 5.5 3H18.5C18.7761 3 19 3.22386 19 3.5V20.5C19 20.6947 18.887 20.8717 18.7104 20.9536C18.5338 21.0355 18.3257 21.0075 18.177 20.8817L12 15.655L5.82297 20.8817C5.67435 21.0075 5.46624 21.0355 5.28963 20.9536C5.11301 20.8717 5 20.6947 5 20.5V3.5ZM6 4V19.4219L11.677 14.6183C11.8635 14.4606 12.1365 14.4606 12.323 14.6183L18 19.4219V4H6Z" fill="black"/>
<path d="M6 4V20L12 15L18 20V4H6Z" fill="black" fill-opacity="0.1"/>
<path d="M9.85355 9.14645C9.65829 8.95118 9.34171 8.95118 9.14645 9.14645C8.95118 9.34171 8.95118 9.65829 9.14645 9.85355L9.85355 9.14645ZM11.5 11.5L11.1464 11.8536C11.3417 12.0488 11.6583 12.0488 11.8536 11.8536L11.5 11.5ZM15.8536 7.85355C16.0488 7.65829 16.0488 7.34171 15.8536 7.14645C15.6583 6.95118 15.3417 6.95118 15.1464 7.14645L15.8536 7.85355ZM9.14645 9.85355L11.1464 11.8536L11.8536 11.1464L9.85355 9.14645L9.14645 9.85355ZM11.8536 11.8536L15.8536 7.85355L15.1464 7.14645L11.1464 11.1464L11.8536 11.8536Z" fill="black"/>
</svg>
