<svg width="24" height="24" viewBox="0 0 24 24" fill="none" xmlns="http://www.w3.org/2000/svg">
<path fill-rule="evenodd" clip-rule="evenodd" d="M13 6C13 5.44772 12.5523 5 12 5C11.4477 5 11 5.44772 11 6V11C11 11.5523 11.4477 12 12 12C12.5523 12 13 11.5523 13 11V6ZM8.46448 15.5355C6.51186 13.5829 6.51186 10.4171 8.46448 8.46448C8.855 8.07394 8.855 7.44077 8.46448 7.05026C8.07394 6.65973 7.44078 6.65973 7.05026 7.05026C4.31659 9.78394 4.31659 14.2161 7.05026 16.9497C9.78392 19.6834 14.2161 19.6834 16.9498 16.9497C19.6834 14.2161 19.6834 9.78394 16.9498 7.05026C16.5592 6.65973 15.9261 6.65973 15.5355 7.05026C15.145 7.44077 15.145 8.07394 15.5355 8.46448C17.4882 10.4171 17.4882 13.5829 15.5355 15.5355C13.5829 17.4882 10.4171 17.4882 8.46448 15.5355Z" fill="black"/>
</svg>
