<svg width="24" height="24" viewBox="0 0 24 24" fill="none" xmlns="http://www.w3.org/2000/svg">
<path fill-rule="evenodd" clip-rule="evenodd" d="M16.5886 4.58008L16.7164 4.585L16.8541 4.59286L16.9819 4.60368L17.1196 4.61745L17.2474 4.63514L17.3753 4.65481L17.5031 4.67841L17.6408 4.70595L17.7686 4.73544L17.8965 4.7679L18.0242 4.80428L18.152 4.84361L18.2798 4.88589L18.4077 4.9321L18.5257 4.98127L18.6535 5.03338L18.7813 5.08844L18.8993 5.14646L19.0173 5.20743L19.1451 5.27233L19.2533 5.34018L19.3714 5.41097L19.4894 5.48571L19.6074 5.56241L19.7155 5.64304L19.8335 5.72661L19.9417 5.81314L20.0498 5.90361L20.1481 5.99604L20.2563 6.09241L20.3547 6.19073L20.453 6.29202L20.5513 6.39624L20.6398 6.50146L20.7283 6.60864L20.8168 6.71779L20.9053 6.8289L20.9839 6.94099L21.0627 7.05505L21.1314 7.17109L21.2102 7.28809L21.279 7.4061L21.338 7.52606L21.3969 7.64701L21.456 7.76894L21.5149 7.89186L21.5642 8.01574L21.6132 8.14062L21.6625 8.26649L21.7018 8.39431L21.7411 8.52117L21.7805 8.64998L21.81 8.77879L21.8394 8.90859L21.8689 9.03839L21.8886 9.16817L21.9083 9.29994L21.928 9.4317L21.9378 9.56248L21.9574 9.69524V9.82699L21.9672 9.95875V10.0915V10.2233L21.9574 10.355V10.4868L21.9378 10.6186L21.928 10.7513L21.9083 10.8821L21.8886 11.0129L21.8689 11.1436L21.8394 11.2734L21.81 11.4032L21.7805 11.532L21.7411 11.6609L21.7018 11.7887L21.6526 11.9155L21.6132 12.0414L21.5642 12.1663L21.5149 12.2902L21.456 12.4141L21.3969 12.535L21.338 12.656L21.2691 12.7759L21.2003 12.8949L21.1314 13.0119L21.0528 13.127L20.9741 13.241L20.8955 13.3531L20.8168 13.4642L20.7283 13.5734L20.6398 13.6816L20.5415 13.7868L20.453 13.89L20.3547 13.9873L12.6455 21.7073L12.5866 21.7633L12.5177 21.8135L12.4489 21.8587L12.38 21.898L12.3014 21.9315L12.2228 21.959L12.144 21.9787L12.0654 21.9924L11.9769 21.9993H11.8982L11.8196 21.9924L11.7311 21.9787L11.6524 21.959L11.5738 21.9315L11.4951 21.899L11.4262 21.8597L11.3575 21.8145L11.2886 21.7633L11.2296 21.7073L3.60903 14.0827L3.51072 13.9854L3.4123 13.8821L3.32383 13.7759L3.23537 13.6688L3.14691 13.5596L3.05832 13.4495L2.9797 13.3364L2.90108 13.2223L2.83218 13.1073L2.7634 12.9903L2.69451 12.8713L2.62573 12.7523L2.56667 12.6314L2.50774 12.5095L2.44868 12.3865L2.39959 12.2617L2.35037 12.1368L2.30116 12.0109L2.26191 11.8841L2.22254 11.7562L2.18317 11.6284L2.15376 11.4986L2.12423 11.3698L2.09471 11.239L2.07502 11.1082L2.05533 10.9784L2.03577 10.8467L2.02593 10.7149L2.00624 10.5832V10.4514L1.9964 10.3186V10.1869V10.0551L2.00624 9.92237L2.01608 9.79062L2.02593 9.65885L2.03577 9.52709L2.05533 9.39631L2.07502 9.26454L2.10455 9.13377L2.12423 9.00397L2.15376 8.87417L2.19301 8.74536L2.22254 8.61753L2.26191 8.48969L2.311 8.36285L2.35037 8.23699L2.39959 8.11113L2.45852 7.98724L2.50774 7.86432L2.56667 7.74239L2.63557 7.62144L2.69451 7.50148L2.7634 7.38347L2.83218 7.26647L2.9108 7.15142L2.98954 7.03736L3.06817 6.92428L3.14691 6.81317L3.23537 6.70402L3.32383 6.59684L3.42214 6.49162L3.51072 6.3874L3.61887 6.28611L3.71718 6.1868L3.82533 6.09142L3.92363 5.998L4.03178 5.90852L4.13993 5.82199L4.2482 5.73743L4.36619 5.65779L4.47434 5.5801L4.59233 5.50538L4.71033 5.43457L4.82832 5.36672L4.94631 5.30183L5.07414 5.23988L5.19213 5.18186L5.31997 5.12679L5.43796 5.07369L5.56579 5.02552L5.69363 4.9793L5.82146 4.93702L5.9493 4.89671L6.07713 4.86032L6.20496 4.82787L6.3328 4.7974L6.46063 4.77084L6.59819 4.74724L6.72602 4.72659L6.85386 4.7089L6.99154 4.69415L7.11937 4.68333L7.2472 4.67546L7.38488 4.67055L7.51271 4.66859L7.65039 4.67055L7.77823 4.67546L7.9159 4.68234L8.04374 4.69415L8.17157 4.70791L8.30925 4.72463L8.43696 4.74527L8.5648 4.76887L8.70247 4.79543L8.83031 4.8259L8.95814 4.85836L9.08598 4.89474L9.21381 4.93407L9.34164 4.97635L9.46948 5.02258L9.58747 5.07075L9.7153 5.12286L9.84314 5.17793L9.96113 5.23595L10.0791 5.2979L10.1971 5.36279L10.3151 5.43064L10.4331 5.50144L10.5511 5.57519L10.6691 5.65286L10.7772 5.7335L10.8855 5.81708L10.9936 5.90361L11.1018 5.9931L11.2099 6.08552L11.3181 6.18188L11.4066 6.27628L11.9376 6.80628L12.1243 6.61945L12.5571 6.19073L12.6554 6.09731L12.7635 6.00096L12.8618 5.90852L12.9701 5.81806L13.0782 5.73153L13.1962 5.64794L13.3044 5.56731L13.4224 5.48964L13.5305 5.41589L13.6485 5.34411L13.7665 5.27626L13.8943 5.21136L14.0123 5.15039L14.1303 5.0914L14.2582 5.03633L14.3762 4.98423L14.504 4.93506L14.6318 4.88884L14.7597 4.84656L14.8875 4.80722L15.0153 4.77084L15.1432 4.73741L15.271 4.70692L15.3988 4.68038L15.5365 4.65678L15.6643 4.63613L15.7922 4.61843L15.9298 4.60467L16.0576 4.59286L16.1952 4.585L16.3231 4.58008L16.4509 4.5791L16.5886 4.58008ZM16.3526 5.5801L16.2445 5.58404L16.1363 5.59091L16.0183 5.59977L15.92 5.61157L15.8117 5.62632L15.7036 5.64304L15.5954 5.66172L15.4873 5.68433L15.3791 5.70892L15.271 5.73645L15.1727 5.76595L15.0645 5.79839L14.9661 5.83281L14.858 5.87018L14.7597 5.9105L14.6515 5.95376L14.5532 5.99899L14.4549 6.0462L14.3565 6.09731L14.2582 6.14944L14.1599 6.20548L14.0615 6.2635L13.973 6.32446L13.8747 6.3874L13.7862 6.45327L13.6977 6.52211L13.6091 6.59291L13.5207 6.66666L13.4322 6.74336L13.3438 6.82201L13.265 6.90363L12.8324 7.3294L12.2916 7.86726L12.2719 7.88497L12.2522 7.90069L12.2326 7.91643L12.2129 7.93019L12.1932 7.94397L12.1736 7.95576L12.144 7.96658L12.1243 7.97543L12.1048 7.98428L12.0753 7.99214L12.0556 7.99804L12.0359 8.00296L12.0064 8.00689L11.9868 8.00985L11.9671 8.01181H11.9376L11.9179 8.01082L11.8884 8.00985L11.8688 8.00689L11.8393 8.00296L11.8196 7.99706L11.7999 7.99117L11.7704 7.98329L11.7508 7.97543L11.7311 7.9656L11.7114 7.95478L11.6819 7.94297L11.6622 7.92922L11.6425 7.91544L11.623 7.89972L11.6033 7.883L11.5836 7.8653L10.7084 6.98819L10.62 6.90659L10.5412 6.82792L10.4528 6.7522L10.3643 6.67845L10.2759 6.60766L10.1873 6.53981L10.089 6.47393L10.0005 6.41001L9.90219 6.35003L9.81361 6.29202L9.7153 6.23694L9.617 6.18386L9.51869 6.1337L9.42027 6.08552L9.32196 6.04028L9.21381 5.998L9.1155 5.95769L9.00735 5.92033L8.90905 5.88591L8.8009 5.85345L8.69263 5.82396L8.59432 5.79741L8.48618 5.77284L8.37803 5.7512L8.26988 5.73153L8.16173 5.71482L8.05358 5.70104L7.94531 5.68925L7.83716 5.6804L7.72901 5.67351L7.62086 5.67057L7.51271 5.6686L7.40457 5.67057L7.29642 5.6745L7.18827 5.6804L7.08012 5.69022L6.97185 5.70203L6.8637 5.71579L6.76539 5.73252L6.65725 5.75218L6.5491 5.7748L6.44095 5.79938L6.3328 5.82592L6.23437 5.85543L6.12622 5.88787L6.01807 5.92328L5.91977 5.96064L5.82146 6.00096L5.71331 6.04324L5.61489 6.08848L5.51658 6.13665L5.41827 6.1868L5.31997 6.2399L5.22166 6.29595L5.12324 6.35396L5.03477 6.41493L4.93647 6.47786L4.848 6.54374L4.74958 6.61257L4.66111 6.68337L4.58249 6.75712L4.49403 6.83283L4.40544 6.91149L4.32682 6.99311L4.23836 7.07669L4.15962 7.16224L4.09084 7.24877L4.0121 7.33629L3.94332 7.42577L3.87454 7.51623L3.80564 7.60866L3.74671 7.70207L3.68765 7.79648L3.62872 7.89186L3.56966 7.9892L3.51072 8.08655L3.46151 8.18586L3.42214 8.28517L3.37305 8.38645L3.33368 8.48773L3.28446 8.58999L3.25506 8.69324L3.21569 8.79649L3.18616 8.9017L3.15663 9.00691L3.12722 9.11213L3.10754 9.21833L3.07801 9.32453L3.05832 9.4317L3.04848 9.53888L3.0288 9.64704L3.01907 9.75423L3.00923 9.8624L2.99939 9.97056V10.0787V10.1879V10.296V10.4042L3.00923 10.5124L3.01907 10.6205L3.0288 10.7287L3.03864 10.8359L3.05832 10.943L3.07801 11.0502L3.09769 11.1564L3.12722 11.2626L3.15663 11.3688L3.18616 11.473L3.21569 11.5783L3.24521 11.6815L3.28446 11.7848L3.32383 11.887L3.37305 11.9883L3.4123 12.0886L3.46151 12.1889L3.51072 12.2872L3.56966 12.3855L3.61887 12.4819L3.67781 12.5773L3.73686 12.6717L3.80564 12.7651L3.8647 12.8575L3.93348 12.948L4.00238 13.0375L4.081 13.125L4.15962 13.2115L4.23836 13.2961L4.31698 13.3797L11.9376 21.0003L19.6466 13.2843L19.7254 13.2007L19.804 13.1161L19.8826 13.0296L19.9515 12.9411L20.0203 12.8516L20.0892 12.7612L20.158 12.6687L20.217 12.5763L20.2858 12.4809L20.3449 12.3855L20.394 12.2892L20.453 12.1909L20.5021 12.0925L20.5513 11.9922L20.5907 11.8919L20.6398 11.7897L20.6792 11.6874L20.7087 11.5851L20.7479 11.4809L20.7775 11.3767L20.807 11.2715L20.8365 11.1653L20.8659 11.0601L20.8856 10.9529L20.9053 10.8457L20.9151 10.7385L20.9348 10.6313L20.9447 10.5232L20.9545 10.415L20.9644 10.3068V10.1987V10.0905V9.98235V9.87321L20.9545 9.76505L20.9447 9.65689L20.9348 9.5497L20.925 9.44153L20.9053 9.33436L20.8856 9.22717L20.8659 9.12099L20.8365 9.01479L20.8168 8.90956L20.7873 8.80436L20.7479 8.70012L20.7185 8.59589L20.6792 8.49364L20.6398 8.39038L20.6005 8.2891L20.5513 8.1888L20.5021 8.08949L20.453 7.99018L20.4038 7.89283L20.3449 7.79549L20.2858 7.7001L20.2269 7.60571L20.1678 7.5123L20.099 7.42085L20.0301 7.33039L19.9614 7.24091L19.8826 7.15241L19.804 7.06587L19.7254 6.98131L19.6466 6.89773L19.568 6.8171L19.4796 6.73844L19.391 6.66174L19.3025 6.58897L19.214 6.51719L19.1256 6.44934L19.037 6.38346L18.9387 6.32053L18.8502 6.25957L18.7519 6.20155L18.6535 6.14648L18.5552 6.09338L18.4569 6.04324L18.3586 5.99604L18.2603 5.95081L18.152 5.90754L18.0537 5.8682L17.9554 5.83084L17.8472 5.79545L17.7391 5.76398L17.6408 5.73449L17.5325 5.70695L17.4244 5.68236L17.3162 5.66073L17.2081 5.64107L17.1098 5.62436L16.9918 5.61058L16.8935 5.59879L16.7853 5.58994L16.677 5.58404L16.5591 5.5801L16.4607 5.57912L16.3526 5.5801Z" fill="black"/>
</svg>
