<svg width="24" height="24" viewBox="0 0 24 24" fill="none" xmlns="http://www.w3.org/2000/svg">
<path d="M17.7071 11.2931C17.8948 11.4808 18.0002 11.7354 18.0002 12.0002C18.0002 12.2651 17.8948 12.5197 17.7071 12.7074C16.109 14.3054 12.2341 18.1804 10.636 19.7784C10.4483 19.9661 10.1944 20.0709 9.92891 20.0715C9.66406 20.0715 9.4095 19.9661 9.2218 19.7784C8.8316 19.3882 8.8316 18.7544 9.2218 18.3642C11.0127 16.5733 15.5858 12.0002 15.5858 12.0002C15.5858 12.0002 11.0127 7.4272 9.2218 5.63629C8.83161 5.24609 8.8316 4.61226 9.2218 4.22207C9.4095 4.03437 9.66406 3.92895 9.92891 3.92895C10.1944 3.92959 10.4483 4.03437 10.636 4.22207C12.2341 5.82013 16.109 9.69508 17.7071 11.2931Z" fill="black"/>
</svg>
