<svg width="24" height="24" viewBox="0 0 24 24" fill="none" xmlns="http://www.w3.org/2000/svg">
<path fill-rule="evenodd" clip-rule="evenodd" d="M12.3244 4.03184C12.4376 3.98939 12.5624 3.98939 12.6756 4.03184L20.6756 7.03184C20.8707 7.10502 21 7.29158 21 7.5V17C21 17.1986 20.8824 17.3785 20.7004 17.4581L12.7004 20.9581C12.5726 21.014 12.4274 21.014 12.2996 20.9581L4.29959 17.4581C4.1176 17.3785 4 17.1986 4 17V7.5C4 7.29158 4.12929 7.10502 4.32444 7.03184L12.3244 4.03184ZM5 8.2215L12 10.8465V19.7355L5 16.673V8.2215ZM13 19.7355L20 16.673V8.2215L13 10.8465V19.7355ZM12.5 9.966L19.076 7.5L12.5 5.034L5.924 7.5L12.5 9.966Z" fill="black"/>
</svg>
