<svg width="24" height="24" viewBox="0 0 24 24" fill="none" xmlns="http://www.w3.org/2000/svg">
<g clip-path="url(#clip0_35_11)">
<path d="M19.9338 11.6051C20.0251 11.6964 20.0771 11.8204 20.0765 11.9497C20.0771 12.0789 20.0251 12.2029 19.9338 12.2942C18.7491 13.4789 14.8252 17.4027 13.2073 19.0207C12.8164 19.4116 12.1839 19.4116 11.793 19.0207C10.1751 17.4027 6.25125 13.4789 5.06653 12.2942C4.97524 12.2029 4.92317 12.0789 4.92382 11.9497C4.92317 11.8205 4.97524 11.6964 5.06652 11.6051C5.06652 11.6051 5.06653 11.6051 5.06717 11.6045C5.26709 11.4045 5.59107 11.4045 5.79099 11.6045C7.23413 13.0476 12.5002 18.3136 12.5002 18.3136C12.5002 18.3136 17.7662 13.0476 19.2093 11.6045C19.4092 11.4045 19.7332 11.4045 19.9331 11.6045C19.9338 11.6051 19.9338 11.6051 19.9338 11.6051Z" fill="black"/>
<path d="M19.9338 5.6051C20.0251 5.69638 20.0771 5.82045 20.0765 5.94965C20.0771 6.07886 20.0251 6.20293 19.9338 6.29421C18.7491 7.47893 14.8252 11.4027 13.2073 13.0207C12.8164 13.4116 12.1839 13.4116 11.793 13.0207C10.1751 11.4027 6.25125 7.47894 5.06653 6.29421C4.97524 6.20293 4.92317 6.07887 4.92382 5.94966C4.92317 5.82045 4.97524 5.69639 5.06652 5.60511C5.06652 5.60511 5.06653 5.6051 5.06717 5.60446C5.26709 5.40454 5.59107 5.40454 5.79099 5.60446C7.23413 7.0476 12.5002 12.3136 12.5002 12.3136C12.5002 12.3136 17.7662 7.0476 19.2093 5.60446C19.4092 5.40454 19.7332 5.40454 19.9331 5.60446C19.9338 5.6051 19.9338 5.6051 19.9338 5.6051Z" fill="black"/>
</g>
<defs>
<clipPath id="clip0_35_11">
<rect width="24" height="24" fill="white"/>
</clipPath>
</defs>
</svg>
