<svg width="24" height="24" viewBox="0 0 24 24" fill="none" xmlns="http://www.w3.org/2000/svg">
<path fill-rule="evenodd" clip-rule="evenodd" d="M12.4959 11.7927C12.4959 11.7927 18.5959 5.6937 20.1459 4.1457C20.3359 3.9507 20.6558 3.9507 20.8458 4.1457C20.8458 4.1467 20.8458 4.14671 20.8458 4.14671C20.9458 4.24071 20.9959 4.36771 20.9959 4.49971C20.9959 4.63171 20.9458 4.7587 20.8458 4.8527C19.3058 6.3987 13.2058 12.4997 13.2058 12.4997C13.2058 12.4997 19.3058 18.5987 20.8458 20.1457C21.0458 20.3417 21.0458 20.6577 20.8458 20.8537C20.6558 21.0487 20.3359 21.0487 20.1459 20.8537C18.5959 19.3057 12.4959 13.2067 12.4959 13.2067C12.4959 13.2067 6.39585 19.3057 4.84585 20.8537C4.65586 21.0487 4.3359 21.0487 4.1459 20.8537C4.1459 20.8527 4.1459 20.8527 4.1459 20.8527C4.0459 20.7587 3.99588 20.6317 3.99588 20.4997C3.99588 20.3677 4.0459 20.2407 4.1459 20.1467C5.6859 18.6007 11.7859 12.4997 11.7859 12.4997C11.7859 12.4997 5.6859 6.3987 4.1459 4.8527C4.0459 4.7587 3.99588 4.63171 3.99588 4.49971C3.99588 4.36771 4.0459 4.24071 4.1459 4.14671V4.1457C4.2359 4.0517 4.36588 3.99971 4.49588 3.99971C4.62588 3.99971 4.75586 4.0517 4.84585 4.1457C6.39585 5.6917 12.4959 11.7927 12.4959 11.7927Z" fill="black"/>
</svg>
