<?xml version="1.0" encoding="UTF-8" standalone="no"?>
<!DOCTYPE svg PUBLIC "-//W3C//DTD SVG 1.1//EN" "http://www.w3.org/Graphics/SVG/1.1/DTD/svg11.dtd">
<svg width="24px" height="24px" version="1.1" xmlns="http://www.w3.org/2000/svg" xmlns:xlink="http://www.w3.org/1999/xlink" xml:space="preserve" xmlns:serif="http://www.serif.com/" style="fill-rule:evenodd;clip-rule:evenodd;stroke-linejoin:round;stroke-miterlimit:1.41421;">
    <g transform="matrix(1,0,0,1,-579,-224)">
        <g id="basic.thin.circle" transform="matrix(0.800768,0,0,0.984948,579,224)">
            <rect x="0" y="0" width="29.971" height="24.367" style="fill:none;"/>
            <g transform="matrix(1.2488,0,0,1.01528,-1125.18,-227.423)">
                <path d="M913.006,226C918.525,226 923.006,230.481 923.006,236C923.006,241.519 918.525,246 913.006,246C907.487,246 903.006,241.519 903.006,236C903.006,230.481 907.487,226 913.006,226ZM913.006,227C917.973,227 922.006,231.033 922.006,236C922.006,240.967 917.973,245 913.006,245C908.039,245 904.006,240.967 904.006,236C904.006,231.033 908.039,227 913.006,227Z" style="fill:rgb(51,51,51);"/>
            </g>
        </g>
    </g>
</svg>
