<?xml version="1.0" encoding="UTF-8" standalone="no"?><!DOCTYPE svg PUBLIC "-//W3C//DTD SVG 1.1//EN" "http://www.w3.org/Graphics/SVG/1.1/DTD/svg11.dtd"><svg width="100%" height="100%" viewBox="0 0 24 24" version="1.1" xmlns="http://www.w3.org/2000/svg" xmlns:xlink="http://www.w3.org/1999/xlink" xml:space="preserve" xmlns:serif="http://www.serif.com/" style="fill-rule:evenodd;clip-rule:evenodd;stroke-linejoin:round;stroke-miterlimit:1.41421;"><rect id="basic.regular.arrowRight" x="0" y="0" width="24" height="24" style="fill:none;"/><path d="M16.586,11c0,0 -3.763,-3.763 -5.364,-5.364c-0.391,-0.39 -0.391,-1.024 0,-1.414c0.187,-0.188 0.442,-0.293 0.707,-0.293c0.265,0 0.52,0.105 0.707,0.293c1.598,1.598 5.473,5.473 7.071,7.071c0.188,0.187 0.293,0.442 0.293,0.707c0,0.265 -0.105,0.52 -0.293,0.707c-1.598,1.598 -5.473,5.473 -7.071,7.071c-0.187,0.188 -0.442,0.293 -0.707,0.293c-0.265,0 -0.52,-0.105 -0.707,-0.293c-0.391,-0.39 -0.391,-1.023 0,-1.414c1.601,-1.601 5.364,-5.364 5.364,-5.364c0,0 -10.293,0 -13.586,0c-0.265,0 -0.52,-0.105 -0.707,-0.293c-0.188,-0.187 -0.293,-0.442 -0.293,-0.707c0,-0.265 0.105,-0.52 0.293,-0.707c0.187,-0.188 0.442,-0.293 0.707,-0.293c3.293,0 13.586,0 13.586,0Z" style="fill:#333;"/></svg>