<?xml version="1.0" encoding="UTF-8" standalone="no"?>
<!DOCTYPE svg PUBLIC "-//W3C//DTD SVG 1.1//EN" "http://www.w3.org/Graphics/SVG/1.1/DTD/svg11.dtd">
<svg width="24px" height="24px" version="1.1" xmlns="http://www.w3.org/2000/svg" xmlns:xlink="http://www.w3.org/1999/xlink" xml:space="preserve" xmlns:serif="http://www.serif.com/" style="fill-rule:evenodd;clip-rule:evenodd;stroke-linejoin:round;stroke-miterlimit:1.41421;">
    <g transform="matrix(1,0,0,1,-1343,-176)">
        <g id="basic.regular.arrowRight" transform="matrix(0.800768,0,0,0.984948,1343,176)">
            <rect x="0" y="0" width="29.971" height="24.367" style="fill:none;"/>
            <g transform="matrix(1.2488,0,0,1.01528,-1677.14,-178.69)">
                <path d="M1359.59,187C1359.59,187 1355.82,183.237 1354.22,181.636C1353.83,181.246 1353.83,180.612 1354.22,180.222C1354.41,180.034 1354.66,179.929 1354.93,179.929C1355.19,179.929 1355.45,180.034 1355.64,180.222C1357.23,181.82 1361.11,185.695 1362.71,187.293C1362.89,187.48 1363,187.735 1363,188C1363,188.265 1362.89,188.52 1362.71,188.707C1361.11,190.305 1357.23,194.18 1355.64,195.778C1355.45,195.966 1355.19,196.071 1354.93,196.071C1354.66,196.071 1354.41,195.966 1354.22,195.778C1353.83,195.388 1353.83,194.755 1354.22,194.364C1355.82,192.763 1359.59,189 1359.59,189C1359.59,189 1349.29,189 1346,189C1345.74,189 1345.48,188.895 1345.29,188.707C1345.11,188.52 1345,188.265 1345,188C1345,187.735 1345.11,187.48 1345.29,187.293C1345.48,187.105 1345.74,187 1346,187C1349.29,187 1359.59,187 1359.59,187Z" style="fill:rgb(51,51,51);"/>
            </g>
        </g>
    </g>
</svg>
