<?xml version="1.0" encoding="UTF-8" standalone="no"?>
<!DOCTYPE svg PUBLIC "-//W3C//DTD SVG 1.1//EN" "http://www.w3.org/Graphics/SVG/1.1/DTD/svg11.dtd">
<svg width="24px" height="24px" version="1.1" xmlns="http://www.w3.org/2000/svg" xmlns:xlink="http://www.w3.org/1999/xlink" xml:space="preserve" xmlns:serif="http://www.serif.com/" style="fill-rule:evenodd;clip-rule:evenodd;stroke-linejoin:round;stroke-miterlimit:1.41421;">
    <g transform="matrix(1,0,0,1,-1487,-224)">
        <g id="basic.thin.arrowDown" transform="matrix(0.800768,0,0,0.984948,1487,224)">
            <rect x="0" y="0" width="29.971" height="24.367" style="fill:none;"/>
            <g transform="matrix(-7.6467e-17,1.01528,-1.2488,-6.21681e-17,310.915,-1363.52)">
                <path d="M1354.57,229.054C1354.66,228.958 1354.79,228.905 1354.93,228.905C1355.07,228.905 1355.2,228.959 1355.29,229.056C1356.5,230.266 1360.39,234.177 1362,235.793C1362.39,236.184 1362.39,236.817 1362,237.207C1360.39,238.811 1356.5,242.687 1355.29,243.888C1355.09,244.087 1354.77,244.087 1354.57,243.886C1354.57,243.886 1354.57,243.886 1354.57,243.886C1354.47,243.794 1354.42,243.67 1354.42,243.541C1354.42,243.412 1354.48,243.288 1354.57,243.197C1355.92,241.85 1360.79,237 1360.79,237C1360.79,237 1348.18,237 1345.5,237C1345.37,237 1345.24,236.947 1345.15,236.854C1345.05,236.76 1345,236.633 1345,236.501C1345,236.501 1345,236.5 1345,236.5C1345,236.367 1345.05,236.24 1345.15,236.146C1345.24,236.053 1345.37,236 1345.5,236C1348.19,236 1360.8,236 1360.8,236C1360.8,236 1355.92,231.101 1354.57,229.744C1354.47,229.652 1354.42,229.528 1354.42,229.399C1354.42,229.27 1354.48,229.146 1354.57,229.055C1354.57,229.055 1354.57,229.054 1354.57,229.054Z" style="fill:rgb(51,51,51);"/>
            </g>
        </g>
    </g>
</svg>
