<?xml version="1.0" encoding="UTF-8" standalone="no"?>
<!DOCTYPE svg PUBLIC "-//W3C//DTD SVG 1.1//EN" "http://www.w3.org/Graphics/SVG/1.1/DTD/svg11.dtd">
<svg width="24px" height="24px" version="1.1" xmlns="http://www.w3.org/2000/svg" xmlns:xlink="http://www.w3.org/1999/xlink" xml:space="preserve" xmlns:serif="http://www.serif.com/" style="fill-rule:evenodd;clip-rule:evenodd;stroke-linejoin:round;stroke-miterlimit:1.41421;">
    <g transform="matrix(1,0,0,1,-1605,-176)">
        <g id="basic.regular.octagon" transform="matrix(0.800768,0,0,0.984948,1605,176)">
            <rect x="0" y="0" width="29.971" height="24.367" style="fill:none;"/>
            <g transform="matrix(1.2488,0,0,1.01528,-1382.39,-178.69)">
                <path d="M1128.68,183.293C1128.87,183.48 1128.98,183.735 1128.98,184C1128.98,185.483 1128.98,190.517 1128.98,192C1128.98,192.265 1128.87,192.52 1128.68,192.707C1127.72,193.672 1124.65,196.742 1123.68,197.707C1123.5,197.895 1123.24,198 1122.98,198C1121.49,198 1116.46,198 1114.98,198C1114.71,198 1114.46,197.895 1114.27,197.707C1113.31,196.743 1110.23,193.672 1109.27,192.707C1109.08,192.52 1108.98,192.265 1108.98,192C1108.98,190.517 1108.98,185.483 1108.98,184C1108.98,183.735 1109.08,183.48 1109.27,183.293C1110.23,182.328 1113.31,179.257 1114.27,178.293C1114.46,178.105 1114.71,178 1114.98,178C1116.46,178 1121.49,178 1122.98,178C1123.24,178 1123.5,178.105 1123.68,178.293C1124.65,179.258 1127.72,182.328 1128.68,183.293ZM1115.39,180L1110.98,184.414L1110.98,191.586L1115.39,196L1122.56,196L1126.98,191.586L1126.98,184.414L1122.56,180L1115.39,180Z" style="fill:rgb(51,51,51);fill-rule:nonzero;"/>
            </g>
        </g>
    </g>
</svg>
