<?xml version="1.0" encoding="UTF-8" standalone="no"?><!DOCTYPE svg PUBLIC "-//W3C//DTD SVG 1.1//EN" "http://www.w3.org/Graphics/SVG/1.1/DTD/svg11.dtd"><svg width="100%" height="100%" viewBox="0 0 24 24" version="1.1" xmlns="http://www.w3.org/2000/svg" xmlns:xlink="http://www.w3.org/1999/xlink" xml:space="preserve" xmlns:serif="http://www.serif.com/" style="fill-rule:evenodd;clip-rule:evenodd;stroke-linejoin:round;stroke-miterlimit:1.41421;"><rect id="basic.thin.doubleChevronRight" x="0" y="0" width="24" height="24" style="fill:none;"/><path d="M18.042,11.793c0.391,0.39 0.391,1.024 0,1.414c-1.614,1.614 -5.523,5.523 -6.718,6.718c-0.195,0.195 -0.511,0.195 -0.706,0c0,0 0,0 0,0c-0.094,-0.094 -0.147,-0.221 -0.147,-0.354c0,-0.133 0.053,-0.26 0.147,-0.353c1.431,-1.432 6.717,-6.718 6.717,-6.718c0,0 -5.288,-5.288 -6.718,-6.718c-0.094,-0.094 -0.146,-0.221 -0.146,-0.353c0,-0.132 0.052,-0.259 0.146,-0.353c0,0 0.001,-0.001 0.001,-0.001c0.195,-0.195 0.511,-0.195 0.706,0c1.195,1.195 5.104,5.104 6.718,6.718Z" style="fill:#333;fill-rule:nonzero;"/><path d="M12,11.764c0.188,0.187 0.293,0.442 0.293,0.707c0,0.265 -0.105,0.52 -0.293,0.707c-1.359,1.359 -4.29,4.29 -5.303,5.303c-0.196,0.196 -0.512,0.196 -0.707,0c-0.196,-0.195 -0.196,-0.511 0,-0.707c1.238,-1.238 5.303,-5.303 5.303,-5.303c0,0 -4.065,-4.065 -5.303,-5.303c-0.196,-0.195 -0.196,-0.512 0,-0.707c0.195,-0.196 0.511,-0.196 0.707,0c1.013,1.013 3.944,3.944 5.303,5.303Z" style="fill:#333;fill-rule:nonzero;"/></svg>