<svg width="24" height="24" viewBox="0 0 24 24" fill="none" xmlns="http://www.w3.org/2000/svg">
<path fill-rule="evenodd" clip-rule="evenodd" d="M19.925 12.4222C20.12 12.2322 20.119 11.9122 19.924 11.7222C18.724 10.5222 14.798 6.6122 13.178 5.0022C12.787 4.6122 12.154 4.6122 11.764 5.0022C10.155 6.6222 6.265 10.5222 5.074 11.7222C4.879 11.9122 4.88001 12.2322 5.07501 12.4222C5.07601 12.4222 5.07601 12.4322 5.07701 12.4322C5.27201 12.6222 5.58801 12.6222 5.78201 12.4222C7.14201 11.0622 11.971 6.21216 11.971 6.21216C11.971 6.21216 11.971 18.8122 11.971 21.5022C11.971 21.6322 12.024 21.7621 12.117 21.8521C12.211 21.9521 12.338 22.0022 12.471 22.0022C12.604 22.0022 12.731 21.9521 12.825 21.8521C12.918 21.7621 12.971 21.6322 12.971 21.5022C12.971 18.8122 12.971 6.20215 12.971 6.20215C12.971 6.20215 17.848 11.0622 19.218 12.4222C19.312 12.5222 19.439 12.5721 19.572 12.5721C19.705 12.5721 19.832 12.5222 19.925 12.4222Z" fill="black"/>
</svg>
