<svg width="24" height="24" viewBox="0 0 24 24" fill="none" xmlns="http://www.w3.org/2000/svg">
<g clip-path="url(#clip0_7_52)">
<path d="M12.7779 4.69287C13.1687 5.08371 13.1687 5.71625 12.7778 6.10709C10.9869 7.898 6.41389 12.471 6.41389 12.471C6.41389 12.471 10.9869 17.0441 12.7779 18.835C13.1687 19.2258 13.1687 19.8584 12.7778 20.2492C12.5901 20.4369 12.3356 20.5424 12.0707 20.5424C11.8059 20.5424 11.5513 20.4369 11.3636 20.2492C9.76557 18.6512 5.89062 14.7762 4.29256 13.1782C4.10486 12.9905 4.00008 12.7365 3.99944 12.4711C3.99944 12.2062 4.10486 11.9516 4.29257 11.7639C5.89063 10.1659 9.76557 6.29094 11.3636 4.69288C11.5513 4.50517 11.8059 4.39975 12.0707 4.39975C12.3362 4.40039 12.5901 4.50517 12.7779 4.69287Z" fill="black"/>
<path d="M18.7779 4.69287C19.1687 5.08371 19.1687 5.71625 18.7778 6.10709C16.9869 7.898 12.4139 12.471 12.4139 12.471C12.4139 12.471 16.9869 17.0441 18.7779 18.835C19.1687 19.2258 19.1687 19.8584 18.7778 20.2492C18.5901 20.4369 18.3356 20.5424 18.0707 20.5424C17.8059 20.5424 17.5513 20.4369 17.3636 20.2492C15.7656 18.6512 11.8906 14.7762 10.2926 13.1782C10.1049 12.9905 10.0001 12.7365 9.99944 12.4711C9.99944 12.2062 10.1049 11.9516 10.2926 11.7639C11.8906 10.1659 15.7656 6.29094 17.3636 4.69288C17.5513 4.50517 17.8059 4.39975 18.0707 4.39975C18.3362 4.40039 18.5901 4.50517 18.7779 4.69287Z" fill="black"/>
</g>
<defs>
<clipPath id="clip0_7_52">
<rect width="24" height="24" fill="white"/>
</clipPath>
</defs>
</svg>
