<svg width="24" height="24" viewBox="0 0 24 24" fill="none" xmlns="http://www.w3.org/2000/svg">
<path d="M18.8566 15.486C19.0426 15.794 19.0476 16.179 18.8696 16.493C18.6926 16.806 18.3596 17 17.9996 17C15.0106 17 8.98858 17 5.99959 17C5.63959 17 5.30659 16.806 5.12959 16.493C4.95159 16.179 4.95659 15.794 5.14159 15.486C6.65358 12.966 9.66458 7.94699 11.1416 5.48499C11.3226 5.18399 11.6486 4.99999 11.9996 4.99999C12.3506 4.99999 12.6766 5.18399 12.8566 5.48499C14.3346 7.94699 17.3456 12.966 18.8566 15.486ZM7.76558 15H16.2336L11.9996 7.94399L7.76558 15Z" fill="black"/>
</svg>
