<?xml version="1.0" encoding="UTF-8" standalone="no"?>
<!DOCTYPE svg PUBLIC "-//W3C//DTD SVG 1.1//EN" "http://www.w3.org/Graphics/SVG/1.1/DTD/svg11.dtd">
<svg width="24px" height="24px" version="1.1" xmlns="http://www.w3.org/2000/svg" xmlns:xlink="http://www.w3.org/1999/xlink" xml:space="preserve" xmlns:serif="http://www.serif.com/" style="fill-rule:evenodd;clip-rule:evenodd;stroke-linejoin:round;stroke-miterlimit:1.41421;">
    <g transform="matrix(1,0,0,1,-885,-416)">
        <g id="basic.thin.doubleChevronRight" transform="matrix(0.800768,0,0,0.984948,885,416)">
            <rect x="0" y="0" width="29.971" height="24.367" style="fill:none;"/>
            <g transform="matrix(0.80276,-0.652648,0.80276,0.652648,-146.048,-104.786)">
                <path d="M15.55,194.45C15.55,195.058 15.058,195.55 14.45,195.55C11.939,195.55 5.858,195.55 3.999,195.55C3.696,195.55 3.45,195.304 3.45,195.001C3.45,195.001 3.45,195 3.45,195C3.45,194.854 3.508,194.714 3.611,194.611C3.714,194.508 3.854,194.45 4,194.45C6.226,194.45 14.45,194.45 14.45,194.45C14.45,194.45 14.45,186.223 14.45,183.999C14.45,183.853 14.508,183.714 14.611,183.611C14.714,183.508 14.853,183.45 14.999,183.45C15,183.45 15,183.45 15.001,183.45C15.304,183.45 15.55,183.696 15.55,183.999C15.55,185.858 15.55,191.939 15.55,194.45Z" style="fill:rgb(51,51,51);fill-rule:nonzero;"/>
            </g>
            <g transform="matrix(0.642208,-0.522119,0.642208,0.522119,-119.878,-81.3197)">
                <path d="M15.688,194.313C15.688,194.677 15.543,195.027 15.285,195.285C15.027,195.543 14.677,195.688 14.313,195.688C11.662,195.688 5.937,195.688 3.982,195.688C3.612,195.688 3.313,195.388 3.313,195.018C3.313,195.017 3.313,195.017 3.313,195.017C3.313,194.628 3.628,194.313 4.016,194.313C6.443,194.313 14.313,194.313 14.313,194.313C14.313,194.313 14.313,186.443 14.313,184.017C14.313,183.628 14.628,183.313 15.017,183.313C15.017,183.313 15.017,183.313 15.018,183.313C15.388,183.313 15.688,183.612 15.688,183.982C15.688,185.937 15.688,191.662 15.688,194.313Z" style="fill:rgb(51,51,51);fill-rule:nonzero;"/>
            </g>
        </g>
    </g>
</svg>
