<?xml version="1.0" encoding="UTF-8" standalone="no"?>
<!DOCTYPE svg PUBLIC "-//W3C//DTD SVG 1.1//EN" "http://www.w3.org/Graphics/SVG/1.1/DTD/svg11.dtd">
<svg width="24px" height="24px" version="1.1" xmlns="http://www.w3.org/2000/svg" xmlns:xlink="http://www.w3.org/1999/xlink" xml:space="preserve" xmlns:serif="http://www.serif.com/" style="fill-rule:evenodd;clip-rule:evenodd;stroke-linejoin:round;stroke-miterlimit:1.41421;">
    <g transform="matrix(1,0,0,1,-1439,-320)">
        <g id="basic.thin.chevronUp" transform="matrix(0.800768,0,0,0.984948,1439,320)">
            <rect x="0" y="0" width="29.971" height="24.367" style="fill:none;"/>
            <g transform="matrix(0.80276,-0.652648,-0.80276,-0.652648,160.107,144.12)">
                <path d="M15.55,183.986C15.55,183.844 15.494,183.707 15.393,183.607C15.293,183.506 15.156,183.45 15.014,183.45C15.014,183.45 15.014,183.45 15.013,183.45C14.702,183.45 14.45,183.702 14.45,184.013C14.45,186.258 14.45,194.45 14.45,194.45C14.45,194.45 6.258,194.45 4.013,194.45C3.702,194.45 3.45,194.702 3.45,195.013C3.45,195.014 3.45,195.014 3.45,195.014C3.45,195.156 3.506,195.293 3.607,195.393C3.707,195.494 3.844,195.55 3.986,195.55C5.829,195.55 11.933,195.55 14.45,195.55C15.058,195.55 15.55,195.058 15.55,194.45C15.55,191.933 15.55,185.829 15.55,183.986Z" style="fill:rgb(51,51,51);fill-rule:nonzero;"/>
            </g>
        </g>
    </g>
</svg>
