<svg width="24" height="24" viewBox="0 0 24 24" fill="none" xmlns="http://www.w3.org/2000/svg">
<path d="M21.8575 18.4854C22.042 18.7944 22.0465 19.1784 21.8695 19.4919C21.6925 19.8054 21.3595 20.0004 20.9995 20.0004C16.9525 20.0004 7.04649 20.0004 2.99949 20.0004C2.63949 20.0004 2.30651 19.8054 2.12951 19.4919C1.95251 19.1784 1.95701 18.7944 2.14151 18.4854C4.19051 15.0715 9.1435 6.81697 11.1415 3.48548C11.323 3.18398 11.6485 2.99948 11.9995 2.99948C12.3505 2.99948 12.676 3.18398 12.8575 3.48548C14.8555 6.81697 19.8085 15.0715 21.8575 18.4854ZM4.76499 17.9995H19.234L11.9995 5.94398L4.76499 17.9995Z" fill="black"/>
<path d="M12 4L3 19H21L12 4Z" fill="black" fill-opacity="0.1"/>
</svg>
