<?xml version="1.0" encoding="UTF-8" standalone="no"?><!DOCTYPE svg PUBLIC "-//W3C//DTD SVG 1.1//EN" "http://www.w3.org/Graphics/SVG/1.1/DTD/svg11.dtd"><svg width="100%" height="100%" viewBox="0 0 24 24" version="1.1" xmlns="http://www.w3.org/2000/svg" xmlns:xlink="http://www.w3.org/1999/xlink" xml:space="preserve" xmlns:serif="http://www.serif.com/" style="fill-rule:evenodd;clip-rule:evenodd;stroke-linejoin:round;stroke-miterlimit:1.41421;"><rect id="basic.thin.doubleChevronLeft" x="0" y="0" width="24" height="24" style="fill:none;"/><path d="M13.396,5.075c0.093,0.094 0.146,0.221 0.146,0.354c0,0.133 -0.053,0.26 -0.146,0.353c-1.431,1.432 -6.718,6.718 -6.718,6.718c0,0 5.287,5.286 6.718,6.718c0.093,0.093 0.146,0.22 0.146,0.353c0,0.133 -0.053,0.26 -0.146,0.354c-0.196,0.195 -0.512,0.195 -0.707,0c-1.196,-1.196 -5.104,-5.104 -6.718,-6.718c-0.39,-0.39 -0.39,-1.024 0,-1.414c1.614,-1.614 5.522,-5.522 6.718,-6.718c0.195,-0.195 0.511,-0.195 0.707,0c0,0 0,0 0,0Z" style="fill:#333;fill-rule:nonzero;"/><path d="M18.02,6.47c0.091,0.091 0.142,0.215 0.142,0.344c0,0.129 -0.051,0.253 -0.142,0.345c-1.227,1.227 -5.313,5.312 -5.313,5.312c0,0 4.086,4.086 5.313,5.313c0.091,0.091 0.142,0.215 0.142,0.344c0,0.129 -0.051,0.253 -0.142,0.344c-0.001,0.001 -0.001,0.001 -0.001,0.001c-0.096,0.096 -0.226,0.15 -0.362,0.15c-0.136,0 -0.266,-0.054 -0.362,-0.15c-1.022,-1.022 -3.94,-3.94 -5.295,-5.295c-0.188,-0.187 -0.293,-0.442 -0.293,-0.707c0,-0.265 0.105,-0.52 0.293,-0.707c1.355,-1.355 4.273,-4.273 5.295,-5.295c0.096,-0.096 0.226,-0.15 0.362,-0.15c0.136,0 0.266,0.054 0.362,0.15c0,0 0,0.001 0.001,0.001Z" style="fill:#333;fill-rule:nonzero;"/></svg>