<svg width="24" height="24" viewBox="0 0 24 24" fill="none" xmlns="http://www.w3.org/2000/svg">
<path d="M17.0424 11.7925C17.4326 12.1827 17.4333 12.8159 17.0424 13.2067C15.4283 14.8209 11.5193 18.7299 10.3243 19.9249C10.1295 20.1197 9.81323 20.1197 9.61845 19.9249C9.61781 19.9242 9.6178 19.9242 9.61715 19.9236C9.5233 19.8297 9.47123 19.7031 9.47123 19.5707C9.47123 19.4383 9.5233 19.3116 9.61716 19.2178C11.0468 17.7881 16.3353 12.4996 16.3353 12.4996C16.3353 12.4996 11.0693 7.2336 9.62616 5.79046C9.42624 5.59054 9.42624 5.26655 9.62616 5.06663C9.6268 5.06599 9.6268 5.06599 9.6268 5.06599C9.71808 4.97471 9.84214 4.92264 9.97135 4.92328C10.1006 4.92264 10.2246 4.97471 10.3159 5.06599C11.5006 6.25071 15.4244 10.1745 17.0424 11.7925Z" fill="black"/>
</svg>
