<svg width="24" height="24" viewBox="0 0 24 24" fill="none" xmlns="http://www.w3.org/2000/svg">
<path d="M14.3873 5.06663C14.5872 5.26655 14.5872 5.59054 14.3873 5.79046C12.9441 7.2336 7.67812 12.4996 7.67812 12.4996C7.67812 12.4996 12.9441 17.7656 14.3873 19.2088C14.5872 19.4087 14.5872 19.7327 14.3873 19.9326C14.3866 19.9332 14.3866 19.9332 14.3866 19.9332C14.2953 20.0245 14.1713 20.0766 14.0421 20.0759C13.9129 20.0766 13.7888 20.0245 13.6975 19.9332C12.5128 18.7485 8.589 14.8247 6.97101 13.2067C6.58017 12.8159 6.58018 12.1833 6.97101 11.7925C8.589 10.1745 12.5128 6.25071 13.6975 5.06599C13.7888 4.97471 13.9129 4.92264 14.0421 4.92328C14.1713 4.92264 14.2954 4.97471 14.3866 5.06599C14.3866 5.06599 14.3866 5.06599 14.3873 5.06663Z" fill="black"/>
</svg>
