<svg width="24" height="24" viewBox="0 0 24 24" fill="none" xmlns="http://www.w3.org/2000/svg">
<path d="M21.7054 7.49971C21.8954 7.68771 22.0053 7.94171 22.0053 8.20671C22.0053 9.6377 22.0053 14.3617 22.0053 15.7927C22.0053 16.0577 21.8954 16.3117 21.7054 16.4997C20.7154 17.4917 17.4953 20.7157 16.5053 21.7067C16.3153 21.8947 16.0653 21.9997 15.7953 21.9997C14.3653 21.9997 9.63538 21.9997 8.20538 21.9997C7.94538 21.9997 7.6853 21.8947 7.50531 21.7067C6.51531 20.7157 3.28535 17.4917 2.29535 16.4997C2.10535 16.3117 2.00531 16.0577 2.00531 15.7927C2.00531 14.3617 2.00531 9.6377 2.00531 8.20671C2.00531 7.94171 2.10535 7.68771 2.29535 7.49971C3.28535 6.50771 6.51531 3.28371 7.50531 2.29272C7.6853 2.10472 7.94538 1.99972 8.20538 1.99972C9.63538 1.99972 14.3653 1.99972 15.7953 1.99972C16.0653 1.99972 16.3153 2.10472 16.5053 2.29272C17.4953 3.28371 20.7154 6.50771 21.7054 7.49971ZM8.20538 2.99972L3.00531 8.20671V15.7927L8.20538 20.9997H15.7953L21.0053 15.7927V8.20671L15.7953 2.99972H8.20538Z" fill="black"/>
</svg>
