<svg width="24" height="24" viewBox="0 0 24 24" fill="none" xmlns="http://www.w3.org/2000/svg">
<path d="M20.2635 10.2426C20.4512 10.4303 20.5566 10.6848 20.5566 10.9497C20.5566 11.2145 20.4512 11.4691 20.2635 11.6568C18.6654 13.2548 14.7905 17.1298 13.1924 18.7278C13.0047 18.9155 12.7501 19.021 12.4853 19.021C12.2204 19.021 11.9659 18.9155 11.7782 18.7278C10.1801 17.1298 6.30517 13.2548 4.70711 11.6568C4.5194 11.4691 4.41398 11.2145 4.41398 10.9497C4.41398 10.6848 4.51941 10.4303 4.70711 10.2426C5.09795 9.85172 5.73049 9.85172 6.12133 10.2426C7.91224 12.0335 12.4853 16.6065 12.4853 16.6065C12.4853 16.6065 17.0583 12.0335 18.8492 10.2426C19.2401 9.85172 19.8733 9.85236 20.2635 10.2426Z" fill="black"/>
<path d="M18.4954 6.01119C18.6903 6.20609 18.6903 6.52184 18.4954 6.71675C17.4823 7.72984 14.5505 10.6616 13.1914 12.0208C13.0042 12.208 12.7501 12.314 12.4848 12.314C12.2194 12.314 11.9649 12.2085 11.7771 12.0208C10.4144 10.658 7.47022 7.7139 6.46484 6.70852C6.27457 6.51825 6.27457 6.20969 6.46484 6.01941C6.46536 6.0189 6.46536 6.0189 6.46536 6.0189C6.66541 5.81885 6.9899 5.81937 7.18944 6.0189C8.43754 7.26701 12.4843 11.3137 12.4843 11.3137C12.4843 11.3137 16.55 7.24798 17.7878 6.01016C17.9832 5.81474 18.2995 5.81525 18.4949 6.01067L18.4954 6.01119Z" fill="black"/>
</svg>
