<svg width="24" height="24" viewBox="0 0 24 24" fill="none" xmlns="http://www.w3.org/2000/svg">
<path fill-rule="evenodd" clip-rule="evenodd" d="M7.41029 11.014C7.41029 11.014 11.1803 7.25105 12.7803 5.65005C13.1703 5.26005 13.1703 4.62605 12.7803 4.23605C12.5903 4.04805 12.3402 3.94305 12.0702 3.94305C11.8102 3.94305 11.5502 4.04805 11.3602 4.23605C9.77024 5.83405 5.8903 9.70904 4.2903 11.307C4.1103 11.494 4.00026 11.749 4.00026 12.014C4.00026 12.279 4.1103 12.534 4.2903 12.721C5.8903 14.319 9.77024 18.194 11.3602 19.792C11.5502 19.98 11.8102 20.085 12.0702 20.085C12.3402 20.085 12.5903 19.98 12.7803 19.792C13.1703 19.402 13.1703 18.769 12.7803 18.378C11.1803 16.777 7.41029 13.014 7.41029 13.014C7.41029 13.014 17.7102 13.014 21.0002 13.014C21.2602 13.014 21.5202 12.909 21.7102 12.721C21.8902 12.534 22.0002 12.279 22.0002 12.014C22.0002 11.749 21.8902 11.494 21.7102 11.307C21.5202 11.119 21.2602 11.014 21.0002 11.014C17.7102 11.014 7.41029 11.014 7.41029 11.014Z" fill="black"/>
</svg>
