<svg width="24" height="24" viewBox="0 0 24 24" fill="none" xmlns="http://www.w3.org/2000/svg">
<g clip-path="url(#clip0)">
<path d="M13.3954 5.07499C13.4893 5.16884 13.542 5.29612 13.542 5.42854C13.542 5.56096 13.4893 5.68825 13.3954 5.7821C11.9645 7.21303 6.67793 12.4996 6.67793 12.4996C6.67793 12.4996 11.9645 17.7862 13.3954 19.2171C13.4893 19.311 13.542 19.4383 13.542 19.5707C13.542 19.7031 13.4893 19.8304 13.3954 19.9242C13.2 20.1197 12.8838 20.1197 12.6883 19.9242C11.4927 18.7286 7.58495 14.8209 5.97082 13.2067C5.57998 12.8159 5.57998 12.1833 5.97082 11.7925C7.58495 10.1784 11.4927 6.27065 12.6883 5.07499C12.8838 4.87957 13.2 4.87957 13.3954 5.07499Z" fill="black"/>
<path d="M18.0192 6.47023C18.1102 6.56126 18.1621 6.68519 18.1616 6.81427C18.1621 6.94335 18.1102 7.06728 18.0192 7.15831C16.7922 8.38533 12.7064 12.4711 12.7064 12.4711C12.7064 12.4711 16.7922 16.5569 18.0192 17.784C18.1102 17.875 18.1621 17.9989 18.1616 18.128C18.1621 18.2571 18.1102 18.381 18.0192 18.472C18.0187 18.4725 18.0187 18.4725 18.0182 18.4731C17.9225 18.5687 17.7924 18.6227 17.6566 18.6227C17.5209 18.6227 17.3902 18.5692 17.2941 18.4731C16.2728 17.4517 13.3543 14.5333 11.9993 13.1782C11.8121 12.9911 11.7066 12.7365 11.7066 12.4711C11.7066 12.2058 11.8121 11.9512 11.9993 11.764C13.3543 10.409 16.2728 7.49052 17.2941 6.4692C17.3902 6.37304 17.5209 6.31955 17.6566 6.31955C17.7924 6.31955 17.9225 6.37355 18.0182 6.4692C18.0187 6.46972 18.0187 6.46972 18.0192 6.47023Z" fill="black"/>
</g>
<defs>
<clipPath id="clip0">
<rect width="24" height="24" fill="white"/>
</clipPath>
</defs>
</svg>
