<svg width="24" height="24" viewBox="0 0 24 24" fill="none" xmlns="http://www.w3.org/2000/svg">
<path fill-rule="evenodd" clip-rule="evenodd" d="M13.0152 7.41223C13.0152 7.41223 16.7782 11.1822 18.3792 12.7822C18.7692 13.1722 19.4032 13.1722 19.7932 12.7822C19.9812 12.5922 20.0862 12.3421 20.0862 12.0721C20.0862 11.8121 19.9812 11.5522 19.7932 11.3622C18.1952 9.77218 14.3202 5.89224 12.7222 4.29224C12.5352 4.11224 12.2802 4.0022 12.0152 4.0022C11.7502 4.0022 11.4952 4.11224 11.3082 4.29224C9.71021 5.89224 5.83521 9.77218 4.23721 11.3622C4.04921 11.5522 3.94421 11.8121 3.94421 12.0721C3.94421 12.3421 4.04921 12.5922 4.23721 12.7822C4.62721 13.1722 5.26021 13.1722 5.65121 12.7822C7.25221 11.1822 11.0152 7.41223 11.0152 7.41223C11.0152 7.41223 11.0152 17.7122 11.0152 21.0022C11.0152 21.2622 11.1202 21.5221 11.3082 21.7121C11.4952 21.8921 11.7502 22.0022 12.0152 22.0022C12.2802 22.0022 12.5352 21.8921 12.7222 21.7121C12.9102 21.5221 13.0152 21.2622 13.0152 21.0022C13.0152 17.7122 13.0152 7.41223 13.0152 7.41223Z" fill="black"/>
</svg>
