<?xml version="1.0" encoding="UTF-8" standalone="no"?>
<!DOCTYPE svg PUBLIC "-//W3C//DTD SVG 1.1//EN" "http://www.w3.org/Graphics/SVG/1.1/DTD/svg11.dtd">
<svg width="24px" height="24px" version="1.1" xmlns="http://www.w3.org/2000/svg" xmlns:xlink="http://www.w3.org/1999/xlink" xml:space="preserve" xmlns:serif="http://www.serif.com/" style="fill-rule:evenodd;clip-rule:evenodd;stroke-linejoin:round;stroke-miterlimit:1.41421;">
    <g transform="matrix(1,0,0,1,-1487,-320)">
        <g id="basic.thin.chevronDown" transform="matrix(0.800768,0,0,0.984948,1487,320)">
            <rect x="0" y="0" width="29.971" height="24.367" style="fill:none;"/>
            <g transform="matrix(0.80276,0.652648,-0.80276,0.652648,160.107,-119.796)">
                <path d="M15.014,183.45C15.156,183.45 15.293,183.506 15.393,183.607C15.494,183.707 15.55,183.844 15.55,183.986C15.55,185.829 15.55,191.933 15.55,194.45C15.55,195.058 15.058,195.55 14.45,195.55C11.939,195.55 5.858,195.55 3.999,195.55C3.696,195.55 3.45,195.304 3.45,195.001C3.45,195.001 3.45,195 3.45,195C3.45,194.854 3.508,194.714 3.611,194.611C3.714,194.508 3.854,194.45 4,194.45C6.226,194.45 14.45,194.45 14.45,194.45C14.45,194.45 14.45,186.258 14.45,184.013C14.45,183.702 14.702,183.45 15.013,183.45C15.014,183.45 15.014,183.45 15.014,183.45Z" style="fill:rgb(51,51,51);fill-rule:nonzero;"/>
            </g>
        </g>
    </g>
</svg>
