<svg width="24" height="24" viewBox="0 0 24 24" fill="none" xmlns="http://www.w3.org/2000/svg">
<path d="M19.7778 13.3639C19.9655 13.5516 20.071 13.8062 20.071 14.071C20.071 14.3359 19.9655 14.5904 19.7778 14.7781C19.387 15.169 18.7545 15.169 18.3636 14.7781C16.5727 12.9872 11.9997 8.41416 11.9997 8.41416C11.9997 8.41416 7.42661 12.9872 5.6357 14.7781C5.24486 15.169 4.61232 15.169 4.22148 14.7781C4.03378 14.5904 3.92836 14.3359 3.92836 14.071C3.92836 13.8062 4.03377 13.5516 4.22148 13.3639C5.81954 11.7658 9.69449 7.8909 11.2925 6.29283C11.4803 6.10513 11.7348 5.99971 11.9997 5.99971C12.2645 5.99971 12.5191 6.10513 12.7068 6.29284C14.3048 7.8909 18.1798 11.7658 19.7778 13.3639Z" fill="black"/>
</svg>
