<svg width="24" height="24" viewBox="0 0 24 24" fill="none" xmlns="http://www.w3.org/2000/svg">
<path fill-rule="evenodd" clip-rule="evenodd" d="M11.9375 8.21732C11.9375 8.21732 12.9798 7.18977 13.2649 6.90363C15.025 5.13958 17.8864 5.13762 19.6466 6.89773C21.4067 8.65883 21.4067 11.5202 19.6466 13.2843C19.3614 13.5704 11.9375 21.0003 11.9375 21.0003C11.9375 21.0003 4.57256 13.6334 4.3169 13.3797C2.55679 11.6186 2.5568 8.75716 4.32674 6.99311C6.08685 5.22906 8.94826 5.22709 10.7084 6.98819C10.964 7.24188 11.9375 8.21732 11.9375 8.21732Z" stroke="black" stroke-width="2.03" stroke-miterlimit="100" stroke-linecap="round" stroke-linejoin="round"/>
<path fill-rule="evenodd" clip-rule="evenodd" d="M11.9375 8.21732C11.9375 8.21732 12.9798 7.18977 13.2649 6.90363C15.025 5.13958 17.8864 5.13762 19.6466 6.89773C21.4067 8.65883 21.4067 11.5202 19.6466 13.2843C19.3614 13.5704 11.9375 21.0003 11.9375 21.0003C11.9375 21.0003 4.57256 13.6334 4.3169 13.3797C2.55679 11.6186 2.5568 8.75716 4.32674 6.99311C6.08685 5.22906 8.94826 5.22709 10.7084 6.98819C10.964 7.24188 11.9375 8.21732 11.9375 8.21732Z" fill="black" fill-opacity="0.1"/>
</svg>
