<svg width="24" height="24" viewBox="0 0 24 24" fill="none" xmlns="http://www.w3.org/2000/svg">
<g clip-path="url(#clip0)">
<path d="M19.9247 11.6754C20.1202 11.8708 20.1202 12.1871 19.9247 12.3825L19.9241 12.3831C19.8303 12.477 19.7036 12.5291 19.5712 12.5291C19.4388 12.5291 19.3121 12.477 19.2183 12.3831C17.7886 10.9535 12.5001 5.66498 12.5001 5.66498C12.5001 5.66498 7.2341 10.931 5.79096 12.3741C5.59104 12.5741 5.26706 12.5741 5.06714 12.3741C5.0665 12.3735 5.06649 12.3735 5.06649 12.3735C4.97521 12.2822 4.92314 12.1581 4.92379 12.0289C4.92314 11.8997 4.97521 11.7757 5.0665 11.6844C6.25122 10.4997 10.175 6.57586 11.793 4.95787C12.1838 4.56704 12.817 4.56768 13.2072 4.95788C14.8214 6.57201 18.7291 10.4797 19.9247 11.6754Z" fill="black"/>
<path d="M19.9247 17.6754C20.1202 17.8708 20.1202 18.1871 19.9247 18.3825L19.9241 18.3831C19.8303 18.477 19.7036 18.5291 19.5712 18.5291C19.4388 18.5291 19.3121 18.477 19.2183 18.3831C17.7886 16.9535 12.5001 11.665 12.5001 11.665C12.5001 11.665 7.2341 16.931 5.79096 18.3741C5.59104 18.5741 5.26706 18.5741 5.06714 18.3741C5.0665 18.3735 5.06649 18.3735 5.06649 18.3735C4.97521 18.2822 4.92314 18.1581 4.92379 18.0289C4.92314 17.8997 4.97521 17.7757 5.0665 17.6844C6.25122 16.4997 10.175 12.5759 11.793 10.9579C12.1838 10.567 12.817 10.5677 13.2072 10.9579C14.8214 12.572 18.7291 16.4797 19.9247 17.6754Z" fill="black"/>
</g>
<defs>
<clipPath id="clip0">
<rect width="24" height="24" fill="white"/>
</clipPath>
</defs>
</svg>
