<svg width="24" height="24" viewBox="0 0 24 24" fill="none" xmlns="http://www.w3.org/2000/svg">
<path fill-rule="evenodd" clip-rule="evenodd" d="M11.5787 5.04572C11.7687 4.85072 12.0888 4.85171 12.2788 5.04671C13.4788 6.24671 17.3887 10.1727 18.9987 11.7927C19.3887 12.1837 19.3887 12.8167 18.9987 13.2067C17.3787 14.8187 13.4588 18.7247 12.2688 19.9057C12.0788 20.0947 11.7687 20.0947 11.5787 19.9037C11.5787 19.9037 11.5787 19.9037 11.5787 19.9027C11.4887 19.8067 11.4288 19.6767 11.4288 19.5407C11.4288 19.4047 11.4887 19.2747 11.5887 19.1787C12.9587 17.8077 17.7888 12.9997 17.7888 12.9997C17.7888 12.9997 5.17875 12.9997 2.49875 12.9997C2.36875 12.9997 2.23877 12.9467 2.14877 12.8537C2.04877 12.7597 1.99875 12.6327 1.99875 12.5007V12.4997C1.99875 12.3667 2.04877 12.2397 2.14877 12.1457C2.23877 12.0527 2.36875 11.9997 2.49875 11.9997C5.18875 11.9997 17.7988 11.9997 17.7988 11.9997C17.7988 11.9997 12.9387 7.12071 11.5687 5.75171C11.3787 5.55671 11.3787 5.24072 11.5787 5.04572Z" fill="black"/>
</svg>
