<svg width="24" height="24" viewBox="0 0 24 24" fill="none" xmlns="http://www.w3.org/2000/svg">
<path d="M21.5375 8.68771C21.8839 8.94206 22.0323 9.39337 21.8937 9.80607C21.2108 11.9082 19.1622 18.2145 18.4793 20.3176C18.3507 20.7293 17.9647 21.0084 17.5292 21.0084C15.3222 21.0084 8.69116 21.0084 6.47423 21.0084C6.04866 21.0084 5.66265 20.7293 5.5241 20.3176C4.8412 18.2145 2.79251 11.9082 2.10962 9.80607C1.98095 9.39337 2.11951 8.94206 2.4758 8.68771C4.25726 7.38824 9.63137 3.49082 11.4128 2.19135C11.7691 1.93601 12.2442 1.93601 12.5906 2.19135C14.3819 3.49082 19.7461 7.38824 21.5375 8.68771ZM4.2375 9.87832L7.2066 19.0083H16.8067L19.7659 9.87832L12.0066 4.23606L4.2375 9.87832Z" fill="black"/>
<path d="M3 9.5L6.5 20H17.5L21 9.5L12 3L3 9.5Z" fill="black" fill-opacity="0.1"/>
</svg>
