<?xml version="1.0" encoding="UTF-8" standalone="no"?>
<!DOCTYPE svg PUBLIC "-//W3C//DTD SVG 1.1//EN" "http://www.w3.org/Graphics/SVG/1.1/DTD/svg11.dtd">
<svg width="25px" height="24px" version="1.1" xmlns="http://www.w3.org/2000/svg" xmlns:xlink="http://www.w3.org/1999/xlink" xml:space="preserve" xmlns:serif="http://www.serif.com/" style="fill-rule:evenodd;clip-rule:evenodd;stroke-linejoin:round;stroke-miterlimit:1.41421;">
    <g transform="matrix(1,0,0,1,-434,-416)">
        <g id="basic.thin.doubleChevronLeft" transform="matrix(0.800768,0,0,0.984948,434.977,416)">
            <rect x="0" y="0" width="29.971" height="24.367" style="fill:none;"/>
            <g transform="matrix(-0.80276,-0.652648,-0.80276,0.652648,176.036,-104.786)">
                <path d="M15,183.45C14.854,183.45 14.714,183.508 14.611,183.611C14.508,183.714 14.45,183.854 14.45,184C14.45,186.226 14.45,194.45 14.45,194.45C14.45,194.45 6.191,194.45 3.986,194.45C3.69,194.45 3.45,194.69 3.45,194.986C3.45,194.986 3.45,194.986 3.45,194.987C3.45,195.298 3.702,195.55 4.013,195.55C5.889,195.55 11.945,195.55 14.45,195.55C15.058,195.55 15.55,195.058 15.55,194.45C15.55,191.939 15.55,185.86 15.55,184C15.55,183.696 15.304,183.45 15,183.45C15,183.45 15,183.45 15,183.45Z" style="fill:rgb(51,51,51);fill-rule:nonzero;"/>
            </g>
            <g transform="matrix(-0.642208,-0.522119,-0.642208,0.522119,149.849,-81.3197)">
                <path d="M14.982,183.313C14.805,183.313 14.634,183.383 14.509,183.509C14.383,183.634 14.313,183.805 14.313,183.982C14.313,186.368 14.313,194.313 14.313,194.313C14.313,194.313 6.368,194.313 3.982,194.313C3.805,194.313 3.634,194.383 3.509,194.509C3.383,194.634 3.313,194.805 3.313,194.982C3.313,194.983 3.313,194.983 3.313,194.984C3.313,195.17 3.387,195.349 3.519,195.481C3.651,195.613 3.83,195.688 4.017,195.688C6.003,195.688 11.678,195.688 14.313,195.688C14.677,195.688 15.027,195.543 15.285,195.285C15.543,195.027 15.688,194.677 15.688,194.313C15.688,191.678 15.688,186.003 15.688,184.017C15.688,183.83 15.613,183.651 15.481,183.519C15.349,183.387 15.17,183.313 14.984,183.313C14.983,183.313 14.983,183.313 14.982,183.313Z" style="fill:rgb(51,51,51);fill-rule:nonzero;"/>
            </g>
        </g>
    </g>
</svg>
