<?xml version="1.0" encoding="UTF-8" standalone="no"?>
<!DOCTYPE svg PUBLIC "-//W3C//DTD SVG 1.1//EN" "http://www.w3.org/Graphics/SVG/1.1/DTD/svg11.dtd">
<svg width="24px" height="24px" version="1.1" xmlns="http://www.w3.org/2000/svg" xmlns:xlink="http://www.w3.org/1999/xlink" xml:space="preserve" xmlns:serif="http://www.serif.com/" style="fill-rule:evenodd;clip-rule:evenodd;stroke-linejoin:round;stroke-miterlimit:1.41421;">
    <g transform="matrix(1,0,0,1,-96,-416)">
        <g id="basic.thin.doubleChevronUp" transform="matrix(0.800768,0,0,0.984948,96,416)">
            <rect x="0" y="0" width="29.971" height="24.367" style="fill:none;"/>
            <g transform="matrix(0.80276,-0.652648,-0.80276,-0.652648,160.107,143.105)">
                <path d="M15.55,183.986C15.55,183.844 15.494,183.707 15.393,183.607C15.293,183.506 15.156,183.45 15.014,183.45C15.014,183.45 15.014,183.45 15.013,183.45C14.702,183.45 14.45,183.702 14.45,184.013C14.45,186.258 14.45,194.45 14.45,194.45C14.45,194.45 6.258,194.45 4.013,194.45C3.702,194.45 3.45,194.702 3.45,195.013C3.45,195.014 3.45,195.014 3.45,195.014C3.45,195.156 3.506,195.293 3.607,195.393C3.707,195.494 3.844,195.55 3.986,195.55C5.829,195.55 11.933,195.55 14.45,195.55C15.058,195.55 15.55,195.057 15.55,194.45C15.55,191.933 15.55,185.829 15.55,183.986Z" style="fill:rgb(51,51,51);fill-rule:nonzero;"/>
            </g>
            <g transform="matrix(0.642208,-0.522119,-0.642208,-0.522119,131.171,121.828)">
                <path d="M15.687,184.017C15.687,183.83 15.613,183.651 15.481,183.519C15.349,183.387 15.17,183.313 14.983,183.313C14.983,183.313 14.983,183.313 14.982,183.313C14.804,183.313 14.634,183.383 14.509,183.509C14.383,183.634 14.312,183.805 14.312,183.982C14.312,186.368 14.312,194.313 14.312,194.313C14.312,194.313 6.368,194.313 3.982,194.313C3.804,194.313 3.634,194.383 3.509,194.509C3.383,194.634 3.312,194.805 3.312,194.982C3.312,194.983 3.312,194.983 3.312,194.984C3.312,195.17 3.387,195.349 3.519,195.481C3.651,195.613 3.83,195.688 4.016,195.688C6.003,195.688 11.678,195.688 14.312,195.688C14.677,195.688 15.027,195.543 15.285,195.285C15.543,195.027 15.687,194.677 15.687,194.313C15.687,191.678 15.687,186.003 15.687,184.017Z" style="fill:rgb(51,51,51);fill-rule:nonzero;"/>
            </g>
        </g>
    </g>
</svg>
