<?xml version="1.0" encoding="UTF-8" standalone="no"?>
<!DOCTYPE svg PUBLIC "-//W3C//DTD SVG 1.1//EN" "http://www.w3.org/Graphics/SVG/1.1/DTD/svg11.dtd">
<svg width="24px" height="24px" version="1.1" xmlns="http://www.w3.org/2000/svg" xmlns:xlink="http://www.w3.org/1999/xlink" xml:space="preserve" xmlns:serif="http://www.serif.com/" style="fill-rule:evenodd;clip-rule:evenodd;stroke-linejoin:round;stroke-miterlimit:1.41421;">
    <g transform="matrix(1,0,0,1,-1653,-224)">
        <g id="basic.thin.heart" transform="matrix(0.800768,0,0,0.984948,1653,224)">
            <rect x="0" y="0" width="29.971" height="24.367" style="fill:none;"/>
            <g transform="matrix(1.22795,0,0,0.998331,-1418.11,-175.35)">
                <path d="M1171.73,180.301L1171.86,180.306L1172,180.314L1172.13,180.325L1172.27,180.339L1172.4,180.357L1172.53,180.377L1172.66,180.401L1172.8,180.429L1172.93,180.459L1173.06,180.492L1173.19,180.529L1173.32,180.569L1173.45,180.612L1173.58,180.659L1173.7,180.709L1173.83,180.762L1173.96,180.818L1174.08,180.877L1174.2,180.939L1174.33,181.005L1174.44,181.074L1174.56,181.146L1174.68,181.222L1174.8,181.3L1174.91,181.382L1175.03,181.467L1175.14,181.555L1175.25,181.647L1175.35,181.741L1175.46,181.839L1175.56,181.939L1175.66,182.042L1175.76,182.148L1175.85,182.255L1175.94,182.364L1176.03,182.475L1176.12,182.588L1176.2,182.702L1176.28,182.818L1176.35,182.936L1176.43,183.055L1176.5,183.175L1176.56,183.297L1176.62,183.42L1176.68,183.544L1176.74,183.669L1176.79,183.795L1176.84,183.922L1176.89,184.05L1176.93,184.18L1176.97,184.309L1177.01,184.44L1177.04,184.571L1177.07,184.703L1177.1,184.835L1177.12,184.967L1177.14,185.101L1177.16,185.235L1177.17,185.368L1177.19,185.503L1177.19,185.637L1177.2,185.771L1177.2,185.906L1177.2,186.04L1177.19,186.174L1177.19,186.308L1177.17,186.442L1177.16,186.577L1177.14,186.71L1177.12,186.843L1177.1,186.976L1177.07,187.108L1177.04,187.24L1177.01,187.371L1176.97,187.502L1176.93,187.632L1176.88,187.761L1176.84,187.889L1176.79,188.016L1176.74,188.142L1176.68,188.268L1176.62,188.391L1176.56,188.514L1176.49,188.636L1176.42,188.757L1176.35,188.876L1176.27,188.993L1176.19,189.109L1176.11,189.223L1176.03,189.336L1175.94,189.447L1175.85,189.557L1175.75,189.664L1175.66,189.769L1175.56,189.868L1167.72,197.719L1167.66,197.776L1167.59,197.827L1167.52,197.873L1167.45,197.913L1167.37,197.947L1167.29,197.975L1167.21,197.995L1167.13,198.009L1167.04,198.016L1166.96,198.016L1166.88,198.009L1166.79,197.995L1166.71,197.975L1166.63,197.947L1166.55,197.914L1166.48,197.874L1166.41,197.828L1166.34,197.776L1166.28,197.719L1158.53,189.965L1158.43,189.866L1158.33,189.761L1158.24,189.653L1158.15,189.544L1158.06,189.433L1157.97,189.321L1157.89,189.206L1157.81,189.09L1157.74,188.973L1157.67,188.854L1157.6,188.733L1157.53,188.612L1157.47,188.489L1157.41,188.365L1157.35,188.24L1157.3,188.113L1157.25,187.986L1157.2,187.858L1157.16,187.729L1157.12,187.599L1157.08,187.469L1157.05,187.337L1157.02,187.206L1156.99,187.073L1156.97,186.94L1156.95,186.808L1156.93,186.674L1156.92,186.54L1156.9,186.406L1156.9,186.272L1156.89,186.137L1156.89,186.003L1156.89,185.869L1156.9,185.734L1156.91,185.6L1156.92,185.466L1156.93,185.332L1156.95,185.199L1156.97,185.065L1157,184.932L1157.02,184.8L1157.05,184.668L1157.09,184.537L1157.12,184.407L1157.16,184.277L1157.21,184.148L1157.25,184.02L1157.3,183.892L1157.36,183.766L1157.41,183.641L1157.47,183.517L1157.54,183.394L1157.6,183.272L1157.67,183.152L1157.74,183.033L1157.82,182.916L1157.9,182.8L1157.98,182.685L1158.06,182.572L1158.15,182.461L1158.24,182.352L1158.34,182.245L1158.43,182.139L1158.54,182.036L1158.64,181.935L1158.75,181.838L1158.85,181.743L1158.96,181.652L1159.07,181.564L1159.18,181.478L1159.3,181.397L1159.41,181.318L1159.53,181.242L1159.65,181.17L1159.77,181.101L1159.89,181.035L1160.02,180.972L1160.14,180.913L1160.27,180.857L1160.39,180.803L1160.52,180.754L1160.65,180.707L1160.78,180.664L1160.91,180.623L1161.04,180.586L1161.17,180.553L1161.3,180.522L1161.43,180.495L1161.57,180.471L1161.7,180.45L1161.83,180.432L1161.97,180.417L1162.1,180.406L1162.23,180.398L1162.37,180.393L1162.5,180.391L1162.64,180.393L1162.77,180.398L1162.91,180.405L1163.04,180.417L1163.17,180.431L1163.31,180.448L1163.44,180.469L1163.57,180.493L1163.71,180.52L1163.84,180.551L1163.97,180.584L1164.1,180.621L1164.23,180.661L1164.36,180.704L1164.49,180.751L1164.61,180.8L1164.74,180.853L1164.87,180.909L1164.99,180.968L1165.11,181.031L1165.23,181.097L1165.35,181.166L1165.47,181.238L1165.59,181.313L1165.71,181.392L1165.82,181.474L1165.93,181.559L1166.04,181.647L1166.15,181.738L1166.26,181.832L1166.37,181.93L1166.46,182.026L1167,182.565L1167.19,182.375L1167.63,181.939L1167.73,181.844L1167.84,181.746L1167.94,181.652L1168.05,181.56L1168.16,181.472L1168.28,181.387L1168.39,181.305L1168.51,181.226L1168.62,181.151L1168.74,181.078L1168.86,181.009L1168.99,180.943L1169.11,180.881L1169.23,180.821L1169.36,180.765L1169.48,180.712L1169.61,180.662L1169.74,180.615L1169.87,180.572L1170,180.532L1170.13,180.495L1170.26,180.461L1170.39,180.43L1170.52,180.403L1170.66,180.379L1170.79,180.358L1170.92,180.34L1171.06,180.326L1171.19,180.314L1171.33,180.306L1171.46,180.301L1171.59,180.3L1171.73,180.301ZM1171.49,181.318L1171.38,181.322L1171.27,181.329L1171.15,181.338L1171.05,181.35L1170.94,181.365L1170.83,181.382L1170.72,181.401L1170.61,181.424L1170.5,181.449L1170.39,181.477L1170.29,181.507L1170.18,181.54L1170.08,181.575L1169.97,181.613L1169.87,181.654L1169.76,181.698L1169.66,181.744L1169.56,181.792L1169.46,181.844L1169.36,181.897L1169.26,181.954L1169.16,182.013L1169.07,182.075L1168.97,182.139L1168.88,182.206L1168.79,182.276L1168.7,182.348L1168.61,182.423L1168.52,182.501L1168.43,182.581L1168.35,182.664L1167.91,183.097L1167.36,183.644L1167.34,183.662L1167.32,183.678L1167.3,183.694L1167.28,183.708L1167.26,183.722L1167.24,183.734L1167.21,183.745L1167.19,183.754L1167.17,183.763L1167.14,183.771L1167.12,183.777L1167.1,183.782L1167.07,183.786L1167.05,183.789L1167.03,183.791L1167,183.791L1166.98,183.79L1166.95,183.789L1166.93,183.786L1166.9,183.782L1166.88,183.776L1166.86,183.77L1166.83,183.762L1166.81,183.754L1166.79,183.744L1166.77,183.733L1166.74,183.721L1166.72,183.707L1166.7,183.693L1166.68,183.677L1166.66,183.66L1166.64,183.642L1165.75,182.75L1165.66,182.667L1165.58,182.587L1165.49,182.51L1165.4,182.435L1165.31,182.363L1165.22,182.294L1165.12,182.227L1165.03,182.162L1164.93,182.101L1164.84,182.042L1164.74,181.986L1164.64,181.932L1164.54,181.881L1164.44,181.832L1164.34,181.786L1164.23,181.743L1164.13,181.702L1164.02,181.664L1163.92,181.629L1163.81,181.596L1163.7,181.566L1163.6,181.539L1163.49,181.514L1163.38,181.492L1163.27,181.472L1163.16,181.455L1163.05,181.441L1162.94,181.429L1162.83,181.42L1162.72,181.413L1162.61,181.41L1162.5,181.408L1162.39,181.41L1162.28,181.414L1162.17,181.42L1162.06,181.43L1161.95,181.442L1161.84,181.456L1161.74,181.473L1161.63,181.493L1161.52,181.516L1161.41,181.541L1161.3,181.568L1161.2,181.598L1161.09,181.631L1160.98,181.667L1160.88,181.705L1160.78,181.746L1160.67,181.789L1160.57,181.835L1160.47,181.884L1160.37,181.935L1160.27,181.989L1160.17,182.046L1160.07,182.105L1159.98,182.167L1159.88,182.231L1159.79,182.298L1159.69,182.368L1159.6,182.44L1159.52,182.515L1159.43,182.592L1159.34,182.672L1159.26,182.755L1159.17,182.84L1159.09,182.927L1159.02,183.015L1158.94,183.104L1158.87,183.195L1158.8,183.287L1158.73,183.381L1158.67,183.476L1158.61,183.572L1158.55,183.669L1158.49,183.768L1158.43,183.867L1158.38,183.968L1158.34,184.069L1158.29,184.172L1158.25,184.275L1158.2,184.379L1158.17,184.484L1158.13,184.589L1158.1,184.696L1158.07,184.803L1158.04,184.91L1158.02,185.018L1157.99,185.126L1157.97,185.235L1157.96,185.344L1157.94,185.454L1157.93,185.563L1157.92,185.673L1157.91,185.783L1157.91,185.893L1157.91,186.004L1157.91,186.114L1157.91,186.224L1157.92,186.334L1157.93,186.444L1157.94,186.554L1157.95,186.663L1157.97,186.772L1157.99,186.881L1158.01,186.989L1158.04,187.097L1158.07,187.205L1158.1,187.311L1158.13,187.418L1158.16,187.523L1158.2,187.628L1158.24,187.732L1158.29,187.835L1158.33,187.937L1158.38,188.039L1158.43,188.139L1158.49,188.239L1158.54,188.337L1158.6,188.434L1158.66,188.53L1158.73,188.625L1158.79,188.719L1158.86,188.811L1158.93,188.902L1159.01,188.991L1159.09,189.079L1159.17,189.165L1159.25,189.25L1167,197L1174.84,189.153L1174.92,189.068L1175,188.982L1175.08,188.894L1175.15,188.804L1175.22,188.713L1175.29,188.621L1175.36,188.527L1175.42,188.433L1175.49,188.336L1175.55,188.239L1175.6,188.141L1175.66,188.041L1175.71,187.941L1175.76,187.839L1175.8,187.737L1175.85,187.633L1175.89,187.529L1175.92,187.425L1175.96,187.319L1175.99,187.213L1176.02,187.106L1176.05,186.998L1176.08,186.891L1176.1,186.782L1176.12,186.673L1176.13,186.564L1176.15,186.455L1176.16,186.345L1176.17,186.235L1176.18,186.125L1176.18,186.015L1176.18,185.905L1176.18,185.795L1176.18,185.684L1176.17,185.574L1176.16,185.464L1176.15,185.355L1176.14,185.245L1176.12,185.136L1176.1,185.027L1176.08,184.919L1176.05,184.811L1176.03,184.704L1176,184.597L1175.96,184.491L1175.93,184.385L1175.89,184.281L1175.85,184.176L1175.81,184.073L1175.76,183.971L1175.71,183.87L1175.66,183.769L1175.61,183.67L1175.55,183.571L1175.49,183.474L1175.43,183.378L1175.37,183.283L1175.3,183.19L1175.23,183.098L1175.16,183.007L1175.08,182.917L1175,182.829L1174.92,182.743L1174.84,182.658L1174.76,182.576L1174.67,182.496L1174.58,182.418L1174.49,182.344L1174.4,182.271L1174.31,182.202L1174.22,182.135L1174.12,182.071L1174.03,182.009L1173.93,181.95L1173.83,181.894L1173.73,181.84L1173.63,181.789L1173.53,181.741L1173.43,181.695L1173.32,181.651L1173.22,181.611L1173.12,181.573L1173.01,181.537L1172.9,181.505L1172.8,181.475L1172.69,181.447L1172.58,181.422L1172.47,181.4L1172.36,181.38L1172.26,181.363L1172.14,181.349L1172.04,181.337L1171.93,181.328L1171.82,181.322L1171.7,181.318L1171.6,181.317L1171.49,181.318Z" style="fill:rgb(51,51,51);"/>
            </g>
        </g>
    </g>
</svg>
