<?xml version="1.0" encoding="UTF-8" standalone="no"?>
<!DOCTYPE svg PUBLIC "-//W3C//DTD SVG 1.1//EN" "http://www.w3.org/Graphics/SVG/1.1/DTD/svg11.dtd">
<svg width="24px" height="24px" version="1.1" xmlns="http://www.w3.org/2000/svg" xmlns:xlink="http://www.w3.org/1999/xlink" xml:space="preserve" xmlns:serif="http://www.serif.com/" style="fill-rule:evenodd;clip-rule:evenodd;stroke-linecap:round;stroke-linejoin:round;stroke-miterlimit:1.5;">
    <g transform="matrix(1,0,0,1,-885,-368)">
        <g id="basic.regular.doubleChevronRight" transform="matrix(0.800768,0,0,0.984948,885,368)">
            <rect x="0" y="0" width="29.971" height="24.367" style="fill:none;"/>
            <clipPath id="_clip1">
                <rect x="0" y="0" width="29.971" height="24.367"/>
            </clipPath>
            <g clip-path="url(#_clip1)">
                <g transform="matrix(0.80276,-0.652648,0.80276,0.652648,-146.101,-104.815)">
                    <path d="M16.1,195C16.1,195.292 15.984,195.572 15.778,195.778C15.571,195.984 15.292,196.1 15,196.1C12.514,196.1 6.486,196.1 4,196.1C3.708,196.1 3.428,195.984 3.222,195.778C3.016,195.572 2.9,195.292 2.9,195C2.9,194.392 3.392,193.9 4,193.9C6.786,193.9 13.9,193.9 13.9,193.9C13.9,193.9 13.9,186.786 13.9,184C13.9,183.392 14.392,182.9 15,182.9C15.292,182.9 15.571,183.016 15.778,183.222C15.984,183.428 16.1,183.708 16.1,184C16.1,186.486 16.1,192.514 16.1,195Z" style="fill:rgb(51,51,51);fill-rule:nonzero;"/>
                </g>
                <g transform="matrix(0.642208,-0.522119,0.642208,0.522119,-119.878,-81.3197)">
                    <path d="M15.688,194.313C15.688,194.677 15.543,195.027 15.285,195.285C15.027,195.543 14.677,195.688 14.313,195.688C11.662,195.688 5.937,195.688 3.982,195.688C3.612,195.688 3.313,195.388 3.313,195.018C3.313,195.017 3.313,195.017 3.313,195.017C3.313,194.628 3.628,194.313 4.016,194.313C6.443,194.313 14.313,194.313 14.313,194.313C14.313,194.313 14.313,186.443 14.313,184.017C14.313,183.628 14.628,183.313 15.017,183.313C15.017,183.313 15.017,183.313 15.018,183.313C15.388,183.313 15.688,183.612 15.688,183.982C15.688,185.937 15.688,191.662 15.688,194.313Z" style="fill:rgb(51,51,51);fill-rule:nonzero;"/>
                </g>
                <g transform="matrix(1.2488,0,0,1.01528,0,-276.157)">
                    <rect x="-17" y="178" width="387" height="200" style="fill:none;stroke:black;stroke-width:1px;"/>
                </g>
            </g>
        </g>
    </g>
</svg>
