<svg width="24" height="24" viewBox="0 0 24 24" fill="none" xmlns="http://www.w3.org/2000/svg">
<g clip-path="url(#clip0)">
<path d="M20.2495 11.3642C20.4372 11.5519 20.5426 11.8065 20.5426 12.0713C20.5426 12.3361 20.4372 12.5907 20.2495 12.7784C19.8593 13.1686 19.2261 13.1692 18.8353 12.7784C17.0444 10.9875 12.4713 6.41445 12.4713 6.41445C12.4713 6.41445 7.89826 10.9875 6.10735 12.7784C5.71716 13.1686 5.08397 13.1692 4.69313 12.7784C4.50543 12.5907 4.40065 12.3368 4.4 12.0713C4.40065 11.8058 4.50542 11.5519 4.69313 11.3642C6.29119 9.76612 10.1661 5.89118 11.7642 4.29312C11.9519 4.10541 12.2065 3.99999 12.4713 3.99999C12.7368 4.00064 12.9907 4.10542 13.1784 4.29312C14.7765 5.89118 18.6514 9.76613 20.2495 11.3642Z" fill="black"/>
<path d="M20.2495 17.3642C20.4372 17.5519 20.5426 17.8065 20.5426 18.0713C20.5426 18.3361 20.4372 18.5907 20.2495 18.7784C19.8593 19.1686 19.2261 19.1692 18.8353 18.7784C17.0444 16.9875 12.4713 12.4144 12.4713 12.4144C12.4713 12.4144 7.89826 16.9875 6.10735 18.7784C5.71716 19.1686 5.08397 19.1692 4.69313 18.7784C4.50543 18.5907 4.40065 18.3368 4.4 18.0713C4.40065 17.8058 4.50542 17.5519 4.69313 17.3642C6.29119 15.7661 10.1661 11.8912 11.7642 10.2931C11.9519 10.1054 12.2065 9.99999 12.4713 9.99999C12.7368 10.0006 12.9907 10.1054 13.1784 10.2931C14.7765 11.8912 18.6514 15.7661 20.2495 17.3642Z" fill="black"/>
</g>
<defs>
<clipPath id="clip0">
<rect width="24" height="24" fill="white"/>
</clipPath>
</defs>
</svg>
