<?xml version="1.0" encoding="UTF-8" standalone="no"?><!DOCTYPE svg PUBLIC "-//W3C//DTD SVG 1.1//EN" "http://www.w3.org/Graphics/SVG/1.1/DTD/svg11.dtd"><svg width="100%" height="100%" viewBox="0 0 24 24" version="1.1" xmlns="http://www.w3.org/2000/svg" xmlns:xlink="http://www.w3.org/1999/xlink" xml:space="preserve" xmlns:serif="http://www.serif.com/" style="fill-rule:evenodd;clip-rule:evenodd;stroke-linejoin:round;stroke-miterlimit:1.41421;"><rect id="basic.thin.arrowUp" x="0" y="0" width="24" height="24" style="fill:none;"/><path d="M19.917,12.432c0.096,-0.096 0.149,-0.226 0.149,-0.362c0,-0.136 -0.054,-0.266 -0.151,-0.362c-1.209,-1.205 -5.121,-5.1 -6.737,-6.709c-0.391,-0.39 -1.024,-0.389 -1.414,0.002c-1.604,1.611 -5.48,5.502 -6.681,6.709c-0.199,0.2 -0.199,0.524 0.002,0.724c0,0 0,0 0,0.001c0.092,0.091 0.216,0.142 0.345,0.141c0.129,0 0.253,-0.051 0.344,-0.143c1.348,-1.353 6.197,-6.222 6.197,-6.222c0,0 0,12.605 0,15.29c0,0.132 0.053,0.259 0.146,0.353c0.094,0.093 0.221,0.146 0.353,0.146c0,0 0.001,0 0.001,0c0.133,0 0.26,-0.053 0.354,-0.146c0.093,-0.094 0.146,-0.221 0.146,-0.354c0,-2.688 0,-15.296 0,-15.296c0,0 4.899,4.879 6.256,6.231c0.092,0.091 0.216,0.142 0.345,0.141c0.129,0 0.253,-0.051 0.344,-0.143c0,0 0.001,0 0.001,-0.001Z" style="fill:#333;"/></svg>