<svg width="24" height="24" viewBox="0 0 24 24" fill="none" xmlns="http://www.w3.org/2000/svg">
<path d="M20.4944 6.628C20.8044 6.806 21.0044 7.13899 21.0044 7.49999C21.0044 9.29399 21.0044 14.706 21.0044 16.5C21.0044 16.861 20.8044 17.194 20.4944 17.372C18.9044 18.265 14.0544 20.993 12.4944 21.872C12.1844 22.043 11.8144 22.043 11.5144 21.872C9.9444 20.993 5.1044 18.265 3.5144 17.372C3.1944 17.194 3.00439 16.861 3.00439 16.5C3.00439 14.706 3.00439 9.29399 3.00439 7.49999C3.00439 7.13899 3.1944 6.806 3.5144 6.628C5.1044 5.735 9.9444 3.007 11.5144 2.12801C11.8144 1.95701 12.1844 1.95701 12.4944 2.12801C14.0544 3.007 18.9044 5.735 20.4944 6.628ZM4.00439 7.49999V16.5L12.0044 21L20.0044 16.5V7.49999L12.0044 3L4.00439 7.49999Z" fill="black"/>
</svg>
