<svg width="24" height="24" viewBox="0 0 24 24" fill="none" xmlns="http://www.w3.org/2000/svg">
<path d="M21.7054 7.29227C21.8954 7.47927 22.0053 7.73427 22.0053 7.99927C22.0053 9.48227 22.0053 14.5163 22.0053 15.9993C22.0053 16.2643 21.8954 16.5193 21.7054 16.7063C20.7454 17.6713 17.6754 20.7412 16.7054 21.7062C16.5254 21.8942 16.2653 21.9992 16.0053 21.9992C14.5153 21.9992 9.4853 21.9992 8.0053 21.9992C7.7353 21.9992 7.48534 21.8942 7.29534 21.7062C6.33535 20.7422 3.25535 17.6713 2.29535 16.7063C2.10535 16.5193 2.00531 16.2643 2.00531 15.9993C2.00531 14.5163 2.00531 9.48227 2.00531 7.99927C2.00531 7.73427 2.10535 7.47927 2.29535 7.29227C3.25535 6.32727 6.33535 3.25628 7.29534 2.29228C7.48534 2.10428 7.7353 1.99928 8.0053 1.99928C9.4853 1.99928 14.5153 1.99928 16.0053 1.99928C16.2653 1.99928 16.5254 2.10428 16.7054 2.29228C17.6754 3.25728 20.7454 6.32727 21.7054 7.29227ZM8.41534 3.99928L4.00531 8.41327V15.5853L8.41534 19.9992H15.5854L20.0053 15.5853V8.41327L15.5854 3.99928H8.41534Z" fill="black"/>
<path d="M3 8V16L8 21H16L21 16V8L16 3H8L3 8Z" fill="black" fill-opacity="0.1"/>
</svg>
