<?xml version="1.0" encoding="UTF-8" standalone="no"?>
<!DOCTYPE svg PUBLIC "-//W3C//DTD SVG 1.1//EN" "http://www.w3.org/Graphics/SVG/1.1/DTD/svg11.dtd">
<svg width="24px" height="24px" version="1.1" xmlns="http://www.w3.org/2000/svg" xmlns:xlink="http://www.w3.org/1999/xlink" xml:space="preserve" xmlns:serif="http://www.serif.com/" style="fill-rule:evenodd;clip-rule:evenodd;stroke-linejoin:round;stroke-miterlimit:1.41421;">
    <g transform="matrix(1,0,0,1,-1059,-176)">
        <g id="basic.regular.hexagon" transform="matrix(0.800768,0,0,0.984948,1059,176)">
            <rect x="0" y="0" width="29.971" height="24.367" style="fill:none;"/>
            <g transform="matrix(1.2488,0,0,1.01528,-1321.2,-177.674)">
                <path d="M1078.47,181.636C1078.78,181.813 1078.98,182.146 1078.98,182.507C1078.98,184.298 1078.98,189.702 1078.98,191.493C1078.98,191.854 1078.78,192.187 1078.47,192.364C1076.88,193.26 1072.03,195.996 1070.47,196.878C1070.16,197.05 1069.79,197.05 1069.49,196.878C1067.92,195.996 1063.07,193.26 1061.49,192.364C1061.17,192.187 1060.98,191.854 1060.98,191.493C1060.98,189.702 1060.98,184.298 1060.98,182.507C1060.98,182.146 1061.17,181.813 1061.49,181.636C1063.07,180.74 1067.92,178.004 1069.49,177.122C1069.79,176.95 1070.16,176.95 1070.47,177.122C1072.03,178.004 1076.88,180.74 1078.47,181.636ZM1062.98,183.077L1062.98,190.923L1069.98,194.845L1076.98,190.923L1076.98,183.077L1069.98,179.155L1062.98,183.077Z" style="fill:rgb(51,51,51);fill-rule:nonzero;"/>
            </g>
        </g>
    </g>
</svg>
