<?xml version="1.0" encoding="UTF-8" standalone="no"?><!DOCTYPE svg PUBLIC "-//W3C//DTD SVG 1.1//EN" "http://www.w3.org/Graphics/SVG/1.1/DTD/svg11.dtd"><svg width="100%" height="100%" viewBox="0 0 24 24" version="1.1" xmlns="http://www.w3.org/2000/svg" xmlns:xlink="http://www.w3.org/1999/xlink" xml:space="preserve" xmlns:serif="http://www.serif.com/" style="fill-rule:evenodd;clip-rule:evenodd;stroke-linejoin:round;stroke-miterlimit:1.41421;"><rect id="basic.thin.arrowRight" x="0" y="0" width="24" height="24" style="fill:none;"/><path d="M11.576,5.046c0.196,-0.195 0.512,-0.194 0.707,0.001c1.195,1.2 5.105,5.126 6.718,6.746c0.39,0.391 0.389,1.024 -0.002,1.414c-1.611,1.604 -5.502,5.48 -6.709,6.681c-0.2,0.199 -0.524,0.199 -0.724,-0.002c0,0 0,0 -0.001,0c-0.091,-0.092 -0.142,-0.216 -0.141,-0.345c0,-0.129 0.051,-0.253 0.143,-0.344c1.353,-1.347 6.222,-6.197 6.222,-6.197c0,0 -12.605,0 -15.29,0c-0.132,0 -0.259,-0.053 -0.353,-0.146c-0.093,-0.094 -0.146,-0.221 -0.146,-0.353c0,0 0,-0.001 0,-0.001c0,-0.133 0.053,-0.26 0.146,-0.354c0.094,-0.093 0.221,-0.146 0.354,-0.146c2.688,0 15.296,0 15.296,0c0,0 -4.857,-4.877 -6.221,-6.247c-0.094,-0.094 -0.146,-0.221 -0.146,-0.354c0,-0.133 0.053,-0.26 0.147,-0.353c0,0 0,0 0,0Z" style="fill:#333;"/></svg>