<?xml version="1.0" encoding="UTF-8" standalone="no"?>
<!DOCTYPE svg PUBLIC "-//W3C//DTD SVG 1.1//EN" "http://www.w3.org/Graphics/SVG/1.1/DTD/svg11.dtd">
<svg width="24px" height="24px" version="1.1" xmlns="http://www.w3.org/2000/svg" xmlns:xlink="http://www.w3.org/1999/xlink" xml:space="preserve" xmlns:serif="http://www.serif.com/" style="fill-rule:evenodd;clip-rule:evenodd;stroke-linejoin:round;stroke-miterlimit:1.41421;">
    <g transform="matrix(1,0,0,1,-1391,-320)">
        <g id="basic.thin.chevronLeft" transform="matrix(0.800768,0,0,0.984948,1391,320)">
            <rect x="0" y="0" width="29.971" height="24.367" style="fill:none;"/>
            <g transform="matrix(-0.80276,-0.652648,-0.80276,0.652648,177.285,-104.786)">
                <path d="M14.986,183.45C14.69,183.45 14.45,183.69 14.45,183.986C14.45,186.191 14.45,194.45 14.45,194.45C14.45,194.45 6.191,194.45 3.986,194.45C3.69,194.45 3.45,194.69 3.45,194.986C3.45,194.986 3.45,194.986 3.45,194.987C3.45,195.298 3.702,195.55 4.013,195.55C5.889,195.55 11.945,195.55 14.45,195.55C15.058,195.55 15.55,195.058 15.55,194.45C15.55,191.945 15.55,185.889 15.55,184.013C15.55,183.702 15.298,183.45 14.987,183.45C14.986,183.45 14.986,183.45 14.986,183.45Z" style="fill:rgb(51,51,51);fill-rule:nonzero;"/>
            </g>
        </g>
    </g>
</svg>
