<svg width="24" height="24" viewBox="0 0 24 24" fill="none" xmlns="http://www.w3.org/2000/svg">
<g clip-path="url(#clip0)">
<path d="M19.0628 11.7925C19.4536 12.1833 19.4536 12.8159 19.0628 13.2067C17.4487 14.8209 13.5397 18.7299 12.3447 19.9249C12.1499 20.1197 11.8336 20.1197 11.6388 19.9249L11.6382 19.9242C11.5443 19.8304 11.4916 19.7031 11.4916 19.5707C11.4916 19.4383 11.5443 19.311 11.6382 19.2171C13.0691 17.7862 18.3557 12.4996 18.3557 12.4996C18.3557 12.4996 13.0672 7.21109 11.6375 5.78145C11.5437 5.6876 11.4916 5.56096 11.4916 5.42854C11.4916 5.29612 11.5437 5.16949 11.6375 5.07563C11.6382 5.07499 11.6382 5.07499 11.6388 5.07435C11.8336 4.87957 12.1499 4.87957 12.3446 5.07434C13.5397 6.26936 17.4487 10.1784 19.0628 11.7925Z" fill="black"/>
<path d="M13.0628 11.7925C13.4536 12.1833 13.4536 12.8159 13.0628 13.2067C11.4487 14.8209 7.53966 18.7299 6.34465 19.9249C6.14988 20.1197 5.83361 20.1197 5.63883 19.9249L5.63819 19.9242C5.54433 19.8304 5.49162 19.7031 5.49162 19.5707C5.49162 19.4383 5.54433 19.311 5.63819 19.2171C7.06911 17.7862 12.3557 12.4996 12.3557 12.4996C12.3557 12.4996 7.06718 7.21109 5.63754 5.78145C5.54369 5.6876 5.49162 5.56096 5.49162 5.42854C5.49162 5.29612 5.54369 5.16949 5.63754 5.07563C5.63819 5.07499 5.63819 5.07499 5.63883 5.07435C5.8336 4.87957 6.14987 4.87957 6.34465 5.07434C7.53966 6.26936 11.4487 10.1784 13.0628 11.7925Z" fill="black"/>
</g>
<defs>
<clipPath id="clip0">
<rect width="24" height="24" fill="white"/>
</clipPath>
</defs>
</svg>
