<svg width="24" height="24" viewBox="0 0 24 24" fill="none" xmlns="http://www.w3.org/2000/svg">
<g clip-path="url(#clip0_35_12)">
<path d="M12.3954 5.07499C12.4893 5.16884 12.542 5.29612 12.542 5.42854C12.542 5.56096 12.4893 5.68825 12.3954 5.7821C10.9645 7.21303 5.67793 12.4996 5.67793 12.4996C5.67793 12.4996 10.9645 17.7862 12.3954 19.2171C12.4893 19.311 12.542 19.4383 12.542 19.5707C12.542 19.7031 12.4893 19.8304 12.3954 19.9242C12.2 20.1197 11.8838 20.1197 11.6883 19.9242C10.4927 18.7286 6.58495 14.8209 4.97082 13.2067C4.57998 12.8159 4.57998 12.1833 4.97082 11.7925C6.58495 10.1784 10.4927 6.27065 11.6883 5.07499C11.8838 4.87957 12.2 4.87957 12.3954 5.07499Z" fill="black"/>
<path d="M18.3954 5.07499C18.4893 5.16884 18.542 5.29612 18.542 5.42854C18.542 5.56096 18.4893 5.68825 18.3954 5.7821C16.9645 7.21303 11.6779 12.4996 11.6779 12.4996C11.6779 12.4996 16.9645 17.7862 18.3954 19.2171C18.4893 19.311 18.542 19.4383 18.542 19.5707C18.542 19.7031 18.4893 19.8304 18.3954 19.9242C18.2 20.1197 17.8838 20.1197 17.6883 19.9242C16.4927 18.7286 12.585 14.8209 10.9708 13.2067C10.58 12.8159 10.58 12.1833 10.9708 11.7925C12.585 10.1784 16.4927 6.27065 17.6883 5.07499C17.8838 4.87957 18.2 4.87957 18.3954 5.07499Z" fill="black"/>
</g>
<defs>
<clipPath id="clip0_35_12">
<rect width="24" height="24" fill="white"/>
</clipPath>
</defs>
</svg>
