<svg width="24" height="24" viewBox="0 0 24 24" fill="none" xmlns="http://www.w3.org/2000/svg">
<path d="M21.8575 18.4855C22.042 18.7945 22.0465 19.1785 21.8695 19.492C21.6925 19.8055 21.3595 20.0005 20.9995 20.0005C16.9525 20.0005 7.04649 20.0005 2.99949 20.0005C2.63949 20.0005 2.30651 19.8055 2.12951 19.492C1.95251 19.1785 1.95701 18.7945 2.14151 18.4855C4.19051 15.0715 9.1435 6.81698 11.1415 3.48548C11.323 3.18398 11.6485 2.99949 11.9995 2.99949C12.3505 2.99949 12.676 3.18398 12.8575 3.48548C14.8555 6.81698 19.8085 15.0715 21.8575 18.4855ZM2.99949 19H20.9995L11.9995 3.99998C8.99949 8.99947 5.99949 14.0005 2.99949 19Z" fill="black"/>
<path d="M12 4L3 19H21L12 4Z" fill="black" fill-opacity="0.1"/>
</svg>
