<?xml version="1.0" encoding="UTF-8" standalone="no"?><!DOCTYPE svg PUBLIC "-//W3C//DTD SVG 1.1//EN" "http://www.w3.org/Graphics/SVG/1.1/DTD/svg11.dtd"><svg width="100%" height="100%" viewBox="0 0 24 24" version="1.1" xmlns="http://www.w3.org/2000/svg" xmlns:xlink="http://www.w3.org/1999/xlink" xml:space="preserve" xmlns:serif="http://www.serif.com/" style="fill-rule:evenodd;clip-rule:evenodd;stroke-linejoin:round;stroke-miterlimit:1.41421;"><rect id="basic.thin.check" x="0" y="0" width="24" height="24" style="fill:none;"/><path d="M20.353,6.146c0.094,0.094 0.147,0.221 0.147,0.354c0,0.133 -0.053,0.26 -0.147,0.354c-1.526,1.526 -7.567,7.567 -9.646,9.646c-0.187,0.188 -0.442,0.293 -0.707,0.293c-0.265,0 -0.52,-0.105 -0.707,-0.293c-1.231,-1.231 -3.725,-3.725 -4.647,-4.647c-0.195,-0.195 -0.195,-0.511 0,-0.706c0,0 0,0 0,-0.001c0.196,-0.195 0.512,-0.195 0.707,0c1.141,1.141 4.647,4.647 4.647,4.647c0,0 7.872,-7.872 9.647,-9.647c0.195,-0.195 0.511,-0.195 0.706,0c0,0 0,0 0,0Z" style="fill:#333;fill-rule:nonzero;"/></svg>