<svg width="24" height="24" viewBox="0 0 24 24" fill="none" xmlns="http://www.w3.org/2000/svg">
<path d="M20.7072 5.29299C21.0982 5.68299 21.0982 6.31699 20.7072 6.70699C18.6612 8.75298 12.7532 14.661 10.7072 16.707C10.5202 16.895 10.2652 17 10.0002 17C9.73517 17 9.48017 16.895 9.29317 16.707C8.05917 15.473 5.52717 12.941 4.29317 11.707C4.10517 11.52 4.00018 11.265 4.00018 11C4.00018 10.735 4.10517 10.48 4.29317 10.293C4.48017 10.105 4.73517 9.99998 5.00017 9.99998C5.26517 9.99998 5.52017 10.105 5.70717 10.293C7.08617 11.672 10.0002 14.586 10.0002 14.586C10.0002 14.586 17.0122 7.57299 19.2932 5.29299C19.4802 5.10499 19.7352 4.99999 20.0002 4.99999C20.2652 4.99999 20.5202 5.10499 20.7072 5.29299Z" fill="#333333"/>
</svg>
