<svg width="24" height="24" viewBox="0 0 24 24" fill="none" xmlns="http://www.w3.org/2000/svg">
<path d="M19.7778 9.2221C19.9655 9.4098 20.071 9.66437 20.071 9.92921C20.071 10.1941 19.9655 10.4486 19.7778 10.6363C18.1798 12.2344 14.3048 16.1093 12.7068 17.7074C12.5191 17.8951 12.2652 17.9999 11.9997 18.0005C11.7348 18.0005 11.4803 17.8951 11.2926 17.7074C9.69449 16.1093 5.81955 12.2344 4.22148 10.6363C4.03378 10.4486 3.929 10.1947 3.92836 9.92921C3.929 9.66372 4.03378 9.40981 4.22149 9.2221C4.61232 8.83126 5.24551 8.8319 5.63571 9.2221C7.42661 11.013 11.9997 15.5861 11.9997 15.5861C11.9997 15.5861 16.5727 11.013 18.3636 9.2221C18.7545 8.83126 19.3877 8.8319 19.7778 9.2221Z" fill="black"/>
</svg>
