<svg width="24" height="24" viewBox="0 0 24 24" fill="none" xmlns="http://www.w3.org/2000/svg">
<g clip-path="url(#clip0)">
<path d="M18.7075 11.7639C18.8952 11.9516 19.0006 12.2062 19.0006 12.4711C19 12.7365 18.8952 12.9905 18.7075 13.1782C17.1094 14.7762 13.2345 18.6512 11.6364 20.2492C11.4487 20.4369 11.1942 20.5424 10.9293 20.5424C10.6645 20.5424 10.4099 20.4369 10.2222 20.2492C9.83137 19.8584 9.83137 19.2258 10.2222 18.835C12.0131 17.0441 16.5862 12.471 16.5862 12.471C16.5862 12.471 12.0131 7.898 10.2222 6.10709C9.83137 5.71625 9.83137 5.08371 10.2222 4.69287C10.4099 4.50517 10.6638 4.40039 10.9293 4.39975C11.1942 4.39975 11.4487 4.50517 11.6364 4.69288C13.2345 6.29094 17.1094 10.1659 18.7075 11.7639Z" fill="black"/>
<path d="M12.0008 11.764C12.188 11.9512 12.2934 12.2058 12.2934 12.4711C12.2934 12.7365 12.188 12.9911 12.0008 13.1782C10.6375 14.5415 7.69336 17.4857 6.68798 18.4911C6.49771 18.6813 6.18967 18.6808 5.99939 18.4906C5.99888 18.49 5.99887 18.49 5.99887 18.49C5.79883 18.29 5.79883 17.966 5.99836 17.7665C7.24647 16.5184 11.2937 12.4711 11.2937 12.4711C11.2937 12.4711 7.24647 8.42391 5.99887 7.17631C5.79883 6.97627 5.79883 6.65229 5.99888 6.45224C5.99888 6.45224 5.99888 6.45224 5.99939 6.45172C6.18967 6.26145 6.4977 6.26093 6.68798 6.45121C7.69336 7.45658 10.6375 10.4007 12.0008 11.764Z" fill="black"/>
</g>
<defs>
<clipPath id="clip0">
<rect width="24" height="24" fill="white"/>
</clipPath>
</defs>
</svg>
