<svg width="24" height="24" viewBox="0 0 24 24" fill="none" xmlns="http://www.w3.org/2000/svg">
<path fill-rule="evenodd" clip-rule="evenodd" d="M11.9978 10.5853C11.9978 10.5853 14.9078 7.67127 16.2878 6.29227C16.4778 6.10427 16.7378 5.99928 16.9978 5.99928C17.2678 5.99928 17.5178 6.10427 17.7078 6.29227C17.8878 6.47927 17.9978 6.73427 17.9978 6.99927C17.9978 7.26427 17.8878 7.51927 17.7078 7.70627C16.3278 9.08527 13.4078 11.9993 13.4078 11.9993C13.4078 11.9993 16.3278 14.9133 17.7078 16.2923C17.8878 16.4793 17.9978 16.7343 17.9978 16.9993C17.9978 17.2643 17.8878 17.5193 17.7078 17.7063C17.5178 17.8943 17.2678 17.9993 16.9978 17.9993C16.7378 17.9993 16.4778 17.8943 16.2878 17.7063C14.9078 16.3273 11.9978 13.4133 11.9978 13.4133C11.9978 13.4133 9.08776 16.3273 7.70776 17.7063C7.51776 17.8943 7.2678 17.9993 6.9978 17.9993C6.7378 17.9993 6.47784 17.8943 6.28784 17.7063C6.10784 17.5193 5.9978 17.2643 5.9978 16.9993C5.9978 16.7343 6.10784 16.4793 6.28784 16.2923C7.66784 14.9133 10.5878 11.9993 10.5878 11.9993C10.5878 11.9993 7.66784 9.08527 6.28784 7.70627C6.10784 7.51927 5.9978 7.26427 5.9978 6.99927C5.9978 6.73427 6.10784 6.47927 6.28784 6.29227C6.47784 6.10427 6.7378 5.99928 6.9978 5.99928C7.2678 5.99928 7.51776 6.10427 7.70776 6.29227C9.08776 7.67127 11.9978 10.5853 11.9978 10.5853Z" fill="black"/>
</svg>
