<svg width="24" height="24" viewBox="0 0 24 24" fill="none" xmlns="http://www.w3.org/2000/svg">
<path fill-rule="evenodd" clip-rule="evenodd" d="M11.9959 10.5853C11.9959 10.5853 17.3359 5.24728 19.2859 3.29228C19.4759 3.10428 19.7359 2.99928 19.9959 2.99928C20.2659 2.99928 20.5158 3.10428 20.7058 3.29228C20.8858 3.47928 20.9959 3.73428 20.9959 3.99928C20.9959 4.26428 20.8858 4.51928 20.7058 4.70628C18.7458 6.66228 13.4059 11.9993 13.4059 11.9993C13.4059 11.9993 18.7458 17.3363 20.7058 19.2922C20.8858 19.4792 20.9959 19.7342 20.9959 19.9992C20.9959 20.2642 20.8858 20.5192 20.7058 20.7062C20.5158 20.8942 20.2659 20.9992 19.9959 20.9992C19.7359 20.9992 19.4759 20.8942 19.2859 20.7062C17.3359 18.7513 11.9959 13.4133 11.9959 13.4133C11.9959 13.4133 6.65584 18.7513 4.70584 20.7062C4.51584 20.8942 4.26588 20.9992 3.99588 20.9992C3.73588 20.9992 3.47592 20.8942 3.28592 20.7062C3.10592 20.5192 2.99588 20.2642 2.99588 19.9992C2.99588 19.7342 3.10592 19.4792 3.28592 19.2922C5.24592 17.3363 10.5858 11.9993 10.5858 11.9993C10.5858 11.9993 5.24592 6.66228 3.28592 4.70628C3.10592 4.51928 2.99588 4.26428 2.99588 3.99928C2.99588 3.73428 3.10592 3.47928 3.28592 3.29228C3.47592 3.10428 3.73588 2.99928 3.99588 2.99928C4.26588 2.99928 4.51584 3.10428 4.70584 3.29228C6.65584 5.24728 11.9959 10.5853 11.9959 10.5853Z" fill="black"/>
</svg>
