<?xml version="1.0" encoding="UTF-8" standalone="no"?>
<!DOCTYPE svg PUBLIC "-//W3C//DTD SVG 1.1//EN" "http://www.w3.org/Graphics/SVG/1.1/DTD/svg11.dtd">
<svg width="25px" height="24px" version="1.1" xmlns="http://www.w3.org/2000/svg" xmlns:xlink="http://www.w3.org/1999/xlink" xml:space="preserve" xmlns:serif="http://www.serif.com/" style="fill-rule:evenodd;clip-rule:evenodd;stroke-linejoin:round;stroke-miterlimit:1.41421;">
    <g transform="matrix(1,0,0,1,-386,-416)">
        <g id="basic.thin.doubleChevronRight" transform="matrix(0.800768,0,0,0.984948,386.977,416)">
            <rect x="0" y="0" width="29.971" height="24.367" style="fill:none;"/>
            <g transform="matrix(0.80276,-0.652648,0.80276,0.652648,-146.048,-104.786)">
                <path d="M15.55,194.45C15.55,195.058 15.058,195.55 14.45,195.55C11.945,195.55 5.889,195.55 4.013,195.55C3.702,195.55 3.45,195.298 3.45,194.987C3.45,194.986 3.45,194.986 3.45,194.986C3.45,194.69 3.69,194.45 3.986,194.45C6.191,194.45 14.45,194.45 14.45,194.45C14.45,194.45 14.45,186.223 14.45,183.999C14.45,183.853 14.508,183.714 14.611,183.611C14.714,183.508 14.853,183.45 14.999,183.45C15,183.45 15,183.45 15.001,183.45C15.304,183.45 15.55,183.696 15.55,183.999C15.55,185.858 15.55,191.939 15.55,194.45Z" style="fill:rgb(51,51,51);fill-rule:nonzero;"/>
            </g>
            <g transform="matrix(0.642208,-0.522119,0.642208,0.522119,-119.878,-81.3197)">
                <path d="M15.688,194.313C15.688,194.677 15.543,195.027 15.285,195.285C15.027,195.543 14.677,195.688 14.313,195.688C11.678,195.688 6.003,195.688 4.017,195.688C3.83,195.688 3.651,195.613 3.519,195.481C3.387,195.349 3.313,195.17 3.313,194.984C3.313,194.983 3.313,194.983 3.313,194.982C3.313,194.805 3.383,194.634 3.509,194.509C3.634,194.383 3.805,194.313 3.982,194.313C6.368,194.313 14.313,194.313 14.313,194.313C14.313,194.313 14.313,186.368 14.313,183.982C14.313,183.805 14.383,183.634 14.509,183.509C14.634,183.383 14.805,183.313 14.982,183.313C14.983,183.313 14.983,183.313 14.984,183.313C15.17,183.313 15.349,183.387 15.481,183.519C15.613,183.651 15.688,183.83 15.688,184.017C15.688,186.003 15.688,191.678 15.688,194.313Z" style="fill:rgb(51,51,51);fill-rule:nonzero;"/>
            </g>
        </g>
    </g>
</svg>
