<?xml version="1.0" encoding="UTF-8" standalone="no"?><!DOCTYPE svg PUBLIC "-//W3C//DTD SVG 1.1//EN" "http://www.w3.org/Graphics/SVG/1.1/DTD/svg11.dtd"><svg width="100%" height="100%" viewBox="0 0 24 24" version="1.1" xmlns="http://www.w3.org/2000/svg" xmlns:xlink="http://www.w3.org/1999/xlink" xml:space="preserve" xmlns:serif="http://www.serif.com/" style="fill-rule:evenodd;clip-rule:evenodd;stroke-linejoin:round;stroke-miterlimit:1.41421;"><rect id="basic.regular.chevronLeft" x="0" y="0" width="24" height="24" style="fill:none;"/><path d="M14.778,4.222c0.391,0.39 0.391,1.024 0,1.414c-1.791,1.791 -6.364,6.364 -6.364,6.364c0,0 4.573,4.573 6.364,6.364c0.391,0.39 0.391,1.024 0,1.414c-0.187,0.188 -0.442,0.293 -0.707,0.293c-0.265,0 -0.52,-0.105 -0.707,-0.293c-1.598,-1.598 -5.473,-5.473 -7.071,-7.071c-0.188,-0.187 -0.293,-0.442 -0.293,-0.707c0,-0.265 0.105,-0.52 0.293,-0.707c1.598,-1.598 5.473,-5.473 7.071,-7.071c0.187,-0.188 0.442,-0.293 0.707,-0.293c0.265,0 0.52,0.105 0.707,0.293c0,0 0,0 0,0Z" style="fill:#333;fill-rule:nonzero;"/></svg>