<?xml version="1.0" encoding="UTF-8" standalone="no"?>
<!DOCTYPE svg PUBLIC "-//W3C//DTD SVG 1.1//EN" "http://www.w3.org/Graphics/SVG/1.1/DTD/svg11.dtd">
<svg width="24px" height="24px" version="1.1" xmlns="http://www.w3.org/2000/svg" xmlns:xlink="http://www.w3.org/1999/xlink" xml:space="preserve" xmlns:serif="http://www.serif.com/" style="fill-rule:evenodd;clip-rule:evenodd;stroke-linejoin:round;stroke-miterlimit:1.41421;">
    <g transform="matrix(1,0,0,1,-1011,-224)">
        <g id="basic.thin.pentagon" transform="matrix(0.800768,0,0,0.984948,1011,224)">
            <rect x="0" y="0" width="29.971" height="24.367" style="fill:none;"/>
            <g transform="matrix(1.23594,0,0,1.00482,-1248.73,-176.817)">
                <path d="M1032.11,184.747C1032.46,185.004 1032.61,185.46 1032.47,185.877C1031.78,188.001 1029.71,194.373 1029.02,196.498C1028.89,196.914 1028.5,197.196 1028.06,197.196C1025.83,197.196 1019.13,197.196 1016.89,197.196C1016.46,197.196 1016.07,196.914 1015.93,196.498C1015.24,194.373 1013.17,188.001 1012.48,185.877C1012.35,185.46 1012.49,185.004 1012.85,184.747C1014.65,183.434 1020.08,179.496 1021.88,178.183C1022.24,177.925 1022.72,177.925 1023.07,178.183C1024.88,179.496 1030.3,183.434 1032.11,184.747ZM1013.44,185.564L1016.89,196.186L1028.06,196.186L1031.51,185.564L1022.48,179L1013.44,185.564Z" style="fill:rgb(51,51,51);fill-rule:nonzero;"/>
            </g>
        </g>
    </g>
</svg>
