<?xml version="1.0" encoding="UTF-8" standalone="no"?>
<!DOCTYPE svg PUBLIC "-//W3C//DTD SVG 1.1//EN" "http://www.w3.org/Graphics/SVG/1.1/DTD/svg11.dtd">
<svg width="25px" height="24px" version="1.1" xmlns="http://www.w3.org/2000/svg" xmlns:xlink="http://www.w3.org/1999/xlink" xml:space="preserve" xmlns:serif="http://www.serif.com/" style="fill-rule:evenodd;clip-rule:evenodd;stroke-linejoin:round;stroke-miterlimit:1.41421;">
    <g transform="matrix(1,0,0,1,-914,-224)">
        <g id="basic.thin.cross" transform="matrix(0.800768,0,0,0.984948,914.977,224)">
            <rect x="0" y="0" width="29.971" height="24.367" style="fill:none;"/>
            <g transform="matrix(1.2488,0,0,1.01528,-2336.51,-227.423)">
                <path d="M1883.5,235.793C1883.5,235.793 1889.6,229.694 1891.15,228.146C1891.34,227.951 1891.66,227.951 1891.85,228.146C1891.85,228.147 1891.85,228.147 1891.85,228.147C1891.95,228.241 1892,228.368 1892,228.5C1892,228.632 1891.95,228.759 1891.85,228.853C1890.31,230.399 1884.21,236.5 1884.21,236.5C1884.21,236.5 1890.31,242.601 1891.85,244.147C1891.95,244.241 1892,244.368 1892,244.5C1892,244.632 1891.95,244.759 1891.85,244.853C1891.85,244.853 1891.85,244.853 1891.85,244.854C1891.66,245.049 1891.34,245.049 1891.15,244.854C1889.6,243.306 1883.5,237.207 1883.5,237.207C1883.5,237.207 1877.4,243.306 1875.85,244.854C1875.66,245.049 1875.34,245.049 1875.15,244.854C1875.15,244.853 1875.15,244.853 1875.15,244.853C1875.05,244.759 1875,244.632 1875,244.5C1875,244.368 1875.05,244.241 1875.15,244.147C1876.69,242.601 1882.79,236.5 1882.79,236.5C1882.79,236.5 1876.69,230.399 1875.15,228.853C1875.05,228.759 1875,228.632 1875,228.5C1875,228.368 1875.05,228.241 1875.15,228.147C1875.15,228.147 1875.15,228.147 1875.15,228.146C1875.34,227.951 1875.66,227.951 1875.85,228.146C1877.4,229.694 1883.5,235.793 1883.5,235.793Z" style="fill:rgb(51,51,51);"/>
            </g>
        </g>
    </g>
</svg>
