<?xml version="1.0" encoding="UTF-8" standalone="no"?><!DOCTYPE svg PUBLIC "-//W3C//DTD SVG 1.1//EN" "http://www.w3.org/Graphics/SVG/1.1/DTD/svg11.dtd"><svg width="100%" height="100%" viewBox="0 0 24 24" version="1.1" xmlns="http://www.w3.org/2000/svg" xmlns:xlink="http://www.w3.org/1999/xlink" xml:space="preserve" xmlns:serif="http://www.serif.com/" style="fill-rule:evenodd;clip-rule:evenodd;stroke-linejoin:round;stroke-miterlimit:1.41421;"><rect id="basic.thin.doubleChevronDown" x="0" y="0" width="24" height="24" style="fill:none;"/><path d="M19.934,10.585c0.091,0.091 0.142,0.215 0.142,0.344c0,0.129 -0.051,0.253 -0.142,0.344c-1.185,1.185 -5.109,5.109 -6.727,6.727c-0.39,0.391 -1.024,0.391 -1.414,0c-1.614,-1.614 -5.522,-5.522 -6.718,-6.718c-0.195,-0.195 -0.195,-0.511 0,-0.707c0.001,0 0.001,0 0.001,0c0.094,-0.094 0.221,-0.146 0.353,-0.146c0.132,0 0.259,0.052 0.353,0.146c1.43,1.43 6.718,6.718 6.718,6.718c0,0 5.266,-5.266 6.709,-6.709c0.2,-0.2 0.524,-0.2 0.724,0c0,0 0.001,0 0.001,0.001Z" style="fill:#333;fill-rule:nonzero;"/><path d="M18.52,5.999c0.19,0.19 0.19,0.498 0,0.688c-1.006,1.006 -3.95,3.95 -5.313,5.313c-0.187,0.188 -0.442,0.293 -0.707,0.293c-0.265,0 -0.52,-0.105 -0.707,-0.293c-1.359,-1.359 -4.29,-4.29 -5.303,-5.303c-0.196,-0.196 -0.196,-0.512 0,-0.707c0,-0.001 0,-0.001 0,-0.001c0.094,-0.094 0.221,-0.146 0.353,-0.146c0.132,0 0.259,0.052 0.353,0.146c1.237,1.237 5.304,5.304 5.304,5.304c0,0 4.047,-4.047 5.295,-5.295c0.2,-0.2 0.524,-0.2 0.724,0c0,0 0,0.001 0.001,0.001Z" style="fill:#333;fill-rule:nonzero;"/></svg>