<?xml version="1.0" encoding="UTF-8" standalone="no"?>
<!DOCTYPE svg PUBLIC "-//W3C//DTD SVG 1.1//EN" "http://www.w3.org/Graphics/SVG/1.1/DTD/svg11.dtd">
<svg width="24px" height="24px" version="1.1" xmlns="http://www.w3.org/2000/svg" xmlns:xlink="http://www.w3.org/1999/xlink" xml:space="preserve" xmlns:serif="http://www.serif.com/" style="fill-rule:evenodd;clip-rule:evenodd;stroke-linejoin:round;stroke-miterlimit:1.41421;">
    <g transform="matrix(1,0,0,1,-1029,-416)">
        <g id="basic.thin.doubleChevronDown" transform="matrix(0.800768,0,0,0.984948,1029,416)">
            <rect x="0" y="0" width="29.971" height="24.367" style="fill:none;"/>
            <g transform="matrix(0.80276,0.652648,-0.80276,0.652648,160.107,-118.781)">
                <path d="M15.014,183.45C15.156,183.45 15.293,183.506 15.393,183.607C15.494,183.707 15.55,183.844 15.55,183.986C15.55,185.829 15.55,191.933 15.55,194.45C15.55,195.058 15.058,195.55 14.45,195.55C11.933,195.55 5.829,195.55 3.986,195.55C3.844,195.55 3.707,195.494 3.607,195.393C3.506,195.293 3.45,195.156 3.45,195.014C3.45,195.014 3.45,195.014 3.45,195.013C3.45,194.702 3.702,194.45 4.013,194.45C6.258,194.45 14.45,194.45 14.45,194.45C14.45,194.45 14.45,186.258 14.45,184.013C14.45,183.702 14.702,183.45 15.013,183.45C15.014,183.45 15.014,183.45 15.014,183.45Z" style="fill:rgb(51,51,51);fill-rule:nonzero;"/>
            </g>
            <g transform="matrix(0.642208,0.522119,-0.642208,0.522119,131.207,-97.4615)">
                <path d="M15.001,183.313C15.38,183.313 15.687,183.62 15.687,183.999C15.687,185.969 15.687,191.67 15.687,194.313C15.687,194.677 15.543,195.027 15.285,195.285C15.027,195.543 14.677,195.688 14.312,195.688C11.662,195.688 5.937,195.688 3.982,195.688C3.612,195.688 3.312,195.388 3.312,195.018C3.312,195.017 3.312,195.017 3.312,195.017C3.312,194.628 3.628,194.313 4.016,194.313C6.443,194.313 14.312,194.313 14.312,194.313C14.312,194.313 14.312,186.407 14.312,184C14.312,183.62 14.62,183.313 15,183.313C15,183.313 15.001,183.313 15.001,183.313Z" style="fill:rgb(51,51,51);fill-rule:nonzero;"/>
            </g>
        </g>
    </g>
</svg>
