<svg width="24" height="24" viewBox="0 0 24 24" fill="none" xmlns="http://www.w3.org/2000/svg">
<path d="M20.3632 6.15599C20.4542 6.24699 20.5052 6.37099 20.5052 6.49999C20.5052 6.62899 20.4542 6.75299 20.3632 6.84399C18.8522 8.35598 12.7902 14.417 10.7072 16.5C10.5202 16.688 10.2652 16.793 10.0002 16.793C9.73518 16.793 9.48018 16.688 9.29318 16.5C8.06218 15.269 5.56818 12.775 4.64618 11.853C4.45118 11.658 4.45118 11.342 4.64618 11.147C4.64618 11.147 4.64618 11.147 4.64618 11.146C4.84218 10.951 5.15818 10.951 5.35318 11.146C6.49418 12.287 10.0002 15.793 10.0002 15.793C10.0002 15.793 17.8452 7.94799 19.6382 6.15499C19.8382 5.95499 20.1622 5.95499 20.3622 6.15499C20.3622 6.15499 20.3622 6.15499 20.3632 6.15599Z" fill="black"/>
</svg>
