<svg width="24" height="24" viewBox="0 0 24 24" fill="none" xmlns="http://www.w3.org/2000/svg">
<g clip-path="url(#clip0_7_51)">
<path d="M20.2635 11.2426C20.4512 11.4303 20.5566 11.6848 20.5566 11.9497C20.5566 12.2145 20.4512 12.4691 20.2635 12.6568C18.6654 14.2548 14.7905 18.1298 13.1924 19.7278C13.0047 19.9155 12.7501 20.021 12.4853 20.021C12.2204 20.021 11.9659 19.9155 11.7782 19.7278C10.1801 18.1298 6.30517 14.2548 4.70711 12.6568C4.5194 12.4691 4.41398 12.2145 4.41398 11.9497C4.41398 11.6848 4.51941 11.4303 4.70711 11.2426C5.09795 10.8517 5.73049 10.8517 6.12133 11.2426C7.91224 13.0335 12.4853 17.6065 12.4853 17.6065C12.4853 17.6065 17.0583 13.0335 18.8492 11.2426C19.2401 10.8517 19.8733 10.8524 20.2635 11.2426Z" fill="black"/>
<path d="M20.2635 5.24256C20.4512 5.43026 20.5566 5.68483 20.5566 5.94967C20.5566 6.21451 20.4512 6.46907 20.2635 6.65678C18.6654 8.25484 14.7905 12.1298 13.1924 13.7278C13.0047 13.9155 12.7501 14.021 12.4853 14.021C12.2204 14.021 11.9659 13.9156 11.7782 13.7278C10.1801 12.1298 6.30517 8.25484 4.70711 6.65678C4.5194 6.46908 4.41398 6.21451 4.41398 5.94967C4.41398 5.68483 4.51941 5.43027 4.70711 5.24256C5.09795 4.85173 5.73049 4.85172 6.12133 5.24256C7.91224 7.03347 12.4853 11.6065 12.4853 11.6065C12.4853 11.6065 17.0583 7.03347 18.8492 5.24256C19.2401 4.85173 19.8733 4.85237 20.2635 5.24256Z" fill="black"/>
</g>
<defs>
<clipPath id="clip0_7_51">
<rect width="24" height="24" fill="white"/>
</clipPath>
</defs>
</svg>
