<svg width="24" height="24" viewBox="0 0 24 24" fill="none" xmlns="http://www.w3.org/2000/svg">
<path fill-rule="evenodd" clip-rule="evenodd" d="M18.077 4.00229L18.1571 4.01228L18.2371 4.02728L18.3071 4.04929L18.3871 4.07628L18.457 4.11028L18.5271 4.14928L18.5871 4.19328L18.6471 4.24329L18.707 4.29729L18.7671 4.35628L18.8071 4.41829L18.8571 4.48428L21.8571 9.48427L21.8971 9.55628L21.9271 9.63128L21.957 9.70827L21.9771 9.78727L21.9871 9.86827L21.9971 9.94927V10.0313L21.9871 10.1123L21.9771 10.1933L21.957 10.2723L21.937 10.3503L21.8971 10.4253L21.8671 10.4983L21.817 10.5673L21.7671 10.6323L12.7671 21.6322L12.7171 21.6952L12.6571 21.7532L12.5871 21.8063L12.5171 21.8533L12.447 21.8932L12.3671 21.9282L12.2871 21.9562L12.2071 21.9772L12.1271 21.9913L12.0371 21.9982H11.9571L11.8671 21.9913L11.7871 21.9772L11.7071 21.9562L11.6271 21.9282L11.5471 21.8932L11.4771 21.8533L11.4071 21.8063L11.3371 21.7532L11.2771 21.6952L11.2271 21.6322L2.22708 10.6323L2.17715 10.5673L2.12711 10.4983L2.09708 10.4253L2.05716 10.3503L2.03714 10.2723L2.01712 10.1933L2.00711 10.1123L1.9971 10.0313V9.94927L2.00711 9.86827L2.01712 9.78727L2.03714 9.70827L2.06705 9.63128L2.09708 9.55628L2.13712 9.48526L5.13711 4.48527L5.18704 4.41829L5.22708 4.35628L5.28714 4.29729L5.34707 4.24329L5.40713 4.19328L5.46707 4.14928L5.53714 4.11028L5.60708 4.07628L5.68704 4.04929L5.75711 4.02728L5.83706 4.01228L5.91714 4.00229L5.9971 3.99928H17.9971L18.077 4.00229ZM5.9971 4.99928L2.9971 9.99927L11.9971 20.9992L20.9971 9.99927L17.9971 4.99928H5.9971Z" fill="black"/>
<path fill-rule="evenodd" clip-rule="evenodd" d="M11.9971 20.9993L2.9971 9.99927L5.9971 4.99928H17.9971L20.9971 9.99927L11.9971 20.9993Z" fill="black" fill-opacity="0.1"/>
</svg>
