<svg width="24" height="24" viewBox="0 0 24 24" fill="none" xmlns="http://www.w3.org/2000/svg">
<path d="M19.9338 10.6051C20.0251 10.6964 20.0771 10.8204 20.0765 10.9497C20.0771 11.0789 20.0251 11.2029 19.9338 11.2942C18.7491 12.4789 14.8252 16.4027 13.2073 18.0207C12.8164 18.4116 12.1839 18.4116 11.793 18.0207C10.1751 16.4027 6.25125 12.4789 5.06653 11.2942C4.97524 11.2029 4.92317 11.0789 4.92382 10.9497C4.92317 10.8205 4.97524 10.6964 5.06652 10.6051C5.06652 10.6051 5.06653 10.6051 5.06717 10.6045C5.26709 10.4045 5.59107 10.4045 5.79099 10.6045C7.23413 12.0476 12.5002 17.3136 12.5002 17.3136C12.5002 17.3136 17.7662 12.0476 19.2093 10.6045C19.4092 10.4045 19.7332 10.4045 19.9331 10.6045C19.9338 10.6051 19.9338 10.6051 19.9338 10.6051Z" fill="black"/>
<path d="M18.5103 6.01119C18.7052 6.20609 18.7052 6.52184 18.5103 6.71675C17.4972 7.72984 14.5654 10.6616 13.2062 12.0208C13.019 12.208 12.765 12.314 12.4996 12.314C12.2343 12.314 11.9797 12.2085 11.792 12.0208C10.4292 10.658 7.48508 7.7139 6.47971 6.70852C6.28943 6.51825 6.28943 6.20969 6.47971 6.01941C6.48022 6.0189 6.48022 6.0189 6.48022 6.0189C6.68027 5.81885 7.00476 5.81937 7.2043 6.0189C8.45241 7.26701 12.4991 11.3137 12.4991 11.3137C12.4991 11.3137 16.5649 7.24798 17.8027 6.01016C17.9981 5.81474 18.3144 5.81525 18.5098 6.01067L18.5103 6.01119Z" fill="black"/>
</svg>
