<svg width="24" height="24" viewBox="0 0 24 24" fill="none" xmlns="http://www.w3.org/2000/svg">
<path d="M18.0628 11.7925C18.4536 12.1833 18.4536 12.8159 18.0628 13.2067C16.4487 14.8209 12.5397 18.7299 11.3447 19.9249C11.1499 20.1197 10.8336 20.1197 10.6388 19.9249L10.6382 19.9242C10.5443 19.8304 10.4916 19.7031 10.4916 19.5707C10.4916 19.4383 10.5443 19.311 10.6382 19.2171C12.0691 17.7862 17.3557 12.4996 17.3557 12.4996C17.3557 12.4996 12.0672 7.21109 10.6375 5.78145C10.5437 5.6876 10.4916 5.56096 10.4916 5.42854C10.4916 5.29612 10.5437 5.16949 10.6375 5.07563C10.6382 5.07499 10.6382 5.07499 10.6388 5.07435C10.8336 4.87957 11.1499 4.87957 11.3446 5.07434C12.5397 6.26936 16.4487 10.1784 18.0628 11.7925Z" fill="black"/>
<path d="M12.0208 11.764C12.208 11.9512 12.3134 12.2058 12.3134 12.4711C12.3134 12.7365 12.208 12.9911 12.0208 13.1782C10.6575 14.5415 7.71338 17.4857 6.708 18.4911C6.51773 18.6813 6.20969 18.6808 6.01941 18.4905C6.0189 18.49 6.01889 18.49 6.01889 18.49C5.81885 18.29 5.81885 17.966 6.01838 17.7665C7.26649 16.5184 11.3137 12.4711 11.3137 12.4711C11.3137 12.4711 7.26649 8.4239 6.01889 7.17631C5.81885 6.97626 5.81885 6.65228 6.0189 6.45223C6.0189 6.45223 6.01889 6.45223 6.01941 6.45172C6.20969 6.26144 6.51772 6.26093 6.708 6.4512C7.71338 7.45658 10.6575 10.4007 12.0208 11.764Z" fill="black"/>
</svg>
