<svg width="24" height="24" viewBox="0 0 24 24" fill="none" xmlns="http://www.w3.org/2000/svg">
<g clip-path="url(#clip0)">
<path d="M19.9247 12.6754C20.1202 12.8708 20.1202 13.1871 19.9247 13.3825L19.9241 13.3831C19.8303 13.477 19.7036 13.5291 19.5712 13.5291C19.4388 13.5291 19.3121 13.477 19.2183 13.3831C17.7886 11.9535 12.5001 6.66498 12.5001 6.66498C12.5001 6.66498 7.2341 11.931 5.79096 13.3741C5.59104 13.5741 5.26706 13.5741 5.06714 13.3741C5.0665 13.3735 5.06649 13.3735 5.06649 13.3735C4.97521 13.2822 4.92314 13.1581 4.92379 13.0289C4.92314 12.8997 4.97521 12.7757 5.0665 12.6844C6.25122 11.4997 10.175 7.57586 11.793 5.95787C12.1838 5.56704 12.817 5.56768 13.2072 5.95788C14.8214 7.57201 18.7291 11.4797 19.9247 12.6754Z" fill="black"/>
<path d="M18.4815 17.3037C18.6764 17.4986 18.6764 17.8144 18.4815 18.0093L18.4809 18.0098C18.2855 18.2052 17.9693 18.2057 17.7738 18.0103C16.536 16.7725 12.4703 12.7067 12.4703 12.7067C12.4703 12.7067 8.40505 16.772 7.16723 18.0098C6.97181 18.2052 6.65554 18.2057 6.46013 18.0103C6.26471 17.8149 6.2647 17.4981 6.46012 17.3027C7.47373 16.2891 10.4045 13.3583 11.7632 11.9996C11.9509 11.8119 12.2054 11.7065 12.4708 11.7065C12.7361 11.7065 12.9902 11.8124 13.1774 11.9996C14.5366 13.3588 17.4684 16.2906 18.4815 17.3037Z" fill="black"/>
</g>
<defs>
<clipPath id="clip0">
<rect width="24" height="24" fill="white"/>
</clipPath>
</defs>
</svg>
