<svg width="24" height="24" viewBox="0 0 24 24" fill="none" xmlns="http://www.w3.org/2000/svg">
<path fill-rule="evenodd" clip-rule="evenodd" d="M12.4978 11.7927C12.4978 11.7927 16.0078 8.28469 17.1478 7.1457C17.3378 6.9507 17.6577 6.9507 17.8477 7.1457C18.0477 7.3417 18.0477 7.6577 17.8477 7.8537C16.7077 8.9937 13.2077 12.4997 13.2077 12.4997C13.2077 12.4997 16.7177 16.0077 17.8477 17.1467C18.0477 17.3417 18.0477 17.6577 17.8477 17.8527C17.8477 17.8527 17.8477 17.8527 17.8477 17.8537C17.6577 18.0487 17.3378 18.0487 17.1478 17.8537C16.0078 16.7127 12.4978 13.2067 12.4978 13.2067C12.4978 13.2067 8.98775 16.7147 7.84775 17.8537C7.65775 18.0487 7.3378 18.0487 7.1478 17.8537C6.9478 17.6577 6.9478 17.3417 7.1478 17.1457C8.2878 16.0057 11.7878 12.4997 11.7878 12.4997C11.7878 12.4997 8.2878 8.9937 7.1478 7.8537C6.9478 7.6577 6.9478 7.3417 7.1478 7.1457C7.3378 6.9507 7.65775 6.9507 7.84775 7.1457C8.98775 8.28669 12.4978 11.7927 12.4978 11.7927Z" fill="black"/>
</svg>
