<svg width="24" height="24" viewBox="0 0 24 24" fill="none" xmlns="http://www.w3.org/2000/svg">
<path d="M19.9338 9.58466C20.025 9.67594 20.0771 9.8 20.0765 9.92921C20.0771 10.0584 20.0251 10.1825 19.9338 10.2738C18.749 11.4585 14.8252 15.3823 13.2073 17.0003C12.8164 17.3911 12.1839 17.3911 11.793 17.0003C10.175 15.3823 6.25124 11.4585 5.06652 10.2738C4.97524 10.1825 4.92317 10.0584 4.92381 9.92921C4.92317 9.80001 4.97523 9.67594 5.06652 9.58466C5.06652 9.58466 5.06652 9.58466 5.06716 9.58401C5.26708 9.3841 5.59107 9.38409 5.79099 9.58401C7.23413 11.0272 12.5001 16.2932 12.5001 16.2932C12.5001 16.2932 17.7662 11.0272 19.2093 9.58401C19.4092 9.3841 19.7332 9.38409 19.9331 9.58401C19.9338 9.58466 19.9338 9.58466 19.9338 9.58466Z" fill="black"/>
</svg>
