<svg width="24" height="24" viewBox="0 0 24 24" fill="none" xmlns="http://www.w3.org/2000/svg">
<path fill-rule="evenodd" clip-rule="evenodd" d="M19.934 11.591C20.026 11.681 20.077 11.801 20.076 11.931C20.076 12.061 20.025 12.181 19.933 12.271C18.744 13.461 14.802 17.381 13.178 19.001C12.787 19.391 12.154 19.391 11.764 19.001C10.16 17.391 6.28402 13.501 5.08302 12.291C4.88402 12.091 4.88402 11.7709 5.08502 11.5709C5.17702 11.4709 5.30102 11.421 5.43002 11.421C5.55902 11.421 5.68302 11.4809 5.77402 11.5709C7.12101 12.9209 11.971 17.791 11.971 17.791C11.971 17.791 11.971 5.191 11.971 2.50101C11.971 2.37101 12.024 2.24103 12.117 2.15104C12.211 2.05104 12.338 2.00101 12.471 2.00101C12.604 2.00101 12.731 2.05104 12.825 2.15104C12.918 2.24103 12.971 2.37101 12.971 2.50101C12.971 5.191 12.971 17.801 12.971 17.801C12.971 17.801 17.828 12.9609 19.21 11.5809C19.41 11.3809 19.734 11.381 19.934 11.591Z" fill="black"/>
</svg>
