<?xml version="1.0" encoding="UTF-8" standalone="no"?>
<!DOCTYPE svg PUBLIC "-//W3C//DTD SVG 1.1//EN" "http://www.w3.org/Graphics/SVG/1.1/DTD/svg11.dtd">
<svg width="24px" height="24px" version="1.1" xmlns="http://www.w3.org/2000/svg" xmlns:xlink="http://www.w3.org/1999/xlink" xml:space="preserve" xmlns:serif="http://www.serif.com/" style="fill-rule:evenodd;clip-rule:evenodd;stroke-linejoin:round;stroke-miterlimit:1.41421;">
    <g transform="matrix(1,0,0,1,-1701,-224)">
        <g id="basic.thin.diamond" transform="matrix(0.800768,0,0,0.984948,1701,224)">
            <rect x="0" y="0" width="29.971" height="24.367" style="fill:none;"/>
            <g transform="matrix(1.2488,0,0,1.01528,-1502.31,-178.69)">
                <path d="M1221.08,180.003L1221.16,180.013L1221.24,180.028L1221.31,180.05L1221.39,180.077L1221.46,180.111L1221.53,180.15L1221.59,180.194L1221.65,180.244L1221.71,180.298L1221.77,180.357L1221.81,180.419L1221.86,180.485L1224.86,185.485L1224.9,185.557L1224.93,185.632L1224.96,185.709L1224.98,185.788L1224.99,185.869L1225,185.95L1225,186.032L1224.99,186.113L1224.98,186.194L1224.96,186.273L1224.94,186.351L1224.9,186.426L1224.87,186.499L1224.82,186.568L1224.77,186.633L1215.77,197.633L1215.72,197.696L1215.66,197.754L1215.59,197.807L1215.52,197.854L1215.45,197.894L1215.37,197.929L1215.29,197.957L1215.21,197.978L1215.13,197.992L1215.04,197.999L1214.96,197.999L1214.87,197.992L1214.79,197.978L1214.71,197.957L1214.63,197.929L1214.55,197.894L1214.48,197.854L1214.41,197.807L1214.34,197.754L1214.28,197.696L1214.23,197.633L1205.23,186.633L1205.18,186.568L1205.13,186.499L1205.1,186.426L1205.06,186.351L1205.04,186.273L1205.02,186.194L1205.01,186.113L1205,186.032L1205,185.95L1205.01,185.869L1205.02,185.788L1205.04,185.709L1205.07,185.632L1205.1,185.557L1205.14,185.486L1208.14,180.486L1208.19,180.419L1208.23,180.357L1208.29,180.298L1208.35,180.244L1208.41,180.194L1208.47,180.15L1208.54,180.111L1208.61,180.077L1208.69,180.05L1208.76,180.028L1208.84,180.013L1208.92,180.003L1209,180L1221,180L1221.08,180.003ZM1209,181L1206,186L1215,197L1224,186L1221,181L1209,181Z"/>
            </g>
        </g>
    </g>
</svg>
