<svg width="24" height="24" viewBox="0 0 24 24" fill="none" xmlns="http://www.w3.org/2000/svg">
<g clip-path="url(#clip0)">
<path d="M13.7779 4.69287C14.1687 5.08371 14.1687 5.71625 13.7778 6.10709C11.9869 7.898 7.41389 12.471 7.41389 12.471C7.41389 12.471 11.9869 17.0441 13.7779 18.835C14.1687 19.2258 14.1687 19.8584 13.7778 20.2492C13.5901 20.4369 13.3356 20.5424 13.0707 20.5424C12.8059 20.5424 12.5513 20.4369 12.3636 20.2492C10.7656 18.6512 6.89062 14.7762 5.29256 13.1782C5.10486 12.9905 5.00008 12.7365 4.99944 12.4711C4.99944 12.2062 5.10486 11.9516 5.29257 11.7639C6.89063 10.1659 10.7656 6.29094 12.3636 4.69288C12.5513 4.50517 12.8059 4.39975 13.0707 4.39975C13.3362 4.40039 13.5901 4.50517 13.7779 4.69287Z" fill="black"/>
<path d="M18.0192 6.47023C18.1102 6.56125 18.1621 6.68519 18.1616 6.81427C18.1621 6.94335 18.1102 7.06728 18.0192 7.15831C16.7922 8.38533 12.7064 12.4711 12.7064 12.4711C12.7064 12.4711 16.7922 16.5569 18.0192 17.784C18.1102 17.875 18.1621 17.9989 18.1616 18.128C18.1621 18.2571 18.1102 18.381 18.0192 18.472C18.0187 18.4725 18.0187 18.4725 18.0182 18.4731C17.9225 18.5687 17.7924 18.6227 17.6566 18.6227C17.5209 18.6227 17.3902 18.5692 17.2941 18.4731C16.2728 17.4517 13.3543 14.5333 11.9993 13.1782C11.8121 12.991 11.7066 12.7365 11.7066 12.4711C11.7066 12.2058 11.8121 11.9512 11.9993 11.764C13.3543 10.4089 16.2728 7.49052 17.2941 6.4692C17.3902 6.37303 17.5209 6.31955 17.6566 6.31955C17.7924 6.31955 17.9225 6.37355 18.0182 6.4692C18.0187 6.46972 18.0187 6.46972 18.0192 6.47023Z" fill="black"/>
</g>
<defs>
<clipPath id="clip0">
<rect width="24" height="24" fill="white"/>
</clipPath>
</defs>
</svg>
