<svg width="24" height="24" viewBox="0 0 24 24" fill="none" xmlns="http://www.w3.org/2000/svg">
<path d="M19.9248 13.6751C20.1202 13.8705 20.1202 14.1868 19.9248 14.3822C19.8309 14.4761 19.7036 14.5288 19.5712 14.5288C19.4388 14.5288 19.3115 14.4761 19.2177 14.3822C17.7867 12.9513 12.5002 7.6647 12.5002 7.6647C12.5002 7.6647 7.23413 12.9307 5.79099 14.3739C5.59107 14.5738 5.26709 14.5738 5.06717 14.3739C5.06653 14.3732 5.06652 14.3732 5.06652 14.3732C4.97524 14.2819 4.92317 14.1579 4.92382 14.0287C4.92317 13.8995 4.97524 13.7754 5.06653 13.6841C6.25125 12.4994 10.1751 8.57558 11.793 6.95759C12.1839 6.56676 12.8164 6.56676 13.2073 6.9576C14.8214 8.57173 18.7291 12.4795 19.9248 13.6751Z" fill="black"/>
</svg>
