<?xml version="1.0" encoding="UTF-8" standalone="no"?>
<!DOCTYPE svg PUBLIC "-//W3C//DTD SVG 1.1//EN" "http://www.w3.org/Graphics/SVG/1.1/DTD/svg11.dtd">
<svg width="24px" height="24px" version="1.1" xmlns="http://www.w3.org/2000/svg" xmlns:xlink="http://www.w3.org/1999/xlink" xml:space="preserve" xmlns:serif="http://www.serif.com/" style="fill-rule:evenodd;clip-rule:evenodd;stroke-linejoin:round;stroke-miterlimit:1.41421;">
    <g transform="matrix(1,0,0,1,-1871,-176)">
        <g id="basic.regular.cross" transform="matrix(0.800768,0,0,0.984948,1871,176)">
            <rect x="0" y="0" width="29.971" height="24.367" style="fill:none;"/>
            <g transform="matrix(1.2488,0,0,1.01528,-2336.51,-178.69)">
                <path d="M1883,186.586C1883,186.586 1888.34,181.248 1890.29,179.293C1890.48,179.105 1890.74,179 1891,179C1891.27,179 1891.52,179.105 1891.71,179.293C1891.89,179.48 1892,179.735 1892,180C1892,180.265 1891.89,180.52 1891.71,180.707C1889.75,182.663 1884.41,188 1884.41,188C1884.41,188 1889.75,193.337 1891.71,195.293C1891.89,195.48 1892,195.735 1892,196C1892,196.265 1891.89,196.52 1891.71,196.707C1891.52,196.895 1891.27,197 1891,197C1890.74,197 1890.48,196.895 1890.29,196.707C1888.34,194.752 1883,189.414 1883,189.414C1883,189.414 1877.66,194.752 1875.71,196.707C1875.52,196.895 1875.27,197 1875,197C1874.74,197 1874.48,196.895 1874.29,196.707C1874.11,196.52 1874,196.265 1874,196C1874,195.735 1874.11,195.48 1874.29,195.293C1876.25,193.337 1881.59,188 1881.59,188C1881.59,188 1876.25,182.663 1874.29,180.707C1874.11,180.52 1874,180.265 1874,180C1874,179.735 1874.11,179.48 1874.29,179.293C1874.48,179.105 1874.74,179 1875,179C1875.27,179 1875.52,179.105 1875.71,179.293C1877.66,181.248 1883,186.586 1883,186.586Z" style="fill:rgb(51,51,51);"/>
            </g>
        </g>
    </g>
</svg>
