<?xml version="1.0" encoding="UTF-8" standalone="no"?><!DOCTYPE svg PUBLIC "-//W3C//DTD SVG 1.1//EN" "http://www.w3.org/Graphics/SVG/1.1/DTD/svg11.dtd"><svg width="100%" height="100%" viewBox="0 0 24 24" version="1.1" xmlns="http://www.w3.org/2000/svg" xmlns:xlink="http://www.w3.org/1999/xlink" xml:space="preserve" xmlns:serif="http://www.serif.com/" style="fill-rule:evenodd;clip-rule:evenodd;stroke-linecap:round;stroke-linejoin:round;stroke-miterlimit:1.5;"><rect id="basic.regular.doubleChevronRight" x="0" y="0" width="24" height="24" style="fill:none;"/><clipPath id="_clip1"><rect x="0" y="0" width="24" height="24"/></clipPath><g clip-path="url(#_clip1)"><path d="M18.707,11.764c0.188,0.188 0.293,0.442 0.293,0.707c0,0.265 -0.105,0.52 -0.293,0.707c-1.598,1.598 -5.473,5.473 -7.071,7.071c-0.188,0.188 -0.442,0.293 -0.707,0.293c-0.265,0 -0.52,-0.105 -0.707,-0.293c-0.391,-0.39 -0.391,-1.023 0,-1.414c1.791,-1.791 6.364,-6.364 6.364,-6.364c0,0 -4.573,-4.573 -6.364,-6.364c-0.391,-0.39 -0.391,-1.024 0,-1.414c0.187,-0.188 0.442,-0.293 0.707,-0.293c0.265,0 0.519,0.105 0.707,0.293c1.598,1.598 5.473,5.473 7.071,7.071Z" style="fill:#333;fill-rule:nonzero;"/><path d="M12,11.764c0.188,0.187 0.293,0.442 0.293,0.707c0,0.265 -0.105,0.52 -0.293,0.707c-1.359,1.359 -4.29,4.29 -5.303,5.303c-0.196,0.196 -0.512,0.196 -0.707,0c-0.001,0 -0.001,0 -0.001,0c-0.094,-0.094 -0.146,-0.221 -0.146,-0.353c0,-0.132 0.052,-0.259 0.146,-0.353c1.237,-1.237 5.304,-5.304 5.304,-5.304c0,0 -4.067,-4.067 -5.304,-5.304c-0.094,-0.094 -0.146,-0.22 -0.146,-0.353c0,-0.132 0.052,-0.259 0.146,-0.353c0,0 0,0 0.001,0c0.195,-0.196 0.511,-0.196 0.707,0c1.013,1.013 3.944,3.944 5.303,5.303Z" style="fill:#333;fill-rule:nonzero;"/><rect x="-17" y="-94" width="387" height="200" style="fill:none;stroke:#000;stroke-width:1px;"/></g></svg>