<svg width="24" height="24" viewBox="0 0 24 24" fill="none" xmlns="http://www.w3.org/2000/svg">
<path fill-rule="evenodd" clip-rule="evenodd" d="M16.5887 10.9993C16.5887 10.9993 12.8187 7.23628 11.2187 5.63528C10.8287 5.24528 10.8287 4.61128 11.2187 4.22128C11.4087 4.03328 11.6588 3.92828 11.9288 3.92828C12.1888 3.92828 12.4488 4.03328 12.6388 4.22128C14.2288 5.81928 18.1087 9.69427 19.7087 11.2923C19.8887 11.4793 19.9987 11.7343 19.9987 11.9993C19.9987 12.2643 19.8887 12.5193 19.7087 12.7063C18.1087 14.3043 14.2288 18.1793 12.6388 19.7773C12.4488 19.9653 12.1888 20.0702 11.9288 20.0702C11.6588 20.0702 11.4087 19.9653 11.2187 19.7773C10.8287 19.3873 10.8287 18.7543 11.2187 18.3633C12.8187 16.7623 16.5887 12.9993 16.5887 12.9993C16.5887 12.9993 6.28874 12.9993 2.99875 12.9993C2.73875 12.9993 2.47879 12.8943 2.28879 12.7063C2.10879 12.5193 1.99875 12.2643 1.99875 11.9993C1.99875 11.7343 2.10879 11.4793 2.28879 11.2923C2.47879 11.1043 2.73875 10.9993 2.99875 10.9993C6.28874 10.9993 16.5887 10.9993 16.5887 10.9993Z" fill="black"/>
</svg>
