<?xml version="1.0" encoding="UTF-8" standalone="no"?>
<!DOCTYPE svg PUBLIC "-//W3C//DTD SVG 1.1//EN" "http://www.w3.org/Graphics/SVG/1.1/DTD/svg11.dtd">
<svg width="24px" height="24px" version="1.1" xmlns="http://www.w3.org/2000/svg" xmlns:xlink="http://www.w3.org/1999/xlink" xml:space="preserve" xmlns:serif="http://www.serif.com/" style="fill-rule:evenodd;clip-rule:evenodd;stroke-linejoin:round;stroke-miterlimit:1.41421;">
    <g transform="matrix(1,0,0,1,-885,-224)">
        <g id="basic.thin.arrowRight" transform="matrix(0.800768,0,0,0.984948,885,224)">
            <rect x="0" y="0" width="29.971" height="24.367" style="fill:none;"/>
            <g transform="matrix(1.2488,0,0,1.01528,-1677.14,-227.423)">
                <path d="M1354.58,229.046C1354.77,228.851 1355.09,228.852 1355.28,229.047C1356.48,230.247 1360.39,234.173 1362,235.793C1362.39,236.184 1362.39,236.817 1362,237.207C1360.38,238.819 1356.46,242.725 1355.27,243.906C1355.08,244.095 1354.77,244.095 1354.58,243.904C1354.58,243.904 1354.58,243.904 1354.58,243.903C1354.49,243.807 1354.43,243.677 1354.43,243.541C1354.43,243.405 1354.49,243.275 1354.59,243.179C1355.96,241.808 1360.79,237 1360.79,237C1360.79,237 1348.18,237 1345.5,237C1345.37,237 1345.24,236.947 1345.15,236.854C1345.05,236.76 1345,236.633 1345,236.501C1345,236.501 1345,236.5 1345,236.5C1345,236.367 1345.05,236.24 1345.15,236.146C1345.24,236.053 1345.37,236 1345.5,236C1348.19,236 1360.8,236 1360.8,236C1360.8,236 1355.94,231.121 1354.57,229.752C1354.38,229.557 1354.38,229.241 1354.58,229.046C1354.58,229.046 1354.58,229.046 1354.58,229.046Z" style="fill:rgb(51,51,51);"/>
            </g>
        </g>
    </g>
</svg>
