<?xml version="1.0" encoding="UTF-8" standalone="no"?><!DOCTYPE svg PUBLIC "-//W3C//DTD SVG 1.1//EN" "http://www.w3.org/Graphics/SVG/1.1/DTD/svg11.dtd"><svg width="100%" height="100%" viewBox="0 0 24 24" version="1.1" xmlns="http://www.w3.org/2000/svg" xmlns:xlink="http://www.w3.org/1999/xlink" xml:space="preserve" xmlns:serif="http://www.serif.com/" style="fill-rule:evenodd;clip-rule:evenodd;stroke-linejoin:round;stroke-miterlimit:1.41421;"><rect id="basic.thin.chevronRight" x="0" y="0" width="24" height="24" style="fill:none;"/><path d="M17.042,11.793c0.391,0.39 0.391,1.024 0,1.414c-1.614,1.614 -5.522,5.522 -6.717,6.718c-0.196,0.195 -0.512,0.195 -0.708,0c0,-0.001 0,-0.001 0,-0.001c-0.094,-0.094 -0.146,-0.221 -0.146,-0.353c0,-0.132 0.052,-0.259 0.146,-0.353c1.43,-1.43 6.718,-6.718 6.718,-6.718c0,0 -5.286,-5.286 -6.718,-6.718c-0.093,-0.093 -0.146,-0.22 -0.146,-0.353c0,-0.133 0.053,-0.26 0.146,-0.354c0.196,-0.195 0.512,-0.195 0.708,0c1.195,1.196 5.103,5.104 6.717,6.718Z" style="fill:#333;fill-rule:nonzero;"/></svg>