<?xml version="1.0" encoding="UTF-8" standalone="no"?>
<!DOCTYPE svg PUBLIC "-//W3C//DTD SVG 1.1//EN" "http://www.w3.org/Graphics/SVG/1.1/DTD/svg11.dtd">
<svg width="24px" height="24px" version="1.1" xmlns="http://www.w3.org/2000/svg" xmlns:xlink="http://www.w3.org/1999/xlink" xml:space="preserve" xmlns:serif="http://www.serif.com/" style="fill-rule:evenodd;clip-rule:evenodd;stroke-linejoin:round;stroke-miterlimit:1.41421;">
    <g transform="matrix(1,0,0,1,-48,-368)">
        <g id="basic.regular.doubleChevronLeft" transform="matrix(0.800768,0,0,0.984948,48,368)">
            <rect x="0" y="0" width="29.971" height="24.367" style="fill:none;"/>
            <g transform="matrix(-0.80276,-0.652648,-0.80276,0.652648,176.072,-104.815)">
                <path d="M15,182.9C14.392,182.9 13.9,183.392 13.9,184C13.9,186.786 13.9,193.9 13.9,193.9C13.9,193.9 6.786,193.9 4,193.9C3.392,193.9 2.9,194.392 2.9,195C2.9,195.292 3.016,195.572 3.222,195.778C3.428,195.984 3.708,196.1 4,196.1C6.486,196.1 12.514,196.1 15,196.1C15.292,196.1 15.571,195.984 15.778,195.778C15.984,195.572 16.1,195.292 16.1,195C16.1,192.514 16.1,186.486 16.1,184C16.1,183.708 15.984,183.428 15.778,183.222C15.571,183.016 15.292,182.9 15,182.9C15,182.9 15,182.9 15,182.9Z" style="fill:rgb(51,51,51);fill-rule:nonzero;"/>
            </g>
            <g transform="matrix(-0.642208,-0.522119,-0.642208,0.522119,149.849,-81.3197)">
                <path d="M15,183.313C14.62,183.313 14.313,183.62 14.313,184C14.313,186.407 14.313,194.313 14.313,194.313C14.313,194.313 6.368,194.313 3.982,194.313C3.805,194.313 3.634,194.383 3.509,194.509C3.383,194.634 3.313,194.805 3.313,194.982C3.313,194.983 3.313,194.983 3.313,194.984C3.313,195.17 3.387,195.349 3.519,195.481C3.651,195.613 3.83,195.688 4.017,195.688C6.003,195.688 11.678,195.688 14.313,195.688C14.677,195.688 15.027,195.543 15.285,195.285C15.543,195.027 15.688,194.677 15.688,194.313C15.688,191.67 15.688,185.969 15.688,183.999C15.688,183.62 15.38,183.313 15.001,183.313C15.001,183.313 15,183.313 15,183.313Z" style="fill:rgb(51,51,51);fill-rule:nonzero;"/>
            </g>
        </g>
    </g>
</svg>
