<svg width="24" height="24" viewBox="0 0 24 24" fill="none" xmlns="http://www.w3.org/2000/svg">
<path d="M14.778 4.22207C15.1682 4.61226 15.1682 5.24609 14.778 5.63629C12.9871 7.4272 8.41405 12.0002 8.41405 12.0002C8.41405 12.0002 12.9871 16.5733 14.778 18.3642C15.1682 18.7544 15.1682 19.3882 14.778 19.7784C14.5903 19.9661 14.3357 20.0715 14.0709 20.0715C13.8054 20.0709 13.5515 19.9661 13.3638 19.7784C11.7657 18.1804 7.89078 14.3054 6.29272 12.7074C6.10502 12.5197 5.9996 12.2651 5.9996 12.0002C5.9996 11.7354 6.10502 11.4808 6.29273 11.2931C7.89079 9.69508 11.7657 5.82013 13.3638 4.22207C13.5515 4.03437 13.8054 3.92959 14.0709 3.92895C14.3357 3.92895 14.5903 4.03437 14.778 4.22207Z" fill="black"/>
</svg>
