<svg width="24" height="24" viewBox="0 0 24 24" fill="none" xmlns="http://www.w3.org/2000/svg">
<path d="M20.4944 6.63599C20.8044 6.81299 21.0044 7.146 21.0044 7.50699C21.0044 9.29799 21.0044 14.702 21.0044 16.493C21.0044 16.854 20.8044 17.187 20.4944 17.364C18.9044 18.26 14.0544 20.996 12.4944 21.878C12.1844 22.05 11.8144 22.05 11.5144 21.878C9.9444 20.996 5.0944 18.26 3.5144 17.364C3.1944 17.187 3.00439 16.854 3.00439 16.493C3.00439 14.702 3.00439 9.29799 3.00439 7.50699C3.00439 7.146 3.1944 6.81299 3.5144 6.63599C5.0944 5.74 9.9444 3.00399 11.5144 2.122C11.8144 1.95 12.1844 1.95 12.4944 2.122C14.0544 3.00399 18.9044 5.74 20.4944 6.63599ZM5.00439 8.07699V15.923L12.0044 19.845L19.0044 15.923V8.07699L12.0044 4.155L5.00439 8.07699Z" fill="black"/>
<path d="M4 7.5V16.5L12 21L20 16.5V7.5L12 3L4 7.5Z" fill="black" fill-opacity="0.1"/>
</svg>
