<svg width="24" height="24" viewBox="0 0 24 24" fill="none" xmlns="http://www.w3.org/2000/svg">
<path fill-rule="evenodd" clip-rule="evenodd" d="M10.9998 16.591C10.9998 16.591 7.23683 12.821 5.63583 11.221C5.24583 10.831 4.61183 10.831 4.22183 11.221C4.03383 11.411 3.92883 11.661 3.92883 11.931C3.92883 12.191 4.03383 12.451 4.22183 12.641C5.81983 14.231 9.69483 18.1109 11.2928 19.7109C11.4798 19.8909 11.7348 20.001 11.9998 20.001C12.2648 20.001 12.5198 19.8909 12.7068 19.7109C14.3048 18.1109 18.1798 14.231 19.7778 12.641C19.9658 12.451 20.0708 12.191 20.0708 11.931C20.0708 11.661 19.9658 11.411 19.7778 11.221C19.3878 10.831 18.7548 10.831 18.3638 11.221C16.7628 12.821 12.9998 16.591 12.9998 16.591C12.9998 16.591 12.9998 6.29101 12.9998 3.00101C12.9998 2.74101 12.8948 2.48105 12.7068 2.29105C12.5198 2.11105 12.2648 2.00101 11.9998 2.00101C11.7348 2.00101 11.4798 2.11105 11.2928 2.29105C11.1048 2.48105 10.9998 2.74101 10.9998 3.00101C10.9998 6.29101 10.9998 16.591 10.9998 16.591Z" fill="black"/>
</svg>
