<svg width="24" height="24" viewBox="0 0 24 24" fill="none" xmlns="http://www.w3.org/2000/svg">
<g clip-path="url(#clip0)">
<path d="M18.4815 17.3037C18.6764 17.4986 18.6764 17.8144 18.4815 18.0093L18.4809 18.0098C18.2855 18.2052 17.9693 18.2057 17.7738 18.0103C16.536 16.7725 12.4703 12.7067 12.4703 12.7067C12.4703 12.7067 8.42357 16.7535 7.17546 18.0016C6.97593 18.2011 6.65143 18.2016 6.45138 18.0016C6.45138 18.0016 6.45138 18.0016 6.45087 18.001C6.26059 17.8108 6.26059 17.5022 6.45087 17.3119C7.45573 16.3071 10.4004 13.3624 11.7632 11.9996C11.9509 11.8119 12.2054 11.7065 12.4708 11.7065C12.7361 11.7065 12.9902 11.8124 13.1774 11.9996C14.5366 13.3588 17.4684 16.2906 18.4815 17.3037Z" fill="black"/>
<path d="M20.2495 12.3642C20.4372 12.5519 20.5426 12.8065 20.5426 13.0713C20.5426 13.3361 20.4372 13.5907 20.2495 13.7784C19.8593 14.1686 19.2261 14.1692 18.8353 13.7784C17.0444 11.9875 12.4713 7.41445 12.4713 7.41445C12.4713 7.41445 7.89826 11.9875 6.10735 13.7784C5.71716 14.1686 5.08397 14.1692 4.69313 13.7784C4.50543 13.5907 4.40065 13.3368 4.4 13.0713C4.40065 12.8058 4.50542 12.5519 4.69313 12.3642C6.29119 10.7661 10.1661 6.89118 11.7642 5.29312C11.9519 5.10541 12.2065 4.99999 12.4713 4.99999C12.7368 5.00064 12.9907 5.10542 13.1784 5.29312C14.7765 6.89118 18.6514 10.7661 20.2495 12.3642Z" fill="black"/>
</g>
<defs>
<clipPath id="clip0">
<rect width="24" height="24" fill="white"/>
</clipPath>
</defs>
</svg>
