<?xml version="1.0" encoding="UTF-8" standalone="no"?>
<!DOCTYPE svg PUBLIC "-//W3C//DTD SVG 1.1//EN" "http://www.w3.org/Graphics/SVG/1.1/DTD/svg11.dtd">
<svg width="24px" height="24px" version="1.1" xmlns="http://www.w3.org/2000/svg" xmlns:xlink="http://www.w3.org/1999/xlink" xml:space="preserve" xmlns:serif="http://www.serif.com/" style="fill-rule:evenodd;clip-rule:evenodd;stroke-linejoin:round;stroke-miterlimit:1.41421;">
    <g transform="matrix(1,0,0,1,-576,-224)">
        <g id="basic.thin.smallCross" transform="matrix(0.800768,0,0,0.984948,576,224)">
            <rect x="0" y="0" width="29.971" height="24.367" style="fill:none;"/>
            <g transform="matrix(1.2488,0,0,1.01528,-2396.45,-227.423)">
                <path d="M1931.5,235.793C1931.5,235.793 1935.01,232.287 1936.15,231.146C1936.34,230.951 1936.66,230.951 1936.85,231.146C1936.85,231.147 1936.85,231.147 1936.85,231.147C1937.05,231.342 1937.05,231.658 1936.85,231.853C1935.72,232.992 1932.21,236.5 1932.21,236.5C1932.21,236.5 1935.71,240.006 1936.85,241.146C1937.05,241.342 1937.05,241.658 1936.85,241.854C1936.85,241.854 1936.85,241.854 1936.85,241.854C1936.66,242.049 1936.34,242.049 1936.15,241.854C1935.01,240.715 1931.5,237.207 1931.5,237.207C1931.5,237.207 1927.98,240.732 1926.84,241.863C1926.75,241.954 1926.63,242.005 1926.5,242.005C1926.37,242.005 1926.25,241.954 1926.16,241.863C1926.15,241.863 1926.15,241.862 1926.15,241.862C1926.06,241.766 1926.01,241.636 1926.01,241.5C1926.01,241.364 1926.06,241.234 1926.15,241.138C1927.3,239.989 1930.79,236.5 1930.79,236.5C1930.79,236.5 1927.3,233.011 1926.15,231.862C1926.06,231.766 1926.01,231.636 1926.01,231.5C1926.01,231.364 1926.06,231.234 1926.15,231.138C1926.15,231.138 1926.15,231.137 1926.16,231.137C1926.25,231.046 1926.37,230.995 1926.5,230.995C1926.63,230.995 1926.75,231.046 1926.84,231.137C1927.98,232.268 1931.5,235.793 1931.5,235.793Z" style="fill:rgb(51,51,51);"/>
            </g>
        </g>
    </g>
</svg>
