<svg width="24" height="24" viewBox="0 0 24 24" fill="none" xmlns="http://www.w3.org/2000/svg">
<path fill-rule="evenodd" clip-rule="evenodd" d="M20.9949 1.99929C21.2549 1.99929 21.5149 2.10429 21.7049 2.29229C21.8849 2.47928 21.9949 2.73429 21.9949 2.99928C21.9949 6.41328 21.9949 17.5853 21.9949 20.9992C21.9949 21.2642 21.8849 21.5192 21.7049 21.7062C21.5149 21.8942 21.2549 21.9992 20.9949 21.9992C17.5849 21.9992 6.40487 21.9992 2.99487 21.9992C2.72987 21.9992 2.4749 21.8942 2.2879 21.7062C2.0999 21.5192 1.99487 21.2642 1.99487 20.9992C1.99487 17.5853 1.99487 6.41328 1.99487 2.99928C1.99487 2.73429 2.0999 2.47928 2.2879 2.29229C2.4749 2.10429 2.72987 1.99929 2.99487 1.99929C6.40487 1.99929 17.5849 1.99929 20.9949 1.99929ZM20.9949 2.99928H2.99487V20.9992H20.9949V2.99928Z" fill="black"/>
</svg>
