<?xml version="1.0" encoding="UTF-8" standalone="no"?>
<!DOCTYPE svg PUBLIC "-//W3C//DTD SVG 1.1//EN" "http://www.w3.org/Graphics/SVG/1.1/DTD/svg11.dtd">
<svg width="24px" height="24px" version="1.1" xmlns="http://www.w3.org/2000/svg" xmlns:xlink="http://www.w3.org/1999/xlink" xml:space="preserve" xmlns:serif="http://www.serif.com/" style="fill-rule:evenodd;clip-rule:evenodd;stroke-linejoin:round;stroke-miterlimit:1.41421;">
    <g transform="matrix(1,0,0,1,-1029,-368)">
        <g id="basic.regular.doubleChevronDown" transform="matrix(0.800768,0,0,0.984948,1029,368)">
            <rect x="0" y="0" width="29.971" height="24.367" style="fill:none;"/>
            <g transform="matrix(0.80276,0.652648,-0.80276,0.652648,160.107,-118.781)">
                <path d="M15,182.9C15.292,182.9 15.572,183.016 15.778,183.222C15.984,183.428 16.1,183.708 16.1,184C16.1,186.486 16.1,192.514 16.1,195C16.1,195.292 15.984,195.572 15.778,195.778C15.572,195.984 15.292,196.1 15,196.1C12.514,196.1 6.486,196.1 4,196.1C3.708,196.1 3.428,195.984 3.222,195.778C3.016,195.572 2.9,195.292 2.9,195C2.9,194.392 3.392,193.9 4,193.9C6.786,193.9 13.9,193.9 13.9,193.9C13.9,193.9 13.9,186.786 13.9,184C13.9,183.392 14.393,182.9 15,182.9C15,182.9 15,182.9 15,182.9Z" style="fill:rgb(51,51,51);fill-rule:nonzero;"/>
            </g>
            <g transform="matrix(0.642208,0.522119,-0.642208,0.522119,131.207,-97.4615)">
                <path d="M15.001,183.313C15.38,183.313 15.687,183.62 15.687,183.999C15.687,185.969 15.687,191.67 15.687,194.313C15.687,194.677 15.543,195.027 15.285,195.285C15.027,195.543 14.677,195.688 14.312,195.688C11.662,195.688 5.937,195.688 3.982,195.688C3.612,195.688 3.312,195.388 3.312,195.018C3.312,195.017 3.312,195.017 3.312,195.017C3.312,194.628 3.628,194.313 4.016,194.313C6.443,194.313 14.312,194.313 14.312,194.313C14.312,194.313 14.312,186.407 14.312,184C14.312,183.62 14.62,183.313 15,183.313C15,183.313 15.001,183.313 15.001,183.313Z" style="fill:rgb(51,51,51);fill-rule:nonzero;"/>
            </g>
        </g>
    </g>
</svg>
