<svg width="24" height="24" viewBox="0 0 24 24" fill="none" xmlns="http://www.w3.org/2000/svg">
<path fill-rule="evenodd" clip-rule="evenodd" d="M12.4103 5.03671C12.3203 4.94471 12.2002 4.89371 12.0702 4.89471C11.9402 4.89471 11.8202 4.9457 11.7302 5.0377C10.5402 6.2267 6.62026 10.1687 5.00026 11.7927C4.61026 12.1837 4.61026 12.8167 5.00026 13.2067C6.61026 14.8107 10.5002 18.6867 11.7102 19.8877C11.9102 20.0867 12.2303 20.0867 12.4303 19.8857C12.5303 19.7937 12.5802 19.6697 12.5802 19.5407C12.5802 19.4117 12.5203 19.2877 12.4303 19.1967C11.0803 17.8497 6.21022 12.9997 6.21022 12.9997C6.21022 12.9997 18.8202 12.9997 21.5002 12.9997C21.6302 12.9997 21.7602 12.9467 21.8502 12.8537C21.9502 12.7597 22.0002 12.6327 22.0002 12.5007V12.4997C22.0002 12.3667 21.9502 12.2397 21.8502 12.1457C21.7602 12.0527 21.6302 11.9997 21.5002 11.9997C18.8102 11.9997 6.20021 11.9997 6.20021 11.9997C6.20021 11.9997 11.0403 7.14271 12.4203 5.76071C12.6203 5.56071 12.6203 5.23671 12.4103 5.03671Z" fill="black"/>
</svg>
