<?xml version="1.0" encoding="UTF-8" standalone="no"?>
<!DOCTYPE svg PUBLIC "-//W3C//DTD SVG 1.1//EN" "http://www.w3.org/Graphics/SVG/1.1/DTD/svg11.dtd">
<svg width="24px" height="24px" version="1.1" xmlns="http://www.w3.org/2000/svg" xmlns:xlink="http://www.w3.org/1999/xlink" xml:space="preserve" xmlns:serif="http://www.serif.com/" style="fill-rule:evenodd;clip-rule:evenodd;stroke-linejoin:round;stroke-miterlimit:1.41421;">
    <g transform="matrix(1,0,0,1,-1107,-224)">
        <g id="basic.thin.octagon" transform="matrix(0.800768,0,0,0.984948,1107,224)">
            <rect x="0" y="0" width="29.971" height="24.367" style="fill:none;"/>
            <g transform="matrix(1.2488,0,0,1.01528,-1382.39,-227.423)">
                <path d="M1128.68,231.5C1128.87,231.688 1128.98,231.942 1128.98,232.207C1128.98,233.638 1128.98,238.362 1128.98,239.793C1128.98,240.058 1128.87,240.312 1128.68,240.5C1127.69,241.492 1124.47,244.716 1123.48,245.707C1123.29,245.895 1123.04,246 1122.77,246C1121.34,246 1116.61,246 1115.18,246C1114.92,246 1114.66,245.895 1114.48,245.707C1113.49,244.716 1110.26,241.492 1109.27,240.5C1109.08,240.312 1108.98,240.058 1108.98,239.793C1108.98,238.362 1108.98,233.638 1108.98,232.207C1108.98,231.942 1109.08,231.688 1109.27,231.5C1110.26,230.508 1113.49,227.284 1114.48,226.293C1114.66,226.105 1114.92,226 1115.18,226C1116.61,226 1121.34,226 1122.77,226C1123.04,226 1123.29,226.105 1123.48,226.293C1124.47,227.284 1127.69,230.508 1128.68,231.5ZM1115.18,227L1109.98,232.207L1109.98,239.793L1115.18,245L1122.77,245L1127.98,239.793L1127.98,232.207L1122.77,227L1115.18,227Z" style="fill:rgb(51,51,51);fill-rule:nonzero;"/>
            </g>
        </g>
    </g>
</svg>
