<svg width="24" height="24" viewBox="0 0 24 24" fill="none" xmlns="http://www.w3.org/2000/svg">
<path d="M20.2783 10.2426C20.466 10.4303 20.5715 10.6848 20.5715 10.9497C20.5715 11.2145 20.466 11.4691 20.2783 11.6568C18.6803 13.2548 14.8053 17.1298 13.2073 18.7278C13.0196 18.9155 12.765 19.021 12.5001 19.021C12.2353 19.021 11.9807 18.9155 11.793 18.7278C10.195 17.1298 6.32003 13.2548 4.72197 11.6568C4.53426 11.4691 4.42884 11.2145 4.42884 10.9497C4.42884 10.6848 4.53427 10.4303 4.72197 10.2426C5.11281 9.85172 5.74535 9.85172 6.13619 10.2426C7.9271 12.0335 12.5002 16.6065 12.5002 16.6065C12.5002 16.6065 17.0732 12.0335 18.8641 10.2426C19.2549 9.85172 19.8881 9.85236 20.2783 10.2426Z" fill="black"/>
<path d="M18.5103 6.01119C18.7052 6.20609 18.7052 6.52184 18.5103 6.71675C17.4972 7.72984 14.5654 10.6616 13.2062 12.0208C13.019 12.208 12.765 12.314 12.4996 12.314C12.2343 12.314 11.9797 12.2085 11.792 12.0208C10.4292 10.658 7.48508 7.7139 6.47971 6.70852C6.28943 6.51825 6.28943 6.20969 6.47971 6.01941C6.48022 6.0189 6.48022 6.0189 6.48022 6.0189C6.68027 5.81885 7.00476 5.81937 7.2043 6.0189C8.45241 7.26701 12.4991 11.3137 12.4991 11.3137C12.4991 11.3137 16.5649 7.24798 17.8027 6.01016C17.9981 5.81474 18.3144 5.81525 18.5098 6.01067L18.5103 6.01119Z" fill="black"/>
</svg>
