<svg width="24" height="24" viewBox="0 0 24 24" fill="none" xmlns="http://www.w3.org/2000/svg">
<path fill-rule="evenodd" clip-rule="evenodd" d="M11.6489 3.06367C11.8753 2.97878 12.1247 2.97878 12.3511 3.06367L20.3511 6.06367C20.7414 6.21003 21 6.58316 21 7V16.5C21 16.8973 20.7648 17.2569 20.4008 17.4162L12.4008 20.9162C12.1453 21.0279 11.8547 21.0279 11.5992 20.9162L3.59918 17.4162C3.23519 17.2569 3 16.8973 3 16.5V7C3 6.58316 3.25857 6.21003 3.64888 6.06367L11.6489 3.06367ZM5 8.443L11 10.693V18.471L5 15.846V8.443ZM13 18.471L19 15.846V8.443L13 10.693V18.471ZM12 8.932L17.152 7L12 5.068L6.848 7L12 8.932Z" fill="black"/>
</svg>
