<svg width="24" height="24" viewBox="0 0 24 24" fill="none" xmlns="http://www.w3.org/2000/svg">
<g clip-path="url(#clip0_7_53)">
<path d="M19.7075 11.7639C19.8952 11.9516 20.0006 12.2062 20.0006 12.4711C20 12.7365 19.8952 12.9905 19.7075 13.1782C18.1094 14.7762 14.2345 18.6512 12.6364 20.2492C12.4487 20.4369 12.1942 20.5424 11.9293 20.5424C11.6645 20.5424 11.4099 20.4369 11.2222 20.2492C10.8314 19.8584 10.8314 19.2258 11.2222 18.835C13.0131 17.0441 17.5862 12.471 17.5862 12.471C17.5862 12.471 13.0131 7.898 11.2222 6.10709C10.8314 5.71625 10.8314 5.08371 11.2222 4.69287C11.4099 4.50517 11.6638 4.40039 11.9293 4.39975C12.1942 4.39975 12.4487 4.50517 12.6364 4.69288C14.2345 6.29094 18.1094 10.1659 19.7075 11.7639Z" fill="black"/>
<path d="M13.7075 11.7639C13.8952 11.9516 14.0006 12.2062 14.0006 12.4711C14 12.7365 13.8952 12.9905 13.7075 13.1782C12.1094 14.7762 8.23449 18.6512 6.63643 20.2492C6.44872 20.4369 6.19416 20.5424 5.92932 20.5424C5.66447 20.5424 5.40992 20.4369 5.22221 20.2492C4.83137 19.8584 4.83137 19.2258 5.22221 18.835C7.01312 17.0441 11.5862 12.471 11.5862 12.471C11.5862 12.471 7.01312 7.898 5.22221 6.10709C4.83137 5.71625 4.83137 5.08371 5.22221 4.69287C5.40991 4.50517 5.66383 4.40039 5.92932 4.39975C6.19416 4.39975 6.44872 4.50517 6.63643 4.69288C8.23449 6.29094 12.1094 10.1659 13.7075 11.7639Z" fill="black"/>
</g>
<defs>
<clipPath id="clip0_7_53">
<rect width="24" height="24" fill="white"/>
</clipPath>
</defs>
</svg>
