<svg width="24" height="24" viewBox="0 0 24 24" fill="none" xmlns="http://www.w3.org/2000/svg">
<path fill-rule="evenodd" clip-rule="evenodd" d="M3 21C3 21 18.498 21 21.5 21C21.776 21 22 21.22 22 21.5C22 21.63 21.947 21.76 21.854 21.85C21.76 21.95 21.633 22 21.5 22C18.868 22 6.606 22 3 22C2.735 22 2.48003 21.89 2.29303 21.71C2.10503 21.52 2 21.27 2 21C2 17.39 2 5.13 2 2.5C2 2.37 2.053 2.24002 2.146 2.15002C2.24 2.05002 2.367 2 2.5 2C2.776 2 3 2.22 3 2.5C3 5.5 3 21 3 21Z" fill="black"/>
<path d="M6 18L10 11L14 13L18 6" stroke="black" stroke-miterlimit="100" stroke-linecap="round" stroke-linejoin="round"/>
</svg>
