<svg width="24" height="24" viewBox="0 0 24 24" fill="none" xmlns="http://www.w3.org/2000/svg">
<path d="M21 20H4V3C4 2.74 3.89497 2.48004 3.70697 2.29004C3.51997 2.11004 3.265 2 3 2C2.735 2 2.48003 2.11004 2.29303 2.29004C2.10503 2.48004 2 2.74 2 3V21C2 21.27 2.10503 21.52 2.29303 21.71C2.48003 21.89 2.735 22 3 22H21C21.265 22 21.52 21.89 21.707 21.71C21.895 21.52 22 21.27 22 21C22 20.74 21.895 20.48 21.707 20.29C21.52 20.11 21.265 20 21 20Z" fill="black"/>
<path d="M19.8682 5.49614C20.1423 5.01662 19.9757 4.40577 19.4961 4.13176C19.0166 3.85775 18.4058 4.02434 18.1318 4.50386L14.6011 10.6825L11.4472 9.10557C10.9725 8.86822 10.3951 9.04305 10.1318 9.50386L6.13176 16.5039C5.85775 16.9834 6.02435 17.5942 6.50386 17.8682C6.98338 18.1423 7.59424 17.9757 7.86825 17.4961L11.3989 11.3175L14.5528 12.8944C15.0275 13.1318 15.6049 12.9569 15.8682 12.4961L19.8682 5.49614Z" fill="black"/>
</svg>
