<?xml version="1.0" encoding="UTF-8" standalone="no"?>
<!DOCTYPE svg PUBLIC "-//W3C//DTD SVG 1.1//EN" "http://www.w3.org/Graphics/SVG/1.1/DTD/svg11.dtd">
<svg width="24px" height="24px" version="1.1" xmlns="http://www.w3.org/2000/svg" xmlns:xlink="http://www.w3.org/1999/xlink" xml:space="preserve" xmlns:serif="http://www.serif.com/" style="fill-rule:evenodd;clip-rule:evenodd;stroke-linejoin:round;stroke-miterlimit:1.41421;">
    <g transform="matrix(1,0,0,1,-884,-1813)">
        <g id="chart.regular.barChart" transform="matrix(1,0,0,1,-684,1043)">
            <rect x="1568" y="770" width="24" height="24" style="fill:none;"/>
            <g transform="matrix(1,0,0,1,684,-1043)">
                <path d="M888,1833C888,1833 901.218,1833 905,1833C905.265,1833 905.52,1833.11 905.707,1833.29C905.895,1833.48 906,1833.74 906,1834C906,1834.27 905.895,1834.52 905.707,1834.71C905.52,1834.89 905.265,1835 905,1835C901.586,1835 890.414,1835 887,1835C886.735,1835 886.48,1834.89 886.293,1834.71C886.105,1834.52 886,1834.27 886,1834C886,1830.59 886,1819.41 886,1816C886,1815.74 886.105,1815.48 886.293,1815.29C886.48,1815.11 886.735,1815 887,1815C887.265,1815 887.52,1815.11 887.707,1815.29C887.895,1815.48 888,1815.74 888,1816C888,1819.78 888,1833 888,1833ZM896,1830C896,1830.27 895.895,1830.52 895.707,1830.71C895.52,1830.89 895.265,1831 895,1831C894.735,1831 894.48,1830.89 894.293,1830.71C894.105,1830.52 894,1830.27 894,1830C894,1827.74 894,1822.26 894,1820C894,1819.74 894.105,1819.48 894.293,1819.29C894.48,1819.11 894.735,1819 895,1819C895.265,1819 895.52,1819.11 895.707,1819.29C895.895,1819.48 896,1819.74 896,1820C896,1822.26 896,1827.74 896,1830ZM892,1830C892,1830.27 891.895,1830.52 891.707,1830.71C891.52,1830.89 891.265,1831 891,1831C890.735,1831 890.48,1830.89 890.293,1830.71C890.105,1830.52 890,1830.27 890,1830C890,1828.89 890,1827.11 890,1826C890,1825.74 890.105,1825.48 890.293,1825.29C890.48,1825.11 890.735,1825 891,1825C891.265,1825 891.52,1825.11 891.707,1825.29C891.895,1825.48 892,1825.74 892,1826C892,1827.11 892,1828.89 892,1830ZM904,1830C904,1830.55 903.552,1831 903,1831C902.448,1831 902,1830.55 902,1830C902,1827.42 902,1820.58 902,1818C902,1817.45 902.448,1817 903,1817C903.552,1817 904,1817.45 904,1818C904,1820.58 904,1827.42 904,1830ZM900,1830C900,1830.55 899.552,1831 899,1831C898.448,1831 898,1830.55 898,1830C898,1828.46 898,1825.54 898,1824C898,1823.45 898.448,1823 899,1823C899.552,1823 900,1823.45 900,1824C900,1825.54 900,1828.46 900,1830Z" style="fill:rgb(51,51,51);"/>
            </g>
        </g>
    </g>
</svg>
