<svg width="24" height="24" viewBox="0 0 24 24" fill="none" xmlns="http://www.w3.org/2000/svg">
<path d="M21.5 21H3V2.5C3 2.22 2.776 2 2.5 2C2.367 2 2.24 2.05002 2.146 2.15002C2.053 2.24002 2 2.37 2 2.5V21C2 21.27 2.10503 21.52 2.29303 21.71C2.48003 21.89 2.735 22 3 22H21.5C21.633 22 21.76 21.95 21.854 21.85C21.947 21.76 22 21.63 22 21.5C22 21.22 21.776 21 21.5 21Z" fill="black"/>
<path d="M18.4341 6.24807C18.5711 6.00831 18.4878 5.70289 18.2481 5.56588C18.0083 5.42887 17.7029 5.51217 17.5659 5.75193L13.8005 12.3413L10.2236 10.5528C9.98625 10.4341 9.69753 10.5215 9.56587 10.7519L5.56587 17.7519C5.42887 17.9917 5.51217 18.2971 5.75192 18.4341C5.99168 18.5711 6.29711 18.4878 6.43412 18.2481L10.1994 11.6587L13.7764 13.4472C14.0137 13.5659 14.3025 13.4785 14.4341 13.2481L18.4341 6.24807Z" fill="black"/>
</svg>
