<svg width="24" height="24" viewBox="0 0 24 24" fill="none" xmlns="http://www.w3.org/2000/svg">
<path fill-rule="evenodd" clip-rule="evenodd" d="M4 20C4 20 17.218 20 21 20C21.265 20 21.52 20.11 21.707 20.29C21.895 20.48 22 20.74 22 21C22 21.27 21.895 21.52 21.707 21.71C21.52 21.89 21.265 22 21 22C17.586 22 6.414 22 3 22C2.735 22 2.48003 21.89 2.29303 21.71C2.10503 21.52 2 21.27 2 21C2 17.59 2 6.41 2 3C2 2.74 2.10503 2.48004 2.29303 2.29004C2.48003 2.11004 2.735 2 3 2C3.265 2 3.51997 2.11004 3.70697 2.29004C3.89497 2.48004 4 2.74 4 3C4 6.78 4 20 4 20Z" fill="black"/>
<path d="M7 17L11 10L15 12L19 5" stroke="black" stroke-width="2" stroke-miterlimit="100" stroke-linecap="round" stroke-linejoin="round"/>
</svg>
