<?xml version="1.0" encoding="UTF-8" standalone="no"?>
<!DOCTYPE svg PUBLIC "-//W3C//DTD SVG 1.1//EN" "http://www.w3.org/Graphics/SVG/1.1/DTD/svg11.dtd">
<svg width="24px" height="24px" version="1.1" xmlns="http://www.w3.org/2000/svg" xmlns:xlink="http://www.w3.org/1999/xlink" xml:space="preserve" xmlns:serif="http://www.serif.com/" style="fill-rule:evenodd;clip-rule:evenodd;stroke-linejoin:round;stroke-miterlimit:1.41421;">
    <g transform="matrix(1,0,0,1,-932,-1861)">
        <g id="chart.thin.lineChart" transform="matrix(1,0,0,1,-636,1091)">
            <rect x="1568" y="770" width="24" height="24" style="fill:none;"/>
            <g transform="matrix(1,0,0,1,684,-1091)">
                <path d="M887,1882C887,1882 902.498,1882 905.5,1882C905.776,1882 906,1882.22 906,1882.5C906,1882.63 905.947,1882.76 905.854,1882.85C905.76,1882.95 905.633,1883 905.5,1883C902.868,1883 890.606,1883 887,1883C886.735,1883 886.48,1882.89 886.293,1882.71C886.105,1882.52 886,1882.27 886,1882C886,1878.39 886,1866.13 886,1863.5C886,1863.37 886.053,1863.24 886.146,1863.15C886.24,1863.05 886.367,1863 886.5,1863C886.776,1863 887,1863.22 887,1863.5C887,1866.5 887,1882 887,1882ZM899,1878.5C899,1878.78 898.776,1879 898.5,1879C898.224,1879 898,1878.78 898,1878.5C898,1877.06 898,1872.94 898,1871.5C898,1871.22 898.224,1871 898.5,1871C898.776,1871 899,1871.22 899,1871.5C899,1872.94 899,1877.06 899,1878.5ZM903,1878.5C903,1878.78 902.776,1879 902.5,1879C902.224,1879 902,1878.78 902,1878.5C902,1876.32 902,1867.68 902,1865.5C902,1865.22 902.224,1865 902.5,1865C902.776,1865 903,1865.22 903,1865.5C903,1867.68 903,1876.32 903,1878.5ZM891,1878.5C891,1878.63 890.947,1878.76 890.854,1878.85C890.76,1878.95 890.633,1879 890.5,1879C890.367,1879 890.24,1878.95 890.146,1878.85C890.053,1878.76 890,1878.63 890,1878.5C890,1877.37 890,1874.63 890,1873.5C890,1873.37 890.053,1873.24 890.146,1873.15C890.24,1873.05 890.367,1873 890.5,1873C890.633,1873 890.76,1873.05 890.854,1873.15C890.947,1873.24 891,1873.37 891,1873.5C891,1874.63 891,1877.37 891,1878.5ZM895,1878.5C895,1878.63 894.947,1878.76 894.854,1878.85C894.76,1878.95 894.633,1879 894.5,1879C894.5,1879 894.499,1879 894.499,1879C894.223,1879 894,1878.78 894,1878.5C894,1876.55 894,1869.45 894,1867.5C894,1867.22 894.223,1867 894.499,1867C894.499,1867 894.5,1867 894.5,1867C894.633,1867 894.76,1867.05 894.854,1867.15C894.947,1867.24 895,1867.37 895,1867.5C895,1869.45 895,1876.55 895,1878.5Z" style="fill:rgb(51,51,51);"/>
            </g>
        </g>
    </g>
</svg>
