<svg width="24" height="24" viewBox="0 0 24 24" fill="none" xmlns="http://www.w3.org/2000/svg">
<path fill-rule="evenodd" clip-rule="evenodd" d="M4 17.1492L10.2191 9.37531C10.4944 9.03127 10.9623 8.9079 11.3714 9.07152L15.6425 10.78L20.1863 4.41876C20.4389 4.06502 20.8912 3.91504 21.3052 4.04771C21.7192 4.18037 22 4.56529 22 5V21C22 21.27 21.895 21.52 21.707 21.71C21.6758 21.74 21.6428 21.768 21.6081 21.7939C21.4396 21.9232 21.2288 22 21 22H3C2.735 22 2.48003 21.89 2.29303 21.71C2.10503 21.52 2 21.27 2 21V3C2 2.74 2.10503 2.48004 2.29303 2.29004C2.48003 2.11004 2.735 2 3 2C3.265 2 3.51997 2.11004 3.70697 2.29004C3.89497 2.48004 4 2.74 4 3V17.1492ZM4.28063 20H20V8.12047L16.8137 12.5812C16.5459 12.9562 16.0565 13.0996 15.6286 12.9285L11.3174 11.204L4.28063 20Z" fill="black"/>
<path fill-rule="evenodd" clip-rule="evenodd" d="M3 21V19.5L11 10L16 12L21 5V21" fill="black" fill-opacity="0.1"/>
</svg>
