<svg width="24" height="24" viewBox="0 0 24 24" fill="none" xmlns="http://www.w3.org/2000/svg">
<path fill-rule="evenodd" clip-rule="evenodd" d="M3 21C3 21 18.498 21 21.5 21C21.776 21 22 21.22 22 21.5C22 21.63 21.947 21.76 21.854 21.85C21.76 21.95 21.633 22 21.5 22C18.868 22 6.606 22 3 22C2.735 22 2.48003 21.89 2.29303 21.71C2.10503 21.52 2 21.27 2 21C2 17.39 2 5.13 2 2.5C2 2.37 2.053 2.24002 2.146 2.15002C2.24 2.05002 2.367 2 2.5 2C2.776 2 3 2.22 3 2.5C3 5.5 3 21 3 21ZM15 17.5C15 17.78 14.776 18 14.5 18C14.224 18 14 17.78 14 17.5C14 16.06 14 11.94 14 10.5C14 10.22 14.224 10 14.5 10C14.776 10 15 10.22 15 10.5C15 11.94 15 16.06 15 17.5ZM19 17.5C19 17.78 18.776 18 18.5 18C18.224 18 18 17.78 18 17.5C18 15.32 18 6.68 18 4.5C18 4.22 18.224 4 18.5 4C18.776 4 19 4.22 19 4.5C19 6.68 19 15.32 19 17.5ZM7 17.5C7 17.63 6.947 17.76 6.854 17.85C6.76 17.95 6.633 18 6.5 18C6.367 18 6.24 17.95 6.146 17.85C6.053 17.76 6 17.63 6 17.5C6 16.37 6 13.63 6 12.5C6 12.37 6.053 12.24 6.146 12.15C6.24 12.05 6.367 12 6.5 12C6.633 12 6.76 12.05 6.854 12.15C6.947 12.24 7 12.37 7 12.5C7 13.63 7 16.37 7 17.5ZM11 17.5C11 17.63 10.947 17.76 10.854 17.85C10.76 17.95 10.633 18 10.5 18H10.499C10.223 18 10 17.78 10 17.5C10 15.55 10 8.45 10 6.5C10 6.22 10.223 6 10.499 6H10.5C10.633 6 10.76 6.05002 10.854 6.15002C10.947 6.24002 11 6.37 11 6.5C11 8.45 11 15.55 11 17.5Z" fill="black"/>
</svg>
