<svg width="24" height="24" viewBox="0 0 24 24" fill="none" xmlns="http://www.w3.org/2000/svg">
<rect width="24" height="24" fill="white"/>
<path fill-rule="evenodd" clip-rule="evenodd" d="M4 20C4 20 17.218 20 21 20C21.265 20 21.52 20.11 21.707 20.29C21.895 20.48 22 20.74 22 21C22 21.27 21.895 21.52 21.707 21.71C21.52 21.89 21.265 22 21 22C17.586 22 6.414 22 3 22C2.735 22 2.48003 21.89 2.29303 21.71C2.10503 21.52 2 21.27 2 21C2 17.59 2 6.41 2 3C2 2.74 2.10503 2.48004 2.29303 2.29004C2.48003 2.11004 2.735 2 3 2C3.265 2 3.51997 2.11004 3.70697 2.29004C3.89497 2.48004 4 2.74 4 3C4 6.78 4 20 4 20ZM12 17C12 17.27 11.895 17.52 11.707 17.71C11.52 17.89 11.265 18 11 18C10.735 18 10.48 17.89 10.293 17.71C10.105 17.52 10 17.27 10 17C10 14.74 10 9.26 10 7C10 6.74 10.105 6.48004 10.293 6.29004C10.48 6.11004 10.735 6 11 6C11.265 6 11.52 6.11004 11.707 6.29004C11.895 6.48004 12 6.74 12 7C12 9.26 12 14.74 12 17ZM8 17C8 17.27 7.89497 17.52 7.70697 17.71C7.51997 17.89 7.265 18 7 18C6.735 18 6.48003 17.89 6.29303 17.71C6.10503 17.52 6 17.27 6 17C6 15.89 6 14.11 6 13C6 12.74 6.10503 12.48 6.29303 12.29C6.48003 12.11 6.735 12 7 12C7.265 12 7.51997 12.11 7.70697 12.29C7.89497 12.48 8 12.74 8 13C8 14.11 8 15.89 8 17ZM20 17C20 17.55 19.552 18 19 18C18.448 18 18 17.55 18 17C18 14.42 18 7.58 18 5C18 4.45 18.448 4 19 4C19.552 4 20 4.45 20 5C20 7.58 20 14.42 20 17ZM16 17C16 17.55 15.552 18 15 18C14.448 18 14 17.55 14 17C14 15.46 14 12.54 14 11C14 10.45 14.448 10 15 10C15.552 10 16 10.45 16 11C16 12.54 16 15.46 16 17Z" fill="#333333"/>
</svg>
