<svg width="24" height="24" viewBox="0 0 24 24" fill="none" xmlns="http://www.w3.org/2000/svg">
<path fill-rule="evenodd" clip-rule="evenodd" d="M12 20C16.4183 20 20 16.4183 20 12C20 10.4691 19.57 9.03865 18.8242 7.82282C18.5729 7.93663 18.2938 8 18 8C17.6291 8 17.2818 7.89905 16.9841 7.72312L12.7231 11.9841C12.899 12.2818 13 12.6291 13 13C13 14.1046 12.1046 15 11 15C9.89543 15 9 14.1046 9 13C9 11.8954 9.89543 11 11 11C11.3709 11 11.7183 11.101 12.016 11.2769L16.2769 7.01603C16.101 6.71826 16 6.37092 16 6C16 5.70617 16.0634 5.42714 16.1772 5.17582C14.9613 4.43 13.5309 4 12 4C7.58172 4 4 7.58172 4 12C4 16.4183 7.58172 20 12 20ZM17.7098 5.04277C17.3694 5.14583 17.1058 5.42545 17.0254 5.77507C17.0088 5.84737 17 5.92266 17 6C17 6.55228 17.4477 7 18 7C18.0773 7 18.1526 6.99122 18.2249 6.9746C18.5745 6.89424 18.8542 6.63059 18.9572 6.29022C18.985 6.19837 19 6.10093 19 6C19 5.44772 18.5523 5 18 5C17.8991 5 17.8016 5.01496 17.7098 5.04277ZM19.6079 7.18957C19.8543 6.85711 20 6.44557 20 6C20 4.89543 19.1046 4 18 4C17.5544 4 17.1429 4.14571 16.8104 4.39207C15.419 3.51044 13.7691 3 12 3C7.02944 3 3 7.02944 3 12C3 16.9706 7.02944 21 12 21C16.9706 21 21 16.9706 21 12C21 10.2309 20.4896 8.581 19.6079 7.18957ZM12 13C12 13.5523 11.5523 14 11 14C10.4477 14 10 13.5523 10 13C10 12.4477 10.4477 12 11 12C11.5523 12 12 12.4477 12 13Z" fill="black"/>
</svg>
