<svg width="24" height="24" viewBox="0 0 24 24" fill="none" xmlns="http://www.w3.org/2000/svg">
<path fill-rule="evenodd" clip-rule="evenodd" d="M4 3C4 2.44772 4.44772 2 5 2H19C19.5523 2 20 2.44772 20 3V8C20 8.55228 19.5523 9 19 9H5C4.44772 9 4 8.55228 4 8V3ZM6 4V7H18V4H6Z" fill="black"/>
<path fill-rule="evenodd" clip-rule="evenodd" d="M18.5 5.5C18.5 5.22386 18.7239 5 19 5H21.5C21.7761 5 22 5.22386 22 5.5V10.5C22 10.7761 21.7761 11 21.5 11H12C11.7239 11 11.5 10.7761 11.5 10.5C11.5 10.2239 11.7239 10 12 10H21V6H19C18.7239 6 18.5 5.77614 18.5 5.5Z" fill="black"/>
<path fill-rule="evenodd" clip-rule="evenodd" d="M10 11C10 10.4477 10.4477 10 11 10H14C14.5523 10 15 10.4477 15 11V21C15 21.5523 14.5523 22 14 22H11C10.4477 22 10 21.5523 10 21V11ZM12 12V20H13V12H12Z" fill="black"/>
<path fill-rule="evenodd" clip-rule="evenodd" d="M19 3H5V8H19V3ZM14 11H11V21H14V11Z" fill="black" fill-opacity="0.1"/>
</svg>
