<svg width="24" height="24" viewBox="0 0 24 24" fill="none" xmlns="http://www.w3.org/2000/svg">
<path fill-rule="evenodd" clip-rule="evenodd" d="M20.0001 18.9983C20.0001 19.2633 19.8901 19.5182 19.7101 19.7052C19.5201 19.8932 19.2601 19.9983 19.0001 19.9983C16.7401 19.9983 11.2601 19.9983 9.00012 19.9983C8.74012 19.9983 8.48016 19.8932 8.29016 19.7052C8.11016 19.5182 8.00012 19.2633 8.00012 18.9983C8.00012 16.7383 8.00012 11.2583 8.00012 8.99828C8.00012 8.73328 8.11016 8.47831 8.29016 8.29131C8.48016 8.10331 8.74012 7.99828 9.00012 7.99828C11.2601 7.99828 16.7401 7.99828 19.0001 7.99828C19.2601 7.99828 19.5201 8.10331 19.7101 8.29131C19.8901 8.47831 20.0001 8.73328 20.0001 8.99828C20.0001 11.2583 20.0001 16.7383 20.0001 18.9983ZM10.0001 9.99828V17.9983H18.0001V9.99828H10.0001ZM11.0001 13.4983C11.0001 13.3653 11.05 13.2383 11.15 13.1443C11.24 13.0513 11.3701 12.9983 11.5001 12.9983C12.6301 12.9983 15.3701 12.9983 16.5001 12.9983C16.6301 12.9983 16.7602 13.0513 16.8502 13.1443C16.9502 13.2383 17.0001 13.3653 17.0001 13.4983C17.0001 13.6313 16.9502 13.7583 16.8502 13.8523C16.7602 13.9453 16.6301 13.9983 16.5001 13.9983C15.3701 13.9983 12.6301 13.9983 11.5001 13.9983C11.3701 13.9983 11.24 13.9453 11.15 13.8523C11.05 13.7583 11.0001 13.6313 11.0001 13.4983ZM13.0001 6.49829C13.0001 6.77429 12.7801 6.99828 12.5001 6.99828C12.2201 6.99828 12.0001 6.77429 12.0001 6.49829C12.0001 5.90629 12.0001 4.99829 12.0001 4.99829H5.00012V11.9983C5.00012 11.9983 5.91012 11.9983 6.50012 11.9983C6.78012 11.9983 7.00012 12.2223 7.00012 12.4983C7.00012 12.6313 6.95022 12.7583 6.85022 12.8523C6.76022 12.9453 6.63012 12.9983 6.50012 12.9983C6.09012 12.9983 5.50012 12.9983 5.00012 12.9983C4.45012 12.9983 4.00012 12.5503 4.00012 11.9983C4.00012 10.2663 4.00012 6.73029 4.00012 4.99829C4.00012 4.73329 4.11016 4.47832 4.29016 4.29132C4.48016 4.10332 4.74012 3.99829 5.00012 3.99829C6.73012 3.99829 10.2701 3.99829 12.0001 3.99829C12.5501 3.99829 13.0001 4.44629 13.0001 4.99829C13.0001 5.50229 13.0001 6.09029 13.0001 6.49829ZM11.0001 11.4983C11.0001 11.3653 11.05 11.2383 11.15 11.1443C11.24 11.0513 11.3701 10.9983 11.5001 10.9983C12.6301 10.9983 15.3701 10.9983 16.5001 10.9983C16.6301 10.9983 16.7602 11.0513 16.8502 11.1443C16.9502 11.2383 17.0001 11.3653 17.0001 11.4983C17.0001 11.6313 16.9502 11.7583 16.8502 11.8523C16.7602 11.9453 16.6301 11.9983 16.5001 11.9983C15.3701 11.9983 12.6301 11.9983 11.5001 11.9983C11.3701 11.9983 11.24 11.9453 11.15 11.8523C11.05 11.7583 11.0001 11.6313 11.0001 11.4983Z" fill="black"/>
<rect x="9" y="9" width="10" height="10" fill="black" fill-opacity="0.1"/>
</svg>
