<svg width="24" height="24" viewBox="0 0 24 24" fill="none" xmlns="http://www.w3.org/2000/svg">
<path fill-rule="evenodd" clip-rule="evenodd" d="M21.9958 20.9986C21.9958 21.2636 21.8858 21.5186 21.7058 21.7056C21.5158 21.8936 21.2558 21.9986 20.9958 21.9986C19.2658 21.9986 15.7258 21.9986 13.9958 21.9986C13.4458 21.9986 12.9958 21.5506 12.9958 20.9986C12.9958 20.4946 12.9958 19.9066 12.9958 19.4986C12.9958 19.2226 13.2158 18.9986 13.4958 18.9986C13.7758 18.9986 13.9958 19.2226 13.9958 19.4986C13.9958 20.0906 13.9958 20.9986 13.9958 20.9986H20.9958V13.9986C20.9958 13.9986 20.0858 13.9986 19.4958 13.9986C19.2158 13.9986 18.9958 13.7746 18.9958 13.4986C18.9958 13.3656 19.0457 13.2386 19.1457 13.1446C19.2357 13.0516 19.3658 12.9986 19.4958 12.9986C19.9058 12.9986 20.4958 12.9986 20.9958 12.9986C21.5458 12.9986 21.9958 13.4466 21.9958 13.9986C21.9958 15.7306 21.9958 19.2666 21.9958 20.9986ZM17.9958 16.9986C17.9958 17.2636 17.8858 17.5186 17.7058 17.7056C17.5158 17.8936 17.2558 17.9986 16.9958 17.9986C14.7358 17.9986 9.25584 17.9986 6.99585 17.9986C6.73585 17.9986 6.47588 17.8936 6.28588 17.7056C6.10588 17.5186 5.99585 17.2636 5.99585 16.9986C5.99585 14.7386 5.99585 9.25864 5.99585 6.99865C5.99585 6.73365 6.10588 6.47868 6.28588 6.29168C6.47588 6.10368 6.73585 5.99865 6.99585 5.99865C9.25584 5.99865 14.7358 5.99865 16.9958 5.99865C17.2558 5.99865 17.5158 6.10368 17.7058 6.29168C17.8858 6.47868 17.9958 6.73365 17.9958 6.99865C17.9958 9.25864 17.9958 14.7386 17.9958 16.9986ZM16.9958 16.9986V6.99865H6.99585V16.9986H16.9958ZM8.99584 11.4986C8.99584 11.3656 9.04575 11.2386 9.14575 11.1446C9.23575 11.0516 9.36584 10.9986 9.49584 10.9986C10.6258 10.9986 13.3658 10.9986 14.4958 10.9986C14.6258 10.9986 14.7559 11.0516 14.8459 11.1446C14.9459 11.2386 14.9958 11.3656 14.9958 11.4986C14.9958 11.6316 14.9459 11.7586 14.8459 11.8526C14.7559 11.9456 14.6258 11.9986 14.4958 11.9986C13.3658 11.9986 10.6258 11.9986 9.49584 11.9986C9.36584 11.9986 9.23575 11.9456 9.14575 11.8526C9.04575 11.7586 8.99584 11.6316 8.99584 11.4986ZM10.9958 4.49865C10.9958 4.77465 10.7758 4.99865 10.4958 4.99865C10.2158 4.99865 9.99584 4.77465 9.99584 4.49865C9.99584 3.90665 9.99584 2.99866 9.99584 2.99866H2.99585V9.99864C2.99585 9.99864 3.90585 9.99864 4.49585 9.99864C4.77585 9.99864 4.99585 10.2226 4.99585 10.4986C4.99585 10.6316 4.94594 10.7586 4.84594 10.8526C4.75594 10.9456 4.62585 10.9986 4.49585 10.9986C4.08585 10.9986 3.49585 10.9986 2.99585 10.9986C2.44585 10.9986 1.99585 10.5506 1.99585 9.99864C1.99585 8.26664 1.99585 4.73065 1.99585 2.99866C1.99585 2.73366 2.10589 2.47869 2.28589 2.29169C2.47589 2.10369 2.73585 1.99866 2.99585 1.99866C4.72585 1.99866 8.26584 1.99866 9.99584 1.99866C10.5458 1.99866 10.9958 2.44666 10.9958 2.99866C10.9958 3.50265 10.9958 4.09065 10.9958 4.49865ZM8.99584 9.49864C8.99584 9.36564 9.04575 9.23864 9.14575 9.14464C9.23575 9.05164 9.36584 8.99864 9.49584 8.99864C10.6258 8.99864 13.3658 8.99864 14.4958 8.99864C14.6258 8.99864 14.7559 9.05164 14.8459 9.14464C14.9459 9.23864 14.9958 9.36564 14.9958 9.49864C14.9958 9.63164 14.9459 9.75865 14.8459 9.85265C14.7559 9.94565 14.6258 9.99864 14.4958 9.99864C13.3658 9.99864 10.6258 9.99864 9.49584 9.99864C9.36584 9.99864 9.23575 9.94565 9.14575 9.85265C9.04575 9.75865 8.99584 9.63164 8.99584 9.49864Z" fill="black"/>
<rect x="7" y="7" width="10" height="10" fill="black" fill-opacity="0.1"/>
</svg>
