<svg width="24" height="24" viewBox="0 0 24 24" fill="none" xmlns="http://www.w3.org/2000/svg">
<path fill-rule="evenodd" clip-rule="evenodd" d="M4 21C3.44775 21 3 20.5522 3 20V4C3 3.44775 3.44775 3 4 3H20C20.5522 3 21 3.44775 21 4C21 4.55225 20.5522 5 20 5H5V20C5 20.5522 4.55225 21 4 21ZM20 9C20.5522 9 21 8.55225 21 8C21 7.44775 20.5522 7 20 7C19.4478 7 19 7.44775 19 8C19 8.55225 19.4478 9 20 9ZM20 13C20.5522 13 21 12.5522 21 12C21 11.4478 20.5522 11 20 11C19.4478 11 19 11.4478 19 12C19 12.5522 19.4478 13 20 13ZM21 16C21 16.5522 20.5522 17 20 17C19.4478 17 19 16.5522 19 16C19 15.4478 19.4478 15 20 15C20.5522 15 21 15.4478 21 16ZM20 21C20.5522 21 21 20.5522 21 20C21 19.4478 20.5522 19 20 19C19.4478 19 19 19.4478 19 20C19 20.5522 19.4478 21 20 21ZM13 20C13 20.5522 12.5522 21 12 21C11.4478 21 11 20.5522 11 20C11 19.4478 11.4478 19 12 19C12.5522 19 13 19.4478 13 20ZM16 21C16.5522 21 17 20.5522 17 20C17 19.4478 16.5522 19 16 19C15.4478 19 15 19.4478 15 20C15 20.5522 15.4478 21 16 21ZM9 20C9 20.5522 8.55225 21 8 21C7.44775 21 7 20.5522 7 20C7 19.4478 7.44775 19 8 19C8.55225 19 9 19.4478 9 20Z" fill="black"/>
</svg>
