<svg width="24" height="24" viewBox="0 0 24 24" fill="none" xmlns="http://www.w3.org/2000/svg">
<path fill-rule="evenodd" clip-rule="evenodd" d="M19.9955 17.5103C19.9955 17.2273 19.7655 16.9983 19.4855 16.9983C17.5055 16.9983 10.4155 16.9983 8.48554 16.9983C8.35554 16.9983 8.22544 17.0493 8.13544 17.1413C8.04544 17.2323 7.99555 17.3563 7.99555 17.4853V17.4862C7.99555 17.7692 8.22556 17.9983 8.50556 17.9983C10.4856 17.9983 17.5755 17.9983 19.5055 17.9983C19.6355 17.9983 19.7656 17.9473 19.8556 17.8553C19.9456 17.7643 19.9955 17.6403 19.9955 17.5113V17.5103ZM5.99555 17.5103C5.99555 17.2273 5.76554 16.9983 5.48554 16.9983C5.17554 16.9983 4.78554 16.9983 4.48554 16.9983C4.21554 16.9983 3.99555 17.2163 3.99555 17.4853V17.4862C3.99555 17.7692 4.22556 17.9983 4.50556 17.9983C4.81556 17.9983 5.20556 17.9983 5.50556 17.9983C5.77556 17.9983 5.99555 17.7803 5.99555 17.5113V17.5103ZM19.9955 13.5103C19.9955 13.2273 19.7655 12.9983 19.4855 12.9983C17.5055 12.9983 10.4155 12.9983 8.48554 12.9983C8.35554 12.9983 8.22544 13.0493 8.13544 13.1413C8.04544 13.2323 7.99555 13.3563 7.99555 13.4853V13.4862C7.99555 13.7692 8.22556 13.9983 8.50556 13.9983C10.4856 13.9983 17.5755 13.9983 19.5055 13.9983C19.6355 13.9983 19.7656 13.9473 19.8556 13.8553C19.9456 13.7643 19.9955 13.6403 19.9955 13.5113V13.5103ZM5.99555 13.5103C5.99555 13.2273 5.76554 12.9983 5.48554 12.9983C5.17554 12.9983 4.78554 12.9983 4.48554 12.9983C4.21554 12.9983 3.99555 13.2163 3.99555 13.4853V13.4862C3.99555 13.7692 4.22556 13.9983 4.50556 13.9983C4.81556 13.9983 5.20556 13.9983 5.50556 13.9983C5.77556 13.9983 5.99555 13.7803 5.99555 13.5113V13.5103ZM19.9955 9.51031C19.9955 9.22731 19.7655 8.99828 19.4855 8.99828C17.5055 8.99828 10.4155 8.99828 8.48554 8.99828C8.35554 8.99828 8.22544 9.04929 8.13544 9.14129C8.04544 9.23229 7.99555 9.35628 7.99555 9.48528V9.48626C7.99555 9.76926 8.22556 9.99828 8.50556 9.99828C10.4856 9.99828 17.5755 9.99828 19.5055 9.99828C19.6355 9.99828 19.7656 9.94728 19.8556 9.85528C19.9456 9.76428 19.9955 9.64028 19.9955 9.51128V9.51031ZM5.99555 9.51031C5.99555 9.22731 5.76554 8.99828 5.48554 8.99828C5.17554 8.99828 4.78554 8.99828 4.48554 8.99828C4.21554 8.99828 3.99555 9.21628 3.99555 9.48528V9.48626C3.99555 9.76926 4.22556 9.99828 4.50556 9.99828C4.81556 9.99828 5.20556 9.99828 5.50556 9.99828C5.77556 9.99828 5.99555 9.78028 5.99555 9.51128V9.51031ZM19.9955 5.51031C19.9955 5.22731 19.7655 4.99829 19.4855 4.99829C17.5055 4.99829 10.4155 4.99829 8.48554 4.99829C8.35554 4.99829 8.22544 5.0493 8.13544 5.1413C8.04544 5.2323 7.99555 5.35629 7.99555 5.48529V5.48627C7.99555 5.76927 8.22556 5.99829 8.50556 5.99829C10.4856 5.99829 17.5755 5.99829 19.5055 5.99829C19.6355 5.99829 19.7656 5.94728 19.8556 5.85528C19.9456 5.76428 19.9955 5.64029 19.9955 5.51129V5.51031ZM5.99555 5.51031C5.99555 5.22731 5.76554 4.99829 5.48554 4.99829C5.17554 4.99829 4.78554 4.99829 4.48554 4.99829C4.21554 4.99829 3.99555 5.21629 3.99555 5.48529V5.48627C3.99555 5.76927 4.22556 5.99829 4.50556 5.99829C4.81556 5.99829 5.20556 5.99829 5.50556 5.99829C5.77556 5.99829 5.99555 5.78029 5.99555 5.51129V5.51031Z" fill="#333333"/>
</svg>
