<svg width="24" height="24" viewBox="0 0 24 24" fill="none" xmlns="http://www.w3.org/2000/svg">
<path fill-rule="evenodd" clip-rule="evenodd" d="M3.99588 17.5103C3.99588 17.3743 4.0459 17.2443 4.1459 17.1483C4.2459 17.0523 4.37589 16.9983 4.50589 16.9983C6.92589 16.9983 17.1459 16.9983 19.5059 16.9983C19.6359 16.9983 19.7659 17.0493 19.8559 17.1413C19.9459 17.2323 19.9959 17.3563 19.9959 17.4853V17.4862C19.9959 17.6222 19.9458 17.7522 19.8458 17.8482C19.7458 17.9442 19.6159 17.9983 19.4859 17.9983C17.0659 17.9983 6.84587 17.9983 4.48587 17.9983C4.35587 17.9983 4.22589 17.9473 4.13589 17.8553C4.04589 17.7643 3.99588 17.6403 3.99588 17.5113V17.5103ZM3.99588 13.5103C3.99588 13.3743 4.0459 13.2443 4.1459 13.1483C4.2459 13.0523 4.37589 12.9983 4.50589 12.9983C6.92589 12.9983 17.1459 12.9983 19.5059 12.9983C19.6359 12.9983 19.7659 13.0493 19.8559 13.1413C19.9459 13.2323 19.9959 13.3563 19.9959 13.4853V13.4862C19.9959 13.6222 19.9458 13.7522 19.8458 13.8482C19.7458 13.9442 19.6159 13.9983 19.4859 13.9983C17.0659 13.9983 6.84587 13.9983 4.48587 13.9983C4.35587 13.9983 4.22589 13.9473 4.13589 13.8553C4.04589 13.7643 3.99588 13.6403 3.99588 13.5113V13.5103ZM3.99588 9.51031C3.99588 9.37431 4.0459 9.24431 4.1459 9.14831C4.2459 9.05231 4.37589 8.99828 4.50589 8.99828C6.92589 8.99828 17.1459 8.99828 19.5059 8.99828C19.6359 8.99828 19.7659 9.04929 19.8559 9.14129C19.9459 9.23229 19.9959 9.35628 19.9959 9.48528V9.48626C19.9959 9.62226 19.9458 9.75226 19.8458 9.84826C19.7458 9.94426 19.6159 9.99828 19.4859 9.99828C17.0659 9.99828 6.84587 9.99828 4.48587 9.99828C4.35587 9.99828 4.22589 9.94728 4.13589 9.85528C4.04589 9.76428 3.99588 9.64028 3.99588 9.51128V9.51031ZM3.99588 5.51031C3.99588 5.37431 4.0459 5.24431 4.1459 5.14832C4.2459 5.05232 4.37589 4.99829 4.50589 4.99829C6.92589 4.99829 17.1459 4.99829 19.5059 4.99829C19.6359 4.99829 19.7659 5.0493 19.8559 5.1413C19.9459 5.2323 19.9959 5.35629 19.9959 5.48529V5.48627C19.9959 5.62227 19.9458 5.75227 19.8458 5.84826C19.7458 5.94426 19.6159 5.99829 19.4859 5.99829C17.0659 5.99829 6.84587 5.99829 4.48587 5.99829C4.35587 5.99829 4.22589 5.94728 4.13589 5.85528C4.04589 5.76428 3.99588 5.64029 3.99588 5.51129V5.51031Z" fill="black"/>
</svg>
