<svg width="24" height="24" viewBox="0 0 24 24" fill="none" xmlns="http://www.w3.org/2000/svg">
<path fill-rule="evenodd" clip-rule="evenodd" d="M21.4991 1.99829C21.6291 1.99829 21.7592 2.05129 21.8492 2.14429C21.9492 2.23829 21.9991 2.36529 21.9991 2.49829C21.9991 5.27028 21.9991 18.7263 21.9991 21.4983C21.9991 21.6313 21.9492 21.7583 21.8492 21.8523C21.7592 21.9453 21.6291 21.9983 21.4991 21.9983C21.3691 21.9983 21.239 21.9453 21.149 21.8523C21.049 21.7583 20.9991 21.6313 20.9991 21.4983C20.9991 18.7263 20.9991 5.27028 20.9991 2.49829C20.9991 2.36529 21.049 2.23829 21.149 2.14429C21.239 2.05129 21.3691 1.99829 21.4991 1.99829ZM18.9991 15.9983C18.9991 16.5503 18.5491 16.9983 17.9991 16.9983C16.0791 16.9983 11.9191 16.9983 9.99911 16.9983C9.44911 16.9983 8.99911 16.5503 8.99911 15.9983C8.99911 15.3873 8.99911 14.6093 8.99911 13.9983C8.99911 13.4463 9.44911 12.9983 9.99911 12.9983C11.9191 12.9983 16.0791 12.9983 17.9991 12.9983C18.5491 12.9983 18.9991 13.4463 18.9991 13.9983C18.9991 14.6093 18.9991 15.3873 18.9991 15.9983ZM17.9991 13.9983H9.99911V15.9983H17.9991V13.9983ZM18.9991 9.99827C18.9991 10.5503 18.5491 10.9983 17.9991 10.9983C15.1291 10.9983 6.86911 10.9983 3.99911 10.9983C3.44911 10.9983 2.99911 10.5503 2.99911 9.99827C2.99911 9.38728 2.99911 8.60928 2.99911 7.99828C2.99911 7.44628 3.44911 6.99828 3.99911 6.99828C6.86911 6.99828 15.1291 6.99828 17.9991 6.99828C18.5491 6.99828 18.9991 7.44628 18.9991 7.99828C18.9991 8.60928 18.9991 9.38728 18.9991 9.99827ZM17.9991 7.99828H3.99911V9.99827H17.9991V7.99828Z" fill="black"/>
<path fill-rule="evenodd" clip-rule="evenodd" d="M18 8H4V10H18V8ZM18 14H10V16H18V14Z" fill="black" fill-opacity="0.1"/>
</svg>
