<svg width="24" height="24" viewBox="0 0 24 24" fill="none" xmlns="http://www.w3.org/2000/svg">
<path fill-rule="evenodd" clip-rule="evenodd" d="M2 20C2 20.5522 2.44775 21 3 21H5C5.55225 21 6 20.5522 6 20V6H20C20.5522 6 21 5.55225 21 5V3C21 2.44775 20.5522 2 20 2H3C2.44775 2 2 2.44775 2 3V20ZM5 5V6V19V20H4H3V19V4V3H4H19H20V4V5H19H6H5ZM21 8C21 8.55225 20.5522 9 20 9C19.4478 9 19 8.55225 19 8C19 7.44775 19.4478 7 20 7C20.5522 7 21 7.44775 21 8ZM21 12C21 12.5522 20.5522 13 20 13C19.4478 13 19 12.5522 19 12C19 11.4478 19.4478 11 20 11C20.5522 11 21 11.4478 21 12ZM20 17C20.5522 17 21 16.5522 21 16C21 15.4478 20.5522 15 20 15C19.4478 15 19 15.4478 19 16C19 16.5522 19.4478 17 20 17ZM21 20C21 20.5522 20.5522 21 20 21C19.4478 21 19 20.5522 19 20C19 19.4478 19.4478 19 20 19C20.5522 19 21 19.4478 21 20ZM12 21C12.5522 21 13 20.5522 13 20C13 19.4478 12.5522 19 12 19C11.4478 19 11 19.4478 11 20C11 20.5522 11.4478 21 12 21ZM17 20C17 20.5522 16.5522 21 16 21C15.4478 21 15 20.5522 15 20C15 19.4478 15.4478 19 16 19C16.5522 19 17 19.4478 17 20ZM8 21C8.55225 21 9 20.5522 9 20C9 19.4478 8.55225 19 8 19C7.44775 19 7 19.4478 7 20C7 20.5522 7.44775 21 8 21Z" fill="black"/>
<path d="M3 20L3 3H20V5L5 5L5 20H3Z" fill="black" fill-opacity="0.1"/>
</svg>
