<svg width="24" height="24" viewBox="0 0 24 24" fill="none" xmlns="http://www.w3.org/2000/svg">
<path d="M4 19C4.55228 19 5 19.4477 5 20C5 20.5523 4.55228 21 4 21C3.44772 21 3 20.5523 3 20C3 19.4477 3.44772 19 4 19Z" fill="black"/>
<path d="M8 19C8.55228 19 9 19.4477 9 20C9 20.5523 8.55228 21 8 21C7.44772 21 7 20.5523 7 20C7 19.4477 7.44772 19 8 19Z" fill="black"/>
<path d="M4 15C4.55228 15 5 15.4477 5 16C5 16.5523 4.55228 17 4 17C3.44772 17 3 16.5523 3 16C3 15.4477 3.44772 15 4 15Z" fill="black"/>
<path d="M4 7C4.55228 7 5 7.44772 5 8C5 8.55228 4.55228 9 4 9C3.44772 9 3 8.55228 3 8C3 7.44772 3.44772 7 4 7Z" fill="black"/>
<path d="M4 3C4.55228 3 5 3.44772 5 4C5 4.55228 4.55228 5 4 5C3.44772 5 3 4.55228 3 4C3 3.44772 3.44772 3 4 3Z" fill="black"/>
<path d="M8 3C8.55228 3 9 3.44772 9 4C9 4.55228 8.55228 5 8 5C7.44772 5 7 4.55228 7 4C7 3.44772 7.44772 3 8 3Z" fill="black"/>
<path d="M16 3C16.5523 3 17 3.44772 17 4C17 4.55228 16.5523 5 16 5C15.4477 5 15 4.55228 15 4C15 3.44772 15.4477 3 16 3Z" fill="black"/>
<path d="M20 3C20.5523 3 21 3.44772 21 4C21 4.55228 20.5523 5 20 5C19.4477 5 19 4.55228 19 4C19 3.44772 19.4477 3 20 3Z" fill="black"/>
<path d="M20 7C20.5523 7 21 7.44772 21 8C21 8.55228 20.5523 9 20 9C19.4477 9 19 8.55228 19 8C19 7.44772 19.4477 7 20 7Z" fill="black"/>
<path d="M16 19C16.5523 19 17 19.4477 17 20C17 20.5523 16.5523 21 16 21C15.4477 21 15 20.5523 15 20C15 19.4477 15.4477 19 16 19Z" fill="black"/>
<path d="M20 19C20.5523 19 21 19.4477 21 20C21 20.5523 20.5523 21 20 21C19.4477 21 19 20.5523 19 20C19 19.4477 19.4477 19 20 19Z" fill="black"/>
<path d="M20 15C20.5523 15 21 15.4477 21 16C21 16.5523 20.5523 17 20 17C19.4477 17 19 16.5523 19 16C19 15.4477 19.4477 15 20 15Z" fill="black"/>
<path fill-rule="evenodd" clip-rule="evenodd" d="M10 4C10 3.44772 10.4477 3 11 3H13C13.5523 3 14 3.44772 14 4V10H20C20.5523 10 21 10.4477 21 11V13C21 13.5523 20.5523 14 20 14H14V20C14 20.5523 13.5523 21 13 21H11C10.4477 21 10 20.5523 10 20V14H4C3.44772 14 3 13.5523 3 13V11C3 10.4477 3.44772 10 4 10H10V4ZM11 4V10C11 10.5523 10.5523 11 10 11H4V13H10C10.5523 13 11 13.4477 11 14V20H13V14C13 13.4477 13.4477 13 14 13H20V11H14C13.4477 11 13 10.5523 13 10V4H11Z" fill="black"/>
<path d="M3.5 10.5V13.5H10.5V20.5H13.5V13.5H20.5V10.5H13.5V3.5H10.5V10.5H3.5Z" fill="black" fill-opacity="0.1"/>
</svg>
