<svg width="24" height="24" viewBox="0 0 24 24" fill="none" xmlns="http://www.w3.org/2000/svg">
<path fill-rule="evenodd" clip-rule="evenodd" d="M2.49713 1.99829C2.62713 1.99829 2.75723 2.05129 2.84723 2.14429C2.94723 2.23829 2.99713 2.36529 2.99713 2.49829C2.99713 5.27028 2.99713 18.7263 2.99713 21.4983C2.99713 21.6313 2.94723 21.7583 2.84723 21.8523C2.75723 21.9453 2.62713 21.9983 2.49713 21.9983C2.36713 21.9983 2.23703 21.9453 2.14703 21.8523C2.04703 21.7583 1.99713 21.6313 1.99713 21.4983C1.99713 18.7263 1.99713 5.27028 1.99713 2.49829C1.99713 2.36529 2.04703 2.23829 2.14703 2.14429C2.23703 2.05129 2.36713 1.99829 2.49713 1.99829ZM14.9971 15.9983C14.9971 16.5503 14.5471 16.9983 13.9971 16.9983C12.0771 16.9983 7.91713 16.9983 5.99713 16.9983C5.44713 16.9983 4.99713 16.5503 4.99713 15.9983C4.99713 15.3873 4.99713 14.6093 4.99713 13.9983C4.99713 13.4463 5.44713 12.9983 5.99713 12.9983C7.91713 12.9983 12.0771 12.9983 13.9971 12.9983C14.5471 12.9983 14.9971 13.4463 14.9971 13.9983C14.9971 14.6093 14.9971 15.3873 14.9971 15.9983ZM13.9971 13.9983H5.99713V15.9983H13.9971V13.9983ZM20.9971 9.99827C20.9971 10.5503 20.5471 10.9983 19.9971 10.9983C17.1271 10.9983 8.86713 10.9983 5.99713 10.9983C5.44713 10.9983 4.99713 10.5503 4.99713 9.99827C4.99713 9.38728 4.99713 8.60928 4.99713 7.99828C4.99713 7.44628 5.44713 6.99828 5.99713 6.99828C8.86713 6.99828 17.1271 6.99828 19.9971 6.99828C20.5471 6.99828 20.9971 7.44628 20.9971 7.99828C20.9971 8.60928 20.9971 9.38728 20.9971 9.99827ZM19.9971 7.99828H5.99713V9.99827H19.9971V7.99828Z" fill="black"/>
<path fill-rule="evenodd" clip-rule="evenodd" d="M20 8H6V10H20V8ZM14 14H6V16H14V14Z" fill="black" fill-opacity="0.1"/>
</svg>
