<svg width="24" height="24" viewBox="0 0 24 24" fill="none" xmlns="http://www.w3.org/2000/svg">
<path fill-rule="evenodd" clip-rule="evenodd" d="M4 2C3.44775 2 3 2.44775 3 3V5C3 5.55225 3.44775 6 4 6H20C20.5522 6 21 5.55225 21 5V3C21 2.44775 20.5522 2 20 2H4ZM4 5V3H20V5H4ZM4 9C4.55225 9 5 8.55225 5 8C5 7.44775 4.55225 7 4 7C3.44775 7 3 7.44775 3 8C3 8.55225 3.44775 9 4 9ZM4 13C4.55225 13 5 12.5522 5 12C5 11.4478 4.55225 11 4 11C3.44775 11 3 11.4478 3 12C3 12.5522 3.44775 13 4 13ZM12 13C12.5522 13 13 12.5522 13 12C13 11.4478 12.5522 11 12 11C11.4478 11 11 11.4478 11 12C11 12.5522 11.4478 13 12 13ZM9 12C9 12.5522 8.55225 13 8 13C7.44775 13 7 12.5522 7 12C7 11.4478 7.44775 11 8 11C8.55225 11 9 11.4478 9 12ZM13 8C13 8.55225 12.5522 9 12 9C11.4478 9 11 8.55225 11 8C11 7.44775 11.4478 7 12 7C12.5522 7 13 7.44775 13 8ZM20 9C20.5522 9 21 8.55225 21 8C21 7.44775 20.5522 7 20 7C19.4478 7 19 7.44775 19 8C19 8.55225 19.4478 9 20 9ZM17 12C17 12.5522 16.5522 13 16 13C15.4478 13 15 12.5522 15 12C15 11.4478 15.4478 11 16 11C16.5522 11 17 11.4478 17 12ZM20 13C20.5522 13 21 12.5522 21 12C21 11.4478 20.5522 11 20 11C19.4478 11 19 11.4478 19 12C19 12.5522 19.4478 13 20 13ZM21 16C21 16.5522 20.5522 17 20 17C19.4478 17 19 16.5522 19 16C19 15.4478 19.4478 15 20 15C20.5522 15 21 15.4478 21 16ZM20 21C20.5522 21 21 20.5522 21 20C21 19.4478 20.5522 19 20 19C19.4478 19 19 19.4478 19 20C19 20.5522 19.4478 21 20 21ZM13 16C13 16.5522 12.5522 17 12 17C11.4478 17 11 16.5522 11 16C11 15.4478 11.4478 15 12 15C12.5522 15 13 15.4478 13 16ZM12 21C12.5522 21 13 20.5522 13 20C13 19.4478 12.5522 19 12 19C11.4478 19 11 19.4478 11 20C11 20.5522 11.4478 21 12 21ZM17 20C17 20.5522 16.5522 21 16 21C15.4478 21 15 20.5522 15 20C15 19.4478 15.4478 19 16 19C16.5522 19 17 19.4478 17 20ZM4 17C4.55225 17 5 16.5522 5 16C5 15.4478 4.55225 15 4 15C3.44775 15 3 15.4478 3 16C3 16.5522 3.44775 17 4 17ZM5 20C5 20.5522 4.55225 21 4 21C3.44775 21 3 20.5522 3 20C3 19.4478 3.44775 19 4 19C4.55225 19 5 19.4478 5 20ZM8 21C8.55225 21 9 20.5522 9 20C9 19.4478 8.55225 19 8 19C7.44775 19 7 19.4478 7 20C7 20.5522 7.44775 21 8 21Z" fill="black"/>
<rect x="4" y="3" width="16" height="2" fill="black" fill-opacity="0.1"/>
</svg>
