<svg width="24" height="24" viewBox="0 0 24 24" fill="none" xmlns="http://www.w3.org/2000/svg">
<circle cx="11" cy="13" r="1.5" stroke="black"/>
<path d="M12 12L17 7" stroke="black"/>
<circle cx="18" cy="6" r="1.5" stroke="black"/>
<path fill-rule="evenodd" clip-rule="evenodd" d="M20 12C20 16.4183 16.4183 20 12 20C7.58172 20 4 16.4183 4 12C4 7.58172 7.58172 4 12 4C13.9036 4 15.6519 4.66488 17.0254 5.77507C17.1058 5.42545 17.3694 5.14583 17.7098 5.04277C16.1562 3.7663 14.1676 3 12 3C7.02944 3 3 7.02944 3 12C3 16.9706 7.02944 21 12 21C16.9706 21 21 16.9706 21 12C21 9.83239 20.2337 7.84375 18.9572 6.29022C18.8542 6.63059 18.5745 6.89424 18.2249 6.9746C19.3351 8.34807 20 10.0964 20 12Z" fill="black"/>
</svg>
