<svg width="24" height="24" viewBox="0 0 24 24" fill="none" xmlns="http://www.w3.org/2000/svg">
<path fill-rule="evenodd" clip-rule="evenodd" d="M19.9955 17.9983C19.9955 17.7333 19.8855 17.4783 19.7055 17.2913C19.5155 17.1033 19.2555 16.9983 18.9955 16.9983C16.7355 16.9983 11.2555 16.9983 8.99555 16.9983C8.73555 16.9983 8.47559 17.1033 8.28559 17.2913C8.10559 17.4783 7.99555 17.7333 7.99555 17.9983C7.99555 18.2633 8.10559 18.5182 8.28559 18.7052C8.47559 18.8932 8.73555 18.9983 8.99555 18.9983C11.2555 18.9983 16.7355 18.9983 18.9955 18.9983C19.2555 18.9983 19.5155 18.8932 19.7055 18.7052C19.8855 18.5182 19.9955 18.2633 19.9955 17.9983ZM5.99555 17.9983C5.99555 17.4463 5.54555 16.9983 4.99555 16.9983C4.44555 16.9983 3.99555 17.4463 3.99555 17.9983C3.99555 18.5503 4.44555 18.9983 4.99555 18.9983C5.54555 18.9983 5.99555 18.5503 5.99555 17.9983ZM19.9955 13.9983C19.9955 13.7333 19.8855 13.4783 19.7055 13.2913C19.5155 13.1033 19.2555 12.9983 18.9955 12.9983C16.7355 12.9983 11.2555 12.9983 8.99555 12.9983C8.73555 12.9983 8.47559 13.1033 8.28559 13.2913C8.10559 13.4783 7.99555 13.7333 7.99555 13.9983C7.99555 14.2633 8.10559 14.5182 8.28559 14.7052C8.47559 14.8932 8.73555 14.9983 8.99555 14.9983C11.2555 14.9983 16.7355 14.9983 18.9955 14.9983C19.2555 14.9983 19.5155 14.8932 19.7055 14.7052C19.8855 14.5182 19.9955 14.2633 19.9955 13.9983ZM5.99555 13.9983C5.99555 13.4463 5.54555 12.9983 4.99555 12.9983C4.44555 12.9983 3.99555 13.4463 3.99555 13.9983C3.99555 14.5503 4.44555 14.9983 4.99555 14.9983C5.54555 14.9983 5.99555 14.5503 5.99555 13.9983ZM19.9955 9.99828C19.9955 9.73328 19.8855 9.47831 19.7055 9.29131C19.5155 9.10331 19.2555 8.99828 18.9955 8.99828C16.7355 8.99828 11.2555 8.99828 8.99555 8.99828C8.73555 8.99828 8.47559 9.10331 8.28559 9.29131C8.10559 9.47831 7.99555 9.73328 7.99555 9.99828C7.99555 10.2633 8.10559 10.5183 8.28559 10.7052C8.47559 10.8932 8.73555 10.9983 8.99555 10.9983C11.2555 10.9983 16.7355 10.9983 18.9955 10.9983C19.2555 10.9983 19.5155 10.8932 19.7055 10.7052C19.8855 10.5183 19.9955 10.2633 19.9955 9.99828ZM5.99555 9.99828C5.99555 9.44628 5.54555 8.99828 4.99555 8.99828C4.44555 8.99828 3.99555 9.44628 3.99555 9.99828C3.99555 10.5503 4.44555 10.9983 4.99555 10.9983C5.54555 10.9983 5.99555 10.5503 5.99555 9.99828ZM19.9955 5.99829C19.9955 5.73329 19.8855 5.47832 19.7055 5.29132C19.5155 5.10332 19.2555 4.99829 18.9955 4.99829C16.7355 4.99829 11.2555 4.99829 8.99555 4.99829C8.73555 4.99829 8.47559 5.10332 8.28559 5.29132C8.10559 5.47832 7.99555 5.73329 7.99555 5.99829C7.99555 6.26329 8.10559 6.51826 8.28559 6.70526C8.47559 6.89326 8.73555 6.99829 8.99555 6.99829C11.2555 6.99829 16.7355 6.99829 18.9955 6.99829C19.2555 6.99829 19.5155 6.89326 19.7055 6.70526C19.8855 6.51826 19.9955 6.26329 19.9955 5.99829ZM5.99555 5.99829C5.99555 5.44629 5.54555 4.99829 4.99555 4.99829C4.44555 4.99829 3.99555 5.44629 3.99555 5.99829C3.99555 6.55029 4.44555 6.99829 4.99555 6.99829C5.54555 6.99829 5.99555 6.55029 5.99555 5.99829Z" fill="black"/>
</svg>
