<svg width="24" height="24" viewBox="0 0 24 24" fill="none" xmlns="http://www.w3.org/2000/svg">
<path fill-rule="evenodd" clip-rule="evenodd" d="M2.99713 1.99829C3.25713 1.99829 3.51709 2.10332 3.70709 2.29132C3.88709 2.47832 3.99713 2.73329 3.99713 2.99829C3.99713 6.41228 3.99713 17.5843 3.99713 20.9983C3.99713 21.2633 3.88709 21.5182 3.70709 21.7052C3.51709 21.8932 3.25713 21.9983 2.99713 21.9983C2.73713 21.9983 2.47717 21.8932 2.28717 21.7052C2.10717 21.5182 1.99713 21.2633 1.99713 20.9983C1.99713 17.5843 1.99713 6.41228 1.99713 2.99829C1.99713 2.73329 2.10717 2.47832 2.28717 2.29132C2.47717 2.10332 2.73713 1.99829 2.99713 1.99829ZM14.9971 16.9983C14.9971 17.5503 14.5471 17.9983 13.9971 17.9983C12.0771 17.9983 7.91713 17.9983 5.99713 17.9983C5.44713 17.9983 4.99713 17.5503 4.99713 16.9983C4.99713 16.1273 4.99713 14.8693 4.99713 13.9983C4.99713 13.4463 5.44713 12.9983 5.99713 12.9983C7.91713 12.9983 12.0771 12.9983 13.9971 12.9983C14.5471 12.9983 14.9971 13.4463 14.9971 13.9983C14.9971 14.8693 14.9971 16.1273 14.9971 16.9983ZM12.9971 14.9983H6.99713V15.9983H12.9971V14.9983ZM20.9971 9.99827C20.9971 10.5503 20.5471 10.9983 19.9971 10.9983C17.1271 10.9983 8.86713 10.9983 5.99713 10.9983C5.44713 10.9983 4.99713 10.5503 4.99713 9.99827C4.99713 9.12728 4.99713 7.86928 4.99713 6.99828C4.99713 6.44628 5.44713 5.99828 5.99713 5.99828C8.86713 5.99828 17.1271 5.99828 19.9971 5.99828C20.5471 5.99828 20.9971 6.44628 20.9971 6.99828C20.9971 7.86928 20.9971 9.12728 20.9971 9.99827ZM18.9971 7.99828H6.99713V8.99828H18.9971V7.99828Z" fill="black"/>
<path fill-rule="evenodd" clip-rule="evenodd" d="M20 7H6V10H20V7ZM14 14H6V17H14V14Z" fill="black" fill-opacity="0.1"/>
</svg>
