<svg width="24" height="24" viewBox="0 0 24 24" fill="none" xmlns="http://www.w3.org/2000/svg">
<path fill-rule="evenodd" clip-rule="evenodd" d="M6.99588 17.5103C6.99588 17.2273 7.22589 16.9983 7.50589 16.9983C9.23589 16.9983 14.8259 16.9983 16.5059 16.9983C16.7759 16.9983 16.9959 17.2163 16.9959 17.4853C16.9959 17.7683 16.7659 17.9983 16.4859 17.9983C14.7559 17.9983 9.16587 17.9983 7.48587 17.9983C7.21587 17.9983 6.99588 17.7793 6.99588 17.5103ZM3.99588 13.5103C3.99588 13.3743 4.0459 13.2443 4.1459 13.1483C4.2459 13.0523 4.37589 12.9983 4.50589 12.9983C6.92589 12.9983 17.1459 12.9983 19.5059 12.9983C19.6359 12.9983 19.7659 13.0493 19.8559 13.1413C19.9459 13.2323 19.9959 13.3563 19.9959 13.4853C19.9959 13.6213 19.9458 13.7522 19.8458 13.8482C19.7458 13.9442 19.6159 13.9983 19.4859 13.9983C17.0659 13.9983 6.84587 13.9983 4.48587 13.9983C4.35587 13.9983 4.22589 13.9473 4.13589 13.8553C4.04589 13.7643 3.99588 13.6393 3.99588 13.5103ZM4.99588 9.51031C4.99588 9.22731 5.22589 8.99828 5.50589 8.99828C7.70589 8.99828 16.3559 8.99828 18.5059 8.99828C18.6359 8.99828 18.7659 9.04929 18.8559 9.14129C18.9459 9.23229 18.9959 9.35628 18.9959 9.48528C18.9959 9.76828 18.7659 9.99828 18.4859 9.99828C16.2859 9.99828 7.63587 9.99828 5.48587 9.99828C5.35587 9.99828 5.22589 9.94728 5.13589 9.85528C5.04589 9.76428 4.99588 9.63931 4.99588 9.51031ZM3.99588 5.51031C3.99588 5.37431 4.0459 5.24431 4.1459 5.14832C4.2459 5.05232 4.37589 4.99829 4.50589 4.99829C6.92589 4.99829 17.1459 4.99829 19.5059 4.99829C19.6359 4.99829 19.7659 5.0493 19.8559 5.1413C19.9459 5.2323 19.9959 5.35629 19.9959 5.48529C19.9959 5.62129 19.9458 5.75227 19.8458 5.84826C19.7458 5.94426 19.6159 5.99829 19.4859 5.99829C17.0659 5.99829 6.84587 5.99829 4.48587 5.99829C4.35587 5.99829 4.22589 5.94728 4.13589 5.85528C4.04589 5.76428 3.99588 5.63931 3.99588 5.51031Z" fill="black"/>
</svg>
