<svg width="24" height="24" viewBox="0 0 24 24" fill="none" xmlns="http://www.w3.org/2000/svg">
<path fill-rule="evenodd" clip-rule="evenodd" d="M5 4C5 4.55225 4.55225 5 4 5C3.44775 5 3 4.55225 3 4C3 3.44775 3.44775 3 4 3C4.55225 3 5 3.44775 5 4ZM4 13C3.44775 13 3 12.5522 3 12C3 11.4478 3.44775 11 4 11H8H12H16H20C20.5522 11 21 11.4478 21 12C21 12.5522 20.5522 13 20 13H16H12H8H4ZM4 9C4.55225 9 5 8.55225 5 8C5 7.44775 4.55225 7 4 7C3.44775 7 3 7.44775 3 8C3 8.55225 3.44775 9 4 9ZM9 4C9 4.55225 8.55225 5 8 5C7.44775 5 7 4.55225 7 4C7 3.44775 7.44775 3 8 3C8.55225 3 9 3.44775 9 4ZM12 5C12.5522 5 13 4.55225 13 4C13 3.44775 12.5522 3 12 3C11.4478 3 11 3.44775 11 4C11 4.55225 11.4478 5 12 5ZM13 8C13 8.55225 12.5522 9 12 9C11.4478 9 11 8.55225 11 8C11 7.44775 11.4478 7 12 7C12.5522 7 13 7.44775 13 8ZM16 5C16.5522 5 17 4.55225 17 4C17 3.44775 16.5522 3 16 3C15.4478 3 15 3.44775 15 4C15 4.55225 15.4478 5 16 5ZM21 4C21 4.55225 20.5522 5 20 5C19.4478 5 19 4.55225 19 4C19 3.44775 19.4478 3 20 3C20.5522 3 21 3.44775 21 4ZM20 9C20.5522 9 21 8.55225 21 8C21 7.44775 20.5522 7 20 7C19.4478 7 19 7.44775 19 8C19 8.55225 19.4478 9 20 9ZM21 16C21 16.5522 20.5522 17 20 17C19.4478 17 19 16.5522 19 16C19 15.4478 19.4478 15 20 15C20.5522 15 21 15.4478 21 16ZM20 21C20.5522 21 21 20.5522 21 20C21 19.4478 20.5522 19 20 19C19.4478 19 19 19.4478 19 20C19 20.5522 19.4478 21 20 21ZM13 16C13 16.5522 12.5522 17 12 17C11.4478 17 11 16.5522 11 16C11 15.4478 11.4478 15 12 15C12.5522 15 13 15.4478 13 16ZM12 21C12.5522 21 13 20.5522 13 20C13 19.4478 12.5522 19 12 19C11.4478 19 11 19.4478 11 20C11 20.5522 11.4478 21 12 21ZM17 20C17 20.5522 16.5522 21 16 21C15.4478 21 15 20.5522 15 20C15 19.4478 15.4478 19 16 19C16.5522 19 17 19.4478 17 20ZM4 17C4.55225 17 5 16.5522 5 16C5 15.4478 4.55225 15 4 15C3.44775 15 3 15.4478 3 16C3 16.5522 3.44775 17 4 17ZM5 20C5 20.5522 4.55225 21 4 21C3.44775 21 3 20.5522 3 20C3 19.4478 3.44775 19 4 19C4.55225 19 5 19.4478 5 20ZM8 21C8.55225 21 9 20.5522 9 20C9 19.4478 8.55225 19 8 19C7.44775 19 7 19.4478 7 20C7 20.5522 7.44775 21 8 21Z" fill="black"/>
</svg>
