<svg width="24" height="24" viewBox="0 0 24 24" fill="none" xmlns="http://www.w3.org/2000/svg">
<path fill-rule="evenodd" clip-rule="evenodd" d="M22.0003 20.9973C22.0003 21.2573 21.8952 21.5172 21.7072 21.7072C21.5202 21.8872 21.2653 21.9973 21.0003 21.9973C17.5863 21.9973 6.41429 21.9973 3.00029 21.9973C2.73529 21.9973 2.48032 21.8872 2.29332 21.7072C2.10532 21.5172 2.00029 21.2573 2.00029 20.9973C2.00029 20.7373 2.10532 20.4773 2.29332 20.2873C2.48032 20.1073 2.73529 19.9973 3.00029 19.9973C6.41429 19.9973 17.5863 19.9973 21.0003 19.9973C21.2653 19.9973 21.5202 20.1073 21.7072 20.2873C21.8952 20.4773 22.0003 20.7373 22.0003 20.9973ZM7.00029 18.9973C6.44829 18.9973 6.00029 18.5473 6.00029 17.9973C6.00029 16.0773 6.00029 11.9173 6.00029 9.9973C6.00029 9.4473 6.44829 8.9973 7.00029 8.9973C7.87129 8.9973 9.12929 8.9973 10.0003 8.9973C10.5523 8.9973 11.0003 9.4473 11.0003 9.9973C11.0003 11.9173 11.0003 16.0773 11.0003 17.9973C11.0003 18.5473 10.5523 18.9973 10.0003 18.9973C9.12929 18.9973 7.87129 18.9973 7.00029 18.9973ZM9.00029 16.9973V10.9973H8.00029V16.9973H9.00029ZM14.0003 18.9973C13.4483 18.9973 13.0003 18.5473 13.0003 17.9973C13.0003 15.1273 13.0003 6.86731 13.0003 3.99731C13.0003 3.44731 13.4483 2.99731 14.0003 2.99731C14.8713 2.99731 16.1293 2.99731 17.0003 2.99731C17.5523 2.99731 18.0003 3.44731 18.0003 3.99731C18.0003 6.86731 18.0003 15.1273 18.0003 17.9973C18.0003 18.5473 17.5523 18.9973 17.0003 18.9973C16.1293 18.9973 14.8713 18.9973 14.0003 18.9973ZM16.0003 16.9973V4.99731H15.0003V16.9973H16.0003Z" fill="black"/>
<path fill-rule="evenodd" clip-rule="evenodd" d="M17 4H14V18H17V4ZM10 10H7V18H10V10Z" fill="black" fill-opacity="0.1"/>
</svg>
