<svg width="24" height="24" viewBox="0 0 24 24" fill="none" xmlns="http://www.w3.org/2000/svg">
<path fill-rule="evenodd" clip-rule="evenodd" d="M4 3C3.44775 3 3 3.44775 3 4V8V12V16V20C3 20.5522 3.44775 21 4 21H8H12H16H20C20.5522 21 21 20.5522 21 20V16V12V8V4C21 3.44775 20.5522 3 20 3H16H12H8H4ZM5 5V8V12V16V19H8H12H16H19V16V12V8V5H16H12H8H5ZM13 12C13 12.5522 12.5522 13 12 13C11.4478 13 11 12.5522 11 12C11 11.4478 11.4478 11 12 11C12.5522 11 13 11.4478 13 12ZM8 13C8.55225 13 9 12.5522 9 12C9 11.4478 8.55225 11 8 11C7.44775 11 7 11.4478 7 12C7 12.5522 7.44775 13 8 13ZM12 9C12.5522 9 13 8.55225 13 8C13 7.44775 12.5522 7 12 7C11.4478 7 11 7.44775 11 8C11 8.55225 11.4478 9 12 9ZM16 13C16.5522 13 17 12.5522 17 12C17 11.4478 16.5522 11 16 11C15.4478 11 15 11.4478 15 12C15 12.5522 15.4478 13 16 13ZM12 17C12.5522 17 13 16.5522 13 16C13 15.4478 12.5522 15 12 15C11.4478 15 11 15.4478 11 16C11 16.5522 11.4478 17 12 17Z" fill="black"/>
</svg>
