<svg width="24" height="24" viewBox="0 0 24 24" fill="none" xmlns="http://www.w3.org/2000/svg">
<path fill-rule="evenodd" clip-rule="evenodd" d="M22.0003 2.4939C22.0003 2.6239 21.9473 2.75399 21.8543 2.84399C21.7603 2.94399 21.6333 2.99389 21.5003 2.99389C18.7283 2.99389 5.27229 2.99389 2.50029 2.99389C2.36729 2.99389 2.24029 2.94399 2.14629 2.84399C2.05329 2.75399 2.00029 2.6239 2.00029 2.4939C2.00029 2.3639 2.05329 2.2338 2.14629 2.1438C2.24029 2.0438 2.36729 1.9939 2.50029 1.9939C5.27229 1.9939 18.7283 1.9939 21.5003 1.9939C21.6333 1.9939 21.7603 2.0438 21.8543 2.1438C21.9473 2.2338 22.0003 2.3639 22.0003 2.4939ZM8.00029 14.9939C7.44829 14.9939 7.00029 14.5439 7.00029 13.9939C7.00029 12.0739 7.00029 7.91388 7.00029 5.99389C7.00029 5.44389 7.44829 4.99389 8.00029 4.99389C8.61129 4.99389 9.38929 4.99389 10.0003 4.99389C10.5523 4.99389 11.0003 5.44389 11.0003 5.99389C11.0003 7.91388 11.0003 12.0739 11.0003 13.9939C11.0003 14.5439 10.5523 14.9939 10.0003 14.9939C9.38929 14.9939 8.61129 14.9939 8.00029 14.9939ZM10.0003 13.9939V5.99389H8.00029V13.9939H10.0003ZM14.0003 20.9939C13.4483 20.9939 13.0003 20.5439 13.0003 19.9939C13.0003 17.1239 13.0003 8.86388 13.0003 5.99389C13.0003 5.44389 13.4483 4.99389 14.0003 4.99389C14.6113 4.99389 15.3893 4.99389 16.0003 4.99389C16.5523 4.99389 17.0003 5.44389 17.0003 5.99389C17.0003 8.86388 17.0003 17.1239 17.0003 19.9939C17.0003 20.5439 16.5523 20.9939 16.0003 20.9939C15.3893 20.9939 14.6113 20.9939 14.0003 20.9939ZM16.0003 19.9939V5.99389H14.0003V19.9939H16.0003Z" fill="black"/>
<path fill-rule="evenodd" clip-rule="evenodd" d="M10 6H8V14H10V6ZM16 6H14V20H16V6Z" fill="black" fill-opacity="0.1"/>
</svg>
