<svg width="24" height="24" viewBox="0 0 24 24" fill="none" xmlns="http://www.w3.org/2000/svg">
<path fill-rule="evenodd" clip-rule="evenodd" d="M20.0031 17.5103C20.0031 17.2273 19.7731 16.9983 19.4931 16.9983C17.7631 16.9983 12.1731 16.9983 10.4931 16.9983C10.2231 16.9983 10.0031 17.2163 10.0031 17.4853V17.4862C10.0031 17.7692 10.2331 17.9983 10.5131 17.9983C12.2431 17.9983 17.8331 17.9983 19.5131 17.9983C19.7831 17.9983 20.0031 17.7803 20.0031 17.5113V17.5103ZM20.0031 13.5103C20.0031 13.3743 19.9531 13.2443 19.8531 13.1483C19.7531 13.0523 19.6231 12.9983 19.4931 12.9983C17.0731 12.9983 6.85311 12.9983 4.49312 12.9983C4.36312 12.9983 4.23314 13.0493 4.14314 13.1413C4.05314 13.2323 4.00313 13.3563 4.00313 13.4853V13.4862C4.00313 13.6222 4.05315 13.7522 4.15315 13.8482C4.25315 13.9442 4.38314 13.9983 4.51314 13.9983C6.93313 13.9983 17.1531 13.9983 19.5131 13.9983C19.6431 13.9983 19.7731 13.9473 19.8631 13.8553C19.9531 13.7643 20.0031 13.6403 20.0031 13.5113V13.5103ZM20.0031 9.51031C20.0031 9.22731 19.7731 8.99828 19.4931 8.99828C17.2931 8.99828 8.64311 8.99828 6.49312 8.99828C6.36312 8.99828 6.23314 9.04929 6.14314 9.14129C6.05314 9.23229 6.00313 9.35628 6.00313 9.48528V9.48626C6.00313 9.76926 6.23314 9.99828 6.51313 9.99828C8.71313 9.99828 17.3631 9.99828 19.5131 9.99828C19.6431 9.99828 19.7731 9.94728 19.8631 9.85528C19.9531 9.76428 20.0031 9.64028 20.0031 9.51128V9.51031ZM20.0031 5.51031C20.0031 5.37431 19.9531 5.24431 19.8531 5.14832C19.7531 5.05232 19.6231 4.99829 19.4931 4.99829C17.0731 4.99829 6.85311 4.99829 4.49312 4.99829C4.36312 4.99829 4.23314 5.0493 4.14314 5.1413C4.05314 5.2323 4.00313 5.35629 4.00313 5.48529V5.48627C4.00313 5.62227 4.05315 5.75227 4.15315 5.84826C4.25315 5.94426 4.38314 5.99829 4.51314 5.99829C6.93313 5.99829 17.1531 5.99829 19.5131 5.99829C19.6431 5.99829 19.7731 5.94728 19.8631 5.85528C19.9531 5.76428 20.0031 5.64029 20.0031 5.51129V5.51031Z" fill="#333333"/>
</svg>
