<svg width="24" height="24" viewBox="0 0 24 24" fill="none" xmlns="http://www.w3.org/2000/svg">
<path fill-rule="evenodd" clip-rule="evenodd" d="M11 14C11.5523 14 12 13.5523 12 13C12 12.4477 11.5523 12 11 12C10.4477 12 10 12.4477 10 13C10 13.5523 10.4477 14 11 14ZM11 16C12.6569 16 14 14.6569 14 13C14 11.3431 12.6569 10 11 10C9.34315 10 8 11.3431 8 13C8 14.6569 9.34315 16 11 16Z" fill="black"/>
<path fill-rule="evenodd" clip-rule="evenodd" d="M17.7071 7.70711L13.7071 11.7071L12.2929 10.2929L16.2929 6.29289L17.7071 7.70711Z" fill="black"/>
<path fill-rule="evenodd" clip-rule="evenodd" d="M18 7C18.5523 7 19 6.55228 19 6C19 5.44772 18.5523 5 18 5C17.4477 5 17 5.44772 17 6C17 6.55228 17.4477 7 18 7ZM18 9C19.6569 9 21 7.65685 21 6C21 4.34315 19.6569 3 18 3C16.3431 3 15 4.34315 15 6C15 7.65685 16.3431 9 18 9Z" fill="black"/>
<path fill-rule="evenodd" clip-rule="evenodd" d="M19 12C19 15.866 15.866 19 12 19C8.13401 19 5 15.866 5 12C5 8.13401 8.13401 5 12 5C15.866 5 19 8.13401 19 12ZM21 12C21 16.9706 16.9706 21 12 21C7.02944 21 3 16.9706 3 12C3 7.02944 7.02944 3 12 3C14.1676 3 16.1562 3.7663 17.7098 5.04277C17.299 5.16714 17 5.54865 17 6C17 6.55228 17.4477 7 18 7C18.4514 7 18.8329 6.70097 18.9572 6.29022C20.2337 7.84375 21 9.83239 21 12Z" fill="black"/>
</svg>
