<svg width="24" height="24" viewBox="0 0 24 24" fill="none" xmlns="http://www.w3.org/2000/svg">
<path fill-rule="evenodd" clip-rule="evenodd" d="M12.8536 8.14645C13.0488 8.34171 13.0488 8.65829 12.8536 8.85355L5.92614 15.781L4.39754 19.6025L8.21903 18.0739L15.1465 11.1464C15.3417 10.9512 15.6583 10.9512 15.8536 11.1464C16.0488 11.3417 16.0488 11.6583 15.8536 11.8536L8.85357 18.8536C8.80569 18.9014 8.74858 18.9391 8.68571 18.9642L3.68571 20.9642C3.5 21.0385 3.28789 20.995 3.14646 20.8536C3.00503 20.7121 2.96149 20.5 3.03578 20.3143L5.03578 15.3143C5.06092 15.2514 5.09858 15.1943 5.14646 15.1464L12.1465 8.14645C12.3417 7.95118 12.6583 7.95118 12.8536 8.14645Z" fill="black"/>
<path fill-rule="evenodd" clip-rule="evenodd" d="M19.5606 4.26771C18.9748 3.68192 18.0251 3.68192 17.4393 4.26771L15.8535 5.85349C15.6583 6.04876 15.3417 6.04876 15.1464 5.85349L14.8535 5.5606C14.6583 5.36534 14.3417 5.36534 14.1464 5.5606L12.5606 7.14639C12.3654 7.34165 12.3654 7.65823 12.5606 7.8535L16.1464 11.4393C16.3417 11.6345 16.6583 11.6345 16.8535 11.4393L18.4393 9.8535C18.6346 9.65823 18.6346 9.34165 18.4393 9.14639L18.1464 8.8535C17.9512 8.65823 17.9512 8.34165 18.1464 8.14639L19.7322 6.5606C20.318 5.97482 20.318 5.02507 19.7322 4.43928L19.5606 4.26771ZM16.7322 3.5606C17.7085 2.58429 19.2914 2.58429 20.2677 3.5606L20.4393 3.73217C21.4156 4.70848 21.4156 6.2914 20.4393 7.26771L19.2054 8.50165C19.7315 9.09065 19.7118 9.99518 19.1464 10.5606L17.5606 12.1464C16.9748 12.7322 16.0251 12.7322 15.4393 12.1464L11.8535 8.5606C11.2677 7.97482 11.2677 7.02507 11.8535 6.43928L13.4393 4.85349C14.0047 4.28807 14.9093 4.26842 15.4983 4.79454L16.7322 3.5606Z" fill="black"/>
<path d="M12 7.5L16.5 12L19 9.5L18.5 8.5L20.5 6L20 4L18 3.5L15.5 5.5L14.5 5L12 7.5Z" fill="black" fill-opacity="0.1"/>
</svg>
