<svg width="24" height="24" viewBox="0 0 24 24" fill="none" xmlns="http://www.w3.org/2000/svg">
<path fill-rule="evenodd" clip-rule="evenodd" d="M6.99762 17.5107C6.99762 17.2277 7.22763 16.9986 7.50763 16.9986C9.59763 16.9986 17.4676 16.9986 19.5076 16.9986C19.7776 16.9986 19.9976 17.2166 19.9976 17.4856V17.4866C19.9976 17.7696 19.7676 17.9986 19.4876 17.9986C17.3976 17.9986 9.52761 17.9986 7.48761 17.9986C7.21761 17.9986 6.99762 17.7806 6.99762 17.5116V17.5107ZM7.98761 10.7897C8.17761 10.9767 8.28766 11.2317 8.28766 11.4977C8.28766 11.7637 8.18762 12.0196 7.99762 12.2076C7.20762 12.9986 5.95772 14.2466 5.34772 14.8526C5.15772 15.0476 4.83752 15.0476 4.64752 14.8526C4.64752 14.8516 4.64752 14.8517 4.64752 14.8517C4.54752 14.7577 4.49762 14.6306 4.49762 14.4986C4.49762 14.3666 4.54752 14.2396 4.64752 14.1456C5.43752 13.3536 7.28766 11.5007 7.28766 11.5007C7.28766 11.5007 5.41774 9.64463 4.61774 8.85363C4.41774 8.65963 4.41774 8.34364 4.61774 8.14764V8.14666C4.80774 7.95066 5.12769 7.94867 5.31769 8.14367C5.92769 8.74867 7.19761 9.99866 7.98761 10.7897ZM10.9976 13.5107C10.9976 13.3747 11.0475 13.2447 11.1475 13.1487C11.2475 13.0527 11.3776 12.9986 11.5076 12.9986C13.0976 12.9986 17.9476 12.9986 19.5076 12.9986C19.6376 12.9986 19.7677 13.0496 19.8577 13.1416C19.9477 13.2326 19.9976 13.3566 19.9976 13.4856V13.4866C19.9976 13.6226 19.9477 13.7526 19.8477 13.8486C19.7477 13.9446 19.6176 13.9986 19.4876 13.9986C17.8976 13.9986 13.0476 13.9986 11.4876 13.9986C11.3576 13.9986 11.2275 13.9476 11.1375 13.8556C11.0475 13.7646 10.9976 13.6406 10.9976 13.5116V13.5107ZM10.9976 9.51067C10.9976 9.37467 11.0475 9.24467 11.1475 9.14867C11.2475 9.05267 11.3776 8.99865 11.5076 8.99865C13.0976 8.99865 17.9476 8.99865 19.5076 8.99865C19.6376 8.99865 19.7677 9.04965 19.8577 9.14165C19.9477 9.23265 19.9976 9.35665 19.9976 9.48565V9.48662C19.9976 9.62262 19.9477 9.75262 19.8477 9.84862C19.7477 9.94462 19.6176 9.99865 19.4876 9.99865C17.8976 9.99865 13.0476 9.99865 11.4876 9.99865C11.3576 9.99865 11.2275 9.94764 11.1375 9.85564C11.0475 9.76464 10.9976 9.64065 10.9976 9.51165V9.51067ZM6.99762 5.51068C6.99762 5.22768 7.22763 4.99866 7.50763 4.99866C9.59763 4.99866 17.4676 4.99866 19.5076 4.99866C19.7776 4.99866 19.9976 5.21666 19.9976 5.48566V5.48663C19.9976 5.76963 19.7676 5.99866 19.4876 5.99866C17.3976 5.99866 9.52761 5.99866 7.48761 5.99866C7.21761 5.99866 6.99762 5.78066 6.99762 5.51166V5.51068Z" fill="#333333"/>
</svg>
