<svg width="24" height="24" viewBox="0 0 24 24" fill="none" xmlns="http://www.w3.org/2000/svg">
<path fill-rule="evenodd" clip-rule="evenodd" d="M2 3C2 2.44772 2.44772 2 3 2H21C21.5523 2 22 2.44772 22 3V21C22 21.5523 21.5523 22 21 22H3C2.44772 22 2 21.5523 2 21V3ZM3 3V21H21V3H3ZM5 6C5 5.44772 5.44772 5 6 5H10C10.5523 5 11 5.44772 11 6V10C11 10.5523 10.5523 11 10 11H6C5.44772 11 5 10.5523 5 10V6ZM6 6V10H10V6H6ZM13 6C13 5.44772 13.4477 5 14 5H18C18.5523 5 19 5.44772 19 6V10C19 10.5523 18.5523 11 18 11H14C13.4477 11 13 10.5523 13 10V6ZM14 6V10H18V6H14ZM5 14C5 13.4477 5.44772 13 6 13H10C10.5523 13 11 13.4477 11 14V18C11 18.5523 10.5523 19 10 19H6C5.44772 19 5 18.5523 5 18V14ZM6 14V18H10V14H6ZM13 14C13 13.4477 13.4477 13 14 13H18C18.5523 13 19 13.4477 19 14V18C19 18.5523 18.5523 19 18 19H14C13.4477 19 13 18.5523 13 18V14ZM14 14V18H18V14H14Z" fill="black"/>
<path fill-rule="evenodd" clip-rule="evenodd" d="M2.5 21.5V2.5H21.5V21.5H2.5ZM5.5 10.5V5.5H10.5V10.5H5.5ZM5.5 13.5H10.5V18.5H5.5V13.5ZM13.5 10.5V5.5H18.5V10.5H13.5ZM13.5 13.5V18.5H18.5V13.5H13.5Z" fill="black" fill-opacity="0.1"/>
</svg>
