<svg width="24" height="24" viewBox="0 0 24 24" fill="none" xmlns="http://www.w3.org/2000/svg">
<path fill-rule="evenodd" clip-rule="evenodd" d="M6.99588 17.9983C6.99588 17.4463 7.44588 16.9983 7.99588 16.9983C9.91587 16.9983 14.0759 16.9983 15.9959 16.9983C16.5459 16.9983 16.9959 17.4463 16.9959 17.9983C16.9959 18.5503 16.5459 18.9983 15.9959 18.9983C14.0759 18.9983 9.91587 18.9983 7.99588 18.9983C7.44588 18.9983 6.99588 18.5503 6.99588 17.9983ZM3.99588 13.9983C3.99588 13.4463 4.44588 12.9983 4.99588 12.9983C7.86588 12.9983 16.1259 12.9983 18.9959 12.9983C19.2659 12.9983 19.5158 13.1033 19.7058 13.2913C19.8858 13.4783 19.9959 13.7333 19.9959 13.9983C19.9959 14.5503 19.5459 14.9983 18.9959 14.9983C16.1259 14.9983 7.86588 14.9983 4.99588 14.9983C4.73588 14.9983 4.47592 14.8932 4.28592 14.7052C4.10592 14.5182 3.99588 14.2633 3.99588 13.9983ZM4.99588 9.99828C4.99588 9.44628 5.44588 8.99828 5.99588 8.99828C8.57588 8.99828 15.4159 8.99828 17.9959 8.99828C18.2659 8.99828 18.5158 9.10331 18.7058 9.29131C18.8858 9.47831 18.9959 9.73328 18.9959 9.99828C18.9959 10.5503 18.5459 10.9983 17.9959 10.9983C15.4159 10.9983 8.57588 10.9983 5.99588 10.9983C5.73588 10.9983 5.47592 10.8932 5.28592 10.7052C5.10592 10.5183 4.99588 10.2633 4.99588 9.99828ZM3.99588 5.99829C3.99588 5.44629 4.44588 4.99829 4.99588 4.99829C7.86588 4.99829 16.1259 4.99829 18.9959 4.99829C19.2659 4.99829 19.5158 5.10332 19.7058 5.29132C19.8858 5.47832 19.9959 5.73329 19.9959 5.99829C19.9959 6.55029 19.5459 6.99829 18.9959 6.99829C16.1259 6.99829 7.86588 6.99829 4.99588 6.99829C4.73588 6.99829 4.47592 6.89326 4.28592 6.70526C4.10592 6.51826 3.99588 6.26329 3.99588 5.99829Z" fill="black"/>
</svg>
