<svg width="24" height="24" viewBox="0 0 24 24" fill="none" xmlns="http://www.w3.org/2000/svg">
<path fill-rule="evenodd" clip-rule="evenodd" d="M22.0003 21.4973C22.0003 21.6273 21.9473 21.7574 21.8543 21.8474C21.7603 21.9474 21.6333 21.9973 21.5003 21.9973C18.7283 21.9973 5.27229 21.9973 2.50029 21.9973C2.36729 21.9973 2.24029 21.9474 2.14629 21.8474C2.05329 21.7574 2.00029 21.6273 2.00029 21.4973C2.00029 21.3673 2.05329 21.2372 2.14629 21.1472C2.24029 21.0472 2.36729 20.9973 2.50029 20.9973C5.27229 20.9973 18.7283 20.9973 21.5003 20.9973C21.6333 20.9973 21.7603 21.0472 21.8543 21.1472C21.9473 21.2372 22.0003 21.3673 22.0003 21.4973ZM8.00029 18.9973C7.44829 18.9973 7.00029 18.5473 7.00029 17.9973C7.00029 16.0773 7.00029 11.9173 7.00029 9.9973C7.00029 9.4473 7.44829 8.9973 8.00029 8.9973C8.61129 8.9973 9.38929 8.9973 10.0003 8.9973C10.5523 8.9973 11.0003 9.4473 11.0003 9.9973C11.0003 11.9173 11.0003 16.0773 11.0003 17.9973C11.0003 18.5473 10.5523 18.9973 10.0003 18.9973C9.38929 18.9973 8.61129 18.9973 8.00029 18.9973ZM10.0003 17.9973L10.0003 9.9973H8.00029L8.00029 17.9973H10.0003ZM14.0003 18.9973C13.4483 18.9973 13.0003 18.5473 13.0003 17.9973C13.0003 15.1273 13.0003 6.86731 13.0003 3.99731C13.0003 3.44731 13.4483 2.99731 14.0003 2.99731C14.6113 2.99731 15.3893 2.99731 16.0003 2.99731C16.5523 2.99731 17.0003 3.44731 17.0003 3.99731C17.0003 6.86731 17.0003 15.1273 17.0003 17.9973C17.0003 18.5473 16.5523 18.9973 16.0003 18.9973C15.3893 18.9973 14.6113 18.9973 14.0003 18.9973ZM16.0003 17.9973V3.99731H14.0003V17.9973H16.0003Z" fill="black"/>
<path fill-rule="evenodd" clip-rule="evenodd" d="M16 4H14V18H16V4ZM10 10H8V18H10V10Z" fill="black" fill-opacity="0.1"/>
</svg>
