<svg width="24" height="24" viewBox="0 0 24 24" fill="none" xmlns="http://www.w3.org/2000/svg">
<path fill-rule="evenodd" clip-rule="evenodd" d="M17.9969 7.99829C20.2069 7.99829 21.9969 9.78929 21.9969 11.9983C21.9969 14.2073 20.2069 15.9983 17.9969 15.9983C16.8769 15.9983 15.7669 15.9983 14.9969 15.9983C14.4469 15.9983 13.9969 15.5503 13.9969 14.9983C13.9969 14.7333 14.1069 14.4783 14.2869 14.2913C14.4769 14.1033 14.7369 13.9983 14.9969 13.9983C15.8169 13.9983 16.9869 13.9983 17.9969 13.9983C19.1069 13.9983 19.9969 13.1033 19.9969 11.9983C19.9969 10.8933 19.1069 9.99829 17.9969 9.99829C16.9869 9.99829 15.8169 9.99829 14.9969 9.99829C14.7369 9.99829 14.4769 9.89326 14.2869 9.70526C14.1069 9.51826 13.9969 9.26329 13.9969 8.99829C13.9969 8.44629 14.4469 7.99829 14.9969 7.99829C15.7669 7.99829 16.8769 7.99829 17.9969 7.99829ZM9.99688 8.99829C9.99688 9.26329 9.88684 9.51826 9.70684 9.70526C9.51684 9.89326 9.26688 9.99829 8.99688 9.99829C8.17688 9.99829 7.00688 9.99829 5.99688 9.99829C4.88688 9.99829 3.99689 10.8933 3.99689 11.9983C3.99689 13.1033 4.88688 13.9983 5.99688 13.9983C7.00688 13.9983 8.17688 13.9983 8.99688 13.9983C9.26688 13.9983 9.51684 14.1033 9.70684 14.2913C9.88684 14.4783 9.99688 14.7333 9.99688 14.9983C9.99688 15.5503 9.54688 15.9983 8.99688 15.9983C8.22688 15.9983 7.11688 15.9983 5.99688 15.9983C3.78689 15.9983 1.99689 14.2073 1.99689 11.9983C1.99689 9.78929 3.78689 7.99829 5.99688 7.99829C7.11688 7.99829 8.22688 7.99829 8.99688 7.99829C9.54688 7.99829 9.99688 8.44629 9.99688 8.99829ZM14.9969 10.9983C15.5469 10.9983 15.9969 11.4463 15.9969 11.9983C15.9969 12.5503 15.5469 12.9983 14.9969 12.9983C13.4569 12.9983 10.5369 12.9983 8.99688 12.9983C8.44688 12.9983 7.99688 12.5503 7.99688 11.9983C7.99688 11.4463 8.44688 10.9983 8.99688 10.9983C10.5369 10.9983 13.4569 10.9983 14.9969 10.9983Z" fill="black"/>
</svg>
