<svg width="24" height="24" viewBox="0 0 24 24" fill="none" xmlns="http://www.w3.org/2000/svg">
<path fill-rule="evenodd" clip-rule="evenodd" d="M4 5C4.55225 5 5 4.55225 5 4C5 3.44775 4.55225 3 4 3C3.44775 3 3 3.44775 3 4C3 4.55225 3.44775 5 4 5ZM4 13C4.55225 13 5 12.5522 5 12C5 11.4478 4.55225 11 4 11C3.44775 11 3 11.4478 3 12C3 12.5522 3.44775 13 4 13ZM13 12C13 12.5522 12.5522 13 12 13C11.4478 13 11 12.5522 11 12C11 11.4478 11.4478 11 12 11C12.5522 11 13 11.4478 13 12ZM8 13C8.55225 13 9 12.5522 9 12C9 11.4478 8.55225 11 8 11C7.44775 11 7 11.4478 7 12C7 12.5522 7.44775 13 8 13ZM5 8C5 8.55225 4.55225 9 4 9C3.44775 9 3 8.55225 3 8C3 7.44775 3.44775 7 4 7C4.55225 7 5 7.44775 5 8ZM8 5C8.55225 5 9 4.55225 9 4C9 3.44775 8.55225 3 8 3C7.44775 3 7 3.44775 7 4C7 4.55225 7.44775 5 8 5ZM13 4C13 4.55225 12.5522 5 12 5C11.4478 5 11 4.55225 11 4C11 3.44775 11.4478 3 12 3C12.5522 3 13 3.44775 13 4ZM12 9C12.5522 9 13 8.55225 13 8C13 7.44775 12.5522 7 12 7C11.4478 7 11 7.44775 11 8C11 8.55225 11.4478 9 12 9ZM17 4C17 4.55225 16.5522 5 16 5C15.4478 5 15 4.55225 15 4C15 3.44775 15.4478 3 16 3C16.5522 3 17 3.44775 17 4ZM20 5C20.5522 5 21 4.55225 21 4C21 3.44775 20.5522 3 20 3C19.4478 3 19 3.44775 19 4C19 4.55225 19.4478 5 20 5ZM21 8C21 8.55225 20.5522 9 20 9C19.4478 9 19 8.55225 19 8C19 7.44775 19.4478 7 20 7C20.5522 7 21 7.44775 21 8ZM16 13C16.5522 13 17 12.5522 17 12C17 11.4478 16.5522 11 16 11C15.4478 11 15 11.4478 15 12C15 12.5522 15.4478 13 16 13ZM21 12C21 12.5522 20.5522 13 20 13C19.4478 13 19 12.5522 19 12C19 11.4478 19.4478 11 20 11C20.5522 11 21 11.4478 21 12ZM20 17C20.5522 17 21 16.5522 21 16C21 15.4478 20.5522 15 20 15C19.4478 15 19 15.4478 19 16C19 16.5522 19.4478 17 20 17ZM13 16C13 16.5522 12.5522 17 12 17C11.4478 17 11 16.5522 11 16C11 15.4478 11.4478 15 12 15C12.5522 15 13 15.4478 13 16ZM4 17C4.55225 17 5 16.5522 5 16C5 15.4478 4.55225 15 4 15C3.44775 15 3 15.4478 3 16C3 16.5522 3.44775 17 4 17ZM4 18C3.44775 18 3 18.4478 3 19V21C3 21.5522 3.44775 22 4 22H20C20.5522 22 21 21.5522 21 21V19C21 18.4478 20.5522 18 20 18H4ZM4 21V19H20V21H4Z" fill="black"/>
<rect x="4" y="19" width="16" height="2" fill="black" fill-opacity="0.1"/>
</svg>
