<svg width="24" height="24" viewBox="0 0 24 24" fill="none" xmlns="http://www.w3.org/2000/svg">
<path fill-rule="evenodd" clip-rule="evenodd" d="M22.0003 2.99389C22.0003 3.25389 21.8952 3.51385 21.7072 3.70385C21.5202 3.88385 21.2653 3.99389 21.0003 3.99389C17.5863 3.99389 6.41429 3.99389 3.00029 3.99389C2.73529 3.99389 2.48032 3.88385 2.29332 3.70385C2.10532 3.51385 2.00029 3.25389 2.00029 2.99389C2.00029 2.73389 2.10532 2.47393 2.29332 2.28393C2.48032 2.10394 2.73529 1.9939 3.00029 1.9939C6.41429 1.9939 17.5863 1.9939 21.0003 1.9939C21.2653 1.9939 21.5202 2.10394 21.7072 2.28393C21.8952 2.47393 22.0003 2.73389 22.0003 2.99389ZM7.00029 14.9939C6.44829 14.9939 6.00029 14.5439 6.00029 13.9939C6.00029 12.0739 6.00029 7.91388 6.00029 5.99389C6.00029 5.44389 6.44829 4.99389 7.00029 4.99389C7.87129 4.99389 9.12929 4.99389 10.0003 4.99389C10.5523 4.99389 11.0003 5.44389 11.0003 5.99389C11.0003 7.91388 11.0003 12.0739 11.0003 13.9939C11.0003 14.5439 10.5523 14.9939 10.0003 14.9939C9.12929 14.9939 7.87129 14.9939 7.00029 14.9939ZM9.00029 12.9939V6.99389H8.00029V12.9939H9.00029ZM14.0003 20.9939C13.4483 20.9939 13.0003 20.5439 13.0003 19.9939C13.0003 17.1239 13.0003 8.86388 13.0003 5.99389C13.0003 5.44389 13.4483 4.99389 14.0003 4.99389C14.8713 4.99389 16.1293 4.99389 17.0003 4.99389C17.5523 4.99389 18.0003 5.44389 18.0003 5.99389C18.0003 8.86388 18.0003 17.1239 18.0003 19.9939C18.0003 20.5439 17.5523 20.9939 17.0003 20.9939C16.1293 20.9939 14.8713 20.9939 14.0003 20.9939ZM16.0003 18.9939V6.99389H15.0003V18.9939H16.0003Z" fill="black"/>
<path fill-rule="evenodd" clip-rule="evenodd" d="M10 6H7V14H10V6ZM17 6H14V20H17V6Z" fill="black" fill-opacity="0.1"/>
</svg>
