<svg width="24" height="24" viewBox="0 0 24 24" fill="none" xmlns="http://www.w3.org/2000/svg">
<path fill-rule="evenodd" clip-rule="evenodd" d="M4 5C4.55225 5 5 4.55225 5 4C5 3.44775 4.55225 3 4 3C3.44775 3 3 3.44775 3 4C3 4.55225 3.44775 5 4 5ZM3 12C3 12.5522 3.44775 13 4 13H8H11V16V20C11 20.5522 11.4478 21 12 21C12.5522 21 13 20.5522 13 20V16V13H16H20C20.5522 13 21 12.5522 21 12C21 11.4478 20.5522 11 20 11H16H13V8V4C13 3.44775 12.5522 3 12 3C11.4478 3 11 3.44775 11 4V8V11H8H4C3.44775 11 3 11.4478 3 12ZM5 8C5 8.55225 4.55225 9 4 9C3.44775 9 3 8.55225 3 8C3 7.44775 3.44775 7 4 7C4.55225 7 5 7.44775 5 8ZM8 5C8.55225 5 9 4.55225 9 4C9 3.44775 8.55225 3 8 3C7.44775 3 7 3.44775 7 4C7 4.55225 7.44775 5 8 5ZM17 4C17 4.55225 16.5522 5 16 5C15.4478 5 15 4.55225 15 4C15 3.44775 15.4478 3 16 3C16.5522 3 17 3.44775 17 4ZM20 5C20.5522 5 21 4.55225 21 4C21 3.44775 20.5522 3 20 3C19.4478 3 19 3.44775 19 4C19 4.55225 19.4478 5 20 5ZM21 8C21 8.55225 20.5522 9 20 9C19.4478 9 19 8.55225 19 8C19 7.44775 19.4478 7 20 7C20.5522 7 21 7.44775 21 8ZM20 17C20.5522 17 21 16.5522 21 16C21 15.4478 20.5522 15 20 15C19.4478 15 19 15.4478 19 16C19 16.5522 19.4478 17 20 17ZM21 20C21 20.5522 20.5522 21 20 21C19.4478 21 19 20.5522 19 20C19 19.4478 19.4478 19 20 19C20.5522 19 21 19.4478 21 20ZM16 21C16.5522 21 17 20.5522 17 20C17 19.4478 16.5522 19 16 19C15.4478 19 15 19.4478 15 20C15 20.5522 15.4478 21 16 21ZM5 16C5 16.5522 4.55225 17 4 17C3.44775 17 3 16.5522 3 16C3 15.4478 3.44775 15 4 15C4.55225 15 5 15.4478 5 16ZM4 21C4.55225 21 5 20.5522 5 20C5 19.4478 4.55225 19 4 19C3.44775 19 3 19.4478 3 20C3 20.5522 3.44775 21 4 21ZM9 20C9 20.5522 8.55225 21 8 21C7.44775 21 7 20.5522 7 20C7 19.4478 7.44775 19 8 19C8.55225 19 9 19.4478 9 20Z" fill="black"/>
</svg>
