<svg width="24" height="24" viewBox="0 0 24 24" fill="none" xmlns="http://www.w3.org/2000/svg">
<path fill-rule="evenodd" clip-rule="evenodd" d="M13.7071 7.29289C14.0977 7.68342 14.0977 8.31658 13.7071 8.70711L6.85227 15.562L5.79508 18.2049L8.43806 17.1478L15.2929 10.2929C15.6834 9.90237 16.3166 9.90237 16.7071 10.2929C17.0977 10.6834 17.0977 11.3166 16.7071 11.7071L9.70714 18.7071C9.61137 18.8029 9.49716 18.8782 9.37142 18.9285L4.37142 20.9285C4 21.077 3.57578 20.99 3.29292 20.7071C3.01006 20.4242 2.92299 20 3.07155 19.6286L5.07155 14.6286C5.12185 14.5029 5.19716 14.3887 5.29292 14.2929L12.2929 7.29289C12.6834 6.90237 13.3166 6.90237 13.7071 7.29289Z" fill="black"/>
<path fill-rule="evenodd" clip-rule="evenodd" d="M19.7071 4.12126C19.3166 3.73074 18.6834 3.73074 18.2929 4.12126L16.7071 5.70705C16.3166 6.09757 15.6834 6.09757 15.2929 5.70705L15 5.41416L13.4142 6.99994L17 10.5857L18.5858 8.99994L18.2929 8.70705C17.9023 8.31652 17.9023 7.68336 18.2929 7.29284L19.8787 5.70705C20.2692 5.31652 20.2692 4.68336 19.8786 4.29283L19.7071 4.12126ZM16.8786 2.70705C18.0502 1.53548 19.9497 1.53547 21.1213 2.70705L21.2929 2.87862C22.4644 4.05019 22.4644 5.94969 21.2929 7.12126L20.3526 8.06157C20.7544 8.81759 20.6369 9.77723 20 10.4142L18.4142 11.9999C17.6331 12.781 16.3668 12.781 15.5858 11.9999L12 8.41416C11.2189 7.63311 11.2189 6.36678 12 5.58573L13.5858 3.99994C14.2227 3.36302 15.1823 3.24549 15.9383 3.64736L16.8786 2.70705Z" fill="black"/>
<path d="M12.5 7L17 11.5L19.5 9L19 8L21.5 5L19 2.5L16 5L15 4.5L12.5 7Z" fill="black" fill-opacity="0.1"/>
</svg>
