<svg width="24" height="24" viewBox="0 0 24 24" fill="none" xmlns="http://www.w3.org/2000/svg">
<path fill-rule="evenodd" clip-rule="evenodd" d="M21.9958 20.9983C21.9958 21.2633 21.8858 21.5182 21.7058 21.7052C21.5158 21.8932 21.2558 21.9983 20.9958 21.9983C19.2658 21.9983 15.7258 21.9983 13.9958 21.9983C13.4458 21.9983 12.9958 21.5503 12.9958 20.9983C12.9958 20.4943 12.9958 19.9063 12.9958 19.4983C12.9958 19.2223 13.2158 18.9983 13.4958 18.9983C13.7758 18.9983 13.9958 19.2223 13.9958 19.4983C13.9958 20.0903 13.9958 20.9983 13.9958 20.9983H20.9958V13.9983C20.9958 13.9983 20.0858 13.9983 19.4958 13.9983C19.2158 13.9983 18.9958 13.7743 18.9958 13.4983C18.9958 13.3653 19.0457 13.2383 19.1457 13.1443C19.2357 13.0513 19.3658 12.9983 19.4958 12.9983C19.9058 12.9983 20.4958 12.9983 20.9958 12.9983C21.5458 12.9983 21.9958 13.4463 21.9958 13.9983C21.9958 15.7303 21.9958 19.2663 21.9958 20.9983ZM17.9958 16.9983C17.9958 17.2633 17.8858 17.5182 17.7058 17.7052C17.5158 17.8932 17.2558 17.9983 16.9958 17.9983C14.7358 17.9983 9.25584 17.9983 6.99585 17.9983C6.73585 17.9983 6.47588 17.8932 6.28588 17.7052C6.10589 17.5182 5.99585 17.2633 5.99585 16.9983C5.99585 14.7383 5.99585 9.25828 5.99585 6.99828C5.99585 6.73328 6.10589 6.47831 6.28588 6.29131C6.47588 6.10331 6.73585 5.99828 6.99585 5.99828C9.25584 5.99828 14.7358 5.99828 16.9958 5.99828C17.2558 5.99828 17.5158 6.10331 17.7058 6.29131C17.8858 6.47831 17.9958 6.73328 17.9958 6.99828C17.9958 9.25828 17.9958 14.7383 17.9958 16.9983ZM15.9958 15.9983V7.99828H7.99584V15.9983H15.9958ZM8.99584 11.4983C8.99584 11.3653 9.04575 11.2383 9.14575 11.1443C9.23575 11.0513 9.36584 10.9983 9.49584 10.9983C10.6258 10.9983 13.3658 10.9983 14.4958 10.9983C14.6258 10.9983 14.7559 11.0513 14.8459 11.1443C14.9459 11.2383 14.9958 11.3653 14.9958 11.4983C14.9958 11.6313 14.9459 11.7583 14.8459 11.8523C14.7559 11.9453 14.6258 11.9983 14.4958 11.9983C13.3658 11.9983 10.6258 11.9983 9.49584 11.9983C9.36584 11.9983 9.23575 11.9453 9.14575 11.8523C9.04575 11.7583 8.99584 11.6313 8.99584 11.4983ZM10.9958 4.49829C10.9958 4.77429 10.7758 4.99828 10.4958 4.99828C10.2158 4.99828 9.99584 4.77429 9.99584 4.49829C9.99584 3.90629 9.99584 2.99829 9.99584 2.99829H2.99585V9.99827C2.99585 9.99827 3.90585 9.99827 4.49585 9.99827C4.77585 9.99827 4.99585 10.2223 4.99585 10.4983C4.99585 10.6313 4.94594 10.7583 4.84594 10.8523C4.75594 10.9453 4.62585 10.9983 4.49585 10.9983C4.08585 10.9983 3.49585 10.9983 2.99585 10.9983C2.44585 10.9983 1.99585 10.5503 1.99585 9.99827C1.99585 8.26628 1.99585 4.73029 1.99585 2.99829C1.99585 2.73329 2.10589 2.47832 2.28589 2.29132C2.47589 2.10332 2.73585 1.99829 2.99585 1.99829C4.72585 1.99829 8.26584 1.99829 9.99584 1.99829C10.5458 1.99829 10.9958 2.44629 10.9958 2.99829C10.9958 3.50229 10.9958 4.09029 10.9958 4.49829ZM8.99584 9.49828C8.99584 9.36528 9.04575 9.23827 9.14575 9.14427C9.23575 9.05127 9.36584 8.99828 9.49584 8.99828C10.6258 8.99828 13.3658 8.99828 14.4958 8.99828C14.6258 8.99828 14.7559 9.05127 14.8459 9.14427C14.9459 9.23827 14.9958 9.36528 14.9958 9.49828C14.9958 9.63128 14.9459 9.75828 14.8459 9.85228C14.7559 9.94528 14.6258 9.99827 14.4958 9.99827C13.3658 9.99827 10.6258 9.99827 9.49584 9.99827C9.36584 9.99827 9.23575 9.94528 9.14575 9.85228C9.04575 9.75828 8.99584 9.63128 8.99584 9.49828Z" fill="black"/>
<rect x="7" y="7" width="10" height="10" fill="black" fill-opacity="0.1"/>
</svg>
