<svg width="24" height="24" viewBox="0 0 24 24" fill="none" xmlns="http://www.w3.org/2000/svg">
<path fill-rule="evenodd" clip-rule="evenodd" d="M6.99754 17.9983C6.99754 17.4463 7.44754 16.9983 7.99754 16.9983C10.4175 16.9983 16.5775 16.9983 18.9975 16.9983C19.5475 16.9983 19.9975 17.4463 19.9975 17.9983C19.9975 18.5503 19.5475 18.9983 18.9975 18.9983C16.5775 18.9983 10.4175 18.9983 7.99754 18.9983C7.44754 18.9983 6.99754 18.5503 6.99754 17.9983ZM8.7075 11.2913C8.8875 11.4783 8.99754 11.7333 8.99754 11.9983C8.99754 12.2633 8.8875 12.5182 8.7075 12.7052C7.8775 13.5292 6.5275 14.8812 5.7075 15.7052C5.5175 15.8932 5.25754 15.9983 4.99754 15.9983C4.73754 15.9983 4.47758 15.8932 4.28758 15.7052C3.89758 15.3152 3.89758 14.6813 4.28758 14.2913C5.17758 13.4043 6.58763 11.9983 6.58763 11.9983C6.58763 11.9983 5.17758 10.5922 4.28758 9.70525C3.89758 9.31525 3.89758 8.68131 4.28758 8.29131C4.47758 8.10331 4.73754 7.99828 4.99754 7.99828C5.25754 7.99828 5.5175 8.10331 5.7075 8.29131C6.5275 9.11531 7.8775 10.4673 8.7075 11.2913ZM10.9975 13.9983C10.9975 13.7333 11.1076 13.4783 11.2876 13.2913C11.4776 13.1033 11.7375 12.9983 11.9975 12.9983C13.7275 12.9983 17.2675 12.9983 18.9975 12.9983C19.5475 12.9983 19.9975 13.4463 19.9975 13.9983C19.9975 14.2633 19.8875 14.5182 19.7075 14.7052C19.5175 14.8932 19.2575 14.9983 18.9975 14.9983C17.2675 14.9983 13.7275 14.9983 11.9975 14.9983C11.4475 14.9983 10.9975 14.5503 10.9975 13.9983ZM10.9975 9.99828C10.9975 9.73328 11.1076 9.47831 11.2876 9.29131C11.4776 9.10331 11.7375 8.99828 11.9975 8.99828C13.7275 8.99828 17.2675 8.99828 18.9975 8.99828C19.5475 8.99828 19.9975 9.44628 19.9975 9.99828C19.9975 10.2633 19.8875 10.5183 19.7075 10.7052C19.5175 10.8932 19.2575 10.9983 18.9975 10.9983C17.2675 10.9983 13.7275 10.9983 11.9975 10.9983C11.4475 10.9983 10.9975 10.5503 10.9975 9.99828ZM6.99754 5.99829C6.99754 5.44629 7.44754 4.99829 7.99754 4.99829C10.4175 4.99829 16.5775 4.99829 18.9975 4.99829C19.5475 4.99829 19.9975 5.44629 19.9975 5.99829C19.9975 6.55029 19.5475 6.99829 18.9975 6.99829C16.5775 6.99829 10.4175 6.99829 7.99754 6.99829C7.44754 6.99829 6.99754 6.55029 6.99754 5.99829Z" fill="black"/>
</svg>
