<svg width="24" height="24" viewBox="0 0 24 24" fill="none" xmlns="http://www.w3.org/2000/svg">
<path fill-rule="evenodd" clip-rule="evenodd" d="M18.4969 7.99829C19.4269 7.99829 20.3169 8.36731 20.9769 9.02331C21.6268 9.68031 21.9969 10.5703 21.9969 11.4983C21.9969 12.4263 21.6268 13.3173 20.9769 13.9733C20.3169 14.6293 19.4269 14.9983 18.4969 14.9983C16.9469 14.9983 15.2969 14.9983 14.4969 14.9983C14.2169 14.9983 13.9969 14.7743 13.9969 14.4983C13.9969 14.2223 14.2169 13.9983 14.4969 13.9983C15.3269 13.9983 17.0369 13.9983 18.4969 13.9983C19.1569 13.9983 19.7969 13.7353 20.2669 13.2663C20.7369 12.7973 20.9969 12.1613 20.9969 11.4983C20.9969 10.8353 20.7369 10.1993 20.2669 9.73028C19.7969 9.26128 19.1569 8.99829 18.4969 8.99829C17.0369 8.99829 15.3269 8.99829 14.4969 8.99829C14.2169 8.99829 13.9969 8.77429 13.9969 8.49829C13.9969 8.22229 14.2169 7.99829 14.4969 7.99829C15.2969 7.99829 16.9469 7.99829 18.4969 7.99829ZM9.99688 8.49829C9.99688 8.77429 9.77688 8.99829 9.49688 8.99829C8.66688 8.99829 6.95688 8.99829 5.49688 8.99829C4.83688 8.99829 4.19687 9.26128 3.72687 9.73028C3.25687 10.1993 2.99689 10.8353 2.99689 11.4983C2.99689 12.1613 3.25687 12.7973 3.72687 13.2663C4.19687 13.7353 4.83688 13.9983 5.49688 13.9983C6.95688 13.9983 8.66688 13.9983 9.49688 13.9983C9.77688 13.9983 9.99688 14.2223 9.99688 14.4983C9.99688 14.7743 9.77688 14.9983 9.49688 14.9983C8.69688 14.9983 7.04688 14.9983 5.49688 14.9983C4.56688 14.9983 3.67691 14.6293 3.02692 13.9733C2.36692 13.3163 1.99689 12.4263 1.99689 11.4983C1.99689 10.5703 2.36692 9.67931 3.02692 9.02331C3.67691 8.36731 4.56688 7.99829 5.49688 7.99829C7.04688 7.99829 8.69688 7.99829 9.49688 7.99829C9.77688 7.99829 9.99688 8.22229 9.99688 8.49829ZM15.4969 10.9983C15.7769 10.9983 15.9969 11.2223 15.9969 11.4983C15.9969 11.7743 15.7769 11.9983 15.4969 11.9983C14.0569 11.9983 9.93688 11.9983 8.49688 11.9983C8.21688 11.9983 7.99688 11.7743 7.99688 11.4983C7.99688 11.2223 8.21688 10.9983 8.49688 10.9983C9.93688 10.9983 14.0569 10.9983 15.4969 10.9983Z" fill="#333333"/>
</svg>
