<svg width="24" height="24" viewBox="0 0 24 24" fill="none" xmlns="http://www.w3.org/2000/svg">
<path fill-rule="evenodd" clip-rule="evenodd" d="M21.9978 20.9986C21.9978 21.2636 21.8877 21.5186 21.7077 21.7056C21.5177 21.8936 21.2578 21.9986 20.9978 21.9986C19.2678 21.9986 15.7278 21.9986 13.9978 21.9986C13.7378 21.9986 13.4778 21.8936 13.2878 21.7056C13.1078 21.5186 12.9978 21.2636 12.9978 20.9986C12.9978 19.2666 12.9978 15.7306 12.9978 13.9986C12.9978 13.7336 13.1078 13.4787 13.2878 13.2917C13.4778 13.1037 13.7378 12.9986 13.9978 12.9986C15.7278 12.9986 19.2678 12.9986 20.9978 12.9986C21.2578 12.9986 21.5177 13.1037 21.7077 13.2917C21.8877 13.4787 21.9978 13.7336 21.9978 13.9986C21.9978 15.7306 21.9978 19.2666 21.9978 20.9986ZM20.9978 20.9986V13.9986H13.9978V20.9986H20.9978ZM6.9978 16.9986C6.9978 16.9986 10.2278 16.9986 11.4978 16.9986C11.6278 16.9986 11.7579 17.0516 11.8479 17.1446C11.9479 17.2386 11.9978 17.3656 11.9978 17.4986C11.9978 17.6316 11.9479 17.7586 11.8479 17.8526C11.7579 17.9456 11.6278 17.9986 11.4978 17.9986C10.5078 17.9986 8.2978 17.9986 6.9978 17.9986C6.7378 17.9986 6.47784 17.8936 6.28784 17.7056C6.10784 17.5186 5.9978 17.2636 5.9978 16.9986C5.9978 15.7006 5.9978 13.4856 5.9978 12.4986C5.9978 12.3656 6.0477 12.2386 6.1477 12.1446C6.2377 12.0516 6.3678 11.9986 6.4978 11.9986C6.6278 11.9986 6.7579 12.0516 6.8479 12.1446C6.9479 12.2386 6.9978 12.3656 6.9978 12.4986C6.9978 13.7646 6.9978 16.9986 6.9978 16.9986ZM11.9978 11.4986C11.9978 11.3656 12.0477 11.2386 12.1477 11.1446C12.2377 11.0516 12.3678 10.9986 12.4978 10.9986C13.0478 10.9986 13.9478 10.9986 14.4978 10.9986C14.6278 10.9986 14.7579 11.0516 14.8479 11.1446C14.9479 11.2386 14.9978 11.3656 14.9978 11.4986C14.9978 11.6316 14.9479 11.7586 14.8479 11.8526C14.7579 11.9456 14.6278 11.9986 14.4978 11.9986C13.9478 11.9986 13.0478 11.9986 12.4978 11.9986C12.3678 11.9986 12.2377 11.9456 12.1477 11.8526C12.0477 11.7586 11.9978 11.6316 11.9978 11.4986ZM17.9978 11.4986C17.9978 11.6316 17.9479 11.7586 17.8479 11.8526C17.7579 11.9456 17.6278 11.9986 17.4978 11.9986C17.3678 11.9986 17.2377 11.9456 17.1477 11.8526C17.0477 11.7586 16.9978 11.6316 16.9978 11.4986C16.9978 10.2326 16.9978 6.99865 16.9978 6.99865C16.9978 6.99865 13.7678 6.99865 12.4978 6.99865C12.3678 6.99865 12.2377 6.94565 12.1477 6.85265C12.0477 6.75865 11.9978 6.63165 11.9978 6.49865C11.9978 6.36565 12.0477 6.23864 12.1477 6.14464C12.2377 6.05165 12.3678 5.99865 12.4978 5.99865C13.4878 5.99865 15.6978 5.99865 16.9978 5.99865C17.2578 5.99865 17.5178 6.10368 17.7077 6.29168C17.8877 6.47868 17.9978 6.73365 17.9978 6.99865C17.9978 8.29664 17.9978 10.5116 17.9978 11.4986ZM10.9978 9.99864C10.9978 10.2636 10.8878 10.5186 10.7078 10.7056C10.5178 10.8936 10.2578 10.9986 9.9978 10.9986C8.2678 10.9986 4.7278 10.9986 2.9978 10.9986C2.7378 10.9986 2.47784 10.8936 2.28784 10.7056C2.10784 10.5186 1.9978 10.2636 1.9978 9.99864C1.9978 8.26664 1.9978 4.73065 1.9978 2.99866C1.9978 2.73366 2.10784 2.47869 2.28784 2.29169C2.47784 2.10369 2.7378 1.99866 2.9978 1.99866C4.7278 1.99866 8.2678 1.99866 9.9978 1.99866C10.2578 1.99866 10.5178 2.10369 10.7078 2.29169C10.8878 2.47869 10.9978 2.73366 10.9978 2.99866C10.9978 4.73065 10.9978 8.26664 10.9978 9.99864ZM11.9978 9.49864C11.9978 9.36564 12.0477 9.23864 12.1477 9.14464C12.2377 9.05164 12.3678 8.99864 12.4978 8.99864C13.0478 8.99864 13.9478 8.99864 14.4978 8.99864C14.6278 8.99864 14.7579 9.05164 14.8479 9.14464C14.9479 9.23864 14.9978 9.36564 14.9978 9.49864C14.9978 9.63164 14.9479 9.75865 14.8479 9.85265C14.7579 9.94564 14.6278 9.99864 14.4978 9.99864C13.9478 9.99864 13.0478 9.99864 12.4978 9.99864C12.3678 9.99864 12.2377 9.94564 12.1477 9.85265C12.0477 9.75865 11.9978 9.63164 11.9978 9.49864ZM9.9978 9.99864V2.99866H2.9978V9.99864H9.9978Z" fill="black"/>
<path d="M10.5 10.5V7H17V13.5H13.5V17H7V10.5H10.5Z" fill="black" fill-opacity="0.1"/>
</svg>
