<svg width="24" height="24" viewBox="0 0 24 24" fill="none" xmlns="http://www.w3.org/2000/svg">
<path fill-rule="evenodd" clip-rule="evenodd" d="M20.0001 18.9986C20.0001 19.2636 19.8901 19.5186 19.7101 19.7056C19.5201 19.8936 19.2601 19.9986 19.0001 19.9986C16.7401 19.9986 11.2601 19.9986 9.00012 19.9986C8.74012 19.9986 8.48016 19.8936 8.29016 19.7056C8.11016 19.5186 8.00012 19.2636 8.00012 18.9986C8.00012 16.7386 8.00012 11.2586 8.00012 8.99865C8.00012 8.73365 8.11016 8.47868 8.29016 8.29168C8.48016 8.10368 8.74012 7.99865 9.00012 7.99865C11.2601 7.99865 16.7401 7.99865 19.0001 7.99865C19.2601 7.99865 19.5201 8.10368 19.7101 8.29168C19.8901 8.47868 20.0001 8.73365 20.0001 8.99865C20.0001 11.2586 20.0001 16.7386 20.0001 18.9986ZM9.00012 8.99865V18.9986H19.0001V8.99865H9.00012ZM11.0001 13.4986C11.0001 13.3656 11.05 13.2386 11.15 13.1446C11.24 13.0516 11.3701 12.9986 11.5001 12.9986C12.6301 12.9986 15.3701 12.9986 16.5001 12.9986C16.6301 12.9986 16.7602 13.0516 16.8502 13.1446C16.9502 13.2386 17.0001 13.3656 17.0001 13.4986C17.0001 13.6316 16.9502 13.7586 16.8502 13.8526C16.7602 13.9456 16.6301 13.9986 16.5001 13.9986C15.3701 13.9986 12.6301 13.9986 11.5001 13.9986C11.3701 13.9986 11.24 13.9456 11.15 13.8526C11.05 13.7586 11.0001 13.6316 11.0001 13.4986ZM13.0001 6.49865C13.0001 6.77465 12.7801 6.99865 12.5001 6.99865C12.2201 6.99865 12.0001 6.77465 12.0001 6.49865C12.0001 5.90665 12.0001 4.99866 12.0001 4.99866H5.00012V11.9986C5.00012 11.9986 5.91012 11.9986 6.50012 11.9986C6.78012 11.9986 7.00012 12.2226 7.00012 12.4986C7.00012 12.6316 6.95022 12.7586 6.85022 12.8526C6.76022 12.9456 6.63012 12.9986 6.50012 12.9986C6.09012 12.9986 5.50012 12.9986 5.00012 12.9986C4.45012 12.9986 4.00012 12.5506 4.00012 11.9986C4.00012 10.2666 4.00012 6.73065 4.00012 4.99866C4.00012 4.73366 4.11016 4.47869 4.29016 4.29169C4.48016 4.10369 4.74012 3.99866 5.00012 3.99866C6.73012 3.99866 10.2701 3.99866 12.0001 3.99866C12.5501 3.99866 13.0001 4.44666 13.0001 4.99866C13.0001 5.50265 13.0001 6.09065 13.0001 6.49865ZM11.0001 11.4986C11.0001 11.3656 11.05 11.2386 11.15 11.1446C11.24 11.0516 11.3701 10.9986 11.5001 10.9986C12.6301 10.9986 15.3701 10.9986 16.5001 10.9986C16.6301 10.9986 16.7602 11.0516 16.8502 11.1446C16.9502 11.2386 17.0001 11.3656 17.0001 11.4986C17.0001 11.6316 16.9502 11.7586 16.8502 11.8526C16.7602 11.9456 16.6301 11.9986 16.5001 11.9986C15.3701 11.9986 12.6301 11.9986 11.5001 11.9986C11.3701 11.9986 11.24 11.9456 11.15 11.8526C11.05 11.7586 11.0001 11.6316 11.0001 11.4986Z" fill="black"/>
<rect x="9" y="9" width="10" height="10" fill="black" fill-opacity="0.1"/>
</svg>
