<svg width="24" height="24" viewBox="0 0 24 24" fill="none" xmlns="http://www.w3.org/2000/svg">
<path fill-rule="evenodd" clip-rule="evenodd" d="M17.9497 7.05025C15.2161 4.31658 10.7839 4.31658 8.05025 7.05025C7.19784 7.90267 6.61122 8.92023 6.29041 9.99995H14.5C14.7761 9.99995 15 10.2238 15 10.4999C15 10.7761 14.7761 10.9999 14.5 10.9999H6.07138C5.97621 11.6629 5.97621 12.3369 6.07136 12.9999H14.5C14.7761 12.9999 15 13.2237 15 13.4999C15 13.776 14.7761 13.9999 14.5 13.9999H6.29036C6.61116 15.0797 7.19779 16.0973 8.05025 16.9497C10.7839 19.6834 15.2161 19.6834 17.9497 16.9497C18.145 16.7545 18.4616 16.7545 18.6569 16.9497C18.8521 17.145 18.8521 17.4616 18.6569 17.6569C15.5327 20.781 10.4673 20.781 7.34315 17.6569C6.29404 16.6077 5.59723 15.3398 5.2527 13.9999H3.5C3.22386 13.9999 3 13.776 3 13.4999C3 13.2237 3.22386 12.9999 3.5 12.9999H5.06236C4.97921 12.336 4.97921 11.6638 5.06238 10.9999H3.5C3.22386 10.9999 3 10.7761 3 10.4999C3 10.2238 3.22386 9.99995 3.5 9.99995H5.25274C5.59728 8.66014 6.29408 7.39221 7.34315 6.34315C10.4673 3.21895 15.5327 3.21895 18.6569 6.34315C18.8521 6.53841 18.8521 6.85499 18.6569 7.05025C18.4616 7.24551 18.145 7.24551 17.9497 7.05025Z" fill="black"/>
</svg>
