<svg width="24" height="24" viewBox="0 0 24 24" fill="none" xmlns="http://www.w3.org/2000/svg">
<path fill-rule="evenodd" clip-rule="evenodd" d="M17.2426 7.75736C14.8995 5.41421 11.1005 5.41421 8.75736 7.75736C8.37732 8.1374 8.05892 8.55573 7.80216 8.99994H14C14.5523 8.99994 15 9.44765 15 9.99994C15 10.5522 14.5523 10.9999 14 10.9999H7.08345C6.97219 11.6616 6.97218 12.3383 7.08343 12.9999H14C14.5523 12.9999 15 13.4477 15 13.9999C15 14.5522 14.5523 14.9999 14 14.9999H7.80209C8.05887 15.4442 8.37729 15.8626 8.75736 16.2426C11.1005 18.5858 14.8995 18.5858 17.2426 16.2426C17.6332 15.8521 18.2663 15.8521 18.6569 16.2426C19.0474 16.6332 19.0474 17.2663 18.6569 17.6569C15.5327 20.781 10.4673 20.781 7.34315 17.6569C6.55927 16.873 5.97207 15.9669 5.58155 14.9999H4C3.44772 14.9999 3 14.5522 3 13.9999C3 13.4477 3.44772 12.9999 4 12.9999H5.06236C4.97921 12.3361 4.97921 11.6638 5.06238 10.9999H4C3.44772 10.9999 3 10.5522 3 9.99994C3 9.44765 3.44772 8.99994 4 8.99994H5.5816C5.97212 8.03303 6.5593 7.12699 7.34315 6.34315C10.4673 3.21895 15.5327 3.21895 18.6569 6.34315C19.0474 6.73367 19.0474 7.36683 18.6569 7.75736C18.2663 8.14788 17.6332 8.14788 17.2426 7.75736Z" fill="black"/>
</svg>
