<svg width="24" height="24" viewBox="0 0 24 24" fill="none" xmlns="http://www.w3.org/2000/svg">
<path d="M2.5 17C2.5 17.2761 2.72386 17.5 3 17.5H21C21.2761 17.5 21.5 17.2761 21.5 17V7C21.5 6.72386 21.2761 6.5 21 6.5H3C2.72386 6.5 2.5 6.72386 2.5 7V17Z" stroke="black" stroke-linejoin="round"/>
<circle cx="12" cy="12" r="2.5" stroke="black"/>
<path d="M5.5 7C5.5 8.38071 4.38071 9.5 3 9.5" stroke="black"/>
<path d="M3 14.5C4.38071 14.5 5.5 15.6193 5.5 17" stroke="black"/>
<path d="M18.5 17C18.5 15.6193 19.6193 14.5 21 14.5" stroke="black"/>
<path d="M21 9.5C19.6193 9.5 18.5 8.38071 18.5 7" stroke="black"/>
<rect x="3" y="7" width="18" height="10" fill="black" fill-opacity="0.1"/>
</svg>
