<svg width="24" height="24" viewBox="0 0 24 24" fill="none" xmlns="http://www.w3.org/2000/svg">
<rect width="9" height="15" fill="black" fill-opacity="0" transform="translate(7.99631 4.99866)"/>
<path fill-rule="evenodd" clip-rule="evenodd" d="M16.2933 8.99865C16.1323 8.99865 16.0003 8.86762 16.0003 8.70562V8.70464C16.0003 7.21065 14.7893 5.99866 13.2943 5.99866C12.8713 5.99866 12.4313 5.99866 12.0023 5.99866C10.3453 5.99866 9.00229 7.34165 9.00229 8.99865C9.00229 9.79465 9.31832 10.5576 9.88132 11.1196C10.4433 11.6826 11.2063 11.9986 12.0023 11.9986C12.3273 11.9986 12.6613 11.9986 12.9963 11.9986C15.2053 11.9986 16.9963 13.7896 16.9963 15.9986C16.9963 18.2076 15.2053 19.9986 12.9963 19.9986C12.5643 19.9986 12.1253 19.9986 11.6973 19.9986C10.7153 19.9986 9.77433 19.6086 9.08133 18.9146C8.38733 18.2206 7.9983 17.2796 7.9993 16.2976C7.9993 16.1326 8.13331 15.9986 8.29831 15.9986C8.42631 15.9986 8.5743 15.9986 8.7023 15.9986C8.8633 15.9986 8.99533 16.1297 8.99533 16.2917V16.2926C8.99533 17.7866 10.2063 18.9986 11.7013 18.9986C12.1263 18.9986 12.5693 18.9986 13.0003 18.9986C14.6573 18.9986 16.0003 17.6556 16.0003 15.9986C16.0003 15.2026 15.6843 14.4397 15.1223 13.8777C14.5593 13.3147 13.7963 12.9986 13.0003 12.9986C12.6723 12.9986 12.3343 12.9986 11.9963 12.9986C10.9353 12.9986 9.9183 12.5776 9.1683 11.8266C8.4173 11.0766 7.99631 10.0596 7.99631 8.99865C7.99631 6.78965 9.78731 4.99866 11.9963 4.99866C12.4243 4.99866 12.8583 4.99866 13.2823 4.99866C14.2673 4.99866 15.2123 5.38967 15.9083 6.08667C16.6053 6.78267 16.9963 7.72764 16.9963 8.71264C16.9963 8.71364 16.9963 8.71365 16.9963 8.71465C16.9963 8.87165 16.8693 8.99865 16.7123 8.99865C16.5813 8.99865 16.4263 8.99865 16.2933 8.99865Z" fill="#333333"/>
<rect width="2.00299" height="2.43201" fill="black" fill-opacity="0" transform="translate(11.9996 1.99915) scale(0.499268 8.22273)"/>
<path fill-rule="evenodd" clip-rule="evenodd" d="M12.9997 2.50102C12.9997 2.22145 12.7755 1.99915 12.4994 1.99915C12.2238 1.99915 11.9996 2.22145 11.9996 2.50102V21.4955C11.9996 21.7751 12.2238 21.9969 12.4994 21.9969C12.7755 21.9969 12.9997 21.7751 12.9997 21.4955V2.50102Z" fill="#333333"/>
</svg>
