<svg width="24" height="24" viewBox="0 0 24 24" fill="none" xmlns="http://www.w3.org/2000/svg">
<path fill-rule="evenodd" clip-rule="evenodd" d="M18.9992 11.5018C18.9992 11.3688 18.9493 11.2418 18.8493 11.1478C18.7593 11.0548 18.6292 11.0018 18.4992 11.0018C18.3692 11.0018 18.2391 11.0548 18.1491 11.1478C18.0491 11.2418 17.9992 11.3688 17.9992 11.5018C17.9992 12.4228 17.9992 14.2948 17.9992 14.2948C17.9992 14.2948 14.2892 10.5888 12.7092 9.00185C12.5192 8.81385 12.2593 8.70882 11.9993 8.70882C11.7393 8.70882 11.4793 8.81385 11.2893 9.00185C10.4093 9.88884 8.99925 11.2948 8.99925 11.2948C8.99925 11.2948 6.32935 8.62584 5.34936 7.64784C5.15936 7.45284 4.83916 7.45284 4.64916 7.64784C4.64916 7.64884 4.64916 7.64882 4.64916 7.64882C4.44916 7.84382 4.44916 8.15981 4.64916 8.35481C5.41916 9.12681 7.2693 10.9798 8.28929 12.0018C8.47929 12.1888 8.73925 12.2948 8.99925 12.2948C9.25925 12.2948 9.51921 12.1888 9.70921 12.0018C10.5892 11.1148 11.9993 9.70881 11.9993 9.70881L17.2893 15.0018C17.2893 15.0018 15.4192 15.0018 14.4992 15.0018C14.3692 15.0018 14.2392 15.0548 14.1492 15.1478C14.0492 15.2418 13.9992 15.3688 13.9992 15.5018C13.9992 15.6348 14.0492 15.7618 14.1492 15.8548C14.2392 15.9488 14.3692 16.0018 14.4992 16.0018C15.3092 16.0018 16.9392 16.0018 17.9992 16.0018C18.2592 16.0018 18.5192 15.8968 18.7092 15.7088C18.8892 15.5208 18.9992 15.2668 18.9992 15.0018C18.9992 13.9438 18.9992 12.3158 18.9992 11.5018Z" fill="black"/>
</svg>
