<svg width="24" height="24" viewBox="0 0 24 24" fill="none" xmlns="http://www.w3.org/2000/svg">
<path fill-rule="evenodd" clip-rule="evenodd" d="M18.9992 12.4986C18.9992 12.6316 18.9493 12.7587 18.8493 12.8527C18.7593 12.9457 18.6292 12.9986 18.4992 12.9986C18.3692 12.9986 18.2391 12.9457 18.1491 12.8527C18.0491 12.7587 17.9992 12.6316 17.9992 12.4986C17.9992 11.5776 17.9992 9.70562 17.9992 9.70562C17.9992 9.70562 14.2891 13.4116 12.7091 14.9986C12.5191 15.1866 12.2592 15.2917 11.9992 15.2917C11.7392 15.2917 11.4792 15.1866 11.2892 14.9986C10.4092 14.1116 8.99919 12.7056 8.99919 12.7056C8.99919 12.7056 6.31928 15.3916 5.33928 16.3616C5.24928 16.4526 5.12919 16.5036 4.99919 16.5036C4.86919 16.5036 4.7491 16.4526 4.6591 16.3616C4.4491 16.1616 4.4491 15.8366 4.6591 15.6366C5.4291 14.8586 7.27923 13.0166 8.28923 11.9986C8.47923 11.8106 8.73919 11.7056 8.99919 11.7056C9.25919 11.7056 9.51915 11.8106 9.70915 11.9986C10.5891 12.8856 11.9992 14.2917 11.9992 14.2917L17.2892 8.99866C17.2892 8.99866 15.4192 8.99866 14.4992 8.99866C14.3692 8.99866 14.2391 8.94566 14.1491 8.85266C14.0491 8.75866 13.9992 8.63166 13.9992 8.49866C13.9992 8.36566 14.0491 8.23865 14.1491 8.14465C14.2391 8.05165 14.3692 7.99866 14.4992 7.99866C15.3092 7.99866 16.9392 7.99866 17.9992 7.99866C18.2592 7.99866 18.5191 8.10369 18.7091 8.29169C18.8891 8.47869 18.9992 8.73366 18.9992 8.99866C18.9992 10.0567 18.9992 11.6846 18.9992 12.4986Z" fill="black"/>
</svg>
