<svg width="24" height="24" viewBox="0 0 24 24" fill="none" xmlns="http://www.w3.org/2000/svg">
<path fill-rule="evenodd" clip-rule="evenodd" d="M7.85355 3.14645C8.04882 3.34171 8.04882 3.65829 7.85355 3.85355L4.70711 7H19.5C19.7761 7 20 7.22386 20 7.5C20 7.77614 19.7761 8 19.5 8H4.70711L7.85355 11.1464C8.04882 11.3417 8.04882 11.6583 7.85355 11.8536C7.65829 12.0488 7.34171 12.0488 7.14645 11.8536L3.14645 7.85355C2.95118 7.65829 2.95118 7.34171 3.14645 7.14645L7.14645 3.14645C7.34171 2.95118 7.65829 2.95118 7.85355 3.14645ZM16.1464 12.1464C16.3417 11.9512 16.6583 11.9512 16.8536 12.1464L20.8536 16.1464C21.0488 16.3417 21.0488 16.6583 20.8536 16.8536L16.8536 20.8536C16.6583 21.0488 16.3417 21.0488 16.1464 20.8536C15.9512 20.6583 15.9512 20.3417 16.1464 20.1464L19.2929 17H4.5C4.22386 17 4 16.7761 4 16.5C4 16.2239 4.22386 16 4.5 16H19.2929L16.1464 12.8536C15.9512 12.6583 15.9512 12.3417 16.1464 12.1464Z" fill="black"/>
</svg>
