<svg width="24" height="24" viewBox="0 0 24 24" fill="none" xmlns="http://www.w3.org/2000/svg">
<path fill-rule="evenodd" clip-rule="evenodd" d="M6.0003 15.9989C6.5523 15.9989 7.0003 16.4489 7.0003 16.9989C7.0003 17.6089 7.0003 18.3889 7.0003 18.9989C7.0003 19.5489 6.5523 19.9989 6.0003 19.9989C5.4483 19.9989 5.0003 19.5489 5.0003 18.9989C5.0003 18.3889 5.0003 17.6089 5.0003 16.9989C5.0003 16.4489 5.4483 15.9989 6.0003 15.9989ZM10.0003 11.9989C10.5523 11.9989 11.0003 12.4489 11.0003 12.9989C11.0003 14.5389 11.0003 17.4589 11.0003 18.9989C11.0003 19.5489 10.5523 19.9989 10.0003 19.9989C9.44829 19.9989 9.0003 19.5489 9.0003 18.9989C9.0003 17.4589 9.0003 14.5389 9.0003 12.9989C9.0003 12.4489 9.44829 11.9989 10.0003 11.9989ZM14.0003 7.99889C14.2653 7.99889 14.5203 8.10893 14.7073 8.28893C14.8953 8.47893 15.0003 8.73889 15.0003 8.99889C15.0003 11.2589 15.0003 16.7389 15.0003 18.9989C15.0003 19.2689 14.8953 19.5188 14.7073 19.7088C14.5203 19.8888 14.2653 19.9989 14.0003 19.9989C13.7353 19.9989 13.4803 19.8888 13.2933 19.7088C13.1053 19.5188 13.0003 19.2689 13.0003 18.9989C13.0003 16.7389 13.0003 11.2589 13.0003 8.99889C13.0003 8.73889 13.1053 8.47893 13.2933 8.28893C13.4803 8.10893 13.7353 7.99889 14.0003 7.99889ZM18.0003 3.9989C18.5523 3.9989 19.0003 4.4489 19.0003 4.9989C19.0003 7.86889 19.0003 16.1289 19.0003 18.9989C19.0003 19.2689 18.8953 19.5188 18.7073 19.7088C18.5203 19.8888 18.2653 19.9989 18.0003 19.9989C17.4483 19.9989 17.0003 19.5489 17.0003 18.9989C17.0003 16.1289 17.0003 7.86889 17.0003 4.9989C17.0003 4.7389 17.1053 4.47894 17.2933 4.28894C17.4803 4.10894 17.7353 3.9989 18.0003 3.9989Z" fill="black"/>
</svg>
