<svg width="24" height="24" viewBox="0 0 24 24" fill="none" xmlns="http://www.w3.org/2000/svg">
<path d="M4.5 11C4.22386 11 4 11.2239 4 11.5C4 11.7761 4.22386 12 4.5 12V11ZM19.5 12C19.7761 12 20 11.7761 20 11.5C20 11.2239 19.7761 11 19.5 11V12ZM19.5 17C19.7761 17 20 16.7761 20 16.5C20 16.2239 19.7761 16 19.5 16V17ZM16.5 16C16.2239 16 16 16.2239 16 16.5C16 16.7761 16.2239 17 16.5 17V16ZM4.5 12H19.5V11H4.5V12ZM19.5 16H16.5V17H19.5V16Z" fill="black"/>
<path d="M9.5 16.5H4.5" stroke="black" stroke-linecap="round" stroke-linejoin="round"/>
<path d="M3 5.5C2.72386 5.5 2.5 5.72386 2.5 6V18C2.5 18.2761 2.72386 18.5 3 18.5H21C21.2761 18.5 21.5 18.2761 21.5 18V6C21.5 5.72386 21.2761 5.5 21 5.5H3Z" stroke="black" stroke-linejoin="round"/>
<rect x="3" y="6" width="18" height="12" fill="black" fill-opacity="0.1"/>
</svg>
