<svg width="24" height="24" viewBox="0 0 24 24" fill="none" xmlns="http://www.w3.org/2000/svg">
<path fill-rule="evenodd" clip-rule="evenodd" d="M3 5C3 4.44772 3.44771 4 4 4H20C20.5523 4 21 4.44771 21 5V8C21.5523 8 22 8.44772 22 9V15C22 15.5523 21.5523 16 21 16V19C21 19.5523 20.5523 20 20 20H4C3.44772 20 3 19.5523 3 19V5ZM20 16H17C14.7909 16 13 14.2091 13 12C13 9.79086 14.7909 8 17 8H20V5L4 5V19H20V16ZM17 9C15.3431 9 14 10.3431 14 12C14 13.6569 15.3431 15 17 15H21V9H17Z" fill="black"/>
<path d="M18 12C18 12.5523 17.5523 13 17 13C16.4477 13 16 12.5523 16 12C16 11.4477 16.4477 11 17 11C17.5523 11 18 11.4477 18 12Z" fill="black"/>
<path d="M4 5V19H20V15H21V9H20V5H4Z" fill="black" fill-opacity="0.1"/>
</svg>
