<svg width="24" height="24" viewBox="0 0 24 24" fill="none" xmlns="http://www.w3.org/2000/svg">
<path fill-rule="evenodd" clip-rule="evenodd" d="M1.99715 5.99804C1.99715 5.44605 2.44515 4.99805 2.99715 4.99805C6.41215 4.99805 17.5881 4.99805 21.0031 4.99805C21.5551 4.99805 22.0031 5.44605 22.0031 5.99804C22.0031 8.57504 22.0031 15.421 22.0031 17.998C22.0031 18.55 21.5551 18.998 21.0031 18.998C17.5881 18.998 6.41215 18.998 2.99715 18.998C2.44515 18.998 1.99715 18.55 1.99715 17.998C1.99715 15.421 1.99715 8.57504 1.99715 5.99804ZM20.9971 11.998H2.99715V17.998H20.9971V11.998ZM6.49715 15.998C6.63015 15.998 6.75715 16.051 6.85115 16.144C6.94415 16.238 6.99715 16.365 6.99715 16.498C6.99715 16.631 6.94415 16.758 6.85115 16.852C6.75715 16.945 6.63015 16.998 6.49715 16.998C5.94215 16.998 5.05215 16.998 4.49715 16.998C4.36415 16.998 4.23715 16.945 4.14315 16.852C4.05015 16.758 3.99715 16.631 3.99715 16.498C3.99715 16.365 4.05015 16.238 4.14315 16.144C4.23715 16.051 4.36415 15.998 4.49715 15.998C5.05215 15.998 5.94215 15.998 6.49715 15.998ZM10.5031 13.998C10.6351 13.998 10.7632 14.051 10.8562 14.144C10.9502 14.238 11.0031 14.365 11.0031 14.498C11.0031 14.631 10.9502 14.758 10.8562 14.852C10.7632 14.945 10.6351 14.998 10.5031 14.998C9.21313 14.998 5.78615 14.998 4.49715 14.998C4.36415 14.998 4.23715 14.945 4.14315 14.852C4.05015 14.758 3.99715 14.631 3.99715 14.498C3.99715 14.365 4.05015 14.238 4.14315 14.144C4.23715 14.051 4.36415 13.998 4.49715 13.998C5.78615 13.998 9.21313 13.998 10.5031 13.998ZM20.9971 5.99804H2.99715V7.99804H20.9971V5.99804Z" fill="#333333"/>
</svg>
