<svg width="24" height="24" viewBox="0 0 24 24" fill="none" xmlns="http://www.w3.org/2000/svg">
<path fill-rule="evenodd" clip-rule="evenodd" d="M2.0126 5.99756C2.0126 5.44556 2.4526 4.99756 3.0126 4.99756C6.4226 4.99756 17.5926 4.99756 21.0126 4.99756C21.5626 4.99756 22.0126 5.44556 22.0126 5.99756C22.0126 8.57455 22.0126 15.4205 22.0126 17.9975C22.0126 18.5475 21.5626 18.9975 21.0126 18.9975C17.5926 18.9975 6.4226 18.9975 3.0126 18.9975C2.4526 18.9975 2.0126 18.5475 2.0126 17.9975C2.0126 15.4205 2.0126 8.57455 2.0126 5.99756ZM20.9926 5.99756H3.00259V17.9975H20.9926V5.99756ZM20.0026 15.9975C20.0026 16.5475 19.5526 16.9975 19.0026 16.9975C18.3926 16.9975 17.6126 16.9975 16.9926 16.9975C16.4426 16.9975 15.9926 16.5475 15.9926 15.9975C15.9926 15.4455 16.4426 14.9975 16.9926 14.9975C17.6126 14.9975 18.3926 14.9975 19.0026 14.9975C19.5526 14.9975 20.0026 15.4455 20.0026 15.9975ZM9.99258 16.5075C9.99258 16.7775 9.7826 16.9975 9.5126 16.9975C8.3926 16.9975 5.63259 16.9975 4.50259 16.9975C4.22259 16.9975 4.00259 16.7775 4.00259 16.4975C4.00259 16.2175 4.22259 15.9975 4.50259 15.9975C5.62259 15.9975 8.35257 15.9975 9.48257 15.9975C9.77257 15.9975 9.99258 16.2275 9.99258 16.5075ZM19.9926 11.9975C19.9926 12.2625 19.8925 12.5175 19.7025 12.7045C19.5125 12.8925 19.2626 12.9975 18.9926 12.9975C16.1226 12.9975 7.87259 12.9975 5.00259 12.9975C4.45259 12.9975 4.00259 12.5515 4.00259 12.0005C4.00259 11.7345 4.10263 11.4796 4.29263 11.2916C4.48263 11.1036 4.73259 10.9975 5.00259 10.9975C7.87259 10.9975 16.1226 10.9975 18.9926 10.9975C19.5526 10.9975 19.9926 11.4455 19.9926 11.9975Z" fill="#333333"/>
</svg>
