<svg width="24" height="24" viewBox="0 0 24 24" fill="none" xmlns="http://www.w3.org/2000/svg">
<path fill-rule="evenodd" clip-rule="evenodd" d="M19.9991 12.0017C19.9991 11.7367 19.8891 11.4817 19.7091 11.2948C19.5191 11.1068 19.2591 11.0017 18.9991 11.0017C18.4491 11.0017 17.9991 11.4487 17.9991 12.0017C17.9991 12.7287 17.9991 13.5877 17.9991 13.5877C17.9991 13.5877 14.2891 9.88075 12.7091 8.29476C12.3191 7.90376 11.6792 7.90376 11.2892 8.29476C10.4092 9.18175 8.99916 10.5877 8.99916 10.5877C8.99916 10.5877 6.85912 8.44276 5.70912 7.29476C5.51912 7.10676 5.25916 7.00173 4.99916 7.00173C4.73916 7.00173 4.4792 7.10676 4.2892 7.29476C4.1092 7.48176 3.99916 7.73673 3.99916 8.00173C3.99916 8.26673 4.1092 8.52076 4.2892 8.70876C5.3292 9.74675 7.2592 11.6708 8.2892 12.7087C8.6792 13.0987 9.31912 13.0987 9.70912 12.7087C10.5891 11.8218 11.9992 10.4157 11.9992 10.4157L16.5892 15.0017C16.5892 15.0017 15.7292 15.0017 14.9992 15.0017C14.7392 15.0017 14.4792 15.1067 14.2892 15.2947C14.1092 15.4817 13.9992 15.7367 13.9992 16.0017C13.9992 16.2667 14.1092 16.5207 14.2892 16.7087C14.4792 16.8957 14.7392 17.0017 14.9992 17.0017C16.1091 17.0017 17.8891 17.0017 18.9991 17.0017C19.2591 17.0017 19.5191 16.8957 19.7091 16.7087C19.8891 16.5207 19.9991 16.2667 19.9991 16.0017C19.9991 14.8917 19.9991 13.1117 19.9991 12.0017Z" fill="black"/>
</svg>
