<svg width="24" height="24" viewBox="0 0 24 24" fill="none" xmlns="http://www.w3.org/2000/svg">
<path fill-rule="evenodd" clip-rule="evenodd" d="M17.9497 7.05026C15.2161 4.31662 10.7839 4.31662 8.05026 7.05026C7.19785 7.90268 6.61121 8.92026 6.29041 9.99997H14.5C14.7762 9.99997 15 10.2238 15 10.5C15 10.7761 14.7762 11 14.5 11H6.07138C5.97623 11.6629 5.9762 12.3369 6.07135 12.9998H14.5C14.7762 12.9998 15 13.2237 15 13.4998C15 13.776 14.7762 13.9998 14.5 13.9998H6.29037C6.61118 15.0797 7.19781 16.0973 8.05026 16.9498C10.7839 19.6834 15.2161 19.6834 17.9497 16.9498C18.145 16.7545 18.4616 16.7545 18.6569 16.9498C18.8521 17.145 18.8521 17.4616 18.6569 17.6568C15.5327 20.7811 10.4673 20.7811 7.34314 17.6568C6.29401 16.6078 5.5972 15.3397 5.25269 13.9998H3.5C3.22385 13.9998 3 13.776 3 13.4998C3 13.2237 3.22385 12.9998 3.5 12.9998H5.06235C4.97922 12.336 4.97922 11.6638 5.06238 11H3.5C3.22385 11 3 10.7761 3 10.5C3 10.2238 3.22385 9.99997 3.5 9.99997H5.25275C5.59729 8.66013 6.29407 7.39218 7.34314 6.34311C10.4673 3.21896 15.5327 3.21896 18.6569 6.34311C18.8521 6.53842 18.8521 6.85495 18.6569 7.05026C18.4616 7.24557 18.145 7.24557 17.9497 7.05026Z" fill="black"/>
</svg>
