<svg width="24" height="24" viewBox="0 0 24 24" fill="none" xmlns="http://www.w3.org/2000/svg">
<path fill-rule="evenodd" clip-rule="evenodd" d="M3 5C3 4.44772 3.44772 4 4 4H20C20.5523 4 21 4.44772 21 5V8C21.5523 8 22 8.44772 22 9V15C22 15.5523 21.5523 16 21 16V19C21 19.5523 20.5523 20 20 20H4C3.44772 20 3 19.5523 3 19V5ZM19 16V18H5V6H19V8H16C13.7909 8 12 9.79086 12 12C12 14.2091 13.7909 16 16 16H19ZM20 14V10H16C14.8954 10 14 10.8954 14 12C14 13.1046 14.8954 14 16 14H20Z" fill="black"/>
<path d="M17 12C17 12.5523 16.5523 13 16 13C15.4477 13 15 12.5523 15 12C15 11.4477 15.4477 11 16 11C16.5523 11 17 11.4477 17 12Z" fill="black"/>
<path d="M4 5V19H20V15H21V9H20V5H4Z" fill="black" fill-opacity="0.1"/>
</svg>
