<svg width="24" height="24" viewBox="0 0 24 24" fill="none" xmlns="http://www.w3.org/2000/svg">
<rect width="10" height="16" fill="black" fill-opacity="0" transform="translate(6.99696 3.99866)"/>
<path fill-rule="evenodd" clip-rule="evenodd" d="M15.9979 8.99865C15.7339 8.99865 15.48 8.89365 15.293 8.70666C15.106 8.51966 15.001 8.26564 15.001 8.00164C15.001 7.84064 15.001 7.67066 15.001 7.50066C15.001 7.10267 14.843 6.72065 14.561 6.43865C14.28 6.15666 13.898 5.99865 13.499 5.99865C12.744 5.99865 11.8179 5.99865 11.0029 5.99865C9.89794 5.99865 9.00294 6.89365 9.00294 7.99865C9.00294 8.32765 9.00294 8.66965 9.00294 8.99865C9.00294 10.1036 9.89794 10.9986 11.0029 10.9986C11.6119 10.9986 12.304 10.9986 12.997 10.9986C15.206 10.9986 16.997 12.7896 16.997 14.9986C16.997 15.3306 16.997 15.6666 16.997 15.9986C16.997 17.0596 16.576 18.0766 15.825 18.8266C15.075 19.5776 14.058 19.9986 12.997 19.9986C12.12 19.9986 11.2 19.9986 10.351 19.9986C9.46197 19.9986 8.60893 19.6457 7.97993 19.0157C7.35193 18.3867 6.99898 17.5336 6.99898 16.6446C6.99898 16.6436 6.99898 16.6426 6.99898 16.6426C6.99998 16.2866 7.28796 15.9986 7.64296 15.9986C7.77096 15.9986 7.90695 15.9986 8.04195 15.9986C8.29495 15.9986 8.53696 16.0996 8.71596 16.2776C8.89496 16.4566 8.99599 16.6996 8.99599 16.9526V16.9536C8.99599 17.2306 9.10595 17.4966 9.30195 17.6926C9.49795 17.8886 9.76297 17.9986 10.041 17.9986C10.855 17.9986 12.011 17.9986 13.001 17.9986C14.106 17.9986 15.001 17.1036 15.001 15.9986C15.001 15.6696 15.001 15.3276 15.001 14.9986C15.001 14.4686 14.791 13.9596 14.416 13.5846C14.041 13.2096 13.532 12.9986 13.001 12.9986C12.389 12.9986 11.693 12.9986 10.997 12.9986C9.93596 12.9986 8.91896 12.5776 8.16896 11.8266C7.41796 11.0766 6.99696 10.0596 6.99696 8.99865C6.99696 8.66665 6.99696 8.33065 6.99696 7.99865C6.99696 6.93765 7.41796 5.92065 8.16896 5.17065C8.91896 4.41965 9.93596 3.99866 10.997 3.99866C11.816 3.99866 12.672 3.99866 13.473 3.99866C14.408 3.99866 15.304 4.36964 15.965 5.03064C16.626 5.69164 16.997 6.58764 16.997 7.52264C16.997 7.69064 16.997 7.85164 16.997 8.00164C16.997 8.26564 16.892 8.51966 16.705 8.70666C16.518 8.89365 16.2639 8.99865 15.9999 8.99865C15.9989 8.99865 15.9989 8.99865 15.9979 8.99865Z" fill="#333333"/>
<rect width="2.00299" height="2.43201" fill="black" fill-opacity="0" transform="translate(10.9963 1.99915) scale(0.999999 8.22273)"/>
<path fill-rule="evenodd" clip-rule="evenodd" d="M12.9993 3.00239C12.9993 2.44325 12.5503 1.99915 11.9973 1.99915C11.4453 1.99915 10.9963 2.44325 10.9963 3.00239V20.9936C10.9963 21.5446 11.4453 21.9969 11.9973 21.9969C12.5503 21.9969 12.9993 21.5446 12.9993 20.9936V3.00239Z" fill="#333333"/>
</svg>
