<svg width="24" height="24" viewBox="0 0 24 24" fill="none" xmlns="http://www.w3.org/2000/svg">
<path fill-rule="evenodd" clip-rule="evenodd" d="M5.48828 15.9989C5.77128 15.9989 6.0003 16.2289 6.0003 16.5089C6.0003 17.2889 6.0003 18.7489 6.0003 19.5089C6.0003 19.6389 5.94929 19.7689 5.85729 19.8589C5.76629 19.9489 5.6423 19.9989 5.5133 19.9989H5.51232C5.22932 19.9989 5.0003 19.7689 5.0003 19.4889C5.0003 18.7089 5.0003 17.2489 5.0003 16.4889C5.0003 16.3589 5.0513 16.2289 5.1433 16.1389C5.2343 16.0489 5.3583 15.9989 5.4873 15.9989H5.48828ZM9.48827 11.9989C9.77127 11.9989 10.0003 12.2289 10.0003 12.5089C10.0003 13.9589 10.0003 18.0889 10.0003 19.5089C10.0003 19.6389 9.94929 19.7689 9.85729 19.8589C9.76629 19.9489 9.6423 19.9989 9.5133 19.9989H9.51232C9.22932 19.9989 9.0003 19.7689 9.0003 19.4889C9.0003 18.0389 9.0003 13.9089 9.0003 12.4889C9.0003 12.3589 9.0513 12.2289 9.1433 12.1389C9.2343 12.0489 9.3583 11.9989 9.4873 11.9989H9.48827ZM13.4883 7.99889C13.7713 7.99889 14.0003 8.2289 14.0003 8.5089C14.0003 10.4889 14.0003 17.5789 14.0003 19.5089C14.0003 19.6389 13.9493 19.7689 13.8573 19.8589C13.7663 19.9489 13.6423 19.9989 13.5133 19.9989H13.5123C13.2293 19.9989 13.0003 19.7689 13.0003 19.4889C13.0003 17.5189 13.0003 10.4189 13.0003 8.48888C13.0003 8.35888 13.0513 8.22891 13.1433 8.13891C13.2343 8.04891 13.3583 7.99889 13.4873 7.99889H13.4883ZM17.4883 3.9989C17.6243 3.9989 17.7543 4.04893 17.8503 4.14893C17.9463 4.24893 18.0003 4.37891 18.0003 4.50891C18.0003 6.92891 18.0003 17.1489 18.0003 19.5089C18.0003 19.6389 17.9493 19.7689 17.8573 19.8589C17.7663 19.9489 17.6423 19.9989 17.5133 19.9989H17.5123C17.3763 19.9989 17.2463 19.9488 17.1503 19.8488C17.0543 19.7488 17.0003 19.6189 17.0003 19.4889C17.0003 17.0689 17.0003 6.84889 17.0003 4.48889C17.0003 4.35889 17.0513 4.22892 17.1433 4.13892C17.2343 4.04892 17.3583 3.9989 17.4873 3.9989H17.4883Z" fill="#333333"/>
</svg>
