<svg width="24" height="24" viewBox="0 0 24 24" fill="none" xmlns="http://www.w3.org/2000/svg">
<path fill-rule="evenodd" clip-rule="evenodd" d="M17.5114 15.9989C17.2284 15.9989 16.9993 16.2289 16.9993 16.5089C16.9993 17.2889 16.9993 18.7489 16.9993 19.5089C16.9993 19.6389 17.0504 19.7689 17.1424 19.8589C17.2334 19.9489 17.3573 19.9989 17.4863 19.9989H17.4873C17.7703 19.9989 17.9993 19.7689 17.9993 19.4889C17.9993 18.7089 17.9993 17.2489 17.9993 16.4889C17.9993 16.3589 17.9483 16.2289 17.8563 16.1389C17.7653 16.0489 17.6413 15.9989 17.5123 15.9989H17.5114ZM13.5114 11.9989C13.2284 11.9989 12.9994 12.2289 12.9994 12.5089C12.9994 13.9589 12.9994 18.0889 12.9994 19.5089C12.9994 19.6389 13.0504 19.7689 13.1424 19.8589C13.2334 19.9489 13.3574 19.9989 13.4864 19.9989H13.4873C13.7703 19.9989 13.9994 19.7689 13.9994 19.4889C13.9994 18.0389 13.9994 13.9089 13.9994 12.4889C13.9994 12.3589 13.9483 12.2289 13.8563 12.1389C13.7653 12.0489 13.6414 11.9989 13.5124 11.9989H13.5114ZM9.51138 7.99889C9.22838 7.99889 8.99936 8.2289 8.99936 8.5089C8.99936 10.4889 8.99936 17.5789 8.99936 19.5089C8.99936 19.6389 9.05036 19.7689 9.14236 19.8589C9.23336 19.9489 9.35735 19.9989 9.48635 19.9989H9.48733C9.77033 19.9989 9.99935 19.7689 9.99935 19.4889C9.99935 17.5189 9.99935 10.4189 9.99935 8.48888C9.99935 8.35888 9.94835 8.22891 9.85635 8.13891C9.76535 8.04891 9.64136 7.99889 9.51236 7.99889H9.51138ZM5.51138 3.9989C5.37538 3.9989 5.24538 4.04893 5.14938 4.14893C5.05338 4.24893 4.99936 4.37891 4.99936 4.50891C4.99936 6.92891 4.99936 17.1489 4.99936 19.5089C4.99936 19.6389 5.05036 19.7689 5.14236 19.8589C5.23336 19.9489 5.35736 19.9989 5.48636 19.9989H5.48733C5.62333 19.9989 5.75333 19.9488 5.84933 19.8488C5.94533 19.7488 5.99936 19.6189 5.99936 19.4889C5.99936 17.0689 5.99936 6.84889 5.99936 4.48889C5.99936 4.35889 5.94835 4.22892 5.85635 4.13892C5.76535 4.04892 5.64136 3.9989 5.51236 3.9989H5.51138Z" fill="black"/>
</svg>
