<svg width="24" height="24" viewBox="0 0 24 24" fill="none" xmlns="http://www.w3.org/2000/svg">
<path fill-rule="evenodd" clip-rule="evenodd" d="M2.0126 5.99756C2.0126 5.44556 2.4526 4.99756 3.0126 4.99756C6.4226 4.99756 17.5926 4.99756 21.0126 4.99756C21.5626 4.99756 22.0126 5.44556 22.0126 5.99756C22.0126 8.57455 22.0126 15.4205 22.0126 17.9975C22.0126 18.5475 21.5626 18.9975 21.0126 18.9975C17.5926 18.9975 6.4226 18.9975 3.0126 18.9975C2.4526 18.9975 2.0126 18.5475 2.0126 17.9975C2.0126 15.4205 2.0126 8.57455 2.0126 5.99756ZM19.9926 6.99755H4.00259V16.9975H19.9926V6.99755ZM19.0026 14.9975C19.0026 15.5495 18.5526 15.9975 18.0026 15.9975C17.3926 15.9975 16.6126 15.9975 15.9926 15.9975C15.4426 15.9975 14.9926 15.5495 14.9926 14.9975C14.9926 14.4455 15.4426 13.9975 15.9926 13.9975C16.6126 13.9975 17.3926 13.9975 18.0026 13.9975C18.5526 13.9975 19.0026 14.4455 19.0026 14.9975ZM10.9926 15.5105C10.9926 15.7795 10.7826 15.9975 10.5126 15.9975C9.3926 15.9975 6.6526 15.9975 5.5126 15.9975C5.2326 15.9975 5.00259 15.7685 5.00259 15.4855C5.00259 15.2165 5.22258 14.9975 5.49258 14.9975C6.60258 14.9975 9.34257 14.9975 10.4826 14.9975C10.7726 14.9975 10.9926 15.2275 10.9926 15.5105ZM18.9926 11.9975C18.9926 12.5495 18.5526 12.9975 17.9926 12.9975C15.4226 12.9975 8.57259 12.9975 6.00259 12.9975C5.45259 12.9975 5.00259 12.5515 5.00259 12.0005C5.00259 11.7345 5.10263 11.4796 5.29263 11.2916C5.48263 11.1036 5.73259 10.9975 6.00259 10.9975C8.58259 10.9975 15.4226 10.9975 17.9926 10.9975C18.5526 10.9975 18.9926 11.4455 18.9926 11.9975Z" fill="black"/>
<rect x="3" y="6" width="18" height="12" fill="black" fill-opacity="0.1"/>
</svg>
