<svg width="24" height="24" viewBox="0 0 24 24" fill="none" xmlns="http://www.w3.org/2000/svg">
<rect width="15.994" height="15.994" fill="black" fill-opacity="0" transform="translate(13.0048 3.51929) scale(0.749908) rotate(45.0339)"/>
<path d="M17.2378 16.2434C14.8958 18.5826 11.0959 18.5804 8.75671 16.2384C6.4175 13.8964 6.41975 10.0965 8.76172 7.75732C11.1037 5.41811 14.9036 5.42036 17.2428 7.76233" stroke="#333333" stroke-width="2.67" stroke-miterlimit="5" stroke-linecap="round"/>
<rect width="2.00299" height="2.43201" fill="black" fill-opacity="0" transform="translate(4.00958 9.99915) scale(4.99415 0.822273)"/>
<path fill-rule="evenodd" clip-rule="evenodd" d="M14.0128 10.999C14.0128 10.4473 13.5633 9.99915 13.0139 9.99915H5.00847C4.45912 9.99915 4.00958 10.4473 4.00958 10.999C4.00958 11.5508 4.45912 11.9989 5.00847 11.9989H13.0139C13.5633 11.9989 14.0128 11.5508 14.0128 10.999Z" fill="#333333"/>
<rect width="2.00299" height="2.43201" fill="black" fill-opacity="0" transform="translate(4.00958 12.9984) scale(4.99415 0.822273)"/>
<path fill-rule="evenodd" clip-rule="evenodd" d="M14.0128 13.9983C14.0128 13.4466 13.5633 12.9984 13.0139 12.9984H5.00847C4.45912 12.9984 4.00958 13.4466 4.00958 13.9983C4.00958 14.55 4.45912 14.9982 5.00847 14.9982H13.0139C13.5633 14.9982 14.0128 14.55 14.0128 13.9983Z" fill="#333333"/>
</svg>
