<svg width="24" height="24" viewBox="0 0 24 24" fill="none" xmlns="http://www.w3.org/2000/svg">
<path fill-rule="evenodd" clip-rule="evenodd" d="M8.70711 3.29289C9.09763 3.68342 9.09763 4.31658 8.70711 4.70711L6.41421 7H20C20.5523 7 21 7.44772 21 8C21 8.55228 20.5523 9 20 9H6.41421L8.70711 11.2929C9.09763 11.6834 9.09763 12.3166 8.70711 12.7071C8.31658 13.0976 7.68342 13.0976 7.29289 12.7071L3.29289 8.70711C2.90237 8.31658 2.90237 7.68342 3.29289 7.29289L7.29289 3.29289C7.68342 2.90237 8.31658 2.90237 8.70711 3.29289ZM15.2929 11.2929C15.6834 10.9024 16.3166 10.9024 16.7071 11.2929L20.7071 15.2929C21.0976 15.6834 21.0976 16.3166 20.7071 16.7071L16.7071 20.7071C16.3166 21.0976 15.6834 21.0976 15.2929 20.7071C14.9024 20.3166 14.9024 19.6834 15.2929 19.2929L17.5858 17H4.5C3.94772 17 3.5 16.5523 3.5 16C3.5 15.4477 3.94772 15 4.5 15H17.5858L15.2929 12.7071C14.9024 12.3166 14.9024 11.6834 15.2929 11.2929Z" fill="black"/>
</svg>
