<svg width="24" height="24" viewBox="0 0 24 24" fill="none" xmlns="http://www.w3.org/2000/svg">
<path fill-rule="evenodd" clip-rule="evenodd" d="M19.9991 11.9983C19.9991 12.2633 19.8891 12.5183 19.7091 12.7052C19.5191 12.8932 19.2591 12.9983 18.9991 12.9983C18.4491 12.9983 17.9991 12.5503 17.9991 11.9983C17.9991 11.2703 17.9991 10.4123 17.9991 10.4123C17.9991 10.4123 14.2891 14.1182 12.7091 15.7052C12.3191 16.0962 11.6792 16.0962 11.2892 15.7052C10.4092 14.8182 8.99916 13.4123 8.99916 13.4123C8.99916 13.4123 6.85912 15.5562 5.70912 16.7052C5.51912 16.8932 5.25916 16.9983 4.99916 16.9983C4.73916 16.9983 4.4792 16.8932 4.2892 16.7052C4.1092 16.5182 3.99916 16.2633 3.99916 15.9983C3.99916 15.7333 4.1092 15.4783 4.2892 15.2913C5.3292 14.2533 7.2592 12.3293 8.2892 11.2913C8.6792 10.9003 9.31912 10.9003 9.70912 11.2913C10.5891 12.1783 11.9992 13.5843 11.9992 13.5843L16.5892 8.99829C16.5892 8.99829 15.7292 8.99829 14.9992 8.99829C14.7392 8.99829 14.4792 8.89326 14.2892 8.70526C14.1092 8.51826 13.9992 8.26329 13.9992 7.99829C13.9992 7.73329 14.1092 7.47832 14.2892 7.29132C14.4792 7.10332 14.7392 6.99829 14.9992 6.99829C16.1091 6.99829 17.8891 6.99829 18.9991 6.99829C19.2591 6.99829 19.5191 7.10332 19.7091 7.29132C19.8891 7.47832 19.9991 7.73329 19.9991 7.99829C19.9991 9.10829 19.9991 10.8883 19.9991 11.9983Z" fill="black"/>
</svg>
