<svg width="24" height="24" viewBox="0 0 24 24" fill="none" xmlns="http://www.w3.org/2000/svg">
<path fill-rule="evenodd" clip-rule="evenodd" d="M1.99715 5.99804C1.99715 5.44605 2.44515 4.99805 2.99715 4.99805C6.41215 4.99805 17.5881 4.99805 21.0031 4.99805C21.5551 4.99805 22.0031 5.44605 22.0031 5.99804C22.0031 8.57504 22.0031 15.421 22.0031 17.998C22.0031 18.55 21.5551 18.998 21.0031 18.998C17.5881 18.998 6.41215 18.998 2.99715 18.998C2.44515 18.998 1.99715 18.55 1.99715 17.998C1.99715 15.421 1.99715 8.57504 1.99715 5.99804ZM19.9971 11.998H3.99715V16.998H19.9971V11.998ZM7.48513 14.998C7.76813 14.998 7.99715 15.2271 7.99715 15.51V15.511C7.99715 15.64 7.94614 15.764 7.85414 15.855C7.76314 15.947 7.63915 15.998 7.51015 15.998C6.96015 15.998 6.06917 15.998 5.50918 15.998C5.22618 15.998 4.99715 15.769 4.99715 15.486V15.485C4.99715 15.356 5.04816 15.232 5.14016 15.141C5.23116 15.049 5.35515 14.998 5.48415 14.998C6.03415 14.998 6.92513 14.998 7.48513 14.998ZM11.4912 12.998C11.7742 12.998 12.0031 13.2271 12.0031 13.5101V13.511C12.0031 13.64 11.9521 13.764 11.8601 13.855C11.7691 13.947 11.6451 13.998 11.5161 13.998C10.2411 13.998 6.81217 13.998 5.50918 13.998C5.22618 13.998 4.99715 13.769 4.99715 13.486V13.485C4.99715 13.356 5.04816 13.232 5.14016 13.141C5.23116 13.049 5.35515 12.998 5.48415 12.998C6.75915 12.998 10.1882 12.998 11.4912 12.998ZM19.9971 6.99804H3.99715V7.99804H19.9971V6.99804Z" fill="#333333"/>
</svg>
