<svg width="24" height="24" viewBox="0 0 24 24" fill="none" xmlns="http://www.w3.org/2000/svg">
<rect width="15.994" height="15.994" fill="black" fill-opacity="0" transform="translate(13.0048 3.00012) scale(0.749908) rotate(45.0339)"/>
<path d="M17.2378 15.7242C14.8958 18.0634 11.0959 18.0612 8.75671 15.7192C6.4175 13.3773 6.41975 9.57736 8.76172 7.23815C11.1037 4.89895 14.9036 4.90119 17.2428 7.24316" stroke="#333333" stroke-width="1.33" stroke-miterlimit="5" stroke-linecap="round"/>
<rect width="2.00299" height="2.43201" fill="black" fill-opacity="0" transform="translate(4.00958 9.99829) scale(4.99415 0.411136)"/>
<path fill-rule="evenodd" clip-rule="evenodd" d="M14.0128 10.4982C14.0128 10.2224 13.7882 9.99829 13.5135 9.99829H4.50888C4.2342 9.99829 4.00958 10.2224 4.00958 10.4982C4.00958 10.7741 4.2342 10.9982 4.50888 10.9982H13.5135C13.7882 10.9982 14.0128 10.7741 14.0128 10.4982Z" fill="#333333"/>
<rect width="2.00299" height="2.43201" fill="black" fill-opacity="0" transform="translate(4.00958 12.9984) scale(4.99415 0.411136)"/>
<path fill-rule="evenodd" clip-rule="evenodd" d="M14.0128 13.4984C14.0128 13.2225 13.7882 12.9984 13.5135 12.9984H4.50888C4.2342 12.9984 4.00958 13.2225 4.00958 13.4984C4.00958 13.7742 4.2342 13.9983 4.50888 13.9983H13.5135C13.7882 13.9983 14.0128 13.7742 14.0128 13.4984Z" fill="#333333"/>
</svg>
