<svg width="24" height="24" viewBox="0 0 24 24" fill="none" xmlns="http://www.w3.org/2000/svg">
<path fill-rule="evenodd" clip-rule="evenodd" d="M17.9995 15.9989C17.4475 15.9989 16.9995 16.4489 16.9995 16.9989C16.9995 17.6089 16.9995 18.3889 16.9995 18.9989C16.9995 19.5489 17.4475 19.9989 17.9995 19.9989C18.5515 19.9989 18.9995 19.5489 18.9995 18.9989C18.9995 18.3889 18.9995 17.6089 18.9995 16.9989C18.9995 16.4489 18.5515 15.9989 17.9995 15.9989ZM13.9995 11.9989C13.4475 11.9989 12.9995 12.4489 12.9995 12.9989C12.9995 14.5389 12.9995 17.4589 12.9995 18.9989C12.9995 19.5489 13.4475 19.9989 13.9995 19.9989C14.5515 19.9989 14.9995 19.5489 14.9995 18.9989C14.9995 17.4589 14.9995 14.5389 14.9995 12.9989C14.9995 12.4489 14.5515 11.9989 13.9995 11.9989ZM9.99953 7.99889C9.73453 7.99889 9.47956 8.10893 9.29256 8.28893C9.10456 8.47893 8.99953 8.73889 8.99953 8.99889C8.99953 11.2589 8.99953 16.7389 8.99953 18.9989C8.99953 19.2689 9.10456 19.5188 9.29256 19.7088C9.47956 19.8888 9.73453 19.9989 9.99953 19.9989C10.2645 19.9989 10.5195 19.8888 10.7065 19.7088C10.8945 19.5188 10.9995 19.2689 10.9995 18.9989C10.9995 16.7389 10.9995 11.2589 10.9995 8.99889C10.9995 8.73889 10.8945 8.47893 10.7065 8.28893C10.5195 8.10893 10.2645 7.99889 9.99953 7.99889ZM5.99954 3.9989C5.44754 3.9989 4.99954 4.4489 4.99954 4.9989C4.99954 7.86889 4.99954 16.1289 4.99954 18.9989C4.99954 19.2689 5.10457 19.5188 5.29257 19.7088C5.47957 19.8888 5.73454 19.9989 5.99954 19.9989C6.55154 19.9989 6.99954 19.5489 6.99954 18.9989C6.99954 16.1289 6.99954 7.86889 6.99954 4.9989C6.99954 4.7389 6.89451 4.47894 6.70651 4.28894C6.51951 4.10894 6.26454 3.9989 5.99954 3.9989Z" fill="#333333"/>
</svg>
