<svg width="24" height="24" viewBox="0 0 24 24" fill="none" xmlns="http://www.w3.org/2000/svg">
<path fill-rule="evenodd" clip-rule="evenodd" d="M17.2426 7.75739C14.8995 5.41425 11.1005 5.41425 8.75735 7.75739C8.37729 8.13739 8.05887 8.55585 7.80209 9.00006H14C14.5523 9.00006 15 9.44781 15 10.0001C15 10.5523 14.5523 11.0001 14 11.0001H7.08344C6.9722 11.6617 6.9722 12.3384 7.08347 13.0001H14C14.5523 13.0001 15 13.4478 15 14.0001C15 14.5523 14.5523 15.0001 14 15.0001H7.80219C8.05893 15.4443 8.37732 15.8626 8.75735 16.2426C11.1005 18.5858 14.8995 18.5858 17.2426 16.2426C17.6332 15.8521 18.2663 15.8521 18.6569 16.2426C19.0474 16.6332 19.0474 17.2663 18.6569 17.6569C15.5327 20.7811 10.4673 20.7811 7.34314 17.6569C6.5593 16.873 5.97211 15.967 5.5816 15.0001H4C3.44772 15.0001 3 14.5523 3 14.0001C3 13.4478 3.44772 13.0001 4 13.0001H5.06241C4.97925 12.3362 4.97922 11.6639 5.06238 11.0001H4C3.44772 11.0001 3 10.5523 3 10.0001C3 9.44781 3.44772 9.00006 4 9.00006H5.58157C5.97208 8.03314 6.55927 7.12701 7.34314 6.3432C10.4673 3.21893 15.5327 3.21893 18.6569 6.3432C19.0474 6.7337 19.0474 7.36688 18.6569 7.75739C18.2663 8.14789 17.6332 8.14789 17.2426 7.75739Z" fill="black"/>
</svg>
