<svg width="24" height="24" viewBox="0 0 24 24" fill="none" xmlns="http://www.w3.org/2000/svg">
<path d="M21 12C21 16.9706 16.9706 21 12 21C7.02944 21 3 16.9706 3 12C3 7.02944 7.02944 3 12 3C16.9706 3 21 7.02944 21 12Z" fill="black" fill-opacity="0.1"/>
<path d="M20.9556 12.8926C20.8384 14.0687 20.4907 15.2101 19.9323 16.2518C19.374 17.2935 18.6159 18.215 17.7014 18.9638C16.7869 19.7125 15.7339 20.2737 14.6025 20.6155C13.4711 20.9573 12.2835 21.0728 11.1074 20.9556C9.93133 20.8384 8.78986 20.4907 7.74817 19.9323C6.70648 19.374 5.78497 18.6159 5.03625 17.7014C4.28753 16.7869 3.72626 15.7339 3.38449 14.6025C3.04273 13.4711 2.92715 12.2835 3.04437 11.1074C3.16159 9.93133 3.50931 8.78986 4.06766 7.74817C4.62602 6.70648 5.38409 5.78497 6.29858 5.03625C7.21307 4.28753 8.26608 3.72626 9.39749 3.38449C10.5289 3.04273 11.7165 2.92715 12.8926 3.04437C14.0687 3.16159 15.2101 3.50931 16.2518 4.06766C17.2935 4.62602 18.215 5.38409 18.9638 6.29858C19.7125 7.21307 20.2737 8.26608 20.6155 9.39749C20.9573 10.5289 21.0728 11.7165 20.9556 12.8926L20.9556 12.8926Z" stroke="black" stroke-linecap="round" stroke-linejoin="round"/>
<rect x="6" y="11.5" width="12" height="1" rx="0.5" fill="black"/>
</svg>
