<svg width="24" height="24" viewBox="0 0 24 24" fill="none" xmlns="http://www.w3.org/2000/svg">
<circle cx="12" cy="12" r="9" fill="black" fill-opacity="0.1"/>
<path fill-rule="evenodd" clip-rule="evenodd" d="M20.7009 6.28677C21.0948 6.67389 21.1003 7.30703 20.7132 7.70093L12.8512 15.7009C12.4663 16.0925 11.8377 16.1006 11.4429 15.719L7.30498 11.719C6.90789 11.3351 6.89716 10.7021 7.28101 10.305C7.66486 9.90789 8.29794 9.89716 8.69502 10.281L12.1199 13.5917L19.2868 6.29907C19.6739 5.90516 20.307 5.89966 20.7009 6.28677Z" fill="white"/>
<path fill-rule="evenodd" clip-rule="evenodd" d="M20.7009 6.28677C21.0948 6.67389 21.1003 7.30703 20.7132 7.70093L12.8512 15.7009C12.4663 16.0925 11.8377 16.1006 11.4429 15.719L7.30498 11.719C6.90789 11.3351 6.89716 10.7021 7.28101 10.305C7.66486 9.90789 8.29794 9.89716 8.69502 10.281L12.1199 13.5917L19.2868 6.29907C19.6739 5.90516 20.307 5.89966 20.7009 6.28677Z" fill="black"/>
<path fill-rule="evenodd" clip-rule="evenodd" d="M15.0908 4.62118C13.5378 3.97069 11.8192 3.82675 10.1797 4.20985C8.54018 4.59295 7.06333 5.48355 5.95943 6.75485C4.85554 8.02615 4.18088 9.61333 4.03153 11.2904C3.88218 12.9674 4.26575 14.6488 5.12763 16.0952C5.9895 17.5416 7.28574 18.6791 8.83176 19.3459C10.3778 20.0127 12.0948 20.1747 13.7382 19.8089C15.3817 19.4431 16.8678 18.568 17.985 17.3084C19.1022 16.0488 19.7936 14.4688 19.9606 12.7934C20.0153 12.2439 20.5052 11.8428 21.0548 11.8975C21.6044 11.9523 22.0055 12.4422 21.9507 12.9918C21.742 15.086 20.8778 17.061 19.4813 18.6355C18.0848 20.21 16.2271 21.3038 14.1728 21.7611C12.1185 22.2184 9.97223 22.0159 8.0397 21.1824C6.10718 20.3489 4.48688 18.9269 3.40954 17.119C2.33219 15.311 1.85273 13.2093 2.03941 11.113C2.2261 9.01666 3.06942 7.03269 4.44929 5.44357C5.82916 3.85444 7.67523 2.74118 9.72463 2.26231C11.774 1.78343 13.9223 1.96336 15.8635 2.77647C16.3729 2.98984 16.6128 3.57577 16.3995 4.08517C16.1861 4.59457 15.6002 4.83455 15.0908 4.62118Z" fill="black"/>
</svg>
