<svg width="24" height="24" viewBox="0 0 24 24" fill="none" xmlns="http://www.w3.org/2000/svg">
<circle cx="12" cy="12" r="9" fill="black" fill-opacity="0.1"/>
<path fill-rule="evenodd" clip-rule="evenodd" d="M20.3505 6.64339C20.5474 6.83694 20.5502 7.15351 20.3566 7.35047L12.4945 15.3505C12.3021 15.5463 11.9878 15.5503 11.7904 15.3595L7.65249 11.3595C7.45395 11.1676 7.44858 10.851 7.64051 10.6525C7.83243 10.4539 8.14897 10.4486 8.34751 10.6405L12.1289 14.2959L19.6434 6.64953C19.8369 6.45258 20.1535 6.44983 20.3505 6.64339Z" fill="white"/>
<path fill-rule="evenodd" clip-rule="evenodd" d="M20.3505 6.64339C20.5474 6.83694 20.5502 7.15351 20.3566 7.35047L12.4945 15.3505C12.3021 15.5463 11.9878 15.5503 11.7904 15.3595L7.65249 11.3595C7.45395 11.1676 7.44858 10.851 7.64051 10.6525C7.83243 10.4539 8.14897 10.4486 8.34751 10.6405L12.1289 14.2959L19.6434 6.64953C19.8369 6.45258 20.1535 6.44983 20.3505 6.64339Z" fill="black"/>
<path fill-rule="evenodd" clip-rule="evenodd" d="M15.2839 4.16C13.6339 3.46886 11.8079 3.31592 10.0659 3.72296C8.32395 4.13001 6.75479 5.07628 5.5819 6.42703C4.40901 7.77779 3.69218 9.46416 3.5335 11.246C3.37482 13.0279 3.78236 14.8144 4.6981 16.3511C5.61385 17.8879 6.9911 19.0966 8.63375 19.805C10.2764 20.5135 12.1007 20.6856 13.8469 20.2969C15.593 19.9082 17.1721 18.9785 18.3591 17.6402C19.5461 16.3019 20.2807 14.6231 20.4581 12.843C20.4855 12.5682 20.7304 12.3677 21.0052 12.3951C21.28 12.4225 21.4805 12.6674 21.4532 12.9422C21.2549 14.9317 20.4339 16.808 19.1072 18.3037C17.7805 19.7995 16.0158 20.8386 14.0641 21.273C12.1125 21.7075 10.0736 21.5151 8.23772 20.7233C6.40182 19.9315 4.86253 18.5806 3.83906 16.863C2.81558 15.1455 2.36009 13.1488 2.53744 11.1573C2.71479 9.16583 3.51595 7.28105 4.82683 5.77139C6.1377 4.26172 7.89147 3.20412 9.8384 2.74919C11.7853 2.29426 13.8262 2.46519 15.6703 3.23764C15.925 3.34433 16.045 3.63729 15.9383 3.892C15.8316 4.1467 15.5386 4.26669 15.2839 4.16Z" fill="black"/>
</svg>
