<svg width="24" height="24" viewBox="0 0 24 24" fill="none" xmlns="http://www.w3.org/2000/svg">
<circle cx="12" cy="12" r="9" fill="black" fill-opacity="0.1"/>
<path fill-rule="evenodd" clip-rule="evenodd" d="M12.7934 4.03944C11.748 3.93525 10.6923 4.03798 9.68666 4.34177C8.68096 4.64557 7.74496 5.14447 6.93207 5.81C6.11919 6.47553 5.44535 7.29465 4.94904 8.2206C4.45272 9.14654 4.14364 10.1612 4.03944 11.2066C3.93525 12.252 4.03798 13.3077 4.34177 14.3133C4.64557 15.319 5.14447 16.255 5.81 17.0679C6.47553 17.8808 7.29465 18.5546 8.2206 19.051C9.14654 19.5473 10.1612 19.8564 11.2066 19.9606C12.252 20.0648 13.3077 19.962 14.3133 19.6582C15.319 19.3544 16.255 18.8555 17.0679 18.19C17.8808 17.5245 18.5546 16.7053 19.051 15.7794C19.5473 14.8535 19.8564 13.8388 19.9606 12.7934C20.0648 11.748 19.962 10.6923 19.6582 9.68666C19.3544 8.68096 18.8555 7.74496 18.19 6.93207C17.5245 6.11919 16.7053 5.44535 15.7794 4.94904C14.8535 4.45272 13.8388 4.14364 12.7934 4.03944ZM21.9507 12.9918C22.0809 11.685 21.9525 10.3654 21.5728 9.10832C21.193 7.85121 20.5694 6.68119 19.7375 5.66509C18.9056 4.64899 17.8817 3.80669 16.7243 3.18629C15.5668 2.5659 14.2985 2.17955 12.9918 2.0493C11.685 1.91906 10.3654 2.04748 9.10832 2.42722C7.8512 2.80696 6.68119 3.43059 5.66509 4.2625C4.64899 5.09441 3.80669 6.11831 3.18629 7.27575C2.5659 8.43318 2.17955 9.70147 2.0493 11.0082C1.91906 12.315 2.04748 13.6346 2.42722 14.8917C2.80696 16.1488 3.43059 17.3188 4.2625 18.3349C5.09441 19.351 6.11831 20.1933 7.27575 20.8137C8.43318 21.4341 9.70148 21.8205 11.0082 21.9507C12.315 22.0809 13.6346 21.9525 14.8917 21.5728C16.1488 21.193 17.3188 20.5694 18.3349 19.7375C19.351 18.9056 20.1933 17.8817 20.8137 16.7243C21.4341 15.5668 21.8205 14.2985 21.9507 12.9918Z" fill="black"/>
<rect x="6" y="11" width="12" height="2" rx="1" fill="black"/>
</svg>
