<svg width="24" height="24" viewBox="0 0 24 24" fill="none" xmlns="http://www.w3.org/2000/svg">
<path fill-rule="evenodd" clip-rule="evenodd" d="M12.1287 2.001L12.2577 2.003L12.3857 2.007L12.5137 2.013L12.6417 2.02L12.7687 2.029L12.8957 2.04L13.0217 2.052L13.1477 2.065L13.2727 2.08L13.3977 2.097L13.5217 2.115L13.6457 2.135L13.7687 2.156L13.8917 2.179L14.0137 2.203L14.1357 2.229L14.2567 2.256L14.3777 2.285L14.4977 2.315L14.6167 2.347L14.7357 2.38L14.8547 2.414L14.9717 2.45L15.0887 2.487L15.2057 2.526L15.3217 2.566L15.4367 2.607L15.5507 2.65L15.6647 2.694L15.7777 2.74L15.8907 2.786L16.0027 2.834L16.1137 2.884L16.2237 2.935L16.3337 2.987L16.4427 3.04L16.5507 3.095L16.6577 3.151L16.7647 3.208L16.8707 3.266L16.9757 3.326L17.0797 3.387L17.1837 3.449L17.2857 3.512L17.3877 3.576L17.4887 3.642L17.5887 3.709L17.6887 3.777L17.7867 3.846L17.8847 3.916L17.9817 3.988L18.0767 4.06L18.1717 4.134L18.2657 4.209L18.3587 4.285L18.4517 4.362L18.5427 4.44L18.6327 4.51899L18.7217 4.59899L18.8107 4.67999L18.8977 4.76299L18.9837 4.84599L19.0697 4.92999L19.1537 5.01599L19.2367 5.10199L19.3197 5.18899L19.4007 5.27799L19.4807 5.36699L19.5597 5.45699L19.6377 5.54799L19.7147 5.64099L19.7907 5.73399L19.8657 5.82799L19.9397 5.92299L20.0117 6.01799L20.0837 6.11499L20.1537 6.21299L20.2227 6.31099L20.2907 6.41099L20.3577 6.51099L20.4237 6.61199L20.4877 6.71399L20.5507 6.81599L20.6127 6.91999L20.6737 7.02399L20.7337 7.12899L20.7917 7.23499L20.8487 7.34199L20.9047 7.44899L20.9597 7.55699L21.0127 7.66599L21.0647 7.77599L21.1157 7.88599L21.1657 7.99699L21.2137 8.10899L21.2597 8.22199L21.3057 8.33499L21.3497 8.44899L21.3927 8.56299L21.4337 8.67799L21.4737 8.79399L21.5127 8.91099L21.5497 9.02799L21.5857 9.14499L21.6197 9.26399L21.6527 9.38299L21.6847 9.50198L21.7147 9.62198L21.7437 9.74298L21.7707 9.86398L21.7967 9.98598L21.8207 10.108L21.8437 10.231L21.8647 10.354L21.8847 10.478L21.9027 10.602L21.9197 10.727L21.9347 10.852L21.9477 10.978L21.9597 11.104L21.9707 11.231L21.9797 11.358L21.9867 11.486L21.9927 11.614L21.9967 11.742L21.9987 11.871L21.9997 12L21.9987 12.129L21.9967 12.258L21.9927 12.386L21.9867 12.514L21.9797 12.642L21.9707 12.769L21.9597 12.896L21.9477 13.022L21.9347 13.148L21.9197 13.273L21.9027 13.398L21.8847 13.522L21.8647 13.646L21.8437 13.769L21.8207 13.892L21.7967 14.014L21.7707 14.136L21.7437 14.257L21.7147 14.378L21.6847 14.498L21.6527 14.617L21.6197 14.736L21.5857 14.855L21.5497 14.972L21.5127 15.089L21.4737 15.206L21.4337 15.322L21.3927 15.437L21.3497 15.551L21.3057 15.665L21.2597 15.778L21.2137 15.891L21.1657 16.003L21.1157 16.114L21.0647 16.224L21.0127 16.334L20.9597 16.443L20.9047 16.551L20.8487 16.658L20.7917 16.765L20.7337 16.871L20.6737 16.976L20.6127 17.08L20.5507 17.184L20.4877 17.286L20.4237 17.388L20.3577 17.489L20.2907 17.589L20.2227 17.689L20.1537 17.787L20.0837 17.885L20.0117 17.982L19.9397 18.077L19.8657 18.172L19.7907 18.266L19.7147 18.359L19.6377 18.452L19.5597 18.543L19.4807 18.633L19.4007 18.722L19.3197 18.811L19.2367 18.898L19.1537 18.984L19.0697 19.07L18.9837 19.154L18.8977 19.237L18.8107 19.32L18.7217 19.401L18.6327 19.481L18.5427 19.56L18.4517 19.638L18.3587 19.715L18.2657 19.791L18.1717 19.866L18.0767 19.94L17.9817 20.012L17.8847 20.084L17.7867 20.154L17.6887 20.223L17.5887 20.291L17.4887 20.358L17.3877 20.424L17.2857 20.488L17.1837 20.551L17.0797 20.613L16.9757 20.674L16.8707 20.734L16.7647 20.792L16.6577 20.849L16.5507 20.905L16.4427 20.96L16.3337 21.013L16.2237 21.065L16.1137 21.116L16.0027 21.166L15.8907 21.214L15.7777 21.26L15.6647 21.306L15.5507 21.35L15.4367 21.393L15.3217 21.434L15.2057 21.474L15.0887 21.513L14.9717 21.55L14.8547 21.586L14.7357 21.62L14.6167 21.653L14.4977 21.685L14.3777 21.715L14.2567 21.744L14.1357 21.771L14.0137 21.797L13.8917 21.821L13.7687 21.844L13.6457 21.865L13.5217 21.885L13.3977 21.903L13.2727 21.92L13.1477 21.935L13.0217 21.948L12.8957 21.96L12.7687 21.971L12.6417 21.98L12.5137 21.987L12.3857 21.993L12.2577 21.997L12.1287 21.999L11.9997 22L11.8707 21.999L11.7417 21.997L11.6137 21.993L11.4857 21.987L11.3577 21.98L11.2307 21.971L11.1037 21.96L10.9777 21.948L10.8517 21.935L10.7267 21.92L10.6017 21.903L10.4777 21.885L10.3537 21.865L10.2307 21.844L10.1077 21.821L9.98566 21.797L9.86367 21.771L9.74267 21.744L9.62167 21.715L9.50167 21.685L9.38267 21.653L9.26368 21.62L9.14468 21.586L9.02767 21.55L8.91067 21.513L8.79368 21.474L8.67767 21.434L8.56268 21.393L8.44868 21.35L8.33468 21.306L8.22167 21.26L8.10867 21.214L7.99667 21.166L7.88568 21.116L7.77568 21.065L7.66567 21.013L7.55668 20.96L7.44868 20.905L7.34167 20.849L7.23468 20.792L7.12867 20.734L7.02368 20.674L6.91967 20.613L6.81567 20.551L6.71368 20.488L6.61167 20.424L6.51068 20.358L6.41067 20.291L6.31068 20.223L6.21267 20.154L6.11468 20.084L6.01768 20.012L5.92268 19.94L5.82768 19.866L5.73367 19.791L5.64068 19.715L5.54768 19.638L5.45668 19.56L5.36668 19.481L5.27768 19.401L5.18867 19.32L5.10168 19.237L5.01568 19.154L4.92967 19.07L4.84567 18.984L4.76268 18.898L4.67967 18.811L4.59868 18.722L4.51867 18.633L4.43968 18.543L4.36168 18.452L4.28468 18.359L4.20868 18.266L4.13368 18.172L4.05968 18.077L3.98768 17.982L3.91568 17.885L3.84567 17.787L3.77667 17.689L3.70868 17.589L3.64168 17.489L3.57568 17.388L3.51167 17.286L3.44868 17.184L3.38667 17.08L3.32568 16.976L3.26568 16.871L3.20767 16.765L3.15068 16.658L3.09468 16.551L3.03967 16.443L2.98668 16.334L2.93468 16.224L2.88368 16.114L2.83368 16.003L2.78567 15.891L2.73968 15.778L2.69368 15.665L2.64967 15.551L2.60667 15.437L2.56567 15.322L2.52568 15.206L2.48668 15.089L2.44968 14.972L2.41368 14.855L2.37968 14.736L2.34668 14.617L2.31468 14.498L2.28468 14.378L2.25568 14.257L2.22868 14.136L2.20268 14.014L2.17868 13.892L2.15569 13.769L2.13467 13.646L2.11468 13.522L2.09668 13.398L2.07968 13.273L2.06468 13.148L2.05168 13.022L2.03967 12.896L2.02869 12.769L2.01968 12.642L2.01268 12.514L2.00668 12.386L2.00269 12.258L2.00069 12.129L1.99968 12L2.00069 11.871L2.00269 11.742L2.00668 11.614L2.01268 11.486L2.01968 11.358L2.02869 11.231L2.03967 11.104L2.05168 10.978L2.06468 10.852L2.07968 10.727L2.09668 10.602L2.11468 10.478L2.13467 10.354L2.15569 10.231L2.17868 10.108L2.20268 9.98598L2.22868 9.86398L2.25568 9.74298L2.28468 9.62198L2.31468 9.50198L2.34668 9.38299L2.37968 9.26399L2.41368 9.14499L2.44968 9.02799L2.48668 8.91099L2.52568 8.79399L2.56567 8.67799L2.60667 8.56299L2.64967 8.44899L2.69368 8.33499L2.73968 8.22199L2.78567 8.10899L2.83368 7.99699L2.88368 7.88599L2.93468 7.77599L2.98668 7.66599L3.03967 7.55699L3.09468 7.44899L3.15068 7.34199L3.20767 7.23499L3.26568 7.12899L3.32568 7.02399L3.38667 6.91999L3.44868 6.81599L3.51167 6.71399L3.57568 6.61199L3.64168 6.51099L3.70868 6.41099L3.77667 6.31099L3.84567 6.21299L3.91568 6.11499L3.98768 6.01799L4.05968 5.92299L4.13368 5.82799L4.20868 5.73399L4.28468 5.64099L4.36168 5.54799L4.43968 5.45699L4.51867 5.36699L4.59868 5.27799L4.67967 5.18899L4.76268 5.10199L4.84567 5.01599L4.92967 4.92999L5.01568 4.84599L5.10168 4.76299L5.18867 4.67999L5.27768 4.59899L5.36668 4.51899L5.45668 4.44L5.54768 4.362L5.64068 4.285L5.73367 4.209L5.82768 4.134L5.92268 4.06L6.01768 3.988L6.11468 3.916L6.21267 3.846L6.31068 3.777L6.41067 3.709L6.51068 3.642L6.61167 3.576L6.71368 3.512L6.81567 3.449L6.91967 3.387L7.02368 3.326L7.12867 3.266L7.23468 3.208L7.34167 3.151L7.44868 3.095L7.55668 3.04L7.66567 2.987L7.77568 2.935L7.88568 2.884L7.99667 2.834L8.10867 2.786L8.22167 2.74L8.33468 2.694L8.44868 2.65L8.56268 2.607L8.67767 2.566L8.79368 2.526L8.91067 2.487L9.02767 2.45L9.14468 2.414L9.26368 2.38L9.38267 2.347L9.50167 2.315L9.62167 2.285L9.74267 2.256L9.86367 2.229L9.98566 2.203L10.1077 2.179L10.2307 2.156L10.3537 2.135L10.4777 2.115L10.6017 2.097L10.7267 2.08L10.8517 2.065L10.9777 2.052L11.1037 2.04L11.2307 2.029L11.3577 2.02L11.4857 2.013L11.6137 2.007L11.7417 2.003L11.8707 2.001L11.9997 2L12.1287 2.001ZM11.8957 4.001L11.7927 4.003L11.6897 4.006L11.5867 4.01L11.4847 4.016L11.3827 4.023L11.2817 4.032L11.1807 4.041L11.0787 4.052L10.9797 4.064L10.8797 4.078L10.7807 4.092L10.6807 4.108L10.5827 4.125L10.4847 4.143L10.3867 4.163L10.2897 4.183L10.1927 4.205L10.0967 4.228L10.0007 4.252L9.90467 4.277L9.81068 4.303L9.71568 4.331L9.62167 4.36L9.52868 4.389L9.43568 4.42L9.34268 4.452L9.25068 4.485L9.15968 4.51899L9.06867 4.55499L8.97868 4.59099L8.88868 4.62799L8.79867 4.66699L8.71067 4.70599L8.62167 4.74699L8.53468 4.78799L8.44767 4.83099L8.36067 4.87499L8.27467 4.91899L8.18968 4.96499L8.10467 5.01199L8.02067 5.05899L7.93768 5.10799L7.85467 5.15799L7.77267 5.20799L7.69067 5.25999L7.61067 5.31199L7.52967 5.36599L7.45068 5.41999L7.37167 5.47599L7.29368 5.53199L7.21568 5.58899L7.13967 5.64799L7.06367 5.70599L6.98768 5.76599L6.91368 5.82699L6.83967 5.88899L6.76667 5.95099L6.69468 6.01499L6.62268 6.07899L6.55168 6.14399L6.48167 6.20999L6.41267 6.27699L6.34468 6.34499L6.27667 6.41299L6.20968 6.48199L6.14367 6.55199L6.07867 6.62299L6.01468 6.69499L5.95068 6.76699L5.88868 6.83999L5.82667 6.91399L5.76568 6.98799L5.70567 7.06399L5.64767 7.13999L5.58868 7.21599L5.53167 7.29399L5.47567 7.37199L5.41967 7.45099L5.36567 7.52999L5.31167 7.61099L5.25967 7.69099L5.20767 7.77299L5.15768 7.85499L5.10768 7.93799L5.05868 8.02099L5.01167 8.10499L4.96467 8.18999L4.91868 8.27499L4.87468 8.36099L4.83067 8.44799L4.78767 8.53499L4.74667 8.62199L4.70567 8.71099L4.66668 8.79899L4.62768 8.88899L4.59068 8.97899L4.55467 9.06899L4.51867 9.15999L4.48468 9.25099L4.45167 9.34299L4.41968 9.43598L4.38868 9.52899L4.35968 9.62198L4.33067 9.71598L4.30267 9.81098L4.27667 9.90498L4.25168 10.001L4.22767 10.097L4.20468 10.193L4.18268 10.29L4.16267 10.387L4.14268 10.485L4.12468 10.583L4.10768 10.681L4.09167 10.781L4.07768 10.88L4.06367 10.98L4.05168 11.079L4.04068 11.181L4.03168 11.282L4.02267 11.383L4.01568 11.485L4.00967 11.587L4.00567 11.69L4.00268 11.793L4.00068 11.896L3.99968 12L4.00068 12.104L4.00268 12.207L4.00567 12.31L4.00967 12.413L4.01568 12.515L4.02267 12.617L4.03168 12.718L4.04068 12.819L4.05168 12.921L4.06367 13.02L4.07768 13.12L4.09167 13.219L4.10768 13.319L4.12468 13.417L4.14268 13.515L4.16267 13.613L4.18268 13.71L4.20468 13.807L4.22767 13.903L4.25168 13.999L4.27667 14.095L4.30267 14.189L4.33067 14.284L4.35968 14.378L4.38868 14.471L4.41968 14.564L4.45167 14.657L4.48468 14.749L4.51867 14.84L4.55467 14.931L4.59068 15.021L4.62768 15.111L4.66668 15.201L4.70567 15.289L4.74667 15.378L4.78767 15.465L4.83067 15.552L4.87468 15.639L4.91868 15.725L4.96467 15.81L5.01167 15.895L5.05868 15.979L5.10768 16.062L5.15768 16.145L5.20767 16.227L5.25967 16.309L5.31167 16.389L5.36567 16.47L5.41967 16.549L5.47567 16.628L5.53167 16.706L5.58868 16.784L5.64767 16.86L5.70567 16.936L5.76568 17.012L5.82667 17.086L5.88868 17.16L5.95068 17.233L6.01468 17.305L6.07867 17.377L6.14367 17.448L6.20968 17.518L6.27667 17.587L6.34468 17.655L6.41267 17.723L6.48167 17.79L6.55168 17.856L6.62268 17.921L6.69468 17.985L6.76667 18.049L6.83967 18.111L6.91368 18.173L6.98768 18.234L7.06367 18.294L7.13967 18.352L7.21568 18.411L7.29368 18.468L7.37167 18.524L7.45068 18.58L7.52967 18.634L7.61067 18.688L7.69067 18.74L7.77267 18.792L7.85467 18.842L7.93768 18.892L8.02067 18.941L8.10467 18.988L8.18968 19.035L8.27467 19.081L8.36067 19.125L8.44767 19.169L8.53468 19.212L8.62167 19.253L8.71067 19.294L8.79867 19.333L8.88868 19.372L8.97868 19.409L9.06867 19.445L9.15968 19.481L9.25068 19.515L9.34268 19.548L9.43568 19.58L9.52868 19.611L9.62167 19.64L9.71568 19.669L9.81068 19.697L9.90467 19.723L10.0007 19.748L10.0967 19.772L10.1927 19.795L10.2897 19.817L10.3867 19.837L10.4847 19.857L10.5827 19.875L10.6807 19.892L10.7807 19.908L10.8797 19.922L10.9797 19.936L11.0787 19.948L11.1807 19.959L11.2817 19.968L11.3827 19.977L11.4847 19.984L11.5867 19.99L11.6897 19.994L11.7927 19.997L11.8957 19.999L11.9997 20L12.1037 19.999L12.2067 19.997L12.3097 19.994L12.4127 19.99L12.5147 19.984L12.6167 19.977L12.7177 19.968L12.8187 19.959L12.9207 19.948L13.0197 19.936L13.1197 19.922L13.2187 19.908L13.3187 19.892L13.4167 19.875L13.5147 19.857L13.6127 19.837L13.7097 19.817L13.8067 19.795L13.9027 19.772L13.9987 19.748L14.0947 19.723L14.1887 19.697L14.2837 19.669L14.3777 19.64L14.4707 19.611L14.5637 19.58L14.6567 19.548L14.7487 19.515L14.8397 19.481L14.9307 19.445L15.0207 19.409L15.1107 19.372L15.2007 19.333L15.2887 19.294L15.3777 19.253L15.4647 19.212L15.5517 19.169L15.6387 19.125L15.7247 19.081L15.8097 19.035L15.8947 18.988L15.9787 18.941L16.0617 18.892L16.1447 18.842L16.2267 18.792L16.3087 18.74L16.3887 18.688L16.4697 18.634L16.5487 18.58L16.6277 18.524L16.7057 18.468L16.7837 18.411L16.8597 18.352L16.9357 18.294L17.0117 18.234L17.0857 18.173L17.1597 18.111L17.2327 18.049L17.3047 17.985L17.3767 17.921L17.4477 17.856L17.5177 17.79L17.5867 17.723L17.6547 17.655L17.7227 17.587L17.7897 17.518L17.8557 17.448L17.9207 17.377L17.9847 17.305L18.0487 17.233L18.1107 17.16L18.1727 17.086L18.2337 17.012L18.2937 16.936L18.3517 16.86L18.4107 16.784L18.4677 16.706L18.5237 16.628L18.5797 16.549L18.6337 16.47L18.6877 16.389L18.7397 16.309L18.7917 16.227L18.8417 16.145L18.8917 16.062L18.9407 15.979L18.9877 15.895L19.0347 15.81L19.0807 15.725L19.1247 15.639L19.1687 15.552L19.2117 15.465L19.2527 15.378L19.2937 15.289L19.3327 15.201L19.3717 15.111L19.4087 15.021L19.4447 14.931L19.4807 14.84L19.5147 14.749L19.5477 14.657L19.5797 14.564L19.6107 14.471L19.6397 14.378L19.6687 14.284L19.6967 14.189L19.7227 14.095L19.7477 13.999L19.7717 13.903L19.7947 13.807L19.8167 13.71L19.8367 13.613L19.8567 13.515L19.8747 13.417L19.8917 13.319L19.9077 13.219L19.9217 13.12L19.9357 13.02L19.9477 12.921L19.9587 12.819L19.9677 12.718L19.9767 12.617L19.9837 12.515L19.9897 12.413L19.9937 12.31L19.9967 12.207L19.9987 12.104L19.9997 12L19.9987 11.896L19.9967 11.793L19.9937 11.69L19.9897 11.587L19.9837 11.485L19.9767 11.383L19.9677 11.282L19.9587 11.181L19.9477 11.079L19.9357 10.98L19.9217 10.88L19.9077 10.781L19.8917 10.681L19.8747 10.583L19.8567 10.485L19.8367 10.387L19.8167 10.29L19.7947 10.193L19.7717 10.097L19.7477 10.001L19.7227 9.90498L19.6967 9.81098L19.6687 9.71598L19.6397 9.62198L19.6107 9.52899L19.5797 9.43598L19.5477 9.34299L19.5147 9.25099L19.4807 9.15999L19.4447 9.06899L19.4087 8.97899L19.3717 8.88899L19.3327 8.79899L19.2937 8.71099L19.2527 8.62199L19.2117 8.53499L19.1687 8.44799L19.1247 8.36099L19.0807 8.27499L19.0347 8.18999L18.9877 8.10499L18.9407 8.02099L18.8917 7.93799L18.8417 7.85499L18.7917 7.77299L18.7397 7.69099L18.6877 7.61099L18.6337 7.52999L18.5797 7.45099L18.5237 7.37199L18.4677 7.29399L18.4107 7.21599L18.3517 7.13999L18.2937 7.06399L18.2337 6.98799L18.1727 6.91399L18.1107 6.83999L18.0487 6.76699L17.9847 6.69499L17.9207 6.62299L17.8557 6.55199L17.7897 6.48199L17.7227 6.41299L17.6547 6.34499L17.5867 6.27699L17.5177 6.20999L17.4477 6.14399L17.3767 6.07899L17.3047 6.01499L17.2327 5.95099L17.1597 5.88899L17.0857 5.82699L17.0117 5.76599L16.9357 5.70599L16.8597 5.64799L16.7837 5.58899L16.7057 5.53199L16.6277 5.47599L16.5487 5.41999L16.4697 5.36599L16.3887 5.31199L16.3087 5.25999L16.2267 5.20799L16.1447 5.15799L16.0617 5.10799L15.9787 5.05899L15.8947 5.01199L15.8097 4.96499L15.7247 4.91899L15.6387 4.87499L15.5517 4.83099L15.4647 4.78799L15.3777 4.74699L15.2887 4.70599L15.2007 4.66699L15.1107 4.62799L15.0207 4.59099L14.9307 4.55499L14.8397 4.51899L14.7487 4.485L14.6567 4.452L14.5637 4.42L14.4707 4.389L14.3777 4.36L14.2837 4.331L14.1887 4.303L14.0947 4.277L13.9987 4.252L13.9027 4.228L13.8067 4.205L13.7097 4.183L13.6127 4.163L13.5147 4.143L13.4167 4.125L13.3187 4.108L13.2187 4.092L13.1197 4.078L13.0197 4.064L12.9207 4.052L12.8187 4.041L12.7177 4.032L12.6167 4.023L12.5147 4.016L12.4127 4.01L12.3097 4.006L12.2067 4.003L12.1037 4.001L11.9997 4L11.8957 4.001Z" fill="#333333"/>
<path d="M12 17.9993C11.4477 17.9993 11 17.5515 11 16.9993C11 16.447 11.4477 15.9993 12 15.9993C12.5523 15.9993 13 16.447 13 16.9993C13 17.5515 12.5523 17.9993 12 17.9993Z" fill="#333333"/>
<path d="M9.50231 9.49829C9.50231 8.11829 10.6223 6.99829 12.0023 6.99829C13.3823 6.99829 14.5023 8.11829 14.5023 9.49829C14.5023 10.8783 13.3823 11.9983 12.0023 11.9983V13.9983" stroke="#333333" stroke-width="2" stroke-miterlimit="100" stroke-linecap="round" stroke-linejoin="round"/>
</svg>
