<svg width="24" height="24" viewBox="0 0 24 24" fill="none" xmlns="http://www.w3.org/2000/svg">
<path fill-rule="evenodd" clip-rule="evenodd" d="M4.5 4C4.22385 4 4 4.22388 4 4.5V7.5C4 7.77612 4.22385 8 4.5 8C4.77615 8 5 7.77612 5 7.5V5H20V20H5V17.5C5 17.2239 4.77615 17 4.5 17C4.22385 17 4 17.2239 4 17.5V20.5C4 20.7761 4.22385 21 4.5 21H20.5C20.7762 21 21 20.7761 21 20.5V4.5C21 4.22388 20.7762 4 20.5 4H4.5ZM11.8535 8.14648C11.6583 7.95117 11.3417 7.95117 11.1465 8.14648C10.9512 8.3418 10.9512 8.6582 11.1465 8.85352L14.2929 12H3.5C3.22385 12 3 12.2239 3 12.5C3 12.7761 3.22385 13 3.5 13H14.2929L11.1465 16.1465C10.9512 16.3418 10.9512 16.6582 11.1465 16.8535C11.3417 17.0488 11.6583 17.0488 11.8535 16.8535L15.8535 12.8535C16.0488 12.6582 16.0488 12.3418 15.8535 12.1465L11.8535 8.14648Z" fill="black"/>
</svg>
