<svg width="24" height="24" viewBox="0 0 24 24" fill="none" xmlns="http://www.w3.org/2000/svg">
<path fill-rule="evenodd" clip-rule="evenodd" d="M21.8607 18.4843C22.0407 18.7923 22.0507 19.1772 21.8707 19.4912C21.6907 19.8042 21.3607 19.9983 21.0007 19.9983C16.9507 19.9983 7.05069 19.9983 3.00069 19.9983C2.64069 19.9983 2.3107 19.8042 2.1307 19.4912C1.9507 19.1772 1.96071 18.7923 2.14071 18.4843C4.1907 15.0703 9.1407 6.81531 11.1407 3.48431C11.3207 3.18231 11.6507 2.99829 12.0007 2.99829C12.3507 2.99829 12.6807 3.18231 12.8607 3.48431C14.8607 6.81531 19.8107 15.0703 21.8607 18.4843ZM4.77071 17.9983H19.2307L12.0007 5.94225L4.77071 17.9983ZM11.0007 15.9983C11.0007 15.4463 11.4507 14.9983 12.0007 14.9983C12.5507 14.9983 13.0007 15.4463 13.0007 15.9983C13.0007 16.5503 12.5507 16.9983 12.0007 16.9983C11.4507 16.9983 11.0007 16.5503 11.0007 15.9983ZM11.0007 9.99828C11.0007 9.73328 11.1107 9.47831 11.2907 9.29131C11.4807 9.10331 11.7407 8.99828 12.0007 8.99828C12.2707 8.99828 12.5206 9.10331 12.7106 9.29131C12.8906 9.47831 13.0007 9.73328 13.0007 9.99828C13.0007 10.8693 13.0007 12.1273 13.0007 12.9983C13.0007 13.2633 12.8906 13.5182 12.7106 13.7052C12.5206 13.8932 12.2707 13.9983 12.0007 13.9983C11.7407 13.9983 11.4807 13.8932 11.2907 13.7052C11.1107 13.5182 11.0007 13.2633 11.0007 12.9983C11.0007 12.1273 11.0007 10.8693 11.0007 9.99828Z" fill="black"/>
</svg>
