<svg width="24" height="24" viewBox="0 0 24 24" fill="none" xmlns="http://www.w3.org/2000/svg">
<path fill-rule="evenodd" clip-rule="evenodd" d="M7.99841 4.99829C7.99841 5.55029 7.54841 5.99829 6.99841 5.99829C6.49841 5.99829 5.99841 5.99829 5.99841 5.99829V17.9983H17.9984C17.9984 17.9983 17.9984 17.4983 17.9984 16.9983C17.9984 16.4463 18.4484 15.9983 18.9984 15.9983C19.5484 15.9983 19.9984 16.4463 19.9984 16.9983C19.9984 17.6093 19.9984 18.3873 19.9984 18.9983C19.9984 19.5503 19.5484 19.9983 18.9984 19.9983C16.1284 19.9983 7.86841 19.9983 4.99841 19.9983C4.44841 19.9983 3.99841 19.5503 3.99841 18.9983C3.99841 16.1253 3.99841 7.87128 3.99841 4.99829C3.99841 4.73329 4.10845 4.47832 4.28845 4.29132C4.47845 4.10332 4.73841 3.99829 4.99841 3.99829C5.60841 3.99829 6.38841 3.99829 6.99841 3.99829C7.26841 3.99829 7.51837 4.10332 7.70837 4.29132C7.88837 4.47832 7.99841 4.73329 7.99841 4.99829ZM9.99841 4.99829C9.99841 4.44629 10.4484 3.99829 10.9984 3.99829C12.9184 3.99829 17.0784 3.99829 18.9984 3.99829C19.5484 3.99829 19.9984 4.44629 19.9984 4.99829C19.9984 6.91428 19.9984 11.0823 19.9984 12.9983C19.9984 13.5503 19.5484 13.9983 18.9984 13.9983C18.4484 13.9983 17.9984 13.5503 17.9984 12.9983C17.9984 11.1553 17.9984 7.40826 17.9984 7.40826C17.9984 7.40826 13.0784 12.3173 11.2084 14.1813C10.8184 14.5713 10.1885 14.5703 9.79846 14.1793C9.40846 13.7883 9.40846 13.1553 9.79846 12.7653C11.6585 10.9023 16.5784 5.99829 16.5784 5.99829C16.5784 5.99829 12.8384 5.99829 10.9984 5.99829C10.4484 5.99829 9.99841 5.55029 9.99841 4.99829Z" fill="#333333"/>
</svg>
