<svg width="24" height="24" viewBox="0 0 24 24" fill="none" xmlns="http://www.w3.org/2000/svg">
<path fill-rule="evenodd" clip-rule="evenodd" d="M11.6207 2.00044L11.7443 2.00235L11.8678 2.00618L11.9818 2.01186L12.1053 2.01853L12.2288 2.02705L12.3523 2.03749L12.4663 2.04891L12.5898 2.06126L12.7038 2.07553L12.8273 2.09165L12.9413 2.10875L13.0648 2.12777L13.1788 2.14772L13.2928 2.16958L13.4068 2.19236L13.5303 2.21707L13.6443 2.24269L13.7582 2.27024L13.8722 2.29876L13.9862 2.32915L14.1002 2.36052L14.2142 2.39281L14.3187 2.42702L14.4327 2.46216L14.5467 2.49921L14.6512 2.53719L14.7652 2.57616L14.8698 2.61703L14.9743 2.65878L15.0883 2.7025L15.1928 2.74622L15.2972 2.7918L15.4017 2.83929L15.5062 2.88776L15.6107 2.93716L15.7152 2.98749L15.8198 3.03973L15.9243 3.09296L16.0288 3.14712L16.1237 3.2022L16.2282 3.2592L16.3232 3.31718L16.4183 3.37604L16.5228 3.43593L16.6178 3.4967L16.7127 3.55944L16.8077 3.62305L16.9027 3.68764L16.9978 3.75322L17.0832 3.81973L17.1782 3.88809L17.2732 3.95651L17.3588 4.02679L17.4538 4.09805L17.5392 4.17024L17.6247 4.24341L17.7103 4.31751L17.7957 4.39254L17.8812 4.46856L17.9668 4.5455L18.0523 4.62436L18.1282 4.70322L18.2137 4.783L18.2898 4.8647L18.3752 4.9464L18.4512 5.02909L18.5273 5.11363L18.6032 5.19817L18.6793 5.28363L18.7553 5.37009L18.8217 5.45845L18.8978 5.54682L18.9737 5.63611L19.0402 5.72634L19.1067 5.81662L19.1732 5.90875L19.2398 6.00187L19.3062 6.09494L19.3728 6.18997L19.4392 6.28495L19.4963 6.38091L19.5627 6.4778L19.6198 6.57469L19.6767 6.6735L19.7338 6.7723L19.7907 6.87209L19.8478 6.97275L19.9047 7.07439L19.9523 7.17604L20.0092 7.27867L20.0567 7.38223L20.1137 7.48671L20.1612 7.5912L20.2088 7.69667L20.2467 7.80307L20.2942 7.9104L20.3418 8.01778L20.3797 8.12604L20.4178 8.23435L20.4558 8.34359L20.4937 8.45382L20.5317 8.56497L20.5698 8.67613L20.6077 8.78728L20.6362 8.90029L20.6648 9.01336L20.6933 9.12643L20.7217 9.24042L20.7502 9.35534L20.7788 9.47033L20.8073 9.58623L20.8262 9.70208L20.8452 9.81898L20.8737 9.93582L20.8832 10.0536L20.9023 10.1714L20.9213 10.2902L20.9308 10.4089L20.9497 10.5286L20.9592 10.6483L20.9687 10.769L20.9782 10.8896L20.9877 11.0112V11.1328L20.9972 11.2544V11.3769V11.4995V11.6221V11.7446L20.9877 11.8662V11.9878L20.9782 12.1094L20.9687 12.23L20.9592 12.3507L20.9497 12.4704L20.9308 12.5901L20.9213 12.7089L20.9023 12.8276L20.8832 12.9454L20.8737 13.0632L20.8452 13.18L20.8262 13.2969L20.8073 13.4128L20.7788 13.5287L20.7502 13.6437L20.7217 13.7586L20.6933 13.8726L20.6648 13.9857L20.6362 14.0987L20.6077 14.2117L20.5698 14.3229L20.5317 14.4341L20.4937 14.5452L20.4558 14.6554L20.4178 14.7647L20.3797 14.873L20.3418 14.9812L20.2942 15.0886L20.2467 15.196L20.2088 15.3024L20.1612 15.4078L20.1137 15.5123L20.0567 15.6168L20.0092 15.7204L19.9523 15.823L19.9047 15.9246L19.8478 16.0263L19.7907 16.1269L19.7338 16.2267L19.6767 16.3255L19.6198 16.4243L19.5627 16.5212L19.4963 16.6181L19.4392 16.7141L19.3728 16.8091L19.3062 16.9041L19.2398 16.9972L19.1732 17.0903L19.1067 17.1824L19.0402 17.2727L18.9737 17.3629L18.8978 17.4522L18.8217 17.5406L18.7553 17.6289L18.6793 17.7154L18.6032 17.8009L18.5273 17.8854L18.4512 17.9699L18.3752 18.0526L18.2898 18.1343L18.2137 18.216L18.1282 18.2958L18.0523 18.3747L17.9668 18.4535L17.8812 18.5305L17.7957 18.6065L17.7103 18.6815L17.6247 18.7556L17.5392 18.8288L17.4538 18.901L17.3588 18.9722L17.2732 19.0425L17.1782 19.1109L17.0832 19.1793L16.9978 19.2458L16.9027 19.3114L16.8077 19.376L16.7127 19.4396L16.6178 19.5023L16.5228 19.5631L16.4183 19.623L16.3232 19.6818L16.2282 19.7398L16.1237 19.7968L16.0288 19.8519L15.9243 19.9061L15.8198 19.9593L15.7152 20.0115L15.6107 20.0619L15.5062 20.1113L15.4017 20.1597L15.2972 20.2072L15.1928 20.2528L15.0883 20.2965L14.9743 20.3402L14.8698 20.382L14.7652 20.4229L14.6512 20.4618L14.5467 20.4998L14.4327 20.5369L14.3187 20.572L14.2142 20.6062L14.1002 20.6385L13.9862 20.6699L13.8722 20.7003L13.7582 20.7288L13.6443 20.7563L13.5303 20.782L13.4068 20.8067L13.2928 20.8294L13.1788 20.8513L13.0648 20.8713L12.9413 20.8903L12.8273 20.9074L12.7038 20.9235L12.5898 20.9378L12.4663 20.9501L12.3523 20.9615L12.2288 20.972L12.1053 20.9805L11.9818 20.9872L11.8678 20.9928L11.7443 20.9967L11.6207 20.9986L11.4972 20.9995L11.3737 20.9986L11.2502 20.9967L11.1267 20.9928L11.0127 20.9872L10.8892 20.9805L10.7657 20.972L10.6422 20.9615L10.5282 20.9501L10.4047 20.9378L10.2907 20.9235L10.1672 20.9074L10.0532 20.8903L9.92972 20.8713L9.81573 20.8513L9.70173 20.8294L9.58774 20.8067L9.46423 20.782L9.35024 20.7563L9.23624 20.7288L9.12225 20.7003L9.00825 20.6699L8.89426 20.6385L8.78026 20.6062L8.67578 20.572L8.56178 20.5369L8.44778 20.4998L8.3433 20.4618L8.2293 20.4229L8.1247 20.382L8.02022 20.3402L7.90622 20.2965L7.80173 20.2528L7.69725 20.2072L7.59276 20.1597L7.48828 20.1113L7.38379 20.0619L7.2793 20.0115L7.1747 19.9593L7.07022 19.9061L6.97524 19.8519L6.87075 19.7968L6.76627 19.7398L6.67129 19.6818L6.5762 19.623L6.47171 19.5631L6.37674 19.5023L6.28176 19.4396L6.18678 19.376L6.09181 19.3114L5.99671 19.2458L5.91125 19.1793L5.81627 19.1109L5.72129 19.0425L5.63571 18.9722L5.54073 18.901L5.45526 18.8288L5.3698 18.7556L5.28421 18.6815L5.19875 18.6065L5.11328 18.5305L5.0277 18.4535L4.94223 18.3747L4.86627 18.2958L4.7808 18.216L4.70473 18.1343L4.61926 18.0526L4.5433 17.9699L4.46723 17.8854L4.39127 17.8009L4.3152 17.7154L4.23924 17.6289L4.17279 17.5406L4.09671 17.4522L4.02076 17.3629L3.95431 17.2727L3.88774 17.1824L3.82129 17.0903L3.75473 16.9972L3.68828 16.9041L3.62171 16.8091L3.55527 16.7141L3.49821 16.6181L3.43176 16.5212L3.37471 16.4243L3.31777 16.3255L3.26071 16.2267L3.20377 16.1269L3.14672 16.0263L3.08978 15.9246L3.04223 15.823L2.98529 15.7204L2.93774 15.6168L2.8808 15.5123L2.83326 15.4078L2.78571 15.3024L2.74779 15.196L2.70024 15.0886L2.6527 14.9812L2.61478 14.873L2.57674 14.7647L2.5387 14.6554L2.50078 14.5452L2.46274 14.4341L2.42471 14.3229L2.38679 14.2117L2.35826 14.0987L2.32973 13.9857L2.3012 13.8726L2.27279 13.7586L2.24426 13.6437L2.21573 13.5287L2.18721 13.4128L2.1683 13.2969L2.14929 13.18L2.12076 13.0632L2.11125 12.9454L2.09223 12.8276L2.07321 12.7089L2.0637 12.5901L2.0448 12.4704L2.03529 12.3507L2.02578 12.23L2.01627 12.1094L2.00676 11.9878V11.8662L1.99725 11.7446V11.6221V11.4995V11.3769V11.2544L2.00676 11.1328V11.0112L2.01627 10.8896L2.02578 10.769L2.03529 10.6483L2.0448 10.5286L2.0637 10.4089L2.07321 10.2902L2.09223 10.1714L2.11125 10.0536L2.12076 9.93582L2.14929 9.81898L2.1683 9.70208L2.18721 9.58623L2.21573 9.47033L2.24426 9.35534L2.27279 9.24042L2.3012 9.12643L2.32973 9.01336L2.35826 8.90029L2.38679 8.78728L2.42471 8.67613L2.46274 8.56497L2.50078 8.45382L2.5387 8.34359L2.57674 8.23435L2.61478 8.12604L2.6527 8.01778L2.70024 7.9104L2.74779 7.80307L2.78571 7.69667L2.83326 7.5912L2.8808 7.48671L2.93774 7.38223L2.98529 7.27867L3.04223 7.17604L3.08978 7.07439L3.14672 6.97275L3.20377 6.87209L3.26071 6.7723L3.31777 6.6735L3.37471 6.57469L3.43176 6.4778L3.49821 6.38091L3.55527 6.28495L3.62171 6.18997L3.68828 6.09494L3.75473 6.00187L3.82129 5.90875L3.88774 5.81662L3.95431 5.72634L4.02076 5.63611L4.09671 5.54682L4.17279 5.45845L4.23924 5.37009L4.3152 5.28363L4.39127 5.19817L4.46723 5.11363L4.5433 5.02909L4.61926 4.9464L4.70473 4.8647L4.7808 4.783L4.86627 4.70322L4.94223 4.62436L5.0277 4.5455L5.11328 4.46856L5.19875 4.39254L5.28421 4.31751L5.3698 4.24341L5.45526 4.17024L5.54073 4.09805L5.63571 4.02679L5.72129 3.95651L5.81627 3.88809L5.91125 3.81973L5.99671 3.75322L6.09181 3.68764L6.18678 3.62305L6.28176 3.55944L6.37674 3.4967L6.47171 3.43593L6.5762 3.37604L6.67129 3.31718L6.76627 3.2592L6.87075 3.2022L6.97524 3.14712L7.07022 3.09296L7.1747 3.03973L7.2793 2.98749L7.38379 2.93716L7.48828 2.88776L7.59276 2.83929L7.69725 2.7918L7.80173 2.74622L7.90622 2.7025L8.02022 2.65878L8.1247 2.61703L8.2293 2.57616L8.3433 2.53719L8.44778 2.49921L8.56178 2.46216L8.67578 2.42702L8.78026 2.39281L8.89426 2.36052L9.00825 2.32915L9.12225 2.29876L9.23624 2.27024L9.35024 2.24269L9.46423 2.21707L9.58774 2.19236L9.70173 2.16958L9.81573 2.14772L9.92972 2.12777L10.0532 2.10875L10.1672 2.09165L10.2907 2.07553L10.4047 2.06126L10.5282 2.04891L10.6422 2.03749L10.7657 2.02705L10.8892 2.01853L11.0127 2.01186L11.1267 2.00618L11.2502 2.00235L11.3737 2.00044L11.4972 1.99951L11.6207 2.00044ZM11.3832 2.95044L11.2788 2.95235L11.1648 2.95618L11.0603 2.96093L10.9463 2.96662L10.8418 2.97421L10.7277 2.98372L10.6232 2.99416L10.5187 3.00558L10.4047 3.01793L10.3002 3.03214L10.1958 3.04832L10.0913 3.06542L9.98678 3.08345L9.88229 3.10247L9.77769 3.12335L9.6732 3.14521L9.56872 3.16898L9.46423 3.19269L9.35975 3.21931L9.25526 3.24592L9.16028 3.27439L9.0558 3.30385L8.96071 3.33429L8.85622 3.3656L8.76124 3.39888L8.65676 3.43304L8.56178 3.46823L8.45729 3.50528L8.3622 3.54326L8.26722 3.58223L8.17225 3.62212L8.07727 3.66294L7.98229 3.70573L7.8872 3.74847L7.79223 3.79311L7.69725 3.83869L7.60227 3.88525L7.5168 3.93372L7.42171 3.98214L7.33624 4.03154L7.24127 4.08286L7.1558 4.1351L7.07022 4.18833L6.97524 4.24248L6.88977 4.29757L6.8043 4.35364L6.71872 4.41064L6.63325 4.46856L6.54779 4.52747L6.4622 4.58824L6.38624 4.64906L6.30078 4.71082L6.21519 4.77448L6.13924 4.83809L6.06328 4.90274L5.97769 4.96919L5.90174 5.0357L5.82578 5.10319L5.7497 5.17155L5.67375 5.2409L5.59779 5.31123L5.52171 5.38244L5.45526 5.45468L5.37931 5.5278L5.31274 5.6019L5.23678 5.67601L5.17022 5.75202L5.10377 5.82804L5.0372 5.90591L4.97076 5.98378L4.90431 6.06264L4.83774 6.1415L4.77129 6.22227L4.70473 6.30304L4.64779 6.38567L4.59073 6.46829L4.52428 6.55098L4.46723 6.63552L4.41029 6.72006L4.35323 6.80651L4.29629 6.89296L4.23924 6.97942L4.1823 7.06778L4.13475 7.15609L4.0777 7.24539L4.03027 7.33474L3.98272 7.42589L3.93529 7.5171L3.88774 7.6083L3.8402 7.70143L3.79277 7.79449L3.74522 7.88761L3.7073 7.98259L3.65975 8.07762L3.62171 8.1726L3.58379 8.26856L3.53625 8.36545L3.50772 8.46333L3.4698 8.56115L3.43176 8.65902L3.39372 8.75875L3.3652 8.85848L3.32728 8.95827L3.29875 9.05899L3.27022 9.15965L3.24181 9.26129L3.21328 9.36393L3.19426 9.4665L3.16573 9.57006L3.14672 9.67361L3.1183 9.77717L3.09928 9.88166L3.08027 9.98713L3.06125 10.0925L3.04223 10.198L3.03272 10.3044L3.0137 10.4108L3.00431 10.5181L2.9948 10.6255L2.98529 10.7338L2.97578 10.8421L2.96627 10.9504L2.95676 11.0597V11.1689L2.94725 11.2791V11.3893V11.4995V11.6097V11.7199L2.95676 11.8301V11.9394L2.96627 12.0486L2.97578 12.1569L2.98529 12.2652L2.9948 12.3735L3.00431 12.4809L3.0137 12.5882L3.03272 12.6946L3.04223 12.801L3.06125 12.9065L3.08027 13.0119L3.09928 13.1174L3.1183 13.2219L3.14672 13.3254L3.16573 13.429L3.19426 13.5325L3.21328 13.6351L3.24181 13.7377L3.27022 13.8394L3.29875 13.94L3.32728 14.0408L3.3652 14.1405L3.39372 14.2403L3.43176 14.34L3.4698 14.4379L3.50772 14.5357L3.53625 14.6336L3.58379 14.7305L3.62171 14.8264L3.65975 14.9214L3.7073 15.0164L3.74522 15.1114L3.79277 15.2045L3.8402 15.2976L3.88774 15.3907L3.93529 15.4819L3.98272 15.5731L4.03027 15.6643L4.0777 15.7536L4.13475 15.8429L4.1823 15.9312L4.23924 16.0196L4.29629 16.1061L4.35323 16.1925L4.41029 16.279L4.46723 16.3635L4.52428 16.448L4.59073 16.5307L4.64779 16.6134L4.70473 16.696L4.77129 16.7768L4.83774 16.8575L4.90431 16.9364L4.97076 17.0152L5.0372 17.0931L5.10377 17.171L5.17022 17.247L5.23678 17.323L5.31274 17.3971L5.37931 17.4712L5.45526 17.5443L5.52171 17.6166L5.59779 17.6878L5.67375 17.7581L5.7497 17.8275L5.82578 17.8958L5.90174 17.9633L5.97769 18.0298L6.06328 18.0963L6.13924 18.1609L6.21519 18.2245L6.30078 18.2882L6.38624 18.35L6.4622 18.4108L6.54779 18.4716L6.63325 18.5305L6.71872 18.5884L6.8043 18.6454L6.88977 18.7015L6.97524 18.7565L7.07022 18.8107L7.1558 18.8639L7.24127 18.9162L7.33624 18.9675L7.42171 19.0169L7.5168 19.0653L7.60227 19.1138L7.69725 19.1603L7.79223 19.2059L7.8872 19.2506L7.98229 19.2933L8.07727 19.3361L8.17225 19.3769L8.26722 19.4168L8.3622 19.4558L8.45729 19.4937L8.56178 19.5308L8.65676 19.566L8.76124 19.6001L8.85622 19.6334L8.96071 19.6647L9.0558 19.6952L9.16028 19.7246L9.25526 19.7531L9.35975 19.7797L9.46423 19.8063L9.56872 19.83L9.6732 19.8538L9.77769 19.8757L9.88229 19.8966L9.98678 19.9156L10.0913 19.9336L10.1958 19.9507L10.3002 19.9669L10.4047 19.9811L10.5187 19.9934L10.6232 20.0049L10.7277 20.0153L10.8418 20.0248L10.9463 20.0324L11.0603 20.0381L11.1648 20.0428L11.2788 20.0467L11.3832 20.0486L11.4972 20.0495L11.6112 20.0486L11.7157 20.0467L11.8297 20.0428L11.9342 20.0381L12.0482 20.0324L12.1527 20.0248L12.2668 20.0153L12.3713 20.0049L12.4758 19.9934L12.5898 19.9811L12.6943 19.9669L12.7987 19.9507L12.9032 19.9336L13.0077 19.9156L13.1122 19.8966L13.2168 19.8757L13.3213 19.8538L13.4258 19.83L13.5303 19.8063L13.6347 19.7797L13.7392 19.7531L13.8342 19.7246L13.9387 19.6952L14.0338 19.6647L14.1383 19.6334L14.2332 19.6001L14.3377 19.566L14.4327 19.5308L14.5372 19.4937L14.6323 19.4558L14.7273 19.4168L14.8222 19.3769L14.9172 19.3361L15.0122 19.2933L15.1073 19.2506L15.2023 19.2059L15.2972 19.1603L15.3922 19.1138L15.4777 19.0653L15.5728 19.0169L15.6582 18.9675L15.7532 18.9162L15.8387 18.8639L15.9243 18.8107L16.0193 18.7565L16.1047 18.7015L16.1902 18.6454L16.2758 18.5884L16.3612 18.5305L16.4467 18.4716L16.5323 18.4108L16.6082 18.35L16.6937 18.2882L16.7793 18.2245L16.8553 18.1609L16.9312 18.0963L17.0168 18.0298L17.0928 17.9633L17.1687 17.8958L17.2448 17.8275L17.3207 17.7581L17.3967 17.6878L17.4728 17.6166L17.5392 17.5443L17.6152 17.4712L17.6817 17.3971L17.7577 17.323L17.8243 17.247L17.8907 17.171L17.9573 17.0931L18.0237 17.0152L18.0902 16.9364L18.1567 16.8575L18.2232 16.7768L18.2898 16.696L18.3467 16.6134L18.4133 16.5307L18.4702 16.448L18.5273 16.3635L18.5842 16.279L18.6413 16.1925L18.6982 16.1061L18.7553 16.0196L18.8122 15.9312L18.8597 15.8429L18.9168 15.7536L18.9642 15.6643L19.0118 15.5731L19.0592 15.4819L19.1163 15.3907L19.1543 15.2976L19.2017 15.2045L19.2493 15.1114L19.2872 15.0164L19.3347 14.9214L19.3728 14.8264L19.4107 14.7305L19.4582 14.6336L19.4868 14.5357L19.5247 14.4379L19.5627 14.34L19.6008 14.2403L19.6293 14.1405L19.6672 14.0408L19.6957 13.94L19.7243 13.8394L19.7527 13.7377L19.7812 13.6351L19.8002 13.5325L19.8288 13.429L19.8478 13.3254L19.8762 13.2219L19.8952 13.1174L19.9142 13.0119L19.9332 12.9065L19.9523 12.801L19.9618 12.6946L19.9808 12.5882L19.9902 12.4809L19.9997 12.3735L20.0092 12.2652L20.0187 12.1569L20.0282 12.0486L20.0377 11.9394V11.8301L20.0472 11.7199V11.6097V11.4995V11.3893V11.2791L20.0377 11.1689V11.0597L20.0282 10.9504L20.0187 10.8421L20.0092 10.7338L19.9997 10.6255L19.9902 10.5181L19.9808 10.4108L19.9618 10.3044L19.9523 10.198L19.9332 10.0925L19.9142 9.98713L19.8952 9.88166L19.8762 9.77717L19.8478 9.67361L19.8288 9.57006L19.8002 9.4665L19.7812 9.36393L19.7527 9.26129L19.7243 9.15965L19.6957 9.05899L19.6672 8.95827L19.6293 8.85848L19.6008 8.75875L19.5627 8.65902L19.5247 8.56115L19.4868 8.46333L19.4582 8.36545L19.4107 8.26856L19.3728 8.1726L19.3347 8.07762L19.2872 7.98259L19.2493 7.88761L19.2017 7.79449L19.1543 7.70143L19.1163 7.6083L19.0592 7.5171L19.0118 7.42589L18.9642 7.33474L18.9168 7.24539L18.8597 7.15609L18.8122 7.06778L18.7553 6.97942L18.6982 6.89296L18.6413 6.80651L18.5842 6.72006L18.5273 6.63552L18.4702 6.55098L18.4133 6.46829L18.3467 6.38567L18.2898 6.30304L18.2232 6.22227L18.1567 6.1415L18.0902 6.06264L18.0237 5.98378L17.9573 5.90591L17.8907 5.82804L17.8243 5.75202L17.7577 5.67601L17.6817 5.6019L17.6152 5.5278L17.5392 5.45468L17.4728 5.38244L17.3967 5.31123L17.3207 5.2409L17.2448 5.17155L17.1687 5.10319L17.0928 5.0357L17.0168 4.96919L16.9312 4.90274L16.8553 4.83809L16.7793 4.77448L16.6937 4.71082L16.6082 4.64906L16.5323 4.58824L16.4467 4.52747L16.3612 4.46856L16.2758 4.41064L16.1902 4.35364L16.1047 4.29757L16.0193 4.24248L15.9243 4.18833L15.8387 4.1351L15.7532 4.08286L15.6582 4.03154L15.5728 3.98214L15.4777 3.93372L15.3922 3.88525L15.2972 3.83869L15.2023 3.79311L15.1073 3.74847L15.0122 3.70573L14.9172 3.66294L14.8222 3.62212L14.7273 3.58223L14.6323 3.54326L14.5372 3.50528L14.4327 3.46823L14.3377 3.43304L14.2332 3.39888L14.1383 3.3656L14.0338 3.33429L13.9387 3.30385L13.8342 3.27439L13.7392 3.24592L13.6347 3.21931L13.5303 3.19269L13.4258 3.16898L13.3213 3.14521L13.2168 3.12335L13.1122 3.10247L13.0077 3.08345L12.9032 3.06542L12.7987 3.04832L12.6943 3.03214L12.5898 3.01793L12.4758 3.00558L12.3713 2.99416L12.2668 2.98372L12.1527 2.97421L12.0482 2.96662L11.9342 2.96093L11.8297 2.95618L11.7157 2.95235L11.6112 2.95044L11.4972 2.94951L11.3832 2.95044Z" fill="#333333"/>
<path fill-rule="evenodd" clip-rule="evenodd" d="M11.4987 15.9983C11.3687 15.9983 11.2388 15.9453 11.1488 15.8523C11.0488 15.7583 10.9987 15.6313 10.9987 15.4993C10.9987 14.3693 10.9987 11.6273 10.9987 10.4973C10.9987 10.3653 11.0488 10.2383 11.1488 10.1443C11.2388 10.0513 11.3687 9.99828 11.4987 9.99828C11.6287 9.99828 11.7587 10.0513 11.8487 10.1443C11.9487 10.2383 11.9987 10.3653 11.9987 10.4973C11.9987 11.6273 11.9987 14.3693 11.9987 15.4993C11.9987 15.6313 11.9487 15.7583 11.8487 15.8523C11.7587 15.9453 11.6287 15.9983 11.4987 15.9983ZM10.9987 7.49829C10.9987 7.22229 11.2187 6.99829 11.4987 6.99829C11.7787 6.99829 11.9987 7.22229 11.9987 7.49829C11.9987 7.77429 11.7787 7.99829 11.4987 7.99829C11.2187 7.99829 10.9987 7.77429 10.9987 7.49829Z" fill="#333333"/>
</svg>
