<svg width="24" height="24" viewBox="0 0 24 24" fill="none" xmlns="http://www.w3.org/2000/svg">
<path fill-rule="evenodd" clip-rule="evenodd" d="M18.7052 5.99828C20.1252 7.59128 20.9952 9.69428 20.9952 11.9983C20.9952 16.9653 16.9652 20.9983 11.9952 20.9983C7.02525 20.9983 2.99525 16.9653 2.99525 11.9983C2.99525 7.03128 7.02525 2.99829 11.9952 2.99829C12.5452 2.99829 12.9952 3.44629 12.9952 3.99829C12.9952 4.55029 12.5452 4.99829 11.9952 4.99829C8.13525 4.99829 4.99525 8.13528 4.99525 11.9983C4.99525 15.8613 8.13525 18.9983 11.9952 18.9983C15.8552 18.9983 18.9952 15.8613 18.9952 11.9983C18.9952 10.0923 18.2352 8.36431 16.9952 7.10131C16.9952 7.10131 16.9952 8.16028 16.9952 8.99828C16.9952 9.26328 16.8852 9.51825 16.7052 9.70525C16.5152 9.89325 16.2652 9.99828 15.9952 9.99828C15.7352 9.99828 15.4753 9.89325 15.2853 9.70525C15.1053 9.51825 14.9952 9.26328 14.9952 8.99828C14.9952 7.88828 14.9952 6.10828 14.9952 4.99829C14.9952 4.73329 15.1053 4.47832 15.2853 4.29132C15.4753 4.10332 15.7352 3.99829 15.9952 3.99829C17.1052 3.99829 18.8852 3.99829 19.9952 3.99829C20.2652 3.99829 20.5152 4.10332 20.7052 4.29132C20.8852 4.47832 20.9952 4.73329 20.9952 4.99829C20.9952 5.26329 20.8852 5.51826 20.7052 5.70526C20.5152 5.89326 20.2652 5.99828 19.9952 5.99828C19.3752 5.99828 18.7052 5.99828 18.7052 5.99828Z" fill="black"/>
<path d="M12.5 6.5V12L9.5 15" stroke="black" stroke-miterlimit="1.5" stroke-linecap="round" stroke-linejoin="round"/>
</svg>
