<svg width="24" height="24" viewBox="0 0 24 24" fill="none" xmlns="http://www.w3.org/2000/svg">
<path fill-rule="evenodd" clip-rule="evenodd" d="M4.5 4C4.22386 4 4 4.22386 4 4.5V7.5C4 7.77614 4.22386 8 4.5 8C4.77614 8 5 7.77614 5 7.5V5H20V20H5V17.5C5 17.2239 4.77614 17 4.5 17C4.22386 17 4 17.2239 4 17.5V20.5C4 20.7761 4.22386 21 4.5 21H20.5C20.7761 21 21 20.7761 21 20.5V4.5C21 4.22386 20.7761 4 20.5 4H4.5ZM11.8536 8.14645C11.6583 7.95118 11.3417 7.95118 11.1464 8.14645C10.9512 8.34171 10.9512 8.65829 11.1464 8.85355L14.2929 12H3.5C3.22386 12 3 12.2239 3 12.5C3 12.7761 3.22386 13 3.5 13H14.2929L11.1464 16.1464C10.9512 16.3417 10.9512 16.6583 11.1464 16.8536C11.3417 17.0488 11.6583 17.0488 11.8536 16.8536L15.8536 12.8536C16.0488 12.6583 16.0488 12.3417 15.8536 12.1464L11.8536 8.14645Z" fill="black"/>
</svg>
