<svg width="24" height="24" viewBox="0 0 24 24" fill="none" xmlns="http://www.w3.org/2000/svg">
<path fill-rule="evenodd" clip-rule="evenodd" d="M14.0003 17.9973C14.0003 19.0973 13.1043 19.9973 12.0003 19.9973C10.8963 19.9973 10.0003 19.0973 10.0003 17.9973C10.0003 16.8973 10.8963 15.9973 12.0003 15.9973C13.1043 15.9973 14.0003 16.8973 14.0003 17.9973ZM14.0003 5.99731C14.0003 7.09731 13.1043 7.99731 12.0003 7.99731C10.8963 7.99731 10.0003 7.09731 10.0003 5.99731C10.0003 4.89731 10.8963 3.99731 12.0003 3.99731C13.1043 3.99731 14.0003 4.89731 14.0003 5.99731ZM14.0003 11.9973C14.0003 13.0973 13.1043 13.9973 12.0003 13.9973C10.8963 13.9973 10.0003 13.0973 10.0003 11.9973C10.0003 10.8973 10.8963 9.9973 12.0003 9.9973C13.1043 9.9973 14.0003 10.8973 14.0003 11.9973Z" fill="black"/>
</svg>
