<svg width="24" height="24" viewBox="0 0 24 24" fill="none" xmlns="http://www.w3.org/2000/svg">
<path d="M6 14C4.34 14 3 12.656 3 11C3 9.344 4.34 8 6 8C6.01 8 6.02002 8 6.02002 8C6.28002 5.198 8.63 3 11.5 3C13.65 3 15.52 4.23899 16.42 6.04199C16.61 6.01399 16.8 6 17 6C19.21 6 21 7.792 21 10C21 12.208 19.21 14 17 14" stroke="black" stroke-width="2" stroke-miterlimit="5" stroke-linecap="round" stroke-linejoin="round"/>
<path fill-rule="evenodd" clip-rule="evenodd" d="M6.02002 8C6.28002 5.198 8.63 3 11.5 3C13.65 3 15.52 4.23899 16.42 6.04199C16.61 6.01399 16.8 6 17 6C19.21 6 21 7.792 21 10C21 12.208 19.21 14 17 14H6C4.34 14 3 12.656 3 11C3 9.344 4.34 8 6 8C6.01 8 6.02002 8 6.02002 8Z" fill="black" fill-opacity="0.1"/>
<path fill-rule="evenodd" clip-rule="evenodd" d="M11.2929 21.7071C11.6834 22.0976 12.3166 22.0976 12.7071 21.7071L15.7071 18.7071C16.0976 18.3166 16.0976 17.6834 15.7071 17.2929C15.3166 16.9024 14.6834 16.9024 14.2929 17.2929L13 18.5858V10C13 9.44771 12.5523 9 12 9C11.4477 9 11 9.44771 11 10V18.5858L9.70711 17.2929C9.31658 16.9024 8.68342 16.9024 8.29289 17.2929C7.90237 17.6834 7.90237 18.3166 8.29289 18.7071L11.2929 21.7071Z" fill="black"/>
</svg>
