<svg width="24" height="24" viewBox="0 0 24 24" fill="none" xmlns="http://www.w3.org/2000/svg">
<path fill-rule="evenodd" clip-rule="evenodd" d="M8.85355 7.14645C9.04882 7.34171 9.04882 7.65829 8.85355 7.85355L4.70711 12H20V7.5C20 7.22386 20.2239 7 20.5 7C20.7761 7 21 7.22386 21 7.5V12.5C21 12.7761 20.7761 13 20.5 13H4.70711L8.85355 17.1464C9.04882 17.3417 9.04882 17.6583 8.85355 17.8536C8.65829 18.0488 8.34171 18.0488 8.14645 17.8536L3.14645 12.8536C2.95118 12.6583 2.95118 12.3417 3.14645 12.1464L8.14645 7.14645C8.34171 6.95118 8.65829 6.95118 8.85355 7.14645Z" fill="black"/>
</svg>
