<svg width="24" height="24" viewBox="0 0 24 24" fill="none" xmlns="http://www.w3.org/2000/svg">
<path fill-rule="evenodd" clip-rule="evenodd" d="M12.8536 3.14645C12.6583 2.95118 12.3417 2.95118 12.1464 3.14645L8.14645 7.14645C7.95118 7.34171 7.95118 7.65829 8.14645 7.85355C8.34171 8.04882 8.65829 8.04882 8.85355 7.85355L12 4.70711V15.5C12 15.7761 12.2239 16 12.5 16C12.7761 16 13 15.7761 13 15.5V4.70711L16.1464 7.85355C16.3417 8.04882 16.6583 8.04882 16.8536 7.85355C17.0488 7.65829 17.0488 7.34171 16.8536 7.14645L12.8536 3.14645ZM6.5 11C6.22386 11 6 11.2239 6 11.5V21.5C6 21.7761 6.22386 22 6.5 22H18.5C18.7761 22 19 21.7761 19 21.5V11.5C19 11.2239 18.7761 11 18.5 11H16.5C16.2239 11 16 11.2239 16 11.5C16 11.7761 16.2239 12 16.5 12H18V21H7V12H8.5C8.77614 12 9 11.7761 9 11.5C9 11.2239 8.77614 11 8.5 11H6.5Z" fill="black"/>
</svg>
