<svg width="24" height="24" viewBox="0 0 24 24" fill="none" xmlns="http://www.w3.org/2000/svg">
<path fill-rule="evenodd" clip-rule="evenodd" d="M12.1464 4.14645C12.3417 3.95118 12.6583 3.95118 12.8536 4.14645L17.8536 9.14645C18.0488 9.34171 18.0488 9.65829 17.8536 9.85355C17.6583 10.0488 17.3417 10.0488 17.1464 9.85355L13 5.70711V16.5C13 16.7761 12.7761 17 12.5 17C12.2239 17 12 16.7761 12 16.5V5.70711L7.85355 9.85355C7.65829 10.0488 7.34171 10.0488 7.14645 9.85355C6.95118 9.65829 6.95118 9.34171 7.14645 9.14645L12.1464 4.14645ZM3 20.5C3 20.2239 3.22386 20 3.5 20H21.5C21.7761 20 22 20.2239 22 20.5C22 20.7761 21.7761 21 21.5 21H3.5C3.22386 21 3 20.7761 3 20.5Z" fill="black"/>
</svg>
