<svg width="24" height="24" viewBox="0 0 24 24" fill="none" xmlns="http://www.w3.org/2000/svg">
<path fill-rule="evenodd" clip-rule="evenodd" d="M8.99841 5.49878C8.99841 5.77478 8.77841 5.99878 8.49841 5.99878C7.90841 5.99878 5.99841 5.99878 5.99841 5.99878V18.9988H18.9984C18.9984 18.9988 18.9984 17.0908 18.9984 16.4988C18.9984 16.3658 19.0484 16.2388 19.1484 16.1448C19.2384 16.0518 19.3684 15.9988 19.4984 15.9988C19.6284 15.9988 19.7584 16.0518 19.8484 16.1448C19.9484 16.2388 19.9984 16.3658 19.9984 16.4988C19.9984 16.9068 19.9984 18.4948 19.9984 18.9988C19.9984 19.5507 19.5484 19.9987 18.9984 19.9987C16.2684 19.9987 8.72841 19.9987 5.99841 19.9987C5.73841 19.9987 5.47845 19.8937 5.28845 19.7057C5.10845 19.5187 4.99841 19.2638 4.99841 18.9988C4.99841 16.2718 4.99841 8.72577 4.99841 5.99878C4.99841 5.73378 5.10845 5.47881 5.28845 5.29181C5.47845 5.10381 5.73841 4.99878 5.99841 4.99878C6.49841 4.99878 8.08841 4.99878 8.49841 4.99878C8.77841 4.99878 8.99841 5.22278 8.99841 5.49878ZM11.9984 5.4978C11.9984 5.2218 12.2184 4.99878 12.4984 4.99878C13.9284 4.99878 17.0684 4.99878 18.9984 4.99878C19.2584 4.99878 19.5184 5.10381 19.6984 5.29181C19.8884 5.47881 19.9984 5.73378 19.9984 5.99878C19.9984 7.92077 19.9984 11.0667 19.9984 12.4997C19.9984 12.7757 19.7684 12.9988 19.4984 12.9988C19.2184 12.9988 18.9984 12.7757 18.9984 12.4997C18.9984 10.8537 18.9984 6.70379 18.9984 6.70379C18.9984 6.70379 12.9184 12.7618 11.3584 14.3188C11.1584 14.5188 10.8384 14.5187 10.6384 14.3177C10.5484 14.2257 10.4884 14.1018 10.4984 13.9728C10.4984 13.8438 10.5484 13.7198 10.6384 13.6288C12.1684 12.1008 18.2884 5.99878 18.2884 5.99878C18.2884 5.99878 14.1384 5.99878 12.4984 5.99878C12.3584 5.99878 12.2384 5.94578 12.1384 5.85278C12.0484 5.75878 11.9984 5.63175 11.9984 5.49975V5.4978Z" fill="black"/>
</svg>
