<svg width="24" height="24" viewBox="0 0 24 24" fill="none" xmlns="http://www.w3.org/2000/svg">
<path d="M3 6.5C3 6.22388 3.22385 6 3.5 6H20.5C20.7762 6 21 6.22388 21 6.5C21 6.77612 20.7762 7 20.5 7H3.5C3.22385 7 3 6.77612 3 6.5Z" fill="black"/>
<path d="M3 12.5C3 12.2239 3.22385 12 3.5 12H20.5C20.7762 12 21 12.2239 21 12.5C21 12.7761 20.7762 13 20.5 13H3.5C3.22385 13 3 12.7761 3 12.5Z" fill="black"/>
<path d="M3.5 18C3.22385 18 3 18.2239 3 18.5C3 18.7761 3.22385 19 3.5 19H20.5C20.7762 19 21 18.7761 21 18.5C21 18.2239 20.7762 18 20.5 18H3.5Z" fill="black"/>
</svg>
