<svg width="24" height="24" viewBox="0 0 24 24" fill="none" xmlns="http://www.w3.org/2000/svg">
<path fill-rule="evenodd" clip-rule="evenodd" d="M11.9972 15.9988C12.5472 15.9988 12.9972 16.4468 12.9972 16.9988C12.9972 17.5508 12.5472 17.9988 11.9972 17.9988C11.4472 17.9988 10.9972 17.5508 10.9972 16.9988C10.9972 16.4468 11.4472 15.9988 11.9972 15.9988ZM11.9972 10.9988C12.5472 10.9988 12.9972 11.4468 12.9972 11.9988C12.9972 12.5508 12.5472 12.9988 11.9972 12.9988C11.4472 12.9988 10.9972 12.5508 10.9972 11.9988C10.9972 11.4468 11.4472 10.9988 11.9972 10.9988ZM11.9972 5.99878C12.5472 5.99878 12.9972 6.44678 12.9972 6.99878C12.9972 7.55078 12.5472 7.99878 11.9972 7.99878C11.4472 7.99878 10.9972 7.55078 10.9972 6.99878C10.9972 6.44678 11.4472 5.99878 11.9972 5.99878Z" fill="#333333"/>
</svg>
