<svg width="24" height="24" viewBox="0 0 24 24" fill="none" xmlns="http://www.w3.org/2000/svg">
<path fill-rule="evenodd" clip-rule="evenodd" d="M4 3C3.44772 3 3 3.44775 3 4V7C3 7.55225 3.44772 8 4 8C4.55228 8 5 7.55225 5 7V5H19V19H5V17C5 16.4478 4.55228 16 4 16C3.44772 16 3 16.4478 3 17V20C3 20.5522 3.44772 21 4 21H20C20.5523 21 21 20.5522 21 20V4C21 3.44775 20.5523 3 20 3H4ZM11.7071 7.29297C11.3166 6.90234 10.6834 6.90234 10.2929 7.29297C9.90237 7.68335 9.90237 8.31665 10.2929 8.70703L12.5858 11H3C2.44772 11 2 11.4478 2 12C2 12.5522 2.44772 13 3 13H12.5858L10.2929 15.293C9.90237 15.6833 9.90237 16.3167 10.2929 16.707C10.6834 17.0977 11.3166 17.0977 11.7071 16.707L15.7071 12.707C16.0976 12.3167 16.0976 11.6833 15.7071 11.293L11.7071 7.29297Z" fill="black"/>
</svg>
