<svg width="24" height="24" viewBox="0 0 24 24" fill="none" xmlns="http://www.w3.org/2000/svg">
<path fill-rule="evenodd" clip-rule="evenodd" d="M20.9965 16.9983C21.2665 16.9983 21.5165 17.1033 21.7065 17.2913C21.8865 17.4783 21.9965 17.7333 21.9965 17.9983C21.9965 18.2633 21.8865 18.5182 21.7065 18.7052C21.5165 18.8932 21.2665 18.9983 20.9965 18.9983C17.5865 18.9983 6.40655 18.9983 2.99655 18.9983C2.73655 18.9983 2.47659 18.8932 2.28659 18.7052C2.10659 18.5182 1.99655 18.2633 1.99655 17.9983C1.99655 17.7333 2.10659 17.4783 2.28659 17.2913C2.47659 17.1033 2.73655 16.9983 2.99655 16.9983C6.40655 16.9983 17.5865 16.9983 20.9965 16.9983ZM20.9965 10.9983C21.2665 10.9983 21.5165 11.1033 21.7065 11.2913C21.8865 11.4783 21.9965 11.7333 21.9965 11.9983C21.9965 12.2633 21.8865 12.5182 21.7065 12.7052C21.5165 12.8932 21.2665 12.9983 20.9965 12.9983C17.5865 12.9983 6.40655 12.9983 2.99655 12.9983C2.73655 12.9983 2.47659 12.8932 2.28659 12.7052C2.10659 12.5182 1.99655 12.2633 1.99655 11.9983C1.99655 11.7333 2.10659 11.4783 2.28659 11.2913C2.47659 11.1033 2.73655 10.9983 2.99655 10.9983C6.40655 10.9983 17.5865 10.9983 20.9965 10.9983ZM20.9965 4.99829C21.2665 4.99829 21.5165 5.10332 21.7065 5.29132C21.8865 5.47832 21.9965 5.73329 21.9965 5.99829C21.9965 6.26329 21.8865 6.51826 21.7065 6.70526C21.5165 6.89326 21.2665 6.99829 20.9965 6.99829C17.5865 6.99829 6.40655 6.99829 2.99655 6.99829C2.73655 6.99829 2.47659 6.89326 2.28659 6.70526C2.10659 6.51826 1.99655 6.26329 1.99655 5.99829C1.99655 5.73329 2.10659 5.47832 2.28659 5.29132C2.47659 5.10332 2.73655 4.99829 2.99655 4.99829C6.40655 4.99829 17.5865 4.99829 20.9965 4.99829Z" fill="#333333"/>
</svg>
