<svg width="24" height="24" viewBox="0 0 24 24" fill="none" xmlns="http://www.w3.org/2000/svg">
<path fill-rule="evenodd" clip-rule="evenodd" d="M11.5023 1.99878C16.7453 1.99878 21.0023 6.25577 21.0023 11.4988C21.0023 16.7417 16.7453 20.9987 11.5023 20.9987C6.25931 20.9987 2.00232 16.7417 2.00232 11.4988C2.00232 6.25577 6.25931 1.99878 11.5023 1.99878ZM11.5023 2.99878C16.1933 2.99878 20.0023 6.80777 20.0023 11.4988C20.0023 16.1898 16.1933 19.9987 11.5023 19.9987C6.81131 19.9987 3.00231 16.1898 3.00231 11.4988C3.00231 6.80777 6.81131 2.99878 11.5023 2.99878Z" fill="#333333"/>
<path d="M11.5 17C11.2238 17 11 16.7761 11 16.5C11 16.2239 11.2238 16 11.5 16C11.7761 16 12 16.2239 12 16.5C12 16.7761 11.7761 17 11.5 17Z" fill="#333333"/>
<path d="M8.99782 8.99902C8.99782 7.61902 10.1178 6.49902 11.4978 6.49902C12.8778 6.49902 13.9978 7.61902 13.9978 8.99902C13.9978 10.379 12.8778 11.499 11.4978 11.499V13.499" stroke="#333333" stroke-miterlimit="100" stroke-linecap="round" stroke-linejoin="round"/>
</svg>
