<svg width="24" height="24" viewBox="0 0 24 24" fill="none" xmlns="http://www.w3.org/2000/svg">
<path fill-rule="evenodd" clip-rule="evenodd" d="M15.9952 9.49877C15.9952 9.77477 15.7752 9.99877 15.4952 9.99877C15.3652 9.99877 15.2353 9.94577 15.1453 9.85277C15.0453 9.75877 14.9952 9.63177 14.9952 9.49877C14.9952 8.68477 14.9952 7.05677 14.9952 5.99878C14.9952 5.73378 15.1053 5.47881 15.2853 5.29181C15.4753 5.10381 15.7352 4.99878 15.9952 4.99878C17.0552 4.99878 18.6852 4.99878 19.4952 4.99878C19.6252 4.99878 19.7552 5.05177 19.8452 5.14477C19.9452 5.23877 19.9952 5.36578 19.9952 5.49878C19.9952 5.77478 19.7752 5.99878 19.4952 5.99878C18.7152 5.99878 17.2853 5.99878 17.2853 5.99878C18.9453 7.46477 19.9952 9.61077 19.9952 11.9988C19.9952 16.4138 16.4052 19.9987 11.9952 19.9987C7.58525 19.9987 3.99525 16.4138 3.99525 11.9988C3.99525 7.58377 7.58525 3.99878 11.9952 3.99878C11.9952 3.99878 12.2452 3.99878 12.4952 3.99878C12.7752 3.99878 12.9952 4.22278 12.9952 4.49878C12.9952 4.77478 12.7752 4.99878 12.4952 4.99878C12.2452 4.99878 11.9952 4.99878 11.9952 4.99878C8.13525 4.99878 4.99525 8.13577 4.99525 11.9988C4.99525 15.8618 8.13525 18.9987 11.9952 18.9987C15.8552 18.9987 18.9952 15.8618 18.9952 11.9988C18.9952 9.62177 17.8052 7.52075 15.9952 6.25476C15.9952 6.25476 15.9952 8.47877 15.9952 9.49877ZM11.9952 12.2918C11.9952 12.2918 11.9952 7.98777 11.9952 6.49877C11.9952 6.36577 12.0453 6.23877 12.1453 6.14477C12.2353 6.05177 12.3652 5.99878 12.4952 5.99878C12.6252 5.99878 12.7552 6.05177 12.8452 6.14477C12.9452 6.23877 12.9952 6.36577 12.9952 6.49877C12.9952 7.77177 12.9952 11.1178 12.9952 12.2918C12.9952 12.5568 12.8852 12.8108 12.7052 12.9988C12.2452 13.4608 11.3452 14.3558 10.8452 14.8528C10.6552 15.0478 10.3353 15.0478 10.1453 14.8528C9.94527 14.6568 9.94527 14.3408 10.1453 14.1448C10.7653 13.5218 11.9952 12.2918 11.9952 12.2918Z" fill="black"/>
</svg>
