<svg width="24" height="24" viewBox="0 0 24 24" fill="none" xmlns="http://www.w3.org/2000/svg">
<path fill-rule="evenodd" clip-rule="evenodd" d="M6.02002 8C6.28002 5.198 8.63 3 11.5 3C13.65 3 15.52 4.23899 16.42 6.04199C16.61 6.01399 16.8 6 17 6C19.21 6 21 7.792 21 10C21 12.208 19.21 14 17 14H6C4.34 14 3 12.656 3 11C3 9.344 4.34 8 6 8C6.01 8 6.02002 8 6.02002 8Z" fill="black" fill-opacity="0.1"/>
<path d="M6.02002 9C6.53651 9 6.96802 8.60669 7.01575 8.09241C7.22873 5.797 9.15411 4 11.5 4C13.2576 4 14.7885 5.01257 15.5253 6.48865C15.7184 6.87537 16.1382 7.09436 16.5658 7.03125C16.7068 7.0105 16.848 7 17 7C18.6574 7 20 8.34399 20 10C20 11.656 18.6574 13 17 13H16.5C16.2239 13 16 13.2239 16 13.5V13.5C16 13.7761 16.2239 14 16.5 14H17C19.21 14 21 12.208 21 10C21 7.79199 19.21 6 17 6C16.8 6 16.61 6.01404 16.42 6.04199C15.5201 4.23901 13.65 3 11.5 3C8.63 3 6.28001 5.198 6.02002 8H6C4.34 8 3 9.34399 3 11C3 12.656 4.34 14 6 14H6.5C6.77614 14 7 13.7761 7 13.5V13.5C7 13.2239 6.77614 13 6.5 13H6C4.89316 13 4 12.1046 4 11C4 9.89539 4.89362 9 6.00047 9H6.02002Z" fill="black"/>
<path fill-rule="evenodd" clip-rule="evenodd" d="M11.1464 19.8536C11.3417 20.0488 11.6583 20.0488 11.8536 19.8536L14.8536 16.8536C15.0488 16.6583 15.0488 16.3417 14.8536 16.1464C14.6583 15.9512 14.3417 15.9512 14.1464 16.1464L12 18.2929V9.5C12 9.22386 11.7761 9 11.5 9C11.2239 9 11 9.22386 11 9.5V18.2929L8.85355 16.1464C8.65829 15.9512 8.34171 15.9512 8.14645 16.1464C7.95118 16.3417 7.95118 16.6583 8.14645 16.8536L11.1464 19.8536Z" fill="black"/>
</svg>
