<svg width="24" height="24" viewBox="0 0 24 24" fill="none" xmlns="http://www.w3.org/2000/svg">
<path fill-rule="evenodd" clip-rule="evenodd" d="M12 20C16.4183 20 20 16.4182 20 12C20 7.58179 16.4183 4 12 4C7.58172 4 4 7.58179 4 12C4 16.4182 7.58172 20 12 20ZM12 22C17.5229 22 22 17.5229 22 12C22 6.47705 17.5229 2 12 2C6.47715 2 2 6.47705 2 12C2 17.5229 6.47715 22 12 22ZM11 8C11 7.44775 11.4477 7 12 7C12.5523 7 13 7.44775 13 8C13 8.55225 12.5523 9 12 9C11.4477 9 11 8.55225 11 8ZM12 11C11.4477 11 11 11.4478 11 12V16C11 16.5522 11.4477 17 12 17C12.5523 17 13 16.5522 13 16V12C13 11.4478 12.5523 11 12 11Z" fill="black"/>
</svg>
