<svg width="24" height="24" viewBox="0 0 24 24" fill="none" xmlns="http://www.w3.org/2000/svg">
<path fill-rule="evenodd" clip-rule="evenodd" d="M12.5 3C12.7761 3 13 3.22386 13 3.5V15.2929L17.1464 11.1464C17.3417 10.9512 17.6583 10.9512 17.8536 11.1464C18.0488 11.3417 18.0488 11.6583 17.8536 11.8536L12.8536 16.8536C12.6583 17.0488 12.3417 17.0488 12.1464 16.8536L7.14645 11.8536C6.95118 11.6583 6.95118 11.3417 7.14645 11.1464C7.34171 10.9512 7.65829 10.9512 7.85355 11.1464L12 15.2929V3.5C12 3.22386 12.2239 3 12.5 3ZM3 20.5C3 20.2239 3.22386 20 3.5 20H21.5C21.7761 20 22 20.2239 22 20.5C22 20.7761 21.7761 21 21.5 21H3.5C3.22386 21 3 20.7761 3 20.5Z" fill="black"/>
</svg>
