<svg width="24" height="24" viewBox="0 0 24 24" fill="none" xmlns="http://www.w3.org/2000/svg">
<path fill-rule="evenodd" clip-rule="evenodd" d="M11.2929 3.29289C11.6834 2.90237 12.3166 2.90237 12.7071 3.29289L17.7071 8.29289C18.0976 8.68342 18.0976 9.31658 17.7071 9.70711C17.3166 10.0976 16.6834 10.0976 16.2929 9.70711L13 6.41421V16C13 16.5523 12.5523 17 12 17C11.4477 17 11 16.5523 11 16V6.41421L7.70711 9.70711C7.31658 10.0976 6.68342 10.0976 6.29289 9.70711C5.90237 9.31658 5.90237 8.68342 6.29289 8.29289L11.2929 3.29289ZM2 20C2 19.4477 2.44772 19 3 19H21C21.5523 19 22 19.4477 22 20C22 20.5523 21.5523 21 21 21H3C2.44772 21 2 20.5523 2 20Z" fill="black"/>
</svg>
