<svg width="24" height="24" viewBox="0 0 24 24" fill="none" xmlns="http://www.w3.org/2000/svg">
<path fill-rule="evenodd" clip-rule="evenodd" d="M12.7071 2.29289C12.3166 1.90237 11.6834 1.90237 11.2929 2.29289L7.29289 6.29289C6.90237 6.68342 6.90237 7.31658 7.29289 7.70711C7.68342 8.09763 8.31658 8.09763 8.70711 7.70711L11 5.41421V15C11 15.5523 11.4477 16 12 16C12.5523 16 13 15.5523 13 15V5.41421L15.2929 7.70711C15.6834 8.09763 16.3166 8.09763 16.7071 7.70711C17.0976 7.31658 17.0976 6.68342 16.7071 6.29289L12.7071 2.29289ZM6 10C5.44772 10 5 10.4477 5 11V21C5 21.5523 5.44772 22 6 22H18C18.5523 22 19 21.5523 19 21V11C19 10.4477 18.5523 10 18 10H17C16.4477 10 16 10.4477 16 11C16 11.5523 16.4477 12 17 12V20H7V12C7.55228 12 8 11.5523 8 11C8 10.4477 7.55228 10 7 10H6Z" fill="black"/>
</svg>
