<svg width="24" height="24" viewBox="0 0 24 24" fill="none" xmlns="http://www.w3.org/2000/svg">
<path fill-rule="evenodd" clip-rule="evenodd" d="M12.5 4C12.7761 4 13 4.22386 13 4.5V16.2929L17.1464 12.1464C17.3417 11.9512 17.6583 11.9512 17.8536 12.1464C18.0488 12.3417 18.0488 12.6583 17.8536 12.8536L12.8536 17.8536C12.6583 18.0488 12.3417 18.0488 12.1464 17.8536L7.14645 12.8536C6.95118 12.6583 6.95118 12.3417 7.14645 12.1464C7.34171 11.9512 7.65829 11.9512 7.85355 12.1464L12 16.2929V4.5C12 4.22386 12.2239 4 12.5 4ZM3 21.5C3 21.2239 3.22386 21 3.5 21H21.5C21.7761 21 22 21.2239 22 21.5C22 21.7761 21.7761 22 21.5 22H3.5C3.22386 22 3 21.7761 3 21.5Z" fill="black"/>
</svg>
