<svg width="24" height="24" viewBox="0 0 24 24" fill="none" xmlns="http://www.w3.org/2000/svg">
<path fill-rule="evenodd" clip-rule="evenodd" d="M12.1287 1.99927L12.2587 2.00128L12.3888 2.00531L12.5087 2.01129L12.6388 2.01831L12.7688 2.02728L12.8988 2.03827L13.0188 2.05029L13.1488 2.06329L13.2688 2.07831L13.3988 2.09528L13.5188 2.11328L13.6488 2.1333L13.7688 2.1543L13.8888 2.17731L14.0087 2.20129L14.1388 2.22729L14.2587 2.25427L14.3787 2.28326L14.4987 2.31329L14.6187 2.34528L14.7387 2.3783L14.8587 2.41229L14.9687 2.4483L15.0887 2.48529L15.2087 2.52429L15.3187 2.56427L15.4387 2.60528L15.5488 2.64831L15.6588 2.69226L15.7788 2.73828L15.8888 2.7843L15.9987 2.83227L16.1087 2.88226L16.2187 2.93329L16.3287 2.98529L16.4387 3.03827L16.5488 3.09326L16.6588 3.14929L16.7688 3.2063L16.8687 3.26428L16.9787 3.32428L17.0787 3.38531L17.1788 3.44726L17.2888 3.51031L17.3887 3.57428L17.4887 3.64032L17.5887 3.70727L17.6887 3.77526L17.7888 3.8443L17.8787 3.9143L17.9787 3.98626L18.0787 4.05828L18.1688 4.13226L18.2688 4.20727L18.3587 4.28326L18.4487 4.36029L18.5388 4.43829L18.6287 4.51727L18.7187 4.59728L18.8088 4.67828L18.8988 4.76129L18.9787 4.84429L19.0687 4.92828L19.1488 5.01428L19.2387 5.10027L19.3187 5.18731L19.3988 5.2763L19.4787 5.36529L19.5588 5.45525L19.6387 5.54626L19.7087 5.63927L19.7888 5.73229L19.8687 5.82629L19.9387 5.92126L20.0087 6.01629L20.0787 6.11327L20.1488 6.2113L20.2187 6.30926L20.2888 6.40929L20.3587 6.50927L20.4188 6.61028L20.4887 6.71227L20.5488 6.81426L20.6087 6.91826L20.6688 7.02227L20.7287 7.12731L20.7888 7.23327L20.8487 7.34026L20.8988 7.44725L20.9587 7.55529L21.0087 7.6643L21.0687 7.77428L21.1187 7.88427L21.1688 7.99529L21.2087 8.10729L21.2587 8.22026L21.3088 8.3333L21.3487 8.44725L21.3887 8.56127L21.4288 8.67626L21.4687 8.79228L21.5087 8.90929L21.5488 9.02629L21.5887 9.1433L21.6187 9.26225L21.6488 9.38127L21.6788 9.50029L21.7087 9.62028L21.7387 9.74126L21.7688 9.86229L21.7988 9.9843L21.8187 10.1062L21.8387 10.2293L21.8687 10.3523L21.8787 10.4763L21.8988 10.6003L21.9188 10.7253L21.9288 10.8503L21.9487 10.9763L21.9587 11.1023L21.9687 11.2293L21.9787 11.3562L21.9887 11.4843V11.6123L21.9987 11.7403V11.8692V11.9983V12.1273V12.2563L21.9887 12.3843V12.5122L21.9787 12.6403L21.9687 12.7673L21.9587 12.8943L21.9487 13.0202L21.9288 13.1463L21.9188 13.2713L21.8988 13.3963L21.8787 13.5202L21.8687 13.6443L21.8387 13.7672L21.8187 13.8903L21.7988 14.0122L21.7688 14.1343L21.7387 14.2553L21.7087 14.3763L21.6788 14.4963L21.6488 14.6153L21.6187 14.7343L21.5887 14.8532L21.5488 14.9702L21.5087 15.0873L21.4687 15.2043L21.4288 15.3203L21.3887 15.4353L21.3487 15.5493L21.3088 15.6632L21.2587 15.7763L21.2087 15.8893L21.1688 16.0013L21.1187 16.1123L21.0687 16.2223L21.0087 16.3322L20.9587 16.4413L20.8988 16.5493L20.8487 16.6563L20.7888 16.7633L20.7287 16.8692L20.6688 16.9743L20.6087 17.0783L20.5488 17.1823L20.4887 17.2843L20.4188 17.3863L20.3587 17.4873L20.2888 17.5872L20.2187 17.6873L20.1488 17.7852L20.0787 17.8833L20.0087 17.9803L19.9387 18.0753L19.8687 18.1703L19.7888 18.2642L19.7087 18.3573L19.6387 18.4503L19.5588 18.5413L19.4787 18.6313L19.3988 18.7202L19.3187 18.8092L19.2387 18.8963L19.1488 18.9823L19.0687 19.0683L18.9787 19.1522L18.8988 19.2353L18.8088 19.3183L18.7187 19.3993L18.6287 19.4793L18.5388 19.5583L18.4487 19.6363L18.3587 19.7133L18.2688 19.7893L18.1688 19.8643L18.0787 19.9383L17.9787 20.0103L17.8787 20.0822L17.7888 20.1522L17.6887 20.2213L17.5887 20.2893L17.4887 20.3562L17.3887 20.4223L17.2888 20.4862L17.1788 20.5493L17.0787 20.6112L16.9787 20.6723L16.8687 20.7323L16.7688 20.7902L16.6588 20.8473L16.5488 20.9033L16.4387 20.9583L16.3287 21.0113L16.2187 21.0633L16.1087 21.1143L15.9987 21.1643L15.8888 21.2122L15.7788 21.2583L15.6588 21.3043L15.5488 21.3482L15.4387 21.3913L15.3187 21.4323L15.2087 21.4723L15.0887 21.5113L14.9687 21.5482L14.8587 21.5842L14.7387 21.6182L14.6187 21.6513L14.4987 21.6832L14.3787 21.7133L14.2587 21.7423L14.1388 21.7692L14.0087 21.7952L13.8888 21.8192L13.7688 21.8422L13.6488 21.8632L13.5188 21.8833L13.3988 21.9013L13.2688 21.9182L13.1488 21.9332L13.0188 21.9462L12.8988 21.9583L12.7688 21.9693L12.6388 21.9782L12.5087 21.9853L12.3888 21.9912L12.2587 21.9953L12.1287 21.9973L11.9987 21.9983L11.8687 21.9973L11.7387 21.9953L11.6087 21.9912L11.4887 21.9853L11.3587 21.9782L11.2287 21.9693L11.0987 21.9583L10.9787 21.9462L10.8487 21.9332L10.7287 21.9182L10.5987 21.9013L10.4787 21.8833L10.3487 21.8632L10.2287 21.8422L10.1087 21.8192L9.98873 21.7952L9.85873 21.7692L9.73873 21.7423L9.61874 21.7133L9.49874 21.6832L9.37875 21.6513L9.25875 21.6182L9.13876 21.5842L9.02877 21.5482L8.90878 21.5113L8.78878 21.4723L8.6788 21.4323L8.5588 21.3913L8.44869 21.3482L8.33871 21.3043L8.21871 21.2583L8.10873 21.2122L7.99874 21.1643L7.88876 21.1143L7.77877 21.0633L7.66879 21.0113L7.5588 20.9583L7.4487 20.9033L7.33871 20.8473L7.23873 20.7902L7.12875 20.7323L7.01876 20.6723L6.91879 20.6112L6.81869 20.5493L6.70871 20.4862L6.60873 20.4223L6.50875 20.3562L6.40878 20.2893L6.3088 20.2213L6.20871 20.1522L6.11874 20.0822L6.01876 20.0103L5.91879 19.9383L5.8287 19.8643L5.72873 19.7893L5.63876 19.7133L5.54879 19.6363L5.45871 19.5583L5.36874 19.4793L5.27878 19.3993L5.18869 19.3183L5.09872 19.2353L5.01877 19.1522L4.9288 19.0683L4.84872 18.9823L4.75876 18.8963L4.6788 18.8092L4.59872 18.7202L4.51877 18.6313L4.43869 18.5413L4.35873 18.4503L4.28879 18.3573L4.20871 18.2642L4.12875 18.1703L4.05881 18.0753L3.98874 17.9803L3.91879 17.8833L3.84872 17.7852L3.77878 17.6873L3.70871 17.5872L3.63876 17.4873L3.5787 17.3863L3.50876 17.2843L3.4487 17.1823L3.38876 17.0783L3.3287 16.9743L3.26877 16.8692L3.20871 16.7633L3.14877 16.6563L3.09872 16.5493L3.03879 16.4413L2.98874 16.3322L2.9288 16.2223L2.87875 16.1123L2.8287 16.0013L2.78879 15.8893L2.73874 15.7763L2.68869 15.6632L2.64877 15.5493L2.60873 15.4353L2.56869 15.3203L2.52878 15.2043L2.48874 15.0873L2.4487 14.9702L2.40878 14.8532L2.37875 14.7343L2.34872 14.6153L2.31869 14.4963L2.28879 14.3763L2.25876 14.2553L2.22873 14.1343L2.1987 14.0122L2.1788 13.8903L2.15878 13.7672L2.12875 13.6443L2.11874 13.5202L2.09872 13.3963L2.0787 13.2713L2.0687 13.1463L2.0488 13.0202L2.03879 12.8943L2.02878 12.7673L2.01877 12.6403L2.00876 12.5122V12.3843L1.99875 12.2563V12.1273V11.9983V11.8692V11.7403L2.00876 11.6123V11.4843L2.01877 11.3562L2.02878 11.2293L2.03879 11.1023L2.0488 10.9763L2.0687 10.8503L2.0787 10.7253L2.09872 10.6003L2.11874 10.4763L2.12875 10.3523L2.15878 10.2293L2.1788 10.1062L2.1987 9.9843L2.22873 9.86229L2.25876 9.74126L2.28879 9.62028L2.31869 9.50029L2.34872 9.38127L2.37875 9.26225L2.40878 9.1433L2.4487 9.02629L2.48874 8.90929L2.52878 8.79228L2.56869 8.67626L2.60873 8.56127L2.64877 8.44725L2.68869 8.3333L2.73874 8.22026L2.78879 8.10729L2.8287 7.99529L2.87875 7.88427L2.9288 7.77428L2.98874 7.6643L3.03879 7.55529L3.09872 7.44725L3.14877 7.34026L3.20871 7.23327L3.26877 7.12731L3.3287 7.02227L3.38876 6.91826L3.4487 6.81426L3.50876 6.71227L3.5787 6.61028L3.63876 6.50927L3.70871 6.40929L3.77878 6.30926L3.84872 6.2113L3.91879 6.11327L3.98874 6.01629L4.05881 5.92126L4.12875 5.82629L4.20871 5.73229L4.28879 5.63927L4.35873 5.54626L4.43869 5.45525L4.51877 5.36529L4.59872 5.2763L4.6788 5.18731L4.75876 5.10027L4.84872 5.01428L4.9288 4.92828L5.01877 4.84429L5.09872 4.76129L5.18869 4.67828L5.27878 4.59728L5.36874 4.51727L5.45871 4.43829L5.54879 4.36029L5.63876 4.28326L5.72873 4.20727L5.8287 4.13226L5.91879 4.05828L6.01876 3.98626L6.11874 3.9143L6.20871 3.8443L6.3088 3.77526L6.40878 3.70727L6.50875 3.64032L6.60873 3.57428L6.70871 3.51031L6.81869 3.44726L6.91879 3.38531L7.01876 3.32428L7.12875 3.26428L7.23873 3.2063L7.33871 3.14929L7.4487 3.09326L7.5588 3.03827L7.66879 2.98529L7.77877 2.93329L7.88876 2.88226L7.99874 2.83227L8.10873 2.7843L8.21871 2.73828L8.33871 2.69226L8.44869 2.64831L8.5588 2.60528L8.6788 2.56427L8.78878 2.52429L8.90878 2.48529L9.02877 2.4483L9.13876 2.41229L9.25875 2.3783L9.37875 2.34528L9.49874 2.31329L9.61874 2.28326L9.73873 2.25427L9.85873 2.22729L9.98873 2.20129L10.1087 2.17731L10.2287 2.1543L10.3487 2.1333L10.4787 2.11328L10.5987 2.09528L10.7287 2.07831L10.8487 2.06329L10.9787 2.05029L11.0987 2.03827L11.2287 2.02728L11.3587 2.01831L11.4887 2.01129L11.6087 2.00531L11.7387 2.00128L11.8687 1.99927L11.9987 1.99829L12.1287 1.99927ZM7.51876 19.8062L7.61874 19.8593L7.7087 19.9123L7.8088 19.9633L7.89877 20.0133L7.99874 20.0633L8.09872 20.1103L8.19869 20.1573L8.29879 20.2033L8.39877 20.2473L8.49874 20.2913L8.59872 20.3333L8.69869 20.3742L8.79879 20.4132L8.90878 20.4522L9.00875 20.4893L9.11874 20.5252L9.21871 20.5603L9.3287 20.5932L9.4288 20.6253L9.53878 20.6563L9.63876 20.6862L9.74874 20.7152L9.85873 20.7423L9.96871 20.7672L10.0787 20.7923L10.1887 20.8153L10.2988 20.8372L10.4088 20.8573L10.5188 20.8762L10.6287 20.8942L10.7387 20.9113L10.8487 20.9262L10.9687 20.9392L10.8587 20.9262L10.7387 20.9113L10.6287 20.8942L10.5188 20.8762L10.4088 20.8573L10.2988 20.8372L10.1887 20.8153L10.0787 20.7923L9.96871 20.7672L9.85873 20.7412L9.74874 20.7152L9.63876 20.6862L9.53878 20.6563L9.4288 20.6253L9.3287 20.5932L9.21871 20.5592L9.11874 20.5252L9.00875 20.4893L8.90878 20.4522L8.79879 20.4132L8.69869 20.3742L8.59872 20.3322L8.49874 20.2902L8.39877 20.2473L8.29879 20.2022L8.19869 20.1573L8.09872 20.1103L7.99874 20.0612L7.89877 20.0122L7.8088 19.9622L7.7087 19.9102L7.61874 19.8582L7.51876 19.8062ZM16.3787 19.8582L16.2888 19.9102L16.1887 19.9622L16.0987 20.0122L15.9987 20.0612L15.8988 20.1093L15.7988 20.1563L15.6987 20.2022L15.5987 20.2473L15.4987 20.2902L15.3988 20.3322L15.2988 20.3733L15.1987 20.4132L15.0887 20.4513L14.9887 20.4893L14.8787 20.5252L14.7788 20.5592L14.6688 20.5932L14.5687 20.6253L14.4587 20.6563L14.3587 20.6862L14.2487 20.7143L14.1388 20.7412L14.0288 20.7672L13.9188 20.7923L13.8088 20.8153L13.6987 20.8372L13.5887 20.8573L13.4787 20.8762L13.3687 20.8942L13.2587 20.9113L13.1388 20.9262L13.0288 20.9392L13.1488 20.9262L13.2587 20.9113L13.3687 20.8942L13.4787 20.8762L13.5887 20.8573L13.6987 20.8372L13.8088 20.8153L13.9188 20.7923L14.0288 20.7672L14.1388 20.7423L14.2487 20.7143L14.3587 20.6862L14.4587 20.6563L14.5687 20.6253L14.6688 20.5932L14.7788 20.5603L14.8787 20.5252L14.9887 20.4893L15.0887 20.4513L15.1987 20.4132L15.2988 20.3733L15.3988 20.3333L15.4987 20.2913L15.5987 20.2473L15.6987 20.2033L15.7988 20.1563L15.8988 20.1093L15.9987 20.0633L16.0987 20.0133L16.1887 19.9633L16.2888 19.9123L16.3787 19.8593L16.4787 19.8062L16.3787 19.8582ZM11.8988 3.99926L11.7888 4.00128L11.6887 4.00427L11.5887 4.0083L11.4887 4.01428L11.3787 4.0213L11.2788 4.03027L11.1788 4.0393L11.0787 4.05029L10.9787 4.06231L10.8787 4.07629L10.7788 4.09027L10.6788 4.10626L10.5887 4.12329L10.4887 4.14129L10.3888 4.16131L10.2888 4.18127L10.1887 4.2033L10.0987 4.22631L9.99874 4.2503L9.90878 4.27526L9.8088 4.3023L9.71871 4.32928L9.61874 4.35827L9.52877 4.3883L9.4288 4.41931L9.33871 4.45129L9.24874 4.48431L9.15878 4.51831L9.06869 4.55328L8.97872 4.59027L8.88876 4.62731L8.79879 4.66632L8.7087 4.70526L8.61874 4.74627L8.52877 4.78729L8.44869 4.83026L8.35873 4.87426L8.26876 4.91827L8.18868 4.96429L8.09872 5.01129L8.01876 5.05926L7.93868 5.10729L7.84872 5.15728L7.76876 5.20727L7.68869 5.25927L7.60873 5.31231L7.52877 5.36529L7.4487 5.4193L7.36874 5.47527L7.28878 5.5313L7.20871 5.58831L7.13876 5.64629L7.0588 5.70525L6.98873 5.76531L6.90878 5.82629L6.83871 5.88726L6.76876 5.95031L6.68869 6.0133L6.61874 6.07726L6.54879 6.14226L6.47873 6.2083L6.40878 6.27526L6.33871 6.34228L6.27877 6.41131L6.20871 6.48028L6.13876 6.54931L6.0787 6.62029L6.01876 6.69225L5.9487 6.76427L5.88876 6.83727L5.8287 6.91027L5.76876 6.98528L5.70871 7.06029L5.64877 7.13628L5.58871 7.21331L5.52877 7.29027L5.47873 7.36828L5.41879 7.44725L5.36874 7.52629L5.3088 7.60729L5.25876 7.68731L5.20871 7.76928L5.15878 7.85131L5.10873 7.93425L5.0588 8.01726L5.00876 8.10131L4.96872 8.18627L4.91879 8.27129L4.87875 8.35729L4.8287 8.44426L4.78879 8.5313L4.74875 8.61925L4.70871 8.70726L4.66879 8.79625L4.62875 8.8853L4.58871 8.97527L4.55881 9.06627L4.51877 9.15727L4.48874 9.24925L4.4487 9.34129L4.41879 9.43327L4.38876 9.52629L4.35873 9.62028L4.3287 9.71428L4.2988 9.80925L4.27878 9.90428L4.24875 10.0003L4.22873 10.0963L4.1987 10.1922L4.1788 10.2893L4.15878 10.3873L4.13876 10.4843L4.11874 10.5833L4.10873 10.6813L4.08871 10.7803L4.0787 10.8803L4.05881 10.9803L4.0488 11.0802L4.03879 11.1813L4.02878 11.2823L4.01877 11.3833V11.4853L4.00876 11.5873V11.6893L3.99875 11.7923V11.8952V11.9983V12.1013V12.2043L4.00876 12.3073V12.4093L4.01877 12.5113V12.6133L4.02878 12.7143L4.03879 12.8153L4.0488 12.9163L4.05881 13.0163L4.0787 13.1162L4.08871 13.2163L4.10873 13.3153L4.11874 13.4132L4.13876 13.5122L4.15878 13.6093L4.1788 13.7073L4.1987 13.8043L4.22873 13.9002L4.24875 13.9963L4.27878 14.0923L4.2988 14.1873L4.3287 14.2823L4.35873 14.3763L4.38876 14.4703L4.41879 14.5633L4.4487 14.6552L4.48874 14.7473L4.51877 14.8393L4.55881 14.9303L4.58871 15.0213L4.62875 15.1112L4.66879 15.2003L4.70871 15.2893L4.74875 15.3773L4.78879 15.4652L4.8287 15.5523L4.87875 15.6393L4.91879 15.7253L4.96872 15.8103L5.00876 15.8952L5.0588 15.9793L5.10873 16.0623L5.15878 16.1452L5.20871 16.2273L5.25876 16.3092L5.3088 16.3893L5.36874 16.4702L5.41879 16.5493L5.47873 16.6283L5.52877 16.7063L5.58871 16.7832L5.64877 16.8603L5.70871 16.9362L5.76876 17.0113L5.8287 17.0863L5.88876 17.1593L5.9487 17.2323L6.01876 17.3043L6.0787 17.3763L6.13876 17.4472L6.20871 17.5163L6.27877 17.5852L6.33871 17.6543L6.40878 17.7213L6.47873 17.7882L6.54879 17.8543L6.61874 17.9193L6.68869 17.9832L6.76876 18.0462L6.83871 18.1093L6.90878 18.1703L6.98873 18.2312L7.0588 18.2913L7.13876 18.3502L7.20871 18.4082L7.28878 18.4652L7.36874 18.5213L7.4487 18.5772L7.52877 18.6313L7.60873 18.6842L7.68869 18.7373L7.76876 18.7893L7.84872 18.8393L7.93868 18.8892L8.01876 18.9373L8.09872 18.9853L8.18868 19.0323L8.26876 19.0783L8.35873 19.1223L8.44869 19.1663L8.52877 19.2093L8.61874 19.2503L8.7087 19.2913L8.79879 19.3302L8.88876 19.3692L8.97872 19.4063L9.06869 19.4433L9.15878 19.4782L9.24874 19.5122L9.33871 19.5453L9.4288 19.5772L9.52877 19.6082L9.61874 19.6383L9.71871 19.6673L9.8088 19.6942L9.90878 19.7213L9.99874 19.7462L10.0987 19.7702L10.1887 19.7932L10.2888 19.8153L10.3888 19.8352L10.4887 19.8552L10.5887 19.8733L10.6788 19.8903L10.7788 19.9063L10.8787 19.9203L10.9787 19.9342L11.0787 19.9463L11.1788 19.9572L11.2788 19.9663L11.3787 19.9752L11.4887 19.9823L11.5887 19.9882L11.6887 19.9923L11.7888 19.9953L11.8988 19.9973L11.9987 19.9983L12.0987 19.9973L12.2087 19.9953L12.3088 19.9923L12.4088 19.9882L12.5087 19.9823L12.6187 19.9752L12.7187 19.9663L12.8187 19.9572L12.9188 19.9463L13.0188 19.9342L13.1187 19.9203L13.2187 19.9063L13.3187 19.8903L13.4088 19.8733L13.5087 19.8552L13.6087 19.8352L13.7087 19.8153L13.8088 19.7932L13.8988 19.7702L13.9987 19.7462L14.0887 19.7213L14.1887 19.6942L14.2788 19.6673L14.3787 19.6383L14.4687 19.6082L14.5687 19.5772L14.6588 19.5453L14.7487 19.5122L14.8387 19.4782L14.9288 19.4433L15.0188 19.4063L15.1087 19.3692L15.1987 19.3302L15.2888 19.2913L15.3787 19.2503L15.4687 19.2093L15.5488 19.1663L15.6388 19.1223L15.7287 19.0783L15.8088 19.0323L15.8988 18.9853L15.9787 18.9373L16.0588 18.8892L16.1488 18.8393L16.2287 18.7893L16.3088 18.7373L16.3888 18.6842L16.4687 18.6313L16.5488 18.5772L16.6287 18.5213L16.7087 18.4652L16.7888 18.4082L16.8587 18.3502L16.9387 18.2913L17.0087 18.2312L17.0887 18.1703L17.1588 18.1093L17.2287 18.0462L17.3088 17.9832L17.3787 17.9193L17.4487 17.8543L17.5188 17.7882L17.5887 17.7213L17.6588 17.6543L17.7187 17.5852L17.7888 17.5163L17.8587 17.4472L17.9188 17.3763L17.9887 17.3043L18.0488 17.2323L18.1087 17.1593L18.1688 17.0863L18.2287 17.0113L18.2888 16.9362L18.3487 16.8603L18.4088 16.7832L18.4687 16.7063L18.5188 16.6283L18.5787 16.5493L18.6287 16.4702L18.6887 16.3893L18.7387 16.3092L18.7888 16.2273L18.8387 16.1452L18.8887 16.0623L18.9387 15.9793L18.9887 15.8952L19.0288 15.8103L19.0787 15.7253L19.1187 15.6393L19.1688 15.5523L19.2087 15.4652L19.2487 15.3773L19.2888 15.2893L19.3287 15.2003L19.3687 15.1112L19.4088 15.0213L19.4387 14.9303L19.4787 14.8393L19.5087 14.7473L19.5488 14.6552L19.5787 14.5633L19.6087 14.4703L19.6387 14.3763L19.6688 14.2823L19.6987 14.1873L19.7187 14.0923L19.7487 13.9963L19.7688 13.9002L19.7988 13.8043L19.8187 13.7073L19.8387 13.6093L19.8587 13.5122L19.8787 13.4132L19.8887 13.3153L19.9088 13.2163L19.9188 13.1162L19.9387 13.0163L19.9487 12.9163L19.9587 12.8153L19.9687 12.7143L19.9787 12.6133V12.5113L19.9887 12.4093V12.3073L19.9987 12.2043V12.1013V11.9983V11.8952V11.7923L19.9887 11.6893V11.5873L19.9787 11.4853V11.3833L19.9687 11.2823L19.9587 11.1813L19.9487 11.0802L19.9387 10.9803L19.9188 10.8803L19.9088 10.7803L19.8887 10.6813L19.8787 10.5833L19.8587 10.4843L19.8387 10.3873L19.8187 10.2893L19.7988 10.1922L19.7688 10.0963L19.7487 10.0003L19.7187 9.90428L19.6987 9.80925L19.6688 9.71428L19.6387 9.62028L19.6087 9.52629L19.5787 9.43327L19.5488 9.34129L19.5087 9.24925L19.4787 9.15727L19.4387 9.06627L19.4088 8.97527L19.3687 8.8853L19.3287 8.79625L19.2888 8.70726L19.2487 8.61925L19.2087 8.5313L19.1688 8.44426L19.1187 8.35729L19.0787 8.27129L19.0288 8.18627L18.9887 8.10131L18.9387 8.01726L18.8887 7.93425L18.8387 7.85131L18.7888 7.76928L18.7387 7.68731L18.6887 7.60729L18.6287 7.52629L18.5787 7.44725L18.5188 7.36828L18.4687 7.29027L18.4088 7.21331L18.3487 7.13628L18.2888 7.06029L18.2287 6.98528L18.1688 6.91027L18.1087 6.83727L18.0488 6.76427L17.9887 6.69225L17.9188 6.62029L17.8587 6.54931L17.7888 6.48028L17.7187 6.41131L17.6588 6.34228L17.5887 6.27526L17.5188 6.2083L17.4487 6.14226L17.3787 6.07726L17.3088 6.0133L17.2287 5.95031L17.1588 5.88726L17.0887 5.82629L17.0087 5.76531L16.9387 5.70525L16.8587 5.64629L16.7888 5.58831L16.7087 5.5313L16.6287 5.47527L16.5488 5.4193L16.4687 5.36529L16.3888 5.31231L16.3088 5.25927L16.2287 5.20727L16.1488 5.15728L16.0588 5.10729L15.9787 5.05926L15.8988 5.01129L15.8088 4.96429L15.7287 4.91827L15.6388 4.87426L15.5488 4.83026L15.4687 4.78729L15.3787 4.74627L15.2888 4.70526L15.1987 4.66632L15.1087 4.62731L15.0188 4.59027L14.9288 4.55328L14.8387 4.51831L14.7487 4.48431L14.6588 4.45129L14.5687 4.41931L14.4687 4.3883L14.3787 4.35827L14.2788 4.32928L14.1887 4.3023L14.0887 4.27526L13.9987 4.2503L13.8988 4.22631L13.8088 4.2033L13.7087 4.18127L13.6087 4.16131L13.5087 4.14129L13.4088 4.12329L13.3187 4.10626L13.2187 4.09027L13.1187 4.07629L13.0188 4.06231L12.9188 4.05029L12.8187 4.0393L12.7187 4.03027L12.6187 4.0213L12.5087 4.01428L12.4088 4.0083L12.3088 4.00427L12.2087 4.00128L12.0987 3.99926L11.9987 3.99829L11.8988 3.99926ZM11.9987 10.9983L12.0488 10.9992L12.0987 11.0033L12.1488 11.0093L12.1987 11.0173L12.2387 11.0283L12.2888 11.0413L12.3387 11.0573L12.3787 11.0743L12.4288 11.0943L12.4687 11.1163L12.5087 11.1403L12.5588 11.1663L12.5987 11.1943L12.6287 11.2243L12.6688 11.2572L12.7087 11.2913L12.7387 11.3273L12.7688 11.3643L12.7988 11.4033L12.8287 11.4433L12.8587 11.4853L12.8787 11.5273L12.8988 11.5713L12.9188 11.6153L12.9387 11.6613L12.9587 11.7073L12.9687 11.7543L12.9787 11.8023L12.9887 11.8503L12.9987 11.8993V11.9483V11.9983V15.9983V16.0483V16.0973L12.9887 16.1463L12.9787 16.1942L12.9687 16.2423L12.9587 16.2893L12.9387 16.3352L12.9188 16.3813L12.8988 16.4253L12.8787 16.4693L12.8587 16.5113L12.8287 16.5533L12.7988 16.5932L12.7688 16.6322L12.7387 16.6693L12.7087 16.7052L12.6688 16.7393L12.6287 16.7722L12.5987 16.8023L12.5588 16.8302L12.5087 16.8562L12.4687 16.8803L12.4288 16.9023L12.3787 16.9223L12.3387 16.9392L12.2888 16.9552L12.2387 16.9682L12.1987 16.9793L12.1488 16.9873L12.0987 16.9933L12.0488 16.9973L11.9987 16.9983L11.9487 16.9973L11.8988 16.9933L11.8487 16.9873L11.7988 16.9793L11.7587 16.9682L11.7087 16.9552L11.6588 16.9392L11.6187 16.9223L11.5687 16.9023L11.5288 16.8803L11.4887 16.8562L11.4387 16.8302L11.3988 16.8023L11.3687 16.7722L11.3287 16.7393L11.2888 16.7052L11.2588 16.6693L11.2287 16.6322L11.1987 16.5932L11.1688 16.5533L11.1388 16.5113L11.1187 16.4693L11.0987 16.4253L11.0787 16.3813L11.0588 16.3352L11.0388 16.2893L11.0288 16.2423L11.0188 16.1942L11.0088 16.1463V16.0973L10.9987 16.0483V15.9983V11.9983V11.9483L11.0088 11.8993V11.8503L11.0188 11.8023L11.0288 11.7543L11.0388 11.7073L11.0588 11.6613L11.0787 11.6153L11.0987 11.5713L11.1187 11.5273L11.1388 11.4853L11.1688 11.4433L11.1987 11.4033L11.2287 11.3643L11.2588 11.3273L11.2888 11.2913L11.3287 11.2572L11.3687 11.2243L11.3988 11.1943L11.4387 11.1663L11.4887 11.1403L11.5288 11.1163L11.5687 11.0943L11.6187 11.0743L11.6588 11.0573L11.7087 11.0413L11.7587 11.0283L11.7988 11.0173L11.8487 11.0093L11.8988 11.0033L11.9487 10.9992L11.9987 10.9983ZM2.99875 12.2312L3.00876 12.3463V12.4613L3.01877 12.5763L3.02878 12.6913L3.03879 12.8053L3.0488 12.9193L3.05881 13.0323L3.06869 13.1452L3.08871 13.2572L3.09872 13.3692L3.11874 13.4803L3.13876 13.5913L3.15878 13.7022L3.1788 13.8123L3.20871 13.9212L3.22873 14.0302L3.25876 14.1383L3.27878 14.2473L3.30881 14.3543L3.33871 14.4613L3.36874 14.5672L3.39877 14.6733L3.43869 14.7783L3.46872 14.8833L3.50876 14.9873L3.5488 15.0913L3.58871 15.1942L3.61874 15.2962L3.65878 15.3983L3.70871 15.4992L3.74875 15.6003L3.7988 15.7003L3.83871 15.7993L3.88876 15.8983L3.9288 15.9953L3.98874 16.0932L4.03879 16.1892L4.08871 16.2852L4.13876 16.3813L4.18869 16.4753V16.4773L4.13876 16.3833L4.08871 16.2882L4.03879 16.1913L3.98874 16.0952L3.93869 15.9983L3.88876 15.8983L3.83871 15.8012L3.7988 15.7003L3.74875 15.6013L3.70871 15.5013L3.66879 15.4002L3.61874 15.2973L3.58871 15.1953L3.5488 15.0913L3.50876 14.9873L3.46872 14.8833L3.43869 14.7783L3.39877 14.6733L3.36874 14.5672L3.33871 14.4602L3.30881 14.3532L3.27878 14.2463L3.25876 14.1383L3.22873 14.0302L3.20871 13.9212L3.1788 13.8103L3.15878 13.7003L3.13876 13.5893L3.11874 13.4782L3.09872 13.3673L3.08871 13.2553L3.06869 13.1433L3.05881 13.0303L3.0488 12.9173L3.03879 12.8033L3.02878 12.6892L3.01877 12.5763L3.00876 12.4602V12.3453L2.99875 12.2312ZM20.9887 12.3453V12.4602L20.9787 12.5753L20.9687 12.6892L20.9587 12.8033L20.9487 12.9173L20.9387 13.0303L20.9288 13.1433L20.9088 13.2553L20.8988 13.3673L20.8787 13.4782L20.8587 13.5893L20.8387 13.7003L20.8187 13.8103L20.7888 13.9203L20.7688 14.0293L20.7387 14.1383L20.7187 14.2463L20.6887 14.3532L20.6588 14.4602L20.6287 14.5672L20.5987 14.6733L20.5588 14.7783L20.5288 14.8833L20.4887 14.9883L20.4487 15.0923L20.4088 15.1953L20.3787 15.2973L20.3287 15.4002L20.2888 15.5013L20.2487 15.6013L20.1987 15.7013L20.1588 15.8012L20.1087 15.8993L20.0588 15.9983L20.0087 16.0952L19.9587 16.1913L19.9088 16.2882L19.8587 16.3833L19.8088 16.4773V16.4753L19.8587 16.3813L19.9088 16.2852L19.9587 16.1892L20.0188 16.0932L20.0687 15.9953L20.1087 15.8993L20.1588 15.7993L20.1987 15.7013L20.2487 15.6003L20.2888 15.4992L20.3387 15.3983L20.3787 15.2962L20.4088 15.1942L20.4487 15.0923L20.4887 14.9883L20.5288 14.8833L20.5588 14.7783L20.5987 14.6733L20.6287 14.5672L20.6588 14.4613L20.6887 14.3543L20.7187 14.2473L20.7387 14.1383L20.7688 14.0293L20.7888 13.9203L20.8187 13.8123L20.8387 13.7022L20.8587 13.5913L20.8787 13.4803L20.8988 13.3692L20.9088 13.2572L20.9288 13.1452L20.9387 13.0323L20.9487 12.9193L20.9587 12.8053L20.9687 12.6913L20.9787 12.5753L20.9887 12.4613V12.3463L20.9987 12.2312L20.9887 12.3453ZM19.8587 7.61327L19.9088 7.7083L19.9587 7.80529L20.0087 7.90129L20.0588 7.99828L20.1087 8.09728L20.1588 8.1953L20.1987 8.29528L20.2487 8.39525L20.2888 8.49529L20.3287 8.5963L20.3787 8.69927L20.4088 8.80126L20.4487 8.90428L20.4887 9.00829L20.5288 9.11327L20.5588 9.21825L20.5987 9.32329L20.6287 9.42931L20.6588 9.5363L20.6887 9.6433L20.7187 9.75029L20.7387 9.85826L20.7688 9.96727L20.7888 10.0763L20.8187 10.1863L20.8387 10.2962L20.8587 10.4073L20.8787 10.5183L20.8988 10.6293L20.9088 10.7413L20.9288 10.8533L20.9387 10.9663L20.9487 11.0793L20.9587 11.1933L20.9687 11.3073L20.9787 11.4212L20.9887 11.5363V11.6513L20.9987 11.7663L20.9887 11.6502V11.5353L20.9787 11.4212L20.9687 11.3053L20.9587 11.1913L20.9487 11.0773L20.9387 10.9643L20.9288 10.8513L20.9088 10.7393L20.8988 10.6273L20.8787 10.5163L20.8587 10.4053L20.8387 10.2943L20.8187 10.1842L20.7888 10.0763L20.7688 9.96727L20.7387 9.85826L20.7187 9.74925L20.6887 9.64226L20.6588 9.53526L20.6287 9.42931L20.5987 9.32329L20.5588 9.21825L20.5288 9.11327L20.4887 9.00829L20.4487 8.90428L20.4088 8.80229L20.3787 8.7003L20.3387 8.59825L20.2888 8.4973L20.2487 8.39629L20.1987 8.29528L20.1588 8.19725L20.1087 8.09728L20.0687 8.00127L20.0188 7.90331L19.9587 7.8073L19.9088 7.71129L19.8587 7.61528L19.8088 7.52129V7.51928L19.8587 7.61327ZM4.18869 7.52129L4.13876 7.61528L4.08871 7.71129L4.03879 7.8073L3.98874 7.90331L3.9288 8.00127L3.88876 8.09825L3.83871 8.19725L3.7988 8.29625L3.74875 8.39629L3.70871 8.4973L3.65878 8.59825L3.61874 8.7003L3.58871 8.80229L3.5488 8.90526L3.50876 9.00926L3.46872 9.11327L3.43869 9.21825L3.39877 9.32329L3.36874 9.42931L3.33871 9.53526L3.30881 9.64226L3.27878 9.74925L3.25876 9.85826L3.22873 9.96629L3.20871 10.0753L3.1788 10.1842L3.15878 10.2943L3.13876 10.4053L3.11874 10.5163L3.09872 10.6273L3.08871 10.7393L3.06869 10.8513L3.05881 10.9643L3.0488 11.0773L3.03879 11.1913L3.02878 11.3053L3.01877 11.4203L3.00876 11.5353V11.6502L2.99875 11.7653L3.00876 11.6513V11.5363L3.01877 11.4203L3.02878 11.3073L3.03879 11.1933L3.0488 11.0793L3.05881 10.9663L3.06869 10.8533L3.08871 10.7413L3.09872 10.6293L3.11874 10.5183L3.13876 10.4073L3.15878 10.2962L3.1788 10.1863L3.20871 10.0753L3.22873 9.96629L3.25876 9.85826L3.27878 9.75029L3.30881 9.6433L3.33871 9.5363L3.36874 9.42931L3.39877 9.32329L3.43869 9.21825L3.46872 9.11327L3.50876 9.00926L3.5488 8.90526L3.58871 8.80126L3.61874 8.69927L3.66879 8.5963L3.70871 8.49529L3.74875 8.39525L3.7988 8.29625L3.83871 8.1953L3.88876 8.09825L3.93869 7.99828L3.98874 7.90129L4.03879 7.80529L4.08871 7.7083L4.13876 7.61327L4.18869 7.51928V7.52129ZM12.0488 6.99926L12.0987 7.00329L12.1488 7.0103L12.1987 7.0183L12.2487 7.02929L12.2988 7.04326L12.3387 7.05925L12.3888 7.07726L12.4288 7.09728L12.4787 7.11925L12.5188 7.1433L12.5588 7.1693L12.5987 7.19726L12.6388 7.22631L12.6688 7.25829L12.7087 7.29131L12.7387 7.32628L12.7688 7.36229L12.7988 7.40026L12.8287 7.43926L12.8587 7.4793L12.8787 7.52129L12.8988 7.56426L12.9188 7.6093L12.9387 7.65429L12.9487 7.70128L12.9687 7.74828L12.9787 7.79625L12.9887 7.8463L12.9987 7.89629V7.94725V7.99828V8.0493V8.10027L12.9887 8.15026L12.9787 8.2003L12.9687 8.24828L12.9487 8.29528L12.9387 8.34227L12.9188 8.38726L12.8988 8.4323L12.8787 8.47527L12.8587 8.51726L12.8287 8.5573L12.7988 8.5963L12.7688 8.63426L12.7387 8.67027L12.7087 8.70525L12.6688 8.73827L12.6388 8.77025L12.5987 8.7993L12.5588 8.82726L12.5188 8.85326L12.4787 8.87731L12.4288 8.89928L12.3888 8.9193L12.3387 8.9373L12.2988 8.95329L12.2487 8.96727L12.1987 8.97826L12.1488 8.98625L12.0987 8.99327L12.0488 8.9973L11.9987 8.99828L11.9487 8.9973L11.8988 8.99327L11.8487 8.98625L11.7988 8.97826L11.7487 8.96727L11.6987 8.95329L11.6588 8.9373L11.6087 8.9193L11.5687 8.89928L11.5188 8.87731L11.4787 8.85326L11.4387 8.82726L11.3988 8.7993L11.3587 8.77025L11.3287 8.73827L11.2888 8.70525L11.2588 8.67027L11.2287 8.63426L11.1987 8.5963L11.1688 8.5573L11.1388 8.51726L11.1187 8.47527L11.0987 8.4323L11.0787 8.38726L11.0588 8.34227L11.0488 8.29528L11.0288 8.24828L11.0188 8.2003L11.0088 8.15026V8.10027L10.9987 8.0493V7.99828V7.94725L11.0088 7.89629V7.8463L11.0188 7.79625L11.0288 7.74828L11.0488 7.70128L11.0588 7.65429L11.0787 7.6093L11.0987 7.56426L11.1187 7.52129L11.1388 7.4793L11.1688 7.43926L11.1987 7.40026L11.2287 7.36229L11.2588 7.32628L11.2888 7.29131L11.3287 7.25829L11.3587 7.22631L11.3988 7.19726L11.4387 7.1693L11.4787 7.1433L11.5188 7.11925L11.5687 7.09728L11.6087 7.07726L11.6588 7.05925L11.6987 7.04326L11.7487 7.02929L11.7988 7.0183L11.8487 7.0103L11.8988 7.00329L11.9487 6.99926L11.9987 6.99828L12.0488 6.99926ZM12.4587 3.01031L12.5787 3.01629L12.6887 3.02429L12.8088 3.0343L12.9188 3.04431L13.0288 3.05731L13.1388 3.07031L13.2587 3.08526L13.3687 3.10229L13.4787 3.1203L13.5887 3.13928L13.6987 3.1593L13.8088 3.18127L13.9188 3.20428L14.0288 3.22931L14.1388 3.25531L14.2487 3.28228L14.3587 3.3103L14.4587 3.34027L14.5687 3.37127L14.6688 3.40332L14.7788 3.43731L14.8787 3.47131L14.9887 3.50726L15.0887 3.54528L15.1987 3.58331L15.2988 3.62329L15.3988 3.6643L15.4987 3.7063L15.5987 3.74926L15.6987 3.79431L15.7988 3.84027L15.8988 3.88726L15.9987 3.9353L16.0987 3.98431L16.1887 4.0343L16.2888 4.0863L16.3787 4.1383L16.4787 4.19128L16.3787 4.13726L16.2888 4.08429L16.1887 4.03326L16.0987 3.98327L15.9987 3.93328L15.8988 3.88726L15.7988 3.84027L15.6987 3.79327L15.5987 3.74926L15.4987 3.70526L15.3988 3.66327L15.2988 3.62329L15.1987 3.58331L15.0887 3.54528L14.9887 3.50726L14.8787 3.47131L14.7788 3.43628L14.6688 3.40332L14.5687 3.37127L14.4587 3.34027L14.3587 3.3103L14.2487 3.28228L14.1388 3.25427L14.0288 3.22931L13.9188 3.20428L13.8088 3.18127L13.6987 3.1593L13.5887 3.13928L13.4787 3.1203L13.3687 3.10229L13.2587 3.08526L13.1488 3.07031L13.0288 3.05731L12.9188 3.04431L12.8088 3.0343L12.6887 3.02429L12.5787 3.01629L12.4587 3.01031ZM11.6488 3.00531L11.5388 3.01031L11.4188 3.01629L11.3088 3.02429L11.1887 3.0343L11.0787 3.04529L10.9687 3.05731L10.8487 3.07031L10.7387 3.08526L10.6287 3.10229L10.5188 3.1203L10.4088 3.13928L10.2988 3.1593L10.1887 3.18127L10.0787 3.20428L9.96871 3.22931L9.85873 3.25427L9.74874 3.28131L9.63876 3.3103L9.53878 3.34027L9.4288 3.37127L9.3287 3.40332L9.21871 3.43628L9.11874 3.47131L9.00875 3.50726L8.90878 3.54431L8.79879 3.58331L8.69869 3.62231L8.59872 3.66327L8.49874 3.70526L8.39877 3.74926L8.29879 3.79327L8.19869 3.83929L8.09872 3.88629L7.99874 3.93328L7.89877 3.98327L7.8088 4.03326L7.7087 4.08429L7.61874 4.13726L7.51876 4.1903L7.61874 4.1383L7.7087 4.0863L7.8088 4.0343L7.89877 3.98431L7.99874 3.9353L8.09872 3.88629L8.19869 3.83929L8.29879 3.79431L8.39877 3.74926L8.49874 3.7063L8.59872 3.6643L8.69869 3.62231L8.79879 3.58331L8.90878 3.54431L9.00875 3.50726L9.11874 3.47131L9.21871 3.43731L9.3287 3.40332L9.4288 3.37127L9.53878 3.34027L9.63876 3.3103L9.74874 3.28131L9.85873 3.25531L9.96871 3.22931L10.0787 3.20428L10.1887 3.18127L10.2988 3.1593L10.4088 3.13928L10.5188 3.1203L10.6287 3.10229L10.7387 3.08526L10.8587 3.07031L10.9687 3.05731L11.0787 3.04529L11.1887 3.0343L11.3088 3.02429L11.4188 3.01629L11.5388 3.01031L11.6488 3.00531Z" fill="#333333"/>
</svg>
