<svg width="24" height="24" viewBox="0 0 24 24" fill="none" xmlns="http://www.w3.org/2000/svg">
<path d="M20.9095 18.5035C21.0865 18.8125 21.085 19.1935 20.9065 19.501C20.728 19.81 20.398 20.0005 20.041 20.0005C16.171 20.0005 6.82752 20.0005 2.95752 20.0005C2.60052 20.0005 2.27203 19.81 2.09203 19.501C1.91353 19.1935 1.91205 18.8125 2.08905 18.5035C4.01955 15.13 8.69056 6.96556 10.6316 3.57407C10.8101 3.26207 11.1415 3.07007 11.5 3.07007C11.8585 3.07007 12.19 3.26207 12.367 3.57407C14.308 6.96556 18.979 15.13 20.9095 18.5035ZM2.99954 19H19.999L11.5 4.00007C8.50003 8.99956 5.99954 14.0005 2.99954 19Z" fill="#333333"/>
<path fill-rule="evenodd" clip-rule="evenodd" d="M11.0007 16.4853C11.0007 16.3563 11.0507 16.2323 11.1407 16.1413C11.2307 16.0493 11.3607 15.9983 11.4907 15.9983H11.5007C11.7807 15.9983 12.0007 16.2213 12.0007 16.4973C12.0007 16.7733 11.7807 16.9983 11.5007 16.9983H11.4907C11.3607 16.9983 11.2307 16.9473 11.1407 16.8553C11.0507 16.7643 11.0007 16.6403 11.0007 16.5113C11.0007 16.5023 11.0007 16.4943 11.0007 16.4853ZM11.0007 9.49829C11.0007 9.36529 11.0507 9.23829 11.1507 9.14429C11.2407 9.05129 11.3707 8.99829 11.5007 8.99829C11.6307 8.99829 11.7607 9.05129 11.8507 9.14429C11.9507 9.23829 12.0007 9.36529 12.0007 9.49829C12.0007 10.4563 12.0007 12.5403 12.0007 13.4983C12.0007 13.6313 11.9507 13.7583 11.8507 13.8523C11.7607 13.9453 11.6307 13.9983 11.5007 13.9983C11.3707 13.9983 11.2407 13.9453 11.1507 13.8523C11.0507 13.7583 11.0007 13.6313 11.0007 13.4983C11.0007 12.5403 11.0007 10.4563 11.0007 9.49829Z" fill="#333333"/>
</svg>
