<svg width="24" height="24" viewBox="0 0 24 24" fill="none" xmlns="http://www.w3.org/2000/svg">
<path fill-rule="evenodd" clip-rule="evenodd" d="M17.999 9.99829C19.099 9.99829 19.999 10.8943 19.999 11.9983C19.999 13.1023 19.099 13.9983 17.999 13.9983C16.899 13.9983 15.999 13.1023 15.999 11.9983C15.999 10.8943 16.899 9.99829 17.999 9.99829ZM5.99899 9.99829C7.09899 9.99829 7.99899 10.8943 7.99899 11.9983C7.99899 13.1023 7.09899 13.9983 5.99899 13.9983C4.89899 13.9983 3.99899 13.1023 3.99899 11.9983C3.99899 10.8943 4.89899 9.99829 5.99899 9.99829ZM11.999 9.99829C13.099 9.99829 13.999 10.8943 13.999 11.9983C13.999 13.1023 13.099 13.9983 11.999 13.9983C10.899 13.9983 9.99899 13.1023 9.99899 11.9983C9.99899 10.8943 10.899 9.99829 11.999 9.99829Z" fill="black"/>
</svg>
