<svg width="24" height="24" viewBox="0 0 24 24" fill="none" xmlns="http://www.w3.org/2000/svg">
<path fill-rule="evenodd" clip-rule="evenodd" d="M12.7071 2.29297C12.3166 1.90234 11.6834 1.90234 11.2929 2.29297L7.29289 6.29297C6.90237 6.68335 6.90237 7.31665 7.29289 7.70703C7.68341 8.09766 8.31659 8.09766 8.70711 7.70703L11 5.41431V15C11 15.5522 11.4477 16 12 16C12.5523 16 13 15.5522 13 15V5.41431L15.2929 7.70703C15.6834 8.09766 16.3166 8.09766 16.7071 7.70703C17.0976 7.31665 17.0976 6.68335 16.7071 6.29297L12.7071 2.29297ZM6 10C5.44771 10 5 10.4478 5 11V21C5 21.5522 5.44771 22 6 22H18C18.5523 22 19 21.5522 19 21V11C19 10.4478 18.5523 10 18 10H17C16.4477 10 16 10.4478 16 11C16 11.5522 16.4477 12 17 12V20H7V12C7.55229 12 8 11.5522 8 11C8 10.4478 7.55229 10 7 10H6Z" fill="black"/>
</svg>
