<svg width="24" height="24" viewBox="0 0 24 24" fill="none" xmlns="http://www.w3.org/2000/svg">
<path fill-rule="evenodd" clip-rule="evenodd" d="M15.9998 11.9995C15.9998 11.4495 16.4478 10.9995 16.9998 10.9995C17.5518 10.9995 17.9998 11.4495 17.9998 11.9995C17.9998 12.5495 17.5518 12.9995 16.9998 12.9995C16.4478 12.9995 15.9998 12.5495 15.9998 11.9995ZM10.9998 11.9995C10.9998 11.4495 11.4478 10.9995 11.9998 10.9995C12.5518 10.9995 12.9998 11.4495 12.9998 11.9995C12.9998 12.5495 12.5518 12.9995 11.9998 12.9995C11.4478 12.9995 10.9998 12.5495 10.9998 11.9995ZM5.99985 11.9995C5.99985 11.4495 6.44785 10.9995 6.99985 10.9995C7.55185 10.9995 7.99985 11.4495 7.99985 11.9995C7.99985 12.5495 7.55185 12.9995 6.99985 12.9995C6.44785 12.9995 5.99985 12.5495 5.99985 11.9995Z" fill="#333333"/>
</svg>
