<svg width="24" height="24" viewBox="0 0 24 24" fill="none" xmlns="http://www.w3.org/2000/svg">
<path fill-rule="evenodd" clip-rule="evenodd" d="M12.8535 3.14648C12.6583 2.95117 12.3417 2.95117 12.1465 3.14648L8.14645 7.14648C7.95119 7.3418 7.95119 7.6582 8.14645 7.85352C8.34171 8.04883 8.65829 8.04883 8.85355 7.85352L12 4.70703V15.5C12 15.7761 12.2239 16 12.5 16C12.7761 16 13 15.7761 13 15.5V4.70703L16.1465 7.85352C16.3417 8.04883 16.6583 8.04883 16.8535 7.85352C17.0488 7.6582 17.0488 7.3418 16.8535 7.14648L12.8535 3.14648ZM6.5 11C6.22386 11 6 11.2239 6 11.5V21.5C6 21.7761 6.22386 22 6.5 22H18.5C18.7761 22 19 21.7761 19 21.5V11.5C19 11.2239 18.7761 11 18.5 11H16.5C16.2239 11 16 11.2239 16 11.5C16 11.7761 16.2239 12 16.5 12H18V21H7V12H8.5C8.77614 12 9 11.7761 9 11.5C9 11.2239 8.77614 11 8.5 11H6.5Z" fill="black"/>
</svg>
