<svg width="24" height="24" viewBox="0 0 24 24" fill="none" xmlns="http://www.w3.org/2000/svg">
<path fill-rule="evenodd" clip-rule="evenodd" d="M13 9.17004C14.165 9.58004 15 10.69 15 12C15 13.31 14.165 14.42 13 14.83C13 14.83 13 19.03 13 21C13 21.27 12.895 21.52 12.707 21.71C12.52 21.89 12.265 22 12 22C11.448 22 11 21.55 11 21C11 19.03 11 14.83 11 14.83C9.835 14.42 9 13.31 9 12C9 10.69 9.835 9.58004 11 9.17004C11 9.17004 11 4.97 11 3C11 2.74 11.105 2.48004 11.293 2.29004C11.48 2.11004 11.735 2 12 2C12.552 2 13 2.45 13 3C13 4.97 13 9.17004 13 9.17004ZM12 11C12.552 11 13 11.45 13 12C13 12.55 12.552 13 12 13C11.448 13 11 12.55 11 12C11 11.45 11.448 11 12 11Z" fill="black"/>
</svg>
