<svg width="24" height="24" viewBox="0 0 24 24" fill="none" xmlns="http://www.w3.org/2000/svg">
<path fill-rule="evenodd" clip-rule="evenodd" d="M6 17.05C4.86 17.28 4 18.29 4 19.5C4 20.88 5.12 22 6.5 22C7.88 22 9 20.88 9 19.5C9 18.29 8.14 17.28 7 17.05V6.94995C8.14 6.71995 9 5.71 9 4.5C9 3.12 7.88 2 6.5 2C5.12 2 4 3.12 4 4.5C4 5.71 4.86 6.71995 6 6.94995V17.05ZM13.21 5C13.21 5 13.91 5.70002 14.35 6.15002C14.45 6.24002 14.5 6.37 14.5 6.5C14.5 6.63 14.45 6.75998 14.35 6.84998C14.16 7.04998 13.84 7.04998 13.65 6.84998C13.23 6.43998 12.53 5.73996 12 5.20996C11.81 5.01996 11.71 4.77 11.71 4.5C11.71 4.24 11.81 3.98004 12 3.79004C12.53 3.26004 13.23 2.56002 13.65 2.15002C13.84 1.95002 14.16 1.95002 14.35 2.15002C14.45 2.24002 14.5 2.37 14.5 2.5C14.5 2.63 14.45 2.75998 14.35 2.84998C13.91 3.29998 13.21 4 13.21 4C13.21 4 16.34 4 18 4C18.55 4 19 4.45 19 5C19 8.05 19 17.05 19 17.05C20.14 17.28 21 18.29 21 19.5C21 20.88 19.88 22 18.5 22C17.12 22 16 20.88 16 19.5C16 18.29 16.86 17.28 18 17.05V5H13.21ZM6.5 21C7.33 21 8 20.33 8 19.5C8 18.67 7.33 18 6.5 18C5.67 18 5 18.67 5 19.5C5 20.33 5.67 21 6.5 21ZM18.5 21C17.67 21 17 20.33 17 19.5C17 18.67 17.67 18 18.5 18C19.33 18 20 18.67 20 19.5C20 20.33 19.33 21 18.5 21ZM6.5 6C7.33 6 8 5.33 8 4.5C8 3.67 7.33 3 6.5 3C5.67 3 5 3.67 5 4.5C5 5.33 5.67 6 6.5 6Z" fill="#333333"/>
</svg>
