<svg width="24" height="24" viewBox="0 0 24 24" fill="none" xmlns="http://www.w3.org/2000/svg">
<path fill-rule="evenodd" clip-rule="evenodd" d="M17 6.94995C15.86 6.71995 15 5.71 15 4.5C15 3.12 16.12 2 17.5 2C18.88 2 20 3.12 20 4.5C20 5.71 19.14 6.71995 18 6.94995C18 6.94995 18 8.71994 18 9.68994C18 10.0699 17.79 10.42 17.45 10.59C15.96 11.33 12 13.3101 12 13.3101V17.05C13.14 17.28 14 18.29 14 19.5C14 20.88 12.88 22 11.5 22C10.12 22 9 20.88 9 19.5C9 18.29 9.86 17.28 11 17.05V13.3101C11 13.3101 7.04005 11.33 5.55005 10.59C5.21005 10.42 5 10.0699 5 9.68994C5 8.71994 5 6.94995 5 6.94995C3.86 6.71995 3 5.71 3 4.5C3 3.12 4.12 2 5.5 2C6.88 2 8 3.12 8 4.5C8 5.71 7.14 6.71995 6 6.94995V9.68994L11.5 12.4399L17 9.68994V6.94995ZM11.5 18C12.33 18 13 18.67 13 19.5C13 20.33 12.33 21 11.5 21C10.67 21 10 20.33 10 19.5C10 18.67 10.67 18 11.5 18ZM17.5 3C18.33 3 19 3.67 19 4.5C19 5.33 18.33 6 17.5 6C16.67 6 16 5.33 16 4.5C16 3.67 16.67 3 17.5 3ZM5.5 3C6.33 3 7 3.67 7 4.5C7 5.33 6.33 6 5.5 6C4.67 6 4 5.33 4 4.5C4 3.67 4.67 3 5.5 3Z" fill="#333333"/>
</svg>
