<?xml version="1.0" encoding="UTF-8" standalone="no"?>
<!DOCTYPE svg PUBLIC "-//W3C//DTD SVG 1.1//EN" "http://www.w3.org/Graphics/SVG/1.1/DTD/svg11.dtd">
<svg width="24px" height="24px" version="1.1" xmlns="http://www.w3.org/2000/svg" xmlns:xlink="http://www.w3.org/1999/xlink" xml:space="preserve" xmlns:serif="http://www.serif.com/" style="fill-rule:evenodd;clip-rule:evenodd;stroke-linejoin:round;stroke-miterlimit:1.41421;">
    <g transform="matrix(1,0,0,1,-1028,-1682)">
        <g id="git.thin.merge" transform="matrix(1,0,0,1,-540,912)">
            <rect x="1568" y="770" width="24" height="24" style="fill:none;"/>
            <g transform="matrix(1,-0,0,-1,587,2476)">
                <path d="M989,1688.95C987.859,1688.72 987,1687.71 987,1686.5C987,1685.12 988.12,1684 989.5,1684C990.88,1684 992,1685.12 992,1686.5C992,1687.71 991.141,1688.72 990,1688.95L990,1696.24L996,1693.67L996,1691.95C994.859,1691.72 994,1690.71 994,1689.5C994,1688.12 995.12,1687 996.5,1687C997.88,1687 999,1688.12 999,1689.5C999,1690.71 998.141,1691.72 997,1691.95C997,1691.95 997,1692.97 997,1693.67C997,1694.07 996.762,1694.43 996.394,1694.59C994.693,1695.32 990,1697.33 990,1697.33L990,1699.05C991.141,1699.28 992,1700.29 992,1701.5C992,1702.88 990.88,1704 989.5,1704C988.12,1704 987,1702.88 987,1701.5C987,1700.29 987.859,1699.28 989,1699.05L989,1688.95ZM989.5,1700C990.328,1700 991,1700.67 991,1701.5C991,1702.33 990.328,1703 989.5,1703C988.672,1703 988,1702.33 988,1701.5C988,1700.67 988.672,1700 989.5,1700ZM996.5,1688C997.328,1688 998,1688.67 998,1689.5C998,1690.33 997.328,1691 996.5,1691C995.672,1691 995,1690.33 995,1689.5C995,1688.67 995.672,1688 996.5,1688ZM989.5,1685C990.328,1685 991,1685.67 991,1686.5C991,1687.33 990.328,1688 989.5,1688C988.672,1688 988,1687.33 988,1686.5C988,1685.67 988.672,1685 989.5,1685Z" style="fill:rgb(51,51,51);"/>
            </g>
        </g>
    </g>
</svg>
