<?xml version="1.0" encoding="UTF-8" standalone="no"?>
<!DOCTYPE svg PUBLIC "-//W3C//DTD SVG 1.1//EN" "http://www.w3.org/Graphics/SVG/1.1/DTD/svg11.dtd">
<svg width="24px" height="24px" version="1.1" xmlns="http://www.w3.org/2000/svg" xmlns:xlink="http://www.w3.org/1999/xlink" xml:space="preserve" xmlns:serif="http://www.serif.com/" style="fill-rule:evenodd;clip-rule:evenodd;stroke-linejoin:round;stroke-miterlimit:1.41421;">
    <g transform="matrix(1,0,0,1,-1076,-1634)">
        <g id="git.regular.pullRequest" transform="matrix(1,0,0,1,-492,864)">
            <rect x="1568" y="770" width="24" height="24" style="fill:none;"/>
            <g transform="matrix(1,0,0,1,492,-864)">
                <path d="M1084,1641.83C1085.16,1641.42 1086,1640.31 1086,1639C1086,1637.34 1084.66,1636 1083,1636C1081.34,1636 1080,1637.34 1080,1639C1080,1640.31 1080.84,1641.42 1082,1641.83L1082,1650.17C1080.84,1650.58 1080,1651.69 1080,1653C1080,1654.66 1081.34,1656 1083,1656C1084.66,1656 1086,1654.66 1086,1653C1086,1651.69 1085.16,1650.58 1084,1650.17L1084,1641.83ZM1090.41,1640C1090.41,1640 1090.54,1640.13 1090.71,1640.29C1090.89,1640.48 1091,1640.74 1091,1641C1091,1641.27 1090.89,1641.52 1090.71,1641.71C1090.32,1642.1 1089.68,1642.1 1089.29,1641.71C1088.71,1641.12 1087.88,1640.29 1087.29,1639.71C1086.9,1639.32 1086.9,1638.68 1087.29,1638.29C1087.88,1637.71 1088.71,1636.88 1089.29,1636.29C1089.68,1635.9 1090.32,1635.9 1090.71,1636.29C1090.89,1636.48 1091,1636.74 1091,1637C1091,1637.27 1090.89,1637.52 1090.71,1637.71C1090.54,1637.87 1090.41,1638 1090.41,1638C1090.41,1638 1092.65,1638 1094,1638C1094.55,1638 1095,1638.45 1095,1639C1095,1641.91 1095,1650.17 1095,1650.17C1096.16,1650.58 1097,1651.69 1097,1653C1097,1654.66 1095.66,1656 1094,1656C1092.34,1656 1091,1654.66 1091,1653C1091,1651.69 1091.84,1650.58 1093,1650.17L1093,1640L1090.41,1640ZM1083,1654C1083.55,1654 1084,1653.55 1084,1653C1084,1652.45 1083.55,1652 1083,1652C1082.45,1652 1082,1652.45 1082,1653C1082,1653.55 1082.45,1654 1083,1654ZM1094,1652C1094.55,1652 1095,1652.45 1095,1653C1095,1653.55 1094.55,1654 1094,1654C1093.45,1654 1093,1653.55 1093,1653C1093,1652.45 1093.45,1652 1094,1652ZM1083,1640C1083.55,1640 1084,1639.55 1084,1639C1084,1638.45 1083.55,1638 1083,1638C1082.45,1638 1082,1638.45 1082,1639C1082,1639.55 1082.45,1640 1083,1640Z" style="fill:rgb(51,51,51);"/>
            </g>
        </g>
    </g>
</svg>
