<svg width="24" height="24" viewBox="0 0 24 24" fill="none" xmlns="http://www.w3.org/2000/svg">
<path fill-rule="evenodd" clip-rule="evenodd" d="M10 7.82996C11.165 7.41996 12 6.31 12 5C12 3.34 10.656 2 9 2C7.344 2 6 3.34 6 5C6 6.31 6.835 7.41996 8 7.82996V16.17C6.835 16.58 6 17.69 6 19C6 20.66 7.344 22 9 22C10.656 22 12 20.66 12 19C12 17.69 11.165 16.58 10 16.17V10.52L15 12.66V14.17C13.835 14.58 13 15.69 13 17C13 18.66 14.344 20 16 20C17.656 20 19 18.66 19 17C19 15.69 18.165 14.58 17 14.17C17 14.17 17 12.52 17 12C17 11.6 16.762 11.24 16.394 11.08C14.693 10.35 10 8.33997 10 8.33997V7.82996ZM9 6C9.552 6 10 5.55 10 5C10 4.45 9.552 4 9 4C8.448 4 8 4.45 8 5C8 5.55 8.448 6 9 6ZM16 18C16.552 18 17 17.55 17 17C17 16.45 16.552 16 16 16C15.448 16 15 16.45 15 17C15 17.55 15.448 18 16 18ZM9 20C9.552 20 10 19.55 10 19C10 18.45 9.552 18 9 18C8.448 18 8 18.45 8 19C8 19.55 8.448 20 9 20Z" fill="black"/>
</svg>
