<?xml version="1.0" encoding="UTF-8" standalone="no"?>
<!DOCTYPE svg PUBLIC "-//W3C//DTD SVG 1.1//EN" "http://www.w3.org/Graphics/SVG/1.1/DTD/svg11.dtd">
<svg width="24px" height="24px" version="1.1" xmlns="http://www.w3.org/2000/svg" xmlns:xlink="http://www.w3.org/1999/xlink" xml:space="preserve" xmlns:serif="http://www.serif.com/" style="fill-rule:evenodd;clip-rule:evenodd;stroke-linejoin:round;stroke-miterlimit:1.41421;">
    <g transform="matrix(1,0,0,1,-884,-1634)">
        <g id="git.regular.compare" transform="matrix(1,0,0,1,-684,864)">
            <rect x="1568" y="770" width="24" height="24" style="fill:none;"/>
            <g transform="matrix(1,0,0,1,684,-864)">
                <path d="M889,1641.83C887.835,1641.42 887,1640.31 887,1639C887,1637.34 888.344,1636 890,1636C891.656,1636 893,1637.34 893,1639C893,1640.31 892.165,1641.42 891,1641.83L891,1652L893.586,1652C893.586,1652 893.458,1651.87 893.293,1651.71C893.105,1651.52 893,1651.27 893,1651C893,1650.74 893.105,1650.48 893.293,1650.29C893.683,1649.9 894.317,1649.9 894.707,1650.29C895.293,1650.88 896.121,1651.71 896.707,1652.29C897.098,1652.68 897.098,1653.32 896.707,1653.71C896.121,1654.29 895.293,1655.12 894.707,1655.71C894.317,1656.1 893.683,1656.1 893.293,1655.71C893.105,1655.52 893,1655.27 893,1655C893,1654.74 893.105,1654.48 893.293,1654.29C893.458,1654.13 893.586,1654 893.586,1654C893.586,1654 891.349,1654 890,1654C889.448,1654 889,1653.55 889,1653C889,1650.09 889,1641.83 889,1641.83ZM898.414,1640C898.414,1640 898.542,1640.13 898.707,1640.29C898.895,1640.48 899,1640.74 899,1641C899,1641.27 898.895,1641.52 898.707,1641.71C898.317,1642.1 897.683,1642.1 897.293,1641.71C896.707,1641.12 895.879,1640.29 895.293,1639.71C894.902,1639.32 894.902,1638.68 895.293,1638.29C895.879,1637.71 896.707,1636.88 897.293,1636.29C897.683,1635.9 898.317,1635.9 898.707,1636.29C898.895,1636.48 899,1636.74 899,1637C899,1637.27 898.895,1637.52 898.707,1637.71C898.542,1637.87 898.414,1638 898.414,1638C898.414,1638 900.651,1638 902,1638C902.552,1638 903,1638.45 903,1639C903,1641.91 903,1650.17 903,1650.17C904.165,1650.58 905,1651.69 905,1653C905,1654.66 903.656,1656 902,1656C900.344,1656 899,1654.66 899,1653C899,1651.69 899.835,1650.58 901,1650.17L901,1640L898.414,1640ZM902,1652C902.552,1652 903,1652.45 903,1653C903,1653.55 902.552,1654 902,1654C901.448,1654 901,1653.55 901,1653C901,1652.45 901.448,1652 902,1652ZM890,1638C890.552,1638 891,1638.45 891,1639C891,1639.55 890.552,1640 890,1640C889.448,1640 889,1639.55 889,1639C889,1638.45 889.448,1638 890,1638Z" style="fill:rgb(51,51,51);"/>
            </g>
        </g>
    </g>
</svg>
