<svg width="24" height="24" viewBox="0 0 24 24" fill="none" xmlns="http://www.w3.org/2000/svg">
<path fill-rule="evenodd" clip-rule="evenodd" d="M11 9.05005C11 9.05005 11 4.11 11 2.5C11 2.37 11.053 2.24002 11.146 2.15002C11.24 2.05002 11.367 2 11.5 2C11.633 2 11.76 2.05002 11.854 2.15002C11.947 2.24002 12 2.37 12 2.5C12 4.11 12 9.05005 12 9.05005C13.141 9.28005 14 10.29 14 11.5C14 12.71 13.141 13.72 12 13.95C12 13.95 12 18.89 12 20.5C12 20.63 11.947 20.76 11.854 20.85C11.76 20.95 11.633 21 11.5 21C11.367 21 11.24 20.95 11.146 20.85C11.053 20.76 11 20.63 11 20.5C11 18.89 11 13.95 11 13.95C9.859 13.72 9 12.71 9 11.5C9 10.29 9.859 9.28005 11 9.05005ZM11.5 10C12.328 10 13 10.67 13 11.5C13 12.33 12.328 13 11.5 13C10.672 13 10 12.33 10 11.5C10 10.67 10.672 10 11.5 10Z" fill="#333333"/>
</svg>
