<svg width="24" height="24" viewBox="0 0 24 24" fill="none" xmlns="http://www.w3.org/2000/svg">
<path fill-rule="evenodd" clip-rule="evenodd" d="M5 17.05C3.86 17.28 3 18.29 3 19.5C3 20.88 4.12 22 5.5 22C6.88 22 8 20.88 8 19.5C8 18.29 7.14 17.28 6 17.05V6.94995C7.14 6.71995 8 5.71 8 4.5C8 3.12 6.88 2 5.5 2C4.12 2 3 3.12 3 4.5C3 5.71 3.86 6.71995 5 6.94995V17.05ZM12.21 5C12.21 5 12.91 5.70002 13.35 6.15002C13.45 6.24002 13.5 6.37 13.5 6.5C13.5 6.63 13.45 6.75998 13.35 6.84998C13.16 7.04998 12.84 7.04998 12.65 6.84998C12.23 6.43998 11.53 5.73996 11 5.20996C10.81 5.01996 10.71 4.77 10.71 4.5C10.71 4.24 10.81 3.98004 11 3.79004C11.53 3.26004 12.23 2.56002 12.65 2.15002C12.84 1.95002 13.16 1.95002 13.35 2.15002C13.45 2.24002 13.5 2.37 13.5 2.5C13.5 2.63 13.45 2.75998 13.35 2.84998C12.91 3.29998 12.21 4 12.21 4C12.21 4 15.34 4 17 4C17.55 4 18 4.45 18 5C18 8.05 18 17.05 18 17.05C19.14 17.28 20 18.29 20 19.5C20 20.88 18.88 22 17.5 22C16.12 22 15 20.88 15 19.5C15 18.29 15.86 17.28 17 17.05V5H12.21ZM5.5 21C6.33 21 7 20.33 7 19.5C7 18.67 6.33 18 5.5 18C4.67 18 4 18.67 4 19.5C4 20.33 4.67 21 5.5 21ZM17.5 21C16.67 21 16 20.33 16 19.5C16 18.67 16.67 18 17.5 18C18.33 18 19 18.67 19 19.5C19 20.33 18.33 21 17.5 21ZM5.5 6C6.33 6 7 5.33 7 4.5C7 3.67 6.33 3 5.5 3C4.67 3 4 3.67 4 4.5C4 5.33 4.67 6 5.5 6Z" fill="#333333"/>
</svg>
