<svg width="24" height="24" viewBox="0 0 24 24" fill="none" xmlns="http://www.w3.org/2000/svg">
<path fill-rule="evenodd" clip-rule="evenodd" d="M10.793 20C10.793 20 7.657 20 6 20C5.448 20 5 19.55 5 19C5 15.95 5 6.94995 5 6.94995C3.859 6.71995 3 5.71 3 4.5C3 3.12 4.12 2 5.5 2C6.88 2 8 3.12 8 4.5C8 5.71 7.141 6.71995 6 6.94995V19H10.793C10.793 19 10.08 18.29 9.63702 17.84C9.54602 17.75 9.495 17.63 9.495 17.5C9.495 17.37 9.54602 17.25 9.63702 17.16C9.63702 17.15 9.638 17.15 9.638 17.15C9.838 16.95 10.162 16.95 10.362 17.15C10.779 17.57 11.475 18.27 12 18.79C12.188 18.98 12.293 19.24 12.293 19.5C12.293 19.77 12.188 20.02 12 20.21C11.471 20.74 10.769 21.44 10.353 21.85C10.158 22.05 9.84197 22.05 9.64697 21.85C9.64697 21.85 9.647 21.85 9.646 21.85C9.553 21.76 9.5 21.63 9.5 21.5C9.5 21.37 9.553 21.24 9.646 21.15C10.09 20.7 10.793 20 10.793 20ZM13.207 5C13.207 5 13.91 5.70002 14.354 6.15002C14.447 6.24002 14.5 6.37 14.5 6.5C14.5 6.63 14.447 6.75998 14.354 6.84998C14.353 6.84998 14.353 6.84998 14.353 6.84998C14.158 7.04998 13.842 7.04998 13.647 6.84998C13.231 6.43998 12.529 5.73996 12 5.20996C11.812 5.01996 11.707 4.77 11.707 4.5C11.707 4.24 11.812 3.98004 12 3.79004C12.525 3.27004 13.221 2.57002 13.638 2.15002C13.838 1.95002 14.162 1.95002 14.362 2.15002C14.362 2.15002 14.363 2.15003 14.363 2.16003C14.454 2.25003 14.505 2.37 14.505 2.5C14.505 2.63 14.454 2.74997 14.363 2.83997C13.92 3.28997 13.207 4 13.207 4C13.207 4 16.343 4 18 4C18.552 4 19 4.45 19 5C19 8.05 19 17.05 19 17.05C20.141 17.28 21 18.29 21 19.5C21 20.88 19.88 22 18.5 22C17.12 22 16 20.88 16 19.5C16 18.29 16.859 17.28 18 17.05V5H13.207ZM18.5 21C17.672 21 17 20.33 17 19.5C17 18.67 17.672 18 18.5 18C19.328 18 20 18.67 20 19.5C20 20.33 19.328 21 18.5 21ZM5.5 3C6.328 3 7 3.67 7 4.5C7 5.33 6.328 6 5.5 6C4.672 6 4 5.33 4 4.5C4 3.67 4.672 3 5.5 3Z" fill="#333333"/>
</svg>
