<?xml version="1.0" encoding="UTF-8" standalone="no"?>
<!DOCTYPE svg PUBLIC "-//W3C//DTD SVG 1.1//EN" "http://www.w3.org/Graphics/SVG/1.1/DTD/svg11.dtd">
<svg width="24px" height="24px" version="1.1" xmlns="http://www.w3.org/2000/svg" xmlns:xlink="http://www.w3.org/1999/xlink" xml:space="preserve" xmlns:serif="http://www.serif.com/" style="fill-rule:evenodd;clip-rule:evenodd;stroke-linejoin:round;stroke-miterlimit:1.41421;">
    <g transform="matrix(1,0,0,1,-1124,-1634)">
        <g id="git.regular.fork" transform="matrix(1,0,0,1,-444,864)">
            <rect x="1568" y="770" width="24" height="24" style="fill:none;"/>
            <g transform="matrix(1,0,0,1,444,-864)">
                <path d="M1141,1641.83C1139.84,1641.42 1139,1640.31 1139,1639C1139,1637.34 1140.34,1636 1142,1636C1143.66,1636 1145,1637.34 1145,1639C1145,1640.31 1144.16,1641.42 1143,1641.83C1143,1641.83 1143,1643.18 1143,1644C1143,1644.38 1142.79,1644.73 1142.45,1644.89C1140.96,1645.64 1137,1647.62 1137,1647.62L1137,1650.17C1138.16,1650.58 1139,1651.69 1139,1653C1139,1654.66 1137.66,1656 1136,1656C1134.34,1656 1133,1654.66 1133,1653C1133,1651.69 1133.84,1650.58 1135,1650.17L1135,1647.62C1135,1647.62 1131.04,1645.64 1129.55,1644.89C1129.21,1644.73 1129,1644.38 1129,1644C1129,1643.18 1129,1641.83 1129,1641.83C1127.84,1641.42 1127,1640.31 1127,1639C1127,1637.34 1128.34,1636 1130,1636C1131.66,1636 1133,1637.34 1133,1639C1133,1640.31 1132.16,1641.42 1131,1641.83L1131,1643.38L1136,1645.88L1141,1643.38L1141,1641.83ZM1136,1652C1136.55,1652 1137,1652.45 1137,1653C1137,1653.55 1136.55,1654 1136,1654C1135.45,1654 1135,1653.55 1135,1653C1135,1652.45 1135.45,1652 1136,1652ZM1130,1638C1130.55,1638 1131,1638.45 1131,1639C1131,1639.55 1130.55,1640 1130,1640C1129.45,1640 1129,1639.55 1129,1639C1129,1638.45 1129.45,1638 1130,1638ZM1142,1638C1142.55,1638 1143,1638.45 1143,1639C1143,1639.55 1142.55,1640 1142,1640C1141.45,1640 1141,1639.55 1141,1639C1141,1638.45 1141.45,1638 1142,1638Z" style="fill:rgb(51,51,51);"/>
            </g>
        </g>
    </g>
</svg>
