<svg width="24" height="24" viewBox="0 0 24 24" fill="none" xmlns="http://www.w3.org/2000/svg">
<path fill-rule="evenodd" clip-rule="evenodd" d="M8 17.05C6.859 17.28 6 18.29 6 19.5C6 20.88 7.12 22 8.5 22C9.88 22 11 20.88 11 19.5C11 18.29 10.141 17.28 9 17.05V9.76001L15 12.33V15.05C13.859 15.28 13 16.29 13 17.5C13 18.88 14.12 20 15.5 20C16.88 20 18 18.88 18 17.5C18 16.29 17.141 15.28 16 15.05C16 15.05 16 13.03 16 12.33C16 11.93 15.762 11.57 15.394 11.41C13.693 10.68 9 8.67004 9 8.67004V6.94995C10.141 6.71995 11 5.71 11 4.5C11 3.12 9.88 2 8.5 2C7.12 2 6 3.12 6 4.5C6 5.71 6.859 6.71995 8 6.94995V17.05ZM8.5 6C9.328 6 10 5.33 10 4.5C10 3.67 9.328 3 8.5 3C7.672 3 7 3.67 7 4.5C7 5.33 7.672 6 8.5 6ZM15.5 19C16.328 19 17 18.33 17 17.5C17 16.67 16.328 16 15.5 16C14.672 16 14 16.67 14 17.5C14 18.33 14.672 19 15.5 19ZM8.5 21C9.328 21 10 20.33 10 19.5C10 18.67 9.328 18 8.5 18C7.672 18 7 18.67 7 19.5C7 20.33 7.672 21 8.5 21Z" fill="#333333"/>
</svg>
