<svg width="24" height="24" viewBox="0 0 24 24" fill="none" xmlns="http://www.w3.org/2000/svg">
<path fill-rule="evenodd" clip-rule="evenodd" d="M8 6.94995C6.859 6.71995 6 5.71 6 4.5C6 3.12 7.12 2 8.5 2C9.88 2 11 3.12 11 4.5C11 5.71 10.141 6.71995 9 6.94995V14.24L15 11.67V8.94995C13.859 8.71995 13 7.71 13 6.5C13 5.12 14.12 4 15.5 4C16.88 4 18 5.12 18 6.5C18 7.71 17.141 8.71995 16 8.94995C16 8.94995 16 10.97 16 11.67C16 12.07 15.762 12.43 15.394 12.59C13.693 13.32 9 15.33 9 15.33V17.05C10.141 17.28 11 18.29 11 19.5C11 20.88 9.88 22 8.5 22C7.12 22 6 20.88 6 19.5C6 18.29 6.859 17.28 8 17.05V6.94995ZM8.5 18C9.328 18 10 18.67 10 19.5C10 20.33 9.328 21 8.5 21C7.672 21 7 20.33 7 19.5C7 18.67 7.672 18 8.5 18ZM15.5 5C16.328 5 17 5.67 17 6.5C17 7.33 16.328 8 15.5 8C14.672 8 14 7.33 14 6.5C14 5.67 14.672 5 15.5 5ZM8.5 3C9.328 3 10 3.67 10 4.5C10 5.33 9.328 6 8.5 6C7.672 6 7 5.33 7 4.5C7 3.67 7.672 3 8.5 3Z" fill="#333333"/>
</svg>
