<?xml version="1.0" encoding="UTF-8" standalone="no"?>
<!DOCTYPE svg PUBLIC "-//W3C//DTD SVG 1.1//EN" "http://www.w3.org/Graphics/SVG/1.1/DTD/svg11.dtd">
<svg width="24px" height="24px" version="1.1" xmlns="http://www.w3.org/2000/svg" xmlns:xlink="http://www.w3.org/1999/xlink" xml:space="preserve" xmlns:serif="http://www.serif.com/" style="fill-rule:evenodd;clip-rule:evenodd;stroke-linejoin:round;stroke-miterlimit:1.41421;">
    <g transform="matrix(1,0,0,1,-980,-1634)">
        <g id="git.regular.branch" transform="matrix(1,0,0,1,-588,864)">
            <rect x="1568" y="770" width="24" height="24" style="fill:none;"/>
            <g transform="matrix(1,0,0,1,587,-864)">
                <path d="M991,1650.17C992.165,1650.58 993,1651.69 993,1653C993,1654.66 991.656,1656 990,1656C988.344,1656 987,1654.66 987,1653C987,1651.69 987.835,1650.58 989,1650.17L989,1641.83C987.835,1641.42 987,1640.31 987,1639C987,1637.34 988.344,1636 990,1636C991.656,1636 993,1637.34 993,1639C993,1640.31 992.165,1641.42 991,1641.83L991,1647.48L996,1645.34L996,1644.83C994.835,1644.42 994,1643.31 994,1642C994,1640.34 995.344,1639 997,1639C998.656,1639 1000,1640.34 1000,1642C1000,1643.31 999.165,1644.42 998,1644.83C998,1644.83 998,1645.48 998,1646C998,1646.4 997.762,1646.76 997.394,1646.92C995.693,1647.65 991,1649.66 991,1649.66L991,1650.17ZM990,1652C990.552,1652 991,1652.45 991,1653C991,1653.55 990.552,1654 990,1654C989.448,1654 989,1653.55 989,1653C989,1652.45 989.448,1652 990,1652ZM997,1641C997.552,1641 998,1641.45 998,1642C998,1642.55 997.552,1643 997,1643C996.448,1643 996,1642.55 996,1642C996,1641.45 996.448,1641 997,1641ZM990,1638C990.552,1638 991,1638.45 991,1639C991,1639.55 990.552,1640 990,1640C989.448,1640 989,1639.55 989,1639C989,1638.45 989.448,1638 990,1638Z" style="fill:rgb(51,51,51);"/>
            </g>
        </g>
    </g>
</svg>
