<svg width="24" height="24" viewBox="0 0 24 24" fill="none" xmlns="http://www.w3.org/2000/svg">
<path fill-rule="evenodd" clip-rule="evenodd" d="M7 7.82998C8.16 7.41998 9 6.31002 9 5.00002C9 3.34002 7.66 2.00002 6 2.00002C4.34 2.00002 3 3.34002 3 5.00002C3 6.31002 3.84 7.41998 5 7.82998V16.1701C3.84 16.5801 3 17.69 3 19C3 20.66 4.34 22 6 22C7.66 22 9 20.66 9 19C9 17.69 8.16 16.5801 7 16.1701V7.82998ZM14.41 6.00002C14.41 6.00002 14.54 6.13006 14.71 6.29006C14.89 6.48006 15 6.74002 15 7.00002C15 7.27002 14.89 7.51998 14.71 7.70998C14.32 8.09998 13.68 8.09998 13.29 7.70998C12.71 7.11998 11.88 6.28998 11.29 5.70998C10.9 5.31998 10.9 4.68006 11.29 4.29006C11.88 3.71006 12.71 2.88006 13.29 2.29006C13.68 1.90006 14.32 1.90006 14.71 2.29006C14.89 2.48006 15 2.74002 15 3.00002C15 3.27002 14.89 3.51998 14.71 3.70998C14.54 3.86998 14.41 4.00002 14.41 4.00002C14.41 4.00002 16.65 4.00002 18 4.00002C18.55 4.00002 19 4.45002 19 5.00002C19 7.91002 19 16.1701 19 16.1701C20.16 16.5801 21 17.69 21 19C21 20.66 19.66 22 18 22C16.34 22 15 20.66 15 19C15 17.69 15.84 16.5801 17 16.1701V6.00002H14.41ZM6 20C6.55 20 7 19.55 7 19C7 18.45 6.55 18 6 18C5.45 18 5 18.45 5 19C5 19.55 5.45 20 6 20ZM18 18C18.55 18 19 18.45 19 19C19 19.55 18.55 20 18 20C17.45 20 17 19.55 17 19C17 18.45 17.45 18 18 18ZM6 6.00002C6.55 6.00002 7 5.55002 7 5.00002C7 4.45002 6.55 4.00002 6 4.00002C5.45 4.00002 5 4.45002 5 5.00002C5 5.55002 5.45 6.00002 6 6.00002Z" fill="black"/>
</svg>
