<?xml version="1.0" encoding="UTF-8" standalone="no"?>
<!DOCTYPE svg PUBLIC "-//W3C//DTD SVG 1.1//EN" "http://www.w3.org/Graphics/SVG/1.1/DTD/svg11.dtd">
<svg width="24px" height="24px" version="1.1" xmlns="http://www.w3.org/2000/svg" xmlns:xlink="http://www.w3.org/1999/xlink" xml:space="preserve" xmlns:serif="http://www.serif.com/" style="fill-rule:evenodd;clip-rule:evenodd;stroke-linejoin:round;stroke-miterlimit:1.41421;">
    <g transform="matrix(1,0,0,1,-1124,-1682)">
        <g id="git.thin.fork" transform="matrix(1,0,0,1,-444,912)">
            <rect x="1568" y="770" width="24" height="24" style="fill:none;"/>
            <g transform="matrix(1,0,0,1,444,-912)">
                <path d="M1141,1688.95C1139.86,1688.72 1139,1687.71 1139,1686.5C1139,1685.12 1140.12,1684 1141.5,1684C1142.88,1684 1144,1685.12 1144,1686.5C1144,1687.71 1143.14,1688.72 1142,1688.95C1142,1688.95 1142,1690.72 1142,1691.69C1142,1692.07 1141.79,1692.42 1141.45,1692.59C1139.96,1693.33 1136,1695.31 1136,1695.31L1136,1699.05C1137.14,1699.28 1138,1700.29 1138,1701.5C1138,1702.88 1136.88,1704 1135.5,1704C1134.12,1704 1133,1702.88 1133,1701.5C1133,1700.29 1133.86,1699.28 1135,1699.05L1135,1695.31C1135,1695.31 1131.04,1693.33 1129.55,1692.59C1129.21,1692.42 1129,1692.07 1129,1691.69C1129,1690.72 1129,1688.95 1129,1688.95C1127.86,1688.72 1127,1687.71 1127,1686.5C1127,1685.12 1128.12,1684 1129.5,1684C1130.88,1684 1132,1685.12 1132,1686.5C1132,1687.71 1131.14,1688.72 1130,1688.95L1130,1691.69L1135.5,1694.44L1141,1691.69L1141,1688.95ZM1135.5,1700C1136.33,1700 1137,1700.67 1137,1701.5C1137,1702.33 1136.33,1703 1135.5,1703C1134.67,1703 1134,1702.33 1134,1701.5C1134,1700.67 1134.67,1700 1135.5,1700ZM1141.5,1685C1142.33,1685 1143,1685.67 1143,1686.5C1143,1687.33 1142.33,1688 1141.5,1688C1140.67,1688 1140,1687.33 1140,1686.5C1140,1685.67 1140.67,1685 1141.5,1685ZM1129.5,1685C1130.33,1685 1131,1685.67 1131,1686.5C1131,1687.33 1130.33,1688 1129.5,1688C1128.67,1688 1128,1687.33 1128,1686.5C1128,1685.67 1128.67,1685 1129.5,1685Z" style="fill:rgb(51,51,51);"/>
            </g>
        </g>
    </g>
</svg>
