<svg width="24" height="24" viewBox="0 0 24 24" fill="none" xmlns="http://www.w3.org/2000/svg">
<path fill-rule="evenodd" clip-rule="evenodd" d="M10 7.82996C11.165 7.41996 12 6.31 12 5C12 3.34 10.656 2 9 2C7.344 2 6 3.34 6 5C6 6.31 6.835 7.41996 8 7.82996V16.17C6.835 16.58 6 17.69 6 19C6 20.66 7.344 22 9 22C10.656 22 12 20.66 12 19C12 17.69 11.165 16.58 10 16.17V10.52L15 12.66V13.17C13.835 13.58 13 14.69 13 16C13 17.66 14.344 19 16 19C17.656 19 19 17.66 19 16C19 14.69 18.165 13.58 17 13.17C17 13.17 17 12.52 17 12C17 11.6 16.762 11.24 16.394 11.08C14.693 10.35 10 8.33997 10 8.33997V7.82996ZM9 6C9.552 6 10 5.55 10 5C10 4.45 9.552 4 9 4C8.448 4 8 4.45 8 5C8 5.55 8.448 6 9 6ZM16 17C16.552 17 17 16.55 17 16C17 15.45 16.552 15 16 15C15.448 15 15 15.45 15 16C15 16.55 15.448 17 16 17ZM9 20C9.552 20 10 19.55 10 19C10 18.45 9.552 18 9 18C8.448 18 8 18.45 8 19C8 19.55 8.448 20 9 20Z" fill="#333333"/>
</svg>
