<svg width="24" height="24" viewBox="0 0 24 24" fill="none" xmlns="http://www.w3.org/2000/svg">
<path fill-rule="evenodd" clip-rule="evenodd" d="M10 16.17C11.165 16.58 12 17.69 12 19C12 20.66 10.656 22 9 22C7.344 22 6 20.66 6 19C6 17.69 6.835 16.58 8 16.17V7.82996C6.835 7.41996 6 6.31 6 5C6 3.34 7.344 2 9 2C10.656 2 12 3.34 12 5C12 6.31 11.165 7.41996 10 7.82996V13.48L15 11.34V9.82996C13.835 9.41996 13 8.31 13 7C13 5.34 14.344 4 16 4C17.656 4 19 5.34 19 7C19 8.31 18.165 9.41996 17 9.82996C17 9.82996 17 11.48 17 12C17 12.4 16.762 12.76 16.394 12.92C14.693 13.65 10 15.66 10 15.66V16.17ZM9 18C9.552 18 10 18.45 10 19C10 19.55 9.552 20 9 20C8.448 20 8 19.55 8 19C8 18.45 8.448 18 9 18ZM16 6C16.552 6 17 6.45 17 7C17 7.55 16.552 8 16 8C15.448 8 15 7.55 15 7C15 6.45 15.448 6 16 6ZM9 4C9.552 4 10 4.45 10 5C10 5.55 9.552 6 9 6C8.448 6 8 5.55 8 5C8 4.45 8.448 4 9 4Z" fill="#333333"/>
</svg>
