<?xml version="1.0" encoding="UTF-8" standalone="no"?>
<!DOCTYPE svg PUBLIC "-//W3C//DTD SVG 1.1//EN" "http://www.w3.org/Graphics/SVG/1.1/DTD/svg11.dtd">
<svg width="24px" height="24px" version="1.1" xmlns="http://www.w3.org/2000/svg" xmlns:xlink="http://www.w3.org/1999/xlink" xml:space="preserve" xmlns:serif="http://www.serif.com/" style="fill-rule:evenodd;clip-rule:evenodd;stroke-linejoin:round;stroke-miterlimit:1.41421;">
    <g transform="matrix(1,0,0,1,-884,-1682)">
        <g id="git.thin.compare" transform="matrix(1,0,0,1,-684,912)">
            <rect x="1568" y="770" width="24" height="24" style="fill:none;"/>
            <g transform="matrix(1,0,0,1,684,-912)">
                <path d="M894.793,1702C894.793,1702 891.657,1702 890,1702C889.448,1702 889,1701.55 889,1701C889,1697.95 889,1688.95 889,1688.95C887.859,1688.72 887,1687.71 887,1686.5C887,1685.12 888.12,1684 889.5,1684C890.88,1684 892,1685.12 892,1686.5C892,1687.71 891.141,1688.72 890,1688.95L890,1701L894.793,1701C894.793,1701 894.08,1700.29 893.637,1699.84C893.546,1699.75 893.495,1699.63 893.495,1699.5C893.495,1699.37 893.546,1699.25 893.637,1699.16C893.637,1699.15 893.638,1699.15 893.638,1699.15C893.838,1698.95 894.162,1698.95 894.362,1699.15C894.779,1699.57 895.475,1700.27 896,1700.79C896.188,1700.98 896.293,1701.24 896.293,1701.5C896.293,1701.77 896.188,1702.02 896,1702.21C895.471,1702.74 894.769,1703.44 894.353,1703.85C894.158,1704.05 893.842,1704.05 893.647,1703.85C893.647,1703.85 893.647,1703.85 893.646,1703.85C893.553,1703.76 893.5,1703.63 893.5,1703.5C893.5,1703.37 893.553,1703.24 893.646,1703.15C894.09,1702.7 894.793,1702 894.793,1702ZM897.207,1687C897.207,1687 897.91,1687.7 898.354,1688.15C898.447,1688.24 898.5,1688.37 898.5,1688.5C898.5,1688.63 898.447,1688.76 898.354,1688.85C898.353,1688.85 898.353,1688.85 898.353,1688.85C898.158,1689.05 897.842,1689.05 897.647,1688.85C897.231,1688.44 896.529,1687.74 896,1687.21C895.812,1687.02 895.707,1686.77 895.707,1686.5C895.707,1686.24 895.812,1685.98 896,1685.79C896.525,1685.27 897.221,1684.57 897.638,1684.15C897.838,1683.95 898.162,1683.95 898.362,1684.15C898.362,1684.15 898.363,1684.15 898.363,1684.16C898.454,1684.25 898.505,1684.37 898.505,1684.5C898.505,1684.63 898.454,1684.75 898.363,1684.84C897.92,1685.29 897.207,1686 897.207,1686C897.207,1686 900.343,1686 902,1686C902.552,1686 903,1686.45 903,1687C903,1690.05 903,1699.05 903,1699.05C904.141,1699.28 905,1700.29 905,1701.5C905,1702.88 903.88,1704 902.5,1704C901.12,1704 900,1702.88 900,1701.5C900,1700.29 900.859,1699.28 902,1699.05L902,1687L897.207,1687ZM902.5,1703C901.672,1703 901,1702.33 901,1701.5C901,1700.67 901.672,1700 902.5,1700C903.328,1700 904,1700.67 904,1701.5C904,1702.33 903.328,1703 902.5,1703ZM889.5,1685C890.328,1685 891,1685.67 891,1686.5C891,1687.33 890.328,1688 889.5,1688C888.672,1688 888,1687.33 888,1686.5C888,1685.67 888.672,1685 889.5,1685Z" style="fill:rgb(51,51,51);"/>
            </g>
        </g>
    </g>
</svg>
