<?xml version="1.0" encoding="UTF-8" standalone="no"?>
<!DOCTYPE svg PUBLIC "-//W3C//DTD SVG 1.1//EN" "http://www.w3.org/Graphics/SVG/1.1/DTD/svg11.dtd">
<svg width="24px" height="24px" version="1.1" xmlns="http://www.w3.org/2000/svg" xmlns:xlink="http://www.w3.org/1999/xlink" xml:space="preserve" xmlns:serif="http://www.serif.com/" style="fill-rule:evenodd;clip-rule:evenodd;stroke-linejoin:round;stroke-miterlimit:1.41421;">
    <g transform="matrix(1,0,0,1,-932,-1682)">
        <g id="git.thin.commit" transform="matrix(1,0,0,1,-636,912)">
            <rect x="1568" y="770" width="24" height="24" style="fill:none;"/>
            <g transform="matrix(1,0,0,1,636,-912)">
                <path d="M943,1691.05C943,1691.05 943,1686.11 943,1684.5C943,1684.37 943.053,1684.24 943.146,1684.15C943.24,1684.05 943.367,1684 943.5,1684C943.633,1684 943.76,1684.05 943.854,1684.15C943.947,1684.24 944,1684.37 944,1684.5C944,1686.11 944,1691.05 944,1691.05C945.141,1691.28 946,1692.29 946,1693.5C946,1694.71 945.141,1695.72 944,1695.95C944,1695.95 944,1700.89 944,1702.5C944,1702.63 943.947,1702.76 943.854,1702.85C943.76,1702.95 943.633,1703 943.5,1703C943.367,1703 943.24,1702.95 943.146,1702.85C943.053,1702.76 943,1702.63 943,1702.5C943,1700.89 943,1695.95 943,1695.95C941.859,1695.72 941,1694.71 941,1693.5C941,1692.29 941.859,1691.28 943,1691.05ZM943.5,1692C944.328,1692 945,1692.67 945,1693.5C945,1694.33 944.328,1695 943.5,1695C942.672,1695 942,1694.33 942,1693.5C942,1692.67 942.672,1692 943.5,1692Z" style="fill:rgb(51,51,51);"/>
            </g>
        </g>
    </g>
</svg>
