<?xml version="1.0" encoding="UTF-8" standalone="no"?>
<!DOCTYPE svg PUBLIC "-//W3C//DTD SVG 1.1//EN" "http://www.w3.org/Graphics/SVG/1.1/DTD/svg11.dtd">
<svg width="24px" height="24px" version="1.1" xmlns="http://www.w3.org/2000/svg" xmlns:xlink="http://www.w3.org/1999/xlink" xml:space="preserve" xmlns:serif="http://www.serif.com/" style="fill-rule:evenodd;clip-rule:evenodd;stroke-linejoin:round;stroke-miterlimit:1.41421;">
    <g transform="matrix(1,0,0,1,-1076,-1682)">
        <g id="git.thin.pullRequest" transform="matrix(1,0,0,1,-492,912)">
            <rect x="1568" y="770" width="24" height="24" style="fill:none;"/>
            <g transform="matrix(1,0,0,1,492,-912)">
                <path d="M1082,1699.05C1080.86,1699.28 1080,1700.29 1080,1701.5C1080,1702.88 1081.12,1704 1082.5,1704C1083.88,1704 1085,1702.88 1085,1701.5C1085,1700.29 1084.14,1699.28 1083,1699.05L1083,1688.95C1084.14,1688.72 1085,1687.71 1085,1686.5C1085,1685.12 1083.88,1684 1082.5,1684C1081.12,1684 1080,1685.12 1080,1686.5C1080,1687.71 1080.86,1688.72 1082,1688.95L1082,1699.05ZM1089.21,1687C1089.21,1687 1089.91,1687.7 1090.35,1688.15C1090.45,1688.24 1090.5,1688.37 1090.5,1688.5C1090.5,1688.63 1090.45,1688.76 1090.35,1688.85C1090.35,1688.85 1090.35,1688.85 1090.35,1688.85C1090.16,1689.05 1089.84,1689.05 1089.65,1688.85C1089.23,1688.44 1088.53,1687.74 1088,1687.21C1087.81,1687.02 1087.71,1686.77 1087.71,1686.5C1087.71,1686.24 1087.81,1685.98 1088,1685.79C1088.53,1685.26 1089.23,1684.56 1089.65,1684.15C1089.84,1683.95 1090.16,1683.95 1090.35,1684.15C1090.35,1684.15 1090.35,1684.15 1090.35,1684.15C1090.45,1684.24 1090.5,1684.37 1090.5,1684.5C1090.5,1684.63 1090.45,1684.76 1090.35,1684.85C1089.91,1685.3 1089.21,1686 1089.21,1686C1089.21,1686 1092.34,1686 1094,1686C1094.55,1686 1095,1686.45 1095,1687C1095,1690.05 1095,1699.05 1095,1699.05C1096.14,1699.28 1097,1700.29 1097,1701.5C1097,1702.88 1095.88,1704 1094.5,1704C1093.12,1704 1092,1702.88 1092,1701.5C1092,1700.29 1092.86,1699.28 1094,1699.05L1094,1687L1089.21,1687ZM1082.5,1703C1083.33,1703 1084,1702.33 1084,1701.5C1084,1700.67 1083.33,1700 1082.5,1700C1081.67,1700 1081,1700.67 1081,1701.5C1081,1702.33 1081.67,1703 1082.5,1703ZM1094.5,1703C1093.67,1703 1093,1702.33 1093,1701.5C1093,1700.67 1093.67,1700 1094.5,1700C1095.33,1700 1096,1700.67 1096,1701.5C1096,1702.33 1095.33,1703 1094.5,1703ZM1082.5,1688C1083.33,1688 1084,1687.33 1084,1686.5C1084,1685.67 1083.33,1685 1082.5,1685C1081.67,1685 1081,1685.67 1081,1686.5C1081,1687.33 1081.67,1688 1082.5,1688Z" style="fill:rgb(51,51,51);"/>
            </g>
        </g>
    </g>
</svg>
