<svg width="24" height="24" viewBox="0 0 24 24" fill="none" xmlns="http://www.w3.org/2000/svg">
<path fill-rule="evenodd" clip-rule="evenodd" d="M17 7.82996C15.84 7.41996 15 6.31 15 5C15 3.34 16.34 2 18 2C19.66 2 21 3.34 21 5C21 6.31 20.16 7.41996 19 7.82996C19 7.82996 19 9.18 19 10C19 10.38 18.79 10.73 18.45 10.89C16.96 11.64 13 13.62 13 13.62V16.17C14.16 16.58 15 17.69 15 19C15 20.66 13.66 22 12 22C10.34 22 9 20.66 9 19C9 17.69 9.84 16.58 11 16.17V13.62C11 13.62 7.04005 11.64 5.55005 10.89C5.21005 10.73 5 10.38 5 10C5 9.18 5 7.82996 5 7.82996C3.84 7.41996 3 6.31 3 5C3 3.34 4.34 2 6 2C7.66 2 9 3.34 9 5C9 6.31 8.16 7.41996 7 7.82996V9.38L12 11.88L17 9.38V7.82996ZM12 18C12.55 18 13 18.45 13 19C13 19.55 12.55 20 12 20C11.45 20 11 19.55 11 19C11 18.45 11.45 18 12 18ZM6 4C6.55 4 7 4.45 7 5C7 5.55 6.55 6 6 6C5.45 6 5 5.55 5 5C5 4.45 5.45 4 6 4ZM18 4C18.55 4 19 4.45 19 5C19 5.55 18.55 6 18 6C17.45 6 17 5.55 17 5C17 4.45 17.45 4 18 4Z" fill="#333333"/>
</svg>
