<svg width="24" height="24" viewBox="0 0 24 24" fill="none" xmlns="http://www.w3.org/2000/svg">
<path fill-rule="evenodd" clip-rule="evenodd" d="M5 7.82998C3.835 7.41998 3 6.31002 3 5.00002C3 3.34002 4.344 2.00002 6 2.00002C7.656 2.00002 9 3.34002 9 5.00002C9 6.31002 8.165 7.41998 7 7.82998V18H9.586C9.586 18 9.45803 17.87 9.29303 17.71C9.10503 17.52 9 17.27 9 17C9 16.74 9.10503 16.4801 9.29303 16.2901C9.68303 15.9001 10.317 15.9001 10.707 16.2901C11.293 16.8801 12.121 17.7101 12.707 18.2901C13.098 18.6801 13.098 19.32 12.707 19.71C12.121 20.29 11.293 21.12 10.707 21.71C10.317 22.1 9.68303 22.1 9.29303 21.71C9.10503 21.52 9 21.27 9 21C9 20.74 9.10503 20.4801 9.29303 20.2901C9.45803 20.1301 9.586 20 9.586 20C9.586 20 7.349 20 6 20C5.448 20 5 19.55 5 19C5 16.09 5 7.82998 5 7.82998ZM14.414 6.00002C14.414 6.00002 14.542 6.13006 14.707 6.29006C14.895 6.48006 15 6.74002 15 7.00002C15 7.27002 14.895 7.51998 14.707 7.70998C14.317 8.09998 13.683 8.09998 13.293 7.70998C12.707 7.11998 11.879 6.28998 11.293 5.70998C10.902 5.31998 10.902 4.68006 11.293 4.29006C11.879 3.71006 12.707 2.88006 13.293 2.29006C13.683 1.90006 14.317 1.90006 14.707 2.29006C14.895 2.48006 15 2.74002 15 3.00002C15 3.27002 14.895 3.51998 14.707 3.70998C14.542 3.86998 14.414 4.00002 14.414 4.00002C14.414 4.00002 16.651 4.00002 18 4.00002C18.552 4.00002 19 4.45002 19 5.00002C19 7.91002 19 16.1701 19 16.1701C20.165 16.5801 21 17.69 21 19C21 20.66 19.656 22 18 22C16.344 22 15 20.66 15 19C15 17.69 15.835 16.5801 17 16.1701V6.00002H14.414ZM18 18C18.552 18 19 18.45 19 19C19 19.55 18.552 20 18 20C17.448 20 17 19.55 17 19C17 18.45 17.448 18 18 18ZM6 4.00002C6.552 4.00002 7 4.45002 7 5.00002C7 5.55002 6.552 6.00002 6 6.00002C5.448 6.00002 5 5.55002 5 5.00002C5 4.45002 5.448 4.00002 6 4.00002Z" fill="black"/>
</svg>
