<svg width="24" height="24" viewBox="0 0 24 24" fill="none" xmlns="http://www.w3.org/2000/svg">
<path fill-rule="evenodd" clip-rule="evenodd" d="M20.0001 18.9986C20.0001 19.2636 19.8901 19.5186 19.7101 19.7056C19.5201 19.8936 19.2601 19.9986 19.0001 19.9986C16.7401 19.9986 11.2601 19.9986 9.0001 19.9986C8.7401 19.9986 8.48014 19.8936 8.29014 19.7056C8.11014 19.5186 8.0001 19.2636 8.0001 18.9986C8.0001 16.7386 8.0001 11.2586 8.0001 8.99865C8.0001 8.73365 8.11014 8.47868 8.29014 8.29168C8.48014 8.10368 8.7401 7.99865 9.0001 7.99865C11.2601 7.99865 16.7401 7.99865 19.0001 7.99865C19.2601 7.99865 19.5201 8.10368 19.7101 8.29168C19.8901 8.47868 20.0001 8.73365 20.0001 8.99865C20.0001 11.2586 20.0001 16.7386 20.0001 18.9986ZM9.0001 8.99865V18.9986H19.0001V8.99865H9.0001ZM11.0001 13.4986C11.0001 13.3656 11.05 13.2386 11.15 13.1446C11.24 13.0516 11.3701 12.9986 11.5001 12.9986C12.6301 12.9986 15.3701 12.9986 16.5001 12.9986C16.6301 12.9986 16.7602 13.0516 16.8502 13.1446C16.9502 13.2386 17.0001 13.3656 17.0001 13.4986C17.0001 13.6316 16.9502 13.7586 16.8502 13.8526C16.7602 13.9456 16.6301 13.9986 16.5001 13.9986C15.3701 13.9986 12.6301 13.9986 11.5001 13.9986C11.3701 13.9986 11.24 13.9456 11.15 13.8526C11.05 13.7586 11.0001 13.6316 11.0001 13.4986ZM13.0001 6.49865C13.0001 6.77465 12.7801 6.99865 12.5001 6.99865C12.2201 6.99865 12.0001 6.77465 12.0001 6.49865C12.0001 5.90665 12.0001 4.99866 12.0001 4.99866H5.00011V11.9986C5.00011 11.9986 5.91011 11.9986 6.5001 11.9986C6.7801 11.9986 7.0001 12.2226 7.0001 12.4986C7.0001 12.6316 6.9502 12.7586 6.8502 12.8526C6.7602 12.9456 6.6301 12.9986 6.5001 12.9986C6.0901 12.9986 5.50011 12.9986 5.00011 12.9986C4.45011 12.9986 4.00011 12.5506 4.00011 11.9986C4.00011 10.2666 4.00011 6.73065 4.00011 4.99866C4.00011 4.73366 4.11015 4.47869 4.29015 4.29169C4.48015 4.10369 4.74011 3.99866 5.00011 3.99866C6.7301 3.99866 10.2701 3.99866 12.0001 3.99866C12.5501 3.99866 13.0001 4.44666 13.0001 4.99866C13.0001 5.50265 13.0001 6.09065 13.0001 6.49865ZM11.0001 11.4986C11.0001 11.3656 11.05 11.2386 11.15 11.1446C11.24 11.0516 11.3701 10.9986 11.5001 10.9986C12.6301 10.9986 15.3701 10.9986 16.5001 10.9986C16.6301 10.9986 16.7602 11.0516 16.8502 11.1446C16.9502 11.2386 17.0001 11.3656 17.0001 11.4986C17.0001 11.6316 16.9502 11.7586 16.8502 11.8526C16.7602 11.9456 16.6301 11.9986 16.5001 11.9986C15.3701 11.9986 12.6301 11.9986 11.5001 11.9986C11.3701 11.9986 11.24 11.9456 11.15 11.8526C11.05 11.7586 11.0001 11.6316 11.0001 11.4986Z" fill="black"/>
</svg>
