<svg width="24" height="24" viewBox="0 0 24 24" fill="none" xmlns="http://www.w3.org/2000/svg">
<path fill-rule="evenodd" clip-rule="evenodd" d="M11 5.41399C11 5.41399 10.28 6.13196 9.70995 6.70696C9.31995 7.09796 8.68003 7.09796 8.29003 6.70696C8.11003 6.51996 7.99999 6.26499 7.99999 5.99999C7.99999 5.73499 8.11003 5.48002 8.29003 5.29302C9.12003 4.46902 10.47 3.11703 11.29 2.29303C11.48 2.10503 11.74 2 12 2C12.26 2 12.52 2.10503 12.71 2.29303C13.53 3.11703 14.8799 4.46902 15.7099 5.29302C15.8899 5.48002 16 5.73499 16 5.99999C16 6.26499 15.8899 6.51996 15.7099 6.70696C15.5199 6.89496 15.26 6.99999 15 6.99999C14.74 6.99999 14.48 6.89496 14.29 6.70696C13.72 6.13196 13 5.41399 13 5.41399V11H18.5901C18.5901 11 17.87 10.283 17.29 9.70695C16.9 9.31696 16.9 8.68302 17.29 8.29302C17.48 8.10502 17.74 7.99999 18 7.99999C18.26 7.99999 18.5199 8.10502 18.7099 8.29302C19.5299 9.11702 20.8799 10.469 21.7099 11.293C21.8899 11.48 22 11.735 22 12C22 12.265 21.8899 12.5199 21.7099 12.7069C20.8799 13.5309 19.5299 14.8829 18.7099 15.7069C18.5199 15.8949 18.26 16 18 16C17.74 16 17.48 15.8949 17.29 15.7069C16.9 15.3169 16.9 14.683 17.29 14.293C17.87 13.717 18.5901 13 18.5901 13H13V18.586C13 18.586 13.72 17.868 14.29 17.293C14.48 17.105 14.74 17 15 17C15.26 17 15.5199 17.105 15.7099 17.293C15.8899 17.48 16 17.735 16 18C16 18.265 15.8899 18.5199 15.7099 18.7069C14.8799 19.5309 13.53 20.8829 12.71 21.7069C12.52 21.8949 12.26 22 12 22C11.74 22 11.48 21.8949 11.29 21.7069C10.47 20.8829 9.12003 19.5309 8.29003 18.7069C8.11003 18.5199 7.99999 18.265 7.99999 18C7.99999 17.735 8.11003 17.48 8.29003 17.293C8.68003 16.902 9.31995 16.902 9.70995 17.293C10.28 17.868 11 18.586 11 18.586V13H5.40991C5.40991 13 6.12996 13.717 6.70996 14.293C7.09996 14.683 7.09996 15.3169 6.70996 15.7069C6.51996 15.8949 6.26 16 6 16C5.74 16 5.48004 15.8949 5.29004 15.7069C4.47004 14.8829 3.12004 13.5309 2.29004 12.7069C2.11004 12.5199 2 12.265 2 12C2 11.735 2.11004 11.48 2.29004 11.293C3.12004 10.469 4.47004 9.11702 5.29004 8.29302C5.48004 8.10502 5.74 7.99999 6 7.99999C6.26 7.99999 6.51996 8.10502 6.70996 8.29302C7.09996 8.68302 7.09996 9.31696 6.70996 9.70695C6.12996 10.283 5.40991 11 5.40991 11H11V5.41399Z" fill="#333333"/>
</svg>
