<svg width="24" height="24" viewBox="0 0 24 24" fill="none" xmlns="http://www.w3.org/2000/svg">
<path fill-rule="evenodd" clip-rule="evenodd" d="M21.9978 20.9983C21.9978 21.2633 21.8877 21.5182 21.7077 21.7052C21.5177 21.8932 21.2578 21.9983 20.9978 21.9983C19.2678 21.9983 15.7278 21.9983 13.9978 21.9983C13.7378 21.9983 13.4778 21.8932 13.2878 21.7052C13.1078 21.5182 12.9978 21.2633 12.9978 20.9983C12.9978 19.2663 12.9978 15.7303 12.9978 13.9983C12.9978 13.7333 13.1078 13.4783 13.2878 13.2913C13.4778 13.1033 13.7378 12.9983 13.9978 12.9983C15.7278 12.9983 19.2678 12.9983 20.9978 12.9983C21.2578 12.9983 21.5177 13.1033 21.7077 13.2913C21.8877 13.4783 21.9978 13.7333 21.9978 13.9983C21.9978 15.7303 21.9978 19.2663 21.9978 20.9983ZM20.9978 20.9983V13.9983H13.9978V20.9983H20.9978ZM7.9978 15.9983C7.9978 15.9983 9.8178 15.9983 10.9978 15.9983C11.5478 15.9983 11.9978 16.4463 11.9978 16.9983C11.9978 17.2633 11.8878 17.5182 11.7078 17.7052C11.5178 17.8932 11.2578 17.9983 10.9978 17.9983C9.8878 17.9983 8.1078 17.9983 6.9978 17.9983C6.7378 17.9983 6.47784 17.8932 6.28784 17.7052C6.10784 17.5182 5.9978 17.2633 5.9978 16.9983C5.9978 15.8883 5.9978 14.1083 5.9978 12.9983C5.9978 12.7333 6.10784 12.4783 6.28784 12.2913C6.47784 12.1033 6.7378 11.9983 6.9978 11.9983C7.5478 11.9983 7.9978 12.4463 7.9978 12.9983C7.9978 14.1833 7.9978 15.9983 7.9978 15.9983ZM17.9978 10.9983C17.9978 11.2633 17.8877 11.5182 17.7077 11.7052C17.5178 11.8932 17.2578 11.9983 16.9978 11.9983C16.4478 11.9983 15.9978 11.5503 15.9978 10.9983C15.9978 9.81328 15.9978 7.99828 15.9978 7.99828C15.9978 7.99828 14.1778 7.99828 12.9978 7.99828C12.4478 7.99828 11.9978 7.55028 11.9978 6.99828C11.9978 6.73328 12.1078 6.47831 12.2878 6.29131C12.4778 6.10331 12.7378 5.99828 12.9978 5.99828C14.1078 5.99828 15.8878 5.99828 16.9978 5.99828C17.2578 5.99828 17.5178 6.10331 17.7077 6.29131C17.8877 6.47831 17.9978 6.73328 17.9978 6.99828C17.9978 8.10828 17.9978 9.88827 17.9978 10.9983ZM11.9978 11.4983C11.9978 11.3653 12.0477 11.2383 12.1477 11.1443C12.2377 11.0513 12.3678 10.9983 12.4978 10.9983C13.0478 10.9983 13.9478 10.9983 14.4978 10.9983C14.6278 10.9983 14.7579 11.0513 14.8479 11.1443C14.9479 11.2383 14.9978 11.3653 14.9978 11.4983C14.9978 11.6313 14.9479 11.7583 14.8479 11.8523C14.7579 11.9453 14.6278 11.9983 14.4978 11.9983C13.9478 11.9983 13.0478 11.9983 12.4978 11.9983C12.3678 11.9983 12.2377 11.9453 12.1477 11.8523C12.0477 11.7583 11.9978 11.6313 11.9978 11.4983ZM10.9978 9.99827C10.9978 10.2633 10.8878 10.5182 10.7078 10.7052C10.5178 10.8932 10.2578 10.9983 9.9978 10.9983C8.2678 10.9983 4.7278 10.9983 2.9978 10.9983C2.7378 10.9983 2.47784 10.8932 2.28784 10.7052C2.10784 10.5182 1.9978 10.2633 1.9978 9.99827C1.9978 8.26628 1.9978 4.73029 1.9978 2.99829C1.9978 2.73329 2.10784 2.47832 2.28784 2.29132C2.47784 2.10332 2.7378 1.99829 2.9978 1.99829C4.7278 1.99829 8.2678 1.99829 9.9978 1.99829C10.2578 1.99829 10.5178 2.10332 10.7078 2.29132C10.8878 2.47832 10.9978 2.73329 10.9978 2.99829C10.9978 4.73029 10.9978 8.26628 10.9978 9.99827ZM11.9978 9.49828C11.9978 9.36528 12.0477 9.23827 12.1477 9.14427C12.2377 9.05127 12.3678 8.99828 12.4978 8.99828C13.0478 8.99828 13.9478 8.99828 14.4978 8.99828C14.6278 8.99828 14.7579 9.05127 14.8479 9.14427C14.9479 9.23827 14.9978 9.36528 14.9978 9.49828C14.9978 9.63128 14.9479 9.75828 14.8479 9.85228C14.7579 9.94528 14.6278 9.99827 14.4978 9.99827C13.9478 9.99827 13.0478 9.99827 12.4978 9.99827C12.3678 9.99827 12.2377 9.94528 12.1477 9.85228C12.0477 9.75828 11.9978 9.63128 11.9978 9.49828ZM9.9978 9.99827V2.99829H2.9978V9.99827H9.9978Z" fill="black"/>
</svg>
