<svg width="24" height="24" viewBox="0 0 24 24" fill="none" xmlns="http://www.w3.org/2000/svg">
<path fill-rule="evenodd" clip-rule="evenodd" d="M19.0021 10.9983C19.2621 10.9983 19.522 11.1033 19.712 11.2913C19.892 11.4783 20.0021 11.7333 20.0021 11.9983C20.0021 13.7303 20.0021 17.2663 20.0021 18.9983C20.0021 19.2633 19.892 19.5182 19.712 19.7052C19.522 19.8932 19.2621 19.9983 19.0021 19.9983C17.2721 19.9983 13.7321 19.9983 12.0021 19.9983C11.7421 19.9983 11.4821 19.8932 11.2921 19.7052C11.1121 19.5182 11.0021 19.2633 11.0021 18.9983C11.0021 17.2663 11.0021 13.7303 11.0021 11.9983C11.0021 11.7333 11.1121 11.4783 11.2921 11.2913C11.4821 11.1033 11.7421 10.9983 12.0021 10.9983C13.7321 10.9983 17.2721 10.9983 19.0021 10.9983ZM19.0021 11.9983V18.9983H12.0021V11.9983H19.0021ZM16.0021 8.99926C16.0021 9.26426 15.892 9.51825 15.712 9.70525C15.522 9.89325 15.2721 9.99828 15.0021 9.99828C14.7321 9.99828 14.4821 9.89325 14.2921 9.70525C14.1121 9.51825 14.0021 9.26426 14.0021 8.99926C14.0021 7.81426 14.0021 5.99829 14.0021 5.99829H6.00207V13.9983C6.00207 13.9983 7.82207 13.9983 9.00207 13.9983C9.55207 13.9983 10.0021 14.4463 10.0021 14.9983C10.0021 15.2633 9.89203 15.5182 9.71203 15.7052C9.52203 15.8932 9.26207 15.9983 9.00207 15.9983C7.89207 15.9983 6.11207 15.9983 5.00207 15.9983C4.74207 15.9983 4.48211 15.8932 4.29211 15.7052C4.11211 15.5182 4.00208 15.2633 4.00208 14.9983C4.00208 12.7383 4.00208 7.25828 4.00208 4.99829C4.00208 4.73329 4.11211 4.47832 4.29211 4.29132C4.48211 4.10332 4.74207 3.99829 5.00207 3.99829C7.26207 3.99829 12.7421 3.99829 15.0021 3.99829C15.2621 3.99829 15.522 4.10332 15.712 4.29132C15.892 4.47832 16.0021 4.73329 16.0021 4.99829C16.0021 6.10829 16.0021 7.88926 16.0021 8.99926ZM12.5021 8.99828C12.6321 8.99828 12.7622 9.05128 12.8522 9.14428C12.9522 9.23828 13.0021 9.36528 13.0021 9.49828C13.0021 9.63128 12.9522 9.75828 12.8522 9.85228C12.7622 9.94528 12.6321 9.99828 12.5021 9.99828C11.3721 9.99828 8.63207 9.99828 7.50207 9.99828C7.37207 9.99828 7.24197 9.94528 7.15197 9.85228C7.05197 9.75828 7.00207 9.63126 7.00207 9.49926C7.00207 9.49826 7.00207 9.4983 7.00207 9.4973C7.00207 9.3653 7.05197 9.23828 7.15197 9.14428C7.24197 9.05128 7.37207 8.99828 7.50207 8.99828C8.63207 8.99828 11.3721 8.99828 12.5021 8.99828ZM12.5021 6.99828C12.6321 6.99828 12.7622 7.05128 12.8522 7.14428C12.9522 7.23828 13.0021 7.36528 13.0021 7.49828C13.0021 7.63128 12.9522 7.75829 12.8522 7.85229C12.7622 7.94529 12.6321 7.99828 12.5021 7.99828C11.3721 7.99828 8.63207 7.99828 7.50207 7.99828C7.37207 7.99828 7.24197 7.94529 7.15197 7.85229C7.05197 7.75829 7.00207 7.63126 7.00207 7.49926C7.00207 7.49826 7.00207 7.49831 7.00207 7.49731C7.00207 7.36531 7.05197 7.23828 7.15197 7.14428C7.24197 7.05128 7.37207 6.99828 7.50207 6.99828C8.63207 6.99828 11.3721 6.99828 12.5021 6.99828Z" fill="black"/>
</svg>
