<svg width="24" height="24" viewBox="0 0 24 24" fill="none" xmlns="http://www.w3.org/2000/svg">
<path fill-rule="evenodd" clip-rule="evenodd" d="M7.00192 5.99853C7.00192 5.99853 13.4719 5.99853 16.0019 5.99853C16.5519 5.99853 17.0019 6.44653 17.0019 6.99853C17.0019 9.53152 17.0019 15.9985 17.0019 15.9985C17.0019 15.9985 19.4319 15.9985 20.5019 15.9985C20.6319 15.9985 20.7619 16.0515 20.8519 16.1445C20.9519 16.2385 21.0019 16.3655 21.0019 16.4985C21.0019 16.6315 20.9519 16.7585 20.8519 16.8525C20.7619 16.9455 20.6319 16.9985 20.5019 16.9985C19.4319 16.9985 17.0019 16.9985 17.0019 16.9985C17.0019 16.9985 17.0019 19.4255 17.0019 20.4985C17.0019 20.7745 16.7819 20.9985 16.5019 20.9985C16.2219 20.9985 16.0019 20.7745 16.0019 20.4985C16.0019 19.4255 16.0019 16.9985 16.0019 16.9985C16.0019 16.9985 9.53192 16.9985 7.00192 16.9985C6.45192 16.9985 6.00192 16.5505 6.00192 15.9985C6.00192 13.4655 6.00192 6.99853 6.00192 6.99853C6.00192 6.99853 3.57192 6.99853 2.50192 6.99853C2.37192 6.99853 2.24195 6.94553 2.15195 6.85253C2.05195 6.75853 2.00192 6.63153 2.00192 6.49853C2.00192 6.36553 2.05195 6.23852 2.15195 6.14452C2.24195 6.05152 2.37192 5.99853 2.50192 5.99853C3.57192 5.99853 6.00192 5.99853 6.00192 5.99853C6.00192 5.99853 6.00192 3.57153 6.00192 2.49853C6.00192 2.22253 6.22192 1.99854 6.50192 1.99854C6.78192 1.99854 7.00192 2.22253 7.00192 2.49853C7.00192 3.57153 7.00192 5.99853 7.00192 5.99853ZM7.00192 6.99853V15.9985H16.0019V6.99853H7.00192Z" fill="#333333"/>
</svg>
