<svg width="24" height="24" viewBox="0 0 24 24" fill="none" xmlns="http://www.w3.org/2000/svg">
<path fill-rule="evenodd" clip-rule="evenodd" d="M18.0003 10.9908C18.0003 10.9908 19.8153 10.9908 21.0003 10.9908C21.5523 10.9908 22.0003 11.4408 22.0003 11.9908C22.0003 12.5408 21.5523 12.9908 21.0003 12.9908C19.8153 12.9908 18.0003 12.9908 18.0003 12.9908C18.0003 12.9908 18.0003 17.0608 18.0003 18.9908C18.0003 19.2508 17.8953 19.5108 17.7073 19.7008C17.5203 19.8808 17.2653 19.9908 17.0003 19.9908C16.1293 19.9908 14.8713 19.9908 14.0003 19.9908C13.7353 19.9908 13.4803 19.8808 13.2933 19.7008C13.1053 19.5108 13.0003 19.2508 13.0003 18.9908C13.0003 17.0608 13.0003 12.9908 13.0003 12.9908H11.0003C11.0003 12.9908 11.0003 14.8108 11.0003 15.9908C11.0003 16.5408 10.5523 16.9908 10.0003 16.9908C9.1293 16.9908 7.8713 16.9908 7.0003 16.9908C6.4483 16.9908 6.0003 16.5408 6.0003 15.9908C6.0003 14.8108 6.0003 12.9908 6.0003 12.9908C6.0003 12.9908 4.1853 12.9908 3.0003 12.9908C2.4483 12.9908 2.0003 12.5408 2.0003 11.9908C2.0003 11.4408 2.4483 10.9908 3.0003 10.9908C4.1853 10.9908 6.0003 10.9908 6.0003 10.9908C6.0003 10.9908 6.0003 9.17083 6.0003 7.99084C6.0003 7.44084 6.4483 6.99084 7.0003 6.99084C7.8713 6.99084 9.1293 6.99084 10.0003 6.99084C10.5523 6.99084 11.0003 7.44084 11.0003 7.99084C11.0003 9.17083 11.0003 10.9908 11.0003 10.9908H13.0003C13.0003 10.9908 13.0003 6.92084 13.0003 4.99084C13.0003 4.73084 13.1053 4.47088 13.2933 4.28088C13.4803 4.10088 13.7353 3.99084 14.0003 3.99084C14.8713 3.99084 16.1293 3.99084 17.0003 3.99084C17.2653 3.99084 17.5203 4.10088 17.7073 4.28088C17.8953 4.47088 18.0003 4.73084 18.0003 4.99084C18.0003 6.92084 18.0003 10.9908 18.0003 10.9908ZM8.0003 10.9908H9.0003V8.99083H8.0003V10.9908ZM9.0003 14.9908V12.9908H8.0003V14.9908H9.0003ZM15.0003 10.9908H16.0003V5.99084H15.0003V10.9908ZM16.0003 17.9908V12.9908H15.0003V17.9908H16.0003Z" fill="#333333"/>
</svg>
