<svg width="24" height="24" viewBox="0 0 24 24" fill="none" xmlns="http://www.w3.org/2000/svg">
<path fill-rule="evenodd" clip-rule="evenodd" d="M20.9991 1.99829C21.2591 1.99829 21.5191 2.10332 21.7091 2.29132C21.8891 2.47832 21.9991 2.73329 21.9991 2.99829C21.9991 6.41228 21.9991 17.5843 21.9991 20.9983C21.9991 21.2633 21.8891 21.5182 21.7091 21.7052C21.5191 21.8932 21.2591 21.9983 20.9991 21.9983C20.7391 21.9983 20.4791 21.8932 20.2891 21.7052C20.1091 21.5182 19.9991 21.2633 19.9991 20.9983C19.9991 17.5843 19.9991 6.41228 19.9991 2.99829C19.9991 2.73329 20.1091 2.47832 20.2891 2.29132C20.4791 2.10332 20.7391 1.99829 20.9991 1.99829ZM18.9991 16.9983C18.9991 17.5503 18.5491 17.9983 17.9991 17.9983C16.0791 17.9983 11.9191 17.9983 9.99911 17.9983C9.44911 17.9983 8.99911 17.5503 8.99911 16.9983C8.99911 16.1273 8.99911 14.8693 8.99911 13.9983C8.99911 13.4463 9.44911 12.9983 9.99911 12.9983C11.9191 12.9983 16.0791 12.9983 17.9991 12.9983C18.5491 12.9983 18.9991 13.4463 18.9991 13.9983C18.9991 14.8693 18.9991 16.1273 18.9991 16.9983ZM16.9991 14.9983H10.9991V15.9983H16.9991V14.9983ZM18.9991 9.99827C18.9991 10.5503 18.5491 10.9983 17.9991 10.9983C15.1291 10.9983 6.86911 10.9983 3.99911 10.9983C3.44911 10.9983 2.99911 10.5503 2.99911 9.99827C2.99911 9.12728 2.99911 7.86928 2.99911 6.99828C2.99911 6.44628 3.44911 5.99828 3.99911 5.99828C6.86911 5.99828 15.1291 5.99828 17.9991 5.99828C18.5491 5.99828 18.9991 6.44628 18.9991 6.99828C18.9991 7.86928 18.9991 9.12728 18.9991 9.99827ZM16.9991 7.99828H4.99911V8.99828H16.9991V7.99828Z" fill="#333333"/>
</svg>
