<svg width="24" height="24" viewBox="0 0 24 24" fill="none" xmlns="http://www.w3.org/2000/svg">
<path fill-rule="evenodd" clip-rule="evenodd" d="M10.9978 3.70569C10.9978 3.70569 9.52776 5.17569 8.83776 5.86169C8.64776 6.05169 8.34783 6.05169 8.15783 5.86169C8.14783 5.86169 8.14782 5.86071 8.14782 5.86071C7.94782 5.66071 7.94782 5.33671 8.14782 5.13671C8.75782 4.52671 10.0078 3.28572 10.7878 2.49872C10.9778 2.31072 11.2378 2.20569 11.4978 2.20569C11.7678 2.20569 12.0178 2.31072 12.2078 2.49872C12.9978 3.28972 14.2478 4.53871 14.8478 5.14471C15.0478 5.34071 15.0478 5.65672 14.8478 5.85271C14.6578 6.04771 14.3378 6.04771 14.1478 5.85271C13.4578 5.16372 11.9978 3.70569 11.9978 3.70569V10.8697L19.2478 10.9597C19.2478 10.9597 17.8278 9.53271 17.1478 8.85271C16.9478 8.65671 16.9478 8.3407 17.1478 8.1447C17.3378 7.9497 17.6578 7.9497 17.8478 8.1447C18.4578 8.7507 19.7078 10.0007 20.4978 10.7917C20.6878 10.9787 20.7878 11.2337 20.7878 11.4987C20.7878 11.7637 20.6878 12.0187 20.4978 12.2057C19.7078 12.9967 18.4578 14.2467 17.8478 14.8527C17.6578 15.0477 17.3378 15.0477 17.1478 14.8527C16.9478 14.6567 16.9478 14.3407 17.1478 14.1447C17.8378 13.4557 19.2878 11.9987 19.2878 11.9987H11.9978V19.2917C11.9978 19.2917 13.4578 17.8337 14.1478 17.1447C14.3378 16.9497 14.6578 16.9497 14.8478 17.1447C15.0478 17.3407 15.0478 17.6567 14.8478 17.8527C14.2478 18.4587 12.9978 19.7077 12.2078 20.4987C12.0178 20.6867 11.7678 20.7917 11.4978 20.7917C11.2378 20.7917 10.9778 20.6867 10.7878 20.4987C10.0078 19.7117 8.75782 18.4707 8.14782 17.8607C7.94782 17.6607 7.94782 17.3367 8.14782 17.1367C8.14782 17.1367 8.14783 17.1367 8.15783 17.1357C8.34783 16.9457 8.64776 16.9457 8.83776 17.1357C9.52776 17.8217 10.9978 19.2917 10.9978 19.2917V11.9987H3.70776C3.70776 11.9987 5.14778 13.4437 5.84778 14.1367C6.04777 14.3367 6.04777 14.6607 5.84778 14.8607C5.84778 14.8607 5.84777 14.8617 5.83777 14.8617C5.74777 14.9527 5.6278 15.0037 5.4978 15.0037C5.3678 15.0037 5.24783 14.9527 5.15783 14.8617C4.54783 14.2587 3.2978 13.0007 2.4978 12.2057C2.3078 12.0187 2.20776 11.7637 2.20776 11.4987C2.20776 11.2337 2.3078 10.9787 2.4978 10.7917C3.2978 9.99673 4.54783 8.73873 5.15783 8.13573C5.24783 8.04473 5.3678 7.9937 5.4978 7.9937C5.6278 7.9937 5.74777 8.04473 5.83777 8.13573C5.84777 8.13673 5.84778 8.13671 5.84778 8.13671C6.04777 8.33671 6.04777 8.6607 5.84778 8.8607C5.14778 9.5527 3.70776 10.9967 3.70776 10.9967L10.9978 10.8847V3.70569Z" fill="#333333"/>
</svg>
