<svg width="24" height="24" viewBox="0 0 24 24" fill="none" xmlns="http://www.w3.org/2000/svg">
<path fill-rule="evenodd" clip-rule="evenodd" d="M8.00192 5.99828C8.00192 5.99828 14.4719 5.99828 17.0019 5.99828C17.5519 5.99828 18.0019 6.44628 18.0019 6.99828C18.0019 9.53128 18.0019 15.9983 18.0019 15.9983C18.0019 15.9983 19.8219 15.9983 21.0019 15.9983C21.5519 15.9983 22.0019 16.4463 22.0019 16.9983C22.0019 17.5503 21.5519 17.9983 21.0019 17.9983C19.8219 17.9983 18.0019 17.9983 18.0019 17.9983C18.0019 17.9983 18.0019 19.8133 18.0019 20.9983C18.0019 21.5503 17.5519 21.9983 17.0019 21.9983C16.4519 21.9983 16.0019 21.5503 16.0019 20.9983C16.0019 19.8133 16.0019 17.9983 16.0019 17.9983C16.0019 17.9983 9.53192 17.9983 7.00192 17.9983C6.45192 17.9983 6.00192 17.5503 6.00192 16.9983C6.00192 14.4653 6.00192 7.99828 6.00192 7.99828C6.00192 7.99828 4.18192 7.99828 3.00192 7.99828C2.45192 7.99828 2.00192 7.55028 2.00192 6.99828C2.00192 6.44628 2.45192 5.99828 3.00192 5.99828C4.18192 5.99828 6.00192 5.99828 6.00192 5.99828C6.00192 5.99828 6.00192 4.18329 6.00192 2.99829C6.00192 2.44629 6.45192 1.99829 7.00192 1.99829C7.55192 1.99829 8.00192 2.44629 8.00192 2.99829C8.00192 4.18329 8.00192 5.99828 8.00192 5.99828ZM8.00192 7.99828V15.9983H16.0019V7.99828H8.00192Z" fill="#333333"/>
</svg>
