<svg width="24" height="24" viewBox="0 0 24 24" fill="none" xmlns="http://www.w3.org/2000/svg">
<path fill-rule="evenodd" clip-rule="evenodd" d="M15.0013 8.99828C15.0013 8.99828 18.2913 8.99828 20.0013 8.99828C20.2613 8.99828 20.5212 9.10331 20.7112 9.29131C20.8912 9.47831 21.0013 9.73328 21.0013 9.99828C21.0013 12.2583 21.0013 17.7383 21.0013 19.9983C21.0013 20.2633 20.8912 20.5182 20.7112 20.7052C20.5212 20.8932 20.2613 20.9983 20.0013 20.9983C17.7413 20.9983 12.2613 20.9983 10.0013 20.9983C9.74126 20.9983 9.4813 20.8932 9.2913 20.7052C9.1113 20.5182 9.00126 20.2633 9.00126 19.9983C9.00126 18.2913 9.00126 14.9983 9.00126 14.9983C9.00126 14.9983 5.71126 14.9983 4.00127 14.9983C3.74127 14.9983 3.48131 14.8932 3.29131 14.7052C3.11131 14.5182 3.00127 14.2633 3.00127 13.9983C3.00127 11.7383 3.00127 6.25828 3.00127 3.99829C3.00127 3.73329 3.11131 3.47832 3.29131 3.29132C3.48131 3.10332 3.74127 2.99829 4.00127 2.99829C6.26126 2.99829 11.7413 2.99829 14.0013 2.99829C14.2613 2.99829 14.5212 3.10332 14.7112 3.29132C14.8912 3.47832 15.0013 3.73329 15.0013 3.99829C15.0013 5.70529 15.0013 8.99828 15.0013 8.99828ZM19.0013 10.9983H11.0013V18.9983H19.0013V10.9983ZM13.0013 8.99828V4.99829H5.00126V12.9983H9.00126C9.00126 12.9983 9.00126 11.1833 9.00126 9.99828C9.00126 9.44628 9.45126 8.99828 10.0013 8.99828C11.1813 8.99828 13.0013 8.99828 13.0013 8.99828Z" fill="#333333"/>
</svg>
