<svg width="24" height="24" viewBox="0 0 24 24" fill="none" xmlns="http://www.w3.org/2000/svg">
<path fill-rule="evenodd" clip-rule="evenodd" d="M2.99715 1.99829C3.25715 1.99829 3.51711 2.10332 3.70711 2.29132C3.88711 2.47832 3.99714 2.73329 3.99714 2.99829C3.99714 6.41228 3.99714 17.5843 3.99714 20.9983C3.99714 21.2633 3.88711 21.5182 3.70711 21.7052C3.51711 21.8932 3.25715 21.9983 2.99715 21.9983C2.73715 21.9983 2.47719 21.8932 2.28719 21.7052C2.10719 21.5182 1.99715 21.2633 1.99715 20.9983C1.99715 17.5843 1.99715 6.41228 1.99715 2.99829C1.99715 2.73329 2.10719 2.47832 2.28719 2.29132C2.47719 2.10332 2.73715 1.99829 2.99715 1.99829ZM14.9971 16.9983C14.9971 17.5503 14.5471 17.9983 13.9971 17.9983C12.0771 17.9983 7.91714 17.9983 5.99714 17.9983C5.44714 17.9983 4.99714 17.5503 4.99714 16.9983C4.99714 16.1273 4.99714 14.8693 4.99714 13.9983C4.99714 13.4463 5.44714 12.9983 5.99714 12.9983C7.91714 12.9983 12.0771 12.9983 13.9971 12.9983C14.5471 12.9983 14.9971 13.4463 14.9971 13.9983C14.9971 14.8693 14.9971 16.1273 14.9971 16.9983ZM12.9971 14.9983H6.99714V15.9983H12.9971V14.9983ZM20.9971 9.99827C20.9971 10.5503 20.5471 10.9983 19.9971 10.9983C17.1271 10.9983 8.86714 10.9983 5.99714 10.9983C5.44714 10.9983 4.99714 10.5503 4.99714 9.99827C4.99714 9.12728 4.99714 7.86928 4.99714 6.99828C4.99714 6.44628 5.44714 5.99828 5.99714 5.99828C8.86714 5.99828 17.1271 5.99828 19.9971 5.99828C20.5471 5.99828 20.9971 6.44628 20.9971 6.99828C20.9971 7.86928 20.9971 9.12728 20.9971 9.99827ZM18.9971 7.99828H6.99714V8.99828H18.9971V7.99828Z" fill="#333333"/>
</svg>
