<svg width="24" height="24" viewBox="0 0 24 24" fill="none" xmlns="http://www.w3.org/2000/svg">
<path fill-rule="evenodd" clip-rule="evenodd" d="M20.0011 18.9986C20.0011 19.2636 19.8911 19.5186 19.7111 19.7056C19.5211 19.8936 19.2611 19.9986 19.0011 19.9986C17.2711 19.9986 13.7311 19.9986 12.0011 19.9986C11.7411 19.9986 11.4811 19.8936 11.2911 19.7056C11.1111 19.5186 11.0011 19.2636 11.0011 18.9986C11.0011 17.2666 11.0011 13.7306 11.0011 11.9986C11.0011 11.7336 11.1111 11.4787 11.2911 11.2917C11.4811 11.1037 11.7411 10.9986 12.0011 10.9986C13.7311 10.9986 17.2711 10.9986 19.0011 10.9986C19.2611 10.9986 19.5211 11.1037 19.7111 11.2917C19.8911 11.4787 20.0011 11.7336 20.0011 11.9986C20.0011 13.7306 20.0011 17.2666 20.0011 18.9986ZM19.0011 11.9986H12.0011V18.9986H19.0011V11.9986ZM16.0011 9.49962C16.0011 9.63162 15.9512 9.75865 15.8512 9.85265C15.7612 9.94565 15.6311 9.99865 15.5011 9.99865C15.3711 9.99865 15.241 9.94565 15.151 9.85265C15.051 9.75865 15.0011 9.63162 15.0011 9.49962C15.0011 8.23363 15.0011 4.99866 15.0011 4.99866H5.00111V14.9986C5.00111 14.9986 8.24111 14.9986 9.50111 14.9986C9.78111 14.9986 10.0011 15.2217 10.0011 15.4977V15.4996C10.0011 15.7756 9.78111 15.9986 9.50111 15.9986C8.51111 15.9986 6.30111 15.9986 5.00111 15.9986C4.74111 15.9986 4.48115 15.8936 4.29115 15.7056C4.11115 15.5186 4.00111 15.2636 4.00111 14.9986C4.00111 12.7386 4.00111 7.25865 4.00111 4.99866C4.00111 4.73366 4.11115 4.47869 4.29115 4.29169C4.48115 4.10369 4.74111 3.99866 5.00111 3.99866C7.26111 3.99866 12.7411 3.99866 15.0011 3.99866C15.2611 3.99866 15.5211 4.10369 15.7111 4.29169C15.8911 4.47869 16.0011 4.73366 16.0011 4.99866C16.0011 6.29665 16.0011 8.51362 16.0011 9.49962ZM12.5011 8.99865C12.6311 8.99865 12.7612 9.05164 12.8512 9.14464C12.9512 9.23864 13.0011 9.36565 13.0011 9.49865C13.0011 9.63165 12.9512 9.75865 12.8512 9.85265C12.7612 9.94565 12.6311 9.99865 12.5011 9.99865C11.3711 9.99865 8.63111 9.99865 7.50111 9.99865C7.37111 9.99865 7.24101 9.94565 7.15101 9.85265C7.05101 9.75865 7.00111 9.63165 7.00111 9.49865C7.00111 9.36565 7.05101 9.23864 7.15101 9.14464C7.24101 9.05164 7.37111 8.99865 7.50111 8.99865C8.63111 8.99865 11.3711 8.99865 12.5011 8.99865ZM12.5011 6.99865C12.6311 6.99865 12.7612 7.05165 12.8512 7.14465C12.9512 7.23865 13.0011 7.36565 13.0011 7.49865C13.0011 7.63165 12.9512 7.75865 12.8512 7.85265C12.7612 7.94565 12.6311 7.99865 12.5011 7.99865C11.3711 7.99865 8.63111 7.99865 7.50111 7.99865C7.37111 7.99865 7.24101 7.94565 7.15101 7.85265C7.05101 7.75865 7.00111 7.63165 7.00111 7.49865C7.00111 7.36565 7.05101 7.23865 7.15101 7.14465C7.24101 7.05165 7.37111 6.99865 7.50111 6.99865C8.63111 6.99865 11.3711 6.99865 12.5011 6.99865Z" fill="black"/>
</svg>
