<svg width="24" height="24" viewBox="0 0 24 24" fill="none" xmlns="http://www.w3.org/2000/svg">
<path fill-rule="evenodd" clip-rule="evenodd" d="M17.0003 10.9908C17.0003 10.9908 20.2343 10.9908 21.5003 10.9908C21.6333 10.9908 21.7603 11.0407 21.8543 11.1407C21.9473 11.2307 22.0003 11.3608 22.0003 11.4908C22.0003 11.6208 21.9473 11.7509 21.8543 11.8409C21.7603 11.9409 21.6333 11.9908 21.5003 11.9908C20.2343 11.9908 17.0003 11.9908 17.0003 11.9908C17.0003 11.9908 17.0003 16.0608 17.0003 17.9908C17.0003 18.5408 16.5523 18.9908 16.0003 18.9908C15.3893 18.9908 14.6113 18.9908 14.0003 18.9908C13.4483 18.9908 13.0003 18.5408 13.0003 17.9908C13.0003 16.0608 13.0003 11.9908 13.0003 11.9908H11.0003C11.0003 11.9908 11.0003 13.8108 11.0003 14.9908C11.0003 15.5408 10.5523 15.9908 10.0003 15.9908C9.3893 15.9908 8.6113 15.9908 8.0003 15.9908C7.4483 15.9908 7.0003 15.5408 7.0003 14.9908C7.0003 13.8108 7.0003 11.9908 7.0003 11.9908C7.0003 11.9908 3.7663 11.9908 2.5003 11.9908C2.3673 11.9908 2.2403 11.9409 2.1463 11.8409C2.0533 11.7509 2.0003 11.6208 2.0003 11.4908C2.0003 11.3608 2.0533 11.2307 2.1463 11.1407C2.2403 11.0407 2.3673 10.9908 2.5003 10.9908C3.7663 10.9908 7.0003 10.9908 7.0003 10.9908C7.0003 10.9908 7.0003 9.17083 7.0003 7.99084C7.0003 7.44084 7.4483 6.99084 8.0003 6.99084C8.6113 6.99084 9.3893 6.99084 10.0003 6.99084C10.5523 6.99084 11.0003 7.44084 11.0003 7.99084C11.0003 9.17083 11.0003 10.9908 11.0003 10.9908H13.0003C13.0003 10.9908 13.0003 6.92084 13.0003 4.99084C13.0003 4.44084 13.4483 3.99084 14.0003 3.99084C14.6113 3.99084 15.3893 3.99084 16.0003 3.99084C16.5523 3.99084 17.0003 4.44084 17.0003 4.99084C17.0003 6.92084 17.0003 10.9908 17.0003 10.9908ZM8.0003 10.9908H10.0003V7.99084H8.0003V10.9908ZM10.0003 14.9908V11.9908H8.0003V14.9908H10.0003ZM14.0003 10.9908H16.0003V4.99084H14.0003V10.9908ZM16.0003 17.9908V11.9908H14.0003V17.9908H16.0003Z" fill="#333333"/>
</svg>
