<svg width="24" height="24" viewBox="0 0 24 24" fill="none" xmlns="http://www.w3.org/2000/svg">
<path fill-rule="evenodd" clip-rule="evenodd" d="M11.0011 5.99828C11.0011 5.99828 11.0011 4.18329 11.0011 2.99829C11.0011 2.44629 11.4511 1.99829 12.0011 1.99829C12.5511 1.99829 13.0011 2.44629 13.0011 2.99829C13.0011 4.18329 13.0011 5.99828 13.0011 5.99828C13.0011 5.99828 17.0711 5.99828 19.0011 5.99828C19.2611 5.99828 19.521 6.10331 19.711 6.29131C19.891 6.47831 20.0011 6.73328 20.0011 6.99828C20.0011 7.86928 20.0011 9.12728 20.0011 9.99827C20.0011 10.2633 19.891 10.5182 19.711 10.7052C19.521 10.8932 19.2611 10.9983 19.0011 10.9983C17.0711 10.9983 13.0011 10.9983 13.0011 10.9983V12.9983C13.0011 12.9983 14.8211 12.9983 16.0011 12.9983C16.5511 12.9983 17.0011 13.4463 17.0011 13.9983C17.0011 14.8693 17.0011 16.1273 17.0011 16.9983C17.0011 17.5503 16.5511 17.9983 16.0011 17.9983C14.8211 17.9983 13.0011 17.9983 13.0011 17.9983C13.0011 17.9983 13.0011 19.8133 13.0011 20.9983C13.0011 21.5503 12.5511 21.9983 12.0011 21.9983C11.4511 21.9983 11.0011 21.5503 11.0011 20.9983C11.0011 19.8133 11.0011 17.9983 11.0011 17.9983C11.0011 17.9983 9.18108 17.9983 8.00108 17.9983C7.45108 17.9983 7.00108 17.5503 7.00108 16.9983C7.00108 16.1273 7.00108 14.8693 7.00108 13.9983C7.00108 13.4463 7.45108 12.9983 8.00108 12.9983C9.18108 12.9983 11.0011 12.9983 11.0011 12.9983V10.9983C11.0011 10.9983 6.93108 10.9983 5.00108 10.9983C4.74108 10.9983 4.48112 10.8932 4.29112 10.7052C4.11112 10.5182 4.00108 10.2633 4.00108 9.99827C4.00108 9.12728 4.00108 7.86928 4.00108 6.99828C4.00108 6.73328 4.11112 6.47831 4.29112 6.29131C4.48112 6.10331 4.74108 5.99828 5.00108 5.99828C6.93108 5.99828 11.0011 5.99828 11.0011 5.99828ZM11.0011 15.9983V14.9983H9.00108V15.9983H11.0011ZM15.0011 14.9983H13.0011V15.9983H15.0011V14.9983ZM11.0011 8.99828V7.99828H6.00108V8.99828H11.0011ZM18.0011 7.99828H13.0011V8.99828H18.0011V7.99828Z" fill="#333333"/>
</svg>
