<svg width="24" height="24" viewBox="0 0 24 24" fill="none" xmlns="http://www.w3.org/2000/svg">
<path fill-rule="evenodd" clip-rule="evenodd" d="M11.0011 6.99828C11.0011 6.99828 11.0011 3.76429 11.0011 2.49829C11.0011 2.36529 11.051 2.23829 11.151 2.14429C11.241 2.05129 11.3711 1.99829 11.5011 1.99829C11.6311 1.99829 11.7612 2.05129 11.8512 2.14429C11.9512 2.23829 12.0011 2.36529 12.0011 2.49829C12.0011 3.76429 12.0011 6.99828 12.0011 6.99828C12.0011 6.99828 16.0711 6.99828 18.0011 6.99828C18.5511 6.99828 19.0011 7.44628 19.0011 7.99828C19.0011 8.60928 19.0011 9.38728 19.0011 9.99827C19.0011 10.5503 18.5511 10.9983 18.0011 10.9983C16.0711 10.9983 12.0011 10.9983 12.0011 10.9983V12.9983C12.0011 12.9983 13.8211 12.9983 15.0011 12.9983C15.5511 12.9983 16.0011 13.4463 16.0011 13.9983C16.0011 14.6093 16.0011 15.3873 16.0011 15.9983C16.0011 16.5503 15.5511 16.9983 15.0011 16.9983C13.8211 16.9983 12.0011 16.9983 12.0011 16.9983C12.0011 16.9983 12.0011 20.2323 12.0011 21.4983C12.0011 21.6313 11.9512 21.7583 11.8512 21.8523C11.7612 21.9453 11.6311 21.9983 11.5011 21.9983C11.3711 21.9983 11.241 21.9453 11.151 21.8523C11.051 21.7583 11.0011 21.6313 11.0011 21.4983C11.0011 20.2323 11.0011 16.9983 11.0011 16.9983C11.0011 16.9983 9.18108 16.9983 8.00108 16.9983C7.45108 16.9983 7.00108 16.5503 7.00108 15.9983C7.00108 15.3873 7.00108 14.6093 7.00108 13.9983C7.00108 13.4463 7.45108 12.9983 8.00108 12.9983C9.18108 12.9983 11.0011 12.9983 11.0011 12.9983V10.9983C11.0011 10.9983 6.93108 10.9983 5.00108 10.9983C4.45108 10.9983 4.00108 10.5503 4.00108 9.99827C4.00108 9.38728 4.00108 8.60928 4.00108 7.99828C4.00108 7.44628 4.45108 6.99828 5.00108 6.99828C6.93108 6.99828 11.0011 6.99828 11.0011 6.99828ZM11.0011 15.9983V13.9983H8.00108V15.9983H11.0011ZM15.0011 13.9983H12.0011V15.9983H15.0011V13.9983ZM11.0011 9.99827V7.99828H5.00108V9.99827H11.0011ZM18.0011 7.99828H12.0011V9.99827H18.0011V7.99828Z" fill="#333333"/>
</svg>
