<svg width="24" height="24" viewBox="0 0 24 24" fill="none" xmlns="http://www.w3.org/2000/svg">
<path d="M3 14L8.5 10L14 14L16.5 12L21 15.5V20H3V14Z" fill="black" fill-opacity="0.1"/>
<path fill-rule="evenodd" clip-rule="evenodd" d="M15.7119 4.99759C15.7119 4.99759 19.2319 4.99759 21.0019 4.99759C21.2719 4.99759 21.5219 5.10262 21.7119 5.29062C21.8919 5.47762 22.0019 5.73259 22.0019 5.99759C22.0019 8.87058 22.0019 17.1276 22.0019 19.9976C22.0019 20.2576 21.8919 20.5176 21.7119 20.7076C21.5219 20.8876 21.2719 20.9976 21.0019 20.9976C17.5919 20.9976 6.41193 20.9976 3.00193 20.9976C2.74193 20.9976 2.48197 20.8876 2.29197 20.7076C2.11197 20.5176 2.00193 20.2576 2.00193 19.9976C2.00193 17.1276 2.00193 8.87058 2.00193 5.99759C2.00193 5.73259 2.11197 5.47762 2.29197 5.29062C2.48197 5.10262 2.74193 4.99759 3.00193 4.99759C4.78193 4.99759 8.29196 4.99759 8.29196 4.99759C8.29196 4.99759 10.222 3.07359 11.292 1.9976C11.682 1.6066 12.3219 1.6066 12.7119 1.9976C13.7819 3.07359 15.7119 4.99759 15.7119 4.99759ZM4.00193 14.2376V18.9976H20.0019V15.4376L16.5019 12.6376C16.5019 12.6376 12.982 15.4576 11.802 16.3976C11.592 16.5676 11.2919 16.5276 11.1219 16.3176C10.9419 16.0976 10.9819 15.7775 11.2019 15.5975C11.8219 15.0975 12.9519 14.1976 12.9519 14.1976L8.50192 10.6376L4.00193 14.2376ZM20.0019 14.1575V6.99759C14.6719 6.99759 9.33192 6.99759 4.00193 6.99759V12.9576C4.00193 12.9576 6.64193 10.8456 7.88193 9.85659C8.24193 9.56459 8.76192 9.56459 9.12192 9.85659C10.5219 10.9706 13.7519 13.5576 13.7519 13.5576C13.7519 13.5576 15.0619 12.5066 15.8819 11.8566C16.2419 11.5646 16.7619 11.5646 17.1219 11.8566C18.1319 12.6626 20.0019 14.1575 20.0019 14.1575ZM9.71188 4.99759H14.292L12.0019 2.70456L9.71188 4.99759Z" fill="black"/>
</svg>
