<svg width="24" height="24" viewBox="0 0 24 24" fill="none" xmlns="http://www.w3.org/2000/svg">
<path d="M5 7H19V18C19 19.6569 17.6569 21 16 21H8C6.34315 21 5 19.6569 5 18V7Z" fill="black" fill-opacity="0.1"/>
<path fill-rule="evenodd" clip-rule="evenodd" d="M15 6V4C15 3.44772 14.5523 3 14 3H10C9.44772 3 9 3.44772 9 4V6H5C4.44772 6 4 6.44772 4 7V18C4 20.2091 5.79086 22 8 22H16C18.2091 22 20 20.2091 20 18V7C20 6.44772 19.5523 6 19 6H15ZM14 6V5.5V5V4H13H11H10V5V5.5V6H14ZM6 8V18C6 19.1046 6.89543 20 8 20H16C17.1046 20 18 19.1046 18 18V8H6ZM9 9.5C9 9.22386 9.22386 9 9.5 9H14.5C14.7761 9 15 9.22386 15 9.5C15 9.77614 14.7761 10 14.5 10H9.5C9.22386 10 9 9.77614 9 9.5Z" fill="black"/>
</svg>
