<svg width="24" height="24" viewBox="0 0 24 24" fill="none" xmlns="http://www.w3.org/2000/svg">
<path d="M12.5 6.5V12L9.5 15" stroke="black" stroke-miterlimit="1.5" stroke-linecap="round" stroke-linejoin="round"/>
<path fill-rule="evenodd" clip-rule="evenodd" d="M12.0004 3C16.9675 3 21.0004 7.0329 21.0004 12C21.0004 16.9671 16.9675 21 12.0004 21C7.03327 21 3.00037 16.9671 3.00037 12C3.00037 7.0329 7.03327 3 12.0004 3ZM12.0004 3.9C16.4707 3.9 20.1004 7.5297 20.1004 12C20.1004 16.4703 16.4707 20.1 12.0004 20.1C7.53007 20.1 3.90037 16.4703 3.90037 12C3.90037 7.5297 7.53007 3.9 12.0004 3.9Z" fill="black"/>
<path d="M2.5 5.5L5.5 2.5" stroke="black" stroke-miterlimit="100" stroke-linecap="round" stroke-linejoin="bevel"/>
<path d="M18.5 2.5L21.5 5.5" stroke="black" stroke-miterlimit="100" stroke-linecap="round" stroke-linejoin="bevel"/>
</svg>
