<svg width="24" height="24" viewBox="0 0 24 24" fill="none" xmlns="http://www.w3.org/2000/svg">
<path fill-rule="evenodd" clip-rule="evenodd" d="M12 2C17.52 2 22 6.481 22 12C22 17.52 17.52 22 12 22C6.48 22 2 17.52 2 12C2 6.481 6.48 2 12 2ZM12 4C16.41 4 20 7.585 20 12C20 16.42 16.41 20 12 20C7.59 20 4 16.42 4 12C4 7.585 7.59 4 12 4ZM13 12C13 12.265 12.89 12.52 12.71 12.707C12.08 13.334 10.59 14.819 9.69995 15.707C9.30995 16.1 8.68004 16.1 8.29004 15.707C7.90004 15.316 7.90004 14.683 8.29004 14.293C9.29004 13.293 11 11.585 11 11.585C11 11.585 11 7.842 11 6C11 5.448 11.45 5 12 5C12.26 5 12.52 5.10503 12.71 5.29303C12.89 5.48003 13 5.735 13 6C13 7.646 13 10.859 13 12Z" fill="#333333"/>
</svg>
