<svg width="24" height="24" viewBox="0 0 24 24" fill="none" xmlns="http://www.w3.org/2000/svg">
<path fill-rule="evenodd" clip-rule="evenodd" d="M12.1464 4.14645C12.3417 3.95118 12.6583 3.95118 12.8536 4.14645L20.8536 12.1464C21.0488 12.3417 21.0488 12.6583 20.8536 12.8536C20.6583 13.0488 20.3417 13.0488 20.1464 12.8536L19 11.7071V20.5C19 20.7761 18.7761 21 18.5 21H14.5C14.2239 21 14 20.7761 14 20.5V14H11V20.5C11 20.7761 10.7761 21 10.5 21H6.5C6.22386 21 6 20.7761 6 20.5V11.7071L4.85355 12.8536C4.65829 13.0488 4.34171 13.0488 4.14645 12.8536C3.95118 12.6583 3.95118 12.3417 4.14645 12.1464L12.1464 4.14645ZM7 10.7071V20H10V13.5C10 13.2239 10.2239 13 10.5 13H14.5C14.7761 13 15 13.2239 15 13.5V20H18V10.7071L12.5 5.20711L7 10.7071Z" fill="black"/>
<path d="M6.5 10.5V20.5H10.5V13.5H14.5V20.5H18.5V10.5L12.5 4.5L6.5 10.5Z" fill="black" fill-opacity="0.1"/>
</svg>
