<svg width="24" height="24" viewBox="0 0 24 24" fill="none" xmlns="http://www.w3.org/2000/svg">
<path fill-rule="evenodd" clip-rule="evenodd" d="M17 9C17 9 17.5 9 18 9C18.26 9 18.52 9.11004 18.71 9.29004C18.89 9.48004 19 9.74 19 10C19 10.57 19 11.31 19 12C19 13.11 18.11 14 17 14C17 14 17 14.43 17 15C17 15.8 16.6801 16.56 16.1201 17.12C15.5601 17.68 14.8 18 14 18C12.45 18 10.55 18 9 18C7.34 18 6 16.66 6 15C6 12.38 6 8.74 6 7C6 6.45 6.45 6 7 6C9.09 6 13.91 6 16 6C16.55 6 17 6.45 17 7C17 7.87 17 9 17 9ZM15 8H8C8 8 8 12.85 8 15C8 15.27 8.11004 15.52 8.29004 15.71C8.48004 15.89 8.74 16 9 16C10.33 16 12.67 16 14 16C14.26 16 14.52 15.89 14.71 15.71C14.89 15.52 15 15.27 15 15C15 12.85 15 8 15 8ZM18 10H17V13C17.55 13 18 12.55 18 12C18 11.13 18 10 18 10Z" fill="#333333"/>
</svg>
