<svg width="24" height="24" viewBox="0 0 24 24" fill="none" xmlns="http://www.w3.org/2000/svg">
<path d="M12.5 6V12L9.5 15" stroke="black" stroke-miterlimit="1.5" stroke-linecap="round" stroke-linejoin="round"/>
<path fill-rule="evenodd" clip-rule="evenodd" d="M12 2C17.519 2 22 6.481 22 12C22 17.519 17.519 22 12 22C6.481 22 2 17.519 2 12C2 6.481 6.481 2 12 2ZM12 3C16.967 3 21 7.033 21 12C21 16.967 16.967 21 12 21C7.033 21 3 16.967 3 12C3 7.033 7.033 3 12 3Z" fill="black"/>
<path d="M12 21C16.9706 21 21 16.9706 21 12C21 7.02944 16.9706 3 12 3C7.02944 3 3 7.02944 3 12C3 16.9706 7.02944 21 12 21Z" fill="black" fill-opacity="0.1"/>
</svg>
