<svg width="24" height="24" viewBox="0 0 24 24" fill="none" xmlns="http://www.w3.org/2000/svg">
<path d="M4.92898 8.9233L4.08282 19.9233C4.03815 20.5041 4.49737 21 5.07988 21H18.9201C19.5026 21 19.9619 20.5041 19.9172 19.9233L19.071 8.9233C19.0309 8.40231 18.5965 8 18.074 8H5.92603C5.40349 8 4.96905 8.40231 4.92898 8.9233Z" fill="black" fill-opacity="0.1"/>
<path d="M4.92898 8.9233L4.08282 19.9233C4.03815 20.5041 4.49737 21 5.07988 21H18.9201C19.5026 21 19.9619 20.5041 19.9172 19.9233L19.071 8.9233C19.0309 8.40231 18.5965 8 18.074 8H5.92603C5.40349 8 4.96905 8.40231 4.92898 8.9233Z" stroke="black" stroke-width="2"/>
<path d="M9 10V6C9 4.34315 10.3431 3 12 3C13.6569 3 15 4.34315 15 6V10" stroke="black" stroke-width="2" stroke-linecap="round" stroke-linejoin="round"/>
</svg>
