<svg width="24" height="24" viewBox="0 0 24 24" fill="none" xmlns="http://www.w3.org/2000/svg">
<path fill-rule="evenodd" clip-rule="evenodd" d="M1.99786 6.99755C1.99786 6.44555 2.44786 5.99755 2.99786 5.99755C4.92785 5.99755 8.99785 5.99755 8.99785 5.99755C8.99785 5.99755 8.99785 5.49756 8.99785 4.99756C8.99785 4.73256 9.10789 4.47759 9.28789 4.29059C9.47789 4.10259 9.73785 3.99756 9.99785 3.99756C11.1078 3.99756 12.8878 3.99756 13.9978 3.99756C14.2678 3.99756 14.5178 4.10259 14.7078 4.29059C14.8878 4.47759 14.9978 4.73256 14.9978 4.99756C14.9978 5.49756 14.9978 5.99755 14.9978 5.99755C14.9978 5.99755 19.0678 5.99755 20.9978 5.99755C21.5478 5.99755 21.9978 6.44555 21.9978 6.99755C21.9978 9.57455 21.9978 16.4175 21.9978 18.9975C21.9978 19.5475 21.5478 19.9975 20.9978 19.9975C17.5878 19.9975 6.40785 19.9975 2.99786 19.9975C2.44786 19.9975 1.99786 19.5475 1.99786 18.9975C1.99786 16.4175 1.99786 9.57455 1.99786 6.99755ZM2.99786 6.99755V18.9975H5.99785V6.99755H2.99786ZM6.99785 6.99755V18.9975H16.9978V6.99755H6.99785ZM17.9978 6.99755V18.9975H20.9978V6.99755H17.9978ZM9.99785 4.99756V5.99755H13.9978V4.99756H9.99785Z" fill="black"/>
</svg>
