<svg width="24" height="24" viewBox="0 0 24 24" fill="none" xmlns="http://www.w3.org/2000/svg">
<path fill-rule="evenodd" clip-rule="evenodd" d="M10 3C9.44772 3 9 3.44772 9 4V8C9 9.73443 9.23287 11.3462 9.6371 12.5589C9.83748 13.16 10.0981 13.7186 10.4361 14.1475C10.5848 14.3362 10.7728 14.5285 11 14.6826V19H10C9.44772 19 9 19.4477 9 20C9 20.5523 9.44772 21 10 21H14C14.5523 21 15 20.5523 15 20C15 19.4477 14.5523 19 14 19H13V14.6826C13.2272 14.5285 13.4152 14.3362 13.5639 14.1475C13.9019 13.7186 14.1625 13.16 14.3629 12.5589C14.7671 11.3462 15 9.73443 15 8V4C15 3.44772 14.5523 3 14 3H10ZM11 8V5H13V8C13 9.57928 12.7852 10.9675 12.4655 11.9264C12.3066 12.4031 12.1392 12.7206 12 12.9006C11.8608 12.7206 11.6934 12.4031 11.5345 11.9264C11.2148 10.9675 11 9.57928 11 8Z" fill="black"/>
</svg>
