<svg width="24" height="24" viewBox="0 0 24 24" fill="none" xmlns="http://www.w3.org/2000/svg">
<path fill-rule="evenodd" clip-rule="evenodd" d="M21.4199 6.73009C21.7699 6.89009 22 7.25012 22 7.64012C22 9.60012 22 15.5701 22 18.4401C22 18.7801 21.83 19.1001 21.54 19.2801C21.25 19.4601 20.8901 19.4901 20.5801 19.3501C18.6701 18.4601 15.5 17.0001 15.5 17.0001C15.5 17.0001 11.2999 19.1001 9.92993 19.7901C9.65993 19.9201 9.34006 19.9302 9.06006 19.8002C7.93006 19.2702 4.87008 17.8601 3.58008 17.2701C3.23008 17.1101 3 16.7501 3 16.3601C3 14.4001 3 8.43017 3 5.56017C3 5.22017 3.16996 4.90008 3.45996 4.72008C3.74996 4.54008 4.10992 4.51013 4.41992 4.65013C6.32992 5.54013 9.5 7.00011 9.5 7.00011C9.5 7.00011 13.7001 4.90007 15.0701 4.21007C15.3401 4.08007 15.6599 4.07006 15.9399 4.20006C17.0799 4.73006 20.1299 6.14009 21.4199 6.73009ZM9 7.87011L4 5.56017V16.3601L9 18.6702V7.87011ZM10 7.87011V18.6301L15 16.1301V5.37011L10 7.87011ZM16 5.33007V16.1301L21 18.4401V7.64012L16 5.33007Z" fill="black"/>
<path d="M3.5 5V16.5L9.5 19.5L15.5 16.5L21.5 19V7.5L15.5 4.5L9.5 7.5L3.5 5Z" fill="black" fill-opacity="0.1"/>
</svg>
