<svg width="24" height="24" viewBox="0 0 24 24" fill="none" xmlns="http://www.w3.org/2000/svg">
<path fill-rule="evenodd" clip-rule="evenodd" d="M15 6H19C19.5523 6 20 6.44775 20 7V18C20 20.2092 18.2091 22 16 22H8C5.79086 22 4 20.2092 4 18V7C4 6.44775 4.44772 6 5 6H9V4C9 3.44775 9.44772 3 10 3H14C14.5523 3 15 3.44775 15 4V6ZM14 6V5.5V5V4H13H11H10V5V5.5V6H14ZM6 8V18C6 19.1045 6.89542 20 8 20H16C17.1046 20 18 19.1045 18 18V8H6ZM9 9.5C9 9.22388 9.22385 9 9.5 9H14.5C14.7762 9 15 9.22388 15 9.5C15 9.77612 14.7762 10 14.5 10H9.5C9.22385 10 9 9.77612 9 9.5Z" fill="black"/>
<path d="M5 7H19V18C19 19.6569 17.6569 21 16 21H8C6.34315 21 5 19.6569 5 18V7Z" fill="black" fill-opacity="0.1"/>
</svg>
