<svg width="24" height="24" viewBox="0 0 24 24" fill="none" xmlns="http://www.w3.org/2000/svg">
<path d="M6 5V11C6 13.2091 7.79086 15 10 15H13C15.2091 15 17 13.2091 17 11V5H6Z" fill="black" fill-opacity="0.1"/>
<path fill-rule="evenodd" clip-rule="evenodd" d="M5 5C5 4.44772 5.44772 4 6 4H17C17.5523 4 18 4.44772 18 5V11C18 13.7614 15.7614 16 13 16H10C7.23858 16 5 13.7614 5 11V5ZM7 6V11C7 12.6569 8.34315 14 10 14H13C14.6569 14 16 12.6569 16 11V6H7Z" fill="black"/>
<path fill-rule="evenodd" clip-rule="evenodd" d="M3 19C3 18.4477 3.44772 18 4 18H20C20.5523 18 21 18.4477 21 19C21 19.5523 20.5523 20 20 20H4C3.44772 20 3 19.5523 3 19Z" fill="black"/>
<path fill-rule="evenodd" clip-rule="evenodd" d="M16 6C16 5.44772 16.4477 5 17 5H20C20.5523 5 21 5.44772 21 6V8C21 9.65685 19.6569 11 18 11H17C16.4477 11 16 10.5523 16 10C16 9.44772 16.4477 9 17 9H18C18.5523 9 19 8.55228 19 8V7H17C16.4477 7 16 6.55228 16 6Z" fill="black"/>
</svg>
