<svg width="24" height="24" viewBox="0 0 24 24" fill="none" xmlns="http://www.w3.org/2000/svg">
<path d="M5 8L4 21H20L19 8H5Z" fill="black" fill-opacity="0.1"/>
<path d="M5 7.5C4.73873 7.5 4.52151 7.70115 4.50147 7.96165L3.50147 20.9617C3.49079 21.1005 3.53851 21.2375 3.63314 21.3397C3.72777 21.4419 3.86073 21.5 4 21.5H20C20.1393 21.5 20.2722 21.4419 20.3669 21.3397C20.4615 21.2375 20.5092 21.1005 20.4985 20.9617L19.4985 7.96165C19.4785 7.70115 19.2613 7.5 19 7.5H5Z" stroke="black" stroke-linejoin="round"/>
<path fill-rule="evenodd" clip-rule="evenodd" d="M8.5 11C8.77614 11 9 10.7761 9 10.5V8.64582V6C9 4.34315 10.3431 3 12 3C13.6569 3 15 4.34315 15 6V8.64582V10.5C15 10.7761 15.2239 11 15.5 11C15.7761 11 16 10.7761 16 10.5V6C16 3.79086 14.2091 2 12 2C9.79086 2 8 3.79086 8 6V10.5C8 10.7761 8.22386 11 8.5 11Z" fill="black"/>
</svg>
