<svg width="24" height="24" viewBox="0 0 24 24" fill="none" xmlns="http://www.w3.org/2000/svg">
<path fill-rule="evenodd" clip-rule="evenodd" d="M9 4V6H6C5.44772 6 5 6.44775 5 7V17C5 19.2092 6.79086 21 9 21H15C17.2091 21 19 19.2092 19 17V7C19 6.44775 18.5523 6 18 6H15V4C15 3.44775 14.5523 3 14 3H10C9.44772 3 9 3.44775 9 4ZM14 6V5V4H13H11H10V5V6H11H13H14ZM6 8V7H7H10H14H17H18V8V17C18 18.6567 16.6569 20 15 20H9C7.34314 20 6 18.6567 6 17V8ZM9 8.5C9 8.22388 9.22385 8 9.5 8H14.5C14.7762 8 15 8.22388 15 8.5C15 8.77612 14.7762 9 14.5 9H9.5C9.22385 9 9 8.77612 9 8.5Z" fill="black"/>
</svg>
