<svg width="24" height="24" viewBox="0 0 24 24" fill="none" xmlns="http://www.w3.org/2000/svg">
<path fill-rule="evenodd" clip-rule="evenodd" d="M15.7119 4.99902C15.7119 4.99902 19.2319 4.99902 21.0019 4.99902C21.2719 4.99902 21.5219 5.10906 21.7119 5.28906C21.8919 5.47905 22.0019 5.73902 22.0019 5.99901C22.0019 8.86901 22.0019 17.129 22.0019 19.999C22.0019 20.269 21.8919 20.5189 21.7119 20.7089C21.5219 20.8889 21.2719 20.999 21.0019 20.999C17.5919 20.999 6.41193 20.999 3.00193 20.999C2.74193 20.999 2.48197 20.8889 2.29197 20.7089C2.11197 20.5189 2.00193 20.269 2.00193 19.999C2.00193 17.129 2.00193 8.86901 2.00193 5.99901C2.00193 5.73902 2.11197 5.47905 2.29197 5.28906C2.48197 5.10906 2.74193 4.99902 3.00193 4.99902C4.78193 4.99902 8.29196 4.99902 8.29196 4.99902C8.29196 4.99902 10.222 3.07902 11.292 1.99902C11.482 1.80902 11.7419 1.70898 12.0019 1.70898C12.2719 1.70898 12.5219 1.80902 12.7119 1.99902C13.7819 3.07902 15.7119 4.99902 15.7119 4.99902ZM21.0019 5.99901H3.00193V19.999H21.0019V5.99901ZM20.0019 17.999C20.0019 18.549 19.5519 18.999 19.0019 18.999C16.1319 18.999 7.87192 18.999 5.00193 18.999C4.45193 18.999 4.00193 18.549 4.00193 17.999C4.00193 15.739 4.00193 10.259 4.00193 7.99901C4.00193 7.44901 4.45193 6.99901 5.00193 6.99901C7.87192 6.99901 16.1319 6.99901 19.0019 6.99901C19.5519 6.99901 20.0019 7.44901 20.0019 7.99901C20.0019 10.259 20.0019 15.739 20.0019 17.999ZM5.00193 13.4389V17.999H19.0019V14.639L16.5019 12.639C16.5019 12.639 13.002 15.439 11.812 16.389C11.602 16.559 11.2819 16.5291 11.1119 16.3091C10.9419 16.0991 10.9719 15.779 11.1919 15.609C11.8119 15.109 12.9519 14.1989 12.9519 14.1989L8.50192 10.639L5.00193 13.4389ZM19.0019 13.359V7.99901H5.00193V12.159C5.00193 12.159 6.87193 10.659 7.88193 9.85899C8.24193 9.56899 8.76192 9.56899 9.12192 9.85899C10.5219 10.969 13.7519 13.5591 13.7519 13.5591C13.7519 13.5591 15.0619 12.509 15.8819 11.859C16.2419 11.569 16.7619 11.569 17.1219 11.859C17.8719 12.449 19.0019 13.359 19.0019 13.359ZM9.71188 4.99902H14.292L12.0019 2.70898L9.71188 4.99902Z" fill="black"/>
<path d="M2.5 5.5H21.5V15L19.5 14.5V7.5H4.5V13L8.5 10L14 14L16.5 12L21.5 15V20.5H2.5V5.5Z" fill="black" fill-opacity="0.1"/>
</svg>
