<svg width="24" height="24" viewBox="0 0 24 24" fill="none" xmlns="http://www.w3.org/2000/svg">
<path fill-rule="evenodd" clip-rule="evenodd" d="M14.1001 4.01001L14.05 4H14H11H10.95L10.8999 4.01001H10.8501L10.8 4.02002L10.76 4.03003L10.71 4.04004L10.6599 4.06006L10.6201 4.08008L10.5701 4.1001L10.53 4.12012L10.49 4.14014L10.45 4.16992L10.4099 4.19995L10.3701 4.22998L10.3301 4.26001L10.29 4.29004L10.26 4.33008L10.23 4.37012L10.2 4.3999L10.1699 4.43994L10.1399 4.48999L10.1201 4.53003L10.1001 4.56982L10.0801 4.62012L10.0601 4.66016L10.04 4.70996L10.03 4.76001L10.02 4.80005L10.01 4.8501V4.8999L10 4.94995V5V9V9.1499V9.31006L10.01 9.45996V9.60986L10.02 9.76001L10.03 9.91016L10.04 10.0601L10.05 10.21L10.0601 10.3501L10.0801 10.5L10.1001 10.6401L10.1101 10.78L10.1299 10.9199L10.1499 11.0601L10.1699 11.2L10.2 11.3398L10.22 11.47L10.25 11.6001L10.27 11.73L10.3 11.8599L10.3301 11.99L10.3601 12.1099L10.3899 12.23L10.4299 12.3501L10.46 12.47L10.5 12.5898L10.53 12.7L10.5701 12.8198L10.6101 12.9302L10.6499 13.03L10.6899 13.1401L10.73 13.24L10.78 13.3398L10.8201 13.4399L10.8601 13.54L10.9099 13.6299L10.96 13.72L11.01 13.8101L11.05 13.8901L11.1001 13.97L11.1499 14.05L11.2 14.1299L11.26 14.2L11.3101 14.28L11.3601 14.3398L11.4199 14.4102L11.47 14.47L11.53 14.53L11.5801 14.5801L11.6399 14.6401L11.7 14.6802L11.73 14.71L11.76 14.73L11.79 14.75L11.8201 14.77L11.8501 14.79L11.8799 14.8101L11.9099 14.8301L11.9399 14.8501L11.97 14.8599L12 14.8799L12.0006 20H10.5008C10.2258 20 10.0007 20.22 10.0007 20.5C10.0007 20.78 10.2258 21 10.5008 21H12.0006H13.0008H14.5007C14.7757 21 15.0007 20.78 15.0007 20.5C15.0007 20.22 14.7757 20 14.5007 20H13.0008L13 14.8799L13.03 14.8599L13.0601 14.8501L13.0901 14.8301L13.1201 14.8101L13.1499 14.79L13.1799 14.77L13.21 14.75L13.24 14.73L13.27 14.71L13.3 14.6899L13.3601 14.6401L13.4099 14.5898L13.47 14.53L13.53 14.47L13.5801 14.4102L13.6299 14.3501L13.6899 14.28L13.74 14.21L13.79 14.1401L13.8401 14.0601L13.8899 13.98L13.9399 13.8999L13.99 13.8198L14.04 13.73L14.0901 13.6401L14.1299 13.55L14.1799 13.45L14.22 13.3501L14.26 13.26L14.3 13.1499L14.3501 13.05L14.3899 12.9399L14.4199 12.8301L14.46 12.72L14.5 12.6099L14.53 12.49L14.5701 12.3701L14.6001 12.25L14.6299 12.1299L14.6599 12.01L14.6899 11.8799L14.72 11.75L14.75 11.6201L14.77 11.49L14.8 11.3599L14.8201 11.22L14.8401 11.0898L14.8701 10.95L14.8799 10.8101L14.8999 10.6699L14.9199 10.53L14.9299 10.3799L14.95 10.24L14.96 10.0898L14.97 9.94995L14.98 9.80005L14.99 9.6499V9.5L15 9.3501V9.18994V9.04004V9V5V4.94995L14.99 4.8999V4.8501L14.98 4.80005L14.97 4.76001L14.96 4.70996L14.9399 4.66016L14.9199 4.62012L14.8999 4.56982L14.8799 4.53003L14.8601 4.48999L14.8301 4.43994L14.8 4.3999L14.77 4.37012L14.74 4.33008L14.71 4.29004L14.6699 4.26001L14.6299 4.22998L14.6001 4.19995L14.55 4.16992L14.51 4.14014L14.47 4.12012L14.4299 4.1001L14.3799 4.08008L14.3401 4.06006L14.29 4.04004L14.24 4.03003L14.2 4.02002L14.1499 4.01001H14.1001ZM12.53 14V13.99H12.54H12.55V13.98H12.5601H12.5701L12.5801 13.97H12.5901L12.6001 13.96L12.6101 13.95H12.6201L12.6299 13.9399L12.6399 13.9302L12.6599 13.9199V13.9102L12.7 13.8901L12.73 13.8599L12.76 13.8301L12.79 13.79L12.8201 13.76L12.8601 13.71L12.8899 13.6699L12.9299 13.6201L12.97 13.5698L13.01 13.51L13.04 13.45L13.0801 13.3901L13.1201 13.3301L13.1599 13.26L13.1899 13.1899L13.23 13.1099L13.27 13.03L13.3 12.95L13.3401 12.8701L13.3799 12.78L13.4099 12.6899L13.45 12.6001L13.48 12.5L13.51 12.4102L13.54 12.3101L13.5801 12.2L13.6101 12.1001L13.6399 11.99L13.6599 11.8799L13.6899 11.77L13.72 11.6602L13.74 11.54L13.77 11.4199L13.79 11.3101L13.8201 11.1802L13.8401 11.0601L13.8601 10.9399L13.8799 10.8101L13.8899 10.6802L13.9099 10.55L13.9199 10.4199L13.9399 10.29L13.95 10.1499L13.96 10.02L13.97 9.87988L13.98 9.73999L13.99 9.6001V9.45996L14 9.31982V9.18018V9.04004V8H11V9V9.14014V9.29004L11.01 9.43018V9.56982L11.02 9.70996L11.03 9.8501L11.04 9.98999L11.05 10.1201L11.0601 10.26L11.0701 10.3901L11.0901 10.52L11.1001 10.6499L11.1201 10.78L11.1399 10.9102L11.1599 11.04L11.1799 11.1602L11.2 11.28L11.23 11.3999L11.25 11.52L11.28 11.6401L11.3 11.75L11.3301 11.8701L11.3601 11.97L11.3899 12.0801L11.4199 12.1899L11.45 12.29L11.48 12.3901L11.52 12.49L11.55 12.5898L11.5901 12.6802L11.6201 12.77L11.6599 12.8599L11.6899 12.9399L11.73 13.02L11.76 13.1001L11.8 13.1802L11.8401 13.25L11.8799 13.3198L11.9199 13.3901L11.95 13.45L11.99 13.51L12.03 13.5698L12.0701 13.6201L12.1001 13.6699L12.1399 13.71L12.1699 13.75L12.21 13.79L12.24 13.8301L12.27 13.8599L12.3 13.8799L12.3301 13.9102L12.3401 13.9199L12.3601 13.9302L12.3701 13.9399L12.3799 13.95H12.3899L12.3999 13.96L12.4099 13.97H12.4199L12.4299 13.98H12.45L12.46 13.99H12.47L12.48 14H12.49H12.5H12.51H12.52H12.53ZM11 7H14V5.01001V5H13.99H11.01H11V5.01001V7Z" fill="#333333"/>
</svg>
