<svg width="24" height="24" viewBox="0 0 24 24" fill="none" xmlns="http://www.w3.org/2000/svg">
<path fill-rule="evenodd" clip-rule="evenodd" d="M15.7119 5.99902C15.7119 5.99902 19.2319 5.99902 21.0019 5.99902C21.2719 5.99902 21.5219 6.10906 21.7119 6.28906C21.8919 6.47905 22.0019 6.73902 22.0019 6.99901C22.0019 9.86901 22.0019 18.129 22.0019 20.999C22.0019 21.269 21.8919 21.5189 21.7119 21.7089C21.5219 21.8889 21.2719 21.999 21.0019 21.999C17.5919 21.999 6.41193 21.999 3.00193 21.999C2.74193 21.999 2.48197 21.8889 2.29197 21.7089C2.11197 21.5189 2.00193 21.269 2.00193 20.999C2.00193 18.129 2.00193 9.86901 2.00193 6.99901C2.00193 6.73902 2.11197 6.47905 2.29197 6.28906C2.48197 6.10906 2.74193 5.99902 3.00193 5.99902C4.78193 5.99902 8.29196 5.99902 8.29196 5.99902C8.29196 5.99902 10.222 4.07902 11.292 2.99902C11.482 2.80902 11.7419 2.70898 12.0019 2.70898C12.2719 2.70898 12.5219 2.80902 12.7119 2.99902C13.7819 4.07902 15.7119 5.99902 15.7119 5.99902ZM21.0019 6.99901H3.00193V20.999H21.0019V6.99901ZM20.0019 18.999C20.0019 19.549 19.5519 19.999 19.0019 19.999C16.1319 19.999 7.87192 19.999 5.00193 19.999C4.45193 19.999 4.00193 19.549 4.00193 18.999C4.00193 16.739 4.00193 11.259 4.00193 8.99901C4.00193 8.44901 4.45193 7.99901 5.00193 7.99901C7.87192 7.99901 16.1319 7.99901 19.0019 7.99901C19.5519 7.99901 20.0019 8.44901 20.0019 8.99901C20.0019 11.259 20.0019 16.739 20.0019 18.999ZM5.00193 14.4389V18.999H19.0019V15.639L16.5019 13.639C16.5019 13.639 13.002 16.439 11.812 17.389C11.602 17.559 11.2819 17.5291 11.1119 17.3091C10.9419 17.0991 10.9719 16.779 11.1919 16.609C11.8119 16.109 12.9519 15.1989 12.9519 15.1989L8.50192 11.639L5.00193 14.4389ZM19.0019 14.359V8.99901H5.00193V13.159C5.00193 13.159 6.87193 11.659 7.88193 10.859C8.24193 10.569 8.76192 10.569 9.12192 10.859C10.5219 11.969 13.7519 14.5591 13.7519 14.5591C13.7519 14.5591 15.0619 13.509 15.8819 12.859C16.2419 12.569 16.7619 12.569 17.1219 12.859C17.8719 13.449 19.0019 14.359 19.0019 14.359ZM9.71188 5.99902H14.292L12.0019 3.70898L9.71188 5.99902Z" fill="#333333"/>
</svg>
