<svg width="24" height="24" viewBox="0 0 24 24" fill="none" xmlns="http://www.w3.org/2000/svg">
<path fill-rule="evenodd" clip-rule="evenodd" d="M5.9992 9.99804C4.89463 9.99804 3.9992 10.8935 3.9992 11.998C3.9992 13.1026 4.89463 13.998 5.9992 13.998C7.10377 13.998 7.9992 13.1026 7.9992 11.998C7.9992 10.8935 7.10377 9.99804 5.9992 9.99804ZM1.99921 11.998C1.99921 9.7889 3.79007 7.99805 5.9992 7.99805C8.20834 7.99805 9.9992 9.7889 9.9992 11.998C9.9992 14.2072 8.20834 15.998 5.9992 15.998C3.79007 15.998 1.99921 14.2072 1.99921 11.998Z" fill="black"/>
<path fill-rule="evenodd" clip-rule="evenodd" d="M21 11C21.5523 11 22 11.4477 22 12V15C22 15.5523 21.5523 16 21 16C20.4477 16 20 15.5523 20 15V12C20 11.4477 20.4477 11 21 11Z" fill="black"/>
<path fill-rule="evenodd" clip-rule="evenodd" d="M18 11C18.5523 11 19 11.4477 19 12V14C19 14.5523 18.5523 15 18 15C17.4477 15 17 14.5523 17 14V12C17 11.4477 17.4477 11 18 11Z" fill="black"/>
<path fill-rule="evenodd" clip-rule="evenodd" d="M15 11C15.5523 11 16 11.4477 16 12V15C16 15.5523 15.5523 16 15 16C14.4477 16 14 15.5523 14 15V12C14 11.4477 14.4477 11 15 11Z" fill="black"/>
<path fill-rule="evenodd" clip-rule="evenodd" d="M22 12C22 12.5523 21.5523 13 21 13H9C8.44771 13 8 12.5523 8 12C8 11.4477 8.44771 11 9 11H21C21.5523 11 22 11.4477 22 12Z" fill="black"/>
</svg>
