<svg width="24" height="24" viewBox="0 0 24 24" fill="none" xmlns="http://www.w3.org/2000/svg">
<path d="M12 3C10.8954 3 10 3.89543 10 5V13.5351C8.8044 14.2267 8 15.5194 8 17C8 19.2091 9.79086 21 12 21C14.2091 21 16 19.2091 16 17C16 15.5194 15.1956 14.2267 14 13.5351V5C14 3.89543 13.1046 3 12 3Z" fill="black" fill-opacity="0.1"/>
<path fill-rule="evenodd" clip-rule="evenodd" d="M12 2C10.3431 2 9 3.34315 9 5V12.9998C7.78702 13.9109 7 15.3631 7 17C7 19.7614 9.23858 22 12 22C14.7614 22 17 19.7614 17 17C17 15.3631 16.213 13.9109 15 12.9998V5C15 3.34315 13.6569 2 12 2ZM11 5C11 4.44772 11.4477 4 12 4C12.5523 4 13 4.44772 13 5V6H12.5C12.2239 6 12 6.22386 12 6.5C12 6.77614 12.2239 7 12.5 7H13V8H12.5C12.2239 8 12 8.22386 12 8.5C12 8.77614 12.2239 9 12.5 9H13V10H12.5C12.2239 10 12 10.2239 12 10.5C12 10.7761 12.2239 11 12.5 11H13V12H12.5C12.2239 12 12 12.2239 12 12.5C12 12.7761 12.2239 13 12.5 13H13V13.5351C13 13.8921 13.1903 14.222 13.4993 14.4007C14.3986 14.921 15 15.8908 15 17C15 18.6569 13.6569 20 12 20C10.3431 20 9 18.6569 9 17C9 15.8908 9.60141 14.921 10.5007 14.4007C10.8097 14.222 11 13.8921 11 13.5351V5Z" fill="black"/>
</svg>
