<svg width="24" height="24" viewBox="0 0 24 24" fill="none" xmlns="http://www.w3.org/2000/svg">
<path fill-rule="evenodd" clip-rule="evenodd" d="M14.0521 3H9.94818L9.90012 3.01001H9.85208L9.75598 3.03003L9.70822 3.04004L9.61212 3.08008L9.57611 3.1001L9.52805 3.12012L9.492 3.14014L9.44427 3.16992L9.40823 3.19995L9.36017 3.22998L9.28812 3.29004L9.2641 3.33008L9.22806 3.37012L9.19202 3.3999L9.168 3.43994L9.14426 3.48999L9.12024 3.53003L9.09622 3.56982L9.0722 3.62012L9.06018 3.66016L9.04816 3.70996L9.03616 3.76001L9.02414 3.80005L9.01215 3.8501L9.00012 3.8999V9.31006L9.01215 9.45996V9.60986L9.06018 10.21L9.0722 10.3501L9.09622 10.5L9.12024 10.6401L9.13226 10.78L9.15598 10.9199L9.20404 11.2L9.24005 11.3398L9.2641 11.47L9.30011 11.6001L9.32416 11.73L9.39621 11.99L9.43225 12.1099L9.46799 12.23L9.51605 12.3501L9.55206 12.47L9.60013 12.5898L9.63617 12.7L9.6842 12.8198L9.73224 12.9302L9.78 13.03L9.82806 13.1401L9.8761 13.24L9.93616 13.3398L10.0323 13.54L10.092 13.6299L10.2121 13.8101L10.2602 13.8901L10.3203 13.97L10.38 14.05L10.4401 14.1299L10.5121 14.2L10.5722 14.28L10.6323 14.3398L10.704 14.4102L10.7641 14.47L10.8362 14.53L10.8602 14.5601L10.8962 14.5801L10.9323 14.6099L10.968 14.6401L11.004 14.6602L11.0081 14.6624V19H9.99805C9.45056 19 9.00049 19.4399 9.00049 20C9.00049 20.5601 9.45056 21 9.99805 21H13.9954C14.5504 21 15.0005 20.5601 15.0005 20C15.0005 19.4399 14.5504 19 13.9954 19H13.0084V14.6533L13.0323 14.6401L13.068 14.6099L13.092 14.5898L13.1641 14.53L13.2361 14.47L13.2962 14.4102L13.356 14.3501L13.428 14.28L13.4881 14.21L13.5482 14.1401L13.6082 14.0601L13.668 13.98L13.7881 13.8198L13.9082 13.6401L13.956 13.55L14.0161 13.45L14.0641 13.3501L14.1121 13.26L14.1602 13.1499L14.2202 13.05L14.268 12.9399L14.304 12.8301L14.4001 12.6099L14.4362 12.49L14.4842 12.3701L14.5202 12.25L14.556 12.1299L14.592 12.01L14.7001 11.6201L14.7242 11.49L14.7602 11.3599L14.7842 11.22L14.8082 11.0898L14.8443 10.95L14.856 10.8101L14.904 10.53L14.916 10.3799L14.9401 10.24L14.9521 10.0898L14.9641 9.94995L14.9881 9.6499V9.5L15.0001 9.3501V3.8999L14.9881 3.8501L14.9761 3.80005L14.9641 3.76001L14.9521 3.70996L14.9401 3.66016L14.928 3.62012L14.904 3.56982L14.88 3.53003L14.856 3.48999L14.8322 3.43994L14.8082 3.3999L14.7722 3.37012L14.7361 3.33008L14.7121 3.29004L14.6401 3.22998L14.592 3.19995L14.5202 3.14014L14.4241 3.1001L14.3881 3.08008L14.292 3.04004L14.2443 3.03003L14.1482 3.01001H14.1001L14.0521 3ZM11.004 7V5H12.9962V7H11.004ZM11.004 8V9.37988L11.0161 9.51001V9.64014L11.0401 9.87988L11.0521 10.01L11.0641 10.1201L11.0881 10.3599L11.1121 10.48L11.1362 10.5898L11.1482 10.7L11.2202 11.03L11.2443 11.1299L11.268 11.23L11.316 11.4302L11.3521 11.53L11.3761 11.6201L11.4121 11.71L11.4362 11.8L11.4722 11.8901L11.5082 11.97L11.5323 12.05L11.568 12.1299L11.604 12.21L11.6401 12.28L11.6641 12.3501L11.7001 12.4102L11.7361 12.48L11.7722 12.54L11.8082 12.5898L11.8322 12.6499L11.868 12.7L11.904 12.74L11.928 12.79L11.9641 12.8301L11.9881 12.8599L12.0001 12.8701L12.0121 12.8599L12.0362 12.8301L12.0602 12.79L12.0962 12.75L12.1323 12.7L12.156 12.6499L12.192 12.6001L12.2641 12.48L12.2881 12.4199L12.3242 12.3599L12.3602 12.29L12.3962 12.22L12.4323 12.1401L12.468 12.0601L12.492 11.98L12.528 11.8999L12.5521 11.8198L12.5881 11.73L12.6121 11.6401L12.6482 11.54L12.6722 11.45L12.7082 11.3501L12.7322 11.25L12.756 11.1499L12.78 11.05L12.8521 10.72L12.8641 10.6099L12.8881 10.5L12.9001 10.3799L12.9241 10.27L12.9842 9.66992V9.54004L12.9962 9.41016V8H11.004Z" fill="#333333"/>
</svg>
