<svg width="24" height="24" viewBox="0 0 24 24" fill="none" xmlns="http://www.w3.org/2000/svg">
<path fill-rule="evenodd" clip-rule="evenodd" d="M12 2C17.52 2 22 6.481 22 12C22 17.52 17.52 22 12 22C6.48 22 2 17.52 2 12C2 6.481 6.48 2 12 2ZM12 4C16.41 4 20 7.585 20 12C20 16.42 16.41 20 12 20C7.59 20 4 16.42 4 12C4 7.585 7.59 4 12 4Z" fill="black"/>
<path d="M12.5 6.5V12L9.5 15" stroke="black" stroke-miterlimit="1.5" stroke-linecap="round" stroke-linejoin="round"/>
<path d="M12 20C16.4183 20 20 16.4183 20 12C20 7.58172 16.4183 4 12 4C7.58172 4 4 7.58172 4 12C4 16.4183 7.58172 20 12 20Z" fill="black" fill-opacity="0.1"/>
</svg>
