<svg width="24" height="24" viewBox="0 0 24 24" fill="none" xmlns="http://www.w3.org/2000/svg">
<path fill-rule="evenodd" clip-rule="evenodd" d="M15.7119 5.99759C15.7119 5.99759 19.2319 5.99759 21.0019 5.99759C21.2719 5.99759 21.5219 6.10262 21.7119 6.29062C21.8919 6.47762 22.0019 6.73259 22.0019 6.99759C22.0019 9.87058 22.0019 18.1276 22.0019 20.9976C22.0019 21.2576 21.8919 21.5176 21.7119 21.7076C21.5219 21.8876 21.2719 21.9976 21.0019 21.9976C17.5919 21.9976 6.41193 21.9976 3.00193 21.9976C2.74193 21.9976 2.48197 21.8876 2.29197 21.7076C2.11197 21.5176 2.00193 21.2576 2.00193 20.9976C2.00193 18.1276 2.00193 9.87058 2.00193 6.99759C2.00193 6.73259 2.11197 6.47762 2.29197 6.29062C2.48197 6.10262 2.74193 5.99759 3.00193 5.99759C4.78193 5.99759 8.29196 5.99759 8.29196 5.99759C8.29196 5.99759 10.222 4.07359 11.292 2.9976C11.682 2.6066 12.3219 2.6066 12.7119 2.9976C13.7819 4.07359 15.7119 5.99759 15.7119 5.99759ZM4.00193 15.2376V19.9976H20.0019V16.4376L16.5019 13.6376C16.5019 13.6376 12.982 16.4576 11.802 17.3976C11.592 17.5676 11.2919 17.5276 11.1219 17.3176C10.9419 17.0976 10.9819 16.7775 11.2019 16.5975C11.8219 16.0975 12.9519 15.1976 12.9519 15.1976L8.50192 11.6376L4.00193 15.2376ZM20.0019 15.1575V7.99759C14.6719 7.99759 9.33192 7.99759 4.00193 7.99759V13.9576C4.00193 13.9576 6.64193 11.8456 7.88193 10.8566C8.24193 10.5646 8.76192 10.5646 9.12192 10.8566C10.5219 11.9706 13.7519 14.5576 13.7519 14.5576C13.7519 14.5576 15.0619 13.5066 15.8819 12.8566C16.2419 12.5646 16.7619 12.5646 17.1219 12.8566C18.1319 13.6626 20.0019 15.1575 20.0019 15.1575ZM9.71188 5.99759H14.292L12.0019 3.70456L9.71188 5.99759Z" fill="#333333"/>
</svg>
