<svg width="24" height="24" viewBox="0 0 24 24" fill="none" xmlns="http://www.w3.org/2000/svg">
<path fill-rule="evenodd" clip-rule="evenodd" d="M6.59178 8.00086L6.68099 8.00417L6.77016 8.01002L6.85845 8.01836L6.94599 8.02833L7.03347 8.04003L7.12014 8.05417L7.20595 8.07085L7.29099 8.09003L7.37598 8.11002L7.45929 8.13336L7.54179 8.15752L7.62429 8.18417L7.70511 8.2125L7.78512 8.24333L7.86432 8.27583L7.94264 8.31001L8.02016 8.34587L8.09599 8.38417L8.17097 8.42333L8.24431 8.46417L8.31679 8.50751L8.38846 8.55252L8.45931 8.59835L8.52848 8.64667L8.59598 8.69585L8.66266 8.74753L8.72847 8.80002L8.7918 8.85419L8.85512 8.91003L8.91682 8.96751L8.97597 9.02504L9.03512 9.085L9.09265 9.14751L9.14763 9.20916L9.2018 9.27335L9.25429 9.33916L9.30597 9.40584L9.35597 9.47415L9.40347 9.54251L9.4493 9.6125L9.4935 9.68416L9.53683 9.75751L9.57849 9.83085L9.61847 9.90582L9.65596 9.98252L9.69181 10.06L9.72599 10.1375L9.75849 10.2158L9.78932 10.2975L9.81765 10.3783L9.8443 10.4592L9.86846 10.5425L9.89181 10.6267L9.9118 10.7108L9.93097 10.7959L9.94679 10.8817L9.96179 10.9683L9.97349 11.055L9.98346 11.1425L9.9918 11.2317L9.99765 11.3217L10.001 11.41L10.0018 11.5L10.001 11.59L9.99765 11.6783L9.9918 11.7684L9.98346 11.8575L9.97349 11.945L9.96179 12.0317L9.94679 12.1184L9.93097 12.2042L9.9118 12.2892L9.89181 12.3733L9.86846 12.4575L9.8443 12.5409L9.81765 12.6217L9.78932 12.7025L9.75849 12.7842L9.72599 12.8625L9.69181 12.94L9.65596 13.0175L9.61847 13.0942L9.57849 13.1692L9.53683 13.2425L9.4935 13.3159L9.4493 13.3875L9.40347 13.4575L9.35597 13.5259L9.30597 13.5942L9.25429 13.6609L9.2018 13.7267L9.14763 13.7909L9.09265 13.8525L9.03512 13.915L8.97597 13.975L8.91682 14.0325L8.85512 14.09L8.7918 14.1458L8.72847 14.2L8.66266 14.2525L8.59598 14.3042L8.52848 14.3534L8.45931 14.4017L8.38846 14.4475L8.31679 14.4925L8.24431 14.5359L8.17097 14.5767L8.09599 14.6159L8.02016 14.6542L7.94264 14.69L7.86432 14.7242L7.78512 14.7567L7.70511 14.7875L7.62429 14.8159L7.54179 14.8425L7.45929 14.8667L7.37598 14.89L7.29099 14.91L7.20595 14.9292L7.12014 14.9459L7.03347 14.96L6.94599 14.9717L6.85845 14.9817L6.77016 14.99L6.68099 14.9959L6.59178 14.9992L6.5018 15L6.41183 14.9992L6.32261 14.9959L6.23345 14.99L6.14515 14.9817L6.05762 14.9717L5.97014 14.96L5.88347 14.9459L5.79766 14.9292L5.71262 14.91L5.62763 14.89L5.54431 14.8667L5.46181 14.8425L5.37931 14.8159L5.29849 14.7875L5.21849 14.7567L5.13929 14.7242L5.06096 14.69L4.98345 14.6542L4.90761 14.6159L4.83264 14.5767L4.7593 14.5359L4.68682 14.4925L4.61515 14.4475L4.5443 14.4017L4.47513 14.3534L4.40763 14.3042L4.34095 14.2525L4.27513 14.2L4.21181 14.1458L4.14849 14.09L4.08679 14.0325L4.02764 13.975L3.96848 13.915L3.91096 13.8525L3.85597 13.7909L3.80181 13.7267L3.74932 13.6609L3.69764 13.5942L3.64764 13.5259L3.60013 13.4575L3.55431 13.3875L3.51011 13.3159L3.46677 13.2425L3.42512 13.1692L3.38514 13.0942L3.34765 13.0175L3.31179 12.94L3.27761 12.8625L3.24511 12.7842L3.21429 12.7025L3.18596 12.6217L3.15931 12.5409L3.13515 12.4575L3.1118 12.3733L3.09181 12.2892L3.07264 12.2042L3.05682 12.1184L3.04181 12.0317L3.03012 11.945L3.02015 11.8575L3.01181 11.7684L3.00596 11.6783L3.00265 11.59L3.00179 11.5L3.00265 11.41L3.00596 11.3217L3.01181 11.2317L3.02015 11.1425L3.03012 11.055L3.04181 10.9683L3.05682 10.8817L3.07264 10.7959L3.09181 10.7108L3.1118 10.6267L3.13515 10.5425L3.15931 10.4592L3.18596 10.3783L3.21429 10.2975L3.24511 10.2158L3.27761 10.1375L3.31179 10.06L3.34765 9.98252L3.38514 9.90582L3.42512 9.83085L3.46677 9.75751L3.51011 9.68416L3.55431 9.6125L3.60013 9.54251L3.64764 9.47415L3.69764 9.40584L3.74932 9.33916L3.80181 9.27335L3.85597 9.20916L3.91096 9.14751L3.96848 9.085L4.02764 9.02504L4.08679 8.96751L4.14849 8.91003L4.21181 8.85419L4.27513 8.80002L4.34095 8.74753L4.40763 8.69585L4.47513 8.64667L4.5443 8.59835L4.61515 8.55252L4.68682 8.50751L4.7593 8.46417L4.83264 8.42333L4.90761 8.38417L4.98345 8.34587L5.06096 8.31001L5.13929 8.27583L5.21849 8.24333L5.29849 8.2125L5.37931 8.18417L5.46181 8.15752L5.54431 8.13336L5.62763 8.11002L5.71262 8.09003L5.79766 8.07085L5.88347 8.05417L5.97014 8.04003L6.05762 8.02833L6.14515 8.01836L6.23345 8.01002L6.32261 8.00417L6.41183 8.00086L6.5018 8L6.59178 8.00086ZM6.43761 9.00082L6.37348 9.00337L6.30929 9.00749L6.24596 9.01334L6.18345 9.02L6.12099 9.02916L6.0593 9.03918L5.99847 9.05082L5.93763 9.0642L5.87762 9.07915L5.81765 9.09502L5.75844 9.11252L5.70016 9.13169L5.64263 9.15168L5.58516 9.17335L5.52931 9.1967L5.47346 9.22086L5.41848 9.24669L5.36431 9.27335L5.31095 9.30168L5.25765 9.33169L5.20597 9.36251L5.15511 9.3942L5.1043 9.42751L5.05511 9.46169L5.00679 9.49668L4.95848 9.53336L4.91178 9.57084L4.86596 9.61001L4.82094 9.65004L4.77766 9.69083L4.73432 9.73254L4.69262 9.77587L4.65182 9.81915L4.61179 9.86417L4.57263 9.90999L4.53514 9.95669L4.49847 10.005L4.46348 10.0533L4.4293 10.1025L4.39598 10.1533L4.3643 10.2042L4.33347 10.2559L4.30346 10.3092L4.27513 10.3625L4.24848 10.4167L4.22264 10.4717L4.19848 10.5275L4.17514 10.5834L4.15347 10.6408L4.13348 10.6984L4.11431 10.7567L4.09681 10.8159L4.08094 10.8758L4.06599 10.9358L4.05261 10.9967L4.04096 11.0575L4.03094 11.1192L4.02179 11.1817L4.01512 11.2442L4.00927 11.3075L4.00515 11.3717L4.00261 11.4358L4.0018 11.5L4.00261 11.5642L4.00515 11.6283L4.00927 11.6925L4.01512 11.7559L4.02179 11.8184L4.03094 11.8808L4.04096 11.9425L4.05261 12.0033L4.06599 12.0642L4.08094 12.1242L4.09681 12.1842L4.11431 12.2434L4.13348 12.3017L4.15347 12.3592L4.17514 12.4167L4.19848 12.4725L4.22264 12.5284L4.24848 12.5833L4.27513 12.6375L4.30346 12.6909L4.33347 12.7442L4.3643 12.7958L4.39598 12.8467L4.4293 12.8975L4.46348 12.9467L4.49847 12.995L4.53514 13.0433L4.57263 13.09L4.61179 13.1359L4.65182 13.1809L4.69262 13.2242L4.73432 13.2675L4.77766 13.3092L4.82094 13.35L4.86596 13.39L4.91178 13.4292L4.95848 13.4667L5.00679 13.5033L5.05511 13.5383L5.1043 13.5725L5.15511 13.6058L5.20597 13.6375L5.25765 13.6683L5.31095 13.6983L5.36431 13.7267L5.41848 13.7533L5.47346 13.7792L5.52931 13.8033L5.58516 13.8267L5.64263 13.8483L5.70016 13.8683L5.75844 13.8875L5.81765 13.905L5.87762 13.9209L5.93763 13.9358L5.99847 13.9492L6.0593 13.9609L6.12099 13.9709L6.18345 13.98L6.24596 13.9867L6.30929 13.9925L6.37348 13.9967L6.43761 13.9992L6.5018 14L6.56599 13.9992L6.63013 13.9967L6.69432 13.9925L6.75764 13.9867L6.82015 13.98L6.88261 13.9709L6.94431 13.9609L7.00514 13.9492L7.06597 13.9358L7.12599 13.9209L7.18596 13.905L7.24516 13.8875L7.30345 13.8683L7.36098 13.8483L7.41845 13.8267L7.4743 13.8033L7.53015 13.7792L7.58513 13.7533L7.6393 13.7267L7.69265 13.6983L7.74596 13.6683L7.79763 13.6375L7.8485 13.6058L7.89931 13.5725L7.94849 13.5383L7.99681 13.5033L8.04513 13.4667L8.09182 13.4292L8.13765 13.39L8.18266 13.35L8.22595 13.3092L8.26928 13.2675L8.31099 13.2242L8.35178 13.1809L8.39181 13.1359L8.43098 13.09L8.46846 13.0433L8.50513 12.995L8.54013 12.9467L8.57431 12.8975L8.60762 12.8467L8.63931 12.7958L8.67013 12.7442L8.70014 12.6909L8.72847 12.6375L8.75513 12.5833L8.78096 12.5284L8.80512 12.4725L8.82847 12.4167L8.85014 12.3592L8.87013 12.3017L8.8893 12.2434L8.9068 12.1842L8.92267 12.1242L8.93762 12.0642L8.951 12.0033L8.96265 11.9425L8.97267 11.8808L8.98182 11.8184L8.98848 11.7559L8.99433 11.6925L8.99845 11.6283L9.001 11.5642L9.00181 11.5L9.001 11.4358L8.99845 11.3717L8.99433 11.3075L8.98848 11.2442L8.98182 11.1817L8.97267 11.1192L8.96265 11.0575L8.951 10.9967L8.93762 10.9358L8.92267 10.8758L8.9068 10.8159L8.8893 10.7567L8.87013 10.6984L8.85014 10.6408L8.82847 10.5834L8.80512 10.5275L8.78096 10.4717L8.75513 10.4167L8.72847 10.3625L8.70014 10.3092L8.67013 10.2559L8.63931 10.2042L8.60762 10.1533L8.57431 10.1025L8.54013 10.0533L8.50513 10.005L8.46846 9.95669L8.43098 9.90999L8.39181 9.86417L8.35178 9.81915L8.31099 9.77587L8.26928 9.73254L8.22595 9.69083L8.18266 9.65004L8.13765 9.61001L8.09182 9.57084L8.04513 9.53336L7.99681 9.49668L7.94849 9.46169L7.89931 9.42751L7.8485 9.3942L7.79763 9.36251L7.74596 9.33169L7.69265 9.30168L7.6393 9.27335L7.58513 9.24669L7.53015 9.22086L7.4743 9.1967L7.41845 9.17335L7.36098 9.15168L7.30345 9.13169L7.24516 9.11252L7.18596 9.09502L7.12599 9.07915L7.06597 9.0642L7.00514 9.05082L6.94431 9.03918L6.88261 9.02916L6.82015 9.02L6.75764 9.01334L6.69432 9.00749L6.63013 9.00337L6.56599 9.00082L6.5018 9.00001L6.43761 9.00082Z" fill="black"/>
<path fill-rule="evenodd" clip-rule="evenodd" d="M9.0207 11.4988C9.0207 11.2116 9.2356 10.9788 9.5007 10.9788H21.5007C21.7658 10.9788 21.9807 11.2116 21.9807 11.4988C21.9807 11.786 21.7658 12.0188 21.5007 12.0188H9.5007C9.2356 12.0188 9.0207 11.786 9.0207 11.4988Z" fill="black"/>
<path fill-rule="evenodd" clip-rule="evenodd" d="M18 11.5C18 11.2239 17.7761 11 17.5 11C17.2239 11 17 11.2239 17 11.5V14.5C17 14.7761 17.2239 15 17.5 15C17.7761 15 18 14.7761 18 14.5V11.5ZM19.5 11C19.7761 11 20 11.2239 20 11.5V13.5C20 13.7761 19.7761 14 19.5 14C19.2239 14 19 13.7761 19 13.5V11.5C19 11.2239 19.2239 11 19.5 11ZM21.5 11C21.7761 11 22 11.2239 22 11.5V14.5C22 14.7761 21.7761 15 21.5 15C21.2239 15 21 14.7761 21 14.5V11.5C21 11.2239 21.2239 11 21.5 11Z" fill="black"/>
</svg>
