<svg width="24" height="24" viewBox="0 0 24 24" fill="none" xmlns="http://www.w3.org/2000/svg">
<path fill-rule="evenodd" clip-rule="evenodd" d="M8.99588 6.99902C8.99588 6.99902 8.99588 5.86902 8.99588 4.99902C8.99588 4.44902 9.43588 3.99902 9.99588 3.99902C11.1059 3.99902 12.8859 3.99902 13.9959 3.99902C14.5459 3.99902 14.9959 4.44902 14.9959 4.99902C14.9959 5.86902 14.9959 6.99902 14.9959 6.99902C14.9959 6.99902 16.8059 6.99902 17.9959 6.99902C18.5459 6.99902 18.9959 7.44902 18.9959 7.99902C18.9959 10.209 18.9959 15.589 18.9959 18.999C18.9959 20.659 17.6459 21.999 15.9959 21.999C13.6259 21.999 10.3559 21.999 7.99588 21.999C7.19588 21.999 6.43588 21.679 5.87588 21.119C5.30588 20.559 4.99588 19.799 4.99588 18.999C4.99588 15.589 4.99588 10.209 4.99588 7.99902C4.99588 7.44902 5.44588 6.99902 5.99588 6.99902C7.17588 6.99902 8.99588 6.99902 8.99588 6.99902ZM17.9959 7.99902H5.99588C5.99588 7.99902 5.99588 15.349 5.99588 18.999C5.99588 19.529 6.20584 20.039 6.58584 20.409C6.95584 20.789 7.46588 20.999 7.99588 20.999C10.2159 20.999 13.7759 20.999 15.9959 20.999C16.5259 20.999 17.0359 20.789 17.4059 20.409C17.7859 20.039 17.9959 19.529 17.9959 18.999C17.9959 15.349 17.9959 7.99902 17.9959 7.99902ZM14.4959 8.99901C14.6259 8.99901 14.7558 9.04904 14.8458 9.14904C14.9458 9.23904 14.9959 9.36901 14.9959 9.49901C14.9959 9.62901 14.9458 9.75899 14.8458 9.84899C14.7558 9.94899 14.6259 9.99901 14.4959 9.99901C13.3659 9.99901 10.6259 9.99901 9.49588 9.99901C9.36588 9.99901 9.2359 9.94899 9.1459 9.84899C9.0459 9.75899 8.99588 9.62901 8.99588 9.49901C8.99588 9.36901 9.0459 9.23904 9.1459 9.14904C9.2359 9.04904 9.36588 8.99901 9.49588 8.99901C10.6259 8.99901 13.3659 8.99901 14.4959 8.99901ZM9.99588 4.99902V6.99902H13.9959V4.99902H9.99588Z" fill="#333333"/>
</svg>
