<svg width="24" height="24" viewBox="0 0 24 24" fill="none" xmlns="http://www.w3.org/2000/svg">
<path d="M14 7.5H10C9.83333 9.66667 10 14 12 14C14 14 14.1667 9.66667 14 7.5Z" fill="#060606" fill-opacity="0.1"/>
<path fill-rule="evenodd" clip-rule="evenodd" d="M9 4C9 3.44772 9.44771 3 10 3H14C14.5523 3 15 3.44772 15 4V8C15 9.73443 14.7671 11.3462 14.3629 12.5589C14.1625 13.16 13.9019 13.7186 13.5639 14.1475C13.4152 14.3362 13.2272 14.5285 13 14.6826V19H14C14.5523 19 15 19.4477 15 20C15 20.5523 14.5523 21 14 21H10C9.44772 21 9 20.5523 9 20C9 19.4477 9.44772 19 10 19H11V14.6826C10.7728 14.5285 10.5848 14.3362 10.4361 14.1475C10.0981 13.7186 9.83748 13.16 9.6371 12.5589C9.23287 11.3462 9 9.73443 9 8V4ZM11 7H13V5H11V7ZM13 8H11C11 9.57928 11.2148 10.9675 11.5345 11.9264C11.6934 12.4031 11.8608 12.7206 12 12.9006C12.1392 12.7206 12.3066 12.4031 12.4655 11.9264C12.7852 10.9675 13 9.57928 13 8Z" fill="black"/>
</svg>
