<svg width="24" height="24" viewBox="0 0 24 24" fill="none" xmlns="http://www.w3.org/2000/svg">
<path d="M6 10V20H10V13H14V20H18V10L12 4L6 10Z" fill="black" fill-opacity="0.1"/>
<path fill-rule="evenodd" clip-rule="evenodd" d="M11.2929 3.29289C11.6834 2.90237 12.3166 2.90237 12.7071 3.29289L20.7071 11.2929C21.0976 11.6834 21.0976 12.3166 20.7071 12.7071C20.3166 13.0976 19.6834 13.0976 19.2929 12.7071L19 12.4142V20C19 20.5523 18.5523 21 18 21H14C13.4477 21 13 20.5523 13 20V14H11V20C11 20.5523 10.5523 21 10 21H6C5.44772 21 5 20.5523 5 20V12.4142L4.70711 12.7071C4.31658 13.0976 3.68342 13.0976 3.29289 12.7071C2.90237 12.3166 2.90237 11.6834 3.29289 11.2929L11.2929 3.29289ZM7 10.4142V19H9V13C9 12.4477 9.44772 12 10 12H14C14.5523 12 15 12.4477 15 13V19H17V10.4142L12 5.41421L7 10.4142Z" fill="black"/>
</svg>
