<svg width="24" height="24" viewBox="0 0 24 24" fill="none" xmlns="http://www.w3.org/2000/svg">
<path fill-rule="evenodd" clip-rule="evenodd" d="M9 5.8821C9 5.8821 13.16 3.8011 14.55 3.1061C14.83 2.9651 15.17 2.9651 15.45 3.1061C16.68 3.7201 20.1 5.4331 21.45 6.1061C21.79 6.2751 22 6.62108 22 7.00008C22 9.19708 22 16.6701 22 20.0001C22 20.3501 21.82 20.6701 21.53 20.8501C21.23 21.0301 20.86 21.0501 20.55 20.8901C18.5 19.8701 15 18.1201 15 18.1201C15 18.1201 10.84 20.2001 9.44995 20.8901C9.16995 21.0301 8.83005 21.0301 8.55005 20.8901C7.32005 20.2801 3.90005 18.5701 2.55005 17.8901C2.21005 17.7301 2 17.3801 2 17.0001C2 14.8031 2 7.32608 2 4.00008C2 3.65308 2.17997 3.33207 2.46997 3.14907C2.76997 2.96707 3.13995 2.9511 3.44995 3.1061C5.49995 4.1311 9 5.8821 9 5.8821ZM8 7.61806L4 5.61806V16.3801L8 18.3801V7.61806ZM16 5.61806V16.3801L20 18.3801V7.61806L16 5.61806ZM10 7.61806V18.3801L14 16.3801V5.61806L10 7.61806Z" fill="black"/>
<path d="M3 4V17L9 20L15 17L21 20V7L15 4L9 7L3 4Z" fill="black" fill-opacity="0.1"/>
</svg>
