<svg width="24" height="24" viewBox="0 0 24 24" fill="none" xmlns="http://www.w3.org/2000/svg">
<path fill-rule="evenodd" clip-rule="evenodd" d="M19.7499 11.342C20.0099 11.637 20.0698 12.056 19.9098 12.413C19.7498 12.771 19.3899 13 18.9999 13C18.4399 13 17.9999 13 17.9999 13C17.9999 13 17.9999 17.85 17.9999 20C17.9999 20.55 17.5499 21 16.9999 21C14.7399 21 9.25991 21 6.99991 21C6.44991 21 5.99991 20.55 5.99991 20C5.99991 17.85 5.99991 13 5.99991 13C5.99991 13 5.55991 13 4.99991 13C4.60991 13 4.25 12.771 4.09 12.413C3.93 12.056 3.98991 11.637 4.24991 11.342C6.22991 9.07398 9.71991 5.08698 11.2499 3.34198C11.4399 3.12398 11.7099 3 11.9999 3C12.2899 3 12.5599 3.12398 12.7499 3.34198C14.2799 5.08698 17.7699 9.07398 19.7499 11.342ZM15.9999 13H7.99991V19H9.99991C9.99991 19 9.99991 16.46 9.99991 15C9.99991 14.448 10.4499 14 10.9999 14C11.6099 14 12.3899 14 12.9999 14C13.5499 14 13.9999 14.448 13.9999 15C13.9999 16.46 13.9999 19 13.9999 19H15.9999V13ZM10.9999 15V19H12.9999V15H10.9999ZM7.19986 11H16.8L11.9999 5.51898L7.19986 11Z" fill="#333333"/>
</svg>
