<svg width="24" height="24" viewBox="0 0 24 24" fill="none" xmlns="http://www.w3.org/2000/svg">
<path fill-rule="evenodd" clip-rule="evenodd" d="M8.99588 5.99755C8.99588 5.99755 8.99588 4.87055 8.99588 3.99756C8.99588 3.44556 9.43588 2.99756 9.99587 2.99756C11.1059 2.99756 12.8859 2.99756 13.9959 2.99756C14.5459 2.99756 14.9959 3.44556 14.9959 3.99756C14.9959 4.87055 14.9959 5.99755 14.9959 5.99755C14.9959 5.99755 17.5359 5.99755 18.9959 5.99755C19.5459 5.99755 19.9959 6.44555 19.9959 6.99755C19.9959 9.35555 19.9959 15.3405 19.9959 18.9975C19.9959 20.6575 18.6559 21.9975 16.9959 21.9975C14.1359 21.9975 9.85587 21.9975 6.99588 21.9975C5.33588 21.9975 3.99588 20.6575 3.99588 18.9975C3.99588 15.3405 3.99588 9.35555 3.99588 6.99755C3.99588 6.73255 4.10592 6.47758 4.28592 6.29058C4.47592 6.10258 4.73588 5.99755 4.99588 5.99755C6.45588 5.99755 8.99588 5.99755 8.99588 5.99755ZM17.9959 7.99755H5.99588C5.99588 7.99755 5.99588 16.1175 5.99588 18.9975C5.99588 19.2575 6.10592 19.5175 6.28592 19.7075C6.47592 19.8875 6.73588 19.9975 6.99588 19.9975C9.25588 19.9975 14.7359 19.9975 16.9959 19.9975C17.2659 19.9975 17.5158 19.8875 17.7058 19.7075C17.8858 19.5175 17.9959 19.2575 17.9959 18.9975C17.9959 16.1175 17.9959 7.99755 17.9959 7.99755ZM14.4959 8.99755C14.7759 8.99755 14.9959 9.22057 14.9959 9.49657V9.49755C14.9959 9.63055 14.9458 9.75755 14.8458 9.85155C14.7558 9.94455 14.6259 9.99754 14.4959 9.99754C13.3659 9.99754 10.6259 9.99754 9.49588 9.99754C9.35588 9.99754 9.23589 9.94455 9.13589 9.85155C9.04589 9.75755 8.99588 9.63055 8.99588 9.49755V9.49657C8.99588 9.22057 9.21588 8.99755 9.49588 8.99755C10.6259 8.99755 13.3659 8.99755 14.4959 8.99755ZM9.99587 3.99756V5.99755H13.9959V3.99756H9.99587Z" fill="#333333"/>
</svg>
