<svg width="24" height="24" viewBox="0 0 24 24" fill="none" xmlns="http://www.w3.org/2000/svg">
<path fill-rule="evenodd" clip-rule="evenodd" d="M17.0001 19C17.0001 19.55 16.5501 20 16.0001 20C14.0801 20 9.92008 20 8.00008 20C7.45008 20 7.00008 19.55 7.00008 19C7.00008 17.07 7.00008 13 7.00008 13C7.00008 13 6.61017 13 6.10017 13C5.71017 13 5.35002 12.77 5.19002 12.41C5.03002 12.06 5.09017 11.64 5.35017 11.34C7.08017 9.35997 9.91008 6.12998 11.2501 4.59998C11.4401 4.37998 11.7101 4.26001 12.0001 4.26001C12.2901 4.26001 12.5601 4.37998 12.7501 4.59998C14.0901 6.12998 16.92 9.35997 18.65 11.34C18.91 11.64 18.9701 12.06 18.8101 12.41C18.6501 12.77 18.29 13 17.9 13C17.39 13 17.0001 13 17.0001 13C17.0001 13 17.0001 17.07 17.0001 19ZM16.0001 13H8.00008V19H10.0001C10.0001 19 10.0001 16.46 10.0001 15C10.0001 14.45 10.4501 14 11.0001 14C11.6101 14 12.3901 14 13.0001 14C13.5501 14 14.0001 14.45 14.0001 15C14.0001 16.46 14.0001 19 14.0001 19H16.0001V13ZM11.0001 15V19H13.0001V15H11.0001ZM6.10017 12H17.9L12.0001 5.26001L6.10017 12Z" fill="#333333"/>
</svg>
