<svg width="24" height="24" viewBox="0 0 24 24" fill="none" xmlns="http://www.w3.org/2000/svg">
<path fill-rule="evenodd" clip-rule="evenodd" d="M12 5C16.41 5 20 8.585 20 13C20 17.42 16.41 21 12 21C7.59 21 4 17.42 4 13C4 8.585 7.59 5 12 5ZM12 7C15.31 7 18 9.689 18 13C18 16.31 15.31 19 12 19C8.69 19 6 16.31 6 13C6 9.689 8.69 7 12 7ZM20.71 6.29303C21.1 6.68303 21.1 7.31697 20.71 7.70697C20.32 8.09797 19.68 8.09797 19.29 7.70697C18.71 7.12097 17.88 6.29297 17.29 5.70697C16.9 5.31697 16.9 4.68303 17.29 4.29303C17.68 3.90203 18.32 3.90203 18.71 4.29303C19.29 4.87903 20.12 5.70703 20.71 6.29303ZM15 3C15 3.265 14.89 3.51997 14.71 3.70697C14.52 3.89497 14.26 4 14 4C12.89 4 11.11 4 10 4C9.74 4 9.48004 3.89497 9.29004 3.70697C9.11004 3.51997 9 3.265 9 3C9 2.735 9.11004 2.48003 9.29004 2.29303C9.48004 2.10503 9.74 2 10 2C11.11 2 12.89 2 14 2C14.26 2 14.52 2.10503 14.71 2.29303C14.89 2.48003 15 2.735 15 3Z" fill="black"/>
<path d="M12.5 8.5V13L10.5 15" stroke="black" stroke-miterlimit="1.5" stroke-linecap="round" stroke-linejoin="round"/>
<path d="M12 20C15.866 20 19 16.866 19 13C19 9.13401 15.866 6 12 6C8.13401 6 5 9.13401 5 13C5 16.866 8.13401 20 12 20Z" fill="black" fill-opacity="0.1"/>
</svg>
