<svg width="24" height="24" viewBox="0 0 24 24" fill="none" xmlns="http://www.w3.org/2000/svg">
<path fill-rule="evenodd" clip-rule="evenodd" d="M14 13.5351C15.1956 14.2267 16 15.5194 16 17C16 19.2091 14.2091 21 12 21C9.79086 21 8 19.2091 8 17C8 15.5194 8.8044 14.2267 10 13.5351V5C10 3.89543 10.8954 3 12 3C13.1046 3 14 3.89543 14 5V13.5351ZM10.5007 14.4007C10.8097 14.222 11 13.8921 11 13.5351V5C11 4.44772 11.4477 4 12 4C12.5523 4 13 4.44772 13 5V6H12.5C12.2239 6 12 6.22386 12 6.5C12 6.77614 12.2239 7 12.5 7H13V8H12.5C12.2239 8 12 8.22386 12 8.5C12 8.77614 12.2239 9 12.5 9H13V10H12.5C12.2239 10 12 10.2239 12 10.5C12 10.7761 12.2239 11 12.5 11H13V12H12.5C12.2239 12 12 12.2239 12 12.5C12 12.7761 12.2239 13 12.5 13H13V13.5351C13 13.8921 13.1903 14.222 13.4993 14.4007C14.3986 14.921 15 15.8908 15 17C15 18.6569 13.6569 20 12 20C10.3431 20 9 18.6569 9 17C9 15.8908 9.60141 14.921 10.5007 14.4007Z" fill="black"/>
<path d="M12 3C10.8954 3 10 3.89543 10 5V13.5351C8.8044 14.2267 8 15.5194 8 17C8 19.2091 9.79086 21 12 21C14.2091 21 16 19.2091 16 17C16 15.5194 15.1956 14.2267 14 13.5351V5C14 3.89543 13.1046 3 12 3Z" fill="black" fill-opacity="0.1"/>
</svg>
