<svg width="24" height="24" viewBox="0 0 24 24" fill="none" xmlns="http://www.w3.org/2000/svg">
<path d="M8.87073 20.2762C8.87073 20.8285 9.31845 21.2762 9.87073 21.2762C10.423 21.2762 10.8707 20.8285 10.8707 20.2762H8.87073ZM4.95753 16.0009C4.40574 16.0244 3.97745 16.4907 4.0009 17.0425C4.02436 17.5943 4.49069 18.0226 5.04247 17.9991L4.95753 16.0009ZM10.5457 15.5598L11.3752 16.1184C11.5702 15.8288 11.6001 15.4585 11.454 15.1414C11.3079 14.8243 11.007 14.6063 10.6602 14.5664L10.5457 15.5598ZM7.02073 7.74195L7.76838 8.40605C8.01779 8.12525 8.08885 7.72838 7.95234 7.3785L7.02073 7.74195ZM7.12073 5.02492L6.81478 4.07287C6.52829 4.16494 6.29849 4.38113 6.18912 4.66147L7.12073 5.02492ZM9.87073 6.07585L9.30268 6.89884C9.54947 7.06918 9.85968 7.11978 10.1478 7.0367L9.87073 6.07585ZM14.8707 6.07585L14.5937 7.0367C14.8833 7.12022 15.1952 7.06862 15.4425 6.89626L14.8707 6.07585ZM17.6207 5.02492L18.5523 4.66147C18.4447 4.38563 18.2204 4.17166 17.9398 4.07719L17.6207 5.02492ZM17.7207 7.74195L16.7891 7.3785C16.6526 7.72838 16.7237 8.12525 16.9731 8.40605L17.7207 7.74195ZM14.1832 15.5598L14.0688 14.5664C13.6766 14.6116 13.3477 14.8833 13.2293 15.2599C13.1109 15.6366 13.2251 16.0476 13.521 16.3091L14.1832 15.5598ZM13.8457 20.2762C13.8457 20.8285 14.2934 21.2762 14.8457 21.2762C15.398 21.2762 15.8457 20.8285 15.8457 20.2762H13.8457ZM10.8707 20.2762V17.7335H8.87073V20.2762H10.8707ZM9.87073 16.7335C9.61803 16.7335 9.36074 16.7496 9.14178 16.7621C8.91132 16.7753 8.70811 16.7854 8.50823 16.7826C8.11944 16.7772 7.78796 16.7222 7.46794 16.5622L6.57352 18.351C7.2535 18.691 7.91166 18.7745 8.48018 18.7824C8.75896 18.7863 9.02633 18.772 9.25563 18.7589C9.49642 18.7452 9.68806 18.7335 9.87073 18.7335V16.7335ZM7.46794 16.5622C6.84075 16.2486 6.22136 16.1112 5.76999 16.0499C5.54158 16.0189 5.3486 16.0063 5.20873 16.0016C5.1386 15.9992 5.08123 15.9988 5.03878 15.9991C5.01754 15.9993 4.99998 15.9996 4.98636 16C4.97955 16.0001 4.97372 16.0003 4.96891 16.0005C4.9665 16.0006 4.96435 16.0006 4.96245 16.0007C4.9615 16.0007 4.96061 16.0008 4.95979 16.0008C4.95938 16.0008 4.95899 16.0008 4.95861 16.0009C4.95842 16.0009 4.95815 16.0009 4.95806 16.0009C4.95779 16.0009 4.95753 16.0009 5 17C5.04247 17.9991 5.04222 17.9991 5.04197 17.9991C5.04189 17.9991 5.04164 17.9991 5.04148 17.9991C5.04117 17.9992 5.04086 17.9992 5.04058 17.9992C5.04001 17.9992 5.03949 17.9992 5.03904 17.9992C5.03813 17.9993 5.03746 17.9993 5.03701 17.9993C5.03612 17.9993 5.03614 17.9993 5.03705 17.9993C5.03888 17.9993 5.04422 17.9991 5.05284 17.9991C5.07012 17.999 5.10031 17.9991 5.14149 18.0005C5.22426 18.0033 5.34897 18.0111 5.50074 18.0317C5.80974 18.0737 6.20071 18.1646 6.57352 18.351L7.46794 16.5622ZM10.6602 14.5664C9.61057 14.4455 8.71946 14.1908 8.09056 13.6468C7.50502 13.1404 6.99573 12.2483 6.99573 10.4974H4.99573C4.99573 12.6683 5.64894 14.1793 6.78216 15.1595C7.87201 16.1022 9.25589 16.4178 10.4313 16.5532L10.6602 14.5664ZM6.99573 10.4974C6.99573 9.63219 7.2901 8.94449 7.76838 8.40605L6.27308 7.07785C5.47636 7.97482 4.99573 9.13265 4.99573 10.4974H6.99573ZM7.95234 7.3785C7.90616 7.26013 7.62504 6.48366 8.05234 5.38837L6.18912 4.66147C5.51642 6.38574 5.9353 7.71112 6.08912 8.1054L7.95234 7.3785ZM7.12073 5.02492C7.42668 5.97697 7.42571 5.97728 7.42474 5.97759C7.42442 5.97769 7.42346 5.978 7.42282 5.9782C7.42155 5.9786 7.42028 5.979 7.41903 5.97939C7.41652 5.98018 7.41405 5.98094 7.41164 5.98167C7.4068 5.98314 7.40214 5.98451 7.39766 5.98579C7.38869 5.98834 7.38046 5.99053 7.37296 5.99241C7.35795 5.99616 7.34598 5.99861 7.33713 6.0002C7.3193 6.0034 7.31464 6.00299 7.32392 6.00259C7.34182 6.00183 7.42041 6.00079 7.56562 6.03243C7.85785 6.09611 8.42624 6.2939 9.30268 6.89884L10.4388 5.25286C9.40272 4.53773 8.59611 4.21005 7.99147 4.07829C7.68823 4.01221 7.43792 3.99594 7.23902 4.0044C7.1399 4.00861 7.05487 4.0189 6.98378 4.03166C6.94829 4.03804 6.91645 4.04499 6.88825 4.05203C6.87415 4.05556 6.86098 4.0591 6.84873 4.06259C6.8426 4.06434 6.83671 4.06608 6.83105 4.06779C6.82823 4.06865 6.82545 4.0695 6.82274 4.07035C6.82139 4.07077 6.82004 4.0712 6.81872 4.07162C6.81805 4.07183 6.81707 4.07214 6.81674 4.07225C6.81576 4.07256 6.81478 4.07287 7.12073 5.02492ZM10.1478 7.0367C10.8533 6.83327 11.6097 6.72981 12.3707 6.72981V4.72981C11.4318 4.72981 10.4882 4.85704 9.59366 5.115L10.1478 7.0367ZM12.3707 6.72981C13.1318 6.72981 13.8882 6.83327 14.5937 7.0367L15.1478 5.115C14.2533 4.85704 13.3097 4.72981 12.3707 4.72981V6.72981ZM15.4425 6.89626C16.3181 6.28605 16.8841 6.09017 17.1725 6.02834C17.3158 5.99764 17.3923 5.99953 17.4083 6.00036C17.4167 6.00079 17.4112 6.00107 17.3927 5.99752C17.3835 5.99576 17.3713 5.99308 17.356 5.98906C17.3484 5.98705 17.34 5.98471 17.331 5.98199C17.3264 5.98063 17.3217 5.97918 17.3168 5.97762C17.3144 5.97685 17.3119 5.97604 17.3094 5.97522C17.3081 5.9748 17.3068 5.97438 17.3056 5.97395C17.3049 5.97374 17.3039 5.97342 17.3036 5.97331C17.3026 5.97298 17.3017 5.97265 17.6207 5.02492C17.9398 4.07719 17.9388 4.07686 17.9378 4.07653C17.9375 4.07642 17.9365 4.07608 17.9358 4.07586C17.9345 4.07542 17.9331 4.07497 17.9318 4.07452C17.929 4.07363 17.9262 4.07273 17.9234 4.07182C17.9177 4.07 17.9117 4.06816 17.9056 4.06631C17.8932 4.06261 17.8799 4.05885 17.8657 4.0551C17.8372 4.0476 17.8051 4.04016 17.7693 4.03329C17.6975 4.01954 17.6117 4.0082 17.5116 4.00303C17.3108 3.99264 17.0585 4.00735 16.7533 4.07276C16.1449 4.20318 15.3359 4.53276 14.299 5.25543L15.4425 6.89626ZM16.6891 5.38837C17.1164 6.48366 16.8353 7.26013 16.7891 7.3785L18.6523 8.1054C18.8062 7.71112 19.225 6.38574 18.5523 4.66147L16.6891 5.38837ZM16.9731 8.40605C17.4525 8.94575 17.7457 9.62103 17.7457 10.4974H19.7457C19.7457 9.11818 19.264 7.97356 18.4684 7.07785L16.9731 8.40605ZM17.7457 10.4974C17.7457 12.254 17.2338 13.145 16.6468 13.6498C16.0152 14.1929 15.121 14.4452 14.0688 14.5664L14.2977 16.5532C15.4704 16.4181 16.8575 16.1065 17.9509 15.1662C19.0889 14.1875 19.7457 12.6754 19.7457 10.4974H17.7457ZM13.521 16.3091C13.618 16.3949 13.8582 16.7066 13.8582 17.4566H15.8582C15.8582 16.2842 15.4734 15.3656 14.8455 14.8105L13.521 16.3091ZM13.8582 17.4566C13.8582 18.1393 13.8551 18.7554 13.852 19.2445C13.8489 19.7294 13.8457 20.0989 13.8457 20.2762H15.8457C15.8457 20.1074 15.8488 19.7528 15.852 19.2572C15.8551 18.7659 15.8582 18.1452 15.8582 17.4566H13.8582ZM10.8706 17.7484C10.8774 17.2967 10.8935 17.0147 10.9155 16.8309C10.9374 16.648 10.9594 16.6174 10.9484 16.6408C10.9335 16.6722 10.9105 16.6894 10.9909 16.6003C11.0741 16.5081 11.2157 16.3552 11.3752 16.1184L9.71628 15.0012C9.64389 15.1087 9.58857 15.169 9.50604 15.2605C9.42072 15.355 9.26317 15.5265 9.14093 15.7845C8.92466 16.241 8.88396 16.839 8.87084 17.7185L10.8706 17.7484Z" fill="black"/>
<path d="M9.87073 17.7335V20.2762H14.8457C14.8457 19.9301 14.8582 18.8279 14.8582 17.4566C14.8582 16.4954 14.5457 15.8802 14.1832 15.5598C16.4082 15.3035 18.7457 14.432 18.7457 10.4974C18.7457 9.3696 18.3582 8.45966 17.7207 7.74195C17.8207 7.48563 18.1707 6.4347 17.6207 5.02492C17.6207 5.02492 16.7832 4.74297 14.8707 6.07585C14.0707 5.84516 13.2207 5.72981 12.3707 5.72981C11.5207 5.72981 10.6707 5.84516 9.87073 6.07585C7.95823 4.75578 7.12073 5.02492 7.12073 5.02492C6.57073 6.4347 6.92073 7.48563 7.02073 7.74195C6.38323 8.45966 5.99573 9.38242 5.99573 10.4974C5.99573 14.4192 8.32073 15.3035 10.5457 15.5598C10.082 16.2485 9.89827 15.8875 9.87073 17.7335Z" fill="black" fill-opacity="0.1"/>
</svg>
