<svg width="24" height="24" viewBox="0 0 24 24" fill="none" xmlns="http://www.w3.org/2000/svg">
<path d="M13.2812 12.4999C13.2812 15.5375 10.7558 18 7.64049 18C4.52519 18 2 15.5382 2 12.4999C2 9.46161 4.52538 7 7.64049 7C10.7556 7 13.2812 9.46235 13.2812 12.4999ZM19.4691 12.4999C19.4691 15.3594 18.2063 17.6773 16.6487 17.6773C15.0912 17.6773 13.8284 15.3586 13.8284 12.4999C13.8284 9.64117 15.0912 7.32256 16.6487 7.32256C18.2063 7.32256 19.4691 9.64117 19.4691 12.4999ZM22 12.4999C22 15.0619 21.5558 17.1386 21.008 17.1386C20.4603 17.1386 20.0161 15.0611 20.0161 12.4999C20.0161 9.93869 20.4603 7.86122 21.0082 7.86122C21.5562 7.86122 22 9.93813 22 12.4999Z" fill="black" fill-opacity="0.1"/>
<path fill-rule="evenodd" clip-rule="evenodd" d="M7.64049 16C9.69909 16 11.2812 14.3856 11.2812 12.4999C11.2812 10.6143 9.69903 9 7.64049 9C5.58186 9 4 10.6137 4 12.4999C4 14.3863 5.58181 16 7.64049 16ZM12.2795 9.37027C11.2612 7.93799 9.56313 7 7.64049 7C4.52538 7 2 9.46161 2 12.4999C2 15.5382 4.52519 18 7.64049 18C9.56323 18 11.2612 17.062 12.2795 15.6296C12.9111 14.7412 13.2812 13.6627 13.2812 12.4999C13.2812 11.3371 12.9111 10.2586 12.2795 9.37027ZM14.4899 9.16848C14.0771 10.069 13.8284 11.2312 13.8284 12.4999C13.8284 13.7686 14.0771 14.9309 14.4899 15.8314C15.0073 16.96 15.7824 17.6773 16.6487 17.6773C17.3222 17.6773 17.9406 17.2438 18.4256 16.5207C19.0623 15.5714 19.4691 14.1229 19.4691 12.4999C19.4691 10.8773 19.0622 9.42874 18.4256 8.47936C17.9406 7.7561 17.3222 7.32256 16.6487 7.32256C15.7824 7.32256 15.0073 8.03988 14.4899 9.16848ZM20.598 8.27526C20.4489 8.59221 20.3196 9.07649 20.221 9.67671C20.0925 10.4588 20.0161 11.4378 20.0161 12.4999C20.0161 13.562 20.0925 14.5409 20.221 15.323C20.3196 15.9234 20.4489 16.4078 20.598 16.7248C20.723 16.9905 20.8618 17.1386 21.008 17.1386C21.3287 17.1386 21.6138 16.427 21.7952 15.323C21.9236 14.541 22 13.5622 22 12.4999C22 11.4377 21.9237 10.4588 21.7953 9.67681C21.6141 8.57286 21.329 7.86122 21.0082 7.86122C20.8619 7.86122 20.723 8.00935 20.598 8.27526ZM16.8867 15.2041C17.2083 14.6137 17.4691 13.6613 17.4691 12.4999C17.4691 11.3389 17.2083 10.3865 16.8866 9.79591C16.7931 9.62416 16.7122 9.50947 16.6487 9.43385C16.5853 9.50947 16.5044 9.62416 16.4108 9.79591C16.0891 10.3865 15.8284 11.3389 15.8284 12.4999C15.8284 13.6609 16.0891 14.6133 16.4108 15.2039C16.5044 15.3757 16.5853 15.4904 16.6488 15.5661C16.7123 15.4905 16.7931 15.3758 16.8867 15.2041Z" fill="black"/>
</svg>
