<svg width="24" height="24" viewBox="0 0 24 24" fill="none" xmlns="http://www.w3.org/2000/svg">
<path fill-rule="evenodd" clip-rule="evenodd" d="M14.5 3C13.6716 3 13 3.67157 13 4.5V8.5C13 9.32843 13.6716 10 14.5 10C15.3284 10 16 9.32843 16 8.5V4.5C16 3.67157 15.3284 3 14.5 3ZM9.5 14C8.67157 14 8 14.6716 8 15.5V19.5C8 20.3284 8.67157 21 9.5 21C10.3284 21 11 20.3284 11 19.5V15.5C11 14.6716 10.3284 14 9.5 14ZM14 14.5C14 13.6716 14.6716 13 15.5 13H19.5C20.3284 13 21 13.6716 21 14.5C21 15.3284 20.3284 16 19.5 16H15.5C14.6716 16 14 15.3284 14 14.5ZM4.5 8C3.67157 8 3 8.67157 3 9.5C3 10.3284 3.67157 11 4.5 11H8.5C9.32843 11 10 10.3284 10 9.5C10 8.67157 9.32843 8 8.5 8H4.5Z" fill="black" fill-opacity="0.1"/>
<path fill-rule="evenodd" clip-rule="evenodd" d="M14.5 2C13.1193 2 12 3.11929 12 4.5V8.5C12 9.88071 13.1193 11 14.5 11C15.8807 11 17 9.88071 17 8.5V4.5C17 3.11929 15.8807 2 14.5 2ZM14 4.5C14 4.22386 14.2239 4 14.5 4C14.7761 4 15 4.22386 15 4.5V8.5C15 8.77614 14.7761 9 14.5 9C14.2239 9 14 8.77614 14 8.5V4.5ZM9.5 13C8.11929 13 7 14.1193 7 15.5V19.5C7 20.8807 8.11929 22 9.5 22C10.8807 22 12 20.8807 12 19.5V15.5C12 14.1193 10.8807 13 9.5 13ZM9 15.5C9 15.2239 9.22386 15 9.5 15C9.77614 15 10 15.2239 10 15.5V19.5C10 19.7761 9.77614 20 9.5 20C9.22386 20 9 19.7761 9 19.5V15.5ZM13 14.5C13 13.1193 14.1193 12 15.5 12H19.5C20.8807 12 22 13.1193 22 14.5C22 15.8807 20.8807 17 19.5 17H15.5C14.1193 17 13 15.8807 13 14.5ZM15.5 14C15.2239 14 15 14.2239 15 14.5C15 14.7761 15.2239 15 15.5 15H19.5C19.7761 15 20 14.7761 20 14.5C20 14.2239 19.7761 14 19.5 14H15.5ZM4.5 7C3.11929 7 2 8.11929 2 9.5C2 10.8807 3.11929 12 4.5 12H8.5C9.88071 12 11 10.8807 11 9.5C11 8.11929 9.88071 7 8.5 7H4.5ZM4 9.5C4 9.22386 4.22386 9 4.5 9H8.5C8.77614 9 9 9.22386 9 9.5C9 9.77614 8.77614 10 8.5 10H4.5C4.22386 10 4 9.77614 4 9.5ZM18 9C18 7.89438 18.8944 7 20 7C21.1056 7 22 7.89438 22 9C22 10.1056 21.1056 11 20 11H19C18.4477 11 18 10.5523 18 10V9ZM4 13C2.89438 13 2 13.8944 2 15C2 16.1056 2.89438 17 4 17C5.10562 17 6 16.1056 6 15V14C6 13.4477 5.55228 13 5 13H4ZM13 19C13 18.4477 13.4477 18 14 18H15C16.1056 18 17 18.8944 17 20C17 21.1056 16.1056 22 15 22C13.8944 22 13 21.1056 13 20V19ZM9 2C7.89438 2 7 2.89438 7 4C7 5.10562 7.89438 6 9 6H10C10.5523 6 11 5.55228 11 5V4C11 2.89438 10.1056 2 9 2Z" fill="black"/>
</svg>
