<svg width="24" height="24" viewBox="0 0 24 24" fill="none" xmlns="http://www.w3.org/2000/svg">
<path d="M21 5C20.2165 5.55266 19.349 5.98359 18.4309 6.26005C17.9382 5.69346 17.2833 5.29188 16.5548 5.10962C15.8264 4.92736 15.0596 4.97321 14.3581 5.24096C13.6565 5.50872 13.0542 5.98546 12.6324 6.60672C12.2107 7.22798 11.9899 7.96377 12 8.71459V9.53277C10.5622 9.57006 9.13741 9.25117 7.85264 8.6045C6.56788 7.95784 5.46299 6.99525 4.63636 5.81818C4.63636 5.81818 0.636364 13.2273 8 16.5C6.31498 17.6438 5 18 3 18.0991C10.3636 22.19 19.3636 18.0991 19.3636 8.69005C19.3629 8.46214 19.341 8.2348 19.2982 8.01095C20.1332 7.18745 20.7225 6.13949 21 5Z" fill="black" fill-opacity="0.1"/>
<path d="M16.5548 5.10962C17.2833 5.29188 17.9382 5.69346 18.4309 6.26005L21 6L19.3636 8.69005C19.3636 18.0991 10.3636 22.19 3 18.0991C5 18 6.31498 17.6438 8 16.5C0.636364 13.2273 4.63636 5.81818 4.63636 5.81818C5.46299 6.99525 6.56788 7.95784 7.85264 8.6045C9.13741 9.25116 10.5622 9.57006 12 9.53277V8.71459C11.9899 7.96377 12.2107 7.22798 12.6324 6.60672C13.0542 5.98546 13.6565 5.50872 14.3581 5.24096C15.0596 4.97321 15.8264 4.92736 16.5548 5.10962Z" stroke="black" stroke-width="2" stroke-miterlimit="16" stroke-linecap="round" stroke-linejoin="round"/>
</svg>
