<svg width="24" height="24" viewBox="0 0 24 24" fill="none" xmlns="http://www.w3.org/2000/svg">
<path d="M3 12V21H21V12H16V15C16 15.5523 15.5523 16 15 16H9C8.44772 16 8 15.5523 8 15V12H3Z" fill="black" fill-opacity="0.1"/>
<path d="M9 3V8H15V3H9Z" fill="black" fill-opacity="0.1"/>
<path d="M2.5 21C2.5 21.2761 2.72386 21.5 3 21.5H21C21.2761 21.5 21.5 21.2761 21.5 21V12C21.5 11.7239 21.2761 11.5 21 11.5H16C15.7239 11.5 15.5 11.7239 15.5 12V15C15.5 15.2761 15.2761 15.5 15 15.5H9C8.72386 15.5 8.5 15.2761 8.5 15V12C8.5 11.7239 8.27614 11.5 8 11.5H3C2.72386 11.5 2.5 11.7239 2.5 12V21ZM8.5 8C8.5 8.27614 8.72386 8.5 9 8.5H15C15.2761 8.5 15.5 8.27614 15.5 8V3C15.5 2.72386 15.2761 2.5 15 2.5H9C8.72386 2.5 8.5 2.72386 8.5 3V8Z" stroke="black" stroke-linejoin="round"/>
</svg>
