<svg width="24" height="24" viewBox="0 0 24 24" fill="none" xmlns="http://www.w3.org/2000/svg">
<path fill-rule="evenodd" clip-rule="evenodd" d="M14 3C13.4477 3 13 3.44772 13 4V9C13 9.55228 13.4477 10 14 10C14.5523 10 15 9.55228 15 9V4C15 3.44772 14.5523 3 14 3ZM10 14C9.44772 14 9 14.4477 9 15V20C9 20.5523 9.44772 21 10 21C10.5523 21 11 20.5523 11 20V15C11 14.4477 10.5523 14 10 14ZM14 14C14 13.4477 14.4477 13 15 13H20C20.5523 13 21 13.4477 21 14C21 14.5523 20.5523 15 20 15H15C14.4477 15 14 14.5523 14 14ZM4 9C3.44772 9 3 9.44772 3 10C3 10.5523 3.44772 11 4 11H9C9.55228 11 10 10.5523 10 10C10 9.44772 9.55228 9 9 9H4ZM19 10H18V9C18 8.44667 18.4467 8 19 8C19.5533 8 20 8.44667 20 9C20 9.55333 19.5533 10 19 10ZM6 14H5C4.44667 14 4 14.4467 4 15C4 15.5533 4.44667 16 5 16C5.55333 16 6 15.5533 6 15V14ZM15 18H14V19C14 19.5533 14.4467 20 15 20C15.5533 20 16 19.5533 16 19C16 18.4467 15.5533 18 15 18ZM10 6H9C8.44667 6 8 5.55333 8 5C8 4.44667 8.44667 4 9 4C9.55333 4 10 4.44667 10 5V6Z" fill="black" fill-opacity="0.1"/>
<path fill-rule="evenodd" clip-rule="evenodd" d="M16 9V4C16 2.89543 15.1046 2 14 2C12.8954 2 12 2.89543 12 4V9C12 10.1046 12.8954 11 14 11C15.1046 11 16 10.1046 16 9ZM13 4C13 3.44772 13.4477 3 14 3C14.5523 3 15 3.44772 15 4V9C15 9.55228 14.5523 10 14 10C13.4477 10 13 9.55228 13 9V4ZM12 20V15C12 13.8954 11.1046 13 10 13C8.89543 13 8 13.8954 8 15V20C8 21.1046 8.89543 22 10 22C11.1046 22 12 21.1046 12 20ZM9 15C9 14.4477 9.44772 14 10 14C10.5523 14 11 14.4477 11 15V20C11 20.5523 10.5523 21 10 21C9.44772 21 9 20.5523 9 20V15ZM15 12H20C21.1046 12 22 12.8954 22 14C22 15.1046 21.1046 16 20 16H15C13.8954 16 13 15.1046 13 14C13 12.8954 13.8954 12 15 12ZM15 13C14.4477 13 14 13.4477 14 14C14 14.5523 14.4477 15 15 15H20C20.5523 15 21 14.5523 21 14C21 13.4477 20.5523 13 20 13H15ZM9 8H4C2.89543 8 2 8.89543 2 10C2 11.1046 2.89543 12 4 12H9C10.1046 12 11 11.1046 11 10C11 8.89543 10.1046 8 9 8ZM3 10C3 9.44772 3.44772 9 4 9H9C9.55228 9 10 9.44772 10 10C10 10.5523 9.55228 11 9 11H4C3.44772 11 3 10.5523 3 10ZM18 11C17.4477 11 17 10.5523 17 10V9C17 7.89438 17.8944 7 19 7C20.1056 7 21 7.89438 21 9C21 10.1056 20.1056 11 19 11H18ZM18 10H19C19.5533 10 20 9.55333 20 9C20 8.44667 19.5533 8 19 8C18.4467 8 18 8.44667 18 9V10ZM7 14C7 13.4477 6.55228 13 6 13H5C3.89438 13 3 13.8944 3 15C3 16.1056 3.89438 17 5 17C6.10562 17 7 16.1056 7 15V14ZM5 14H6V15C6 15.5533 5.55333 16 5 16C4.44667 16 4 15.5533 4 15C4 14.4467 4.44667 14 5 14ZM13 18C13 17.4477 13.4477 17 14 17H15C16.1056 17 17 17.8944 17 19C17 20.1056 16.1056 21 15 21C13.8944 21 13 20.1056 13 19V18ZM14 18H15C15.5533 18 16 18.4467 16 19C16 19.5533 15.5533 20 15 20C14.4467 20 14 19.5533 14 19V18ZM10 7C10.5523 7 11 6.55228 11 6V5C11 3.89438 10.1056 3 9 3C7.89438 3 7 3.89438 7 5C7 6.10562 7.89438 7 9 7H10ZM9 6H10V5C10 4.44667 9.55333 4 9 4C8.44667 4 8 4.44667 8 5C8 5.55333 8.44667 6 9 6Z" fill="black"/>
</svg>
