<svg width="24" height="24" viewBox="0 0 24 24" fill="none" xmlns="http://www.w3.org/2000/svg">
<path d="M14.424 11C14.424 11 16.511 11 17.898 11C18.195 11 18.477 11.132 18.667 11.361C18.857 11.59 18.935 11.892 18.88 12.184C18.532 14.04 17.867 17.587 17.568 19.184C17.479 19.657 17.066 20 16.585 20C14.36 20 8.25298 20 5.61798 20C5.31598 20 5.03098 19.864 4.84098 19.629C4.65098 19.394 4.57698 19.086 4.64098 18.79C5.27598 15.825 6.89798 8.25699 7.42598 5.79C7.52498 5.329 7.93298 5 8.40398 5C9.50298 5 11.458 5 12.576 5C13.065 5 13.482 5.353 13.563 5.836C13.838 7.485 14.424 11 14.424 11ZM8.40398 6L5.61798 19H16.585L17.898 12C17.898 12 15.682 12 14.424 12C13.935 12 13.517 11.647 13.437 11.164C13.162 9.51499 12.576 6 12.576 6H8.40398Z" fill="#333333"/>
</svg>
