<svg width="24" height="24" viewBox="0 0 24 24" fill="none" xmlns="http://www.w3.org/2000/svg">
<path d="M7 10H3V21H7V10Z" fill="black" fill-opacity="0.1"/>
<path d="M5 7C6.10457 7 7 6.10457 7 5C7 3.89543 6.10457 3 5 3C3.89543 3 3 3.89543 3 5C3 6.10457 3.89543 7 5 7Z" fill="black" fill-opacity="0.1"/>
<path fill-rule="evenodd" clip-rule="evenodd" d="M15.5 8C12.4624 8 10 10.4624 10 13.5V21H14V20V18.793V13.5C14 12.6716 14.6716 12 15.5 12C16.3284 12 17 12.6716 17 13.5V18.793V20V21H21V13.5C21 10.4624 18.5376 8 15.5 8Z" fill="black" fill-opacity="0.1"/>
<path d="M3 9.5C2.72386 9.5 2.5 9.72386 2.5 10V21C2.5 21.2761 2.72386 21.5 3 21.5H7C7.27614 21.5 7.5 21.2761 7.5 21V10C7.5 9.72386 7.27614 9.5 7 9.5H3Z" stroke="black" stroke-linecap="round" stroke-linejoin="round"/>
<path d="M5 7.5C6.38071 7.5 7.5 6.38071 7.5 5C7.5 3.61929 6.38071 2.5 5 2.5C3.61929 2.5 2.5 3.61929 2.5 5C2.5 6.38071 3.61929 7.5 5 7.5Z" stroke="black" stroke-linecap="round" stroke-linejoin="round"/>
<mask id="path-6-outside-1_1906_872" maskUnits="userSpaceOnUse" x="9" y="7" width="13" height="15" fill="black">
<rect fill="white" x="9" y="7" width="13" height="15"/>
<path fill-rule="evenodd" clip-rule="evenodd" d="M15.5 8C12.4624 8 10 10.4624 10 13.5V21H14V20V18.793V13.5C14 12.6716 14.6716 12 15.5 12C16.3284 12 17 12.6716 17 13.5V18.793V20V21H21V13.5C21 10.4624 18.5376 8 15.5 8Z"/>
</mask>
<path d="M10 21H9C9 21.5523 9.44772 22 10 22V21ZM14 21V22C14.5523 22 15 21.5523 15 21H14ZM17 21H16C16 21.5523 16.4477 22 17 22V21ZM21 21V22C21.5523 22 22 21.5523 22 21H21ZM11 13.5C11 11.0147 13.0147 9 15.5 9V7C11.9101 7 9 9.91015 9 13.5H11ZM11 21V13.5H9V21H11ZM14 20H10V22H14V20ZM13 20V21H15V20H13ZM13 18.793V20H15V18.793H13ZM13 13.5V18.793H15V13.5H13ZM15.5 11C14.1193 11 13 12.1193 13 13.5H15C15 13.2239 15.2239 13 15.5 13V11ZM18 13.5C18 12.1193 16.8807 11 15.5 11V13C15.7761 13 16 13.2239 16 13.5H18ZM18 18.793V13.5H16V18.793H18ZM18 20V18.793H16V20H18ZM18 21V20H16V21H18ZM21 20H17V22H21V20ZM20 13.5V21H22V13.5H20ZM15.5 9C17.9853 9 20 11.0147 20 13.5H22C22 9.91015 19.0899 7 15.5 7V9Z" fill="black" mask="url(#path-6-outside-1_1906_872)"/>
</svg>
