<svg width="24" height="24" viewBox="0 0 24 24" fill="none" xmlns="http://www.w3.org/2000/svg">
<path d="M9.37073 20.2762C9.37073 20.5523 9.59459 20.7762 9.87073 20.7762C10.1469 20.7762 10.3707 20.5523 10.3707 20.2762H9.37073ZM4.97876 16.5005C4.70287 16.5122 4.48872 16.7453 4.50045 17.0212C4.51218 17.2971 4.74534 17.5113 5.02124 17.4995L4.97876 16.5005ZM10.5457 15.5598L10.9605 15.8391C11.058 15.6943 11.0729 15.5091 10.9999 15.3506C10.9268 15.1921 10.7764 15.0831 10.603 15.0631L10.5457 15.5598ZM7.02073 7.74195L7.39455 8.074C7.51926 7.9336 7.55479 7.73517 7.48654 7.56022L7.02073 7.74195ZM7.12073 5.02492L6.96776 4.5489C6.82451 4.59493 6.70961 4.70302 6.65492 4.84319L7.12073 5.02492ZM9.87073 6.07585L9.5867 6.48734C9.7101 6.57251 9.8652 6.59781 10.0093 6.55627L9.87073 6.07585ZM14.8707 6.07585L14.7322 6.55627C14.877 6.59803 15.033 6.57224 15.1566 6.48605L14.8707 6.07585ZM17.6207 5.02492L18.0865 4.84319C18.0327 4.70528 17.9206 4.59829 17.7803 4.55105L17.6207 5.02492ZM17.7207 7.74195L17.2549 7.56022C17.1867 7.73517 17.2222 7.9336 17.3469 8.074L17.7207 7.74195ZM14.1832 15.5598L14.126 15.0631C13.9299 15.0857 13.7654 15.2216 13.7062 15.4099C13.647 15.5982 13.7042 15.8037 13.8521 15.9345L14.1832 15.5598ZM14.3457 20.2762C14.3457 20.5523 14.5696 20.7762 14.8457 20.7762C15.1219 20.7762 15.3457 20.5523 15.3457 20.2762H14.3457ZM10.3707 20.2762C10.3707 20.2757 10.3707 20.2752 10.3707 20.2747C10.3707 20.2742 10.3707 20.2738 10.3707 20.2733C10.3707 20.2728 10.3707 20.2723 10.3707 20.2718C10.3707 20.2713 10.3707 20.2708 10.3707 20.2702C10.3707 20.2697 10.3707 20.2692 10.3707 20.2687C10.3707 20.2682 10.3707 20.2676 10.3707 20.2671C10.3707 20.2666 10.3707 20.2661 10.3707 20.2655C10.3707 20.265 10.3707 20.2644 10.3707 20.2639C10.3707 20.2633 10.3707 20.2628 10.3707 20.2622C10.3707 20.2617 10.3707 20.2611 10.3707 20.2605C10.3707 20.26 10.3707 20.2594 10.3707 20.2588C10.3707 20.2583 10.3707 20.2577 10.3707 20.2571C10.3707 20.2565 10.3707 20.2559 10.3707 20.2553C10.3707 20.2547 10.3707 20.2541 10.3707 20.2535C10.3707 20.2529 10.3707 20.2523 10.3707 20.2517C10.3707 20.2511 10.3707 20.2505 10.3707 20.2499C10.3707 20.2493 10.3707 20.2486 10.3707 20.248C10.3707 20.2474 10.3707 20.2468 10.3707 20.2461C10.3707 20.2455 10.3707 20.2448 10.3707 20.2442C10.3707 20.2436 10.3707 20.2429 10.3707 20.2423C10.3707 20.2416 10.3707 20.2409 10.3707 20.2403C10.3707 20.2396 10.3707 20.239 10.3707 20.2383C10.3707 20.2376 10.3707 20.2369 10.3707 20.2363C10.3707 20.2356 10.3707 20.2349 10.3707 20.2342C10.3707 20.2335 10.3707 20.2328 10.3707 20.2321C10.3707 20.2314 10.3707 20.2307 10.3707 20.23C10.3707 20.2293 10.3707 20.2286 10.3707 20.2279C10.3707 20.2272 10.3707 20.2265 10.3707 20.2258C10.3707 20.225 10.3707 20.2243 10.3707 20.2236C10.3707 20.2229 10.3707 20.2221 10.3707 20.2214C10.3707 20.2207 10.3707 20.2199 10.3707 20.2192C10.3707 20.2184 10.3707 20.2177 10.3707 20.2169C10.3707 20.2162 10.3707 20.2154 10.3707 20.2146C10.3707 20.2139 10.3707 20.2131 10.3707 20.2123C10.3707 20.2116 10.3707 20.2108 10.3707 20.21C10.3707 20.2092 10.3707 20.2085 10.3707 20.2077C10.3707 20.2069 10.3707 20.2061 10.3707 20.2053C10.3707 20.2045 10.3707 20.2037 10.3707 20.2029C10.3707 20.2021 10.3707 20.2013 10.3707 20.2005C10.3707 20.1997 10.3707 20.1988 10.3707 20.198C10.3707 20.1972 10.3707 20.1964 10.3707 20.1956C10.3707 20.1947 10.3707 20.1939 10.3707 20.1931C10.3707 20.1922 10.3707 20.1914 10.3707 20.1905C10.3707 20.1897 10.3707 20.1888 10.3707 20.188C10.3707 20.1871 10.3707 20.1863 10.3707 20.1854C10.3707 20.1846 10.3707 20.1837 10.3707 20.1828C10.3707 20.182 10.3707 20.1811 10.3707 20.1802C10.3707 20.1793 10.3707 20.1785 10.3707 20.1776C10.3707 20.1767 10.3707 20.1758 10.3707 20.1749C10.3707 20.174 10.3707 20.1731 10.3707 20.1722C10.3707 20.1713 10.3707 20.1704 10.3707 20.1695C10.3707 20.1686 10.3707 20.1677 10.3707 20.1668C10.3707 20.1659 10.3707 20.165 10.3707 20.164C10.3707 20.1631 10.3707 20.1622 10.3707 20.1613C10.3707 20.1603 10.3707 20.1594 10.3707 20.1585C10.3707 20.1575 10.3707 20.1566 10.3707 20.1556C10.3707 20.1547 10.3707 20.1537 10.3707 20.1528C10.3707 20.1518 10.3707 20.1509 10.3707 20.1499C10.3707 20.149 10.3707 20.148 10.3707 20.147C10.3707 20.1461 10.3707 20.1451 10.3707 20.1441C10.3707 20.1431 10.3707 20.1421 10.3707 20.1412C10.3707 20.1402 10.3707 20.1392 10.3707 20.1382C10.3707 20.1372 10.3707 20.1362 10.3707 20.1352C10.3707 20.1342 10.3707 20.1332 10.3707 20.1322C10.3707 20.1312 10.3707 20.1302 10.3707 20.1292C10.3707 20.1282 10.3707 20.1272 10.3707 20.1261C10.3707 20.1251 10.3707 20.1241 10.3707 20.1231C10.3707 20.122 10.3707 20.121 10.3707 20.12C10.3707 20.1189 10.3707 20.1179 10.3707 20.1169C10.3707 20.1158 10.3707 20.1148 10.3707 20.1137C10.3707 20.1127 10.3707 20.1116 10.3707 20.1106C10.3707 20.1095 10.3707 20.1084 10.3707 20.1074C10.3707 20.1063 10.3707 20.1052 10.3707 20.1042C10.3707 20.1031 10.3707 20.102 10.3707 20.1009C10.3707 20.0999 10.3707 20.0988 10.3707 20.0977C10.3707 20.0966 10.3707 20.0955 10.3707 20.0944C10.3707 20.0933 10.3707 20.0922 10.3707 20.0911C10.3707 20.09 10.3707 20.0889 10.3707 20.0878C10.3707 20.0867 10.3707 20.0856 10.3707 20.0845C10.3707 20.0834 10.3707 20.0823 10.3707 20.0811C10.3707 20.08 10.3707 20.0789 10.3707 20.0778C10.3707 20.0766 10.3707 20.0755 10.3707 20.0744C10.3707 20.0732 10.3707 20.0721 10.3707 20.0709C10.3707 20.0698 10.3707 20.0687 10.3707 20.0675C10.3707 20.0664 10.3707 20.0652 10.3707 20.0641C10.3707 20.0629 10.3707 20.0617 10.3707 20.0606C10.3707 20.0594 10.3707 20.0582 10.3707 20.0571C10.3707 20.0559 10.3707 20.0547 10.3707 20.0536C10.3707 20.0524 10.3707 20.0512 10.3707 20.05C10.3707 20.0488 10.3707 20.0476 10.3707 20.0465C10.3707 20.0453 10.3707 20.0441 10.3707 20.0429C10.3707 20.0417 10.3707 20.0405 10.3707 20.0393C10.3707 20.0381 10.3707 20.0369 10.3707 20.0357C10.3707 20.0344 10.3707 20.0332 10.3707 20.032C10.3707 20.0308 10.3707 20.0296 10.3707 20.0284C10.3707 20.0271 10.3707 20.0259 10.3707 20.0247C10.3707 20.0234 10.3707 20.0222 10.3707 20.021C10.3707 20.0197 10.3707 20.0185 10.3707 20.0173C10.3707 20.016 10.3707 20.0148 10.3707 20.0135C10.3707 20.0123 10.3707 20.011 10.3707 20.0098C10.3707 20.0085 10.3707 20.0072 10.3707 20.006C10.3707 20.0047 10.3707 20.0034 10.3707 20.0022C10.3707 20.0009 10.3707 19.9996 10.3707 19.9984C10.3707 19.9971 10.3707 19.9958 10.3707 19.9945C10.3707 19.9932 10.3707 19.992 10.3707 19.9907C10.3707 19.9894 10.3707 19.9881 10.3707 19.9868C10.3707 19.9855 10.3707 19.9842 10.3707 19.9829C10.3707 19.9816 10.3707 19.9803 10.3707 19.979C10.3707 19.9777 10.3707 19.9764 10.3707 19.9751C10.3707 19.9737 10.3707 19.9724 10.3707 19.9711C10.3707 19.9698 10.3707 19.9685 10.3707 19.9671C10.3707 19.9658 10.3707 19.9645 10.3707 19.9631C10.3707 19.9618 10.3707 19.9605 10.3707 19.9591C10.3707 19.9578 10.3707 19.9565 10.3707 19.9551C10.3707 19.9538 10.3707 19.9524 10.3707 19.9511C10.3707 19.9497 10.3707 19.9484 10.3707 19.947C10.3707 19.9457 10.3707 19.9443 10.3707 19.9429C10.3707 19.9416 10.3707 19.9402 10.3707 19.9388C10.3707 19.9375 10.3707 19.9361 10.3707 19.9347C10.3707 19.9333 10.3707 19.932 10.3707 19.9306C10.3707 19.9292 10.3707 19.9278 10.3707 19.9264C10.3707 19.9251 10.3707 19.9237 10.3707 19.9223C10.3707 19.9209 10.3707 19.9195 10.3707 19.9181C10.3707 19.9167 10.3707 19.9153 10.3707 19.9139C10.3707 19.9125 10.3707 19.9111 10.3707 19.9097C10.3707 19.9082 10.3707 19.9068 10.3707 19.9054C10.3707 19.904 10.3707 19.9026 10.3707 19.9012C10.3707 19.8997 10.3707 19.8983 10.3707 19.8969C10.3707 19.8955 10.3707 19.894 10.3707 19.8926C10.3707 19.8912 10.3707 19.8897 10.3707 19.8883C10.3707 19.8869 10.3707 19.8854 10.3707 19.884C10.3707 19.8825 10.3707 19.8811 10.3707 19.8796C10.3707 19.8782 10.3707 19.8767 10.3707 19.8753C10.3707 19.8738 10.3707 19.8724 10.3707 19.8709C10.3707 19.8694 10.3707 19.868 10.3707 19.8665C10.3707 19.865 10.3707 19.8636 10.3707 19.8621C10.3707 19.8606 10.3707 19.8591 10.3707 19.8577C10.3707 19.8562 10.3707 19.8547 10.3707 19.8532C10.3707 19.8517 10.3707 19.8503 10.3707 19.8488C10.3707 19.8473 10.3707 19.8458 10.3707 19.8443C10.3707 19.8428 10.3707 19.8413 10.3707 19.8398C10.3707 19.8383 10.3707 19.8368 10.3707 19.8353C10.3707 19.8338 10.3707 19.8323 10.3707 19.8308C10.3707 19.8293 10.3707 19.8277 10.3707 19.8262C10.3707 19.8247 10.3707 19.8232 10.3707 19.8217C10.3707 19.8201 10.3707 19.8186 10.3707 19.8171C10.3707 19.8156 10.3707 19.814 10.3707 19.8125C10.3707 19.811 10.3707 19.8094 10.3707 19.8079C10.3707 19.8064 10.3707 19.8048 10.3707 19.8033C10.3707 19.8017 10.3707 19.8002 10.3707 19.7987C10.3707 19.7971 10.3707 19.7956 10.3707 19.794C10.3707 19.7925 10.3707 19.7909 10.3707 19.7893C10.3707 19.7878 10.3707 19.7862 10.3707 19.7847C10.3707 19.7831 10.3707 19.7815 10.3707 19.78C10.3707 19.7784 10.3707 19.7768 10.3707 19.7753C10.3707 19.7737 10.3707 19.7721 10.3707 19.7705C10.3707 19.769 10.3707 19.7674 10.3707 19.7658C10.3707 19.7642 10.3707 19.7626 10.3707 19.761C10.3707 19.7594 10.3707 19.7579 10.3707 19.7563C10.3707 19.7547 10.3707 19.7531 10.3707 19.7515C10.3707 19.7499 10.3707 19.7483 10.3707 19.7467C10.3707 19.7451 10.3707 19.7435 10.3707 19.7419C10.3707 19.7403 10.3707 19.7386 10.3707 19.737C10.3707 19.7354 10.3707 19.7338 10.3707 19.7322C10.3707 19.7306 10.3707 19.729 10.3707 19.7273C10.3707 19.7257 10.3707 19.7241 10.3707 19.7225C10.3707 19.7208 10.3707 19.7192 10.3707 19.7176C10.3707 19.7159 10.3707 19.7143 10.3707 19.7127C10.3707 19.711 10.3707 19.7094 10.3707 19.7078C10.3707 19.7061 10.3707 19.7045 10.3707 19.7028C10.3707 19.7012 10.3707 19.6995 10.3707 19.6979C10.3707 19.6962 10.3707 19.6946 10.3707 19.6929C10.3707 19.6913 10.3707 19.6896 10.3707 19.688C10.3707 19.6863 10.3707 19.6846 10.3707 19.683C10.3707 19.6813 10.3707 19.6797 10.3707 19.678C10.3707 19.6763 10.3707 19.6746 10.3707 19.673C10.3707 19.6713 10.3707 19.6696 10.3707 19.6679C10.3707 19.6663 10.3707 19.6646 10.3707 19.6629C10.3707 19.6612 10.3707 19.6595 10.3707 19.6579C10.3707 19.6562 10.3707 19.6545 10.3707 19.6528C10.3707 19.6511 10.3707 19.6494 10.3707 19.6477C10.3707 19.646 10.3707 19.6443 10.3707 19.6426C10.3707 19.6409 10.3707 19.6392 10.3707 19.6375C10.3707 19.6358 10.3707 19.6341 10.3707 19.6324C10.3707 19.6307 10.3707 19.629 10.3707 19.6273C10.3707 19.6256 10.3707 19.6239 10.3707 19.6221C10.3707 19.6204 10.3707 19.6187 10.3707 19.617C10.3707 19.6153 10.3707 19.6135 10.3707 19.6118C10.3707 19.6101 10.3707 19.6084 10.3707 19.6066C10.3707 19.6049 10.3707 19.6032 10.3707 19.6015C10.3707 19.5997 10.3707 19.598 10.3707 19.5963C10.3707 19.5945 10.3707 19.5928 10.3707 19.591C10.3707 19.5893 10.3707 19.5876 10.3707 19.5858C10.3707 19.5841 10.3707 19.5823 10.3707 19.5806C10.3707 19.5788 10.3707 19.5771 10.3707 19.5753C10.3707 19.5736 10.3707 19.5718 10.3707 19.5701C10.3707 19.5683 10.3707 19.5665 10.3707 19.5648C10.3707 19.563 10.3707 19.5613 10.3707 19.5595C10.3707 19.5577 10.3707 19.556 10.3707 19.5542C10.3707 19.5524 10.3707 19.5507 10.3707 19.5489C10.3707 19.5471 10.3707 19.5453 10.3707 19.5436C10.3707 19.5418 10.3707 19.54 10.3707 19.5382C10.3707 19.5365 10.3707 19.5347 10.3707 19.5329C10.3707 19.5311 10.3707 19.5293 10.3707 19.5275C10.3707 19.5257 10.3707 19.524 10.3707 19.5222C10.3707 19.5204 10.3707 19.5186 10.3707 19.5168C10.3707 19.515 10.3707 19.5132 10.3707 19.5114C10.3707 19.5096 10.3707 19.5078 10.3707 19.506C10.3707 19.5042 10.3707 19.5024 10.3707 19.5006C10.3707 19.4988 10.3707 19.497 10.3707 19.4952C10.3707 19.4934 10.3707 19.4915 10.3707 19.4897C10.3707 19.4879 10.3707 19.4861 10.3707 19.4843C10.3707 19.4825 10.3707 19.4807 10.3707 19.4788C10.3707 19.477 10.3707 19.4752 10.3707 19.4734C10.3707 19.4716 10.3707 19.4697 10.3707 19.4679C10.3707 19.4661 10.3707 19.4642 10.3707 19.4624C10.3707 19.4606 10.3707 19.4588 10.3707 19.4569C10.3707 19.4551 10.3707 19.4533 10.3707 19.4514C10.3707 19.4496 10.3707 19.4477 10.3707 19.4459C10.3707 19.4441 10.3707 19.4422 10.3707 19.4404C10.3707 19.4385 10.3707 19.4367 10.3707 19.4348C10.3707 19.433 10.3707 19.4311 10.3707 19.4293C10.3707 19.4274 10.3707 19.4256 10.3707 19.4237C10.3707 19.4219 10.3707 19.42 10.3707 19.4182C10.3707 19.4163 10.3707 19.4145 10.3707 19.4126C10.3707 19.4107 10.3707 19.4089 10.3707 19.407C10.3707 19.4052 10.3707 19.4033 10.3707 19.4014C10.3707 19.3996 10.3707 19.3977 10.3707 19.3958C10.3707 19.394 10.3707 19.3921 10.3707 19.3902C10.3707 19.3883 10.3707 19.3865 10.3707 19.3846C10.3707 19.3827 10.3707 19.3808 10.3707 19.379C10.3707 19.3771 10.3707 19.3752 10.3707 19.3733C10.3707 19.3714 10.3707 19.3696 10.3707 19.3677C10.3707 19.3658 10.3707 19.3639 10.3707 19.362C10.3707 19.3601 10.3707 19.3582 10.3707 19.3564C10.3707 19.3545 10.3707 19.3526 10.3707 19.3507C10.3707 19.3488 10.3707 19.3469 10.3707 19.345C10.3707 19.3431 10.3707 19.3412 10.3707 19.3393C10.3707 19.3374 10.3707 19.3355 10.3707 19.3336C10.3707 19.3317 10.3707 19.3298 10.3707 19.3279C10.3707 19.326 10.3707 19.3241 10.3707 19.3222C10.3707 19.3203 10.3707 19.3184 10.3707 19.3165C10.3707 19.3146 10.3707 19.3126 10.3707 19.3107C10.3707 19.3088 10.3707 19.3069 10.3707 19.305C10.3707 19.3031 10.3707 19.3012 10.3707 19.2992C10.3707 19.2973 10.3707 19.2954 10.3707 19.2935C10.3707 19.2916 10.3707 19.2896 10.3707 19.2877C10.3707 19.2858 10.3707 19.2839 10.3707 19.2819C10.3707 19.28 10.3707 19.2781 10.3707 19.2762C10.3707 19.2742 10.3707 19.2723 10.3707 19.2704C10.3707 19.2685 10.3707 19.2665 10.3707 19.2646C10.3707 19.2627 10.3707 19.2607 10.3707 19.2588C10.3707 19.2569 10.3707 19.2549 10.3707 19.253C10.3707 19.251 10.3707 19.2491 10.3707 19.2472C10.3707 19.2452 10.3707 19.2433 10.3707 19.2413C10.3707 19.2394 10.3707 19.2374 10.3707 19.2355C10.3707 19.2336 10.3707 19.2316 10.3707 19.2297C10.3707 19.2277 10.3707 19.2258 10.3707 19.2238C10.3707 19.2219 10.3707 19.2199 10.3707 19.218C10.3707 19.216 10.3707 19.2141 10.3707 19.2121C10.3707 19.2102 10.3707 19.2082 10.3707 19.2062C10.3707 19.2043 10.3707 19.2023 10.3707 19.2004C10.3707 19.1984 10.3707 19.1965 10.3707 19.1945C10.3707 19.1925 10.3707 19.1906 10.3707 19.1886C10.3707 19.1866 10.3707 19.1847 10.3707 19.1827C10.3707 19.1807 10.3707 19.1788 10.3707 19.1768C10.3707 19.1748 10.3707 19.1729 10.3707 19.1709C10.3707 19.1689 10.3707 19.167 10.3707 19.165C10.3707 19.163 10.3707 19.1611 10.3707 19.1591C10.3707 19.1571 10.3707 19.1551 10.3707 19.1532C10.3707 19.1512 10.3707 19.1492 10.3707 19.1472C10.3707 19.1453 10.3707 19.1433 10.3707 19.1413C10.3707 19.1393 10.3707 19.1373 10.3707 19.1354C10.3707 19.1334 10.3707 19.1314 10.3707 19.1294C10.3707 19.1274 10.3707 19.1254 10.3707 19.1235C10.3707 19.1215 10.3707 19.1195 10.3707 19.1175C10.3707 19.1155 10.3707 19.1135 10.3707 19.1115C10.3707 19.1096 10.3707 19.1076 10.3707 19.1056C10.3707 19.1036 10.3707 19.1016 10.3707 19.0996C10.3707 19.0976 10.3707 19.0956 10.3707 19.0936C10.3707 19.0916 10.3707 19.0896 10.3707 19.0876C10.3707 19.0856 10.3707 19.0836 10.3707 19.0817C10.3707 19.0797 10.3707 19.0777 10.3707 19.0757C10.3707 19.0737 10.3707 19.0717 10.3707 19.0697C10.3707 19.0677 10.3707 19.0657 10.3707 19.0637C10.3707 19.0617 10.3707 19.0597 10.3707 19.0576C10.3707 19.0556 10.3707 19.0536 10.3707 19.0516C10.3707 19.0496 10.3707 19.0476 10.3707 19.0456C10.3707 19.0436 10.3707 19.0416 10.3707 19.0396C10.3707 19.0376 10.3707 19.0356 10.3707 19.0336C10.3707 19.0316 10.3707 19.0296 10.3707 19.0275C10.3707 19.0255 10.3707 19.0235 10.3707 19.0215C10.3707 19.0195 10.3707 19.0175 10.3707 19.0155C10.3707 19.0135 10.3707 19.0114 10.3707 19.0094C10.3707 19.0074 10.3707 19.0054 10.3707 19.0034C10.3707 19.0014 10.3707 18.9993 10.3707 18.9973C10.3707 18.9953 10.3707 18.9933 10.3707 18.9913C10.3707 18.9893 10.3707 18.9872 10.3707 18.9852C10.3707 18.9832 10.3707 18.9812 10.3707 18.9792C10.3707 18.9771 10.3707 18.9751 10.3707 18.9731C10.3707 18.9711 10.3707 18.969 10.3707 18.967C10.3707 18.965 10.3707 18.963 10.3707 18.9609C10.3707 18.9589 10.3707 18.9569 10.3707 18.9549C10.3707 18.9528 10.3707 18.9508 10.3707 18.9488C10.3707 18.9468 10.3707 18.9447 10.3707 18.9427C10.3707 18.9407 10.3707 18.9386 10.3707 18.9366C10.3707 18.9346 10.3707 18.9326 10.3707 18.9305C10.3707 18.9285 10.3707 18.9265 10.3707 18.9244C10.3707 18.9224 10.3707 18.9204 10.3707 18.9183C10.3707 18.9163 10.3707 18.9143 10.3707 18.9122C10.3707 18.9102 10.3707 18.9082 10.3707 18.9061C10.3707 18.9041 10.3707 18.9021 10.3707 18.9C10.3707 18.898 10.3707 18.896 10.3707 18.8939C10.3707 18.8919 10.3707 18.8899 10.3707 18.8878C10.3707 18.8858 10.3707 18.8838 10.3707 18.8817C10.3707 18.8797 10.3707 18.8776 10.3707 18.8756C10.3707 18.8736 10.3707 18.8715 10.3707 18.8695C10.3707 18.8675 10.3707 18.8654 10.3707 18.8634C10.3707 18.8613 10.3707 18.8593 10.3707 18.8573C10.3707 18.8552 10.3707 18.8532 10.3707 18.8511C10.3707 18.8491 10.3707 18.8471 10.3707 18.845C10.3707 18.843 10.3707 18.8409 10.3707 18.8389C10.3707 18.8368 10.3707 18.8348 10.3707 18.8328C10.3707 18.8307 10.3707 18.8287 10.3707 18.8266C10.3707 18.8246 10.3707 18.8225 10.3707 18.8205C10.3707 18.8185 10.3707 18.8164 10.3707 18.8144C10.3707 18.8123 10.3707 18.8103 10.3707 18.8082C10.3707 18.8062 10.3707 18.8041 10.3707 18.8021C10.3707 18.8001 10.3707 18.798 10.3707 18.796C10.3707 18.7939 10.3707 18.7919 10.3707 18.7898C10.3707 18.7878 10.3707 18.7857 10.3707 18.7837C10.3707 18.7816 10.3707 18.7796 10.3707 18.7775C10.3707 18.7755 10.3707 18.7735 10.3707 18.7714C10.3707 18.7694 10.3707 18.7673 10.3707 18.7653C10.3707 18.7632 10.3707 18.7612 10.3707 18.7591C10.3707 18.7571 10.3707 18.755 10.3707 18.753C10.3707 18.7509 10.3707 18.7489 10.3707 18.7468C10.3707 18.7448 10.3707 18.7427 10.3707 18.7407C10.3707 18.7386 10.3707 18.7366 10.3707 18.7345C10.3707 18.7325 10.3707 18.7304 10.3707 18.7284C10.3707 18.7263 10.3707 18.7243 10.3707 18.7223C10.3707 18.7202 10.3707 18.7182 10.3707 18.7161C10.3707 18.7141 10.3707 18.712 10.3707 18.71C10.3707 18.7079 10.3707 18.7059 10.3707 18.7038C10.3707 18.7018 10.3707 18.6997 10.3707 18.6977C10.3707 18.6956 10.3707 18.6936 10.3707 18.6915C10.3707 18.6895 10.3707 18.6874 10.3707 18.6854C10.3707 18.6833 10.3707 18.6813 10.3707 18.6792C10.3707 18.6772 10.3707 18.6751 10.3707 18.6731C10.3707 18.671 10.3707 18.669 10.3707 18.6669C10.3707 18.6649 10.3707 18.6628 10.3707 18.6608C10.3707 18.6587 10.3707 18.6567 10.3707 18.6546C10.3707 18.6526 10.3707 18.6506 10.3707 18.6485C10.3707 18.6465 10.3707 18.6444 10.3707 18.6424C10.3707 18.6403 10.3707 18.6383 10.3707 18.6362C10.3707 18.6342 10.3707 18.6321 10.3707 18.6301C10.3707 18.628 10.3707 18.626 10.3707 18.6239C10.3707 18.6219 10.3707 18.6198 10.3707 18.6178C10.3707 18.6157 10.3707 18.6137 10.3707 18.6117C10.3707 18.6096 10.3707 18.6076 10.3707 18.6055C10.3707 18.6035 10.3707 18.6014 10.3707 18.5994C10.3707 18.5973 10.3707 18.5953 10.3707 18.5932C10.3707 18.5912 10.3707 18.5892 10.3707 18.5871C10.3707 18.5851 10.3707 18.583 10.3707 18.581C10.3707 18.5789 10.3707 18.5769 10.3707 18.5749C10.3707 18.5728 10.3707 18.5708 10.3707 18.5687C10.3707 18.5667 10.3707 18.5646 10.3707 18.5626C10.3707 18.5606 10.3707 18.5585 10.3707 18.5565C10.3707 18.5544 10.3707 18.5524 10.3707 18.5503C10.3707 18.5483 10.3707 18.5463 10.3707 18.5442C10.3707 18.5422 10.3707 18.5401 10.3707 18.5381C10.3707 18.5361 10.3707 18.534 10.3707 18.532C10.3707 18.5299 10.3707 18.5279 10.3707 18.5259C10.3707 18.5238 10.3707 18.5218 10.3707 18.5198C10.3707 18.5177 10.3707 18.5157 10.3707 18.5136C10.3707 18.5116 10.3707 18.5096 10.3707 18.5075C10.3707 18.5055 10.3707 18.5035 10.3707 18.5014C10.3707 18.4994 10.3707 18.4974 10.3707 18.4953C10.3707 18.4933 10.3707 18.4913 10.3707 18.4892C10.3707 18.4872 10.3707 18.4852 10.3707 18.4831C10.3707 18.4811 10.3707 18.4791 10.3707 18.477C10.3707 18.475 10.3707 18.473 10.3707 18.4709C10.3707 18.4689 10.3707 18.4669 10.3707 18.4649C10.3707 18.4628 10.3707 18.4608 10.3707 18.4588C10.3707 18.4567 10.3707 18.4547 10.3707 18.4527C10.3707 18.4507 10.3707 18.4486 10.3707 18.4466C10.3707 18.4446 10.3707 18.4426 10.3707 18.4405C10.3707 18.4385 10.3707 18.4365 10.3707 18.4345C10.3707 18.4324 10.3707 18.4304 10.3707 18.4284C10.3707 18.4264 10.3707 18.4243 10.3707 18.4223C10.3707 18.4203 10.3707 18.4183 10.3707 18.4163C10.3707 18.4142 10.3707 18.4122 10.3707 18.4102C10.3707 18.4082 10.3707 18.4062 10.3707 18.4041C10.3707 18.4021 10.3707 18.4001 10.3707 18.3981C10.3707 18.3961 10.3707 18.3941 10.3707 18.392C10.3707 18.39 10.3707 18.388 10.3707 18.386C10.3707 18.384 10.3707 18.382 10.3707 18.38C10.3707 18.378 10.3707 18.3759 10.3707 18.3739C10.3707 18.3719 10.3707 18.3699 10.3707 18.3679C10.3707 18.3659 10.3707 18.3639 10.3707 18.3619C10.3707 18.3599 10.3707 18.3579 10.3707 18.3559C10.3707 18.3538 10.3707 18.3518 10.3707 18.3498C10.3707 18.3478 10.3707 18.3458 10.3707 18.3438C10.3707 18.3418 10.3707 18.3398 10.3707 18.3378C10.3707 18.3358 10.3707 18.3338 10.3707 18.3318C10.3707 18.3298 10.3707 18.3278 10.3707 18.3258C10.3707 18.3238 10.3707 18.3218 10.3707 18.3198C10.3707 18.3178 10.3707 18.3158 10.3707 18.3138C10.3707 18.3118 10.3707 18.3098 10.3707 18.3078C10.3707 18.3059 10.3707 18.3039 10.3707 18.3019C10.3707 18.2999 10.3707 18.2979 10.3707 18.2959C10.3707 18.2939 10.3707 18.2919 10.3707 18.2899C10.3707 18.2879 10.3707 18.2859 10.3707 18.284C10.3707 18.282 10.3707 18.28 10.3707 18.278C10.3707 18.276 10.3707 18.274 10.3707 18.2721C10.3707 18.2701 10.3707 18.2681 10.3707 18.2661C10.3707 18.2641 10.3707 18.2621 10.3707 18.2602C10.3707 18.2582 10.3707 18.2562 10.3707 18.2542C10.3707 18.2523 10.3707 18.2503 10.3707 18.2483C10.3707 18.2463 10.3707 18.2444 10.3707 18.2424C10.3707 18.2404 10.3707 18.2384 10.3707 18.2365C10.3707 18.2345 10.3707 18.2325 10.3707 18.2306C10.3707 18.2286 10.3707 18.2266 10.3707 18.2246C10.3707 18.2227 10.3707 18.2207 10.3707 18.2187C10.3707 18.2168 10.3707 18.2148 10.3707 18.2129C10.3707 18.2109 10.3707 18.2089 10.3707 18.207C10.3707 18.205 10.3707 18.2031 10.3707 18.2011C10.3707 18.1991 10.3707 18.1972 10.3707 18.1952C10.3707 18.1933 10.3707 18.1913 10.3707 18.1894C10.3707 18.1874 10.3707 18.1854 10.3707 18.1835C10.3707 18.1815 10.3707 18.1796 10.3707 18.1776C10.3707 18.1757 10.3707 18.1737 10.3707 18.1718C10.3707 18.1698 10.3707 18.1679 10.3707 18.166C10.3707 18.164 10.3707 18.1621 10.3707 18.1601C10.3707 18.1582 10.3707 18.1562 10.3707 18.1543C10.3707 18.1524 10.3707 18.1504 10.3707 18.1485C10.3707 18.1465 10.3707 18.1446 10.3707 18.1427C10.3707 18.1407 10.3707 18.1388 10.3707 18.1369C10.3707 18.1349 10.3707 18.133 10.3707 18.1311C10.3707 18.1291 10.3707 18.1272 10.3707 18.1253C10.3707 18.1234 10.3707 18.1214 10.3707 18.1195C10.3707 18.1176 10.3707 18.1157 10.3707 18.1137C10.3707 18.1118 10.3707 18.1099 10.3707 18.108C10.3707 18.106 10.3707 18.1041 10.3707 18.1022C10.3707 18.1003 10.3707 18.0984 10.3707 18.0965C10.3707 18.0945 10.3707 18.0926 10.3707 18.0907C10.3707 18.0888 10.3707 18.0869 10.3707 18.085C10.3707 18.0831 10.3707 18.0812 10.3707 18.0793C10.3707 18.0774 10.3707 18.0755 10.3707 18.0735C10.3707 18.0716 10.3707 18.0697 10.3707 18.0678C10.3707 18.0659 10.3707 18.064 10.3707 18.0621C10.3707 18.0602 10.3707 18.0583 10.3707 18.0564C10.3707 18.0546 10.3707 18.0527 10.3707 18.0508C10.3707 18.0489 10.3707 18.047 10.3707 18.0451C10.3707 18.0432 10.3707 18.0413 10.3707 18.0394C10.3707 18.0375 10.3707 18.0357 10.3707 18.0338C10.3707 18.0319 10.3707 18.03 10.3707 18.0281C10.3707 18.0262 10.3707 18.0244 10.3707 18.0225C10.3707 18.0206 10.3707 18.0187 10.3707 18.0169C10.3707 18.015 10.3707 18.0131 10.3707 18.0112C10.3707 18.0094 10.3707 18.0075 10.3707 18.0056C10.3707 18.0037 10.3707 18.0019 10.3707 18C10.3707 17.9981 10.3707 17.9963 10.3707 17.9944C10.3707 17.9926 10.3707 17.9907 10.3707 17.9888C10.3707 17.987 10.3707 17.9851 10.3707 17.9833C10.3707 17.9814 10.3707 17.9796 10.3707 17.9777C10.3707 17.9758 10.3707 17.974 10.3707 17.9721C10.3707 17.9703 10.3707 17.9684 10.3707 17.9666C10.3707 17.9648 10.3707 17.9629 10.3707 17.9611C10.3707 17.9592 10.3707 17.9574 10.3707 17.9555C10.3707 17.9537 10.3707 17.9519 10.3707 17.95C10.3707 17.9482 10.3707 17.9464 10.3707 17.9445C10.3707 17.9427 10.3707 17.9409 10.3707 17.939C10.3707 17.9372 10.3707 17.9354 10.3707 17.9335C10.3707 17.9317 10.3707 17.9299 10.3707 17.9281C10.3707 17.9262 10.3707 17.9244 10.3707 17.9226C10.3707 17.9208 10.3707 17.919 10.3707 17.9171C10.3707 17.9153 10.3707 17.9135 10.3707 17.9117C10.3707 17.9099 10.3707 17.9081 10.3707 17.9063C10.3707 17.9045 10.3707 17.9027 10.3707 17.9008C10.3707 17.899 10.3707 17.8972 10.3707 17.8954C10.3707 17.8936 10.3707 17.8918 10.3707 17.89C10.3707 17.8882 10.3707 17.8864 10.3707 17.8846C10.3707 17.8828 10.3707 17.8811 10.3707 17.8793C10.3707 17.8775 10.3707 17.8757 10.3707 17.8739C10.3707 17.8721 10.3707 17.8703 10.3707 17.8685C10.3707 17.8668 10.3707 17.865 10.3707 17.8632C10.3707 17.8614 10.3707 17.8596 10.3707 17.8579C10.3707 17.8561 10.3707 17.8543 10.3707 17.8525C10.3707 17.8508 10.3707 17.849 10.3707 17.8472C10.3707 17.8455 10.3707 17.8437 10.3707 17.8419C10.3707 17.8402 10.3707 17.8384 10.3707 17.8366C10.3707 17.8349 10.3707 17.8331 10.3707 17.8314C10.3707 17.8296 10.3707 17.8279 10.3707 17.8261C10.3707 17.8244 10.3707 17.8226 10.3707 17.8209C10.3707 17.8191 10.3707 17.8174 10.3707 17.8156C10.3707 17.8139 10.3707 17.8121 10.3707 17.8104C10.3707 17.8086 10.3707 17.8069 10.3707 17.8052C10.3707 17.8034 10.3707 17.8017 10.3707 17.8C10.3707 17.7982 10.3707 17.7965 10.3707 17.7948C10.3707 17.793 10.3707 17.7913 10.3707 17.7896C10.3707 17.7879 10.3707 17.7861 10.3707 17.7844C10.3707 17.7827 10.3707 17.781 10.3707 17.7793C10.3707 17.7776 10.3707 17.7758 10.3707 17.7741C10.3707 17.7724 10.3707 17.7707 10.3707 17.769C10.3707 17.7673 10.3707 17.7656 10.3707 17.7639C10.3707 17.7622 10.3707 17.7605 10.3707 17.7588C10.3707 17.7571 10.3707 17.7554 10.3707 17.7537C10.3707 17.752 10.3707 17.7503 10.3707 17.7486C10.3707 17.7469 10.3707 17.7452 10.3707 17.7435C10.3707 17.7419 10.3707 17.7402 10.3707 17.7385C10.3707 17.7368 10.3707 17.7351 10.3707 17.7335H9.37073C9.37073 17.7351 9.37073 17.7368 9.37073 17.7385C9.37073 17.7402 9.37073 17.7419 9.37073 17.7435C9.37073 17.7452 9.37073 17.7469 9.37073 17.7486C9.37073 17.7503 9.37073 17.752 9.37073 17.7537C9.37073 17.7554 9.37073 17.7571 9.37073 17.7588C9.37073 17.7605 9.37073 17.7622 9.37073 17.7639C9.37073 17.7656 9.37073 17.7673 9.37073 17.769C9.37073 17.7707 9.37073 17.7724 9.37073 17.7741C9.37073 17.7758 9.37073 17.7776 9.37073 17.7793C9.37073 17.781 9.37073 17.7827 9.37073 17.7844C9.37073 17.7861 9.37073 17.7879 9.37073 17.7896C9.37073 17.7913 9.37073 17.793 9.37073 17.7948C9.37073 17.7965 9.37073 17.7982 9.37073 17.8C9.37073 17.8017 9.37073 17.8034 9.37073 17.8052C9.37073 17.8069 9.37073 17.8086 9.37073 17.8104C9.37073 17.8121 9.37073 17.8139 9.37073 17.8156C9.37073 17.8174 9.37073 17.8191 9.37073 17.8209C9.37073 17.8226 9.37073 17.8244 9.37073 17.8261C9.37073 17.8279 9.37073 17.8296 9.37073 17.8314C9.37073 17.8331 9.37073 17.8349 9.37073 17.8366C9.37073 17.8384 9.37073 17.8402 9.37073 17.8419C9.37073 17.8437 9.37073 17.8455 9.37073 17.8472C9.37073 17.849 9.37073 17.8508 9.37073 17.8525C9.37073 17.8543 9.37073 17.8561 9.37073 17.8579C9.37073 17.8596 9.37073 17.8614 9.37073 17.8632C9.37073 17.865 9.37073 17.8668 9.37073 17.8685C9.37073 17.8703 9.37073 17.8721 9.37073 17.8739C9.37073 17.8757 9.37073 17.8775 9.37073 17.8793C9.37073 17.8811 9.37073 17.8828 9.37073 17.8846C9.37073 17.8864 9.37073 17.8882 9.37073 17.89C9.37073 17.8918 9.37073 17.8936 9.37073 17.8954C9.37073 17.8972 9.37073 17.899 9.37073 17.9008C9.37073 17.9027 9.37073 17.9045 9.37073 17.9063C9.37073 17.9081 9.37073 17.9099 9.37073 17.9117C9.37073 17.9135 9.37073 17.9153 9.37073 17.9171C9.37073 17.919 9.37073 17.9208 9.37073 17.9226C9.37073 17.9244 9.37073 17.9262 9.37073 17.9281C9.37073 17.9299 9.37073 17.9317 9.37073 17.9335C9.37073 17.9354 9.37073 17.9372 9.37073 17.939C9.37073 17.9409 9.37073 17.9427 9.37073 17.9445C9.37073 17.9464 9.37073 17.9482 9.37073 17.95C9.37073 17.9519 9.37073 17.9537 9.37073 17.9555C9.37073 17.9574 9.37073 17.9592 9.37073 17.9611C9.37073 17.9629 9.37073 17.9648 9.37073 17.9666C9.37073 17.9684 9.37073 17.9703 9.37073 17.9721C9.37073 17.974 9.37073 17.9758 9.37073 17.9777C9.37073 17.9796 9.37073 17.9814 9.37073 17.9833C9.37073 17.9851 9.37073 17.987 9.37073 17.9888C9.37073 17.9907 9.37073 17.9926 9.37073 17.9944C9.37073 17.9963 9.37073 17.9981 9.37073 18C9.37073 18.0019 9.37073 18.0037 9.37073 18.0056C9.37073 18.0075 9.37073 18.0094 9.37073 18.0112C9.37073 18.0131 9.37073 18.015 9.37073 18.0169C9.37073 18.0187 9.37073 18.0206 9.37073 18.0225C9.37073 18.0244 9.37073 18.0262 9.37073 18.0281C9.37073 18.03 9.37073 18.0319 9.37073 18.0338C9.37073 18.0357 9.37073 18.0375 9.37073 18.0394C9.37073 18.0413 9.37073 18.0432 9.37073 18.0451C9.37073 18.047 9.37073 18.0489 9.37073 18.0508C9.37073 18.0527 9.37073 18.0546 9.37073 18.0564C9.37073 18.0583 9.37073 18.0602 9.37073 18.0621C9.37073 18.064 9.37073 18.0659 9.37073 18.0678C9.37073 18.0697 9.37073 18.0716 9.37073 18.0735C9.37073 18.0755 9.37073 18.0774 9.37073 18.0793C9.37073 18.0812 9.37073 18.0831 9.37073 18.085C9.37073 18.0869 9.37073 18.0888 9.37073 18.0907C9.37073 18.0926 9.37073 18.0945 9.37073 18.0965C9.37073 18.0984 9.37073 18.1003 9.37073 18.1022C9.37073 18.1041 9.37073 18.106 9.37073 18.108C9.37073 18.1099 9.37073 18.1118 9.37073 18.1137C9.37073 18.1157 9.37073 18.1176 9.37073 18.1195C9.37073 18.1214 9.37073 18.1234 9.37073 18.1253C9.37073 18.1272 9.37073 18.1291 9.37073 18.1311C9.37073 18.133 9.37073 18.1349 9.37073 18.1369C9.37073 18.1388 9.37073 18.1407 9.37073 18.1427C9.37073 18.1446 9.37073 18.1465 9.37073 18.1485C9.37073 18.1504 9.37073 18.1524 9.37073 18.1543C9.37073 18.1562 9.37073 18.1582 9.37073 18.1601C9.37073 18.1621 9.37073 18.164 9.37073 18.166C9.37073 18.1679 9.37073 18.1698 9.37073 18.1718C9.37073 18.1737 9.37073 18.1757 9.37073 18.1776C9.37073 18.1796 9.37073 18.1815 9.37073 18.1835C9.37073 18.1854 9.37073 18.1874 9.37073 18.1894C9.37073 18.1913 9.37073 18.1933 9.37073 18.1952C9.37073 18.1972 9.37073 18.1991 9.37073 18.2011C9.37073 18.2031 9.37073 18.205 9.37073 18.207C9.37073 18.2089 9.37073 18.2109 9.37073 18.2129C9.37073 18.2148 9.37073 18.2168 9.37073 18.2187C9.37073 18.2207 9.37073 18.2227 9.37073 18.2246C9.37073 18.2266 9.37073 18.2286 9.37073 18.2306C9.37073 18.2325 9.37073 18.2345 9.37073 18.2365C9.37073 18.2384 9.37073 18.2404 9.37073 18.2424C9.37073 18.2444 9.37073 18.2463 9.37073 18.2483C9.37073 18.2503 9.37073 18.2523 9.37073 18.2542C9.37073 18.2562 9.37073 18.2582 9.37073 18.2602C9.37073 18.2621 9.37073 18.2641 9.37073 18.2661C9.37073 18.2681 9.37073 18.2701 9.37073 18.2721C9.37073 18.274 9.37073 18.276 9.37073 18.278C9.37073 18.28 9.37073 18.282 9.37073 18.284C9.37073 18.2859 9.37073 18.2879 9.37073 18.2899C9.37073 18.2919 9.37073 18.2939 9.37073 18.2959C9.37073 18.2979 9.37073 18.2999 9.37073 18.3019C9.37073 18.3039 9.37073 18.3059 9.37073 18.3078C9.37073 18.3098 9.37073 18.3118 9.37073 18.3138C9.37073 18.3158 9.37073 18.3178 9.37073 18.3198C9.37073 18.3218 9.37073 18.3238 9.37073 18.3258C9.37073 18.3278 9.37073 18.3298 9.37073 18.3318C9.37073 18.3338 9.37073 18.3358 9.37073 18.3378C9.37073 18.3398 9.37073 18.3418 9.37073 18.3438C9.37073 18.3458 9.37073 18.3478 9.37073 18.3498C9.37073 18.3518 9.37073 18.3538 9.37073 18.3559C9.37073 18.3579 9.37073 18.3599 9.37073 18.3619C9.37073 18.3639 9.37073 18.3659 9.37073 18.3679C9.37073 18.3699 9.37073 18.3719 9.37073 18.3739C9.37073 18.3759 9.37073 18.378 9.37073 18.38C9.37073 18.382 9.37073 18.384 9.37073 18.386C9.37073 18.388 9.37073 18.39 9.37073 18.392C9.37073 18.3941 9.37073 18.3961 9.37073 18.3981C9.37073 18.4001 9.37073 18.4021 9.37073 18.4041C9.37073 18.4062 9.37073 18.4082 9.37073 18.4102C9.37073 18.4122 9.37073 18.4142 9.37073 18.4163C9.37073 18.4183 9.37073 18.4203 9.37073 18.4223C9.37073 18.4243 9.37073 18.4264 9.37073 18.4284C9.37073 18.4304 9.37073 18.4324 9.37073 18.4345C9.37073 18.4365 9.37073 18.4385 9.37073 18.4405C9.37073 18.4426 9.37073 18.4446 9.37073 18.4466C9.37073 18.4486 9.37073 18.4507 9.37073 18.4527C9.37073 18.4547 9.37073 18.4567 9.37073 18.4588C9.37073 18.4608 9.37073 18.4628 9.37073 18.4649C9.37073 18.4669 9.37073 18.4689 9.37073 18.4709C9.37073 18.473 9.37073 18.475 9.37073 18.477C9.37073 18.4791 9.37073 18.4811 9.37073 18.4831C9.37073 18.4852 9.37073 18.4872 9.37073 18.4892C9.37073 18.4913 9.37073 18.4933 9.37073 18.4953C9.37073 18.4974 9.37073 18.4994 9.37073 18.5014C9.37073 18.5035 9.37073 18.5055 9.37073 18.5075C9.37073 18.5096 9.37073 18.5116 9.37073 18.5136C9.37073 18.5157 9.37073 18.5177 9.37073 18.5198C9.37073 18.5218 9.37073 18.5238 9.37073 18.5259C9.37073 18.5279 9.37073 18.5299 9.37073 18.532C9.37073 18.534 9.37073 18.5361 9.37073 18.5381C9.37073 18.5401 9.37073 18.5422 9.37073 18.5442C9.37073 18.5463 9.37073 18.5483 9.37073 18.5503C9.37073 18.5524 9.37073 18.5544 9.37073 18.5565C9.37073 18.5585 9.37073 18.5606 9.37073 18.5626C9.37073 18.5646 9.37073 18.5667 9.37073 18.5687C9.37073 18.5708 9.37073 18.5728 9.37073 18.5749C9.37073 18.5769 9.37073 18.5789 9.37073 18.581C9.37073 18.583 9.37073 18.5851 9.37073 18.5871C9.37073 18.5892 9.37073 18.5912 9.37073 18.5932C9.37073 18.5953 9.37073 18.5973 9.37073 18.5994C9.37073 18.6014 9.37073 18.6035 9.37073 18.6055C9.37073 18.6076 9.37073 18.6096 9.37073 18.6117C9.37073 18.6137 9.37073 18.6157 9.37073 18.6178C9.37073 18.6198 9.37073 18.6219 9.37073 18.6239C9.37073 18.626 9.37073 18.628 9.37073 18.6301C9.37073 18.6321 9.37073 18.6342 9.37073 18.6362C9.37073 18.6383 9.37073 18.6403 9.37073 18.6424C9.37073 18.6444 9.37073 18.6465 9.37073 18.6485C9.37073 18.6506 9.37073 18.6526 9.37073 18.6546C9.37073 18.6567 9.37073 18.6587 9.37073 18.6608C9.37073 18.6628 9.37073 18.6649 9.37073 18.6669C9.37073 18.669 9.37073 18.671 9.37073 18.6731C9.37073 18.6751 9.37073 18.6772 9.37073 18.6792C9.37073 18.6813 9.37073 18.6833 9.37073 18.6854C9.37073 18.6874 9.37073 18.6895 9.37073 18.6915C9.37073 18.6936 9.37073 18.6956 9.37073 18.6977C9.37073 18.6997 9.37073 18.7018 9.37073 18.7038C9.37073 18.7059 9.37073 18.7079 9.37073 18.71C9.37073 18.712 9.37073 18.7141 9.37073 18.7161C9.37073 18.7182 9.37073 18.7202 9.37073 18.7223C9.37073 18.7243 9.37073 18.7263 9.37073 18.7284C9.37073 18.7304 9.37073 18.7325 9.37073 18.7345C9.37073 18.7366 9.37073 18.7386 9.37073 18.7407C9.37073 18.7427 9.37073 18.7448 9.37073 18.7468C9.37073 18.7489 9.37073 18.7509 9.37073 18.753C9.37073 18.755 9.37073 18.7571 9.37073 18.7591C9.37073 18.7612 9.37073 18.7632 9.37073 18.7653C9.37073 18.7673 9.37073 18.7694 9.37073 18.7714C9.37073 18.7735 9.37073 18.7755 9.37073 18.7775C9.37073 18.7796 9.37073 18.7816 9.37073 18.7837C9.37073 18.7857 9.37073 18.7878 9.37073 18.7898C9.37073 18.7919 9.37073 18.7939 9.37073 18.796C9.37073 18.798 9.37073 18.8001 9.37073 18.8021C9.37073 18.8041 9.37073 18.8062 9.37073 18.8082C9.37073 18.8103 9.37073 18.8123 9.37073 18.8144C9.37073 18.8164 9.37073 18.8185 9.37073 18.8205C9.37073 18.8225 9.37073 18.8246 9.37073 18.8266C9.37073 18.8287 9.37073 18.8307 9.37073 18.8328C9.37073 18.8348 9.37073 18.8368 9.37073 18.8389C9.37073 18.8409 9.37073 18.843 9.37073 18.845C9.37073 18.8471 9.37073 18.8491 9.37073 18.8511C9.37073 18.8532 9.37073 18.8552 9.37073 18.8573C9.37073 18.8593 9.37073 18.8613 9.37073 18.8634C9.37073 18.8654 9.37073 18.8675 9.37073 18.8695C9.37073 18.8715 9.37073 18.8736 9.37073 18.8756C9.37073 18.8776 9.37073 18.8797 9.37073 18.8817C9.37073 18.8838 9.37073 18.8858 9.37073 18.8878C9.37073 18.8899 9.37073 18.8919 9.37073 18.8939C9.37073 18.896 9.37073 18.898 9.37073 18.9C9.37073 18.9021 9.37073 18.9041 9.37073 18.9061C9.37073 18.9082 9.37073 18.9102 9.37073 18.9122C9.37073 18.9143 9.37073 18.9163 9.37073 18.9183C9.37073 18.9204 9.37073 18.9224 9.37073 18.9244C9.37073 18.9265 9.37073 18.9285 9.37073 18.9305C9.37073 18.9326 9.37073 18.9346 9.37073 18.9366C9.37073 18.9386 9.37073 18.9407 9.37073 18.9427C9.37073 18.9447 9.37073 18.9468 9.37073 18.9488C9.37073 18.9508 9.37073 18.9528 9.37073 18.9549C9.37073 18.9569 9.37073 18.9589 9.37073 18.9609C9.37073 18.963 9.37073 18.965 9.37073 18.967C9.37073 18.969 9.37073 18.9711 9.37073 18.9731C9.37073 18.9751 9.37073 18.9771 9.37073 18.9792C9.37073 18.9812 9.37073 18.9832 9.37073 18.9852C9.37073 18.9872 9.37073 18.9893 9.37073 18.9913C9.37073 18.9933 9.37073 18.9953 9.37073 18.9973C9.37073 18.9993 9.37073 19.0014 9.37073 19.0034C9.37073 19.0054 9.37073 19.0074 9.37073 19.0094C9.37073 19.0114 9.37073 19.0135 9.37073 19.0155C9.37073 19.0175 9.37073 19.0195 9.37073 19.0215C9.37073 19.0235 9.37073 19.0255 9.37073 19.0275C9.37073 19.0296 9.37073 19.0316 9.37073 19.0336C9.37073 19.0356 9.37073 19.0376 9.37073 19.0396C9.37073 19.0416 9.37073 19.0436 9.37073 19.0456C9.37073 19.0476 9.37073 19.0496 9.37073 19.0516C9.37073 19.0536 9.37073 19.0556 9.37073 19.0576C9.37073 19.0597 9.37073 19.0617 9.37073 19.0637C9.37073 19.0657 9.37073 19.0677 9.37073 19.0697C9.37073 19.0717 9.37073 19.0737 9.37073 19.0757C9.37073 19.0777 9.37073 19.0797 9.37073 19.0817C9.37073 19.0836 9.37073 19.0856 9.37073 19.0876C9.37073 19.0896 9.37073 19.0916 9.37073 19.0936C9.37073 19.0956 9.37073 19.0976 9.37073 19.0996C9.37073 19.1016 9.37073 19.1036 9.37073 19.1056C9.37073 19.1076 9.37073 19.1096 9.37073 19.1115C9.37073 19.1135 9.37073 19.1155 9.37073 19.1175C9.37073 19.1195 9.37073 19.1215 9.37073 19.1235C9.37073 19.1254 9.37073 19.1274 9.37073 19.1294C9.37073 19.1314 9.37073 19.1334 9.37073 19.1354C9.37073 19.1373 9.37073 19.1393 9.37073 19.1413C9.37073 19.1433 9.37073 19.1453 9.37073 19.1472C9.37073 19.1492 9.37073 19.1512 9.37073 19.1532C9.37073 19.1551 9.37073 19.1571 9.37073 19.1591C9.37073 19.1611 9.37073 19.163 9.37073 19.165C9.37073 19.167 9.37073 19.1689 9.37073 19.1709C9.37073 19.1729 9.37073 19.1748 9.37073 19.1768C9.37073 19.1788 9.37073 19.1807 9.37073 19.1827C9.37073 19.1847 9.37073 19.1866 9.37073 19.1886C9.37073 19.1906 9.37073 19.1925 9.37073 19.1945C9.37073 19.1965 9.37073 19.1984 9.37073 19.2004C9.37073 19.2023 9.37073 19.2043 9.37073 19.2062C9.37073 19.2082 9.37073 19.2102 9.37073 19.2121C9.37073 19.2141 9.37073 19.216 9.37073 19.218C9.37073 19.2199 9.37073 19.2219 9.37073 19.2238C9.37073 19.2258 9.37073 19.2277 9.37073 19.2297C9.37073 19.2316 9.37073 19.2336 9.37073 19.2355C9.37073 19.2374 9.37073 19.2394 9.37073 19.2413C9.37073 19.2433 9.37073 19.2452 9.37073 19.2472C9.37073 19.2491 9.37073 19.251 9.37073 19.253C9.37073 19.2549 9.37073 19.2569 9.37073 19.2588C9.37073 19.2607 9.37073 19.2627 9.37073 19.2646C9.37073 19.2665 9.37073 19.2685 9.37073 19.2704C9.37073 19.2723 9.37073 19.2742 9.37073 19.2762C9.37073 19.2781 9.37073 19.28 9.37073 19.2819C9.37073 19.2839 9.37073 19.2858 9.37073 19.2877C9.37073 19.2896 9.37073 19.2916 9.37073 19.2935C9.37073 19.2954 9.37073 19.2973 9.37073 19.2992C9.37073 19.3012 9.37073 19.3031 9.37073 19.305C9.37073 19.3069 9.37073 19.3088 9.37073 19.3107C9.37073 19.3126 9.37073 19.3146 9.37073 19.3165C9.37073 19.3184 9.37073 19.3203 9.37073 19.3222C9.37073 19.3241 9.37073 19.326 9.37073 19.3279C9.37073 19.3298 9.37073 19.3317 9.37073 19.3336C9.37073 19.3355 9.37073 19.3374 9.37073 19.3393C9.37073 19.3412 9.37073 19.3431 9.37073 19.345C9.37073 19.3469 9.37073 19.3488 9.37073 19.3507C9.37073 19.3526 9.37073 19.3545 9.37073 19.3564C9.37073 19.3582 9.37073 19.3601 9.37073 19.362C9.37073 19.3639 9.37073 19.3658 9.37073 19.3677C9.37073 19.3696 9.37073 19.3714 9.37073 19.3733C9.37073 19.3752 9.37073 19.3771 9.37073 19.379C9.37073 19.3808 9.37073 19.3827 9.37073 19.3846C9.37073 19.3865 9.37073 19.3883 9.37073 19.3902C9.37073 19.3921 9.37073 19.394 9.37073 19.3958C9.37073 19.3977 9.37073 19.3996 9.37073 19.4014C9.37073 19.4033 9.37073 19.4052 9.37073 19.407C9.37073 19.4089 9.37073 19.4107 9.37073 19.4126C9.37073 19.4145 9.37073 19.4163 9.37073 19.4182C9.37073 19.42 9.37073 19.4219 9.37073 19.4237C9.37073 19.4256 9.37073 19.4274 9.37073 19.4293C9.37073 19.4311 9.37073 19.433 9.37073 19.4348C9.37073 19.4367 9.37073 19.4385 9.37073 19.4404C9.37073 19.4422 9.37073 19.4441 9.37073 19.4459C9.37073 19.4477 9.37073 19.4496 9.37073 19.4514C9.37073 19.4533 9.37073 19.4551 9.37073 19.4569C9.37073 19.4588 9.37073 19.4606 9.37073 19.4624C9.37073 19.4642 9.37073 19.4661 9.37073 19.4679C9.37073 19.4697 9.37073 19.4716 9.37073 19.4734C9.37073 19.4752 9.37073 19.477 9.37073 19.4788C9.37073 19.4807 9.37073 19.4825 9.37073 19.4843C9.37073 19.4861 9.37073 19.4879 9.37073 19.4897C9.37073 19.4915 9.37073 19.4934 9.37073 19.4952C9.37073 19.497 9.37073 19.4988 9.37073 19.5006C9.37073 19.5024 9.37073 19.5042 9.37073 19.506C9.37073 19.5078 9.37073 19.5096 9.37073 19.5114C9.37073 19.5132 9.37073 19.515 9.37073 19.5168C9.37073 19.5186 9.37073 19.5204 9.37073 19.5222C9.37073 19.524 9.37073 19.5257 9.37073 19.5275C9.37073 19.5293 9.37073 19.5311 9.37073 19.5329C9.37073 19.5347 9.37073 19.5365 9.37073 19.5382C9.37073 19.54 9.37073 19.5418 9.37073 19.5436C9.37073 19.5453 9.37073 19.5471 9.37073 19.5489C9.37073 19.5507 9.37073 19.5524 9.37073 19.5542C9.37073 19.556 9.37073 19.5577 9.37073 19.5595C9.37073 19.5613 9.37073 19.563 9.37073 19.5648C9.37073 19.5665 9.37073 19.5683 9.37073 19.5701C9.37073 19.5718 9.37073 19.5736 9.37073 19.5753C9.37073 19.5771 9.37073 19.5788 9.37073 19.5806C9.37073 19.5823 9.37073 19.5841 9.37073 19.5858C9.37073 19.5876 9.37073 19.5893 9.37073 19.591C9.37073 19.5928 9.37073 19.5945 9.37073 19.5963C9.37073 19.598 9.37073 19.5997 9.37073 19.6015C9.37073 19.6032 9.37073 19.6049 9.37073 19.6066C9.37073 19.6084 9.37073 19.6101 9.37073 19.6118C9.37073 19.6135 9.37073 19.6153 9.37073 19.617C9.37073 19.6187 9.37073 19.6204 9.37073 19.6221C9.37073 19.6239 9.37073 19.6256 9.37073 19.6273C9.37073 19.629 9.37073 19.6307 9.37073 19.6324C9.37073 19.6341 9.37073 19.6358 9.37073 19.6375C9.37073 19.6392 9.37073 19.6409 9.37073 19.6426C9.37073 19.6443 9.37073 19.646 9.37073 19.6477C9.37073 19.6494 9.37073 19.6511 9.37073 19.6528C9.37073 19.6545 9.37073 19.6562 9.37073 19.6579C9.37073 19.6595 9.37073 19.6612 9.37073 19.6629C9.37073 19.6646 9.37073 19.6663 9.37073 19.6679C9.37073 19.6696 9.37073 19.6713 9.37073 19.673C9.37073 19.6746 9.37073 19.6763 9.37073 19.678C9.37073 19.6797 9.37073 19.6813 9.37073 19.683C9.37073 19.6846 9.37073 19.6863 9.37073 19.688C9.37073 19.6896 9.37073 19.6913 9.37073 19.6929C9.37073 19.6946 9.37073 19.6962 9.37073 19.6979C9.37073 19.6995 9.37073 19.7012 9.37073 19.7028C9.37073 19.7045 9.37073 19.7061 9.37073 19.7078C9.37073 19.7094 9.37073 19.711 9.37073 19.7127C9.37073 19.7143 9.37073 19.7159 9.37073 19.7176C9.37073 19.7192 9.37073 19.7208 9.37073 19.7225C9.37073 19.7241 9.37073 19.7257 9.37073 19.7273C9.37073 19.729 9.37073 19.7306 9.37073 19.7322C9.37073 19.7338 9.37073 19.7354 9.37073 19.737C9.37073 19.7386 9.37073 19.7403 9.37073 19.7419C9.37073 19.7435 9.37073 19.7451 9.37073 19.7467C9.37073 19.7483 9.37073 19.7499 9.37073 19.7515C9.37073 19.7531 9.37073 19.7547 9.37073 19.7563C9.37073 19.7579 9.37073 19.7594 9.37073 19.761C9.37073 19.7626 9.37073 19.7642 9.37073 19.7658C9.37073 19.7674 9.37073 19.769 9.37073 19.7705C9.37073 19.7721 9.37073 19.7737 9.37073 19.7753C9.37073 19.7768 9.37073 19.7784 9.37073 19.78C9.37073 19.7815 9.37073 19.7831 9.37073 19.7847C9.37073 19.7862 9.37073 19.7878 9.37073 19.7893C9.37073 19.7909 9.37073 19.7925 9.37073 19.794C9.37073 19.7956 9.37073 19.7971 9.37073 19.7987C9.37073 19.8002 9.37073 19.8017 9.37073 19.8033C9.37073 19.8048 9.37073 19.8064 9.37073 19.8079C9.37073 19.8094 9.37073 19.811 9.37073 19.8125C9.37073 19.814 9.37073 19.8156 9.37073 19.8171C9.37073 19.8186 9.37073 19.8201 9.37073 19.8217C9.37073 19.8232 9.37073 19.8247 9.37073 19.8262C9.37073 19.8277 9.37073 19.8293 9.37073 19.8308C9.37073 19.8323 9.37073 19.8338 9.37073 19.8353C9.37073 19.8368 9.37073 19.8383 9.37073 19.8398C9.37073 19.8413 9.37073 19.8428 9.37073 19.8443C9.37073 19.8458 9.37073 19.8473 9.37073 19.8488C9.37073 19.8503 9.37073 19.8517 9.37073 19.8532C9.37073 19.8547 9.37073 19.8562 9.37073 19.8577C9.37073 19.8591 9.37073 19.8606 9.37073 19.8621C9.37073 19.8636 9.37073 19.865 9.37073 19.8665C9.37073 19.868 9.37073 19.8694 9.37073 19.8709C9.37073 19.8724 9.37073 19.8738 9.37073 19.8753C9.37073 19.8767 9.37073 19.8782 9.37073 19.8796C9.37073 19.8811 9.37073 19.8825 9.37073 19.884C9.37073 19.8854 9.37073 19.8869 9.37073 19.8883C9.37073 19.8897 9.37073 19.8912 9.37073 19.8926C9.37073 19.894 9.37073 19.8955 9.37073 19.8969C9.37073 19.8983 9.37073 19.8997 9.37073 19.9012C9.37073 19.9026 9.37073 19.904 9.37073 19.9054C9.37073 19.9068 9.37073 19.9082 9.37073 19.9097C9.37073 19.9111 9.37073 19.9125 9.37073 19.9139C9.37073 19.9153 9.37073 19.9167 9.37073 19.9181C9.37073 19.9195 9.37073 19.9209 9.37073 19.9223C9.37073 19.9237 9.37073 19.9251 9.37073 19.9264C9.37073 19.9278 9.37073 19.9292 9.37073 19.9306C9.37073 19.932 9.37073 19.9333 9.37073 19.9347C9.37073 19.9361 9.37073 19.9375 9.37073 19.9388C9.37073 19.9402 9.37073 19.9416 9.37073 19.9429C9.37073 19.9443 9.37073 19.9457 9.37073 19.947C9.37073 19.9484 9.37073 19.9497 9.37073 19.9511C9.37073 19.9524 9.37073 19.9538 9.37073 19.9551C9.37073 19.9565 9.37073 19.9578 9.37073 19.9591C9.37073 19.9605 9.37073 19.9618 9.37073 19.9631C9.37073 19.9645 9.37073 19.9658 9.37073 19.9671C9.37073 19.9685 9.37073 19.9698 9.37073 19.9711C9.37073 19.9724 9.37073 19.9737 9.37073 19.9751C9.37073 19.9764 9.37073 19.9777 9.37073 19.979C9.37073 19.9803 9.37073 19.9816 9.37073 19.9829C9.37073 19.9842 9.37073 19.9855 9.37073 19.9868C9.37073 19.9881 9.37073 19.9894 9.37073 19.9907C9.37073 19.992 9.37073 19.9932 9.37073 19.9945C9.37073 19.9958 9.37073 19.9971 9.37073 19.9984C9.37073 19.9996 9.37073 20.0009 9.37073 20.0022C9.37073 20.0034 9.37073 20.0047 9.37073 20.006C9.37073 20.0072 9.37073 20.0085 9.37073 20.0098C9.37073 20.011 9.37073 20.0123 9.37073 20.0135C9.37073 20.0148 9.37073 20.016 9.37073 20.0173C9.37073 20.0185 9.37073 20.0197 9.37073 20.021C9.37073 20.0222 9.37073 20.0234 9.37073 20.0247C9.37073 20.0259 9.37073 20.0271 9.37073 20.0284C9.37073 20.0296 9.37073 20.0308 9.37073 20.032C9.37073 20.0332 9.37073 20.0344 9.37073 20.0357C9.37073 20.0369 9.37073 20.0381 9.37073 20.0393C9.37073 20.0405 9.37073 20.0417 9.37073 20.0429C9.37073 20.0441 9.37073 20.0453 9.37073 20.0465C9.37073 20.0476 9.37073 20.0488 9.37073 20.05C9.37073 20.0512 9.37073 20.0524 9.37073 20.0536C9.37073 20.0547 9.37073 20.0559 9.37073 20.0571C9.37073 20.0582 9.37073 20.0594 9.37073 20.0606C9.37073 20.0617 9.37073 20.0629 9.37073 20.0641C9.37073 20.0652 9.37073 20.0664 9.37073 20.0675C9.37073 20.0687 9.37073 20.0698 9.37073 20.0709C9.37073 20.0721 9.37073 20.0732 9.37073 20.0744C9.37073 20.0755 9.37073 20.0766 9.37073 20.0778C9.37073 20.0789 9.37073 20.08 9.37073 20.0811C9.37073 20.0823 9.37073 20.0834 9.37073 20.0845C9.37073 20.0856 9.37073 20.0867 9.37073 20.0878C9.37073 20.0889 9.37073 20.09 9.37073 20.0911C9.37073 20.0922 9.37073 20.0933 9.37073 20.0944C9.37073 20.0955 9.37073 20.0966 9.37073 20.0977C9.37073 20.0988 9.37073 20.0999 9.37073 20.1009C9.37073 20.102 9.37073 20.1031 9.37073 20.1042C9.37073 20.1052 9.37073 20.1063 9.37073 20.1074C9.37073 20.1084 9.37073 20.1095 9.37073 20.1106C9.37073 20.1116 9.37073 20.1127 9.37073 20.1137C9.37073 20.1148 9.37073 20.1158 9.37073 20.1169C9.37073 20.1179 9.37073 20.1189 9.37073 20.12C9.37073 20.121 9.37073 20.122 9.37073 20.1231C9.37073 20.1241 9.37073 20.1251 9.37073 20.1261C9.37073 20.1272 9.37073 20.1282 9.37073 20.1292C9.37073 20.1302 9.37073 20.1312 9.37073 20.1322C9.37073 20.1332 9.37073 20.1342 9.37073 20.1352C9.37073 20.1362 9.37073 20.1372 9.37073 20.1382C9.37073 20.1392 9.37073 20.1402 9.37073 20.1412C9.37073 20.1421 9.37073 20.1431 9.37073 20.1441C9.37073 20.1451 9.37073 20.1461 9.37073 20.147C9.37073 20.148 9.37073 20.149 9.37073 20.1499C9.37073 20.1509 9.37073 20.1518 9.37073 20.1528C9.37073 20.1537 9.37073 20.1547 9.37073 20.1556C9.37073 20.1566 9.37073 20.1575 9.37073 20.1585C9.37073 20.1594 9.37073 20.1603 9.37073 20.1613C9.37073 20.1622 9.37073 20.1631 9.37073 20.164C9.37073 20.165 9.37073 20.1659 9.37073 20.1668C9.37073 20.1677 9.37073 20.1686 9.37073 20.1695C9.37073 20.1704 9.37073 20.1713 9.37073 20.1722C9.37073 20.1731 9.37073 20.174 9.37073 20.1749C9.37073 20.1758 9.37073 20.1767 9.37073 20.1776C9.37073 20.1785 9.37073 20.1793 9.37073 20.1802C9.37073 20.1811 9.37073 20.182 9.37073 20.1828C9.37073 20.1837 9.37073 20.1846 9.37073 20.1854C9.37073 20.1863 9.37073 20.1871 9.37073 20.188C9.37073 20.1888 9.37073 20.1897 9.37073 20.1905C9.37073 20.1914 9.37073 20.1922 9.37073 20.1931C9.37073 20.1939 9.37073 20.1947 9.37073 20.1956C9.37073 20.1964 9.37073 20.1972 9.37073 20.198C9.37073 20.1988 9.37073 20.1997 9.37073 20.2005C9.37073 20.2013 9.37073 20.2021 9.37073 20.2029C9.37073 20.2037 9.37073 20.2045 9.37073 20.2053C9.37073 20.2061 9.37073 20.2069 9.37073 20.2077C9.37073 20.2085 9.37073 20.2092 9.37073 20.21C9.37073 20.2108 9.37073 20.2116 9.37073 20.2123C9.37073 20.2131 9.37073 20.2139 9.37073 20.2146C9.37073 20.2154 9.37073 20.2162 9.37073 20.2169C9.37073 20.2177 9.37073 20.2184 9.37073 20.2192C9.37073 20.2199 9.37073 20.2207 9.37073 20.2214C9.37073 20.2221 9.37073 20.2229 9.37073 20.2236C9.37073 20.2243 9.37073 20.225 9.37073 20.2258C9.37073 20.2265 9.37073 20.2272 9.37073 20.2279C9.37073 20.2286 9.37073 20.2293 9.37073 20.23C9.37073 20.2307 9.37073 20.2314 9.37073 20.2321C9.37073 20.2328 9.37073 20.2335 9.37073 20.2342C9.37073 20.2349 9.37073 20.2356 9.37073 20.2363C9.37073 20.2369 9.37073 20.2376 9.37073 20.2383C9.37073 20.239 9.37073 20.2396 9.37073 20.2403C9.37073 20.2409 9.37073 20.2416 9.37073 20.2423C9.37073 20.2429 9.37073 20.2436 9.37073 20.2442C9.37073 20.2448 9.37073 20.2455 9.37073 20.2461C9.37073 20.2468 9.37073 20.2474 9.37073 20.248C9.37073 20.2486 9.37073 20.2493 9.37073 20.2499C9.37073 20.2505 9.37073 20.2511 9.37073 20.2517C9.37073 20.2523 9.37073 20.2529 9.37073 20.2535C9.37073 20.2541 9.37073 20.2547 9.37073 20.2553C9.37073 20.2559 9.37073 20.2565 9.37073 20.2571C9.37073 20.2577 9.37073 20.2583 9.37073 20.2588C9.37073 20.2594 9.37073 20.26 9.37073 20.2605C9.37073 20.2611 9.37073 20.2617 9.37073 20.2622C9.37073 20.2628 9.37073 20.2633 9.37073 20.2639C9.37073 20.2644 9.37073 20.265 9.37073 20.2655C9.37073 20.2661 9.37073 20.2666 9.37073 20.2671C9.37073 20.2676 9.37073 20.2682 9.37073 20.2687C9.37073 20.2692 9.37073 20.2697 9.37073 20.2702C9.37073 20.2708 9.37073 20.2713 9.37073 20.2718C9.37073 20.2723 9.37073 20.2728 9.37073 20.2733C9.37073 20.2738 9.37073 20.2742 9.37073 20.2747C9.37073 20.2752 9.37073 20.2757 9.37073 20.2762H10.3707ZM9.87073 17.2335C9.63554 17.2335 9.39466 17.2485 9.17024 17.2613C8.94007 17.2744 8.72082 17.2857 8.50122 17.2826C8.06749 17.2765 7.65435 17.2144 7.24434 17.0094L6.79712 17.9038C7.38712 18.1988 7.9636 18.2751 8.4872 18.2825C8.74625 18.2861 8.99758 18.2728 9.22717 18.2597C9.4625 18.2463 9.67056 18.2335 9.87073 18.2335V17.2335ZM7.24434 17.0094C6.68074 16.7276 6.11845 16.6018 5.70268 16.5454C5.49342 16.5169 5.31752 16.5055 5.19192 16.5013C5.12903 16.4992 5.07846 16.4989 5.0423 16.4991C5.02421 16.4993 5.0097 16.4995 4.99903 16.4998C4.9937 16.4999 4.98932 16.5001 4.98593 16.5002C4.98424 16.5002 4.98279 16.5003 4.9816 16.5003C4.981 16.5004 4.98046 16.5004 4.97999 16.5004C4.97975 16.5004 4.97953 16.5004 4.97933 16.5004C4.97923 16.5004 4.97909 16.5004 4.97903 16.5004C4.9789 16.5004 4.97876 16.5005 5 17C5.02124 17.4995 5.02111 17.4996 5.02099 17.4996C5.02095 17.4996 5.02083 17.4996 5.02076 17.4996C5.02062 17.4996 5.02049 17.4996 5.02038 17.4996C5.02016 17.4996 5.02 17.4996 5.01989 17.4996C5.01968 17.4996 5.01972 17.4996 5.01998 17.4996C5.02052 17.4996 5.022 17.4995 5.02438 17.4995C5.02915 17.4994 5.03755 17.4992 5.04933 17.4991C5.0729 17.4989 5.10988 17.4991 5.1583 17.5007C5.25535 17.504 5.39712 17.513 5.56805 17.5363C5.91264 17.5831 6.36072 17.6856 6.79712 17.9038L7.24434 17.0094ZM10.603 15.0631C9.5219 14.9386 8.50759 14.6687 7.76346 14.025C7.041 13.4001 6.49573 12.3533 6.49573 10.4974H5.49573C5.49573 12.5633 6.11296 13.9195 7.10926 14.7813C8.08387 15.6243 9.34456 15.9247 10.4885 16.0565L10.603 15.0631ZM6.49573 10.4974C6.49573 9.50731 6.83667 8.70207 7.39455 8.074L6.64691 7.4099C5.92979 8.21724 5.49573 9.25753 5.49573 10.4974H6.49573ZM7.48654 7.56022C7.41345 7.37288 7.09788 6.45918 7.58654 5.20665L6.65492 4.84319C6.04358 6.41022 6.42801 7.59838 6.55492 7.92368L7.48654 7.56022ZM7.12073 5.02492C7.27371 5.50094 7.27322 5.5011 7.27274 5.50125C7.27259 5.5013 7.27211 5.50146 7.2718 5.50155C7.27117 5.50175 7.27056 5.50195 7.26996 5.50213C7.26875 5.50251 7.2676 5.50286 7.26649 5.5032C7.26428 5.50387 7.26225 5.50447 7.26042 5.50499C7.25676 5.50603 7.25388 5.50679 7.25178 5.50731C7.24758 5.50836 7.24656 5.50847 7.24879 5.50807C7.2532 5.50728 7.27096 5.50439 7.3027 5.50304C7.36584 5.50036 7.48737 5.50364 7.67208 5.54389C8.04242 5.6246 8.67036 5.85485 9.5867 6.48734L10.1548 5.66435C9.1586 4.97677 8.41155 4.68157 7.885 4.56682C7.62128 4.50935 7.4139 4.49742 7.26025 4.50394C7.18359 4.5072 7.12098 4.51503 7.07212 4.5238C7.04771 4.52818 7.02683 4.53278 7.00942 4.53713C7.00073 4.5393 6.99291 4.54141 6.98596 4.54339C6.98249 4.54438 6.97923 4.54534 6.9762 4.54626C6.97468 4.54672 6.97322 4.54717 6.97181 4.54761C6.97111 4.54783 6.97042 4.54805 6.96974 4.54826C6.96941 4.54837 6.96891 4.54853 6.96874 4.54858C6.96825 4.54874 6.96776 4.5489 7.12073 5.02492ZM10.0093 6.55627C10.762 6.33921 11.5652 6.22981 12.3707 6.22981V5.22981C11.4763 5.22981 10.5795 5.3511 9.73219 5.59542L10.0093 6.55627ZM12.3707 6.22981C13.1763 6.22981 13.9795 6.33921 14.7322 6.55627L15.0093 5.59542C14.162 5.3511 13.2652 5.22981 12.3707 5.22981V6.22981ZM15.1566 6.48605C16.0725 5.84773 16.6993 5.61842 17.0677 5.53945C17.2514 5.50006 17.372 5.49781 17.4342 5.50102C17.4654 5.50264 17.4828 5.50569 17.4869 5.50647C17.4889 5.50686 17.4878 5.50671 17.4834 5.50557C17.4813 5.505 17.4783 5.50419 17.4746 5.50307C17.4728 5.50252 17.4707 5.50189 17.4685 5.50117C17.4674 5.50082 17.4662 5.50044 17.465 5.50004C17.4644 5.49984 17.4638 5.49964 17.4631 5.49943C17.4628 5.49933 17.4623 5.49917 17.4622 5.49911C17.4617 5.49895 17.4612 5.49879 17.6207 5.02492C17.7803 4.55105 17.7798 4.55089 17.7793 4.55072C17.7791 4.55067 17.7786 4.5505 17.7783 4.55038C17.7776 4.55016 17.7769 4.54993 17.7762 4.5497C17.7748 4.54923 17.7733 4.54876 17.7718 4.54827C17.7687 4.5473 17.7654 4.54628 17.7619 4.54523C17.7549 4.54313 17.747 4.5409 17.7383 4.53859C17.7208 4.53397 17.6997 4.52906 17.6752 4.52435C17.6259 4.51492 17.5629 4.50635 17.4858 4.50236C17.3312 4.49436 17.1228 4.50492 16.8581 4.56166C16.3297 4.67493 15.5814 4.97108 14.5848 5.66564L15.1566 6.48605ZM17.1549 5.20665C17.6436 6.45918 17.328 7.37288 17.2549 7.56022L18.1865 7.92368C18.3134 7.59838 18.6979 6.41022 18.0865 4.84319L17.1549 5.20665ZM17.3469 8.074C17.9054 8.7027 18.2457 9.49531 18.2457 10.4974H19.2457C19.2457 9.24389 18.8111 8.21661 18.0946 7.4099L17.3469 8.074ZM18.2457 10.4974C18.2457 12.3594 17.6976 13.4056 16.9728 14.0289C16.2258 14.6713 15.2084 14.9384 14.126 15.0631L14.2405 16.0565C15.3831 15.9249 16.6469 15.6281 17.6249 14.7871C18.6251 13.9269 19.2457 12.5701 19.2457 10.4974H18.2457ZM13.8521 15.9345C14.0819 16.1375 14.3582 16.601 14.3582 17.4566H15.3582C15.3582 16.3898 15.0096 15.6229 14.5144 15.1852L13.8521 15.9345ZM14.3582 17.4566C14.3582 18.1408 14.3551 18.758 14.352 19.2477C14.3489 19.7353 14.3457 20.101 14.3457 20.2762H15.3457C15.3457 20.1053 15.3488 19.7469 15.352 19.2541C15.3551 18.7633 15.3582 18.1438 15.3582 17.4566H14.3582ZM10.3707 17.7409C10.3848 16.7962 10.4436 16.5383 10.4965 16.4267C10.5159 16.3858 10.5381 16.3558 10.6197 16.2653C10.7027 16.1733 10.8227 16.0436 10.9605 15.8391L10.131 15.2805C10.0368 15.4204 9.95996 15.5038 9.87726 15.5954C9.79317 15.6886 9.68074 15.8129 9.59279 15.9986C9.43099 16.3401 9.38423 16.8248 9.37079 17.726L10.3707 17.7409Z" fill="black"/>
<path d="M9.87073 17.7335V20.2762H14.8457C14.8457 19.9301 14.8582 18.8279 14.8582 17.4566C14.8582 16.4954 14.5457 15.8802 14.1832 15.5598C16.4082 15.3035 18.7457 14.432 18.7457 10.4974C18.7457 9.3696 18.3582 8.45966 17.7207 7.74195C17.8207 7.48563 18.1707 6.4347 17.6207 5.02492C17.6207 5.02492 16.7832 4.74297 14.8707 6.07585C14.0707 5.84516 13.2207 5.72981 12.3707 5.72981C11.5207 5.72981 10.6707 5.84516 9.87073 6.07585C7.95823 4.75578 7.12073 5.02492 7.12073 5.02492C6.57073 6.4347 6.92073 7.48563 7.02073 7.74195C6.38323 8.45966 5.99573 9.38242 5.99573 10.4974C5.99573 14.4192 8.32073 15.3035 10.5457 15.5598C10.082 16.2485 9.89827 15.8875 9.87073 17.7335Z" fill="black" fill-opacity="0.1"/>
</svg>
