<svg width="24" height="24" viewBox="0 0 24 24" fill="none" xmlns="http://www.w3.org/2000/svg">
<path d="M13.2812 12.4999C13.2812 15.5375 10.7558 18 7.64049 18C4.52519 18 2 15.5382 2 12.4999C2 9.46161 4.52538 7 7.64049 7C10.7556 7 13.2812 9.46235 13.2812 12.4999ZM19.4691 12.4999C19.4691 15.3594 18.2063 17.6773 16.6487 17.6773C15.0912 17.6773 13.8284 15.3586 13.8284 12.4999C13.8284 9.64117 15.0912 7.32256 16.6487 7.32256C18.2063 7.32256 19.4691 9.64117 19.4691 12.4999ZM22 12.4999C22 15.0619 21.5558 17.1386 21.008 17.1386C20.4603 17.1386 20.0161 15.0611 20.0161 12.4999C20.0161 9.93869 20.4603 7.86122 21.0082 7.86122C21.5562 7.86122 22 9.93813 22 12.4999Z" fill="black" fill-opacity="0.1"/>
<path fill-rule="evenodd" clip-rule="evenodd" d="M7.64049 17C10.2274 17 12.2812 14.9615 12.2812 12.4999C12.2812 10.0383 10.2273 8 7.64049 8C5.05362 8 3 10.0376 3 12.4999C3 14.9622 5.0535 17 7.64049 17ZM12.9811 10.7253C12.224 8.55852 10.1188 7 7.64049 7C4.52538 7 2 9.46161 2 12.4999C2 15.5382 4.52519 18 7.64049 18C10.1189 18 12.224 16.4414 12.9811 14.2746C13.1756 13.7178 13.2812 13.1209 13.2812 12.4999C13.2812 11.879 13.1756 11.282 12.9811 10.7253ZM14.0119 10.6593C13.8933 11.2313 13.8284 11.8517 13.8284 12.4999C13.8284 13.1481 13.8933 13.7686 14.0119 14.3405C14.4162 16.2909 15.4443 17.6773 16.6487 17.6773C17.736 17.6773 18.6797 16.5477 19.1504 14.8928C19.354 14.1771 19.4691 13.3632 19.4691 12.4999C19.4691 11.6368 19.354 10.8229 19.1504 10.1073C18.6797 8.45247 17.736 7.32256 16.6487 7.32256C15.4443 7.32256 14.4162 8.70891 14.0119 10.6593ZM20.1674 10.037C20.0715 10.7508 20.0161 11.5952 20.0161 12.4999C20.0161 13.4048 20.0715 14.2492 20.1674 14.9631C20.3429 16.2697 20.6538 17.1386 21.008 17.1386C21.5558 17.1386 22 15.0619 22 12.4999C22 9.93813 21.5562 7.86122 21.0082 7.86122C20.6538 7.86122 20.3429 8.73018 20.1674 10.037ZM17.7648 15.6825C18.1808 14.9188 18.4691 13.7955 18.4691 12.4999C18.4691 11.2047 18.1809 10.0813 17.7648 9.31756C17.328 8.51558 16.8892 8.32256 16.6487 8.32256C16.4082 8.32256 15.9695 8.51558 15.5326 9.31756C15.1166 10.0813 14.8284 11.2047 14.8284 12.4999C14.8284 13.7951 15.1166 14.9185 15.5326 15.6823C15.9695 16.4842 16.4082 16.6773 16.6487 16.6773C16.8894 16.6773 17.3281 16.4843 17.7648 15.6825Z" fill="black"/>
</svg>
