<svg width="24" height="24" viewBox="0 0 24 24" fill="none" xmlns="http://www.w3.org/2000/svg">
<path d="M14.847 9.99999C14.847 9.99999 17.061 9.99999 18.5 9.99999C18.797 9.99999 19.08 10.132 19.27 10.361C19.459 10.59 19.538 10.892 19.483 11.184C19.097 13.24 18.314 17.419 17.983 19.184C17.894 19.657 17.481 20 17 20C14.629 20 7.813 20 5.00001 20C4.69801 20 4.41201 19.864 4.22201 19.629C4.03201 19.394 3.95901 19.086 4.02201 18.79C4.69201 15.666 6.46601 7.38699 7.02201 4.79C7.12101 4.329 7.528 4 8 4C9.267 4 11.709 4 13 4C13.489 4 13.906 4.353 13.986 4.836C14.261 6.48499 14.847 9.99999 14.847 9.99999ZM8.808 6L6.23701 18H16.17L17.295 12C17.295 12 15.212 12 14 12C13.511 12 13.094 11.647 13.014 11.164C12.739 9.51499 12.153 6 12.153 6H8.808Z" fill="black"/>
<path d="M8 5L5 19H17L18.5 11H14L13 5H8Z" fill="black" fill-opacity="0.1"/>
</svg>
