<svg width="24" height="24" viewBox="0 0 24 24" fill="none" xmlns="http://www.w3.org/2000/svg">
<path fill-rule="evenodd" clip-rule="evenodd" d="M19.41 6C19.41 6 20.27 6 21 6C21.55 6 22 6.448 22 7C22 9.577 22 16.42 22 19C22 19.55 21.55 20 21 20C17.59 20 6.41 20 3 20C2.45 20 2 19.55 2 19C2 16.42 2 9.577 2 7C2 6.448 2.45 6 3 6C5.27 6 10.6 6 10.6 6C10.6 6 11.74 4.85098 12.29 4.29498C12.48 4.10598 12.73 4 13 4C13.91 4 16.09 4 17 4C17.27 4 17.52 4.10503 17.71 4.29303C18.26 4.84803 19.41 6 19.41 6ZM20 8H4V18H20V8ZM12 9C14.21 9 16 10.792 16 13C16 15.208 14.21 17 12 17C9.79 17 8 15.208 8 13C8 10.792 9.79 9 12 9ZM12 11C13.1 11 14 11.896 14 13C14 14.104 13.1 15 12 15C10.9 15 10 14.104 10 13C10 11.896 10.9 11 12 11ZM7 10C7 10.552 6.55 11 6 11C5.45 11 5 10.552 5 10C5 9.448 5.45 9 6 9C6.55 9 7 9.448 7 10ZM16.59 6H13.42L12.42 7H17.59L16.59 6Z" fill="#333333"/>
</svg>
