<svg width="24" height="24" viewBox="0 0 24 24" fill="none" xmlns="http://www.w3.org/2000/svg">
<path fill-rule="evenodd" clip-rule="evenodd" d="M17.4099 21.41C17.7899 21.04 18 20.53 18 20V18.19L18.0101 18.1049V18.0116V5.9914V5.90161L18 5.82036V4C18 3.47 17.7899 2.961 17.4099 2.586C17.0399 2.211 16.53 2 16 2H8C7.47 2 6.96009 2.211 6.59009 2.586C6.21009 2.961 6 3.47 6 4V20C6 20.53 6.21009 21.04 6.59009 21.41C6.96009 21.79 7.47 22 8 22H16C16.53 22 17.0399 21.79 17.4099 21.41ZM17 4.26673V4C17 3.735 16.89 3.48003 16.71 3.29303C16.52 3.10503 16.26 3 16 3H8C7.74 3 7.48004 3.10503 7.29004 3.29303C7.11004 3.48003 7 3.735 7 4V4.27773L7.06012 4.24488L7.14771 4.20059L7.23499 4.16093L7.32257 4.12476L7.41016 4.09321L7.50995 4.06644L7.61005 4.04308L7.71014 4.02556L7.80994 4.01275L7.91003 4.00577L7.99762 4.00342H16.0225L16.1101 4.00577L16.2102 4.01275L16.31 4.02556L16.4101 4.04308L16.5102 4.06644L16.61 4.09321L16.6976 4.12476L16.7852 4.16093L16.8724 4.20059L16.96 4.24488L17 4.26673ZM7 19.7296V20C7 20.26 7.11004 20.52 7.29004 20.71C7.48004 20.89 7.74 21 8 21H16C16.26 21 16.52 20.89 16.71 20.71C16.89 20.52 17 20.26 17 20V19.7403L16.96 19.7617L16.8724 19.8083L16.7852 19.8433L16.6976 19.8783L16.61 19.9133L16.5102 19.9366L16.4101 19.96L16.31 19.9833L16.2102 19.9949L16.1101 20.0066H16.0225H7.99762H7.91003L7.80994 19.9949L7.71014 19.9833L7.61005 19.96L7.50995 19.9366L7.41016 19.9133L7.32257 19.8783L7.23499 19.8433L7.14771 19.8083L7.06012 19.7617L7 19.7296ZM17 5.86096V18.1425L16.9976 18.1516L16.985 18.21L16.9725 18.2566L16.96 18.3033L16.9475 18.35L16.935 18.3966L16.91 18.4316L16.8849 18.4783L16.8599 18.525L16.8352 18.5599L16.8102 18.6066L16.7852 18.6416L16.7476 18.6766L16.7226 18.7116L16.6851 18.7467L16.6475 18.7699L16.61 18.805L16.5724 18.8283L16.5352 18.8633L16.4852 18.8866L16.4476 18.9099L16.3976 18.9216L16.3475 18.945L16.31 18.9566L16.2599 18.9683L16.2102 18.9799L16.1602 18.9916L16.1101 19.0033H16.0601H16.01H8.01013H7.96008H7.91003L7.85999 18.9916L7.80994 18.9799L7.76019 18.9683L7.71014 18.9566L7.67261 18.945L7.62256 18.9216L7.57251 18.9099L7.53497 18.8866L7.49744 18.8633L7.44769 18.8283L7.41016 18.805L7.37262 18.7699L7.33508 18.7467L7.29755 18.7116L7.27252 18.6766L7.23499 18.6416L7.20996 18.6066L7.18494 18.5599L7.16022 18.525L7.13519 18.4783L7.11017 18.4316L7.08514 18.3966L7.07263 18.35L7.06012 18.3033L7.04761 18.2566L7.0351 18.21L7.02258 18.1516L7.01007 18.1049V18.0583V18V6.00308V5.95174V5.9004L7.02258 5.8514L7.0351 5.80127L7.04761 5.75342L7.06012 5.70557L7.07263 5.65893L7.08514 5.61343L7.11017 5.57028L7.13519 5.52705L7.16022 5.48511L7.18494 5.44424L7.20996 5.40458L7.23499 5.36726L7.27252 5.33109L7.29755 5.29605L7.33508 5.26344L7.37262 5.2319L7.41016 5.20156L7.44769 5.17358L7.49744 5.14794L7.53497 5.12345L7.57251 5.10244L7.62256 5.08143L7.67261 5.06392L7.71014 5.04875L7.76019 5.03472L7.80994 5.02311L7.85999 5.01493L7.91003 5.00795L7.96008 5.00439L8.01013 5.00325H16.01L16.0601 5.00439L16.1101 5.00795L16.1602 5.01493L16.2102 5.02311L16.2599 5.03472L16.31 5.04875L16.3475 5.06392L16.3976 5.08143L16.4476 5.10244L16.4852 5.12345L16.5352 5.14794L16.5724 5.17358L16.61 5.20156L16.6475 5.2319L16.6851 5.26344L16.7226 5.29605L16.7476 5.33109L16.7852 5.36726L16.8102 5.40458L16.8352 5.44424L16.8599 5.48511L16.8849 5.52705L16.91 5.57028L16.935 5.61343L16.9475 5.65893L16.96 5.70557L16.9725 5.75342L16.985 5.80127L16.9976 5.8514L17 5.86096Z" fill="black"/>
<path d="M7 5V19H17V5H7Z" fill="black" fill-opacity="0.1"/>
</svg>
