<svg width="24" height="24" viewBox="0 0 24 24" fill="none" xmlns="http://www.w3.org/2000/svg">
<path fill-rule="evenodd" clip-rule="evenodd" d="M12 14C13.1046 14 14 13.1046 14 12C14 10.8954 13.1046 10 12 10C10.8954 10 10 10.8954 10 12C10 13.1046 10.8954 14 12 14ZM12 16C14.2091 16 16 14.2091 16 12C16 9.79086 14.2091 8 12 8C9.79086 8 8 9.79086 8 12C8 14.2091 9.79086 16 12 16Z" fill="black"/>
<path d="M3 9V16C3 17.1046 3.89543 18 5 18H19C20.1046 18 21 17.1046 21 16V9C21 7.89543 20.1046 7 19 7H16.618C16.2393 7 15.893 6.786 15.7236 6.44721L15.2764 5.55279C15.107 5.214 14.7607 5 14.382 5H9.61803C9.23926 5 8.893 5.214 8.72361 5.55279L8.27639 6.44721C8.107 6.786 7.76074 7 7.38197 7H5C3.89543 7 3 7.89543 3 9Z" stroke="black" stroke-width="2" stroke-linecap="round" stroke-linejoin="round"/>
<path fill-rule="evenodd" clip-rule="evenodd" d="M3 16V9C3 7.89543 3.89543 7 5 7H7.38197C7.76074 7 8.107 6.786 8.27639 6.44721L8.72361 5.55279C8.893 5.214 9.23926 5 9.61803 5H14.382C14.7607 5 15.107 5.214 15.2764 5.55279L15.7236 6.44721C15.893 6.786 16.2393 7 16.618 7H19C20.1046 7 21 7.89543 21 9V16C21 17.1046 20.1046 18 19 18H5C3.89543 18 3 17.1046 3 16ZM12 15C13.6569 15 15 13.6569 15 12C15 10.3431 13.6569 9 12 9C10.3431 9 9 10.3431 9 12C9 13.6569 10.3431 15 12 15Z" fill="black" fill-opacity="0.1"/>
</svg>
