<svg width="24" height="24" viewBox="0 0 24 24" fill="none" xmlns="http://www.w3.org/2000/svg">
<path fill-rule="evenodd" clip-rule="evenodd" d="M17.9949 16.5843C17.9949 16.5843 17.9949 15.7263 17.9949 14.9983C17.9949 14.7333 18.1049 14.4783 18.2849 14.2913C18.4749 14.1033 18.7349 13.9983 18.9949 13.9983C19.2549 13.9983 19.5148 14.1033 19.7048 14.2913C19.8848 14.4783 19.9949 14.7333 19.9949 14.9983C19.9949 16.1083 19.9949 17.8883 19.9949 18.9983C19.9949 19.2633 19.8848 19.5182 19.7048 19.7052C19.5148 19.8932 19.2549 19.9983 18.9949 19.9983C17.8849 19.9983 16.1049 19.9983 14.9949 19.9983C14.7349 19.9983 14.4749 19.8932 14.2849 19.7052C14.1049 19.5182 13.9949 19.2633 13.9949 18.9983C13.9949 18.7333 14.1049 18.4783 14.2849 18.2913C14.4749 18.1033 14.7349 17.9983 14.9949 17.9983C15.7249 17.9983 16.585 17.9983 16.585 17.9983C16.585 17.9983 14.4349 15.8542 13.2849 14.7052C13.1049 14.5182 12.9949 14.2633 12.9949 13.9983C12.9949 13.7333 13.1049 13.4783 13.2849 13.2913C13.4749 13.1033 13.7349 12.9983 13.9949 12.9983C14.2549 12.9983 14.5148 13.1033 14.7048 13.2913C15.8548 14.4403 17.9949 16.5843 17.9949 16.5843ZM8.99489 3.99829C8.99489 4.26329 8.88485 4.51826 8.70485 4.70526C8.51485 4.89326 8.25489 4.99829 7.99489 4.99829C7.26489 4.99829 6.4048 4.99829 6.4048 4.99829C6.4048 4.99829 8.55485 7.14231 9.70485 8.29131C9.88485 8.47831 9.99489 8.73328 9.99489 8.99828C9.99489 9.26328 9.88485 9.51825 9.70485 9.70525C9.51485 9.89325 9.25489 9.99828 8.99489 9.99828C8.73489 9.99828 8.47493 9.89325 8.28493 9.70525C7.13493 8.55625 4.99489 6.41229 4.99489 6.41229C4.99489 6.41229 4.99489 7.27028 4.99489 7.99828C4.99489 8.26328 4.88486 8.51825 4.70486 8.70525C4.51486 8.89325 4.25489 8.99828 3.9949 8.99828C3.7349 8.99828 3.47493 8.89325 3.28493 8.70525C3.10493 8.51825 2.9949 8.26328 2.9949 7.99828C2.9949 6.88828 2.9949 5.10829 2.9949 3.99829C2.9949 3.73329 3.10493 3.47832 3.28493 3.29132C3.47493 3.10332 3.7349 2.99829 3.9949 2.99829C5.10489 2.99829 6.88489 2.99829 7.99489 2.99829C8.25489 2.99829 8.51485 3.10332 8.70485 3.29132C8.88485 3.47832 8.99489 3.73329 8.99489 3.99829Z" fill="black"/>
</svg>
