<svg width="24" height="24" viewBox="0 0 24 24" fill="none" xmlns="http://www.w3.org/2000/svg">
<path fill-rule="evenodd" clip-rule="evenodd" d="M14.95 7.21997C16.2 8.22997 17 9.77 17 11.5C17 13.23 16.2 14.77 14.95 15.78C14.95 15.78 14.3601 18.73 14.0701 20.2C13.9801 20.66 13.5701 21 13.0901 21C12.2001 21 10.7999 21 9.90991 21C9.42991 21 9.01993 20.66 8.92993 20.2C8.63993 18.73 8.05005 15.78 8.05005 15.78C6.80005 14.77 6 13.23 6 11.5C6 9.77 6.80005 8.22997 8.05005 7.21997C8.05005 7.21997 8.63993 4.27005 8.92993 2.80005C9.01993 2.34005 9.42991 2 9.90991 2C10.7999 2 12.2001 2 13.0901 2C13.5701 2 13.9801 2.34005 14.0701 2.80005C14.3601 4.27005 14.95 7.21997 14.95 7.21997ZM9.20996 16.5L9.90991 20H13.0901L13.79 16.5C13.09 16.82 12.32 17 11.5 17C10.68 17 9.90996 16.82 9.20996 16.5ZM11.5 7C13.98 7 16 9.02 16 11.5C16 13.98 13.98 16 11.5 16C9.02 16 7 13.98 7 11.5C7 9.02 9.02 7 11.5 7ZM13.79 6.5L13.0901 3H9.90991L9.20996 6.5C9.90996 6.18 10.68 6 11.5 6C12.32 6 13.09 6.18 13.79 6.5Z" fill="black"/>
<path d="M13.5 20.5L14.5 15.5L11.5 16.5L8.5 15.5L9.5 20.5H13.5Z" fill="black" fill-opacity="0.1"/>
<path d="M9.5 2.59998L8.5 7.59998L11.5 6.59998L14.5 7.59998L13.5 2.59998H9.5Z" fill="black" fill-opacity="0.1"/>
</svg>
