<svg width="24" height="24" viewBox="0 0 24 24" fill="none" xmlns="http://www.w3.org/2000/svg">
<path fill-rule="evenodd" clip-rule="evenodd" d="M21.0624 6.20205L21.1224 6.20764L21.1824 6.21724L21.2416 6.23003L21.2992 6.24604L21.356 6.26604L21.412 6.28923L21.4664 6.31565L21.5184 6.34524L21.5696 6.37803L21.6176 6.41404L21.664 6.45244L21.708 6.49404L21.7496 6.53804L21.788 6.58445L21.8232 6.63323L21.856 6.68364L21.8856 6.73645L21.912 6.79084L21.9352 6.84605L21.9552 6.90364L21.9712 6.96123L21.984 7.02043L21.9928 7.08044L21.9984 7.14043L22 7.20044V16.8004L21.9984 16.8605L21.9928 16.9204L21.984 16.9804L21.9712 17.0397L21.9552 17.0972L21.9352 17.1548L21.912 17.21L21.8856 17.2644L21.856 17.3172L21.8232 17.3677L21.788 17.4164L21.7496 17.4628L21.708 17.5068L21.664 17.5484L21.6176 17.5868L21.5696 17.6229L21.5184 17.6556L21.4664 17.6852L21.412 17.7117L21.356 17.7348L21.2992 17.7548L21.2416 17.7709L21.1824 17.7836L21.1224 17.7932L21.0624 17.7988L21.0024 17.8004L20.9424 17.7988L20.8824 17.7932L20.8224 17.7845L20.7632 17.7724L20.7056 17.7556L20.648 17.7365L20.5928 17.7132L20.5384 17.6877L20.4856 17.658L12.4856 12.858L12.4344 12.8252L12.3856 12.7892L12.3392 12.7508L12.2944 12.7092L12.2528 12.6652L12.2144 12.6189L12.1784 12.57L12.1456 12.5196L12.1152 12.4668L12.0888 12.4125L12.0656 12.3564L12.0456 12.2988L12.0296 12.2404L12.0168 12.1813L12.0072 12.1212L12.0016 12.0612L12 12.0004L12.0016 11.9397L12.0072 11.8796L12.0168 11.8196L12.0296 11.7605L12.0456 11.7021L12.0656 11.6444L12.0888 11.5884L12.1152 11.534L12.1456 11.4813L12.1784 11.4308L12.2144 11.382L12.2528 11.3356L12.2944 11.2917L12.3392 11.2501L12.3856 11.2116L12.4344 11.1756L12.4856 11.1428L20.4856 6.34285L20.5384 6.31323L20.5928 6.28765L20.648 6.26443L20.7056 6.24524L20.7632 6.22844L20.8224 6.21643L20.8824 6.20764L20.9424 6.20205L21.0024 6.20044L21.0624 6.20205ZM13 12.0004L21 16.8004V7.20044L13 12.0004Z" fill="#333333"/>
<path fill-rule="evenodd" clip-rule="evenodd" d="M11.0624 6.20205L11.1224 6.20764L11.1824 6.21724L11.2416 6.23003L11.2992 6.24604L11.356 6.26604L11.412 6.28923L11.4664 6.31565L11.5184 6.34524L11.5696 6.37803L11.6176 6.41404L11.664 6.45244L11.708 6.49404L11.7488 6.53804L11.788 6.58445L11.8232 6.63323L11.856 6.68364L11.8856 6.73645L11.912 6.79084L11.9352 6.84605L11.9544 6.90364L11.9712 6.96123L11.9832 7.02043L11.9928 7.08044L11.9984 7.14043L12 7.20044V16.8004L11.9984 16.8605L11.9928 16.9204L11.9832 16.9804L11.9712 17.0397L11.9544 17.0972L11.9352 17.1548L11.912 17.21L11.8856 17.2644L11.856 17.3172L11.8232 17.3677L11.788 17.4164L11.7488 17.4628L11.708 17.5068L11.664 17.5484L11.6176 17.5868L11.5696 17.6229L11.5184 17.6556L11.4664 17.6852L11.412 17.7117L11.356 17.7348L11.2992 17.7548L11.2416 17.7709L11.1824 17.7836L11.1224 17.7932L11.0624 17.7988L11.0024 17.8004L10.9424 17.7988L10.8824 17.7932L10.8224 17.7845L10.7632 17.7724L10.7056 17.7556L10.648 17.7365L10.592 17.7132L10.5384 17.6877L10.4856 17.658L2.4856 12.858L2.4344 12.8252L2.3856 12.7892L2.3392 12.7508L2.2944 12.7092L2.2528 12.6652L2.2144 12.6189L2.1784 12.57L2.1448 12.5196L2.1152 12.4668L2.0888 12.4125L2.0656 12.3564L2.0456 12.2988L2.0296 12.2404L2.0168 12.1813L2.0072 12.1212L2.0016 12.0612L2 12.0004L2.0016 11.9397L2.0072 11.8796L2.0168 11.8196L2.0296 11.7605L2.0456 11.7021L2.0656 11.6444L2.0888 11.5884L2.1152 11.534L2.1448 11.4813L2.1784 11.4308L2.2144 11.382L2.2528 11.3356L2.2944 11.2917L2.3392 11.2501L2.3856 11.2116L2.4344 11.1756L2.4856 11.1428L10.4856 6.34285L10.5384 6.31323L10.592 6.28765L10.648 6.26443L10.7056 6.24524L10.7632 6.22844L10.8224 6.21643L10.8824 6.20764L10.9424 6.20205L11.0024 6.20044L11.0624 6.20205ZM3 12.0004L11 16.8004V7.20044L3 12.0004Z" fill="#333333"/>
</svg>
