<svg width="24" height="24" viewBox="0 0 24 24" fill="none" xmlns="http://www.w3.org/2000/svg">
<path fill-rule="evenodd" clip-rule="evenodd" d="M11.1224 6.20764L11.0624 6.20203L11.0024 6.20044L10.9424 6.20203L10.8824 6.20764L10.8224 6.21643L10.7632 6.22839L10.7056 6.24524L10.648 6.2644L10.592 6.2876L10.5384 6.31323L10.4856 6.3429L2.4856 11.1428L2.4344 11.1757L2.3856 11.2117L2.3392 11.25L2.2944 11.2916L2.2528 11.3357L2.2144 11.3821L2.1784 11.4308L2.1448 11.4812L2.1152 11.5341L2.0888 11.5884L2.0656 11.6444L2.0456 11.702L2.0296 11.7605L2.0168 11.8196L2.0072 11.8796L2.0016 11.9397L2 12.0005L2.0016 12.0613L2.0072 12.1212L2.0168 12.1813L2.0296 12.2405L2.0456 12.2988L2.0656 12.3564L2.0888 12.4125L2.1152 12.4668L2.1448 12.5197L2.1784 12.5701L2.2144 12.6189L2.2528 12.6653L2.2944 12.7092L2.3392 12.7509L2.3856 12.7892L2.4344 12.8252L2.4856 12.858L10.4856 17.6581L10.5384 17.6876L10.592 17.7133L10.648 17.7365L10.7056 17.7556L10.7632 17.7725L10.8224 17.7844L10.8824 17.7932L10.9424 17.7988L11.0024 17.8004L11.0624 17.7988L11.1224 17.7932L11.1824 17.7837L11.2416 17.7709L11.2992 17.7549L11.356 17.7349L11.412 17.7117L11.4664 17.6852L11.5184 17.6556L11.5696 17.6228L11.6176 17.5868L11.664 17.5485L11.708 17.5068L11.7488 17.4629L11.788 17.4164L11.8232 17.3677L11.856 17.3173L11.8856 17.2644L11.912 17.2101L11.9352 17.1548L11.9544 17.0973L11.9712 17.0397L11.9832 16.9805L11.9928 16.9204L11.9984 16.8605L12 16.8004V13.1666L19.4856 17.6581L19.5384 17.6876L19.5928 17.7133L19.648 17.7365L19.7056 17.7556L19.7632 17.7725L19.8224 17.7844L19.8824 17.7932L19.9424 17.7988L20.0024 17.8004L20.0624 17.7988L20.1224 17.7932L20.1824 17.7837L20.2416 17.7709L20.2992 17.7549L20.356 17.7349L20.412 17.7117L20.4664 17.6852L20.5184 17.6556L20.5696 17.6228L20.6176 17.5868L20.664 17.5485L20.708 17.5068L20.7496 17.4629L20.788 17.4164L20.8232 17.3677L20.856 17.3173L20.8856 17.2644L20.912 17.2101L20.9352 17.1548L20.9552 17.0973L20.9712 17.0397L20.984 16.9805L20.9928 16.9204L20.9984 16.8605L21 16.8004V7.20044L20.9984 7.14038L20.9928 7.08044L20.984 7.02039L20.9712 6.96118L20.9552 6.90369L20.9352 6.84607L20.912 6.79089L20.8856 6.73645L20.856 6.68359L20.8232 6.63318L20.788 6.58447L20.7496 6.53809L20.708 6.49402L20.664 6.45239L20.6176 6.41406L20.5696 6.37805L20.5184 6.34521L20.4664 6.31567L20.412 6.28918L20.356 6.26599L20.2992 6.24609L20.2416 6.22998L20.1824 6.21729L20.1224 6.20764L20.0624 6.20203L20.0024 6.20044L19.9424 6.20203L19.8824 6.20764L19.8224 6.21643L19.7632 6.22839L19.7056 6.24524L19.648 6.2644L19.5928 6.2876L19.5384 6.31323L19.4856 6.3429L12 10.8342V7.20044L11.9984 7.14038L11.9928 7.08044L11.9832 7.02039L11.9712 6.96118L11.9544 6.90369L11.9352 6.84607L11.912 6.79089L11.8856 6.73645L11.856 6.68359L11.8232 6.63318L11.788 6.58447L11.7488 6.53809L11.708 6.49402L11.664 6.45239L11.6176 6.41406L11.5696 6.37805L11.5184 6.34521L11.4664 6.31567L11.412 6.28918L11.356 6.26599L11.2992 6.24609L11.2416 6.22998L11.1824 6.21729L11.1224 6.20764ZM11 16.8004L3 12.0005L11 7.20044V16.8004ZM20 16.8004L12 12.0005L20 7.20044V16.8004Z" fill="black"/>
</svg>
