<svg width="24" height="24" viewBox="0 0 24 24" fill="none" xmlns="http://www.w3.org/2000/svg">
<path fill-rule="evenodd" clip-rule="evenodd" d="M17.4099 21.41C17.7899 21.04 18 20.53 18 20V4C18 3.46997 17.7899 2.961 17.4099 2.586C17.0399 2.211 16.53 2 16 2H8C7.47 2 6.96009 2.211 6.59009 2.586C6.21009 2.961 6 3.46997 6 4V20C6 20.53 6.21009 21.04 6.59009 21.41C6.96009 21.79 7.47 22 8 22H16C16.53 22 17.0399 21.79 17.4099 21.41ZM8 4H16V20H8V4ZM13.01 18C13.01 18.5523 12.5622 19 12.0099 19C11.4576 19 11.0099 18.5523 11.0099 18C11.0099 17.4477 11.4576 17 12.0099 17C12.5622 17 13.01 17.4477 13.01 18Z" fill="black"/>
<path d="M7 3V21H17V3H7Z" fill="black" fill-opacity="0.1"/>
</svg>
