<svg width="24" height="24" viewBox="0 0 24 24" fill="none" xmlns="http://www.w3.org/2000/svg">
<path fill-rule="evenodd" clip-rule="evenodd" d="M18.0684 5.00216L18.1361 5.00936L18.2033 5.02076L18.27 5.03696L18.3348 5.05796L18.3983 5.08256L18.4601 5.11196L18.5195 5.14556L18.5765 5.18276L18.6311 5.22416L18.6827 5.26916L18.7307 5.31716L18.7757 5.36876L18.8171 5.42336L18.8544 5.48035L18.888 5.53976L18.9173 5.60155L18.942 5.66516L18.963 5.72996L18.9791 5.79656L18.9905 5.86375L18.9977 5.93156L19.0001 5.99996V18L18.9977 18.0684L18.9905 18.1361L18.9791 18.2033L18.963 18.2699L18.942 18.3348L18.9173 18.3984L18.888 18.4601L18.8544 18.5195L18.8171 18.5766L18.7757 18.6312L18.7307 18.6828L18.6827 18.7308L18.6311 18.7758L18.5765 18.8172L18.5195 18.8544L18.4601 18.888L18.3983 18.9174L18.3348 18.942L18.27 18.963L18.2033 18.9792L18.1361 18.9906L18.0684 18.9978L17.9999 19.0002H5.99996L5.93156 18.9978L5.86376 18.9906L5.79656 18.9792L5.72996 18.963L5.66516 18.942L5.60156 18.9174L5.53976 18.888L5.48036 18.8544L5.42336 18.8172L5.36876 18.7758L5.31716 18.7308L5.26916 18.6828L5.22416 18.6312L5.18276 18.5766L5.14556 18.5195L5.11196 18.4601L5.08256 18.3984L5.05796 18.3348L5.03696 18.2699L5.02076 18.2033L5.00936 18.1361L5.00216 18.0684L4.99976 18V5.99996L5.00216 5.93156L5.00936 5.86375L5.02076 5.79656L5.03696 5.72996L5.05796 5.66516L5.08256 5.60155L5.11196 5.53976L5.14556 5.48035L5.18276 5.42336L5.22416 5.36876L5.26916 5.31716L5.31716 5.26916L5.36876 5.22416L5.42336 5.18276L5.48036 5.14556L5.53976 5.11196L5.60156 5.08256L5.66516 5.05796L5.72996 5.03696L5.79656 5.02076L5.86376 5.00936L5.93156 5.00216L5.99996 4.99976H17.9999L18.0684 5.00216ZM5.99996 5.99996V18H17.9999V5.99996H5.99996Z" fill="black"/>
</svg>
