<svg width="24" height="24" viewBox="0 0 24 24" fill="none" xmlns="http://www.w3.org/2000/svg">
<path fill-rule="evenodd" clip-rule="evenodd" d="M18.9968 13.9983C18.9968 14.2633 18.8868 14.5182 18.7068 14.7052C18.5168 14.8932 18.2568 14.9983 17.9968 14.9983C17.2668 14.9983 16.4068 14.9983 16.4068 14.9983C16.4068 14.9983 18.5568 17.1423 19.7068 18.2913C19.8868 18.4783 19.9968 18.7333 19.9968 18.9983C19.9968 19.2633 19.8868 19.5182 19.7068 19.7052C19.5168 19.8932 19.2568 19.9983 18.9968 19.9983C18.7368 19.9983 18.4769 19.8932 18.2869 19.7052C17.1369 18.5562 14.9968 16.4123 14.9968 16.4123C14.9968 16.4123 14.9968 17.2703 14.9968 17.9983C14.9968 18.2633 14.8868 18.5182 14.7068 18.7052C14.5168 18.8932 14.2568 18.9983 13.9968 18.9983C13.7368 18.9983 13.4769 18.8932 13.2869 18.7052C13.1069 18.5182 12.9968 18.2633 12.9968 17.9983C12.9968 16.8883 12.9968 15.1083 12.9968 13.9983C12.9968 13.7333 13.1069 13.4783 13.2869 13.2913C13.4769 13.1033 13.7368 12.9983 13.9968 12.9983C15.1068 12.9983 16.8868 12.9983 17.9968 12.9983C18.2568 12.9983 18.5168 13.1033 18.7068 13.2913C18.8868 13.4783 18.9968 13.7333 18.9968 13.9983ZM10.9969 9.99828C10.9969 10.2633 10.8868 10.5182 10.7068 10.7052C10.5168 10.8932 10.2569 10.9983 9.99685 10.9983C8.88685 10.9983 7.10685 10.9983 5.99685 10.9983C5.73686 10.9983 5.47689 10.8932 5.28689 10.7052C5.10689 10.5182 4.99686 10.2633 4.99686 9.99828C4.99686 9.73328 5.10689 9.47831 5.28689 9.29131C5.47689 9.10331 5.73686 8.99828 5.99685 8.99828C6.72685 8.99828 7.58694 8.99828 7.58694 8.99828C7.58694 8.99828 5.43689 6.85426 4.2869 5.70526C4.1069 5.51826 3.99686 5.26329 3.99686 4.99829C3.99686 4.73329 4.1069 4.47832 4.2869 4.29132C4.4769 4.10332 4.73686 3.99829 4.99686 3.99829C5.25686 3.99829 5.51682 4.10332 5.70682 4.29132C6.85682 5.44032 8.99685 7.58428 8.99685 7.58428C8.99685 7.58428 8.99685 6.72629 8.99685 5.99829C8.99685 5.73329 9.10689 5.47832 9.28689 5.29132C9.47689 5.10332 9.73685 4.99829 9.99685 4.99829C10.2569 4.99829 10.5168 5.10332 10.7068 5.29132C10.8868 5.47832 10.9969 5.73329 10.9969 5.99829C10.9969 7.10828 10.9969 8.88828 10.9969 9.99828Z" fill="black"/>
</svg>
