<svg width="24" height="24" viewBox="0 0 24 24" fill="none" xmlns="http://www.w3.org/2000/svg">
<path fill-rule="evenodd" clip-rule="evenodd" d="M13.4107 11.9982C13.4107 11.9982 15.5607 14.1422 16.7107 15.2912C17.1007 15.6812 17.1007 16.3152 16.7107 16.7052C15.7507 17.6622 14.0107 19.3982 12.7107 20.7052C12.4207 20.9912 11.9909 21.0772 11.6209 20.9222C11.2409 20.7672 11.0008 20.4032 11.0008 19.9982C11.0008 17.6432 11.0008 14.4122 11.0008 14.4122C11.0008 14.4122 9.59075 15.8182 8.71075 16.7052C8.32075 17.0962 7.68083 17.0962 7.29083 16.7052C7.11083 16.5182 7.00079 16.2632 7.00079 15.9982C7.00079 15.7332 7.11083 15.4782 7.29083 15.2912C8.44083 14.1422 10.5909 11.9982 10.5909 11.9982C10.5909 11.9982 8.44083 9.85419 7.29083 8.7052C7.11083 8.5182 7.00079 8.26323 7.00079 7.99823C7.00079 7.73323 7.11083 7.47826 7.29083 7.29126C7.68083 6.90026 8.32075 6.90026 8.71075 7.29126C9.59075 8.17826 11.0008 9.58422 11.0008 9.58422C11.0008 9.58422 11.0008 6.35323 11.0008 3.99823C11.0008 3.59324 11.2409 3.22923 11.6209 3.07423C11.9909 2.91923 12.4207 3.00527 12.7107 3.29127C14.0107 4.59826 15.7507 6.33426 16.7107 7.29126C17.1007 7.68126 17.1007 8.3152 16.7107 8.7052C15.5607 9.85419 13.4107 11.9982 13.4107 11.9982ZM13.0008 17.5842L14.5909 15.9982L13.0008 14.4122V17.5842ZM13.0008 9.58422L14.5909 7.99823L13.0008 6.41223V9.58422Z" fill="#333333"/>
</svg>
