<svg width="24" height="24" viewBox="0 0 24 24" fill="none" xmlns="http://www.w3.org/2000/svg">
<path d="M5 11C5 7.137 8.14 4 12 4C15.86 4 19 7.137 19 11" stroke="black" stroke-miterlimit="100" stroke-linecap="round" stroke-linejoin="round"/>
<path d="M19 11V13" stroke="black" stroke-miterlimit="100" stroke-linejoin="round"/>
<path fill-rule="evenodd" clip-rule="evenodd" d="M6.07007 12.002L6.12012 12.007L6.15991 12.014L6.20996 12.023L6.26001 12.034L6.31006 12.048L6.3501 12.064L6.3999 12.082L6.43994 12.102L6.47998 12.125L6.53003 12.149L6.57007 12.176L6.61011 12.204L6.63989 12.234L6.67993 12.266L6.70996 12.3L6.75 12.336L6.78003 12.373L6.81006 12.411L6.84009 12.451L6.86011 12.492L6.87988 12.534L6.90991 12.578L6.92993 12.622L6.93994 12.667L6.95996 12.713L6.96997 12.76L6.97998 12.807L6.98999 12.855V12.903L7 12.952V13V19V19.05L6.98999 19.1V19.14L6.97998 19.19L6.96997 19.24L6.95996 19.29L6.93994 19.33L6.92993 19.38L6.90991 19.42L6.87988 19.47L6.86011 19.51L6.84009 19.55L6.81006 19.59L6.78003 19.63L6.75 19.66L6.70996 19.7L6.67993 19.73L6.63989 19.77L6.61011 19.8L6.57007 19.82L6.53003 19.85L6.47998 19.88L6.43994 19.9L6.3999 19.92L6.3501 19.94L6.31006 19.95L6.26001 19.97L6.20996 19.98L6.15991 19.99H6.12012L6.07007 20H6.02002H5.96997H5.91992L5.87988 19.99H5.83008L5.78003 19.98L5.72998 19.96L5.68994 19.95L5.63989 19.93L5.6001 19.92L5.55005 19.89L3.55005 18.89L3.51001 18.87L3.46997 18.85L3.42993 18.82L3.38989 18.79L3.3501 18.76L3.32007 18.73L3.28003 18.7L3.25 18.66L3.21997 18.62L3.18994 18.59L3.15991 18.55L3.13989 18.5L3.11011 18.46L3.09009 18.42L3.07007 18.38L3.06006 18.33L3.04004 18.28L3.03003 18.24L3.02002 18.19L3.01001 18.14V18.1L3 18.05V18V14V13.952L3.01001 13.904V13.856L3.02002 13.809L3.03003 13.762L3.04004 13.715L3.06006 13.669L3.07007 13.624L3.09009 13.58L3.11011 13.537L3.13989 13.495L3.15991 13.454L3.18994 13.414L3.21997 13.376L3.25 13.339L3.28003 13.304L3.32007 13.27L3.3501 13.238L3.38989 13.208L3.42993 13.179L3.46997 13.153L3.51001 13.128L3.55005 13.106L5.55005 12.106L5.6001 12.085L5.63989 12.067L5.68994 12.05L5.72998 12.036L5.78003 12.024L5.83008 12.015L5.87988 12.008L5.91992 12.003L5.96997 12H6.02002L6.07007 12.002ZM4 14V18L6 19V13L4 14Z" fill="black"/>
<path fill-rule="evenodd" clip-rule="evenodd" d="M18.03 12L18.0801 12.003L18.1201 12.008L18.1699 12.015L18.22 12.024L18.27 12.036L18.3101 12.05L18.3601 12.066L18.3999 12.085L18.45 12.106L20.45 13.106L20.49 13.128L20.53 13.153L20.5701 13.179L20.6101 13.208L20.6499 13.238L20.6799 13.27L20.72 13.304L20.75 13.339L20.78 13.376L20.8101 13.414L20.8401 13.454L20.8601 13.495L20.8899 13.537L20.9099 13.58L20.9299 13.624L20.9399 13.669L20.96 13.715L20.97 13.762L20.98 13.809L20.99 13.856V13.904L21 13.952V14V18V18.05L20.99 18.1V18.14L20.98 18.19L20.97 18.24L20.96 18.28L20.9399 18.33L20.9299 18.38L20.9099 18.42L20.8899 18.46L20.8601 18.5L20.8401 18.55L20.8101 18.59L20.78 18.62L20.75 18.66L20.72 18.7L20.6799 18.73L20.6499 18.76L20.6101 18.79L20.5701 18.82L20.53 18.85L20.49 18.87L20.45 18.89L18.45 19.89L18.3999 19.92L18.3601 19.93L18.3101 19.95L18.27 19.96L18.22 19.98L18.1699 19.99H18.1201L18.0801 20H18.03H17.98H17.9299L17.8799 19.99H17.8401L17.79 19.98L17.74 19.97L17.6899 19.95L17.6499 19.94L17.6001 19.92L17.5601 19.9L17.52 19.88L17.47 19.85L17.4299 19.82L17.3899 19.8L17.3601 19.77L17.3201 19.73L17.28 19.7L17.25 19.66L17.22 19.63L17.1899 19.59L17.1599 19.55L17.1399 19.51L17.1201 19.47L17.0901 19.42L17.0701 19.38L17.0601 19.33L17.04 19.29L17.03 19.24L17.02 19.19L17.01 19.14V19.1L17 19.05V19V13V12.952L17.01 12.903V12.855L17.02 12.807L17.03 12.76L17.04 12.713L17.0601 12.667L17.0701 12.622L17.0901 12.578L17.1201 12.534L17.1399 12.492L17.1599 12.451L17.1899 12.411L17.22 12.373L17.25 12.336L17.28 12.3L17.3201 12.266L17.3601 12.234L17.3899 12.204L17.4299 12.176L17.47 12.149L17.52 12.125L17.5601 12.102L17.6001 12.082L17.6499 12.064L17.6899 12.048L17.74 12.034L17.79 12.023L17.8401 12.014L17.8799 12.007L17.9299 12.002L17.98 12H18.03ZM18 19L20 18V14L18 13V19Z" fill="black"/>
<path d="M5 11V13" stroke="black" stroke-miterlimit="100" stroke-linejoin="round"/>
<path d="M4 14V18L6 19H7V13H6L4 14Z" fill="black" fill-opacity="0.1"/>
<path d="M17 13V19H18L20 18V14L18 13H17Z" fill="black" fill-opacity="0.1"/>
</svg>
