<svg width="24" height="24" viewBox="0 0 24 24" fill="none" xmlns="http://www.w3.org/2000/svg">
<path fill-rule="evenodd" clip-rule="evenodd" d="M12.0029 2.99823C12.2729 2.99823 12.5229 3.10326 12.7129 3.29126C12.8929 3.47826 13.0029 3.73323 13.0029 3.99823C13.0029 7.14922 13.0029 16.8472 13.0029 19.9982C13.0029 20.2632 12.8929 20.5182 12.7129 20.7052C12.5229 20.8932 12.2729 20.9982 12.0029 20.9982C11.7429 20.9982 11.483 20.8932 11.293 20.7052C11.113 20.5182 11.0029 20.2632 11.0029 19.9982C11.0029 16.8472 11.0029 7.14922 11.0029 3.99823C11.0029 3.73323 11.113 3.47826 11.293 3.29126C11.483 3.10326 11.7429 2.99823 12.0029 2.99823ZM18.0029 4.99823C18.5529 4.99823 19.0029 5.44622 19.0029 5.99822C19.0029 8.57522 19.0029 15.4212 19.0029 17.9982C19.0029 18.5502 18.5529 18.9982 18.0029 18.9982C17.4529 18.9982 17.0029 18.5502 17.0029 17.9982C17.0029 15.4212 17.0029 8.57522 17.0029 5.99822C17.0029 5.44622 17.4529 4.99823 18.0029 4.99823ZM9.00292 5.99822C9.27292 5.99822 9.52288 6.10325 9.71288 6.29125C9.89288 6.47825 10.0029 6.73322 10.0029 6.99822C10.0029 9.25822 10.0029 14.7382 10.0029 16.9982C10.0029 17.2632 9.89288 17.5182 9.71288 17.7052C9.52288 17.8932 9.27292 17.9982 9.00292 17.9982C8.74292 17.9982 8.48296 17.8932 8.29296 17.7052C8.11296 17.5182 8.00292 17.2632 8.00292 16.9982C8.00292 14.7382 8.00292 9.25822 8.00292 6.99822C8.00292 6.73322 8.11296 6.47825 8.29296 6.29125C8.48296 6.10325 8.74292 5.99822 9.00292 5.99822ZM21.0029 6.99822C21.5529 6.99822 22.0029 7.44622 22.0029 7.99822C22.0029 9.91422 22.0029 14.0822 22.0029 15.9982C22.0029 16.5502 21.5529 16.9982 21.0029 16.9982C20.4529 16.9982 20.0029 16.5502 20.0029 15.9982C20.0029 14.0822 20.0029 9.91422 20.0029 7.99822C20.0029 7.44622 20.4529 6.99822 21.0029 6.99822ZM15.0029 7.99822C15.5529 7.99822 16.0029 8.44622 16.0029 8.99822C16.0029 10.5352 16.0029 13.4612 16.0029 14.9982C16.0029 15.5502 15.5529 15.9982 15.0029 15.9982C14.4529 15.9982 14.0029 15.5502 14.0029 14.9982C14.0029 13.4612 14.0029 10.5352 14.0029 8.99822C14.0029 8.44622 14.4529 7.99822 15.0029 7.99822ZM6.00293 8.99822C6.27293 8.99822 6.52289 9.10325 6.71289 9.29125C6.89289 9.47825 7.00293 9.73322 7.00293 9.99822C7.00293 11.1082 7.00293 12.8882 7.00293 13.9982C7.00293 14.2632 6.89289 14.5182 6.71289 14.7052C6.52289 14.8932 6.27293 14.9982 6.00293 14.9982C5.74293 14.9982 5.48297 14.8932 5.29297 14.7052C5.11297 14.5182 5.00293 14.2632 5.00293 13.9982C5.00293 12.8882 5.00293 11.1082 5.00293 9.99822C5.00293 9.73322 5.11297 9.47825 5.29297 9.29125C5.48297 9.10325 5.74293 8.99822 6.00293 8.99822ZM3.00293 9.99822C3.55293 9.99822 4.00293 10.4462 4.00293 10.9982C4.00293 11.6092 4.00293 12.3872 4.00293 12.9982C4.00293 13.5502 3.55293 13.9982 3.00293 13.9982C2.45293 13.9982 2.00293 13.5502 2.00293 12.9982C2.00293 12.3872 2.00293 11.6092 2.00293 10.9982C2.00293 10.4462 2.45293 9.99822 3.00293 9.99822Z" fill="black"/>
</svg>
