<svg width="24" height="24" viewBox="0 0 24 24" fill="none" xmlns="http://www.w3.org/2000/svg">
<path fill-rule="evenodd" clip-rule="evenodd" d="M5 3C5 2.44769 5.44772 2 6 2H18C18.5523 2 19 2.44769 19 3V21C19 21.5523 18.5523 22 18 22H6C5.44772 22 5 21.5523 5 21V3ZM7 4V20H17V4H7ZM12 13C14.2091 13 16 11.2092 16 9C16 6.79083 14.2091 5 12 5C9.79086 5 8 6.79083 8 9C8 11.2092 9.79086 13 12 13ZM15 9C15 10.6569 13.6569 12 12 12C10.3431 12 9 10.6569 9 9C9 7.34314 10.3431 6 12 6C13.6569 6 15 7.34314 15 9ZM12 18C13.1046 18 14 17.1046 14 16C14 14.8954 13.1046 14 12 14C10.8954 14 10 14.8954 10 16C10 17.1046 10.8954 18 12 18ZM13 16C13 16.5523 12.5523 17 12 17C11.4477 17 11 16.5523 11 16C11 15.4477 11.4477 15 12 15C12.5523 15 13 15.4477 13 16ZM12 10C12.5523 10 13 9.55231 13 9C13 8.44769 12.5523 8 12 8C11.4477 8 11 8.44769 11 9C11 9.55231 11.4477 10 12 10Z" fill="black"/>
<path fill-rule="evenodd" clip-rule="evenodd" d="M6 3V21H18V3H6ZM15.5 9C15.5 10.933 13.933 12.5 12 12.5C10.067 12.5 8.5 10.933 8.5 9C8.5 7.06702 10.067 5.5 12 5.5C13.933 5.5 15.5 7.06702 15.5 9ZM12 17.5C12.8284 17.5 13.5 16.8284 13.5 16C13.5 15.1716 12.8284 14.5 12 14.5C11.1716 14.5 10.5 15.1716 10.5 16C10.5 16.8284 11.1716 17.5 12 17.5Z" fill="black" fill-opacity="0.1"/>
</svg>
