<svg width="24" height="24" viewBox="0 0 24 24" fill="none" xmlns="http://www.w3.org/2000/svg">
<path fill-rule="evenodd" clip-rule="evenodd" d="M11.5029 2.99823C11.7829 2.99823 12.0029 3.22223 12.0029 3.49823C12.0029 6.08322 12.0029 17.9132 12.0029 20.4982C12.0029 20.7742 11.7829 20.9982 11.5029 20.9982C11.2229 20.9982 11.0029 20.7742 11.0029 20.4982C11.0029 17.9132 11.0029 6.08322 11.0029 3.49823C11.0029 3.22223 11.2229 2.99823 11.5029 2.99823ZM17.5029 4.99823C17.7829 4.99823 18.0029 5.22223 18.0029 5.49822C18.0029 7.67622 18.0029 16.3202 18.0029 18.4982C18.0029 18.7742 17.7829 18.9982 17.5029 18.9982C17.2229 18.9982 17.0029 18.7742 17.0029 18.4982C17.0029 16.3202 17.0029 7.67622 17.0029 5.49822C17.0029 5.22223 17.2229 4.99823 17.5029 4.99823ZM8.50292 5.99822C8.78292 5.99822 9.00292 6.22222 9.00292 6.49822C9.00292 8.45022 9.00292 15.5462 9.00292 17.4982C9.00292 17.6312 8.9529 17.7582 8.8529 17.8522C8.7629 17.9452 8.63292 17.9982 8.50292 17.9982C8.22292 17.9982 8.00292 17.7742 8.00292 17.4982C8.00292 15.5462 8.00292 8.45022 8.00292 6.49822C8.00292 6.22222 8.22292 5.99822 8.50292 5.99822ZM20.5029 6.99822C20.6329 6.99822 20.7629 7.05122 20.8529 7.14422C20.9529 7.23822 21.0029 7.36522 21.0029 7.49822C21.0029 9.20522 21.0029 14.7912 21.0029 16.4982C21.0029 16.6312 20.9529 16.7582 20.8529 16.8522C20.7629 16.9452 20.6329 16.9982 20.5029 16.9982C20.3729 16.9982 20.2429 16.9452 20.1529 16.8522C20.0529 16.7582 20.0029 16.6312 20.0029 16.4982C20.0029 14.7912 20.0029 9.20522 20.0029 7.49822C20.0029 7.36522 20.0529 7.23822 20.1529 7.14422C20.2429 7.05122 20.3729 6.99822 20.5029 6.99822ZM14.5029 7.99822C14.7829 7.99822 15.0029 8.22222 15.0029 8.49822C15.0029 9.93422 15.0029 14.0622 15.0029 15.4982C15.0029 15.7742 14.7829 15.9982 14.5029 15.9982C14.2229 15.9982 14.0029 15.7742 14.0029 15.4982C14.0029 14.0622 14.0029 9.93422 14.0029 8.49822C14.0029 8.22222 14.2229 7.99822 14.5029 7.99822ZM5.50293 8.99822C5.63293 8.99822 5.7629 9.05121 5.8529 9.14421C5.9529 9.23821 6.00293 9.36522 6.00293 9.49822C6.00293 10.6282 6.00293 13.3682 6.00293 14.4982C6.00293 14.6312 5.9529 14.7582 5.8529 14.8522C5.7629 14.9452 5.63293 14.9982 5.50293 14.9982C5.37293 14.9982 5.24295 14.9452 5.15295 14.8522C5.05295 14.7582 5.00293 14.6312 5.00293 14.4982C5.00293 13.3682 5.00293 10.6282 5.00293 9.49822C5.00293 9.36522 5.05295 9.23821 5.15295 9.14421C5.24295 9.05121 5.37293 8.99822 5.50293 8.99822ZM2.50293 9.99822C2.63293 9.99822 2.7629 10.0512 2.8529 10.1442C2.9529 10.2382 3.00293 10.3652 3.00293 10.4982C3.00293 11.2672 3.00293 12.7292 3.00293 13.4982C3.00293 13.6312 2.9529 13.7582 2.8529 13.8522C2.7629 13.9452 2.63293 13.9982 2.50293 13.9982C2.37293 13.9982 2.24295 13.9452 2.15295 13.8522C2.05295 13.7582 2.00293 13.6312 2.00293 13.4982C2.00293 12.7292 2.00293 11.2672 2.00293 10.4982C2.00293 10.3652 2.05295 10.2382 2.15295 10.1442C2.24295 10.0512 2.37293 9.99822 2.50293 9.99822Z" fill="#333333"/>
</svg>
