<svg width="24" height="24" viewBox="0 0 24 24" fill="none" xmlns="http://www.w3.org/2000/svg">
<path fill-rule="evenodd" clip-rule="evenodd" d="M8.06398 5.50104L8.13098 5.50803L8.19898 5.51901L8.26498 5.53503L8.32998 5.55502L8.39298 5.58002L8.45498 5.60803L8.51498 5.64102L18.514 11.641L18.572 11.679L18.627 11.72L18.679 11.765L18.728 11.813L18.773 11.865L18.815 11.919L18.853 11.977L18.887 12.036L18.916 12.098L18.942 12.162L18.962 12.228L18.979 12.294L18.991 12.362L18.998 12.43L19 12.499L18.998 12.568L18.991 12.636L18.979 12.704L18.962 12.77L18.942 12.836L18.916 12.9L18.887 12.962L18.853 13.021L18.815 13.079L18.773 13.133L18.728 13.185L18.679 13.233L18.627 13.278L18.572 13.319L18.514 13.356L8.51498 19.356L8.45498 19.39L8.39298 19.418L8.32998 19.443L8.26498 19.463L8.19898 19.479L8.13098 19.49L8.06398 19.497L7.99598 19.499L7.92798 19.496L7.85998 19.489L7.79298 19.477L7.72698 19.461L7.66198 19.44L7.59898 19.415L7.53698 19.385L7.47798 19.352L7.42098 19.314L7.36698 19.273L7.31598 19.228L7.26798 19.18L7.22298 19.129L7.18198 19.074L7.14498 19.017L7.11198 18.958L7.08198 18.896L7.05698 18.833L7.03698 18.768L7.02098 18.702L7.00898 18.635L7.00198 18.567L6.99998 18.499V6.49902L7.00198 6.43103L7.00898 6.36304L7.02098 6.29602L7.03698 6.23001L7.05698 6.16501L7.08198 6.10202L7.11198 6.04001L7.14498 5.98102L7.18198 5.92401L7.22298 5.86902L7.26798 5.81802L7.31598 5.77002L7.36698 5.72504L7.42098 5.68402L7.47798 5.64603L7.53698 5.61304L7.59898 5.58304L7.66198 5.55801L7.72698 5.53702L7.79298 5.52103L7.85998 5.50903L7.92798 5.50201L7.99598 5.49902L8.06398 5.50104ZM7.99998 18.499L18 12.499L7.99998 6.49902V18.499Z" fill="black"/>
<path d="M18 12.5L8 6.5V18.5L18 12.5Z" fill="black" fill-opacity="0.1"/>
</svg>
