<svg width="24" height="24" viewBox="0 0 24 24" fill="none" xmlns="http://www.w3.org/2000/svg">
<path fill-rule="evenodd" clip-rule="evenodd" d="M5.00097 18.9983C5.00097 18.9983 9.06096 18.9983 10.501 18.9983C10.631 18.9983 10.7609 19.0513 10.8509 19.1443C10.9509 19.2383 11.001 19.3653 11.001 19.4983C11.001 19.7743 10.781 19.9983 10.501 19.9983C9.35096 19.9983 6.52097 19.9983 5.00097 19.9983C4.74097 19.9983 4.48101 19.8932 4.29101 19.7052C4.11101 19.5182 4.00097 19.2633 4.00097 18.9983C4.00097 17.7003 4.00097 15.4853 4.00097 14.4983C4.00097 14.3653 4.05099 14.2383 4.15099 14.1443C4.24099 14.0513 4.37097 13.9983 4.50097 13.9983C4.63097 13.9983 4.76094 14.0513 4.85094 14.1443C4.95094 14.2383 5.00097 14.3653 5.00097 14.4983C5.00097 15.7643 5.00097 18.9983 5.00097 18.9983ZM20.001 18.9983C20.001 19.2633 19.8909 19.5182 19.7109 19.7052C19.5209 19.8932 19.271 19.9983 19.001 19.9983C17.701 19.9983 15.491 19.9983 14.501 19.9983C14.371 19.9983 14.241 19.9453 14.151 19.8523C14.051 19.7583 14.001 19.6313 14.001 19.4983C14.001 19.3653 14.051 19.2383 14.151 19.1443C14.241 19.0513 14.371 18.9983 14.501 18.9983C15.771 18.9983 19.001 18.9983 19.001 18.9983C19.001 18.9983 19.001 15.7643 19.001 14.4983C19.001 14.3653 19.051 14.2383 19.151 14.1443C19.241 14.0513 19.371 13.9983 19.501 13.9983C19.631 13.9983 19.7609 14.0513 19.8509 14.1443C19.9509 14.2383 20.001 14.3653 20.001 14.4983C20.001 15.4853 20.001 17.7003 20.001 18.9983ZM10.001 4.49829C10.001 4.63129 9.95094 4.75829 9.85094 4.85229C9.76094 4.94529 9.63096 4.99829 9.50096 4.99829C8.23096 4.99829 5.00097 4.99829 5.00097 4.99829C5.00097 4.99829 5.00097 8.23228 5.00097 9.49828C5.00097 9.63128 4.95094 9.75828 4.85094 9.85228C4.76094 9.94528 4.63097 9.99828 4.50097 9.99828C4.37097 9.99828 4.24099 9.94528 4.15099 9.85228C4.05099 9.75828 4.00097 9.63128 4.00097 9.49828C4.00097 8.51128 4.00097 6.29629 4.00097 4.99829C4.00097 4.73329 4.11101 4.47832 4.29101 4.29132C4.48101 4.10332 4.74097 3.99829 5.00097 3.99829C6.30097 3.99829 8.51096 3.99829 9.50096 3.99829C9.63096 3.99829 9.76094 4.05129 9.85094 4.14429C9.95094 4.23829 10.001 4.36529 10.001 4.49829ZM20.001 9.49828C20.001 9.63128 19.9509 9.75828 19.8509 9.85228C19.7609 9.94528 19.631 9.99828 19.501 9.99828C19.371 9.99828 19.241 9.94528 19.151 9.85228C19.051 9.75828 19.001 9.63128 19.001 9.49828C19.001 8.23228 19.001 4.99829 19.001 4.99829C19.001 4.99829 15.771 4.99829 14.501 4.99829C14.371 4.99829 14.241 4.94529 14.151 4.85229C14.051 4.75829 14.001 4.63129 14.001 4.49829C14.001 4.36529 14.051 4.23829 14.151 4.14429C14.241 4.05129 14.371 3.99829 14.501 3.99829C15.491 3.99829 17.701 3.99829 19.001 3.99829C19.271 3.99829 19.5209 4.10332 19.7109 4.29132C19.8909 4.47832 20.001 4.73329 20.001 4.99829C20.001 6.29629 20.001 8.51128 20.001 9.49828Z" fill="black"/>
</svg>
