<svg width="24" height="24" viewBox="0 0 24 24" fill="none" xmlns="http://www.w3.org/2000/svg">
<path fill-rule="evenodd" clip-rule="evenodd" d="M8.41459 5.55279C8.58398 5.214 8.93024 5 9.30902 5H14.691C15.0698 5 15.416 5.214 15.5854 5.55279L16.309 7H20C20.5523 7 21 7.44772 21 8V17C21 17.5523 20.5523 18 20 18H4C3.44772 18 3 17.5523 3 17V8C3 7.44772 3.44772 7 4 7H7.69098L8.41459 5.55279ZM14.691 6L9.30902 6L8.58541 7.44721C8.41602 7.786 8.06975 8 7.69098 8L4 8V17H20V8H16.309C15.9302 8 15.584 7.786 15.4146 7.44721L14.691 6Z" fill="black"/>
<path fill-rule="evenodd" clip-rule="evenodd" d="M12 14C13.1046 14 14 13.1046 14 12C14 10.8954 13.1046 10 12 10C10.8954 10 10 10.8954 10 12C10 13.1046 10.8954 14 12 14ZM12 15C13.6569 15 15 13.6569 15 12C15 10.3431 13.6569 9 12 9C10.3431 9 9 10.3431 9 12C9 13.6569 10.3431 15 12 15Z" fill="black"/>
<path d="M7 10C7 10.5523 6.55228 11 6 11C5.44772 11 5 10.5523 5 10C5 9.44772 5.44772 9 6 9C6.55228 9 7 9.44772 7 10Z" fill="black"/>
<path fill-rule="evenodd" clip-rule="evenodd" d="M3.5 17.5V7.5H8L9 5.5H15L16 7.5H20.5V17.5H3.5ZM12 15C13.6569 15 15 13.6569 15 12C15 10.3431 13.6569 9 12 9C10.3431 9 9 10.3431 9 12C9 13.6569 10.3431 15 12 15Z" fill="black" fill-opacity="0.1"/>
</svg>
