<svg width="24" height="24" viewBox="0 0 24 24" fill="none" xmlns="http://www.w3.org/2000/svg">
<path fill-rule="evenodd" clip-rule="evenodd" d="M12 7.00001C12 6.63648 11.8027 6.30165 11.4848 6.12538C11.1668 5.94911 10.7783 5.95936 10.47 6.15199L2.47 11.152C2.17762 11.3347 2 11.6552 2 12C2 12.3449 2.17762 12.6653 2.47 12.848L10.47 17.848C10.7783 18.0407 11.1668 18.0509 11.4848 17.8746C11.8027 17.6984 12 17.3635 12 17V13.1793L19.47 17.848C19.7783 18.0407 20.1668 18.0509 20.4848 17.8746C20.8027 17.6984 21 17.3635 21 17V7.00001C21 6.63648 20.8027 6.30165 20.4848 6.12538C20.1668 5.94911 19.7783 5.95936 19.47 6.15199L12 10.8207V7.00001ZM10 15.1958L4.8868 12L10 8.80421V15.1958ZM19 15.1958L13.8868 12L19 8.80421V15.1958Z" fill="black"/>
</svg>
