<svg width="24" height="24" viewBox="0 0 24 24" fill="none" xmlns="http://www.w3.org/2000/svg">
<path fill-rule="evenodd" clip-rule="evenodd" d="M16.73 5L16.78 5.01001H16.83L16.88 5.02002L16.9301 5.03003L16.97 5.05005L17.02 5.06006L17.0699 5.07996L17.12 5.09998L17.16 5.13L17.2 5.15002L17.25 5.18005L17.29 5.20996L17.33 5.23999L17.36 5.28003L17.4 5.31006L18.99 7H20H20.05L20.1 7.01001H20.15L20.2 7.02002L20.24 7.03003L20.29 7.04004L20.34 7.06006L20.38 7.07996L20.4301 7.09998L20.47 7.12L20.51 7.14001L20.5601 7.17004L20.6 7.19995L20.63 7.22998L20.67 7.26001L20.71 7.29004L20.74 7.32996L20.77 7.37L20.8 7.40002L20.83 7.43994L20.86 7.48999L20.88 7.53003L20.9 7.56995L20.92 7.62L20.9399 7.66003L20.96 7.70996L20.97 7.76001L20.98 7.80005L20.99 7.84998L21 7.90002V7.94995V8V18V18.05V18.1L20.99 18.15L20.98 18.2L20.97 18.24L20.96 18.29L20.9399 18.34L20.92 18.38L20.9 18.4301L20.88 18.47L20.86 18.51L20.83 18.5601L20.8 18.6L20.77 18.63L20.74 18.67L20.71 18.71L20.67 18.74L20.63 18.77L20.6 18.8L20.5601 18.83L20.51 18.86L20.47 18.88L20.4301 18.9L20.38 18.92L20.34 18.9399L20.29 18.96L20.24 18.97L20.2 18.98L20.15 18.99L20.1 19H20.05H20H4H3.94995H3.90002L3.84998 18.99L3.80005 18.98L3.76001 18.97L3.70996 18.96L3.66003 18.9399L3.62 18.92L3.56995 18.9L3.53003 18.88L3.48999 18.86L3.43994 18.83L3.40002 18.8L3.37 18.77L3.32996 18.74L3.29004 18.71L3.26001 18.67L3.22998 18.63L3.19995 18.6L3.17004 18.5601L3.14001 18.51L3.12 18.47L3.09998 18.4301L3.07996 18.38L3.06006 18.34L3.04004 18.29L3.03003 18.24L3.02002 18.2L3.01001 18.15V18.1L3 18.05V18V8V7.94995L3.01001 7.90002V7.84998L3.02002 7.80005L3.03003 7.76001L3.04004 7.70996L3.06006 7.66003L3.07996 7.62L3.09998 7.56995L3.12 7.53003L3.14001 7.48999L3.17004 7.43994L3.19995 7.40002L3.22998 7.37L3.26001 7.32996L3.29004 7.29004L3.32996 7.26001L3.37 7.22998L3.40002 7.19995L3.43994 7.17004L3.48999 7.14001L3.53003 7.12L3.56995 7.09998L3.62 7.07996L3.66003 7.06006L3.70996 7.04004L3.76001 7.03003L3.80005 7.02002L3.84998 7.01001H3.90002L3.94995 7H4H11.02L12.6 5.31995L12.63 5.28003L12.67 5.23999L12.71 5.20996L12.75 5.18005L12.8 5.15002L12.84 5.13L12.88 5.09998L12.9301 5.07996L12.98 5.06006L13.03 5.05005L13.0699 5.03003L13.12 5.02002L13.17 5.01001H13.23L13.28 5H13.33H16.67H16.73ZM4 8V18H20V8H4ZM12.08 10H12.15L12.23 10.01L12.3101 10.02H12.38L12.46 10.04L12.53 10.05L12.6 10.0601L12.6801 10.08L12.75 10.1L12.8199 10.11L12.89 10.13L12.96 10.16L13.03 10.1801L13.1 10.21L13.17 10.24L13.23 10.27L13.3 10.3L13.37 10.33L13.4301 10.36L13.49 10.4L13.5601 10.4301L13.62 10.47L13.6801 10.51L13.74 10.55L13.79 10.6L13.85 10.64L13.91 10.6801L13.96 10.73L14.02 10.78L14.0699 10.83L14.12 10.88L14.17 10.9301L14.22 10.98L14.27 11.04L14.3199 11.09L14.36 11.15L14.4 11.21L14.45 11.26L14.49 11.3199L14.53 11.38L14.5699 11.4399L14.6 11.51L14.64 11.5699L14.67 11.63L14.7 11.7L14.74 11.77L14.76 11.83L14.79 11.9L14.8199 11.97L14.84 12.04L14.87 12.11L14.89 12.1801L14.9 12.25L14.92 12.3199L14.9399 12.4L14.95 12.47L14.97 12.54L14.98 12.62V12.6899L14.99 12.77L15 12.85V12.92V13V13.08V13.15L14.99 13.23L14.98 13.3101V13.38L14.97 13.46L14.95 13.53L14.9399 13.6L14.92 13.6801L14.9 13.75L14.89 13.8199L14.87 13.89L14.84 13.96L14.8199 14.03L14.79 14.1L14.76 14.17L14.74 14.23L14.7 14.3L14.67 14.37L14.64 14.4301L14.6 14.49L14.5699 14.5601L14.53 14.62L14.49 14.6801L14.45 14.74L14.4 14.79L14.36 14.85L14.3199 14.91L14.27 14.96L14.22 15.02L14.17 15.0699L14.12 15.12L14.0699 15.17L14.02 15.22L13.96 15.27L13.91 15.3199L13.85 15.36L13.79 15.4L13.74 15.45L13.6801 15.49L13.62 15.53L13.5601 15.5699L13.49 15.6L13.4301 15.64L13.37 15.67L13.3 15.7L13.23 15.74L13.17 15.76L13.1 15.79L13.03 15.8199L12.96 15.84L12.89 15.87L12.8199 15.89L12.75 15.9L12.6801 15.92L12.6 15.9399L12.53 15.95L12.46 15.96L12.38 15.98H12.3101L12.23 15.99L12.15 16H12.08H12H11.92H11.85L11.77 15.99L11.6899 15.98H11.62L11.54 15.96L11.47 15.95L11.4 15.9399L11.3199 15.92L11.25 15.9L11.1801 15.89L11.11 15.87L11.04 15.84L10.97 15.8199L10.9 15.79L10.83 15.76L10.77 15.74L10.7 15.7L10.63 15.67L10.5699 15.64L10.51 15.6L10.4399 15.5699L10.38 15.53L10.3199 15.49L10.26 15.45L10.21 15.4L10.15 15.36L10.09 15.3199L10.04 15.27L9.97998 15.22L9.93005 15.17L9.88 15.12L9.82996 15.0699L9.78003 15.02L9.72998 14.96L9.68005 14.91L9.64001 14.85L9.59998 14.79L9.55005 14.74L9.51001 14.6801L9.46997 14.62L9.43005 14.5601L9.40002 14.49L9.35999 14.4301L9.32996 14.37L9.30005 14.3L9.27002 14.23L9.23999 14.17L9.20996 14.1L9.18005 14.03L9.16003 13.96L9.13 13.89L9.10999 13.8199L9.09998 13.75L9.07996 13.6801L9.06006 13.6L9.05005 13.53L9.04004 13.46L9.02002 13.38V13.3101L9.01001 13.23L9 13.15V13.08V13V12.92V12.85L9.01001 12.77L9.02002 12.6899V12.62L9.04004 12.54L9.05005 12.47L9.06006 12.4L9.07996 12.3199L9.09998 12.25L9.10999 12.1801L9.13 12.11L9.16003 12.04L9.18005 11.97L9.20996 11.9L9.23999 11.83L9.27002 11.77L9.30005 11.7L9.32996 11.63L9.35999 11.5699L9.40002 11.51L9.43005 11.4399L9.46997 11.38L9.51001 11.3199L9.55005 11.26L9.59998 11.21L9.64001 11.15L9.68005 11.09L9.72998 11.04L9.78003 10.98L9.82996 10.9301L9.88 10.88L9.93005 10.83L9.97998 10.78L10.04 10.73L10.09 10.6801L10.15 10.64L10.21 10.6L10.26 10.55L10.3199 10.51L10.38 10.47L10.4399 10.4301L10.51 10.4L10.5699 10.36L10.63 10.33L10.7 10.3L10.77 10.27L10.83 10.24L10.9 10.21L10.97 10.1801L11.04 10.16L11.11 10.13L11.1801 10.11L11.25 10.1L11.3199 10.08L11.4 10.0601L11.47 10.05L11.54 10.04L11.62 10.02H11.6899L11.77 10.01L11.85 10H11.92H12H12.08ZM11.95 11H11.9L11.85 11.01H11.8L11.75 11.02H11.7L11.65 11.03L11.6 11.04L11.55 11.05L11.5 11.0601L11.45 11.08L11.4 11.09L11.36 11.11L11.3101 11.12L11.27 11.14L11.22 11.16L11.1801 11.1801L11.13 11.2L11.09 11.22L11.05 11.24L11.01 11.27L10.96 11.29L10.92 11.3199L10.88 11.34L10.84 11.37L10.8 11.4L10.77 11.4301L10.73 11.46L10.6899 11.49L10.66 11.52L10.62 11.55L10.59 11.59L10.55 11.62L10.52 11.66L10.49 11.6899L10.46 11.73L10.4301 11.77L10.4 11.8L10.37 11.84L10.34 11.88L10.3199 11.92L10.29 11.96L10.27 12.01L10.24 12.05L10.22 12.09L10.2 12.13L10.1801 12.1801L10.16 12.22L10.14 12.27L10.12 12.3101L10.11 12.36L10.09 12.41L10.08 12.45L10.0601 12.5L10.05 12.55L10.04 12.6L10.03 12.65L10.02 12.7V12.75L10.01 12.8V12.85L10 12.9V12.95V13V13.05V13.1L10.01 13.15V13.2L10.02 13.26V13.3L10.03 13.35L10.04 13.4L10.05 13.45L10.0601 13.5L10.08 13.55L10.09 13.59L10.11 13.64L10.12 13.6899L10.14 13.73L10.16 13.78L10.1801 13.8199L10.2 13.87L10.22 13.91L10.24 13.95L10.27 14L10.29 14.04L10.3199 14.08L10.34 14.12L10.37 14.16L10.4 14.2L10.4301 14.23L10.46 14.27L10.49 14.3101L10.52 14.34L10.55 14.38L10.59 14.41L10.62 14.45L10.66 14.48L10.6899 14.51L10.73 14.54L10.77 14.5699L10.8 14.6L10.84 14.63L10.88 14.66L10.92 14.6801L10.96 14.71L11.01 14.74L11.05 14.76L11.09 14.78L11.13 14.8L11.1801 14.8199L11.22 14.84L11.27 14.86L11.3101 14.88L11.36 14.89L11.4 14.91L11.45 14.92L11.5 14.9399L11.55 14.95L11.6 14.96L11.65 14.97L11.7 14.98H11.75L11.8 14.99H11.85L11.9 15H11.95H12H12.05H12.1L12.15 14.99H12.2L12.26 14.98H12.3L12.35 14.97L12.4 14.96L12.45 14.95L12.5 14.9399L12.55 14.92L12.59 14.91L12.64 14.89L12.6899 14.88L12.73 14.86L12.78 14.84L12.8199 14.8199L12.87 14.8L12.91 14.78L12.95 14.76L13 14.74L13.04 14.71L13.08 14.6801L13.12 14.66L13.16 14.63L13.2 14.6L13.23 14.5699L13.27 14.54L13.3101 14.51L13.34 14.48L13.38 14.45L13.41 14.41L13.45 14.38L13.48 14.34L13.51 14.3101L13.54 14.27L13.5699 14.23L13.6 14.2L13.63 14.16L13.66 14.12L13.6801 14.08L13.71 14.04L13.74 14L13.76 13.95L13.78 13.91L13.8 13.87L13.8199 13.8199L13.84 13.78L13.86 13.73L13.88 13.6899L13.89 13.64L13.91 13.59L13.92 13.55L13.9399 13.5L13.95 13.45L13.96 13.4L13.97 13.35L13.98 13.3V13.26L13.99 13.2V13.15L14 13.1V13.05V13V12.95V12.9L13.99 12.85V12.8L13.98 12.75V12.7L13.97 12.65L13.96 12.6L13.95 12.55L13.9399 12.5L13.92 12.45L13.91 12.41L13.89 12.36L13.88 12.3101L13.86 12.27L13.84 12.22L13.8199 12.1801L13.8 12.13L13.78 12.09L13.76 12.05L13.74 12.01L13.71 11.96L13.6801 11.92L13.66 11.88L13.63 11.84L13.6 11.8L13.5699 11.77L13.54 11.73L13.51 11.6899L13.48 11.66L13.45 11.62L13.41 11.59L13.38 11.55L13.34 11.52L13.3101 11.49L13.27 11.46L13.23 11.4301L13.2 11.4L13.16 11.37L13.12 11.34L13.08 11.3199L13.04 11.29L13 11.27L12.95 11.24L12.91 11.22L12.87 11.2L12.8199 11.1801L12.78 11.16L12.73 11.14L12.6899 11.12L12.64 11.11L12.59 11.09L12.55 11.08L12.5 11.0601L12.45 11.05L12.4 11.04L12.35 11.03L12.3 11.02H12.26L12.2 11.01H12.15L12.1 11H12.05H12H11.95ZM6.05005 9L6.09998 9.01001H6.15002L6.19995 9.02002L6.25 9.03003L6.30005 9.05005L6.33997 9.06006L6.39001 9.07996L6.43005 9.09998L6.47998 9.12L6.52002 9.14001L6.56006 9.17004L6.59998 9.19995L6.64001 9.22998L6.67004 9.26001L6.70996 9.29004L6.73999 9.32996L6.77002 9.35999L6.80005 9.40002L6.82996 9.43994L6.85999 9.47998L6.88 9.52002L6.90002 9.56995L6.92004 9.60999L6.93994 9.66003L6.94995 9.69995L6.96997 9.75L6.97998 9.80005L6.98999 9.84998L7 9.90002V9.94995V10V10.05V10.1L6.98999 10.15L6.97998 10.2L6.96997 10.25L6.94995 10.3L6.93994 10.34L6.92004 10.39L6.90002 10.4301L6.88 10.48L6.85999 10.52L6.82996 10.5601L6.80005 10.6L6.77002 10.64L6.73999 10.67L6.70996 10.71L6.67004 10.74L6.64001 10.77L6.59998 10.8L6.56006 10.83L6.52002 10.86L6.47998 10.88L6.43005 10.9L6.39001 10.92L6.33997 10.9399L6.30005 10.95L6.25 10.97L6.19995 10.98L6.15002 10.99L6.09998 11H6.05005H6H5.94995H5.90002L5.84998 10.99L5.80005 10.98L5.75 10.97L5.69995 10.95L5.66003 10.9399L5.60999 10.92L5.56995 10.9L5.52002 10.88L5.47998 10.86L5.43994 10.83L5.40002 10.8L5.35999 10.77L5.32996 10.74L5.29004 10.71L5.26001 10.67L5.22998 10.64L5.19995 10.6L5.17004 10.5601L5.14001 10.52L5.12 10.48L5.09998 10.4301L5.07996 10.39L5.06006 10.34L5.05005 10.3L5.03003 10.25L5.02002 10.2L5.01001 10.15V10.1L5 10.05V10V9.94995L5.01001 9.90002V9.84998L5.02002 9.80005L5.03003 9.75L5.05005 9.69995L5.06006 9.66003L5.07996 9.60999L5.09998 9.56995L5.12 9.52002L5.14001 9.47998L5.17004 9.43994L5.19995 9.40002L5.22998 9.35999L5.26001 9.32996L5.29004 9.29004L5.32996 9.26001L5.35999 9.22998L5.40002 9.19995L5.43994 9.17004L5.47998 9.14001L5.52002 9.12L5.56995 9.09998L5.60999 9.07996L5.66003 9.06006L5.69995 9.05005L5.75 9.03003L5.80005 9.02002L5.84998 9.01001H5.90002L5.94995 9H6H6.05005ZM13.33 6L12.39 7H17.62L16.67 6H13.33Z" fill="#333333"/>
</svg>
