<svg width="24" height="24" viewBox="0 0 24 24" fill="none" xmlns="http://www.w3.org/2000/svg">
<path fill-rule="evenodd" clip-rule="evenodd" d="M17.4099 21.41C17.7899 21.04 18 20.53 18 20V4C18 3.46997 17.7899 2.961 17.4099 2.586C17.0399 2.211 16.53 2 16 2H8C7.47 2 6.96009 2.211 6.59009 2.586C6.21009 2.961 6 3.46997 6 4V20C6 20.53 6.21009 21.04 6.59009 21.41C6.96009 21.79 7.47 22 8 22H16C16.53 22 17.0399 21.79 17.4099 21.41ZM8 4H16V20H8V4ZM13.8501 18.145C13.9501 18.24 14 18.37 14 18.5C14 18.63 13.9501 18.76 13.8501 18.855C13.7601 18.945 13.63 19 13.5 19H10.5C10.37 19 10.2399 18.945 10.1499 18.855C10.0499 18.76 10 18.63 10 18.5C10 18.37 10.0499 18.24 10.1499 18.145C10.2399 18.055 10.37 18 10.5 18H13.5C13.63 18 13.7601 18.055 13.8501 18.145Z" fill="#333333"/>
</svg>
