<svg width="24" height="24" viewBox="0 0 24 24" fill="none" xmlns="http://www.w3.org/2000/svg">
<path fill-rule="evenodd" clip-rule="evenodd" d="M15.9962 4.99829C16.5462 4.99829 16.9962 5.44629 16.9962 5.99829C16.9962 8.57528 16.9962 15.4213 16.9962 17.9983C16.9962 18.5503 16.5462 18.9983 15.9962 18.9983C15.4462 18.9983 14.9962 18.5503 14.9962 17.9983C14.9962 15.4213 14.9962 8.57528 14.9962 5.99829C14.9962 5.44629 15.4462 4.99829 15.9962 4.99829ZM7.99621 4.99829C8.54621 4.99829 8.99621 5.44629 8.99621 5.99829C8.99621 8.57528 8.99621 15.4213 8.99621 17.9983C8.99621 18.5503 8.54621 18.9983 7.99621 18.9983C7.44622 18.9983 6.99622 18.5503 6.99622 17.9983C6.99622 15.4213 6.99622 8.57528 6.99622 5.99829C6.99622 5.44629 7.44622 4.99829 7.99621 4.99829Z" fill="#333333"/>
</svg>
