<svg width="24" height="24" viewBox="0 0 24 24" fill="none" xmlns="http://www.w3.org/2000/svg">
<path fill-rule="evenodd" clip-rule="evenodd" d="M11.0008 5.20569C11.0008 4.80169 11.2409 4.43674 11.6209 4.28174C11.9909 4.12774 12.4207 4.21272 12.7107 4.49872C13.6607 5.44772 14.7908 6.57775 15.5008 7.29175C15.6908 7.47875 15.7908 7.73372 15.7908 7.99872C15.7908 8.26372 15.6908 8.51869 15.5008 8.70568C14.3508 9.85468 12.2107 11.9987 12.2107 11.9987C12.2107 11.9987 14.3508 14.1427 15.5008 15.2917C15.6908 15.4787 15.7908 15.7337 15.7908 15.9987C15.7908 16.2637 15.6908 16.5187 15.5008 16.7057C14.7908 17.4197 13.6607 18.5497 12.7107 19.4987C12.4207 19.7847 11.9909 19.8697 11.6209 19.7157C11.2409 19.5607 11.0008 19.1957 11.0008 18.7917C11.0008 16.4367 11.0008 13.2057 11.0008 13.2057C11.0008 13.2057 8.74089 15.4647 7.85089 16.3527C7.76089 16.4467 7.63079 16.4987 7.50079 16.4987C7.37079 16.4987 7.2407 16.4467 7.1507 16.3527C7.0507 16.2587 7.00079 16.1317 7.00079 15.9987C7.00079 15.8657 7.0507 15.7387 7.1507 15.6447C8.12069 14.6677 10.7908 11.9987 10.7908 11.9987C10.7908 11.9987 8.12069 9.32972 7.1507 8.35272C7.0507 8.25872 7.00079 8.13172 7.00079 7.99872C7.00079 7.86572 7.0507 7.73871 7.1507 7.64471C7.2407 7.55171 7.37079 7.49872 7.50079 7.49872C7.63079 7.49872 7.76089 7.55171 7.85089 7.64471C8.74089 8.53371 11.0008 10.7917 11.0008 10.7917C11.0008 10.7917 11.0008 7.56069 11.0008 5.20569ZM12.0008 18.7917L14.7908 15.9987L12.0008 13.2057V18.7917ZM12.0008 10.7917L14.7908 7.99872L12.0008 5.20569V10.7917Z" fill="black"/>
</svg>
