<svg width="24" height="24" viewBox="0 0 24 24" fill="none" xmlns="http://www.w3.org/2000/svg">
<rect width="10.5" height="18" fill="black" fill-opacity="0" transform="translate(6.01111 3) scale(1.14286 1)"/>
<path d="M18.0111 3H6.01111V21H18.0111V3Z" stroke="#333333" stroke-width="1.86" stroke-miterlimit="100" stroke-linecap="square" stroke-linejoin="round"/>
<rect width="8" height="8" fill="black" fill-opacity="0" transform="translate(8 5)"/>
<rect width="8" height="8" fill="black" fill-opacity="0" transform="translate(8 5)"/>
<path fill-rule="evenodd" clip-rule="evenodd" d="M12.1001 5.00098L12.2 5.005L12.3101 5.01202L12.4099 5.021L12.51 5.03198L12.6101 5.04602L12.71 5.06201L12.8 5.08099L12.8999 5.10303L13 5.12598L13.0901 5.15198L13.1899 5.17999L13.28 5.211L13.3799 5.24298L13.47 5.27802L13.5601 5.315L13.6499 5.354L13.74 5.39502L13.8201 5.43903L13.9099 5.48401L13.99 5.53101L14.0701 5.57898L14.1599 5.63098L14.24 5.68402L14.3201 5.73901L14.3899 5.79602L14.47 5.854L14.55 5.91498L14.6201 5.97601L14.6899 6.03998L14.76 6.10498L14.8301 6.17102L14.8899 6.24103L14.96 6.31097L15.02 6.38098L15.0901 6.45697L15.1499 6.53003L15.2 6.60699L15.26 6.68402L15.3201 6.763L15.3701 6.84399L15.4199 6.92499L15.47 7.008L15.52 7.09302L15.5601 7.17902L15.6101 7.26703L15.6499 7.354L15.6799 7.44299L15.72 7.534L15.76 7.62402L15.79 7.71802L15.8201 7.81097L15.8501 7.90503L15.8701 8.00201L15.8999 8.09698L15.9199 8.19501L15.9399 8.29303L15.95 8.39203L15.97 8.49103L15.98 8.59302L15.99 8.69501V8.79498L16 8.89697V9V9.10303L15.99 9.20502V9.30499L15.98 9.40698L15.97 9.50897L15.95 9.60797L15.9399 9.70697L15.9199 9.80499L15.8999 9.90302L15.8701 9.99799L15.8501 10.1L15.8201 10.19L15.79 10.28L15.76 10.38L15.72 10.47L15.6799 10.56L15.6499 10.65L15.6101 10.73L15.5601 10.82L15.52 10.91L15.47 10.99L15.4199 11.08L15.3701 11.16L15.3201 11.24L15.26 11.32L15.2 11.39L15.1499 11.47L15.0901 11.54L15.02 11.62L14.96 11.69L14.8899 11.76L14.8301 11.83L14.76 11.89L14.6899 11.96L14.6201 12.02L14.55 12.09L14.47 12.15L14.3899 12.2L14.3201 12.26L14.24 12.32L14.1599 12.37L14.0701 12.42L13.99 12.47L13.9099 12.52L13.8201 12.56L13.74 12.61L13.6499 12.65L13.5601 12.69L13.47 12.72L13.3799 12.76L13.28 12.79L13.1899 12.82L13.0901 12.85L13 12.87L12.8999 12.9L12.8 12.92L12.71 12.94L12.6101 12.95L12.51 12.97L12.4099 12.98L12.3101 12.99L12.2 13H12.1001H12H11.8999H11.8L11.6899 12.99L11.5901 12.98L11.49 12.97L11.3899 12.95L11.29 12.94L11.2 12.92L11.1001 12.9L11 12.87L10.9099 12.85L10.8101 12.82L10.72 12.79L10.6201 12.76L10.53 12.72L10.4399 12.69L10.3501 12.65L10.27 12.61L10.1799 12.56L10.0901 12.52L10.01 12.47L9.92993 12.42L9.84009 12.37L9.76001 12.32L9.67993 12.26L9.61011 12.2L9.53003 12.15L9.44995 12.09L9.37988 12.02L9.31006 11.96L9.23999 11.89L9.16992 11.83L9.11011 11.76L9.04004 11.69L8.97998 11.62L8.90991 11.55L8.8501 11.47L8.80005 11.39L8.73999 11.32L8.67993 11.24L8.62988 11.16L8.58008 11.08L8.53003 10.99L8.47998 10.91L8.43994 10.82L8.38989 10.74L8.3501 10.65L8.32007 10.56L8.28003 10.47L8.23999 10.37L8.20996 10.28L8.17993 10.19L8.1499 10.1L8.12988 9.99799L8.1001 9.901L8.08008 9.80499L8.06006 9.70697L8.05005 9.60797L8.03003 9.50897L8.02002 9.40698L8.01001 9.30701V9.20502L8 9.10303V9V8.89697L8.01001 8.79498V8.69299L8.02002 8.59302L8.03003 8.49103L8.05005 8.39203L8.06006 8.29303L8.08008 8.19501L8.1001 8.099L8.12988 8.00201L8.1499 7.90503L8.17993 7.81097L8.20996 7.716L8.23999 7.62598L8.28003 7.534L8.32007 7.44299L8.3501 7.354L8.38989 7.26501L8.43994 7.17902L8.47998 7.09302L8.53003 7.008L8.58008 6.92499L8.62988 6.84399L8.67993 6.76398L8.73999 6.68402L8.80005 6.60699L8.8501 6.53003L8.90991 6.45502L8.97998 6.383L9.04004 6.31097L9.11011 6.23999L9.16992 6.172L9.23999 6.10498L9.31006 6.039L9.37988 5.97601L9.44995 5.91498L9.53003 5.854L9.61011 5.79602L9.67993 5.73901L9.76001 5.68402L9.84009 5.63098L9.92993 5.58002L10.01 5.53101L10.0901 5.48401L10.1799 5.43799L10.27 5.39502L10.3501 5.354L10.4399 5.315L10.53 5.27802L10.6201 5.24298L10.72 5.21002L10.8101 5.17999L10.9099 5.15198L11 5.12598L11.1001 5.10199L11.2 5.08099L11.29 5.06201L11.3899 5.04602L11.49 5.03198L11.5901 5.021L11.6899 5.01202L11.8 5.005L11.8999 5.00098L12 5L12.1001 5.00098ZM11.9199 6.00098L11.8501 6.00403L11.77 6.00897L11.6899 6.01599L11.6201 6.02399L11.54 6.03497L11.47 6.047L11.3999 6.06097L11.3201 6.07703L11.25 6.09497L11.1799 6.11401L11.1101 6.13501L11.04 6.15802L10.97 6.18201L10.8999 6.20801L10.8301 6.23602L10.77 6.26501L10.7 6.29602L10.6399 6.328L10.5701 6.362L10.51 6.39801L10.45 6.435L10.3799 6.47302L10.3201 6.513L10.26 6.55402L10.21 6.59601L10.1499 6.64001L10.0901 6.685L10.04 6.73199L9.97998 6.78003L9.92993 6.82898L9.87988 6.87903L9.83008 6.93103L9.78003 6.98297L9.72998 7.03699L9.67993 7.09198L9.63989 7.14801L9.6001 7.20599L9.55005 7.26398L9.51001 7.323L9.46997 7.38397L9.42993 7.44501L9.3999 7.50702L9.36011 7.57098L9.33008 7.63501L9.30005 7.70001L9.26001 7.76599L9.23999 7.83301L9.20996 7.90002L9.17993 7.96899L9.15991 8.03802L9.13989 8.10797L9.11011 8.17902L9.1001 8.25098L9.08008 8.323L9.06006 8.396L9.05005 8.46899L9.03003 8.54303L9.02002 8.61798V8.69299L9.01001 8.76898L9 8.84601V8.92297V9V9.07703V9.15399L9.01001 9.23102L9.02002 9.30701V9.38202L9.03003 9.45697L9.05005 9.53101L9.06006 9.604L9.08008 9.677L9.1001 9.74902L9.11011 9.82098L9.13989 9.89203L9.15991 9.96198L9.17993 10.03L9.20996 10.1L9.23999 10.17L9.26001 10.23L9.30005 10.3L9.33008 10.37L9.36011 10.43L9.3999 10.49L9.42993 10.56L9.46997 10.62L9.51001 10.68L9.55005 10.74L9.6001 10.79L9.63989 10.85L9.67993 10.91L9.72998 10.96L9.78003 11.02L9.83008 11.07L9.87988 11.12L9.92993 11.17L9.97998 11.22L10.04 11.27L10.0901 11.32L10.1499 11.36L10.21 11.4L10.26 11.45L10.3201 11.49L10.3799 11.53L10.45 11.57L10.51 11.6L10.5701 11.64L10.6399 11.67L10.7 11.7L10.77 11.74L10.8301 11.76L10.8999 11.79L10.97 11.82L11.04 11.84L11.1101 11.87L11.1799 11.89L11.25 11.9L11.3201 11.92L11.3999 11.94L11.47 11.95L11.54 11.97L11.6201 11.98H11.6899L11.77 11.99L11.8501 12H11.9199H12H12.0801H12.1499L12.23 11.99L12.3101 11.98H12.3799L12.46 11.97L12.53 11.95L12.6001 11.94L12.6799 11.92L12.75 11.9L12.8201 11.89L12.8899 11.87L12.96 11.84L13.03 11.82L13.1001 11.79L13.1699 11.76L13.23 11.74L13.3 11.7L13.3701 11.67L13.4299 11.64L13.49 11.6L13.55 11.57L13.6201 11.53L13.6799 11.49L13.74 11.45L13.79 11.4L13.8501 11.36L13.9099 11.32L13.96 11.27L14.02 11.22L14.0701 11.17L14.1201 11.12L14.1699 11.07L14.22 11.02L14.27 10.96L14.3201 10.91L14.3601 10.85L14.3999 10.79L14.45 10.74L14.49 10.68L14.53 10.62L14.5701 10.56L14.6001 10.49L14.6399 10.43L14.6699 10.37L14.7 10.3L14.74 10.23L14.76 10.17L14.79 10.1L14.8201 10.03L14.8401 9.96198L14.8701 9.89203L14.8899 9.82098L14.9099 9.74902L14.9199 9.677L14.9399 9.604L14.95 9.53101L14.97 9.45697L14.98 9.38202V9.30701L14.99 9.23102L15 9.15399V9.07703V9V8.92297V8.84601L14.99 8.76898L14.98 8.69299V8.61798L14.97 8.54303L14.95 8.46899L14.9399 8.396L14.9199 8.323L14.9099 8.25098L14.8899 8.17902L14.8701 8.10797L14.8401 8.03802L14.8201 7.96899L14.79 7.90002L14.76 7.83301L14.74 7.76599L14.7 7.70001L14.6699 7.63501L14.6399 7.57098L14.6001 7.50702L14.5701 7.44501L14.53 7.38397L14.49 7.323L14.45 7.26398L14.3999 7.20599L14.3601 7.14801L14.3201 7.09198L14.27 7.03699L14.22 6.98297L14.1699 6.93103L14.1201 6.87903L14.0701 6.82898L14.02 6.78003L13.96 6.73199L13.9099 6.685L13.8501 6.64001L13.79 6.59601L13.74 6.55402L13.6799 6.513L13.6201 6.47302L13.55 6.435L13.49 6.39801L13.4299 6.362L13.3701 6.328L13.3 6.29602L13.23 6.26501L13.1699 6.23602L13.1001 6.20801L13.03 6.18201L12.96 6.15802L12.8899 6.13501L12.8201 6.11401L12.75 6.09497L12.6799 6.07703L12.6001 6.06097L12.53 6.047L12.46 6.03497L12.3799 6.02399L12.3101 6.01599L12.23 6.00897L12.1499 6.00403L12.0801 6.00098L12 6L11.9199 6.00098Z" fill="#333333"/>
<rect width="2" height="2" fill="black" fill-opacity="0" transform="translate(11 8)"/>
<path d="M12 10C12.5523 10 13 9.55228 13 9C13 8.44772 12.5523 8 12 8C11.4477 8 11 8.44772 11 9C11 9.55228 11.4477 10 12 10Z" fill="#333333"/>
<rect width="4" height="4" fill="black" fill-opacity="0" transform="translate(10 14.5)"/>
<path d="M12 18.5C13.1046 18.5 14 17.6046 14 16.5C14 15.3954 13.1046 14.5 12 14.5C10.8954 14.5 10 15.3954 10 16.5C10 17.6046 10.8954 18.5 12 18.5Z" stroke="#333333" stroke-miterlimit="100" stroke-linecap="square" stroke-linejoin="round"/>
</svg>
