<svg width="24" height="24" viewBox="0 0 24 24" fill="none" xmlns="http://www.w3.org/2000/svg">
<path fill-rule="evenodd" clip-rule="evenodd" d="M8.85353 18.3523C8.94653 18.2583 8.99953 18.1312 8.99953 17.9983V5.99829C8.99953 5.86523 8.94653 5.73828 8.85353 5.64429C8.75954 5.55127 8.63252 5.49829 8.49953 5.49829C8.36653 5.49829 8.23952 5.55127 8.14552 5.64429C8.05252 5.73828 7.99953 5.86523 7.99953 5.99829V17.9983C7.99953 18.1312 8.05252 18.2583 8.14552 18.3523C8.23952 18.4453 8.36653 18.4983 8.49953 18.4983C8.63252 18.4983 8.75954 18.4453 8.85353 18.3523ZM15.8542 18.3523C15.9472 18.2583 16.0002 18.1312 16.0002 17.9983V5.99829C16.0002 5.86523 15.9472 5.73828 15.8542 5.64429C15.7928 5.58362 15.7174 5.53992 15.6355 5.51685C15.5918 5.50464 15.5464 5.49829 15.5002 5.49829C15.3672 5.49829 15.2401 5.55127 15.1461 5.64429C15.0531 5.73828 15.0002 5.86523 15.0002 5.99829V17.9983C15.0002 18.1312 15.0531 18.2583 15.1461 18.3523C15.2401 18.4453 15.3672 18.4983 15.5002 18.4983C15.6331 18.4983 15.7602 18.4453 15.8542 18.3523Z" fill="#333333"/>
</svg>
