<svg width="24" height="24" viewBox="0 0 24 24" fill="none" xmlns="http://www.w3.org/2000/svg">
<path fill-rule="evenodd" clip-rule="evenodd" d="M18.9969 13.4986C18.9969 13.7746 18.7769 13.9986 18.4969 13.9986C17.3669 13.9986 14.7069 13.9986 14.7069 13.9986C14.7069 13.9986 18.197 17.4876 19.347 18.6366C19.437 18.7326 19.4869 18.8626 19.4869 18.9986C19.4869 19.1346 19.437 19.2646 19.347 19.3606C19.347 19.3606 19.347 19.3616 19.337 19.3616C19.247 19.4526 19.1269 19.5036 18.9969 19.5036C18.8669 19.5036 18.7469 19.4526 18.6569 19.3616C17.5269 18.2306 13.9969 14.7056 13.9969 14.7056C13.9969 14.7056 13.9969 17.3666 13.9969 18.4986C13.9969 18.7746 13.7769 18.9986 13.4969 18.9986C13.3669 18.9986 13.2368 18.9456 13.1468 18.8526C13.0468 18.7586 12.9969 18.6316 12.9969 18.4986C12.9969 17.5116 12.9969 15.2966 12.9969 13.9986C12.9969 13.7336 13.107 13.4787 13.287 13.2917C13.477 13.1037 13.7369 12.9986 13.9969 12.9986C15.2969 12.9986 17.5069 12.9986 18.4969 12.9986C18.6269 12.9986 18.757 13.0516 18.847 13.1446C18.947 13.2386 18.9969 13.3656 18.9969 13.4986ZM10.9969 9.99866C10.9969 10.2637 10.8869 10.5186 10.7069 10.7056C10.5169 10.8936 10.2569 10.9987 9.99695 10.9987C8.69695 10.9987 6.48695 10.9987 5.49695 10.9987C5.36695 10.9987 5.23686 10.9457 5.14686 10.8527C5.04686 10.7587 4.99695 10.6317 4.99695 10.4987C4.99695 10.2227 5.21695 9.99866 5.49695 9.99866C6.62695 9.99866 9.28699 9.99866 9.28699 9.99866C9.28699 9.99866 5.77686 6.49069 4.64686 5.35169C4.44686 5.15669 4.44686 4.84064 4.64686 4.64564C4.64686 4.64564 4.64686 4.64566 4.64686 4.64466C4.83686 4.44966 5.15705 4.44966 5.34705 4.64466C6.48705 5.78566 9.99695 9.29169 9.99695 9.29169C9.99695 9.29169 9.99695 6.64969 9.99695 5.51069C9.99695 5.22769 10.227 4.99867 10.507 4.99867C10.637 4.99867 10.7671 5.04967 10.8571 5.14167C10.9471 5.23267 10.9969 5.35666 10.9969 5.48566C10.9969 6.46566 10.9969 8.69466 10.9969 9.99866Z" fill="black"/>
</svg>
