<svg width="24" height="24" viewBox="0 0 24 24" fill="none" xmlns="http://www.w3.org/2000/svg">
<path fill-rule="evenodd" clip-rule="evenodd" d="M21 18C21.26 18 21.52 18.11 21.71 18.29C21.89 18.48 22 18.74 22 19C22 19.26 21.89 19.52 21.71 19.71C21.52 19.89 21.26 20 21 20C17.59 20 6.41 20 3 20C2.74 20 2.48004 19.89 2.29004 19.71C2.11004 19.52 2 19.26 2 19C2 18.74 2.11004 18.48 2.29004 18.29C2.48004 18.11 2.74 18 3 18C6.41 18 17.59 18 21 18ZM21 16C21 16.55 20.55 17 20 17C16.85 17 7.15 17 4 17C3.45 17 3 16.55 3 16C3 13.578 3 7.421 3 5C3 4.448 3.45 4 4 4C7.15 4 16.85 4 20 4C20.55 4 21 4.448 21 5C21 7.421 21 13.578 21 16ZM19 6H5V15H19V6Z" fill="black"/>
<path d="M4 5V16H20V5H4Z" fill="black" fill-opacity="0.1"/>
</svg>
