<svg width="24" height="24" viewBox="0 0 24 24" fill="none" xmlns="http://www.w3.org/2000/svg">
<path fill-rule="evenodd" clip-rule="evenodd" d="M15.9099 7.45001C17.1899 8.55101 18 10.181 18 12C18 13.819 17.1899 15.449 15.9099 16.55C15.9099 16.55 15.28 19.68 14.98 21.2C14.89 21.66 14.48 22 14 22C12.93 22 11.07 22 10 22C9.52 22 9.11002 21.66 9.02002 21.2C8.72002 19.68 8.09009 16.55 8.09009 16.55C6.81009 15.449 6 13.818 6 12C6 10.182 6.81009 8.55101 8.09009 7.45001C8.09009 7.45001 8.72002 4.32002 9.02002 2.80402C9.11002 2.33602 9.52 2 10 2C11.07 2 12.93 2 14 2C14.48 2 14.89 2.33602 14.98 2.80402C15.28 4.32002 15.9099 7.45001 15.9099 7.45001ZM10.3799 17.78L10.8201 20H13.1799L13.6201 17.78C13.1101 17.92 12.56 18 12 18C11.44 18 10.8899 17.92 10.3799 17.78ZM12 8C14.21 8 16 9.792 16 12C16 14.208 14.21 16 12 16C9.79 16 8 14.208 8 12C8 9.792 9.79 8 12 8ZM13.6201 6.22302L13.1799 4H10.8201L10.3799 6.22302C10.8899 6.07802 11.44 6 12 6C12.56 6 13.1101 6.07802 13.6201 6.22302Z" fill="#333333"/>
</svg>
