<svg width="24" height="24" viewBox="0 0 24 24" fill="none" xmlns="http://www.w3.org/2000/svg">
<path fill-rule="evenodd" clip-rule="evenodd" d="M8.10557 4.55279C8.27496 4.214 8.62123 4 9 4H15C15.3788 4 15.725 4.214 15.8944 4.55279L16.618 6H21C21.5523 6 22 6.44772 22 7V18C22 18.5523 21.5523 19 21 19H3C2.44772 19 2 18.5523 2 18V7C2 6.44772 2.44772 6 3 6H7.38197L8.10557 4.55279ZM9.61803 6L8.89443 7.44721C8.72504 7.786 8.37877 8 8 8H4V17H20V8H16C15.6212 8 15.275 7.786 15.1056 7.44721L14.382 6H9.61803Z" fill="black"/>
<path fill-rule="evenodd" clip-rule="evenodd" d="M12 14C13.1046 14 14 13.1046 14 12C14 10.8954 13.1046 10 12 10C10.8954 10 10 10.8954 10 12C10 13.1046 10.8954 14 12 14ZM12 16C14.2091 16 16 14.2091 16 12C16 9.79086 14.2091 8 12 8C9.79086 8 8 9.79086 8 12C8 14.2091 9.79086 16 12 16Z" fill="black"/>
<path d="M7 10C7 10.5523 6.55228 11 6 11C5.44772 11 5 10.5523 5 10C5 9.44772 5.44772 9 6 9C6.55228 9 7 9.44772 7 10Z" fill="black"/>
<path fill-rule="evenodd" clip-rule="evenodd" d="M3 18V7H8L9 5H15L16 7H21V18H3ZM12 15C13.6569 15 15 13.6569 15 12C15 10.3431 13.6569 9 12 9C10.3431 9 9 10.3431 9 12C9 13.6569 10.3431 15 12 15Z" fill="black" fill-opacity="0.1"/>
</svg>
