<svg width="24" height="24" viewBox="0 0 24 24" fill="none" xmlns="http://www.w3.org/2000/svg">
<path fill-rule="evenodd" clip-rule="evenodd" d="M8.85394 18.8428C8.94693 18.7415 8.99992 18.6047 8.99992 18.4615V5.53845C8.99992 5.39526 8.94693 5.25842 8.85394 5.15723C8.75995 5.05713 8.63295 5 8.49995 5C8.36697 5 8.23997 5.05713 8.14598 5.15723C8.05299 5.25842 8 5.39526 8 5.53845V18.4615C8 18.6047 8.05299 18.7415 8.14598 18.8428C8.23997 18.9429 8.36697 19 8.49995 19C8.63295 19 8.75995 18.9429 8.85394 18.8428ZM15.8546 18.8428C15.9476 18.7415 16.0005 18.6047 16.0005 18.4615V5.53845C16.0005 5.46521 15.9867 5.39355 15.9606 5.32751C15.9358 5.26453 15.9 5.20667 15.8546 5.15723C15.7606 5.05713 15.6336 5 15.5006 5C15.3676 5 15.2406 5.05713 15.1466 5.15723C15.0536 5.25842 15.0006 5.39526 15.0006 5.53845V18.4615C15.0006 18.6047 15.0536 18.7415 15.1466 18.8428C15.2406 18.9429 15.3676 19 15.5006 19C15.6336 19 15.7606 18.9429 15.8546 18.8428Z" fill="#333333"/>
</svg>
