<svg width="24" height="24" viewBox="0 0 24 24" fill="none" xmlns="http://www.w3.org/2000/svg">
<path fill-rule="evenodd" clip-rule="evenodd" d="M17.4099 21.41C17.7899 21.04 18 20.53 18 20V4C18 3.46997 17.7899 2.961 17.4099 2.586C17.0399 2.211 16.53 2 16 2H8C7.47 2 6.96009 2.211 6.59009 2.586C6.21009 2.961 6 3.46997 6 4V20C6 20.53 6.21009 21.04 6.59009 21.41C6.96009 21.79 7.47 22 8 22H16C16.53 22 17.0399 21.79 17.4099 21.41ZM16.71 3.29303C16.89 3.48004 17 3.73499 17 4V20C17 20.26 16.89 20.52 16.71 20.71C16.52 20.89 16.26 21 16 21H8C7.74 21 7.48004 20.89 7.29004 20.71C7.11004 20.52 7 20.26 7 20V4C7 3.73499 7.11004 3.48004 7.29004 3.29303C7.48004 3.10504 7.74 3 8 3H16C16.26 3 16.52 3.10504 16.71 3.29303ZM13.8501 19.145C13.9501 19.24 14 19.37 14 19.5C14 19.63 13.9501 19.76 13.8501 19.855C13.7601 19.945 13.63 20 13.5 20H10.5C10.37 20 10.2399 19.945 10.1499 19.855C10.0499 19.76 10 19.63 10 19.5C10 19.37 10.0499 19.24 10.1499 19.145C10.2399 19.055 10.37 19 10.5 19H13.5C13.63 19 13.7601 19.055 13.8501 19.145Z" fill="black"/>
<path d="M7 3V21H17V3H7Z" fill="black" fill-opacity="0.1"/>
</svg>
