<svg width="24" height="24" viewBox="0 0 24 24" fill="none" xmlns="http://www.w3.org/2000/svg">
<path fill-rule="evenodd" clip-rule="evenodd" d="M4.05763 6.20205L4.11763 6.20764L4.17763 6.21643L4.23683 6.22844L4.29443 6.24524L4.35203 6.26443L4.40723 6.28765L4.46163 6.31323L4.51443 6.34285L12.5144 11.1428L12.5656 11.1756L12.6144 11.2116L12.6608 11.2501L12.7056 11.2917L12.7472 11.3356L12.7856 11.382L12.8216 11.4308L12.8544 11.4813L12.8848 11.534L12.9112 11.5884L12.9344 11.6444L12.9544 11.7021L12.9704 11.7605L12.9832 11.8196L12.9928 11.8796L12.9984 11.9397L13 12.0004L12.9984 12.0612L12.9928 12.1212L12.9832 12.1813L12.9704 12.2404L12.9544 12.2988L12.9344 12.3564L12.9112 12.4125L12.8848 12.4668L12.8544 12.5196L12.8216 12.57L12.7856 12.6189L12.7472 12.6652L12.7056 12.7092L12.6608 12.7508L12.6144 12.7892L12.5656 12.8252L12.5144 12.858L4.51443 17.658L4.46163 17.6877L4.40723 17.7132L4.35203 17.7365L4.29443 17.7556L4.23683 17.7724L4.17763 17.7845L4.11763 17.7932L4.05763 17.7988L3.99763 17.8004L3.93763 17.7988L3.87763 17.7932L3.81763 17.7836L3.75843 17.7709L3.70083 17.7548L3.64403 17.7348L3.58803 17.7117L3.53363 17.6852L3.48163 17.6556L3.43043 17.6229L3.38243 17.5868L3.33603 17.5484L3.29203 17.5068L3.25043 17.4628L3.21203 17.4164L3.17683 17.3677L3.14403 17.3172L3.11443 17.2644L3.08803 17.21L3.06483 17.1548L3.04483 17.0972L3.02883 17.0397L3.01603 16.9804L3.00723 16.9204L3.00163 16.8605L3.00003 16.8004V7.20044L3.00163 7.14043L3.00723 7.08044L3.01603 7.02043L3.02883 6.96123L3.04483 6.90364L3.06483 6.84605L3.08803 6.79084L3.11443 6.73645L3.14403 6.68364L3.17683 6.63323L3.21203 6.58445L3.25043 6.53804L3.29203 6.49404L3.33603 6.45244L3.38243 6.41404L3.43043 6.37803L3.48163 6.34524L3.53363 6.31565L3.58803 6.28923L3.64403 6.26604L3.70083 6.24604L3.75843 6.23003L3.81763 6.21724L3.87763 6.20764L3.93763 6.20205L3.99763 6.20044L4.05763 6.20205ZM4.00003 16.8004L12 12.0004L4.00003 7.20044V16.8004Z" fill="black"/>
<path fill-rule="evenodd" clip-rule="evenodd" d="M13.0576 6.20205L13.1176 6.20764L13.1776 6.21643L13.2368 6.22844L13.2944 6.24524L13.352 6.26443L13.408 6.28765L13.4616 6.31323L13.5144 6.34285L21.5144 11.1428L21.5656 11.1756L21.6144 11.2116L21.6608 11.2501L21.7056 11.2917L21.7472 11.3356L21.7856 11.382L21.8216 11.4308L21.8552 11.4813L21.8848 11.534L21.9112 11.5884L21.9344 11.6444L21.9544 11.7021L21.9704 11.7605L21.9832 11.8196L21.9928 11.8796L21.9984 11.9397L22 12.0004L21.9984 12.0612L21.9928 12.1212L21.9832 12.1813L21.9704 12.2404L21.9544 12.2988L21.9344 12.3564L21.9112 12.4125L21.8848 12.4668L21.8552 12.5196L21.8216 12.57L21.7856 12.6189L21.7472 12.6652L21.7056 12.7092L21.6608 12.7508L21.6144 12.7892L21.5656 12.8252L21.5144 12.858L13.5144 17.658L13.4616 17.6877L13.408 17.7132L13.352 17.7365L13.2944 17.7556L13.2368 17.7724L13.1776 17.7845L13.1176 17.7932L13.0576 17.7988L12.9976 17.8004L12.9376 17.7988L12.8776 17.7932L12.8176 17.7836L12.7584 17.7709L12.7008 17.7548L12.644 17.7348L12.588 17.7117L12.5336 17.6852L12.4816 17.6556L12.4304 17.6229L12.3824 17.5868L12.336 17.5484L12.292 17.5068L12.2512 17.4628L12.212 17.4164L12.1768 17.3677L12.144 17.3172L12.1144 17.2644L12.088 17.21L12.0648 17.1548L12.0456 17.0972L12.0288 17.0397L12.0168 16.9804L12.0072 16.9204L12.0016 16.8605L12 16.8004V7.20044L12.0016 7.14043L12.0072 7.08044L12.0168 7.02043L12.0288 6.96123L12.0456 6.90364L12.0648 6.84605L12.088 6.79084L12.1144 6.73645L12.144 6.68364L12.1768 6.63323L12.212 6.58445L12.2512 6.53804L12.292 6.49404L12.336 6.45244L12.3824 6.41404L12.4304 6.37803L12.4816 6.34524L12.5336 6.31565L12.588 6.28923L12.644 6.26604L12.7008 6.24604L12.7584 6.23003L12.8176 6.21724L12.8776 6.20764L12.9376 6.20205L12.9976 6.20044L13.0576 6.20205ZM13 16.8004L21 12.0004L13 7.20044V16.8004Z" fill="black"/>
</svg>
