<svg width="24" height="24" viewBox="0 0 24 24" fill="none" xmlns="http://www.w3.org/2000/svg">
<path fill-rule="evenodd" clip-rule="evenodd" d="M18 20C18 20.53 17.7899 21.04 17.4099 21.41C17.0399 21.79 16.53 22 16 22C13.78 22 10.22 22 8 22C7.47 22 6.96009 21.79 6.59009 21.41C6.21009 21.04 6 20.53 6 20C6 16.17 6 7.832 6 4C6 3.47 6.21009 2.961 6.59009 2.586C6.96009 2.211 7.47 2 8 2C10.22 2 13.78 2 16 2C16.53 2 17.0399 2.211 17.4099 2.586C17.7899 2.961 18 3.47 18 4C18 7.832 18 16.17 18 20ZM17 4C17 3.735 16.89 3.48003 16.71 3.29303C16.52 3.10503 16.26 3 16 3C15.5 3 15 3 15 3C15 3 15 3.5 15 4C15 4.265 14.89 4.51997 14.71 4.70697C14.52 4.89497 14.26 5 14 5C12.89 5 11.11 5 10 5C9.74 5 9.48004 4.89497 9.29004 4.70697C9.11004 4.51997 9 4.265 9 4C9 3.5 9 3 9 3C9 3 8.5 3 8 3C7.74 3 7.48004 3.10503 7.29004 3.29303C7.11004 3.48003 7 3.735 7 4C7 7.151 7 16.85 7 20C7 20.26 7.11004 20.52 7.29004 20.71C7.48004 20.89 7.74 21 8 21C9.92 21 14.08 21 16 21C16.26 21 16.52 20.89 16.71 20.71C16.89 20.52 17 20.26 17 20C17 16.85 17 7.151 17 4ZM14 3H10V4H14V3Z" fill="#333333"/>
</svg>
