<svg width="24" height="24" viewBox="0 0 24 24" fill="none" xmlns="http://www.w3.org/2000/svg">
<path fill-rule="evenodd" clip-rule="evenodd" d="M21.5 18C21.63 18 21.7601 18.05 21.8501 18.15C21.9501 18.24 22 18.37 22 18.5C22 18.63 21.9501 18.76 21.8501 18.85C21.7601 18.95 21.63 19 21.5 19C18.73 19 5.27 19 2.5 19C2.37 19 2.2399 18.95 2.1499 18.85C2.0499 18.76 2 18.63 2 18.5C2 18.37 2.0499 18.24 2.1499 18.15C2.2399 18.05 2.37 18 2.5 18C5.27 18 18.73 18 21.5 18ZM21 16C21 16.55 20.55 17 20 17C16.85 17 7.15 17 4 17C3.45 17 3 16.55 3 16C3 13.578 3 7.421 3 5C3 4.448 3.45 4 4 4C7.15 4 16.85 4 20 4C20.55 4 21 4.448 21 5C21 7.421 21 13.578 21 16ZM20 5H4V16H20V5Z" fill="#333333"/>
</svg>
