<svg width="24" height="24" viewBox="0 0 24 24" fill="none" xmlns="http://www.w3.org/2000/svg">
<path fill-rule="evenodd" clip-rule="evenodd" d="M8.85394 18.8427C8.94693 18.7415 8.99992 18.6047 8.99992 18.4615V5.53846C8.99992 5.39523 8.94693 5.25846 8.85394 5.15723C8.75994 5.05707 8.63295 5 8.49996 5C8.36697 5 8.23998 5.05707 8.14598 5.15723C8.05299 5.25846 8 5.39523 8 5.53846V18.4615C8 18.6047 8.05299 18.7415 8.14598 18.8427C8.23998 18.9429 8.36697 19 8.49996 19C8.63295 19 8.75994 18.9429 8.85394 18.8427ZM15.8546 18.8427C15.9476 18.7415 16.0005 18.6047 16.0005 18.4615V5.53846C16.0005 5.39523 15.9476 5.25846 15.8546 5.15723C15.7606 5.05707 15.6336 5 15.5006 5C15.3676 5 15.2406 5.05707 15.1466 5.15723C15.0536 5.25846 15.0006 5.39523 15.0006 5.53846V18.4615C15.0006 18.6047 15.0536 18.7415 15.1466 18.8427C15.2406 18.9429 15.3676 19 15.5006 19C15.6336 19 15.7606 18.9429 15.8546 18.8427Z" fill="#333333"/>
</svg>
