<svg width="24" height="24" viewBox="0 0 24 24" fill="none" xmlns="http://www.w3.org/2000/svg">
<path fill-rule="evenodd" clip-rule="evenodd" d="M22 20C22 20.26 21.89 20.52 21.71 20.71C21.52 20.89 21.26 21 21 21C17.59 21 6.41 21 3 21C2.74 21 2.48004 20.89 2.29004 20.71C2.11004 20.52 2 20.26 2 20C2 16.85 2 7.151 2 4C2 3.735 2.11004 3.48003 2.29004 3.29303C2.48004 3.10503 2.74 3 3 3C6.41 3 17.59 3 21 3C21.26 3 21.52 3.10503 21.71 3.29303C21.89 3.48003 22 3.735 22 4C22 7.151 22 16.85 22 20ZM7 19V17H4V19H7ZM9 13V19H15V13H9ZM20 17H17V19H20V17ZM4 15H7V13H4V15ZM20 13H17V15H20V13ZM20 9H17V11H20V9ZM4 11H7V9H4V11ZM15 5H9V11H15V5ZM7 5H4V7H7V5ZM20 5H17V7H20V5Z" fill="#333333"/>
</svg>
