<svg width="24" height="24" viewBox="0 0 24 24" fill="none" xmlns="http://www.w3.org/2000/svg">
<path fill-rule="evenodd" clip-rule="evenodd" d="M17.4099 21.41C17.7899 21.04 18 20.53 18 20V4C18 3.47 17.7899 2.961 17.4099 2.586C17.0399 2.211 16.53 2 16 2H8C7.47 2 6.96009 2.211 6.59009 2.586C6.21009 2.961 6 3.47 6 4V20C6 20.53 6.21009 21.04 6.59009 21.41C6.96009 21.79 7.47 22 8 22H16C16.53 22 17.0399 21.79 17.4099 21.41ZM16.71 3.29303C16.89 3.48003 17 3.735 17 4V20C17 20.26 16.89 20.52 16.71 20.71C16.52 20.89 16.26 21 16 21H8C7.74 21 7.48004 20.89 7.29004 20.71C7.11004 20.52 7 20.26 7 20V4C7 3.735 7.11004 3.48003 7.29004 3.29303C7.48004 3.10503 7.74 3 8 3H16C16.26 3 16.52 3.10503 16.71 3.29303ZM13.01 19C13.01 19.5523 12.5622 20 12.0099 20C11.4576 20 11.0099 19.5523 11.0099 19C11.0099 18.4477 11.4576 18 12.0099 18C12.5622 18 13.01 18.4477 13.01 19Z" fill="black"/>
<path d="M7 3V21H17V3H7Z" fill="black" fill-opacity="0.1"/>
</svg>
