<svg width="24" height="24" viewBox="0 0 24 24" fill="none" xmlns="http://www.w3.org/2000/svg">
<path fill-rule="evenodd" clip-rule="evenodd" d="M5.00097 18.9983C5.00097 18.9983 7.54096 18.9983 9.00096 18.9983C9.27096 18.9983 9.52092 19.1033 9.71092 19.2913C9.89092 19.4783 10.001 19.7333 10.001 19.9983C10.001 20.2633 9.89092 20.5182 9.71092 20.7052C9.52092 20.8932 9.27096 20.9983 9.00096 20.9983C7.67096 20.9983 5.33097 20.9983 4.00097 20.9983C3.74097 20.9983 3.48101 20.8932 3.29101 20.7052C3.11101 20.5182 3.00097 20.2633 3.00097 19.9983C3.00097 18.6673 3.00097 16.3293 3.00097 14.9983C3.00097 14.7333 3.11101 14.4783 3.29101 14.2913C3.48101 14.1033 3.74097 13.9983 4.00097 13.9983C4.27097 13.9983 4.52093 14.1033 4.71093 14.2913C4.89093 14.4783 5.00097 14.7333 5.00097 14.9983C5.00097 16.4573 5.00097 18.9983 5.00097 18.9983ZM21.001 19.9983C21.001 20.2633 20.8909 20.5182 20.7109 20.7052C20.5209 20.8932 20.271 20.9983 20.001 20.9983C18.671 20.9983 16.331 20.9983 15.001 20.9983C14.741 20.9983 14.481 20.8932 14.291 20.7052C14.111 20.5182 14.001 20.2633 14.001 19.9983C14.001 19.7333 14.111 19.4783 14.291 19.2913C14.481 19.1033 14.741 18.9983 15.001 18.9983C16.461 18.9983 19.001 18.9983 19.001 18.9983C19.001 18.9983 19.001 16.4573 19.001 14.9983C19.001 14.7333 19.111 14.4783 19.291 14.2913C19.481 14.1033 19.741 13.9983 20.001 13.9983C20.271 13.9983 20.5209 14.1033 20.7109 14.2913C20.8909 14.4783 21.001 14.7333 21.001 14.9983C21.001 16.3293 21.001 18.6673 21.001 19.9983ZM10.001 3.99829C10.001 4.26329 9.89092 4.51826 9.71092 4.70526C9.52092 4.89326 9.27096 4.99829 9.00096 4.99829C7.54096 4.99829 5.00097 4.99829 5.00097 4.99829C5.00097 4.99829 5.00097 7.53928 5.00097 8.99828C5.00097 9.26328 4.89093 9.51825 4.71093 9.70525C4.52093 9.89325 4.27097 9.99828 4.00097 9.99828C3.74097 9.99828 3.48101 9.89325 3.29101 9.70525C3.11101 9.51825 3.00097 9.26328 3.00097 8.99828C3.00097 7.66728 3.00097 5.32929 3.00097 3.99829C3.00097 3.73329 3.11101 3.47832 3.29101 3.29132C3.48101 3.10332 3.74097 2.99829 4.00097 2.99829C5.33097 2.99829 7.67096 2.99829 9.00096 2.99829C9.27096 2.99829 9.52092 3.10332 9.71092 3.29132C9.89092 3.47832 10.001 3.73329 10.001 3.99829ZM21.001 8.99828C21.001 9.26328 20.8909 9.51825 20.7109 9.70525C20.5209 9.89325 20.271 9.99828 20.001 9.99828C19.741 9.99828 19.481 9.89325 19.291 9.70525C19.111 9.51825 19.001 9.26328 19.001 8.99828C19.001 7.53928 19.001 4.99829 19.001 4.99829C19.001 4.99829 16.461 4.99829 15.001 4.99829C14.741 4.99829 14.481 4.89326 14.291 4.70526C14.111 4.51826 14.001 4.26329 14.001 3.99829C14.001 3.73329 14.111 3.47832 14.291 3.29132C14.481 3.10332 14.741 2.99829 15.001 2.99829C16.331 2.99829 18.671 2.99829 20.001 2.99829C20.271 2.99829 20.5209 3.10332 20.7109 3.29132C20.8909 3.47832 21.001 3.73329 21.001 3.99829C21.001 5.32929 21.001 7.66728 21.001 8.99828Z" fill="#333333"/>
</svg>
