<svg width="24" height="24" viewBox="0 0 24 24" fill="none" xmlns="http://www.w3.org/2000/svg">
<path fill-rule="evenodd" clip-rule="evenodd" d="M17.4099 21.41C17.7899 21.04 18 20.53 18 20V4C18 3.46997 17.7899 2.961 17.4099 2.586C17.0399 2.211 16.53 2 16 2H8C7.47 2 6.96008 2.211 6.59009 2.586C6.21008 2.961 6 3.46997 6 4V20C6 20.53 6.21008 21.04 6.59009 21.41C6.96008 21.79 7.47 22 8 22H16C16.53 22 17.0399 21.79 17.4099 21.41ZM15 4C15.55 4 16 4.448 16 5V5.26703L15.9399 5.23499L15.8601 5.19202L15.76 5.15198L15.6699 5.117L15.5801 5.086L15.49 5.06L15.3899 5.03802L15.3 5.02197L15.2 5.00897L15.1001 5.00201L15.01 5H8.98999L8.8999 5.00201L8.80005 5.00897L8.69995 5.02197L8.61011 5.03802L8.51001 5.06L8.41992 5.086L8.33008 5.117L8.23999 5.15198L8.13989 5.19202L8.06006 5.23499L8 5.26703V5C8 4.448 8.45 4 9 4H15ZM8 6.95001V7V17V17.05L8.01001 17.1V17.15L8.02002 17.2L8.03003 17.24L8.04004 17.29L8.06006 17.34L8.08008 17.38L8.1001 17.43L8.12012 17.47L8.13989 17.51L8.16992 17.56L8.19995 17.6L8.22998 17.63L8.26001 17.67L8.29004 17.71L8.33008 17.74L8.37012 17.77L8.40991 17.8L8.44995 17.83L8.48999 17.86L8.53003 17.88L8.57007 17.9L8.62012 17.92L8.65991 17.94L8.70996 17.96L8.76001 17.97L8.80005 17.98L8.8501 17.99L8.8999 18H8.94995H9H15H15.05H15.1001L15.1499 17.99L15.2 17.98L15.24 17.97L15.29 17.96L15.3401 17.94L15.3799 17.92L15.4299 17.9L15.47 17.88L15.51 17.86L15.55 17.83L15.6001 17.8L15.6299 17.77L15.6699 17.74L15.71 17.71L15.74 17.67L15.77 17.63L15.8 17.6L15.8301 17.56L15.8601 17.51L15.8799 17.47L15.8999 17.43L15.9199 17.38L15.9399 17.34L15.96 17.29L15.97 17.24L15.98 17.2L15.99 17.15V17.1L16 17.05V17V7V6.95001L15.99 6.901V6.85199L15.98 6.80402L15.97 6.75598L15.96 6.70898L15.9399 6.66302L15.9199 6.617L15.8999 6.573L15.8799 6.52899L15.8601 6.487L15.8301 6.44501L15.8 6.40503L15.77 6.36603L15.74 6.32898L15.71 6.29303L15.6699 6.25897L15.6299 6.22601L15.6001 6.19598L15.55 6.16803L15.51 6.14203L15.47 6.11798L15.4299 6.09601L15.3799 6.07599L15.3401 6.05902L15.29 6.04303L15.24 6.03003L15.2 6.01898L15.1499 6.01099L15.1001 6.005L15.05 6.00098L15 6H9L8.94995 6.00098L8.8999 6.005L8.8501 6.01099L8.80005 6.01898L8.76001 6.03003L8.70996 6.04303L8.65991 6.05902L8.62012 6.07599L8.57007 6.09601L8.53003 6.11798L8.48999 6.14203L8.44995 6.16803L8.40991 6.19598L8.37012 6.22601L8.33008 6.25897L8.29004 6.29303L8.26001 6.32898L8.22998 6.36603L8.19995 6.40503L8.16992 6.44501L8.13989 6.487L8.12012 6.52899L8.1001 6.573L8.08008 6.617L8.06006 6.66302L8.04004 6.70898L8.03003 6.75598L8.02002 6.80402L8.01001 6.85199V6.901L8 6.95001ZM16 18.7333L15.9399 18.76L15.8601 18.81L15.77 18.85L15.6699 18.88L15.5801 18.91L15.49 18.94L15.3899 18.96L15.3 18.98L15.2 18.99L15.1001 19H15.01H8.98999H8.8999L8.80005 18.99L8.69995 18.98L8.61011 18.96L8.51001 18.94L8.41992 18.91L8.33008 18.88L8.22998 18.85L8.13989 18.81L8.06006 18.76L8 18.7333V19C8 19.55 8.45 20 9 20H15C15.55 20 16 19.55 16 19V18.7333Z" fill="#333333"/>
</svg>
