<svg width="24" height="24" viewBox="0 0 24 24" fill="none" xmlns="http://www.w3.org/2000/svg">
<path fill-rule="evenodd" clip-rule="evenodd" d="M18.9949 18.2917C18.9949 18.2917 18.9949 15.6306 18.9949 14.4986C18.9949 14.2226 19.2149 13.9986 19.4949 13.9986C19.6249 13.9986 19.755 14.0516 19.845 14.1446C19.945 14.2386 19.9949 14.3656 19.9949 14.4986C19.9949 15.4856 19.9949 17.7006 19.9949 18.9986C19.9949 19.2636 19.8848 19.5186 19.7048 19.7056C19.5148 19.8936 19.2549 19.9986 18.9949 19.9986C17.6949 19.9986 15.4849 19.9986 14.4949 19.9986C14.3649 19.9986 14.2348 19.9456 14.1448 19.8526C14.0448 19.7586 13.9949 19.6316 13.9949 19.4986C13.9949 19.2226 14.2149 18.9986 14.4949 18.9986C15.6249 18.9986 18.2849 18.9986 18.2849 18.9986C18.2849 18.9986 14.7948 15.5096 13.6548 14.3606C13.5548 14.2646 13.5049 14.1346 13.5049 13.9986C13.5049 13.8626 13.5548 13.7326 13.6548 13.6366V13.6357C13.7448 13.5447 13.8649 13.4936 13.9949 13.4936C14.1249 13.4936 14.245 13.5447 14.335 13.6357C15.465 14.7667 18.9949 18.2917 18.9949 18.2917ZM9.99489 4.49866C9.99489 4.77466 9.77489 4.99866 9.49489 4.99866C8.36489 4.99866 5.70486 4.99866 5.70486 4.99866C5.70486 4.99866 9.21499 8.50662 10.345 9.64562C10.545 9.84062 10.545 10.1567 10.345 10.3517C10.345 10.3517 10.345 10.3516 10.345 10.3526C10.155 10.5476 9.83479 10.5476 9.64479 10.3526C8.50479 9.21165 4.9949 5.70562 4.9949 5.70562C4.9949 5.70562 4.9949 8.36665 4.9949 9.49865C4.9949 9.77465 4.7749 9.99865 4.4949 9.99865C4.3649 9.99865 4.2348 9.94565 4.1448 9.85265C4.0448 9.75865 3.9949 9.63165 3.9949 9.49865C3.9949 8.51165 3.9949 6.29665 3.9949 4.99866C3.9949 4.73366 4.10493 4.47869 4.28493 4.29169C4.47493 4.10369 4.7349 3.99866 4.9949 3.99866C6.29489 3.99866 8.50489 3.99866 9.49489 3.99866C9.62489 3.99866 9.75499 4.05165 9.84499 4.14465C9.94499 4.23865 9.99489 4.36566 9.99489 4.49866Z" fill="black"/>
</svg>
