<svg width="24" height="24" viewBox="0 0 24 24" fill="none" xmlns="http://www.w3.org/2000/svg">
<path fill-rule="evenodd" clip-rule="evenodd" d="M22 18C22 19.11 21.11 20 20 20C16.17 20 7.83 20 4 20C2.89 20 2 19.11 2 18C2 14.926 2 9.074 2 6C2 4.895 2.89 4 4 4C7.83 4 16.17 4 20 4C21.11 4 22 4.895 22 6C22 9.074 22 14.926 22 18ZM21 6C21 5.448 20.55 5 20 5C16.85 5 7.15 5 4 5C3.45 5 3 5.448 3 6C3 8.577 3 15.423 3 18C3 18.55 3.45 19 4 19C7.15 19 16.85 19 20 19C20.55 19 21 18.55 21 18C21 15.423 21 8.577 21 6ZM19 11C19.55 11 20 11.448 20 12C20 12.552 19.55 13 19 13C18.45 13 18 12.552 18 12C18 11.448 18.45 11 19 11Z" fill="#333333"/>
</svg>
