<svg width="24" height="24" viewBox="0 0 24 24" fill="none" xmlns="http://www.w3.org/2000/svg">
<path fill-rule="evenodd" clip-rule="evenodd" d="M12 14C13.1046 14 14 13.1046 14 12C14 10.8954 13.1046 10 12 10C10.8954 10 10 10.8954 10 12C10 13.1046 10.8954 14 12 14ZM12 15C13.6569 15 15 13.6569 15 12C15 10.3431 13.6569 9 12 9C10.3431 9 9 10.3431 9 12C9 13.6569 10.3431 15 12 15Z" fill="black"/>
<path d="M3.5 9V16C3.5 16.8284 4.17157 17.5 5 17.5H19C19.8284 17.5 20.5 16.8284 20.5 16V9C20.5 8.17157 19.8284 7.5 19 7.5H16.309C16.1196 7.5 15.9465 7.393 15.8618 7.22361L15.1382 5.77639C15.0535 5.607 14.8804 5.5 14.691 5.5H9.30902C9.11963 5.5 8.9465 5.607 8.8618 5.77639L8.1382 7.22361C8.0535 7.393 7.88037 7.5 7.69098 7.5H5C4.17157 7.5 3.5 8.17157 3.5 9Z" stroke="black"/>
<path fill-rule="evenodd" clip-rule="evenodd" d="M3 16V9C3 7.89543 3.89543 7 5 7H7.38197C7.76074 7 8.107 6.786 8.27639 6.44721L8.72361 5.55279C8.893 5.214 9.23926 5 9.61803 5H14.382C14.7607 5 15.107 5.214 15.2764 5.55279L15.7236 6.44721C15.893 6.786 16.2393 7 16.618 7H19C20.1046 7 21 7.89543 21 9V16C21 17.1046 20.1046 18 19 18H5C3.89543 18 3 17.1046 3 16ZM12 15C13.6569 15 15 13.6569 15 12C15 10.3431 13.6569 9 12 9C10.3431 9 9 10.3431 9 12C9 13.6569 10.3431 15 12 15Z" fill="black" fill-opacity="0.1"/>
</svg>
