<svg width="24" height="24" viewBox="0 0 24 24" fill="none" xmlns="http://www.w3.org/2000/svg">
<path fill-rule="evenodd" clip-rule="evenodd" d="M19 11.9996C19 12.3509 18.8157 12.6764 18.5145 12.8571L8.51451 18.8571C8.20558 19.0425 7.82082 19.0473 7.50731 18.8698C7.1938 18.6923 7.00001 18.3599 7.00001 17.9996L7.00001 5.99963C7.00001 5.63936 7.1938 5.30694 7.50731 5.12943C7.82082 4.95193 8.20558 4.95678 8.51451 5.14214L18.5145 11.1421C18.8157 11.3229 19 11.6484 19 11.9996ZM9.00001 7.76582V16.2334L16.0564 11.9996L9.00001 7.76582Z" fill="black"/>
<path d="M18 12L8 6V18L18 12Z" fill="black" fill-opacity="0.1"/>
</svg>
