<svg width="24" height="24" viewBox="0 0 24 24" fill="none" xmlns="http://www.w3.org/2000/svg">
<path fill-rule="evenodd" clip-rule="evenodd" d="M21 19C21 19.55 20.55 20 20 20C16.72 20 6.28 20 3 20C2.45 20 2 19.55 2 19C2 15.99 2 7.01 2 4C2 3.45 2.45 3 3 3C6.28 3 16.72 3 20 3C20.55 3 21 3.45 21 4C21 7.01 21 15.99 21 19ZM7 19V16H3V19H7ZM8 12V19H15V12H8ZM20 19V16H16V19H20ZM7 12H3V15H7V12ZM16 12V15H20V12H16ZM3 8V11H7V8H3ZM15 11V4H8V11H15ZM20 11V8H16V11H20ZM16 4V7H20V4H16ZM3 7H7V4H3V7Z" fill="#333333"/>
</svg>
