<svg width="24" height="24" viewBox="0 0 24 24" fill="none" xmlns="http://www.w3.org/2000/svg">
<path fill-rule="evenodd" clip-rule="evenodd" d="M4.53 6.15199C4.22173 5.95936 3.83319 5.94911 3.51523 6.12538C3.19728 6.30165 3 6.63648 3 7.00001V17C3 17.3635 3.19728 17.6984 3.51523 17.8746C3.83319 18.0509 4.22173 18.0407 4.53 17.848L12 13.1793V17C12 17.3635 12.1973 17.6984 12.5152 17.8746C12.8332 18.0509 13.2217 18.0407 13.53 17.848L21.53 12.848C21.8224 12.6653 22 12.3449 22 12C22 11.6552 21.8224 11.3347 21.53 11.152L13.53 6.15199C13.2217 5.95936 12.8332 5.94911 12.5152 6.12538C12.1973 6.30165 12 6.63648 12 7.00001V10.8207L4.53 6.15199ZM10.1132 12L5 15.1958V8.80421L10.1132 12ZM19.1132 12L14 15.1958V8.80421L19.1132 12Z" fill="black"/>
<path d="M13 7L21 12L13 17V7Z" fill="black" fill-opacity="0.1"/>
<path d="M4 17V7L12 12L4 17Z" fill="black" fill-opacity="0.1"/>
</svg>
