<svg width="24" height="24" viewBox="0 0 24 24" fill="none" xmlns="http://www.w3.org/2000/svg">
<path fill-rule="evenodd" clip-rule="evenodd" d="M18 20C18 20.53 17.7899 21.04 17.4099 21.41C17.0399 21.79 16.53 22 16 22C13.78 22 10.22 22 8 22C7.47 22 6.96009 21.79 6.59009 21.41C6.21009 21.04 6 20.53 6 20C6 16.17 6 7.832 6 4C6 3.47 6.21009 2.961 6.59009 2.586C6.96009 2.211 7.47 2 8 2C10.22 2 13.78 2 16 2C16.53 2 17.0399 2.211 17.4099 2.586C17.7899 2.961 18 3.47 18 4C18 7.832 18 16.17 18 20ZM16 4H15C15 4 15 4.5 15 5C15 5.265 14.89 5.51997 14.71 5.70697C14.52 5.89497 14.26 6 14 6C12.89 6 11.11 6 10 6C9.74 6 9.48004 5.89497 9.29004 5.70697C9.11004 5.51997 9 5.265 9 5C9 4.5 9 4 9 4H8V20H16V4ZM14 4H10V5H14V4Z" fill="black"/>
<path d="M7 3V21H17V3H14.5V5.5H9.5V3H7Z" fill="black" fill-opacity="0.1"/>
</svg>
