<svg width="24" height="24" viewBox="0 0 24 24" fill="none" xmlns="http://www.w3.org/2000/svg">
<path fill-rule="evenodd" clip-rule="evenodd" d="M17.9987 15.4987C17.9987 15.7747 17.7787 15.9987 17.4987 15.9987C15.5487 15.9987 8.44873 15.9987 6.49873 15.9987C6.36873 15.9987 6.23863 15.9457 6.14863 15.8527C6.04863 15.7587 5.99873 15.6317 5.99873 15.4987C5.99873 15.2227 6.21873 14.9987 6.49873 14.9987C8.44873 14.9987 15.5487 14.9987 17.4987 14.9987C17.7787 14.9987 17.9987 15.2227 17.9987 15.4987ZM17.8488 12.1447C17.9988 12.2877 18.0387 12.5037 17.9587 12.6897C17.8887 12.8767 17.6987 12.9987 17.4987 12.9987C14.9487 12.9987 9.04872 12.9987 6.49873 12.9987C6.29873 12.9987 6.11877 12.8767 6.03877 12.6897C5.95877 12.5037 5.99863 12.2877 6.14863 12.1447C7.48863 10.8067 10.0488 8.24072 11.2888 6.99872C11.4788 6.81072 11.7387 6.70569 11.9987 6.70569C12.2587 6.70569 12.5187 6.81072 12.7087 6.99872C13.9487 8.24072 16.5088 10.8067 17.8488 12.1447ZM7.70869 11.9987H16.2888L11.9987 7.70569L7.70869 11.9987Z" fill="#333333"/>
</svg>
