<svg width="24" height="24" viewBox="0 0 24 24" fill="none" xmlns="http://www.w3.org/2000/svg">
<path d="M18.917 16.394C18.757 16.762 18.3969 17 17.9969 17C15.7869 17 8.64695 17 5.99695 17C5.73695 17 5.47699 16.895 5.28699 16.707C5.10699 16.52 4.99695 16.265 4.99695 16C4.99695 13.655 4.99695 8 4.99695 8C4.99695 8 16.7469 8 20.9969 8C21.3369 8 21.6469 8.16901 21.8369 8.45001C22.0169 8.73001 22.047 9.08498 21.917 9.39398C21.067 11.389 19.527 14.972 18.917 16.394ZM6.99695 10V15H17.3369L19.4869 10H6.99695Z" fill="#333333"/>
<path d="M3 7H6V9" stroke="black" stroke-width="1.57" stroke-miterlimit="1.5" stroke-linecap="round" stroke-linejoin="round"/>
<path fill-rule="evenodd" clip-rule="evenodd" d="M15.04 18L15.1201 18.0039H15.1602L15.2002 18.012L15.2402 18.0161L15.3198 18.0239L15.3599 18.032L15.3999 18.04L15.4399 18.052L15.48 18.064L15.5601 18.0759L15.6001 18.0879L15.6401 18.104L15.6802 18.1201L15.7202 18.1399L15.7598 18.156L15.8398 18.176L15.8799 18.196L15.9199 18.22L15.96 18.24L16 18.2639L16.04 18.2881L16.0801 18.3159L16.1201 18.3401L16.1602 18.3679L16.2002 18.396L16.2402 18.428L16.2798 18.4561L16.3198 18.488L16.3599 18.52L16.3999 18.552V18.5879L16.4399 18.6201L16.48 18.656L16.52 18.6919L16.5601 18.728V18.7639L16.6001 18.804L16.6401 18.844V18.884L16.6802 18.9241L16.7202 18.9641V19.0039L16.7598 19.0481V19.0879L16.7998 19.1321L16.8398 19.176V19.22L16.8799 19.2681V19.312V19.3601L16.9199 19.4041V19.4519V19.5L16.96 19.5481V19.5959V19.6479V19.696L17 19.7439V19.7959V19.8479V19.896V19.948V20V20.052V20.104V20.1521V20.2041V20.2561L16.96 20.304V20.3521V20.4041V20.4519L16.9199 20.5V20.5481V20.5959L16.8799 20.6399V20.688V20.7319L16.8398 20.78V20.824L16.7998 20.8679L16.7598 20.9121V20.9519L16.7202 20.9961V21.0359L16.6802 21.0759L16.6401 21.116V21.156L16.6001 21.196L16.5601 21.2361V21.272L16.52 21.3081L16.48 21.344L16.4399 21.3799L16.3999 21.4121V21.448L16.3599 21.48L16.3198 21.512L16.2798 21.5439L16.2402 21.572L16.2002 21.604L16.1602 21.6321L16.1201 21.6599L16.0801 21.6841L16.04 21.7119L16 21.7361L15.96 21.76L15.9199 21.78L15.8799 21.804L15.8398 21.824L15.7598 21.844L15.7202 21.8601L15.6802 21.8799L15.6401 21.896L15.6001 21.9121L15.5601 21.9241L15.48 21.936L15.4399 21.948L15.3999 21.96L15.3599 21.968L15.3198 21.9761L15.2402 21.9839L15.2002 21.988L15.1602 21.9961H15.1201L15.04 22H15H14.96L14.8799 21.9961H14.8398L14.7998 21.988L14.7598 21.9839L14.6802 21.9761L14.6401 21.968L14.6001 21.96L14.5601 21.948L14.52 21.936L14.4399 21.9241L14.3999 21.9121L14.3599 21.896L14.3198 21.8799L14.2798 21.8601L14.2402 21.844L14.1602 21.824L14.1201 21.804L14.0801 21.78L14.04 21.76L14 21.7361L13.96 21.7119L13.9199 21.6841L13.8799 21.6599L13.8398 21.6321L13.7998 21.604L13.7598 21.572L13.7202 21.5439L13.6802 21.512L13.6401 21.48L13.6001 21.448V21.4121L13.5601 21.3799L13.52 21.344L13.48 21.3081L13.4399 21.272V21.2361L13.3999 21.196L13.3599 21.156V21.116L13.3198 21.0759L13.2798 21.0359V20.9961L13.2402 20.9519V20.9121L13.2002 20.8679L13.1602 20.824V20.78V20.7319L13.1201 20.688V20.6399L13.0801 20.5959V20.5481V20.5L13.04 20.4519V20.4041V20.3521V20.304L13 20.2561V20.2041V20.1521V20.104V20.052V20V19.948V19.896V19.8479V19.7959V19.7439L13.04 19.696V19.6479V19.5959V19.5481L13.0801 19.5V19.4519V19.4041L13.1201 19.3601V19.312L13.1602 19.2681V19.22V19.176L13.2002 19.1321L13.2402 19.0879V19.0481L13.2798 19.0039V18.9641L13.3198 18.9241L13.3599 18.884V18.844L13.3999 18.804L13.4399 18.7639V18.728L13.48 18.6919L13.52 18.656L13.5601 18.6201L13.6001 18.5879V18.552L13.6401 18.52L13.6802 18.488L13.7202 18.4561L13.7598 18.428L13.7998 18.396L13.8398 18.3679L13.8799 18.3401L13.9199 18.3159L13.96 18.2881L14 18.2639L14.04 18.24L14.0801 18.22L14.1201 18.196L14.1602 18.176L14.2402 18.156L14.2798 18.1399L14.3198 18.1201L14.3599 18.104L14.3999 18.0879L14.4399 18.0759L14.52 18.064L14.5601 18.052L14.6001 18.04L14.6401 18.032L14.6802 18.0239L14.7598 18.0161L14.7998 18.012L14.8398 18.0039H14.8799L14.96 18H15H15.04ZM14.96 19L14.9199 19.0039H14.8799V19.0081L14.8398 19.012L14.7998 19.0161V19.02L14.7598 19.0239V19.032L14.7202 19.0359V19.0439L14.6802 19.052L14.6401 19.0601V19.0681L14.6001 19.0759V19.0879L14.5601 19.1001V19.1079L14.52 19.1201V19.1321L14.48 19.144V19.156L14.4399 19.1721V19.1841L14.3999 19.2V19.2119L14.3599 19.228V19.2439L14.3198 19.26V19.2759L14.2798 19.292V19.312V19.3279L14.2402 19.3479V19.364L14.2002 19.384V19.4041V19.4241L14.1602 19.4441V19.46V19.4839L14.1201 19.5039V19.5239V19.5481V19.5681L14.0801 19.5879V19.6121V19.6321V19.6599L14.04 19.6799V19.7041V19.728V19.748V19.7759V19.7959L14 19.824V19.8479V19.8721V19.896V19.9199V19.948V19.9719V20V20.052V20.104V20.1521L14.04 20.2041V20.252V20.2959L14.0801 20.3401V20.3879L14.1201 20.4319V20.4761L14.1602 20.5161V20.5559L14.2002 20.5959L14.2402 20.636L14.2798 20.6721V20.708L14.3198 20.74L14.3599 20.772L14.3999 20.8L14.4399 20.8279L14.48 20.856L14.52 20.8799L14.5601 20.8999L14.6001 20.9241L14.6401 20.9399L14.7202 20.9561L14.7598 20.968L14.7998 20.98L14.8398 20.988L14.8799 20.9961L14.96 21H15H15.04L15.0801 20.9961H15.1201V20.9919L15.1602 20.988V20.9839L15.2002 20.98L15.2402 20.9761V20.968L15.2798 20.9641V20.9561L15.3198 20.948L15.3599 20.9399V20.9319L15.3999 20.9241V20.9121L15.4399 20.8999V20.8921L15.48 20.8799V20.8679L15.52 20.856V20.844L15.5601 20.8279V20.8159L15.6001 20.8V20.7881L15.6401 20.772V20.7561L15.6802 20.74V20.7241L15.7202 20.708V20.688V20.6721L15.7598 20.656V20.636L15.7998 20.616V20.5959V20.5759L15.8398 20.5601V20.54V20.5161L15.8799 20.4961V20.4761V20.4519L15.9199 20.4319V20.4121V20.3879V20.3679L15.96 20.344V20.3201V20.2959V20.272V20.252V20.228L16 20.2041V20.176V20.1521V20.1279V20.104V20.0759V20.052V20.0281V20V19.9719V19.948V19.9241V19.896V19.8721V19.8479V19.824V19.7959L15.96 19.772V19.748V19.728V19.7041V19.6799V19.656L15.9199 19.6321V19.6121V19.5879V19.5681L15.8799 19.5481V19.5239V19.5039L15.8398 19.4839V19.46V19.4399L15.7998 19.4241V19.4041V19.384L15.7598 19.364V19.344L15.7202 19.3279V19.312V19.292L15.6802 19.2759V19.26L15.6401 19.2439V19.228L15.6001 19.2119V19.2L15.5601 19.1841V19.1721L15.52 19.156V19.144L15.48 19.1321V19.1201L15.4399 19.1079V19.1001L15.3999 19.0879V19.0759L15.3599 19.0681V19.0601L15.3198 19.052L15.2798 19.0439V19.0359L15.2402 19.032V19.0239L15.2002 19.02L15.1602 19.0161V19.012L15.1201 19.0081V19.0039H15.0801L15.04 19H15H14.96Z" fill="#333333"/>
<path fill-rule="evenodd" clip-rule="evenodd" d="M9.04004 18L9.12012 18.0039H9.16016L9.2002 18.012L9.24023 18.0161L9.31982 18.0239L9.35986 18.032L9.3999 18.04L9.43994 18.052L9.47998 18.064L9.56006 18.0759L9.6001 18.0879L9.64014 18.104L9.68018 18.1201L9.72021 18.1399L9.75977 18.156L9.83984 18.176L9.87988 18.196L9.91992 18.22L9.95996 18.24L10 18.2639L10.04 18.2881L10.0801 18.3159L10.1201 18.3401L10.1602 18.3679L10.2002 18.396L10.2402 18.428L10.2798 18.4561L10.3198 18.488L10.3599 18.52L10.3999 18.552V18.5879L10.4399 18.6201L10.48 18.656L10.52 18.6919L10.5601 18.728V18.7639L10.6001 18.804L10.6401 18.844V18.884L10.6802 18.9241L10.7202 18.9641V19.0039L10.7598 19.0481V19.0879L10.7998 19.1321L10.8398 19.176V19.22L10.8799 19.2681V19.312V19.3601L10.9199 19.4041V19.4519V19.5L10.96 19.5481V19.5959V19.6479V19.696L11 19.7439V19.7959V19.8479V19.896V19.948V20V20.052V20.104V20.1521V20.2041V20.2561L10.96 20.304V20.3521V20.4041V20.4519L10.9199 20.5V20.5481V20.5959L10.8799 20.6399V20.688V20.7319L10.8398 20.78V20.824L10.7998 20.8679L10.7598 20.9121V20.9519L10.7202 20.9961V21.0359L10.6802 21.0759L10.6401 21.116V21.156L10.6001 21.196L10.5601 21.2361V21.272L10.52 21.3081L10.48 21.344L10.4399 21.3799L10.3999 21.4121V21.448L10.3599 21.48L10.3198 21.512L10.2798 21.5439L10.2402 21.572L10.2002 21.604L10.1602 21.6321L10.1201 21.6599L10.0801 21.6841L10.04 21.7119L10 21.7361L9.95996 21.76L9.91992 21.78L9.87988 21.804L9.83984 21.824L9.75977 21.844L9.72021 21.8601L9.68018 21.8799L9.64014 21.896L9.6001 21.9121L9.56006 21.9241L9.47998 21.936L9.43994 21.948L9.3999 21.96L9.35986 21.968L9.31982 21.9761L9.24023 21.9839L9.2002 21.988L9.16016 21.9961H9.12012L9.04004 22H9H8.95996L8.87988 21.9961H8.83984L8.7998 21.988L8.75977 21.9839L8.68018 21.9761L8.64014 21.968L8.6001 21.96L8.56006 21.948L8.52002 21.936L8.43994 21.9241L8.3999 21.9121L8.35986 21.896L8.31982 21.8799L8.27979 21.8601L8.24023 21.844L8.16016 21.824L8.12012 21.804L8.08008 21.78L8.04004 21.76L8 21.7361L7.95996 21.7119L7.91992 21.6841L7.87988 21.6599L7.83984 21.6321L7.7998 21.604L7.75977 21.572L7.72021 21.5439L7.68018 21.512L7.64014 21.48L7.6001 21.448V21.4121L7.56006 21.3799L7.52002 21.344L7.47998 21.3081L7.43994 21.272V21.2361L7.3999 21.196L7.35986 21.156V21.116L7.31982 21.0759L7.27979 21.0359V20.9961L7.24023 20.9519V20.9121L7.2002 20.8679L7.16016 20.824V20.78V20.7319L7.12012 20.688V20.6399L7.08008 20.5959V20.5481V20.5L7.04004 20.4519V20.4041V20.3521V20.304L7 20.2561V20.2041V20.1521V20.104V20.052V20V19.948V19.896V19.8479V19.7959V19.7439L7.04004 19.696V19.6479V19.5959V19.5481L7.08008 19.5V19.4519V19.4041L7.12012 19.3601V19.312L7.16016 19.2681V19.22V19.176L7.2002 19.1321L7.24023 19.0879V19.0481L7.27979 19.0039V18.9641L7.31982 18.9241L7.35986 18.884V18.844L7.3999 18.804L7.43994 18.7639V18.728L7.47998 18.6919L7.52002 18.656L7.56006 18.6201L7.6001 18.5879V18.552L7.64014 18.52L7.68018 18.488L7.72021 18.4561L7.75977 18.428L7.7998 18.396L7.83984 18.3679L7.87988 18.3401L7.91992 18.3159L7.95996 18.2881L8 18.2639L8.04004 18.24L8.08008 18.22L8.12012 18.196L8.16016 18.176L8.24023 18.156L8.27979 18.1399L8.31982 18.1201L8.35986 18.104L8.3999 18.0879L8.43994 18.0759L8.52002 18.064L8.56006 18.052L8.6001 18.04L8.64014 18.032L8.68018 18.0239L8.75977 18.0161L8.7998 18.012L8.83984 18.0039H8.87988L8.95996 18H9H9.04004ZM8.95996 19L8.91992 19.0039H8.87988V19.0081L8.83984 19.012L8.7998 19.0161V19.02L8.75977 19.0239V19.032L8.72021 19.0359V19.0439L8.68018 19.052L8.64014 19.0601V19.0681L8.6001 19.0759V19.0879L8.56006 19.1001V19.1079L8.52002 19.1201V19.1321L8.47998 19.144V19.156L8.43994 19.1721V19.1841L8.3999 19.2V19.2119L8.35986 19.228V19.2439L8.31982 19.26V19.2759L8.27979 19.292V19.312V19.3279L8.24023 19.3479V19.364L8.2002 19.384V19.4041V19.4241L8.16016 19.4441V19.46V19.4839L8.12012 19.5039V19.5239V19.5481V19.5681L8.08008 19.5879V19.6121V19.6321V19.6599L8.04004 19.6799V19.7041V19.728V19.748V19.7759V19.7959L8 19.824V19.8479V19.8721V19.896V19.9199V19.948V19.9719V20V20.052V20.104V20.1521L8.04004 20.2041V20.252V20.2959L8.08008 20.3401V20.3879L8.12012 20.4319V20.4761L8.16016 20.5161V20.5559L8.2002 20.5959L8.24023 20.636L8.27979 20.6721V20.708L8.31982 20.74L8.35986 20.772L8.3999 20.8L8.43994 20.8279L8.47998 20.856L8.52002 20.8799L8.56006 20.8999L8.6001 20.9241L8.64014 20.9399L8.72021 20.9561L8.75977 20.968L8.7998 20.98L8.83984 20.988L8.87988 20.9961L8.95996 21H9H9.04004L9.08008 20.9961H9.12012V20.9919L9.16016 20.988V20.9839L9.2002 20.98L9.24023 20.9761V20.968L9.27979 20.9641V20.9561L9.31982 20.948L9.35986 20.9399V20.9319L9.3999 20.9241V20.9121L9.43994 20.8999V20.8921L9.47998 20.8799V20.8679L9.52002 20.856V20.844L9.56006 20.8279V20.8159L9.6001 20.8V20.7881L9.64014 20.772V20.7561L9.68018 20.74V20.7241L9.72021 20.708V20.688V20.6721L9.75977 20.656V20.636L9.7998 20.616V20.5959V20.5759L9.83984 20.5601V20.54V20.5161L9.87988 20.4961V20.4761V20.4519L9.91992 20.4319V20.4121V20.3879V20.3679L9.95996 20.344V20.3201V20.2959V20.272V20.252V20.228L10 20.2041V20.176V20.1521V20.1279V20.104V20.0759V20.052V20.0281V20V19.9719V19.948V19.9241V19.896V19.8721V19.8479V19.824V19.7959L9.95996 19.772V19.748V19.728V19.7041V19.6799V19.656L9.91992 19.6321V19.6121V19.5879V19.5681L9.87988 19.5481V19.5239V19.5039L9.83984 19.4839V19.46V19.4399L9.7998 19.4241V19.4041V19.384L9.75977 19.364V19.344L9.72021 19.3279V19.312V19.292L9.68018 19.2759V19.26L9.64014 19.2439V19.228L9.6001 19.2119V19.2L9.56006 19.1841V19.1721L9.52002 19.156V19.144L9.47998 19.1321V19.1201L9.43994 19.1079V19.1001L9.3999 19.0879V19.0759L9.35986 19.0681V19.0601L9.31982 19.052L9.27979 19.0439V19.0359L9.24023 19.032V19.0239L9.2002 19.02L9.16016 19.0161V19.012L9.12012 19.0081V19.0039H9.08008L9.04004 19H9H8.95996Z" fill="#333333"/>
<path d="M19.9969 11H5.99695V12H19.9969V11Z" fill="#333333"/>
<path d="M18.9969 13H5.99695V14H18.9969V13Z" fill="#333333"/>
<path fill-rule="evenodd" clip-rule="evenodd" d="M5.99695 6C6.26695 6 6.51691 6.10503 6.70691 6.29303C6.88691 6.48003 6.99695 6.735 6.99695 7C6.99695 8.185 6.99695 10 6.99695 10H4.99695V8C4.99695 8 3.87695 8 2.99695 8C2.73695 8 2.477 7.89497 2.297 7.70697C2.107 7.51997 1.99695 7.265 1.99695 7C1.99695 6.735 2.107 6.48003 2.297 6.29303C2.477 6.10503 2.73695 6 2.99695 6C3.86695 6 5.12695 6 5.99695 6Z" fill="#333333"/>
</svg>
