<svg width="24" height="24" viewBox="0 0 24 24" fill="none" xmlns="http://www.w3.org/2000/svg">
<path fill-rule="evenodd" clip-rule="evenodd" d="M4.48449 12.3082C4.39441 12.197 4.31291 12.0937 4.24042 12C4.31291 11.9063 4.39441 11.803 4.48449 11.6918C4.91804 11.1563 5.54391 10.4444 6.31352 9.73557C7.88847 8.28506 9.89997 7 12 7C14.1001 7 16.1116 8.28506 17.6865 9.73557C18.4562 10.4444 19.082 11.1563 19.5156 11.6918C19.6056 11.803 19.6872 11.9063 19.7596 12C19.6872 12.0937 19.6056 12.197 19.5156 12.3082C19.082 12.8437 18.4562 13.5556 17.6865 14.2644C16.1116 15.7149 14.1001 17 12 17C9.89997 17 7.88847 15.7149 6.31352 14.2644C5.54391 13.5556 4.91804 12.8437 4.48449 12.3082ZM21.8298 11.442C21.83 11.4422 21.8302 11.4425 21 12C21.8302 12.5575 21.83 12.5578 21.8298 12.558L21.8294 12.5587L21.8282 12.5605L21.8247 12.5656L21.8133 12.5823C21.8038 12.5962 21.7904 12.6157 21.7731 12.6404C21.7386 12.6897 21.6889 12.7599 21.6246 12.8478C21.4961 13.0236 21.3092 13.2712 21.07 13.5668C20.5927 14.1563 19.9005 14.9444 19.0414 15.7356C17.359 17.2851 14.8705 19 12 19C9.12953 19 6.64103 17.2851 4.95862 15.7356C4.09955 14.9444 3.4074 14.1563 2.9301 13.5668C2.69082 13.2712 2.50395 13.0236 2.37548 12.8478C2.31121 12.7599 2.26145 12.6897 2.22695 12.6404C2.2097 12.6157 2.19626 12.5962 2.18671 12.5823L2.17533 12.5656L2.17185 12.5605L2.17067 12.5587L2.17022 12.558C2.17004 12.5578 2.16986 12.5575 3.00003 12C2.16986 11.4425 2.17004 11.4422 2.17022 11.442L2.17067 11.4413L2.17185 11.4395L2.17533 11.4344L2.18671 11.4177C2.19626 11.4038 2.2097 11.3843 2.22695 11.3596C2.26145 11.3103 2.31121 11.2401 2.37548 11.1522C2.50395 10.9764 2.69082 10.7288 2.9301 10.4332C3.4074 9.84372 4.09955 9.05563 4.95862 8.26443C6.64103 6.71494 9.12953 5 12 5C14.8705 5 17.359 6.71494 19.0414 8.26443C19.9005 9.05563 20.5927 9.84372 21.07 10.4332C21.3092 10.7288 21.4961 10.9764 21.6246 11.1522C21.6889 11.2401 21.7386 11.3103 21.7731 11.3596C21.7904 11.3843 21.8038 11.4038 21.8133 11.4177L21.8247 11.4344L21.8282 11.4395L21.8294 11.4413L21.8298 11.442ZM21 12L21.8302 11.4425C22.0566 11.7797 22.0566 12.2203 21.8302 12.5575L21 12ZM2.16986 11.4425L3.00003 12L2.16986 12.5575C1.94342 12.2203 1.94342 11.7797 2.16986 11.4425ZM11 12C11 11.4477 11.4477 11 12 11C12.5523 11 13 11.4477 13 12C13 12.5523 12.5523 13 12 13C11.4477 13 11 12.5523 11 12ZM12 9C10.3432 9 9.00003 10.3431 9.00003 12C9.00003 13.6569 10.3432 15 12 15C13.6569 15 15 13.6569 15 12C15 10.3431 13.6569 9 12 9Z" fill="black"/>
<path fill-rule="evenodd" clip-rule="evenodd" d="M3 12C4.33333 10 8 6 12 6C16 6 19.6667 10 21 12C19.3333 14 16 18 12 18C8 18 4.66667 14 3 12ZM12 14C13.1046 14 14 13.1046 14 12C14 10.8954 13.1046 10 12 10C10.8954 10 10 10.8954 10 12C10 13.1046 10.8954 14 12 14Z" fill="black" fill-opacity="0.1"/>
</svg>
