<svg width="24" height="24" viewBox="0 0 24 24" fill="none" xmlns="http://www.w3.org/2000/svg">
<path d="M18.4799 9.12204C18.8099 9.30404 19.0099 9.65804 18.9999 10.036C18.9899 10.415 18.7598 10.754 18.4098 10.91C14.9998 12.461 7.99989 15.644 7.99989 15.644C7.99989 15.644 7.99989 19.21 7.99989 21C7.99989 21.55 7.54989 22 6.99989 22C6.44989 22 5.99989 21.55 5.99989 21C5.99989 17.83 5.99989 7.97203 5.99989 4.00003C5.99989 3.64703 6.18988 3.32005 6.48988 3.14005C6.78988 2.96005 7.16987 2.95304 7.47987 3.12204C10.1199 4.56404 15.6499 7.57704 18.4799 9.12204ZM7.99989 13.4471L15.7599 9.91904L7.99989 5.68503V13.4471Z" fill="black"/>
</svg>
