<svg width="24" height="24" viewBox="0 0 24 24" fill="none" xmlns="http://www.w3.org/2000/svg">
<path d="M19 3C19.55 3 20 3.448 20 4C20 6.26 20 11.74 20 14C20 14.265 19.89 14.52 19.71 14.707C19.52 14.895 19.26 15 19 15C16.12 15 6 15 6 15C6 15 6 19.07 6 21C6 21.26 5.88996 21.52 5.70996 21.71C5.51996 21.89 5.26 22 5 22C4.74 22 4.48004 21.89 4.29004 21.71C4.11004 21.52 4 21.26 4 21C4 17.72 4 7.284 4 4C4 3.448 4.45 3 5 3C7.58 3 16.42 3 19 3ZM6 13H18V4.91901L6 5V13Z" fill="black"/>
<path d="M5 4V14H19V4H5Z" fill="black" fill-opacity="0.1"/>
</svg>
