<svg width="24" height="24" viewBox="0 0 24 24" fill="none" xmlns="http://www.w3.org/2000/svg">
<path d="M10 13C10 14.105 10.89 15 12 15C13.11 15 14 14.105 14 13C14 10.179 14 5.136 14 3C14 2.735 14.11 2.48003 14.29 2.29303C14.48 2.10503 14.74 2 15 2C16.33 2 18.67 2 20 2C20.26 2 20.52 2.10503 20.71 2.29303C20.89 2.48003 21 2.735 21 3C21 4.863 21 9.037 21 13C21 17.97 16.97 22 12 22C7.03 22 3 17.97 3 13C3 9.037 3 4.863 3 3C3 2.735 3.11004 2.48003 3.29004 2.29303C3.48004 2.10503 3.74 2 4 2C5.33 2 7.67 2 9 2C9.26 2 9.51996 2.10503 9.70996 2.29303C9.88996 2.48003 10 2.735 10 3C10 5.136 10 10.179 10 13ZM4 3C4 3 4 8.193 4 13C4 15.122 4.84009 17.16 6.34009 18.66C7.84009 20.16 9.88 21 12 21C16.42 21 20 17.42 20 13C20 8.193 20 3 20 3H15C15 3 15 9.161 15 13C15 13.796 14.6801 14.559 14.1201 15.121C13.5601 15.684 12.8 16 12 16C11.2 16 10.4399 15.684 9.87988 15.121C9.31988 14.559 9 13.796 9 13C9 9.161 9 3 9 3H4Z" fill="#333333"/>
<path d="M9 7H4V8H9V7Z" fill="#333333"/>
<path d="M20 7H15V8H20V7Z" fill="#333333"/>
</svg>
