<svg width="24" height="24" viewBox="0 0 24 24" fill="none" xmlns="http://www.w3.org/2000/svg">
<path fill-rule="evenodd" clip-rule="evenodd" d="M19 14.51C18.99 18.65 15.64 22 11.5 22C7.36 22 4 18.64 4 14.5C4 14.5 4 14.28 4 14C4 13.74 4.11004 13.48 4.29004 13.29C4.48004 13.11 4.74 13 5 13C5.5 13 6.09 13 6.5 13C6.63 13 6.7601 13.05 6.8501 13.15C6.9501 13.24 7 13.37 7 13.5C7 13.63 6.9501 13.76 6.8501 13.85C6.7601 13.95 6.63 14 6.5 14C5.91 14 5 14 5 14V14.5V14.51C5.01 17.92 7.65 20.73 11 20.98V11C11 11 9.35 11 8.5 11C8.37 11 8.2399 10.95 8.1499 10.85C8.0499 10.76 8 10.63 8 10.5C8 10.37 8.0499 10.24 8.1499 10.15C8.2399 10.05 8.37 10 8.5 10C9.35 10 11 10 11 10V6.94995C9.86 6.71995 9 5.71 9 4.5C9 3.12 10.12 2 11.5 2C12.88 2 14 3.12 14 4.5C14 5.71 13.14 6.71995 12 6.94995V10C12 10 13.65 10 14.5 10C14.63 10 14.7601 10.05 14.8501 10.15C14.9501 10.24 15 10.37 15 10.5C15 10.63 14.9501 10.76 14.8501 10.85C14.7601 10.95 14.63 11 14.5 11C13.65 11 12 11 12 11V20.98C15.35 20.72 18 17.92 18 14.5V14C18 14 17.09 14 16.5 14C16.37 14 16.2399 13.95 16.1499 13.85C16.0499 13.76 16 13.63 16 13.5C16 13.37 16.0499 13.24 16.1499 13.15C16.2399 13.05 16.37 13 16.5 13C16.91 13 17.5 13 18 13C18.26 13 18.52 13.11 18.71 13.29C18.89 13.48 19 13.74 19 14C19 14.28 19 14.5 19 14.5V14.51ZM11.5 3C12.33 3 13 3.67 13 4.5C13 5.33 12.33 6 11.5 6C10.67 6 10 5.33 10 4.5C10 3.67 10.67 3 11.5 3Z" fill="black"/>
</svg>
