<svg width="24" height="24" viewBox="0 0 24 24" fill="none" xmlns="http://www.w3.org/2000/svg">
<path fill-rule="evenodd" clip-rule="evenodd" d="M9.99707 5.28998V3H13.9971V5.28998C15.0671 5.60698 16.0271 6.17098 16.8071 6.91498L18.7971 5.76801L20.7971 9.23199L18.8071 10.377C18.9371 10.898 18.9971 11.441 18.9971 12C18.9971 12.559 18.9371 13.102 18.8071 13.623L20.7971 14.768L18.7971 18.232L16.8071 17.085C16.0271 17.829 15.0671 18.393 13.9971 18.71V21H9.99707V18.71C8.93707 18.393 7.97701 17.829 7.18701 17.085L5.20703 18.232L3.20703 14.768L5.18701 13.623C5.06701 13.102 4.99707 12.559 4.99707 12C4.99707 11.441 5.06701 10.898 5.18701 10.377L3.20703 9.23199L5.20703 5.76801L7.18701 6.91498C7.97701 6.17098 8.93707 5.60698 9.99707 5.28998Z" stroke="black" stroke-width="2" stroke-miterlimit="1.5" stroke-linecap="round" stroke-linejoin="round"/>
<circle cx="12" cy="12" r="3" stroke="black" stroke-width="2"/>
<path fill-rule="evenodd" clip-rule="evenodd" d="M9.99707 3V5.28998C8.93707 5.60698 7.97701 6.17098 7.18701 6.91498L5.20703 5.76801L3.20703 9.23199L5.18701 10.377C5.06701 10.898 4.99707 11.441 4.99707 12C4.99707 12.559 5.06701 13.102 5.18701 13.623L3.20703 14.768L5.20703 18.232L7.18701 17.085C7.97701 17.829 8.93707 18.393 9.99707 18.71V21H13.9971V18.71C15.0671 18.393 16.0271 17.829 16.8071 17.085L18.7971 18.232L20.7971 14.768L18.8071 13.623C18.9371 13.102 18.9971 12.559 18.9971 12C18.9971 11.441 18.9371 10.898 18.8071 10.377L20.7971 9.23199L18.7971 5.76801L16.8071 6.91498C16.0271 6.17098 15.0671 5.60698 13.9971 5.28998V3H9.99707ZM12 15C13.6569 15 15 13.6569 15 12C15 10.3431 13.6569 9 12 9C10.3431 9 9 10.3431 9 12C9 13.6569 10.3431 15 12 15Z" fill="black" fill-opacity="0.1"/>
</svg>
