<svg width="24" height="24" viewBox="0 0 24 24" fill="none" xmlns="http://www.w3.org/2000/svg">
<path fill-rule="evenodd" clip-rule="evenodd" d="M13 7.82929C14.1652 7.41746 15 6.30622 15 5C15 3.34315 13.6569 2 12 2C10.3431 2 9 3.34315 9 5C9 6.30622 9.83481 7.41746 11 7.82929V10H10C9.44772 10 9 10.4477 9 11C9 11.5523 9.44772 12 10 12H11V19.917C8.4875 19.4955 6.50448 17.5125 6.08296 15H7C7.55228 15 8 14.5523 8 14C8 13.4477 7.55228 13 7 13H5C4.44772 13 4 13.4477 4 14C4 18.4183 7.58172 22 12 22C16.4183 22 20 18.4183 20 14C20 13.4477 19.5523 13 19 13H17C16.4477 13 16 13.4477 16 14C16 14.5523 16.4477 15 17 15H17.917C17.4955 17.5125 15.5125 19.4955 13 19.917V12H14C14.5523 12 15 11.5523 15 11C15 10.4477 14.5523 10 14 10H13V7.82929ZM13 5C13 5.55228 12.5523 6 12 6C11.4477 6 11 5.55228 11 5C11 4.44772 11.4477 4 12 4C12.5523 4 13 4.44772 13 5Z" fill="black"/>
</svg>
