<svg width="24" height="24" viewBox="0 0 24 24" fill="none" xmlns="http://www.w3.org/2000/svg">
<path fill-rule="evenodd" clip-rule="evenodd" d="M3.3634 12.3157C3.26782 12.1943 3.18628 12.0881 3.11987 12C3.24915 11.8286 3.43518 11.5886 3.67127 11.3025C4.16345 10.7051 4.86963 9.91016 5.72583 9.1167C7.46191 7.50806 9.71497 6 12 6C14.285 6 16.5381 7.50806 18.2742 9.1167C19.1304 9.91016 19.8364 10.7051 20.3287 11.3025C20.4492 11.4485 20.5568 11.5825 20.6503 11.7017C20.74 11.8157 20.8169 11.916 20.8801 12C20.7509 12.1714 20.5648 12.4114 20.3287 12.6975C19.8364 13.2949 19.1304 14.0898 18.2742 14.8833C16.5381 16.4919 14.285 18 12 18C9.71497 18 7.46191 16.4919 5.72583 14.8833C4.86963 14.0898 4.16345 13.2949 3.67127 12.6975C3.55652 12.5586 3.45374 12.4304 3.3634 12.3157ZM21.9088 11.7122L21.91 11.7139C22.0298 11.8857 22.0294 12.1147 21.9097 12.2866L21.8884 12.2717C21.9094 12.2869 21.9092 12.2874 21.9088 12.2878L21.9058 12.2922L21.8947 12.3079L21.8533 12.3657C21.8171 12.4158 21.7642 12.488 21.6954 12.5796C21.5579 12.7627 21.3569 13.0225 21.1005 13.3337C20.5881 13.9551 19.8513 14.7852 18.9539 15.6167C17.1824 17.2581 14.6855 19 12 19C9.31445 19 6.81751 17.2581 5.04614 15.6167C4.14868 14.7852 3.41187 13.9551 2.89954 13.3337C2.64307 13.0225 2.44214 12.7627 2.30457 12.5796C2.23584 12.488 2.18286 12.4158 2.14673 12.3657L2.10535 12.3079L2.09424 12.2922L2.09119 12.2878L2.08972 12.2859C1.97009 12.114 1.97058 11.8853 2.09021 11.7134L2.11633 11.7317C2.09058 11.7131 2.09082 11.7126 2.09119 11.7122L2.09424 11.7078L2.10535 11.6921L2.14673 11.6343C2.18286 11.5842 2.23584 11.512 2.30457 11.4204C2.38098 11.3186 2.47705 11.1931 2.59131 11.0483C2.68262 10.9326 2.78564 10.8044 2.89954 10.6663C3.41187 10.0449 4.14868 9.21484 5.04614 8.3833C6.81751 6.74194 9.31445 5 12 5C14.6855 5 17.1824 6.74194 18.9539 8.3833C19.8513 9.21484 20.5881 10.0449 21.1005 10.6663C21.3569 10.9775 21.5579 11.2373 21.6954 11.4204C21.7642 11.512 21.8171 11.5842 21.8533 11.6343L21.8947 11.6921L21.9058 11.7078L21.9088 11.7122ZM10 12C10 10.8955 10.8954 10 12 10C13.1046 10 14 10.8955 14 12C14 13.1045 13.1046 14 12 14C10.8954 14 10 13.1045 10 12ZM12 9C10.3431 9 9 10.3433 9 12C9 13.6567 10.3431 15 12 15C13.6569 15 15 13.6567 15 12C15 10.3433 13.6569 9 12 9Z" fill="black"/>
<path fill-rule="evenodd" clip-rule="evenodd" d="M3 12C4.33337 10 8 6 12 6C16 6 19.6666 10 21 12C19.3334 14 16 18 12 18C8 18 4.66663 14 3 12ZM12 14C13.1046 14 14 13.1045 14 12C14 10.8955 13.1046 10 12 10C10.8954 10 10 10.8955 10 12C10 13.1045 10.8954 14 12 14Z" fill="black" fill-opacity="0.1"/>
</svg>
