<svg width="24" height="24" viewBox="0 0 24 24" fill="none" xmlns="http://www.w3.org/2000/svg">
<path fill-rule="evenodd" clip-rule="evenodd" d="M9.70452 7.29132C9.88452 7.47832 9.99456 7.73329 9.99456 7.99829C9.99456 8.26329 9.88452 8.51826 9.70452 8.70526C8.55452 9.85426 6.40448 11.9983 6.40448 11.9983C6.40448 11.9983 8.55452 14.1423 9.70452 15.2913C9.88452 15.4783 9.99456 15.7333 9.99456 15.9983C9.99456 16.2633 9.88452 16.5182 9.70452 16.7052C9.51452 16.8932 9.25456 16.9983 8.99456 16.9983C8.73456 16.9983 8.4746 16.8932 8.2846 16.7052C7.2546 15.6672 5.32461 13.7432 4.28461 12.7052C4.10461 12.5183 3.99457 12.2633 3.99457 11.9983C3.99457 11.7333 4.10461 11.4783 4.28461 11.2913C5.32461 10.2533 7.2546 8.32932 8.2846 7.29132C8.4746 7.10332 8.73456 6.99829 8.99456 6.99829C9.25456 6.99829 9.51452 7.10332 9.70452 7.29132ZM19.7045 11.2913C19.8845 11.4783 19.9946 11.7333 19.9946 11.9983C19.9946 12.2633 19.8845 12.5183 19.7045 12.7052C18.6645 13.7432 16.7345 15.6672 15.7045 16.7052C15.5145 16.8932 15.2546 16.9983 14.9946 16.9983C14.7346 16.9983 14.4746 16.8932 14.2846 16.7052C14.1046 16.5182 13.9946 16.2633 13.9946 15.9983C13.9946 15.7333 14.1046 15.4783 14.2846 15.2913C15.4346 14.1423 17.5846 11.9983 17.5846 11.9983C17.5846 11.9983 15.4346 9.85426 14.2846 8.70526C14.1046 8.51826 13.9946 8.26329 13.9946 7.99829C13.9946 7.73329 14.1046 7.47832 14.2846 7.29132C14.4746 7.10332 14.7346 6.99829 14.9946 6.99829C15.2546 6.99829 15.5145 7.10332 15.7045 7.29132C16.7345 8.32932 18.6645 10.2533 19.7045 11.2913Z" fill="#333333"/>
</svg>
