<svg width="24" height="24" viewBox="0 0 24 24" fill="none" xmlns="http://www.w3.org/2000/svg">
<path fill-rule="evenodd" clip-rule="evenodd" d="M15.4399 16.14C14.1199 17.3 12.39 18 10.5 18C6.36 18 3 14.64 3 10.5C3 6.36 6.36 3 10.5 3C14.64 3 18 6.36 18 10.5C18 12.39 17.2999 14.1199 16.1399 15.4399C16.1399 15.4399 20.5401 19.83 21.8501 21.14C21.9401 21.23 21.99 21.36 21.99 21.5C21.99 21.64 21.9401 21.77 21.8501 21.86C21.8501 21.86 21.8501 21.86 21.8401 21.86C21.7501 21.95 21.63 22.01 21.5 22.01C21.37 22.01 21.2499 21.95 21.1599 21.86C19.8699 20.58 15.4399 16.14 15.4399 16.14ZM10.5 4C14.09 4 17 6.91 17 10.5C17 14.09 14.09 17 10.5 17C6.91 17 4 14.09 4 10.5C4 6.91 6.91 4 10.5 4Z" fill="#333333"/>
</svg>
