<svg width="24" height="24" viewBox="0 0 24 24" fill="none" xmlns="http://www.w3.org/2000/svg">
<path fill-rule="evenodd" clip-rule="evenodd" d="M16 13.5C16 13.367 16.0499 13.24 16.1499 13.146C16.2399 13.053 16.37 13 16.5 13C17.12 13 18.2 13 19 13C19.55 13 20 13.448 20 14C20 18.42 16.41 22 12 22C7.59 22 4 18.42 4 14C4 14 4 14 4 13.999C4 13.447 4.45 13 5 13C5.8 13 6.88 13 7.5 13C7.63 13 7.7601 13.053 7.8501 13.146C7.9501 13.24 8 13.367 8 13.5C8 13.633 7.9501 13.76 7.8501 13.854C7.7601 13.947 7.63 14 7.5 14C6.91 14 6 14 6 14C6 16.97 8.16 19.44 11 19.92V11C11 11 10.09 11 9.5 11C9.37 11 9.2399 10.947 9.1499 10.854C9.0499 10.76 9 10.633 9 10.5C9 10.367 9.0499 10.24 9.1499 10.146C9.2399 10.053 9.37 10 9.5 10C10.09 10 11 10 11 10V7.82898C9.84 7.41698 9 6.305 9 5C9 3.344 10.34 2 12 2C13.66 2 15 3.344 15 5C15 6.305 14.16 7.41698 13 7.82898V10C13 10 13.91 10 14.5 10C14.63 10 14.7601 10.053 14.8501 10.146C14.9501 10.24 15 10.367 15 10.5C15 10.633 14.9501 10.76 14.8501 10.854C14.7601 10.947 14.63 11 14.5 11C13.91 11 13 11 13 11V19.92C15.84 19.44 18 16.97 18 14C18 14 17.09 14 16.5 14C16.37 14 16.2399 13.947 16.1499 13.854C16.0499 13.76 16 13.633 16 13.5ZM12 4C12.55 4 13 4.448 13 5C13 5.552 12.55 6 12 6C11.45 6 11 5.552 11 5C11 4.448 11.45 4 12 4Z" fill="#333333"/>
</svg>
