<svg width="24" height="24" viewBox="0 0 24 24" fill="none" xmlns="http://www.w3.org/2000/svg">
<path fill-rule="evenodd" clip-rule="evenodd" d="M19.0016 19.9975C19.0016 20.5475 18.5516 20.9975 18.0016 20.9975C15.4216 20.9975 8.58158 20.9975 6.00159 20.9975C5.45159 20.9975 5.00159 20.5475 5.00159 19.9975C5.00159 17.7375 5.00159 12.2575 5.00159 9.99754C5.00159 9.44554 5.45159 8.99754 6.00159 8.99754C6.87159 8.99754 8.00158 8.99754 8.00158 8.99754C8.00158 8.99754 8.00158 6.89755 8.00158 4.99755C8.00158 3.34056 9.34158 1.99756 11.0016 1.99756C11.6516 1.99756 12.3516 1.99756 13.0016 1.99756C14.6616 1.99756 16.0016 3.34056 16.0016 4.99755C16.0016 5.57955 16.0016 6.12455 16.0016 6.49755C16.0016 6.63055 15.9516 6.75755 15.8516 6.85155C15.7616 6.94455 15.6316 6.99755 15.5016 6.99755C15.3716 6.99755 15.2416 6.94455 15.1516 6.85155C15.0516 6.75755 15.0016 6.63055 15.0016 6.49755C15.0016 6.11355 15.0016 5.55555 15.0016 4.99755C15.0016 3.89255 14.1116 2.99756 13.0016 2.99756C12.3616 2.99756 11.6416 2.99756 11.0016 2.99756C9.89158 2.99756 9.00158 3.89255 9.00158 4.99755C9.00158 6.74255 9.00158 8.99754 9.00158 8.99754C9.00158 8.99754 15.4716 8.99754 18.0016 8.99754C18.5516 8.99754 19.0016 9.44554 19.0016 9.99754C19.0016 12.2575 19.0016 17.7375 19.0016 19.9975ZM18.0016 9.99754H6.00159V19.9975H18.0016V9.99754ZM11.0016 14.9975C11.0016 14.4455 11.4516 13.9975 12.0016 13.9975C12.5516 13.9975 13.0016 14.4455 13.0016 14.9975C13.0016 15.5495 12.5516 15.9975 12.0016 15.9975C11.4516 15.9975 11.0016 15.5495 11.0016 14.9975Z" fill="black"/>
<rect x="6" y="10" width="12" height="10" fill="black" fill-opacity="0.1"/>
</svg>
