<svg width="24" height="24" viewBox="0 0 24 24" fill="none" xmlns="http://www.w3.org/2000/svg">
<path fill-rule="evenodd" clip-rule="evenodd" d="M6.31351 14.2644C5.54385 13.5557 4.918 12.8438 4.48453 12.3083C4.39444 12.197 4.3129 12.0938 4.24039 12C4.3129 11.9062 4.39444 11.803 4.48453 11.6917C4.918 11.1562 5.54385 10.4443 6.31351 9.7356C7.88846 8.28516 9.89993 7 12 7C14.1001 7 16.1116 8.28516 17.6866 9.7356C18.4562 10.4443 19.0821 11.1562 19.5155 11.6917C19.6056 11.803 19.6872 11.9062 19.7597 12C19.6872 12.0938 19.6056 12.197 19.5155 12.3083C19.0821 12.8438 18.4562 13.5557 17.6866 14.2644C16.1116 15.7148 14.1001 17 12 17C9.89993 17 7.88846 15.7148 6.31351 14.2644ZM21.8282 11.4395L21.8294 11.4412C21.83 11.4421 21.8302 11.4424 21 12C21.8302 12.5576 21.83 12.5579 21.8294 12.5588L21.8282 12.5605L21.8247 12.5657L21.8134 12.5823L21.7731 12.6404C21.7386 12.6897 21.6889 12.7598 21.6245 12.8479C21.4961 13.0237 21.3092 13.2712 21.07 13.5667C20.5927 14.1562 19.9005 14.9443 19.0414 15.7356C17.359 17.2852 14.8705 19 12 19C9.12955 19 6.64102 17.2852 4.95865 15.7356C4.09952 14.9443 3.40738 14.1562 2.93008 13.5667C2.7692 13.3679 2.63199 13.1909 2.52029 13.0427C2.46597 12.9707 2.41763 12.9055 2.37552 12.8479C2.31119 12.7598 2.26151 12.6897 2.22696 12.6404L2.18668 12.5823L2.17532 12.5657L2.17191 12.5605L2.17068 12.5588C2.17007 12.5579 2.16983 12.5576 3.00003 12C2.16983 11.4424 2.17007 11.4421 2.17068 11.4412L2.17191 11.4395L2.17532 11.4343L2.18668 11.4177L2.22696 11.3596C2.26151 11.3103 2.31119 11.2402 2.37552 11.1521C2.50394 10.9763 2.69083 10.7288 2.93008 10.4333C3.40738 9.84375 4.09952 9.05566 4.95865 8.2644C6.64102 6.71484 9.12955 5 12 5C14.8705 5 17.359 6.71484 19.0414 8.2644C19.9005 9.05566 20.5927 9.84375 21.07 10.4333C21.3092 10.7288 21.4961 10.9763 21.6245 11.1521C21.6889 11.2402 21.7386 11.3103 21.7731 11.3596L21.8134 11.4177L21.8247 11.4343L21.8282 11.4395ZM21 12L21.8302 11.4424C22.0567 11.7798 22.0567 12.2202 21.8302 12.5576L21 12ZM2.16983 11.4424L3.00003 12L2.16983 12.5576C1.94339 12.2202 1.94339 11.7798 2.16983 11.4424ZM11 12C11 11.4478 11.4478 11 12 11C12.5523 11 13 11.4478 13 12C13 12.5522 12.5523 13 12 13C11.4478 13 11 12.5522 11 12ZM12 9C10.3432 9 9.00003 10.3433 9.00003 12C9.00003 13.6567 10.3432 15 12 15C13.6569 15 15 13.6567 15 12C15 10.3433 13.6569 9 12 9Z" fill="black"/>
<path fill-rule="evenodd" clip-rule="evenodd" d="M3 12C4.33337 10 8 6 12 6C16 6 19.6666 10 21 12C19.3334 14 16 18 12 18C8 18 4.66663 14 3 12ZM12 14C13.1046 14 14 13.1045 14 12C14 10.8955 13.1046 10 12 10C10.8954 10 10 10.8955 10 12C10 13.1045 10.8954 14 12 14Z" fill="black" fill-opacity="0.1"/>
</svg>
