<svg width="24" height="24" viewBox="0 0 24 24" fill="none" xmlns="http://www.w3.org/2000/svg">
<path fill-rule="evenodd" clip-rule="evenodd" d="M19.0016 19.9975C19.0016 20.5475 18.5516 20.9975 18.0016 20.9975C15.4216 20.9975 8.58158 20.9975 6.00159 20.9975C5.45159 20.9975 5.00159 20.5475 5.00159 19.9975C5.00159 17.7375 5.00159 12.2575 5.00159 9.99754C5.00159 9.44554 5.45159 8.99754 6.00159 8.99754C6.87159 8.99754 8.00158 8.99754 8.00158 8.99754C8.00158 8.99754 8.00158 6.89755 8.00158 4.99755C8.00158 3.34056 9.34158 1.99756 11.0016 1.99756C11.6516 1.99756 12.3516 1.99756 13.0016 1.99756C14.6616 1.99756 16.0016 3.34056 16.0016 4.99755C16.0016 5.35555 16.0016 5.69955 16.0016 5.99755C16.0016 6.26255 15.8915 6.51752 15.7115 6.70452C15.5215 6.89252 15.2716 6.99755 15.0016 6.99755C14.4516 6.99755 14.0016 6.54955 14.0016 5.99755C14.0016 5.67555 14.0016 5.31955 14.0016 4.99755C14.0016 4.44555 13.5516 3.99755 13.0016 3.99755C12.3916 3.99755 11.6116 3.99755 11.0016 3.99755C10.4516 3.99755 10.0016 4.44555 10.0016 4.99755C10.0016 6.45655 10.0016 8.99754 10.0016 8.99754C10.0016 8.99754 15.6516 8.99754 18.0016 8.99754C18.2716 8.99754 18.5215 9.10257 18.7115 9.29057C18.8915 9.47757 19.0016 9.73254 19.0016 9.99754C19.0016 12.2575 19.0016 17.7375 19.0016 19.9975ZM17.0016 10.9975H7.00159V18.9975H17.0016V10.9975ZM11.0016 14.9975C11.0016 14.4455 11.4516 13.9975 12.0016 13.9975C12.5516 13.9975 13.0016 14.4455 13.0016 14.9975C13.0016 15.5495 12.5516 15.9975 12.0016 15.9975C11.4516 15.9975 11.0016 15.5495 11.0016 14.9975Z" fill="black"/>
<rect x="6" y="10" width="12" height="10" fill="black" fill-opacity="0.1"/>
</svg>
