<svg width="24" height="24" viewBox="0 0 24 24" fill="none" xmlns="http://www.w3.org/2000/svg">
<path fill-rule="evenodd" clip-rule="evenodd" d="M3.67121 12.6976C3.43521 12.4113 3.2491 12.1713 3.11991 12C3.2491 11.8287 3.43521 11.5887 3.67121 11.3024C4.16351 10.7052 4.86968 9.91013 5.72588 9.11675C7.46187 7.50814 9.71493 6 12 6C14.2851 6 16.5381 7.50814 18.2741 9.11675C19.1303 9.91013 19.8365 10.7052 20.3288 11.3024C20.5648 11.5887 20.7509 11.8287 20.8801 12C20.7509 12.1713 20.5648 12.4113 20.3288 12.6976C19.8365 13.2948 19.1303 14.0899 18.2741 14.8832C16.5381 16.4919 14.2851 18 12 18C9.71493 18 7.46187 16.4919 5.72588 14.8832C4.86968 14.0899 4.16351 13.2948 3.67121 12.6976ZM21.5 12C21.9102 11.7141 21.9101 11.714 21.91 11.7139L21.5 12ZM21.9097 12.2866L21.9088 12.2879L21.9058 12.2922L21.8947 12.3079C21.8852 12.3213 21.8713 12.3408 21.8532 12.3658C21.8171 12.4158 21.7642 12.4882 21.6954 12.5797C21.5579 12.7627 21.3569 13.0225 21.1004 13.3337C20.5881 13.9552 19.8513 14.7851 18.9538 15.6168C17.1824 17.2581 14.6855 19 12 19C9.3145 19 6.81756 17.2581 5.04619 15.6168C4.14872 14.7851 3.41186 13.9552 2.89956 13.3337C2.6431 13.0225 2.44212 12.7627 2.30461 12.5797C2.23584 12.4882 2.18289 12.4158 2.14676 12.3658C2.12869 12.3408 2.11483 12.3213 2.10529 12.3079L2.09424 12.2922L2.09118 12.2879L2.08977 12.2859L2.5 12L2.09027 11.7134L2.09118 11.7121L2.09424 11.7078L2.10529 11.6921C2.11483 11.6787 2.12869 11.6592 2.14676 11.6342C2.18289 11.5842 2.23584 11.5118 2.30461 11.4203C2.44212 11.2373 2.6431 10.9775 2.89956 10.6663C3.41186 10.0448 4.14872 9.21487 5.04619 8.38325C6.81756 6.74186 9.3145 5 12 5C14.6855 5 17.1824 6.74186 18.9538 8.38325C19.8513 9.21487 20.5881 10.0448 21.1004 10.6663C21.3569 10.9775 21.5579 11.2373 21.6954 11.4203C21.7642 11.5118 21.8171 11.5842 21.8532 11.6342C21.8713 11.6592 21.8852 11.6787 21.8947 11.6921L21.9058 11.7078L21.9088 11.7121L21.91 11.7139C22.0297 11.8856 22.0294 12.1148 21.9097 12.2866ZM2.09027 11.7134C2.09016 11.7136 2.08977 11.7141 2.5 12C2.08977 12.2859 2.08967 12.2857 2.08977 12.2859C1.97007 12.1141 1.97057 11.8852 2.09027 11.7134ZM21.5 12L21.9097 12.2866C21.9098 12.2864 21.9102 12.2859 21.5 12ZM10 12C10 10.8954 10.8954 10 12 10C13.1046 10 14 10.8954 14 12C14 13.1046 13.1046 14 12 14C10.8954 14 10 13.1046 10 12ZM12 9C10.3431 9 9 10.3431 9 12C9 13.6569 10.3431 15 12 15C13.6569 15 15 13.6569 15 12C15 10.3431 13.6569 9 12 9Z" fill="black"/>
<path fill-rule="evenodd" clip-rule="evenodd" d="M3 12C4.33333 10 8 6 12 6C16 6 19.6667 10 21 12C19.3333 14 16 18 12 18C8 18 4.66667 14 3 12ZM12 14C13.1046 14 14 13.1046 14 12C14 10.8954 13.1046 10 12 10C10.8954 10 10 10.8954 10 12C10 13.1046 10.8954 14 12 14Z" fill="black" fill-opacity="0.1"/>
</svg>
