<svg width="24" height="24" viewBox="0 0 24 24" fill="none" xmlns="http://www.w3.org/2000/svg">
<path fill-rule="evenodd" clip-rule="evenodd" d="M9.77705 5.77277C9.97539 5.70288 10.1076 5.51401 10.1076 5.30245C10.1076 4.94545 10.1076 4.39767 10.1076 3.99911C10.1076 3.72334 10.3343 3.49951 10.6082 3.49951C11.3354 3.49951 12.667 3.49951 13.3848 3.49951C13.6681 3.49951 13.8854 3.72334 13.8854 3.99911C13.8854 4.39767 13.8854 4.94545 13.8854 5.30245C13.8854 5.51495 14.027 5.70386 14.2253 5.77375C14.9809 6.04386 15.6704 6.44901 16.2748 6.95996C16.4354 7.09879 16.6715 7.12144 16.8509 7.01472C17.1626 6.83811 17.6348 6.56331 17.9842 6.36403C18.2203 6.2252 18.5321 6.30736 18.6643 6.5463C19.0232 7.17341 19.6937 8.32561 20.0526 8.95272C20.1943 9.19166 20.1092 9.49768 19.8731 9.63557C19.5237 9.83485 19.0515 10.1078 18.7398 10.2863C18.5604 10.393 18.4659 10.6027 18.5037 10.8114C18.5698 11.1967 18.6076 11.5943 18.6076 11.9995C18.6076 12.4047 18.5698 12.8023 18.5037 13.1876C18.4659 13.3954 18.5604 13.606 18.7398 13.7118C19.0515 13.8912 19.5237 14.1642 19.8731 14.3634C20.1092 14.5013 20.1943 14.8074 20.0526 15.0463C19.6937 15.6734 19.0232 16.8256 18.6643 17.4527C18.5321 17.6917 18.2203 17.7738 17.9842 17.635C17.6348 17.4357 17.1626 17.1609 16.8509 16.9824C16.6715 16.8766 16.4354 16.8993 16.2748 17.0381C15.6704 17.55 14.9809 17.9552 14.2253 18.2262C14.027 18.2961 13.8948 18.485 13.8948 18.6966C13.8854 19.0536 13.8854 19.6013 13.8854 19.9999C13.8854 20.2757 13.6681 20.4995 13.3848 20.4995C12.667 20.4995 11.3354 20.4995 10.6082 20.4995C10.3343 20.4995 10.1076 20.2757 10.1076 19.9999C10.1076 19.6013 10.1076 19.0536 10.1076 18.6966C10.1076 18.4841 9.97539 18.2952 9.77705 18.2253C9.0215 17.9552 8.32256 17.55 7.71811 17.0391C7.55756 16.9002 7.33092 16.8776 7.15147 16.9843C6.8398 17.1609 6.35818 17.4357 6.01818 17.635C5.77263 17.7738 5.47031 17.6917 5.32864 17.4527C4.96975 16.8256 4.30867 15.6734 3.94034 15.0463C3.80812 14.8074 3.88374 14.5013 4.1293 14.3634C4.4693 14.1642 4.94146 13.8913 5.25313 13.7128C5.44202 13.606 5.53647 13.3963 5.49869 13.1876C5.42314 12.8023 5.38537 12.4047 5.38537 11.9995C5.38537 11.5943 5.42314 11.1967 5.49869 10.8114C5.53647 10.6036 5.44202 10.393 5.25313 10.2872C4.94146 10.1078 4.4693 9.83485 4.1293 9.63557C3.88374 9.49768 3.80812 9.19166 3.94034 8.95272C4.30867 8.32561 4.96975 7.17341 5.32864 6.5463C5.47031 6.30736 5.77263 6.2252 6.01818 6.36403C6.35818 6.56331 6.8398 6.83812 7.14202 7.01662C7.33091 7.1224 7.55757 7.09971 7.72757 6.96088C8.32257 6.44899 9.0215 6.04383 9.77705 5.77277Z" stroke="black" stroke-width="1.06" stroke-miterlimit="1.5" stroke-linecap="round" stroke-linejoin="round"/>
<path d="M11.9977 15C13.6529 15 14.9947 13.6569 14.9947 12C14.9947 10.3431 13.6529 9 11.9977 9C10.3425 9 9.00073 10.3431 9.00073 12C9.00073 13.6569 10.3425 15 11.9977 15Z" stroke="black" stroke-width="1.13" stroke-miterlimit="1.5" stroke-linecap="round" stroke-linejoin="round"/>
</svg>
