<svg width="24" height="24" viewBox="0 0 24 24" fill="none" xmlns="http://www.w3.org/2000/svg">
<path fill-rule="evenodd" clip-rule="evenodd" d="M9.17305 17.9985H5.57504C5.23304 17.9985 4.91602 17.8245 4.73202 17.5365C4.54802 17.2485 4.52405 16.8865 4.66805 16.5765C4.85705 16.1735 5.06504 15.7275 5.26504 15.2985C5.74704 14.2505 5.99606 13.1105 5.99606 11.9565C5.99606 10.6175 5.99606 8.99852 5.99606 8.99852C5.99606 5.68653 8.68505 2.99854 11.9961 2.99854C15.308 2.99854 17.996 5.68753 17.996 8.99852C17.996 8.99852 17.996 10.5965 17.996 11.9315C17.996 13.1025 18.253 14.2595 18.749 15.3205C18.942 15.7325 19.148 16.1725 19.336 16.5745C19.481 16.8845 19.4581 17.2465 19.2741 17.5355C19.0901 17.8235 18.7721 17.9985 18.4301 17.9985H14.831C14.419 19.1635 13.307 19.9985 12.002 19.9985C10.697 19.9985 9.58505 19.1635 9.17305 17.9985ZM13.872 17.9985H10.1311C10.4891 18.6655 11.193 19.1195 12.002 19.1195C12.811 19.1195 13.515 18.6655 13.872 17.9985ZM5.56606 16.9985H18.426C18.426 16.9985 18.0931 16.2825 17.7481 15.5435C17.2551 14.4865 16.9991 13.3345 16.9981 12.1685C16.9971 10.7515 16.996 8.99852 16.996 8.99852C16.996 6.23853 14.756 3.99853 11.9961 3.99853C9.23605 3.99853 6.99605 6.23853 6.99605 8.99852C6.99605 8.99852 6.99802 10.7315 7.00002 12.1405C7.00102 13.3115 6.74502 14.4685 6.25002 15.5305C5.90302 16.2755 5.56606 16.9985 5.56606 16.9985Z" fill="black"/>
<path d="M6.5 13L5 17.5H19L17.5 13V8L15 4.5L12 3.5L9 4.5L6.5 8V13Z" fill="black" fill-opacity="0.1"/>
</svg>
