<svg width="24" height="24" viewBox="0 0 24 24" fill="none" xmlns="http://www.w3.org/2000/svg">
<path fill-rule="evenodd" clip-rule="evenodd" d="M13 18.5C13 18.78 12.78 19 12.5 19C12.22 19 12 18.78 12 18.5C12 16.32 12 7.678 12 5.5C12 5.224 12.22 5 12.5 5C12.78 5 13 5.22302 13 5.49902C13 7.67502 13 16.33 13 18.5ZM6.00001 18.5C6.00001 18.78 5.78001 19 5.50001 19C5.22001 19 5.00001 18.78 5.00001 18.5C5.00001 16.32 5.00001 7.678 5.00001 5.5C5.00001 5.224 5.22001 5 5.50001 5C5.78001 5 6.00001 5.224 6.00001 5.5C6.00001 7.678 6.00001 16.32 6.00001 18.5ZM11 18.5C11 18.78 10.78 19 10.5 19C10.22 19 10 18.78 10 18.5C10 16.32 10 7.678 10 5.5C10 5.224 10.22 5 10.5 5C10.78 5 11 5.224 11 5.5C11 7.678 11 16.32 11 18.5ZM15 18C15 18.55 15.1 19 14.55 19C14 19 14 18.55 14 18C14 15.423 14 8.577 14 6C14 5.448 14 5 14.55 5C15.1 5 15 5.448 15 6C15 8.577 15 15.423 15 18ZM18 18C18 18.55 18.1 19 17.55 19C17 19 17 18.55 17 18C17 15.423 17 8.577 17 6C17 5.448 17 5 17.55 5C18.1 5 18 5.448 18 6C18 8.577 18 15.423 18 18ZM8.00001 18C8.00001 18.55 8.05001 19 7.50001 19C6.95001 19 7.00001 18.55 7.00001 18C7.00001 15.423 7.00001 8.577 7.00001 6C7.00001 5.49902 6.95001 5 7.50001 5C8.05001 5 8.00001 5.448 8.00001 6C8.00001 8.577 8.00001 15.423 8.00001 18ZM21 18C21 18.55 21.1 19 20.55 19C20 19 20 18.55 20 18C20 15.423 20 8.577 20 6C20 5.448 20 5 20.55 5C21.1 5 21 5.448 21 6C21 8.577 21 15.423 21 18ZM3.00001 18C3.00001 18.55 3.05002 19 2.50002 19C1.95002 19 2.00001 18.55 2.00001 18C2.00001 15.423 2.00001 8.577 2.00001 6C2.00001 5.448 1.95001 5 2.50001 5C3.05001 5 3.00001 5.448 3.00001 6C3.00001 8.577 3.00001 15.423 3.00001 18Z" fill="black"/>
</svg>
