<svg width="24" height="24" viewBox="0 0 24 24" fill="none" xmlns="http://www.w3.org/2000/svg">
<path fill-rule="evenodd" clip-rule="evenodd" d="M20.9997 1.99805C21.2647 1.99805 21.5188 2.10308 21.7068 2.29108C21.8948 2.47808 21.9997 2.73305 21.9997 2.99804C21.9997 6.41204 21.9997 17.584 21.9997 20.998C21.9997 21.263 21.8948 21.518 21.7068 21.705C21.5188 21.893 21.2647 21.998 20.9997 21.998C17.5857 21.998 6.41375 21.998 2.99975 21.998C2.73476 21.998 2.47979 21.893 2.29279 21.705C2.10479 21.518 1.99976 21.263 1.99976 20.998C1.99976 17.584 1.99976 6.41204 1.99976 2.99804C1.99976 2.73305 2.10479 2.47808 2.29279 2.29108C2.47979 2.10308 2.73476 1.99805 2.99975 1.99805C6.41375 1.99805 17.5857 1.99805 20.9997 1.99805ZM19.9997 3.99804H3.99975V19.998H19.9997V3.99804Z" fill="#333333"/>
<path d="M6 6.99951C6.55228 6.99951 7 6.55179 7 5.99951C7 5.44723 6.55228 4.99951 6 4.99951C5.44771 4.99951 5 5.44723 5 5.99951C5 6.55179 5.44771 6.99951 6 6.99951Z" fill="#333333"/>
<path d="M9 6.99951C9.55228 6.99951 10 6.55179 10 5.99951C10 5.44723 9.55228 4.99951 9 4.99951C8.44771 4.99951 8 5.44723 8 5.99951C8 6.55179 8.44771 6.99951 9 6.99951Z" fill="#333333"/>
<path d="M12 6.99951C12.5523 6.99951 13 6.55179 13 5.99951C13 5.44723 12.5523 4.99951 12 4.99951C11.4477 4.99951 11 5.44723 11 5.99951C11 6.55179 11.4477 6.99951 12 6.99951Z" fill="#333333"/>
<path d="M20.9994 7.99805H2.99939V8.99804H20.9994V7.99805Z" fill="#333333"/>
<path d="M20.9994 14.998H2.99939V15.998H20.9994V14.998Z" fill="#333333"/>
<path fill-rule="evenodd" clip-rule="evenodd" d="M11.9997 17.498C11.9997 17.222 11.7757 16.998 11.4998 16.998H5.49377C5.21777 16.998 4.99377 17.222 4.99377 17.498C4.99377 17.774 5.21777 17.998 5.49377 17.998H11.4998C11.7757 17.998 11.9997 17.774 11.9997 17.498Z" fill="#333333"/>
<path d="M3.49976 14.4978L8.49975 10.4978L13.4997 14.4978" stroke="#333333" stroke-miterlimit="1.5" stroke-linecap="round" stroke-linejoin="round"/>
<path d="M11.9998 15.498L16.4998 12.498L20.4997 15.498" stroke="#333333" stroke-miterlimit="1.5" stroke-linecap="round" stroke-linejoin="round"/>
</svg>
