<svg width="24" height="24" viewBox="0 0 24 24" fill="none" xmlns="http://www.w3.org/2000/svg">
<path fill-rule="evenodd" clip-rule="evenodd" d="M12.1019 4.00183L12.2026 4.00517L12.3053 4.01184L12.4079 4.02116L12.5086 4.03247L12.6073 4.04647L12.7053 4.06315L12.8046 4.08183L12.9006 4.1025L12.9966 4.12581L13.0946 4.15251L13.1899 4.18115L13.2819 4.21114L13.3746 4.24382L13.4686 4.27917L13.5579 4.31584L13.6459 4.35449L13.7346 4.39583L13.8226 4.43982L13.9079 4.4845L13.9933 4.53247L14.0766 4.58183L14.1579 4.63249L14.2373 4.68514L14.3159 4.73914L14.3946 4.79647L14.4699 4.85449L14.5453 4.91516L14.6179 4.97717L14.6893 5.03984L14.7613 5.10649L14.8279 5.17249L14.8939 5.23914L14.9606 5.31116L15.0233 5.38249L15.0853 5.45516L15.1459 5.53048L15.204 5.60584L15.2613 5.68449L15.3153 5.76314L15.3679 5.84249L15.4186 5.92383L15.468 6.00716L15.5159 6.09249L15.5606 6.17782L15.6046 6.26583L15.6459 6.35449L15.6846 6.44251L15.7213 6.53182L15.7566 6.62582L15.7893 6.71851L15.8193 6.81051L15.8479 6.9058L15.8746 7.00383L15.8979 7.09981L15.9186 7.19584L15.9373 7.29517L15.954 7.39315L15.968 7.49182L15.9793 7.59249L15.9886 7.69515L15.9953 7.79781L15.9986 7.89848L15.9999 8.00049L15.9986 8.1025L15.9953 8.20317L15.9886 8.30583L15.9793 8.40849L15.968 8.50916L15.954 8.60783L15.9373 8.70581L15.9186 8.80514L15.8979 8.90117L15.8746 8.99715L15.8479 9.09518L15.8193 9.19047L15.7893 9.28247L15.7566 9.37517L15.7213 9.46916L15.6846 9.55847L15.6459 9.64649L15.6046 9.73515L15.5606 9.82316L15.5159 9.90849L15.468 9.99382L15.4186 10.0772L15.3679 10.1585L15.3153 10.2378L15.2613 10.3165L15.204 10.3951L15.1459 10.4705L15.0853 10.5458L15.0233 10.6185L14.9606 10.6898L14.8939 10.7618L14.8279 10.8285L14.7613 10.8945L14.6893 10.9611L14.6179 11.0238L14.5453 11.0858L14.4699 11.1465L14.3946 11.2045L14.3159 11.2618L14.2373 11.3158L14.1579 11.3685L14.0766 11.4192L13.9933 11.4685L13.9079 11.5165L13.8226 11.5612L13.7346 11.6051L13.6459 11.6465L13.5579 11.6851L13.4686 11.7218L13.3746 11.7572L13.2819 11.7898L13.1899 11.8198L13.0946 11.8485L12.9966 11.8752L12.9006 11.8985L12.8046 11.9192L12.7053 11.9378L12.6073 11.9545L12.5086 11.9685L12.4079 11.9798L12.3053 11.9891L12.2026 11.9958L12.1019 11.9991L11.9999 12.0005L11.8979 11.9991L11.7973 11.9958L11.6946 11.9891L11.5919 11.9798L11.4913 11.9685L11.3926 11.9545L11.2946 11.9378L11.1953 11.9192L11.0993 11.8985L11.0033 11.8752L10.9053 11.8485L10.81 11.8198L10.718 11.7898L10.6253 11.7572L10.5313 11.7218L10.442 11.6851L10.3539 11.6465L10.2653 11.6051L10.1773 11.5612L10.0919 11.5165L10.0066 11.4685L9.92328 11.4192L9.84194 11.3685L9.76259 11.3158L9.68394 11.2618L9.60529 11.2045L9.52993 11.1465L9.45461 11.0858L9.38194 11.0238L9.31061 10.9611L9.23859 10.8945L9.17194 10.8285L9.10594 10.7618L9.03929 10.6898L8.97662 10.6185L8.91461 10.5458L8.85394 10.4705L8.79592 10.3951L8.73859 10.3165L8.68459 10.2378L8.63194 10.1585L8.58128 10.0772L8.53192 9.99382L8.48395 9.90849L8.43927 9.82316L8.39528 9.73515L8.35394 9.64649L8.31529 9.55847L8.27863 9.46916L8.24327 9.37517L8.21059 9.28247L8.1806 9.19047L8.15196 9.09518L8.12526 8.99715L8.10195 8.90117L8.08128 8.80514L8.0626 8.70581L8.04592 8.60783L8.03192 8.50916L8.02061 8.40849L8.01129 8.30583L8.00462 8.20317L8.00128 8.1025L7.99994 8.00049L8.00128 7.89848L8.00462 7.79781L8.01129 7.69515L8.02061 7.59249L8.03192 7.49182L8.04592 7.39315L8.0626 7.29517L8.08128 7.19584L8.10195 7.09981L8.12526 7.00383L8.15196 6.9058L8.1806 6.81051L8.21059 6.71851L8.24327 6.62582L8.27863 6.53182L8.31529 6.44251L8.35394 6.35449L8.39528 6.26583L8.43927 6.17782L8.48395 6.09249L8.53192 6.00716L8.58128 5.92383L8.63194 5.84249L8.68459 5.76314L8.73859 5.68449L8.79592 5.60584L8.85394 5.53048L8.91461 5.45516L8.97662 5.38249L9.03929 5.31116L9.10594 5.23914L9.17194 5.17249L9.23859 5.10649L9.31061 5.03984L9.38194 4.97717L9.45461 4.91516L9.52993 4.85449L9.60529 4.79647L9.68394 4.73914L9.76259 4.68514L9.84194 4.63249L9.92328 4.58183L10.0066 4.53247L10.0919 4.4845L10.1773 4.43982L10.2653 4.39583L10.3539 4.35449L10.442 4.31584L10.5313 4.27917L10.6253 4.24382L10.718 4.21114L10.81 4.18115L10.9053 4.15251L11.0033 4.12581L11.0993 4.1025L11.1953 4.08183L11.2946 4.06315L11.3926 4.04647L11.4913 4.03247L11.5919 4.02116L11.6946 4.01184L11.7973 4.00517L11.8979 4.00183L11.9999 4.00049L12.1019 4.00183ZM11.9486 6.00114L11.8973 6.00317L11.8459 6.00647L11.7953 6.01115L11.7453 6.01648L11.6953 6.0238L11.6459 6.03182L11.5973 6.04114L11.5486 6.05184L11.5006 6.0638L11.4526 6.0765L11.4053 6.0905L11.3586 6.10584L11.3126 6.12183L11.2666 6.13916L11.2219 6.15784L11.1773 6.17717L11.1333 6.19784L11.0899 6.21916L11.0473 6.24182L11.0046 6.26583L10.9633 6.29049L10.9226 6.31584L10.8819 6.34249L10.8426 6.36983L10.8039 6.39783L10.7653 6.42717L10.7279 6.45715L10.6913 6.48849L10.6553 6.52051L10.6206 6.55314L10.586 6.58651L10.5526 6.62118L10.52 6.6558L10.4879 6.69181L10.4566 6.72848L10.4266 6.76583L10.3973 6.80449L10.3693 6.84314L10.3419 6.88249L10.3153 6.92314L10.2899 6.96383L10.2653 7.00517L10.2413 7.04781L10.2186 7.0905L10.1973 7.13383L10.1766 7.17782L10.1573 7.2225L10.1386 7.26717L10.1213 7.31315L10.1053 7.35917L10.0899 7.4058L10.0759 7.45317L10.0633 7.50114L10.0513 7.54916L10.0406 7.59782L10.0313 7.64649L10.0233 7.69584L10.0159 7.74581L10.0106 7.79582L10.0059 7.84648L10.0026 7.89783L10.0006 7.94914L9.99994 8.00049L10.0006 8.05184L10.0026 8.10315L10.0059 8.1545L10.0106 8.20516L10.0159 8.25517L10.0233 8.30514L10.0313 8.35449L10.0406 8.40316L10.0513 8.45183L10.0633 8.49984L10.0759 8.54781L10.0899 8.59518L10.1053 8.64181L10.1213 8.68783L10.1386 8.73381L10.1573 8.77849L10.1766 8.82316L10.1973 8.86715L10.2186 8.91048L10.2413 8.95317L10.2653 8.99581L10.2899 9.03715L10.3153 9.07784L10.3419 9.11849L10.3693 9.15784L10.3973 9.19649L10.4266 9.23515L10.4566 9.2725L10.4879 9.30917L10.52 9.34518L10.5526 9.3798L10.586 9.41447L10.6206 9.44784L10.6553 9.48047L10.6913 9.51249L10.7279 9.54383L10.7653 9.57381L10.8039 9.60315L10.8426 9.63115L10.8819 9.65849L10.9226 9.68514L10.9633 9.71049L11.0046 9.73515L11.0473 9.75916L11.0899 9.78182L11.1333 9.80314L11.1773 9.82381L11.2219 9.84314L11.2666 9.86182L11.3126 9.87915L11.3586 9.89514L11.4053 9.91048L11.4526 9.92448L11.5006 9.93718L11.5486 9.94914L11.5973 9.95984L11.6459 9.96916L11.6953 9.97718L11.7453 9.9845L11.7953 9.98983L11.8459 9.99451L11.8973 9.99781L11.9486 9.99984L11.9999 10.0005L12.0513 9.99984L12.1026 9.99781L12.154 9.99451L12.2046 9.98983L12.2546 9.9845L12.3046 9.97718L12.3539 9.96916L12.4026 9.95984L12.4513 9.94914L12.4993 9.93718L12.5473 9.92448L12.5946 9.91048L12.6413 9.89514L12.6873 9.87915L12.7333 9.86182L12.7779 9.84314L12.8226 9.82381L12.8666 9.80314L12.9099 9.78182L12.9526 9.75916L12.9953 9.73515L13.0366 9.71049L13.0773 9.68514L13.1179 9.65849L13.1573 9.63115L13.1959 9.60315L13.2346 9.57381L13.272 9.54383L13.3086 9.51249L13.3446 9.48047L13.3793 9.44784L13.4139 9.41447L13.4473 9.3798L13.4799 9.34518L13.5119 9.30917L13.5433 9.2725L13.5733 9.23515L13.6026 9.19649L13.6306 9.15784L13.6579 9.11849L13.6846 9.07784L13.7099 9.03715L13.7346 8.99581L13.7586 8.95317L13.7813 8.91048L13.8026 8.86715L13.8233 8.82316L13.8426 8.77849L13.8613 8.73381L13.8786 8.68783L13.8946 8.64181L13.9099 8.59518L13.9239 8.54781L13.9366 8.49984L13.9486 8.45183L13.9593 8.40316L13.9686 8.35449L13.9766 8.30514L13.9839 8.25517L13.9893 8.20516L13.994 8.1545L13.9973 8.10315L13.9993 8.05184L13.9999 8.00049L13.9993 7.94914L13.9973 7.89783L13.994 7.84648L13.9893 7.79582L13.9839 7.74581L13.9766 7.69584L13.9686 7.64649L13.9593 7.59782L13.9486 7.54916L13.9366 7.50114L13.9239 7.45317L13.9099 7.4058L13.8946 7.35917L13.8786 7.31315L13.8613 7.26717L13.8426 7.2225L13.8233 7.17782L13.8026 7.13383L13.7813 7.0905L13.7586 7.04781L13.7346 7.00517L13.7099 6.96383L13.6846 6.92314L13.6579 6.88249L13.6306 6.84314L13.6026 6.80449L13.5733 6.76583L13.5433 6.72848L13.5119 6.69181L13.4799 6.6558L13.4473 6.62118L13.4139 6.58651L13.3793 6.55314L13.3446 6.52051L13.3086 6.48849L13.272 6.45715L13.2346 6.42717L13.1959 6.39783L13.1573 6.36983L13.1179 6.34249L13.0773 6.31584L13.0366 6.29049L12.9953 6.26583L12.9526 6.24182L12.9099 6.21916L12.8666 6.19784L12.8226 6.17717L12.7779 6.15784L12.7333 6.13916L12.6873 6.12183L12.6413 6.10584L12.5946 6.0905L12.5473 6.0765L12.4993 6.0638L12.4513 6.05184L12.4026 6.04114L12.3539 6.03182L12.3046 6.0238L12.2546 6.01648L12.2046 6.01115L12.154 6.00647L12.1026 6.00317L12.0513 6.00114L11.9999 6.00049L11.9486 6.00114Z" fill="#333333"/>
<path fill-rule="evenodd" clip-rule="evenodd" d="M14.4745 12.587L14.5525 12.592L14.6296 12.601L14.7076 12.612L14.7836 12.627L14.8606 12.644L14.9355 12.665L15.0106 12.688L15.0835 12.714L15.1565 12.744L15.2276 12.775L15.2975 12.81L15.3656 12.848L15.4795 12.913L15.6136 12.994L15.7446 13.078L15.8736 13.165L16.0005 13.257L16.1255 13.352L16.2466 13.45L16.3646 13.55L16.4806 13.656L16.5945 13.765L16.7046 13.877L16.8116 13.993L16.9095 14.105L16.9636 14.171L17.0146 14.235L17.0646 14.299L17.1116 14.361L17.1576 14.425L17.2046 14.492L17.2496 14.558L17.2926 14.625L17.3356 14.693L17.3776 14.763L17.4186 14.833L17.4576 14.903L17.4966 14.976L17.5336 15.047L17.5685 15.12L17.6036 15.195L17.6376 15.27L17.6695 15.346L17.7016 15.424L17.7306 15.501L17.7576 15.577L17.7845 15.657L17.8105 15.739L17.8335 15.8169L17.8556 15.897L17.8776 15.981L17.8965 16.062L17.9136 16.145L17.9306 16.229L17.9446 16.314L17.9576 16.397L17.9686 16.482L17.9776 16.5669L17.9856 16.652L17.9916 16.74L17.9966 16.825L17.9986 16.911L17.9996 16.987V18.998L17.9975 19.077L17.9936 19.155L17.9856 19.233L17.9745 19.311L17.9615 19.388L17.9446 19.465L17.9245 19.541L17.9015 19.616L17.8755 19.69L17.8476 19.763L17.8155 19.8349L17.7815 19.906L17.7446 19.975L17.7046 20.043L17.6626 20.109L17.6175 20.174L17.5705 20.2359L17.5206 20.297L17.4686 20.3559L17.4136 20.412L17.3575 20.467L17.2986 20.519L17.2375 20.569L17.1756 20.616L17.1106 20.661L17.0445 20.703L16.9766 20.743L16.9076 20.78L16.8365 20.8139L16.7646 20.846L16.6916 20.8739L16.6175 20.8999L16.5426 20.923L16.4665 20.943L16.3896 20.9599L16.3126 20.9729L16.2345 20.984L16.1565 20.992L16.0785 20.996L15.9996 20.998H7.99957L7.92059 20.996L7.84259 20.992L7.76459 20.984L7.68658 20.9729L7.60956 20.9599L7.53259 20.943L7.45654 20.923L7.38159 20.8999L7.30755 20.8739L7.23456 20.846L7.1626 20.8139L7.09155 20.78L7.02258 20.743L6.95459 20.703L6.88855 20.661L6.82355 20.616L6.7616 20.569L6.70056 20.519L6.6416 20.467L6.58557 20.412L6.53058 20.3559L6.47858 20.297L6.42859 20.2359L6.38159 20.174L6.33655 20.109L6.29456 20.043L6.25458 19.975L6.21759 19.906L6.18359 19.8349L6.15155 19.763L6.1236 19.69L6.0976 19.616L6.07458 19.541L6.05457 19.465L6.0376 19.388L6.0246 19.311L6.01355 19.233L6.00555 19.155L6.00159 19.077L5.99957 18.998V16.987L6.00055 16.911L6.00256 16.825L6.00757 16.74L6.01355 16.652L6.02155 16.5669L6.03058 16.482L6.04156 16.397L6.05457 16.314L6.06854 16.229L6.08557 16.145L6.1026 16.062L6.12158 15.981L6.14355 15.897L6.16559 15.8169L6.1886 15.739L6.2146 15.657L6.24158 15.577L6.26855 15.501L6.29755 15.424L6.32959 15.346L6.36157 15.27L6.39557 15.195L6.4306 15.12L6.46558 15.047L6.50256 14.976L6.54156 14.903L6.58057 14.833L6.62158 14.763L6.66357 14.693L6.70654 14.625L6.74957 14.558L6.79455 14.492L6.84155 14.425L6.88757 14.361L6.93457 14.299L6.98456 14.235L7.03558 14.171L7.0896 14.105L7.18756 13.993L7.29455 13.877L7.4046 13.765L7.51855 13.656L7.63458 13.55L7.75256 13.45L7.87359 13.352L7.99859 13.257L8.12555 13.165L8.25458 13.078L8.38556 12.994L8.51959 12.913L8.63354 12.848L8.7016 12.81L8.77154 12.775L8.84259 12.744L8.91559 12.714L8.98858 12.688L9.0636 12.665L9.13855 12.644L9.21557 12.627L9.29156 12.612L9.36956 12.601L9.44659 12.592L9.52459 12.587L9.6026 12.584L9.6806 12.585L9.75854 12.589L9.83654 12.596L9.91455 12.605L9.99157 12.618L10.0676 12.634L10.1436 12.653L10.2186 12.675L10.2926 12.699L10.3526 12.72L10.4036 12.738L10.4535 12.754L10.5046 12.771L10.5556 12.786L10.6056 12.801L10.6566 12.816L10.7076 12.83L10.7585 12.843L10.8096 12.856L10.8616 12.868L10.9156 12.88L10.9665 12.891L11.0186 12.902L11.0726 12.912L11.1255 12.922L11.1786 12.931L11.2306 12.939L11.2856 12.947L11.3386 12.955L11.3935 12.962L11.4476 12.968L11.5005 12.974L11.5556 12.979L11.6116 12.983L11.6656 12.987L11.7206 12.99L11.7765 12.993L11.8315 12.995L11.8876 12.997L11.9435 12.998H11.9996H12.0556L12.1116 12.997L12.1676 12.995L12.2226 12.993L12.2786 12.99L12.3336 12.987L12.3876 12.983L12.4435 12.979L12.4986 12.974L12.5516 12.968L12.6056 12.962L12.6606 12.955L12.7136 12.947L12.7685 12.939L12.8206 12.931L12.8736 12.922L12.9266 12.912L12.9806 12.902L13.0326 12.891L13.0836 12.88L13.1376 12.868L13.1896 12.856L13.2406 12.843L13.2916 12.83L13.3426 12.816L13.3935 12.801L13.4435 12.786L13.4946 12.771L13.5456 12.754L13.5956 12.738L13.6465 12.72L13.7065 12.699L13.7806 12.675L13.8556 12.653L13.9316 12.634L14.0076 12.618L14.0846 12.605L14.1626 12.596L14.2406 12.589L14.3185 12.585L14.3965 12.584L14.4745 12.587ZM14.3046 14.609L14.2346 14.633L14.1645 14.656L14.0936 14.679L14.0226 14.701L13.9516 14.722L13.8796 14.742L13.8075 14.762L13.7356 14.781L13.6626 14.799L13.5896 14.816L13.5166 14.833L13.4435 14.849L13.3696 14.864L13.2956 14.878L13.2216 14.892L13.1465 14.904L13.0716 14.916L12.9966 14.927L12.9216 14.938L12.8466 14.947L12.7706 14.956L12.6946 14.964L12.6175 14.971L12.5416 14.977L12.4646 14.983L12.3876 14.987L12.3105 14.991L12.2325 14.994L12.1556 14.996L12.0776 14.998H11.9996H11.9216L11.8436 14.996L11.7666 14.994L11.6886 14.991L11.6116 14.987L11.5345 14.983L11.4576 14.977L11.3816 14.971L11.3046 14.964L11.2286 14.956L11.1526 14.947L11.0776 14.938L11.0026 14.927L10.9275 14.916L10.8526 14.904L10.7776 14.892L10.7035 14.878L10.6296 14.864L10.5556 14.849L10.4825 14.833L10.4095 14.816L10.3365 14.799L10.2635 14.781L10.1916 14.762L10.1196 14.742L10.0475 14.722L9.97656 14.701L9.90558 14.679L9.83459 14.656L9.76458 14.633L9.69458 14.609L9.62457 14.584L9.53357 14.636L9.44458 14.691L9.35754 14.747L9.27258 14.804L9.18957 14.864L9.10858 14.925L9.03058 14.988L8.95556 15.053L8.88159 15.119L8.81158 15.187L8.74255 15.256L8.67755 15.327L8.61456 15.4L8.58459 15.436L8.55456 15.474L8.52557 15.511L8.49756 15.549L8.46954 15.587L8.44256 15.625L8.41656 15.664L8.39056 15.703L8.36658 15.742L8.34259 15.782L8.31854 15.822L8.29657 15.862L8.2746 15.903L8.2536 15.944L8.23358 15.985L8.2146 16.026L8.19555 16.068L8.17755 16.11L8.16058 16.152L8.14459 16.195L8.12958 16.237L8.11456 16.28L8.10156 16.324L8.08856 16.367L8.0766 16.411L8.06555 16.4549L8.05456 16.499L8.04559 16.543L8.03656 16.588L8.02856 16.633L8.02258 16.678L8.0166 16.723L8.01159 16.768L8.00659 16.814L8.0036 16.86L8.00159 16.906L7.99957 16.952V16.998V18.998H15.9996V16.998V16.952L15.9975 16.906L15.9955 16.86L15.9925 16.814L15.9875 16.768L15.9825 16.723L15.9766 16.678L15.9706 16.633L15.9626 16.588L15.9535 16.543L15.9446 16.499L15.9336 16.4549L15.9225 16.411L15.9106 16.367L15.8976 16.324L15.8846 16.28L15.8696 16.237L15.8545 16.195L15.8386 16.152L15.8216 16.11L15.8036 16.068L15.7845 16.026L15.7656 15.985L15.7455 15.944L15.7245 15.903L15.7026 15.862L15.6806 15.822L15.6565 15.782L15.6326 15.742L15.6086 15.703L15.5826 15.664L15.5566 15.625L15.5296 15.587L15.5016 15.549L15.4736 15.511L15.4446 15.474L15.4145 15.436L15.3846 15.4L15.3216 15.327L15.2566 15.256L15.1876 15.187L15.1175 15.119L15.0436 15.053L14.9686 14.988L14.8906 14.925L14.8096 14.864L14.7266 14.804L14.6416 14.747L14.5546 14.691L14.4656 14.636L14.3746 14.584L14.3046 14.609Z" fill="#333333"/>
</svg>
