<svg width="24" height="24" viewBox="0 0 24 24" fill="none" xmlns="http://www.w3.org/2000/svg">
<path fill-rule="evenodd" clip-rule="evenodd" d="M12.0781 7.00121L12.1561 7.00421L12.2281 7.00901L12.3061 7.0156L12.3841 7.02399L12.4561 7.03479L12.5341 7.0468L12.6061 7.06119L12.6781 7.07679L12.7501 7.09481L12.8222 7.114L12.8941 7.13499L12.9602 7.1578L13.0321 7.18241L13.0982 7.20819L13.1701 7.2358L13.2362 7.26521L13.3021 7.29579L13.3681 7.3282L13.4281 7.3624L13.4941 7.39781L13.5542 7.4344L13.6141 7.47281L13.6802 7.5124L13.7341 7.55378L13.7941 7.59641L13.8542 7.64021L13.9081 7.68522L13.9621 7.73198L14.0162 7.77999L14.0701 7.82859L14.1181 7.87902L14.1722 7.93062L14.2201 7.98339L14.2681 8.0374L14.3162 8.092L14.3581 8.1484L14.4061 8.20538L14.4482 8.26361L14.4901 8.32301L14.5261 8.38362L14.5681 8.44481L14.6042 8.50721L14.6401 8.57079L14.6701 8.63499L14.7061 8.6998L14.7362 8.7658L14.7662 8.833L14.7901 8.9002L14.8201 8.96919L14.8441 9.03818L14.8681 9.10839L14.8862 9.17921L14.9042 9.25059L14.9222 9.32258L14.9401 9.39579L14.9521 9.46899L14.9641 9.54341L14.9761 9.61841L14.9821 9.69341L14.9941 9.76962V9.84579L15.0001 9.92258V10V10.0774L14.9941 10.1542V10.2304L14.9821 10.3066L14.9761 10.3816L14.9641 10.4566L14.9521 10.531L14.9401 10.6042L14.9222 10.6774L14.9042 10.7494L14.8862 10.8208L14.8681 10.8916L14.8441 10.9618L14.8201 11.0308L14.7901 11.0998L14.7662 11.167L14.7362 11.2342L14.7061 11.3002L14.6701 11.365L14.6401 11.4292L14.6042 11.4928L14.5681 11.5552L14.5261 11.6164L14.4901 11.677L14.4482 11.7364L14.4061 11.7946L14.3581 11.8516L14.3162 11.908L14.2681 11.9626L14.2201 12.0166L14.1722 12.0694L14.1181 12.121L14.0701 12.1714L14.0162 12.22L13.9621 12.268L13.9081 12.3148L13.8542 12.3598L13.7941 12.406L13.7341 12.448L13.6802 12.49L13.6141 12.526L13.5542 12.568L13.4941 12.604L13.4281 12.64L13.3681 12.67L13.3021 12.706L13.2362 12.736L13.1701 12.766L13.0982 12.79L13.0321 12.82L12.9602 12.844L12.8941 12.862L12.8222 12.886L12.7501 12.904L12.6781 12.922L12.6061 12.94L12.5341 12.952L12.4561 12.964L12.3841 12.976L12.3061 12.982L12.2281 12.994H12.1561L12.0781 13H12.0001H11.9222L11.8441 12.994H11.7722L11.6941 12.982L11.6162 12.976L11.5441 12.964L11.4722 12.952L11.3941 12.94L11.3222 12.922L11.2501 12.904L11.1781 12.886L11.1061 12.862L11.0401 12.844L10.9681 12.82L10.9021 12.79L10.8302 12.766L10.7641 12.736L10.6982 12.706L10.6321 12.67L10.5722 12.64L10.5061 12.604L10.4461 12.568L10.3862 12.526L10.3201 12.49L10.2662 12.448L10.2061 12.406L10.1461 12.3598L10.0922 12.3148L10.0381 12.268L9.98406 12.22L9.93015 12.1714L9.8821 12.121L9.82805 12.0694L9.78015 12.0166L9.7321 11.9626L9.68406 11.908L9.64216 11.8516L9.59412 11.7946L9.55208 11.7364L9.51018 11.677L9.47415 11.6164L9.4321 11.5552L9.39607 11.4928L9.36018 11.4292L9.33015 11.365L9.29412 11.3002L9.26409 11.2342L9.23406 11.167L9.21018 11.0998L9.18015 11.0308L9.15613 10.9618L9.1321 10.8916L9.11409 10.8208L9.09607 10.7494L9.07805 10.6774L9.06018 10.6042L9.04817 10.531L9.03616 10.4566L9.02415 10.3816L9.01814 10.3066L9.00613 10.2304V10.1542L9.00012 10.0774V10V9.92258L9.00613 9.84579V9.76962L9.01814 9.69341L9.02415 9.61841L9.03616 9.54341L9.04817 9.46899L9.06018 9.39579L9.07805 9.32258L9.09607 9.25059L9.11409 9.17921L9.1321 9.10839L9.15613 9.03818L9.18015 8.96919L9.21018 8.9002L9.23406 8.833L9.26409 8.7658L9.29412 8.6998L9.33015 8.63499L9.36018 8.57079L9.39607 8.50721L9.4321 8.44481L9.47415 8.38362L9.51018 8.32301L9.55208 8.26361L9.59412 8.20538L9.64216 8.1484L9.68406 8.092L9.7321 8.0374L9.78015 7.98339L9.82805 7.93062L9.8821 7.87902L9.93015 7.82859L9.98406 7.77999L10.0381 7.73198L10.0922 7.68522L10.1461 7.64021L10.2061 7.59641L10.2662 7.55378L10.3201 7.5124L10.3862 7.47281L10.4461 7.4344L10.5061 7.39781L10.5722 7.3624L10.6321 7.3282L10.6982 7.29579L10.7641 7.26521L10.8302 7.2358L10.9021 7.20819L10.9681 7.18241L11.0401 7.1578L11.1061 7.13499L11.1781 7.114L11.2501 7.09481L11.3222 7.07679L11.3941 7.06119L11.4722 7.0468L11.5441 7.03479L11.6162 7.02399L11.6941 7.0156L11.7722 7.00901L11.8441 7.00421L11.9222 7.00121L12.0001 7L12.0781 7.00121ZM11.9461 8.00082L11.8982 8.00261L11.8441 8.0062L11.7961 8.01041L11.7422 8.01638L11.6941 8.02301L11.6461 8.0314L11.5982 8.04099L11.5501 8.05121L11.5021 8.06318L11.4542 8.07582L11.4061 8.09021L11.3581 8.10519L11.3162 8.12079L11.2681 8.13818L11.2201 8.15679L11.1781 8.1766L11.1362 8.197L11.0941 8.21802L11.0461 8.2408L11.0042 8.26478L10.9621 8.28939L10.9261 8.31459L10.8841 8.34161L10.8422 8.3686L10.8061 8.39739L10.7641 8.42679L10.7281 8.45679L10.6922 8.48799L10.6561 8.51919L10.6201 8.55281L10.5841 8.58639L10.5542 8.62059L10.5181 8.65601L10.4881 8.692L10.4581 8.72859L10.4281 8.76638L10.3982 8.8048L10.3681 8.8438L10.3441 8.88339L10.3141 8.92301L10.2901 8.96381L10.2662 9.00581L10.2422 9.0484L10.2181 9.09099L10.1941 9.13362L10.1761 9.178L10.1581 9.22301L10.1401 9.2674L10.1222 9.31299L10.1042 9.3592L10.0922 9.40538L10.0741 9.4516L10.0621 9.5002L10.0501 9.54879L10.0381 9.59622L10.0321 9.6454L10.0201 9.69462L10.0141 9.74438L10.0081 9.79419V9.8452L10.0021 9.8968V9.94782V10V10.0522V10.1032L10.0081 10.1548V10.2058L10.0141 10.2562L10.0201 10.3054L10.0321 10.3546L10.0381 10.4032L10.0501 10.4518L10.0621 10.4998L10.0741 10.5484L10.0922 10.5946L10.1042 10.6408L10.1222 10.6864L10.1401 10.7326L10.1581 10.777L10.1761 10.822L10.1941 10.8664L10.2181 10.909L10.2422 10.9516L10.2662 10.9942L10.2901 11.0356L10.3141 11.077L10.3441 11.1166L10.3681 11.1562L10.3982 11.1958L10.4281 11.2336L10.4581 11.2714L10.4881 11.308L10.5181 11.344L10.5542 11.3794L10.5841 11.4136L10.6201 11.4472L10.6561 11.4802L10.6922 11.512L10.7281 11.5432L10.7641 11.5732L10.8061 11.6026L10.8422 11.6314L10.8841 11.659L10.9261 11.6854L10.9621 11.7106L11.0042 11.7352L11.0461 11.7592L11.0881 11.7814L11.1362 11.803L11.1781 11.824L11.2201 11.8432L11.2681 11.8612L11.3162 11.8786L11.3581 11.8954L11.4061 11.9104L11.4542 11.9242L11.5021 11.9368L11.5501 11.9488L11.5982 11.959L11.6461 11.9686L11.6941 11.977L11.7422 11.9836L11.7961 11.9896L11.8441 11.9938L11.8982 11.9974L11.9461 11.9992L12.0001 11.9998L12.0542 11.9992L12.1021 11.9974L12.1561 11.9938L12.2042 11.9896L12.2581 11.9836L12.3061 11.977L12.3542 11.9686L12.4021 11.959L12.4501 11.9488L12.4982 11.9368L12.5461 11.9242L12.5941 11.9104L12.6422 11.8954L12.6841 11.8786L12.7321 11.8612L12.7802 11.8432L12.8222 11.824L12.8641 11.803L12.9121 11.7814L12.9542 11.7586L12.9961 11.7358L13.0321 11.7112L13.0802 11.6854L13.1162 11.659L13.1581 11.6314L13.1941 11.6026L13.2362 11.5738L13.2722 11.5432L13.3081 11.512L13.3441 11.4796L13.3802 11.4472L13.4162 11.4142L13.4461 11.3794L13.4821 11.344L13.5121 11.308L13.5422 11.2708L13.5722 11.2336L13.6021 11.1958L13.6321 11.1562L13.6561 11.1172L13.6862 11.077L13.7102 11.0356L13.7341 10.9942L13.7581 10.9516L13.7821 10.909L13.8061 10.8658L13.8241 10.822L13.8422 10.7782L13.8602 10.7326L13.8781 10.6864L13.8961 10.6408L13.9081 10.5946L13.9261 10.5472L13.9381 10.4998L13.9501 10.4524L13.9561 10.4032L13.9681 10.3546L13.9802 10.3054L13.9862 10.2562L13.9922 10.2058V10.1542L13.9982 10.1032V10.0522V10V9.94782V9.8968L13.9922 9.84579V9.79419L13.9862 9.74438L13.9802 9.69462L13.9681 9.6454L13.9561 9.59622L13.9501 9.54758L13.9381 9.5002L13.9261 9.45281L13.9081 9.40538L13.8961 9.3592L13.8781 9.31299L13.8602 9.2674L13.8422 9.2218L13.8241 9.178L13.8061 9.13479L13.7821 9.09099L13.7581 9.0484L13.7341 9.00581L13.7102 8.96381L13.6862 8.92301L13.6561 8.8828L13.6321 8.8438L13.6021 8.8048L13.5722 8.76638L13.5422 8.72921L13.5121 8.692L13.4821 8.65601L13.4461 8.62059L13.4162 8.5858L13.3802 8.55281L13.3441 8.51981L13.3081 8.48799L13.2722 8.45679L13.2302 8.42621L13.1941 8.39739L13.1581 8.3686L13.1162 8.34161L13.0802 8.31459L13.0321 8.28881L12.9961 8.2642L12.9542 8.24138L12.9121 8.2186L12.8641 8.197L12.8222 8.1766L12.7802 8.15679L12.7321 8.13818L12.6841 8.12079L12.6422 8.10519L12.5941 8.09021L12.5461 8.07582L12.4982 8.06318L12.4501 8.05121L12.4021 8.04099L12.3542 8.0314L12.3061 8.02301L12.2581 8.01638L12.2042 8.01041L12.1561 8.0062L12.1021 8.00261L12.0542 8.00082L12.0001 8.0002L11.9461 8.00082Z" fill="#333333"/>
<path fill-rule="evenodd" clip-rule="evenodd" d="M12.0765 3.5L12.153 3.50149L12.2446 3.50458L12.3211 3.50766L12.3977 3.51223L12.4743 3.51681L12.5509 3.52297L12.6424 3.53063L12.719 3.53829L12.7955 3.54744L12.8721 3.55659L12.9487 3.56733L13.0402 3.57807L13.1168 3.5918L13.1933 3.60403L13.2699 3.61934L13.3461 3.63466L13.4227 3.64997L13.4993 3.66678L13.5758 3.68509L13.6677 3.70348L13.7439 3.72337L13.8205 3.74476L13.8971 3.76624L13.9737 3.78762L14.0502 3.81059L14.1264 3.83506L14.203 3.85953L14.2796 3.88558L14.3408 3.91313L14.4174 3.94068L14.4936 3.96823L14.5702 3.99876L14.6468 4.02781L14.7233 4.05844L14.7999 4.09056L14.8612 4.12427L14.9374 4.15789L15.014 4.1916L15.0905 4.22671L15.1518 4.26351L15.2284 4.30021L15.3046 4.33691L15.3658 4.37519L15.4424 4.41497L15.5037 4.45476L15.5802 4.49603L15.6411 4.53889L15.7177 4.58017L15.779 4.62453L15.8555 4.66888L15.9168 4.71334L15.978 4.75919L16.0542 4.80663L16.1155 4.85406L16.1768 4.9015L16.238 4.95044L16.3146 5.00096L16.3759 5.05138L16.4367 5.1034L16.498 5.15541L16.5593 5.20902L16.6205 5.26253L16.6818 5.31613L16.743 5.37272L16.7886 5.42781L16.8499 5.48441L16.9111 5.54258L16.9724 5.60067L17.0183 5.66034L17.0796 5.72001L17.1409 5.78127L17.1864 5.84244L17.2477 5.90361L17.2936 5.96785L17.3396 6.03061L17.4008 6.09486L17.4468 6.16069L17.4927 6.22643L17.5387 6.29227L17.5996 6.36109L17.6455 6.42842L17.6915 6.49725L17.7374 6.56616L17.7833 6.63648L17.8293 6.70839L17.8599 6.78029L17.9059 6.8522L17.9514 6.92569L17.9821 6.99909L18.028 7.07408L18.074 7.14906L18.1046 7.22405L18.1505 7.30053L18.1812 7.37851L18.2118 7.45658L18.2577 7.53465L18.2884 7.61421L18.3186 7.69377L18.3492 7.77483L18.3799 7.85589L18.4105 7.93853L18.4411 8.02118L18.4565 8.10531L18.4871 8.18796L18.5177 8.27359L18.5483 8.35932L18.5637 8.44495L18.579 8.53217L18.6096 8.61939L18.6249 8.70661L18.6555 8.79533L18.6709 8.88563L18.6862 8.97434L18.7011 9.06614L18.7164 9.15644L18.7317 9.24824L18.7471 9.34153V9.43333L18.7624 9.5282L18.7777 9.62149V9.71796V9.81274L18.793 9.90921V10.0056V10.1034V10.2014V10.2993V10.3987V10.4998V10.5992L18.7777 10.7002V10.8027L18.7624 10.9052V11.0077L18.7471 11.1102L18.7317 11.2142L18.7164 11.3183L18.7011 11.4223L18.6709 11.5279L18.6555 11.632L18.6249 11.7375L18.6096 11.8446L18.579 11.9502L18.5483 12.0573L18.5177 12.1644L18.4871 12.2714L18.4565 12.3786L18.4258 12.4857L18.3952 12.5928L18.3646 12.7014L18.3186 12.8085L18.2884 12.9172L18.2424 13.0258L18.2118 13.1329L18.1658 13.2415L18.1199 13.3501L18.074 13.4587L18.028 13.5674L17.9821 13.6745L17.9361 13.7831L17.8905 13.8917L17.8446 13.9989L17.7833 14.1075L17.7374 14.2146L17.6915 14.3217L17.6302 14.4288L17.5689 14.5359L17.5234 14.643L17.4621 14.7501L17.4008 14.8557L17.3549 14.9628L17.2936 15.0683L17.2324 15.1739L17.1711 15.2779L17.1102 15.3836L17.049 15.4876L16.9877 15.59L16.9265 15.6941L16.8652 15.7966L16.8039 15.8991L16.7277 16.0001L16.6665 16.1011L16.6052 16.2021L16.5286 16.3015L16.4674 16.401L16.3299 16.5983L16.1921 16.7926L16.0542 16.9839L15.9168 17.1705L15.779 17.3618L15.6411 17.5454L15.4883 17.7137L15.3505 17.882L15.213 18.0656L15.0599 18.2186L14.9221 18.3869L14.7846 18.5399L14.6315 18.6929L14.4936 18.8459L14.3562 18.9836L14.2796 19.0601L14.2183 19.1213L14.1417 19.1825L14.0809 19.259L14.0043 19.3202L13.943 19.3814L13.8665 19.4426L13.8052 19.5038L13.7439 19.565L13.6677 19.6109L13.6065 19.6721L13.5452 19.718L13.4686 19.7792L13.4074 19.8251L13.3461 19.871L13.2852 19.9169L13.224 19.9628L13.1627 20.0087L13.1015 20.0546L13.0402 20.0852L12.9789 20.1311L12.918 20.1617L12.8568 20.2076L12.7955 20.2382L12.7343 20.2688L12.6883 20.2994L12.6271 20.33L12.5811 20.3453L12.5202 20.3759L12.4743 20.3912L12.413 20.4218L12.3671 20.4371L12.3211 20.4524L12.2752 20.4677H12.2139L12.1684 20.483L12.1224 20.4983H12.0765H12.0458H11.9999H11.954H11.9233H11.8774L11.8314 20.483L11.7859 20.4677H11.7399L11.6787 20.4524L11.6327 20.4371L11.5868 20.4218L11.5255 20.3912L11.4796 20.3759L11.4187 20.3453L11.3727 20.33L11.3115 20.2994L11.2655 20.2688L11.2043 20.2382L11.143 20.2076L11.0817 20.1617L11.0362 20.1311L10.9749 20.0852L10.8983 20.0546L10.8371 20.0087L10.7758 19.9628L10.7146 19.9169L10.6537 19.871L10.5924 19.8251L10.5312 19.7792L10.4546 19.718L10.3933 19.6721L10.3321 19.6109L10.2712 19.565L10.1946 19.5038L10.1333 19.4426L10.0568 19.3814L9.99551 19.3202L9.91893 19.259L9.85805 19.1825L9.78147 19.1213L9.72021 19.0601L9.64364 18.9836L9.50618 18.8459L9.36834 18.6929L9.21519 18.5399L9.07773 18.3869L8.9399 18.2186L8.78675 18.0656L8.64929 17.882L8.51145 17.7137L8.35868 17.5454L8.22084 17.3618L8.08301 17.1705L7.94555 16.9839L7.80771 16.7926L7.66988 16.5983L7.53242 16.401L7.47116 16.3015L7.39458 16.2021L7.33332 16.1011L7.27206 16.0001L7.19586 15.8991L7.1346 15.7966L7.07334 15.6941L7.01208 15.59L6.95082 15.4876L6.88956 15.3836L6.82868 15.2779L6.76742 15.1739L6.70616 15.0683L6.6449 14.9628L6.59895 14.8557L6.53769 14.7501L6.47643 14.643L6.43086 14.5359L6.3696 14.4288L6.30834 14.3217L6.2624 14.2146L6.21645 14.1075L6.15519 13.9989L6.10925 13.8917L6.06368 13.7831L6.01773 13.6745L5.97179 13.5674L5.92584 13.4587L5.8799 13.3501L5.83395 13.2415L5.78801 13.1329L5.75738 13.0258L5.71143 12.9172L5.68118 12.8085L5.63523 12.7014L5.6046 12.5928L5.57397 12.4857L5.54334 12.3786L5.51271 12.2714L5.48208 12.1644L5.45145 12.0573L5.42082 11.9502L5.39019 11.8446L5.37488 11.7375L5.34425 11.632L5.32893 11.5279L5.29868 11.4223L5.28336 11.3183L5.26805 11.2142L5.25273 11.1102L5.23742 11.0077V10.9052L5.2221 10.8027V10.7002L5.20679 10.5992V10.4998V10.3987V10.2993V10.2014V10.1034V10.0056V9.90921L5.2221 9.81274V9.71796L5.23742 9.62149V9.5282L5.25273 9.43333L5.26805 9.34153V9.24824L5.28336 9.15644L5.29868 9.06614L5.31362 8.97434L5.32893 8.88563L5.35956 8.79533L5.37488 8.70661L5.39019 8.61939L5.42082 8.53217L5.43614 8.44495L5.45145 8.35932L5.48208 8.27359L5.51271 8.18796L5.54334 8.10531L5.55866 8.02118L5.58929 7.93853L5.61992 7.85589L5.65055 7.77483L5.68118 7.69377L5.71143 7.61421L5.74206 7.53465L5.78801 7.45658L5.81864 7.37851L5.84927 7.30053L5.89521 7.22405L5.92584 7.14906L5.97179 7.07408L6.01773 6.99909L6.04836 6.92569L6.09393 6.8522L6.13988 6.78029L6.17051 6.70839L6.21645 6.63648L6.2624 6.56616L6.30834 6.49725L6.35429 6.42842L6.40023 6.36109L6.46112 6.29227L6.50706 6.22643L6.55301 6.16069L6.59895 6.09486L6.66021 6.03061L6.70616 5.96785L6.76742 5.90361L6.81336 5.84244L6.85893 5.78127L6.92019 5.72001L6.98145 5.66034L7.0274 5.60067L7.08866 5.54258L7.14992 5.48441L7.21118 5.42781L7.27206 5.37272L7.31801 5.31613L7.37927 5.26253L7.44053 5.20902L7.50179 5.15541L7.56305 5.1034L7.62393 5.05138L7.68519 5.00096L7.76177 4.95044L7.82303 4.9015L7.88429 4.85406L7.94555 4.80663L8.02175 4.75919L8.08301 4.71334L8.14427 4.66888L8.22084 4.62453L8.2821 4.58017L8.35868 4.53889L8.41956 4.49603L8.49614 4.45476L8.5574 4.41497L8.63397 4.37519L8.69523 4.33691L8.77143 4.30021L8.84801 4.26351L8.90927 4.22671L8.98584 4.1916L9.06242 4.15789L9.13862 4.12427L9.19988 4.09056L9.27645 4.05844L9.35303 4.02781L9.4296 3.99876L9.50618 3.96823L9.58238 3.94068L9.65895 3.91313L9.72021 3.88558L9.79679 3.85953L9.87336 3.83506L9.94956 3.81059L10.0261 3.78762L10.1027 3.76624L10.1793 3.74476L10.2712 3.72337L10.3321 3.70348L10.424 3.68509L10.5005 3.66678L10.5771 3.64997L10.6537 3.63466L10.7299 3.61934L10.8065 3.60403L10.883 3.5918L10.9749 3.57807L11.0511 3.56733L11.1277 3.55659L11.2043 3.54744L11.2808 3.53829L11.3574 3.53063L11.4489 3.52297L11.5255 3.51681L11.6021 3.51223L11.6787 3.50766L11.7552 3.50458L11.8467 3.50149L11.9233 3.5H11.9999H12.0765ZM11.9386 4.50061L11.8621 4.50219L11.8012 4.50369L11.7246 4.50677L11.6633 4.50976L11.5868 4.51443L11.5255 4.519L11.4489 4.52507L11.388 4.53273L11.3268 4.54039L11.2502 4.54805L11.189 4.5572L11.1124 4.56794L11.0511 4.57868L10.9902 4.58932L10.9137 4.60156L10.8524 4.61538L10.7758 4.6291L10.7146 4.64292L10.6537 4.65824L10.5771 4.67505L10.5158 4.69186L10.4546 4.70867L10.378 4.72706L10.3167 4.74695L10.2559 4.76684L10.1793 4.78674L10.118 4.80812L10.0568 4.83109L9.99551 4.85406L9.91893 4.87704L9.85805 4.9015L9.79679 4.92746L9.73553 4.95193L9.67427 4.97948L9.61301 5.00703L9.55175 5.03458L9.49086 5.06362L9.41429 5.09275L9.35303 5.12329L9.29177 5.15392L9.23051 5.18604L9.16925 5.21817L9.12368 5.25029L9.06242 5.284L9.00116 5.31921L8.9399 5.35283L8.87864 5.38953L8.81738 5.42623L8.75612 5.46302L8.71055 5.50121L8.64929 5.5395L8.58803 5.57928L8.54208 5.61748L8.48082 5.65885L8.41956 5.70012L8.37362 5.74149L8.31273 5.78426L8.26679 5.82712L8.20553 5.87148L8.15958 5.91584L8.09832 5.9602L8.05238 6.00614L8.00643 6.05209L7.94555 6.10102L7.8996 6.14687L7.85366 6.1959L7.80771 6.24483L7.74645 6.29376L7.70051 6.34428L7.65456 6.3948L7.60862 6.44682L7.56305 6.49883L7.5171 6.55234L7.47116 6.60436L7.42521 6.65796L7.39458 6.71296L7.34864 6.76806L7.30269 6.82316L7.27206 6.87975L7.22612 6.93634L7.18055 6.99451L7.14992 7.05111L7.10397 7.11078L7.07334 7.17045L7.0274 7.23012L6.99677 7.29138L6.95082 7.35105L6.92019 7.41371L6.88956 7.47647L6.85893 7.53922L6.82868 7.60347L6.79805 7.66622L6.7521 7.73197L6.72147 7.7978L6.69084 7.86354L6.66021 7.92938L6.6449 7.99671L6.61427 8.06395L6.58364 8.13286L6.56832 8.20169L6.53769 8.2721L6.50706 8.34092L6.49175 8.41133L6.46112 8.48324L6.44618 8.55664L6.41555 8.62854L6.40023 8.70204L6.38492 8.77544L6.3696 8.85042L6.35429 8.92541L6.33897 9.00031L6.30834 9.07688V9.15486L6.29303 9.23292L6.27771 9.3109L6.2624 9.38897L6.24708 9.46853V9.54959L6.23177 9.62915V9.7103L6.21645 9.79444V9.87709V9.95964L6.20114 10.0438V10.1279V10.2136V10.2993V10.3819V10.4631V10.5456L6.21645 10.6298V10.7155L6.23177 10.8011V10.8883L6.24708 10.9756L6.2624 11.0643L6.27771 11.1546L6.29303 11.2464L6.30834 11.3367L6.32366 11.4285L6.33897 11.5203L6.3696 11.6136L6.38492 11.7084L6.41555 11.8033L6.44618 11.8997L6.46112 11.9946L6.49175 12.0909L6.52238 12.1889L6.55301 12.2853L6.58364 12.3832L6.62958 12.4811L6.66021 12.5805L6.69084 12.6785L6.72147 12.778L6.76742 12.8774L6.81336 12.9784L6.84362 13.0778L6.88956 13.1773L6.93551 13.2767L6.98145 13.3777L7.0274 13.4786L7.07334 13.5781L7.11929 13.6791L7.16523 13.7801L7.21118 13.8795L7.25675 13.979L7.31801 14.0799L7.36395 14.181L7.42521 14.2804L7.47116 14.3814L7.53242 14.4808L7.57836 14.5803L7.63925 14.6797L7.68519 14.7776L7.74645 14.877L7.80771 14.975L7.86897 15.073L7.93023 15.1708L7.99112 15.2688L8.05238 15.3637L8.11364 15.46L8.1749 15.5579L8.23616 15.6513L8.29742 15.7462L8.35868 15.8395L8.48082 16.0276L8.61866 16.2112L8.75612 16.3933L8.87864 16.5708L9.01647 16.7452L9.15393 16.9181L9.27645 17.0849L9.41429 17.2501L9.55175 17.4077L9.68958 17.5607L9.82742 17.7137L9.94956 17.8667L10.0874 18.0044L10.2252 18.1421L10.3474 18.2798L10.4086 18.341L10.4852 18.4022L10.5465 18.4634L10.6077 18.5246L10.6686 18.5858L10.7299 18.6317L10.7911 18.6929L10.8524 18.7388L10.9137 18.8L10.9749 18.8459L11.0362 18.8918L11.0817 18.9377L11.143 18.9836L11.2043 19.0295L11.2502 19.0754L11.3115 19.106L11.3574 19.1519L11.4187 19.1825L11.4642 19.2131L11.5102 19.259L11.5561 19.2896L11.6021 19.3202L11.648 19.3355L11.694 19.3661L11.7399 19.3814L11.7705 19.412L11.8161 19.4273L11.8467 19.4426L11.8774 19.4579L11.908 19.4732H11.9233L11.954 19.4885H11.9693H11.9846L11.9999 19.5038L12.0152 19.4885H12.0305H12.0458L12.0765 19.4732H12.0918L12.1224 19.4579L12.153 19.4426L12.1837 19.4273L12.2292 19.412L12.2599 19.3814L12.3058 19.3661L12.3518 19.3355L12.3977 19.3202L12.4437 19.2896L12.4896 19.259L12.5355 19.2131L12.5811 19.1825L12.6424 19.1519L12.6883 19.106L12.7496 19.0754L12.7955 19.0295L12.8568 18.9836L12.918 18.9377L12.9636 18.8918L13.0249 18.8459L13.0861 18.8L13.1474 18.7388L13.2087 18.6929L13.2699 18.6317L13.3312 18.5858L13.3921 18.5246L13.4533 18.4634L13.5146 18.4022L13.5912 18.341L13.6524 18.2798L13.7746 18.1421L13.9124 18.0044L14.0502 17.8667L14.1877 17.7137L14.3102 17.5607L14.448 17.4077L14.5855 17.2501L14.7233 17.0849L14.8612 16.9181L14.9833 16.7452L15.1212 16.5708L15.2437 16.3933L15.3811 16.2112L15.519 16.0276L15.6411 15.8395L15.7024 15.7477L15.7636 15.6513L15.8249 15.5564L15.8862 15.46L15.9474 15.3652L16.0087 15.2688L16.0696 15.1708L16.1308 15.073L16.1921 14.975L16.2533 14.877L16.3146 14.7776L16.3605 14.6797L16.4214 14.5803L16.4674 14.4808L16.5286 14.3814L16.5746 14.2804L16.6358 14.181L16.6818 14.0799L16.743 13.9805L16.7886 13.881L16.8346 13.7786L16.8805 13.6791L16.9265 13.5781L16.9724 13.4786L17.0183 13.3777L17.0643 13.2782L17.1102 13.1773L17.1562 13.0762L17.1864 12.9768L17.2324 12.8774L17.2783 12.778L17.309 12.6785L17.3396 12.5805L17.3702 12.4826L17.4162 12.3832L17.4468 12.2853L17.4774 12.1889L17.508 12.0925L17.5387 11.9946L17.5536 11.8982L17.5842 11.8033L17.6149 11.7084L17.6302 11.6151L17.6608 11.5203L17.6761 11.4285L17.6915 11.3367L17.7068 11.2449L17.7221 11.1546L17.7374 11.0659L17.7527 10.9771L17.768 10.8883V10.7996L17.7833 10.714V10.6313L17.7987 10.5456V10.4615V10.3819V10.2993V10.2136V10.1279V10.0438L17.7833 9.95964V9.87709V9.79444L17.768 9.7118V9.63074L17.7527 9.54809V9.46853L17.7374 9.38897L17.7221 9.3109L17.7068 9.23292L17.6915 9.15486V9.07688L17.6608 9.00189L17.6455 8.92541L17.6302 8.85042L17.6149 8.77544L17.5996 8.70204L17.5842 8.62854L17.5536 8.55514L17.5387 8.48324L17.508 8.41283L17.4927 8.34092L17.4621 8.27051L17.4468 8.20169L17.4162 8.13286L17.3855 8.06395L17.3549 7.99671L17.3396 7.92938L17.309 7.86354L17.2783 7.7978L17.2477 7.73197L17.2171 7.66622L17.1711 7.60198L17.1409 7.53922L17.1102 7.47647L17.0796 7.41371L17.049 7.35105L17.003 7.28979L16.9724 7.23012L16.9265 7.17045L16.8958 7.11078L16.8499 7.05111L16.8192 6.99451L16.7737 6.93634L16.743 6.87975L16.6971 6.82316L16.6512 6.76806L16.6052 6.71296L16.5746 6.65945L16.5286 6.60436L16.4827 6.55085L16.4367 6.49725L16.3912 6.44682L16.3452 6.3948L16.2993 6.34428L16.2533 6.29376L16.1921 6.24483L16.1461 6.1959L16.1002 6.14687L16.0542 6.09943L15.9934 6.05358L15.9474 6.00614L15.9015 5.9602L15.8402 5.91584L15.7943 5.87148L15.733 5.82712L15.6871 5.78426L15.6262 5.74149L15.5802 5.70012L15.519 5.65885L15.4577 5.61748L15.4118 5.5777L15.3505 5.5395L15.2892 5.50121L15.2437 5.46302L15.1824 5.42623L15.1212 5.38953L15.0599 5.35432L14.9986 5.31921L14.9374 5.284L14.8914 5.25029L14.8305 5.21817L14.7693 5.18455L14.708 5.15392L14.6468 5.12329L14.5855 5.09275L14.5089 5.06362L14.448 5.03458L14.3868 5.00703L14.3255 4.97948L14.2643 4.95193L14.203 4.92746L14.1417 4.9015L14.0809 4.87704L14.0043 4.85406L13.943 4.83109L13.8818 4.80812L13.8205 4.78674L13.7439 4.76684L13.683 4.74695L13.6218 4.72706L13.5452 4.70867L13.484 4.69186L13.4227 4.67505L13.3461 4.65824L13.2852 4.64292L13.224 4.6291L13.1474 4.61538L13.0861 4.60156L13.0096 4.58932L12.9487 4.57868L12.8874 4.56794L12.8108 4.5572L12.7496 4.54805L12.673 4.54039L12.6117 4.53273L12.5509 4.52507L12.4743 4.519L12.413 4.51443L12.3365 4.50976L12.2752 4.50677L12.1986 4.50369L12.1377 4.50219L12.0612 4.50061H11.9999H11.9386Z" fill="#333333"/>
</svg>
