<svg width="24" height="24" viewBox="0 0 24 24" fill="none" xmlns="http://www.w3.org/2000/svg">
<path fill-rule="evenodd" clip-rule="evenodd" d="M15.4399 16.14C14.1199 17.3 12.39 18 10.5 18C6.36 18 3 14.64 3 10.5C3 6.36 6.36 3 10.5 3C14.64 3 18 6.36 18 10.5C18 12.39 17.2999 14.1199 16.1399 15.4399C16.1399 15.4399 20.5601 19.85 21.8501 21.15C21.9501 21.24 22 21.37 22 21.5C22 21.63 21.9501 21.76 21.8501 21.85C21.6601 22.05 21.3399 22.05 21.1499 21.85C19.8499 20.56 15.4399 16.14 15.4399 16.14ZM10.5 4C14.09 4 17 6.91 17 10.5C17 14.09 14.09 17 10.5 17C6.91 17 4 14.09 4 10.5C4 6.91 6.91 4 10.5 4ZM11 14.5C11 14.63 10.9501 14.76 10.8501 14.85C10.7601 14.95 10.63 15 10.5 15C10.37 15 10.2399 14.95 10.1499 14.85C10.0499 14.76 10 14.63 10 14.5C10 13.43 10 11 10 11C10 11 7.57 11 6.5 11C6.37 11 6.2399 10.95 6.1499 10.85C6.0499 10.76 6 10.63 6 10.5C6 10.37 6.0499 10.24 6.1499 10.15C6.2399 10.05 6.37 10 6.5 10C7.57 10 10 10 10 10C10 10 10 7.57 10 6.5C10 6.37 10.0499 6.24002 10.1499 6.15002C10.2399 6.05002 10.37 6 10.5 6C10.63 6 10.7601 6.05002 10.8501 6.15002C10.9501 6.24002 11 6.37 11 6.5C11 7.57 11 10 11 10C11 10 13.43 10 14.5 10C14.63 10 14.7601 10.05 14.8501 10.15C14.9501 10.24 15 10.37 15 10.5C15 10.63 14.9501 10.76 14.8501 10.85C14.7601 10.95 14.63 11 14.5 11C13.43 11 11 11 11 11C11 11 11 13.43 11 14.5Z" fill="black"/>
</svg>
