<svg width="24" height="24" viewBox="0 0 24 24" fill="none" xmlns="http://www.w3.org/2000/svg">
<path fill-rule="evenodd" clip-rule="evenodd" d="M12 5C9.23858 5 7 7.23858 7 10C7 10.6063 7.23802 11.4219 7.6967 12.368C8.14605 13.2948 8.76487 14.2613 9.42538 15.1432C10.0858 16.0248 10.769 16.7969 11.3331 17.3383C11.6027 17.5971 11.8289 17.7875 12 17.9098C12.1711 17.7875 12.3973 17.5971 12.6669 17.3383C13.231 16.7969 13.9142 16.0248 14.5746 15.1432C15.2351 14.2613 15.854 13.2948 16.3033 12.368C16.762 11.4219 17 10.6063 17 10C17 7.23858 14.7614 5 12 5ZM5 10C5 6.13401 8.13401 3 12 3C15.866 3 19 6.13401 19 10C19 11.0505 18.613 12.1884 18.1029 13.2405C17.5835 14.3118 16.8899 15.3882 16.1754 16.3421C15.4608 17.2962 14.7065 18.1528 14.0518 18.7812C13.7264 19.0935 13.4075 19.367 13.1166 19.5697C12.9717 19.6707 12.8147 19.7675 12.6529 19.8425C12.5075 19.91 12.2744 20 12 20C11.7256 20 11.4925 19.91 11.3471 19.8425C11.1853 19.7675 11.0283 19.6707 10.8834 19.5697C10.5925 19.367 10.2736 19.0935 9.94818 18.7812C9.29347 18.1528 8.53923 17.2962 7.82462 16.3421C7.11013 15.3882 6.41645 14.3118 5.89705 13.2405C5.38698 12.1884 5 11.0505 5 10Z" fill="black"/>
<path fill-rule="evenodd" clip-rule="evenodd" d="M12 19C13 19 18 13.3137 18 10C18 6.68629 15.3137 4 12 4C8.68629 4 6 6.68629 6 10C6 13.3137 11 19 12 19ZM12 13C13.6569 13 15 11.6569 15 10C15 8.34315 13.6569 7 12 7C10.3431 7 9 8.34315 9 10C9 11.6569 10.3431 13 12 13Z" fill="black" fill-opacity="0.1"/>
<path fill-rule="evenodd" clip-rule="evenodd" d="M12 13C13.6569 13 15 11.6569 15 10C15 8.34315 13.6569 7 12 7C10.3431 7 9 8.34315 9 10C9 11.6569 10.3431 13 12 13ZM12 11C12.5523 11 13 10.5523 13 10C13 9.44772 12.5523 9 12 9C11.4477 9 11 9.44772 11 10C11 10.5523 11.4477 11 12 11Z" fill="black"/>
</svg>
