<svg width="24" height="24" viewBox="0 0 24 24" fill="none" xmlns="http://www.w3.org/2000/svg">
<path fill-rule="evenodd" clip-rule="evenodd" d="M12.0781 7.00121L12.1561 7.00421L12.2281 7.00901L12.3061 7.0156L12.3841 7.02399L12.4561 7.03479L12.5341 7.0468L12.6061 7.06119L12.6781 7.07679L12.7501 7.09481L12.8222 7.114L12.8941 7.13499L12.9602 7.1578L13.0321 7.18241L13.0982 7.20819L13.1701 7.2358L13.2362 7.26521L13.3021 7.29579L13.3681 7.3282L13.4281 7.3624L13.4941 7.39781L13.5542 7.4344L13.6141 7.47281L13.6802 7.5124L13.7341 7.55378L13.7941 7.59641L13.8542 7.64021L13.9081 7.68522L13.9621 7.73198L14.0162 7.77999L14.0701 7.82859L14.1181 7.87902L14.1722 7.93062L14.2201 7.98339L14.2681 8.0374L14.3162 8.092L14.3581 8.1484L14.4061 8.20538L14.4482 8.26361L14.4901 8.32301L14.5261 8.38362L14.5681 8.44481L14.6042 8.50721L14.6401 8.57079L14.6701 8.63499L14.7061 8.6998L14.7362 8.7658L14.7662 8.833L14.7901 8.9002L14.8201 8.96919L14.8441 9.03818L14.8681 9.10839L14.8862 9.17921L14.9042 9.25059L14.9222 9.32258L14.9401 9.39579L14.9521 9.46899L14.9641 9.54341L14.9761 9.61841L14.9821 9.69341L14.9941 9.76962V9.84579L15.0001 9.92258V10V10.0774L14.9941 10.1542V10.2304L14.9821 10.3066L14.9761 10.3816L14.9641 10.4566L14.9521 10.531L14.9401 10.6042L14.9222 10.6774L14.9042 10.7494L14.8862 10.8208L14.8681 10.8916L14.8441 10.9618L14.8201 11.0308L14.7901 11.0998L14.7662 11.167L14.7362 11.2342L14.7061 11.3002L14.6701 11.365L14.6401 11.4292L14.6042 11.4928L14.5681 11.5552L14.5261 11.6164L14.4901 11.677L14.4482 11.7364L14.4061 11.7946L14.3581 11.8516L14.3162 11.908L14.2681 11.9626L14.2201 12.0166L14.1722 12.0694L14.1181 12.121L14.0701 12.1714L14.0162 12.22L13.9621 12.268L13.9081 12.3148L13.8542 12.3598L13.7941 12.406L13.7341 12.448L13.6802 12.49L13.6141 12.526L13.5542 12.568L13.4941 12.604L13.4281 12.64L13.3681 12.67L13.3021 12.706L13.2362 12.736L13.1701 12.766L13.0982 12.79L13.0321 12.82L12.9602 12.844L12.8941 12.862L12.8222 12.886L12.7501 12.904L12.6781 12.922L12.6061 12.94L12.5341 12.952L12.4561 12.964L12.3841 12.976L12.3061 12.982L12.2281 12.994H12.1561L12.0781 13H12.0001H11.9222L11.8441 12.994H11.7722L11.6941 12.982L11.6162 12.976L11.5441 12.964L11.4722 12.952L11.3941 12.94L11.3222 12.922L11.2501 12.904L11.1781 12.886L11.1061 12.862L11.0401 12.844L10.9681 12.82L10.9021 12.79L10.8302 12.766L10.7641 12.736L10.6982 12.706L10.6321 12.67L10.5722 12.64L10.5061 12.604L10.4461 12.568L10.3862 12.526L10.3201 12.49L10.2662 12.448L10.2061 12.406L10.1461 12.3598L10.0922 12.3148L10.0381 12.268L9.98406 12.22L9.93015 12.1714L9.8821 12.121L9.82805 12.0694L9.78015 12.0166L9.7321 11.9626L9.68406 11.908L9.64216 11.8516L9.59412 11.7946L9.55208 11.7364L9.51018 11.677L9.47415 11.6164L9.4321 11.5552L9.39607 11.4928L9.36018 11.4292L9.33015 11.365L9.29412 11.3002L9.26409 11.2342L9.23406 11.167L9.21018 11.0998L9.18015 11.0308L9.15613 10.9618L9.1321 10.8916L9.11409 10.8208L9.09607 10.7494L9.07805 10.6774L9.06018 10.6042L9.04817 10.531L9.03616 10.4566L9.02415 10.3816L9.01814 10.3066L9.00613 10.2304V10.1542L9.00012 10.0774V10V9.92258L9.00613 9.84579V9.76962L9.01814 9.69341L9.02415 9.61841L9.03616 9.54341L9.04817 9.46899L9.06018 9.39579L9.07805 9.32258L9.09607 9.25059L9.11409 9.17921L9.1321 9.10839L9.15613 9.03818L9.18015 8.96919L9.21018 8.9002L9.23406 8.833L9.26409 8.7658L9.29412 8.6998L9.33015 8.63499L9.36018 8.57079L9.39607 8.50721L9.4321 8.44481L9.47415 8.38362L9.51018 8.32301L9.55208 8.26361L9.59412 8.20538L9.64216 8.1484L9.68406 8.092L9.7321 8.0374L9.78015 7.98339L9.82805 7.93062L9.8821 7.87902L9.93015 7.82859L9.98406 7.77999L10.0381 7.73198L10.0922 7.68522L10.1461 7.64021L10.2061 7.59641L10.2662 7.55378L10.3201 7.5124L10.3862 7.47281L10.4461 7.4344L10.5061 7.39781L10.5722 7.3624L10.6321 7.3282L10.6982 7.29579L10.7641 7.26521L10.8302 7.2358L10.9021 7.20819L10.9681 7.18241L11.0401 7.1578L11.1061 7.13499L11.1781 7.114L11.2501 7.09481L11.3222 7.07679L11.3941 7.06119L11.4722 7.0468L11.5441 7.03479L11.6162 7.02399L11.6941 7.0156L11.7722 7.00901L11.8441 7.00421L11.9222 7.00121L12.0001 7L12.0781 7.00121ZM11.9461 8.00082L11.8982 8.00261L11.8441 8.0062L11.7961 8.01041L11.7422 8.01638L11.6941 8.02301L11.6461 8.0314L11.5982 8.04099L11.5501 8.05121L11.5021 8.06318L11.4542 8.07582L11.4061 8.09021L11.3581 8.10519L11.3162 8.12079L11.2681 8.13818L11.2201 8.15679L11.1781 8.1766L11.1362 8.197L11.0941 8.21802L11.0461 8.2408L11.0042 8.26478L10.9621 8.28939L10.9261 8.31459L10.8841 8.34161L10.8422 8.3686L10.8061 8.39739L10.7641 8.42679L10.7281 8.45679L10.6922 8.48799L10.6561 8.51919L10.6201 8.55281L10.5841 8.58639L10.5542 8.62059L10.5181 8.65601L10.4881 8.692L10.4581 8.72859L10.4281 8.76638L10.3982 8.8048L10.3681 8.8438L10.3441 8.88339L10.3141 8.92301L10.2901 8.96381L10.2662 9.00581L10.2422 9.0484L10.2181 9.09099L10.1941 9.13362L10.1761 9.178L10.1581 9.22301L10.1401 9.2674L10.1222 9.31299L10.1042 9.3592L10.0922 9.40538L10.0741 9.4516L10.0621 9.5002L10.0501 9.54879L10.0381 9.59622L10.0321 9.6454L10.0201 9.69462L10.0141 9.74438L10.0081 9.79419V9.8452L10.0021 9.8968V9.94782V10V10.0522V10.1032L10.0081 10.1548V10.2058L10.0141 10.2562L10.0201 10.3054L10.0321 10.3546L10.0381 10.4032L10.0501 10.4518L10.0621 10.4998L10.0741 10.5484L10.0922 10.5946L10.1042 10.6408L10.1222 10.6864L10.1401 10.7326L10.1581 10.777L10.1761 10.822L10.1941 10.8664L10.2181 10.909L10.2422 10.9516L10.2662 10.9942L10.2901 11.0356L10.3141 11.077L10.3441 11.1166L10.3681 11.1562L10.3982 11.1958L10.4281 11.2336L10.4581 11.2714L10.4881 11.308L10.5181 11.344L10.5542 11.3794L10.5841 11.4136L10.6201 11.4472L10.6561 11.4802L10.6922 11.512L10.7281 11.5432L10.7641 11.5732L10.8061 11.6026L10.8422 11.6314L10.8841 11.659L10.9261 11.6854L10.9621 11.7106L11.0042 11.7352L11.0461 11.7592L11.0881 11.7814L11.1362 11.803L11.1781 11.824L11.2201 11.8432L11.2681 11.8612L11.3162 11.8786L11.3581 11.8954L11.4061 11.9104L11.4542 11.9242L11.5021 11.9368L11.5501 11.9488L11.5982 11.959L11.6461 11.9686L11.6941 11.977L11.7422 11.9836L11.7961 11.9896L11.8441 11.9938L11.8982 11.9974L11.9461 11.9992L12.0001 11.9998L12.0542 11.9992L12.1021 11.9974L12.1561 11.9938L12.2042 11.9896L12.2581 11.9836L12.3061 11.977L12.3542 11.9686L12.4021 11.959L12.4501 11.9488L12.4982 11.9368L12.5461 11.9242L12.5941 11.9104L12.6422 11.8954L12.6841 11.8786L12.7321 11.8612L12.7802 11.8432L12.8222 11.824L12.8641 11.803L12.9121 11.7814L12.9542 11.7586L12.9961 11.7358L13.0321 11.7112L13.0802 11.6854L13.1162 11.659L13.1581 11.6314L13.1941 11.6026L13.2362 11.5738L13.2722 11.5432L13.3081 11.512L13.3441 11.4796L13.3802 11.4472L13.4162 11.4142L13.4461 11.3794L13.4821 11.344L13.5121 11.308L13.5422 11.2708L13.5722 11.2336L13.6021 11.1958L13.6321 11.1562L13.6561 11.1172L13.6862 11.077L13.7102 11.0356L13.7341 10.9942L13.7581 10.9516L13.7821 10.909L13.8061 10.8658L13.8241 10.822L13.8422 10.7782L13.8602 10.7326L13.8781 10.6864L13.8961 10.6408L13.9081 10.5946L13.9261 10.5472L13.9381 10.4998L13.9501 10.4524L13.9561 10.4032L13.9681 10.3546L13.9802 10.3054L13.9862 10.2562L13.9922 10.2058V10.1542L13.9982 10.1032V10.0522V10V9.94782V9.8968L13.9922 9.84579V9.79419L13.9862 9.74438L13.9802 9.69462L13.9681 9.6454L13.9561 9.59622L13.9501 9.54758L13.9381 9.5002L13.9261 9.45281L13.9081 9.40538L13.8961 9.3592L13.8781 9.31299L13.8602 9.2674L13.8422 9.2218L13.8241 9.178L13.8061 9.13479L13.7821 9.09099L13.7581 9.0484L13.7341 9.00581L13.7102 8.96381L13.6862 8.92301L13.6561 8.8828L13.6321 8.8438L13.6021 8.8048L13.5722 8.76638L13.5422 8.72921L13.5121 8.692L13.4821 8.65601L13.4461 8.62059L13.4162 8.5858L13.3802 8.55281L13.3441 8.51981L13.3081 8.48799L13.2722 8.45679L13.2302 8.42621L13.1941 8.39739L13.1581 8.3686L13.1162 8.34161L13.0802 8.31459L13.0321 8.28881L12.9961 8.2642L12.9542 8.24138L12.9121 8.2186L12.8641 8.197L12.8222 8.1766L12.7802 8.15679L12.7321 8.13818L12.6841 8.12079L12.6422 8.10519L12.5941 8.09021L12.5461 8.07582L12.4982 8.06318L12.4501 8.05121L12.4021 8.04099L12.3542 8.0314L12.3061 8.02301L12.2581 8.01638L12.2042 8.01041L12.1561 8.0062L12.1021 8.00261L12.0542 8.00082L12.0001 8.0002L11.9461 8.00082Z" fill="black"/>
<path d="M18.5 10C18.5 13.5899 13 19.5 12 19.5C11 19.5 5.5 13.5899 5.5 10C5.5 6.41015 8.41015 3.5 12 3.5C15.5899 3.5 18.5 6.41015 18.5 10Z" stroke="black"/>
<path fill-rule="evenodd" clip-rule="evenodd" d="M12 19C13 19 18 13.5 18 10C18 6.68629 15.3137 4 12 4C8.68629 4 6 6.68629 6 10C6 13.5 11 19 12 19ZM12 13C13.6569 13 15 11.6569 15 10C15 8.34315 13.6569 7 12 7C10.3431 7 9 8.34315 9 10C9 11.6569 10.3431 13 12 13Z" fill="black" fill-opacity="0.1"/>
</svg>
