<svg width="24" height="24" viewBox="0 0 24 24" fill="none" xmlns="http://www.w3.org/2000/svg">
<path d="M21.9997 21.0036C21.9997 21.2686 21.8897 21.5232 21.7097 21.71C21.5197 21.8978 21.2697 22.0032 20.9997 22.0032C18.7397 22.0032 13.2598 22.0032 10.9998 22.0032C10.7398 22.0032 10.4798 21.8978 10.2898 21.71C10.1098 21.5232 9.99976 21.2686 9.99976 21.0036C9.99976 18.7434 9.99976 13.263 9.99976 11.0028C9.99976 10.7378 10.1098 10.4832 10.2898 10.2964C10.4798 10.1086 10.7398 10.0032 10.9998 10.0032C13.2598 10.0032 18.7397 10.0032 20.9997 10.0032C21.2697 10.0032 21.5197 10.1086 21.7097 10.2964C21.8897 10.4832 21.9997 10.7378 21.9997 11.0028C21.9997 13.263 21.9997 18.7434 21.9997 21.0036ZM11.9998 12.0035V20.0029H19.9997V12.0035H11.9998Z" fill="black"/>
<path fill-rule="evenodd" clip-rule="evenodd" d="M13.9997 7.99828C13.9997 8.55028 13.5497 8.99828 12.9997 8.99828C12.4497 8.99828 11.9997 8.55028 11.9997 7.99828C11.9997 6.53928 11.9997 3.99829 11.9997 3.99829H3.99975V11.9983C3.99975 11.9983 6.53975 11.9983 7.99975 11.9983C8.54975 11.9983 8.99975 12.4463 8.99975 12.9983C8.99975 13.2633 8.88971 13.5182 8.70971 13.7052C8.51971 13.8932 8.26975 13.9983 7.99975 13.9983C6.66975 13.9983 4.32975 13.9983 2.99975 13.9983C2.73976 13.9983 2.47979 13.8932 2.28979 13.7052C2.10979 13.5182 1.99976 13.2633 1.99976 12.9983C1.99976 10.7383 1.99976 5.25828 1.99976 2.99829C1.99976 2.73329 2.10979 2.47832 2.28979 2.29132C2.47979 2.10332 2.73976 1.99829 2.99975 1.99829C5.25975 1.99829 10.7397 1.99829 12.9997 1.99829C13.2697 1.99829 13.5197 2.10332 13.7097 2.29132C13.8897 2.47832 13.9997 2.73329 13.9997 2.99829C13.9997 4.32929 13.9997 6.66728 13.9997 7.99828Z" fill="black"/>
<path d="M5.49878 5.49854H10.4988H8.49878" stroke="black" stroke-miterlimit="5" stroke-linecap="round" stroke-linejoin="round"/>
<path d="M9.49976 5.49854V6.49853" stroke="black" stroke-miterlimit="5" stroke-linecap="square" stroke-linejoin="round"/>
<path d="M13.9998 18.4983L15.9998 13.4983L17.9998 18.4983" stroke="black" stroke-miterlimit="5" stroke-linecap="round" stroke-linejoin="round"/>
<path d="M14.3964 17.4983H17.5964" stroke="black" stroke-width="0.97" stroke-miterlimit="5" stroke-linecap="round" stroke-linejoin="round"/>
<path d="M9.50006 7.0022C9.50006 8.93595 7.93206 10.5022 6.00006 10.5022" stroke="black" stroke-width="1.14" stroke-miterlimit="5" stroke-linecap="round" stroke-linejoin="round"/>
<path d="M5.49976 10.4983H5.99976" stroke="black" stroke-miterlimit="5" stroke-linecap="round" stroke-linejoin="round"/>
<path d="M15.5 5C15.2239 5 15 5.22386 15 5.5C15 5.77614 15.2239 6 15.5 6V5ZM18 8.5C18 8.77614 18.2239 9 18.5 9C18.7761 9 19 8.77614 19 8.5H18ZM15.5 6C16.8807 6 18 7.11929 18 8.5H19C19 6.567 17.433 5 15.5 5V6Z" fill="black"/>
<path d="M8.5 19C8.77614 19 9 18.7761 9 18.5C9 18.2239 8.77614 18 8.5 18V19ZM6 15.5C6 15.2239 5.77614 15 5.5 15C5.22386 15 5 15.2239 5 15.5H6ZM8.5 18C7.11929 18 6 16.8807 6 15.5H5C5 17.433 6.567 19 8.5 19V18Z" fill="black"/>
<path d="M6 7.5C6 7.22386 6.22386 7 6.5 7H9.25C9.52614 7 9.75 7.22386 9.75 7.5V7.5C9.75 7.77614 9.52614 8 9.25 8H6.5C6.22386 8 6 7.77614 6 7.5V7.5Z" fill="black"/>
<path fill-rule="evenodd" clip-rule="evenodd" d="M13 3H3V13H11V21H21V11H13V3Z" fill="black" fill-opacity="0.1"/>
</svg>
