<svg width="24" height="24" viewBox="0 0 24 24" fill="none" xmlns="http://www.w3.org/2000/svg">
<path fill-rule="evenodd" clip-rule="evenodd" d="M9.16794 17.998H5.56693C5.22493 17.998 4.90694 17.824 4.72294 17.535C4.53994 17.247 4.51595 16.885 4.65995 16.575C4.84795 16.173 5.05295 15.732 5.24595 15.32C5.73894 14.263 5.99497 13.11 5.99497 11.943C5.99597 10.702 5.99692 9.30203 5.99692 8.99803C5.99692 5.68704 8.68492 2.99805 11.9969 2.99805C15.3079 2.99805 17.9969 5.68704 17.9969 8.99803C17.9969 8.99803 17.9969 10.6 17.9969 11.935C17.9969 13.104 18.2529 14.258 18.7459 15.316C18.9389 15.73 19.1449 16.172 19.3329 16.575C19.4779 16.885 19.454 17.247 19.271 17.535C19.087 17.824 18.7689 17.998 18.4269 17.998H14.826C14.414 19.163 13.3019 19.998 11.9969 19.998C10.6919 19.998 9.57994 19.163 9.16794 17.998ZM13.8669 17.998H10.1259C10.4839 18.665 11.1879 19.119 11.9969 19.119C12.8059 19.119 13.5099 18.665 13.8669 17.998ZM7.99692 12.379C7.99692 13.547 7.74092 14.701 7.24692 15.76C7.17992 15.905 7.13596 15.998 7.13596 15.998H16.857C16.857 15.998 16.8139 15.905 16.7459 15.76C16.2529 14.701 15.9969 13.547 15.9969 12.379C15.9969 11.036 15.9969 8.99803 15.9969 8.99803C15.9969 6.79004 14.2049 4.99804 11.9969 4.99804C9.78892 4.99804 7.99692 6.79004 7.99692 8.99803C7.99692 8.99803 7.99692 10.888 7.99692 12.379Z" fill="black"/>
</svg>
