<svg width="24" height="24" viewBox="0 0 24 24" fill="none" xmlns="http://www.w3.org/2000/svg">
<path d="M18.917 16.394C18.757 16.762 18.3969 17 17.9969 17C15.7869 17 8.64695 17 5.99695 17C5.73695 17 5.47699 16.895 5.28699 16.707C5.10699 16.52 4.99695 16.265 4.99695 16C4.99695 13.655 4.99695 8 4.99695 8C4.99695 8 16.7469 8 20.9969 8C21.3369 8 21.6469 8.16901 21.8369 8.45001C22.0169 8.73001 22.047 9.08498 21.917 9.39398C21.067 11.389 19.527 14.972 18.917 16.394ZM6.99695 10V15H17.3369L19.4869 10H6.99695Z" fill="black"/>
<path d="M19.9969 11H5.99695V12H19.9969V11Z" fill="black"/>
<path d="M18.9969 13H5.99695V14H18.9969V13Z" fill="black"/>
<path fill-rule="evenodd" clip-rule="evenodd" d="M5.99695 6C6.26695 6 6.51691 6.10503 6.70691 6.29303C6.88691 6.48003 6.99695 6.735 6.99695 7C6.99695 8.185 6.99695 10 6.99695 10H4.99695V8C4.99695 8 3.87695 8 2.99695 8C2.73695 8 2.477 7.89497 2.297 7.70697C2.107 7.51997 1.99695 7.265 1.99695 7C1.99695 6.735 2.107 6.48003 2.297 6.29303C2.477 6.10503 2.73695 6 2.99695 6C3.86695 6 5.12695 6 5.99695 6Z" fill="black"/>
<circle cx="9" cy="20" r="1.5" stroke="black"/>
<circle cx="15" cy="20" r="1.5" stroke="black"/>
<path fill-rule="evenodd" clip-rule="evenodd" d="M6 16V9H21L18 16H6ZM11 20C11 21.1045 10.1046 22 9 22C7.89539 22 7 21.1045 7 20C7 18.8955 7.89539 18 9 18C10.1046 18 11 18.8955 11 20ZM17 20C17 21.1045 16.1046 22 15 22C13.8954 22 13 21.1045 13 20C13 18.8955 13.8954 18 15 18C16.1046 18 17 18.8955 17 20Z" fill="black" fill-opacity="0.1"/>
</svg>
