<svg width="24" height="24" viewBox="0 0 24 24" fill="none" xmlns="http://www.w3.org/2000/svg">
<path fill-rule="evenodd" clip-rule="evenodd" d="M15 4C15 4 17.54 4 19 4C19.26 4 19.52 4.10503 19.71 4.29303C19.89 4.48003 20 4.735 20 5C20 5.265 19.89 5.51997 19.71 5.70697C19.52 5.89497 19.26 6 19 6C18.96 6 18.9399 6 18.9399 6C18.9399 6 18.22 16.79 18 20.07C17.96 20.59 17.53 21 17 21C14.78 21 9.22 21 7 21C6.47 21 6.04 20.59 6 20.07C5.78 16.79 5.07007 6 5.07007 6C5.07007 6 5.04 6 5 6C4.45 6 4 5.552 4 5C4 4.735 4.11004 4.48003 4.29004 4.29303C4.48004 4.10503 4.74 4 5 4C6.46 4 9 4 9 4C9 4 9 3.5 9 3C9 2.448 9.45 2 10 2C11.11 2 12.89 2 14 2C14.55 2 15 2.448 15 3C15 3.5 15 4 15 4ZM16.9299 6H7.07007L7.92993 19H16.0601L16.9299 6ZM11 16.97C11.01 17.25 10.8 17.48 10.53 17.5C10.25 17.51 10.02 17.3 10 17.03C9.91 15.322 9.6 9.73401 9.5 8.02802C9.49 7.75202 9.69997 7.51598 9.96997 7.50098C10.25 7.48498 10.48 7.69601 10.5 7.97101C10.59 9.67601 10.9 15.266 11 16.97ZM14.03 7.50098C14.3 7.51598 14.51 7.75202 14.5 8.02802C14.4 9.73401 14.09 15.322 14 17.03C13.98 17.3 13.75 17.51 13.47 17.5C13.2 17.48 12.99 17.25 13 16.97C13.1 15.266 13.41 9.67601 13.5 7.97101C13.52 7.69601 13.75 7.48498 14.03 7.50098ZM14 4V3H10V4H14Z" fill="black"/>
</svg>
