<svg width="24" height="24" viewBox="0 0 24 24" fill="none" xmlns="http://www.w3.org/2000/svg">
<path fill-rule="evenodd" clip-rule="evenodd" d="M14.9099 16.32C13.5499 17.37 11.85 18 10 18C5.59 18 2 14.415 2 10C2 5.585 5.59 2 10 2C14.41 2 18 5.585 18 10C18 11.848 17.3701 13.55 16.3201 14.905C16.3201 14.905 20.1 18.69 21.71 20.29C21.89 20.48 22 20.74 22 21C22 21.26 21.89 21.52 21.71 21.71C21.32 22.1 20.68 22.1 20.29 21.71C18.69 20.1 14.9099 16.32 14.9099 16.32ZM10 4C13.31 4 16 6.689 16 10C16 13.311 13.31 16 10 16C6.69 16 4 13.311 4 10C4 6.689 6.69 4 10 4ZM11 9C11 9 12.13 9 13 9C13.55 9 14 9.448 14 10C14 10.552 13.55 11 13 11C12.13 11 11 11 11 11C11 11 11 12.127 11 13C11 13.552 10.55 14 10 14C9.45 14 9 13.552 9 13C9 12.127 9 11 9 11C9 11 7.87 11 7 11C6.45 11 6 10.552 6 10C6 9.448 6.45 9 7 9C7.87 9 9 9 9 9C9 9 9 7.873 9 7C9 6.448 9.45 6 10 6C10.55 6 11 6.448 11 7C11 7.873 11 9 11 9Z" fill="#333333"/>
</svg>
