<svg width="24" height="24" viewBox="0 0 24 24" fill="none" xmlns="http://www.w3.org/2000/svg">
<rect x="4.5" y="4.5" width="5" height="5" rx="0.5" stroke="black"/>
<rect x="14.5" y="4.5" width="5" height="5" rx="0.5" stroke="black"/>
<rect x="4.5" y="14.5" width="5" height="5" rx="0.5" stroke="black"/>
<rect x="13" y="13" width="4" height="1" rx="0.5" fill="black"/>
<rect x="19" y="13" width="1" height="5" rx="0.5" fill="black"/>
<rect x="18" y="16" width="2" height="1" rx="0.5" fill="black"/>
<rect x="18" y="13" width="2" height="1" rx="0.5" fill="black"/>
<rect x="14" y="16" width="1" height="4" rx="0.5" fill="black"/>
<path fill-rule="evenodd" clip-rule="evenodd" d="M16.5 15C16.2239 15 16 15.2239 16 15.5V19.5C16 19.7761 16.2239 20 16.5 20H19.5C19.7761 20 20 19.7761 20 19.5C20 19.2239 19.7761 19 19.5 19H17V15.5C17 15.2239 16.7761 15 16.5 15Z" fill="black"/>
<path d="M8 7C8 7.55228 7.55228 8 7 8C6.44772 8 6 7.55228 6 7C6 6.44772 6.44772 6 7 6C7.55228 6 8 6.44772 8 7Z" fill="black"/>
<path d="M18 7C18 7.55228 17.5523 8 17 8C16.4477 8 16 7.55228 16 7C16 6.44772 16.4477 6 17 6C17.5523 6 18 6.44772 18 7Z" fill="black"/>
<path d="M8 17C8 17.5523 7.55228 18 7 18C6.44772 18 6 17.5523 6 17C6 16.4477 6.44772 16 7 16C7.55228 16 8 16.4477 8 17Z" fill="black"/>
<rect x="12" y="4" width="1" height="6" rx="0.5" fill="black"/>
<rect x="11" y="4" width="2" height="1" rx="0.5" fill="black"/>
<rect x="11" y="9" width="2" height="1" rx="0.5" fill="black"/>
<rect x="4" y="11" width="1" height="2" rx="0.5" fill="black"/>
<rect x="4" y="12" width="4" height="1" rx="0.5" fill="black"/>
<rect x="9" y="11" width="4" height="1" rx="0.5" fill="black"/>
<rect x="11" y="11" width="1" height="5" rx="0.5" fill="black"/>
<rect x="15" y="11" width="5" height="1" rx="0.5" fill="black"/>
<rect x="12" y="17" width="1" height="3" rx="0.5" fill="black"/>
<rect x="11" y="17" width="2" height="1" rx="0.5" fill="black"/>
</svg>
