<svg width="24" height="24" viewBox="0 0 24 24" fill="none" xmlns="http://www.w3.org/2000/svg">
<path fill-rule="evenodd" clip-rule="evenodd" d="M6 3.5C6 3.22388 6.22388 3 6.5 3H7.5H16.5H17.5C17.7761 3 18 3.22388 18 3.5C18 3.77612 17.7761 4 17.5 4H17V8.5C17 8.61938 16.9573 8.73486 16.8796 8.82544L14.1406 12.0208L16.9 15.7C16.965 15.7866 17 15.8918 17 16V20H17.5C17.7761 20 18 20.2239 18 20.5C18 20.7761 17.7761 21 17.5 21H16.5H7.5H6.5C6.22388 21 6 20.7761 6 20.5C6 20.2239 6.22388 20 6.5 20H7V15.5C7 15.3806 7.04272 15.2651 7.12036 15.1746L9.84143 12L7.12036 8.82544C7.04272 8.73486 7 8.61938 7 8.5V4H6.5C6.22388 4 6 3.77612 6 3.5ZM8 20H16V16.1667L13.1 12.3C12.9594 12.1125 12.9679 11.8525 13.1204 11.6746L16 8.31494V4H8V8.31494L10.8796 11.6746C11.0402 11.8618 11.0402 12.1382 10.8796 12.3254L8 15.6851V20Z" fill="black"/>
<path d="M17 3H7V8L10 12L7 16V21H17V16L14 12L17 8V3Z" fill="black" fill-opacity="0.1"/>
</svg>
