<svg width="24" height="24" viewBox="0 0 24 24" fill="none" xmlns="http://www.w3.org/2000/svg">
<path fill-rule="evenodd" clip-rule="evenodd" d="M18.4946 11.2917C18.8846 11.6817 18.8846 12.3156 18.4946 12.7056C17.4646 13.7316 15.6047 15.5946 14.8347 16.3616C14.6447 16.5516 14.3445 16.5516 14.1545 16.3616V16.3606C14.0545 16.2646 14.0046 16.1346 14.0046 15.9986C14.0046 15.8626 14.0545 15.7326 14.1545 15.6366C15.1345 14.6516 17.7846 11.9986 17.7846 11.9986C17.7846 11.9986 15.1345 9.34564 14.1545 8.36064C14.0545 8.26464 14.0046 8.13464 14.0046 7.99864C14.0046 7.86264 14.0545 7.73264 14.1545 7.63664V7.63566C14.3445 7.44566 14.6447 7.44566 14.8347 7.63566C15.6047 8.40266 17.4646 10.2657 18.4946 11.2917ZM9.84468 7.63664C9.93468 7.73264 9.98457 7.86264 9.98457 7.99864C9.98457 8.13464 9.93468 8.26464 9.84468 8.36064C8.85468 9.34564 6.20455 11.9986 6.20455 11.9986C6.20455 11.9986 8.85468 14.6516 9.84468 15.6366C9.93468 15.7326 9.98457 15.8626 9.98457 15.9986C9.98457 16.1346 9.93468 16.2646 9.84468 16.3606C9.84468 16.3606 9.84467 16.3616 9.83467 16.3616C9.64467 16.5516 9.3445 16.5516 9.1545 16.3616C8.3845 15.5946 6.52459 13.7316 5.49459 12.7056C5.10459 12.3156 5.10459 11.6817 5.49459 11.2917C6.52459 10.2657 8.3845 8.40266 9.1545 7.63566C9.3445 7.44566 9.64467 7.44566 9.83467 7.63566C9.84467 7.63566 9.84468 7.63664 9.84468 7.63664Z" fill="black"/>
</svg>
