<svg width="24" height="24" viewBox="0 0 24 24" fill="none" xmlns="http://www.w3.org/2000/svg">
<path fill-rule="evenodd" clip-rule="evenodd" d="M9.77705 5.77277C9.97539 5.70288 10.1076 5.51401 10.1076 5.30245C10.1076 4.94545 10.1076 4.39767 10.1076 3.99911C10.1076 3.72334 10.3343 3.49951 10.6082 3.49951C11.3354 3.49951 12.667 3.49951 13.3848 3.49951C13.6681 3.49951 13.8854 3.72334 13.8854 3.99911C13.8854 4.39767 13.8854 4.94545 13.8854 5.30245C13.8854 5.51495 14.027 5.70386 14.2253 5.77375C14.9809 6.04386 15.6704 6.44901 16.2748 6.95996C16.4354 7.09879 16.6715 7.12144 16.8509 7.01472C17.1626 6.83811 17.6348 6.56331 17.9842 6.36403C18.2203 6.2252 18.5321 6.30736 18.6643 6.5463C19.0232 7.17341 19.6937 8.32561 20.0526 8.95272C20.1943 9.19166 20.1092 9.49768 19.8731 9.63557C19.5237 9.83485 19.0515 10.1078 18.7398 10.2863C18.5604 10.393 18.4659 10.6027 18.5037 10.8114C18.5698 11.1967 18.6076 11.5943 18.6076 11.9995C18.6076 12.4047 18.5698 12.8023 18.5037 13.1876C18.4659 13.3954 18.5604 13.606 18.7398 13.7118C19.0515 13.8912 19.5237 14.1642 19.8731 14.3634C20.1092 14.5013 20.1943 14.8074 20.0526 15.0463C19.6937 15.6734 19.0232 16.8256 18.6643 17.4527C18.5321 17.6917 18.2203 17.7738 17.9842 17.635C17.6348 17.4357 17.1626 17.1609 16.8509 16.9824C16.6715 16.8766 16.4354 16.8993 16.2748 17.0381C15.6704 17.55 14.9809 17.9552 14.2253 18.2262C14.027 18.2961 13.8948 18.485 13.8948 18.6966C13.8854 19.0536 13.8854 19.6013 13.8854 19.9999C13.8854 20.2757 13.6681 20.4995 13.3848 20.4995C12.667 20.4995 11.3354 20.4995 10.6082 20.4995C10.3343 20.4995 10.1076 20.2757 10.1076 19.9999C10.1076 19.6013 10.1076 19.0536 10.1076 18.6966C10.1076 18.4841 9.97539 18.2952 9.77705 18.2253C9.0215 17.9552 8.32256 17.55 7.71811 17.0391C7.55756 16.9002 7.33092 16.8776 7.15147 16.9843C6.8398 17.1609 6.35818 17.4357 6.01818 17.635C5.77263 17.7738 5.47031 17.6917 5.32864 17.4527C4.96975 16.8256 4.30867 15.6734 3.94034 15.0463C3.80812 14.8074 3.88374 14.5013 4.1293 14.3634C4.4693 14.1642 4.94146 13.8913 5.25313 13.7128C5.44202 13.606 5.53647 13.3963 5.49869 13.1876C5.42314 12.8023 5.38537 12.4047 5.38537 11.9995C5.38537 11.5943 5.42314 11.1967 5.49869 10.8114C5.53647 10.6036 5.44202 10.393 5.25313 10.2872C4.94146 10.1078 4.4693 9.83485 4.1293 9.63557C3.88374 9.49768 3.80812 9.19166 3.94034 8.95272C4.30867 8.32561 4.96975 7.17341 5.32864 6.5463C5.47031 6.30736 5.77263 6.2252 6.01818 6.36403C6.35818 6.56331 6.8398 6.83812 7.14202 7.01662C7.33091 7.1224 7.55757 7.09971 7.72757 6.96088C8.32257 6.44899 9.0215 6.04383 9.77705 5.77277Z" stroke="black" stroke-width="1.06" stroke-miterlimit="1.5" stroke-linecap="round" stroke-linejoin="round"/>
<circle cx="12" cy="12" r="3" stroke="black"/>
<path fill-rule="evenodd" clip-rule="evenodd" d="M9.99707 5V5.29004C8.93707 5.60693 7.977 6.1709 7.18701 6.91504L6.93944 6.77148C5.98306 6.21753 4.7586 6.54468 4.20596 7.50195C3.65416 8.45752 3.98114 9.67969 4.93648 10.2322L5.18701 10.377C5.06702 10.8979 4.99707 11.4409 4.99707 12C4.99707 12.5591 5.06702 13.1021 5.18701 13.623L4.93648 13.7678C3.98114 14.3203 3.65416 15.5425 4.20596 16.498C4.7586 17.4553 5.98306 17.7825 6.93944 17.2285L7.18701 17.085C7.977 17.8291 8.93707 18.3931 9.99707 18.71V19C9.99707 20.1045 10.8925 21 11.9971 21C13.1016 21 13.9971 20.1045 13.9971 19V18.71C15.0671 18.3931 16.0271 17.8291 16.8071 17.085L17.0663 17.2344C18.0224 17.7854 19.2442 17.4575 19.796 16.502C20.3487 15.5447 20.0197 14.3208 19.0617 13.7695L18.8071 13.623C18.9371 13.1021 18.9971 12.5591 18.9971 12C18.9971 11.4409 18.9371 10.8979 18.8071 10.377L19.0617 10.2305C20.0197 9.6792 20.3487 8.45532 19.796 7.49805C19.2442 6.54248 18.0224 6.2146 17.0663 6.76562L16.8071 6.91504C16.0271 6.1709 15.0671 5.60693 13.9971 5.29004V5C13.9971 3.89551 13.1016 3 11.9971 3C10.8925 3 9.99707 3.89551 9.99707 5ZM12 15C13.6569 15 15 13.6567 15 12C15 10.3433 13.6569 9 12 9C10.3431 9 9 10.3433 9 12C9 13.6567 10.3431 15 12 15Z" fill="black" fill-opacity="0.1"/>
</svg>
