<svg width="24" height="24" viewBox="0 0 24 24" fill="none" xmlns="http://www.w3.org/2000/svg">
<path fill-rule="evenodd" clip-rule="evenodd" d="M5 3C5 2.44772 5.44772 2 6 2H7H17H18C18.5523 2 19 2.44772 19 3C19 3.55228 18.5523 4 18 4V8C18 8.21637 17.9298 8.4269 17.8 8.6L15.25 12L17.8 15.4C17.9298 15.5731 18 15.7836 18 16V20C18.5523 20 19 20.4477 19 21C19 21.5523 18.5523 22 18 22H17H7H6C5.44772 22 5 21.5523 5 21C5 20.4477 5.44772 20 6 20V16C6 15.7836 6.07018 15.5731 6.2 15.4L8.75 12L6.2 8.6C6.07018 8.4269 6 8.21637 6 8V4C5.44772 4 5 3.55228 5 3ZM8 20H16V16.3333L13.2 12.6C12.9333 12.2444 12.9333 11.7556 13.2 11.4L16 7.66667V4H8V7.66667L10.8 11.4C11.0667 11.7556 11.0667 12.2444 10.8 12.6L8 16.3333V20Z" fill="black"/>
<path d="M17 3H7V8L10 12L7 16V21H17V16L14 12L17 8V3Z" fill="black" fill-opacity="0.1"/>
</svg>
