<svg width="24" height="24" viewBox="0 0 24 24" fill="none" xmlns="http://www.w3.org/2000/svg">
<path fill-rule="evenodd" clip-rule="evenodd" d="M21.9995 20.9975C21.9995 21.2575 21.8894 21.5175 21.7094 21.7075C21.5194 21.8875 21.2595 21.9975 20.9995 21.9975C17.5895 21.9975 6.40949 21.9975 2.9995 21.9975C2.7395 21.9975 2.47954 21.8875 2.28954 21.7075C2.10954 21.5175 1.9995 21.2575 1.9995 20.9975C1.9995 17.5875 1.9995 6.41155 1.9995 2.99756C1.9995 2.73256 2.10954 2.47759 2.28954 2.29059C2.47954 2.10259 2.7395 1.99756 2.9995 1.99756C6.40949 1.99756 17.5895 1.99756 20.9995 1.99756C21.2595 1.99756 21.5194 2.10259 21.7094 2.29059C21.8894 2.47759 21.9995 2.73256 21.9995 2.99756C21.9995 6.41155 21.9995 17.5875 21.9995 20.9975ZM7.99949 15.9975H3.99949V19.9975H7.99949V15.9975ZM14.9995 3.99755H8.99949C8.99949 3.99755 8.99949 6.53855 8.99949 7.99755C8.99949 8.26255 8.88945 8.51752 8.70945 8.70452C8.51945 8.89252 8.25949 8.99754 7.99949 8.99754C6.53949 8.99754 3.99949 8.99754 3.99949 8.99754V14.9975C3.99949 14.9975 6.53949 14.9975 7.99949 14.9975C8.54949 14.9975 8.99949 15.4455 8.99949 15.9975C8.99949 17.4575 8.99949 19.9975 8.99949 19.9975H19.9995V8.99754C19.9995 8.99754 17.4595 8.99754 15.9995 8.99754C15.7395 8.99754 15.4795 8.89252 15.2895 8.70452C15.1095 8.51752 14.9995 8.26255 14.9995 7.99755C14.9995 6.53855 14.9995 3.99755 14.9995 3.99755ZM5.99949 16.9975C6.54949 16.9975 6.99949 17.4475 6.99949 17.9975C6.99949 18.5475 6.54949 18.9975 5.99949 18.9975C5.44949 18.9975 4.99949 18.5475 4.99949 17.9975C4.99949 17.4475 5.44949 16.9975 5.99949 16.9975ZM19.9995 3.99755H15.9995V7.99755H19.9995V3.99755ZM7.99949 3.99755H3.99949V7.99755H7.99949V3.99755ZM5.99949 4.99755C6.54949 4.99755 6.99949 5.44555 6.99949 5.99755C6.99949 6.54955 6.54949 6.99755 5.99949 6.99755C5.44949 6.99755 4.99949 6.54955 4.99949 5.99755C4.99949 5.44555 5.44949 4.99755 5.99949 4.99755ZM17.9995 4.99755C18.5495 4.99755 18.9995 5.44555 18.9995 5.99755C18.9995 6.54955 18.5495 6.99755 17.9995 6.99755C17.4495 6.99755 16.9995 6.54955 16.9995 5.99755C16.9995 5.44555 17.4495 4.99755 17.9995 4.99755ZM10.9995 15.9975C10.9995 15.9975 11.2495 15.9975 11.4995 15.9975C11.6295 15.9975 11.7596 16.0476 11.8496 16.1476C11.9396 16.2376 11.9995 16.3675 11.9995 16.4975C11.9995 17.0875 11.9995 17.9975 11.9995 17.9975C11.9995 17.9975 12.2495 17.9975 12.4995 17.9975C12.6295 17.9975 12.7596 18.0476 12.8496 18.1476C12.9396 18.2376 12.9995 18.3675 12.9995 18.4975C12.9995 18.6275 12.9396 18.7575 12.8496 18.8475C12.7596 18.9475 12.6295 18.9975 12.4995 18.9975C12.1895 18.9975 11.7995 18.9975 11.4995 18.9975C11.3595 18.9975 11.2394 18.9475 11.1394 18.8475C11.0494 18.7575 10.9995 18.6275 10.9995 18.4975C10.9995 18.2475 10.9995 17.9975 10.9995 17.9975C10.9995 17.9975 10.7495 17.9975 10.4995 17.9975C10.3595 17.9975 10.2394 17.9475 10.1394 17.8475C10.0494 17.7575 9.99949 17.6275 9.99949 17.4975C9.99949 16.9375 9.99949 16.0375 9.99949 15.4845C9.99949 15.3555 10.0494 15.2315 10.1394 15.1405C10.2294 15.0485 10.3595 14.9975 10.4795 14.9975H10.4895C10.7695 14.9975 10.9995 15.2266 10.9995 15.5096C10.9995 15.7556 10.9995 15.9975 10.9995 15.9975ZM18.9995 18.4975C18.9995 18.7675 18.7695 18.9975 18.4895 18.9975C18.3595 18.9975 18.2394 18.9475 18.1394 18.8575C18.0494 18.7575 17.9995 18.6375 17.9995 18.4975C17.9995 18.1975 17.9995 17.7975 17.9995 17.4875C17.9995 17.2175 18.2195 16.9975 18.4895 16.9975C18.6195 16.9975 18.7496 17.0476 18.8496 17.1476C18.9396 17.2376 18.9995 17.3675 18.9995 17.5075C18.9995 17.8075 18.9995 18.1975 18.9995 18.4975ZM15.9995 15.5105C15.9995 15.6395 15.9496 15.7635 15.8496 15.8545C15.7596 15.9465 15.6395 15.9975 15.5095 15.9975C15.2595 15.9975 14.9995 15.9975 14.9995 15.9975C14.9995 15.9975 14.9995 16.2475 14.9995 16.4975C14.9995 16.6275 14.9396 16.7575 14.8496 16.8475C14.7596 16.9475 14.6295 16.9975 14.4995 16.9975C14.1895 16.9975 13.7995 16.9975 13.4995 16.9975C13.2195 16.9975 12.9995 16.7775 12.9995 16.4975C12.9995 16.2175 13.2195 15.9975 13.4995 15.9975C13.7495 15.9975 13.9995 15.9975 13.9995 15.9975C13.9995 15.9975 13.9995 15.7475 13.9995 15.4975C13.9995 15.3645 14.0494 15.2375 14.1394 15.1435C14.2394 15.0505 14.3595 14.9975 14.4995 14.9975C14.7995 14.9975 15.1795 14.9975 15.4895 14.9975C15.7695 14.9975 15.9995 15.2266 15.9995 15.5096V15.5105ZM18.9995 13.9975C18.9995 14.5495 18.5495 14.9975 17.9995 14.9975C17.9995 14.9975 17.9995 15.2485 17.9995 15.4985C17.9995 15.7745 17.7695 15.9975 17.4995 15.9975C17.2195 15.9975 16.9995 15.7745 16.9995 15.4985C16.9995 14.9065 16.9995 13.9975 16.9995 13.9975C16.9995 13.9975 16.7495 13.9975 16.4995 13.9975C16.3595 13.9975 16.2394 13.9445 16.1394 13.8515C16.0494 13.7575 15.9995 13.6305 15.9995 13.4975V13.4966C15.9995 13.2206 16.2195 12.9975 16.4995 12.9975C17.0495 12.9975 17.9395 12.9975 18.4995 12.9975C18.6295 12.9975 18.7596 13.0505 18.8496 13.1435C18.9396 13.2375 18.9995 13.3645 18.9995 13.4975C18.9995 13.6505 18.9995 13.8235 18.9995 13.9975ZM5.99949 11.9975C5.99949 11.9975 6.24949 11.9975 6.49949 11.9975C6.76949 11.9975 6.99949 12.2206 6.99949 12.4966C6.99949 12.4976 6.99949 12.4975 6.99949 12.4985C6.99949 12.7745 6.76949 12.9975 6.49949 12.9975C6.24949 12.9975 5.99949 12.9975 5.99949 12.9975C5.99949 12.9975 5.99949 13.2625 5.99949 13.5195C5.99949 13.7835 5.77951 13.9975 5.51951 13.9975C5.22951 13.9975 4.99949 13.7636 4.99949 13.4756C4.99949 12.9196 4.99949 12.0455 4.99949 11.4975C4.99949 11.3645 5.04939 11.2375 5.13939 11.1435C5.23939 11.0505 5.35949 10.9975 5.49949 10.9975C5.76949 10.9975 5.99949 11.2206 5.99949 11.4966C5.99949 11.7466 5.99949 11.9975 5.99949 11.9975ZM8.99949 13.4975C8.99949 13.6305 8.93959 13.7575 8.84959 13.8515C8.75959 13.9445 8.62949 13.9975 8.49949 13.9975C8.35949 13.9975 8.23938 13.9445 8.13938 13.8515C8.04938 13.7575 7.99949 13.6305 7.99949 13.4975C7.99949 12.9425 7.99949 12.0525 7.99949 11.4975C7.99949 11.3645 8.04938 11.2375 8.13938 11.1435C8.23938 11.0505 8.35949 10.9975 8.49949 10.9975C8.62949 10.9975 8.75959 11.0505 8.84959 11.1435C8.93959 11.2375 8.99949 11.3645 8.99949 11.4975C8.99949 12.0525 8.99949 12.9425 8.99949 13.4975ZM13.9995 12.9975C13.9995 13.5495 13.5495 13.9975 12.9995 13.9975C12.3895 13.9975 11.6095 13.9975 10.9995 13.9975C10.4495 13.9975 9.99949 13.5495 9.99949 12.9975C9.99949 12.3865 9.99949 11.6085 9.99949 10.9975C9.99949 10.4455 10.4495 9.99754 10.9995 9.99754C11.6095 9.99754 12.3895 9.99754 12.9995 9.99754C13.5495 9.99754 13.9995 10.4455 13.9995 10.9975C13.9995 11.6085 13.9995 12.3865 13.9995 12.9975ZM18.4995 11.4985C18.4995 11.7745 18.2695 11.9975 17.9995 11.9975C17.5595 11.9975 16.9295 11.9975 16.4895 11.9975C16.2195 11.9975 15.9895 11.7745 15.9895 11.4985C15.9895 11.4975 15.9895 11.4976 15.9895 11.4966C15.9895 11.2206 16.2195 10.9975 16.4895 10.9975C16.9295 10.9975 17.5595 10.9975 17.9995 10.9975C18.2695 10.9975 18.4995 11.2206 18.4995 11.4966C18.4995 11.4976 18.4995 11.4975 18.4995 11.4985ZM12.9995 10.9975H10.9995V12.9975H12.9995V10.9975ZM15.9895 10.4985C15.9895 10.7745 15.7695 10.9975 15.4895 10.9975C15.2195 10.9975 14.9995 10.7745 14.9995 10.4985C14.9995 10.4975 14.9995 10.4976 14.9995 10.4966C14.9995 10.2206 15.2195 9.99754 15.4895 9.99754C15.7695 9.99754 15.9895 10.2206 15.9895 10.4966C15.9895 10.4976 15.9895 10.4975 15.9895 10.4985ZM7.99949 10.4975C7.99949 10.6305 7.93959 10.7575 7.84959 10.8515C7.75959 10.9445 7.62949 10.9975 7.49949 10.9975C7.18949 10.9975 6.79949 10.9975 6.49949 10.9975C6.21949 10.9975 5.99949 10.7745 5.99949 10.4985C5.99949 10.4975 5.99949 10.4976 5.99949 10.4966C5.99949 10.2206 6.21949 9.99754 6.49949 9.99754C6.79949 9.99754 7.18949 9.99754 7.49949 9.99754C7.76949 9.99754 7.99949 10.2206 7.99949 10.4966V10.4975ZM11.9995 5.51556C11.9995 5.37856 12.0494 5.24653 12.1494 5.14953C12.2494 5.05253 12.3795 4.99755 12.5195 4.99755C12.8195 4.99755 13.1995 4.99755 13.4995 4.99755C13.7695 4.99755 13.9995 5.22155 13.9995 5.49755C13.9995 6.05255 13.9995 6.94353 13.9995 7.49852C13.9995 7.77452 13.7695 7.99755 13.4995 7.99755C13.2195 7.99755 12.9995 7.77452 12.9995 7.49852C12.9995 6.90653 12.9995 5.99755 12.9995 5.99755C12.9995 5.99755 12.7395 5.99755 12.4795 5.99755C12.3495 5.99755 12.2294 5.94656 12.1394 5.85656C12.0494 5.76656 11.9995 5.64453 11.9995 5.51653V5.51556ZM10.9995 5.99755C10.9995 5.99755 11.2495 5.99755 11.4995 5.99755C11.7695 5.99755 11.9995 6.22057 11.9995 6.49657V6.49755C11.9995 6.77355 11.7695 6.99755 11.4995 6.99755C11.2495 6.99755 10.9995 6.99755 10.9995 6.99755C10.9995 6.99755 10.9995 7.25655 10.9995 7.51055C10.9995 7.63955 10.9496 7.76354 10.8496 7.85454C10.7596 7.94654 10.6395 7.99755 10.5095 7.99755C10.2295 7.99755 9.99949 7.76852 9.99949 7.48552C9.99949 6.93052 9.99949 6.04953 9.99949 5.49853C9.99949 5.36553 10.0494 5.23852 10.1394 5.14452C10.2394 5.05052 10.3695 4.99755 10.4995 4.99755C10.6295 4.99755 10.7596 5.05052 10.8496 5.14452C10.9496 5.23852 10.9995 5.36555 10.9995 5.49755C10.9995 5.74755 10.9995 5.99755 10.9995 5.99755Z" fill="black"/>
<path d="M8.5 8.5H3V15.5H8.5V21H21V8.5H15.5V3H8.5V8.5Z" fill="black" fill-opacity="0.1"/>
</svg>
