<svg width="24" height="24" viewBox="0 0 24 24" fill="none" xmlns="http://www.w3.org/2000/svg">
<path fill-rule="evenodd" clip-rule="evenodd" d="M12 2C17.519 2 22 6.481 22 12C22 17.519 17.519 22 12 22C6.481 22 2 17.519 2 12C2 6.481 6.481 2 12 2ZM12 4C16.415 4 20 7.585 20 12C20 16.415 16.415 20 12 20C7.585 20 4 16.415 4 12C4 7.585 7.585 4 12 4Z" fill="black"/>
<path fill-rule="evenodd" clip-rule="evenodd" d="M11.994 3.5C11.994 3.367 11.939 3.24 11.849 3.146C11.754 3.053 11.624 3 11.494 3C11.364 3 11.234 3.053 11.139 3.146C11.049 3.24 10.994 3.367 10.994 3.5C10.994 4.055 10.994 4.945 10.994 5.5C10.994 5.633 11.049 5.76 11.139 5.854C11.234 5.947 11.364 6 11.494 6C11.624 6 11.754 5.947 11.849 5.854C11.939 5.76 11.994 5.633 11.994 5.5C11.994 4.945 11.994 4.055 11.994 3.5Z" fill="black"/>
<path fill-rule="evenodd" clip-rule="evenodd" d="M11.9944 18.501C11.9944 18.368 11.9392 18.241 11.8489 18.147C11.7537 18.053 11.6283 18 11.4929 18C11.3575 18 11.2322 18.053 11.1369 18.147C11.0466 18.241 10.9915 18.368 10.9915 18.501C10.9915 19.056 10.9915 19.944 10.9915 20.499C10.9915 20.632 11.0466 20.759 11.1369 20.853C11.2322 20.947 11.3575 21 11.4929 21C11.6283 21 11.7537 20.947 11.8489 20.853C11.9392 20.759 11.9944 20.632 11.9944 20.499C11.9944 19.944 11.9944 19.056 11.9944 18.501Z" fill="black"/>
<path fill-rule="evenodd" clip-rule="evenodd" d="M6 11.4995C6 11.3668 5.95485 11.2399 5.84985 11.1459C5.75985 11.0522 5.63988 10.9995 5.50488 10.9995C4.94988 10.9995 4.05012 10.9995 3.49512 10.9995C3.36012 10.9995 3.24015 11.0522 3.15015 11.1459C3.04515 11.2399 3 11.3668 3 11.4995C3 11.6322 3.04515 11.7592 3.15015 11.8532C3.24015 11.9468 3.36012 11.9995 3.49512 11.9995C4.05012 11.9995 4.94988 11.9995 5.50488 11.9995C5.63988 11.9995 5.75985 11.9468 5.84985 11.8532C5.95485 11.7592 6 11.6322 6 11.4995Z" fill="black"/>
<path fill-rule="evenodd" clip-rule="evenodd" d="M21 11.4995C21 11.3668 20.9549 11.2399 20.8499 11.1459C20.7599 11.0522 20.6399 10.9995 20.5049 10.9995C19.9499 10.9995 19.0501 10.9995 18.4951 10.9995C18.3601 10.9995 18.2401 11.0522 18.1501 11.1459C18.0451 11.2399 18 11.3668 18 11.4995C18 11.6322 18.0451 11.7592 18.1501 11.8532C18.2401 11.9468 18.3601 11.9995 18.4951 11.9995C19.0501 11.9995 19.9499 11.9995 20.5049 11.9995C20.6399 11.9995 20.7599 11.9468 20.8499 11.8532C20.9549 11.7592 21 11.6322 21 11.4995Z" fill="black"/>
<path fill-rule="evenodd" clip-rule="evenodd" d="M13.8571 13.515C13.7671 13.655 13.6472 13.773 13.5172 13.857C12.8172 14.277 10.5272 15.648 8.51715 16.857C8.11715 17.094 7.61717 17.0319 7.28717 16.7069C6.96717 16.3829 6.90715 15.8789 7.13715 15.4849C8.34715 13.4699 9.71715 11.1849 10.1371 10.4849C10.2271 10.3449 10.3471 10.227 10.4871 10.143C11.1771 9.72296 13.4671 8.35196 15.4871 7.14296C15.8771 6.90596 16.3771 6.96799 16.7071 7.29299C17.0271 7.61699 17.0871 8.12097 16.8571 8.51497C15.6471 10.53 14.2771 12.815 13.8571 13.515ZM7.99713 16L12.9971 13L10.9971 11L7.99713 16Z" fill="black"/>
<circle cx="12" cy="12" r="9" fill="black" fill-opacity="0.1"/>
</svg>
