<svg width="24" height="24" viewBox="0 0 24 24" fill="none" xmlns="http://www.w3.org/2000/svg">
<path d="M20.9997 20.0027C20.9997 20.5558 20.5497 21.0034 19.9997 21.0034C18.0797 21.0034 13.9198 21.0034 11.9998 21.0034C11.4498 21.0034 10.9998 20.5558 10.9998 20.0027C10.9998 18.0869 10.9998 13.9192 10.9998 12.0034C10.9998 11.4503 11.4498 11.0027 11.9998 11.0027C13.9198 11.0027 18.0797 11.0027 19.9997 11.0027C20.5497 11.0027 20.9997 11.4503 20.9997 12.0034C20.9997 13.9192 20.9997 18.0869 20.9997 20.0027ZM11.9998 12.0034V20.0027H19.9997V12.0034H11.9998Z" fill="black"/>
<path fill-rule="evenodd" clip-rule="evenodd" d="M12.9997 9.49828C12.9997 9.77428 12.7797 9.99828 12.4997 9.99828C12.2197 9.99828 11.9997 9.77428 11.9997 9.49828C11.9997 8.05728 11.9997 3.99829 11.9997 3.99829H3.99975V11.9983C3.99975 11.9983 8.05975 11.9983 9.49975 11.9983C9.62975 11.9983 9.75973 12.0513 9.84973 12.1443C9.94973 12.2383 9.99975 12.3653 9.99975 12.4983C9.99975 12.7743 9.77975 12.9983 9.49975 12.9983C8.34975 12.9983 5.51975 12.9983 3.99975 12.9983C3.44976 12.9983 2.99976 12.5503 2.99976 11.9983C2.99976 10.0823 2.99976 5.91428 2.99976 3.99829C2.99976 3.44629 3.44976 2.99829 3.99975 2.99829C5.91975 2.99829 10.0797 2.99829 11.9997 2.99829C12.5497 2.99829 12.9997 3.44629 12.9997 3.99829C12.9997 5.51729 12.9997 8.35228 12.9997 9.49828Z" fill="black"/>
<path d="M5.49878 5.49854H10.4988H8.49878" stroke="black" stroke-miterlimit="5" stroke-linecap="round" stroke-linejoin="round"/>
<path d="M9.49976 5.49854V6.49853" stroke="black" stroke-miterlimit="5" stroke-linecap="square" stroke-linejoin="round"/>
<path d="M9.50006 7.0022C9.50006 8.93595 7.93206 10.5022 6.00006 10.5022" stroke="black" stroke-width="1.14" stroke-miterlimit="5" stroke-linecap="round" stroke-linejoin="round"/>
<path d="M13.9998 18.4983L15.9998 13.4983L17.9998 18.4983" stroke="black" stroke-miterlimit="5" stroke-linecap="round" stroke-linejoin="round"/>
<path d="M14.3964 17.4983H17.5964" stroke="black" stroke-width="0.97" stroke-miterlimit="5" stroke-linecap="round" stroke-linejoin="round"/>
<path d="M5.49976 10.4983H5.99976" stroke="black" stroke-miterlimit="5" stroke-linecap="round" stroke-linejoin="round"/>
<path d="M14.5 6C14.2239 6 14 6.22386 14 6.5C14 6.77614 14.2239 7 14.5 7V6ZM17 9.5C17 9.77614 17.2239 10 17.5 10C17.7761 10 18 9.77614 18 9.5H17ZM14.5 7C15.8807 7 17 8.11929 17 9.5H18C18 7.567 16.433 6 14.5 6V7Z" fill="black"/>
<path d="M9.5 18C9.77614 18 10 17.7761 10 17.5C10 17.2239 9.77614 17 9.5 17V18ZM7 14.5C7 14.2239 6.77614 14 6.5 14C6.22386 14 6 14.2239 6 14.5H7ZM9.5 17C8.11929 17 7 15.8807 7 14.5H6C6 16.433 7.567 18 9.5 18V17Z" fill="black"/>
<path d="M6 7.5C6 7.22386 6.22386 7 6.5 7H9.25C9.52614 7 9.75 7.22386 9.75 7.5C9.75 7.77614 9.52614 8 9.25 8H6.5C6.22386 8 6 7.77614 6 7.5Z" fill="black"/>
<path fill-rule="evenodd" clip-rule="evenodd" d="M12 4H4V12H12V20H20V12H12V4Z" fill="black" fill-opacity="0.1"/>
</svg>
