<svg width="24" height="24" viewBox="0 0 24 24" fill="none" xmlns="http://www.w3.org/2000/svg">
<path d="M16.1201 9C16.1201 9 18.0301 11.634 19.3301 13.412C19.5501 13.716 19.5799 14.119 19.4099 14.454C19.2399 14.789 18.89 15 18.52 15C14.56 15 6 15 6 15C6 15 6 19.9 6 21.5C6 21.78 5.78 22 5.5 22C5.22 22 5 21.78 5 21.5C5 18.96 5 7.476 5 4C5 3.735 5.11004 3.48003 5.29004 3.29303C5.48004 3.10503 5.74 3 6 3C8.52 3 15.18 3 18.52 3C18.89 3 19.2399 3.21102 19.4099 3.54602C19.5799 3.88102 19.5501 4.28401 19.3301 4.58801C18.0301 6.36601 16.1201 9 16.1201 9ZM6 4V14H18.52C18.52 14 16.2701 10.91 15.3101 9.58801C15.0501 9.23701 15.0501 8.76199 15.3101 8.41199C16.2701 7.08999 18.52 4 18.52 4H6Z" fill="black"/>
<path d="M6 4V14H20L16 9L20 4H6Z" fill="black" fill-opacity="0.1"/>
</svg>
