<svg width="24" height="24" viewBox="0 0 24 24" fill="none" xmlns="http://www.w3.org/2000/svg">
<path fill-rule="evenodd" clip-rule="evenodd" d="M20.9997 1.99854C21.2647 1.99854 21.5188 2.10356 21.7068 2.29156C21.8948 2.47856 21.9997 2.73353 21.9997 2.99853C21.9997 6.41253 21.9997 17.5845 21.9997 20.9985C21.9997 21.2635 21.8948 21.5185 21.7068 21.7055C21.5188 21.8935 21.2647 21.9985 20.9997 21.9985C17.5857 21.9985 6.41375 21.9985 2.99975 21.9985C2.73476 21.9985 2.47979 21.8935 2.29279 21.7055C2.10479 21.5185 1.99976 21.2635 1.99976 20.9985C1.99976 17.5845 1.99976 6.41253 1.99976 2.99853C1.99976 2.73353 2.10479 2.47856 2.29279 2.29156C2.47979 2.10356 2.73476 1.99854 2.99975 1.99854C6.41375 1.99854 17.5857 1.99854 20.9997 1.99854ZM20.9938 2.99853H2.99377V20.9985H20.9938V2.99853Z" fill="#333333"/>
<path d="M5 5.99975C5.55228 5.99975 6 5.55204 6 4.99975C6 4.44747 5.55228 3.99976 5 3.99976C4.44771 3.99976 4 4.44747 4 4.99975C4 5.55204 4.44771 5.99975 5 5.99975Z" fill="#333333"/>
<path d="M8 5.99975C8.55228 5.99975 9 5.55204 9 4.99975C9 4.44747 8.55228 3.99976 8 3.99976C7.44771 3.99976 7 4.44747 7 4.99975C7 5.55204 7.44771 5.99975 8 5.99975Z" fill="#333333"/>
<path d="M11 5.99975C11.5523 5.99975 12 5.55204 12 4.99975C12 4.44747 11.5523 3.99976 11 3.99976C10.4477 3.99976 10 4.44747 10 4.99975C10 5.55204 10.4477 5.99975 11 5.99975Z" fill="#333333"/>
<path d="M21.5 7.49951H2.5V14.4995H21.5V7.49951Z" stroke="#333333" stroke-miterlimit="1.5" stroke-linecap="round" stroke-linejoin="round"/>
<path fill-rule="evenodd" clip-rule="evenodd" d="M14.998 16.4983C14.998 16.2223 14.7733 15.9983 14.4984 15.9983H4.49149C4.21658 15.9983 3.99194 16.2223 3.99194 16.4983C3.99194 16.7743 4.21658 16.9983 4.49149 16.9983H14.4984C14.7733 16.9983 14.998 16.7743 14.998 16.4983Z" fill="#333333"/>
<path fill-rule="evenodd" clip-rule="evenodd" d="M10.9996 18.4978C10.9996 18.2218 10.7756 17.9978 10.4996 17.9978H4.49365C4.21765 17.9978 3.99365 18.2218 3.99365 18.4978C3.99365 18.7738 4.21765 18.9978 4.49365 18.9978H10.4996C10.7756 18.9978 10.9996 18.7738 10.9996 18.4978Z" fill="#333333"/>
<path d="M2.49976 14.498L8.49975 9.49805L13.4997 13.498" stroke="#333333" stroke-miterlimit="1.5" stroke-linecap="round" stroke-linejoin="round"/>
<path d="M11.9998 14.4985L16.4998 11.4985L20.4997 14.4985" stroke="#333333" stroke-miterlimit="1.5" stroke-linecap="round" stroke-linejoin="round"/>
</svg>
