<svg width="24" height="24" viewBox="0 0 24 24" fill="none" xmlns="http://www.w3.org/2000/svg">
<path fill-rule="evenodd" clip-rule="evenodd" d="M13 18.5C13 18.78 12.78 19 12.5 19C12.22 19 12 18.78 12 18.5C12 16.32 12 7.678 12 5.5C12 5.224 12.22 5 12.5 5C12.78 5 13 5.22302 13 5.49902C13 7.67502 13 16.33 13 18.5ZM6 18.5C6 18.78 5.78 19 5.5 19C5.22 19 5 18.78 5 18.5C5 16.32 5 7.678 5 5.5C5 5.224 5.22 5 5.5 5C5.78 5 6 5.224 6 5.5C6 7.678 6 16.32 6 18.5ZM11 18.5C11 18.78 10.78 19 10.5 19C10.22 19 10 18.78 10 18.5C10 16.32 10 7.678 10 5.5C10 5.224 10.22 5 10.5 5C10.78 5 11 5.224 11 5.5C11 7.678 11 16.32 11 18.5ZM16 18C16 18.55 15.55 19 15 19C14.45 19 14 18.55 14 18C14 15.423 14 8.577 14 6C14 5.448 14.45 5 15 5C15.55 5 16 5.448 16 6C16 8.577 16 15.423 16 18ZM19 18C19 18.55 18.55 19 18 19C17.45 19 17 18.55 17 18C17 15.423 17 8.577 17 6C17 5.448 17.45 5 18 5C18.55 5 19 5.448 19 6C19 8.577 19 15.423 19 18ZM9 18C9 18.55 8.55 19 8 19C7.45 19 7 18.55 7 18C7 15.423 7 8.577 7 6C7 5.448 7.45 5 8 5C8.55 5 9 5.448 9 6C9 8.577 9 15.423 9 18ZM22 18C22 18.55 21.55 19 21 19C20.45 19 20 18.55 20 18C20 15.423 20 8.577 20 6C20 5.448 20.45 5 21 5C21.55 5 22 5.448 22 6C22 8.577 22 15.423 22 18ZM4 18C4 18.55 3.55 19 3 19C2.45 19 2 18.55 2 18C2 15.423 2 8.577 2 6C2 5.448 2.45 5 3 5C3.55 5 4 5.448 4 6C4 8.577 4 15.423 4 18Z" fill="black"/>
</svg>
