<svg width="24" height="24" viewBox="0 0 24 24" fill="none" xmlns="http://www.w3.org/2000/svg">
<path d="M16.86 8.58084C17.19 8.76284 17.3898 9.11682 17.3798 9.49582C17.3698 9.87382 17.1399 10.2128 16.7999 10.3698C13.5299 11.8558 6.99989 14.8219 6.99989 14.8219C6.99989 14.8219 6.99989 19.8698 6.99989 21.4998C6.99989 21.6298 6.94998 21.7598 6.84998 21.8498C6.75998 21.9498 6.62989 21.9998 6.49989 21.9998C6.36989 21.9998 6.23979 21.9498 6.14979 21.8498C6.04979 21.7598 5.99989 21.6298 5.99989 21.4998C5.99989 19.0798 5.99989 8.49783 5.99989 4.34183C5.99989 3.98883 6.18988 3.66284 6.48988 3.48184C6.78988 3.30184 7.16987 3.29484 7.47987 3.46384C9.81987 4.73984 14.36 7.21684 16.86 8.58084ZM6.99989 13.7229L16.3798 9.45883L6.99989 4.34183V13.7229Z" fill="black"/>
</svg>
