<svg width="24" height="24" viewBox="0 0 24 24" fill="none" xmlns="http://www.w3.org/2000/svg">
<path fill-rule="evenodd" clip-rule="evenodd" d="M21 13C21 17.97 16.97 22 12 22C7.03 22 3 17.97 3 13C3 9.037 3 4.863 3 3C3 2.735 3.11004 2.48003 3.29004 2.29303C3.48004 2.10503 3.74 2 4 2C5.33 2 7.67 2 9 2C9.26 2 9.51996 2.10503 9.70996 2.29303C9.88996 2.48003 10 2.735 10 3C10 5.136 10 10.179 10 13C10 14.105 10.89 15 12 15C13.11 15 14 14.105 14 13C14 10.179 14 5.136 14 3C14 2.735 14.11 2.48003 14.29 2.29303C14.48 2.10503 14.74 2 15 2C16.33 2 18.67 2 20 2C20.26 2 20.52 2.10503 20.71 2.29303C20.89 2.48003 21 2.735 21 3C21 4.863 21 9.037 21 13ZM8 9H5C5 9 5 10.368 5 13C5 16.87 8.13 20 12 20C15.87 20 19 16.87 19 13C19 10.368 19 9 19 9H16C16 9 16 10.596 16 13C16 15.209 14.21 17 12 17C9.79 17 8 15.209 8 13C8 10.596 8 9 8 9ZM16 4V7H19V4H16ZM5 4V7H8V4H5Z" fill="black"/>
<path fill-rule="evenodd" clip-rule="evenodd" d="M9 3H4V13V14H4.06189C4.55402 17.9463 7.92041 21 12 21C16.0796 21 19.446 17.9463 19.9381 14H20V13V3H15V5.58154V13C15 14.6567 13.6569 16 12 16C10.3431 16 9 14.6567 9 13V5.58154V3Z" fill="black" fill-opacity="0.1"/>
</svg>
