<svg width="24" height="24" viewBox="0 0 24 24" fill="none" xmlns="http://www.w3.org/2000/svg">
<path fill-rule="evenodd" clip-rule="evenodd" d="M5 3C5 2.44775 5.44775 2 6 2H7H17H18C18.5522 2 19 2.44775 19 3C19 3.55225 18.5522 4 18 4V8C18 8.21631 17.9298 8.427 17.8 8.6001L15.25 12L17.8 15.3999C17.9298 15.573 18 15.7837 18 16V20C18.5522 20 19 20.4478 19 21C19 21.5522 18.5522 22 18 22H17H7H6C5.44775 22 5 21.5522 5 21C5 20.4478 5.44775 20 6 20V16C6 15.9131 6.01135 15.8271 6.03333 15.7441C6.06604 15.6204 6.12231 15.5034 6.19995 15.3999L8.75 12L6.19995 8.6001C6.13171 8.50903 6.07996 8.40771 6.04614 8.30054C6.01575 8.20386 6 8.10254 6 8V4C5.44775 4 5 3.55225 5 3ZM8 20H16V16.3333L13.2 12.6001C12.9333 12.2444 12.9333 11.7556 13.2 11.3999L16 7.66675V4H8V7.66675L10.8 11.3999C11.0667 11.7556 11.0667 12.2444 10.8 12.6001L8 16.3333V20Z" fill="black"/>
<path d="M17 3H7V8L10 12L7 16V21H17V16L14 12L17 8V3Z" fill="black" fill-opacity="0.1"/>
</svg>
