<svg width="24" height="24" viewBox="0 0 24 24" fill="none" xmlns="http://www.w3.org/2000/svg">
<path fill-rule="evenodd" clip-rule="evenodd" d="M20.9949 4.99927C21.5449 4.99927 21.9949 5.44727 21.9949 5.99927C21.9949 8.57626 21.9949 15.4222 21.9949 17.9992C21.9949 18.5512 21.5449 18.9992 20.9949 18.9992C17.5849 18.9992 6.40487 18.9992 2.99487 18.9992C2.44287 18.9992 1.99487 18.5512 1.99487 17.9992C1.99487 15.4222 1.99487 8.57626 1.99487 5.99927C1.99487 5.44727 2.44287 4.99927 2.99487 4.99927C6.40487 4.99927 17.5849 4.99927 20.9949 4.99927ZM19.9949 6.99926H3.99487V16.9992H19.9949V6.99926Z" fill="#333333"/>
<path d="M3 18H2C2 18.5523 2.44772 19 3 19V18ZM3 6V5C2.44772 5 2 5.44772 2 6H3ZM21 6H22C22 5.44772 21.5523 5 21 5V6ZM21 18V19C21.5523 19 22 18.5523 22 18H21ZM4 18V6H2V18H4ZM3 7H21V5H3V7ZM20 6V18H22V6H20ZM21 17H3V19H21V17Z" fill="black"/>
<path d="M14.5 10.5H17.5M14.5 12.5H17.5" stroke="black" stroke-linecap="round"/>
<path d="M5.5 8.5V15.5H11.5V8.5H5.5Z" stroke="black" stroke-linejoin="round"/>
</svg>
