<svg width="24" height="24" viewBox="0 0 24 24" fill="none" xmlns="http://www.w3.org/2000/svg">
<path fill-rule="evenodd" clip-rule="evenodd" d="M15 4C15 4 18.2 4 19.48 4C19.77 4 20 4.23002 20 4.52002C20 4.79002 19.79 5 19.52 5C19.27 5 19 5 19 5C19 5 18.23 16.6499 18 20.0699C17.96 20.5899 17.53 21 17 21C14.78 21 9.22 21 7 21C6.47 21 6.04 20.5899 6 20.0699C5.77 16.6499 5 5 5 5C5 5 4.72998 5 4.47998 5C4.20998 5 4 4.79002 4 4.52002C4 4.38002 4.0599 4.25002 4.1499 4.15002C4.2499 4.06002 4.38002 4 4.52002 4C5.80002 4 9 4 9 4C9 4 9 3.5 9 3C9 2.45 9.45 2 10 2C11.11 2 12.89 2 14 2C14.55 2 15 2.45 15 3C15 3.5 15 4 15 4ZM6 5L7 20H17L18 5H6ZM11 16.99C11.01 17.25 10.81 17.48 10.54 17.5C10.26 17.51 10.02 17.3 10 17.02C9.91 15.3 9.6 9.73003 9.5 8.03003C9.49 7.75003 9.69997 7.52 9.96997 7.5C10.25 7.49 10.48 7.69997 10.5 7.96997C10.59 9.67997 10.91 15.3 11 16.99ZM14.03 7.5C14.3 7.52 14.51 7.75003 14.5 8.03003C14.41 9.73003 14.1 15.3 14 17.02C13.98 17.3 13.74 17.51 13.46 17.5C13.19 17.48 12.99 17.25 13 16.99C13.09 15.3 13.41 9.67997 13.5 7.96997C13.52 7.69997 13.75 7.49 14.03 7.5ZM10 3V4H14V3H10Z" fill="black"/>
<path d="M6 5L7 20H17L18 5H6Z" fill="black" fill-opacity="0.1"/>
</svg>
