<svg width="24" height="24" viewBox="0 0 24 24" fill="none" xmlns="http://www.w3.org/2000/svg">
<path fill-rule="evenodd" clip-rule="evenodd" d="M5 5V9H9V5H5ZM4 3C3.44772 3 3 3.44772 3 4V10C3 10.5523 3.44772 11 4 11H10C10.5523 11 11 10.5523 11 10V4C11 3.44772 10.5523 3 10 3H4Z" fill="black"/>
<path d="M8 7C8 7.55228 7.55228 8 7 8C6.44772 8 6 7.55228 6 7C6 6.44772 6.44772 6 7 6C7.55228 6 8 6.44772 8 7Z" fill="black"/>
<path fill-rule="evenodd" clip-rule="evenodd" d="M15 5V9H19V5H15ZM14 3C13.4477 3 13 3.44772 13 4V10C13 10.5523 13.4477 11 14 11H20C20.5523 11 21 10.5523 21 10V4C21 3.44772 20.5523 3 20 3H14Z" fill="black"/>
<path d="M18 7C18 7.55228 17.5523 8 17 8C16.4477 8 16 7.55228 16 7C16 6.44772 16.4477 6 17 6C17.5523 6 18 6.44772 18 7Z" fill="black"/>
<path fill-rule="evenodd" clip-rule="evenodd" d="M5 15V19H9V15H5ZM4 13C3.44772 13 3 13.4477 3 14V20C3 20.5523 3.44772 21 4 21H10C10.5523 21 11 20.5523 11 20V14C11 13.4477 10.5523 13 10 13H4Z" fill="black"/>
<path d="M8 17C8 17.5523 7.55228 18 7 18C6.44772 18 6 17.5523 6 17C6 16.4477 6.44772 16 7 16C7.55228 16 8 16.4477 8 17Z" fill="black"/>
<path d="M18 14C18 13.4477 17.5523 13 17 13H14C13.4477 13 13 13.4477 13 14V14C13 14.5523 13.4477 15 14 15H17C17.5523 15 18 14.5523 18 14V14Z" fill="black"/>
<path d="M21 14C21 13.4477 20.5523 13 20 13V13C19.4477 13 19 13.4477 19 14V17C19 17.5523 19.4477 18 20 18V18C20.5523 18 21 17.5523 21 17V14Z" fill="black"/>
<path d="M15 17C15 16.4477 14.5523 16 14 16V16C13.4477 16 13 16.4477 13 17V20C13 20.5523 13.4477 21 14 21V21C14.5523 21 15 20.5523 15 20V17Z" fill="black"/>
<path d="M18 17C18 16.4477 17.5523 16 17 16V16C16.4477 16 16 16.4477 16 17V20C16 20.5523 16.4477 21 17 21V21C17.5523 21 18 20.5523 18 20V17Z" fill="black"/>
<path d="M21 20C21 19.4477 20.5523 19 20 19H17C16.4477 19 16 19.4477 16 20V20C16 20.5523 16.4477 21 17 21H20C20.5523 21 21 20.5523 21 20V20Z" fill="black"/>
</svg>
