<svg width="24" height="24" viewBox="0 0 24 24" fill="none" xmlns="http://www.w3.org/2000/svg">
<rect width="22.222" height="22.222" fill="black" fill-opacity="0" transform="translate(2.00029 2) scale(0.899999)"/>
<path fill-rule="evenodd" clip-rule="evenodd" d="M21.083 2.0036L21.1649 2.0135L21.2459 2.0306L21.3251 2.054L21.4016 2.0837L21.4763 2.1206L21.5474 2.1629L21.6149 2.2106L21.6779 2.2646L21.7364 2.3222L21.7895 2.3861L21.8372 2.4527L21.8795 2.5238L21.9164 2.5985L21.9461 2.675L21.9695 2.7542L21.9866 2.8352L21.9965 2.9171L22.0001 2.9999V20.9999L21.9965 21.0827L21.9866 21.1646L21.9695 21.2456L21.9461 21.3248L21.9164 21.4013L21.8795 21.476L21.8372 21.5471L21.7895 21.6137L21.7364 21.6776L21.6779 21.7352L21.6149 21.7892L21.5474 21.8369L21.4763 21.8792L21.4016 21.9161L21.3251 21.9458L21.2459 21.9692L21.1649 21.9863L21.083 21.9962L21.0002 21.9998H3.00018L2.91739 21.9962L2.83548 21.9863L2.75449 21.9692L2.67529 21.9458L2.59878 21.9161L2.52408 21.8792L2.45298 21.8369L2.38638 21.7892L2.32338 21.7352L2.26488 21.6776L2.21088 21.6137L2.16319 21.5471L2.12088 21.476L2.08488 21.4013L2.05429 21.3248L2.03089 21.2456L2.01379 21.1646L2.00389 21.0827L2.00029 20.9999V2.9999L2.00389 2.9171L2.01379 2.8352L2.03089 2.7542L2.05429 2.675L2.08488 2.5985L2.12088 2.5238L2.16319 2.4527L2.21088 2.3861L2.26488 2.3222L2.32338 2.2646L2.38638 2.2106L2.45298 2.1629L2.52408 2.1206L2.59878 2.0837L2.67529 2.054L2.75449 2.0306L2.83548 2.0135L2.91739 2.0036L3.00018 2H21.0002L21.083 2.0036ZM3.00018 2.9999V20.9999H21.0002V2.9999H3.00018Z" fill="#333333"/>
<rect width="4.5" height="6" fill="black" fill-opacity="0" transform="translate(2.00482 1.99854) scale(1.33333 0.999998)"/>
<path fill-rule="evenodd" clip-rule="evenodd" d="M7.04348 1.99951L7.08352 2.00153L7.12218 2.00555L7.16083 2.01056L7.19949 2.01752L7.23814 2.02655L7.2768 2.03656L7.31415 2.04755L7.35151 2.06055L7.38748 2.07452L7.42353 2.09051L7.4582 2.10754L7.49286 2.12653L7.52753 2.14551L7.56082 2.16754L7.5928 2.18951L7.62348 2.21356L7.65416 2.23852L7.68346 2.26453L7.71153 2.29156L7.73953 2.31952L7.76484 2.34955L7.79015 2.37952L7.81415 2.41052L7.83686 2.4425L7.8568 2.47656L7.87682 2.50952L7.89553 2.54455L7.91287 2.57953L7.92882 2.61554L7.94347 2.65253L7.95551 2.68951L7.96747 2.72754L7.97683 2.76556L7.98619 2.80353L7.99287 2.84253L7.99816 2.88055L8.00214 2.92053L8.00353 2.95953L8.00483 2.99853V6.99853L8.00353 7.03753L8.00214 7.07653L7.99816 7.11651L7.99287 7.15453L7.98619 7.19353L7.97683 7.2315L7.96747 7.26952L7.95551 7.30755L7.94347 7.34453L7.92882 7.38152L7.91287 7.41753L7.89553 7.4525L7.87682 7.48754L7.8568 7.5205L7.83686 7.55455L7.81415 7.58654L7.79015 7.61754L7.76484 7.64751L7.73953 7.67754L7.71153 7.70549L7.68346 7.73253L7.65416 7.75853L7.62348 7.7835L7.5928 7.80754L7.56082 7.82952L7.52753 7.85155L7.49286 7.87053L7.4582 7.88951L7.42353 7.90654L7.38748 7.92253L7.35151 7.93651L7.31415 7.94951L7.2768 7.9605L7.23814 7.97051L7.19949 7.97954L7.16083 7.9865L7.12218 7.9915L7.08352 7.99553L7.04348 7.99755L7.00483 7.99852H3.00482L2.96617 7.99755L2.92613 7.99553L2.88747 7.9915L2.84882 7.9865L2.81016 7.97954L2.77151 7.97051L2.73285 7.9605L2.6955 7.94951L2.65814 7.93651L2.62217 7.92253L2.58612 7.90654L2.55145 7.88951L2.51679 7.87053L2.48212 7.85155L2.44883 7.82952L2.41685 7.80754L2.38617 7.7835L2.35549 7.75853L2.32619 7.73253L2.29812 7.70549L2.27012 7.67754L2.24481 7.64751L2.2195 7.61754L2.1955 7.58654L2.17279 7.55455L2.15285 7.5205L2.13283 7.48754L2.11412 7.4525L2.09678 7.41753L2.08083 7.38152L2.06618 7.34453L2.05414 7.30755L2.04218 7.26952L2.03282 7.2315L2.02346 7.19353L2.01678 7.15453L2.01149 7.11651L2.00751 7.07653L2.00612 7.03753L2.00482 6.99853V2.99853L2.00612 2.95953L2.00751 2.92053L2.01149 2.88055L2.01678 2.84253L2.02346 2.80353L2.03282 2.76556L2.04218 2.72754L2.05414 2.68951L2.06618 2.65253L2.08083 2.61554L2.09678 2.57953L2.11412 2.54455L2.13283 2.50952L2.15285 2.47656L2.17279 2.4425L2.1955 2.41052L2.2195 2.37952L2.24481 2.34955L2.27012 2.31952L2.29812 2.29156L2.32619 2.26453L2.35549 2.23852L2.38617 2.21356L2.41685 2.18951L2.44883 2.16754L2.48212 2.14551L2.51679 2.12653L2.55145 2.10754L2.58612 2.09051L2.62217 2.07452L2.65814 2.06055L2.6955 2.04755L2.73285 2.03656L2.77151 2.02655L2.81016 2.01752L2.84882 2.01056L2.88747 2.00555L2.92613 2.00153L2.96617 1.99951L3.00482 1.99854H7.00483L7.04348 1.99951ZM3.00482 2.99853V6.99853H7.00483V2.99853H3.00482Z" fill="#333333"/>
<rect width="4.5" height="6" fill="black" fill-opacity="0" transform="translate(16.0022 1.99854) scale(1.33333 0.999998)"/>
<path fill-rule="evenodd" clip-rule="evenodd" d="M21.0409 1.99951L21.0809 2.00153L21.1196 2.00555L21.1583 2.01056L21.1969 2.01752L21.2356 2.02655L21.2742 2.03656L21.3116 2.04755L21.3489 2.06055L21.3849 2.07452L21.421 2.09051L21.4556 2.10754L21.4903 2.12653L21.525 2.14551L21.5582 2.16754L21.5902 2.18951L21.6209 2.21356L21.6516 2.23852L21.6809 2.26453L21.709 2.29156L21.7369 2.31952L21.7623 2.34955L21.7876 2.37952L21.8116 2.41052L21.8343 2.4425L21.8542 2.47656L21.8742 2.50952L21.893 2.54455L21.9103 2.57953L21.9262 2.61554L21.9409 2.65253L21.9529 2.68951L21.9649 2.72754L21.9743 2.76556L21.9836 2.80353L21.9903 2.84253L21.9956 2.88055L21.9996 2.92053L22.0009 2.95953L22.0022 2.99853V6.99853L22.0009 7.03753L21.9996 7.07653L21.9956 7.11651L21.9903 7.15453L21.9836 7.19353L21.9743 7.2315L21.9649 7.26952L21.9529 7.30755L21.9409 7.34453L21.9262 7.38152L21.9103 7.41753L21.893 7.4525L21.8742 7.48754L21.8542 7.5205L21.8343 7.55455L21.8116 7.58654L21.7876 7.61754L21.7623 7.64751L21.7369 7.67754L21.709 7.70549L21.6809 7.73253L21.6516 7.75853L21.6209 7.7835L21.5902 7.80754L21.5582 7.82952L21.525 7.85155L21.4903 7.87053L21.4556 7.88951L21.421 7.90654L21.3849 7.92253L21.3489 7.93651L21.3116 7.94951L21.2742 7.9605L21.2356 7.97051L21.1969 7.97954L21.1583 7.9865L21.1196 7.9915L21.0809 7.99553L21.0409 7.99755L21.0022 7.99852H17.0022L16.9636 7.99755L16.9235 7.99553L16.8849 7.9915L16.8462 7.9865L16.8076 7.97954L16.7689 7.97051L16.7303 7.9605L16.6929 7.94951L16.6556 7.93651L16.6196 7.92253L16.5835 7.90654L16.5489 7.88951L16.5142 7.87053L16.4795 7.85155L16.4463 7.82952L16.4143 7.80754L16.3836 7.7835L16.3529 7.75853L16.3236 7.73253L16.2955 7.70549L16.2675 7.67754L16.2422 7.64751L16.2169 7.61754L16.1929 7.58654L16.1702 7.55455L16.1503 7.5205L16.1303 7.48754L16.1115 7.4525L16.0942 7.41753L16.0783 7.38152L16.0636 7.34453L16.0516 7.30755L16.0396 7.26952L16.0302 7.2315L16.0209 7.19353L16.0142 7.15453L16.0089 7.11651L16.0049 7.07653L16.0035 7.03753L16.0022 6.99853V2.99853L16.0035 2.95953L16.0049 2.92053L16.0089 2.88055L16.0142 2.84253L16.0209 2.80353L16.0302 2.76556L16.0396 2.72754L16.0516 2.68951L16.0636 2.65253L16.0783 2.61554L16.0942 2.57953L16.1115 2.54455L16.1303 2.50952L16.1503 2.47656L16.1702 2.4425L16.1929 2.41052L16.2169 2.37952L16.2422 2.34955L16.2675 2.31952L16.2955 2.29156L16.3236 2.26453L16.3529 2.23852L16.3836 2.21356L16.4143 2.18951L16.4463 2.16754L16.4795 2.14551L16.5142 2.12653L16.5489 2.10754L16.5835 2.09051L16.6196 2.07452L16.6556 2.06055L16.6929 2.04755L16.7303 2.03656L16.7689 2.02655L16.8076 2.01752L16.8462 2.01056L16.8849 2.00555L16.9235 2.00153L16.9636 1.99951L17.0022 1.99854H21.0022L21.0409 1.99951ZM17.0022 2.99853V6.99853H21.0022V2.99853H17.0022Z" fill="#333333"/>
<rect width="4.5" height="6" fill="black" fill-opacity="0" transform="translate(2.00482 15.9985) scale(1.33333 0.999998)"/>
<path fill-rule="evenodd" clip-rule="evenodd" d="M7.04348 15.9995L7.08352 16.0015L7.12218 16.0056L7.16083 16.0106L7.19949 16.0175L7.23814 16.0266L7.2768 16.0366L7.31415 16.0475L7.35151 16.0605L7.38748 16.0745L7.42353 16.0905L7.4582 16.1075L7.49286 16.1265L7.52753 16.1455L7.56082 16.1675L7.5928 16.1895L7.62348 16.2136L7.65416 16.2385L7.68346 16.2645L7.71153 16.2916L7.73953 16.3195L7.76484 16.3495L7.79015 16.3795L7.81415 16.4105L7.83686 16.4425L7.8568 16.4766L7.87682 16.5095L7.89553 16.5446L7.91287 16.5795L7.92882 16.6155L7.94347 16.6525L7.95551 16.6895L7.96747 16.7275L7.97683 16.7656L7.98619 16.8035L7.99287 16.8425L7.99816 16.8806L8.00214 16.9205L8.00353 16.9595L8.00483 16.9985V20.9985L8.00353 21.0375L8.00214 21.0765L7.99816 21.1165L7.99287 21.1545L7.98619 21.1935L7.97683 21.2315L7.96747 21.2695L7.95551 21.3075L7.94347 21.3445L7.92882 21.3815L7.91287 21.4175L7.89553 21.4525L7.87682 21.4875L7.8568 21.5205L7.83686 21.5546L7.81415 21.5865L7.79015 21.6175L7.76484 21.6475L7.73953 21.6775L7.71153 21.7055L7.68346 21.7325L7.65416 21.7585L7.62348 21.7835L7.5928 21.8075L7.56082 21.8295L7.52753 21.8516L7.49286 21.8705L7.4582 21.8895L7.42353 21.9065L7.38748 21.9225L7.35151 21.9365L7.31415 21.9495L7.2768 21.9605L7.23814 21.9705L7.19949 21.9795L7.16083 21.9865L7.12218 21.9915L7.08352 21.9955L7.04348 21.9975L7.00483 21.9985H3.00482L2.96617 21.9975L2.92613 21.9955L2.88747 21.9915L2.84882 21.9865L2.81016 21.9795L2.77151 21.9705L2.73285 21.9605L2.6955 21.9495L2.65814 21.9365L2.62217 21.9225L2.58612 21.9065L2.55145 21.8895L2.51679 21.8705L2.48212 21.8516L2.44883 21.8295L2.41685 21.8075L2.38617 21.7835L2.35549 21.7585L2.32619 21.7325L2.29812 21.7055L2.27012 21.6775L2.24481 21.6475L2.2195 21.6175L2.1955 21.5865L2.17279 21.5546L2.15285 21.5205L2.13283 21.4875L2.11412 21.4525L2.09678 21.4175L2.08083 21.3815L2.06618 21.3445L2.05414 21.3075L2.04218 21.2695L2.03282 21.2315L2.02346 21.1935L2.01678 21.1545L2.01149 21.1165L2.00751 21.0765L2.00612 21.0375L2.00482 20.9985V16.9985L2.00612 16.9595L2.00751 16.9205L2.01149 16.8806L2.01678 16.8425L2.02346 16.8035L2.03282 16.7656L2.04218 16.7275L2.05414 16.6895L2.06618 16.6525L2.08083 16.6155L2.09678 16.5795L2.11412 16.5446L2.13283 16.5095L2.15285 16.4766L2.17279 16.4425L2.1955 16.4105L2.2195 16.3795L2.24481 16.3495L2.27012 16.3195L2.29812 16.2916L2.32619 16.2645L2.35549 16.2385L2.38617 16.2136L2.41685 16.1895L2.44883 16.1675L2.48212 16.1455L2.51679 16.1265L2.55145 16.1075L2.58612 16.0905L2.62217 16.0745L2.65814 16.0605L2.6955 16.0475L2.73285 16.0366L2.77151 16.0266L2.81016 16.0175L2.84882 16.0106L2.88747 16.0056L2.92613 16.0015L2.96617 15.9995L3.00482 15.9985H7.00483L7.04348 15.9995ZM3.00482 16.9985V20.9985H7.00483V16.9985H3.00482Z" fill="#333333"/>
<rect width="19.9876" height="16.2445" fill="black" fill-opacity="0" transform="translate(3.99553 3.99854) scale(0.800768 0.984948)"/>
<rect width="1" height="1" fill="black" fill-opacity="0" transform="translate(3.99553 3.99854) scale(2)"/>
<path d="M4.99553 5.99853C5.54781 5.99853 5.99553 5.55082 5.99553 4.99853C5.99553 4.44625 5.54781 3.99854 4.99553 3.99854C4.44324 3.99854 3.99553 4.44625 3.99553 4.99853C3.99553 5.55082 4.44324 5.99853 4.99553 5.99853Z" fill="#333333"/>
<rect width="1" height="1" fill="black" fill-opacity="0" transform="translate(18.001 3.99854) scale(2)"/>
<path d="M19.001 5.99853C19.5532 5.99853 20.001 5.55082 20.001 4.99853C20.001 4.44625 19.5532 3.99854 19.001 3.99854C18.4487 3.99854 18.001 4.44625 18.001 4.99853C18.001 5.55082 18.4487 5.99853 19.001 5.99853Z" fill="#333333"/>
<rect width="1" height="1" fill="black" fill-opacity="0" transform="translate(3.99553 17.9949) scale(2)"/>
<path d="M4.99553 19.9949C5.54781 19.9949 5.99553 19.5472 5.99553 18.9949C5.99553 18.4426 5.54781 17.9949 4.99553 17.9949C4.44324 17.9949 3.99553 18.4426 3.99553 18.9949C3.99553 19.5472 4.44324 19.9949 4.99553 19.9949Z" fill="#333333"/>
<rect width="6" height="6" fill="black" fill-opacity="0" transform="translate(9.99986 10.0002) scale(0.666667)"/>
<path fill-rule="evenodd" clip-rule="evenodd" d="M13.0279 10.0009L13.0559 10.0016L13.0838 10.0036L13.1119 10.0062L13.1399 10.0103L13.1672 10.0142L13.1952 10.0196L13.2225 10.0256L13.2499 10.0322L13.2765 10.0396L13.3039 10.0476L13.3299 10.0562L13.3565 10.0662L13.3825 10.0763L13.4085 10.0876L13.4339 10.0996L13.4585 10.1116L13.4839 10.1249L13.5079 10.1389L13.5318 10.1536L13.5552 10.1689L13.5785 10.1849L13.6012 10.2009L13.6232 10.2183L13.6452 10.2362L13.6665 10.2549L13.6865 10.2736L13.7072 10.2929L13.7265 10.3136L13.7452 10.3336L13.7639 10.3549L13.7818 10.3769L13.7992 10.3989L13.8152 10.4216L13.8312 10.4449L13.8465 10.4683L13.8612 10.4922L13.8752 10.5162L13.8885 10.5416L13.9005 10.5662L13.9125 10.5916L13.9239 10.6176L13.9339 10.6436L13.9439 10.6702L13.9525 10.6962L13.9605 10.7236L13.9679 10.7502L13.9745 10.7776L13.9805 10.8049L13.9859 10.8329L13.9899 10.8602L13.9939 10.8882L13.9965 10.9163L13.9985 10.9443L13.9992 10.9722L13.9999 11.0002V13.0002L13.9992 13.0282L13.9985 13.0562L13.9965 13.0842L13.9939 13.1123L13.9899 13.1403L13.9859 13.1676L13.9805 13.1956L13.9745 13.2229L13.9679 13.2502L13.9605 13.2769L13.9525 13.3042L13.9439 13.3302L13.9339 13.3569L13.9239 13.3829L13.9125 13.4089L13.9005 13.4342L13.8885 13.4589L13.8752 13.4843L13.8612 13.5083L13.8465 13.5322L13.8312 13.5556L13.8152 13.5789L13.7992 13.6016L13.7818 13.6236L13.7639 13.6456L13.7452 13.6669L13.7265 13.6869L13.7072 13.7076L13.6865 13.7269L13.6665 13.7456L13.6452 13.7642L13.6232 13.7822L13.6012 13.7996L13.5785 13.8156L13.5552 13.8316L13.5318 13.8469L13.5079 13.8616L13.4839 13.8756L13.4585 13.8889L13.4339 13.9009L13.4085 13.9129L13.3825 13.9242L13.3565 13.9342L13.3299 13.9443L13.3039 13.9529L13.2765 13.9609L13.2499 13.9683L13.2225 13.9749L13.1952 13.9809L13.1672 13.9862L13.1399 13.9902L13.1119 13.9943L13.0838 13.9969L13.0559 13.9989L13.0279 13.9996L12.9999 14.0002H10.9999L10.9719 13.9996L10.9439 13.9989L10.9159 13.9969L10.8878 13.9943L10.8598 13.9902L10.8325 13.9862L10.8045 13.9809L10.7772 13.9749L10.7499 13.9683L10.7232 13.9609L10.6959 13.9529L10.6699 13.9443L10.6432 13.9342L10.6172 13.9242L10.5912 13.9129L10.5659 13.9009L10.5412 13.8889L10.5159 13.8756L10.4918 13.8616L10.4679 13.8469L10.4445 13.8316L10.4212 13.8156L10.3985 13.7996L10.3765 13.7822L10.3545 13.7642L10.3332 13.7456L10.3132 13.7269L10.2925 13.7076L10.2732 13.6869L10.2545 13.6669L10.2359 13.6456L10.2179 13.6236L10.2005 13.6016L10.1845 13.5789L10.1685 13.5556L10.1532 13.5322L10.1385 13.5083L10.1245 13.4843L10.1112 13.4589L10.0992 13.4342L10.0872 13.4089L10.0759 13.3829L10.0659 13.3569L10.0559 13.3302L10.0472 13.3042L10.0392 13.2769L10.0318 13.2502L10.0252 13.2229L10.0192 13.1956L10.0139 13.1676L10.0099 13.1403L10.0058 13.1123L10.0032 13.0842L10.0012 13.0562L10.0005 13.0282L9.99986 13.0002V11.0002L10.0005 10.9722L10.0012 10.9443L10.0032 10.9163L10.0058 10.8882L10.0099 10.8602L10.0139 10.8329L10.0192 10.8049L10.0252 10.7776L10.0318 10.7502L10.0392 10.7236L10.0472 10.6962L10.0559 10.6702L10.0659 10.6436L10.0759 10.6176L10.0872 10.5916L10.0992 10.5662L10.1112 10.5416L10.1245 10.5162L10.1385 10.4922L10.1532 10.4683L10.1685 10.4449L10.1845 10.4216L10.2005 10.3989L10.2179 10.3769L10.2359 10.3549L10.2545 10.3336L10.2732 10.3136L10.2925 10.2929L10.3132 10.2736L10.3332 10.2549L10.3545 10.2362L10.3765 10.2183L10.3985 10.2009L10.4212 10.1849L10.4445 10.1689L10.4679 10.1536L10.4918 10.1389L10.5159 10.1249L10.5412 10.1116L10.5659 10.0996L10.5912 10.0876L10.6172 10.0763L10.6432 10.0662L10.6699 10.0562L10.6959 10.0476L10.7232 10.0396L10.7499 10.0322L10.7772 10.0256L10.8045 10.0196L10.8325 10.0142L10.8598 10.0103L10.8878 10.0062L10.9159 10.0036L10.9439 10.0016L10.9719 10.0009L10.9999 10.0002H12.9999L13.0279 10.0009ZM10.9999 11.0002V13.0002H12.9999V11.0002H10.9999Z" fill="#333333"/>
<rect width="1" height="3" fill="black" fill-opacity="0" transform="translate(8 10.9985)"/>
<path fill-rule="evenodd" clip-rule="evenodd" d="M9 11.4985C9 11.3655 8.94997 11.2385 8.84997 11.1445C8.75997 11.0515 8.63 10.9985 8.5 10.9985C8.37 10.9985 8.24002 11.0515 8.15002 11.1445C8.05002 11.2385 8 11.3655 8 11.4985C8 12.0535 8 12.9435 8 13.4985C8 13.6315 8.05002 13.7585 8.15002 13.8525C8.24002 13.9455 8.37 13.9985 8.5 13.9985C8.63 13.9985 8.75997 13.9455 8.84997 13.8525C8.94997 13.7585 9 13.6315 9 13.4985C9 12.9435 9 12.0535 9 11.4985Z" fill="#333333"/>
<rect width="3" height="4" fill="black" fill-opacity="0" transform="translate(4 10.9985)"/>
<path fill-rule="evenodd" clip-rule="evenodd" d="M4 13.4985C4 13.3655 4.05002 13.2385 4.15002 13.1445C4.24002 13.0515 4.37 12.9985 4.5 12.9985C4.75 12.9985 5 12.9985 5 12.9985C5 12.9985 5 12.0905 5 11.4985C5 11.3655 5.05002 11.2385 5.15002 11.1445C5.24002 11.0515 5.37 10.9985 5.5 10.9985C5.78 10.9985 6 11.2225 6 11.4985C6 11.7485 6 11.9985 6 11.9985C6 11.9985 6.25 11.9985 6.5 11.9985C6.78 11.9985 7 12.2225 7 12.4985C7 12.7745 6.78 12.9985 6.5 12.9985C6.25 12.9985 6 12.9985 6 12.9985C6 12.9985 6 13.9065 6 14.4985C6 14.6315 5.94998 14.7585 5.85998 14.8525C5.75998 14.9455 5.64 14.9985 5.5 14.9985C5.2 14.9985 4.81 14.9985 4.5 14.9985C4.37 14.9985 4.24002 14.9455 4.15002 14.8525C4.05002 14.7585 4 14.6315 4 14.4985C4 14.1935 4 13.8035 4 13.4985Z" fill="#333333"/>
<rect width="1" height="1" fill="black" fill-opacity="0" transform="translate(7 13.9985)"/>
<path fill-rule="evenodd" clip-rule="evenodd" d="M8 14.4965C8 14.2215 7.77 13.9985 7.5 13.9985C7.22 13.9985 7 14.2215 7 14.4965C7 14.4975 7 14.4995 7 14.5005C7 14.7755 7.22 14.9985 7.5 14.9985C7.77 14.9985 8 14.7755 8 14.5005C8 14.4995 8 14.4975 8 14.4965Z" fill="#333333"/>
<rect width="3" height="5" fill="black" fill-opacity="0" transform="translate(12 3.99854)"/>
<path fill-rule="evenodd" clip-rule="evenodd" d="M12 5.49853C12 5.22253 12.23 4.99853 12.5 4.99853C13.09 4.99853 14 4.99853 14 4.99853C14 4.99853 14 4.74853 14 4.49853C14 4.36553 14.05 4.23853 14.15 4.14453C14.24 4.05153 14.37 3.99854 14.5 3.99854C14.63 3.99854 14.76 4.05153 14.85 4.14453C14.95 4.23853 15 4.36553 15 4.49853C15 5.45653 15 7.54053 15 8.49853C15 8.63153 14.95 8.75853 14.85 8.85253C14.76 8.94553 14.63 8.99853 14.5 8.99853C14.22 8.99853 14 8.77453 14 8.49853C14 8.24853 14 7.99853 14 7.99853C14 7.99853 13.75 7.99853 13.5 7.99853C13.37 7.99853 13.24 7.94553 13.15 7.85253C13.05 7.75853 13 7.63153 13 7.49853C13 6.90653 13 5.99853 13 5.99853C13 5.99853 12.75 5.99853 12.5 5.99853C12.23 5.99853 12 5.77453 12 5.49853Z" fill="#333333"/>
<rect width="5" height="2" fill="black" fill-opacity="0" transform="translate(4 8.99854)"/>
<path fill-rule="evenodd" clip-rule="evenodd" d="M4 9.49853C4 9.36553 4.05002 9.23853 4.15002 9.14453C4.24002 9.05153 4.37 8.99854 4.5 8.99854H8.5C8.63 8.99854 8.75997 9.05153 8.84997 9.14453C8.94997 9.23853 9 9.36553 9 9.49853C9 9.77453 8.78 9.99853 8.5 9.99853C8.25 9.99853 8 9.99853 8 9.99853C8 9.99853 8 10.2485 8 10.4985C8 10.6315 7.94997 10.7585 7.84997 10.8525C7.75997 10.9455 7.63 10.9985 7.5 10.9985C7.19 10.9985 6.81 10.9985 6.5 10.9985C6.37 10.9985 6.24002 10.9455 6.15002 10.8525C6.05002 10.7585 6 10.6315 6 10.4985C6 10.2485 6 9.99853 6 9.99853C6 9.99853 5.09 9.99853 4.5 9.99853C4.37 9.99853 4.24002 9.94554 4.15002 9.85254C4.05002 9.75854 4 9.63153 4 9.49853Z" fill="#333333"/>
<rect width="1" height="1" fill="black" fill-opacity="0" transform="translate(9 7.99854)"/>
<path fill-rule="evenodd" clip-rule="evenodd" d="M10 8.49756C10 8.22156 9.78 7.99854 9.5 7.99854C9.22 7.99854 9 8.22156 9 8.49756C9 8.49856 9 8.49851 9 8.49951C9 8.77551 9.22 8.99853 9.5 8.99853C9.78 8.99853 10 8.77551 10 8.49951C10 8.49851 10 8.49856 10 8.49756Z" fill="#333333"/>
<rect width="1" height="1" fill="black" fill-opacity="0" transform="translate(14 18.9985)"/>
<path fill-rule="evenodd" clip-rule="evenodd" d="M15 19.4976C15 19.2216 14.78 18.9985 14.5 18.9985C14.22 18.9985 14 19.2216 14 19.4976C14 19.4986 14 19.4985 14 19.4995C14 19.7755 14.22 19.9985 14.5 19.9985C14.78 19.9985 15 19.7755 15 19.4995C15 19.4985 15 19.4986 15 19.4976Z" fill="#333333"/>
<rect width="2" height="1" fill="black" fill-opacity="0" transform="translate(17 8.9978)"/>
<path fill-rule="evenodd" clip-rule="evenodd" d="M19 9.49683C19 9.22083 18.77 8.9978 18.5 8.9978C18.19 8.9978 17.8 8.9978 17.5 8.9978C17.22 8.9978 17 9.22083 17 9.49683C17 9.49783 17 9.49778 17 9.49878C17 9.77478 17.22 9.9978 17.5 9.9978C17.8 9.9978 18.19 9.9978 18.5 9.9978C18.77 9.9978 19 9.77478 19 9.49878C19 9.49778 19 9.49783 19 9.49683Z" fill="#333333"/>
<rect width="1" height="1" fill="black" fill-opacity="0" transform="translate(15 9.99854)"/>
<path fill-rule="evenodd" clip-rule="evenodd" d="M16 10.4976C16 10.2216 15.77 9.99854 15.5 9.99854C15.22 9.99854 15 10.2216 15 10.4976C15 10.4986 15 10.4985 15 10.4995C15 10.7755 15.22 10.9985 15.5 10.9985C15.77 10.9985 16 10.7755 16 10.4995C16 10.4985 16 10.4986 16 10.4976Z" fill="#333333"/>
<rect width="2.5" height="1" fill="black" fill-opacity="0" transform="translate(16 10.9985)"/>
<path fill-rule="evenodd" clip-rule="evenodd" d="M18.5 11.4976C18.5 11.2216 18.28 10.9985 18 10.9985C17.56 10.9985 16.93 10.9985 16.5 10.9985C16.22 10.9985 16 11.2216 16 11.4976C16 11.4986 16 11.4985 16 11.4995C16 11.7755 16.22 11.9985 16.5 11.9985C16.93 11.9985 17.56 11.9985 18 11.9985C18.28 11.9985 18.5 11.7755 18.5 11.4995C18.5 11.4985 18.5 11.4986 18.5 11.4976Z" fill="#333333"/>
<rect width="3.5" height="1" fill="black" fill-opacity="0" transform="translate(15.9954 18.9985) scale(1.14286 0.999998)"/>
<path fill-rule="evenodd" clip-rule="evenodd" d="M19.9954 19.4976C19.9954 19.2216 19.7783 18.9985 19.4926 18.9985C18.7269 18.9985 17.2639 18.9985 16.4982 18.9985C16.2125 18.9985 15.9954 19.2216 15.9954 19.4976C15.9954 19.4986 15.9954 19.4985 15.9954 19.4995C15.9954 19.7755 16.2125 19.9985 16.4982 19.9985C17.2639 19.9985 18.7269 19.9985 19.4926 19.9985C19.7783 19.9985 19.9954 19.7755 19.9954 19.4995C19.9954 19.4985 19.9954 19.4986 19.9954 19.4976Z" fill="#333333"/>
<rect width="2" height="3" fill="black" fill-opacity="0" transform="translate(18 14.9985)"/>
<path fill-rule="evenodd" clip-rule="evenodd" d="M18 16.4985C18 16.2225 18.22 15.9985 18.5 15.9985H19C19 15.9985 19 15.7485 19 15.4985C19 15.2225 19.22 14.9985 19.5 14.9985C19.78 14.9985 20 15.2225 20 15.4985V16.4985C20 16.6315 19.95 16.7585 19.85 16.8525C19.76 16.9455 19.63 16.9985 19.5 16.9985C19.25 16.9985 19 16.9985 19 16.9985C19 16.9985 19 17.2495 19 17.4995C19 17.7755 18.78 17.9985 18.5 17.9985C18.22 17.9985 18 17.7755 18 17.4995C18 17.2495 18 16.9985 18 16.9985C18 16.9985 18 16.7485 18 16.4985Z" fill="#333333"/>
<rect width="1" height="1" fill="black" fill-opacity="0" transform="translate(9 18.9985)"/>
<path fill-rule="evenodd" clip-rule="evenodd" d="M10 19.4976C10 19.2216 9.78 18.9985 9.5 18.9985C9.22 18.9985 9 19.2216 9 19.4976C9 19.4986 9 19.4985 9 19.4995C9 19.7755 9.22 19.9985 9.5 19.9985C9.78 19.9985 10 19.7755 10 19.4995C10 19.4985 10 19.4986 10 19.4976Z" fill="#333333"/>
<rect width="3" height="2" fill="black" fill-opacity="0" transform="translate(13 14.9985)"/>
<path fill-rule="evenodd" clip-rule="evenodd" d="M13 16.4985C13 16.2225 13.22 15.9985 13.5 15.9985C13.75 15.9985 14 15.9985 14 15.9985C14 15.9985 14 15.7485 14 15.4985C14 15.3655 14.05 15.2385 14.15 15.1445C14.24 15.0515 14.37 14.9985 14.5 14.9985C14.81 14.9985 15.19 14.9985 15.5 14.9985C15.63 14.9985 15.76 15.0515 15.85 15.1445C15.95 15.2385 16 15.3655 16 15.4985C16 15.7745 15.78 15.9985 15.5 15.9985C15.25 15.9985 15 15.9985 15 15.9985C15 15.9985 15 16.2485 15 16.4985C15 16.6315 14.95 16.7585 14.85 16.8525C14.76 16.9455 14.63 16.9985 14.5 16.9985C14.25 16.9985 14 16.9985 14 16.9985C14 16.9985 13.75 16.9985 13.5 16.9985C13.22 16.9985 13 16.7745 13 16.4985Z" fill="#333333"/>
<rect width="4" height="4" fill="black" fill-opacity="0" transform="translate(9 14.9985)"/>
<path fill-rule="evenodd" clip-rule="evenodd" d="M9 16.4985C9 16.3655 9.05002 16.2385 9.15002 16.1445C9.24002 16.0515 9.37 15.9985 9.5 15.9985C9.75 15.9985 10 15.9985 10 15.9985C10 15.9985 10 15.7485 10 15.4985C10 15.2225 10.22 14.9985 10.5 14.9985C10.78 14.9985 11 15.2225 11 15.4985C11 15.7485 11 15.9985 11 15.9985C11 15.9985 11.25 15.9985 11.5 15.9985C11.63 15.9985 11.76 16.0515 11.85 16.1445C11.95 16.2385 12 16.3655 12 16.4985C12 17.0905 12 17.9985 12 17.9985C12 17.9985 12.25 17.9985 12.5 17.9985C12.63 17.9985 12.76 18.0515 12.85 18.1445C12.95 18.2385 13 18.3655 13 18.4985C13 18.7745 12.78 18.9985 12.5 18.9985C12.25 18.9985 12 18.9985 12 18.9985C12 18.9985 11.75 18.9985 11.5 18.9985C11.37 18.9985 11.24 18.9455 11.15 18.8525C11.05 18.7585 11 18.6315 11 18.4985C11 18.2485 11 17.9985 11 17.9985C11 17.9985 10.09 17.9985 9.5 17.9985C9.37 17.9985 9.24002 17.9455 9.15002 17.8525C9.05002 17.7585 9 17.6315 9 17.4985C9 17.1935 9 16.8035 9 16.4985Z" fill="#333333"/>
<rect width="3" height="3" fill="black" fill-opacity="0" transform="translate(16 12.9985)"/>
<path fill-rule="evenodd" clip-rule="evenodd" d="M16 13.4985C16 13.2225 16.22 12.9985 16.5 12.9985H18.5C18.63 12.9985 18.76 13.0515 18.85 13.1445C18.95 13.2385 19 13.3655 19 13.4985C19 13.8035 19 14.1935 19 14.4985C19 14.6315 18.95 14.7585 18.85 14.8525C18.76 14.9455 18.63 14.9985 18.5 14.9985H18C18 14.9985 18 15.2485 18 15.4985C18 15.6315 17.95 15.7585 17.85 15.8525C17.76 15.9455 17.63 15.9985 17.5 15.9985C17.37 15.9985 17.24 15.9455 17.15 15.8525C17.05 15.7585 17 15.6315 17 15.4985C17 14.9065 17 13.9985 17 13.9985C17 13.9985 16.75 13.9985 16.5 13.9985C16.22 13.9985 16 13.7745 16 13.4985Z" fill="#333333"/>
<rect width="3" height="4" fill="black" fill-opacity="0" transform="translate(9 3.99854)"/>
<path fill-rule="evenodd" clip-rule="evenodd" d="M9 4.49853C9 4.22253 9.22 3.99854 9.5 3.99854C10.06 3.99854 10.95 3.99854 11.5 3.99854C11.78 3.99854 12 4.22253 12 4.49853C12 4.77453 11.78 4.99853 11.5 4.99853C11.25 4.99853 11 4.99853 11 4.99853V5.99853C11 5.99853 11.25 5.99853 11.5 5.99853C11.78 5.99853 12 6.22253 12 6.49853C12 6.77453 11.78 6.99853 11.5 6.99853C11.25 6.99853 11 6.99853 11 6.99853C11 6.99853 11 7.25753 11 7.51153C11 7.64053 10.95 7.76452 10.86 7.85552C10.77 7.94752 10.64 7.99853 10.51 7.99853C10.23 7.99853 10 7.7695 10 7.4865C10 6.62951 10 4.99853 10 4.99853C10 4.99853 9.75 4.99853 9.5 4.99853C9.22 4.99853 9 4.77453 9 4.49853Z" fill="#333333"/>
</svg>
