<svg width="24" height="24" viewBox="0 0 24 24" fill="none" xmlns="http://www.w3.org/2000/svg">
<path fill-rule="evenodd" clip-rule="evenodd" d="M19.08 7.00299L19.16 7.01202L19.23 7.02802L19.3101 7.04901L19.38 7.07599L19.45 7.10901L19.52 7.14697L19.59 7.19098L19.65 7.23999L19.71 7.29303L19.76 7.35101L19.8101 7.41199L19.85 7.47803L19.89 7.54602L19.92 7.617L19.95 7.69098L19.97 7.76703L19.99 7.84399L20 7.922V8V16V16.08L19.99 16.16L19.97 16.23L19.95 16.31L19.92 16.38L19.89 16.45L19.85 16.52L19.8101 16.59L19.76 16.65L19.71 16.71L19.65 16.76L19.59 16.81L19.52 16.85L19.45 16.89L19.38 16.92L19.3101 16.95L19.23 16.97L19.16 16.99L19.08 17H19H3H2.92004L2.83997 16.99L2.77002 16.97L2.68994 16.95L2.62 16.92L2.55005 16.89L2.47998 16.85L2.41003 16.81L2.34998 16.76L2.29004 16.71L2.23999 16.65L2.18994 16.59L2.15002 16.52L2.10999 16.45L2.07996 16.38L2.05005 16.31L2.03003 16.23L2.01001 16.16L2 16.08V16V8V7.922L2.01001 7.84399L2.03003 7.76703L2.05005 7.69098L2.07996 7.617L2.10999 7.54602L2.15002 7.47803L2.18994 7.41199L2.23999 7.35101L2.29004 7.29303L2.34998 7.23999L2.41003 7.19098L2.47998 7.14697L2.55005 7.10901L2.62 7.07599L2.68994 7.04901L2.77002 7.02802L2.83997 7.01202L2.92004 7.00299L3 7H19L19.08 7.00299ZM3 8V16H19V8H3Z" fill="#333333"/>
<path d="M19.5 10.5H21.5V13.5H19.5" stroke="black" stroke-width="1.36" stroke-miterlimit="5" stroke-linecap="square" stroke-linejoin="round"/>
</svg>
