<svg width="24" height="24" viewBox="0 0 24 24" fill="none" xmlns="http://www.w3.org/2000/svg">
<path fill-rule="evenodd" clip-rule="evenodd" d="M12.0781 7.00121L12.1561 7.00421L12.2281 7.00901L12.3061 7.0156L12.3841 7.02399L12.4561 7.03479L12.5341 7.0468L12.6061 7.06119L12.6781 7.07679L12.7501 7.09481L12.8222 7.114L12.8941 7.13499L12.9602 7.1578L13.0321 7.18241L13.0982 7.20819L13.1701 7.2358L13.2362 7.26521L13.3021 7.29579L13.3681 7.3282L13.4281 7.3624L13.4941 7.39781L13.5542 7.4344L13.6141 7.47281L13.6802 7.5124L13.7341 7.55378L13.7941 7.59641L13.8542 7.64021L13.9081 7.68522L13.9621 7.73198L14.0162 7.77999L14.0701 7.82859L14.1181 7.87902L14.1722 7.93062L14.2201 7.98339L14.2681 8.0374L14.3162 8.092L14.3581 8.1484L14.4061 8.20538L14.4482 8.26361L14.4901 8.32301L14.5261 8.38362L14.5681 8.44481L14.6042 8.50721L14.6401 8.57079L14.6701 8.63499L14.7061 8.6998L14.7362 8.7658L14.7662 8.833L14.7901 8.9002L14.8201 8.96919L14.8441 9.03818L14.8681 9.10839L14.8862 9.17921L14.9042 9.25059L14.9222 9.32258L14.9401 9.39579L14.9521 9.46899L14.9641 9.54341L14.9761 9.61841L14.9821 9.69341L14.9941 9.76962V9.84579L15.0001 9.92258V10V10.0774L14.9941 10.1542V10.2304L14.9821 10.3066L14.9761 10.3816L14.9641 10.4566L14.9521 10.531L14.9401 10.6042L14.9222 10.6774L14.9042 10.7494L14.8862 10.8208L14.8681 10.8916L14.8441 10.9618L14.8201 11.0308L14.7901 11.0998L14.7662 11.167L14.7362 11.2342L14.7061 11.3002L14.6701 11.365L14.6401 11.4292L14.6042 11.4928L14.5681 11.5552L14.5261 11.6164L14.4901 11.677L14.4482 11.7364L14.4061 11.7946L14.3581 11.8516L14.3162 11.908L14.2681 11.9626L14.2201 12.0166L14.1722 12.0694L14.1181 12.121L14.0701 12.1714L14.0162 12.22L13.9621 12.268L13.9081 12.3148L13.8542 12.3598L13.7941 12.406L13.7341 12.448L13.6802 12.49L13.6141 12.526L13.5542 12.568L13.4941 12.604L13.4281 12.64L13.3681 12.67L13.3021 12.706L13.2362 12.736L13.1701 12.766L13.0982 12.79L13.0321 12.82L12.9602 12.844L12.8941 12.862L12.8222 12.886L12.7501 12.904L12.6781 12.922L12.6061 12.94L12.5341 12.952L12.4561 12.964L12.3841 12.976L12.3061 12.982L12.2281 12.994H12.1561L12.0781 13H12.0001H11.9222L11.8441 12.994H11.7722L11.6941 12.982L11.6162 12.976L11.5441 12.964L11.4722 12.952L11.3941 12.94L11.3222 12.922L11.2501 12.904L11.1781 12.886L11.1061 12.862L11.0401 12.844L10.9681 12.82L10.9021 12.79L10.8302 12.766L10.7641 12.736L10.6982 12.706L10.6321 12.67L10.5722 12.64L10.5061 12.604L10.4461 12.568L10.3862 12.526L10.3201 12.49L10.2662 12.448L10.2061 12.406L10.1461 12.3598L10.0922 12.3148L10.0381 12.268L9.98406 12.22L9.93015 12.1714L9.8821 12.121L9.82805 12.0694L9.78015 12.0166L9.7321 11.9626L9.68406 11.908L9.64216 11.8516L9.59412 11.7946L9.55208 11.7364L9.51018 11.677L9.47415 11.6164L9.4321 11.5552L9.39607 11.4928L9.36018 11.4292L9.33015 11.365L9.29412 11.3002L9.26409 11.2342L9.23406 11.167L9.21018 11.0998L9.18015 11.0308L9.15613 10.9618L9.1321 10.8916L9.11409 10.8208L9.09607 10.7494L9.07805 10.6774L9.06018 10.6042L9.04817 10.531L9.03616 10.4566L9.02415 10.3816L9.01814 10.3066L9.00613 10.2304V10.1542L9.00012 10.0774V10V9.92258L9.00613 9.84579V9.76962L9.01814 9.69341L9.02415 9.61841L9.03616 9.54341L9.04817 9.46899L9.06018 9.39579L9.07805 9.32258L9.09607 9.25059L9.11409 9.17921L9.1321 9.10839L9.15613 9.03818L9.18015 8.96919L9.21018 8.9002L9.23406 8.833L9.26409 8.7658L9.29412 8.6998L9.33015 8.63499L9.36018 8.57079L9.39607 8.50721L9.4321 8.44481L9.47415 8.38362L9.51018 8.32301L9.55208 8.26361L9.59412 8.20538L9.64216 8.1484L9.68406 8.092L9.7321 8.0374L9.78015 7.98339L9.82805 7.93062L9.8821 7.87902L9.93015 7.82859L9.98406 7.77999L10.0381 7.73198L10.0922 7.68522L10.1461 7.64021L10.2061 7.59641L10.2662 7.55378L10.3201 7.5124L10.3862 7.47281L10.4461 7.4344L10.5061 7.39781L10.5722 7.3624L10.6321 7.3282L10.6982 7.29579L10.7641 7.26521L10.8302 7.2358L10.9021 7.20819L10.9681 7.18241L11.0401 7.1578L11.1061 7.13499L11.1781 7.114L11.2501 7.09481L11.3222 7.07679L11.3941 7.06119L11.4722 7.0468L11.5441 7.03479L11.6162 7.02399L11.6941 7.0156L11.7722 7.00901L11.8441 7.00421L11.9222 7.00121L12.0001 7L12.0781 7.00121ZM11.9461 8.00082L11.8982 8.00261L11.8441 8.0062L11.7961 8.01041L11.7422 8.01638L11.6941 8.02301L11.6461 8.0314L11.5982 8.04099L11.5501 8.05121L11.5021 8.06318L11.4542 8.07582L11.4061 8.09021L11.3581 8.10519L11.3162 8.12079L11.2681 8.13818L11.2201 8.15679L11.1781 8.1766L11.1362 8.197L11.0941 8.21802L11.0461 8.2408L11.0042 8.26478L10.9621 8.28939L10.9261 8.31459L10.8841 8.34161L10.8422 8.3686L10.8061 8.39739L10.7641 8.42679L10.7281 8.45679L10.6922 8.48799L10.6561 8.51919L10.6201 8.55281L10.5841 8.58639L10.5542 8.62059L10.5181 8.65601L10.4881 8.692L10.4581 8.72859L10.4281 8.76638L10.3982 8.8048L10.3681 8.8438L10.3441 8.88339L10.3141 8.92301L10.2901 8.96381L10.2662 9.00581L10.2422 9.0484L10.2181 9.09099L10.1941 9.13362L10.1761 9.178L10.1581 9.22301L10.1401 9.2674L10.1222 9.31299L10.1042 9.3592L10.0922 9.40538L10.0741 9.4516L10.0621 9.5002L10.0501 9.54879L10.0381 9.59622L10.0321 9.6454L10.0201 9.69462L10.0141 9.74438L10.0081 9.79419V9.8452L10.0021 9.8968V9.94782V10V10.0522V10.1032L10.0081 10.1548V10.2058L10.0141 10.2562L10.0201 10.3054L10.0321 10.3546L10.0381 10.4032L10.0501 10.4518L10.0621 10.4998L10.0741 10.5484L10.0922 10.5946L10.1042 10.6408L10.1222 10.6864L10.1401 10.7326L10.1581 10.777L10.1761 10.822L10.1941 10.8664L10.2181 10.909L10.2422 10.9516L10.2662 10.9942L10.2901 11.0356L10.3141 11.077L10.3441 11.1166L10.3681 11.1562L10.3982 11.1958L10.4281 11.2336L10.4581 11.2714L10.4881 11.308L10.5181 11.344L10.5542 11.3794L10.5841 11.4136L10.6201 11.4472L10.6561 11.4802L10.6922 11.512L10.7281 11.5432L10.7641 11.5732L10.8061 11.6026L10.8422 11.6314L10.8841 11.659L10.9261 11.6854L10.9621 11.7106L11.0042 11.7352L11.0461 11.7592L11.0881 11.7814L11.1362 11.803L11.1781 11.824L11.2201 11.8432L11.2681 11.8612L11.3162 11.8786L11.3581 11.8954L11.4061 11.9104L11.4542 11.9242L11.5021 11.9368L11.5501 11.9488L11.5982 11.959L11.6461 11.9686L11.6941 11.977L11.7422 11.9836L11.7961 11.9896L11.8441 11.9938L11.8982 11.9974L11.9461 11.9992L12.0001 11.9998L12.0542 11.9992L12.1021 11.9974L12.1561 11.9938L12.2042 11.9896L12.2581 11.9836L12.3061 11.977L12.3542 11.9686L12.4021 11.959L12.4501 11.9488L12.4982 11.9368L12.5461 11.9242L12.5941 11.9104L12.6422 11.8954L12.6841 11.8786L12.7321 11.8612L12.7802 11.8432L12.8222 11.824L12.8641 11.803L12.9121 11.7814L12.9542 11.7586L12.9961 11.7358L13.0321 11.7112L13.0802 11.6854L13.1162 11.659L13.1581 11.6314L13.1941 11.6026L13.2362 11.5738L13.2722 11.5432L13.3081 11.512L13.3441 11.4796L13.3802 11.4472L13.4162 11.4142L13.4461 11.3794L13.4821 11.344L13.5121 11.308L13.5422 11.2708L13.5722 11.2336L13.6021 11.1958L13.6321 11.1562L13.6561 11.1172L13.6862 11.077L13.7102 11.0356L13.7341 10.9942L13.7581 10.9516L13.7821 10.909L13.8061 10.8658L13.8241 10.822L13.8422 10.7782L13.8602 10.7326L13.8781 10.6864L13.8961 10.6408L13.9081 10.5946L13.9261 10.5472L13.9381 10.4998L13.9501 10.4524L13.9561 10.4032L13.9681 10.3546L13.9802 10.3054L13.9862 10.2562L13.9922 10.2058V10.1542L13.9982 10.1032V10.0522V10V9.94782V9.8968L13.9922 9.84579V9.79419L13.9862 9.74438L13.9802 9.69462L13.9681 9.6454L13.9561 9.59622L13.9501 9.54758L13.9381 9.5002L13.9261 9.45281L13.9081 9.40538L13.8961 9.3592L13.8781 9.31299L13.8602 9.2674L13.8422 9.2218L13.8241 9.178L13.8061 9.13479L13.7821 9.09099L13.7581 9.0484L13.7341 9.00581L13.7102 8.96381L13.6862 8.92301L13.6561 8.8828L13.6321 8.8438L13.6021 8.8048L13.5722 8.76638L13.5422 8.72921L13.5121 8.692L13.4821 8.65601L13.4461 8.62059L13.4162 8.5858L13.3802 8.55281L13.3441 8.51981L13.3081 8.48799L13.2722 8.45679L13.2302 8.42621L13.1941 8.39739L13.1581 8.3686L13.1162 8.34161L13.0802 8.31459L13.0321 8.28881L12.9961 8.2642L12.9542 8.24138L12.9121 8.2186L12.8641 8.197L12.8222 8.1766L12.7802 8.15679L12.7321 8.13818L12.6841 8.12079L12.6422 8.10519L12.5941 8.09021L12.5461 8.07582L12.4982 8.06318L12.4501 8.05121L12.4021 8.04099L12.3542 8.0314L12.3061 8.02301L12.2581 8.01638L12.2042 8.01041L12.1561 8.0062L12.1021 8.00261L12.0542 8.00082L12.0001 8.0002L11.9461 8.00082Z" fill="#333333"/>
<path fill-rule="evenodd" clip-rule="evenodd" d="M12.0765 3.5L12.153 3.50149L12.2446 3.50458L12.3211 3.50766L12.3977 3.51223L12.4743 3.51681L12.5509 3.52297L12.6424 3.53063L12.719 3.53829L12.7955 3.54744L12.8721 3.55659L12.9487 3.56733L13.0402 3.57807L13.1168 3.5918L13.1933 3.60403L13.2699 3.61934L13.3461 3.63466L13.4227 3.64997L13.4993 3.66678L13.5758 3.68509L13.6677 3.70348L13.7439 3.72337L13.8205 3.74476L13.8971 3.76624L13.9737 3.78762L14.0502 3.81059L14.1264 3.83506L14.203 3.85953L14.2796 3.88558L14.3408 3.91313L14.4174 3.94068L14.4936 3.96823L14.5702 3.99876L14.6468 4.02781L14.7233 4.05844L14.7999 4.09056L14.8612 4.12427L14.9374 4.15789L15.014 4.1916L15.0905 4.22671L15.1518 4.26351L15.2284 4.30021L15.3046 4.33691L15.3658 4.37519L15.4424 4.41497L15.5037 4.45476L15.5802 4.49603L15.6411 4.53889L15.7177 4.58017L15.779 4.62453L15.8555 4.66888L15.9168 4.71334L15.978 4.75919L16.0542 4.80663L16.1155 4.85406L16.1768 4.9015L16.238 4.95044L16.3146 5.00096L16.3759 5.05138L16.4367 5.1034L16.498 5.15541L16.5593 5.20902L16.6205 5.26253L16.6818 5.31613L16.743 5.37272L16.7886 5.42781L16.8499 5.48441L16.9111 5.54258L16.9724 5.60067L17.0183 5.66034L17.0796 5.72001L17.1409 5.78127L17.1864 5.84244L17.2477 5.90361L17.2936 5.96785L17.3396 6.03061L17.4008 6.09486L17.4468 6.16069L17.4927 6.22643L17.5387 6.29227L17.5996 6.36109L17.6455 6.42842L17.6915 6.49725L17.7374 6.56616L17.7833 6.63648L17.8293 6.70839L17.8599 6.78029L17.9059 6.8522L17.9514 6.92569L17.9821 6.99909L18.028 7.07408L18.074 7.14906L18.1046 7.22405L18.1505 7.30053L18.1812 7.37851L18.2118 7.45658L18.2577 7.53465L18.2884 7.61421L18.3186 7.69377L18.3492 7.77483L18.3799 7.85589L18.4105 7.93853L18.4411 8.02118L18.4565 8.10531L18.4871 8.18796L18.5177 8.27359L18.5483 8.35932L18.5637 8.44495L18.579 8.53217L18.6096 8.61939L18.6249 8.70661L18.6555 8.79533L18.6709 8.88563L18.6862 8.97434L18.7011 9.06614L18.7164 9.15644L18.7317 9.24824L18.7471 9.34153V9.43333L18.7624 9.5282L18.7777 9.62149V9.71796V9.81274L18.793 9.90921V10.0056V10.1034V10.2014V10.2993V10.3987V10.4998V10.5992L18.7777 10.7002V10.8027L18.7624 10.9052V11.0077L18.7471 11.1102L18.7317 11.2142L18.7164 11.3183L18.7011 11.4223L18.6709 11.5279L18.6555 11.632L18.6249 11.7375L18.6096 11.8446L18.579 11.9502L18.5483 12.0573L18.5177 12.1644L18.4871 12.2714L18.4565 12.3786L18.4258 12.4857L18.3952 12.5928L18.3646 12.7014L18.3186 12.8085L18.2884 12.9172L18.2424 13.0258L18.2118 13.1329L18.1658 13.2415L18.1199 13.3501L18.074 13.4587L18.028 13.5674L17.9821 13.6745L17.9361 13.7831L17.8905 13.8917L17.8446 13.9989L17.7833 14.1075L17.7374 14.2146L17.6915 14.3217L17.6302 14.4288L17.5689 14.5359L17.5234 14.643L17.4621 14.7501L17.4008 14.8557L17.3549 14.9628L17.2936 15.0683L17.2324 15.1739L17.1711 15.2779L17.1102 15.3836L17.049 15.4876L16.9877 15.59L16.9265 15.6941L16.8652 15.7966L16.8039 15.8991L16.7277 16.0001L16.6665 16.1011L16.6052 16.2021L16.5286 16.3015L16.4674 16.401L16.3299 16.5983L16.1921 16.7926L16.0542 16.9839L15.9168 17.1705L15.779 17.3618L15.6411 17.5454L15.4883 17.7137L15.3505 17.882L15.213 18.0656L15.0599 18.2186L14.9221 18.3869L14.7846 18.5399L14.6315 18.6929L14.4936 18.8459L14.3562 18.9836L14.2796 19.0601L14.2183 19.1213L14.1417 19.1825L14.0809 19.259L14.0043 19.3202L13.943 19.3814L13.8665 19.4426L13.8052 19.5038L13.7439 19.565L13.6677 19.6109L13.6065 19.6721L13.5452 19.718L13.4686 19.7792L13.4074 19.8251L13.3461 19.871L13.2852 19.9169L13.224 19.9628L13.1627 20.0087L13.1015 20.0546L13.0402 20.0852L12.9789 20.1311L12.918 20.1617L12.8568 20.2076L12.7955 20.2382L12.7343 20.2688L12.6883 20.2994L12.6271 20.33L12.5811 20.3453L12.5202 20.3759L12.4743 20.3912L12.413 20.4218L12.3671 20.4371L12.3211 20.4524L12.2752 20.4677H12.2139L12.1684 20.483L12.1224 20.4983H12.0765H12.0458H11.9999H11.954H11.9233H11.8774L11.8314 20.483L11.7859 20.4677H11.7399L11.6787 20.4524L11.6327 20.4371L11.5868 20.4218L11.5255 20.3912L11.4796 20.3759L11.4187 20.3453L11.3727 20.33L11.3115 20.2994L11.2655 20.2688L11.2043 20.2382L11.143 20.2076L11.0817 20.1617L11.0362 20.1311L10.9749 20.0852L10.8983 20.0546L10.8371 20.0087L10.7758 19.9628L10.7146 19.9169L10.6537 19.871L10.5924 19.8251L10.5312 19.7792L10.4546 19.718L10.3933 19.6721L10.3321 19.6109L10.2712 19.565L10.1946 19.5038L10.1333 19.4426L10.0568 19.3814L9.99551 19.3202L9.91893 19.259L9.85805 19.1825L9.78147 19.1213L9.72021 19.0601L9.64364 18.9836L9.50618 18.8459L9.36834 18.6929L9.21519 18.5399L9.07773 18.3869L8.9399 18.2186L8.78675 18.0656L8.64929 17.882L8.51145 17.7137L8.35868 17.5454L8.22084 17.3618L8.08301 17.1705L7.94555 16.9839L7.80771 16.7926L7.66988 16.5983L7.53242 16.401L7.47116 16.3015L7.39458 16.2021L7.33332 16.1011L7.27206 16.0001L7.19586 15.8991L7.1346 15.7966L7.07334 15.6941L7.01208 15.59L6.95082 15.4876L6.88956 15.3836L6.82868 15.2779L6.76742 15.1739L6.70616 15.0683L6.6449 14.9628L6.59895 14.8557L6.53769 14.7501L6.47643 14.643L6.43086 14.5359L6.3696 14.4288L6.30834 14.3217L6.2624 14.2146L6.21645 14.1075L6.15519 13.9989L6.10925 13.8917L6.06368 13.7831L6.01773 13.6745L5.97179 13.5674L5.92584 13.4587L5.8799 13.3501L5.83395 13.2415L5.78801 13.1329L5.75738 13.0258L5.71143 12.9172L5.68118 12.8085L5.63523 12.7014L5.6046 12.5928L5.57397 12.4857L5.54334 12.3786L5.51271 12.2714L5.48208 12.1644L5.45145 12.0573L5.42082 11.9502L5.39019 11.8446L5.37488 11.7375L5.34425 11.632L5.32893 11.5279L5.29868 11.4223L5.28336 11.3183L5.26805 11.2142L5.25273 11.1102L5.23742 11.0077V10.9052L5.2221 10.8027V10.7002L5.20679 10.5992V10.4998V10.3987V10.2993V10.2014V10.1034V10.0056V9.90921L5.2221 9.81274V9.71796L5.23742 9.62149V9.5282L5.25273 9.43333L5.26805 9.34153V9.24824L5.28336 9.15644L5.29868 9.06614L5.31362 8.97434L5.32893 8.88563L5.35956 8.79533L5.37488 8.70661L5.39019 8.61939L5.42082 8.53217L5.43614 8.44495L5.45145 8.35932L5.48208 8.27359L5.51271 8.18796L5.54334 8.10531L5.55866 8.02118L5.58929 7.93853L5.61992 7.85589L5.65055 7.77483L5.68118 7.69377L5.71143 7.61421L5.74206 7.53465L5.78801 7.45658L5.81864 7.37851L5.84927 7.30053L5.89521 7.22405L5.92584 7.14906L5.97179 7.07408L6.01773 6.99909L6.04836 6.92569L6.09393 6.8522L6.13988 6.78029L6.17051 6.70839L6.21645 6.63648L6.2624 6.56616L6.30834 6.49725L6.35429 6.42842L6.40023 6.36109L6.46112 6.29227L6.50706 6.22643L6.55301 6.16069L6.59895 6.09486L6.66021 6.03061L6.70616 5.96785L6.76742 5.90361L6.81336 5.84244L6.85893 5.78127L6.92019 5.72001L6.98145 5.66034L7.0274 5.60067L7.08866 5.54258L7.14992 5.48441L7.21118 5.42781L7.27206 5.37272L7.31801 5.31613L7.37927 5.26253L7.44053 5.20902L7.50179 5.15541L7.56305 5.1034L7.62393 5.05138L7.68519 5.00096L7.76177 4.95044L7.82303 4.9015L7.88429 4.85406L7.94555 4.80663L8.02175 4.75919L8.08301 4.71334L8.14427 4.66888L8.22084 4.62453L8.2821 4.58017L8.35868 4.53889L8.41956 4.49603L8.49614 4.45476L8.5574 4.41497L8.63397 4.37519L8.69523 4.33691L8.77143 4.30021L8.84801 4.26351L8.90927 4.22671L8.98584 4.1916L9.06242 4.15789L9.13862 4.12427L9.19988 4.09056L9.27645 4.05844L9.35303 4.02781L9.4296 3.99876L9.50618 3.96823L9.58238 3.94068L9.65895 3.91313L9.72021 3.88558L9.79679 3.85953L9.87336 3.83506L9.94956 3.81059L10.0261 3.78762L10.1027 3.76624L10.1793 3.74476L10.2712 3.72337L10.3321 3.70348L10.424 3.68509L10.5005 3.66678L10.5771 3.64997L10.6537 3.63466L10.7299 3.61934L10.8065 3.60403L10.883 3.5918L10.9749 3.57807L11.0511 3.56733L11.1277 3.55659L11.2043 3.54744L11.2808 3.53829L11.3574 3.53063L11.4489 3.52297L11.5255 3.51681L11.6021 3.51223L11.6787 3.50766L11.7552 3.50458L11.8467 3.50149L11.9233 3.5H11.9999H12.0765ZM11.9386 5.49972L11.8927 5.50121L11.8314 5.5028L11.7705 5.50579L11.7246 5.50887L11.6633 5.51195L11.6021 5.51653L11.5408 5.52111L11.4949 5.52727L11.4336 5.53334L11.388 5.5395L11.3268 5.54716L11.2655 5.55631L11.2196 5.56546L11.1583 5.57471L11.0971 5.58386L11.0511 5.59609L10.9902 5.60683L10.929 5.61906L10.883 5.6313L10.8218 5.64503L10.7605 5.65885L10.7146 5.67416L10.6537 5.68948L10.6077 5.7047L10.5465 5.7216L10.4852 5.73841L10.4393 5.75671L10.378 5.77511L10.3321 5.795L10.2712 5.8134L10.2252 5.83478L10.164 5.85617L10.118 5.87764L10.0568 5.89903L10.0108 5.922L9.96488 5.94497L9.90362 5.96944L9.85805 5.99391L9.8121 6.01837L9.75084 6.04443L9.7049 6.07198L9.64364 6.09794L9.59769 6.12549L9.55175 6.15303L9.50618 6.18208L9.46023 6.20962L9.39897 6.24025L9.35303 6.27079L9.30708 6.30142L9.26114 6.33354L9.21519 6.36417L9.16925 6.39779L9.12368 6.42992L9.07773 6.46363L9.03179 6.49725L8.98584 6.53245L8.9399 6.56766L8.89395 6.60286L8.84801 6.63956L8.80206 6.67626L8.75612 6.71296L8.72586 6.74976L8.67992 6.78795L8.63397 6.82773L8.60334 6.86602L8.5574 6.9058L8.51145 6.94708L8.48082 6.98844L8.43488 7.02823L8.38893 7.0695L8.35868 7.11078L8.32805 7.15513L8.2821 7.19959L8.25147 7.24086L8.22084 7.28522L8.1749 7.32958L8.14427 7.37552L8.11364 7.41988L8.06769 7.46732L8.03706 7.51476L8.00643 7.56061L7.97618 7.60655L7.94555 7.65549L7.91492 7.70442L7.88429 7.75186L7.85366 7.80387L7.82303 7.85131L7.7924 7.90183L7.76177 7.95385L7.74645 8.00586L7.71582 8.05788L7.68519 8.10681L7.65456 8.16191L7.63925 8.21541L7.60862 8.26902L7.59368 8.32411L7.56305 8.37762L7.54773 8.43421L7.5171 8.4909L7.50179 8.54749L7.47116 8.60408L7.45584 8.66067L7.44053 8.71885L7.42521 8.77852L7.39458 8.83819L7.37927 8.89786L7.36395 8.95903L7.34864 9.0202L7.33332 9.08146L7.31801 9.14421L7.30269 9.20538V9.26962L7.28738 9.33387L7.27206 9.39971L7.25675 9.46396V9.5297L7.24143 9.59703V9.66436L7.22612 9.73019V9.79902L7.21118 9.87092V9.94133V10.0102V10.0806L7.19586 10.154V10.2274V10.2978V10.3636V10.4279L7.21118 10.4921V10.5579V10.6283L7.22612 10.6987V10.769L7.24143 10.8409V10.9144L7.25675 10.9909L7.27206 11.0689L7.28738 11.1469L7.30269 11.2234L7.31801 11.303L7.33332 11.3841L7.36395 11.4683L7.37927 11.5509L7.4099 11.635L7.42521 11.7176L7.45584 11.8033L7.48647 11.892L7.50179 11.9778L7.53242 12.065L7.56305 12.1537L7.59368 12.244L7.62393 12.3327L7.66988 12.4214L7.70051 12.5132L7.73114 12.605L7.77708 12.6968L7.80771 12.7871L7.85366 12.8789L7.88429 12.9707L7.93023 13.0656L7.97618 13.1574L8.02175 13.2507L8.06769 13.3455L8.11364 13.4373L8.15958 13.5307L8.20553 13.624L8.25147 13.7189L8.29742 13.8122L8.35868 13.9056L8.40425 13.9989L8.45019 14.0921L8.51145 14.1855L8.5574 14.2788L8.61866 14.3706L8.6646 14.4624L8.72586 14.5558L8.78675 14.6491L8.83269 14.7394L8.89395 14.8297L8.95521 14.9215L9.01647 15.0133L9.06242 15.102L9.12368 15.1907L9.18456 15.2779L9.30708 15.457L9.4296 15.6298L9.55175 15.8012L9.67427 15.971L9.8121 16.1347L9.93425 16.2969L10.0568 16.4561L10.1793 16.6105L10.3167 16.7621L10.4393 16.9074L10.5618 17.0497L10.6839 17.1874L10.8065 17.3159L10.929 17.4383L11.0511 17.576L11.1124 17.6219L11.1736 17.6831L11.2349 17.7443L11.2808 17.7902L11.3421 17.8514L11.4034 17.8973L11.4489 17.9432L11.5102 17.9891L11.5561 18.035L11.6174 18.0809L11.6633 18.1268L11.7093 18.1574L11.7705 18.2033L11.8161 18.2339L11.8621 18.2798L11.8927 18.3104L11.9386 18.341L11.9846 18.3716H11.9999H12.0152L12.0612 18.341L12.1071 18.3104L12.1377 18.2798L12.1837 18.2339L12.2446 18.2033L12.2905 18.1727L12.3365 18.1268L12.3824 18.0809L12.4437 18.035L12.4896 17.9891L12.5509 17.9432L12.5964 17.8973L12.6577 17.8514L12.719 17.7902L12.7649 17.7443L12.8262 17.6831L12.8874 17.6219L12.9487 17.576L13.0708 17.4536L13.1933 17.3159L13.3159 17.1859L13.438 17.0497L13.5605 16.9074L13.683 16.7621L13.8205 16.6105L13.943 16.4561L14.0655 16.2969L14.1877 16.1347L14.3255 15.971L14.448 15.8012L14.5702 15.6298L14.6927 15.457L14.8152 15.2779L14.8761 15.1923L14.9374 15.102L14.9833 15.0117L15.0446 14.9215L15.1058 14.8312L15.1671 14.7394L15.2284 14.6476L15.2739 14.5558L15.3352 14.4624L15.3811 14.3706L15.4424 14.2788L15.4883 14.1855L15.5496 14.0921L15.5955 13.9989L15.6564 13.9056L15.7024 13.8122L15.7483 13.7189L15.7943 13.624L15.8402 13.5322L15.8862 13.4388L15.9321 13.3441L15.978 13.2492L16.0236 13.1574L16.0696 13.0656L16.1002 12.9722L16.1461 12.8804L16.1921 12.7871L16.2227 12.6953L16.2687 12.6035L16.2993 12.5132L16.3299 12.4214L16.3759 12.3327L16.4061 12.244L16.4367 12.1552L16.4674 12.065L16.498 11.9762L16.5133 11.892L16.544 11.8048L16.5746 11.7176L16.5899 11.6334L16.6205 11.5509L16.6358 11.4683L16.6665 11.3856L16.6818 11.303L16.6971 11.2234L16.7124 11.1469L16.7277 11.0674L16.743 10.9909L16.7584 10.9159V10.844L16.7737 10.769V10.6956L16.7886 10.6252V10.5609V10.4921L16.8039 10.4248V10.3636V10.2978V10.2274V10.154V10.0806L16.7886 10.0102V9.94133V9.87092L16.7737 9.80051V9.73169L16.7584 9.66286V9.59553L16.743 9.5297V9.46396L16.7277 9.39971L16.7124 9.33387L16.6971 9.26962V9.20687L16.6818 9.14421L16.6665 9.08146L16.6512 9.0202L16.6358 8.95903L16.6205 8.89786L16.6052 8.8366L16.5746 8.77852L16.5593 8.72034L16.544 8.66067L16.5133 8.60258L16.498 8.54749L16.4827 8.4909L16.4521 8.43421L16.4367 8.37762L16.4061 8.32411L16.3912 8.26902L16.3605 8.21541L16.3452 8.1634L16.3146 8.10989L16.284 8.05638L16.2533 8.00278L16.238 7.95385L16.2074 7.90333L16.1768 7.85131L16.1461 7.80238L16.1155 7.75186L16.0849 7.70442L16.0542 7.65549L16.0236 7.60655L15.9934 7.56061L15.9627 7.51476L15.9321 7.46732L15.8862 7.41988L15.8555 7.37552L15.8249 7.32958L15.7943 7.28671L15.7483 7.24236L15.7177 7.198L15.6717 7.15364L15.6411 7.11078L15.6109 7.0695L15.5649 7.02823L15.519 6.98844L15.4883 6.94708L15.4424 6.90729L15.3965 6.86602L15.3658 6.82624L15.3199 6.78954L15.2739 6.74976L15.2437 6.71296L15.1977 6.67626L15.1518 6.63956L15.1058 6.60286L15.0599 6.56616L15.014 6.53245L14.968 6.49725L14.9221 6.46363L14.8761 6.42992L14.8305 6.39779L14.7846 6.36417L14.7387 6.33354L14.6927 6.30142L14.6468 6.27079L14.6008 6.24025L14.5396 6.21112L14.4936 6.18208L14.448 6.15303L14.4021 6.12549L14.3562 6.09794L14.2949 6.07039L14.249 6.04443L14.203 6.01837L14.1417 5.99391L14.0962 5.96944L14.0349 5.94497L13.989 5.922L13.943 5.89903L13.8818 5.87764L13.8358 5.85617L13.7746 5.83478L13.7286 5.81489L13.6677 5.795L13.6218 5.77511L13.5605 5.75671L13.5146 5.73841L13.4533 5.7216L13.3921 5.70629L13.3461 5.68948L13.2852 5.67416L13.2393 5.65885L13.178 5.64503L13.1168 5.6313L13.0708 5.61906L13.0096 5.60683L12.9487 5.59609L12.9027 5.58386L12.8415 5.57471L12.7802 5.56546L12.7343 5.55631L12.673 5.54716L12.6271 5.5395L12.5662 5.53334L12.5049 5.52727L12.459 5.52111L12.3977 5.51653L12.3365 5.51195L12.2752 5.50887L12.2292 5.50579L12.1684 5.5028L12.1071 5.50121L12.0612 5.49972H11.9999H11.9386Z" fill="#333333"/>
</svg>
