<svg width="24" height="24" viewBox="0 0 24 24" fill="none" xmlns="http://www.w3.org/2000/svg">
<path fill-rule="evenodd" clip-rule="evenodd" d="M12.0766 6.00065L12.1526 6.00399L12.2293 6.00867L12.3059 6.01534L12.3813 6.02401L12.456 6.03467L12.5299 6.04667L12.6039 6.06067L12.6759 6.07666L12.7479 6.09399L12.8206 6.11401L12.8926 6.13534L12.9613 6.158L13.0313 6.18201L13.1006 6.20866L13.1679 6.236L13.2339 6.26534L13.3006 6.29598L13.3666 6.32935L13.4306 6.36267L13.494 6.39868L13.5566 6.43534L13.6179 6.47335L13.6773 6.51335L13.7366 6.554L13.7953 6.59668L13.8526 6.64067L13.9086 6.68599L13.9633 6.73202L14.0166 6.77934L14.0706 6.82935L14.1213 6.87866L14.1706 6.92932L14.2206 6.98332L14.2679 7.03666L14.3139 7.09135L14.3593 7.14734L14.4033 7.20467L14.4459 7.26335L14.4866 7.32267L14.5266 7.382L14.5646 7.44332L14.6013 7.50598L14.6373 7.56934L14.6706 7.63334L14.704 7.69934L14.7346 7.76599L14.7639 7.83199L14.7913 7.89933L14.8179 7.96867L14.8419 8.03866L14.8646 8.10734L14.8859 8.17932L14.9059 8.25199L14.9233 8.32402L14.9393 8.396L14.9533 8.47001L14.9653 8.54399L14.9759 8.61865L14.9846 8.69401L14.9913 8.77067L14.996 8.84733L14.9993 8.92334L14.9999 9L14.9993 9.07666L14.996 9.15267L14.9913 9.22933L14.9846 9.30599L14.9759 9.38135L14.9653 9.45602L14.9533 9.52999L14.9393 9.60401L14.9233 9.67599L14.9059 9.74801L14.8859 9.82068L14.8646 9.89266L14.8419 9.96135L14.8179 10.0313L14.7913 10.1007L14.7639 10.168L14.7346 10.234L14.704 10.3007L14.6706 10.3667L14.6373 10.4307L14.6013 10.494L14.5646 10.5567L14.5266 10.618L14.4866 10.6773L14.4459 10.7367L14.4033 10.7953L14.3593 10.8527L14.3139 10.9087L14.2679 10.9633L14.2206 11.0167L14.1706 11.0707L14.1213 11.1213L14.0706 11.1707L14.0166 11.2207L13.9633 11.268L13.9086 11.314L13.8526 11.3593L13.7953 11.4033L13.7366 11.446L13.6773 11.4867L13.6179 11.5267L13.5566 11.5647L13.494 11.6013L13.4306 11.6373L13.3666 11.6707L13.3006 11.704L13.2339 11.7347L13.1679 11.764L13.1006 11.7913L13.0313 11.818L12.9613 11.842L12.8926 11.8647L12.8206 11.886L12.7479 11.906L12.6759 11.9233L12.6039 11.9393L12.5299 11.9533L12.456 11.9653L12.3813 11.976L12.3059 11.9847L12.2293 11.9913L12.1526 11.996L12.0766 11.9994L11.9999 12L11.9233 11.9994L11.8473 11.996L11.7706 11.9913L11.6939 11.9847L11.6186 11.976L11.5439 11.9653L11.47 11.9533L11.3959 11.9393L11.324 11.9233L11.2519 11.906L11.1793 11.886L11.1073 11.8647L11.0386 11.842L10.9686 11.818L10.8993 11.7913L10.8319 11.764L10.7659 11.7347L10.6993 11.704L10.6333 11.6707L10.5693 11.6373L10.5059 11.6013L10.4433 11.5647L10.3819 11.5267L10.3226 11.4867L10.2633 11.446L10.2046 11.4033L10.1473 11.3593L10.0913 11.314L10.0366 11.268L9.98326 11.2207L9.92926 11.1707L9.8786 11.1213L9.82928 11.0707L9.77928 11.0167L9.73195 10.9633L9.68593 10.9087L9.6406 10.8527L9.59662 10.7953L9.55393 10.7367L9.51329 10.6773L9.47329 10.618L9.43528 10.5567L9.39862 10.494L9.36261 10.4307L9.32928 10.3667L9.29592 10.3007L9.26528 10.234L9.23594 10.168L9.2086 10.1007L9.18195 10.0313L9.15794 9.96135L9.13527 9.89266L9.11395 9.82068L9.09393 9.74801L9.0766 9.67599L9.06061 9.60401L9.04661 9.52999L9.03461 9.45602L9.02395 9.38135L9.01528 9.30599L9.00861 9.22933L9.00393 9.15267L9.00059 9.07666L8.99994 9L9.00059 8.92334L9.00393 8.84733L9.00861 8.77067L9.01528 8.69401L9.02395 8.61865L9.03461 8.54399L9.04661 8.47001L9.06061 8.396L9.0766 8.32402L9.09393 8.25199L9.11395 8.17932L9.13527 8.10734L9.15794 8.03866L9.18195 7.96867L9.2086 7.89933L9.23594 7.83199L9.26528 7.76599L9.29592 7.69934L9.32928 7.63334L9.36261 7.56934L9.39862 7.50598L9.43528 7.44332L9.47329 7.382L9.51329 7.32267L9.55393 7.26335L9.59662 7.20467L9.6406 7.14734L9.68593 7.09135L9.73195 7.03666L9.77928 6.98332L9.82928 6.92932L9.8786 6.87866L9.92926 6.82935L9.98326 6.77934L10.0366 6.73202L10.0913 6.68599L10.1473 6.64067L10.2046 6.59668L10.2633 6.554L10.3226 6.51335L10.3819 6.47335L10.4433 6.43534L10.5059 6.39868L10.5693 6.36267L10.6333 6.32935L10.6993 6.29598L10.7659 6.26534L10.8319 6.236L10.8993 6.20866L10.9686 6.18201L11.0386 6.158L11.1073 6.13534L11.1793 6.11401L11.2519 6.09399L11.324 6.07666L11.3959 6.06067L11.47 6.04667L11.5439 6.03467L11.6186 6.02401L11.6939 6.01534L11.7706 6.00867L11.8473 6.00399L11.9233 6.00065L11.9999 6L12.0766 6.00065ZM11.9486 7.00065L11.8973 7.00269L11.8459 7.00598L11.7953 7.01066L11.7453 7.01599L11.6953 7.02332L11.6459 7.03133L11.5973 7.04065L11.5486 7.05135L11.5006 7.06331L11.4526 7.07601L11.4053 7.09001L11.3586 7.10535L11.3126 7.12134L11.2666 7.13867L11.2219 7.15735L11.1773 7.17668L11.1333 7.19735L11.0899 7.21867L11.0473 7.24133L11.0046 7.26534L10.9633 7.29L10.9226 7.31535L10.8819 7.342L10.8426 7.36934L10.8039 7.39734L10.7653 7.42668L10.7279 7.45667L10.6913 7.488L10.6553 7.52002L10.6206 7.55265L10.586 7.58602L10.5526 7.62069L10.52 7.65531L10.4879 7.69133L10.4566 7.72799L10.4266 7.76534L10.3973 7.804L10.3693 7.84265L10.3419 7.882L10.3153 7.92265L10.2899 7.96334L10.2653 8.00468L10.2413 8.04732L10.2186 8.09001L10.1973 8.13334L10.1766 8.17733L10.1573 8.22201L10.1386 8.26668L10.1213 8.31266L10.1053 8.35868L10.0899 8.40532L10.0759 8.45268L10.0633 8.50065L10.0513 8.54867L10.0406 8.59733L10.0313 8.646L10.0233 8.69535L10.0159 8.74532L10.0106 8.79533L10.0059 8.84599L10.0026 8.89734L10.0006 8.94865L9.99994 9L10.0006 9.05135L10.0026 9.10266L10.0059 9.15401L10.0106 9.20467L10.0159 9.25468L10.0233 9.30465L10.0313 9.35401L10.0406 9.40267L10.0513 9.45134L10.0633 9.49935L10.0759 9.54732L10.0899 9.59469L10.1053 9.64132L10.1213 9.68734L10.1386 9.73332L10.1573 9.778L10.1766 9.82267L10.1973 9.86666L10.2186 9.91L10.2413 9.95268L10.2653 9.99532L10.2899 10.0367L10.3153 10.0774L10.3419 10.118L10.3693 10.1574L10.3973 10.196L10.4266 10.2347L10.4566 10.272L10.4879 10.3087L10.52 10.3447L10.5526 10.3793L10.586 10.414L10.6206 10.4473L10.6553 10.48L10.6913 10.512L10.7279 10.5433L10.7653 10.5733L10.8039 10.6027L10.8426 10.6307L10.8819 10.658L10.9226 10.6847L10.9633 10.71L11.0046 10.7347L11.0473 10.7587L11.0899 10.7813L11.1333 10.8027L11.1773 10.8233L11.2219 10.8427L11.2666 10.8613L11.3126 10.8787L11.3586 10.8947L11.4053 10.91L11.4526 10.924L11.5006 10.9367L11.5486 10.9487L11.5973 10.9594L11.6459 10.9687L11.6953 10.9767L11.7453 10.984L11.7953 10.9893L11.8459 10.994L11.8973 10.9973L11.9486 10.9994L11.9999 11L12.0513 10.9994L12.1026 10.9973L12.154 10.994L12.2046 10.9893L12.2546 10.984L12.3046 10.9767L12.3539 10.9687L12.4026 10.9594L12.4513 10.9487L12.4993 10.9367L12.5473 10.924L12.5946 10.91L12.6413 10.8947L12.6873 10.8787L12.7333 10.8613L12.7779 10.8427L12.8226 10.8233L12.8666 10.8027L12.9099 10.7813L12.9526 10.7587L12.9953 10.7347L13.0366 10.71L13.0773 10.6847L13.1179 10.658L13.1573 10.6307L13.1959 10.6027L13.2346 10.5733L13.272 10.5433L13.3086 10.512L13.3446 10.48L13.3793 10.4473L13.4139 10.414L13.4473 10.3793L13.4799 10.3447L13.5119 10.3087L13.5433 10.272L13.5733 10.2347L13.6026 10.196L13.6306 10.1574L13.6579 10.118L13.6846 10.0774L13.7099 10.0367L13.7346 9.99532L13.7586 9.95268L13.7813 9.91L13.8026 9.86666L13.8233 9.82267L13.8426 9.778L13.8613 9.73332L13.8786 9.68734L13.8946 9.64132L13.9099 9.59469L13.9239 9.54732L13.9366 9.49935L13.9486 9.45134L13.9593 9.40267L13.9686 9.35401L13.9766 9.30465L13.9839 9.25468L13.9893 9.20467L13.994 9.15401L13.9973 9.10266L13.9993 9.05135L13.9999 9L13.9993 8.94865L13.9973 8.89734L13.994 8.84599L13.9893 8.79533L13.9839 8.74532L13.9766 8.69535L13.9686 8.646L13.9593 8.59733L13.9486 8.54867L13.9366 8.50065L13.9239 8.45268L13.9099 8.40532L13.8946 8.35868L13.8786 8.31266L13.8613 8.26668L13.8426 8.22201L13.8233 8.17733L13.8026 8.13334L13.7813 8.09001L13.7586 8.04732L13.7346 8.00468L13.7099 7.96334L13.6846 7.92265L13.6579 7.882L13.6306 7.84265L13.6026 7.804L13.5733 7.76534L13.5433 7.72799L13.5119 7.69133L13.4799 7.65531L13.4473 7.62069L13.4139 7.58602L13.3793 7.55265L13.3446 7.52002L13.3086 7.488L13.272 7.45667L13.2346 7.42668L13.1959 7.39734L13.1573 7.36934L13.1179 7.342L13.0773 7.31535L13.0366 7.29L12.9953 7.26534L12.9526 7.24133L12.9099 7.21867L12.8666 7.19735L12.8226 7.17668L12.7779 7.15735L12.7333 7.13867L12.6873 7.12134L12.6413 7.10535L12.5946 7.09001L12.5473 7.07601L12.4993 7.06331L12.4513 7.05135L12.4026 7.04065L12.3539 7.03133L12.3046 7.02332L12.2546 7.01599L12.2046 7.01066L12.154 7.00598L12.1026 7.00269L12.0513 7.00065L11.9999 7L11.9486 7.00065Z" fill="#333333"/>
<path fill-rule="evenodd" clip-rule="evenodd" d="M14.4095 12.5852L14.4636 12.5883L14.5166 12.5942L14.5696 12.6042L14.6216 12.6152L14.6736 12.6302L14.7245 12.6483L14.7746 12.6682L14.8226 12.6912L14.8705 12.7162L14.9726 12.7752L15.0846 12.8422L15.1935 12.9122L15.3006 12.9852L15.4046 13.0602L15.5076 13.1392L15.6075 13.2192L15.7046 13.3022L15.7996 13.3882L15.8916 13.4763L15.9806 13.5672L16.0666 13.6602L16.1465 13.7532L16.1896 13.8043L16.2295 13.8542L16.2696 13.9052L16.3066 13.9552L16.3436 14.0062L16.3805 14.0592L16.4156 14.1112L16.4506 14.1642L16.4845 14.2182L16.5176 14.2722L16.5496 14.3272L16.5806 14.3832L16.6106 14.4392L16.6396 14.4962L16.6676 14.5532L16.6946 14.6102L16.7206 14.6692L16.7455 14.7282L16.7696 14.7882L16.7926 14.8482L16.8136 14.9072L16.8346 14.9692L16.8545 15.0312L16.8725 15.0922L16.8896 15.1542L16.9056 15.2182L16.9206 15.2812L16.9336 15.3442L16.9466 15.4092L16.9576 15.4732L16.9676 15.5372L16.9756 15.6022L16.9825 15.6682L16.9886 15.7332L16.9936 15.8002L16.9966 15.8652L16.9986 15.9312L16.9996 15.9932V17.9982L16.9975 18.0542L16.9936 18.1102L16.9856 18.1662L16.9745 18.2212L16.9606 18.2752L16.9435 18.3282L16.9236 18.3812L16.9006 18.4322L16.8746 18.4822L16.8465 18.5302L16.8155 18.5772L16.7815 18.6212L16.7455 18.6642L16.7065 18.7052L16.6656 18.7442L16.6225 18.7802L16.5785 18.8142L16.5315 18.8452L16.4836 18.8732L16.4336 18.8992L16.3826 18.9222L16.3296 18.9422L16.2765 18.9592L16.2226 18.9732L16.1676 18.9842L16.1116 18.9922L16.0556 18.9962L15.9996 18.9982H7.99957L7.94354 18.9962L7.88757 18.9922L7.83154 18.9842L7.77655 18.9732L7.72259 18.9592L7.66956 18.9422L7.61658 18.9222L7.56555 18.8992L7.51556 18.8732L7.46759 18.8452L7.42059 18.8142L7.37659 18.7802L7.33356 18.7442L7.2926 18.7052L7.2536 18.6642L7.21759 18.6212L7.18359 18.5772L7.15259 18.5302L7.12457 18.4822L7.09857 18.4322L7.07556 18.3812L7.0556 18.3282L7.03857 18.2752L7.0246 18.2212L7.01355 18.1662L7.00555 18.1102L7.00159 18.0542L6.99957 17.9982V15.9932L7.00055 15.9312L7.00256 15.8652L7.00555 15.8002L7.01056 15.7332L7.0166 15.6682L7.02356 15.6022L7.03156 15.5372L7.04156 15.4732L7.05255 15.4092L7.06555 15.3442L7.07855 15.2812L7.09357 15.2182L7.10956 15.1542L7.12659 15.0922L7.14459 15.0312L7.16455 14.9692L7.18555 14.9072L7.20654 14.8482L7.22955 14.7882L7.2536 14.7282L7.27856 14.6692L7.30457 14.6102L7.33154 14.5532L7.35956 14.4962L7.38855 14.4392L7.41858 14.3832L7.44958 14.3272L7.48157 14.2722L7.51459 14.2182L7.54858 14.1642L7.58356 14.1112L7.61859 14.0592L7.65558 14.0062L7.69257 13.9552L7.72955 13.9052L7.76959 13.8542L7.80957 13.8043L7.8526 13.7532L7.93256 13.6602L8.01855 13.5672L8.10754 13.4763L8.19958 13.3882L8.29455 13.3022L8.3916 13.2192L8.49158 13.1392L8.59454 13.0602L8.69855 12.9852L8.8056 12.9122L8.91455 12.8422L9.02655 12.7752L9.1286 12.7162L9.17657 12.6912L9.22455 12.6682L9.2746 12.6483L9.32556 12.6302L9.37756 12.6152L9.42956 12.6042L9.48254 12.5942L9.53558 12.5883L9.5896 12.5852L9.64355 12.5842L9.69659 12.5872L9.75055 12.5922L9.80359 12.6002L9.85559 12.6112L9.90759 12.6252L9.95855 12.6422L10.0236 12.6652L10.0836 12.6852L10.1446 12.7052L10.2056 12.7252L10.2656 12.7442L10.3266 12.7622L10.3876 12.7792L10.4496 12.7962L10.5116 12.8123L10.5726 12.8272L10.6356 12.8422L10.6985 12.8562L10.7616 12.8702L10.8246 12.8832L10.8876 12.8952L10.9516 12.9072L11.0156 12.9182L11.0785 12.9282L11.1436 12.9373L11.2086 12.9462L11.2736 12.9542L11.3386 12.9622L11.4026 12.9692L11.4686 12.9752L11.5345 12.9802L11.5995 12.9852L11.6656 12.9893L11.7325 12.9922L11.7986 12.9952L11.8656 12.9973L11.9326 12.9982H11.9996H12.0666L12.1335 12.9973L12.2006 12.9952L12.2666 12.9922L12.3336 12.9893L12.3996 12.9852L12.4646 12.9802L12.5306 12.9752L12.5966 12.9692L12.6606 12.9622L12.7256 12.9542L12.7906 12.9462L12.8556 12.9373L12.9206 12.9282L12.9836 12.9182L13.0475 12.9072L13.1116 12.8952L13.1746 12.8832L13.2375 12.8702L13.3006 12.8562L13.3636 12.8422L13.4266 12.8272L13.4875 12.8123L13.5496 12.7962L13.6116 12.7792L13.6725 12.7622L13.7336 12.7442L13.7936 12.7252L13.8545 12.7052L13.9156 12.6852L13.9756 12.6652L14.0406 12.6422L14.0915 12.6252L14.1435 12.6112L14.1956 12.6002L14.2486 12.5922L14.3025 12.5872L14.3556 12.5842L14.4095 12.5852ZM14.3046 13.6093L14.2346 13.6332L14.1645 13.6562L14.0936 13.6793L14.0226 13.7012L13.9516 13.7222L13.8796 13.7422L13.8076 13.7622L13.7356 13.7812L13.6626 13.7993L13.5896 13.8162L13.5166 13.8332L13.4435 13.8492L13.3696 13.8643L13.2956 13.8782L13.2216 13.8922L13.1465 13.9042L13.0716 13.9163L12.9966 13.9272L12.9216 13.9382L12.8466 13.9472L12.7706 13.9562L12.6946 13.9642L12.6175 13.9712L12.5416 13.9772L12.4646 13.9832L12.3876 13.9872L12.3105 13.9912L12.2325 13.9942L12.1556 13.9962L12.0776 13.9982H11.9996H11.9216L11.8436 13.9962L11.7666 13.9942L11.6886 13.9912L11.6116 13.9872L11.5345 13.9832L11.4576 13.9772L11.3816 13.9712L11.3046 13.9642L11.2286 13.9562L11.1526 13.9472L11.0776 13.9382L11.0026 13.9272L10.9275 13.9163L10.8526 13.9042L10.7776 13.8922L10.7035 13.8782L10.6296 13.8643L10.5556 13.8492L10.4825 13.8332L10.4095 13.8162L10.3365 13.7993L10.2635 13.7812L10.1916 13.7622L10.1196 13.7422L10.0475 13.7222L9.97656 13.7012L9.90558 13.6793L9.83459 13.6562L9.76458 13.6332L9.69458 13.6093L9.62457 13.5842L9.53357 13.6362L9.44458 13.6912L9.35754 13.7473L9.27258 13.8043L9.18957 13.8643L9.10858 13.9252L9.03058 13.9882L8.95556 14.0532L8.88159 14.1192L8.81158 14.1873L8.74255 14.2562L8.67755 14.3272L8.61456 14.4002L8.58459 14.4362L8.55456 14.4742L8.52557 14.5112L8.49756 14.5493L8.46954 14.5872L8.44256 14.6252L8.41656 14.6642L8.39056 14.7032L8.36658 14.7422L8.34259 14.7822L8.31854 14.8222L8.29657 14.8622L8.2746 14.9033L8.2536 14.9442L8.23358 14.9852L8.2146 15.0262L8.19556 15.0682L8.17755 15.1102L8.16058 15.1522L8.14459 15.1952L8.12958 15.2372L8.11456 15.2802L8.10156 15.3242L8.08856 15.3672L8.0766 15.4112L8.06555 15.4552L8.05456 15.4992L8.04559 15.5432L8.03656 15.5883L8.02856 15.6332L8.02258 15.6782L8.0166 15.7232L8.0116 15.7682L8.00659 15.8142L8.0036 15.8602L8.00159 15.9062L7.99957 15.9522V15.9982V17.9982H15.9996V15.9982V15.9522L15.9976 15.9062L15.9955 15.8602L15.9925 15.8142L15.9875 15.7682L15.9825 15.7232L15.9766 15.6782L15.9706 15.6332L15.9626 15.5883L15.9535 15.5432L15.9446 15.4992L15.9336 15.4552L15.9225 15.4112L15.9106 15.3672L15.8976 15.3242L15.8846 15.2802L15.8696 15.2372L15.8545 15.1952L15.8386 15.1522L15.8216 15.1102L15.8036 15.0682L15.7845 15.0262L15.7656 14.9852L15.7455 14.9442L15.7245 14.9033L15.7026 14.8622L15.6806 14.8222L15.6565 14.7822L15.6326 14.7422L15.6086 14.7032L15.5826 14.6642L15.5566 14.6252L15.5296 14.5872L15.5016 14.5493L15.4736 14.5112L15.4446 14.4742L15.4145 14.4362L15.3846 14.4002L15.3216 14.3272L15.2566 14.2562L15.1876 14.1873L15.1175 14.1192L15.0436 14.0532L14.9686 13.9882L14.8906 13.9252L14.8096 13.8643L14.7266 13.8043L14.6416 13.7473L14.5546 13.6912L14.4656 13.6362L14.3746 13.5842L14.3046 13.6093Z" fill="#333333"/>
</svg>
