<svg width="24" height="24" viewBox="0 0 24 24" fill="none" xmlns="http://www.w3.org/2000/svg">
<path d="M13 11.4983H18" stroke="black" stroke-miterlimit="1.5" stroke-linecap="round" stroke-linejoin="round"/>
<path d="M13 13.4978H18" stroke="black" stroke-miterlimit="1.5" stroke-linecap="round" stroke-linejoin="round"/>
<path fill-rule="evenodd" clip-rule="evenodd" d="M8.077 7.99878L8.153 8.00183L8.229 8.00677L8.306 8.01282L8.382 8.02179L8.456 8.03278L8.53 8.0448L8.604 8.05878L8.676 8.07483L8.748 8.0918L8.821 8.11182L8.89199 8.13281L8.96099 8.15582L9.03099 8.17981L9.101 8.20679L9.168 8.23383L9.234 8.26282L9.30099 8.29382L9.367 8.32678L9.431 8.36078L9.494 8.39581L9.557 8.4328L9.618 8.4718L9.678 8.5108L9.737 8.55182L9.79499 8.59479L9.852 8.63782L9.909 8.68378L9.963 8.7298L10.017 8.77783L10.07 8.82678L10.121 8.87683L10.171 8.92779L10.22 8.98077L10.268 9.03479L10.314 9.0888L10.36 9.14581L10.403 9.20282L10.446 9.2608L10.487 9.31982L10.526 9.37982L10.565 9.44079L10.602 9.50378L10.637 9.56677L10.671 9.6308L10.704 9.69677L10.735 9.76379L10.764 9.82977L10.791 9.89679L10.818 9.96679L10.842 10.0368L10.865 10.1058L10.886 10.1768L10.906 10.2498L10.923 10.3218L10.939 10.3938L10.953 10.4678L10.965 10.5418L10.976 10.6158L10.985 10.6918L10.991 10.7688L10.996 10.8448L10.999 10.9208L11 10.9978L10.999 11.0748L10.996 11.1508L10.991 11.2268L10.985 11.3038L10.976 11.3798L10.965 11.4538L10.953 11.5278L10.939 11.6018L10.923 11.6738L10.906 11.7458L10.886 11.8188L10.865 11.8898L10.842 11.9588L10.818 12.0288L10.791 12.0988L10.764 12.1658L10.735 12.2318L10.704 12.2988L10.671 12.3648L10.637 12.4288L10.602 12.4918L10.565 12.5548L10.526 12.6158L10.487 12.6758L10.446 12.7348L10.403 12.7928L10.36 12.8498L10.314 12.9068L10.268 12.9608L10.22 13.0148L10.171 13.0678L10.121 13.1188L10.07 13.1688L10.017 13.2178L9.963 13.2658L9.909 13.3118L9.852 13.3578L9.79499 13.4008L9.737 13.4438L9.678 13.4848L9.618 13.5238L9.557 13.5628L9.494 13.5998L9.431 13.6348L9.367 13.6688L9.30099 13.7018L9.234 13.7328L9.168 13.7618L9.101 13.7888L9.03099 13.8158L8.96099 13.8398L8.89199 13.8628L8.821 13.8838L8.748 13.9038L8.676 13.9208L8.604 13.9368L8.53 13.9508L8.456 13.9628L8.382 13.9738L8.306 13.9828L8.229 13.9888L8.153 13.9938L8.077 13.9968L8 13.9978L7.923 13.9968L7.847 13.9938L7.771 13.9888L7.694 13.9828L7.618 13.9738L7.544 13.9628L7.47 13.9508L7.396 13.9368L7.324 13.9208L7.252 13.9038L7.179 13.8838L7.108 13.8628L7.039 13.8398L6.969 13.8158L6.899 13.7888L6.832 13.7618L6.766 13.7328L6.699 13.7018L6.633 13.6688L6.569 13.6348L6.506 13.5998L6.443 13.5628L6.382 13.5238L6.322 13.4848L6.263 13.4438L6.205 13.4008L6.148 13.3578L6.091 13.3118L6.037 13.2658L5.983 13.2178L5.93 13.1688L5.879 13.1188L5.829 13.0678L5.78 13.0148L5.732 12.9608L5.686 12.9068L5.64 12.8498L5.597 12.7928L5.554 12.7348L5.513 12.6758L5.474 12.6158L5.435 12.5548L5.398 12.4918L5.363 12.4288L5.329 12.3648L5.296 12.2988L5.265 12.2318L5.236 12.1658L5.209 12.0988L5.182 12.0288L5.158 11.9588L5.135 11.8898L5.114 11.8188L5.094 11.7458L5.077 11.6738L5.061 11.6018L5.047 11.5278L5.035 11.4538L5.024 11.3798L5.015 11.3038L5.009 11.2268L5.004 11.1508L5.001 11.0748L5 10.9978L5.001 10.9208L5.004 10.8448L5.009 10.7688L5.015 10.6918L5.024 10.6158L5.035 10.5418L5.047 10.4678L5.061 10.3938L5.077 10.3218L5.094 10.2498L5.114 10.1768L5.135 10.1058L5.158 10.0368L5.182 9.96679L5.209 9.89679L5.236 9.82977L5.265 9.76379L5.296 9.69677L5.329 9.6308L5.363 9.56677L5.398 9.50378L5.435 9.44079L5.474 9.37982L5.513 9.31982L5.554 9.2608L5.597 9.20282L5.64 9.14581L5.686 9.0888L5.732 9.03479L5.78 8.98077L5.829 8.92779L5.879 8.87683L5.93 8.82678L5.983 8.77783L6.037 8.7298L6.091 8.68378L6.148 8.63782L6.205 8.59479L6.263 8.55182L6.322 8.5108L6.382 8.4718L6.443 8.4328L6.506 8.39581L6.569 8.36078L6.633 8.32678L6.699 8.29382L6.766 8.26282L6.832 8.23383L6.899 8.20679L6.969 8.17981L7.039 8.15582L7.108 8.13281L7.179 8.11182L7.252 8.0918L7.324 8.07483L7.396 8.05878L7.47 8.0448L7.544 8.03278L7.618 8.02179L7.694 8.01282L7.771 8.00677L7.847 8.00183L7.923 7.99878L8 7.9978L8.077 7.99878ZM7.948 8.99878L7.897 9.00079L7.846 9.00378L7.796 9.00781L7.745 9.01379L7.696 9.02081L7.646 9.02881L7.597 9.03882L7.549 9.04883L7.5 9.06079L7.453 9.07379L7.406 9.08783L7.359 9.10278L7.313 9.11877L7.267 9.13678L7.222 9.15478L7.177 9.1748L7.133 9.19482L7.09 9.21679L7.047 9.2398L7.005 9.26281L6.963 9.28778L6.922 9.3128L6.882 9.33978L6.843 9.36682L6.804 9.39581L6.766 9.4248L6.728 9.45477L6.691 9.48578L6.656 9.51782L6.62 9.55078L6.586 9.5838L6.553 9.61779L6.52 9.65381L6.488 9.68878L6.457 9.72583L6.427 9.76379L6.398 9.80182L6.369 9.84082L6.342 9.87982L6.315 9.9198L6.29 9.96081L6.265 10.0028L6.242 10.0448L6.219 10.0878L6.197 10.1308L6.177 10.1748L6.157 10.2198L6.139 10.2648L6.121 10.3108L6.105 10.3568L6.09 10.4038L6.076 10.4508L6.063 10.4978L6.051 10.5468L6.041 10.5948L6.031 10.6438L6.023 10.6938L6.016 10.7428L6.01 10.7938L6.006 10.8438L6.003 10.8948L6.001 10.9458L6 10.9978L6.001 11.0498L6.003 11.1008L6.006 11.1518L6.01 11.2018L6.016 11.2528L6.023 11.3018L6.031 11.3518L6.041 11.4008L6.051 11.4488L6.063 11.4978L6.076 11.5448L6.09 11.5918L6.105 11.6388L6.121 11.6848L6.139 11.7308L6.157 11.7758L6.177 11.8208L6.197 11.8648L6.219 11.9078L6.242 11.9508L6.265 11.9928L6.29 12.0348L6.315 12.0758L6.342 12.1158L6.369 12.1548L6.398 12.1938L6.427 12.2318L6.457 12.2698L6.488 12.3068L6.52 12.3418L6.553 12.3778L6.586 12.4118L6.62 12.4448L6.656 12.4778L6.691 12.5098L6.728 12.5408L6.766 12.5708L6.804 12.5998L6.843 12.6288L6.882 12.6558L6.922 12.6828L6.963 12.7078L7.005 12.7328L7.047 12.7558L7.09 12.7788L7.133 12.8008L7.177 12.8208L7.222 12.8408L7.267 12.8588L7.313 12.8768L7.359 12.8928L7.406 12.9078L7.453 12.9218L7.5 12.9348L7.549 12.9468L7.597 12.9568L7.646 12.9668L7.696 12.9748L7.745 12.9818L7.796 12.9878L7.846 12.9918L7.897 12.9948L7.948 12.9968L8 12.9978L8.052 12.9968L8.103 12.9948L8.154 12.9918L8.204 12.9878L8.255 12.9818L8.304 12.9748L8.354 12.9668L8.403 12.9568L8.451 12.9468L8.5 12.9348L8.547 12.9218L8.594 12.9078L8.641 12.8928L8.687 12.8768L8.733 12.8588L8.778 12.8408L8.823 12.8208L8.867 12.8008L8.91 12.7788L8.953 12.7558L8.995 12.7328L9.037 12.7078L9.078 12.6828L9.118 12.6558L9.157 12.6288L9.196 12.5998L9.234 12.5708L9.272 12.5408L9.30899 12.5098L9.344 12.4778L9.38 12.4448L9.414 12.4118L9.44699 12.3778L9.48 12.3418L9.512 12.3068L9.543 12.2698L9.573 12.2318L9.602 12.1938L9.631 12.1548L9.658 12.1158L9.685 12.0758L9.70999 12.0348L9.735 11.9928L9.758 11.9508L9.78099 11.9078L9.803 11.8648L9.823 11.8208L9.84299 11.7758L9.861 11.7308L9.879 11.6848L9.895 11.6388L9.91 11.5918L9.924 11.5448L9.937 11.4978L9.949 11.4488L9.959 11.4008L9.969 11.3518L9.977 11.3018L9.984 11.2528L9.99 11.2018L9.994 11.1518L9.997 11.1008L9.999 11.0498L10 10.9978L9.999 10.9458L9.997 10.8948L9.994 10.8438L9.99 10.7938L9.984 10.7428L9.977 10.6938L9.969 10.6438L9.959 10.5948L9.949 10.5468L9.937 10.4978L9.924 10.4508L9.91 10.4038L9.895 10.3568L9.879 10.3108L9.861 10.2648L9.84299 10.2198L9.823 10.1748L9.803 10.1308L9.78099 10.0878L9.758 10.0448L9.735 10.0028L9.70999 9.96081L9.685 9.9198L9.658 9.87982L9.631 9.84082L9.602 9.80182L9.573 9.76379L9.543 9.72583L9.512 9.68878L9.48 9.65381L9.44699 9.61779L9.414 9.5838L9.38 9.55078L9.344 9.51782L9.30899 9.48578L9.272 9.45477L9.234 9.4248L9.196 9.39581L9.157 9.36682L9.118 9.33978L9.078 9.3128L9.037 9.28778L8.995 9.26281L8.953 9.2398L8.91 9.21679L8.867 9.19482L8.823 9.1748L8.778 9.15478L8.733 9.13678L8.687 9.11877L8.641 9.10278L8.594 9.08783L8.547 9.07379L8.5 9.06079L8.451 9.04883L8.403 9.03882L8.354 9.02881L8.304 9.02081L8.255 9.01379L8.204 9.00781L8.154 9.00378L8.103 9.00079L8.052 8.99878L8 8.9978L7.948 8.99878Z" fill="#333333"/>
<path fill-rule="evenodd" clip-rule="evenodd" d="M10.124 14.5521L10.171 14.556L10.218 14.5621L10.265 14.5701L10.312 14.58L10.357 14.593L10.403 14.608L10.447 14.6251L10.491 14.644L10.534 14.665L10.575 14.688L10.616 14.7131L10.678 14.7531L10.748 14.801L10.818 14.8521L10.886 14.9031L10.953 14.9561L11.018 15.011L11.083 15.067L11.145 15.1251L11.206 15.184L11.266 15.246L11.323 15.309L11.379 15.373L11.434 15.439L11.487 15.507L11.537 15.577L11.586 15.649L11.632 15.7211L11.676 15.7971L11.718 15.874L11.757 15.951L11.794 16.0311L11.829 16.113L11.86 16.196L11.889 16.2811L11.914 16.3671L11.936 16.454L11.956 16.542L11.972 16.632L11.984 16.723L11.993 16.814L11.998 16.905L12 16.988V17.998L11.999 18.046L11.995 18.093L11.99 18.1401L11.982 18.1871L11.972 18.2341L11.96 18.28L11.945 18.3251L11.928 18.37L11.91 18.413L11.889 18.456L11.866 18.498L11.841 18.5391L11.815 18.5781L11.786 18.616L11.756 18.6531L11.724 18.688L11.69 18.722L11.655 18.754L11.618 18.784L11.58 18.813L11.541 18.839L11.5 18.8641L11.458 18.887L11.415 18.908L11.372 18.926L11.327 18.943L11.282 18.957L11.236 18.97L11.189 18.98L11.142 18.988L11.095 18.993L11.048 18.9971L11 18.998H5L4.952 18.9971L4.905 18.993L4.858 18.988L4.811 18.98L4.764 18.97L4.718 18.957L4.673 18.943L4.628 18.926L4.585 18.908L4.542 18.887L4.5 18.8641L4.459 18.839L4.42 18.813L4.382 18.784L4.345 18.754L4.31 18.722L4.276 18.688L4.244 18.6531L4.214 18.616L4.185 18.5781L4.159 18.5391L4.134 18.498L4.111 18.456L4.09 18.413L4.072 18.37L4.055 18.3251L4.041 18.28L4.028 18.2341L4.018 18.1871L4.01 18.1401L4.005 18.093L4.001 18.046L4 17.998V16.988L4.002 16.9061L4.007 16.814L4.016 16.723L4.028 16.632L4.044 16.542L4.063 16.454L4.086 16.3671L4.112 16.28L4.14 16.196L4.171 16.113L4.206 16.0311L4.242 15.952L4.282 15.874L4.324 15.7971L4.368 15.7211L4.414 15.649L4.463 15.577L4.513 15.507L4.566 15.439L4.621 15.373L4.677 15.308L4.734 15.246L4.794 15.184L4.855 15.1251L4.917 15.067L4.981 15.011L5.047 14.9561L5.114 14.9031L5.182 14.8521L5.252 14.8021L5.322 14.7531L5.384 14.7131L5.425 14.688L5.466 14.665L5.509 14.644L5.553 14.6251L5.597 14.608L5.642 14.593L5.688 14.58L5.735 14.5701L5.782 14.5621L5.829 14.556L5.876 14.5521L5.924 14.55L5.972 14.551L6.019 14.5541L6.066 14.5601L6.113 14.567L6.16 14.577L6.206 14.5891L6.252 14.603L6.296 14.6201L6.34 14.6381L6.393 14.662L6.44 14.6821L6.489 14.702L6.537 14.722L6.586 14.741L6.634 14.759L6.684 14.7761L6.734 14.793L6.783 14.809L6.833 14.8251L6.884 14.84L6.934 14.8541L6.985 14.868L7.036 14.881L7.088 14.894L7.14 14.905L7.191 14.9161L7.243 14.9271L7.296 14.936L7.349 14.9451L7.402 14.954L7.455 14.9611L7.509 14.968L7.562 14.9741L7.616 14.98L7.671 14.985L7.725 14.9891L7.779 14.9921L7.834 14.9951L7.889 14.996L7.945 14.998H8H8.055L8.111 14.996L8.166 14.9951L8.221 14.9921L8.275 14.9891L8.32899 14.985L8.38399 14.98L8.438 14.9741L8.491 14.968L8.54499 14.9611L8.598 14.954L8.651 14.9451L8.70399 14.936L8.757 14.9271L8.80899 14.9161L8.86 14.905L8.91199 14.894L8.964 14.881L9.01499 14.868L9.06499 14.855L9.116 14.84L9.167 14.8251L9.21699 14.809L9.26599 14.793L9.316 14.7761L9.366 14.759L9.415 14.7401L9.463 14.722L9.511 14.702L9.56 14.6821L9.60699 14.662L9.65999 14.6381L9.70399 14.6201L9.748 14.603L9.79399 14.5891L9.83999 14.577L9.886 14.567L9.93299 14.5601L9.98099 14.5541L10.028 14.551L10.076 14.55L10.124 14.5521ZM5.878 15.585L5.826 15.6201L5.775 15.657L5.726 15.694L5.678 15.7321L5.632 15.7711L5.587 15.8101L5.543 15.85L5.501 15.891L5.461 15.933L5.422 15.975L5.384 16.0181L5.348 16.0621L5.314 16.1071L5.281 16.152L5.25 16.197L5.221 16.244L5.193 16.2911L5.167 16.3381L5.143 16.386L5.121 16.434L5.1 16.483L5.082 16.533L5.065 16.5831L5.05 16.6331L5.037 16.684L5.026 16.736L5.016 16.787L5.009 16.839L5.004 16.892L5.001 16.9451L5 16.998V17.998H11V16.998L10.999 16.9451L10.996 16.892L10.991 16.839L10.984 16.787L10.974 16.736L10.963 16.684L10.95 16.6331L10.935 16.5831L10.918 16.533L10.9 16.483L10.879 16.434L10.857 16.386L10.833 16.3381L10.807 16.2911L10.779 16.244L10.75 16.197L10.719 16.152L10.686 16.1071L10.652 16.0621L10.616 16.0181L10.578 15.975L10.539 15.933L10.499 15.891L10.457 15.85L10.413 15.8101L10.368 15.7711L10.322 15.7321L10.274 15.694L10.225 15.657L10.174 15.6201L10.122 15.585L10.069 15.55L10.01 15.577L9.95 15.603L9.88999 15.628L9.82899 15.652L9.769 15.676L9.707 15.6981L9.64599 15.72L9.58399 15.7421L9.52099 15.762L9.458 15.782L9.395 15.8L9.332 15.8181L9.268 15.835L9.20399 15.852L9.13999 15.8671L9.075 15.882L9.00999 15.8961L8.944 15.9091L8.879 15.921L8.813 15.9321L8.74599 15.9431L8.68 15.952L8.61299 15.9611L8.546 15.968L8.479 15.975L8.411 15.981L8.34299 15.986L8.275 15.991L8.207 15.994L8.138 15.996L8.069 15.998H8H7.931L7.862 15.996L7.793 15.994L7.725 15.991L7.657 15.986L7.589 15.981L7.521 15.975L7.454 15.968L7.387 15.9611L7.32 15.952L7.254 15.9431L7.187 15.9321L7.121 15.921L7.056 15.9091L6.99 15.8961L6.925 15.882L6.86 15.8671L6.796 15.852L6.732 15.835L6.668 15.8181L6.605 15.8L6.542 15.782L6.479 15.762L6.416 15.7421L6.354 15.72L6.293 15.6981L6.231 15.676L6.171 15.652L6.11 15.628L6.05 15.603L5.99 15.577L5.931 15.55L5.878 15.585Z" fill="#333333"/>
<path fill-rule="evenodd" clip-rule="evenodd" d="M20.9949 4.99927C21.5449 4.99927 21.9949 5.44727 21.9949 5.99927C21.9949 8.57626 21.9949 15.4222 21.9949 17.9992C21.9949 18.5512 21.5449 18.9992 20.9949 18.9992C17.5849 18.9992 6.40487 18.9992 2.99487 18.9992C2.44287 18.9992 1.99487 18.5512 1.99487 17.9992C1.99487 15.4222 1.99487 8.57626 1.99487 5.99927C1.99487 5.44727 2.44287 4.99927 2.99487 4.99927C6.40487 4.99927 17.5849 4.99927 20.9949 4.99927ZM19.9949 6.99926H3.99487V16.9992H19.9949V6.99926Z" fill="#333333"/>
</svg>
