<svg width="24" height="24" viewBox="0 0 24 24" fill="none" xmlns="http://www.w3.org/2000/svg">
<path fill-rule="evenodd" clip-rule="evenodd" d="M15.4399 16.14C14.1199 17.3 12.39 18 10.5 18C6.36 18 3 14.64 3 10.5C3 6.36 6.36 3 10.5 3C14.64 3 18 6.36 18 10.5C18 12.39 17.2999 14.1199 16.1399 15.4399C16.1399 15.4399 20.5601 19.85 21.8501 21.15C21.9501 21.24 22 21.37 22 21.5C22 21.63 21.9501 21.76 21.8501 21.85C21.6601 22.05 21.3399 22.05 21.1499 21.85C19.8499 20.56 15.4399 16.14 15.4399 16.14ZM10.5 4C14.09 4 17 6.91 17 10.5C17 14.09 14.09 17 10.5 17C6.91 17 4 14.09 4 10.5C4 6.91 6.91 4 10.5 4ZM15 10.5C15 10.78 14.78 11 14.5 11C12.93 11 8.08 11 6.5 11C6.22 11 6 10.78 6 10.5C6 10.22 6.22 10 6.5 10C8.08 10 12.93 10 14.5 10C14.78 10 15 10.22 15 10.5Z" fill="black"/>
</svg>
