<svg width="24" height="24" viewBox="0 0 24 24" fill="none" xmlns="http://www.w3.org/2000/svg">
<path fill-rule="evenodd" clip-rule="evenodd" d="M18.9998 19.9975C18.9998 20.5475 18.5498 20.9975 17.9998 20.9975C15.4198 20.9975 8.57981 20.9975 5.99982 20.9975C5.44982 20.9975 4.99982 20.5475 4.99982 19.9975C4.99982 17.7375 4.99982 12.2575 4.99982 9.99755C4.99982 9.44555 5.44982 8.99755 5.99982 8.99755C6.86982 8.99755 7.99981 8.99755 7.99981 8.99755C7.99981 8.99755 7.99981 8.06055 7.99981 6.99755C7.99981 5.34056 9.33981 3.99756 10.9998 3.99756C11.6498 3.99756 12.3498 3.99756 12.9998 3.99756C14.6598 3.99756 15.9998 5.34056 15.9998 6.99755C15.9998 8.06055 15.9998 8.99755 15.9998 8.99755C15.9998 8.99755 17.1298 8.99755 17.9998 8.99755C18.5498 8.99755 18.9998 9.44555 18.9998 9.99755C18.9998 12.2575 18.9998 17.7375 18.9998 19.9975ZM17.9998 9.99755H5.99982V19.9975H17.9998V9.99755ZM10.9998 14.9975C10.9998 14.4455 11.4498 13.9975 11.9998 13.9975C12.5498 13.9975 12.9998 14.4455 12.9998 14.9975C12.9998 15.5495 12.5498 15.9975 11.9998 15.9975C11.4498 15.9975 10.9998 15.5495 10.9998 14.9975ZM14.9998 6.99755C14.9998 5.89255 14.1098 4.99756 12.9998 4.99756C12.3598 4.99756 11.6398 4.99756 10.9998 4.99756C9.88981 4.99756 8.99981 5.89255 8.99981 6.99755C8.99981 7.99755 8.99981 8.99755 8.99981 8.99755H14.9998C14.9998 8.99755 14.9998 7.99755 14.9998 6.99755Z" fill="#333333"/>
</svg>
