<svg width="24" height="24" viewBox="0 0 24 24" fill="none" xmlns="http://www.w3.org/2000/svg">
<path d="M17.28 9C17.28 9 19.36 11.598 20.78 13.375C21.02 13.675 21.0699 14.087 20.8999 14.433C20.7399 14.78 20.38 15 20 15C15.86 15 7 15 7 15C7 15 7 19.07 7 21C7 21.55 6.55 22 6 22C5.74 22 5.48004 21.89 5.29004 21.71C5.11004 21.52 5 21.26 5 21C5 17.72 5 7.284 5 4C5 3.735 5.11004 3.48003 5.29004 3.29303C5.48004 3.10503 5.74 3 6 3C8.72 3 16.3 3 20 3C20.38 3 20.7399 3.22002 20.8999 3.56702C21.0699 3.91302 21.02 4.325 20.78 4.625C19.61 6.083 18.45 7.542 17.28 9ZM7 5V13H17.9199C17.9199 13 16.12 10.75 15.22 9.625C14.93 9.259 14.93 8.74 15.22 8.375C16.12 7.25 17.9199 5 17.9199 5C14.2799 5 10.64 5 7 5Z" fill="black"/>
<path d="M6 4V14H20L16 9L20 4H6Z" fill="black" fill-opacity="0.1"/>
</svg>
