<svg width="24" height="24" viewBox="0 0 24 24" fill="none" xmlns="http://www.w3.org/2000/svg">
<path d="M8.5 10L3.5 17.5H21.5L14.5 7L10.5 13L8.5 10Z" fill="black" fill-opacity="0.1"/>
<path fill-rule="evenodd" clip-rule="evenodd" d="M14.916 6.72265C14.8233 6.58355 14.6672 6.5 14.5 6.5C14.3328 6.5 14.1767 6.58355 14.084 6.72265L10.5 12.0986L8.91603 9.72265C8.82329 9.58355 8.66718 9.5 8.5 9.5C8.33282 9.5 8.17671 9.58355 8.08398 9.72265L3.08398 17.2227C2.98169 17.3761 2.97215 17.5734 3.05916 17.7359C3.14617 17.8985 3.3156 18 3.5 18H21.5C21.6844 18 21.8538 17.8985 21.9408 17.7359C22.0278 17.5733 22.0183 17.3761 21.916 17.2226L14.916 6.72265ZM13.7676 17H20.5657L14.5 7.90139L11.1009 13L13.7676 17ZM8.5 10.9014L12.5657 17H4.43426L8.5 10.9014Z" fill="black"/>
</svg>
