<svg width="24" height="24" viewBox="0 0 24 24" fill="none" xmlns="http://www.w3.org/2000/svg">
<path d="M12 3L6 17H18L12 3Z" fill="black" fill-opacity="0.1"/>
<path fill-rule="evenodd" clip-rule="evenodd" d="M12.9191 2.60608C12.7616 2.2384 12.4 2 12 2C11.6 2 11.2384 2.2384 11.0809 2.60608L5.08086 16.6061C4.94845 16.915 4.98012 17.2699 5.16516 17.5505C5.35021 17.8311 5.66386 18 6 18H11V21C11 21.5523 11.4477 22 12 22C12.5523 22 13 21.5523 13 21V18H18C18.3361 18 18.6498 17.8311 18.8348 17.5505C19.0199 17.2699 19.0516 16.915 18.9191 16.6061L12.9191 2.60608ZM12 5.53859L16.4835 16H7.51654L12 5.53859Z" fill="black"/>
</svg>
