<svg width="24" height="24" viewBox="0 0 24 24" fill="none" xmlns="http://www.w3.org/2000/svg">
<path d="M12.5 3.5L6.5 17.5H18.5L12.5 3.5Z" fill="black" fill-opacity="0.1"/>
<path fill-rule="evenodd" clip-rule="evenodd" d="M12.9596 3.30304C12.8808 3.1192 12.7 3 12.5 3C12.3 3 12.1192 3.1192 12.0404 3.30304L6.04043 17.303C5.97422 17.4575 5.99006 17.6349 6.08258 17.7752C6.1751 17.9156 6.33193 18 6.5 18H12V21.5C12 21.7761 12.2239 22 12.5 22C12.7761 22 13 21.7761 13 21.5V18H18.5C18.6681 18 18.8249 17.9156 18.9174 17.7752C19.0099 17.6349 19.0258 17.4575 18.9596 17.303L12.9596 3.30304ZM17.7417 17L12.5 4.7693L7.25827 17H17.7417Z" fill="black"/>
</svg>
