<svg width="24" height="24" viewBox="0 0 24 24" fill="none" xmlns="http://www.w3.org/2000/svg">
<path fill-rule="evenodd" clip-rule="evenodd" d="M14.8321 5.9453C14.6466 5.6671 14.3344 5.5 14 5.5C13.6656 5.5 13.3534 5.6671 13.168 5.9453L10 10.6972L8.83205 8.9453C8.64659 8.6671 8.33435 8.5 8 8.5C7.66565 8.5 7.35342 8.6671 7.16795 8.9453L2.16795 16.4453C1.96338 16.7522 1.94431 17.1467 2.11833 17.4719C2.29235 17.797 2.63121 18 3 18H21C21.3688 18 21.7077 17.797 21.8817 17.4719C22.0557 17.1467 22.0366 16.7522 21.8321 16.4453L14.8321 5.9453ZM13.5352 16H19.1315L14 8.30278L11.2019 12.5L13.5352 16ZM11.1315 16H4.86852L8 11.3028L11.1315 16Z" fill="black"/>
<path d="M8 9.5L3 17H21L14 6.5L10 12.5L8 9.5Z" fill="black" fill-opacity="0.1"/>
</svg>
