<svg width="24" height="24" viewBox="0 0 24 24" fill="none" xmlns="http://www.w3.org/2000/svg">
<rect width="18" height="3" fill="black" fill-opacity="0" transform="translate(4.00061 18) scale(0.888889 1)"/>
<path d="M20.0006 18C20.0006 19.66 16.4157 21 12.0006 21C7.5855 21 4.00061 19.66 4.00061 18" stroke="black" stroke-width="2.11" stroke-miterlimit="100" stroke-linecap="square" stroke-linejoin="bevel"/>
<rect width="18" height="3" fill="black" fill-opacity="0" transform="translate(4.00061 10) scale(0.888889 1)"/>
<path d="M20.0006 10C20.0006 11.66 16.4157 13 12.0006 13C7.5855 13 4.00061 11.66 4.00061 10" stroke="black" stroke-width="2.11" stroke-miterlimit="100" stroke-linecap="square" stroke-linejoin="bevel"/>
<rect width="18" height="3" fill="black" fill-opacity="0" transform="translate(4.00061 14) scale(0.888889 1)"/>
<path d="M20.0006 14C20.0006 15.66 16.4157 17 12.0006 17C7.5855 17 4.00061 15.66 4.00061 14" stroke="black" stroke-width="2.11" stroke-miterlimit="100" stroke-linecap="square" stroke-linejoin="bevel"/>
<rect width="18" height="6" fill="black" fill-opacity="0" transform="translate(4.00061 3) scale(0.888889 1)"/>
<path d="M12.0006 9C16.4189 9 20.0006 7.65685 20.0006 6C20.0006 4.34315 16.4189 3 12.0006 3C7.58233 3 4.00061 4.34315 4.00061 6C4.00061 7.65685 7.58233 9 12.0006 9Z" stroke="black" stroke-width="2.11" stroke-miterlimit="100" stroke-linecap="square" stroke-linejoin="bevel"/>
<rect width="0" height="12" fill="black" fill-opacity="0" transform="translate(4.00061 6) scale(0.888889 1)"/>
<path d="M4.00061 18V6" stroke="black" stroke-width="2.11" stroke-miterlimit="100" stroke-linecap="round" stroke-linejoin="bevel"/>
<rect width="0" height="12" fill="black" fill-opacity="0" transform="translate(20.0006 6) scale(0.888889 1)"/>
<path d="M20.0006 6V18" stroke="black" stroke-width="2.11" stroke-miterlimit="100" stroke-linecap="round" stroke-linejoin="bevel"/>
</svg>
