<svg width="24" height="24" viewBox="0 0 24 24" fill="none" xmlns="http://www.w3.org/2000/svg">
<path fill-rule="evenodd" clip-rule="evenodd" d="M4.93782 17.9903L4.93811 17.9924L4.93782 17.9903ZM4.93839 17.9939V16.945H3.06284V18C3.06284 18.8766 3.5371 19.5437 4.04935 19.9977C4.57198 20.461 5.27001 20.8318 6.04866 21.1235C7.61577 21.7105 9.72048 22.055 12.0006 22.055C14.2807 22.055 16.3855 21.7105 17.9526 21.1235C18.7312 20.8318 19.4292 20.461 19.9519 19.9977C20.4641 19.5437 20.9384 18.8766 20.9384 18V16.945H19.0628V17.9939C19.0583 18.0156 19.0222 18.1355 18.7911 18.3404C18.5036 18.5953 18.0295 18.8708 17.36 19.1215C16.0309 19.6195 14.1356 19.945 12.0006 19.945C9.86563 19.945 7.97034 19.6195 6.64123 19.1215C5.97177 18.8708 5.49764 18.5953 5.21013 18.3404C4.97898 18.1355 4.94294 18.0156 4.93839 17.9939ZM19.0634 17.9903L19.0631 17.9924L19.0634 17.9903Z" fill="black"/>
<path fill-rule="evenodd" clip-rule="evenodd" d="M4.93782 9.99033L4.93811 9.99245L4.93782 9.99033ZM4.93839 9.9939V8.94501H3.06284V10C3.06284 10.8766 3.5371 11.5437 4.04935 11.9977C4.57198 12.461 5.27001 12.8318 6.04866 13.1235C7.61577 13.7105 9.72048 14.055 12.0006 14.055C14.2807 14.055 16.3855 13.7105 17.9526 13.1235C18.7312 12.8318 19.4292 12.461 19.9519 11.9977C20.4641 11.5437 20.9384 10.8766 20.9384 10V8.94501H19.0628V9.9939C19.0583 10.0156 19.0222 10.1355 18.7911 10.3404C18.5036 10.5953 18.0295 10.8707 17.36 11.1215C16.0309 11.6195 14.1356 11.945 12.0006 11.945C9.86563 11.945 7.97034 11.6195 6.64123 11.1215C5.97177 10.8707 5.49764 10.5953 5.21013 10.3404C4.97898 10.1355 4.94294 10.0156 4.93839 9.9939ZM19.0634 9.99033L19.0631 9.99244L19.0634 9.99033Z" fill="black"/>
<path fill-rule="evenodd" clip-rule="evenodd" d="M4.93782 13.9903L4.93811 13.9924L4.93782 13.9903ZM4.93839 13.9939V12.945H3.06284V14C3.06284 14.8766 3.5371 15.5437 4.04935 15.9977C4.57198 16.461 5.27001 16.8318 6.04866 17.1235C7.61577 17.7105 9.72048 18.055 12.0006 18.055C14.2807 18.055 16.3855 17.7105 17.9526 17.1235C18.7312 16.8318 19.4292 16.461 19.9519 15.9977C20.4641 15.5437 20.9384 14.8766 20.9384 14V12.945H19.0628V13.9939C19.0583 14.0156 19.0222 14.1355 18.7911 14.3404C18.5036 14.5953 18.0295 14.8707 17.36 15.1215C16.0309 15.6195 14.1356 15.945 12.0006 15.945C9.86563 15.945 7.97034 15.6195 6.64123 15.1215C5.97177 14.8707 5.49764 14.5953 5.21013 14.3404C4.97898 14.1355 4.94294 14.0156 4.93839 13.9939ZM19.0634 13.9903L19.0631 13.9924L19.0634 13.9903Z" fill="black"/>
<path fill-rule="evenodd" clip-rule="evenodd" d="M4.93779 6.01007L4.93808 6.00801L4.93779 6.01007ZM4.94001 6.00001C4.9495 5.96649 4.99649 5.84996 5.20975 5.66088C5.49712 5.4061 5.97106 5.13052 6.64031 4.87955C7.969 4.38129 9.86422 4.05501 12.0006 4.05501C14.137 4.05501 16.0322 4.38129 17.3609 4.87955C18.0302 5.13052 18.5041 5.4061 18.7915 5.66088C19.0047 5.84996 19.0517 5.9665 19.0612 6.00001C19.0517 6.03353 19.0047 6.15006 18.7915 6.33913C18.5041 6.59391 18.0302 6.8695 17.3609 7.12047C16.0322 7.61873 14.137 7.94501 12.0006 7.94501C9.86422 7.94501 7.969 7.61873 6.64031 7.12047C5.97106 6.8695 5.49712 6.59391 5.20975 6.33913C4.99649 6.15006 4.9495 6.03352 4.94001 6.00001ZM19.0634 6.01007L19.0631 6.00787L19.0634 6.01007ZM19.0632 5.99202L19.0634 5.98994L19.0632 5.99202ZM4.93808 5.99201L4.93779 5.98994L4.93808 5.99201ZM6.04721 2.87783C7.61395 2.2903 9.71873 1.94501 12.0006 1.94501C14.2825 1.94501 16.3873 2.2903 17.954 2.87783C18.7325 3.16975 19.4301 3.54061 19.9524 4.00366C20.4641 4.45734 20.9384 5.12399 20.9384 6.00001C20.9384 6.87603 20.4641 7.54268 19.9524 7.99635C19.4301 8.4594 18.7325 8.83026 17.954 9.12219C16.3873 9.70972 14.2825 10.055 12.0006 10.055C9.71873 10.055 7.61395 9.70972 6.04721 9.12219C5.26874 8.83026 4.57111 8.4594 4.04883 7.99635C3.53713 7.54268 3.06284 6.87603 3.06284 6.00001C3.06284 5.12399 3.53713 4.45734 4.04883 4.00366C4.57111 3.54061 5.26874 3.16975 6.04721 2.87783Z" fill="black"/>
<path fill-rule="evenodd" clip-rule="evenodd" d="M4.00061 4.94501C4.51853 4.94501 4.93839 5.41735 4.93839 6.00001V18C4.93839 18.5827 4.51853 19.055 4.00061 19.055C3.48269 19.055 3.06284 18.5827 3.06284 18V6.00001C3.06284 5.41735 3.48269 4.94501 4.00061 4.94501Z" fill="black"/>
<path fill-rule="evenodd" clip-rule="evenodd" d="M20.0006 4.94501C20.5185 4.94501 20.9384 5.41735 20.9384 6.00001V18C20.9384 18.5827 20.5185 19.055 20.0006 19.055C19.4827 19.055 19.0628 18.5827 19.0628 18V6.00001C19.0628 5.41735 19.4827 4.94501 20.0006 4.94501Z" fill="black"/>
<path d="M4 6V18C4.33333 19 6.4 21 12 21C17.6 21 19.6667 19 20 18V6C19.6667 5 17.6 3 12 3C6.4 3 4.33333 5 4 6Z" fill="black" fill-opacity="0.1"/>
</svg>
