<svg width="24" height="24" viewBox="0 0 24 24" fill="none" xmlns="http://www.w3.org/2000/svg">
<path d="M20.4999 17.5C20.4999 19.16 16.6909 20.5 11.9999 20.5C7.30882 20.5 3.49988 19.16 3.49988 17.5" stroke="black" stroke-width="1.03" stroke-miterlimit="100" stroke-linecap="square" stroke-linejoin="bevel"/>
<path d="M20.4999 9.5C20.4999 11.16 16.6909 12.5 11.9999 12.5C7.30882 12.5 3.49988 11.16 3.49988 9.5" stroke="black" stroke-width="1.03" stroke-miterlimit="100" stroke-linecap="square" stroke-linejoin="bevel"/>
<path d="M20.4999 13.5C20.4999 15.16 16.6909 16.5 11.9999 16.5C7.30882 16.5 3.49988 15.16 3.49988 13.5" stroke="black" stroke-width="1.03" stroke-miterlimit="100" stroke-linecap="square" stroke-linejoin="bevel"/>
<path d="M11.9999 8.5C16.6943 8.5 20.4999 7.15685 20.4999 5.5C20.4999 3.84315 16.6943 2.5 11.9999 2.5C7.30546 2.5 3.49988 3.84315 3.49988 5.5C3.49988 7.15685 7.30546 8.5 11.9999 8.5Z" stroke="black" stroke-width="1.03" stroke-miterlimit="100" stroke-linecap="square" stroke-linejoin="bevel"/>
<path d="M3.49988 17.5V5.5" stroke="black" stroke-width="1.03" stroke-miterlimit="100" stroke-linecap="round" stroke-linejoin="bevel"/>
<path d="M20.4999 5.5V17.5" stroke="black" stroke-width="1.03" stroke-miterlimit="100" stroke-linecap="round" stroke-linejoin="bevel"/>
<path d="M3.5 5.5V17.5C3.83333 18.5 6.4 20.5 12 20.5C17.6 20.5 20.1667 18.5 20.5 17.5V5.5C20.1667 4.5 17.6 2.5 12 2.5C6.4 2.5 3.83333 4.5 3.5 5.5Z" fill="black" fill-opacity="0.1"/>
</svg>
