<?xml version="1.0" encoding="UTF-8" standalone="no"?>
<!DOCTYPE svg PUBLIC "-//W3C//DTD SVG 1.1//EN" "http://www.w3.org/Graphics/SVG/1.1/DTD/svg11.dtd">
<svg width="25px" height="24px" version="1.1" xmlns="http://www.w3.org/2000/svg" xmlns:xlink="http://www.w3.org/1999/xlink" xml:space="preserve" xmlns:serif="http://www.serif.com/" style="fill-rule:evenodd;clip-rule:evenodd;stroke-linejoin:round;stroke-miterlimit:1.41421;">
    <g transform="matrix(1,0,0,1,-1058,-984)">
        <g id="object.regular.lockUnlocked" transform="matrix(0.800768,0,0,0.984948,1058.98,984)">
            <rect x="0" y="0" width="29.971" height="24.367" style="fill:none;"/>
            <g transform="matrix(1.2488,0,0,1.01528,-2516.33,-999.038)">
                <path d="M2034,1004C2034,1004.55 2033.55,1005 2033,1005C2030.42,1005 2023.58,1005 2021,1005C2020.45,1005 2020,1004.55 2020,1004C2020,1001.74 2020,996.26 2020,994C2020,993.448 2020.45,993 2021,993C2021.87,993 2023,993 2023,993C2023,993 2023,990.9 2023,989C2023,987.343 2024.34,986 2026,986C2026.65,986 2027.35,986 2028,986C2029.66,986 2031,987.343 2031,989C2031,989.358 2031,989.702 2031,990C2031,990.265 2030.89,990.52 2030.71,990.707C2030.52,990.895 2030.27,991 2030,991C2029.45,991 2029,990.552 2029,990C2029,989.678 2029,989.322 2029,989C2029,988.448 2028.55,988 2028,988C2027.39,988 2026.61,988 2026,988C2025.45,988 2025,988.448 2025,989C2025,990.459 2025,993 2025,993C2025,993 2030.65,993 2033,993C2033.27,993 2033.52,993.105 2033.71,993.293C2033.89,993.48 2034,993.735 2034,994C2034,996.26 2034,1001.74 2034,1004ZM2032,995L2022,995L2022,1003L2032,1003L2032,995ZM2026,999C2026,998.448 2026.45,998 2027,998C2027.55,998 2028,998.448 2028,999C2028,999.552 2027.55,1000 2027,1000C2026.45,1000 2026,999.552 2026,999C2026,999 2026,999 2026,999Z" style="fill:rgb(51,51,51);"/>
            </g>
        </g>
    </g>
</svg>
