<?xml version="1.0" encoding="UTF-8" standalone="no"?>
<!DOCTYPE svg PUBLIC "-//W3C//DTD SVG 1.1//EN" "http://www.w3.org/Graphics/SVG/1.1/DTD/svg11.dtd">
<svg width="24px" height="24px" version="1.1" xmlns="http://www.w3.org/2000/svg" xmlns:xlink="http://www.w3.org/1999/xlink" xml:space="preserve" xmlns:serif="http://www.serif.com/" style="fill-rule:evenodd;clip-rule:evenodd;stroke-linejoin:round;stroke-miterlimit:1.41421;">
    <g transform="matrix(1,0,0,1,-1557,-1128)">
        <g id="object.real.lockUnlocked" transform="matrix(0.800768,0,0,0.984948,1557,1128)">
            <rect x="0" y="0" width="29.971" height="24.367" style="fill:none;"/>
            <g transform="matrix(1.2488,0,0,1.01528,-2516.33,-999.038)">
                <path d="M2024,994L2023,994C2023,994 2023,991.27 2023,989C2023,987.343 2024.34,986 2026,986C2026.65,986 2027.35,986 2028,986C2029.66,986 2031,987.343 2031,989C2031,989.583 2031,990.128 2031,990.501C2031,990.633 2030.95,990.76 2030.85,990.854C2030.76,990.947 2030.63,991 2030.5,991C2030.5,991 2030.5,991 2030.5,991C2030.37,991 2030.24,990.947 2030.15,990.854C2030.05,990.76 2030,990.633 2030,990.5C2030,990.116 2030,989.558 2030,989C2030,987.895 2029.11,987 2028,987C2027.36,987 2026.64,987 2026,987C2024.89,987 2024,987.895 2024,989C2024,991.069 2024,994 2024,994Z" style="fill:rgb(51,51,51);"/>
            </g>
            <g transform="matrix(0.920169,0,0,0.937184,-39.7644,-805.275)">
                <path d="M69,870.083C69,869.485 68.392,869 67.643,869L51.357,869C50.608,869 50,869.485 50,870.083L50,880.917C50,881.515 50.608,882 51.357,882L67.643,882C68.392,882 69,881.515 69,880.917L69,870.083Z" style="fill:url(#_Linear1);"/>
                <clipPath id="_clip2">
                    <path d="M69,870.083C69,869.485 68.392,869 67.643,869L51.357,869C50.608,869 50,869.485 50,870.083L50,880.917C50,881.515 50.608,882 51.357,882L67.643,882C68.392,882 69,881.515 69,880.917L69,870.083Z"/>
                </clipPath>
                <g clip-path="url(#_clip2)">
                    <g transform="matrix(1.35714,0,0,1.08333,-2691.43,-206.75)">
                        <path d="M2026,999C2026,998.448 2026.45,998 2027,998C2027.55,998 2028,998.448 2028,999C2028,999.552 2027.55,1000 2027,1000C2026.45,1000 2026,999.552 2026,999C2026,999 2026,999 2026,999Z" style="fill:rgb(51,51,51);"/>
                    </g>
                </g>
            </g>
        </g>
    </g>
    <defs>
        <linearGradient id="_Linear1" x1="0" y1="0" x2="1" y2="0" gradientUnits="userSpaceOnUse" gradientTransform="matrix(-27.1429,21.6667,-27.1429,-21.6667,73.0714,861.417)"><stop offset="0" style="stop-color:white;stop-opacity:1"/><stop offset="1" style="stop-color:rgb(102,102,102);stop-opacity:1"/></linearGradient>
    </defs>
</svg>
