<?xml version="1.0" encoding="UTF-8" standalone="no"?><!DOCTYPE svg PUBLIC "-//W3C//DTD SVG 1.1//EN" "http://www.w3.org/Graphics/SVG/1.1/DTD/svg11.dtd"><svg width="100%" height="100%" viewBox="0 0 24 24" version="1.1" xmlns="http://www.w3.org/2000/svg" xmlns:xlink="http://www.w3.org/1999/xlink" xml:space="preserve" xmlns:serif="http://www.serif.com/" style="fill-rule:evenodd;clip-rule:evenodd;stroke-linejoin:round;stroke-miterlimit:1.41421;"><rect id="object.regular.QRCode" x="0" y="0" width="24" height="24" style="fill:none;"/><path d="M22,21c0,0.265 -0.105,0.52 -0.293,0.707c-0.187,0.188 -0.442,0.293 -0.707,0.293c-3.414,0 -14.586,0 -18,0c-0.265,0 -0.52,-0.105 -0.707,-0.293c-0.188,-0.187 -0.293,-0.442 -0.293,-0.707c0,-3.414 0,-14.586 0,-18c0,-0.265 0.105,-0.52 0.293,-0.707c0.187,-0.188 0.442,-0.293 0.707,-0.293c3.414,0 14.586,0 18,0c0.265,0 0.52,0.105 0.707,0.293c0.188,0.187 0.293,0.442 0.293,0.707c0,3.414 0,14.586 0,18Zm-14,-5l-4,0l0,4l4,0l0,-4Zm7,-12l-6,0c0,0 0,2.541 0,4c0,0.265 -0.105,0.52 -0.293,0.707c-0.187,0.188 -0.442,0.293 -0.707,0.293c-1.459,0 -4,0 -4,0l0,6c0,0 2.541,0 4,0c0.552,0 1,0.448 1,1c0,1.459 0,4 0,4l11,0l0,-11c0,0 -2.541,0 -4,0c-0.265,0 -0.52,-0.105 -0.707,-0.293c-0.188,-0.187 -0.293,-0.442 -0.293,-0.707c0,-1.459 0,-4 0,-4Zm-9,13c0.552,0 1,0.448 1,1c0,0.552 -0.448,1 -1,1c-0.552,0 -1,-0.448 -1,-1c0,-0.552 0.448,-1 1,-1Zm14,-13l-4,0l0,4l4,0l0,-4Zm-12,0l-4,0l0,4l4,0l0,-4Zm-2,1c0.552,0 1,0.448 1,1c0,0.552 -0.448,1 -1,1c-0.552,0 -1,-0.448 -1,-1c0,-0.552 0.448,-1 1,-1Zm12,0c0.552,0 1,0.448 1,1c0,0.552 -0.448,1 -1,1c-0.552,0 -1,-0.448 -1,-1c0,-0.552 0.448,-1 1,-1Zm-7.003,11c0,0 0.25,0 0.5,0c0.133,0 0.26,0.053 0.354,0.146c0.093,0.094 0.146,0.221 0.146,0.354c0,0.592 0,1.5 0,1.5c0,0 0.25,0 0.5,0c0.133,0 0.26,0.053 0.354,0.146c0.093,0.094 0.146,0.221 0.146,0.354c0,0.133 -0.053,0.26 -0.146,0.354c-0.094,0.093 -0.221,0.146 -0.354,0.146c-0.305,0 -0.695,0 -1,0c-0.133,0 -0.26,-0.053 -0.353,-0.146c-0.094,-0.094 -0.147,-0.221 -0.147,-0.354c0,-0.25 0,-0.5 0,-0.5c0,0 -0.25,0 -0.5,0c-0.133,0 -0.26,-0.053 -0.353,-0.146c-0.094,-0.094 -0.147,-0.221 -0.147,-0.354c0,-0.559 0,-1.459 0,-2.013c0,-0.129 0.051,-0.253 0.143,-0.344c0.091,-0.092 0.215,-0.143 0.344,-0.143c0,0 0.001,0 0.001,0c0.283,0 0.512,0.229 0.512,0.512c0,0.246 0,0.488 0,0.488Zm7.999,2.498c0,0.277 -0.225,0.502 -0.502,0.502c0,0 -0.001,0 -0.001,0c-0.131,0 -0.258,-0.052 -0.351,-0.145c-0.093,-0.093 -0.145,-0.219 -0.145,-0.351c0,-0.308 0,-0.703 0,-1.011c0,-0.272 0.221,-0.493 0.493,-0.493c0,0 0,0 0.001,0c0.134,0 0.263,0.053 0.358,0.148c0.095,0.095 0.148,0.224 0.148,0.358c-0.001,0.304 -0.001,0.689 -0.001,0.992Zm-2.999,-2.985c0,0.129 -0.051,0.253 -0.143,0.344c-0.091,0.092 -0.215,0.143 -0.344,0.143c-0.254,0 -0.513,0 -0.513,0c0,0 0,0.25 0,0.5c0,0.133 -0.053,0.26 -0.146,0.354c-0.094,0.093 -0.221,0.146 -0.354,0.146c-0.306,0 -0.695,0 -1.001,0c-0.276,0 -0.499,-0.223 -0.499,-0.499c0,-0.001 0,-0.001 0,-0.002c0,-0.276 0.223,-0.499 0.499,-0.499c0.25,0 0.501,0 0.501,0c0,0 0,-0.25 0,-0.5c0,-0.133 0.053,-0.26 0.147,-0.354c0.093,-0.093 0.22,-0.146 0.353,-0.146c0.302,0 0.685,0 0.988,0c0.283,0 0.512,0.229 0.512,0.512c0,0 0,0.001 0,0.001Zm3,-1.513c0,0.552 -0.448,1 -1,1c0,0 0,0 0,0c0,0 0,0.25 0,0.5c0,0.133 -0.053,0.26 -0.146,0.354c-0.094,0.093 -0.221,0.146 -0.354,0.146c-0.133,0 -0.26,-0.053 -0.353,-0.146c-0.094,-0.094 -0.147,-0.221 -0.147,-0.354c0,-0.592 0,-1.5 0,-1.5c0,0 -0.25,0 -0.5,0c-0.133,0 -0.26,-0.053 -0.353,-0.146c-0.094,-0.094 -0.147,-0.221 -0.147,-0.354c0,0 0,-0.001 0,-0.001c0,-0.276 0.223,-0.499 0.499,-0.499c0.555,0 1.446,0 2.001,0c0.133,0 0.26,0.053 0.354,0.146c0.093,0.094 0.146,0.221 0.146,0.354c0,0.153 0,0.326 0,0.5Zm-13,-2c0,0 0.251,0 0.501,0c0.276,0 0.499,0.223 0.499,0.499c0,0.001 0,0.001 0,0.002c0,0.276 -0.223,0.499 -0.499,0.499c-0.25,0 -0.501,0 -0.501,0l0.003,0c0,0 -0.001,0.265 -0.002,0.522c0,0.264 -0.215,0.478 -0.479,0.478c0,0 0,0 0,0c-0.288,0 -0.522,-0.234 -0.522,-0.522c0,-0.556 0,-1.43 0,-1.978c0,-0.133 0.053,-0.26 0.147,-0.354c0.093,-0.093 0.22,-0.146 0.353,-0.146c0.276,0 0.5,0.224 0.5,0.5c0,0.25 0,0.5 0,0.5Zm3,1.5c0,0.133 -0.053,0.26 -0.146,0.354c-0.094,0.093 -0.221,0.146 -0.354,0.146c-0.133,0 -0.26,-0.053 -0.353,-0.146c-0.094,-0.094 -0.147,-0.221 -0.147,-0.354c0,-0.555 0,-1.445 0,-2c0,-0.133 0.053,-0.26 0.147,-0.354c0.093,-0.093 0.22,-0.146 0.353,-0.146c0.133,0 0.26,0.053 0.354,0.146c0.093,0.094 0.146,0.221 0.146,0.354c0,0.555 0,1.445 0,2Zm5.003,-0.5c0,0.552 -0.448,1 -1,1c-0.611,0 -1.389,0 -2,0c-0.552,0 -1,-0.448 -1,-1c0,-0.611 0,-1.389 0,-2c0,-0.552 0.448,-1 1,-1c0.611,0 1.389,0 2,0c0.552,0 1,0.448 1,1c0,0.611 0,1.389 0,2Zm4.496,-1.499c0,0.276 -0.223,0.499 -0.499,0.499c-0.436,0 -1.067,0 -1.504,0c-0.275,0 -0.499,-0.223 -0.499,-0.499c0,-0.001 0,-0.001 0,-0.002c0,-0.276 0.224,-0.499 0.499,-0.499c0.437,0 1.068,0 1.504,0c0.276,0 0.499,0.223 0.499,0.499c0,0.001 0,0.001 0,0.002Zm-5.496,-0.501l-2,0l0,2l2,0l0,-2Zm2.994,-0.499c0,0.276 -0.223,0.499 -0.499,0.499c0,0 0,0 0,0c-0.276,0 -0.499,-0.223 -0.499,-0.499c0,-0.001 0,-0.001 0,-0.002c0,-0.276 0.223,-0.499 0.499,-0.499c0,0 0,0 0,0c0.276,0 0.499,0.223 0.499,0.499c0,0.001 0,0.001 0,0.002Zm-7.997,-0.001c0,0.133 -0.053,0.26 -0.146,0.354c-0.094,0.093 -0.221,0.146 -0.354,0.146c-0.305,0 -0.695,0 -1,0c-0.133,0 -0.26,-0.053 -0.353,-0.146c-0.094,-0.094 -0.147,-0.221 -0.147,-0.354c0,-0.133 0.053,-0.26 0.147,-0.354c0.093,-0.093 0.22,-0.146 0.353,-0.146c0.305,0 0.695,0 1,0c0.133,0 0.26,0.053 0.354,0.146c0.093,0.094 0.146,0.221 0.146,0.354c0,0 0,0 0,0Zm4.003,-4.982c0,-0.137 0.055,-0.269 0.152,-0.366c0.097,-0.097 0.229,-0.152 0.366,-0.152c0.302,0 0.68,0 0.979,0c0.276,0 0.5,0.224 0.5,0.5c0,0.555 0,1.446 0,2.001c0,0.276 -0.223,0.499 -0.499,0.499c0,0 0,0 0,0c-0.276,0 -0.499,-0.223 -0.499,-0.499c0,-0.592 0,-1.501 0,-1.501c0,0 -0.262,0 -0.518,0c-0.128,0 -0.25,-0.051 -0.34,-0.141c-0.09,-0.09 -0.141,-0.212 -0.141,-0.34c0,0 0,-0.001 0,-0.001Zm-1.003,0.482c0,0 0.251,0 0.501,0c0.276,0 0.499,0.223 0.499,0.499c0,0 0,0.001 0,0.001c0,0.276 -0.224,0.5 -0.5,0.5c-0.25,0 -0.5,0 -0.5,0c0,0 0,0.259 0,0.513c0,0.129 -0.051,0.253 -0.143,0.344c-0.091,0.092 -0.215,0.143 -0.344,0.143c0,0 -0.001,0 -0.001,0c-0.283,0 -0.512,-0.229 -0.512,-0.512c0,-0.555 0,-1.436 0,-1.987c0,-0.133 0.053,-0.26 0.147,-0.354c0.094,-0.094 0.221,-0.147 0.354,-0.147c0.001,0 0.001,0 0.002,0c0.132,0 0.259,0.053 0.353,0.147c0.094,0.094 0.146,0.221 0.146,0.353c-0.001,0.25 -0.002,0.5 -0.002,0.5Z" style="fill:#333;"/></svg>