<?xml version="1.0" encoding="UTF-8" standalone="no"?>
<!DOCTYPE svg PUBLIC "-//W3C//DTD SVG 1.1//EN" "http://www.w3.org/Graphics/SVG/1.1/DTD/svg11.dtd">
<svg width="24px" height="24px" version="1.1" xmlns="http://www.w3.org/2000/svg" xmlns:xlink="http://www.w3.org/1999/xlink" xml:space="preserve" xmlns:serif="http://www.serif.com/" style="fill-rule:evenodd;clip-rule:evenodd;stroke-linejoin:round;stroke-miterlimit:1.41421;">
    <g transform="matrix(1,0,0,1,-1509,-1128)">
        <g id="object.real.lock" transform="matrix(0.800768,0,0,0.984948,1509,1128)">
            <rect x="0" y="0" width="29.971" height="24.367" style="fill:none;"/>
            <g transform="matrix(1.2488,0,0,1.01528,-2456.39,-999.038)">
                <path d="M1983,994L1975,994C1975,994 1975,992.5 1975,991C1975,989.343 1976.34,988 1978,988C1978.65,988 1979.35,988 1980,988C1981.66,988 1983,989.343 1983,991C1983,992.5 1983,994 1983,994ZM1982,991C1982,989.895 1981.11,989 1980,989C1979.36,989 1978.64,989 1978,989C1976.89,989 1976,989.895 1976,991C1976,992.392 1976,994 1976,994L1982,994C1982,994 1982,992.392 1982,991Z" style="fill:rgb(51,51,51);"/>
            </g>
            <g transform="matrix(0.920169,0,0,0.937184,-39.7644,-805.275)">
                <path d="M69,870.083C69,869.485 68.392,869 67.643,869L51.357,869C50.608,869 50,869.485 50,870.083L50,880.917C50,881.515 50.608,882 51.357,882L67.643,882C68.392,882 69,881.515 69,880.917L69,870.083Z" style="fill:url(#_Linear1);"/>
                <clipPath id="_clip2">
                    <path d="M69,870.083C69,869.485 68.392,869 67.643,869L51.357,869C50.608,869 50,869.485 50,870.083L50,880.917C50,881.515 50.608,882 51.357,882L67.643,882C68.392,882 69,881.515 69,880.917L69,870.083Z"/>
                </clipPath>
                <g clip-path="url(#_clip2)">
                    <g transform="matrix(1.35714,0,0,1.08333,-2626.29,-206.75)">
                        <path d="M1978,999C1978,998.448 1978.45,998 1979,998C1979.55,998 1980,998.448 1980,999C1980,999.552 1979.55,1000 1979,1000C1978.45,1000 1978,999.552 1978,999C1978,999 1978,999 1978,999Z" style="fill:rgb(51,51,51);"/>
                    </g>
                </g>
            </g>
        </g>
    </g>
    <defs>
        <linearGradient id="_Linear1" x1="0" y1="0" x2="1" y2="0" gradientUnits="userSpaceOnUse" gradientTransform="matrix(-27.1429,21.6667,-27.1429,-21.6667,73.0714,861.417)"><stop offset="0" style="stop-color:white;stop-opacity:1"/><stop offset="1" style="stop-color:rgb(102,102,102);stop-opacity:1"/></linearGradient>
    </defs>
</svg>
