<?xml version="1.0" encoding="UTF-8" standalone="no"?>
<!DOCTYPE svg PUBLIC "-//W3C//DTD SVG 1.1//EN" "http://www.w3.org/Graphics/SVG/1.1/DTD/svg11.dtd">
<svg width="24px" height="24px" version="1.1" xmlns="http://www.w3.org/2000/svg" xmlns:xlink="http://www.w3.org/1999/xlink" xml:space="preserve" xmlns:serif="http://www.serif.com/" style="fill-rule:evenodd;clip-rule:evenodd;stroke-linejoin:round;stroke-miterlimit:1.41421;">
    <g transform="matrix(1,0,0,1,-1102,-1080)">
        <g id="object.filled.champaigne" transform="matrix(1,0,0,1,-466,310)">
            <rect x="1568" y="770" width="24" height="24" style="fill:none;"/>
            <g transform="matrix(1.11811,0,0,0.857143,-1167.07,-70.5714)">
                <rect x="2456" y="997" width="1.789" height="7" style="fill:rgb(51,51,51);"/>
            </g>
            <g transform="matrix(0.75,0,0,2,-263.342,-1219)">
                <path d="M2461.79,1004.5C2461.79,1004.22 2461.19,1004 2460.45,1004L2455.12,1004C2454.39,1004 2453.79,1004.22 2453.79,1004.5C2453.79,1004.78 2454.39,1005 2455.12,1005L2460.45,1005C2461.19,1005 2461.79,1004.78 2461.79,1004.5Z" style="fill:rgb(51,51,51);"/>
            </g>
            <g transform="matrix(1.5,0,0,6,-2105.18,-5166)">
                <rect x="2455.79" y="990.5" width="2" height="1" style="fill:rgb(51,51,51);"/>
            </g>
            <g transform="matrix(1.2,0,0,1,-1369,-262)">
                <path d="M2459.21,1035L2459.25,1035.01L2459.29,1035.01L2459.33,1035.02L2459.37,1035.03L2459.41,1035.04L2459.45,1035.06L2459.49,1035.08L2459.52,1035.1L2459.56,1035.12L2459.6,1035.14L2459.63,1035.17L2459.66,1035.2L2459.7,1035.23L2459.73,1035.26L2459.76,1035.29L2459.78,1035.33L2459.81,1035.37L2459.84,1035.4L2459.86,1035.44L2459.88,1035.49L2459.9,1035.53L2459.92,1035.57L2459.94,1035.62L2459.95,1035.66L2459.96,1035.71L2459.97,1035.76L2459.98,1035.8L2459.99,1035.85L2460,1035.9L2460,1035.95L2460,1036L2460,1041L2460,1041.04L2460,1041.19L2460,1041.35L2459.99,1041.5L2459.99,1041.65L2459.98,1041.8L2459.97,1041.95L2459.96,1042.09L2459.95,1042.24L2459.93,1042.38L2459.92,1042.53L2459.9,1042.67L2459.88,1042.81L2459.87,1042.95L2459.84,1043.09L2459.82,1043.22L2459.8,1043.36L2459.77,1043.49L2459.75,1043.62L2459.72,1043.75L2459.69,1043.88L2459.66,1044.01L2459.63,1044.13L2459.6,1044.25L2459.57,1044.37L2459.53,1044.49L2459.5,1044.61L2459.46,1044.72L2459.42,1044.83L2459.39,1044.94L2459.35,1045.05L2459.3,1045.15L2459.26,1045.26L2459.22,1045.35L2459.18,1045.45L2459.13,1045.55L2459.09,1045.64L2459.04,1045.73L2458.99,1045.82L2458.94,1045.9L2458.89,1045.98L2458.84,1046.06L2458.79,1046.14L2458.74,1046.21L2458.69,1046.28L2458.63,1046.35L2458.58,1046.41L2458.53,1046.47L2458.47,1046.53L2458.41,1046.59L2458.39,1046.61L2458.36,1046.64L2458.33,1046.66L2458.3,1046.69L2458.27,1046.71L2458.24,1046.73L2458.21,1046.75L2458.18,1046.77L2458.15,1046.79L2458.12,1046.81L2458.09,1046.83L2458.06,1046.85L2458.03,1046.86L2458,1046.88L2457.97,1046.89L2457.94,1046.91L2457.91,1046.92L2457.88,1046.93L2457.85,1046.94L2457.82,1046.95L2457.79,1046.96L2457.75,1046.97L2457.72,1046.98L2457.69,1046.98L2457.66,1046.99L2457.63,1046.99L2457.6,1047L2457.56,1047L2457.53,1047L2457.5,1047L2457.47,1047L2457.44,1047L2457.4,1047L2457.37,1046.99L2457.34,1046.99L2457.31,1046.98L2457.28,1046.98L2457.24,1046.97L2457.21,1046.96L2457.18,1046.95L2457.15,1046.94L2457.12,1046.93L2457.09,1046.92L2457.06,1046.91L2457.03,1046.89L2457,1046.88L2456.97,1046.86L2456.94,1046.85L2456.91,1046.83L2456.88,1046.81L2456.85,1046.79L2456.82,1046.77L2456.79,1046.75L2456.76,1046.73L2456.73,1046.71L2456.7,1046.68L2456.67,1046.66L2456.64,1046.64L2456.61,1046.61L2456.58,1046.58L2456.55,1046.56L2456.53,1046.53L2456.47,1046.47L2456.42,1046.41L2456.36,1046.34L2456.31,1046.28L2456.26,1046.2L2456.2,1046.13L2456.15,1046.05L2456.1,1045.97L2456.05,1045.89L2456.01,1045.81L2455.96,1045.72L2455.91,1045.63L2455.86,1045.54L2455.82,1045.44L2455.78,1045.34L2455.73,1045.24L2455.69,1045.14L2455.65,1045.03L2455.61,1044.93L2455.57,1044.82L2455.53,1044.7L2455.5,1044.59L2455.46,1044.47L2455.43,1044.35L2455.39,1044.23L2455.36,1044.11L2455.33,1043.99L2455.3,1043.86L2455.27,1043.73L2455.25,1043.6L2455.22,1043.47L2455.2,1043.34L2455.17,1043.2L2455.15,1043.06L2455.13,1042.92L2455.11,1042.78L2455.1,1042.64L2455.08,1042.5L2455.06,1042.35L2455.05,1042.21L2455.04,1042.06L2455.03,1041.91L2455.02,1041.76L2455.01,1041.61L2455.01,1041.46L2455,1041.31L2455,1041.15L2455,1041L2455,1036L2455,1035.95L2455,1035.9L2455.01,1035.85L2455.02,1035.8L2455.03,1035.76L2455.04,1035.71L2455.05,1035.66L2455.06,1035.62L2455.08,1035.57L2455.1,1035.53L2455.12,1035.49L2455.14,1035.44L2455.16,1035.4L2455.19,1035.37L2455.22,1035.33L2455.24,1035.29L2455.27,1035.26L2455.3,1035.23L2455.34,1035.2L2455.37,1035.17L2455.41,1035.14L2455.44,1035.12L2455.48,1035.1L2455.51,1035.08L2455.55,1035.06L2455.59,1035.04L2455.63,1035.03L2455.67,1035.02L2455.71,1035.01L2455.75,1035.01L2455.79,1035L2455.83,1035L2459.17,1035L2459.21,1035ZM2456.67,1037L2456.67,1040.99L2456.67,1041.13L2456.67,1041.26L2456.67,1041.38L2456.68,1041.51L2456.68,1041.64L2456.69,1041.76L2456.7,1041.88L2456.71,1042.01L2456.72,1042.12L2456.73,1042.24L2456.74,1042.36L2456.76,1042.48L2456.78,1042.59L2456.79,1042.7L2456.81,1042.81L2456.83,1042.92L2456.85,1043.03L2456.87,1043.13L2456.89,1043.23L2456.91,1043.33L2456.93,1043.43L2456.96,1043.53L2456.98,1043.62L2457.01,1043.71L2457.03,1043.8L2457.06,1043.89L2457.09,1043.97L2457.11,1044.05L2457.14,1044.13L2457.17,1044.21L2457.2,1044.28L2457.22,1044.35L2457.25,1044.41L2457.28,1044.48L2457.31,1044.54L2457.34,1044.59L2457.36,1044.65L2457.39,1044.7L2457.42,1044.74L2457.44,1044.79L2457.47,1044.82L2457.49,1044.86L2457.5,1044.87L2457.51,1044.86L2457.53,1044.83L2457.55,1044.79L2457.58,1044.75L2457.61,1044.7L2457.63,1044.65L2457.66,1044.6L2457.69,1044.54L2457.72,1044.48L2457.74,1044.42L2457.77,1044.36L2457.8,1044.29L2457.83,1044.22L2457.86,1044.14L2457.88,1044.06L2457.91,1043.98L2457.94,1043.9L2457.96,1043.82L2457.99,1043.73L2458.01,1043.64L2458.04,1043.54L2458.06,1043.45L2458.09,1043.35L2458.11,1043.25L2458.13,1043.15L2458.15,1043.05L2458.17,1042.94L2458.19,1042.83L2458.2,1042.72L2458.22,1042.61L2458.24,1042.5L2458.25,1042.38L2458.27,1042.27L2458.28,1042.15L2458.29,1042.03L2458.3,1041.91L2458.31,1041.79L2458.32,1041.66L2458.32,1041.54L2458.33,1041.41L2458.33,1041.29L2458.33,1041.16L2458.33,1041.03L2458.33,1037L2456.67,1037Z" style="fill:rgb(51,51,51);"/>
            </g>
        </g>
    </g>
</svg>
