<?xml version="1.0" encoding="UTF-8" standalone="no"?>
<!DOCTYPE svg PUBLIC "-//W3C//DTD SVG 1.1//EN" "http://www.w3.org/Graphics/SVG/1.1/DTD/svg11.dtd">
<svg width="24px" height="24px" version="1.1" xmlns="http://www.w3.org/2000/svg" xmlns:xlink="http://www.w3.org/1999/xlink" xml:space="preserve" xmlns:serif="http://www.serif.com/" style="fill-rule:evenodd;clip-rule:evenodd;stroke-linejoin:round;stroke-miterlimit:1.41421;">
    <g transform="matrix(1,0,0,1,-3043,-984)">
        <g id="object.regular.magnet" transform="matrix(1,0,0,1,1475,214)">
            <rect x="1568" y="770" width="24" height="24" style="fill:none;"/>
            <g transform="matrix(1,0,0,1,-1475,-214)">
                <path d="M3064,997C3064,1001.97 3059.97,1006 3055,1006C3055,1006 3055,1006 3055,1006C3050.03,1006 3046,1001.97 3046,997C3046,993.037 3046,988.863 3046,987C3046,986.735 3046.11,986.48 3046.29,986.293C3046.48,986.105 3046.74,986 3047,986C3048.33,986 3050.67,986 3052,986C3052.26,986 3052.52,986.105 3052.71,986.293C3052.89,986.48 3053,986.735 3053,987C3053,989.136 3053,994.179 3053,997C3053,998.105 3053.89,999 3055,999C3055,999 3055,999 3055,999C3056.11,999 3057,998.105 3057,997C3057,994.179 3057,989.136 3057,987C3057,986.735 3057.11,986.48 3057.29,986.293C3057.48,986.105 3057.74,986 3058,986C3059.33,986 3061.67,986 3063,986C3063.26,986 3063.52,986.105 3063.71,986.293C3063.89,986.48 3064,986.735 3064,987C3064,988.863 3064,993.037 3064,997ZM3051,992L3048,992C3048,992 3048,994.368 3048,997C3048,1000.87 3051.13,1004 3055,1004C3055,1004 3055,1004 3055,1004C3058.87,1004 3062,1000.87 3062,997C3062,994.368 3062,992 3062,992L3059,992C3059,992 3059,994.596 3059,997C3059,999.209 3057.21,1001 3055,1001C3055,1001 3055,1001 3055,1001C3052.79,1001 3051,999.209 3051,997C3051,994.596 3051,992 3051,992ZM3059,988L3059,991L3062,991L3062,988L3059,988ZM3048,988L3048,991L3051,991L3051,988L3048,988Z" style="fill:rgb(51,51,51);"/>
            </g>
        </g>
    </g>
</svg>
