<?xml version="1.0" encoding="UTF-8" standalone="no"?><!DOCTYPE svg PUBLIC "-//W3C//DTD SVG 1.1//EN" "http://www.w3.org/Graphics/SVG/1.1/DTD/svg11.dtd"><svg width="100%" height="100%" viewBox="0 0 24 24" version="1.1" xmlns="http://www.w3.org/2000/svg" xmlns:xlink="http://www.w3.org/1999/xlink" xml:space="preserve" xmlns:serif="http://www.serif.com/" style="fill-rule:evenodd;clip-rule:evenodd;stroke-linejoin:round;stroke-miterlimit:1.41421;"><rect id="object.thin.home" x="0" y="0" width="24" height="24" style="fill:none;"/><path d="M19.376,11.171c0.129,0.147 0.16,0.357 0.079,0.536c-0.081,0.178 -0.259,0.293 -0.455,0.293c-0.892,0 -2,0 -2,0c0,0 0,4.899 0,6.5c0,0.276 -0.224,0.5 -0.5,0.5c-1.707,0 -7.293,0 -9,0c-0.276,0 -0.5,-0.224 -0.5,-0.5c0,-1.601 0,-6.5 0,-6.5c0,0 -1.108,0 -2,0c-0.196,0 -0.374,-0.115 -0.455,-0.293c-0.081,-0.179 -0.051,-0.389 0.079,-0.536c1.67,-1.91 5.742,-6.563 7,-8c0.095,-0.109 0.232,-0.171 0.376,-0.171c0.144,0 0.281,0.062 0.376,0.171c1.258,1.437 5.329,6.09 7,8Zm-3.376,0.829l-8,0l0,6l8,0l0,-6Zm-1,3.5c0,0.133 -0.053,0.26 -0.146,0.354c-0.094,0.093 -0.221,0.146 -0.354,0.146c-0.555,0 -1.445,0 -2,0c-0.133,0 -0.26,-0.053 -0.354,-0.146c-0.093,-0.094 -0.146,-0.221 -0.146,-0.354c0,-0.555 0,-1.445 0,-2c0,-0.133 0.053,-0.26 0.146,-0.354c0.094,-0.093 0.221,-0.146 0.354,-0.146c0.555,0 1.445,0 2,0c0.133,0 0.26,0.053 0.354,0.146c0.093,0.094 0.146,0.221 0.146,0.354c0,0.555 0,1.445 0,2Zm-1,-1.5l-1,0l0,1l1,0l0,-1Zm-7.898,-3l11.796,0l-5.898,-6.741l-5.898,6.741Z" style="fill:#333;"/></svg>