<?xml version="1.0" encoding="UTF-8" standalone="no"?>
<!DOCTYPE svg PUBLIC "-//W3C//DTD SVG 1.1//EN" "http://www.w3.org/Graphics/SVG/1.1/DTD/svg11.dtd">
<svg width="24px" height="24px" version="1.1" xmlns="http://www.w3.org/2000/svg" xmlns:xlink="http://www.w3.org/1999/xlink" xml:space="preserve" xmlns:serif="http://www.serif.com/" style="fill-rule:evenodd;clip-rule:evenodd;stroke-linejoin:round;stroke-miterlimit:1.41421;">
    <g transform="matrix(1,0,0,1,-1535,-1128)">
        <g id="object.real.bell" transform="matrix(0.800768,0,0,0.984948,1535,1128)">
            <rect x="0" y="0" width="29.971" height="24.367" style="fill:none;"/>
            <g transform="matrix(1.2488,0,0,1.01528,-1125.18,-780.752)">
                <path d="M915.835,785C915.946,785.313 916.006,785.649 916.006,786C916.006,787.656 914.662,789 913.006,789C911.35,789 910.006,787.656 910.006,786C910.006,785.649 910.066,785.313 910.177,785L915.835,785Z" style="fill:url(#_Linear1);"/>
            </g>
            <g transform="matrix(1.2488,0,0,1.01528,-1125.18,-780.752)">
                <path d="M915.835,785C915.946,785.313 916.006,785.649 916.006,786C916.006,787.656 914.662,789 913.006,789C911.35,789 910.006,787.656 910.006,786C910.006,785.649 910.066,785.313 910.177,785L915.835,785Z" style="fill:rgb(51,51,51);fill-opacity:0.501961;"/>
            </g>
            <g transform="matrix(1.2488,0,0,1.01528,-1125.18,-779.737)">
                <path d="M920.282,784.553C920.437,784.863 920.421,785.231 920.238,785.526C920.056,785.821 919.734,786 919.388,786C916.32,786 909.69,786 906.623,786C906.276,786 905.955,785.821 905.772,785.526C905.59,785.231 905.573,784.863 905.728,784.553C905.869,784.271 906.017,783.974 906.162,783.685C906.715,782.576 907.003,781.355 907.004,780.116C907.005,778.835 907.006,777.318 907.006,777C907.006,773.689 909.694,771 913.006,771C916.317,771 919.006,773.689 919.006,777C919.006,777 919.006,778.695 919.006,780.111C919.006,781.353 919.295,782.578 919.85,783.689C919.994,783.976 920.142,784.272 920.282,784.553Z" style="fill:url(#_Linear2);"/>
            </g>
            <g transform="matrix(1.2488,0,0,1.01528,-1126.43,-779.737)">
                <path d="M911.001,777.493C911,777.221 910.779,777 910.507,777C910.506,777 910.506,777 910.506,777C910.372,777 910.243,777.053 910.148,777.148C910.054,777.243 910.001,777.372 910.001,777.506C910.002,778.278 910.004,779.742 910.005,780.507C910.006,780.779 910.227,781 910.499,781C910.499,781 910.5,781 910.5,781C910.634,781 910.763,780.947 910.857,780.852C910.952,780.757 911.005,780.628 911.005,780.494C911.004,779.722 911.002,778.258 911.001,777.493Z" style="fill:rgb(51,51,51);"/>
            </g>
        </g>
    </g>
    <defs>
        <linearGradient id="_Linear1" x1="0" y1="0" x2="1" y2="0" gradientUnits="userSpaceOnUse" gradientTransform="matrix(-20,20,-20,-20,923.006,771)"><stop offset="0" style="stop-color:white;stop-opacity:1"/><stop offset="1" style="stop-color:rgb(102,102,102);stop-opacity:1"/></linearGradient>
        <linearGradient id="_Linear2" x1="0" y1="0" x2="1" y2="0" gradientUnits="userSpaceOnUse" gradientTransform="matrix(-20,20,-20,-20,923.006,770)"><stop offset="0" style="stop-color:white;stop-opacity:1"/><stop offset="1" style="stop-color:rgb(102,102,102);stop-opacity:1"/></linearGradient>
    </defs>
</svg>
