<?xml version="1.0" encoding="UTF-8" standalone="no"?>
<!DOCTYPE svg PUBLIC "-//W3C//DTD SVG 1.1//EN" "http://www.w3.org/Graphics/SVG/1.1/DTD/svg11.dtd">
<svg width="24px" height="24px" version="1.1" xmlns="http://www.w3.org/2000/svg" xmlns:xlink="http://www.w3.org/1999/xlink" xml:space="preserve" xmlns:serif="http://www.serif.com/" style="fill-rule:evenodd;clip-rule:evenodd;stroke-linejoin:round;stroke-miterlimit:1.41421;">
    <g transform="matrix(1,0,0,1,-3619,-984)">
        <g id="object.regular.stopwatch" transform="matrix(1,0,0,1,2051,214)">
            <rect x="1568" y="770" width="24" height="24" style="fill:none;"/>
            <g transform="matrix(1,0,0,1,-2051,-214)">
                <path d="M3631,989C3635.41,989 3639,992.585 3639,997C3639,1001.42 3635.41,1005 3631,1005C3626.59,1005 3623,1001.42 3623,997C3623,992.585 3626.59,989 3631,989ZM3631,991C3634.31,991 3637,993.689 3637,997C3637,1000.31 3634.31,1003 3631,1003C3627.69,1003 3625,1000.31 3625,997C3625,993.689 3627.69,991 3631,991ZM3632,997C3632,997.265 3631.89,997.52 3631.71,997.707C3631.25,998.167 3630.34,999.071 3629.71,999.707C3629.52,999.895 3629.26,1000 3629,1000C3628.74,1000 3628.48,999.895 3628.29,999.707C3627.9,999.317 3627.9,998.683 3628.29,998.293C3629.01,997.58 3630,996.586 3630,996.586C3630,996.586 3630,994.349 3630,993C3630,992.448 3630.45,992 3631,992C3631.26,992 3631.52,992.105 3631.71,992.293C3631.89,992.48 3632,992.735 3632,993C3632,994.199 3632,996.152 3632,997ZM3639.71,990.293C3640.1,990.683 3640.1,991.317 3639.71,991.707C3639.32,992.098 3638.68,992.098 3638.29,991.707C3637.71,991.121 3636.88,990.293 3636.29,989.707C3635.9,989.317 3635.9,988.683 3636.29,988.293C3636.68,987.902 3637.32,987.902 3637.71,988.293C3638.29,988.879 3639.12,989.707 3639.71,990.293ZM3634,987C3634,987.265 3633.89,987.52 3633.71,987.707C3633.52,987.895 3633.26,988 3633,988C3631.89,988 3630.11,988 3629,988C3628.74,988 3628.48,987.895 3628.29,987.707C3628.11,987.52 3628,987.265 3628,987C3628,986.735 3628.11,986.48 3628.29,986.293C3628.48,986.105 3628.74,986 3629,986C3630.11,986 3631.89,986 3633,986C3633.26,986 3633.52,986.105 3633.71,986.293C3633.89,986.48 3634,986.735 3634,987C3634,987 3634,987 3634,987Z" style="fill:rgb(51,51,51);"/>
            </g>
        </g>
    </g>
</svg>
