<?xml version="1.0" encoding="UTF-8" standalone="no"?><!DOCTYPE svg PUBLIC "-//W3C//DTD SVG 1.1//EN" "http://www.w3.org/Graphics/SVG/1.1/DTD/svg11.dtd"><svg width="100%" height="100%" viewBox="0 0 24 24" version="1.1" xmlns="http://www.w3.org/2000/svg" xmlns:xlink="http://www.w3.org/1999/xlink" xml:space="preserve" xmlns:serif="http://www.serif.com/" style="fill-rule:evenodd;clip-rule:evenodd;stroke-linejoin:round;stroke-miterlimit:1.41421;"><rect id="object.real.lockUnlocked" x="0" y="0" width="24" height="24" style="fill:none;"/><path d="M9,10l-1,0c0,0 0,-2.73 0,-5c0,-1.657 1.343,-3 3,-3c0.654,0 1.346,0 2,0c1.657,0 3,1.343 3,3c0,0.583 0,1.128 0,1.501c0,0.132 -0.053,0.259 -0.146,0.353c-0.094,0.093 -0.221,0.146 -0.353,0.146c0,0 -0.001,0 -0.001,0c-0.133,0 -0.26,-0.053 -0.354,-0.146c-0.093,-0.094 -0.146,-0.221 -0.146,-0.354c0,-0.384 0,-0.942 0,-1.5c0,-1.105 -0.895,-2 -2,-2c-0.644,0 -1.356,0 -2,0c-1.105,0 -2,0.895 -2,2c0,2.069 0,5 0,5Z" style="fill:#333;"/><path d="M19,10c0,-0.552 -0.448,-1 -1,-1l-12,0c-0.552,0 -1,0.448 -1,1l0,10c0,0.552 0.448,1 1,1l12,0c0.552,0 1,-0.448 1,-1l0,-10Z" style="fill:url(#_Linear1);"/><clipPath id="_clip2"><path d="M19,10c0,-0.552 -0.448,-1 -1,-1l-12,0c-0.552,0 -1,0.448 -1,1l0,10c0,0.552 0.448,1 1,1l12,0c0.552,0 1,-0.448 1,-1l0,-10Z"/></clipPath><g clip-path="url(#_clip2)"><path d="M11,15c0,-0.552 0.448,-1 1,-1c0.552,0 1,0.448 1,1c0,0.552 -0.448,1 -1,1c-0.552,0 -1,-0.448 -1,-1c0,0 0,0 0,0Z" style="fill:#333;"/></g><defs><linearGradient id="_Linear1" x1="0" y1="0" x2="1" y2="0" gradientUnits="userSpaceOnUse" gradientTransform="matrix(-20,20,-20,-20,22,2)"><stop offset="0" style="stop-color:#fff;stop-opacity:1"/><stop offset="1" style="stop-color:#666;stop-opacity:1"/></linearGradient></defs></svg>