<?xml version="1.0" encoding="UTF-8" standalone="no"?>
<!DOCTYPE svg PUBLIC "-//W3C//DTD SVG 1.1//EN" "http://www.w3.org/Graphics/SVG/1.1/DTD/svg11.dtd">
<svg width="24px" height="24px" version="1.1" xmlns="http://www.w3.org/2000/svg" xmlns:xlink="http://www.w3.org/1999/xlink" xml:space="preserve" xmlns:serif="http://www.serif.com/" style="fill-rule:evenodd;clip-rule:evenodd;stroke-linejoin:round;stroke-miterlimit:1.41421;">
    <g transform="matrix(1,0,0,1,-1681,-1032)">
        <g id="object.thin.smartphone" transform="matrix(1,0,0,1,113,262)">
            <rect x="1568" y="770" width="24" height="24" style="fill:none;"/>
            <g transform="matrix(1,0,0,1,-1069,-214)">
                <path d="M2655,1004C2655,1004.53 2654.79,1005.04 2654.41,1005.41C2654.04,1005.79 2653.53,1006 2653,1006C2650.78,1006 2647.22,1006 2645,1006C2644.47,1006 2643.96,1005.79 2643.59,1005.41C2643.21,1005.04 2643,1004.53 2643,1004C2643,1000.17 2643,991.832 2643,988C2643,987.47 2643.21,986.961 2643.59,986.586C2643.96,986.211 2644.47,986 2645,986C2647.22,986 2650.78,986 2653,986C2653.53,986 2654.04,986.211 2654.41,986.586C2654.79,986.961 2655,987.47 2655,988C2655,991.832 2655,1000.17 2655,1004ZM2654,988C2654,987.735 2653.89,987.48 2653.71,987.293C2653.52,987.105 2653.26,987 2653,987C2651.08,987 2646.92,987 2645,987C2644.74,987 2644.48,987.105 2644.29,987.293C2644.11,987.48 2644,987.735 2644,988C2644,991.151 2644,1000.85 2644,1004C2644,1004.26 2644.11,1004.52 2644.29,1004.71C2644.48,1004.89 2644.74,1005 2645,1005C2646.92,1005 2651.08,1005 2653,1005C2653.26,1005 2653.52,1004.89 2653.71,1004.71C2653.89,1004.52 2654,1004.26 2654,1004C2654,1000.85 2654,991.151 2654,988Z" style="fill:rgb(51,51,51);"/>
            </g>
            <g transform="matrix(1.25,0,0,1.16667,-1731.24,-380)">
                <path d="M2652.28,989.145L2652.36,989.151L2652.44,989.162L2652.52,989.177L2652.6,989.197L2652.68,989.22L2652.75,989.247L2652.82,989.278L2652.89,989.312L2652.96,989.35L2653.03,989.391L2653.1,989.436L2653.16,989.484L2653.22,989.534L2653.28,989.589L2653.33,989.645L2653.38,989.704L2653.43,989.766L2653.48,989.831L2653.53,989.898L2653.57,989.968L2653.61,990.039L2653.64,990.113L2653.68,990.191L2653.7,990.268L2653.73,990.348L2653.75,990.429L2653.77,990.513L2653.78,990.596L2653.79,990.682L2653.8,990.77L2653.8,990.847L2653.8,1001.15L2653.8,1001.23L2653.79,1001.32L2653.78,1001.4L2653.77,1001.49L2653.75,1001.57L2653.73,1001.65L2653.7,1001.73L2653.68,1001.81L2653.64,1001.89L2653.61,1001.96L2653.57,1002.03L2653.53,1002.1L2653.48,1002.17L2653.43,1002.23L2653.38,1002.3L2653.33,1002.36L2653.28,1002.41L2653.22,1002.47L2653.16,1002.52L2653.1,1002.56L2653.03,1002.61L2652.96,1002.65L2652.89,1002.69L2652.82,1002.72L2652.75,1002.75L2652.68,1002.78L2652.6,1002.8L2652.52,1002.82L2652.44,1002.84L2652.36,1002.85L2652.28,1002.86L2652.21,1002.86L2645.79,1002.86L2645.72,1002.86L2645.64,1002.85L2645.56,1002.84L2645.48,1002.82L2645.4,1002.8L2645.32,1002.78L2645.25,1002.75L2645.18,1002.72L2645.11,1002.69L2645.04,1002.65L2644.97,1002.61L2644.9,1002.56L2644.84,1002.52L2644.78,1002.47L2644.72,1002.41L2644.67,1002.35L2644.62,1002.3L2644.57,1002.23L2644.52,1002.17L2644.47,1002.1L2644.43,1002.03L2644.39,1001.96L2644.36,1001.89L2644.33,1001.81L2644.3,1001.73L2644.27,1001.65L2644.25,1001.57L2644.23,1001.49L2644.22,1001.4L2644.21,1001.32L2644.2,1001.23L2644.2,1001.15L2644.2,990.845L2644.2,990.769L2644.21,990.684L2644.22,990.598L2644.23,990.513L2644.25,990.429L2644.27,990.348L2644.3,990.268L2644.33,990.189L2644.36,990.113L2644.39,990.039L2644.43,989.968L2644.47,989.898L2644.52,989.831L2644.57,989.766L2644.62,989.704L2644.67,989.646L2644.72,989.588L2644.78,989.534L2644.84,989.484L2644.9,989.436L2644.97,989.391L2645.04,989.35L2645.11,989.312L2645.18,989.278L2645.25,989.247L2645.32,989.22L2645.4,989.196L2645.48,989.177L2645.56,989.162L2645.64,989.151L2645.72,989.145L2645.79,989.143L2652.21,989.143L2652.28,989.145ZM2645.8,990L2645.76,990.001L2645.72,990.004L2645.68,990.01L2645.64,990.017L2645.6,990.027L2645.56,990.039L2645.53,990.052L2645.49,990.067L2645.45,990.085L2645.42,990.103L2645.39,990.124L2645.35,990.146L2645.32,990.17L2645.29,990.196L2645.26,990.223L2645.23,990.251L2645.21,990.281L2645.18,990.312L2645.16,990.344L2645.14,990.378L2645.12,990.413L2645.1,990.449L2645.08,990.486L2645.06,990.523L2645.05,990.562L2645.04,990.602L2645.03,990.643L2645.02,990.684L2645.01,990.727L2645,990.769L2645,990.813L2645,990.857L2645,1001.14L2645,1001.19L2645,1001.23L2645.01,1001.27L2645.02,1001.32L2645.03,1001.36L2645.04,1001.4L2645.05,1001.44L2645.06,1001.48L2645.08,1001.51L2645.1,1001.55L2645.12,1001.59L2645.14,1001.62L2645.16,1001.66L2645.18,1001.69L2645.21,1001.72L2645.23,1001.75L2645.26,1001.78L2645.29,1001.8L2645.32,1001.83L2645.35,1001.85L2645.39,1001.88L2645.42,1001.9L2645.45,1001.92L2645.49,1001.93L2645.53,1001.95L2645.56,1001.96L2645.6,1001.97L2645.64,1001.98L2645.68,1001.99L2645.72,1002L2645.76,1002L2645.8,1002L2652.2,1002L2652.24,1002L2652.28,1002L2652.32,1001.99L2652.36,1001.98L2652.4,1001.97L2652.44,1001.96L2652.47,1001.95L2652.51,1001.93L2652.55,1001.92L2652.58,1001.9L2652.62,1001.88L2652.65,1001.85L2652.68,1001.83L2652.71,1001.8L2652.74,1001.78L2652.77,1001.75L2652.79,1001.72L2652.82,1001.69L2652.84,1001.66L2652.86,1001.62L2652.88,1001.59L2652.9,1001.55L2652.92,1001.51L2652.94,1001.48L2652.95,1001.44L2652.96,1001.4L2652.97,1001.36L2652.98,1001.32L2652.99,1001.27L2653,1001.23L2653,1001.19L2653,1001.14L2653,990.857L2653,990.813L2653,990.769L2652.99,990.727L2652.98,990.684L2652.97,990.643L2652.96,990.602L2652.95,990.562L2652.94,990.523L2652.92,990.486L2652.9,990.449L2652.88,990.413L2652.86,990.378L2652.84,990.344L2652.82,990.312L2652.79,990.281L2652.77,990.251L2652.74,990.223L2652.71,990.196L2652.68,990.17L2652.65,990.146L2652.62,990.124L2652.58,990.103L2652.55,990.085L2652.51,990.067L2652.47,990.052L2652.44,990.039L2652.4,990.027L2652.36,990.017L2652.32,990.01L2652.28,990.004L2652.24,990.001L2652.2,990L2645.8,990Z" style="fill:rgb(51,51,51);"/>
            </g>
        </g>
    </g>
</svg>
