<?xml version="1.0" encoding="UTF-8" standalone="no"?>
<!DOCTYPE svg PUBLIC "-//W3C//DTD SVG 1.1//EN" "http://www.w3.org/Graphics/SVG/1.1/DTD/svg11.dtd">
<svg width="24px" height="24px" version="1.1" xmlns="http://www.w3.org/2000/svg" xmlns:xlink="http://www.w3.org/1999/xlink" xml:space="preserve" xmlns:serif="http://www.serif.com/" style="fill-rule:evenodd;clip-rule:evenodd;stroke-linejoin:round;stroke-miterlimit:1.41421;">
    <g transform="matrix(1,0,0,1,-2899,-1032)">
        <g id="object.thin.magnifyingGlass" transform="matrix(1,0,0,1,1331,262)">
            <rect x="1568" y="770" width="24" height="24" style="fill:none;"/>
            <g transform="matrix(1,0,0,1,-1379,-262)">
                <path d="M2962.44,1048.14C2961.12,1049.3 2959.39,1050 2957.5,1050C2953.36,1050 2950,1046.64 2950,1042.5C2950,1038.36 2953.36,1035 2957.5,1035C2961.64,1035 2965,1038.36 2965,1042.5C2965,1044.39 2964.3,1046.12 2963.14,1047.44C2963.14,1047.44 2967.54,1051.83 2968.85,1053.14C2968.94,1053.23 2968.99,1053.36 2968.99,1053.5C2968.99,1053.64 2968.94,1053.77 2968.85,1053.86C2968.85,1053.86 2968.85,1053.86 2968.84,1053.86C2968.75,1053.95 2968.63,1054.01 2968.5,1054.01C2968.37,1054.01 2968.25,1053.95 2968.16,1053.86C2966.87,1052.58 2962.44,1048.14 2962.44,1048.14ZM2957.5,1036C2961.09,1036 2964,1038.91 2964,1042.5C2964,1046.09 2961.09,1049 2957.5,1049C2953.91,1049 2951,1046.09 2951,1042.5C2951,1038.91 2953.91,1036 2957.5,1036Z" style="fill:rgb(51,51,51);"/>
            </g>
        </g>
    </g>
</svg>
