<?xml version="1.0" encoding="UTF-8" standalone="no"?>
<!DOCTYPE svg PUBLIC "-//W3C//DTD SVG 1.1//EN" "http://www.w3.org/Graphics/SVG/1.1/DTD/svg11.dtd">
<svg width="24px" height="24px" version="1.1" xmlns="http://www.w3.org/2000/svg" xmlns:xlink="http://www.w3.org/1999/xlink" xml:space="preserve" xmlns:serif="http://www.serif.com/" style="fill-rule:evenodd;clip-rule:evenodd;stroke-linejoin:round;stroke-miterlimit:1.41421;">
    <g transform="matrix(1,0,0,1,-2899,-1032)">
        <g id="object.thin.magnifyingGlass" transform="matrix(1,0,0,1,1331,262)">
            <rect x="1568" y="770" width="24" height="24" style="fill:none;"/>
            <g transform="matrix(1,0,0,1,-1331,-262)">
                <path d="M2914.29,1048C2912.88,1049.24 2911.03,1050 2909,1050C2904.59,1050 2901,1046.41 2901,1042C2901,1037.59 2904.59,1034 2909,1034C2913.41,1034 2917,1037.59 2917,1042C2917,1044.03 2916.24,1045.88 2915,1047.29C2915,1047.29 2919.52,1051.81 2920.85,1053.14C2921.05,1053.34 2921.05,1053.66 2920.85,1053.86C2920.85,1053.86 2920.85,1053.86 2920.84,1053.86C2920.65,1054.05 2920.35,1054.05 2920.16,1053.86C2918.85,1052.56 2914.29,1048 2914.29,1048ZM2909,1035C2912.86,1035 2916,1038.14 2916,1042C2916,1045.86 2912.86,1049 2909,1049C2905.14,1049 2902,1045.86 2902,1042C2902,1038.14 2905.14,1035 2909,1035Z" style="fill:rgb(51,51,51);"/>
            </g>
        </g>
    </g>
</svg>
