<?xml version="1.0" encoding="UTF-8" standalone="no"?>
<!DOCTYPE svg PUBLIC "-//W3C//DTD SVG 1.1//EN" "http://www.w3.org/Graphics/SVG/1.1/DTD/svg11.dtd">
<svg width="24px" height="24px" version="1.1" xmlns="http://www.w3.org/2000/svg" xmlns:xlink="http://www.w3.org/1999/xlink" xml:space="preserve" xmlns:serif="http://www.serif.com/" style="fill-rule:evenodd;clip-rule:evenodd;stroke-linejoin:round;stroke-miterlimit:1.41421;">
    <g transform="matrix(1,0,0,1,-3331,-984)">
        <g id="object.regular.anchor" transform="matrix(1,0,0,1,1763,214)">
            <rect x="1568" y="770" width="24" height="24" style="fill:none;"/>
            <g transform="matrix(1,0,0,1,-1763,-214)">
                <path d="M3347,997.5C3347,997.367 3347.05,997.24 3347.15,997.146C3347.24,997.053 3347.37,997 3347.5,997C3348.12,997 3349.2,997 3350,997C3350.55,997 3351,997.448 3351,998C3351,998 3351,998 3351,998C3351,1002.42 3347.41,1006 3343,1006C3338.59,1006 3335,1002.42 3335,998C3335,998 3335,998 3335,997.999C3335,997.447 3335.45,997 3336,997C3336.8,997 3337.88,997 3338.5,997C3338.63,997 3338.76,997.053 3338.85,997.146C3338.95,997.24 3339,997.367 3339,997.5C3339,997.633 3338.95,997.76 3338.85,997.854C3338.76,997.947 3338.63,998 3338.5,998C3337.91,998 3337,998 3337,998C3337,1000.97 3339.16,1003.44 3342,1003.92L3342,995C3342,995 3341.09,995 3340.5,995C3340.37,995 3340.24,994.947 3340.15,994.854C3340.05,994.76 3340,994.633 3340,994.5C3340,994.367 3340.05,994.24 3340.15,994.146C3340.24,994.053 3340.37,994 3340.5,994C3341.09,994 3342,994 3342,994L3342,991.829C3340.84,991.417 3340,990.305 3340,989C3340,987.344 3341.34,986 3343,986C3344.66,986 3346,987.344 3346,989C3346,990.305 3345.16,991.417 3344,991.829L3344,994C3344,994 3344.91,994 3345.5,994C3345.63,994 3345.76,994.053 3345.85,994.146C3345.95,994.24 3346,994.367 3346,994.5C3346,994.633 3345.95,994.76 3345.85,994.854C3345.76,994.947 3345.63,995 3345.5,995C3344.91,995 3344,995 3344,995L3344,1003.92C3346.84,1003.44 3349,1000.97 3349,998C3349,998 3348.09,998 3347.5,998C3347.37,998 3347.24,997.947 3347.15,997.854C3347.05,997.76 3347,997.633 3347,997.5C3347,997.5 3347,997.5 3347,997.5ZM3343,988C3343.55,988 3344,988.448 3344,989C3344,989.552 3343.55,990 3343,990C3342.45,990 3342,989.552 3342,989C3342,988.448 3342.45,988 3343,988Z" style="fill:rgb(51,51,51);"/>
            </g>
        </g>
    </g>
</svg>
