<?xml version="1.0" encoding="UTF-8" standalone="no"?><!DOCTYPE svg PUBLIC "-//W3C//DTD SVG 1.1//EN" "http://www.w3.org/Graphics/SVG/1.1/DTD/svg11.dtd"><svg width="100%" height="100%" viewBox="0 0 24 24" version="1.1" xmlns="http://www.w3.org/2000/svg" xmlns:xlink="http://www.w3.org/1999/xlink" xml:space="preserve" xmlns:serif="http://www.serif.com/" style="fill-rule:evenodd;clip-rule:evenodd;stroke-linecap:round;stroke-linejoin:round;stroke-miterlimit:1.5;"><rect id="object.real.folder" x="0" y="0" width="24" height="24" style="fill:none;"/><path d="M14.276,4.553c-0.169,-0.339 -0.515,-0.553 -0.894,-0.553c-1.623,0 -5.882,0 -5.882,0l0,3l8,0c0,0 -0.79,-1.581 -1.224,-2.447Z" style="fill:#333;"/><path d="M3,20c-0.265,0 -0.52,-0.105 -0.707,-0.293c-0.188,-0.187 -0.293,-0.442 -0.293,-0.707c0,-2.873 0,-11.127 0,-14c0,-0.552 0.448,-1 1,-1c1.248,0 3.346,0 4.382,0c0.379,0 0.725,0.214 0.894,0.553c0.296,0.592 0.724,1.447 0.724,1.447c0,0 8.954,0 12,0c0.265,0 0.52,0.105 0.707,0.293c0.188,0.187 0.293,0.442 0.293,0.707c0,2.577 0,9.423 0,12c0,0.552 -0.448,1 -1,1c-3.414,0 -14.586,0 -18,0Z" style="fill:url(#_Linear1);"/><path d="M4.5,17.5l6,0" style="fill:none;stroke:#333;stroke-width:1px;"/><path d="M11,17.5c0,-0.276 -0.224,-0.5 -0.5,-0.5c-1.289,0 -4.711,0 -6,0c-0.276,0 -0.5,0.224 -0.5,0.5c0,0.276 0.224,0.5 0.5,0.5c1.289,0 4.711,0 6,0c0.276,0 0.5,-0.224 0.5,-0.5c0,0 0,0 0,0Z" style="fill:#333;"/><defs><linearGradient id="_Linear1" x1="0" y1="0" x2="1" y2="0" gradientUnits="userSpaceOnUse" gradientTransform="matrix(-20,20,-20,-20,22,2)"><stop offset="0" style="stop-color:#fff;stop-opacity:1"/><stop offset="1" style="stop-color:#666;stop-opacity:1"/></linearGradient></defs></svg>