<?xml version="1.0" encoding="UTF-8" standalone="no"?>
<!DOCTYPE svg PUBLIC "-//W3C//DTD SVG 1.1//EN" "http://www.w3.org/Graphics/SVG/1.1/DTD/svg11.dtd">
<svg width="24px" height="24px" version="1.1" xmlns="http://www.w3.org/2000/svg" xmlns:xlink="http://www.w3.org/1999/xlink" xml:space="preserve" xmlns:serif="http://www.serif.com/" style="fill-rule:evenodd;clip-rule:evenodd;stroke-linejoin:round;stroke-miterlimit:1.41421;">
    <g transform="matrix(1,0,0,1,-1967,-1032)">
        <g id="object.thin.lock" transform="matrix(0.800768,0,0,0.984948,1967,1032)">
            <rect x="0" y="0" width="29.971" height="24.367" style="fill:none;"/>
            <g transform="matrix(1.2488,0,0,1.01528,-2456.39,-999.038)">
                <path d="M1986,1004C1986,1004.55 1985.55,1005 1985,1005C1982.42,1005 1975.58,1005 1973,1005C1972.45,1005 1972,1004.55 1972,1004C1972,1001.74 1972,996.26 1972,994C1972,993.448 1972.45,993 1973,993C1973.87,993 1975,993 1975,993C1975,993 1975,992.063 1975,991C1975,989.343 1976.34,988 1978,988C1978.65,988 1979.35,988 1980,988C1981.66,988 1983,989.343 1983,991C1983,992.063 1983,993 1983,993C1983,993 1984.13,993 1985,993C1985.55,993 1986,993.448 1986,994C1986,996.26 1986,1001.74 1986,1004ZM1985,994L1973,994L1973,1004L1985,1004L1985,994ZM1978,999C1978,998.448 1978.45,998 1979,998C1979.55,998 1980,998.448 1980,999C1980,999.552 1979.55,1000 1979,1000C1978.45,1000 1978,999.552 1978,999C1978,999 1978,999 1978,999ZM1982,991C1982,989.895 1981.11,989 1980,989C1979.36,989 1978.64,989 1978,989C1976.89,989 1976,989.895 1976,991C1976,992 1976,993 1976,993L1982,993C1982,993 1982,992 1982,991Z" style="fill:rgb(51,51,51);"/>
            </g>
        </g>
    </g>
</svg>
