<?xml version="1.0" encoding="UTF-8" standalone="no"?><!DOCTYPE svg PUBLIC "-//W3C//DTD SVG 1.1//EN" "http://www.w3.org/Graphics/SVG/1.1/DTD/svg11.dtd"><svg width="100%" height="100%" viewBox="0 0 24 24" version="1.1" xmlns="http://www.w3.org/2000/svg" xmlns:xlink="http://www.w3.org/1999/xlink" xml:space="preserve" xmlns:serif="http://www.serif.com/" style="fill-rule:evenodd;clip-rule:evenodd;stroke-linejoin:round;stroke-miterlimit:1.41421;"><rect id="object.filled.shoppingBag" x="0" y="0" width="24" height="24" style="fill:none;"/><path d="M8.997,7c0,0 0,-1.127 0,-2c0,-0.552 0.448,-1 1,-1c1.11,0 2.89,0 4,0c0.552,0 1,0.448 1,1c0,0.873 0,2 0,2c0,0 1.815,0 3,0c0.552,0 1,0.448 1,1c0,2.211 0,7.59 0,11c0,1.657 -1.343,3 -3,3c-2.362,0 -5.638,0 -7.999,0c-0.796,0 -1.559,-0.316 -2.122,-0.879c-0.563,-0.563 -0.879,-1.326 -0.878,-2.122c0,-3.41 0.001,-8.788 0.002,-10.999c0,-0.552 0.448,-1 1,-1c1.184,0 2.997,0 2.997,0Zm6.003,2.5c0,-0.133 -0.053,-0.26 -0.146,-0.354c-0.094,-0.093 -0.221,-0.146 -0.354,-0.146c-1.13,0 -3.87,0 -5,0c-0.133,0 -0.26,0.053 -0.354,0.146c-0.093,0.094 -0.146,0.221 -0.146,0.354c0,0.133 0.053,0.26 0.146,0.354c0.094,0.093 0.221,0.146 0.354,0.146c1.13,0 3.87,0 5,0c0.133,0 0.26,-0.053 0.354,-0.146c0.093,-0.094 0.146,-0.221 0.146,-0.354c0,0 0,0 0,0Zm-5.003,-4.5l0,2l4,0l0,-2l-4,0Z" style="fill:#333;"/></svg>