<?xml version="1.0" encoding="UTF-8" standalone="no"?>
<!DOCTYPE svg PUBLIC "-//W3C//DTD SVG 1.1//EN" "http://www.w3.org/Graphics/SVG/1.1/DTD/svg11.dtd">
<svg width="24px" height="24px" version="1.1" xmlns="http://www.w3.org/2000/svg" xmlns:xlink="http://www.w3.org/1999/xlink" xml:space="preserve" xmlns:serif="http://www.serif.com/" style="fill-rule:evenodd;clip-rule:evenodd;stroke-linejoin:round;stroke-miterlimit:1.41421;">
    <g transform="matrix(1,0,0,1,-3523,-1032)">
        <g id="object.thin.film" transform="matrix(1,0,0,1,1955,262)">
            <rect x="1568" y="770" width="24" height="24" style="fill:none;"/>
            <g transform="matrix(1,0,0,1,-1955,-262)">
                <path d="M3544,1051C3544,1051.55 3543.55,1052 3543,1052C3539.72,1052 3529.28,1052 3526,1052C3525.45,1052 3525,1051.55 3525,1051C3525,1047.99 3525,1039.01 3525,1036C3525,1035.45 3525.45,1035 3526,1035C3529.28,1035 3539.72,1035 3543,1035C3543.55,1035 3544,1035.45 3544,1036C3544,1039.01 3544,1047.99 3544,1051ZM3530,1051L3530,1048L3526,1048L3526,1051L3530,1051ZM3531,1044L3531,1051L3538,1051L3538,1044L3531,1044ZM3543,1051L3543,1048L3539,1048L3539,1051L3543,1051ZM3530,1044L3526,1044L3526,1047L3530,1047L3530,1044ZM3539,1044L3539,1047L3543,1047L3543,1044L3539,1044ZM3526,1040L3526,1043L3530,1043L3530,1040L3526,1040ZM3538,1043L3538,1036L3531,1036L3531,1043L3538,1043ZM3543,1043L3543,1040L3539,1040L3539,1043L3543,1043ZM3539,1036L3539,1039L3543,1039L3543,1036L3539,1036ZM3526,1039L3530,1039L3530,1036L3526,1036L3526,1039Z" style="fill:rgb(51,51,51);"/>
            </g>
        </g>
    </g>
</svg>
