<?xml version="1.0" encoding="UTF-8" standalone="no"?>
<!DOCTYPE svg PUBLIC "-//W3C//DTD SVG 1.1//EN" "http://www.w3.org/Graphics/SVG/1.1/DTD/svg11.dtd">
<svg width="24px" height="24px" version="1.1" xmlns="http://www.w3.org/2000/svg" xmlns:xlink="http://www.w3.org/1999/xlink" xml:space="preserve" xmlns:serif="http://www.serif.com/" style="fill-rule:evenodd;clip-rule:evenodd;stroke-linejoin:round;stroke-miterlimit:1.41421;">
    <g transform="matrix(1,0,0,1,-981,-1080)">
        <g id="object.filled.creditCardFront" transform="matrix(0.800768,0,0,0.984948,981,1080)">
            <rect x="0" y="0" width="29.971" height="24.367" style="fill:none;"/>
            <g transform="matrix(1.2488,0,0,1.01528,-1797.02,-999.038)">
                <path d="M1441.01,990C1441.01,989.448 1441.45,989 1442.01,989C1445.42,989 1456.59,989 1460.01,989C1460.56,989 1461.01,989.448 1461.01,990C1461.01,992.577 1461.01,999.423 1461.01,1002C1461.01,1002.55 1460.56,1003 1460.01,1003C1456.59,1003 1445.42,1003 1442.01,1003C1441.45,1003 1441.01,1002.55 1441.01,1002C1441.01,999.423 1441.01,992.577 1441.01,990ZM1459,1000C1459,1000.55 1458.55,1001 1458,1001C1457.39,1001 1456.61,1001 1455.99,1001C1455.44,1001 1454.99,1000.55 1454.99,1000C1454.99,999.448 1455.44,999 1455.99,999C1456.61,999 1457.39,999 1458,999C1458.55,999 1459,999.448 1459,1000C1459,1000 1459,1000 1459,1000ZM1448.99,1000.51C1448.99,1000.78 1448.78,1001 1448.51,1001C1447.39,1001 1444.63,1001 1443.5,1001C1443.22,1001 1443,1000.78 1443,1000.5C1443,1000.5 1443,1000.5 1443,1000.5C1443,1000.22 1443.22,1000 1443.5,1000C1444.62,1000 1447.35,1000 1448.48,1000C1448.77,1000 1448.99,1000.23 1448.99,1000.51C1448.99,1000.51 1448.99,1000.51 1448.99,1000.51ZM1458.99,996C1458.99,996.265 1458.89,996.52 1458.7,996.707C1458.51,996.895 1458.26,997 1457.99,997C1455.12,997 1446.87,997 1444,997C1443.45,997 1443,996.554 1443,996.003C1443,995.737 1443.1,995.482 1443.29,995.294C1443.48,995.106 1443.73,995 1444,995C1446.87,995 1455.12,995 1457.99,995C1458.55,995 1458.99,995.448 1458.99,996C1458.99,996 1458.99,996 1458.99,996Z" style="fill:rgb(51,51,51);"/>
            </g>
        </g>
    </g>
</svg>
