<?xml version="1.0" encoding="UTF-8" standalone="no"?><!DOCTYPE svg PUBLIC "-//W3C//DTD SVG 1.1//EN" "http://www.w3.org/Graphics/SVG/1.1/DTD/svg11.dtd"><svg width="100%" height="100%" viewBox="0 0 24 24" version="1.1" xmlns="http://www.w3.org/2000/svg" xmlns:xlink="http://www.w3.org/1999/xlink" xml:space="preserve" xmlns:serif="http://www.serif.com/" style="fill-rule:evenodd;clip-rule:evenodd;stroke-linejoin:round;stroke-miterlimit:1.41421;"><rect id="object.filled.cup" x="0" y="0" width="24" height="24" style="fill:none;"/><path d="M17,9c0,0 0.5,0 1,0c0.265,0 0.52,0.105 0.707,0.293c0.188,0.187 0.293,0.442 0.293,0.707c0,0.573 0,1.313 0,2c0,1.105 -0.895,2 -2,2c0,0 0,0 0,0c0,0 0,0.426 0,1c0,0.796 -0.316,1.559 -0.879,2.121c-0.562,0.563 -1.325,0.879 -2.121,0.879c-1.554,0 -3.446,0 -5,0c-1.657,0 -3,-1.343 -3,-3c0,-2.618 0,-6.262 0,-8c0,-0.552 0.448,-1 1,-1c2.092,0 6.908,0 9,0c0.552,0 1,0.448 1,1c0,0.873 0,2 0,2Zm1,1l-1,0l0,3c0,0 0,0 0,0c0.552,0 1,-0.448 1,-1c0,-0.873 0,-2 0,-2Z" style="fill:#333;"/></svg>