<?xml version="1.0" encoding="UTF-8" standalone="no"?>
<!DOCTYPE svg PUBLIC "-//W3C//DTD SVG 1.1//EN" "http://www.w3.org/Graphics/SVG/1.1/DTD/svg11.dtd">
<svg width="24px" height="24px" version="1.1" xmlns="http://www.w3.org/2000/svg" xmlns:xlink="http://www.w3.org/1999/xlink" xml:space="preserve" xmlns:serif="http://www.serif.com/" style="fill-rule:evenodd;clip-rule:evenodd;stroke-linejoin:round;stroke-miterlimit:1.41421;">
    <g transform="matrix(1,0,0,1,-3427,-1032)">
        <g id="object.thin.inbox" transform="matrix(1,0,0,1,1859,262)">
            <rect x="1568" y="770" width="24" height="24" style="fill:none;"/>
            <g transform="matrix(1,0,0,1,-1859,-262)">
                <path d="M3449,1050C3449,1050.27 3448.89,1050.52 3448.71,1050.71C3448.52,1050.89 3448.26,1051 3448,1051C3444.59,1051 3433.41,1051 3430,1051C3429.74,1051 3429.48,1050.89 3429.29,1050.71C3429.11,1050.52 3429,1050.27 3429,1050C3429,1048.31 3429,1044.96 3429,1044C3429,1043.83 3429.05,1043.65 3429.13,1043.5C3429.74,1042.44 3432.27,1038.01 3433.13,1036.5C3433.31,1036.19 3433.64,1036 3434,1036C3435.92,1036 3442.08,1036 3444,1036C3444.36,1036 3444.69,1036.19 3444.87,1036.5C3445.73,1038.01 3448.26,1042.44 3448.87,1043.5C3448.95,1043.65 3449,1043.83 3449,1044C3449,1044.96 3449,1048.31 3449,1050ZM3433.79,1045L3430,1045L3430,1050L3448,1050L3448,1045L3444.21,1045C3444.21,1045 3443.06,1046.15 3442.5,1046.71C3442.31,1046.89 3442.06,1047 3441.79,1047C3440.63,1047 3437.37,1047 3436.21,1047C3435.94,1047 3435.69,1046.89 3435.5,1046.71C3434.94,1046.15 3433.79,1045 3433.79,1045ZM3444,1037L3434,1037L3430,1044L3430,1044C3430,1044 3432.73,1044 3433.79,1044C3434.06,1044 3434.31,1044.11 3434.5,1044.29C3435.06,1044.85 3436.21,1046 3436.21,1046L3441.79,1046C3441.79,1046 3442.94,1044.85 3443.5,1044.29C3443.69,1044.11 3443.94,1044 3444.21,1044C3445.27,1044 3448,1044 3448,1044L3448,1044L3444,1037ZM3434,1041.5C3434,1041.37 3434.05,1041.24 3434.15,1041.15C3434.24,1041.05 3434.37,1041 3434.5,1041C3436.2,1041 3441.8,1041 3443.5,1041C3443.63,1041 3443.76,1041.05 3443.85,1041.15C3443.95,1041.24 3444,1041.37 3444,1041.5C3444,1041.5 3444,1041.5 3444,1041.5C3444,1041.63 3443.95,1041.76 3443.85,1041.85C3443.76,1041.95 3443.63,1042 3443.5,1042C3441.8,1042 3436.2,1042 3434.5,1042C3434.37,1042 3434.24,1041.95 3434.15,1041.85C3434.05,1041.76 3434,1041.63 3434,1041.5C3434,1041.5 3434,1041.5 3434,1041.5ZM3435,1039.5C3435,1039.37 3435.05,1039.24 3435.15,1039.15C3435.24,1039.05 3435.37,1039 3435.5,1039C3436.93,1039 3441.07,1039 3442.5,1039C3442.63,1039 3442.76,1039.05 3442.85,1039.15C3442.95,1039.24 3443,1039.37 3443,1039.5C3443,1039.5 3443,1039.5 3443,1039.5C3443,1039.63 3442.95,1039.76 3442.85,1039.85C3442.76,1039.95 3442.63,1040 3442.5,1040C3441.07,1040 3436.93,1040 3435.5,1040C3435.37,1040 3435.24,1039.95 3435.15,1039.85C3435.05,1039.76 3435,1039.63 3435,1039.5C3435,1039.5 3435,1039.5 3435,1039.5Z" style="fill:rgb(51,51,51);"/>
            </g>
        </g>
    </g>
</svg>
