<?xml version="1.0" encoding="UTF-8" standalone="no"?>
<!DOCTYPE svg PUBLIC "-//W3C//DTD SVG 1.1//EN" "http://www.w3.org/Graphics/SVG/1.1/DTD/svg11.dtd">
<svg width="24px" height="24px" version="1.1" xmlns="http://www.w3.org/2000/svg" xmlns:xlink="http://www.w3.org/1999/xlink" xml:space="preserve" xmlns:serif="http://www.serif.com/" style="fill-rule:evenodd;clip-rule:evenodd;stroke-linejoin:round;stroke-miterlimit:1.41421;">
    <g transform="matrix(1,0,0,1,-1701,-1080)">
        <g id="object.filled.QRCode" transform="matrix(0.800768,0,0,0.984948,1701,1080)">
            <rect x="0" y="0" width="29.971" height="24.367" style="fill:none;"/>
            <g transform="matrix(1.12392,0,0,0.913754,-268.242,-42.6419)">
                <path d="M262.092,48.893L262.183,48.904L262.273,48.923L262.361,48.949L262.446,48.983L262.529,49.023L262.608,49.07L262.683,49.123L262.753,49.183L262.818,49.248L262.877,49.318L262.93,49.392L262.977,49.471L263.018,49.554L263.051,49.639L263.077,49.727L263.096,49.817L263.107,49.908L263.111,50L263.111,70L263.107,70.092L263.096,70.183L263.077,70.273L263.051,70.361L263.018,70.446L262.977,70.529L262.93,70.608L262.877,70.683L262.818,70.753L262.753,70.818L262.683,70.877L262.608,70.93L262.529,70.977L262.446,71.018L262.361,71.051L262.273,71.077L262.183,71.096L262.092,71.107L262,71.111L242,71.111L241.908,71.107L241.817,71.096L241.727,71.077L241.639,71.051L241.554,71.018L241.471,70.977L241.392,70.93L241.318,70.877L241.248,70.818L241.183,70.753L241.123,70.683L241.07,70.608L241.023,70.529L240.983,70.446L240.949,70.361L240.923,70.273L240.904,70.183L240.893,70.092L240.889,70L240.889,50L240.893,49.908L240.904,49.817L240.923,49.727L240.949,49.639L240.983,49.554L241.023,49.471L241.07,49.392L241.123,49.318L241.183,49.248L241.248,49.183L241.318,49.123L241.392,49.07L241.471,49.023L241.554,48.983L241.639,48.949L241.727,48.923L241.817,48.904L241.908,48.893L242,48.889L262,48.889L262.092,48.893ZM242,50L242,70L262,70L262,50L242,50Z" style="fill:rgb(51,51,51);"/>
            </g>
            <g transform="matrix(1.66507,0,0,1.01528,-1359.94,-828.47)">
                <path d="M822.029,818.001L822.059,818.003L822.088,818.007L822.117,818.012L822.146,818.019L822.175,818.028L822.204,818.038L822.232,818.049L822.26,818.062L822.287,818.076L822.314,818.092L822.34,818.109L822.366,818.128L822.392,818.147L822.417,818.169L822.441,818.191L822.464,818.215L822.487,818.24L822.509,818.266L822.53,818.293L822.551,818.321L822.57,818.351L822.589,818.381L822.607,818.412L822.624,818.444L822.639,818.478L822.654,818.511L822.668,818.546L822.681,818.581L822.693,818.617L822.704,818.654L822.713,818.691L822.722,818.729L822.729,818.767L822.736,818.805L822.741,818.844L822.745,818.882L822.748,818.922L822.749,818.961L822.75,819L822.75,823L822.749,823.039L822.748,823.078L822.745,823.118L822.741,823.156L822.736,823.195L822.729,823.233L822.722,823.271L822.713,823.309L822.704,823.346L822.693,823.383L822.681,823.419L822.668,823.454L822.654,823.489L822.639,823.522L822.624,823.556L822.607,823.588L822.589,823.619L822.57,823.649L822.551,823.679L822.53,823.707L822.509,823.734L822.487,823.76L822.464,823.785L822.441,823.809L822.417,823.831L822.392,823.853L822.366,823.872L822.34,823.891L822.314,823.908L822.287,823.924L822.26,823.938L822.232,823.951L822.204,823.962L822.175,823.972L822.146,823.981L822.117,823.988L822.088,823.993L822.059,823.997L822.029,823.999L822,824L819,824L818.971,823.999L818.941,823.997L818.912,823.993L818.883,823.988L818.854,823.981L818.825,823.972L818.796,823.962L818.768,823.951L818.74,823.938L818.713,823.924L818.686,823.908L818.66,823.891L818.634,823.872L818.608,823.853L818.583,823.831L818.559,823.809L818.536,823.785L818.513,823.76L818.491,823.734L818.47,823.707L818.449,823.679L818.43,823.649L818.411,823.619L818.393,823.588L818.376,823.556L818.361,823.522L818.346,823.489L818.332,823.454L818.319,823.419L818.307,823.383L818.296,823.346L818.287,823.309L818.278,823.271L818.271,823.233L818.264,823.195L818.259,823.156L818.255,823.118L818.252,823.078L818.251,823.039L818.25,823L818.25,819L818.251,818.961L818.252,818.922L818.255,818.882L818.259,818.844L818.264,818.805L818.271,818.767L818.278,818.729L818.287,818.691L818.296,818.654L818.307,818.617L818.319,818.581L818.332,818.546L818.346,818.511L818.361,818.478L818.376,818.444L818.393,818.412L818.411,818.381L818.43,818.351L818.449,818.321L818.47,818.293L818.491,818.266L818.513,818.24L818.536,818.215L818.559,818.191L818.583,818.169L818.608,818.147L818.634,818.128L818.66,818.109L818.686,818.092L818.713,818.076L818.74,818.062L818.768,818.049L818.796,818.038L818.825,818.028L818.854,818.019L818.883,818.012L818.912,818.007L818.941,818.003L818.971,818.001L819,818L822,818L822.029,818.001ZM819,819L819,823L822,823L822,819L819,819Z" style="fill:rgb(51,51,51);"/>
            </g>
            <g transform="matrix(1.66507,0,0,1.01528,-1342.46,-828.47)">
                <path d="M822.029,818.001L822.059,818.003L822.088,818.007L822.117,818.012L822.146,818.019L822.175,818.028L822.204,818.038L822.232,818.049L822.26,818.062L822.287,818.076L822.314,818.092L822.34,818.109L822.366,818.128L822.392,818.147L822.417,818.169L822.441,818.191L822.464,818.215L822.487,818.24L822.509,818.266L822.53,818.293L822.551,818.321L822.57,818.351L822.589,818.381L822.607,818.412L822.624,818.444L822.639,818.478L822.654,818.511L822.668,818.546L822.681,818.581L822.693,818.617L822.704,818.654L822.713,818.691L822.722,818.729L822.729,818.767L822.736,818.805L822.741,818.844L822.745,818.882L822.748,818.922L822.749,818.961L822.75,819L822.75,823L822.749,823.039L822.748,823.078L822.745,823.118L822.741,823.156L822.736,823.195L822.729,823.233L822.722,823.271L822.713,823.309L822.704,823.346L822.693,823.383L822.681,823.419L822.668,823.454L822.654,823.489L822.639,823.522L822.624,823.556L822.607,823.588L822.589,823.619L822.57,823.649L822.551,823.679L822.53,823.707L822.509,823.734L822.487,823.76L822.464,823.785L822.441,823.809L822.417,823.831L822.392,823.853L822.366,823.872L822.34,823.891L822.314,823.908L822.287,823.924L822.26,823.938L822.232,823.951L822.204,823.962L822.175,823.972L822.146,823.981L822.117,823.988L822.088,823.993L822.059,823.997L822.029,823.999L822,824L819,824L818.971,823.999L818.941,823.997L818.912,823.993L818.883,823.988L818.854,823.981L818.825,823.972L818.796,823.962L818.768,823.951L818.74,823.938L818.713,823.924L818.686,823.908L818.66,823.891L818.634,823.872L818.608,823.853L818.583,823.831L818.559,823.809L818.536,823.785L818.513,823.76L818.491,823.734L818.47,823.707L818.449,823.679L818.43,823.649L818.411,823.619L818.393,823.588L818.376,823.556L818.361,823.522L818.346,823.489L818.332,823.454L818.319,823.419L818.307,823.383L818.296,823.346L818.287,823.309L818.278,823.271L818.271,823.233L818.264,823.195L818.259,823.156L818.255,823.118L818.252,823.078L818.251,823.039L818.25,823L818.25,819L818.251,818.961L818.252,818.922L818.255,818.882L818.259,818.844L818.264,818.805L818.271,818.767L818.278,818.729L818.287,818.691L818.296,818.654L818.307,818.617L818.319,818.581L818.332,818.546L818.346,818.511L818.361,818.478L818.376,818.444L818.393,818.412L818.411,818.381L818.43,818.351L818.449,818.321L818.47,818.293L818.491,818.266L818.513,818.24L818.536,818.215L818.559,818.191L818.583,818.169L818.608,818.147L818.634,818.128L818.66,818.109L818.686,818.092L818.713,818.076L818.74,818.062L818.768,818.049L818.796,818.038L818.825,818.028L818.854,818.019L818.883,818.012L818.912,818.007L818.941,818.003L818.971,818.001L819,818L822,818L822.029,818.001ZM819,819L819,823L822,823L822,819L819,819Z" style="fill:rgb(51,51,51);"/>
            </g>
            <g transform="matrix(1.66507,0,0,1.01528,-1359.94,-814.256)">
                <path d="M822.029,818.001L822.059,818.003L822.088,818.007L822.117,818.012L822.146,818.019L822.175,818.028L822.204,818.038L822.232,818.049L822.26,818.062L822.287,818.076L822.314,818.092L822.34,818.109L822.366,818.128L822.392,818.147L822.417,818.169L822.441,818.191L822.464,818.215L822.487,818.24L822.509,818.266L822.53,818.293L822.551,818.321L822.57,818.351L822.589,818.381L822.607,818.412L822.624,818.444L822.639,818.478L822.654,818.511L822.668,818.546L822.681,818.581L822.693,818.617L822.704,818.654L822.713,818.691L822.722,818.729L822.729,818.767L822.736,818.805L822.741,818.844L822.745,818.882L822.748,818.922L822.749,818.961L822.75,819L822.75,823L822.749,823.039L822.748,823.078L822.745,823.118L822.741,823.156L822.736,823.195L822.729,823.233L822.722,823.271L822.713,823.309L822.704,823.346L822.693,823.383L822.681,823.419L822.668,823.454L822.654,823.489L822.639,823.522L822.624,823.556L822.607,823.588L822.589,823.619L822.57,823.649L822.551,823.679L822.53,823.707L822.509,823.734L822.487,823.76L822.464,823.785L822.441,823.809L822.417,823.831L822.392,823.853L822.366,823.872L822.34,823.891L822.314,823.908L822.287,823.924L822.26,823.938L822.232,823.951L822.204,823.962L822.175,823.972L822.146,823.981L822.117,823.988L822.088,823.993L822.059,823.997L822.029,823.999L822,824L819,824L818.971,823.999L818.941,823.997L818.912,823.993L818.883,823.988L818.854,823.981L818.825,823.972L818.796,823.962L818.768,823.951L818.74,823.938L818.713,823.924L818.686,823.908L818.66,823.891L818.634,823.872L818.608,823.853L818.583,823.831L818.559,823.809L818.536,823.785L818.513,823.76L818.491,823.734L818.47,823.707L818.449,823.679L818.43,823.649L818.411,823.619L818.393,823.588L818.376,823.556L818.361,823.522L818.346,823.489L818.332,823.454L818.319,823.419L818.307,823.383L818.296,823.346L818.287,823.309L818.278,823.271L818.271,823.233L818.264,823.195L818.259,823.156L818.255,823.118L818.252,823.078L818.251,823.039L818.25,823L818.25,819L818.251,818.961L818.252,818.922L818.255,818.882L818.259,818.844L818.264,818.805L818.271,818.767L818.278,818.729L818.287,818.691L818.296,818.654L818.307,818.617L818.319,818.581L818.332,818.546L818.346,818.511L818.361,818.478L818.376,818.444L818.393,818.412L818.411,818.381L818.43,818.351L818.449,818.321L818.47,818.293L818.491,818.266L818.513,818.24L818.536,818.215L818.559,818.191L818.583,818.169L818.608,818.147L818.634,818.128L818.66,818.109L818.686,818.092L818.713,818.076L818.74,818.062L818.768,818.049L818.796,818.038L818.825,818.028L818.854,818.019L818.883,818.012L818.912,818.007L818.941,818.003L818.971,818.001L819,818L822,818L822.029,818.001ZM819,819L819,823L822,823L822,819L819,819Z" style="fill:rgb(51,51,51);"/>
            </g>
            <g>
                <g transform="matrix(2.4976,0,0,2.03056,-2045.54,-1663.03)">
                    <circle cx="821.5" cy="821.5" r="0.5" style="fill:rgb(51,51,51);"/>
                </g>
                <g transform="matrix(2.4976,0,0,2.03056,-2028.05,-1663.03)">
                    <circle cx="821.5" cy="821.5" r="0.5" style="fill:rgb(51,51,51);"/>
                </g>
                <g transform="matrix(2.4976,0,0,2.03056,-2045.54,-1648.82)">
                    <circle cx="821.5" cy="821.5" r="0.5" style="fill:rgb(51,51,51);"/>
                </g>
                <g transform="matrix(1.2488,0,0,1.01528,-1904.42,-877.204)">
                    <path d="M1547,885C1547,885.265 1546.9,885.52 1546.71,885.707C1546.52,885.895 1546.27,886 1546,886C1542.59,886 1531.42,886 1528,886C1527.74,886 1527.48,885.895 1527.3,885.707C1527.11,885.52 1527,885.265 1527,885C1527,881.586 1527,870.414 1527,867C1527,866.735 1527.11,866.48 1527.3,866.293C1527.48,866.105 1527.74,866 1528,866C1531.42,866 1542.59,866 1546,866C1546.27,866 1546.52,866.105 1546.71,866.293C1546.9,866.48 1547,866.735 1547,867C1547,870.414 1547,881.586 1547,885ZM1545,883.5C1545,883.367 1544.95,883.24 1544.86,883.146C1544.76,883.053 1544.64,883 1544.5,883C1543.73,883 1542.27,883 1541.5,883C1541.22,883 1541,883.224 1541,883.5C1541,883.633 1541.05,883.76 1541.15,883.854C1541.24,883.947 1541.37,884 1541.5,884C1542.35,884 1544,884 1544,884C1544,884 1544,884.25 1544,884.5C1544,884.776 1544.22,885 1544.5,885C1544.5,885 1544.5,885 1544.5,885C1544.64,885 1544.76,884.947 1544.86,884.854C1544.95,884.76 1545,884.633 1545,884.5C1545,884.195 1545,883.805 1545,883.5ZM1532,881.5C1532,881.367 1531.95,881.24 1531.85,881.146C1531.76,881.053 1531.63,881 1531.5,881C1530.73,881 1529.27,881 1528.5,881C1528.37,881 1528.24,881.053 1528.15,881.146C1528.05,881.24 1528,881.367 1528,881.5C1528,882.269 1528,883.731 1528,884.5C1528,884.633 1528.05,884.76 1528.15,884.854C1528.24,884.947 1528.37,885 1528.5,885C1529.27,885 1530.73,885 1531.5,885C1531.63,885 1531.76,884.947 1531.85,884.854C1531.95,884.76 1532,884.633 1532,884.5C1532,883.731 1532,882.269 1532,881.5ZM1540,883.5C1540,883.367 1539.95,883.24 1539.85,883.146C1539.76,883.053 1539.63,883 1539.5,883C1539.22,883 1539,883.224 1539,883.5C1539,883.75 1539,884 1539,884C1539,884 1538.09,884 1537.5,884C1537.23,884 1537,884.224 1537,884.5C1537,884.633 1537.06,884.76 1537.15,884.854C1537.24,884.947 1537.37,885 1537.5,885C1538.06,885 1538.95,885 1539.5,885C1539.63,885 1539.76,884.947 1539.85,884.854C1539.95,884.76 1540,884.633 1540,884.5C1540,884.195 1540,883.805 1540,883.5ZM1535,883.499C1535,883.223 1534.78,883 1534.5,883C1534.5,883 1534.5,883 1534.5,883C1534.37,883 1534.24,883.053 1534.15,883.146C1534.05,883.24 1534,883.367 1534,883.5C1534,883.776 1534.22,884 1534.5,884C1534.5,884 1534.5,884 1534.5,884C1534.63,884 1534.76,883.947 1534.86,883.853C1534.95,883.759 1535,883.631 1535,883.499C1535,883.499 1535,883.499 1535,883.499ZM1536,879.5C1536,879.224 1535.78,879 1535.5,879C1535.22,879 1535,879.224 1535,879.5C1535,879.75 1535,880 1535,880C1535,880 1534.75,880 1534.5,880C1534.37,880 1534.24,880.053 1534.15,880.146C1534.05,880.24 1534,880.367 1534,880.5C1534,880.805 1534,881.195 1534,881.5C1534,881.633 1534.05,881.76 1534.15,881.854C1534.24,881.947 1534.37,882 1534.5,882C1535.09,882 1536,882 1536,882C1536,882 1536,882.25 1536,882.5C1536,882.633 1536.05,882.76 1536.15,882.854C1536.24,882.947 1536.37,883 1536.5,883C1536.81,883 1537.19,883 1537.5,883C1537.63,883 1537.76,882.947 1537.85,882.854C1537.95,882.76 1538,882.633 1538,882.5C1538,882.224 1537.78,882 1537.5,882C1537.25,882 1537,882 1537,882C1537,882 1537,881.092 1537,880.5C1537,880.367 1536.95,880.24 1536.85,880.146C1536.76,880.053 1536.63,880 1536.5,880C1536.25,880 1536,880 1536,880C1536,880 1536,879.75 1536,879.5ZM1546,881.5C1546,881.224 1545.78,881 1545.5,881C1545.22,881 1545,881.224 1545,881.5C1545,881.776 1545.22,882 1545.5,882C1545.78,882 1546,881.776 1546,881.5C1546,881.5 1546,881.5 1546,881.5ZM1543,880L1543,879C1543,879 1543.25,879 1543.5,879C1543.63,879 1543.76,878.947 1543.85,878.854C1543.95,878.76 1544,878.633 1544,878.5C1544,878.195 1544,877.805 1544,877.5C1544,877.367 1543.95,877.24 1543.85,877.146C1543.76,877.053 1543.63,877 1543.5,877C1542.94,877 1542.06,877 1541.5,877C1541.37,877 1541.24,877.053 1541.15,877.146C1541.05,877.24 1541,877.367 1541,877.5C1541,877.776 1541.22,878 1541.5,878C1541.75,878 1542,878 1542,878C1542,878 1542,878.908 1542,879.5C1542,879.633 1542.05,879.76 1542.15,879.854C1542.24,879.947 1542.37,880 1542.5,880C1542.78,880 1543,879.776 1543,879.5C1543,879.25 1543,879 1543,879C1543,879 1543,880.648 1543,881.501C1543,881.777 1543.22,882 1543.5,882C1543.5,882 1543.5,882 1543.5,882C1543.78,882 1544,881.777 1544,881.501C1544,881.251 1544,881 1544,881C1544,881 1544.25,881 1544.5,881C1544.63,881 1544.76,880.947 1544.85,880.854C1544.95,880.76 1545,880.633 1545,880.5C1545,880.195 1545,879.805 1545,879.5C1545,879.367 1544.95,879.24 1544.85,879.146C1544.76,879.053 1544.63,879 1544.5,879C1544.22,879 1544,879.224 1544,879.5C1544,879.75 1544,880 1544,880C1544,880 1543.75,880 1543.5,880C1543.37,880 1543.24,880.053 1543.15,880.146C1543.05,880.24 1543,880.367 1543,880.5C1543,880.75 1543,881 1543,881M1541,879.5C1541,879.367 1540.95,879.24 1540.85,879.146C1540.76,879.053 1540.63,879 1540.5,879C1540.19,879 1539.81,879 1539.5,879C1539.37,879 1539.24,879.053 1539.15,879.146C1539.05,879.24 1539,879.367 1539,879.5C1539,879.75 1539,880 1539,880C1539,880 1538.75,880 1538.5,880C1538.22,880 1538,880.224 1538,880.5C1538,880.633 1538.05,880.76 1538.15,880.854C1538.24,880.947 1538.37,881 1538.5,881C1538.81,881 1539.19,881 1539.5,881C1539.63,881 1539.76,880.947 1539.85,880.854C1539.95,880.76 1540,880.633 1540,880.5C1540,880.25 1540,880 1540,880C1540,880 1540.25,880 1540.5,880C1540.78,880 1541,879.776 1541,879.5C1541,879.5 1541,879.5 1541,879.5ZM1532,879.499C1532,879.223 1531.78,879 1531.5,879C1531.5,879 1531.5,879 1531.5,879C1531.23,879 1531,879.223 1531,879.498C1531,879.498 1531,879.499 1531,879.5C1531,879.632 1531.05,879.759 1531.15,879.853C1531.24,879.947 1531.37,880 1531.5,880C1531.5,880 1531.5,880 1531.5,880C1531.78,880 1532,879.777 1532,879.501C1532,879.5 1532,879.5 1532,879.499ZM1529,878C1529,878 1529,878.25 1529,878.5C1529,878.776 1529.22,879 1529.5,879C1529.81,879 1530.2,879 1530.5,879C1530.64,879 1530.76,878.947 1530.86,878.854C1530.95,878.76 1531,878.633 1531,878.5C1531,877.908 1531,877 1531,877L1531,877C1531,877 1531.25,877 1531.5,877C1531.78,877 1532,876.776 1532,876.5C1532,876.224 1531.78,876 1531.5,876C1531.25,876 1531,876 1531,876C1531,876 1531,875.749 1531,875.498C1531,875.223 1530.78,875 1530.5,875C1530.5,875 1530.5,875 1530.5,875C1530.23,875 1530,875.223 1530,875.497C1530,876.09 1530,877 1530,877L1529,877C1529,877 1529,876.092 1529,875.5C1529,875.367 1528.95,875.24 1528.86,875.146C1528.76,875.053 1528.64,875 1528.5,875C1528.37,875 1528.24,875.053 1528.15,875.146C1528.06,875.24 1528,875.367 1528,875.5C1528,876.055 1528,876.945 1528,877.5C1528,877.633 1528.06,877.76 1528.15,877.854C1528.24,877.947 1528.37,878 1528.5,878C1528.75,878 1529,878 1529,878ZM1533,878.498C1533,878.223 1532.77,878 1532.5,878C1532.5,878 1532.5,878 1532.5,878C1532.22,878 1532,878.223 1532,878.498C1532,878.499 1532,878.501 1532,878.502C1532,878.777 1532.22,879 1532.5,879C1532.5,879 1532.5,879 1532.5,879C1532.77,879 1533,878.777 1533,878.502C1533,878.501 1533,878.499 1533,878.498ZM1539,875C1539,874.448 1538.56,874 1538,874C1537.39,874 1536.61,874 1536,874C1535.45,874 1535,874.448 1535,875C1535,875.611 1535,876.389 1535,877C1535,877.552 1535.45,878 1536,878C1536.61,878 1537.39,878 1538,878C1538.56,878 1539,877.552 1539,877C1539,876.389 1539,875.611 1539,875ZM1534,875.5C1534,875.367 1533.95,875.24 1533.85,875.146C1533.76,875.053 1533.63,875 1533.5,875C1533.37,875 1533.24,875.053 1533.15,875.146C1533.05,875.24 1533,875.367 1533,875.5C1533,876.055 1533,876.945 1533,877.5C1533,877.633 1533.05,877.76 1533.15,877.854C1533.24,877.947 1533.37,878 1533.5,878C1533.63,878 1533.76,877.947 1533.85,877.854C1533.95,877.76 1534,877.633 1534,877.5C1534,876.945 1534,876.055 1534,875.5ZM1546,874.5C1546,874.367 1545.95,874.24 1545.85,874.146C1545.76,874.053 1545.63,874 1545.5,874C1545.37,874 1545.24,874.053 1545.15,874.146C1545.05,874.24 1545,874.367 1545,874.5C1545,875.055 1545,875.945 1545,876.5C1545,876.633 1545.05,876.76 1545.15,876.854C1545.24,876.947 1545.37,877 1545.5,877C1545.63,877 1545.76,876.947 1545.85,876.854C1545.95,876.76 1546,876.633 1546,876.5C1546,875.945 1546,875.055 1546,874.5ZM1538,876.5C1538,876.633 1537.95,876.76 1537.86,876.854C1537.76,876.947 1537.64,877 1537.5,877C1537.2,877 1536.81,877 1536.5,877C1536.37,877 1536.24,876.947 1536.15,876.854C1536.06,876.76 1536,876.633 1536,876.5C1536,876.195 1536,875.805 1536,875.5C1536,875.367 1536.06,875.24 1536.15,875.146C1536.24,875.053 1536.37,875 1536.5,875C1536.81,875 1537.2,875 1537.5,875C1537.64,875 1537.76,875.053 1537.86,875.146C1537.95,875.24 1538,875.367 1538,875.5C1538,875.805 1538,876.195 1538,876.5ZM1543.5,875.5C1543.5,875.224 1543.28,875 1543,875C1542.56,875 1541.93,875 1541.5,875C1541.22,875 1541,875.224 1541,875.5C1541,875.776 1541.22,876 1541.5,876C1541.93,876 1542.56,876 1543,876C1543.28,876 1543.5,875.776 1543.5,875.5C1543.5,875.5 1543.5,875.5 1543.5,875.5ZM1541,874.499C1541,874.223 1540.77,874 1540.5,874C1540.5,874 1540.5,874 1540.5,874C1540.22,874 1540,874.223 1540,874.499C1540,874.5 1540,874.5 1540,874.501C1540,874.777 1540.22,875 1540.5,875C1540.5,875 1540.5,875 1540.5,875C1540.77,875 1541,874.777 1541,874.501C1541,874.5 1541,874.5 1541,874.499ZM1530,873C1530,873 1529.75,873 1529.5,873C1529.22,873 1529,873.224 1529,873.5C1529,873.633 1529.05,873.76 1529.15,873.854C1529.24,873.947 1529.37,874 1529.5,874C1530.09,874 1531,874 1531,874C1531,874 1531,874.251 1531,874.501C1531,874.777 1531.23,875 1531.5,875C1531.81,875 1532.19,875 1532.5,875C1532.78,875 1533,874.776 1533,874.5C1533,874.25 1533,874 1533,874C1533,874 1533.25,874 1533.5,874C1533.78,874 1534,873.776 1534,873.5C1534,873.367 1533.95,873.24 1533.85,873.146C1533.76,873.053 1533.63,873 1533.5,873C1532.65,873 1531,873 1531,873C1531,873 1531,872.742 1531,872.488C1531,872.216 1530.79,871.995 1530.52,871.988C1530.52,871.988 1530.51,871.988 1530.51,871.988C1530.38,871.984 1530.25,872.035 1530.15,872.129C1530.06,872.223 1530,872.352 1530,872.486C1530,872.743 1530,873 1530,873ZM1544,873C1544,873 1544.91,873 1545.5,873C1545.78,873 1546,872.776 1546,872.5C1546,872.367 1545.95,872.24 1545.85,872.146C1545.76,872.053 1545.63,872 1545.5,872C1544.94,872 1544.06,872 1543.5,872C1543.37,872 1543.24,872.053 1543.15,872.146C1543.05,872.24 1543,872.367 1543,872.5C1543,872.75 1543,873 1543,873C1543,873 1542.75,873 1542.5,873C1542.22,873 1542,873.224 1542,873.5C1542,873.776 1542.22,874 1542.5,874C1542.81,874 1543.19,874 1543.5,874C1543.77,874 1544,873.776 1544,873.5C1544,873.25 1544,873 1544,873ZM1535,872.5C1535,872.224 1534.78,872 1534.5,872C1534.22,872 1534,872.224 1534,872.5C1534,872.776 1534.22,873 1534.5,873C1534.78,873 1535,872.776 1535,872.5C1535,872.5 1535,872.5 1535,872.5ZM1540,867.5C1540,867.224 1539.78,867 1539.5,867C1539.22,867 1539,867.224 1539,867.5L1539,869C1539,869 1538.09,869 1537.5,869C1537.23,869 1537,869.224 1537,869.5C1537,869.776 1537.23,870 1537.5,870C1537.75,870 1538,870 1538,870C1538,870 1538,870.908 1538,871.5C1538,871.633 1538.05,871.76 1538.15,871.854C1538.24,871.947 1538.37,872 1538.5,872C1538.75,872 1539,872 1539,872C1539,872 1539,872.25 1539,872.5C1539,872.776 1539.22,873 1539.5,873C1539.63,873 1539.76,872.947 1539.85,872.854C1539.95,872.76 1540,872.633 1540,872.5C1540,871.647 1540,870 1540,870C1540,870 1540.25,870 1540.5,870C1540.78,870 1541,869.777 1541,869.501C1541,869.369 1540.95,869.241 1540.86,869.147C1540.76,869.053 1540.63,869 1540.5,869C1540.25,869 1540,869 1540,869C1540,869 1540,868.022 1540,868L1540,867.5ZM1537,867.5C1537,867.367 1536.95,867.24 1536.86,867.146C1536.76,867.053 1536.63,867 1536.5,867C1536.2,867 1535.81,867 1535.5,867C1535.22,867 1535,867.224 1535,867.5C1535,867.75 1535,868 1535,868C1535,868 1534.75,868 1534.5,868C1534.37,868 1534.24,868.053 1534.15,868.146C1534.05,868.24 1534,868.367 1534,868.5C1534,868.776 1534.22,869 1534.5,869C1534.75,869 1535,869 1535,869C1535,869 1535,870.643 1535,871.487C1535,871.759 1535.22,871.98 1535.49,871.987C1535.62,871.991 1535.75,871.939 1535.85,871.845C1535.95,871.751 1536,871.622 1536,871.487C1536,871.242 1536,871 1536,871C1536,871 1536.25,871 1536.5,871C1536.78,871 1537,870.776 1537,870.5C1537,870.224 1536.78,870 1536.5,870C1536.25,870 1536,870 1536,870L1536,869C1536,869 1536.25,869 1536.5,869C1536.63,869 1536.76,868.947 1536.86,868.854C1536.95,868.76 1537,868.633 1537,868.5C1537,868.195 1537,867.805 1537,867.5ZM1532,867.5C1532,867.367 1531.95,867.24 1531.85,867.146C1531.76,867.053 1531.63,867 1531.5,867C1530.73,867 1529.27,867 1528.5,867C1528.37,867 1528.24,867.053 1528.15,867.146C1528.05,867.24 1528,867.367 1528,867.5C1528,868.269 1528,869.731 1528,870.5C1528,870.633 1528.05,870.76 1528.15,870.854C1528.24,870.947 1528.37,871 1528.5,871C1529.27,871 1530.73,871 1531.5,871C1531.63,871 1531.76,870.947 1531.85,870.854C1531.95,870.76 1532,870.633 1532,870.5C1532,869.731 1532,868.269 1532,867.5ZM1546,867.5C1546,867.367 1545.95,867.24 1545.85,867.146C1545.76,867.053 1545.63,867 1545.5,867C1544.73,867 1543.27,867 1542.5,867C1542.37,867 1542.24,867.053 1542.15,867.146C1542.05,867.24 1542,867.367 1542,867.5C1542,868.269 1542,869.731 1542,870.5C1542,870.633 1542.05,870.76 1542.15,870.854C1542.24,870.947 1542.37,871 1542.5,871C1543.27,871 1544.73,871 1545.5,871C1545.63,871 1545.76,870.947 1545.85,870.854C1545.95,870.76 1546,870.633 1546,870.5C1546,869.731 1546,868.269 1546,867.5Z" style="fill:rgb(51,51,51);"/>
                </g>
            </g>
        </g>
    </g>
</svg>
