<?xml version="1.0" encoding="UTF-8" standalone="no"?>
<!DOCTYPE svg PUBLIC "-//W3C//DTD SVG 1.1//EN" "http://www.w3.org/Graphics/SVG/1.1/DTD/svg11.dtd">
<svg width="25px" height="24px" version="1.1" xmlns="http://www.w3.org/2000/svg" xmlns:xlink="http://www.w3.org/1999/xlink" xml:space="preserve" xmlns:serif="http://www.serif.com/" style="fill-rule:evenodd;clip-rule:evenodd;stroke-linejoin:round;stroke-miterlimit:1.41421;">
    <g transform="matrix(1,0,0,1,-2064,-1032)">
        <g id="object.thin.camera" transform="matrix(1,0,0,1,496.977,262)">
            <rect x="1568" y="770" width="24" height="24" style="fill:none;"/>
            <g transform="matrix(1,0,0,1,-110,-262)">
                <path d="M1694.73,1037L1694.78,1037.01L1694.83,1037.01L1694.88,1037.02L1694.93,1037.03L1694.97,1037.05L1695.02,1037.06L1695.07,1037.08L1695.12,1037.1L1695.16,1037.13L1695.2,1037.15L1695.25,1037.18L1695.29,1037.21L1695.33,1037.24L1695.36,1037.28L1695.4,1037.31L1696.99,1039L1698,1039L1698.05,1039L1698.1,1039.01L1698.15,1039.01L1698.2,1039.02L1698.24,1039.03L1698.29,1039.04L1698.34,1039.06L1698.38,1039.08L1698.43,1039.1L1698.47,1039.12L1698.51,1039.14L1698.56,1039.17L1698.6,1039.2L1698.63,1039.23L1698.67,1039.26L1698.71,1039.29L1698.74,1039.33L1698.77,1039.37L1698.8,1039.4L1698.83,1039.44L1698.86,1039.49L1698.88,1039.53L1698.9,1039.57L1698.92,1039.62L1698.94,1039.66L1698.96,1039.71L1698.97,1039.76L1698.98,1039.8L1698.99,1039.85L1699,1039.9L1699,1039.95L1699,1040L1699,1050L1699,1050.05L1699,1050.1L1698.99,1050.15L1698.98,1050.2L1698.97,1050.24L1698.96,1050.29L1698.94,1050.34L1698.92,1050.38L1698.9,1050.43L1698.88,1050.47L1698.86,1050.51L1698.83,1050.56L1698.8,1050.6L1698.77,1050.63L1698.74,1050.67L1698.71,1050.71L1698.67,1050.74L1698.63,1050.77L1698.6,1050.8L1698.56,1050.83L1698.51,1050.86L1698.47,1050.88L1698.43,1050.9L1698.38,1050.92L1698.34,1050.94L1698.29,1050.96L1698.24,1050.97L1698.2,1050.98L1698.15,1050.99L1698.1,1051L1698.05,1051L1698,1051L1682,1051L1681.95,1051L1681.9,1051L1681.85,1050.99L1681.8,1050.98L1681.76,1050.97L1681.71,1050.96L1681.66,1050.94L1681.62,1050.92L1681.57,1050.9L1681.53,1050.88L1681.49,1050.86L1681.44,1050.83L1681.4,1050.8L1681.37,1050.77L1681.33,1050.74L1681.29,1050.71L1681.26,1050.67L1681.23,1050.63L1681.2,1050.6L1681.17,1050.56L1681.14,1050.51L1681.12,1050.47L1681.1,1050.43L1681.08,1050.38L1681.06,1050.34L1681.04,1050.29L1681.03,1050.24L1681.02,1050.2L1681.01,1050.15L1681.01,1050.1L1681,1050.05L1681,1050L1681,1040L1681,1039.95L1681.01,1039.9L1681.01,1039.85L1681.02,1039.8L1681.03,1039.76L1681.04,1039.71L1681.06,1039.66L1681.08,1039.62L1681.1,1039.57L1681.12,1039.53L1681.14,1039.49L1681.17,1039.44L1681.2,1039.4L1681.23,1039.37L1681.26,1039.33L1681.29,1039.29L1681.33,1039.26L1681.37,1039.23L1681.4,1039.2L1681.44,1039.17L1681.49,1039.14L1681.53,1039.12L1681.57,1039.1L1681.62,1039.08L1681.66,1039.06L1681.71,1039.04L1681.76,1039.03L1681.8,1039.02L1681.85,1039.01L1681.9,1039.01L1681.95,1039L1682,1039L1689.02,1039L1690.6,1037.32L1690.63,1037.28L1690.67,1037.24L1690.71,1037.21L1690.75,1037.18L1690.8,1037.15L1690.84,1037.13L1690.88,1037.1L1690.93,1037.08L1690.98,1037.06L1691.03,1037.05L1691.07,1037.03L1691.12,1037.02L1691.17,1037.01L1691.23,1037.01L1691.28,1037L1691.33,1037L1694.67,1037L1694.73,1037ZM1682,1040L1682,1050L1698,1050L1698,1040L1682,1040ZM1690.08,1042L1690.15,1042L1690.23,1042.01L1690.31,1042.02L1690.38,1042.02L1690.46,1042.04L1690.53,1042.05L1690.6,1042.06L1690.68,1042.08L1690.75,1042.1L1690.82,1042.11L1690.89,1042.13L1690.96,1042.16L1691.03,1042.18L1691.1,1042.21L1691.17,1042.24L1691.23,1042.27L1691.3,1042.3L1691.37,1042.33L1691.43,1042.36L1691.49,1042.4L1691.56,1042.43L1691.62,1042.47L1691.68,1042.51L1691.74,1042.55L1691.79,1042.6L1691.85,1042.64L1691.91,1042.68L1691.96,1042.73L1692.02,1042.78L1692.07,1042.83L1692.12,1042.88L1692.17,1042.93L1692.22,1042.98L1692.27,1043.04L1692.32,1043.09L1692.36,1043.15L1692.4,1043.21L1692.45,1043.26L1692.49,1043.32L1692.53,1043.38L1692.57,1043.44L1692.6,1043.51L1692.64,1043.57L1692.67,1043.63L1692.7,1043.7L1692.74,1043.77L1692.76,1043.83L1692.79,1043.9L1692.82,1043.97L1692.84,1044.04L1692.87,1044.11L1692.89,1044.18L1692.9,1044.25L1692.92,1044.32L1692.94,1044.4L1692.95,1044.47L1692.97,1044.54L1692.98,1044.62L1692.98,1044.69L1692.99,1044.77L1693,1044.85L1693,1044.92L1693,1045L1693,1045.08L1693,1045.15L1692.99,1045.23L1692.98,1045.31L1692.98,1045.38L1692.97,1045.46L1692.95,1045.53L1692.94,1045.6L1692.92,1045.68L1692.9,1045.75L1692.89,1045.82L1692.87,1045.89L1692.84,1045.96L1692.82,1046.03L1692.79,1046.1L1692.76,1046.17L1692.74,1046.23L1692.7,1046.3L1692.67,1046.37L1692.64,1046.43L1692.6,1046.49L1692.57,1046.56L1692.53,1046.62L1692.49,1046.68L1692.45,1046.74L1692.4,1046.79L1692.36,1046.85L1692.32,1046.91L1692.27,1046.96L1692.22,1047.02L1692.17,1047.07L1692.12,1047.12L1692.07,1047.17L1692.02,1047.22L1691.96,1047.27L1691.91,1047.32L1691.85,1047.36L1691.79,1047.4L1691.74,1047.45L1691.68,1047.49L1691.62,1047.53L1691.56,1047.57L1691.49,1047.6L1691.43,1047.64L1691.37,1047.67L1691.3,1047.7L1691.23,1047.74L1691.17,1047.76L1691.1,1047.79L1691.03,1047.82L1690.96,1047.84L1690.89,1047.87L1690.82,1047.89L1690.75,1047.9L1690.68,1047.92L1690.6,1047.94L1690.53,1047.95L1690.46,1047.96L1690.38,1047.98L1690.31,1047.98L1690.23,1047.99L1690.15,1048L1690.08,1048L1690,1048L1689.92,1048L1689.85,1048L1689.77,1047.99L1689.69,1047.98L1689.62,1047.98L1689.54,1047.96L1689.47,1047.95L1689.4,1047.94L1689.32,1047.92L1689.25,1047.9L1689.18,1047.89L1689.11,1047.87L1689.04,1047.84L1688.97,1047.82L1688.9,1047.79L1688.83,1047.76L1688.77,1047.74L1688.7,1047.7L1688.63,1047.67L1688.57,1047.64L1688.51,1047.6L1688.44,1047.57L1688.38,1047.53L1688.32,1047.49L1688.26,1047.45L1688.21,1047.4L1688.15,1047.36L1688.09,1047.32L1688.04,1047.27L1687.98,1047.22L1687.93,1047.17L1687.88,1047.12L1687.83,1047.07L1687.78,1047.02L1687.73,1046.96L1687.68,1046.91L1687.64,1046.85L1687.6,1046.79L1687.55,1046.74L1687.51,1046.68L1687.47,1046.62L1687.43,1046.56L1687.4,1046.49L1687.36,1046.43L1687.33,1046.37L1687.3,1046.3L1687.27,1046.23L1687.24,1046.17L1687.21,1046.1L1687.18,1046.03L1687.16,1045.96L1687.13,1045.89L1687.11,1045.82L1687.1,1045.75L1687.08,1045.68L1687.06,1045.6L1687.05,1045.53L1687.04,1045.46L1687.02,1045.38L1687.02,1045.31L1687.01,1045.23L1687,1045.15L1687,1045.08L1687,1045L1687,1044.92L1687,1044.85L1687.01,1044.77L1687.02,1044.69L1687.02,1044.62L1687.04,1044.54L1687.05,1044.47L1687.06,1044.4L1687.08,1044.32L1687.1,1044.25L1687.11,1044.18L1687.13,1044.11L1687.16,1044.04L1687.18,1043.97L1687.21,1043.9L1687.24,1043.83L1687.27,1043.77L1687.3,1043.7L1687.33,1043.63L1687.36,1043.57L1687.4,1043.51L1687.43,1043.44L1687.47,1043.38L1687.51,1043.32L1687.55,1043.26L1687.6,1043.21L1687.64,1043.15L1687.68,1043.09L1687.73,1043.04L1687.78,1042.98L1687.83,1042.93L1687.88,1042.88L1687.93,1042.83L1687.98,1042.78L1688.04,1042.73L1688.09,1042.68L1688.15,1042.64L1688.21,1042.6L1688.26,1042.55L1688.32,1042.51L1688.38,1042.47L1688.44,1042.43L1688.51,1042.4L1688.57,1042.36L1688.63,1042.33L1688.7,1042.3L1688.77,1042.27L1688.83,1042.24L1688.9,1042.21L1688.97,1042.18L1689.04,1042.16L1689.11,1042.13L1689.18,1042.11L1689.25,1042.1L1689.32,1042.08L1689.4,1042.06L1689.47,1042.05L1689.54,1042.04L1689.62,1042.02L1689.69,1042.02L1689.77,1042.01L1689.85,1042L1689.92,1042L1690,1042L1690.08,1042ZM1689.95,1043L1689.9,1043L1689.85,1043.01L1689.8,1043.01L1689.75,1043.02L1689.7,1043.02L1689.65,1043.03L1689.6,1043.04L1689.55,1043.05L1689.5,1043.06L1689.45,1043.08L1689.4,1043.09L1689.36,1043.11L1689.31,1043.12L1689.27,1043.14L1689.22,1043.16L1689.18,1043.18L1689.13,1043.2L1689.09,1043.22L1689.05,1043.24L1689.01,1043.27L1688.96,1043.29L1688.92,1043.32L1688.88,1043.34L1688.84,1043.37L1688.8,1043.4L1688.77,1043.43L1688.73,1043.46L1688.69,1043.49L1688.66,1043.52L1688.62,1043.55L1688.59,1043.59L1688.55,1043.62L1688.52,1043.66L1688.49,1043.69L1688.46,1043.73L1688.43,1043.77L1688.4,1043.8L1688.37,1043.84L1688.34,1043.88L1688.32,1043.92L1688.29,1043.96L1688.27,1044.01L1688.24,1044.05L1688.22,1044.09L1688.2,1044.13L1688.18,1044.18L1688.16,1044.22L1688.14,1044.27L1688.12,1044.31L1688.11,1044.36L1688.09,1044.41L1688.08,1044.45L1688.06,1044.5L1688.05,1044.55L1688.04,1044.6L1688.03,1044.65L1688.02,1044.7L1688.02,1044.75L1688.01,1044.8L1688.01,1044.85L1688,1044.9L1688,1044.95L1688,1045L1688,1045.05L1688,1045.1L1688.01,1045.15L1688.01,1045.2L1688.02,1045.26L1688.02,1045.3L1688.03,1045.35L1688.04,1045.4L1688.05,1045.45L1688.06,1045.5L1688.08,1045.55L1688.09,1045.59L1688.11,1045.64L1688.12,1045.69L1688.14,1045.73L1688.16,1045.78L1688.18,1045.82L1688.2,1045.87L1688.22,1045.91L1688.24,1045.95L1688.27,1046L1688.29,1046.04L1688.32,1046.08L1688.34,1046.12L1688.37,1046.16L1688.4,1046.2L1688.43,1046.23L1688.46,1046.27L1688.49,1046.31L1688.52,1046.34L1688.55,1046.38L1688.59,1046.41L1688.62,1046.45L1688.66,1046.48L1688.69,1046.51L1688.73,1046.54L1688.77,1046.57L1688.8,1046.6L1688.84,1046.63L1688.88,1046.66L1688.92,1046.68L1688.96,1046.71L1689.01,1046.74L1689.05,1046.76L1689.09,1046.78L1689.13,1046.8L1689.18,1046.82L1689.22,1046.84L1689.27,1046.86L1689.31,1046.88L1689.36,1046.89L1689.4,1046.91L1689.45,1046.92L1689.5,1046.94L1689.55,1046.95L1689.6,1046.96L1689.65,1046.97L1689.7,1046.98L1689.75,1046.98L1689.8,1046.99L1689.85,1046.99L1689.9,1047L1689.95,1047L1690,1047L1690.05,1047L1690.1,1047L1690.15,1046.99L1690.2,1046.99L1690.26,1046.98L1690.3,1046.98L1690.35,1046.97L1690.4,1046.96L1690.45,1046.95L1690.5,1046.94L1690.55,1046.92L1690.59,1046.91L1690.64,1046.89L1690.69,1046.88L1690.73,1046.86L1690.78,1046.84L1690.82,1046.82L1690.87,1046.8L1690.91,1046.78L1690.95,1046.76L1691,1046.74L1691.04,1046.71L1691.08,1046.68L1691.12,1046.66L1691.16,1046.63L1691.2,1046.6L1691.23,1046.57L1691.27,1046.54L1691.31,1046.51L1691.34,1046.48L1691.38,1046.45L1691.41,1046.41L1691.45,1046.38L1691.48,1046.34L1691.51,1046.31L1691.54,1046.27L1691.57,1046.23L1691.6,1046.2L1691.63,1046.16L1691.66,1046.12L1691.68,1046.08L1691.71,1046.04L1691.74,1046L1691.76,1045.95L1691.78,1045.91L1691.8,1045.87L1691.82,1045.82L1691.84,1045.78L1691.86,1045.73L1691.88,1045.69L1691.89,1045.64L1691.91,1045.59L1691.92,1045.55L1691.94,1045.5L1691.95,1045.45L1691.96,1045.4L1691.97,1045.35L1691.98,1045.3L1691.98,1045.26L1691.99,1045.2L1691.99,1045.15L1692,1045.1L1692,1045.05L1692,1045L1692,1044.95L1692,1044.9L1691.99,1044.85L1691.99,1044.8L1691.98,1044.75L1691.98,1044.7L1691.97,1044.65L1691.96,1044.6L1691.95,1044.55L1691.94,1044.5L1691.92,1044.45L1691.91,1044.41L1691.89,1044.36L1691.88,1044.31L1691.86,1044.27L1691.84,1044.22L1691.82,1044.18L1691.8,1044.13L1691.78,1044.09L1691.76,1044.05L1691.74,1044.01L1691.71,1043.96L1691.68,1043.92L1691.66,1043.88L1691.63,1043.84L1691.6,1043.8L1691.57,1043.77L1691.54,1043.73L1691.51,1043.69L1691.48,1043.66L1691.45,1043.62L1691.41,1043.59L1691.38,1043.55L1691.34,1043.52L1691.31,1043.49L1691.27,1043.46L1691.23,1043.43L1691.2,1043.4L1691.16,1043.37L1691.12,1043.34L1691.08,1043.32L1691.04,1043.29L1691,1043.27L1690.95,1043.24L1690.91,1043.22L1690.87,1043.2L1690.82,1043.18L1690.78,1043.16L1690.73,1043.14L1690.69,1043.12L1690.64,1043.11L1690.59,1043.09L1690.55,1043.08L1690.5,1043.06L1690.45,1043.05L1690.4,1043.04L1690.35,1043.03L1690.3,1043.02L1690.26,1043.02L1690.2,1043.01L1690.15,1043.01L1690.1,1043L1690.05,1043L1690,1043L1689.95,1043ZM1684.05,1041L1684.1,1041.01L1684.15,1041.01L1684.2,1041.02L1684.25,1041.03L1684.3,1041.05L1684.34,1041.06L1684.39,1041.08L1684.43,1041.1L1684.48,1041.12L1684.52,1041.14L1684.56,1041.17L1684.6,1041.2L1684.64,1041.23L1684.67,1041.26L1684.71,1041.29L1684.74,1041.33L1684.77,1041.36L1684.8,1041.4L1684.83,1041.44L1684.86,1041.48L1684.88,1041.52L1684.9,1041.57L1684.92,1041.61L1684.94,1041.66L1684.95,1041.7L1684.97,1041.75L1684.98,1041.8L1684.99,1041.85L1685,1041.9L1685,1041.95L1685,1042C1685,1042 1685,1042.05 1685,1042.05L1685,1042.1L1684.99,1042.15L1684.98,1042.2L1684.97,1042.25L1684.95,1042.3L1684.94,1042.34L1684.92,1042.39L1684.9,1042.43L1684.88,1042.48L1684.86,1042.52L1684.83,1042.56L1684.8,1042.6L1684.77,1042.64L1684.74,1042.67L1684.71,1042.71L1684.67,1042.74L1684.64,1042.77L1684.6,1042.8L1684.56,1042.83L1684.52,1042.86L1684.48,1042.88L1684.43,1042.9L1684.39,1042.92L1684.34,1042.94L1684.3,1042.95L1684.25,1042.97L1684.2,1042.98L1684.15,1042.99L1684.1,1043L1684.05,1043L1684,1043C1684,1043 1683.95,1043 1683.95,1043L1683.9,1043L1683.85,1042.99L1683.8,1042.98L1683.75,1042.97L1683.7,1042.95L1683.66,1042.94L1683.61,1042.92L1683.57,1042.9L1683.52,1042.88L1683.48,1042.86L1683.44,1042.83L1683.4,1042.8L1683.36,1042.77L1683.33,1042.74L1683.29,1042.71L1683.26,1042.67L1683.23,1042.64L1683.2,1042.6L1683.17,1042.56L1683.14,1042.52L1683.12,1042.48L1683.1,1042.43L1683.08,1042.39L1683.06,1042.34L1683.05,1042.3L1683.03,1042.25L1683.02,1042.2L1683.01,1042.15L1683.01,1042.1L1683,1042.05L1683,1042C1683,1042 1683,1041.95 1683,1041.95L1683.01,1041.9L1683.01,1041.85L1683.02,1041.8L1683.03,1041.75L1683.05,1041.7L1683.06,1041.66L1683.08,1041.61L1683.1,1041.57L1683.12,1041.52L1683.14,1041.48L1683.17,1041.44L1683.2,1041.4L1683.23,1041.36L1683.26,1041.33L1683.29,1041.29L1683.33,1041.26L1683.36,1041.23L1683.4,1041.2L1683.44,1041.17L1683.48,1041.14L1683.52,1041.12L1683.57,1041.1L1683.61,1041.08L1683.66,1041.06L1683.7,1041.05L1683.75,1041.03L1683.8,1041.02L1683.85,1041.01L1683.9,1041.01L1683.95,1041L1684,1041C1684,1041 1684.05,1041 1684.05,1041ZM1684,1042L1684,1042L1684,1042L1684,1042L1684,1042ZM1691.33,1038L1690.39,1039L1695.62,1039L1694.67,1038L1691.33,1038Z" style="fill:rgb(51,51,51);"/>
            </g>
        </g>
    </g>
</svg>
