<?xml version="1.0" encoding="UTF-8" standalone="no"?>
<!DOCTYPE svg PUBLIC "-//W3C//DTD SVG 1.1//EN" "http://www.w3.org/Graphics/SVG/1.1/DTD/svg11.dtd">
<svg width="24px" height="24px" version="1.1" xmlns="http://www.w3.org/2000/svg" xmlns:xlink="http://www.w3.org/1999/xlink" xml:space="preserve" xmlns:serif="http://www.serif.com/" style="fill-rule:evenodd;clip-rule:evenodd;stroke-linejoin:round;stroke-miterlimit:1.41421;">
    <g transform="matrix(1,0,0,1,-2877,-1032)">
        <g id="object.thin.computer" transform="matrix(1,0,0,1,1309,262)">
            <rect x="1568" y="770" width="24" height="24" style="fill:none;"/>
            <g transform="matrix(1,0,0,1,-1261,-214)">
                <path d="M2850.5,1002C2850.63,1002 2850.76,1002.05 2850.85,1002.15C2850.95,1002.24 2851,1002.37 2851,1002.5C2851,1002.63 2850.95,1002.76 2850.85,1002.85C2850.76,1002.95 2850.63,1003 2850.5,1003C2847.73,1003 2834.27,1003 2831.5,1003C2831.37,1003 2831.24,1002.95 2831.15,1002.85C2831.05,1002.76 2831,1002.63 2831,1002.5C2831,1002.37 2831.05,1002.24 2831.15,1002.15C2831.24,1002.05 2831.37,1002 2831.5,1002C2834.27,1002 2847.73,1002 2850.5,1002ZM2850,1000C2850,1000.55 2849.55,1001 2849,1001C2845.85,1001 2836.15,1001 2833,1001C2832.45,1001 2832,1000.55 2832,1000C2832,997.578 2832,991.421 2832,989C2832,988.448 2832.45,988 2833,988C2836.15,988 2845.85,988 2849,988C2849.55,988 2850,988.448 2850,989C2850,991.421 2850,997.578 2850,1000ZM2849,989L2833,989L2833,1000L2849,1000L2849,989Z" style="fill:rgb(51,51,51);"/>
            </g>
        </g>
    </g>
</svg>
