<?xml version="1.0" encoding="UTF-8" standalone="no"?>
<!DOCTYPE svg PUBLIC "-//W3C//DTD SVG 1.1//EN" "http://www.w3.org/Graphics/SVG/1.1/DTD/svg11.dtd">
<svg width="24px" height="24px" version="1.1" xmlns="http://www.w3.org/2000/svg" xmlns:xlink="http://www.w3.org/1999/xlink" xml:space="preserve" xmlns:serif="http://www.serif.com/" style="fill-rule:evenodd;clip-rule:evenodd;stroke-linejoin:round;stroke-miterlimit:1.41421;">
    <g transform="matrix(1,0,0,1,-336,-984)">
        <g id="object.regular.document" transform="matrix(0.800768,0,0,0.984948,336,984)">
            <rect x="0" y="0" width="29.971" height="24.367" style="fill:none;"/>
            <g transform="matrix(1.2488,0,0,1.01528,-1305,-779.737)">
                <path d="M1049,771C1049,770.735 1049.11,770.48 1049.3,770.293C1049.48,770.105 1049.74,770 1050,770C1052.4,770 1058.37,770 1060,770C1060.27,770 1060.52,770.105 1060.71,770.293C1061.53,771.12 1063.88,773.466 1064.71,774.293C1064.89,774.48 1065,774.735 1065,775C1065,777.033 1065,785.98 1065,789C1065,789.265 1064.89,789.52 1064.71,789.707C1064.52,789.895 1064.27,790 1064,790C1061.13,790 1052.88,790 1050,790C1049.74,790 1049.48,789.895 1049.3,789.707C1049.11,789.52 1049,789.265 1049,789C1049,785.586 1049,774.414 1049,771ZM1059,772L1051,772L1051,788L1063,788L1063,776C1063,776 1061.18,776 1060,776C1059.44,776 1059,775.552 1059,775C1059,773.815 1059,772 1059,772ZM1058,783.5C1058,783.633 1057.94,783.76 1057.85,783.854C1057.76,783.947 1057.63,784 1057.5,784C1056.37,784 1053.63,784 1052.5,784C1052.36,784 1052.24,783.947 1052.14,783.854C1052.05,783.76 1052,783.633 1052,783.5C1052,783.367 1052.05,783.24 1052.14,783.146C1052.24,783.053 1052.36,783 1052.5,783C1053.63,783 1056.37,783 1057.5,783C1057.63,783 1057.76,783.053 1057.85,783.146C1057.94,783.24 1058,783.367 1058,783.5C1058,783.5 1058,783.5 1058,783.5ZM1062,781.513C1062,781.782 1061.78,782 1061.51,782C1059.82,782 1054.23,782 1052.51,782C1052.23,782 1052,781.771 1052,781.488C1052,781.488 1052,781.487 1052,781.487C1052,781.218 1052.21,781 1052.48,781C1054.17,781 1059.76,781 1061.49,781C1061.77,781 1062,781.229 1062,781.512C1062,781.512 1062,781.513 1062,781.513ZM1062,777.513C1062,777.782 1061.78,778 1061.51,778C1059.82,778 1054.23,778 1052.51,778C1052.23,778 1052,777.771 1052,777.488C1052,777.488 1052,777.487 1052,777.487C1052,777.218 1052.21,777 1052.48,777C1054.17,777 1059.76,777 1061.49,777C1061.77,777 1062,777.229 1062,777.512C1062,777.512 1062,777.513 1062,777.513ZM1058,775.501C1058,775.633 1057.94,775.76 1057.85,775.854C1057.76,775.947 1057.63,776 1057.5,776C1056.37,776 1053.65,776 1052.51,776C1052.37,776 1052.24,775.946 1052.15,775.85C1052.05,775.754 1052,775.624 1052,775.488C1052,775.488 1052,775.487 1052,775.487C1052,775.358 1052.05,775.234 1052.14,775.143C1052.23,775.051 1052.36,775 1052.48,775C1053.61,775 1056.36,775 1057.5,775C1057.63,775 1057.76,775.053 1057.85,775.146C1057.94,775.24 1058,775.367 1058,775.5C1058,775.5 1058,775.501 1058,775.501ZM1060,772.42L1060,775L1062.58,775L1060,772.42ZM1058,773.501C1058,773.633 1057.94,773.76 1057.85,773.854C1057.76,773.947 1057.63,774 1057.5,774C1056.37,774 1053.65,774 1052.51,774C1052.37,774 1052.24,773.946 1052.15,773.85C1052.05,773.754 1052,773.624 1052,773.488C1052,773.488 1052,773.487 1052,773.487C1052,773.358 1052.05,773.234 1052.14,773.143C1052.23,773.051 1052.36,773 1052.48,773C1053.61,773 1056.36,773 1057.5,773C1057.63,773 1057.76,773.053 1057.85,773.146C1057.94,773.24 1058,773.367 1058,773.5C1058,773.5 1058,773.501 1058,773.501Z" style="fill:rgb(51,51,51);"/>
            </g>
        </g>
    </g>
</svg>
