<?xml version="1.0" encoding="UTF-8" standalone="no"?><!DOCTYPE svg PUBLIC "-//W3C//DTD SVG 1.1//EN" "http://www.w3.org/Graphics/SVG/1.1/DTD/svg11.dtd"><svg width="100%" height="100%" viewBox="0 0 24 24" version="1.1" xmlns="http://www.w3.org/2000/svg" xmlns:xlink="http://www.w3.org/1999/xlink" xml:space="preserve" xmlns:serif="http://www.serif.com/" style="fill-rule:evenodd;clip-rule:evenodd;stroke-linejoin:round;stroke-miterlimit:1.41421;"><rect id="object.real.creditCardFront" x="0" y="0" width="24" height="24" style="fill:none;"/><path d="M22,6c0,-0.552 -0.448,-1 -1,-1l-18,0c-0.552,0 -1,0.448 -1,1l0,12c0,0.552 0.448,1 1,1l18,0c0.552,0 1,-0.448 1,-1l0,-12Z" style="fill:url(#_Linear1);"/><clipPath id="_clip2"><path d="M22,6c0,-0.552 -0.448,-1 -1,-1l-18,0c-0.552,0 -1,0.448 -1,1l0,12c0,0.552 0.448,1 1,1l18,0c0.552,0 1,-0.448 1,-1l0,-12Z"/></clipPath><g clip-path="url(#_clip2)"><path d="M9.494,16c0.133,0 0.26,0.053 0.354,0.146c0.093,0.094 0.146,0.221 0.146,0.354c0,0.133 -0.053,0.26 -0.146,0.354c-0.094,0.093 -0.221,0.146 -0.354,0.146c-1.13,0 -3.87,0 -5,0c-0.132,0 -0.26,-0.053 -0.353,-0.146c-0.094,-0.094 -0.147,-0.221 -0.147,-0.354c0,-0.133 0.053,-0.26 0.147,-0.354c0.093,-0.093 0.221,-0.146 0.353,-0.146c1.13,0 3.87,0 5,0Zm9.5,-1c0.552,0 1,0.448 1,1c0,0.552 -0.448,1 -1,1c-0.611,0 -1.389,0 -2,0c-0.552,0 -1,-0.448 -1,-1c0,-0.552 0.448,-1 1,-1c0.611,0 1.389,0 2,0Zm0,-4c0.552,0 1,0.448 1,1c0,0.552 -0.448,1 -1,1c-2.873,0 -11.127,0 -14,0c-0.552,0 -1,-0.448 -1,-1c0,-0.552 0.448,-1 1,-1c2.873,0 11.127,0 14,0Z" style="fill:#333;"/></g><defs><linearGradient id="_Linear1" x1="0" y1="0" x2="1" y2="0" gradientUnits="userSpaceOnUse" gradientTransform="matrix(-20,20,-20,-20,22,2)"><stop offset="0" style="stop-color:#fff;stop-opacity:1"/><stop offset="1" style="stop-color:#666;stop-opacity:1"/></linearGradient></defs></svg>