<?xml version="1.0" encoding="UTF-8" standalone="no"?>
<!DOCTYPE svg PUBLIC "-//W3C//DTD SVG 1.1//EN" "http://www.w3.org/Graphics/SVG/1.1/DTD/svg11.dtd">
<svg width="24px" height="24px" version="1.1" xmlns="http://www.w3.org/2000/svg" xmlns:xlink="http://www.w3.org/1999/xlink" xml:space="preserve" xmlns:serif="http://www.serif.com/" style="fill-rule:evenodd;clip-rule:evenodd;stroke-linejoin:round;stroke-miterlimit:1.41421;">
    <g transform="matrix(1,0,0,1,-2947,-984)">
        <g id="object.regular.magnifyingGlassPlus" transform="matrix(1,0,0,1,1379,214)">
            <rect x="1568" y="770" width="24" height="24" style="fill:none;"/>
            <g transform="matrix(1,0,0,1,-1379,-214)">
                <path d="M2961.91,1000.32C2960.55,1001.37 2958.85,1002 2957,1002C2952.59,1002 2949,998.415 2949,994C2949,989.585 2952.59,986 2957,986C2961.41,986 2965,989.585 2965,994C2965,995.848 2964.37,997.55 2963.32,998.905C2963.32,998.905 2967.1,1002.69 2968.71,1004.29C2968.89,1004.48 2969,1004.74 2969,1005C2969,1005.26 2968.89,1005.52 2968.71,1005.71C2968.32,1006.1 2967.68,1006.1 2967.29,1005.71C2965.69,1004.1 2961.91,1000.32 2961.91,1000.32ZM2957,988C2960.31,988 2963,990.689 2963,994C2963,997.311 2960.31,1000 2957,1000C2953.69,1000 2951,997.311 2951,994C2951,990.689 2953.69,988 2957,988ZM2958,993C2958,993 2959.13,993 2960,993C2960.55,993 2961,993.448 2961,994C2961,994.552 2960.55,995 2960,995C2959.13,995 2958,995 2958,995C2958,995 2958,996.127 2958,997C2958,997.552 2957.55,998 2957,998C2956.45,998 2956,997.552 2956,997C2956,996.127 2956,995 2956,995C2956,995 2954.87,995 2954,995C2953.45,995 2953,994.552 2953,994C2953,993.448 2953.45,993 2954,993C2954.87,993 2956,993 2956,993C2956,993 2956,991.873 2956,991C2956,990.448 2956.45,990 2957,990C2957.55,990 2958,990.448 2958,991C2958,991.873 2958,993 2958,993Z" style="fill:rgb(51,51,51);"/>
            </g>
        </g>
    </g>
</svg>
