<?xml version="1.0" encoding="UTF-8" standalone="no"?><!DOCTYPE svg PUBLIC "-//W3C//DTD SVG 1.1//EN" "http://www.w3.org/Graphics/SVG/1.1/DTD/svg11.dtd"><svg width="100%" height="100%" viewBox="0 0 24 24" version="1.1" xmlns="http://www.w3.org/2000/svg" xmlns:xlink="http://www.w3.org/1999/xlink" xml:space="preserve" xmlns:serif="http://www.serif.com/" style="fill-rule:evenodd;clip-rule:evenodd;stroke-linejoin:round;stroke-miterlimit:1.41421;"><rect id="object.regular.clock" x="0" y="0" width="24" height="24" style="fill:none;"/><path d="M12,2c5.519,0 10,4.481 10,10c0,5.519 -4.481,10 -10,10c-5.519,0 -10,-4.481 -10,-10c0,-5.519 4.481,-10 10,-10Zm0,2c4.415,0 8,3.585 8,8c0,4.415 -3.585,8 -8,8c-4.415,0 -8,-3.585 -8,-8c0,-4.415 3.585,-8 8,-8Zm1,8c0,0.265 -0.105,0.52 -0.293,0.707c-0.627,0.627 -2.114,2.112 -3.003,3c-0.391,0.391 -1.024,0.39 -1.414,0c-0.391,-0.391 -0.39,-1.024 0,-1.414c1.001,-1 2.71,-2.708 2.71,-2.708c0,0 0,-3.743 0,-5.585c0,-0.552 0.448,-1 1,-1c0.265,0 0.52,0.105 0.707,0.293c0.188,0.187 0.293,0.442 0.293,0.707c0,1.646 0,4.859 0,6Z" style="fill:#333;"/></svg>