<?xml version="1.0" encoding="UTF-8" standalone="no"?><!DOCTYPE svg PUBLIC "-//W3C//DTD SVG 1.1//EN" "http://www.w3.org/Graphics/SVG/1.1/DTD/svg11.dtd"><svg width="100%" height="100%" viewBox="0 0 24 24" version="1.1" xmlns="http://www.w3.org/2000/svg" xmlns:xlink="http://www.w3.org/1999/xlink" xml:space="preserve" xmlns:serif="http://www.serif.com/" style="fill-rule:evenodd;clip-rule:evenodd;stroke-linecap:round;stroke-linejoin:round;stroke-miterlimit:1.5;"><rect id="object.filled.id" x="0" y="0" width="24" height="24" style="fill:none;"/><path d="M14,11.5l5,0" style="fill:none;stroke:#333;stroke-width:1px;"/><path d="M14,13.5l5,0" style="fill:none;stroke:#333;stroke-width:1px;"/><path d="M8.077,8.001l0.076,0.003l0.076,0.005l0.077,0.006l0.076,0.009l0.074,0.011l0.074,0.012l0.074,0.014l0.072,0.016l0.072,0.017l0.073,0.02l0.071,0.021l0.069,0.023l0.07,0.024l0.07,0.027l0.067,0.027l0.066,0.029l0.067,0.031l0.066,0.033l0.064,0.034l0.063,0.035l0.063,0.037l0.061,0.039l0.06,0.039l0.059,0.041l0.058,0.043l0.057,0.043l0.057,0.046l0.054,0.046l0.054,0.048l0.053,0.049l0.051,0.05l0.05,0.051l0.049,0.053l0.048,0.054l0.046,0.054l0.046,0.057l0.043,0.057l0.043,0.058l0.041,0.059l0.039,0.06l0.039,0.061l0.037,0.063l0.035,0.063l0.034,0.064l0.033,0.066l0.031,0.067l0.029,0.066l0.027,0.067l0.027,0.07l0.024,0.07l0.023,0.069l0.021,0.071l0.02,0.073l0.017,0.072l0.016,0.072l0.014,0.074l0.012,0.074l0.011,0.074l0.009,0.076l0.006,0.077l0.005,0.076l0.003,0.076l0.001,0.077l-0.001,0.077l-0.003,0.076l-0.005,0.076l-0.006,0.077l-0.009,0.076l-0.011,0.074l-0.012,0.074l-0.014,0.074l-0.016,0.072l-0.017,0.072l-0.02,0.073l-0.021,0.071l-0.023,0.069l-0.024,0.07l-0.027,0.07l-0.027,0.067l-0.029,0.066l-0.031,0.067l-0.033,0.066l-0.034,0.064l-0.035,0.063l-0.037,0.063l-0.039,0.061l-0.039,0.06l-0.041,0.059l-0.043,0.058l-0.043,0.057l-0.046,0.057l-0.046,0.054l-0.048,0.054l-0.049,0.053l-0.05,0.051l-0.051,0.05l-0.053,0.049l-0.054,0.048l-0.054,0.046l-0.057,0.046l-0.057,0.043l-0.058,0.043l-0.059,0.041l-0.06,0.039l-0.061,0.039l-0.063,0.037l-0.063,0.035l-0.064,0.034l-0.066,0.033l-0.067,0.031l-0.066,0.029l-0.067,0.027l-0.07,0.027l-0.07,0.024l-0.069,0.023l-0.071,0.021l-0.073,0.02l-0.072,0.017l-0.072,0.016l-0.074,0.014l-0.074,0.012l-0.074,0.011l-0.076,0.009l-0.077,0.006l-0.076,0.005l-0.076,0.003l-0.077,0.001l-0.077,-0.001l-0.076,-0.003l-0.076,-0.005l-0.077,-0.006l-0.076,-0.009l-0.074,-0.011l-0.074,-0.012l-0.074,-0.014l-0.072,-0.016l-0.072,-0.017l-0.073,-0.02l-0.071,-0.021l-0.069,-0.023l-0.07,-0.024l-0.07,-0.027l-0.067,-0.027l-0.066,-0.029l-0.067,-0.031l-0.066,-0.033l-0.064,-0.034l-0.063,-0.035l-0.063,-0.037l-0.061,-0.039l-0.06,-0.039l-0.059,-0.041l-0.058,-0.043l-0.057,-0.043l-0.057,-0.046l-0.054,-0.046l-0.054,-0.048l-0.053,-0.049l-0.051,-0.05l-0.05,-0.051l-0.049,-0.053l-0.048,-0.054l-0.046,-0.054l-0.046,-0.057l-0.043,-0.057l-0.043,-0.058l-0.041,-0.059l-0.039,-0.06l-0.039,-0.061l-0.037,-0.063l-0.035,-0.063l-0.034,-0.064l-0.033,-0.066l-0.031,-0.067l-0.029,-0.066l-0.027,-0.067l-0.027,-0.07l-0.024,-0.07l-0.023,-0.069l-0.021,-0.071l-0.02,-0.073l-0.017,-0.072l-0.016,-0.072l-0.014,-0.074l-0.012,-0.074l-0.011,-0.074l-0.009,-0.076l-0.006,-0.077l-0.005,-0.076l-0.003,-0.076l-0.001,-0.077l0.001,-0.077l0.003,-0.076l0.005,-0.076l0.006,-0.077l0.009,-0.076l0.011,-0.074l0.012,-0.074l0.014,-0.074l0.016,-0.072l0.017,-0.072l0.02,-0.073l0.021,-0.071l0.023,-0.069l0.024,-0.07l0.027,-0.07l0.027,-0.067l0.029,-0.066l0.031,-0.067l0.033,-0.066l0.034,-0.064l0.035,-0.063l0.037,-0.063l0.039,-0.061l0.039,-0.06l0.041,-0.059l0.043,-0.058l0.043,-0.057l0.046,-0.057l0.046,-0.054l0.048,-0.054l0.049,-0.053l0.05,-0.051l0.051,-0.05l0.053,-0.049l0.054,-0.048l0.054,-0.046l0.057,-0.046l0.057,-0.043l0.058,-0.043l0.059,-0.041l0.06,-0.039l0.061,-0.039l0.063,-0.037l0.063,-0.035l0.064,-0.034l0.066,-0.033l0.067,-0.031l0.066,-0.029l0.067,-0.027l0.07,-0.027l0.07,-0.024l0.069,-0.023l0.071,-0.021l0.073,-0.02l0.072,-0.017l0.072,-0.016l0.074,-0.014l0.074,-0.012l0.074,-0.011l0.076,-0.009l0.077,-0.006l0.076,-0.005l0.076,-0.003l0.077,-0.001l0.077,0.001Zm-0.129,1l-0.051,0.002l-0.051,0.003l-0.05,0.004l-0.051,0.006l-0.049,0.007l-0.05,0.008l-0.049,0.01l-0.048,0.01l-0.049,0.012l-0.047,0.013l-0.047,0.014l-0.047,0.015l-0.046,0.016l-0.046,0.018l-0.045,0.018l-0.045,0.02l-0.044,0.02l-0.043,0.022l-0.043,0.023l-0.042,0.023l-0.042,0.025l-0.041,0.025l-0.04,0.027l-0.039,0.027l-0.039,0.029l-0.038,0.029l-0.038,0.03l-0.037,0.031l-0.035,0.032l-0.036,0.033l-0.034,0.033l-0.033,0.034l-0.033,0.036l-0.032,0.035l-0.031,0.037l-0.03,0.038l-0.029,0.038l-0.029,0.039l-0.027,0.039l-0.027,0.04l-0.025,0.041l-0.025,0.042l-0.023,0.042l-0.023,0.043l-0.022,0.043l-0.02,0.044l-0.02,0.045l-0.018,0.045l-0.018,0.046l-0.016,0.046l-0.015,0.047l-0.014,0.047l-0.013,0.047l-0.012,0.049l-0.01,0.048l-0.01,0.049l-0.008,0.05l-0.007,0.049l-0.006,0.051l-0.004,0.05l-0.003,0.051l-0.002,0.051l-0.001,0.052l0.001,0.052l0.002,0.051l0.003,0.051l0.004,0.05l0.006,0.051l0.007,0.049l0.008,0.05l0.01,0.049l0.01,0.048l0.012,0.049l0.013,0.047l0.014,0.047l0.015,0.047l0.016,0.046l0.018,0.046l0.018,0.045l0.02,0.045l0.02,0.044l0.022,0.043l0.023,0.043l0.023,0.042l0.025,0.042l0.025,0.041l0.027,0.04l0.027,0.039l0.029,0.039l0.029,0.038l0.03,0.038l0.031,0.037l0.032,0.035l0.033,0.036l0.033,0.034l0.034,0.033l0.036,0.033l0.035,0.032l0.037,0.031l0.038,0.03l0.038,0.029l0.039,0.029l0.039,0.027l0.04,0.027l0.041,0.025l0.042,0.025l0.042,0.023l0.043,0.023l0.043,0.022l0.044,0.02l0.045,0.02l0.045,0.018l0.046,0.018l0.046,0.016l0.047,0.015l0.047,0.014l0.047,0.013l0.049,0.012l0.048,0.01l0.049,0.01l0.05,0.008l0.049,0.007l0.051,0.006l0.05,0.004l0.051,0.003l0.051,0.002l0.052,0.001l0.052,-0.001l0.051,-0.002l0.051,-0.003l0.05,-0.004l0.051,-0.006l0.049,-0.007l0.05,-0.008l0.049,-0.01l0.048,-0.01l0.049,-0.012l0.047,-0.013l0.047,-0.014l0.047,-0.015l0.046,-0.016l0.046,-0.018l0.045,-0.018l0.045,-0.02l0.044,-0.02l0.043,-0.022l0.043,-0.023l0.042,-0.023l0.042,-0.025l0.041,-0.025l0.04,-0.027l0.039,-0.027l0.039,-0.029l0.038,-0.029l0.038,-0.03l0.037,-0.031l0.035,-0.032l0.036,-0.033l0.034,-0.033l0.033,-0.034l0.033,-0.036l0.032,-0.035l0.031,-0.037l0.03,-0.038l0.029,-0.038l0.029,-0.039l0.027,-0.039l0.027,-0.04l0.025,-0.041l0.025,-0.042l0.023,-0.042l0.023,-0.043l0.022,-0.043l0.02,-0.044l0.02,-0.045l0.018,-0.045l0.018,-0.046l0.016,-0.046l0.015,-0.047l0.014,-0.047l0.013,-0.047l0.012,-0.049l0.01,-0.048l0.01,-0.049l0.008,-0.05l0.007,-0.049l0.006,-0.051l0.004,-0.05l0.003,-0.051l0.002,-0.051l0.001,-0.052l-0.001,-0.052l-0.002,-0.051l-0.003,-0.051l-0.004,-0.05l-0.006,-0.051l-0.007,-0.049l-0.008,-0.05l-0.01,-0.049l-0.01,-0.048l-0.012,-0.049l-0.013,-0.047l-0.014,-0.047l-0.015,-0.047l-0.016,-0.046l-0.018,-0.046l-0.018,-0.045l-0.02,-0.045l-0.02,-0.044l-0.022,-0.043l-0.023,-0.043l-0.023,-0.042l-0.025,-0.042l-0.025,-0.041l-0.027,-0.04l-0.027,-0.039l-0.029,-0.039l-0.029,-0.038l-0.03,-0.038l-0.031,-0.037l-0.032,-0.035l-0.033,-0.036l-0.033,-0.034l-0.034,-0.033l-0.036,-0.033l-0.035,-0.032l-0.037,-0.031l-0.038,-0.03l-0.038,-0.029l-0.039,-0.029l-0.039,-0.027l-0.04,-0.027l-0.041,-0.025l-0.042,-0.025l-0.042,-0.023l-0.043,-0.023l-0.043,-0.022l-0.044,-0.02l-0.045,-0.02l-0.045,-0.018l-0.046,-0.018l-0.046,-0.016l-0.047,-0.015l-0.047,-0.014l-0.047,-0.013l-0.049,-0.012l-0.048,-0.01l-0.049,-0.01l-0.05,-0.008l-0.049,-0.007l-0.051,-0.006l-0.05,-0.004l-0.051,-0.003l-0.051,-0.002l-0.052,-0.001l-0.052,0.001Z" style="fill:#333;"/><path d="M10.123,14.554l0.048,0.004l0.047,0.006l0.047,0.008l0.046,0.01l0.046,0.013l0.046,0.015l0.044,0.017l0.044,0.019l0.042,0.021l0.042,0.023l0.041,0.025l0.061,0.04l0.071,0.048l0.07,0.051l0.068,0.051l0.067,0.053l0.065,0.055l0.065,0.056l0.062,0.058l0.061,0.059l0.06,0.062l0.057,0.063l0.056,0.063l0.055,0.067l0.053,0.069l0.051,0.07l0.047,0.07l0.047,0.073l0.044,0.076l0.042,0.076l0.04,0.079l0.037,0.08l0.034,0.081l0.031,0.082l0.029,0.086l0.025,0.086l0.022,0.086l0.02,0.09l0.016,0.089l0.012,0.091l0.009,0.091l0.005,0.091l0.002,0.083l0,1.01l-0.001,0.048l-0.003,0.047l-0.006,0.047l-0.008,0.047l-0.01,0.047l-0.012,0.046l-0.015,0.045l-0.017,0.045l-0.018,0.043l-0.021,0.043l-0.023,0.042l-0.025,0.041l-0.026,0.039l-0.029,0.038l-0.03,0.037l-0.032,0.035l-0.034,0.034l-0.035,0.032l-0.037,0.03l-0.038,0.029l-0.039,0.026l-0.041,0.025l-0.042,0.023l-0.043,0.021l-0.043,0.018l-0.045,0.017l-0.045,0.014l-0.046,0.013l-0.047,0.01l-0.047,0.008l-0.047,0.005l-0.047,0.004l-0.048,0.001l-6,0l-0.048,-0.001l-0.047,-0.004l-0.047,-0.005l-0.047,-0.008l-0.047,-0.01l-0.046,-0.013l-0.045,-0.014l-0.045,-0.017l-0.043,-0.018l-0.043,-0.021l-0.042,-0.023l-0.041,-0.025l-0.039,-0.026l-0.038,-0.029l-0.037,-0.03l-0.035,-0.032l-0.034,-0.034l-0.032,-0.035l-0.03,-0.037l-0.029,-0.038l-0.026,-0.039l-0.025,-0.041l-0.023,-0.042l-0.021,-0.043l-0.018,-0.043l-0.017,-0.045l-0.014,-0.045l-0.013,-0.046l-0.01,-0.047l-0.008,-0.047l-0.005,-0.047l-0.004,-0.047l-0.001,-0.048l0,-1.01l0.002,-0.081l0.005,-0.093l0.009,-0.093l0.013,-0.089l0.015,-0.089l0.019,-0.089l0.023,-0.087l0.025,-0.086l0.029,-0.085l0.031,-0.083l0.034,-0.081l0.037,-0.08l0.04,-0.079l0.042,-0.076l0.044,-0.076l0.047,-0.073l0.048,-0.071l0.05,-0.069l0.053,-0.069l0.055,-0.067l0.056,-0.063l0.057,-0.063l0.06,-0.062l0.061,-0.059l0.062,-0.058l0.064,-0.056l0.066,-0.055l0.067,-0.053l0.068,-0.051l0.07,-0.05l0.071,-0.049l0.061,-0.04l0.041,-0.025l0.041,-0.023l0.043,-0.021l0.044,-0.019l0.044,-0.017l0.045,-0.015l0.046,-0.013l0.047,-0.01l0.047,-0.008l0.047,-0.006l0.047,-0.004l0.048,-0.002l0.047,0.001l0.048,0.003l0.047,0.006l0.047,0.007l0.047,0.01l0.046,0.012l0.045,0.014l0.045,0.016l0.044,0.019l0.053,0.024l0.047,0.02l0.049,0.02l0.048,0.02l0.048,0.018l0.049,0.019l0.05,0.017l0.05,0.017l0.049,0.016l0.05,0.016l0.051,0.015l0.051,0.015l0.05,0.013l0.051,0.013l0.052,0.013l0.052,0.011l0.051,0.011l0.052,0.011l0.053,0.009l0.053,0.009l0.053,0.009l0.053,0.007l0.054,0.007l0.053,0.006l0.054,0.006l0.055,0.005l0.054,0.004l0.054,0.003l0.055,0.003l0.055,0.001l0.056,0.002l0.055,0l0.055,0l0.056,-0.002l0.055,-0.001l0.055,-0.003l0.054,-0.003l0.054,-0.004l0.055,-0.005l0.054,-0.006l0.053,-0.006l0.054,-0.007l0.053,-0.007l0.053,-0.009l0.053,-0.009l0.053,-0.009l0.052,-0.011l0.051,-0.011l0.052,-0.011l0.052,-0.013l0.051,-0.013l0.05,-0.013l0.051,-0.015l0.051,-0.015l0.05,-0.016l0.049,-0.016l0.05,-0.017l0.05,-0.017l0.049,-0.019l0.048,-0.018l0.049,-0.02l0.048,-0.02l0.047,-0.02l0.052,-0.024l0.044,-0.018l0.045,-0.017l0.045,-0.014l0.046,-0.012l0.047,-0.01l0.047,-0.007l0.047,-0.006l0.048,-0.003l0.048,-0.001l0.047,0.002Zm-4.245,1.033l-0.052,0.035l-0.051,0.037l-0.049,0.037l-0.048,0.038l-0.046,0.039l-0.045,0.039l-0.044,0.04l-0.042,0.041l-0.04,0.042l-0.039,0.042l-0.038,0.043l-0.036,0.044l-0.034,0.045l-0.033,0.045l-0.031,0.045l-0.029,0.047l-0.028,0.047l-0.026,0.047l-0.024,0.048l-0.022,0.048l-0.021,0.049l-0.018,0.05l-0.017,0.05l-0.015,0.05l-0.013,0.051l-0.011,0.052l-0.01,0.051l-0.007,0.052l-0.005,0.053l-0.003,0.053l-0.001,0.053l0,1l6,0l0,-1l-0.001,-0.053l-0.003,-0.053l-0.005,-0.053l-0.007,-0.052l-0.01,-0.051l-0.011,-0.052l-0.013,-0.051l-0.015,-0.05l-0.017,-0.05l-0.018,-0.05l-0.021,-0.049l-0.022,-0.048l-0.024,-0.048l-0.026,-0.047l-0.028,-0.047l-0.029,-0.047l-0.031,-0.045l-0.033,-0.045l-0.034,-0.045l-0.036,-0.044l-0.038,-0.043l-0.039,-0.042l-0.04,-0.042l-0.042,-0.041l-0.044,-0.04l-0.045,-0.039l-0.046,-0.039l-0.048,-0.038l-0.049,-0.037l-0.051,-0.037l-0.052,-0.035l-0.053,-0.035l-0.059,0.027l-0.06,0.026l-0.06,0.025l-0.061,0.024l-0.06,0.024l-0.062,0.022l-0.061,0.022l-0.062,0.022l-0.063,0.02l-0.063,0.02l-0.063,0.018l-0.063,0.018l-0.064,0.017l-0.064,0.017l-0.064,0.015l-0.065,0.015l-0.065,0.014l-0.066,0.013l-0.065,0.012l-0.066,0.011l-0.067,0.011l-0.066,0.009l-0.067,0.009l-0.067,0.007l-0.067,0.007l-0.068,0.006l-0.068,0.005l-0.068,0.005l-0.068,0.003l-0.069,0.002l-0.069,0.002l-0.069,0l-0.069,0l-0.069,-0.002l-0.069,-0.002l-0.068,-0.003l-0.068,-0.005l-0.068,-0.005l-0.068,-0.006l-0.067,-0.007l-0.067,-0.007l-0.067,-0.009l-0.066,-0.009l-0.067,-0.011l-0.066,-0.011l-0.065,-0.012l-0.066,-0.013l-0.065,-0.014l-0.065,-0.015l-0.064,-0.015l-0.064,-0.017l-0.064,-0.017l-0.063,-0.018l-0.063,-0.018l-0.063,-0.02l-0.063,-0.02l-0.062,-0.022l-0.061,-0.022l-0.062,-0.022l-0.06,-0.024l-0.061,-0.024l-0.06,-0.025l-0.06,-0.026l-0.059,-0.027l-0.053,0.035Z" style="fill:#333;"/><path d="M20.994,5c0.552,0 1,0.448 1,1c0,2.577 0,9.423 0,12c0,0.552 -0.448,1 -1,1c-3.414,0 -14.586,0 -18,0c-0.552,0 -1,-0.448 -1,-1c0,-2.577 0,-9.423 0,-12c0,-0.552 0.448,-1 1,-1c3.414,0 14.586,0 18,0Zm0,1l-18,0l0,12l18,0l0,-12Z" style="fill:#333;"/></svg>