<?xml version="1.0" encoding="UTF-8" standalone="no"?>
<!DOCTYPE svg PUBLIC "-//W3C//DTD SVG 1.1//EN" "http://www.w3.org/Graphics/SVG/1.1/DTD/svg11.dtd">
<svg width="24px" height="24px" version="1.1" xmlns="http://www.w3.org/2000/svg" xmlns:xlink="http://www.w3.org/1999/xlink" xml:space="preserve" xmlns:serif="http://www.serif.com/" style="fill-rule:evenodd;clip-rule:evenodd;stroke-linejoin:round;stroke-miterlimit:1.41421;">
    <g transform="matrix(1,0,0,1,-2371,-984)">
        <g id="object.regular.tablet" transform="matrix(1,0,0,1,803,214)">
            <rect x="1568" y="770" width="24" height="24" style="fill:none;"/>
            <g transform="matrix(1,0,0,1,82,-214)">
                <path d="M1508,1002C1508,1003.11 1507.11,1004 1506,1004C1502.17,1004 1493.83,1004 1490,1004C1488.89,1004 1488,1003.11 1488,1002C1488,998.926 1488,993.074 1488,990C1488,988.895 1488.89,988 1490,988C1493.83,988 1502.17,988 1506,988C1507.11,988 1508,988.895 1508,990C1508,993.074 1508,998.926 1508,1002ZM1506,990L1490,990L1490,1002L1506,1002L1506,990ZM1504,995C1504.55,995 1505,995.448 1505,996C1505,996.552 1504.55,997 1504,997C1503.45,997 1503,996.552 1503,996C1503,995.448 1503.45,995 1504,995Z" style="fill:rgb(51,51,51);"/>
            </g>
        </g>
    </g>
</svg>
