<?xml version="1.0" encoding="UTF-8" standalone="no"?><!DOCTYPE svg PUBLIC "-//W3C//DTD SVG 1.1//EN" "http://www.w3.org/Graphics/SVG/1.1/DTD/svg11.dtd"><svg width="100%" height="100%" viewBox="0 0 24 24" version="1.1" xmlns="http://www.w3.org/2000/svg" xmlns:xlink="http://www.w3.org/1999/xlink" xml:space="preserve" xmlns:serif="http://www.serif.com/" style="fill-rule:evenodd;clip-rule:evenodd;stroke-linejoin:round;stroke-miterlimit:1.41421;"><rect id="object.real.cup" x="0" y="0" width="24" height="24" style="fill:none;"/><path d="M16,9c0,0 1.127,0 2,0c0.552,0 1,0.448 1,1c0,0.573 0,1.313 0,2c0,0.53 -0.211,1.039 -0.586,1.414c-0.375,0.375 -0.884,0.586 -1.414,0.586c-0.551,0 -1,0 -1,0l0,-5Zm2,1l-2,0l0,3c0,0 0.5,0 1,0c0.552,0 1,-0.448 1,-1c0,-0.873 0,-2 0,-2Z" style="fill:#333;"/><path d="M16,6c0.552,0 1,0.448 1,1c0,1.738 0,5.382 0,8c0,1.657 -1.343,3 -3,3c-1.554,0 -3.446,0 -5,0c-1.657,0 -3,-1.343 -3,-3c0,-2.618 0,-6.262 0,-8c0,-0.552 0.448,-1 1,-1c2.092,0 6.908,0 9,0Z" style="fill:url(#_Linear1);"/><defs><linearGradient id="_Linear1" x1="0" y1="0" x2="1" y2="0" gradientUnits="userSpaceOnUse" gradientTransform="matrix(-20,20,-20,-20,21.5775,2)"><stop offset="0" style="stop-color:#fff;stop-opacity:1"/><stop offset="1" style="stop-color:#666;stop-opacity:1"/></linearGradient></defs></svg>