<?xml version="1.0" encoding="UTF-8" standalone="no"?>
<!DOCTYPE svg PUBLIC "-//W3C//DTD SVG 1.1//EN" "http://www.w3.org/Graphics/SVG/1.1/DTD/svg11.dtd">
<svg width="24px" height="24px" version="1.1" xmlns="http://www.w3.org/2000/svg" xmlns:xlink="http://www.w3.org/1999/xlink" xml:space="preserve" xmlns:serif="http://www.serif.com/" style="fill-rule:evenodd;clip-rule:evenodd;stroke-linejoin:round;stroke-miterlimit:1.41421;">
    <g transform="matrix(1,0,0,1,-768,-1032)">
        <g id="object.thin.person" transform="matrix(0.800768,0,0,0.984948,768,1032)">
            <rect x="0" y="0" width="29.971" height="24.367" style="fill:none;"/>
            <g transform="matrix(0.832534,0,0,0.676855,-634.391,-515.425)">
                <path d="M780.115,770.501L780.229,770.506L780.344,770.513L780.459,770.523L780.572,770.536L780.684,770.552L780.795,770.57L780.905,770.591L781.014,770.615L781.123,770.642L781.232,770.671L781.339,770.703L781.442,770.737L781.546,770.773L781.651,770.813L781.752,770.855L781.852,770.898L781.951,770.944L782.049,770.993L782.146,771.044L782.241,771.097L782.335,771.153L782.427,771.211L782.517,771.27L782.605,771.331L782.693,771.395L782.778,771.461L782.863,771.529L782.945,771.599L783.025,771.669L783.105,771.743L783.182,771.819L783.256,771.895L783.33,771.974L783.402,772.055L783.472,772.137L783.539,772.221L783.605,772.307L783.668,772.394L783.73,772.483L783.79,772.574L783.848,772.666L783.903,772.759L783.956,772.854L784.006,772.95L784.055,773.048L784.101,773.147L784.146,773.248L784.187,773.35L784.226,773.453L784.263,773.557L784.297,773.663L784.329,773.769L784.358,773.876L784.385,773.985L784.409,774.094L784.43,774.205L784.448,774.317L784.464,774.429L784.477,774.542L784.487,774.655L784.494,774.769L784.499,774.885L784.5,775L784.499,775.115L784.494,775.231L784.487,775.345L784.477,775.458L784.464,775.571L784.448,775.683L784.43,775.795L784.409,775.906L784.385,776.015L784.358,776.124L784.329,776.231L784.297,776.337L784.263,776.443L784.226,776.547L784.187,776.65L784.146,776.752L784.101,776.853L784.055,776.952L784.006,777.05L783.956,777.146L783.903,777.241L783.848,777.334L783.79,777.426L783.73,777.517L783.668,777.606L783.605,777.693L783.539,777.779L783.472,777.863L783.402,777.945L783.33,778.026L783.256,778.105L783.182,778.181L783.105,778.257L783.025,778.331L782.945,778.401L782.863,778.471L782.778,778.539L782.693,778.605L782.605,778.669L782.517,778.73L782.427,778.789L782.335,778.847L782.241,778.903L782.146,778.956L782.049,779.007L781.951,779.056L781.852,779.102L781.752,779.145L781.651,779.187L781.546,779.227L781.442,779.263L781.339,779.297L781.232,779.329L781.123,779.358L781.014,779.385L780.905,779.409L780.795,779.43L780.684,779.448L780.572,779.464L780.459,779.477L780.344,779.487L780.229,779.494L780.115,779.499L780,779.5L779.885,779.499L779.771,779.494L779.656,779.487L779.541,779.477L779.428,779.464L779.316,779.448L779.205,779.43L779.095,779.409L778.986,779.385L778.877,779.358L778.768,779.329L778.661,779.297L778.558,779.263L778.454,779.227L778.349,779.187L778.248,779.145L778.148,779.102L778.049,779.056L777.951,779.007L777.854,778.956L777.759,778.903L777.665,778.847L777.573,778.789L777.483,778.73L777.395,778.669L777.307,778.605L777.222,778.539L777.137,778.471L777.055,778.401L776.975,778.331L776.895,778.257L776.818,778.181L776.744,778.105L776.67,778.026L776.598,777.945L776.528,777.863L776.461,777.779L776.395,777.693L776.332,777.606L776.27,777.517L776.21,777.426L776.152,777.334L776.097,777.241L776.044,777.146L775.994,777.05L775.945,776.952L775.899,776.853L775.854,776.752L775.813,776.65L775.774,776.547L775.737,776.443L775.703,776.337L775.671,776.231L775.642,776.124L775.615,776.015L775.591,775.906L775.57,775.795L775.552,775.683L775.536,775.571L775.523,775.458L775.513,775.345L775.506,775.231L775.501,775.115L775.5,775L775.501,774.885L775.506,774.769L775.513,774.655L775.523,774.542L775.536,774.429L775.552,774.317L775.57,774.205L775.591,774.094L775.615,773.985L775.642,773.876L775.671,773.769L775.703,773.663L775.737,773.557L775.774,773.453L775.813,773.35L775.854,773.248L775.899,773.147L775.945,773.048L775.994,772.95L776.044,772.854L776.097,772.759L776.152,772.666L776.21,772.574L776.27,772.483L776.332,772.394L776.395,772.307L776.461,772.221L776.528,772.137L776.598,772.055L776.67,771.974L776.744,771.895L776.818,771.819L776.895,771.743L776.975,771.669L777.055,771.599L777.137,771.529L777.222,771.461L777.307,771.395L777.395,771.331L777.483,771.27L777.573,771.211L777.665,771.153L777.759,771.097L777.854,771.044L777.951,770.993L778.049,770.944L778.148,770.898L778.248,770.855L778.349,770.813L778.454,770.773L778.558,770.737L778.661,770.703L778.768,770.671L778.877,770.642L778.986,770.615L779.095,770.591L779.205,770.57L779.316,770.552L779.428,770.536L779.541,770.523L779.656,770.513L779.771,770.506L779.885,770.501L780,770.5L780.115,770.501ZM779.923,772.001L779.846,772.004L779.769,772.009L779.693,772.016L779.618,772.024L779.543,772.035L779.469,772.047L779.396,772.061L779.323,772.077L779.251,772.095L779.179,772.114L779.108,772.135L779.038,772.158L778.969,772.182L778.9,772.208L778.833,772.236L778.766,772.265L778.7,772.296L778.635,772.328L778.571,772.362L778.507,772.398L778.445,772.435L778.384,772.473L778.323,772.513L778.264,772.554L778.206,772.596L778.148,772.64L778.092,772.685L778.037,772.732L777.983,772.78L777.931,772.829L777.879,772.879L777.829,772.931L777.78,772.983L777.732,773.037L777.685,773.092L777.64,773.148L777.596,773.206L777.554,773.264L777.513,773.323L777.473,773.384L777.435,773.445L777.398,773.507L777.362,773.571L777.328,773.635L777.296,773.7L777.265,773.766L777.236,773.833L777.208,773.9L777.182,773.969L777.158,774.038L777.135,774.108L777.114,774.179L777.095,774.251L777.077,774.323L777.061,774.396L777.047,774.469L777.035,774.543L777.024,774.618L777.016,774.693L777.009,774.769L777.004,774.846L777.001,774.923L777,775L777.001,775.077L777.004,775.154L777.009,775.231L777.016,775.307L777.024,775.382L777.035,775.457L777.047,775.531L777.061,775.604L777.077,775.677L777.095,775.749L777.114,775.821L777.135,775.892L777.158,775.962L777.182,776.031L777.208,776.1L777.236,776.167L777.265,776.234L777.296,776.3L777.328,776.365L777.362,776.429L777.398,776.493L777.435,776.555L777.473,776.616L777.513,776.677L777.554,776.736L777.596,776.794L777.64,776.852L777.685,776.908L777.732,776.963L777.78,777.017L777.829,777.069L777.879,777.121L777.931,777.171L777.983,777.22L778.037,777.268L778.092,777.315L778.148,777.36L778.206,777.404L778.264,777.446L778.323,777.487L778.384,777.527L778.445,777.565L778.507,777.602L778.571,777.638L778.635,777.672L778.7,777.704L778.766,777.735L778.833,777.764L778.9,777.792L778.969,777.818L779.038,777.842L779.108,777.865L779.179,777.886L779.251,777.905L779.323,777.923L779.396,777.939L779.469,777.953L779.543,777.965L779.618,777.976L779.693,777.984L779.769,777.991L779.846,777.996L779.923,777.999L780,778L780.077,777.999L780.154,777.996L780.231,777.991L780.307,777.984L780.382,777.976L780.457,777.965L780.531,777.953L780.604,777.939L780.677,777.923L780.749,777.905L780.821,777.886L780.892,777.865L780.962,777.842L781.031,777.818L781.1,777.792L781.167,777.764L781.234,777.735L781.3,777.704L781.365,777.672L781.429,777.638L781.493,777.602L781.555,777.565L781.616,777.527L781.677,777.487L781.736,777.446L781.794,777.404L781.852,777.36L781.908,777.315L781.963,777.268L782.017,777.22L782.069,777.171L782.121,777.121L782.171,777.069L782.22,777.017L782.268,776.963L782.315,776.908L782.36,776.852L782.404,776.794L782.446,776.736L782.487,776.677L782.527,776.616L782.565,776.555L782.602,776.493L782.638,776.429L782.672,776.365L782.704,776.3L782.735,776.234L782.764,776.167L782.792,776.1L782.818,776.031L782.842,775.962L782.865,775.892L782.886,775.821L782.905,775.749L782.923,775.677L782.939,775.604L782.953,775.531L782.965,775.457L782.976,775.382L782.984,775.307L782.991,775.231L782.996,775.154L782.999,775.077L783,775L782.999,774.923L782.996,774.846L782.991,774.769L782.984,774.693L782.976,774.618L782.965,774.543L782.953,774.469L782.939,774.396L782.923,774.323L782.905,774.251L782.886,774.179L782.865,774.108L782.842,774.038L782.818,773.969L782.792,773.9L782.764,773.833L782.735,773.766L782.704,773.7L782.672,773.635L782.638,773.571L782.602,773.507L782.565,773.445L782.527,773.384L782.487,773.323L782.446,773.264L782.404,773.206L782.36,773.148L782.315,773.092L782.268,773.037L782.22,772.983L782.171,772.931L782.121,772.879L782.069,772.829L782.017,772.78L781.963,772.732L781.908,772.685L781.852,772.64L781.794,772.596L781.736,772.554L781.677,772.513L781.616,772.473L781.555,772.435L781.493,772.398L781.429,772.362L781.365,772.328L781.3,772.296L781.234,772.265L781.167,772.236L781.1,772.208L781.031,772.182L780.962,772.158L780.892,772.135L780.821,772.114L780.749,772.095L780.677,772.077L780.604,772.061L780.531,772.047L780.457,772.035L780.382,772.024L780.307,772.016L780.231,772.009L780.154,772.004L780.077,772.001L780,772L779.923,772.001Z" style="fill:rgb(51,51,51);"/>
            </g>
            <g transform="matrix(1.2488,0,0,1.01528,-959.079,-780.752)">
                <path d="M782.41,781.587L782.464,781.59L782.517,781.596L782.57,781.606L782.622,781.617L782.674,781.632L782.725,781.65L782.775,781.67L782.823,781.693L782.871,781.718L782.973,781.777L783.085,781.844L783.194,781.914L783.301,781.987L783.405,782.062L783.508,782.14L783.608,782.221L783.705,782.304L783.8,782.39L783.892,782.478L783.981,782.569L784.067,782.662L784.148,782.755L784.19,782.806L784.23,782.856L784.269,782.906L784.307,782.957L784.345,783.009L784.381,783.06L784.416,783.113L784.451,783.166L784.485,783.22L784.518,783.274L784.55,783.329L784.581,783.385L784.611,783.441L784.64,783.498L784.668,783.555L784.695,783.613L784.721,783.671L784.746,783.73L784.77,783.789L784.793,783.849L784.814,783.91L784.835,783.971L784.854,784.032L784.873,784.094L784.89,784.157L784.906,784.22L784.921,784.283L784.934,784.347L784.947,784.41L784.958,784.474L784.968,784.539L784.976,784.604L784.983,784.67L784.989,784.736L784.994,784.801L784.997,784.867L784.999,784.934L785,784.995L785,787L784.998,787.056L784.994,787.112L784.986,787.168L784.975,787.223L784.961,787.277L784.944,787.33L784.924,787.383L784.901,787.434L784.875,787.484L784.847,787.532L784.816,787.579L784.782,787.623L784.746,787.666L784.707,787.707L784.666,787.746L784.623,787.782L784.579,787.816L784.532,787.847L784.484,787.875L784.434,787.901L784.383,787.924L784.33,787.944L784.277,787.961L784.223,787.975L784.168,787.986L784.112,787.994L784.056,787.998L784,788L776,788L775.944,787.998L775.888,787.994L775.832,787.986L775.777,787.975L775.723,787.961L775.67,787.944L775.617,787.924L775.566,787.901L775.516,787.875L775.468,787.847L775.421,787.816L775.377,787.782L775.334,787.746L775.293,787.707L775.254,787.666L775.218,787.623L775.184,787.579L775.153,787.532L775.125,787.484L775.099,787.434L775.076,787.383L775.056,787.33L775.039,787.277L775.025,787.223L775.014,787.168L775.006,787.112L775.002,787.056L775,787L775,784.995L775.001,784.934L775.003,784.867L775.006,784.801L775.011,784.736L775.017,784.67L775.024,784.604L775.032,784.539L775.042,784.474L775.053,784.41L775.066,784.347L775.079,784.283L775.094,784.22L775.11,784.157L775.127,784.094L775.146,784.032L775.165,783.971L775.186,783.91L775.207,783.849L775.23,783.789L775.254,783.73L775.279,783.671L775.305,783.613L775.332,783.555L775.36,783.498L775.389,783.441L775.419,783.385L775.45,783.329L775.482,783.274L775.515,783.22L775.549,783.166L775.584,783.113L775.619,783.06L775.655,783.009L775.693,782.957L775.731,782.906L775.77,782.856L775.81,782.806L775.852,782.755L775.933,782.662L776.019,782.569L776.108,782.478L776.2,782.39L776.295,782.304L776.392,782.221L776.492,782.14L776.595,782.062L776.699,781.987L776.806,781.914L776.915,781.844L777.027,781.777L777.129,781.718L777.177,781.693L777.225,781.67L777.275,781.65L777.326,781.632L777.378,781.617L777.43,781.606L777.483,781.596L777.536,781.59L777.59,781.587L777.644,781.586L777.697,781.589L777.751,781.594L777.804,781.602L777.856,781.613L777.908,781.627L777.959,781.644L778.024,781.667L778.084,781.687L778.145,781.707L778.206,781.727L778.266,781.746L778.327,781.764L778.389,781.781L778.45,781.798L778.512,781.814L778.573,781.829L778.636,781.844L778.699,781.859L778.762,781.872L778.825,781.885L778.888,781.897L778.952,781.909L779.016,781.92L779.079,781.93L779.144,781.939L779.209,781.948L779.274,781.956L779.339,781.964L779.403,781.971L779.469,781.977L779.535,781.982L779.6,781.987L779.666,781.991L779.733,781.994L779.799,781.997L779.866,781.999L779.933,782L780,782L780.067,782L780.134,781.999L780.201,781.997L780.267,781.994L780.334,781.991L780.4,781.987L780.465,781.982L780.531,781.977L780.597,781.971L780.661,781.964L780.726,781.956L780.791,781.948L780.856,781.939L780.921,781.93L780.984,781.92L781.048,781.909L781.112,781.897L781.175,781.885L781.238,781.872L781.301,781.859L781.364,781.844L781.427,781.829L781.488,781.814L781.55,781.798L781.611,781.781L781.673,781.764L781.734,781.746L781.794,781.727L781.855,781.707L781.916,781.687L781.976,781.667L782.041,781.644L782.092,781.627L782.144,781.613L782.196,781.602L782.249,781.594L782.303,781.589L782.356,781.586L782.41,781.587ZM782.305,782.611L782.235,782.635L782.165,782.658L782.094,782.681L782.023,782.703L781.952,782.724L781.88,782.744L781.808,782.764L781.736,782.783L781.663,782.801L781.59,782.818L781.517,782.835L781.444,782.851L781.37,782.866L781.296,782.88L781.222,782.894L781.147,782.906L781.072,782.918L780.997,782.929L780.922,782.94L780.847,782.949L780.771,782.958L780.695,782.966L780.618,782.973L780.542,782.979L780.465,782.985L780.388,782.989L780.311,782.993L780.233,782.996L780.156,782.998L780.078,783L780,783L779.922,783L779.844,782.998L779.767,782.996L779.689,782.993L779.612,782.989L779.535,782.985L779.458,782.979L779.382,782.973L779.305,782.966L779.229,782.958L779.153,782.949L779.078,782.94L779.003,782.929L778.928,782.918L778.853,782.906L778.778,782.894L778.704,782.88L778.63,782.866L778.556,782.851L778.483,782.835L778.41,782.818L778.337,782.801L778.264,782.783L778.192,782.764L778.12,782.744L778.048,782.724L777.977,782.703L777.906,782.681L777.835,782.658L777.765,782.635L777.695,782.611L777.625,782.586L777.534,782.638L777.445,782.693L777.358,782.749L777.273,782.806L777.19,782.866L777.109,782.927L777.031,782.99L776.956,783.055L776.882,783.121L776.812,783.189L776.743,783.258L776.678,783.329L776.615,783.402L776.585,783.438L776.555,783.476L776.526,783.513L776.498,783.551L776.47,783.589L776.443,783.627L776.417,783.666L776.391,783.705L776.367,783.744L776.343,783.784L776.319,783.824L776.297,783.864L776.275,783.905L776.254,783.946L776.234,783.987L776.215,784.028L776.196,784.07L776.178,784.112L776.161,784.154L776.145,784.197L776.13,784.239L776.115,784.282L776.102,784.326L776.089,784.369L776.077,784.413L776.066,784.457L776.055,784.501L776.046,784.545L776.037,784.59L776.029,784.635L776.023,784.68L776.017,784.725L776.012,784.77L776.007,784.816L776.004,784.862L776.002,784.908L776,784.954L776,785L776,787L784,787L784,785L784,784.954L783.998,784.908L783.996,784.862L783.993,784.816L783.988,784.77L783.983,784.725L783.977,784.68L783.971,784.635L783.963,784.59L783.954,784.545L783.945,784.501L783.934,784.457L783.923,784.413L783.911,784.369L783.898,784.326L783.885,784.282L783.87,784.239L783.855,784.197L783.839,784.154L783.822,784.112L783.804,784.07L783.785,784.028L783.766,783.987L783.746,783.946L783.725,783.905L783.703,783.864L783.681,783.824L783.657,783.784L783.633,783.744L783.609,783.705L783.583,783.666L783.557,783.627L783.53,783.589L783.502,783.551L783.474,783.513L783.445,783.476L783.415,783.438L783.385,783.402L783.322,783.329L783.257,783.258L783.188,783.189L783.118,783.121L783.044,783.055L782.969,782.99L782.891,782.927L782.81,782.866L782.727,782.806L782.642,782.749L782.555,782.693L782.466,782.638L782.375,782.586L782.305,782.611Z" style="fill:rgb(51,51,51);"/>
            </g>
        </g>
    </g>
</svg>
