<?xml version="1.0" encoding="UTF-8" standalone="no"?>
<!DOCTYPE svg PUBLIC "-//W3C//DTD SVG 1.1//EN" "http://www.w3.org/Graphics/SVG/1.1/DTD/svg11.dtd">
<svg width="24px" height="24px" version="1.1" xmlns="http://www.w3.org/2000/svg" xmlns:xlink="http://www.w3.org/1999/xlink" xml:space="preserve" xmlns:serif="http://www.serif.com/" style="fill-rule:evenodd;clip-rule:evenodd;stroke-linecap:round;stroke-linejoin:round;stroke-miterlimit:1.5;">
    <g transform="matrix(1,0,0,1,-1345,-1032)">
        <g id="object.thin.cog" transform="matrix(1,0,0,1,-223,262)">
            <rect x="1568" y="770" width="24" height="24" style="fill:none;"/>
            <g transform="matrix(0.944444,0,0,0.944444,-5.72499,45.3333)">
                <path d="M1676.65,773.407C1676.86,773.333 1677,773.133 1677,772.909C1677,772.531 1677,771.951 1677,771.529C1677,771.237 1677.24,771 1677.53,771C1678.3,771 1679.71,771 1680.47,771C1680.77,771 1681,771.237 1681,771.529C1681,771.951 1681,772.531 1681,772.909C1681,773.134 1681.15,773.334 1681.36,773.408C1682.16,773.694 1682.89,774.123 1683.53,774.664C1683.7,774.811 1683.95,774.835 1684.14,774.722C1684.47,774.535 1684.97,774.244 1685.34,774.033C1685.59,773.886 1685.92,773.973 1686.06,774.226C1686.44,774.89 1687.15,776.11 1687.53,776.774C1687.68,777.027 1687.59,777.351 1687.34,777.497C1686.97,777.708 1686.47,777.997 1686.14,778.186C1685.95,778.299 1685.85,778.521 1685.89,778.742C1685.96,779.15 1686,779.571 1686,780C1686,780.429 1685.96,780.85 1685.89,781.258C1685.85,781.478 1685.95,781.701 1686.14,781.813C1686.47,782.003 1686.97,782.292 1687.34,782.503C1687.59,782.649 1687.68,782.973 1687.53,783.226C1687.15,783.89 1686.44,785.11 1686.06,785.774C1685.92,786.027 1685.59,786.114 1685.34,785.967C1684.97,785.756 1684.47,785.465 1684.14,785.276C1683.95,785.164 1683.7,785.188 1683.53,785.335C1682.89,785.877 1682.16,786.306 1681.36,786.593C1681.15,786.667 1681.01,786.867 1681.01,787.091C1681,787.469 1681,788.049 1681,788.471C1681,788.763 1680.77,789 1680.47,789C1679.71,789 1678.3,789 1677.53,789C1677.24,789 1677,788.763 1677,788.471C1677,788.049 1677,787.469 1677,787.091C1677,786.866 1676.86,786.666 1676.65,786.592C1675.85,786.306 1675.11,785.877 1674.47,785.336C1674.3,785.189 1674.06,785.165 1673.87,785.278C1673.54,785.465 1673.03,785.756 1672.67,785.967C1672.41,786.114 1672.09,786.027 1671.94,785.774C1671.56,785.11 1670.86,783.89 1670.47,783.226C1670.33,782.973 1670.41,782.649 1670.67,782.503C1671.03,782.292 1671.53,782.003 1671.86,781.814C1672.06,781.701 1672.16,781.479 1672.12,781.258C1672.04,780.85 1672,780.429 1672,780C1672,779.571 1672.04,779.15 1672.12,778.742C1672.16,778.522 1672.06,778.299 1671.86,778.187C1671.53,777.997 1671.03,777.708 1670.67,777.497C1670.41,777.351 1670.33,777.027 1670.47,776.774C1670.86,776.11 1671.56,774.89 1671.94,774.226C1672.09,773.973 1672.41,773.886 1672.67,774.033C1673.03,774.244 1673.54,774.535 1673.86,774.724C1674.06,774.836 1674.3,774.812 1674.48,774.665C1675.11,774.123 1675.85,773.694 1676.65,773.407Z" style="fill:none;stroke:rgb(51,51,51);stroke-width:1.06px;"/>
            </g>
            <g transform="matrix(0.749817,0,0,1,321.055,2)">
                <ellipse cx="1679" cy="780" rx="3.997" ry="3" style="fill:none;stroke:rgb(51,51,51);stroke-width:1.13px;"/>
            </g>
        </g>
    </g>
</svg>
