<?xml version="1.0" encoding="UTF-8" standalone="no"?>
<!DOCTYPE svg PUBLIC "-//W3C//DTD SVG 1.1//EN" "http://www.w3.org/Graphics/SVG/1.1/DTD/svg11.dtd">
<svg width="25px" height="24px" version="1.1" xmlns="http://www.w3.org/2000/svg" xmlns:xlink="http://www.w3.org/1999/xlink" xml:space="preserve" xmlns:serif="http://www.serif.com/" style="fill-rule:evenodd;clip-rule:evenodd;stroke-linejoin:round;stroke-miterlimit:1.41421;">
    <g transform="matrix(1,0,0,1,-914,-1032)">
        <g id="object.thin.shoppingBag" transform="matrix(0.800768,0,0,0.984948,914.977,1032)">
            <rect x="0" y="0" width="29.971" height="24.367" style="fill:none;"/>
            <g transform="matrix(1.2488,0,0,1.01528,-2336.51,-1047.77)">
                <path d="M1880,1039C1880,1039 1880,1037.87 1880,1037C1880,1036.45 1880.44,1036 1881,1036C1882.11,1036 1883.89,1036 1885,1036C1885.55,1036 1886,1036.45 1886,1037C1886,1037.87 1886,1039 1886,1039C1886,1039 1887.81,1039 1889,1039C1889.55,1039 1890,1039.45 1890,1040C1890,1042.21 1890,1047.59 1890,1051C1890,1052.66 1888.65,1054 1887,1054C1884.63,1054 1881.36,1054 1879,1054C1878.2,1054 1877.44,1053.68 1876.88,1053.12C1876.31,1052.56 1876,1051.8 1876,1051C1876,1047.59 1876,1042.21 1876,1040C1876,1039.45 1876.45,1039 1877,1039C1878.18,1039 1880,1039 1880,1039ZM1889,1040L1877,1040C1877,1040 1877,1047.35 1877,1051C1877,1051.53 1877.21,1052.04 1877.59,1052.41C1877.96,1052.79 1878.47,1053 1879,1053C1881.22,1053 1884.78,1053 1887,1053C1887.53,1053 1888.04,1052.79 1888.41,1052.41C1888.79,1052.04 1889,1051.53 1889,1051C1889,1047.35 1889,1040 1889,1040ZM1885.5,1041C1885.63,1041 1885.76,1041.05 1885.85,1041.15C1885.95,1041.24 1886,1041.37 1886,1041.5C1886,1041.5 1886,1041.5 1886,1041.5C1886,1041.63 1885.95,1041.76 1885.85,1041.85C1885.76,1041.95 1885.63,1042 1885.5,1042C1884.37,1042 1881.63,1042 1880.5,1042C1880.37,1042 1880.24,1041.95 1880.15,1041.85C1880.05,1041.76 1880,1041.63 1880,1041.5C1880,1041.5 1880,1041.5 1880,1041.5C1880,1041.37 1880.05,1041.24 1880.15,1041.15C1880.24,1041.05 1880.37,1041 1880.5,1041C1881.63,1041 1884.37,1041 1885.5,1041ZM1881,1037L1881,1039L1885,1039L1885,1037L1881,1037Z" style="fill:rgb(51,51,51);"/>
            </g>
        </g>
    </g>
</svg>
