<?xml version="1.0" encoding="UTF-8" standalone="no"?>
<!DOCTYPE svg PUBLIC "-//W3C//DTD SVG 1.1//EN" "http://www.w3.org/Graphics/SVG/1.1/DTD/svg11.dtd">
<svg width="24px" height="24px" version="1.1" xmlns="http://www.w3.org/2000/svg" xmlns:xlink="http://www.w3.org/1999/xlink" xml:space="preserve" xmlns:serif="http://www.serif.com/" style="fill-rule:evenodd;clip-rule:evenodd;stroke-linejoin:round;stroke-miterlimit:1.41421;">
    <g transform="matrix(1,0,0,1,-192,-1032)">
        <g id="object.thin.bell" transform="matrix(0.800768,0,0,0.984948,192,1032)">
            <rect x="0" y="0" width="29.971" height="24.367" style="fill:none;"/>
            <g transform="matrix(1.2488,0,0,1.01528,-1125.17,-828.47)">
                <path d="M910.174,834L906.576,834C906.234,834 905.917,833.826 905.733,833.538C905.549,833.25 905.525,832.888 905.669,832.578C905.858,832.175 906.066,831.729 906.266,831.3C906.748,830.252 906.997,829.112 906.997,827.958C906.997,826.619 906.997,825 906.997,825C906.997,821.688 909.686,819 912.997,819C916.309,819 918.997,821.689 918.997,825C918.997,825 918.997,826.598 918.997,827.933C918.997,829.104 919.254,830.261 919.75,831.322C919.943,831.734 920.149,832.174 920.337,832.576C920.482,832.886 920.459,833.248 920.275,833.537C920.091,833.825 919.773,834 919.431,834L915.832,834C915.42,835.165 914.308,836 913.003,836C911.698,836 910.586,835.165 910.174,834ZM914.873,834L911.132,834C911.49,834.667 912.194,835.121 913.003,835.121C913.812,835.121 914.516,834.667 914.873,834ZM906.567,833L919.427,833C919.427,833 919.094,832.284 918.749,831.545C918.256,830.488 918,829.336 917.999,828.17C917.998,826.753 917.997,825 917.997,825C917.997,822.24 915.757,820 912.997,820C910.237,820 907.997,822.24 907.997,825C907.997,825 907.999,826.733 908.001,828.142C908.002,829.313 907.746,830.47 907.251,831.532C906.904,832.277 906.567,833 906.567,833ZM909.998,825.493C909.997,825.221 909.776,825 909.504,825C909.503,825 909.503,825 909.503,825C909.369,825 909.24,825.053 909.145,825.148C909.051,825.243 908.998,825.372 908.998,825.506C908.999,826.278 909.001,827.742 909.002,828.507C909.003,828.779 909.224,829 909.496,829C909.497,829 909.497,829 909.497,829C909.631,829 909.76,828.947 909.855,828.852C909.949,828.757 910.002,828.628 910.002,828.494C910.001,827.722 909.999,826.258 909.998,825.493Z" style="fill:rgb(51,51,51);"/>
            </g>
        </g>
    </g>
</svg>
