<?xml version="1.0" encoding="UTF-8" standalone="no"?>
<!DOCTYPE svg PUBLIC "-//W3C//DTD SVG 1.1//EN" "http://www.w3.org/Graphics/SVG/1.1/DTD/svg11.dtd">
<svg width="24px" height="24px" version="1.1" xmlns="http://www.w3.org/2000/svg" xmlns:xlink="http://www.w3.org/1999/xlink" xml:space="preserve" xmlns:serif="http://www.serif.com/" style="fill-rule:evenodd;clip-rule:evenodd;stroke-linejoin:round;stroke-miterlimit:1.41421;">
    <g transform="matrix(1,0,0,1,-2131,-984)">
        <g id="object.regular.mapPin" transform="matrix(1,0,0,1,563,214)">
            <rect x="1568" y="770" width="24" height="24" style="fill:none;"/>
            <g transform="matrix(0.6,0,0,0.6,19.4,182.4)">
                <path d="M2601.13,991.002L2601.26,991.007L2601.38,991.015L2601.51,991.026L2601.64,991.04L2601.76,991.058L2601.89,991.078L2602.01,991.102L2602.13,991.128L2602.25,991.158L2602.37,991.19L2602.49,991.225L2602.6,991.263L2602.72,991.304L2602.83,991.347L2602.95,991.393L2603.06,991.442L2603.17,991.493L2603.28,991.547L2603.38,991.604L2603.49,991.663L2603.59,991.724L2603.69,991.788L2603.8,991.854L2603.89,991.923L2603.99,991.994L2604.09,992.067L2604.18,992.142L2604.27,992.22L2604.36,992.3L2604.45,992.381L2604.53,992.465L2604.62,992.551L2604.7,992.639L2604.78,992.729L2604.86,992.82L2604.93,992.914L2605.01,993.009L2605.08,993.106L2605.15,993.205L2605.21,993.306L2605.28,993.408L2605.34,993.512L2605.4,993.618L2605.45,993.725L2605.51,993.833L2605.56,993.943L2605.61,994.055L2605.65,994.167L2605.7,994.282L2605.74,994.397L2605.78,994.514L2605.81,994.632L2605.84,994.751L2605.87,994.871L2605.9,994.993L2605.92,995.115L2605.94,995.239L2605.96,995.364L2605.97,995.489L2605.99,995.616L2605.99,995.743L2606,995.871L2606,996L2606,996.129L2605.99,996.257L2605.99,996.384L2605.97,996.511L2605.96,996.636L2605.94,996.761L2605.92,996.885L2605.9,997.007L2605.87,997.129L2605.84,997.249L2605.81,997.368L2605.78,997.486L2605.74,997.603L2605.7,997.718L2605.65,997.833L2605.61,997.945L2605.56,998.057L2605.51,998.167L2605.45,998.275L2605.4,998.382L2605.34,998.488L2605.28,998.592L2605.21,998.694L2605.15,998.795L2605.08,998.894L2605.01,998.991L2604.93,999.086L2604.86,999.18L2604.78,999.271L2604.7,999.361L2604.62,999.449L2604.53,999.535L2604.45,999.619L2604.36,999.7L2604.27,999.78L2604.18,999.858L2604.09,999.933L2603.99,1000.01L2603.89,1000.08L2603.8,1000.15L2603.69,1000.21L2603.59,1000.28L2603.49,1000.34L2603.38,1000.4L2603.28,1000.45L2603.17,1000.51L2603.06,1000.56L2602.95,1000.61L2602.83,1000.65L2602.72,1000.7L2602.6,1000.74L2602.49,1000.77L2602.37,1000.81L2602.25,1000.84L2602.13,1000.87L2602.01,1000.9L2601.89,1000.92L2601.76,1000.94L2601.64,1000.96L2601.51,1000.97L2601.38,1000.99L2601.26,1000.99L2601.13,1001L2601,1001L2600.87,1001L2600.74,1000.99L2600.62,1000.99L2600.49,1000.97L2600.36,1000.96L2600.24,1000.94L2600.12,1000.92L2599.99,1000.9L2599.87,1000.87L2599.75,1000.84L2599.63,1000.81L2599.51,1000.77L2599.4,1000.74L2599.28,1000.7L2599.17,1000.65L2599.05,1000.61L2598.94,1000.56L2598.83,1000.51L2598.72,1000.45L2598.62,1000.4L2598.51,1000.34L2598.41,1000.28L2598.31,1000.21L2598.2,1000.15L2598.11,1000.08L2598.01,1000.01L2597.91,999.933L2597.82,999.858L2597.73,999.78L2597.64,999.7L2597.55,999.619L2597.47,999.535L2597.38,999.449L2597.3,999.361L2597.22,999.271L2597.14,999.18L2597.07,999.086L2596.99,998.991L2596.92,998.894L2596.85,998.795L2596.79,998.694L2596.72,998.592L2596.66,998.488L2596.6,998.382L2596.55,998.275L2596.49,998.167L2596.44,998.057L2596.39,997.945L2596.35,997.833L2596.3,997.718L2596.26,997.603L2596.22,997.486L2596.19,997.368L2596.16,997.249L2596.13,997.129L2596.1,997.007L2596.08,996.885L2596.06,996.761L2596.04,996.636L2596.03,996.511L2596.01,996.384L2596.01,996.257L2596,996.129L2596,996L2596,995.871L2596.01,995.743L2596.01,995.616L2596.03,995.489L2596.04,995.364L2596.06,995.239L2596.08,995.115L2596.1,994.993L2596.13,994.871L2596.16,994.751L2596.19,994.632L2596.22,994.514L2596.26,994.397L2596.3,994.282L2596.35,994.167L2596.39,994.055L2596.44,993.943L2596.49,993.833L2596.55,993.725L2596.6,993.618L2596.66,993.512L2596.72,993.408L2596.79,993.306L2596.85,993.205L2596.92,993.106L2596.99,993.009L2597.07,992.914L2597.14,992.82L2597.22,992.729L2597.3,992.639L2597.38,992.551L2597.47,992.465L2597.55,992.381L2597.64,992.3L2597.73,992.22L2597.82,992.142L2597.91,992.067L2598.01,991.994L2598.11,991.923L2598.2,991.854L2598.31,991.788L2598.41,991.724L2598.51,991.663L2598.62,991.604L2598.72,991.547L2598.83,991.493L2598.94,991.442L2599.05,991.393L2599.17,991.347L2599.28,991.304L2599.4,991.263L2599.51,991.225L2599.63,991.19L2599.75,991.158L2599.87,991.128L2599.99,991.102L2600.12,991.078L2600.24,991.058L2600.36,991.04L2600.49,991.026L2600.62,991.015L2600.74,991.007L2600.87,991.002L2601,991L2601.13,991.002ZM2600.91,992.668L2600.83,992.671L2600.74,992.677L2600.66,992.684L2600.57,992.694L2600.49,992.705L2600.41,992.719L2600.33,992.735L2600.25,992.752L2600.17,992.772L2600.09,992.793L2600.01,992.817L2599.93,992.842L2599.86,992.868L2599.78,992.897L2599.7,992.928L2599.63,992.961L2599.56,992.995L2599.49,993.03L2599.41,993.068L2599.34,993.108L2599.27,993.149L2599.21,993.191L2599.14,993.236L2599.07,993.281L2599.01,993.329L2598.94,993.378L2598.88,993.428L2598.82,993.48L2598.76,993.532L2598.7,993.588L2598.64,993.644L2598.59,993.701L2598.53,993.76L2598.48,993.82L2598.43,993.881L2598.38,993.944L2598.33,994.008L2598.28,994.073L2598.24,994.139L2598.19,994.205L2598.15,994.273L2598.11,994.343L2598.07,994.414L2598.03,994.485L2597.99,994.556L2597.96,994.63L2597.93,994.705L2597.9,994.779L2597.87,994.855L2597.84,994.932L2597.82,995.009L2597.79,995.086L2597.77,995.167L2597.75,995.248L2597.73,995.327L2597.72,995.409L2597.7,995.491L2597.69,995.574L2597.68,995.657L2597.68,995.742L2597.67,995.828L2597.67,995.913L2597.67,996L2597.67,996.087L2597.67,996.172L2597.68,996.258L2597.68,996.343L2597.69,996.427L2597.7,996.509L2597.72,996.591L2597.73,996.672L2597.75,996.753L2597.77,996.833L2597.79,996.914L2597.82,996.991L2597.84,997.068L2597.87,997.144L2597.9,997.221L2597.93,997.295L2597.96,997.37L2597.99,997.444L2598.03,997.515L2598.07,997.586L2598.11,997.657L2598.15,997.726L2598.19,997.795L2598.24,997.861L2598.28,997.927L2598.33,997.993L2598.38,998.056L2598.43,998.119L2598.48,998.18L2598.53,998.24L2598.59,998.299L2598.64,998.356L2598.7,998.412L2598.76,998.467L2598.82,998.52L2598.88,998.572L2598.94,998.622L2599.01,998.671L2599.07,998.719L2599.14,998.765L2599.21,998.809L2599.27,998.851L2599.34,998.892L2599.41,998.932L2599.48,998.969L2599.56,999.005L2599.63,999.04L2599.7,999.072L2599.78,999.102L2599.86,999.131L2599.93,999.159L2600.01,999.184L2600.09,999.207L2600.17,999.228L2600.25,999.248L2600.33,999.265L2600.41,999.281L2600.49,999.295L2600.57,999.306L2600.66,999.316L2600.74,999.323L2600.83,999.329L2600.91,999.332L2601,999.333L2601.09,999.332L2601.17,999.329L2601.26,999.323L2601.34,999.316L2601.43,999.306L2601.51,999.295L2601.59,999.281L2601.67,999.265L2601.75,999.248L2601.83,999.228L2601.91,999.207L2601.99,999.184L2602.07,999.159L2602.14,999.131L2602.22,999.102L2602.3,999.072L2602.37,999.04L2602.44,999.005L2602.52,998.969L2602.59,998.931L2602.66,998.893L2602.72,998.852L2602.8,998.809L2602.86,998.765L2602.93,998.719L2602.99,998.671L2603.06,998.623L2603.12,998.572L2603.18,998.52L2603.24,998.466L2603.3,998.412L2603.36,998.357L2603.41,998.299L2603.47,998.24L2603.52,998.18L2603.57,998.118L2603.62,998.056L2603.67,997.993L2603.72,997.927L2603.76,997.862L2603.81,997.795L2603.85,997.726L2603.89,997.657L2603.93,997.586L2603.97,997.515L2604.01,997.443L2604.04,997.37L2604.07,997.297L2604.1,997.221L2604.13,997.144L2604.16,997.068L2604.18,996.991L2604.21,996.912L2604.23,996.833L2604.25,996.754L2604.26,996.672L2604.28,996.591L2604.3,996.509L2604.31,996.427L2604.32,996.343L2604.32,996.257L2604.33,996.172L2604.33,996.087L2604.33,996L2604.33,995.913L2604.33,995.828L2604.32,995.743L2604.32,995.657L2604.31,995.574L2604.3,995.491L2604.28,995.409L2604.26,995.327L2604.25,995.246L2604.23,995.167L2604.21,995.088L2604.18,995.009L2604.16,994.932L2604.13,994.855L2604.1,994.779L2604.07,994.703L2604.04,994.63L2604.01,994.558L2603.97,994.485L2603.93,994.414L2603.89,994.343L2603.85,994.273L2603.81,994.205L2603.76,994.138L2603.72,994.073L2603.67,994.008L2603.62,993.944L2603.57,993.882L2603.52,993.82L2603.47,993.76L2603.41,993.701L2603.36,993.643L2603.3,993.588L2603.24,993.533L2603.18,993.48L2603.12,993.428L2603.05,993.377L2602.99,993.329L2602.93,993.281L2602.86,993.236L2602.8,993.191L2602.72,993.148L2602.66,993.107L2602.59,993.069L2602.52,993.031L2602.44,992.995L2602.37,992.961L2602.3,992.928L2602.22,992.897L2602.14,992.868L2602.07,992.842L2601.99,992.817L2601.91,992.793L2601.83,992.772L2601.75,992.752L2601.67,992.735L2601.59,992.719L2601.51,992.705L2601.43,992.694L2601.34,992.684L2601.26,992.677L2601.17,992.671L2601.09,992.668L2601,992.667L2600.91,992.668Z" style="fill:rgb(51,51,51);"/>
            </g>
            <g transform="matrix(1.53,0,0,1.53,-2399.53,-742.73)">
                <path d="M2601.05,991L2601.1,991.001L2601.16,991.003L2601.21,991.005L2601.26,991.008L2601.31,991.011L2601.36,991.015L2601.42,991.02L2601.47,991.025L2601.52,991.031L2601.57,991.037L2601.62,991.044L2601.68,991.051L2601.73,991.06L2601.78,991.068L2601.83,991.078L2601.88,991.088L2601.93,991.098L2601.98,991.109L2602.03,991.121L2602.09,991.133L2602.14,991.146L2602.19,991.16L2602.24,991.174L2602.29,991.188L2602.34,991.203L2602.39,991.219L2602.44,991.235L2602.49,991.252L2602.53,991.27L2602.58,991.288L2602.63,991.306L2602.68,991.326L2602.73,991.345L2602.78,991.365L2602.83,991.386L2602.87,991.408L2602.92,991.43L2602.97,991.452L2603.02,991.475L2603.06,991.499L2603.11,991.523L2603.16,991.547L2603.2,991.572L2603.25,991.598L2603.29,991.624L2603.34,991.651L2603.38,991.679L2603.43,991.706L2603.47,991.735L2603.52,991.764L2603.56,991.793L2603.6,991.823L2603.65,991.854L2603.69,991.885L2603.73,991.916L2603.77,991.948L2603.82,991.981L2603.86,992.014L2603.9,992.048L2603.94,992.082L2603.98,992.117L2604.02,992.152L2604.06,992.187L2604.1,992.224L2604.13,992.26L2604.17,992.297L2604.21,992.335L2604.25,992.373L2604.28,992.412L2604.32,992.451L2604.36,992.491L2604.39,992.531L2604.43,992.571L2604.46,992.613L2604.49,992.654L2604.53,992.696L2604.56,992.739L2604.59,992.782L2604.62,992.825L2604.66,992.87L2604.69,992.914L2604.72,992.959L2604.75,993.004L2604.78,993.05L2604.81,993.097L2604.83,993.144L2604.86,993.191L2604.89,993.239L2604.91,993.287L2604.94,993.336L2604.97,993.385L2604.99,993.434L2605.02,993.484L2605.04,993.535L2605.06,993.586L2605.09,993.637L2605.11,993.689L2605.13,993.741L2605.15,993.794L2605.17,993.847L2605.19,993.901L2605.21,993.955L2605.22,994.01L2605.24,994.064L2605.26,994.12L2605.28,994.176L2605.29,994.232L2605.3,994.289L2605.32,994.346L2605.33,994.403L2605.35,994.461L2605.36,994.52L2605.37,994.578L2605.38,994.638L2605.39,994.697L2605.4,994.757L2605.41,994.818L2605.41,994.878L2605.42,994.94L2605.43,995.001L2605.43,995.064L2605.43,995.126L2605.44,995.189L2605.44,995.252L2605.44,995.316L2605.44,995.38L2605.44,995.444L2605.44,995.509L2605.44,995.575L2605.44,995.64L2605.43,995.706L2605.43,995.773L2605.42,995.84L2605.42,995.907L2605.41,995.974L2605.4,996.042L2605.39,996.11L2605.38,996.178L2605.36,996.247L2605.35,996.315L2605.33,996.384L2605.32,996.454L2605.3,996.523L2605.28,996.593L2605.26,996.663L2605.24,996.733L2605.22,996.803L2605.2,996.873L2605.18,996.943L2605.16,997.014L2605.13,997.084L2605.11,997.155L2605.08,997.226L2605.06,997.296L2605.03,997.367L2605,997.438L2604.97,997.509L2604.94,997.58L2604.91,997.65L2604.88,997.721L2604.85,997.792L2604.82,997.862L2604.78,997.933L2604.75,998.003L2604.72,998.073L2604.68,998.143L2604.64,998.213L2604.61,998.283L2604.57,998.353L2604.53,998.422L2604.5,998.492L2604.46,998.561L2604.42,998.63L2604.38,998.698L2604.34,998.767L2604.3,998.835L2604.26,998.902L2604.22,998.97L2604.18,999.037L2604.14,999.104L2604.09,999.17L2604.05,999.236L2604.01,999.302L2603.96,999.367L2603.92,999.432L2603.83,999.561L2603.74,999.688L2603.65,999.813L2603.56,999.935L2603.47,1000.06L2603.38,1000.18L2603.28,1000.29L2603.19,1000.4L2603.1,1000.52L2603,1000.62L2602.91,1000.73L2602.82,1000.83L2602.72,1000.93L2602.63,1001.03L2602.54,1001.12L2602.49,1001.17L2602.45,1001.21L2602.4,1001.25L2602.36,1001.3L2602.31,1001.34L2602.27,1001.38L2602.22,1001.42L2602.18,1001.46L2602.14,1001.5L2602.09,1001.53L2602.05,1001.57L2602.01,1001.6L2601.96,1001.64L2601.92,1001.67L2601.88,1001.7L2601.84,1001.73L2601.8,1001.76L2601.76,1001.79L2601.72,1001.82L2601.68,1001.84L2601.64,1001.87L2601.6,1001.89L2601.56,1001.92L2601.52,1001.94L2601.48,1001.96L2601.45,1001.98L2601.41,1002L2601.38,1002.01L2601.34,1002.03L2601.31,1002.04L2601.27,1002.06L2601.24,1002.07L2601.21,1002.08L2601.18,1002.09L2601.14,1002.09L2601.11,1002.1L2601.08,1002.11L2601.05,1002.11L2601.03,1002.11L2601,1002.11L2600.97,1002.11L2600.95,1002.11L2600.92,1002.11L2600.89,1002.1L2600.86,1002.09L2600.83,1002.09L2600.79,1002.08L2600.76,1002.07L2600.73,1002.06L2600.69,1002.04L2600.66,1002.03L2600.62,1002.01L2600.59,1002L2600.55,1001.98L2600.52,1001.96L2600.48,1001.94L2600.44,1001.92L2600.4,1001.89L2600.37,1001.87L2600.33,1001.84L2600.28,1001.82L2600.24,1001.79L2600.2,1001.76L2600.16,1001.73L2600.12,1001.7L2600.08,1001.67L2600.04,1001.64L2599.99,1001.6L2599.95,1001.57L2599.91,1001.53L2599.87,1001.5L2599.82,1001.46L2599.78,1001.42L2599.73,1001.38L2599.69,1001.34L2599.64,1001.3L2599.6,1001.25L2599.55,1001.21L2599.51,1001.17L2599.46,1001.12L2599.37,1001.03L2599.28,1000.93L2599.18,1000.83L2599.09,1000.73L2599,1000.62L2598.9,1000.52L2598.81,1000.4L2598.72,1000.29L2598.62,1000.18L2598.53,1000.06L2598.44,999.935L2598.35,999.813L2598.26,999.688L2598.17,999.561L2598.08,999.432L2598.04,999.367L2597.99,999.302L2597.95,999.236L2597.91,999.17L2597.86,999.104L2597.82,999.037L2597.78,998.97L2597.74,998.902L2597.7,998.835L2597.66,998.767L2597.62,998.698L2597.58,998.63L2597.54,998.561L2597.5,998.492L2597.47,998.422L2597.43,998.353L2597.39,998.283L2597.36,998.213L2597.32,998.143L2597.28,998.073L2597.25,998.003L2597.22,997.933L2597.18,997.862L2597.15,997.792L2597.12,997.721L2597.09,997.65L2597.06,997.58L2597.03,997.509L2597,997.438L2596.97,997.367L2596.94,997.296L2596.92,997.226L2596.89,997.155L2596.87,997.084L2596.84,997.014L2596.82,996.943L2596.8,996.873L2596.78,996.803L2596.76,996.733L2596.74,996.663L2596.72,996.593L2596.7,996.523L2596.68,996.454L2596.67,996.384L2596.65,996.315L2596.64,996.247L2596.62,996.178L2596.61,996.11L2596.6,996.042L2596.59,995.974L2596.58,995.907L2596.58,995.84L2596.57,995.773L2596.57,995.706L2596.56,995.64L2596.56,995.575L2596.56,995.509L2596.56,995.444L2596.56,995.38L2596.56,995.316L2596.56,995.252L2596.56,995.189L2596.57,995.126L2596.57,995.064L2596.58,995.001L2596.58,994.94L2596.59,994.878L2596.6,994.818L2596.6,994.757L2596.61,994.697L2596.62,994.638L2596.63,994.578L2596.64,994.52L2596.66,994.461L2596.67,994.403L2596.68,994.346L2596.7,994.289L2596.71,994.232L2596.72,994.176L2596.74,994.12L2596.76,994.064L2596.78,994.01L2596.79,993.955L2596.81,993.901L2596.83,993.847L2596.85,993.794L2596.87,993.741L2596.89,993.689L2596.91,993.637L2596.94,993.586L2596.96,993.535L2596.98,993.484L2597.01,993.434L2597.03,993.385L2597.06,993.336L2597.09,993.287L2597.11,993.239L2597.14,993.191L2597.17,993.144L2597.19,993.097L2597.22,993.05L2597.25,993.004L2597.28,992.959L2597.31,992.914L2597.34,992.87L2597.38,992.825L2597.41,992.782L2597.44,992.739L2597.47,992.696L2597.51,992.654L2597.54,992.613L2597.58,992.571L2597.61,992.531L2597.64,992.491L2597.68,992.451L2597.72,992.412L2597.75,992.373L2597.79,992.335L2597.83,992.297L2597.87,992.26L2597.91,992.224L2597.94,992.187L2597.98,992.152L2598.02,992.117L2598.06,992.082L2598.1,992.048L2598.14,992.014L2598.18,991.981L2598.23,991.948L2598.27,991.916L2598.31,991.885L2598.35,991.854L2598.4,991.823L2598.44,991.793L2598.48,991.764L2598.53,991.735L2598.57,991.706L2598.62,991.679L2598.66,991.651L2598.71,991.624L2598.75,991.598L2598.8,991.572L2598.84,991.547L2598.89,991.523L2598.94,991.499L2598.98,991.475L2599.03,991.452L2599.08,991.43L2599.13,991.408L2599.17,991.386L2599.22,991.365L2599.27,991.345L2599.32,991.326L2599.37,991.306L2599.42,991.288L2599.47,991.27L2599.51,991.252L2599.56,991.235L2599.61,991.219L2599.66,991.203L2599.71,991.188L2599.76,991.174L2599.81,991.16L2599.87,991.146L2599.91,991.133L2599.97,991.121L2600.02,991.109L2600.07,991.098L2600.12,991.088L2600.17,991.078L2600.22,991.068L2600.27,991.06L2600.33,991.051L2600.38,991.044L2600.43,991.037L2600.48,991.031L2600.53,991.025L2600.58,991.02L2600.64,991.015L2600.69,991.011L2600.74,991.008L2600.79,991.005L2600.84,991.003L2600.9,991.001L2600.95,991L2601,991L2601.05,991ZM2600.96,992.307L2600.93,992.308L2600.89,992.309L2600.85,992.311L2600.82,992.313L2600.78,992.315L2600.74,992.318L2600.7,992.321L2600.67,992.325L2600.63,992.329L2600.6,992.333L2600.56,992.338L2600.52,992.344L2600.49,992.35L2600.45,992.356L2600.41,992.362L2600.38,992.37L2600.34,992.377L2600.3,992.385L2600.27,992.393L2600.23,992.402L2600.19,992.411L2600.16,992.421L2600.12,992.431L2600.09,992.441L2600.05,992.452L2600.01,992.463L2599.98,992.475L2599.94,992.487L2599.91,992.5L2599.87,992.512L2599.84,992.526L2599.8,992.54L2599.77,992.554L2599.73,992.568L2599.7,992.583L2599.67,992.598L2599.63,992.614L2599.6,992.63L2599.57,992.646L2599.53,992.663L2599.5,992.681L2599.46,992.698L2599.43,992.716L2599.4,992.734L2599.37,992.753L2599.34,992.771L2599.3,992.791L2599.27,992.811L2599.24,992.831L2599.21,992.852L2599.18,992.872L2599.15,992.894L2599.12,992.915L2599.09,992.937L2599.06,992.959L2599.03,992.982L2599,993.005L2598.97,993.028L2598.94,993.052L2598.91,993.076L2598.88,993.1L2598.86,993.124L2598.83,993.149L2598.8,993.175L2598.78,993.2L2598.75,993.226L2598.72,993.253L2598.7,993.28L2598.67,993.306L2598.64,993.333L2598.62,993.36L2598.6,993.389L2598.57,993.418L2598.55,993.445L2598.53,993.474L2598.5,993.503L2598.48,993.533L2598.46,993.562L2598.43,993.593L2598.41,993.624L2598.39,993.654L2598.37,993.684L2598.35,993.716L2598.33,993.748L2598.31,993.779L2598.29,993.813L2598.27,993.844L2598.25,993.877L2598.23,993.911L2598.22,993.945L2598.2,993.979L2598.18,994.011L2598.16,994.047L2598.15,994.082L2598.13,994.117L2598.12,994.153L2598.1,994.188L2598.09,994.225L2598.07,994.262L2598.06,994.299L2598.04,994.336L2598.03,994.373L2598.02,994.411L2598.01,994.45L2597.99,994.489L2597.98,994.528L2597.97,994.568L2597.96,994.608L2597.95,994.648L2597.94,994.689L2597.93,994.729L2597.93,994.771L2597.92,994.813L2597.91,994.856L2597.9,994.898L2597.9,994.941L2597.89,994.985L2597.89,995.029L2597.88,995.072L2597.88,995.117L2597.87,995.164L2597.87,995.21L2597.87,995.255L2597.87,995.301L2597.86,995.349L2597.86,995.397L2597.86,995.443L2597.86,995.486L2597.86,995.528L2597.87,995.57L2597.87,995.613L2597.87,995.659L2597.88,995.705L2597.88,995.751L2597.89,995.798L2597.89,995.846L2597.9,995.896L2597.91,995.947L2597.92,995.998L2597.93,996.048L2597.94,996.1L2597.95,996.153L2597.97,996.208L2597.98,996.262L2598,996.317L2598.01,996.371L2598.03,996.427L2598.05,996.485L2598.06,996.541L2598.08,996.598L2598.1,996.656L2598.12,996.715L2598.14,996.773L2598.17,996.831L2598.19,996.891L2598.21,996.951L2598.24,997.011L2598.26,997.07L2598.29,997.13L2598.31,997.19L2598.34,997.252L2598.37,997.312L2598.4,997.373L2598.43,997.435L2598.46,997.495L2598.49,997.556L2598.52,997.617L2598.55,997.679L2598.58,997.74L2598.62,997.801L2598.65,997.862L2598.68,997.923L2598.72,997.984L2598.75,998.045L2598.79,998.105L2598.82,998.165L2598.86,998.226L2598.9,998.287L2598.93,998.346L2598.97,998.405L2599.01,998.465L2599.05,998.525L2599.08,998.583L2599.12,998.641L2599.16,998.698L2599.24,998.815L2599.32,998.928L2599.4,999.04L2599.48,999.151L2599.57,999.258L2599.65,999.364L2599.73,999.468L2599.81,999.569L2599.9,999.668L2599.98,999.763L2600.06,999.856L2600.14,999.946L2600.22,1000.03L2600.3,1000.11L2600.38,1000.2L2600.42,1000.23L2600.46,1000.27L2600.5,1000.31L2600.53,1000.34L2600.57,1000.38L2600.61,1000.41L2600.64,1000.44L2600.68,1000.47L2600.71,1000.5L2600.75,1000.53L2600.78,1000.56L2600.81,1000.58L2600.85,1000.61L2600.88,1000.63L2600.91,1000.66L2600.93,1000.68L2600.96,1000.7L2600.99,1000.72L2601,1000.72L2601.01,1000.72L2601.04,1000.7L2601.07,1000.68L2601.09,1000.66L2601.12,1000.63L2601.16,1000.61L2601.19,1000.59L2601.22,1000.56L2601.25,1000.53L2601.29,1000.5L2601.32,1000.47L2601.36,1000.44L2601.39,1000.41L2601.43,1000.38L2601.47,1000.34L2601.5,1000.31L2601.54,1000.27L2601.58,1000.23L2601.62,1000.2L2601.7,1000.12L2601.78,1000.03L2601.86,999.945L2601.94,999.856L2602.02,999.763L2602.1,999.668L2602.19,999.569L2602.27,999.468L2602.35,999.364L2602.43,999.258L2602.52,999.151L2602.6,999.04L2602.68,998.928L2602.76,998.815L2602.84,998.698L2602.88,998.642L2602.92,998.583L2602.95,998.524L2602.99,998.465L2603.03,998.406L2603.07,998.346L2603.11,998.286L2603.14,998.226L2603.18,998.165L2603.21,998.105L2603.25,998.045L2603.28,997.984L2603.32,997.923L2603.35,997.862L2603.39,997.801L2603.42,997.74L2603.45,997.679L2603.48,997.617L2603.51,997.557L2603.54,997.496L2603.57,997.434L2603.6,997.372L2603.63,997.312L2603.66,997.252L2603.68,997.191L2603.71,997.131L2603.74,997.07L2603.76,997.01L2603.79,996.95L2603.81,996.891L2603.83,996.831L2603.86,996.773L2603.88,996.715L2603.9,996.657L2603.92,996.598L2603.94,996.54L2603.95,996.485L2603.97,996.428L2603.99,996.371L2604,996.316L2604.02,996.262L2604.03,996.208L2604.05,996.154L2604.06,996.1L2604.07,996.048L2604.08,995.998L2604.09,995.946L2604.1,995.896L2604.11,995.847L2604.11,995.8L2604.12,995.751L2604.12,995.703L2604.13,995.657L2604.13,995.615L2604.13,995.57L2604.14,995.526L2604.14,995.486L2604.14,995.443L2604.14,995.397L2604.14,995.349L2604.14,995.301L2604.13,995.255L2604.13,995.21L2604.13,995.164L2604.12,995.118L2604.12,995.073L2604.11,995.028L2604.11,994.984L2604.1,994.941L2604.1,994.898L2604.09,994.856L2604.08,994.813L2604.07,994.771L2604.07,994.73L2604.06,994.689L2604.05,994.648L2604.04,994.608L2604.03,994.568L2604.02,994.528L2604.01,994.488L2603.99,994.45L2603.98,994.412L2603.97,994.373L2603.95,994.335L2603.94,994.299L2603.93,994.262L2603.91,994.225L2603.9,994.188L2603.88,994.153L2603.87,994.117L2603.85,994.082L2603.84,994.048L2603.82,994.013L2603.8,993.978L2603.78,993.943L2603.77,993.911L2603.75,993.878L2603.73,993.844L2603.71,993.812L2603.69,993.779L2603.67,993.748L2603.65,993.716L2603.63,993.684L2603.61,993.654L2603.59,993.624L2603.57,993.593L2603.54,993.562L2603.52,993.533L2603.5,993.503L2603.48,993.475L2603.45,993.446L2603.43,993.417L2603.4,993.388L2603.38,993.36L2603.36,993.333L2603.33,993.306L2603.3,993.28L2603.28,993.253L2603.25,993.227L2603.22,993.2L2603.2,993.174L2603.17,993.15L2603.14,993.124L2603.12,993.1L2603.09,993.076L2603.06,993.052L2603.03,993.028L2603,993.004L2602.97,992.982L2602.94,992.959L2602.91,992.937L2602.88,992.915L2602.85,992.894L2602.82,992.872L2602.79,992.852L2602.76,992.831L2602.73,992.811L2602.7,992.791L2602.66,992.772L2602.63,992.753L2602.6,992.734L2602.57,992.716L2602.54,992.698L2602.5,992.68L2602.47,992.663L2602.44,992.646L2602.4,992.63L2602.37,992.614L2602.33,992.598L2602.3,992.583L2602.27,992.568L2602.23,992.554L2602.2,992.54L2602.16,992.526L2602.13,992.513L2602.09,992.5L2602.06,992.487L2602.02,992.475L2601.99,992.463L2601.95,992.452L2601.91,992.442L2601.88,992.431L2601.84,992.421L2601.81,992.411L2601.77,992.402L2601.73,992.393L2601.7,992.385L2601.66,992.377L2601.62,992.37L2601.59,992.362L2601.55,992.356L2601.51,992.35L2601.48,992.344L2601.44,992.338L2601.41,992.333L2601.37,992.329L2601.33,992.325L2601.3,992.321L2601.26,992.318L2601.22,992.315L2601.18,992.313L2601.15,992.311L2601.11,992.309L2601.07,992.308L2601.04,992.307L2601,992.307L2600.96,992.307Z" style="fill:rgb(51,51,51);"/>
            </g>
        </g>
    </g>
</svg>
