<?xml version="1.0" encoding="UTF-8" standalone="no"?>
<!DOCTYPE svg PUBLIC "-//W3C//DTD SVG 1.1//EN" "http://www.w3.org/Graphics/SVG/1.1/DTD/svg11.dtd">
<svg width="24px" height="24px" version="1.1" xmlns="http://www.w3.org/2000/svg" xmlns:xlink="http://www.w3.org/1999/xlink" xml:space="preserve" xmlns:serif="http://www.serif.com/" style="fill-rule:evenodd;clip-rule:evenodd;stroke-linejoin:round;stroke-miterlimit:1.41421;">
    <g transform="matrix(1,0,0,1,-624,-984)">
        <g id="object.regular.lock" transform="matrix(0.800768,0,0,0.984948,624,984)">
            <rect x="0" y="0" width="29.971" height="24.367" style="fill:none;"/>
            <g transform="matrix(1.2488,0,0,1.01528,-2456.39,-999.038)">
                <path d="M1986,1004C1986,1004.55 1985.55,1005 1985,1005C1982.42,1005 1975.58,1005 1973,1005C1972.45,1005 1972,1004.55 1972,1004C1972,1001.74 1972,996.26 1972,994C1972,993.448 1972.45,993 1973,993C1973.87,993 1975,993 1975,993C1975,993 1975,992.063 1975,991C1975,989.343 1976.34,988 1978,988C1978.65,988 1979.35,988 1980,988C1981.66,988 1983,989.343 1983,991C1983,992.063 1983,993 1983,993C1983,993 1984.13,993 1985,993C1985.55,993 1986,993.448 1986,994C1986,996.26 1986,1001.74 1986,1004ZM1984,995L1974,995L1974,1003L1984,1003L1984,995ZM1978,999C1978,998.448 1978.45,998 1979,998C1979.55,998 1980,998.448 1980,999C1980,999.552 1979.55,1000 1979,1000C1978.45,1000 1978,999.552 1978,999C1978,999 1978,999 1978,999ZM1981,991C1981,990.448 1980.55,990 1980,990C1979.39,990 1978.61,990 1978,990C1977.45,990 1977,990.448 1977,991C1977,991.873 1977,993 1977,993L1981,993C1981,993 1981,991.873 1981,991Z" style="fill:rgb(51,51,51);"/>
            </g>
        </g>
    </g>
</svg>
