<?xml version="1.0" encoding="UTF-8" standalone="no"?>
<!DOCTYPE svg PUBLIC "-//W3C//DTD SVG 1.1//EN" "http://www.w3.org/Graphics/SVG/1.1/DTD/svg11.dtd">
<svg width="24px" height="24px" version="1.1" xmlns="http://www.w3.org/2000/svg" xmlns:xlink="http://www.w3.org/1999/xlink" xml:space="preserve" xmlns:serif="http://www.serif.com/" style="fill-rule:evenodd;clip-rule:evenodd;stroke-linejoin:round;stroke-miterlimit:1.41421;">
    <g transform="matrix(1,0,0,1,-1198,-984)">
        <g id="object.regular.map" transform="matrix(1,0,0,1,-370,214)">
            <rect x="1568" y="770" width="24" height="24" style="fill:none;"/>
            <g transform="matrix(1,0,0,1,-973,-214)">
                <path d="M2550,989.882C2550,989.882 2554.16,987.801 2555.55,987.106C2555.83,986.965 2556.17,986.965 2556.45,987.106C2557.68,987.72 2561.1,989.433 2562.45,990.106C2562.79,990.275 2563,990.621 2563,991C2563,993.197 2563,1000.67 2563,1004C2563,1004.35 2562.82,1004.67 2562.53,1004.85C2562.23,1005.03 2561.86,1005.05 2561.55,1004.89C2559.5,1003.87 2556,1002.12 2556,1002.12C2556,1002.12 2551.84,1004.2 2550.45,1004.89C2550.17,1005.03 2549.83,1005.03 2549.55,1004.89C2548.32,1004.28 2544.9,1002.57 2543.55,1001.89C2543.21,1001.73 2543,1001.38 2543,1001C2543,998.803 2543,991.326 2543,988C2543,987.653 2543.18,987.332 2543.47,987.149C2543.77,986.967 2544.14,986.951 2544.45,987.106C2546.5,988.131 2550,989.882 2550,989.882ZM2549,991.618L2545,989.618L2545,1000.38L2549,1002.38L2549,991.618ZM2557,989.618L2557,1000.38L2561,1002.38L2561,991.618L2557,989.618ZM2551,991.618L2551,1002.38L2555,1000.38L2555,989.618L2551,991.618Z" style="fill:rgb(51,51,51);"/>
            </g>
        </g>
    </g>
</svg>
