<?xml version="1.0" encoding="UTF-8" standalone="no"?>
<!DOCTYPE svg PUBLIC "-//W3C//DTD SVG 1.1//EN" "http://www.w3.org/Graphics/SVG/1.1/DTD/svg11.dtd">
<svg width="24px" height="24px" version="1.1" xmlns="http://www.w3.org/2000/svg" xmlns:xlink="http://www.w3.org/1999/xlink" xml:space="preserve" xmlns:serif="http://www.serif.com/" style="fill-rule:evenodd;clip-rule:evenodd;stroke-linejoin:round;stroke-miterlimit:1.41421;">
    <g transform="matrix(1,0,0,1,-3475,-1032)">
        <g id="object.thin.watches" transform="matrix(1,0,0,1,1907,262)">
            <rect x="1568" y="770" width="24" height="24" style="fill:none;"/>
            <g transform="matrix(1,0,0,1,-1907,-262)">
                <path d="M3489.95,1039.22C3491.2,1040.23 3492,1041.77 3492,1043.5C3492,1045.23 3491.2,1046.77 3489.95,1047.78C3489.95,1047.78 3489.36,1050.73 3489.07,1052.2C3488.98,1052.66 3488.57,1053 3488.09,1053C3487.2,1053 3485.8,1053 3484.91,1053C3484.43,1053 3484.02,1052.66 3483.93,1052.2C3483.64,1050.73 3483.05,1047.78 3483.05,1047.78C3481.8,1046.77 3481,1045.23 3481,1043.5C3481,1041.77 3481.8,1040.23 3483.05,1039.22C3483.05,1039.22 3483.64,1036.27 3483.93,1034.8C3484.02,1034.34 3484.43,1034 3484.91,1034C3485.8,1034 3487.2,1034 3488.09,1034C3488.57,1034 3488.98,1034.34 3489.07,1034.8C3489.36,1036.27 3489.95,1039.22 3489.95,1039.22ZM3484.21,1048.5L3484.91,1052L3488.09,1052L3488.79,1048.5C3488.09,1048.82 3487.32,1049 3486.5,1049C3485.68,1049 3484.91,1048.82 3484.21,1048.5ZM3486.5,1039C3488.98,1039 3491,1041.02 3491,1043.5C3491,1045.98 3488.98,1048 3486.5,1048C3484.02,1048 3482,1045.98 3482,1043.5C3482,1041.02 3484.02,1039 3486.5,1039ZM3488.79,1038.5L3488.09,1035L3484.91,1035L3484.21,1038.5C3484.91,1038.18 3485.68,1038 3486.5,1038C3487.32,1038 3488.09,1038.18 3488.79,1038.5Z" style="fill:rgb(51,51,51);"/>
            </g>
        </g>
    </g>
</svg>
