<?xml version="1.0" encoding="UTF-8" standalone="no"?>
<!DOCTYPE svg PUBLIC "-//W3C//DTD SVG 1.1//EN" "http://www.w3.org/Graphics/SVG/1.1/DTD/svg11.dtd">
<svg width="24px" height="24px" version="1.1" xmlns="http://www.w3.org/2000/svg" xmlns:xlink="http://www.w3.org/1999/xlink" xml:space="preserve" xmlns:serif="http://www.serif.com/" style="fill-rule:evenodd;clip-rule:evenodd;stroke-linejoin:round;stroke-miterlimit:1.41421;">
    <g transform="matrix(1,0,0,1,-816,-1032)">
        <g id="object.thin.QRCode" transform="matrix(0.800768,0,0,0.984948,816,1032)">
            <rect x="0" y="0" width="29.971" height="24.367" style="fill:none;"/>
            <g transform="matrix(1.12392,0,0,0.913754,-268.242,-42.6419)">
                <path d="M262.092,48.893L262.183,48.904L262.273,48.923L262.361,48.949L262.446,48.982L262.529,49.023L262.608,49.07L262.682,49.123L262.753,49.183L262.817,49.247L262.877,49.318L262.93,49.392L262.977,49.471L263.018,49.554L263.051,49.639L263.077,49.727L263.096,49.817L263.107,49.908L263.111,50L263.111,70L263.107,70.092L263.096,70.183L263.077,70.273L263.051,70.361L263.018,70.446L262.977,70.529L262.93,70.608L262.877,70.682L262.817,70.753L262.753,70.817L262.682,70.877L262.608,70.93L262.529,70.977L262.446,71.018L262.361,71.051L262.273,71.077L262.183,71.096L262.092,71.107L262,71.111L242,71.111L241.908,71.107L241.817,71.096L241.727,71.077L241.639,71.051L241.554,71.018L241.471,70.977L241.392,70.93L241.318,70.877L241.247,70.817L241.183,70.753L241.123,70.682L241.07,70.608L241.023,70.529L240.982,70.446L240.949,70.361L240.923,70.273L240.904,70.183L240.893,70.092L240.889,70L240.889,50L240.893,49.908L240.904,49.817L240.923,49.727L240.949,49.639L240.982,49.554L241.023,49.471L241.07,49.392L241.123,49.318L241.183,49.247L241.247,49.183L241.318,49.123L241.392,49.07L241.471,49.023L241.554,48.982L241.639,48.949L241.727,48.923L241.817,48.904L241.908,48.893L242,48.889L262,48.889L262.092,48.893ZM242,50L242,70L262,70L262,50L242,50Z" style="fill:rgb(51,51,51);"/>
            </g>
            <g transform="matrix(1.66507,0,0,1.01528,-1359.94,-828.47)">
                <path d="M822.029,818.001L822.059,818.003L822.088,818.007L822.117,818.012L822.146,818.019L822.175,818.028L822.204,818.038L822.232,818.049L822.26,818.062L822.287,818.076L822.314,818.092L822.34,818.109L822.366,818.128L822.392,818.147L822.417,818.169L822.441,818.191L822.464,818.215L822.487,818.24L822.509,818.266L822.53,818.293L822.551,818.321L822.57,818.351L822.589,818.381L822.607,818.412L822.624,818.444L822.639,818.478L822.654,818.511L822.668,818.546L822.681,818.581L822.693,818.617L822.704,818.654L822.713,818.691L822.722,818.729L822.729,818.767L822.736,818.805L822.741,818.844L822.745,818.882L822.748,818.922L822.749,818.961L822.75,819L822.75,823L822.749,823.039L822.748,823.078L822.745,823.118L822.741,823.156L822.736,823.195L822.729,823.233L822.722,823.271L822.713,823.309L822.704,823.346L822.693,823.383L822.681,823.419L822.668,823.454L822.654,823.489L822.639,823.522L822.624,823.556L822.607,823.588L822.589,823.619L822.57,823.649L822.551,823.679L822.53,823.707L822.509,823.734L822.487,823.76L822.464,823.785L822.441,823.809L822.417,823.831L822.392,823.853L822.366,823.872L822.34,823.891L822.314,823.908L822.287,823.924L822.26,823.938L822.232,823.951L822.204,823.962L822.175,823.972L822.146,823.981L822.117,823.988L822.088,823.993L822.059,823.997L822.029,823.999L822,824L819,824L818.971,823.999L818.941,823.997L818.912,823.993L818.883,823.988L818.854,823.981L818.825,823.972L818.796,823.962L818.768,823.951L818.74,823.938L818.713,823.924L818.686,823.908L818.66,823.891L818.634,823.872L818.608,823.853L818.583,823.831L818.559,823.809L818.536,823.785L818.513,823.76L818.491,823.734L818.47,823.707L818.449,823.679L818.43,823.649L818.411,823.619L818.393,823.588L818.376,823.556L818.361,823.522L818.346,823.489L818.332,823.454L818.319,823.419L818.307,823.383L818.296,823.346L818.287,823.309L818.278,823.271L818.271,823.233L818.264,823.195L818.259,823.156L818.255,823.118L818.252,823.078L818.251,823.039L818.25,823L818.25,819L818.251,818.961L818.252,818.922L818.255,818.882L818.259,818.844L818.264,818.805L818.271,818.767L818.278,818.729L818.287,818.691L818.296,818.654L818.307,818.617L818.319,818.581L818.332,818.546L818.346,818.511L818.361,818.478L818.376,818.444L818.393,818.412L818.411,818.381L818.43,818.351L818.449,818.321L818.47,818.293L818.491,818.266L818.513,818.24L818.536,818.215L818.559,818.191L818.583,818.169L818.608,818.147L818.634,818.128L818.66,818.109L818.686,818.092L818.713,818.076L818.74,818.062L818.768,818.049L818.796,818.038L818.825,818.028L818.854,818.019L818.883,818.012L818.912,818.007L818.941,818.003L818.971,818.001L819,818L822,818L822.029,818.001ZM819,819L819,823L822,823L822,819L819,819Z" style="fill:rgb(51,51,51);"/>
            </g>
            <g transform="matrix(1.66507,0,0,1.01528,-1342.46,-828.47)">
                <path d="M822.029,818.001L822.059,818.003L822.088,818.007L822.117,818.012L822.146,818.019L822.175,818.028L822.204,818.038L822.232,818.049L822.26,818.062L822.287,818.076L822.314,818.092L822.34,818.109L822.366,818.128L822.392,818.147L822.417,818.169L822.441,818.191L822.464,818.215L822.487,818.24L822.509,818.266L822.53,818.293L822.551,818.321L822.57,818.351L822.589,818.381L822.607,818.412L822.624,818.444L822.639,818.478L822.654,818.511L822.668,818.546L822.681,818.581L822.693,818.617L822.704,818.654L822.713,818.691L822.722,818.729L822.729,818.767L822.736,818.805L822.741,818.844L822.745,818.882L822.748,818.922L822.749,818.961L822.75,819L822.75,823L822.749,823.039L822.748,823.078L822.745,823.118L822.741,823.156L822.736,823.195L822.729,823.233L822.722,823.271L822.713,823.309L822.704,823.346L822.693,823.383L822.681,823.419L822.668,823.454L822.654,823.489L822.639,823.522L822.624,823.556L822.607,823.588L822.589,823.619L822.57,823.649L822.551,823.679L822.53,823.707L822.509,823.734L822.487,823.76L822.464,823.785L822.441,823.809L822.417,823.831L822.392,823.853L822.366,823.872L822.34,823.891L822.314,823.908L822.287,823.924L822.26,823.938L822.232,823.951L822.204,823.962L822.175,823.972L822.146,823.981L822.117,823.988L822.088,823.993L822.059,823.997L822.029,823.999L822,824L819,824L818.971,823.999L818.941,823.997L818.912,823.993L818.883,823.988L818.854,823.981L818.825,823.972L818.796,823.962L818.768,823.951L818.74,823.938L818.713,823.924L818.686,823.908L818.66,823.891L818.634,823.872L818.608,823.853L818.583,823.831L818.559,823.809L818.536,823.785L818.513,823.76L818.491,823.734L818.47,823.707L818.449,823.679L818.43,823.649L818.411,823.619L818.393,823.588L818.376,823.556L818.361,823.522L818.346,823.489L818.332,823.454L818.319,823.419L818.307,823.383L818.296,823.346L818.287,823.309L818.278,823.271L818.271,823.233L818.264,823.195L818.259,823.156L818.255,823.118L818.252,823.078L818.251,823.039L818.25,823L818.25,819L818.251,818.961L818.252,818.922L818.255,818.882L818.259,818.844L818.264,818.805L818.271,818.767L818.278,818.729L818.287,818.691L818.296,818.654L818.307,818.617L818.319,818.581L818.332,818.546L818.346,818.511L818.361,818.478L818.376,818.444L818.393,818.412L818.411,818.381L818.43,818.351L818.449,818.321L818.47,818.293L818.491,818.266L818.513,818.24L818.536,818.215L818.559,818.191L818.583,818.169L818.608,818.147L818.634,818.128L818.66,818.109L818.686,818.092L818.713,818.076L818.74,818.062L818.768,818.049L818.796,818.038L818.825,818.028L818.854,818.019L818.883,818.012L818.912,818.007L818.941,818.003L818.971,818.001L819,818L822,818L822.029,818.001ZM819,819L819,823L822,823L822,819L819,819Z" style="fill:rgb(51,51,51);"/>
            </g>
            <g transform="matrix(1.66507,0,0,1.01528,-1359.94,-814.256)">
                <path d="M822.029,818.001L822.059,818.003L822.088,818.007L822.117,818.012L822.146,818.019L822.175,818.028L822.204,818.038L822.232,818.049L822.26,818.062L822.287,818.076L822.314,818.092L822.34,818.109L822.366,818.128L822.392,818.147L822.417,818.169L822.441,818.191L822.464,818.215L822.487,818.24L822.509,818.266L822.53,818.293L822.551,818.321L822.57,818.351L822.589,818.381L822.607,818.412L822.624,818.444L822.639,818.478L822.654,818.511L822.668,818.546L822.681,818.581L822.693,818.617L822.704,818.654L822.713,818.691L822.722,818.729L822.729,818.767L822.736,818.805L822.741,818.844L822.745,818.882L822.748,818.922L822.749,818.961L822.75,819L822.75,823L822.749,823.039L822.748,823.078L822.745,823.118L822.741,823.156L822.736,823.195L822.729,823.233L822.722,823.271L822.713,823.309L822.704,823.346L822.693,823.383L822.681,823.419L822.668,823.454L822.654,823.489L822.639,823.522L822.624,823.556L822.607,823.588L822.589,823.619L822.57,823.649L822.551,823.679L822.53,823.707L822.509,823.734L822.487,823.76L822.464,823.785L822.441,823.809L822.417,823.831L822.392,823.853L822.366,823.872L822.34,823.891L822.314,823.908L822.287,823.924L822.26,823.938L822.232,823.951L822.204,823.962L822.175,823.972L822.146,823.981L822.117,823.988L822.088,823.993L822.059,823.997L822.029,823.999L822,824L819,824L818.971,823.999L818.941,823.997L818.912,823.993L818.883,823.988L818.854,823.981L818.825,823.972L818.796,823.962L818.768,823.951L818.74,823.938L818.713,823.924L818.686,823.908L818.66,823.891L818.634,823.872L818.608,823.853L818.583,823.831L818.559,823.809L818.536,823.785L818.513,823.76L818.491,823.734L818.47,823.707L818.449,823.679L818.43,823.649L818.411,823.619L818.393,823.588L818.376,823.556L818.361,823.522L818.346,823.489L818.332,823.454L818.319,823.419L818.307,823.383L818.296,823.346L818.287,823.309L818.278,823.271L818.271,823.233L818.264,823.195L818.259,823.156L818.255,823.118L818.252,823.078L818.251,823.039L818.25,823L818.25,819L818.251,818.961L818.252,818.922L818.255,818.882L818.259,818.844L818.264,818.805L818.271,818.767L818.278,818.729L818.287,818.691L818.296,818.654L818.307,818.617L818.319,818.581L818.332,818.546L818.346,818.511L818.361,818.478L818.376,818.444L818.393,818.412L818.411,818.381L818.43,818.351L818.449,818.321L818.47,818.293L818.491,818.266L818.513,818.24L818.536,818.215L818.559,818.191L818.583,818.169L818.608,818.147L818.634,818.128L818.66,818.109L818.686,818.092L818.713,818.076L818.74,818.062L818.768,818.049L818.796,818.038L818.825,818.028L818.854,818.019L818.883,818.012L818.912,818.007L818.941,818.003L818.971,818.001L819,818L822,818L822.029,818.001ZM819,819L819,823L822,823L822,819L819,819Z" style="fill:rgb(51,51,51);"/>
            </g>
            <g>
                <g transform="matrix(2.4976,0,0,2.03056,-2045.54,-1663.03)">
                    <circle cx="821.5" cy="821.5" r="0.5" style="fill:rgb(51,51,51);"/>
                </g>
                <g transform="matrix(2.4976,0,0,2.03056,-2028.05,-1663.03)">
                    <circle cx="821.5" cy="821.5" r="0.5" style="fill:rgb(51,51,51);"/>
                </g>
                <g transform="matrix(2.4976,0,0,2.03056,-2045.54,-1648.82)">
                    <circle cx="821.5" cy="821.5" r="0.5" style="fill:rgb(51,51,51);"/>
                </g>
                <g transform="matrix(0.832534,0,0,0.676855,-674.769,-580.403)">
                    <path d="M830.042,872.501L830.084,872.502L830.126,872.505L830.168,872.509L830.21,872.515L830.251,872.521L830.293,872.529L830.334,872.538L830.375,872.548L830.415,872.559L830.456,872.571L830.495,872.584L830.535,872.599L830.574,872.614L830.613,872.631L830.651,872.649L830.688,872.667L830.726,872.687L830.762,872.708L830.798,872.73L830.833,872.753L830.868,872.777L830.902,872.801L830.935,872.827L830.968,872.854L831,872.882L831.03,872.91L831.061,872.939L831.09,872.97L831.118,873L831.146,873.032L831.173,873.065L831.199,873.098L831.223,873.132L831.247,873.167L831.27,873.202L831.292,873.238L831.313,873.274L831.333,873.312L831.351,873.349L831.369,873.387L831.386,873.426L831.401,873.465L831.416,873.505L831.429,873.544L831.441,873.585L831.452,873.625L831.462,873.666L831.471,873.707L831.479,873.749L831.485,873.79L831.491,873.832L831.495,873.874L831.498,873.916L831.499,873.958L831.5,874L831.5,877L831.499,877.042L831.498,877.084L831.495,877.126L831.491,877.168L831.485,877.21L831.479,877.251L831.471,877.293L831.462,877.334L831.452,877.375L831.441,877.415L831.429,877.456L831.416,877.495L831.401,877.535L831.386,877.574L831.369,877.613L831.351,877.651L831.333,877.688L831.313,877.726L831.292,877.762L831.27,877.798L831.247,877.833L831.223,877.868L831.199,877.902L831.173,877.935L831.146,877.968L831.118,878L831.09,878.03L831.061,878.061L831.03,878.09L831,878.118L830.968,878.146L830.935,878.173L830.902,878.199L830.868,878.223L830.833,878.247L830.798,878.27L830.762,878.292L830.726,878.313L830.688,878.333L830.651,878.351L830.613,878.369L830.574,878.386L830.535,878.401L830.495,878.416L830.456,878.429L830.415,878.441L830.375,878.452L830.334,878.462L830.293,878.471L830.251,878.479L830.21,878.485L830.168,878.491L830.126,878.495L830.084,878.498L830.042,878.499L830,878.5L827,878.5L826.958,878.499L826.916,878.498L826.874,878.495L826.832,878.491L826.79,878.485L826.749,878.479L826.707,878.471L826.666,878.462L826.625,878.452L826.585,878.441L826.544,878.429L826.505,878.416L826.465,878.401L826.426,878.386L826.387,878.369L826.349,878.351L826.312,878.333L826.274,878.313L826.238,878.292L826.202,878.27L826.167,878.247L826.132,878.223L826.098,878.199L826.065,878.173L826.032,878.146L826,878.118L825.97,878.09L825.939,878.061L825.91,878.03L825.882,878L825.854,877.968L825.827,877.935L825.801,877.902L825.777,877.868L825.753,877.833L825.73,877.798L825.708,877.762L825.687,877.726L825.667,877.688L825.649,877.651L825.631,877.613L825.614,877.574L825.599,877.535L825.584,877.495L825.571,877.456L825.559,877.415L825.548,877.375L825.538,877.334L825.529,877.293L825.521,877.251L825.515,877.21L825.509,877.168L825.505,877.126L825.502,877.084L825.501,877.042L825.5,877L825.5,874L825.501,873.958L825.502,873.916L825.505,873.874L825.509,873.832L825.515,873.79L825.521,873.749L825.529,873.707L825.538,873.666L825.548,873.625L825.559,873.585L825.571,873.544L825.584,873.505L825.599,873.465L825.614,873.426L825.631,873.387L825.649,873.349L825.667,873.312L825.687,873.274L825.708,873.238L825.73,873.202L825.753,873.167L825.777,873.132L825.801,873.098L825.827,873.065L825.854,873.032L825.882,873L825.91,872.97L825.939,872.939L825.97,872.91L826,872.882L826.032,872.854L826.065,872.827L826.098,872.801L826.132,872.777L826.167,872.753L826.202,872.73L826.238,872.708L826.274,872.687L826.312,872.667L826.349,872.649L826.387,872.631L826.426,872.614L826.465,872.599L826.505,872.584L826.544,872.571L826.585,872.559L826.625,872.548L826.666,872.538L826.707,872.529L826.749,872.521L826.79,872.515L826.832,872.509L826.874,872.505L826.916,872.502L826.958,872.501L827,872.5L830,872.5L830.042,872.501ZM827,874L827,877L830,877L830,874L827,874Z" style="fill:rgb(51,51,51);"/>
                </g>
                <g transform="matrix(1.2488,0,0,1.01528,-1904.42,-828.47)">
                    <path d="M1534,827.5C1534,827.367 1533.95,827.24 1533.85,827.146C1533.76,827.053 1533.63,827 1533.5,827C1533.37,827 1533.24,827.053 1533.15,827.146C1533.05,827.24 1533,827.367 1533,827.5C1533,828.055 1533,828.945 1533,829.5C1533,829.633 1533.05,829.76 1533.15,829.854C1533.24,829.947 1533.37,830 1533.5,830C1533.63,830 1533.76,829.947 1533.85,829.854C1533.95,829.76 1534,829.633 1534,829.5C1534,828.945 1534,828.055 1534,827.5Z" style="fill:rgb(51,51,51);"/>
                </g>
                <g transform="matrix(1.2488,0,0,1.01528,-1904.42,-828.47)">
                    <path d="M1529,829.5C1529,829.367 1529.05,829.24 1529.15,829.146C1529.24,829.053 1529.37,829 1529.5,829C1529.75,829 1530,829 1530,829C1530,829 1530,828.092 1530,827.5C1530,827.367 1530.05,827.24 1530.15,827.146C1530.24,827.053 1530.37,827 1530.5,827C1530.78,827 1531,827.224 1531,827.5C1531,827.75 1531,828 1531,828C1531,828 1531.25,828 1531.5,828C1531.78,828 1532,828.224 1532,828.5C1532,828.776 1531.78,829 1531.5,829C1531.25,829 1531,829 1531,829L1531,829C1531,829 1531,829.908 1531,830.5C1531,830.633 1530.95,830.76 1530.86,830.854C1530.76,830.947 1530.64,831 1530.5,831C1530.2,831 1529.81,831 1529.5,831C1529.37,831 1529.24,830.947 1529.15,830.854C1529.05,830.76 1529,830.633 1529,830.5C1529,830.195 1529,829.805 1529,829.5Z" style="fill:rgb(51,51,51);"/>
                </g>
                <g transform="matrix(1.2488,0,0,1.01528,-1904.42,-828.47)">
                    <path d="M1533,830.498C1533,830.223 1532.77,830 1532.5,830C1532.5,830 1532.5,830 1532.5,830C1532.22,830 1532,830.223 1532,830.498C1532,830.499 1532,830.501 1532,830.502C1532,830.777 1532.22,831 1532.5,831C1532.5,831 1532.5,831 1532.5,831C1532.77,831 1533,830.777 1533,830.502C1533,830.501 1533,830.499 1533,830.498Z" style="fill:rgb(51,51,51);"/>
                </g>
                <g transform="matrix(1.2488,0,0,1.01528,-1904.42,-828.47)">
                    <path d="M1537,821.5C1537,821.224 1537.23,821 1537.5,821C1538.09,821 1539,821 1539,821C1539,821 1539,820.75 1539,820.5C1539,820.367 1539.05,820.24 1539.15,820.146C1539.24,820.053 1539.37,820 1539.5,820C1539.63,820 1539.76,820.053 1539.85,820.146C1539.95,820.24 1540,820.367 1540,820.5C1540,821.458 1540,823.542 1540,824.5C1540,824.633 1539.95,824.76 1539.85,824.854C1539.76,824.947 1539.63,825 1539.5,825C1539.22,825 1539,824.776 1539,824.5C1539,824.25 1539,824 1539,824C1539,824 1538.75,824 1538.5,824C1538.37,824 1538.24,823.947 1538.15,823.854C1538.05,823.76 1538,823.633 1538,823.5C1538,822.908 1538,822 1538,822C1538,822 1537.75,822 1537.5,822C1537.23,822 1537,821.776 1537,821.5C1537,821.5 1537,821.5 1537,821.5Z" style="fill:rgb(51,51,51);"/>
                </g>
                <g transform="matrix(1.2488,0,0,1.01528,-1904.42,-828.47)">
                    <path d="M1529,825.5C1529,825.367 1529.05,825.24 1529.15,825.146C1529.24,825.053 1529.37,825 1529.5,825L1533.5,825C1533.63,825 1533.76,825.053 1533.85,825.146C1533.95,825.24 1534,825.367 1534,825.5C1534,825.776 1533.78,826 1533.5,826C1533.25,826 1533,826 1533,826C1533,826 1533,826.25 1533,826.5C1533,826.633 1532.95,826.76 1532.85,826.854C1532.76,826.947 1532.63,827 1532.5,827C1532.19,827 1531.81,827 1531.5,827C1531.37,827 1531.24,826.947 1531.15,826.854C1531.05,826.76 1531,826.633 1531,826.5C1531,826.25 1531,826 1531,826C1531,826 1530.09,826 1529.5,826C1529.37,826 1529.24,825.947 1529.15,825.854C1529.05,825.76 1529,825.633 1529,825.5C1529,825.5 1529,825.5 1529,825.5Z" style="fill:rgb(51,51,51);"/>
                </g>
                <g transform="matrix(1.2488,0,0,1.01528,-1904.42,-828.47)">
                    <path d="M1535,824.487C1535,824.358 1534.95,824.234 1534.86,824.143C1534.77,824.051 1534.64,824 1534.51,824C1534.51,824 1534.5,824 1534.5,824C1534.22,824 1534,824.223 1534,824.499C1534,824.504 1534,824.508 1534,824.513C1534,824.642 1534.05,824.766 1534.14,824.857C1534.23,824.949 1534.36,825 1534.49,825C1534.49,825 1534.49,825 1534.49,825C1534.77,825 1535,824.771 1535,824.488C1535,824.488 1535,824.487 1535,824.487Z" style="fill:rgb(51,51,51);"/>
                </g>
                <g transform="matrix(1.2488,0,0,1.01528,-1904.42,-828.47)">
                    <path d="M1540,835.499C1540,835.223 1539.78,835 1539.5,835C1539.5,835 1539.5,835 1539.5,835C1539.22,835 1539,835.223 1539,835.499C1539,835.5 1539,835.5 1539,835.501C1539,835.777 1539.22,836 1539.5,836C1539.5,836 1539.5,836 1539.5,836C1539.78,836 1540,835.777 1540,835.501C1540,835.5 1540,835.5 1540,835.499Z" style="fill:rgb(51,51,51);"/>
                </g>
                <g transform="matrix(1.2488,0,0,1.01528,-1904.42,-827.963)">
                    <path d="M1544,824.999C1544,824.723 1543.77,824.5 1543.5,824.5C1543.19,824.5 1542.8,824.5 1542.5,824.5C1542.22,824.5 1542,824.723 1542,824.999C1542,825 1542,825 1542,825.001C1542,825.277 1542.22,825.5 1542.5,825.5C1542.8,825.5 1543.19,825.5 1543.5,825.5C1543.77,825.5 1544,825.277 1544,825.001C1544,825 1544,825 1544,824.999Z" style="fill:rgb(51,51,51);"/>
                </g>
                <g transform="matrix(1.2488,0,0,1.01528,-1904.42,-828.47)">
                    <path d="M1541,826.499C1541,826.223 1540.77,826 1540.5,826C1540.5,826 1540.5,826 1540.5,826C1540.22,826 1540,826.223 1540,826.499C1540,826.5 1540,826.5 1540,826.501C1540,826.777 1540.22,827 1540.5,827C1540.5,827 1540.5,827 1540.5,827C1540.77,827 1541,826.777 1541,826.501C1541,826.5 1541,826.5 1541,826.499Z" style="fill:rgb(51,51,51);"/>
                </g>
                <g transform="matrix(1.2488,0,0,1.01528,-1904.42,-828.47)">
                    <path d="M1543.5,827.499C1543.5,827.223 1543.28,827 1543,827C1542.56,827 1541.93,827 1541.5,827C1541.22,827 1541,827.223 1541,827.499C1541,827.5 1541,827.5 1541,827.501C1541,827.777 1541.22,828 1541.5,828C1541.93,828 1542.56,828 1543,828C1543.28,828 1543.5,827.777 1543.5,827.501C1543.5,827.5 1543.5,827.5 1543.5,827.499Z" style="fill:rgb(51,51,51);"/>
                </g>
                <g transform="matrix(1.4272,0,0,1.01528,-2179.34,-828.47)">
                    <path d="M1544.5,835.499C1544.5,835.223 1544.31,835 1544.06,835C1543.39,835 1542.11,835 1541.44,835C1541.19,835 1541,835.223 1541,835.499C1541,835.5 1541,835.5 1541,835.501C1541,835.777 1541.19,836 1541.44,836C1542.11,836 1543.39,836 1544.06,836C1544.31,836 1544.5,835.777 1544.5,835.501C1544.5,835.5 1544.5,835.5 1544.5,835.499Z" style="fill:rgb(51,51,51);"/>
                </g>
                <g transform="matrix(1.2488,0,0,1.01528,-1904.42,-828.47)">
                    <path d="M1543,832.5C1543,832.224 1543.22,832 1543.5,832L1544,832C1544,832 1544,831.75 1544,831.5C1544,831.224 1544.22,831 1544.5,831C1544.78,831 1545,831.224 1545,831.5L1545,832.5C1545,832.776 1544.78,833 1544.5,833C1544.25,833 1544,833 1544,833L1544,833C1544,833 1544,833.251 1544,833.501C1544,833.777 1543.78,834 1543.5,834C1543.5,834 1543.5,834 1543.5,834C1543.22,834 1543,833.777 1543,833.501C1543,833.251 1543,833 1543,833C1543,833 1543,832.75 1543,832.5Z" style="fill:rgb(51,51,51);"/>
                </g>
                <g transform="matrix(1.2488,0,0,1.01528,-1904.42,-828.47)">
                    <path d="M1535,835.499C1535,835.223 1534.78,835 1534.5,835C1534.5,835 1534.49,835 1534.49,835C1534.36,835 1534.23,835.051 1534.14,835.143C1534.05,835.234 1534,835.358 1534,835.487C1534,835.496 1534,835.504 1534,835.513C1534,835.642 1534.05,835.766 1534.14,835.857C1534.23,835.949 1534.36,836 1534.49,836C1534.49,836 1534.5,836 1534.5,836C1534.78,836 1535,835.777 1535,835.501C1535,835.5 1535,835.5 1535,835.499Z" style="fill:rgb(51,51,51);"/>
                </g>
                <g transform="matrix(1.2488,0,0,1.01528,-1904.42,-828.47)">
                    <path d="M1538,832.5C1538,832.224 1538.22,832 1538.5,832C1538.75,832 1539,832 1539,832C1539,832 1539,831.75 1539,831.5C1539,831.367 1539.05,831.24 1539.15,831.146C1539.24,831.053 1539.37,831 1539.5,831C1539.81,831 1540.19,831 1540.5,831C1540.63,831 1540.76,831.053 1540.85,831.146C1540.95,831.24 1541,831.367 1541,831.5C1541,831.776 1540.78,832 1540.5,832C1540.25,832 1540,832 1540,832C1540,832 1540,832.25 1540,832.5C1540,832.633 1539.95,832.76 1539.85,832.854C1539.76,832.947 1539.63,833 1539.5,833C1539.25,833 1539,833 1539,833C1539,833 1538.75,833 1538.5,833C1538.22,833 1538,832.776 1538,832.5C1538,832.5 1538,832.5 1538,832.5Z" style="fill:rgb(51,51,51);"/>
                </g>
                <g transform="matrix(1.2488,0,0,1.01528,-1904.42,-828.47)">
                    <path d="M1534,832.5C1534,832.367 1534.05,832.24 1534.15,832.146C1534.24,832.053 1534.37,832 1534.5,832C1534.75,832 1535,832 1535,832C1535,832 1535,831.75 1535,831.5C1535,831.224 1535.22,831 1535.5,831C1535.78,831 1536,831.224 1536,831.5C1536,831.75 1536,832 1536,832C1536,832 1536.25,832 1536.5,832C1536.63,832 1536.76,832.053 1536.85,832.146C1536.95,832.24 1537,832.367 1537,832.5C1537,833.092 1537,834 1537,834C1537,834 1537.25,834 1537.5,834C1537.63,834 1537.76,834.053 1537.85,834.146C1537.95,834.24 1538,834.367 1538,834.5C1538,834.776 1537.78,835 1537.5,835C1537.25,835 1537,835 1537,835C1537,835 1536.75,835 1536.5,835C1536.37,835 1536.24,834.947 1536.15,834.854C1536.05,834.76 1536,834.633 1536,834.5C1536,834.25 1536,834 1536,834C1536,834 1535.09,834 1534.5,834C1534.37,834 1534.24,833.947 1534.15,833.854C1534.05,833.76 1534,833.633 1534,833.5C1534,833.195 1534,832.805 1534,832.5Z" style="fill:rgb(51,51,51);"/>
                </g>
                <g transform="matrix(1.2488,0,0,1.01528,-1904.42,-828.47)">
                    <path d="M1541,829.5C1541,829.224 1541.22,829 1541.5,829L1543.5,829C1543.63,829 1543.76,829.053 1543.85,829.146C1543.95,829.24 1544,829.367 1544,829.5C1544,829.805 1544,830.195 1544,830.5C1544,830.633 1543.95,830.76 1543.85,830.854C1543.76,830.947 1543.63,831 1543.5,831C1543.5,831 1543.5,831 1543.5,831L1543,831C1543,831 1543,831.25 1543,831.5C1543,831.633 1542.95,831.76 1542.85,831.854C1542.76,831.947 1542.63,832 1542.5,832C1542.37,832 1542.24,831.947 1542.15,831.854C1542.05,831.76 1542,831.633 1542,831.5C1542,830.908 1542,830 1542,830C1542,830 1541.75,830 1541.5,830C1541.22,830 1541,829.776 1541,829.5C1541,829.5 1541,829.5 1541,829.5Z" style="fill:rgb(51,51,51);"/>
                </g>
                <g transform="matrix(1.2488,0,0,1.01528,-1904.42,-828.47)">
                    <path d="M1534,820.5C1534,820.224 1534.22,820 1534.5,820C1535.06,820 1535.95,820 1536.5,820C1536.78,820 1537,820.224 1537,820.5C1537,820.776 1536.78,821 1536.5,821C1536.25,821 1536,821 1536,821L1536,822C1536,822 1536.25,822 1536.5,822C1536.78,822 1537,822.224 1537,822.5C1537,822.776 1536.78,823 1536.5,823C1536.25,823 1536,823 1536,823C1536,823 1536,823.25 1536,823.5C1536,823.776 1535.78,824 1535.5,824C1535.37,824 1535.24,823.947 1535.15,823.854C1535.05,823.76 1535,823.633 1535,823.5C1535,822.647 1535,821 1535,821C1535,821 1534.75,821 1534.5,821C1534.22,821 1534,820.776 1534,820.5C1534,820.5 1534,820.5 1534,820.5Z" style="fill:rgb(51,51,51);"/>
                </g>
            </g>
        </g>
    </g>
</svg>
