<?xml version="1.0" encoding="UTF-8" standalone="no"?>
<!DOCTYPE svg PUBLIC "-//W3C//DTD SVG 1.1//EN" "http://www.w3.org/Graphics/SVG/1.1/DTD/svg11.dtd">
<svg width="24px" height="24px" version="1.1" xmlns="http://www.w3.org/2000/svg" xmlns:xlink="http://www.w3.org/1999/xlink" xml:space="preserve" xmlns:serif="http://www.serif.com/" style="fill-rule:evenodd;clip-rule:evenodd;stroke-linecap:round;stroke-linejoin:round;stroke-miterlimit:1.5;">
    <g transform="matrix(1,0,0,1,-1891,-984)">
        <g id="object.regular.shoppingCart" transform="matrix(1,0,0,1,323,214)">
            <rect x="1568" y="770" width="24" height="24" style="fill:none;"/>
            <g transform="matrix(1,0,0,1,-147.003,2)">
                <path d="M1733.92,784.394C1733.76,784.762 1733.4,785 1733,785C1730.79,785 1723.65,785 1721,785C1720.74,785 1720.48,784.895 1720.29,784.707C1720.11,784.52 1720,784.265 1720,784C1720,781.655 1720,776 1720,776C1720,776 1731.75,776 1736,776C1736.34,776 1736.65,776.169 1736.84,776.45C1737.02,776.73 1737.05,777.085 1736.92,777.394C1736.07,779.389 1734.53,782.972 1733.92,784.394ZM1722,778L1722,783L1732.34,783L1734.49,778L1722,778Z" style="fill:rgb(51,51,51);fill-rule:nonzero;"/>
            </g>
            <g transform="matrix(1.5,0,0,1,-1007.5,3)">
                <path d="M1719,774L1721,774L1721,776" style="fill:none;stroke:rgb(51,51,51);stroke-width:1.57px;"/>
            </g>
            <g transform="matrix(4,0,0,4,-5347,-2360)">
                <path d="M1732.51,787L1732.53,787.001L1732.54,787.001L1732.55,787.003L1732.56,787.004L1732.58,787.006L1732.59,787.008L1732.6,787.01L1732.61,787.013L1732.62,787.016L1732.64,787.019L1732.65,787.022L1732.66,787.026L1732.67,787.03L1732.68,787.035L1732.69,787.039L1732.71,787.044L1732.72,787.049L1732.73,787.055L1732.74,787.06L1732.75,787.066L1732.76,787.072L1732.77,787.079L1732.78,787.085L1732.79,787.092L1732.8,787.099L1732.81,787.107L1732.82,787.114L1732.83,787.122L1732.84,787.13L1732.85,787.138L1732.85,787.147L1732.86,787.155L1732.87,787.164L1732.88,787.173L1732.89,787.182L1732.89,787.191L1732.9,787.201L1732.91,787.211L1732.91,787.221L1732.92,787.231L1732.93,787.241L1732.93,787.251L1732.94,787.262L1732.94,787.272L1732.95,787.283L1732.96,787.294L1732.96,787.305L1732.97,787.317L1732.97,787.328L1732.97,787.34L1732.98,787.351L1732.98,787.363L1732.98,787.375L1732.99,787.387L1732.99,787.399L1732.99,787.412L1732.99,787.424L1733,787.436L1733,787.449L1733,787.462L1733,787.474L1733,787.487L1733,787.5L1733,787.513L1733,787.526L1733,787.538L1733,787.551L1733,787.564L1732.99,787.576L1732.99,787.588L1732.99,787.601L1732.99,787.613L1732.98,787.625L1732.98,787.637L1732.98,787.649L1732.97,787.66L1732.97,787.672L1732.97,787.683L1732.96,787.695L1732.96,787.706L1732.95,787.717L1732.94,787.728L1732.94,787.738L1732.93,787.749L1732.93,787.759L1732.92,787.769L1732.91,787.779L1732.91,787.789L1732.9,787.799L1732.89,787.809L1732.89,787.818L1732.88,787.827L1732.87,787.836L1732.86,787.845L1732.85,787.853L1732.85,787.862L1732.84,787.87L1732.83,787.878L1732.82,787.886L1732.81,787.893L1732.8,787.901L1732.79,787.908L1732.78,787.915L1732.77,787.921L1732.76,787.928L1732.75,787.934L1732.74,787.94L1732.73,787.945L1732.72,787.951L1732.71,787.956L1732.69,787.961L1732.68,787.965L1732.67,787.97L1732.66,787.974L1732.65,787.978L1732.64,787.981L1732.62,787.984L1732.61,787.987L1732.6,787.99L1732.59,787.992L1732.58,787.994L1732.56,787.996L1732.55,787.997L1732.54,787.999L1732.53,787.999L1732.51,788L1732.5,788L1732.49,788L1732.47,787.999L1732.46,787.999L1732.45,787.997L1732.44,787.996L1732.42,787.994L1732.41,787.992L1732.4,787.99L1732.39,787.987L1732.38,787.984L1732.36,787.981L1732.35,787.978L1732.34,787.974L1732.33,787.97L1732.32,787.965L1732.31,787.961L1732.29,787.956L1732.28,787.951L1732.27,787.945L1732.26,787.94L1732.25,787.934L1732.24,787.928L1732.23,787.921L1732.22,787.915L1732.21,787.908L1732.2,787.901L1732.19,787.893L1732.18,787.886L1732.17,787.878L1732.16,787.87L1732.15,787.862L1732.15,787.853L1732.14,787.845L1732.13,787.836L1732.12,787.827L1732.11,787.818L1732.11,787.809L1732.1,787.799L1732.09,787.789L1732.09,787.779L1732.08,787.769L1732.07,787.759L1732.07,787.749L1732.06,787.738L1732.06,787.728L1732.05,787.717L1732.04,787.706L1732.04,787.695L1732.04,787.683L1732.03,787.672L1732.03,787.66L1732.02,787.649L1732.02,787.637L1732.02,787.625L1732.01,787.613L1732.01,787.601L1732.01,787.588L1732.01,787.576L1732,787.564L1732,787.551L1732,787.538L1732,787.526L1732,787.513L1732,787.5L1732,787.487L1732,787.474L1732,787.462L1732,787.449L1732,787.436L1732.01,787.424L1732.01,787.412L1732.01,787.399L1732.01,787.387L1732.02,787.375L1732.02,787.363L1732.02,787.351L1732.03,787.34L1732.03,787.328L1732.04,787.317L1732.04,787.305L1732.04,787.294L1732.05,787.283L1732.06,787.272L1732.06,787.262L1732.07,787.251L1732.07,787.241L1732.08,787.231L1732.09,787.221L1732.09,787.211L1732.1,787.201L1732.11,787.191L1732.11,787.182L1732.12,787.173L1732.13,787.164L1732.14,787.155L1732.15,787.147L1732.15,787.138L1732.16,787.13L1732.17,787.122L1732.18,787.114L1732.19,787.107L1732.2,787.099L1732.21,787.092L1732.22,787.085L1732.23,787.079L1732.24,787.072L1732.25,787.066L1732.26,787.06L1732.27,787.055L1732.28,787.049L1732.29,787.044L1732.31,787.039L1732.32,787.035L1732.33,787.03L1732.34,787.026L1732.35,787.022L1732.36,787.019L1732.38,787.016L1732.39,787.013L1732.4,787.01L1732.41,787.008L1732.42,787.006L1732.44,787.004L1732.45,787.003L1732.46,787.001L1732.47,787.001L1732.49,787L1732.5,787L1732.51,787ZM1732.49,787.25L1732.49,787.25L1732.48,787.251L1732.47,787.251L1732.47,787.252L1732.46,787.253L1732.45,787.254L1732.45,787.255L1732.44,787.256L1732.44,787.258L1732.43,787.259L1732.43,787.261L1732.42,787.263L1732.41,787.265L1732.41,787.267L1732.4,787.269L1732.4,787.272L1732.39,787.275L1732.39,787.277L1732.38,787.28L1732.38,787.283L1732.37,787.286L1732.37,787.289L1732.36,787.293L1732.36,787.296L1732.35,787.3L1732.35,787.303L1732.34,787.307L1732.34,787.311L1732.33,787.315L1732.33,787.319L1732.32,787.323L1732.32,787.328L1732.32,787.332L1732.31,787.337L1732.31,787.341L1732.3,787.346L1732.3,787.351L1732.3,787.356L1732.29,787.361L1732.29,787.365L1732.29,787.371L1732.28,787.376L1732.28,787.381L1732.28,787.387L1732.28,787.392L1732.27,787.397L1732.27,787.403L1732.27,787.408L1732.27,787.415L1732.26,787.42L1732.26,787.426L1732.26,787.432L1732.26,787.437L1732.26,787.444L1732.26,787.449L1732.25,787.456L1732.25,787.462L1732.25,787.468L1732.25,787.474L1732.25,787.48L1732.25,787.487L1732.25,787.493L1732.25,787.5L1732.25,787.513L1732.25,787.526L1732.25,787.538L1732.26,787.551L1732.26,787.563L1732.26,787.574L1732.27,787.585L1732.27,787.597L1732.28,787.608L1732.28,787.619L1732.29,787.629L1732.29,787.639L1732.3,787.649L1732.31,787.659L1732.32,787.668L1732.32,787.677L1732.33,787.685L1732.34,787.693L1732.35,787.7L1732.36,787.707L1732.37,787.714L1732.38,787.72L1732.39,787.725L1732.4,787.731L1732.41,787.735L1732.43,787.739L1732.44,787.742L1732.45,787.745L1732.46,787.747L1732.47,787.749L1732.49,787.75L1732.5,787.75L1732.51,787.75L1732.51,787.75L1732.52,787.749L1732.53,787.749L1732.53,787.748L1732.54,787.747L1732.54,787.746L1732.55,787.745L1732.56,787.744L1732.56,787.742L1732.57,787.741L1732.57,787.739L1732.58,787.737L1732.59,787.735L1732.59,787.733L1732.6,787.731L1732.6,787.728L1732.61,787.725L1732.61,787.723L1732.62,787.72L1732.62,787.717L1732.63,787.714L1732.63,787.711L1732.64,787.707L1732.64,787.704L1732.65,787.7L1732.65,787.697L1732.66,787.693L1732.66,787.689L1732.67,787.685L1732.67,787.681L1732.68,787.677L1732.68,787.672L1732.68,787.668L1732.69,787.664L1732.69,787.659L1732.7,787.654L1732.7,787.649L1732.7,787.644L1732.71,787.64L1732.71,787.635L1732.71,787.629L1732.72,787.624L1732.72,787.619L1732.72,787.613L1732.73,787.608L1732.73,787.603L1732.73,787.597L1732.73,787.592L1732.74,787.586L1732.74,787.58L1732.74,787.574L1732.74,787.568L1732.74,787.563L1732.74,787.557L1732.75,787.551L1732.75,787.544L1732.75,787.538L1732.75,787.532L1732.75,787.526L1732.75,787.519L1732.75,787.513L1732.75,787.507L1732.75,787.5L1732.75,787.493L1732.75,787.487L1732.75,787.481L1732.75,787.474L1732.75,787.468L1732.75,787.462L1732.75,787.456L1732.75,787.449L1732.74,787.443L1732.74,787.437L1732.74,787.432L1732.74,787.426L1732.74,787.42L1732.74,787.414L1732.73,787.408L1732.73,787.403L1732.73,787.397L1732.73,787.392L1732.72,787.387L1732.72,787.381L1732.72,787.376L1732.71,787.371L1732.71,787.365L1732.71,787.36L1732.7,787.356L1732.7,787.351L1732.7,787.346L1732.69,787.341L1732.69,787.336L1732.68,787.332L1732.68,787.328L1732.68,787.323L1732.67,787.319L1732.67,787.315L1732.66,787.311L1732.66,787.307L1732.65,787.303L1732.65,787.3L1732.64,787.296L1732.64,787.293L1732.63,787.289L1732.63,787.286L1732.62,787.283L1732.62,787.28L1732.61,787.277L1732.61,787.275L1732.6,787.272L1732.6,787.269L1732.59,787.267L1732.59,787.265L1732.58,787.263L1732.57,787.261L1732.57,787.259L1732.56,787.258L1732.56,787.256L1732.55,787.255L1732.54,787.254L1732.54,787.253L1732.53,787.252L1732.53,787.251L1732.52,787.251L1732.51,787.25L1732.51,787.25L1732.5,787.25L1732.49,787.25Z" style="fill:rgb(51,51,51);"/>
            </g>
            <g transform="matrix(4,0,0,4,-5353,-2360)">
                <path d="M1732.51,787L1732.53,787.001L1732.54,787.001L1732.55,787.003L1732.56,787.004L1732.58,787.006L1732.59,787.008L1732.6,787.01L1732.61,787.013L1732.62,787.016L1732.64,787.019L1732.65,787.022L1732.66,787.026L1732.67,787.03L1732.68,787.035L1732.69,787.039L1732.71,787.044L1732.72,787.049L1732.73,787.055L1732.74,787.06L1732.75,787.066L1732.76,787.072L1732.77,787.079L1732.78,787.085L1732.79,787.092L1732.8,787.099L1732.81,787.107L1732.82,787.114L1732.83,787.122L1732.84,787.13L1732.85,787.138L1732.85,787.147L1732.86,787.155L1732.87,787.164L1732.88,787.173L1732.89,787.182L1732.89,787.191L1732.9,787.201L1732.91,787.211L1732.91,787.221L1732.92,787.231L1732.93,787.241L1732.93,787.251L1732.94,787.262L1732.94,787.272L1732.95,787.283L1732.96,787.294L1732.96,787.305L1732.97,787.317L1732.97,787.328L1732.97,787.34L1732.98,787.351L1732.98,787.363L1732.98,787.375L1732.99,787.387L1732.99,787.399L1732.99,787.412L1732.99,787.424L1733,787.436L1733,787.449L1733,787.462L1733,787.474L1733,787.487L1733,787.5L1733,787.513L1733,787.526L1733,787.538L1733,787.551L1733,787.564L1732.99,787.576L1732.99,787.588L1732.99,787.601L1732.99,787.613L1732.98,787.625L1732.98,787.637L1732.98,787.649L1732.97,787.66L1732.97,787.672L1732.97,787.683L1732.96,787.695L1732.96,787.706L1732.95,787.717L1732.94,787.728L1732.94,787.738L1732.93,787.749L1732.93,787.759L1732.92,787.769L1732.91,787.779L1732.91,787.789L1732.9,787.799L1732.89,787.809L1732.89,787.818L1732.88,787.827L1732.87,787.836L1732.86,787.845L1732.85,787.853L1732.85,787.862L1732.84,787.87L1732.83,787.878L1732.82,787.886L1732.81,787.893L1732.8,787.901L1732.79,787.908L1732.78,787.915L1732.77,787.921L1732.76,787.928L1732.75,787.934L1732.74,787.94L1732.73,787.945L1732.72,787.951L1732.71,787.956L1732.69,787.961L1732.68,787.965L1732.67,787.97L1732.66,787.974L1732.65,787.978L1732.64,787.981L1732.62,787.984L1732.61,787.987L1732.6,787.99L1732.59,787.992L1732.58,787.994L1732.56,787.996L1732.55,787.997L1732.54,787.999L1732.53,787.999L1732.51,788L1732.5,788L1732.49,788L1732.47,787.999L1732.46,787.999L1732.45,787.997L1732.44,787.996L1732.42,787.994L1732.41,787.992L1732.4,787.99L1732.39,787.987L1732.38,787.984L1732.36,787.981L1732.35,787.978L1732.34,787.974L1732.33,787.97L1732.32,787.965L1732.31,787.961L1732.29,787.956L1732.28,787.951L1732.27,787.945L1732.26,787.94L1732.25,787.934L1732.24,787.928L1732.23,787.921L1732.22,787.915L1732.21,787.908L1732.2,787.901L1732.19,787.893L1732.18,787.886L1732.17,787.878L1732.16,787.87L1732.15,787.862L1732.15,787.853L1732.14,787.845L1732.13,787.836L1732.12,787.827L1732.11,787.818L1732.11,787.809L1732.1,787.799L1732.09,787.789L1732.09,787.779L1732.08,787.769L1732.07,787.759L1732.07,787.749L1732.06,787.738L1732.06,787.728L1732.05,787.717L1732.04,787.706L1732.04,787.695L1732.04,787.683L1732.03,787.672L1732.03,787.66L1732.02,787.649L1732.02,787.637L1732.02,787.625L1732.01,787.613L1732.01,787.601L1732.01,787.588L1732.01,787.576L1732,787.564L1732,787.551L1732,787.538L1732,787.526L1732,787.513L1732,787.5L1732,787.487L1732,787.474L1732,787.462L1732,787.449L1732,787.436L1732.01,787.424L1732.01,787.412L1732.01,787.399L1732.01,787.387L1732.02,787.375L1732.02,787.363L1732.02,787.351L1732.03,787.34L1732.03,787.328L1732.04,787.317L1732.04,787.305L1732.04,787.294L1732.05,787.283L1732.06,787.272L1732.06,787.262L1732.07,787.251L1732.07,787.241L1732.08,787.231L1732.09,787.221L1732.09,787.211L1732.1,787.201L1732.11,787.191L1732.11,787.182L1732.12,787.173L1732.13,787.164L1732.14,787.155L1732.15,787.147L1732.15,787.138L1732.16,787.13L1732.17,787.122L1732.18,787.114L1732.19,787.107L1732.2,787.099L1732.21,787.092L1732.22,787.085L1732.23,787.079L1732.24,787.072L1732.25,787.066L1732.26,787.06L1732.27,787.055L1732.28,787.049L1732.29,787.044L1732.31,787.039L1732.32,787.035L1732.33,787.03L1732.34,787.026L1732.35,787.022L1732.36,787.019L1732.38,787.016L1732.39,787.013L1732.4,787.01L1732.41,787.008L1732.42,787.006L1732.44,787.004L1732.45,787.003L1732.46,787.001L1732.47,787.001L1732.49,787L1732.5,787L1732.51,787ZM1732.49,787.25L1732.49,787.25L1732.48,787.251L1732.47,787.251L1732.47,787.252L1732.46,787.253L1732.45,787.254L1732.45,787.255L1732.44,787.256L1732.44,787.258L1732.43,787.259L1732.43,787.261L1732.42,787.263L1732.41,787.265L1732.41,787.267L1732.4,787.269L1732.4,787.272L1732.39,787.275L1732.39,787.277L1732.38,787.28L1732.38,787.283L1732.37,787.286L1732.37,787.289L1732.36,787.293L1732.36,787.296L1732.35,787.3L1732.35,787.303L1732.34,787.307L1732.34,787.311L1732.33,787.315L1732.33,787.319L1732.32,787.323L1732.32,787.328L1732.32,787.332L1732.31,787.337L1732.31,787.341L1732.3,787.346L1732.3,787.351L1732.3,787.356L1732.29,787.361L1732.29,787.365L1732.29,787.371L1732.28,787.376L1732.28,787.381L1732.28,787.387L1732.28,787.392L1732.27,787.397L1732.27,787.403L1732.27,787.408L1732.27,787.415L1732.26,787.42L1732.26,787.426L1732.26,787.432L1732.26,787.437L1732.26,787.444L1732.26,787.449L1732.25,787.456L1732.25,787.462L1732.25,787.468L1732.25,787.474L1732.25,787.48L1732.25,787.487L1732.25,787.493L1732.25,787.5L1732.25,787.513L1732.25,787.526L1732.25,787.538L1732.26,787.551L1732.26,787.563L1732.26,787.574L1732.27,787.585L1732.27,787.597L1732.28,787.608L1732.28,787.619L1732.29,787.629L1732.29,787.639L1732.3,787.649L1732.31,787.659L1732.32,787.668L1732.32,787.677L1732.33,787.685L1732.34,787.693L1732.35,787.7L1732.36,787.707L1732.37,787.714L1732.38,787.72L1732.39,787.725L1732.4,787.731L1732.41,787.735L1732.43,787.739L1732.44,787.742L1732.45,787.745L1732.46,787.747L1732.47,787.749L1732.49,787.75L1732.5,787.75L1732.51,787.75L1732.51,787.75L1732.52,787.749L1732.53,787.749L1732.53,787.748L1732.54,787.747L1732.54,787.746L1732.55,787.745L1732.56,787.744L1732.56,787.742L1732.57,787.741L1732.57,787.739L1732.58,787.737L1732.59,787.735L1732.59,787.733L1732.6,787.731L1732.6,787.728L1732.61,787.725L1732.61,787.723L1732.62,787.72L1732.62,787.717L1732.63,787.714L1732.63,787.711L1732.64,787.707L1732.64,787.704L1732.65,787.7L1732.65,787.697L1732.66,787.693L1732.66,787.689L1732.67,787.685L1732.67,787.681L1732.68,787.677L1732.68,787.672L1732.68,787.668L1732.69,787.664L1732.69,787.659L1732.7,787.654L1732.7,787.649L1732.7,787.644L1732.71,787.64L1732.71,787.635L1732.71,787.629L1732.72,787.624L1732.72,787.619L1732.72,787.613L1732.73,787.608L1732.73,787.603L1732.73,787.597L1732.73,787.592L1732.74,787.586L1732.74,787.58L1732.74,787.574L1732.74,787.568L1732.74,787.563L1732.74,787.557L1732.75,787.551L1732.75,787.544L1732.75,787.538L1732.75,787.532L1732.75,787.526L1732.75,787.519L1732.75,787.513L1732.75,787.507L1732.75,787.5L1732.75,787.493L1732.75,787.487L1732.75,787.481L1732.75,787.474L1732.75,787.468L1732.75,787.462L1732.75,787.456L1732.75,787.449L1732.74,787.443L1732.74,787.437L1732.74,787.432L1732.74,787.426L1732.74,787.42L1732.74,787.414L1732.73,787.408L1732.73,787.403L1732.73,787.397L1732.73,787.392L1732.72,787.387L1732.72,787.381L1732.72,787.376L1732.71,787.371L1732.71,787.365L1732.71,787.36L1732.7,787.356L1732.7,787.351L1732.7,787.346L1732.69,787.341L1732.69,787.336L1732.68,787.332L1732.68,787.328L1732.68,787.323L1732.67,787.319L1732.67,787.315L1732.66,787.311L1732.66,787.307L1732.65,787.303L1732.65,787.3L1732.64,787.296L1732.64,787.293L1732.63,787.289L1732.63,787.286L1732.62,787.283L1732.62,787.28L1732.61,787.277L1732.61,787.275L1732.6,787.272L1732.6,787.269L1732.59,787.267L1732.59,787.265L1732.58,787.263L1732.57,787.261L1732.57,787.259L1732.56,787.258L1732.56,787.256L1732.55,787.255L1732.54,787.254L1732.54,787.253L1732.53,787.252L1732.53,787.251L1732.52,787.251L1732.51,787.25L1732.51,787.25L1732.5,787.25L1732.49,787.25Z" style="fill:rgb(51,51,51);"/>
            </g>
            <g transform="matrix(1,0,0,1,-147.003,2)">
                <rect x="1721" y="779" width="14" height="1" style="fill:rgb(51,51,51);"/>
            </g>
            <g transform="matrix(1,0,0,1,-147.003,2)">
                <rect x="1721" y="781" width="13" height="1" style="fill:rgb(51,51,51);"/>
            </g>
            <g transform="matrix(1,0,0,1,-147.003,2)">
                <path d="M1721,774C1721.27,774 1721.52,774.105 1721.71,774.293C1721.89,774.48 1722,774.735 1722,775C1722,776.185 1722,778 1722,778L1720,778L1720,776C1720,776 1718.88,776 1718,776C1717.74,776 1717.48,775.895 1717.3,775.707C1717.11,775.52 1717,775.265 1717,775C1717,774.735 1717.11,774.48 1717.3,774.293C1717.48,774.105 1717.74,774 1718,774C1718.87,774 1720.13,774 1721,774Z" style="fill:rgb(51,51,51);"/>
            </g>
        </g>
    </g>
</svg>
