<?xml version="1.0" encoding="UTF-8" standalone="no"?><!DOCTYPE svg PUBLIC "-//W3C//DTD SVG 1.1//EN" "http://www.w3.org/Graphics/SVG/1.1/DTD/svg11.dtd"><svg width="100%" height="100%" viewBox="0 0 24 24" version="1.1" xmlns="http://www.w3.org/2000/svg" xmlns:xlink="http://www.w3.org/1999/xlink" xml:space="preserve" xmlns:serif="http://www.serif.com/" style="fill-rule:evenodd;clip-rule:evenodd;stroke-linejoin:round;stroke-miterlimit:1.41421;"><rect id="object.regular.creditCardFront" x="0" y="0" width="24" height="24" style="fill:none;"/><path d="M2.006,6c0,-0.552 0.448,-1 1,-1c3.414,0 14.586,0 18,0c0.552,0 1,0.448 1,1c0,2.577 0,9.423 0,12c0,0.552 -0.448,1 -1,1c-3.414,0 -14.586,0 -18,0c-0.552,0 -1,-0.448 -1,-1c0,-2.577 0,-9.423 0,-12Zm17.988,1l-15.994,0l0,10l15.994,0l0,-10Zm-0.994,8c0,0.552 -0.448,1 -1,1c-0.612,0 -1.393,0 -2.006,0c-0.552,0 -1,-0.448 -1,-1c0,-0.552 0.448,-1 1,-1c0.613,0 1.394,0 2.006,0c0.552,0 1,0.448 1,1c0,0 0,0 0,0Zm-8.006,0.513c0,0.269 -0.218,0.487 -0.487,0.487c-1.117,0 -3.854,0 -4.995,0c-0.283,0 -0.512,-0.229 -0.512,-0.512c0,0 0,-0.001 0,-0.001c0,-0.269 0.218,-0.487 0.487,-0.487c1.117,0 3.854,0 4.995,0c0.283,0 0.512,0.229 0.512,0.512c0,0 0,0.001 0,0.001Zm8,-3.513c0,0.552 -0.448,1 -1,1c-2.577,0 -9.423,0 -11.997,0c-0.551,0 -0.998,-0.446 -1,-0.997c-0.001,-0.266 0.104,-0.521 0.292,-0.709c0.188,-0.188 0.442,-0.294 0.708,-0.294c2.579,0 9.421,0 11.997,0c0.552,0 1,0.448 1,1c0,0 0,0 0,0Z" style="fill:#333;"/></svg>