<?xml version="1.0" encoding="UTF-8" standalone="no"?>
<!DOCTYPE svg PUBLIC "-//W3C//DTD SVG 1.1//EN" "http://www.w3.org/Graphics/SVG/1.1/DTD/svg11.dtd">
<svg width="25px" height="24px" version="1.1" xmlns="http://www.w3.org/2000/svg" xmlns:xlink="http://www.w3.org/1999/xlink" xml:space="preserve" xmlns:serif="http://www.serif.com/" style="fill-rule:evenodd;clip-rule:evenodd;stroke-linejoin:round;stroke-miterlimit:1.41421;">
    <g transform="matrix(1,0,0,1,-530,-1032)">
        <g id="object.thin.creditCardBack" transform="matrix(0.800768,0,0,0.984948,530.977,1032)">
            <rect x="0" y="0" width="29.971" height="24.367" style="fill:none;"/>
            <g transform="matrix(1.2488,0,0,1.01528,-1065.23,-779.737)">
                <path d="M855,774C855,773.448 855.448,773 856,773C859.415,773 870.591,773 874.006,773C874.558,773 875.006,773.448 875.006,774C875.006,776.577 875.006,783.423 875.006,786C875.006,786.552 874.558,787 874.006,787C870.591,787 859.415,787 856,787C855.448,787 855,786.552 855,786C855,783.423 855,776.577 855,774ZM874,780L856,780L856,786L874,786L874,780ZM859.5,784C859.633,784 859.76,784.053 859.854,784.146C859.947,784.24 860,784.367 860,784.5C860,784.633 859.947,784.76 859.854,784.854C859.76,784.947 859.633,785 859.5,785C858.945,785 858.055,785 857.5,785C857.367,785 857.24,784.947 857.146,784.854C857.053,784.76 857,784.633 857,784.5C857,784.367 857.053,784.24 857.146,784.146C857.24,784.053 857.367,784 857.5,784C858.055,784 858.945,784 859.5,784ZM863.506,782C863.638,782 863.766,782.053 863.859,782.146C863.953,782.24 864.006,782.367 864.006,782.5C864.006,782.633 863.953,782.76 863.859,782.854C863.766,782.947 863.638,783 863.506,783C862.216,783 858.789,783 857.5,783C857.367,783 857.24,782.947 857.146,782.854C857.053,782.76 857,782.633 857,782.5C857,782.367 857.053,782.24 857.146,782.146C857.24,782.053 857.367,782 857.5,782C858.789,782 862.216,782 863.506,782ZM874,774L856,774L856,776L874,776L874,774Z" style="fill:rgb(51,51,51);"/>
            </g>
        </g>
    </g>
</svg>
