<?xml version="1.0" encoding="UTF-8" standalone="no"?>
<!DOCTYPE svg PUBLIC "-//W3C//DTD SVG 1.1//EN" "http://www.w3.org/Graphics/SVG/1.1/DTD/svg11.dtd">
<svg width="24px" height="24px" version="1.1" xmlns="http://www.w3.org/2000/svg" xmlns:xlink="http://www.w3.org/1999/xlink" xml:space="preserve" xmlns:serif="http://www.serif.com/" style="fill-rule:evenodd;clip-rule:evenodd;stroke-linejoin:round;stroke-miterlimit:1.41421;">
    <g transform="matrix(1,0,0,1,-2301,-1080)">
        <g id="object.filled.cog" transform="matrix(1,0,0,1,733,310)">
            <rect x="1568" y="770" width="24" height="24" style="fill:none;"/>
            <g transform="matrix(1,0,0,1,-99.0029,-94)">
                <path d="M1680.89,884C1680.89,884.276 1680.67,884.5 1680.39,884.5C1679.67,884.5 1678.34,884.5 1677.61,884.5C1677.34,884.5 1677.11,884.276 1677.11,884C1677.11,883.602 1677.11,883.054 1677.11,882.697C1677.11,882.485 1676.98,882.295 1676.78,882.226C1676.02,881.956 1675.33,881.55 1674.73,881.04C1674.57,880.9 1674.33,880.878 1674.15,880.985C1673.84,881.162 1673.37,881.436 1673.02,881.636C1672.78,881.774 1672.47,881.692 1672.34,881.453C1671.97,880.826 1671.31,879.674 1670.95,879.047C1670.81,878.808 1670.89,878.502 1671.13,878.364C1671.48,878.165 1671.95,877.891 1672.26,877.713C1672.44,877.607 1672.54,877.396 1672.5,877.188C1672.43,876.803 1672.39,876.406 1672.39,876C1672.39,875.594 1672.43,875.197 1672.5,874.812C1672.54,874.604 1672.44,874.394 1672.26,874.288C1671.95,874.109 1671.48,873.835 1671.13,873.636C1670.89,873.498 1670.81,873.192 1670.95,872.953C1671.31,872.326 1671.97,871.174 1672.34,870.547C1672.47,870.308 1672.78,870.226 1673.02,870.364C1673.37,870.564 1673.84,870.838 1674.15,871.017C1674.33,871.123 1674.57,871.101 1674.73,870.961C1675.33,870.45 1676.02,870.044 1676.78,869.773C1676.98,869.704 1677.11,869.515 1677.11,869.303C1677.11,868.946 1677.11,868.398 1677.11,868C1677.11,867.724 1677.34,867.5 1677.61,867.5C1678.34,867.5 1679.67,867.5 1680.39,867.5C1680.67,867.5 1680.89,867.724 1680.89,868C1680.89,868.398 1680.89,868.946 1680.89,869.303C1680.89,869.515 1681.03,869.705 1681.23,869.774C1681.99,870.044 1682.68,870.45 1683.28,870.96C1683.44,871.1 1683.67,871.122 1683.86,871.015C1684.17,870.838 1684.64,870.564 1684.99,870.364C1685.23,870.226 1685.53,870.308 1685.67,870.547C1686.03,871.174 1686.7,872.326 1687.06,872.953C1687.2,873.192 1687.12,873.498 1686.88,873.636C1686.53,873.835 1686.06,874.109 1685.75,874.287C1685.56,874.393 1685.47,874.604 1685.51,874.812C1685.58,875.197 1685.61,875.594 1685.61,876C1685.61,876.406 1685.58,876.803 1685.51,877.188C1685.47,877.396 1685.57,877.606 1685.75,877.712C1686.06,877.891 1686.53,878.165 1686.88,878.364C1687.12,878.502 1687.2,878.808 1687.06,879.047C1686.7,879.674 1686.03,880.826 1685.67,881.453C1685.53,881.692 1685.23,881.774 1684.99,881.636C1684.64,881.436 1684.17,881.162 1683.86,880.983C1683.67,880.877 1683.44,880.899 1683.28,881.039C1682.68,881.55 1681.99,881.956 1681.23,882.227C1681.03,882.296 1680.89,882.485 1680.89,882.697C1680.89,883.054 1680.89,883.602 1680.89,884ZM1679,873C1680.66,873 1682,874.344 1682,876C1682,877.656 1680.66,879 1679,879C1677.35,879 1676.01,877.656 1676.01,876C1676.01,874.344 1677.35,873 1679,873Z" style="fill:rgb(51,51,51);"/>
            </g>
        </g>
    </g>
</svg>
