<?xml version="1.0" encoding="UTF-8" standalone="no"?>
<!DOCTYPE svg PUBLIC "-//W3C//DTD SVG 1.1//EN" "http://www.w3.org/Graphics/SVG/1.1/DTD/svg11.dtd">
<svg width="24px" height="24px" version="1.1" xmlns="http://www.w3.org/2000/svg" xmlns:xlink="http://www.w3.org/1999/xlink" xml:space="preserve" xmlns:serif="http://www.serif.com/" style="fill-rule:evenodd;clip-rule:evenodd;stroke-linejoin:round;stroke-miterlimit:1.41421;">
    <g transform="matrix(1,0,0,1,-981,-1128)">
        <g id="object.real.creditCardFront" transform="matrix(0.800768,0,0,0.984948,981,1128)">
            <rect x="0" y="0" width="29.971" height="24.367" style="fill:none;"/>
            <g transform="matrix(1.31453,0,0,1.09338,-63.2288,-945.072)">
                <path d="M69,869.929C69,869.416 68.574,869 68.05,869L50.95,869C50.426,869 50,869.416 50,869.929L50,881.071C50,881.584 50.426,882 50.95,882L68.05,882C68.574,882 69,881.584 69,881.071L69,869.929Z" style="fill:url(#_Linear1);"/>
                <clipPath id="_clip2">
                    <path d="M69,869.929C69,869.416 68.574,869 68.05,869L50.95,869C50.426,869 50,869.416 50,869.929L50,881.071C50,881.584 50.426,882 50.95,882L68.05,882C68.574,882 69,881.584 69,881.071L69,869.929Z"/>
                </clipPath>
                <g clip-path="url(#_clip2)">
                    <g transform="matrix(0.95,0,0,0.928571,-716.656,62.0714)">
                        <path d="M814.5,880C814.633,880 814.76,880.053 814.854,880.146C814.947,880.24 815,880.367 815,880.5C815,880.633 814.947,880.76 814.854,880.854C814.76,880.947 814.633,881 814.5,881C813.37,881 810.63,881 809.5,881C809.367,881 809.24,880.947 809.146,880.854C809.053,880.76 809,880.633 809,880.5C809,880.367 809.053,880.24 809.146,880.146C809.24,880.053 809.367,880 809.5,880C810.63,880 813.37,880 814.5,880ZM824,879C824.552,879 825,879.448 825,880C825,880.552 824.552,881 824,881C823.389,881 822.611,881 822,881C821.448,881 821,880.552 821,880C821,879.448 821.448,879 822,879C822.611,879 823.389,879 824,879ZM824,875C824.552,875 825,875.448 825,876C825,876.552 824.552,877 824,877C821.127,877 812.873,877 810,877C809.448,877 809,876.552 809,876C809,875.448 809.448,875 810,875C812.873,875 821.127,875 824,875Z" style="fill:rgb(51,51,51);"/>
                    </g>
                </g>
            </g>
        </g>
    </g>
    <defs>
        <linearGradient id="_Linear1" x1="0" y1="0" x2="1" y2="0" gradientUnits="userSpaceOnUse" gradientTransform="matrix(-19,18.5714,-19,-18.5714,69,866.214)"><stop offset="0" style="stop-color:white;stop-opacity:1"/><stop offset="1" style="stop-color:rgb(102,102,102);stop-opacity:1"/></linearGradient>
    </defs>
</svg>
