<?xml version="1.0" encoding="UTF-8" standalone="no"?>
<!DOCTYPE svg PUBLIC "-//W3C//DTD SVG 1.1//EN" "http://www.w3.org/Graphics/SVG/1.1/DTD/svg11.dtd">
<svg width="24px" height="24px" version="1.1" xmlns="http://www.w3.org/2000/svg" xmlns:xlink="http://www.w3.org/1999/xlink" xml:space="preserve" xmlns:serif="http://www.serif.com/" style="fill-rule:evenodd;clip-rule:evenodd;stroke-linejoin:round;stroke-miterlimit:1.41421;">
    <g transform="matrix(1,0,0,1,-2899,-984)">
        <g id="object.regular.magnifyingGlass" transform="matrix(1,0,0,1,1331,214)">
            <rect x="1568" y="770" width="24" height="24" style="fill:none;"/>
            <g transform="matrix(1,0,0,1,-1331,-214)">
                <path d="M2913.91,1000.32C2912.55,1001.37 2910.85,1002 2909,1002C2904.59,1002 2901,998.415 2901,994C2901,989.585 2904.59,986 2909,986C2913.41,986 2917,989.585 2917,994C2917,995.848 2916.37,997.55 2915.32,998.905C2915.32,998.905 2919.1,1002.69 2920.71,1004.29C2920.89,1004.48 2921,1004.74 2921,1005C2921,1005.26 2920.89,1005.52 2920.71,1005.71C2920.32,1006.1 2919.68,1006.1 2919.29,1005.71C2917.69,1004.1 2913.91,1000.32 2913.91,1000.32ZM2909,988C2912.31,988 2915,990.689 2915,994C2915,997.311 2912.31,1000 2909,1000C2905.69,1000 2903,997.311 2903,994C2903,990.689 2905.69,988 2909,988Z" style="fill:rgb(51,51,51);"/>
            </g>
        </g>
    </g>
</svg>
