<?xml version="1.0" encoding="UTF-8" standalone="no"?>
<!DOCTYPE svg PUBLIC "-//W3C//DTD SVG 1.1//EN" "http://www.w3.org/Graphics/SVG/1.1/DTD/svg11.dtd">
<svg width="24px" height="24px" version="1.1" xmlns="http://www.w3.org/2000/svg" xmlns:xlink="http://www.w3.org/1999/xlink" xml:space="preserve" xmlns:serif="http://www.serif.com/" style="fill-rule:evenodd;clip-rule:evenodd;stroke-linejoin:round;stroke-miterlimit:1.41421;">
    <g transform="matrix(1,0,0,1,-1221,-1128)">
        <g id="object.real.document" transform="matrix(0.800768,0,0,0.984948,1221,1128)">
            <rect x="0" y="0" width="29.971" height="24.367" style="fill:none;"/>
            <g transform="matrix(1.2488,0,0,1.01528,-419.597,-877.204)">
                <path d="M351,866L356,871C356,871 356,881.645 356,885C356,885.265 355.895,885.52 355.707,885.707C355.52,885.895 355.265,886 355,886C352.273,886 344.727,886 342,886C341.735,886 341.48,885.895 341.293,885.707C341.105,885.52 341,885.265 341,885C341,881.586 341,870.414 341,867C341,866.448 341.448,866 342,866C344.533,866 351,866 351,866Z" style="fill:url(#_Linear1);"/>
            </g>
            <g transform="matrix(1.2488,0,0,1.01528,-419.597,-877.204)">
                <path d="M351,866L355.997,871C355.997,871 353.458,871 352,871C351.448,871 351,870.552 351,870C351,868.541 351,866 351,866Z" style="fill:rgb(51,51,51);"/>
            </g>
            <g transform="matrix(1.2488,0,0,1.01528,-1305,-877.204)">
                <path d="M1058.49,878C1058.77,878 1059,878.229 1059,878.512C1059,878.512 1059,878.513 1059,878.513C1059,878.782 1058.79,879 1058.52,879C1057.24,879 1053.8,879 1052.5,879C1052.23,879 1052,878.776 1052,878.5C1052,878.5 1052,878.499 1052,878.499C1052,878.223 1052.23,878 1052.5,878C1053.79,878 1057.19,878 1058.49,878ZM1062.5,876C1062.78,876 1063,876.223 1063,876.499C1063,876.5 1063,876.5 1063,876.501C1063,876.777 1062.78,877 1062.5,877C1060.67,877 1054.33,877 1052.5,877C1052.23,877 1052,876.777 1052,876.501C1052,876.5 1052,876.5 1052,876.499C1052,876.223 1052.23,876 1052.5,876C1054.33,876 1060.67,876 1062.5,876ZM1062.5,872C1062.78,872 1063,872.223 1063,872.499C1063,872.5 1063,872.5 1063,872.501C1063,872.777 1062.78,873 1062.5,873C1060.68,873 1054.35,873 1052.51,873C1052.23,873 1052,872.773 1052,872.492C1052,872.492 1052,872.491 1052,872.491C1052,872.361 1052.06,872.236 1052.15,872.144C1052.24,872.052 1052.36,872 1052.49,872C1054.32,872 1060.67,872 1062.5,872ZM1058.5,870C1058.64,870 1058.76,870.053 1058.86,870.146C1058.95,870.24 1059,870.367 1059,870.5C1059,870.776 1058.78,871 1058.5,871C1057.22,871 1053.81,871 1052.51,871C1052.23,871 1052,870.773 1052,870.492C1052,870.492 1052,870.491 1052,870.491C1052,870.361 1052.06,870.236 1052.15,870.144C1052.24,870.052 1052.36,870 1052.49,870C1053.78,870 1057.21,870 1058.5,870ZM1058.5,868C1058.78,868 1059,868.223 1059,868.499C1059,868.5 1059,868.5 1059,868.501C1059,868.777 1058.78,869 1058.5,869C1057.22,869 1053.79,869 1052.5,869C1052.23,869 1052,868.777 1052,868.501C1052,868.5 1052,868.5 1052,868.499C1052,868.223 1052.23,868 1052.5,868C1053.79,868 1057.22,868 1058.5,868Z" style="fill:rgb(51,51,51);"/>
            </g>
        </g>
    </g>
    <defs>
        <linearGradient id="_Linear1" x1="0" y1="0" x2="1" y2="0" gradientUnits="userSpaceOnUse" gradientTransform="matrix(-20,20,-20,-20,358,866)"><stop offset="0" style="stop-color:white;stop-opacity:1"/><stop offset="1" style="stop-color:rgb(102,102,102);stop-opacity:1"/></linearGradient>
    </defs>
</svg>
