<?xml version="1.0" encoding="UTF-8" standalone="no"?>
<!DOCTYPE svg PUBLIC "-//W3C//DTD SVG 1.1//EN" "http://www.w3.org/Graphics/SVG/1.1/DTD/svg11.dtd">
<svg width="24px" height="24px" version="1.1" xmlns="http://www.w3.org/2000/svg" xmlns:xlink="http://www.w3.org/1999/xlink" xml:space="preserve" xmlns:serif="http://www.serif.com/" style="fill-rule:evenodd;clip-rule:evenodd;stroke-linejoin:round;stroke-miterlimit:1.41421;">
    <g transform="matrix(1,0,0,1,-2397,-984)">
        <g id="object.regular.home" transform="matrix(1,0,0,1,829,214)">
            <rect x="1568" y="770" width="24" height="24" style="fill:none;"/>
            <g transform="matrix(1,0,0,1,-195,-214)">
                <path d="M1782.75,994.342C1783.01,994.637 1783.07,995.056 1782.91,995.413C1782.75,995.771 1782.39,996 1782,996C1781.44,996 1781,996 1781,996C1781,996 1781,1000.85 1781,1003C1781,1003.55 1780.55,1004 1780,1004C1777.74,1004 1772.26,1004 1770,1004C1769.45,1004 1769,1003.55 1769,1003C1769,1000.85 1769,996 1769,996C1769,996 1768.56,996 1768,996C1767.61,996 1767.25,995.771 1767.09,995.413C1766.93,995.056 1766.99,994.637 1767.25,994.342C1769.23,992.074 1772.72,988.087 1774.25,986.342C1774.44,986.124 1774.71,986 1775,986C1775.29,986 1775.56,986.124 1775.75,986.342C1777.28,988.087 1780.77,992.074 1782.75,994.342ZM1779,996L1771,996L1771,1002L1779,1002L1779,996ZM1778,999.5C1778,999.633 1777.95,999.76 1777.85,999.854C1777.76,999.947 1777.63,1000 1777.5,1000C1776.94,1000 1776.06,1000 1775.5,1000C1775.37,1000 1775.24,999.947 1775.15,999.854C1775.05,999.76 1775,999.633 1775,999.5C1775,998.945 1775,998.055 1775,997.5C1775,997.367 1775.05,997.24 1775.15,997.146C1775.24,997.053 1775.37,997 1775.5,997C1776.06,997 1776.94,997 1777.5,997C1777.63,997 1777.76,997.053 1777.85,997.146C1777.95,997.24 1778,997.367 1778,997.5C1778,998.055 1778,998.945 1778,999.5ZM1777,998L1776,998L1776,999L1777,999L1777,998ZM1770.2,994L1779.8,994L1775,988.519L1770.2,994Z" style="fill:rgb(51,51,51);"/>
            </g>
        </g>
    </g>
</svg>
