<?xml version="1.0" encoding="UTF-8" standalone="no"?>
<!DOCTYPE svg PUBLIC "-//W3C//DTD SVG 1.1//EN" "http://www.w3.org/Graphics/SVG/1.1/DTD/svg11.dtd">
<svg width="24px" height="24px" version="1.1" xmlns="http://www.w3.org/2000/svg" xmlns:xlink="http://www.w3.org/1999/xlink" xml:space="preserve" xmlns:serif="http://www.serif.com/" style="fill-rule:evenodd;clip-rule:evenodd;stroke-linejoin:round;stroke-miterlimit:1.41421;">
    <g transform="matrix(1,0,0,1,-1365,-984)">
        <g id="object.regular.picture" transform="matrix(0.800768,0,0,0.984948,1365,984)">
            <rect x="0" y="0" width="29.971" height="24.367" style="fill:none;"/>
            <g transform="matrix(1.2488,0,0,1.01528,-2276.56,-999.038)">
                <path d="M1838.71,990C1838.71,990 1842.23,990 1844,990C1844.27,990 1844.52,990.105 1844.71,990.293C1844.89,990.48 1845,990.735 1845,991C1845,993.873 1845,1002.13 1845,1005C1845,1005.26 1844.89,1005.52 1844.71,1005.71C1844.52,1005.89 1844.27,1006 1844,1006C1840.59,1006 1829.41,1006 1826,1006C1825.74,1006 1825.48,1005.89 1825.29,1005.71C1825.11,1005.52 1825,1005.26 1825,1005C1825,1002.13 1825,993.873 1825,991C1825,990.735 1825.11,990.48 1825.29,990.293C1825.48,990.105 1825.74,990 1826,990C1827.78,990 1831.29,990 1831.29,990C1831.29,990 1833.22,988.076 1834.29,987C1834.68,986.609 1835.32,986.609 1835.71,987C1836.78,988.076 1838.71,990 1838.71,990ZM1827,999.24L1827,1004L1843,1004L1843,1000.44L1839.5,997.64C1839.5,997.64 1835.98,1000.46 1834.8,1001.4C1834.59,1001.57 1834.29,1001.53 1834.12,1001.32C1834.12,1001.32 1834.12,1001.32 1834.12,1001.32C1833.94,1001.1 1833.98,1000.78 1834.2,1000.6C1834.82,1000.1 1835.95,999.2 1835.95,999.2L1831.5,995.64L1827,999.24ZM1843,999.16L1843,992C1837.67,992 1832.33,992 1827,992L1827,997.96C1827,997.96 1829.64,995.848 1830.88,994.859C1831.24,994.567 1831.76,994.567 1832.12,994.859C1833.52,995.973 1836.75,998.56 1836.75,998.56C1836.75,998.56 1838.06,997.509 1838.88,996.859C1839.24,996.567 1839.76,996.567 1840.12,996.859C1841.13,997.665 1843,999.16 1843,999.16ZM1832.71,990L1837.29,990L1835,987.707L1832.71,990Z" style="fill:rgb(51,51,51);"/>
            </g>
        </g>
    </g>
</svg>
