<?xml version="1.0" encoding="UTF-8" standalone="no"?>
<!DOCTYPE svg PUBLIC "-//W3C//DTD SVG 1.1//EN" "http://www.w3.org/Graphics/SVG/1.1/DTD/svg11.dtd">
<svg width="24px" height="24px" version="1.1" xmlns="http://www.w3.org/2000/svg" xmlns:xlink="http://www.w3.org/1999/xlink" xml:space="preserve" xmlns:serif="http://www.serif.com/" style="fill-rule:evenodd;clip-rule:evenodd;stroke-linejoin:round;stroke-miterlimit:1.41421;">
    <g transform="matrix(1,0,0,1,-3427,-984)">
        <g id="object.regular.inbox" transform="matrix(1,0,0,1,1859,214)">
            <rect x="1568" y="770" width="24" height="24" style="fill:none;"/>
            <g transform="matrix(1,0,0,1,-1859,-214)">
                <path d="M3449,1002C3449,1002.55 3448.55,1003 3448,1003C3444.59,1003 3433.41,1003 3430,1003C3429.74,1003 3429.48,1002.89 3429.29,1002.71C3429.11,1002.52 3429,1002.26 3429,1002C3429,1000.31 3429,996.963 3429,996C3429,995.826 3429.05,995.655 3429.13,995.504C3429.74,994.442 3432.27,990.01 3433.13,988.504C3433.31,988.192 3433.64,988 3434,988C3435.92,988 3442.08,988 3444,988C3444.36,988 3444.69,988.192 3444.87,988.504C3445.73,990.01 3448.26,994.442 3448.87,995.504C3448.95,995.655 3449,995.826 3449,996C3449,996.963 3449,1000.31 3449,1002ZM3433.59,997L3431,997L3431,1001L3447,1001L3447,997L3444.41,997C3444.41,997 3443.26,998.152 3442.71,998.707C3442.52,998.895 3442.26,999 3442,999C3440.78,999 3437.22,999 3436,999C3435.74,999 3435.48,998.895 3435.29,998.707C3434.74,998.152 3433.59,997 3433.59,997ZM3443.42,990L3434.58,990L3431.72,995C3431.72,995 3433.24,995 3434,995C3434.26,995 3434.52,995.105 3434.71,995.293C3435.26,995.848 3436.41,997 3436.41,997L3441.59,997C3441.59,997 3442.74,995.848 3443.29,995.293C3443.48,995.105 3443.74,995 3444,995C3444.76,995 3446.28,995 3446.28,995L3443.42,990ZM3444,993.5C3444,993.633 3443.95,993.76 3443.85,993.854C3443.76,993.947 3443.63,994 3443.5,994C3441.79,994 3436.21,994 3434.5,994C3434.37,994 3434.24,993.947 3434.15,993.854C3434.05,993.76 3434,993.633 3434,993.5C3434,993.367 3434.05,993.24 3434.15,993.146C3434.24,993.053 3434.37,993 3434.5,993C3436.21,993 3441.79,993 3443.5,993C3443.63,993 3443.76,993.053 3443.85,993.146C3443.95,993.24 3444,993.367 3444,993.5C3444,993.5 3444,993.5 3444,993.5ZM3443,991.501C3443,991.633 3442.95,991.76 3442.85,991.854C3442.76,991.947 3442.63,992 3442.5,992C3441.07,992 3436.93,992 3435.5,992C3435.37,992 3435.24,991.947 3435.15,991.854C3435.05,991.76 3435,991.633 3435,991.501C3435,991.501 3435,991.5 3435,991.5C3435,991.224 3435.22,991 3435.5,991C3436.94,991 3441.06,991 3442.5,991C3442.78,991 3443,991.224 3443,991.5C3443,991.5 3443,991.501 3443,991.501Z" style="fill:rgb(51,51,51);"/>
            </g>
        </g>
    </g>
</svg>
