<?xml version="1.0" encoding="UTF-8" standalone="no"?>
<!DOCTYPE svg PUBLIC "-//W3C//DTD SVG 1.1//EN" "http://www.w3.org/Graphics/SVG/1.1/DTD/svg11.dtd">
<svg width="24px" height="24px" version="1.1" xmlns="http://www.w3.org/2000/svg" xmlns:xlink="http://www.w3.org/1999/xlink" xml:space="preserve" xmlns:serif="http://www.serif.com/" style="fill-rule:evenodd;clip-rule:evenodd;stroke-linejoin:round;stroke-miterlimit:1.41421;">
    <g transform="matrix(1,0,0,1,-1054,-984)">
        <g id="object.regular.home" transform="matrix(1,0,0,1,-514,214)">
            <rect x="1568" y="770" width="24" height="24" style="fill:none;"/>
            <g transform="matrix(1,0,0,1,-829,-214)">
                <path d="M2416.75,994.342C2417.01,994.637 2417.07,995.056 2416.91,995.413C2416.75,995.771 2416.39,996 2416,996C2415.44,996 2415,996 2415,996C2415,996 2415,1000.85 2415,1003C2415,1003.55 2414.55,1004 2414,1004C2411.74,1004 2406.26,1004 2404,1004C2403.45,1004 2403,1003.55 2403,1003C2403,1000.85 2403,996 2403,996C2403,996 2402.56,996 2402,996C2401.61,996 2401.25,995.771 2401.09,995.413C2400.93,995.056 2400.99,994.637 2401.25,994.342C2403.23,992.074 2406.72,988.087 2408.25,986.342C2408.44,986.124 2408.71,986 2409,986C2409.29,986 2409.56,986.124 2409.75,986.342C2411.28,988.087 2414.77,992.074 2416.75,994.342ZM2413,996L2405,996L2405,1002L2407,1002C2407,1002 2407,999.459 2407,998C2407,997.448 2407.45,997 2408,997C2408.61,997 2409.39,997 2410,997C2410.55,997 2411,997.448 2411,998C2411,999.459 2411,1002 2411,1002L2413,1002L2413,996ZM2408,998L2408,1002L2410,1002L2410,998L2408,998ZM2404.2,994L2413.8,994L2409,988.519L2404.2,994Z" style="fill:rgb(51,51,51);"/>
            </g>
        </g>
    </g>
</svg>
