<?xml version="1.0" encoding="UTF-8" standalone="no"?>
<!DOCTYPE svg PUBLIC "-//W3C//DTD SVG 1.1//EN" "http://www.w3.org/Graphics/SVG/1.1/DTD/svg11.dtd">
<svg width="24px" height="24px" version="1.1" xmlns="http://www.w3.org/2000/svg" xmlns:xlink="http://www.w3.org/1999/xlink" xml:space="preserve" xmlns:serif="http://www.serif.com/" style="fill-rule:evenodd;clip-rule:evenodd;stroke-linecap:square;stroke-linejoin:round;stroke-miterlimit:100;">
    <g transform="matrix(1,0,0,1,-2851,-984)">
        <g id="object.regular.speaker" transform="matrix(1,0,0,1,1283,214)">
            <rect x="1568" y="770" width="24" height="24" style="fill:none;"/>
            <g transform="matrix(1.14286,0,0,1,-1691.14,-214)">
                <rect x="2857" y="987" width="10.5" height="18" style="fill:none;stroke:rgb(51,51,51);stroke-width:1.86px;"/>
            </g>
            <g transform="matrix(1,0,0,1,4.54747e-13,-6)">
                <g transform="matrix(1,0,0,1,-1283,-214)">
                    <path d="M2863.1,995.001L2863.2,995.005L2863.31,995.012L2863.41,995.021L2863.51,995.032L2863.61,995.046L2863.71,995.062L2863.8,995.081L2863.9,995.103L2864,995.126L2864.09,995.152L2864.19,995.18L2864.28,995.211L2864.38,995.243L2864.47,995.278L2864.56,995.315L2864.65,995.354L2864.74,995.395L2864.82,995.439L2864.91,995.484L2864.99,995.531L2865.07,995.579L2865.16,995.631L2865.24,995.684L2865.32,995.739L2865.39,995.796L2865.47,995.854L2865.55,995.915L2865.62,995.976L2865.69,996.04L2865.76,996.105L2865.83,996.171L2865.89,996.241L2865.96,996.311L2866.02,996.381L2866.09,996.457L2866.15,996.53L2866.2,996.607L2866.26,996.684L2866.32,996.763L2866.37,996.844L2866.42,996.925L2866.47,997.008L2866.52,997.093L2866.56,997.179L2866.61,997.267L2866.65,997.354L2866.68,997.443L2866.72,997.534L2866.76,997.624L2866.79,997.718L2866.82,997.811L2866.85,997.905L2866.87,998.002L2866.9,998.097L2866.92,998.195L2866.94,998.293L2866.95,998.392L2866.97,998.491L2866.98,998.593L2866.99,998.695L2866.99,998.795L2867,998.897L2867,999L2867,999.103L2866.99,999.205L2866.99,999.305L2866.98,999.407L2866.97,999.509L2866.95,999.608L2866.94,999.707L2866.92,999.805L2866.9,999.903L2866.87,999.998L2866.85,1000.1L2866.82,1000.19L2866.79,1000.28L2866.76,1000.38L2866.72,1000.47L2866.68,1000.56L2866.65,1000.65L2866.61,1000.73L2866.56,1000.82L2866.52,1000.91L2866.47,1000.99L2866.42,1001.08L2866.37,1001.16L2866.32,1001.24L2866.26,1001.32L2866.2,1001.39L2866.15,1001.47L2866.09,1001.54L2866.02,1001.62L2865.96,1001.69L2865.89,1001.76L2865.83,1001.83L2865.76,1001.89L2865.69,1001.96L2865.62,1002.02L2865.55,1002.09L2865.47,1002.15L2865.39,1002.2L2865.32,1002.26L2865.24,1002.32L2865.16,1002.37L2865.07,1002.42L2864.99,1002.47L2864.91,1002.52L2864.82,1002.56L2864.74,1002.61L2864.65,1002.65L2864.56,1002.69L2864.47,1002.72L2864.38,1002.76L2864.28,1002.79L2864.19,1002.82L2864.09,1002.85L2864,1002.87L2863.9,1002.9L2863.8,1002.92L2863.71,1002.94L2863.61,1002.95L2863.51,1002.97L2863.41,1002.98L2863.31,1002.99L2863.2,1003L2863.1,1003L2863,1003L2862.9,1003L2862.8,1003L2862.69,1002.99L2862.59,1002.98L2862.49,1002.97L2862.39,1002.95L2862.29,1002.94L2862.2,1002.92L2862.1,1002.9L2862,1002.87L2861.91,1002.85L2861.81,1002.82L2861.72,1002.79L2861.62,1002.76L2861.53,1002.72L2861.44,1002.69L2861.35,1002.65L2861.27,1002.61L2861.18,1002.56L2861.09,1002.52L2861.01,1002.47L2860.93,1002.42L2860.84,1002.37L2860.76,1002.32L2860.68,1002.26L2860.61,1002.2L2860.53,1002.15L2860.45,1002.09L2860.38,1002.02L2860.31,1001.96L2860.24,1001.89L2860.17,1001.83L2860.11,1001.76L2860.04,1001.69L2859.98,1001.62L2859.91,1001.55L2859.85,1001.47L2859.8,1001.39L2859.74,1001.32L2859.68,1001.24L2859.63,1001.16L2859.58,1001.08L2859.53,1000.99L2859.48,1000.91L2859.44,1000.82L2859.39,1000.74L2859.35,1000.65L2859.32,1000.56L2859.28,1000.47L2859.24,1000.37L2859.21,1000.28L2859.18,1000.19L2859.15,1000.1L2859.13,999.998L2859.1,999.901L2859.08,999.805L2859.06,999.707L2859.05,999.608L2859.03,999.509L2859.02,999.407L2859.01,999.307L2859.01,999.205L2859,999.103L2859,999L2859,998.897L2859.01,998.795L2859.01,998.693L2859.02,998.593L2859.03,998.491L2859.05,998.392L2859.06,998.293L2859.08,998.195L2859.1,998.099L2859.13,998.002L2859.15,997.905L2859.18,997.811L2859.21,997.716L2859.24,997.626L2859.28,997.534L2859.32,997.443L2859.35,997.354L2859.39,997.265L2859.44,997.179L2859.48,997.093L2859.53,997.008L2859.58,996.925L2859.63,996.844L2859.68,996.764L2859.74,996.684L2859.8,996.607L2859.85,996.53L2859.91,996.455L2859.98,996.383L2860.04,996.311L2860.11,996.24L2860.17,996.172L2860.24,996.105L2860.31,996.039L2860.38,995.976L2860.45,995.915L2860.53,995.854L2860.61,995.796L2860.68,995.739L2860.76,995.684L2860.84,995.631L2860.93,995.58L2861.01,995.531L2861.09,995.484L2861.18,995.438L2861.27,995.395L2861.35,995.354L2861.44,995.315L2861.53,995.278L2861.62,995.243L2861.72,995.21L2861.81,995.18L2861.91,995.152L2862,995.126L2862.1,995.102L2862.2,995.081L2862.29,995.062L2862.39,995.046L2862.49,995.032L2862.59,995.021L2862.69,995.012L2862.8,995.005L2862.9,995.001L2863,995L2863.1,995.001ZM2862.92,996.001L2862.85,996.004L2862.77,996.009L2862.69,996.016L2862.62,996.024L2862.54,996.035L2862.47,996.047L2862.4,996.061L2862.32,996.077L2862.25,996.095L2862.18,996.114L2862.11,996.135L2862.04,996.158L2861.97,996.182L2861.9,996.208L2861.83,996.236L2861.77,996.265L2861.7,996.296L2861.64,996.328L2861.57,996.362L2861.51,996.398L2861.45,996.435L2861.38,996.473L2861.32,996.513L2861.26,996.554L2861.21,996.596L2861.15,996.64L2861.09,996.685L2861.04,996.732L2860.98,996.78L2860.93,996.829L2860.88,996.879L2860.83,996.931L2860.78,996.983L2860.73,997.037L2860.68,997.092L2860.64,997.148L2860.6,997.206L2860.55,997.264L2860.51,997.323L2860.47,997.384L2860.43,997.445L2860.4,997.507L2860.36,997.571L2860.33,997.635L2860.3,997.7L2860.26,997.766L2860.24,997.833L2860.21,997.9L2860.18,997.969L2860.16,998.038L2860.14,998.108L2860.11,998.179L2860.1,998.251L2860.08,998.323L2860.06,998.396L2860.05,998.469L2860.03,998.543L2860.02,998.618L2860.02,998.693L2860.01,998.769L2860,998.846L2860,998.923L2860,999L2860,999.077L2860,999.154L2860.01,999.231L2860.02,999.307L2860.02,999.382L2860.03,999.457L2860.05,999.531L2860.06,999.604L2860.08,999.677L2860.1,999.749L2860.11,999.821L2860.14,999.892L2860.16,999.962L2860.18,1000.03L2860.21,1000.1L2860.24,1000.17L2860.26,1000.23L2860.3,1000.3L2860.33,1000.37L2860.36,1000.43L2860.4,1000.49L2860.43,1000.56L2860.47,1000.62L2860.51,1000.68L2860.55,1000.74L2860.6,1000.79L2860.64,1000.85L2860.68,1000.91L2860.73,1000.96L2860.78,1001.02L2860.83,1001.07L2860.88,1001.12L2860.93,1001.17L2860.98,1001.22L2861.04,1001.27L2861.09,1001.32L2861.15,1001.36L2861.21,1001.4L2861.26,1001.45L2861.32,1001.49L2861.38,1001.53L2861.45,1001.57L2861.51,1001.6L2861.57,1001.64L2861.64,1001.67L2861.7,1001.7L2861.77,1001.74L2861.83,1001.76L2861.9,1001.79L2861.97,1001.82L2862.04,1001.84L2862.11,1001.87L2862.18,1001.89L2862.25,1001.9L2862.32,1001.92L2862.4,1001.94L2862.47,1001.95L2862.54,1001.97L2862.62,1001.98L2862.69,1001.98L2862.77,1001.99L2862.85,1002L2862.92,1002L2863,1002L2863.08,1002L2863.15,1002L2863.23,1001.99L2863.31,1001.98L2863.38,1001.98L2863.46,1001.97L2863.53,1001.95L2863.6,1001.94L2863.68,1001.92L2863.75,1001.9L2863.82,1001.89L2863.89,1001.87L2863.96,1001.84L2864.03,1001.82L2864.1,1001.79L2864.17,1001.76L2864.23,1001.74L2864.3,1001.7L2864.37,1001.67L2864.43,1001.64L2864.49,1001.6L2864.55,1001.57L2864.62,1001.53L2864.68,1001.49L2864.74,1001.45L2864.79,1001.4L2864.85,1001.36L2864.91,1001.32L2864.96,1001.27L2865.02,1001.22L2865.07,1001.17L2865.12,1001.12L2865.17,1001.07L2865.22,1001.02L2865.27,1000.96L2865.32,1000.91L2865.36,1000.85L2865.4,1000.79L2865.45,1000.74L2865.49,1000.68L2865.53,1000.62L2865.57,1000.56L2865.6,1000.49L2865.64,1000.43L2865.67,1000.37L2865.7,1000.3L2865.74,1000.23L2865.76,1000.17L2865.79,1000.1L2865.82,1000.03L2865.84,999.962L2865.87,999.892L2865.89,999.821L2865.91,999.749L2865.92,999.677L2865.94,999.604L2865.95,999.531L2865.97,999.457L2865.98,999.382L2865.98,999.307L2865.99,999.231L2866,999.154L2866,999.077L2866,999L2866,998.923L2866,998.846L2865.99,998.769L2865.98,998.693L2865.98,998.618L2865.97,998.543L2865.95,998.469L2865.94,998.396L2865.92,998.323L2865.91,998.251L2865.89,998.179L2865.87,998.108L2865.84,998.038L2865.82,997.969L2865.79,997.9L2865.76,997.833L2865.74,997.766L2865.7,997.7L2865.67,997.635L2865.64,997.571L2865.6,997.507L2865.57,997.445L2865.53,997.384L2865.49,997.323L2865.45,997.264L2865.4,997.206L2865.36,997.148L2865.32,997.092L2865.27,997.037L2865.22,996.983L2865.17,996.931L2865.12,996.879L2865.07,996.829L2865.02,996.78L2864.96,996.732L2864.91,996.685L2864.85,996.64L2864.79,996.596L2864.74,996.554L2864.68,996.513L2864.62,996.473L2864.55,996.435L2864.49,996.398L2864.43,996.362L2864.37,996.328L2864.3,996.296L2864.23,996.265L2864.17,996.236L2864.1,996.208L2864.03,996.182L2863.96,996.158L2863.89,996.135L2863.82,996.114L2863.75,996.095L2863.68,996.077L2863.6,996.061L2863.53,996.047L2863.46,996.035L2863.38,996.024L2863.31,996.016L2863.23,996.009L2863.15,996.004L2863.08,996.001L2863,996L2862.92,996.001Z" style="fill:rgb(51,51,51);"/>
                </g>
                <g transform="matrix(1,0,0,1,-1286,-205)">
                    <circle cx="2866" cy="990" r="1" style="fill:rgb(51,51,51);"/>
                </g>
            </g>
            <g transform="matrix(1,0,0,1,-1283,-204.5)">
                <circle cx="2863" cy="991" r="2" style="fill:none;stroke:rgb(51,51,51);stroke-width:1px;"/>
            </g>
        </g>
    </g>
</svg>
