<?xml version="1.0" encoding="UTF-8" standalone="no"?><!DOCTYPE svg PUBLIC "-//W3C//DTD SVG 1.1//EN" "http://www.w3.org/Graphics/SVG/1.1/DTD/svg11.dtd"><svg width="100%" height="100%" viewBox="0 0 24 24" version="1.1" xmlns="http://www.w3.org/2000/svg" xmlns:xlink="http://www.w3.org/1999/xlink" xml:space="preserve" xmlns:serif="http://www.serif.com/" style="fill-rule:evenodd;clip-rule:evenodd;stroke-linecap:round;stroke-linejoin:round;stroke-miterlimit:1.5;"><rect id="object.real.shoppingCart" x="0" y="0" width="24" height="24" style="fill:none;"/><circle cx="14.999" cy="20" r="2" style="fill:url(#_Linear1);"/><circle cx="8.999" cy="20" r="2" style="fill:url(#_Linear2);"/><path d="M4.997,6c0.552,0 1,0.448 1,1c0,0.873 0,2 0,2l-1,0l0,-2c0,0 -1.647,0 -2.5,0c-0.276,0 -0.5,-0.224 -0.5,-0.5c0,-0.133 0.053,-0.26 0.147,-0.354c0.093,-0.093 0.22,-0.146 0.353,-0.146c0.624,0 1.704,0 2.5,0Z" style="fill:url(#_Linear3);"/><path d="M18.916,16.394c-0.157,0.368 -0.519,0.606 -0.919,0.606c-2.208,0 -9.351,0 -12,0c-0.265,0 -0.519,-0.105 -0.707,-0.293c-0.188,-0.187 -0.293,-0.442 -0.293,-0.707c0,-2.345 0,-8 0,-8c0,0 11.745,0 16,0c0.336,0 0.65,0.169 0.835,0.449c0.185,0.281 0.217,0.636 0.084,0.945c-0.854,1.994 -2.39,5.577 -3,7Z" style="fill:url(#_Linear4);fill-rule:nonzero;"/><clipPath id="_clip5"><path d="M18.916,16.394c-0.157,0.368 -0.519,0.606 -0.919,0.606c-2.208,0 -9.351,0 -12,0c-0.265,0 -0.519,-0.105 -0.707,-0.293c-0.188,-0.187 -0.293,-0.442 -0.293,-0.707c0,-2.345 0,-8 0,-8c0,0 11.745,0 16,0c0.336,0 0.65,0.169 0.835,0.449c0.185,0.281 0.217,0.636 0.084,0.945c-0.854,1.994 -2.39,5.577 -3,7Z" clip-rule="nonzero"/></clipPath><g clip-path="url(#_clip5)"><path d="M4.997,12.5l15.987,0" style="fill:none;stroke:#333;stroke-opacity:0.501961;stroke-width:1px;"/><path d="M4.997,14.5l14.971,0" style="fill:none;stroke:#333;stroke-opacity:0.501961;stroke-width:1px;"/><path d="M4.997,10.5l17.003,0" style="fill:none;stroke:#333;stroke-opacity:0.501961;stroke-width:1px;"/></g><defs><linearGradient id="_Linear1" x1="0" y1="0" x2="1" y2="0" gradientUnits="userSpaceOnUse" gradientTransform="matrix(-20,20,-20,-20,22,2)"><stop offset="0" style="stop-color:#fff;stop-opacity:1"/><stop offset="1" style="stop-color:#666;stop-opacity:1"/></linearGradient><linearGradient id="_Linear2" x1="0" y1="0" x2="1" y2="0" gradientUnits="userSpaceOnUse" gradientTransform="matrix(-20,20,-20,-20,22,2)"><stop offset="0" style="stop-color:#fff;stop-opacity:1"/><stop offset="1" style="stop-color:#666;stop-opacity:1"/></linearGradient><linearGradient id="_Linear3" x1="0" y1="0" x2="1" y2="0" gradientUnits="userSpaceOnUse" gradientTransform="matrix(-20.0029,20,-20,-20.0029,22,2)"><stop offset="0" style="stop-color:#fff;stop-opacity:1"/><stop offset="1" style="stop-color:#666;stop-opacity:1"/></linearGradient><linearGradient id="_Linear4" x1="0" y1="0" x2="1" y2="0" gradientUnits="userSpaceOnUse" gradientTransform="matrix(-20.0029,20,-20,-20.0029,22,2)"><stop offset="0" style="stop-color:#fff;stop-opacity:1"/><stop offset="1" style="stop-color:#666;stop-opacity:1"/></linearGradient></defs></svg>