<?xml version="1.0" encoding="UTF-8" standalone="no"?>
<!DOCTYPE svg PUBLIC "-//W3C//DTD SVG 1.1//EN" "http://www.w3.org/Graphics/SVG/1.1/DTD/svg11.dtd">
<svg width="24px" height="24px" version="1.1" xmlns="http://www.w3.org/2000/svg" xmlns:xlink="http://www.w3.org/1999/xlink" xml:space="preserve" xmlns:serif="http://www.serif.com/" style="fill-rule:evenodd;clip-rule:evenodd;stroke-linejoin:round;stroke-miterlimit:1.41421;">
    <g transform="matrix(1,0,0,1,-3331,-1032)">
        <g id="object.thin.anchor" transform="matrix(1,0,0,1,1763,262)">
            <rect x="1568" y="770" width="24" height="24" style="fill:none;"/>
            <g transform="matrix(1,0,0,1,-1763,-262)">
                <path d="M3350,1046.51C3349.99,1050.65 3346.64,1054 3342.5,1054C3338.36,1054 3335,1050.64 3335,1046.5C3335,1046.5 3335,1046.28 3335,1046C3335,1045.74 3335.11,1045.48 3335.29,1045.29C3335.48,1045.11 3335.74,1045 3336,1045C3336.5,1045 3337.09,1045 3337.5,1045C3337.63,1045 3337.76,1045.05 3337.85,1045.15C3337.95,1045.24 3338,1045.37 3338,1045.5C3338,1045.63 3337.95,1045.76 3337.85,1045.85C3337.76,1045.95 3337.63,1046 3337.5,1046C3336.91,1046 3336,1046 3336,1046L3336,1046.5L3336,1046.51C3336.01,1049.92 3338.65,1052.73 3342,1052.98L3342,1043C3342,1043 3340.35,1043 3339.5,1043C3339.37,1043 3339.24,1042.95 3339.15,1042.85C3339.05,1042.76 3339,1042.63 3339,1042.5C3339,1042.37 3339.05,1042.24 3339.15,1042.15C3339.24,1042.05 3339.37,1042 3339.5,1042C3340.35,1042 3342,1042 3342,1042L3342,1038.95C3340.86,1038.72 3340,1037.71 3340,1036.5C3340,1035.12 3341.12,1034 3342.5,1034C3343.88,1034 3345,1035.12 3345,1036.5C3345,1037.71 3344.14,1038.72 3343,1038.95L3343,1042C3343,1042 3344.65,1042 3345.5,1042C3345.63,1042 3345.76,1042.05 3345.85,1042.15C3345.95,1042.24 3346,1042.37 3346,1042.5C3346,1042.63 3345.95,1042.76 3345.85,1042.85C3345.76,1042.95 3345.63,1043 3345.5,1043C3344.65,1043 3343,1043 3343,1043L3343,1052.98C3346.35,1052.72 3349,1049.92 3349,1046.5L3349,1046C3349,1046 3348.09,1046 3347.5,1046C3347.37,1046 3347.24,1045.95 3347.15,1045.85C3347.05,1045.76 3347,1045.63 3347,1045.5C3347,1045.37 3347.05,1045.24 3347.15,1045.15C3347.24,1045.05 3347.37,1045 3347.5,1045C3347.91,1045 3348.5,1045 3349,1045C3349.26,1045 3349.52,1045.11 3349.71,1045.29C3349.89,1045.48 3350,1045.74 3350,1046C3350,1046.28 3350,1046.5 3350,1046.5L3350,1046.51ZM3342.5,1035C3343.33,1035 3344,1035.67 3344,1036.5C3344,1037.33 3343.33,1038 3342.5,1038C3341.67,1038 3341,1037.33 3341,1036.5C3341,1035.67 3341.67,1035 3342.5,1035Z" style="fill:rgb(51,51,51);"/>
            </g>
        </g>
    </g>
</svg>
