<?xml version="1.0" encoding="UTF-8" standalone="no"?>
<!DOCTYPE svg PUBLIC "-//W3C//DTD SVG 1.1//EN" "http://www.w3.org/Graphics/SVG/1.1/DTD/svg11.dtd">
<svg width="24px" height="24px" version="1.1" xmlns="http://www.w3.org/2000/svg" xmlns:xlink="http://www.w3.org/1999/xlink" xml:space="preserve" xmlns:serif="http://www.serif.com/" style="fill-rule:evenodd;clip-rule:evenodd;stroke-linecap:round;stroke-linejoin:round;stroke-miterlimit:1.5;">
    <g transform="matrix(1,0,0,1,-48,-1128)">
        <g id="object.real.id" transform="matrix(0.800768,0,0,0.984948,48,1128)">
            <rect x="0" y="0" width="29.971" height="24.367" style="fill:none;"/>
            <g transform="matrix(1.31453,0,0,1.09338,-63.2288,-945.072)">
                <path d="M69,869.929C69,869.416 68.574,869 68.05,869L50.95,869C50.426,869 50,869.416 50,869.929L50,881.071C50,881.584 50.426,882 50.95,882L68.05,882C68.574,882 69,881.584 69,881.071L69,869.929Z" style="fill:url(#_Linear1);"/>
                <clipPath id="_clip2">
                    <path d="M69,869.929C69,869.416 68.574,869 68.05,869L50.95,869C50.426,869 50,869.416 50,869.929L50,881.071C50,881.584 50.426,882 50.95,882L68.05,882C68.574,882 69,881.584 69,881.071L69,869.929Z"/>
                </clipPath>
                <g clip-path="url(#_clip2)">
                    <g transform="matrix(0.95,0,0,0.928571,2.5,62.0714)">
                        <circle cx="56" cy="875" r="3" style="fill:rgb(51,51,51);fill-opacity:0.498039;"/>
                    </g>
                    <g transform="matrix(0.95,0,0,0.928571,2.5,62.0714)">
                        <path d="M53,881C53,880.431 53.357,879.917 53.931,879.552C54.561,879.84 55.262,880 56,880C56.738,880 57.439,879.84 58.069,879.552C58.643,879.917 59,880.431 59,881L59,884L53,884L53,881Z" style="fill:rgb(51,51,51);fill-opacity:0.498039;"/>
                        <path d="M53.972,878.553L54.019,878.556L54.067,878.562L54.114,878.569L54.16,878.579L54.206,878.591L54.252,878.605L54.296,878.622L54.34,878.64L54.393,878.664L54.44,878.684L54.489,878.704L54.537,878.724L54.586,878.742L54.634,878.761L54.684,878.778L54.734,878.795L54.783,878.811L54.833,878.827L54.884,878.842L54.935,878.856L54.985,878.87L55.036,878.883L55.088,878.896L55.14,878.907L55.191,878.918L55.243,878.929L55.296,878.938L55.349,878.947L55.402,878.956L55.455,878.963L55.509,878.97L55.562,878.976L55.616,878.982L55.671,878.987L55.725,878.991L55.779,878.994L55.834,878.997L55.889,878.998L55.945,879L56,879L56.055,879L56.111,878.998L56.166,878.997L56.221,878.994L56.275,878.991L56.329,878.987L56.384,878.982L56.438,878.976L56.491,878.97L56.545,878.963L56.598,878.956L56.651,878.947L56.704,878.938L56.757,878.929L56.809,878.918L56.86,878.907L56.912,878.896L56.964,878.883L57.015,878.87L57.065,878.856L57.116,878.842L57.167,878.827L57.217,878.811L57.266,878.795L57.316,878.778L57.366,878.761L57.414,878.742L57.463,878.724L57.511,878.704L57.56,878.684L57.607,878.664L57.66,878.64L57.704,878.622L57.748,878.605L57.794,878.591L57.84,878.579L57.887,878.569L57.934,878.562L57.981,878.556L58.028,878.553L58.076,878.552L58.124,878.554L58.171,878.558L58.218,878.564L58.265,878.572L58.312,878.582L58.357,878.595L58.403,878.61L58.447,878.627L58.491,878.646L58.534,878.667L58.575,878.69L58.616,878.715L58.678,878.755L58.748,878.803L58.818,878.854L58.886,878.905L58.953,878.958L59.018,879.013L59.083,879.069L59.145,879.127L59.206,879.186L59.266,879.248L59.323,879.31L59.38,879.375L59.434,879.441L59.486,879.509L59.537,879.579L59.586,879.65L59.632,879.723L59.676,879.799L59.718,879.875L59.757,879.953L59.794,880.034L59.829,880.115L59.86,880.198L59.889,880.283L59.914,880.369L59.937,880.456L59.956,880.545L59.972,880.634L59.984,880.724L59.993,880.816L59.998,880.908L60,880.99L60,884L59.999,884.048L59.995,884.095L59.99,884.142L59.982,884.189L59.972,884.236L59.959,884.282L59.945,884.327L59.928,884.372L59.91,884.415L59.889,884.458L59.866,884.5L59.841,884.541L59.815,884.58L59.786,884.618L59.756,884.655L59.724,884.69L59.69,884.724L59.655,884.756L59.618,884.786L59.58,884.815L59.541,884.841L59.5,884.866L59.458,884.889L59.415,884.91L59.372,884.928L59.327,884.945L59.282,884.96L59.236,884.972L59.189,884.982L59.142,884.99L59.095,884.995L59.048,884.999L59,885L53,885L52.952,884.999L52.905,884.995L52.858,884.99L52.811,884.982L52.764,884.972L52.718,884.96L52.673,884.945L52.628,884.928L52.585,884.91L52.542,884.889L52.5,884.866L52.459,884.841L52.42,884.815L52.382,884.786L52.345,884.756L52.31,884.724L52.276,884.69L52.244,884.655L52.214,884.618L52.185,884.58L52.159,884.541L52.134,884.5L52.111,884.458L52.09,884.415L52.072,884.372L52.055,884.327L52.041,884.282L52.028,884.236L52.018,884.189L52.01,884.142L52.005,884.095L52.001,884.048L52,884L52,880.99L52.002,880.908L52.007,880.816L52.016,880.724L52.028,880.634L52.044,880.544L52.063,880.456L52.086,880.369L52.111,880.283L52.14,880.198L52.171,880.115L52.205,880.034L52.243,879.953L52.282,879.875L52.324,879.799L52.368,879.723L52.414,879.65L52.463,879.579L52.514,879.509L52.566,879.441L52.62,879.375L52.677,879.31L52.734,879.248L52.794,879.186L52.855,879.127L52.917,879.069L52.982,879.013L53.047,878.958L53.114,878.905L53.182,878.854L53.252,878.803L53.322,878.755L53.384,878.715L53.425,878.69L53.467,878.667L53.509,878.646L53.553,878.627L53.597,878.61L53.643,878.595L53.688,878.582L53.735,878.572L53.782,878.564L53.829,878.558L53.877,878.554L53.924,878.552L53.972,878.553ZM58.01,879.579L57.95,879.605L57.89,879.63L57.829,879.654L57.769,879.678L57.707,879.7L57.646,879.722L57.584,879.744L57.521,879.764L57.458,879.784L57.395,879.802L57.332,879.82L57.268,879.837L57.204,879.854L57.14,879.869L57.075,879.884L57.01,879.898L56.944,879.911L56.879,879.923L56.813,879.934L56.746,879.945L56.68,879.954L56.613,879.963L56.546,879.97L56.479,879.977L56.411,879.983L56.343,879.988L56.275,879.993L56.207,879.996L56.138,879.998L56.069,880L56,880L55.931,880L55.862,879.998L55.793,879.996L55.725,879.993L55.657,879.988L55.589,879.983L55.521,879.977L55.454,879.97L55.387,879.963L55.32,879.954L55.254,879.945L55.187,879.934L55.121,879.923L55.056,879.911L54.99,879.898L54.925,879.884L54.86,879.869L54.796,879.854L54.732,879.837L54.668,879.82L54.605,879.802L54.542,879.784L54.479,879.764L54.416,879.744L54.354,879.722L54.293,879.7L54.231,879.678L54.171,879.654L54.11,879.63L54.05,879.605L53.99,879.579L53.931,879.552L53.878,879.587L53.826,879.622L53.775,879.659L53.726,879.696L53.678,879.734L53.632,879.773L53.587,879.812L53.543,879.852L53.501,879.893L53.461,879.935L53.422,879.977L53.384,880.02L53.348,880.064L53.314,880.109L53.281,880.154L53.25,880.199L53.221,880.246L53.193,880.293L53.167,880.34L53.143,880.388L53.121,880.436L53.1,880.485L53.082,880.535L53.065,880.585L53.05,880.635L53.037,880.686L53.026,880.738L53.016,880.789L53.009,880.841L53.004,880.894L53.001,880.947L53,881L53,884L59,884L59,882L59,881L58.999,880.947L58.996,880.894L58.991,880.841L58.984,880.789L58.974,880.738L58.963,880.686L58.95,880.635L58.935,880.585L58.918,880.535L58.9,880.485L58.879,880.436L58.857,880.388L58.833,880.34L58.807,880.293L58.779,880.246L58.75,880.199L58.719,880.154L58.686,880.109L58.652,880.064L58.616,880.02L58.578,879.977L58.539,879.935L58.499,879.893L58.457,879.852L58.413,879.812L58.368,879.773L58.322,879.734L58.274,879.696L58.225,879.659L58.174,879.622L58.122,879.587L58.069,879.552L58.01,879.579Z" style="fill:rgb(51,51,51);fill-opacity:0.498039;"/>
                    </g>
                    <g transform="matrix(0.95,0,0,0.928571,3.45,151.679)">
                        <path d="M61,779L66,779" style="fill:none;stroke:rgb(51,51,51);stroke-width:1px;"/>
                    </g>
                    <g transform="matrix(0.95,0,0,0.928571,3.45,153.536)">
                        <path d="M61,779L66,779" style="fill:none;stroke:rgb(51,51,51);stroke-width:1px;"/>
                    </g>
                </g>
            </g>
        </g>
    </g>
    <defs>
        <linearGradient id="_Linear1" x1="0" y1="0" x2="1" y2="0" gradientUnits="userSpaceOnUse" gradientTransform="matrix(-19,18.5714,-19,-18.5714,69,866.214)"><stop offset="0" style="stop-color:white;stop-opacity:1"/><stop offset="1" style="stop-color:rgb(102,102,102);stop-opacity:1"/></linearGradient>
    </defs>
</svg>
