<?xml version="1.0" encoding="UTF-8" standalone="no"?>
<!DOCTYPE svg PUBLIC "-//W3C//DTD SVG 1.1//EN" "http://www.w3.org/Graphics/SVG/1.1/DTD/svg11.dtd">
<svg width="24px" height="24px" version="1.1" xmlns="http://www.w3.org/2000/svg" xmlns:xlink="http://www.w3.org/1999/xlink" xml:space="preserve" xmlns:serif="http://www.serif.com/" style="fill-rule:evenodd;clip-rule:evenodd;stroke-linecap:round;stroke-linejoin:round;stroke-miterlimit:1.5;">
    <g transform="matrix(1,0,0,1,-885,-1080)">
        <g id="object.filled.window" transform="matrix(0.800768,0,0,0.984948,885,1080)">
            <rect x="0" y="0" width="29.971" height="24.367" style="fill:none;"/>
            <g transform="matrix(1.2488,0,0,1.01528,-885.403,-877.204)">
                <path d="M730.003,886L712.003,886C711.738,886 711.483,885.895 711.296,885.707C711.108,885.52 711.003,885.265 711.003,885C711.003,881.586 711.003,870.414 711.003,867C711.003,866.735 711.108,866.48 711.296,866.293C711.483,866.105 711.738,866 712.003,866C715.417,866 726.589,866 730.003,866C730.268,866 730.522,866.105 730.71,866.293C730.898,866.48 731.003,866.735 731.003,867L731.003,885C731.003,885.265 730.898,885.52 730.71,885.707C730.522,885.895 730.268,886 730.003,886ZM719.503,882C719.779,882 720.003,882.224 720.003,882.5C720.003,882.776 719.779,883 719.503,883L713.497,883C713.221,883 712.997,882.776 712.997,882.5C712.997,882.224 713.221,882 713.497,882L719.503,882ZM723.503,880C723.779,880 724.003,880.224 724.003,880.5C724.003,880.776 723.779,881 723.503,881L713.497,881C713.221,881 712.997,880.776 712.997,880.5C712.997,880.224 713.221,880 713.497,880L723.503,880ZM711.997,870L711.997,878L729.997,878L729.997,870L711.997,870ZM713.003,867C713.555,867 714.003,867.448 714.003,868C714.003,868.552 713.555,869 713.003,869C712.451,869 712.003,868.552 712.003,868C712.003,867.448 712.451,867 713.003,867ZM716.003,867C716.555,867 717.003,867.448 717.003,868C717.003,868.552 716.555,869 716.003,869C715.451,869 715.003,868.552 715.003,868C715.003,867.448 715.451,867 716.003,867ZM719.003,867C719.555,867 720.003,867.448 720.003,868C720.003,868.552 719.555,869 719.003,869C718.451,869 718.003,868.552 718.003,868C718.003,867.448 718.451,867 719.003,867Z" style="fill:rgb(51,51,51);"/>
            </g>
            <g transform="matrix(1.2488,0,0,1.01528,-598.8,-778.214)">
                <path d="M482,781L488,776L493,780" style="fill:none;stroke:rgb(51,51,51);stroke-width:1px;"/>
            </g>
            <g transform="matrix(1.2488,0,0,1.01528,-598.8,-779.229)">
                <path d="M491.5,782L496,779L500,782" style="fill:none;stroke:rgb(51,51,51);stroke-width:1px;"/>
            </g>
        </g>
    </g>
</svg>
