<?xml version="1.0" encoding="UTF-8" standalone="no"?>
<!DOCTYPE svg PUBLIC "-//W3C//DTD SVG 1.1//EN" "http://www.w3.org/Graphics/SVG/1.1/DTD/svg11.dtd">
<svg width="24px" height="24px" version="1.1" xmlns="http://www.w3.org/2000/svg" xmlns:xlink="http://www.w3.org/1999/xlink" xml:space="preserve" xmlns:serif="http://www.serif.com/" style="fill-rule:evenodd;clip-rule:evenodd;stroke-linejoin:round;stroke-miterlimit:1.41421;">
    <g transform="matrix(1,0,0,1,-3283,-984)">
        <g id="object.regular.trashBin" transform="matrix(1,0,0,1,1715,214)">
            <rect x="1568" y="770" width="24" height="24" style="fill:none;"/>
            <g transform="matrix(1,0,0,1,-1715,-214)">
                <path d="M3298,988C3298,988 3300.54,988 3302,988C3302.26,988 3302.52,988.105 3302.71,988.293C3302.89,988.48 3303,988.735 3303,989C3303,989.265 3302.89,989.52 3302.71,989.707C3302.52,989.895 3302.26,990 3302,990C3301.96,990 3301.94,990 3301.94,990C3301.94,990 3301.22,1000.79 3301,1004.07C3300.96,1004.59 3300.53,1005 3300,1005C3297.78,1005 3292.22,1005 3290,1005C3289.47,1005 3289.04,1004.59 3289,1004.07C3288.78,1000.79 3288.07,990 3288.07,990C3288.07,990 3288.04,990 3288,990C3287.45,990 3287,989.552 3287,989C3287,988.735 3287.11,988.48 3287.29,988.293C3287.48,988.105 3287.74,988 3288,988C3289.46,988 3292,988 3292,988C3292,988 3292,987.5 3292,987C3292,986.448 3292.45,986 3293,986C3294.11,986 3295.89,986 3297,986C3297.55,986 3298,986.448 3298,987C3298,987.5 3298,988 3298,988ZM3299.93,990L3290.07,990L3290.93,1003L3299.06,1003L3299.93,990ZM3294,1000.97C3294.01,1001.25 3293.8,1001.48 3293.53,1001.5C3293.25,1001.51 3293.02,1001.3 3293,1001.03C3292.91,999.322 3292.6,993.734 3292.5,992.028C3292.49,991.752 3292.7,991.516 3292.97,991.501C3292.97,991.501 3292.97,991.501 3292.97,991.501C3293.25,991.485 3293.48,991.696 3293.5,991.971C3293.59,993.676 3293.9,999.266 3294,1000.97ZM3297.03,991.501C3297.3,991.516 3297.51,991.752 3297.5,992.028C3297.4,993.734 3297.09,999.322 3297,1001.03C3296.98,1001.3 3296.75,1001.51 3296.47,1001.5C3296.2,1001.48 3295.99,1001.25 3296,1000.97C3296.1,999.266 3296.41,993.676 3296.5,991.971C3296.52,991.696 3296.75,991.485 3297.03,991.501C3297.03,991.501 3297.03,991.501 3297.03,991.501ZM3297,988L3297,987L3293,987L3293,988L3297,988Z"/>
            </g>
        </g>
    </g>
</svg>
