<?xml version="1.0" encoding="UTF-8" standalone="no"?>
<!DOCTYPE svg PUBLIC "-//W3C//DTD SVG 1.1//EN" "http://www.w3.org/Graphics/SVG/1.1/DTD/svg11.dtd">
<svg width="24px" height="24px" version="1.1" xmlns="http://www.w3.org/2000/svg" xmlns:xlink="http://www.w3.org/1999/xlink" xml:space="preserve" xmlns:serif="http://www.serif.com/" style="fill-rule:evenodd;clip-rule:evenodd;stroke-linejoin:round;stroke-miterlimit:1.41421;">
    <g transform="matrix(1,0,0,1,-1251,-1080)">
        <g id="object.filled.compass" transform="matrix(1,0,0,1,-317,310)">
            <rect x="1568" y="770" width="24" height="24" style="fill:none;"/>
            <g transform="matrix(1,0,0,1,-5.00293,-94)">
                <path d="M1585,866.006C1590.52,866.006 1595,870.485 1595,876.003C1595,881.52 1590.52,886 1585,886C1579.49,886 1575.01,881.52 1575.01,876.003C1575.01,870.485 1579.49,866.006 1585,866.006ZM1585,884.5C1585.28,884.5 1585.5,884.277 1585.5,884.001C1585.5,883.695 1585.5,883.305 1585.5,882.999C1585.5,882.723 1585.28,882.5 1585,882.5C1585,882.5 1585,882.5 1585,882.5C1584.73,882.5 1584.5,882.723 1584.5,882.999C1584.5,883.305 1584.5,883.695 1584.5,884.001C1584.5,884.277 1584.73,884.5 1585,884.5C1585,884.5 1585,884.5 1585,884.5ZM1586.86,877.515C1586.77,877.655 1586.65,877.773 1586.52,877.857C1585.82,878.277 1583.53,879.648 1581.52,880.857C1581.12,881.094 1580.62,881.032 1580.29,880.707C1579.97,880.383 1579.91,879.879 1580.14,879.485C1581.35,877.47 1582.72,875.185 1583.14,874.485C1583.23,874.345 1583.35,874.227 1583.49,874.143C1584.18,873.723 1586.47,872.352 1588.49,871.143C1588.88,870.906 1589.38,870.968 1589.71,871.293C1590.03,871.617 1590.09,872.121 1589.86,872.515C1588.65,874.53 1587.28,876.815 1586.86,877.515ZM1581,880L1586,877L1584,875L1581,880ZM1578,876.5C1578.13,876.5 1578.26,876.447 1578.35,876.354C1578.45,876.26 1578.5,876.133 1578.5,876C1578.5,875.867 1578.45,875.74 1578.35,875.646C1578.26,875.553 1578.13,875.5 1578,875.5C1577.69,875.5 1577.31,875.5 1577,875.5C1576.87,875.5 1576.74,875.553 1576.65,875.646C1576.55,875.74 1576.5,875.867 1576.5,876C1576.5,876.133 1576.55,876.26 1576.65,876.354C1576.74,876.447 1576.87,876.5 1577,876.5C1577.31,876.5 1577.69,876.5 1578,876.5ZM1593,876.5C1593.13,876.5 1593.26,876.447 1593.35,876.354C1593.45,876.26 1593.5,876.133 1593.5,876C1593.5,875.867 1593.45,875.74 1593.35,875.646C1593.26,875.553 1593.13,875.5 1593,875.5C1592.69,875.5 1592.31,875.5 1592,875.5C1591.87,875.5 1591.74,875.553 1591.65,875.646C1591.55,875.74 1591.5,875.867 1591.5,876C1591.5,876.133 1591.55,876.26 1591.65,876.354C1591.74,876.447 1591.87,876.5 1592,876.5C1592.31,876.5 1592.69,876.5 1593,876.5ZM1585,869.5C1585.28,869.5 1585.5,869.277 1585.5,869.001C1585.5,868.695 1585.5,868.305 1585.5,867.999C1585.5,867.723 1585.28,867.5 1585,867.5C1585,867.5 1585,867.5 1585,867.5C1584.73,867.5 1584.5,867.723 1584.5,867.999C1584.5,868.305 1584.5,868.695 1584.5,869.001C1584.5,869.277 1584.73,869.5 1585,869.5C1585,869.5 1585,869.5 1585,869.5Z" style="fill:rgb(51,51,51);"/>
            </g>
        </g>
    </g>
</svg>
