<?xml version="1.0" encoding="UTF-8" standalone="no"?>
<!DOCTYPE svg PUBLIC "-//W3C//DTD SVG 1.1//EN" "http://www.w3.org/Graphics/SVG/1.1/DTD/svg11.dtd">
<svg width="24px" height="24px" version="1.1" xmlns="http://www.w3.org/2000/svg" xmlns:xlink="http://www.w3.org/1999/xlink" xml:space="preserve" xmlns:serif="http://www.serif.com/" style="fill-rule:evenodd;clip-rule:evenodd;stroke-linejoin:round;stroke-miterlimit:1.41421;">
    <g transform="matrix(1,0,0,1,-2255,-1080)">
        <g id="object.filled.clock" transform="matrix(1,0,0,1,687,310)">
            <rect x="1568" y="770" width="24" height="24" style="fill:none;"/>
            <g transform="matrix(1,0,0,1,-53.0029,-94)">
                <path d="M1633,866C1638.52,866 1643,870.481 1643,876C1643,881.519 1638.52,886 1633,886C1627.48,886 1623,881.519 1623,876C1623,870.481 1627.48,866 1633,866ZM1634.01,876C1634.01,876.133 1633.95,876.26 1633.86,876.354C1633.34,876.868 1631.61,878.601 1630.86,879.354C1630.66,879.549 1630.34,879.549 1630.15,879.353C1630.06,879.26 1630,879.132 1630,879C1630,878.867 1630.06,878.74 1630.15,878.646C1630.98,877.813 1633.01,875.793 1633.01,875.793C1633.01,875.793 1633.01,871.489 1633.01,870C1633.01,869.724 1633.23,869.5 1633.51,869.5C1633.78,869.5 1634.01,869.724 1634.01,870C1634.01,871.359 1634.01,875.081 1634.01,876Z" style="fill:rgb(51,51,51);"/>
            </g>
        </g>
    </g>
</svg>
