<?xml version="1.0" encoding="UTF-8" standalone="no"?>
<!DOCTYPE svg PUBLIC "-//W3C//DTD SVG 1.1//EN" "http://www.w3.org/Graphics/SVG/1.1/DTD/svg11.dtd">
<svg width="25px" height="24px" version="1.1" xmlns="http://www.w3.org/2000/svg" xmlns:xlink="http://www.w3.org/1999/xlink" xml:space="preserve" xmlns:serif="http://www.serif.com/" style="fill-rule:evenodd;clip-rule:evenodd;stroke-linejoin:round;stroke-miterlimit:1.41421;">
    <g transform="matrix(1,0,0,1,-1058,-1080)">
        <g id="object.filled.lockUnlocked" transform="matrix(0.800768,0,0,0.984948,1058.98,1080)">
            <rect x="0" y="0" width="29.971" height="24.367" style="fill:none;"/>
            <g transform="matrix(1.2488,0,0,1.01528,-2516.33,-999.038)">
                <path d="M2034,1004C2034,1004.55 2033.55,1005 2033,1005C2030.42,1005 2023.58,1005 2021,1005C2020.45,1005 2020,1004.55 2020,1004C2020,1001.74 2020,996.26 2020,994C2020,993.448 2020.45,993 2021,993C2021.87,993 2023,993 2023,993C2023,993 2023,990.9 2023,989C2023,987.343 2024.34,986 2026,986C2026.65,986 2027.35,986 2028,986C2029.66,986 2031,987.343 2031,989C2031,989.582 2031,990.127 2031,990.5C2031,990.633 2030.95,990.76 2030.85,990.854C2030.76,990.947 2030.63,991 2030.5,991C2030.37,991 2030.24,990.947 2030.15,990.854C2030.05,990.76 2030,990.633 2030,990.5C2030,990.116 2030,989.558 2030,989C2030,987.895 2029.11,987 2028,987C2027.36,987 2026.64,987 2026,987C2024.89,987 2024,987.895 2024,989C2024,990.745 2024,993 2024,993C2024,993 2030.47,993 2033,993C2033.55,993 2034,993.448 2034,994C2034,996.26 2034,1001.74 2034,1004ZM2026,999C2026,998.448 2026.45,998 2027,998C2027.55,998 2028,998.448 2028,999C2028,999.552 2027.55,1000 2027,1000C2026.45,1000 2026,999.552 2026,999C2026,999 2026,999 2026,999Z" style="fill:rgb(51,51,51);"/>
            </g>
        </g>
    </g>
</svg>
