<?xml version="1.0" encoding="UTF-8" standalone="no"?>
<!DOCTYPE svg PUBLIC "-//W3C//DTD SVG 1.1//EN" "http://www.w3.org/Graphics/SVG/1.1/DTD/svg11.dtd">
<svg width="24px" height="24px" version="1.1" xmlns="http://www.w3.org/2000/svg" xmlns:xlink="http://www.w3.org/1999/xlink" xml:space="preserve" xmlns:serif="http://www.serif.com/" style="fill-rule:evenodd;clip-rule:evenodd;stroke-linejoin:round;stroke-miterlimit:1.41421;">
    <g transform="matrix(1,0,0,1,-3475,-984)">
        <g id="object.regular.watches" transform="matrix(1,0,0,1,1907,214)">
            <rect x="1568" y="770" width="24" height="24" style="fill:none;"/>
            <g transform="matrix(1,0,0,1,-1907,-214)">
                <path d="M3490.91,991.45C3492.19,992.551 3493,994.181 3493,996C3493,997.819 3492.19,999.449 3490.91,1000.55C3490.91,1000.55 3490.28,1003.68 3489.98,1005.2C3489.89,1005.66 3489.48,1006 3489,1006C3487.93,1006 3486.07,1006 3485,1006C3484.52,1006 3484.11,1005.66 3484.02,1005.2C3483.72,1003.68 3483.09,1000.55 3483.09,1000.55C3481.81,999.449 3481,997.818 3481,996C3481,994.182 3481.81,992.551 3483.09,991.45C3483.09,991.45 3483.72,988.32 3484.02,986.804C3484.11,986.336 3484.52,986 3485,986C3486.07,986 3487.93,986 3489,986C3489.48,986 3489.89,986.336 3489.98,986.804C3490.28,988.32 3490.91,991.45 3490.91,991.45ZM3485.38,1001.78L3485.82,1004L3488.18,1004L3488.62,1001.78C3488.11,1001.92 3487.56,1002 3487,1002C3486.44,1002 3485.89,1001.92 3485.38,1001.78ZM3487,992C3489.21,992 3491,993.792 3491,996C3491,998.208 3489.21,1000 3487,1000C3484.79,1000 3483,998.208 3483,996C3483,993.792 3484.79,992 3487,992ZM3488.62,990.223L3488.18,988L3485.82,988L3485.38,990.223C3485.89,990.078 3486.44,990 3487,990C3487.56,990 3488.11,990.078 3488.62,990.223Z" style="fill:rgb(51,51,51);"/>
            </g>
        </g>
    </g>
</svg>
