<?xml version="1.0" encoding="UTF-8" standalone="no"?>
<!DOCTYPE svg PUBLIC "-//W3C//DTD SVG 1.1//EN" "http://www.w3.org/Graphics/SVG/1.1/DTD/svg11.dtd">
<svg width="24px" height="24px" version="1.1" xmlns="http://www.w3.org/2000/svg" xmlns:xlink="http://www.w3.org/1999/xlink" xml:space="preserve" xmlns:serif="http://www.serif.com/" style="fill-rule:evenodd;clip-rule:evenodd;stroke-linejoin:round;stroke-miterlimit:1.41421;">
    <g transform="matrix(1,0,0,1,-2371,-1032)">
        <g id="object.thin.tablet" transform="matrix(1,0,0,1,803,262)">
            <rect x="1568" y="770" width="24" height="24" style="fill:none;"/>
            <g transform="matrix(1,0,0,1,82,-214)">
                <path d="M1508,1002C1508,1003.11 1507.11,1004 1506,1004C1502.17,1004 1493.83,1004 1490,1004C1488.89,1004 1488,1003.11 1488,1002C1488,998.926 1488,993.074 1488,990C1488,988.895 1488.89,988 1490,988C1493.83,988 1502.17,988 1506,988C1507.11,988 1508,988.895 1508,990C1508,993.074 1508,998.926 1508,1002ZM1507,990C1507,989.448 1506.55,989 1506,989C1502.85,989 1493.15,989 1490,989C1489.45,989 1489,989.448 1489,990C1489,992.577 1489,999.423 1489,1002C1489,1002.55 1489.45,1003 1490,1003C1493.15,1003 1502.85,1003 1506,1003C1506.55,1003 1507,1002.55 1507,1002C1507,999.423 1507,992.577 1507,990ZM1505,995C1505.55,995 1506,995.448 1506,996C1506,996.552 1505.55,997 1505,997C1504.45,997 1504,996.552 1504,996C1504,995.448 1504.45,995 1505,995Z" style="fill:rgb(51,51,51);"/>
            </g>
        </g>
    </g>
</svg>
