<?xml version="1.0" encoding="UTF-8" standalone="no"?><!DOCTYPE svg PUBLIC "-//W3C//DTD SVG 1.1//EN" "http://www.w3.org/Graphics/SVG/1.1/DTD/svg11.dtd"><svg width="100%" height="100%" viewBox="0 0 24 24" version="1.1" xmlns="http://www.w3.org/2000/svg" xmlns:xlink="http://www.w3.org/1999/xlink" xml:space="preserve" xmlns:serif="http://www.serif.com/" style="fill-rule:evenodd;clip-rule:evenodd;stroke-linejoin:round;stroke-miterlimit:1.41421;"><rect id="object.filled.champaigne" x="0" y="0" width="24" height="24" style="fill:none;"/><rect x="11" y="14" width="2" height="6" style="fill:#333;"/><path d="M15,20c0,-0.552 -0.448,-1 -1,-1l-4,0c-0.552,0 -1,0.448 -1,1c0,0.552 0.448,1 1,1l4,0c0.552,0 1,-0.448 1,-1Z" style="fill:#333;"/><rect x="10.5" y="7" width="3" height="6" style="fill:#333;"/><path d="M14.05,3.001l0.049,0.004l0.049,0.006l0.048,0.008l0.048,0.011l0.047,0.013l0.046,0.016l0.046,0.017l0.044,0.02l0.044,0.022l0.042,0.024l0.042,0.026l0.04,0.028l0.039,0.03l0.037,0.033l0.036,0.034l0.034,0.036l0.033,0.037l0.03,0.039l0.028,0.04l0.026,0.042l0.024,0.042l0.022,0.044l0.02,0.044l0.017,0.046l0.016,0.046l0.013,0.047l0.011,0.048l0.008,0.048l0.006,0.049l0.004,0.049l0.001,0.05l0,5l0,0.039l-0.002,0.154l-0.003,0.153l-0.005,0.152l-0.007,0.151l-0.009,0.149l-0.011,0.149l-0.013,0.147l-0.014,0.147l-0.017,0.144l-0.017,0.144l-0.02,0.142l-0.021,0.141l-0.023,0.139l-0.025,0.138l-0.026,0.136l-0.028,0.135l-0.03,0.133l-0.031,0.131l-0.032,0.129l-0.034,0.128l-0.036,0.126l-0.037,0.124l-0.038,0.121l-0.04,0.12l-0.041,0.118l-0.043,0.116l-0.044,0.114l-0.045,0.111l-0.046,0.11l-0.048,0.107l-0.049,0.104l-0.05,0.103l-0.052,0.099l-0.053,0.098l-0.053,0.095l-0.055,0.092l-0.056,0.09l-0.057,0.087l-0.059,0.085l-0.059,0.081l-0.06,0.079l-0.061,0.076l-0.062,0.074l-0.063,0.07l-0.065,0.067l-0.064,0.064l-0.066,0.062l-0.067,0.058l-0.067,0.055l-0.034,0.026l-0.035,0.025l-0.034,0.025l-0.035,0.024l-0.035,0.023l-0.035,0.022l-0.035,0.021l-0.035,0.021l-0.036,0.02l-0.035,0.018l-0.036,0.018l-0.036,0.017l-0.037,0.017l-0.036,0.015l-0.037,0.014l-0.036,0.014l-0.037,0.013l-0.037,0.011l-0.037,0.011l-0.038,0.01l-0.037,0.009l-0.038,0.008l-0.037,0.007l-0.038,0.007l-0.038,0.005l-0.038,0.004l-0.039,0.004l-0.038,0.002l-0.038,0.002l-0.039,0l-0.039,0l-0.038,-0.002l-0.039,-0.002l-0.038,-0.004l-0.039,-0.004l-0.038,-0.006l-0.038,-0.006l-0.038,-0.007l-0.037,-0.008l-0.038,-0.009l-0.037,-0.01l-0.038,-0.011l-0.037,-0.012l-0.037,-0.013l-0.037,-0.013l-0.036,-0.015l-0.037,-0.015l-0.036,-0.017l-0.036,-0.017l-0.036,-0.018l-0.036,-0.019l-0.036,-0.02l-0.035,-0.02l-0.036,-0.022l-0.035,-0.022l-0.035,-0.023l-0.035,-0.024l-0.034,-0.025l-0.034,-0.026l-0.035,-0.026l-0.034,-0.028l-0.033,-0.028l-0.067,-0.058l-0.066,-0.062l-0.065,-0.065l-0.064,-0.068l-0.064,-0.07l-0.062,-0.074l-0.061,-0.077l-0.061,-0.079l-0.059,-0.083l-0.058,-0.085l-0.058,-0.087l-0.056,-0.091l-0.055,-0.093l-0.054,-0.095l-0.052,-0.099l-0.052,-0.1l-0.05,-0.103l-0.049,-0.106l-0.048,-0.107l-0.047,-0.11l-0.045,-0.113l-0.044,-0.114l-0.042,-0.117l-0.041,-0.118l-0.04,-0.121l-0.038,-0.123l-0.037,-0.124l-0.036,-0.127l-0.034,-0.128l-0.032,-0.131l-0.031,-0.132l-0.029,-0.133l-0.028,-0.136l-0.026,-0.137l-0.024,-0.138l-0.023,-0.141l-0.021,-0.141l-0.019,-0.143l-0.018,-0.145l-0.016,-0.145l-0.014,-0.147l-0.012,-0.149l-0.011,-0.149l-0.008,-0.151l-0.007,-0.152l-0.005,-0.152l-0.003,-0.154l-0.001,-0.155l0,-5l0.001,-0.05l0.004,-0.049l0.006,-0.049l0.008,-0.048l0.011,-0.048l0.013,-0.047l0.016,-0.046l0.017,-0.046l0.02,-0.044l0.022,-0.044l0.024,-0.042l0.026,-0.042l0.028,-0.04l0.03,-0.039l0.033,-0.037l0.034,-0.036l0.036,-0.034l0.037,-0.033l0.039,-0.03l0.04,-0.028l0.042,-0.026l0.042,-0.024l0.044,-0.022l0.044,-0.02l0.046,-0.017l0.046,-0.016l0.047,-0.013l0.048,-0.011l0.048,-0.008l0.049,-0.006l0.049,-0.004l0.05,-0.001l4,0l0.05,0.001Zm-3.05,1.999l0,3.993l0.001,0.136l0.002,0.13l0.004,0.126l0.006,0.126l0.007,0.125l0.009,0.124l0.01,0.123l0.012,0.122l0.013,0.12l0.014,0.119l0.016,0.116l0.017,0.115l0.019,0.115l0.02,0.112l0.02,0.109l0.023,0.109l0.023,0.108l0.024,0.104l0.026,0.102l0.026,0.1l0.028,0.098l0.028,0.096l0.029,0.094l0.031,0.092l0.031,0.089l0.031,0.085l0.032,0.084l0.032,0.08l0.033,0.078l0.034,0.077l0.033,0.07l0.034,0.07l0.034,0.067l0.034,0.063l0.033,0.059l0.034,0.057l0.033,0.053l0.032,0.05l0.032,0.046l0.031,0.043l0.029,0.039l0.029,0.036l0.011,0.012l0.009,-0.01l0.028,-0.035l0.029,-0.038l0.031,-0.042l0.032,-0.047l0.032,-0.048l0.032,-0.053l0.034,-0.056l0.034,-0.06l0.033,-0.062l0.034,-0.065l0.034,-0.069l0.033,-0.071l0.033,-0.075l0.034,-0.078l0.032,-0.079l0.032,-0.083l0.031,-0.085l0.031,-0.09l0.03,-0.09l0.029,-0.091l0.028,-0.096l0.028,-0.098l0.026,-0.098l0.026,-0.102l0.025,-0.105l0.023,-0.105l0.022,-0.108l0.022,-0.11l0.02,-0.111l0.018,-0.113l0.018,-0.115l0.016,-0.115l0.014,-0.118l0.014,-0.12l0.012,-0.121l0.01,-0.122l0.009,-0.122l0.007,-0.125l0.006,-0.126l0.005,-0.126l0.003,-0.129l0.001,-0.131l0,-4.029l-2,0Z" style="fill:#333;"/></svg>