<?xml version="1.0" encoding="UTF-8" standalone="no"?>
<!DOCTYPE svg PUBLIC "-//W3C//DTD SVG 1.1//EN" "http://www.w3.org/Graphics/SVG/1.1/DTD/svg11.dtd">
<svg width="24px" height="24px" version="1.1" xmlns="http://www.w3.org/2000/svg" xmlns:xlink="http://www.w3.org/1999/xlink" xml:space="preserve" xmlns:serif="http://www.serif.com/" style="fill-rule:evenodd;clip-rule:evenodd;stroke-linecap:round;stroke-linejoin:round;stroke-miterlimit:1.5;">
    <g transform="matrix(1,0,0,1,-2063,-1032)">
        <g id="object.thin.key" transform="matrix(0.800768,0,0,0.984948,2063,1032)">
            <rect x="0" y="0" width="29.971" height="24.367" style="fill:none;"/>
            <g transform="matrix(1.04067,0,0,0.846069,-747.407,-648.258)">
                <path d="M726.108,775.801L726.215,775.805L726.322,775.812L726.428,775.822L726.533,775.834L726.638,775.848L726.742,775.865L726.845,775.885L726.947,775.908L727.049,775.932L727.149,775.96L727.248,775.989L727.347,776.021L727.444,776.055L727.54,776.092L727.635,776.131L727.729,776.172L727.822,776.215L727.913,776.261L728.003,776.308L728.091,776.357L728.178,776.409L728.264,776.463L728.349,776.518L728.432,776.576L728.513,776.635L728.593,776.697L728.672,776.76L728.748,776.825L728.824,776.892L728.898,776.961L728.969,777.03L729.04,777.102L729.109,777.177L729.175,777.251L729.24,777.328L729.303,777.407L729.365,777.487L729.425,777.569L729.482,777.651L729.537,777.735L729.59,777.821L729.642,777.909L729.692,777.997L729.74,778.087L729.785,778.179L729.828,778.272L729.869,778.365L729.908,778.459L729.945,778.557L729.979,778.654L730.011,778.751L730.04,778.851L730.068,778.952L730.092,779.053L730.115,779.155L730.134,779.258L730.152,779.362L730.166,779.466L730.178,779.571L730.188,779.678L730.195,779.786L730.199,779.892L730.2,780L730.199,780.108L730.195,780.214L730.188,780.322L730.178,780.429L730.166,780.534L730.152,780.638L730.134,780.742L730.115,780.845L730.092,780.947L730.068,781.048L730.04,781.149L730.011,781.249L729.979,781.346L729.945,781.443L729.908,781.541L729.869,781.635L729.828,781.728L729.785,781.821L729.74,781.913L729.692,782.003L729.642,782.091L729.59,782.179L729.537,782.265L729.482,782.349L729.425,782.431L729.365,782.513L729.303,782.593L729.24,782.672L729.175,782.749L729.109,782.823L729.04,782.898L728.969,782.97L728.898,783.039L728.824,783.108L728.748,783.175L728.672,783.24L728.593,783.303L728.513,783.365L728.432,783.424L728.349,783.482L728.264,783.537L728.178,783.591L728.091,783.643L728.003,783.692L727.913,783.739L727.822,783.785L727.729,783.828L727.635,783.869L727.54,783.908L727.444,783.945L727.347,783.979L727.248,784.011L727.149,784.04L727.049,784.068L726.947,784.092L726.845,784.115L726.742,784.135L726.638,784.152L726.533,784.166L726.428,784.178L726.322,784.188L726.215,784.195L726.108,784.199L726,784.2L725.892,784.199L725.785,784.195L725.678,784.188L725.572,784.178L725.467,784.166L725.362,784.152L725.258,784.135L725.155,784.115L725.053,784.092L724.951,784.068L724.851,784.04L724.752,784.011L724.653,783.979L724.556,783.945L724.46,783.908L724.365,783.869L724.271,783.828L724.178,783.785L724.087,783.739L723.997,783.692L723.909,783.643L723.822,783.591L723.736,783.537L723.651,783.482L723.568,783.424L723.487,783.365L723.407,783.303L723.328,783.24L723.252,783.175L723.176,783.108L723.102,783.039L723.031,782.97L722.96,782.898L722.891,782.823L722.825,782.749L722.76,782.672L722.697,782.593L722.635,782.513L722.575,782.431L722.518,782.349L722.463,782.265L722.41,782.179L722.358,782.091L722.308,782.003L722.26,781.913L722.215,781.821L722.172,781.728L722.131,781.635L722.092,781.541L722.055,781.443L722.021,781.346L721.989,781.249L721.96,781.149L721.932,781.048L721.908,780.947L721.885,780.845L721.866,780.742L721.848,780.638L721.834,780.534L721.822,780.429L721.812,780.322L721.805,780.214L721.801,780.108L721.8,780L721.801,779.892L721.805,779.786L721.812,779.678L721.822,779.571L721.834,779.466L721.848,779.362L721.866,779.258L721.885,779.155L721.908,779.053L721.932,778.952L721.96,778.851L721.989,778.751L722.021,778.654L722.055,778.557L722.092,778.459L722.131,778.365L722.172,778.272L722.215,778.179L722.26,778.087L722.308,777.997L722.358,777.909L722.41,777.821L722.463,777.735L722.518,777.651L722.575,777.569L722.635,777.487L722.697,777.407L722.76,777.328L722.825,777.251L722.891,777.177L722.96,777.102L723.031,777.03L723.102,776.961L723.176,776.892L723.252,776.825L723.328,776.76L723.407,776.697L723.487,776.635L723.568,776.576L723.651,776.518L723.736,776.463L723.822,776.409L723.909,776.357L723.997,776.308L724.087,776.261L724.178,776.215L724.271,776.172L724.365,776.131L724.46,776.092L724.556,776.055L724.653,776.021L724.752,775.989L724.851,775.96L724.951,775.932L725.053,775.908L725.155,775.885L725.258,775.865L725.362,775.848L725.467,775.834L725.572,775.822L725.678,775.812L725.785,775.805L725.892,775.801L726,775.8L726.108,775.801ZM725.923,777.001L725.846,777.004L725.769,777.009L725.693,777.016L725.618,777.024L725.543,777.035L725.469,777.047L725.396,777.061L725.323,777.077L725.251,777.095L725.179,777.114L725.108,777.135L725.038,777.158L724.969,777.182L724.9,777.208L724.833,777.236L724.766,777.265L724.7,777.296L724.635,777.328L724.571,777.362L724.507,777.398L724.445,777.435L724.384,777.473L724.323,777.513L724.264,777.554L724.206,777.596L724.148,777.64L724.092,777.685L724.037,777.732L723.983,777.78L723.931,777.829L723.879,777.879L723.829,777.931L723.78,777.983L723.732,778.037L723.685,778.092L723.64,778.148L723.596,778.206L723.554,778.264L723.513,778.323L723.473,778.384L723.435,778.445L723.398,778.507L723.362,778.571L723.328,778.635L723.296,778.7L723.265,778.766L723.236,778.833L723.208,778.9L723.182,778.969L723.158,779.038L723.135,779.108L723.114,779.179L723.095,779.251L723.077,779.323L723.061,779.396L723.047,779.469L723.035,779.543L723.024,779.618L723.016,779.693L723.009,779.769L723.004,779.846L723.001,779.923L723,780L723.001,780.077L723.004,780.154L723.009,780.231L723.016,780.307L723.024,780.382L723.035,780.457L723.047,780.531L723.061,780.604L723.077,780.677L723.095,780.749L723.114,780.821L723.135,780.892L723.158,780.962L723.182,781.031L723.208,781.1L723.236,781.167L723.265,781.234L723.296,781.3L723.328,781.365L723.362,781.429L723.398,781.493L723.435,781.555L723.473,781.616L723.513,781.677L723.554,781.736L723.596,781.794L723.64,781.852L723.685,781.908L723.732,781.963L723.78,782.017L723.829,782.069L723.879,782.121L723.931,782.171L723.983,782.22L724.037,782.268L724.092,782.315L724.148,782.36L724.206,782.404L724.264,782.446L724.323,782.487L724.384,782.527L724.445,782.565L724.507,782.602L724.571,782.638L724.635,782.672L724.7,782.704L724.766,782.735L724.833,782.764L724.9,782.792L724.969,782.818L725.038,782.842L725.108,782.865L725.179,782.886L725.251,782.905L725.323,782.923L725.396,782.939L725.469,782.953L725.543,782.965L725.618,782.976L725.693,782.984L725.769,782.991L725.846,782.996L725.923,782.999L726,783L726.077,782.999L726.154,782.996L726.231,782.991L726.307,782.984L726.382,782.976L726.457,782.965L726.531,782.953L726.604,782.939L726.677,782.923L726.749,782.905L726.821,782.886L726.892,782.865L726.962,782.842L727.031,782.818L727.1,782.792L727.167,782.764L727.234,782.735L727.3,782.704L727.365,782.672L727.429,782.638L727.493,782.602L727.555,782.565L727.616,782.527L727.677,782.487L727.736,782.446L727.794,782.404L727.852,782.36L727.908,782.315L727.963,782.268L728.017,782.22L728.069,782.171L728.121,782.121L728.171,782.069L728.22,782.017L728.268,781.963L728.315,781.908L728.36,781.852L728.404,781.794L728.446,781.736L728.487,781.677L728.527,781.616L728.565,781.555L728.602,781.493L728.638,781.429L728.672,781.365L728.704,781.3L728.735,781.234L728.764,781.167L728.792,781.1L728.818,781.031L728.842,780.962L728.865,780.892L728.886,780.821L728.905,780.749L728.923,780.677L728.939,780.604L728.953,780.531L728.965,780.457L728.976,780.382L728.984,780.307L728.991,780.231L728.996,780.154L728.999,780.077L729,780L728.999,779.923L728.996,779.846L728.991,779.769L728.984,779.693L728.976,779.618L728.965,779.543L728.953,779.469L728.939,779.396L728.923,779.323L728.905,779.251L728.886,779.179L728.865,779.108L728.842,779.038L728.818,778.969L728.792,778.9L728.764,778.833L728.735,778.766L728.704,778.7L728.672,778.635L728.638,778.571L728.602,778.507L728.565,778.445L728.527,778.384L728.487,778.323L728.446,778.264L728.404,778.206L728.36,778.148L728.315,778.092L728.268,778.037L728.22,777.983L728.171,777.931L728.121,777.879L728.069,777.829L728.017,777.78L727.963,777.732L727.908,777.685L727.852,777.64L727.794,777.596L727.736,777.554L727.677,777.513L727.616,777.473L727.555,777.435L727.493,777.398L727.429,777.362L727.365,777.328L727.3,777.296L727.234,777.265L727.167,777.236L727.1,777.208L727.031,777.182L726.962,777.158L726.892,777.135L726.821,777.114L726.749,777.095L726.677,777.077L726.604,777.061L726.531,777.047L726.457,777.035L726.382,777.024L726.307,777.016L726.231,777.009L726.154,777.004L726.077,777.001L726,777L725.923,777.001Z" style="fill:rgb(51,51,51);"/>
            </g>
            <g transform="matrix(1.15274,0,0,1.01528,-828.483,-780.244)">
                <path d="M729,780L742,780" style="fill:none;stroke:rgb(51,51,51);stroke-width:1.04px;"/>
            </g>
            <g transform="matrix(1.66507,0,0,1.01528,-1208.63,-780.244)">
                <path d="M739,782L739,780L742,780L742,782L739,782" style="fill:none;stroke:rgb(51,51,51);stroke-width:0.85px;"/>
            </g>
        </g>
    </g>
</svg>
