<?xml version="1.0" encoding="UTF-8" standalone="no"?>
<!DOCTYPE svg PUBLIC "-//W3C//DTD SVG 1.1//EN" "http://www.w3.org/Graphics/SVG/1.1/DTD/svg11.dtd">
<svg width="24px" height="24px" version="1.1" xmlns="http://www.w3.org/2000/svg" xmlns:xlink="http://www.w3.org/1999/xlink" xml:space="preserve" xmlns:serif="http://www.serif.com/" style="fill-rule:evenodd;clip-rule:evenodd;stroke-linejoin:round;stroke-miterlimit:1.41421;">
    <g transform="matrix(1,0,0,1,-2947,-1032)">
        <g id="object.thin.magnifyingGlassPlus" transform="matrix(1,0,0,1,1379,262)">
            <rect x="1568" y="770" width="24" height="24" style="fill:none;"/>
            <g transform="matrix(1,0,0,1,-1379,-262)">
                <path d="M2962.44,1048.14C2961.12,1049.3 2959.39,1050 2957.5,1050C2953.36,1050 2950,1046.64 2950,1042.5C2950,1038.36 2953.36,1035 2957.5,1035C2961.64,1035 2965,1038.36 2965,1042.5C2965,1044.39 2964.3,1046.12 2963.14,1047.44C2963.14,1047.44 2967.56,1051.85 2968.85,1053.15C2968.95,1053.24 2969,1053.37 2969,1053.5C2969,1053.63 2968.95,1053.76 2968.85,1053.85C2968.85,1053.85 2968.85,1053.85 2968.85,1053.85C2968.66,1054.05 2968.34,1054.05 2968.15,1053.85C2966.85,1052.56 2962.44,1048.14 2962.44,1048.14ZM2957.5,1036C2961.09,1036 2964,1038.91 2964,1042.5C2964,1046.09 2961.09,1049 2957.5,1049C2953.91,1049 2951,1046.09 2951,1042.5C2951,1038.91 2953.91,1036 2957.5,1036ZM2958,1046.5C2958,1046.63 2957.95,1046.76 2957.85,1046.85C2957.76,1046.95 2957.63,1047 2957.5,1047C2957.37,1047 2957.24,1046.95 2957.15,1046.85C2957.05,1046.76 2957,1046.63 2957,1046.5C2957,1045.43 2957,1043 2957,1043C2957,1043 2954.57,1043 2953.5,1043C2953.37,1043 2953.24,1042.95 2953.15,1042.85C2953.05,1042.76 2953,1042.63 2953,1042.5C2953,1042.37 2953.05,1042.24 2953.15,1042.15C2953.24,1042.05 2953.37,1042 2953.5,1042C2954.57,1042 2957,1042 2957,1042C2957,1042 2957,1039.57 2957,1038.5C2957,1038.37 2957.05,1038.24 2957.15,1038.15C2957.24,1038.05 2957.37,1038 2957.5,1038C2957.63,1038 2957.76,1038.05 2957.85,1038.15C2957.95,1038.24 2958,1038.37 2958,1038.5C2958,1039.57 2958,1042 2958,1042C2958,1042 2960.43,1042 2961.5,1042C2961.63,1042 2961.76,1042.05 2961.85,1042.15C2961.95,1042.24 2962,1042.37 2962,1042.5C2962,1042.63 2961.95,1042.76 2961.85,1042.85C2961.76,1042.95 2961.63,1043 2961.5,1043C2960.43,1043 2958,1043 2958,1043C2958,1043 2958,1045.43 2958,1046.5Z" style="fill:rgb(51,51,51);"/>
            </g>
        </g>
    </g>
</svg>
