<?xml version="1.0" encoding="UTF-8" standalone="no"?><!DOCTYPE svg PUBLIC "-//W3C//DTD SVG 1.1//EN" "http://www.w3.org/Graphics/SVG/1.1/DTD/svg11.dtd"><svg width="100%" height="100%" viewBox="0 0 24 24" version="1.1" xmlns="http://www.w3.org/2000/svg" xmlns:xlink="http://www.w3.org/1999/xlink" xml:space="preserve" xmlns:serif="http://www.serif.com/" style="fill-rule:evenodd;clip-rule:evenodd;stroke-linejoin:round;stroke-miterlimit:1.41421;"><rect id="object.real.suitcase" x="0" y="0" width="24" height="24" style="fill:none;"/><path d="M14,7l0,-2l-4,0l0,2l-1,0c0,0 0,-1.127 0,-2c0,-0.552 0.448,-1 1,-1c1.11,0 2.89,0 4,0c0.552,0 1,0.448 1,1c0,0.873 0,2 0,2l-1,0Z" style="fill:#333;"/><path d="M22,7c0,-0.552 -0.448,-1 -1,-1c-3.414,0 -14.586,0 -18,0c-0.552,0 -1,0.448 -1,1c0,2.577 0,9.423 0,12c0,0.552 0.448,1 1,1c3.414,0 14.586,0 18,0c0.552,0 1,-0.448 1,-1c0,-2.577 0,-9.423 0,-12Z" style="fill:url(#_Linear1);"/><clipPath id="_clip2"><path d="M22,7c0,-0.552 -0.448,-1 -1,-1c-3.414,0 -14.586,0 -18,0c-0.552,0 -1,0.448 -1,1c0,2.577 0,9.423 0,12c0,0.552 0.448,1 1,1c3.414,0 14.586,0 18,0c0.552,0 1,-0.448 1,-1c0,-2.577 0,-9.423 0,-12Z"/></clipPath><g clip-path="url(#_clip2)"><rect x="18" y="6" width="4" height="14" style="fill:#333;fill-opacity:0.501961;"/><rect x="2" y="6" width="4" height="14" style="fill:#333;fill-opacity:0.501961;"/></g><defs><linearGradient id="_Linear1" x1="0" y1="0" x2="1" y2="0" gradientUnits="userSpaceOnUse" gradientTransform="matrix(-20,20,-20,-20,22,2)"><stop offset="0" style="stop-color:#fff;stop-opacity:1"/><stop offset="1" style="stop-color:#666;stop-opacity:1"/></linearGradient></defs></svg>