<?xml version="1.0" encoding="UTF-8" standalone="no"?><!DOCTYPE svg PUBLIC "-//W3C//DTD SVG 1.1//EN" "http://www.w3.org/Graphics/SVG/1.1/DTD/svg11.dtd"><svg width="100%" height="100%" viewBox="0 0 24 24" version="1.1" xmlns="http://www.w3.org/2000/svg" xmlns:xlink="http://www.w3.org/1999/xlink" xml:space="preserve" xmlns:serif="http://www.serif.com/" style="fill-rule:evenodd;clip-rule:evenodd;stroke-linejoin:round;stroke-miterlimit:1.41421;"><rect id="object.regular.emptyDocument" x="0" y="0" width="24" height="24" style="fill:none;"/><path d="M4,3c0,-0.265 0.105,-0.52 0.293,-0.707c0.187,-0.188 0.442,-0.293 0.707,-0.293c2.393,0 8.371,0 9.997,0c0.265,0 0.52,0.105 0.707,0.293c0.827,0.827 3.173,3.173 4,4c0.188,0.187 0.293,0.442 0.293,0.707c0,2.033 0,10.98 0,14c0,0.265 -0.105,0.52 -0.293,0.707c-0.187,0.188 -0.442,0.293 -0.707,0.293c-2.872,0 -11.125,0 -13.997,0c-0.265,0 -0.52,-0.105 -0.707,-0.293c-0.188,-0.187 -0.293,-0.442 -0.293,-0.707c0,-3.414 0,-14.586 0,-18Zm9.994,1l-7.994,0l0,16l11.994,0l0,-12c0,0 -1.815,0 -3,0c-0.552,0 -1,-0.448 -1,-1c0,-1.185 0,-3 0,-3Zm1.006,0.42l0,2.58l2.58,0l-2.58,-2.58Z" style="fill:#333;"/></svg>