<?xml version="1.0" encoding="UTF-8" standalone="no"?>
<!DOCTYPE svg PUBLIC "-//W3C//DTD SVG 1.1//EN" "http://www.w3.org/Graphics/SVG/1.1/DTD/svg11.dtd">
<svg width="25px" height="24px" version="1.1" xmlns="http://www.w3.org/2000/svg" xmlns:xlink="http://www.w3.org/1999/xlink" xml:space="preserve" xmlns:serif="http://www.serif.com/" style="fill-rule:evenodd;clip-rule:evenodd;stroke-linecap:round;stroke-linejoin:round;stroke-miterlimit:1.5;">
    <g transform="matrix(1,0,0,1,-1250,-1128)">
        <g id="object.real.compass" transform="matrix(1,0,0,1,-317.023,358)">
            <rect x="1568" y="770" width="24" height="24" style="fill:none;"/>
            <g transform="matrix(1,0,0,1,-5.00293,-94)">
                <circle cx="1585" cy="876" r="10" style="fill:url(#_Linear1);"/>
            </g>
            <g transform="matrix(1,0,0,1,-5.00293,2)">
                <path d="M1589.08,775.003L1589.14,775.009L1589.19,775.019L1589.25,775.031L1589.3,775.046L1589.35,775.065L1589.41,775.086L1589.46,775.111L1589.51,775.138L1589.56,775.168L1589.6,775.201L1589.64,775.236L1589.69,775.273L1589.73,775.313L1589.76,775.355L1589.8,775.399L1589.83,775.445L1589.86,775.493L1589.89,775.543L1589.91,775.593L1589.93,775.646L1589.95,775.699L1589.97,775.753L1589.98,775.808L1589.99,775.864L1590,775.92L1590,775.976L1590,776.033L1590,776.089L1589.99,776.145L1589.98,776.201L1589.97,776.255L1589.95,776.31L1589.93,776.363L1589.91,776.415L1589.88,776.465L1589.86,776.514L1586.86,781.514L1586.83,781.56L1586.8,781.605L1586.76,781.647L1586.73,781.688L1586.69,781.726L1586.65,781.762L1586.61,781.797L1586.56,781.828L1586.51,781.857L1581.51,784.857L1581.47,784.885L1581.41,784.91L1581.36,784.932L1581.31,784.951L1581.26,784.967L1581.2,784.98L1581.14,784.989L1581.09,784.996L1581.03,784.999L1580.98,785L1580.92,784.997L1580.86,784.991L1580.81,784.981L1580.75,784.969L1580.7,784.954L1580.65,784.935L1580.59,784.914L1580.54,784.889L1580.49,784.862L1580.44,784.832L1580.4,784.799L1580.36,784.764L1580.31,784.727L1580.27,784.687L1580.24,784.645L1580.2,784.601L1580.17,784.555L1580.14,784.507L1580.11,784.457L1580.09,784.407L1580.07,784.354L1580.05,784.301L1580.03,784.247L1580.02,784.192L1580.01,784.136L1580,784.08L1580,784.024L1580,783.967L1580,783.911L1580.01,783.855L1580.02,783.799L1580.03,783.745L1580.05,783.69L1580.07,783.637L1580.09,783.585L1580.12,783.535L1580.14,783.486L1583.14,778.486L1583.17,778.44L1583.2,778.395L1583.24,778.353L1583.27,778.312L1583.31,778.274L1583.35,778.238L1583.39,778.203L1583.44,778.172L1583.49,778.143L1588.49,775.143L1588.54,775.115L1588.59,775.09L1588.64,775.068L1588.69,775.049L1588.75,775.033L1588.8,775.02L1588.86,775.011L1588.91,775.004L1588.97,775.001L1589.02,775L1589.08,775.003ZM1584,779L1581,784L1586,781L1589,776L1584,779Z" style="fill:rgb(51,51,51);"/>
            </g>
            <g transform="matrix(1,0,0,1,-5.00293,-94)">
                <path d="M1584,875L1586,877L1589,872L1584,875Z" style="fill:rgb(51,51,51);"/>
            </g>
            <g>
                <g transform="matrix(1,0,0,1,-5.00293,-94)">
                    <path d="M1585,868L1585,869" style="fill:none;stroke:rgb(51,51,51);stroke-width:1px;"/>
                </g>
                <g transform="matrix(1,0,0,1,-5.00293,-80)">
                    <path d="M1585,869L1585,870" style="fill:none;stroke:rgb(51,51,51);stroke-width:1px;"/>
                </g>
                <g transform="matrix(1,0,0,1,-5.00293,-94)">
                    <path d="M1577,876L1578,876" style="fill:none;stroke:rgb(51,51,51);stroke-width:1px;"/>
                </g>
                <g transform="matrix(1,0,0,1,-5.00293,-94)">
                    <path d="M1593,876L1592,876" style="fill:none;stroke:rgb(51,51,51);stroke-width:1px;"/>
                </g>
            </g>
        </g>
    </g>
    <defs>
        <linearGradient id="_Linear1" x1="0" y1="0" x2="1" y2="0" gradientUnits="userSpaceOnUse" gradientTransform="matrix(-20,20,-20,-20,1595,866)"><stop offset="0" style="stop-color:white;stop-opacity:1"/><stop offset="1" style="stop-color:rgb(102,102,102);stop-opacity:1"/></linearGradient>
    </defs>
</svg>
