<?xml version="1.0" encoding="UTF-8" standalone="no"?>
<!DOCTYPE svg PUBLIC "-//W3C//DTD SVG 1.1//EN" "http://www.w3.org/Graphics/SVG/1.1/DTD/svg11.dtd">
<svg width="24px" height="24px" version="1.1" xmlns="http://www.w3.org/2000/svg" xmlns:xlink="http://www.w3.org/1999/xlink" xml:space="preserve" xmlns:serif="http://www.serif.com/" style="fill-rule:evenodd;clip-rule:evenodd;stroke-linejoin:round;stroke-miterlimit:1.41421;">
    <g transform="matrix(1,0,0,1,-144,-984)">
        <g id="object.regular.creditCardBack" transform="matrix(0.800768,0,0,0.984948,144,984)">
            <rect x="0" y="0" width="29.971" height="24.367" style="fill:none;"/>
            <g transform="matrix(1.2488,0,0,1.01528,-1065.23,-779.737)">
                <path d="M855,774C855,773.448 855.448,773 856,773C859.415,773 870.591,773 874.006,773C874.558,773 875.006,773.448 875.006,774C875.006,776.577 875.006,783.423 875.006,786C875.006,786.552 874.558,787 874.006,787C870.591,787 859.415,787 856,787C855.448,787 855,786.552 855,786C855,783.423 855,776.577 855,774ZM873,780L857,780L857,785L873,785L873,780ZM860.488,783C860.771,783 861,783.229 861,783.512C861,783.512 861,783.513 861,783.513C861,783.642 860.949,783.766 860.857,783.857C860.766,783.949 860.642,784 860.513,784C859.963,784 859.072,784 858.512,784C858.229,784 858,783.771 858,783.488C858,783.488 858,783.487 858,783.487C858,783.358 858.051,783.234 858.143,783.143C858.234,783.051 858.358,783 858.487,783C859.037,783 859.928,783 860.488,783ZM864.494,781C864.777,781 865.006,781.229 865.006,781.512C865.006,781.512 865.006,781.513 865.006,781.513C865.006,781.642 864.955,781.766 864.863,781.857C864.772,781.949 864.648,782 864.519,782C863.244,782 859.815,782 858.512,782C858.229,782 858,781.771 858,781.488C858,781.488 858,781.487 858,781.487C858,781.358 858.051,781.234 858.143,781.143C858.234,781.051 858.358,781 858.487,781C859.762,781 863.191,781 864.494,781ZM873,775L857,775L857,776L873,776L873,775Z" style="fill:rgb(51,51,51);"/>
            </g>
        </g>
    </g>
</svg>
