<?xml version="1.0" encoding="UTF-8" standalone="no"?>
<!DOCTYPE svg PUBLIC "-//W3C//DTD SVG 1.1//EN" "http://www.w3.org/Graphics/SVG/1.1/DTD/svg11.dtd">
<svg width="24px" height="24px" version="1.1" xmlns="http://www.w3.org/2000/svg" xmlns:xlink="http://www.w3.org/1999/xlink" xml:space="preserve" xmlns:serif="http://www.serif.com/" style="fill-rule:evenodd;clip-rule:evenodd;stroke-linejoin:round;stroke-miterlimit:1.41421;">
    <g transform="matrix(1,0,0,1,-1107,-1128)">
        <g id="object.real.key" transform="matrix(0.800768,0,0,0.984948,1107,1128)">
            <rect x="0" y="0" width="29.971" height="24.367" style="fill:none;"/>
            <g transform="matrix(1.2488,0,0,1.01528,-899.137,-877.204)">
                <path d="M729.874,877C729.429,878.724 727.862,880 726,880C723.792,880 722,878.208 722,876C722,873.792 723.792,872 726,872C727.862,872 729.429,873.276 729.874,875L741.5,875C741.776,875 742,875.224 742,875.5L742,878.5C742,878.776 741.776,879 741.5,879L737.5,879C737.224,879 737,878.776 737,878.5L737,877L729.874,877ZM726,874C727.104,874 728,874.896 728,876C728,877.104 727.104,878 726,878C724.896,878 724,877.104 724,876C724,874.896 724.896,874 726,874Z" style="fill:url(#_Linear1);"/>
                <clipPath id="_clip2">
                    <path d="M729.874,877C729.429,878.724 727.862,880 726,880C723.792,880 722,878.208 722,876C722,873.792 723.792,872 726,872C727.862,872 729.429,873.276 729.874,875L741.5,875C741.776,875 742,875.224 742,875.5L742,878.5C742,878.776 741.776,879 741.5,879L737.5,879C737.224,879 737,878.776 737,878.5L737,877L729.874,877ZM726,874C727.104,874 728,874.896 728,876C728,877.104 727.104,878 726,878C724.896,878 724,877.104 724,876C724,874.896 724.896,874 726,874Z"/>
                </clipPath>
                <g clip-path="url(#_clip2)">
                    <g transform="matrix(1.33333,0,0,0.258065,-54.3333,651.613)">
                        <path d="M598,873.375C598,871.236 597.664,869.5 597.25,869.5L594.25,869.5C593.836,869.5 593.5,871.236 593.5,873.375L593.5,881.125C593.5,883.264 593.836,885 594.25,885L597.25,885C597.664,885 598,883.264 598,881.125L598,873.375Z" style="fill:rgb(51,51,51);fill-opacity:0.501961;"/>
                    </g>
                </g>
            </g>
        </g>
    </g>
    <defs>
        <linearGradient id="_Linear1" x1="0" y1="0" x2="1" y2="0" gradientUnits="userSpaceOnUse" gradientTransform="matrix(-20,20,-20,-20,742,866)"><stop offset="0" style="stop-color:white;stop-opacity:1"/><stop offset="1" style="stop-color:rgb(102,102,102);stop-opacity:1"/></linearGradient>
    </defs>
</svg>
