<?xml version="1.0" encoding="UTF-8" standalone="no"?>
<!DOCTYPE svg PUBLIC "-//W3C//DTD SVG 1.1//EN" "http://www.w3.org/Graphics/SVG/1.1/DTD/svg11.dtd">
<svg width="24px" height="24px" version="1.1" xmlns="http://www.w3.org/2000/svg" xmlns:xlink="http://www.w3.org/1999/xlink" xml:space="preserve" xmlns:serif="http://www.serif.com/" style="fill-rule:evenodd;clip-rule:evenodd;stroke-linecap:square;stroke-linejoin:round;stroke-miterlimit:5;">
    <g transform="matrix(1,0,0,1,-2113,-1032)">
        <g id="object.thin.battery" transform="matrix(1,0,0,1,545,262)">
            <rect x="1568" y="770" width="24" height="24" style="fill:none;"/>
            <g transform="matrix(1,0,0,1,-158,-214)">
                <path d="M1745.08,991.003L1745.16,991.012L1745.23,991.028L1745.31,991.049L1745.38,991.076L1745.45,991.109L1745.52,991.147L1745.59,991.191L1745.65,991.24L1745.71,991.293L1745.76,991.351L1745.81,991.412L1745.85,991.478L1745.89,991.546L1745.92,991.617L1745.95,991.691L1745.97,991.767L1745.99,991.844L1746,991.922L1746,992L1746,1000L1746,1000.08L1745.99,1000.16L1745.97,1000.23L1745.95,1000.31L1745.92,1000.38L1745.89,1000.45L1745.85,1000.52L1745.81,1000.59L1745.76,1000.65L1745.71,1000.71L1745.65,1000.76L1745.59,1000.81L1745.52,1000.85L1745.45,1000.89L1745.38,1000.92L1745.31,1000.95L1745.23,1000.97L1745.16,1000.99L1745.08,1001L1745,1001L1729,1001L1728.92,1001L1728.84,1000.99L1728.77,1000.97L1728.69,1000.95L1728.62,1000.92L1728.55,1000.89L1728.48,1000.85L1728.41,1000.81L1728.35,1000.76L1728.29,1000.71L1728.24,1000.65L1728.19,1000.59L1728.15,1000.52L1728.11,1000.45L1728.08,1000.38L1728.05,1000.31L1728.03,1000.23L1728.01,1000.16L1728,1000.08L1728,1000L1728,992L1728,991.922L1728.01,991.844L1728.03,991.767L1728.05,991.691L1728.08,991.617L1728.11,991.546L1728.15,991.478L1728.19,991.412L1728.24,991.351L1728.29,991.293L1728.35,991.24L1728.41,991.191L1728.48,991.147L1728.55,991.109L1728.62,991.076L1728.69,991.049L1728.77,991.028L1728.84,991.012L1728.92,991.003L1729,991L1745,991L1745.08,991.003ZM1729,992L1729,1000L1745,1000L1745,992L1729,992Z" style="fill:rgb(51,51,51);"/>
            </g>
            <g transform="matrix(0.8,0,0,0.666667,191.5,117.833)">
                <path d="M1745,994L1747.5,994L1747.5,998.5L1745,998.5" style="fill:none;stroke:rgb(51,51,51);stroke-width:1.36px;"/>
            </g>
        </g>
    </g>
</svg>
