<?xml version="1.0" encoding="UTF-8" standalone="no"?>
<!DOCTYPE svg PUBLIC "-//W3C//DTD SVG 1.1//EN" "http://www.w3.org/Graphics/SVG/1.1/DTD/svg11.dtd">
<svg width="24px" height="24px" version="1.1" xmlns="http://www.w3.org/2000/svg" xmlns:xlink="http://www.w3.org/1999/xlink" xml:space="preserve" xmlns:serif="http://www.serif.com/" style="fill-rule:evenodd;clip-rule:evenodd;stroke-linejoin:round;stroke-miterlimit:1.41421;">
    <g transform="matrix(1,0,0,1,-531,-1128)">
        <g id="object.real.creditCardBack" transform="matrix(0.800768,0,0,0.984948,531,1128)">
            <rect x="0" y="0" width="29.971" height="24.367" style="fill:none;"/>
            <g transform="matrix(1.31453,0,0,1.09338,-63.2288,-945.072)">
                <path d="M68.05,882C68.575,882 69,881.584 69,881.071C69,878.678 69,872.322 69,869.929C69,869.416 68.575,869 68.05,869C64.807,869 54.193,869 50.95,869C50.425,869 50,869.416 50,869.929C50,872.322 50,878.678 50,881.071C50,881.584 50.425,882 50.95,882C54.193,882 64.807,882 68.05,882Z" style="fill:url(#_Linear1);"/>
                <clipPath id="_clip2">
                    <path d="M68.05,882C68.575,882 69,881.584 69,881.071C69,878.678 69,872.322 69,869.929C69,869.416 68.575,869 68.05,869C64.807,869 54.193,869 50.95,869C50.425,869 50,869.416 50,869.929C50,872.322 50,878.678 50,881.071C50,881.584 50.425,882 50.95,882C54.193,882 64.807,882 68.05,882Z"/>
                </clipPath>
                <g clip-path="url(#_clip2)">
                    <g transform="matrix(0.95,0,0,0.928571,-762.256,62.0714)">
                        <path d="M859.5,880C859.776,880 860,880.224 860,880.5C860,880.776 859.776,881 859.5,881C858.946,881 858.059,881 857.506,881C857.23,881 857.006,880.776 857.006,880.5C857.006,880.224 857.23,880 857.506,880C858.059,880 858.946,880 859.5,880ZM863.5,878C863.633,878 863.76,878.053 863.854,878.146C863.947,878.24 864,878.367 864,878.5C864,878.633 863.947,878.76 863.854,878.854C863.76,878.947 863.633,879 863.5,879C862.212,879 858.794,879 857.506,879C857.373,879 857.246,878.947 857.152,878.854C857.059,878.76 857.006,878.633 857.006,878.5C857.006,878.367 857.059,878.24 857.152,878.146C857.246,878.053 857.373,878 857.506,878C858.794,878 862.212,878 863.5,878ZM875.006,872L875.006,876L855.006,876L855.006,872L875.006,872Z" style="fill:rgb(51,51,51);"/>
                    </g>
                </g>
            </g>
        </g>
    </g>
    <defs>
        <linearGradient id="_Linear1" x1="0" y1="0" x2="1" y2="0" gradientUnits="userSpaceOnUse" gradientTransform="matrix(-19,18.5714,-19,-18.5714,69,866.214)"><stop offset="0" style="stop-color:white;stop-opacity:1"/><stop offset="1" style="stop-color:rgb(102,102,102);stop-opacity:1"/></linearGradient>
    </defs>
</svg>
