<?xml version="1.0" encoding="UTF-8" standalone="no"?>
<!DOCTYPE svg PUBLIC "-//W3C//DTD SVG 1.1//EN" "http://www.w3.org/Graphics/SVG/1.1/DTD/svg11.dtd">
<svg width="24px" height="24px" version="1.1" xmlns="http://www.w3.org/2000/svg" xmlns:xlink="http://www.w3.org/1999/xlink" xml:space="preserve" xmlns:serif="http://www.serif.com/" style="fill-rule:evenodd;clip-rule:evenodd;stroke-linejoin:round;stroke-miterlimit:1.41421;">
    <g transform="matrix(1,0,0,1,-240,-1080)">
        <g id="object.filled.letterEnvelope" transform="matrix(0.800768,0,0,0.984948,240,1080)">
            <rect x="0" y="0" width="29.971" height="24.367" style="fill:none;"/>
            <g transform="matrix(1.2488,0,0,1.01528,-1185.12,-877.204)">
                <path d="M950.997,869.851L960.696,877.395C960.876,877.535 961.129,877.535 961.31,877.395L970.997,869.86C970.997,869.86 970.997,878.932 970.997,882C970.997,882.552 970.549,883 969.997,883C966.583,883 955.411,883 951.997,883C951.445,883 950.997,882.552 950.997,882C950.997,878.931 950.997,869.851 950.997,869.851ZM961.003,876.367L951.532,869L970.474,869L961.003,876.367Z" style="fill:rgb(51,51,51);"/>
            </g>
        </g>
    </g>
</svg>
