<?xml version="1.0" encoding="UTF-8" standalone="no"?><!DOCTYPE svg PUBLIC "-//W3C//DTD SVG 1.1//EN" "http://www.w3.org/Graphics/SVG/1.1/DTD/svg11.dtd"><svg width="100%" height="100%" viewBox="0 0 24 24" version="1.1" xmlns="http://www.w3.org/2000/svg" xmlns:xlink="http://www.w3.org/1999/xlink" xml:space="preserve" xmlns:serif="http://www.serif.com/" style="fill-rule:evenodd;clip-rule:evenodd;stroke-linejoin:round;stroke-miterlimit:1.41421;"><rect id="object.regular.home" x="0" y="0" width="24" height="24" style="fill:none;"/><path d="M19.753,10.342c0.258,0.295 0.32,0.714 0.158,1.071c-0.163,0.358 -0.519,0.587 -0.911,0.587c-0.557,0 -1,0 -1,0c0,0 0,4.854 0,7c0,0.552 -0.448,1 -1,1c-2.26,0 -7.74,0 -10,0c-0.552,0 -1,-0.448 -1,-1c0,-2.146 0,-7 0,-7c0,0 -0.443,0 -1,0c-0.392,0 -0.749,-0.229 -0.911,-0.587c-0.162,-0.357 -0.1,-0.776 0.158,-1.071c1.985,-2.268 5.473,-6.255 7,-8c0.19,-0.218 0.465,-0.342 0.753,-0.342c0.288,0 0.563,0.124 0.753,0.342c1.527,1.745 5.015,5.732 7,8Zm-3.753,1.658l-8,0l0,6l8,0l0,-6Zm-1,3.5c0,0.133 -0.053,0.26 -0.146,0.354c-0.094,0.093 -0.221,0.146 -0.354,0.146c-0.555,0 -1.445,0 -2,0c-0.133,0 -0.26,-0.053 -0.354,-0.146c-0.093,-0.094 -0.146,-0.221 -0.146,-0.354c0,-0.555 0,-1.445 0,-2c0,-0.133 0.053,-0.26 0.146,-0.354c0.094,-0.093 0.221,-0.146 0.354,-0.146c0.555,0 1.445,0 2,0c0.133,0 0.26,0.053 0.354,0.146c0.093,0.094 0.146,0.221 0.146,0.354c0,0.555 0,1.445 0,2Zm-1,-1.5l-1,0l0,1l1,0l0,-1Zm-6.796,-4l9.592,0l-4.796,-5.481l-4.796,5.481Z" style="fill:#333;"/></svg>