<?xml version="1.0" encoding="UTF-8" standalone="no"?>
<!DOCTYPE svg PUBLIC "-//W3C//DTD SVG 1.1//EN" "http://www.w3.org/Graphics/SVG/1.1/DTD/svg11.dtd">
<svg width="24px" height="24px" version="1.1" xmlns="http://www.w3.org/2000/svg" xmlns:xlink="http://www.w3.org/1999/xlink" xml:space="preserve" xmlns:serif="http://www.serif.com/" style="fill-rule:evenodd;clip-rule:evenodd;stroke-linejoin:round;stroke-miterlimit:1.41421;">
    <g transform="matrix(1,0,0,1,-480,-1032)">
        <g id="object.thin.picture" transform="matrix(0.800768,0,0,0.984948,480,1032)">
            <rect x="0" y="0" width="29.971" height="24.367" style="fill:none;"/>
            <g transform="matrix(1.2488,0,0,1.01528,-2276.56,-1047.77)">
                <path d="M1838.71,1038C1838.71,1038 1842.23,1038 1844,1038C1844.27,1038 1844.52,1038.11 1844.71,1038.29C1844.89,1038.48 1845,1038.74 1845,1039C1845,1041.87 1845,1050.13 1845,1053C1845,1053.27 1844.89,1053.52 1844.71,1053.71C1844.52,1053.89 1844.27,1054 1844,1054C1840.59,1054 1829.41,1054 1826,1054C1825.74,1054 1825.48,1053.89 1825.29,1053.71C1825.11,1053.52 1825,1053.27 1825,1053C1825,1050.13 1825,1041.87 1825,1039C1825,1038.74 1825.11,1038.48 1825.29,1038.29C1825.48,1038.11 1825.74,1038 1826,1038C1827.78,1038 1831.29,1038 1831.29,1038C1831.29,1038 1833.22,1036.08 1834.29,1035C1834.48,1034.81 1834.74,1034.71 1835,1034.71C1835.27,1034.71 1835.52,1034.81 1835.71,1035C1836.78,1036.08 1838.71,1038 1838.71,1038ZM1844,1039L1826,1039L1826,1053L1844,1053L1844,1039ZM1843,1051C1843,1051.55 1842.55,1052 1842,1052C1839.13,1052 1830.87,1052 1828,1052C1827.45,1052 1827,1051.55 1827,1051C1827,1048.74 1827,1043.26 1827,1041C1827,1040.45 1827.45,1040 1828,1040C1830.87,1040 1839.13,1040 1842,1040C1842.55,1040 1843,1040.45 1843,1041C1843,1043.26 1843,1048.74 1843,1051ZM1828,1046.44L1828,1051L1842,1051L1842,1047.64L1839.5,1045.64C1839.5,1045.64 1836.02,1048.42 1834.82,1049.38C1834.6,1049.56 1834.28,1049.52 1834.1,1049.3C1834.1,1049.3 1834.1,1049.3 1834.1,1049.3C1834.02,1049.2 1833.98,1049.07 1834,1048.94C1834.01,1048.82 1834.08,1048.7 1834.18,1048.62C1834.8,1048.12 1835.95,1047.2 1835.95,1047.2L1831.5,1043.64L1828,1046.44ZM1842,1046.36L1842,1041L1828,1041L1828,1045.16C1828,1045.16 1829.87,1043.66 1830.88,1042.86C1831.24,1042.57 1831.76,1042.57 1832.12,1042.86C1833.52,1043.97 1836.75,1046.56 1836.75,1046.56C1836.75,1046.56 1838.06,1045.51 1838.88,1044.86C1839.24,1044.57 1839.76,1044.57 1840.12,1044.86C1840.87,1045.45 1842,1046.36 1842,1046.36ZM1832.71,1038L1837.29,1038L1835,1035.71L1832.71,1038Z" style="fill:rgb(51,51,51);"/>
            </g>
        </g>
    </g>
</svg>
