<?xml version="1.0" encoding="UTF-8" standalone="no"?>
<!DOCTYPE svg PUBLIC "-//W3C//DTD SVG 1.1//EN" "http://www.w3.org/Graphics/SVG/1.1/DTD/svg11.dtd">
<svg width="24px" height="24px" version="1.1" xmlns="http://www.w3.org/2000/svg" xmlns:xlink="http://www.w3.org/1999/xlink" xml:space="preserve" xmlns:serif="http://www.serif.com/" style="fill-rule:evenodd;clip-rule:evenodd;stroke-linejoin:round;stroke-miterlimit:1.41421;">
    <g transform="matrix(1,0,0,1,-336,-1080)">
        <g id="object.filled.document" transform="matrix(0.800768,0,0,0.984948,336,1080)">
            <rect x="0" y="0" width="29.971" height="24.367" style="fill:none;"/>
            <g transform="matrix(1.2488,0,0,1.01528,-1305,-877.204)">
                <path d="M1060,866C1060,866 1060,868.541 1060,870C1060,870.265 1060.1,870.52 1060.29,870.707C1060.48,870.895 1060.73,871 1061,871C1062.46,871 1065,871 1065,871C1065,871 1065,881.645 1065,885C1065,885.265 1064.9,885.52 1064.71,885.707C1064.52,885.895 1064.27,886 1064,886C1061.28,886 1053.73,886 1051,886C1050.74,886 1050.48,885.895 1050.3,885.707C1050.11,885.52 1050,885.265 1050,885C1050,881.586 1050,870.414 1050,867C1050,866.735 1050.11,866.48 1050.3,866.293C1050.48,866.105 1050.74,866 1051,866C1053.53,866 1060,866 1060,866ZM1058.49,878C1058.77,878 1059,878.229 1059,878.512C1059,878.512 1059,878.513 1059,878.513C1059,878.782 1058.79,879 1058.52,879C1057.24,879 1053.82,879 1052.52,879C1052.23,879 1052,878.771 1052,878.488C1052,878.488 1052,878.487 1052,878.487C1052,878.218 1052.22,878 1052.49,878C1053.76,878 1057.19,878 1058.49,878ZM1062.5,876C1062.78,876 1063,876.223 1063,876.499C1063,876.5 1063,876.5 1063,876.501C1063,876.777 1062.78,877 1062.5,877C1060.67,877 1054.33,877 1052.5,877C1052.23,877 1052,876.777 1052,876.501C1052,876.5 1052,876.5 1052,876.499C1052,876.223 1052.23,876 1052.5,876C1054.33,876 1060.67,876 1062.5,876ZM1062.5,872C1062.78,872 1063,872.223 1063,872.499C1063,872.5 1063,872.5 1063,872.501C1063,872.777 1062.78,873 1062.5,873C1060.68,873 1054.35,873 1052.51,873C1052.23,873 1052,872.773 1052,872.492C1052,872.492 1052,872.491 1052,872.491C1052,872.361 1052.06,872.236 1052.15,872.144C1052.24,872.052 1052.36,872 1052.49,872C1054.32,872 1060.67,872 1062.5,872ZM1058.5,870C1058.64,870 1058.76,870.053 1058.86,870.146C1058.95,870.24 1059,870.367 1059,870.5C1059,870.776 1058.78,871 1058.5,871C1057.22,871 1053.81,871 1052.51,871C1052.23,871 1052,870.773 1052,870.492C1052,870.492 1052,870.491 1052,870.491C1052,870.361 1052.06,870.236 1052.15,870.144C1052.24,870.052 1052.36,870 1052.49,870C1053.78,870 1057.21,870 1058.5,870ZM1061,866.293L1064.71,870L1061,870L1061,866.293ZM1058.5,868C1058.78,868 1059,868.223 1059,868.499C1059,868.5 1059,868.5 1059,868.501C1059,868.777 1058.78,869 1058.5,869C1057.22,869 1053.79,869 1052.5,869C1052.23,869 1052,868.777 1052,868.501C1052,868.5 1052,868.5 1052,868.499C1052,868.223 1052.23,868 1052.5,868C1053.79,868 1057.22,868 1058.5,868Z" style="fill:rgb(51,51,51);"/>
            </g>
        </g>
    </g>
</svg>
