<?xml version="1.0" encoding="UTF-8" standalone="no"?>
<!DOCTYPE svg PUBLIC "-//W3C//DTD SVG 1.1//EN" "http://www.w3.org/Graphics/SVG/1.1/DTD/svg11.dtd">
<svg width="25px" height="25px" version="1.1" xmlns="http://www.w3.org/2000/svg" xmlns:xlink="http://www.w3.org/1999/xlink" xml:space="preserve" xmlns:serif="http://www.serif.com/" style="fill-rule:evenodd;clip-rule:evenodd;stroke-linecap:round;stroke-linejoin:round;stroke-miterlimit:100;">
    <g transform="matrix(1,0,0,1,-676,-1503)">
        <g id="object.thin.reply" transform="matrix(1,0,0,1,-891.846,733.119)">
            <rect x="1568" y="770" width="24" height="24" style="fill:none;"/>
            <g transform="matrix(1,0,0,1,891.846,-685.619)">
                <path d="M684.654,1472.12C682.999,1472.12 681.654,1470.78 681.654,1469.12C681.654,1467.46 682.999,1466.12 684.654,1466.12" style="fill:none;stroke:rgb(51,51,51);stroke-width:1px;"/>
            </g>
            <g transform="matrix(1.05263,0,0,1,855.811,-685.619)">
                <path d="M684.654,1466.12L694.154,1466.12" style="fill:none;stroke:rgb(51,51,51);stroke-width:0.97px;"/>
            </g>
            <g transform="matrix(1,0,0,1,895.346,-685.619)">
                <path d="M688.154,1463.12L691.154,1466.12L688.154,1469.12" style="fill:none;stroke:rgb(51,51,51);stroke-width:1px;"/>
            </g>
        </g>
    </g>
</svg>
