<?xml version="1.0" encoding="UTF-8" standalone="no"?>
<!DOCTYPE svg PUBLIC "-//W3C//DTD SVG 1.1//EN" "http://www.w3.org/Graphics/SVG/1.1/DTD/svg11.dtd">
<svg width="24px" height="24px" version="1.1" xmlns="http://www.w3.org/2000/svg" xmlns:xlink="http://www.w3.org/1999/xlink" xml:space="preserve" xmlns:serif="http://www.serif.com/" style="fill-rule:evenodd;clip-rule:evenodd;stroke-linejoin:round;stroke-miterlimit:1.41421;">
    <g transform="matrix(1,0,0,1,-1203,-984)">
        <g id="object.regular.QRCode" transform="matrix(0.800768,0,0,0.984948,1203,984)">
            <rect x="0" y="0" width="29.971" height="24.367" style="fill:none;"/>
            <g transform="matrix(1.2488,0,0,1.01528,-2696.16,-999.038)">
                <path d="M2181,1005C2181,1005.26 2180.89,1005.52 2180.71,1005.71C2180.52,1005.89 2180.26,1006 2180,1006C2176.59,1006 2165.41,1006 2162,1006C2161.74,1006 2161.48,1005.89 2161.29,1005.71C2161.11,1005.52 2161,1005.26 2161,1005C2161,1001.59 2161,990.414 2161,987C2161,986.735 2161.11,986.48 2161.29,986.293C2161.48,986.105 2161.74,986 2162,986C2165.41,986 2176.59,986 2180,986C2180.26,986 2180.52,986.105 2180.71,986.293C2180.89,986.48 2181,986.735 2181,987C2181,990.414 2181,1001.59 2181,1005ZM2167,1000L2163,1000L2163,1004L2167,1004L2167,1000ZM2174,988L2168,988C2168,988 2168,990.541 2168,992C2168,992.265 2167.89,992.52 2167.71,992.707C2167.52,992.895 2167.26,993 2167,993C2165.54,993 2163,993 2163,993L2163,999C2163,999 2165.54,999 2167,999C2167.55,999 2168,999.448 2168,1000C2168,1001.46 2168,1004 2168,1004L2179,1004L2179,993C2179,993 2176.46,993 2175,993C2174.74,993 2174.48,992.895 2174.29,992.707C2174.11,992.52 2174,992.265 2174,992C2174,990.541 2174,988 2174,988ZM2165,1001C2165.55,1001 2166,1001.45 2166,1002C2166,1002.55 2165.55,1003 2165,1003C2164.45,1003 2164,1002.55 2164,1002C2164,1001.45 2164.45,1001 2165,1001ZM2179,988L2175,988L2175,992L2179,992L2179,988ZM2167,988L2163,988L2163,992L2167,992L2167,988ZM2165,989C2165.55,989 2166,989.448 2166,990C2166,990.552 2165.55,991 2165,991C2164.45,991 2164,990.552 2164,990C2164,989.448 2164.45,989 2165,989ZM2177,989C2177.55,989 2178,989.448 2178,990C2178,990.552 2177.55,991 2177,991C2176.45,991 2176,990.552 2176,990C2176,989.448 2176.45,989 2177,989ZM2170,1000C2170,1000 2170.25,1000 2170.5,1000C2170.63,1000 2170.76,1000.05 2170.85,1000.15C2170.94,1000.24 2171,1000.37 2171,1000.5C2171,1001.09 2171,1002 2171,1002C2171,1002 2171.25,1002 2171.5,1002C2171.63,1002 2171.76,1002.05 2171.85,1002.15C2171.94,1002.24 2172,1002.37 2172,1002.5C2172,1002.63 2171.94,1002.76 2171.85,1002.85C2171.76,1002.95 2171.63,1003 2171.5,1003C2171.19,1003 2170.8,1003 2170.5,1003C2170.36,1003 2170.24,1002.95 2170.14,1002.85C2170.05,1002.76 2170,1002.63 2170,1002.5C2170,1002.25 2170,1002 2170,1002C2170,1002 2169.75,1002 2169.5,1002C2169.36,1002 2169.24,1001.95 2169.14,1001.85C2169.05,1001.76 2169,1001.63 2169,1001.5C2169,1000.94 2169,1000.04 2169,999.487C2169,999.358 2169.05,999.234 2169.14,999.143C2169.23,999.051 2169.36,999 2169.48,999C2169.48,999 2169.49,999 2169.49,999C2169.77,999 2170,999.229 2170,999.512C2170,999.758 2170,1000 2170,1000ZM2178,1002.5C2178,1002.77 2177.77,1003 2177.49,1003C2177.49,1003 2177.49,1003 2177.49,1003C2177.36,1003 2177.24,1002.95 2177.14,1002.86C2177.05,1002.76 2177,1002.64 2177,1002.5C2177,1002.2 2177,1001.8 2177,1001.49C2177,1001.22 2177.22,1001 2177.49,1001C2177.49,1001 2177.49,1001 2177.49,1001C2177.62,1001 2177.75,1001.05 2177.85,1001.15C2177.94,1001.24 2178,1001.37 2178,1001.51C2178,1001.81 2178,1002.2 2178,1002.5ZM2175,999.513C2175,999.642 2174.95,999.766 2174.85,999.857C2174.76,999.949 2174.64,1000 2174.51,1000C2174.26,1000 2174,1000 2174,1000C2174,1000 2174,1000.25 2174,1000.5C2174,1000.63 2173.94,1000.76 2173.85,1000.85C2173.76,1000.95 2173.63,1001 2173.5,1001C2173.19,1001 2172.8,1001 2172.5,1001C2172.22,1001 2172,1000.78 2172,1000.5C2172,1000.5 2172,1000.5 2172,1000.5C2172,1000.22 2172.22,1000 2172.5,1000C2172.75,1000 2173,1000 2173,1000C2173,1000 2173,999.75 2173,999.5C2173,999.367 2173.05,999.24 2173.14,999.146C2173.24,999.053 2173.36,999 2173.5,999C2173.8,999 2174.18,999 2174.49,999C2174.77,999 2175,999.229 2175,999.512C2175,999.512 2175,999.513 2175,999.513ZM2178,998C2178,998.552 2177.55,999 2177,999C2177,999 2177,999 2177,999C2177,999 2177,999.251 2177,999.501C2177,999.777 2176.77,1000 2176.5,1000C2176.5,1000 2176.5,1000 2176.5,1000C2176.22,1000 2176,999.777 2176,999.501C2176,998.909 2176,998 2176,998C2176,998 2175.76,998 2175.51,998C2175.23,998 2175,997.771 2175,997.488C2175,997.488 2175,997.487 2175,997.487C2175,997.358 2175.05,997.234 2175.14,997.143C2175.23,997.051 2175.36,997 2175.48,997C2176.04,997 2176.94,997 2177.5,997C2177.63,997 2177.76,997.053 2177.85,997.146C2177.94,997.24 2178,997.367 2178,997.5C2178,997.653 2178,997.826 2178,998ZM2165,996C2165,996 2165.25,996 2165.5,996C2165.77,996 2166,996.223 2166,996.499C2166,996.5 2166,996.5 2166,996.501C2166,996.777 2165.77,997 2165.5,997C2165.25,997 2165,997 2165,997L2165,997C2165,997 2165,997.265 2165,997.522C2165,997.786 2164.78,998 2164.52,998C2164.52,998 2164.52,998 2164.52,998C2164.23,998 2164,997.766 2164,997.478C2164,996.922 2164,996.048 2164,995.5C2164,995.367 2164.05,995.24 2164.14,995.146C2164.24,995.053 2164.36,995 2164.5,995C2164.77,995 2165,995.224 2165,995.5C2165,995.75 2165,996 2165,996ZM2168,997.5C2168,997.633 2167.94,997.76 2167.85,997.854C2167.76,997.947 2167.63,998 2167.5,998C2167.36,998 2167.24,997.947 2167.14,997.854C2167.05,997.76 2167,997.633 2167,997.5C2167,996.945 2167,996.055 2167,995.5C2167,995.367 2167.05,995.24 2167.14,995.146C2167.24,995.053 2167.36,995 2167.5,995C2167.63,995 2167.76,995.053 2167.85,995.146C2167.94,995.24 2168,995.367 2168,995.5C2168,996.055 2168,996.945 2168,997.5ZM2173,997C2173,997.552 2172.55,998 2172,998C2171.39,998 2170.61,998 2170,998C2169.45,998 2169,997.552 2169,997C2169,996.389 2169,995.611 2169,995C2169,994.448 2169.45,994 2170,994C2170.61,994 2171.39,994 2172,994C2172.55,994 2173,994.448 2173,995C2173,995.611 2173,996.389 2173,997ZM2177.5,995.501C2177.5,995.777 2177.27,996 2177,996C2176.56,996 2175.93,996 2175.49,996C2175.22,996 2174.99,995.777 2174.99,995.501C2174.99,995.5 2174.99,995.5 2174.99,995.499C2174.99,995.223 2175.22,995 2175.49,995C2175.93,995 2176.56,995 2177,995C2177.27,995 2177.5,995.223 2177.5,995.499C2177.5,995.5 2177.5,995.5 2177.5,995.501ZM2172,995L2170,995L2170,997L2172,997L2172,995ZM2174.99,994.501C2174.99,994.777 2174.77,995 2174.49,995C2174.49,995 2174.49,995 2174.49,995C2174.22,995 2174,994.777 2174,994.501C2174,994.5 2174,994.5 2174,994.499C2174,994.223 2174.22,994 2174.49,994C2174.49,994 2174.49,994 2174.49,994C2174.77,994 2174.99,994.223 2174.99,994.499C2174.99,994.5 2174.99,994.5 2174.99,994.501ZM2167,994.5C2167,994.633 2166.94,994.76 2166.85,994.854C2166.76,994.947 2166.63,995 2166.5,995C2166.19,995 2165.8,995 2165.5,995C2165.36,995 2165.24,994.947 2165.14,994.854C2165.05,994.76 2165,994.633 2165,994.5C2165,994.367 2165.05,994.24 2165.14,994.146C2165.24,994.053 2165.36,994 2165.5,994C2165.8,994 2166.19,994 2166.5,994C2166.77,994 2167,994.223 2167,994.499C2167,994.499 2167,994.5 2167,994.5ZM2171,989.518C2171,989.381 2171.05,989.249 2171.15,989.152C2171.25,989.055 2171.38,989 2171.52,989C2171.82,989 2172.2,989 2172.5,989C2172.77,989 2173,989.224 2173,989.5C2173,990.055 2173,990.946 2173,991.501C2173,991.777 2172.77,992 2172.5,992C2172.5,992 2172.5,992 2172.5,992C2172.22,992 2172,991.777 2172,991.501C2172,990.909 2172,990 2172,990C2172,990 2171.74,990 2171.48,990C2171.35,990 2171.23,989.949 2171.14,989.859C2171.05,989.769 2171,989.647 2171,989.519C2171,989.519 2171,989.518 2171,989.518ZM2170,990C2170,990 2170.25,990 2170.5,990C2170.77,990 2171,990.223 2171,990.499C2171,990.499 2171,990.5 2171,990.5C2171,990.776 2170.77,991 2170.5,991C2170.25,991 2170,991 2170,991C2170,991 2170,991.25 2170,991.5C2170,991.776 2169.77,992 2169.5,992C2169.36,992 2169.24,991.947 2169.14,991.854C2169.05,991.76 2169,991.633 2169,991.5C2169,990.945 2169,990.056 2169,989.501C2169,989.368 2169.05,989.241 2169.14,989.147C2169.24,989.053 2169.37,989 2169.5,989C2169.5,989 2169.5,989 2169.5,989C2169.63,989 2169.76,989.053 2169.85,989.147C2169.95,989.241 2170,989.368 2170,989.5C2170,989.75 2170,990 2170,990Z" style="fill:rgb(51,51,51);"/>
            </g>
        </g>
    </g>
</svg>
