<?xml version="1.0" encoding="UTF-8" standalone="no"?>
<!DOCTYPE svg PUBLIC "-//W3C//DTD SVG 1.1//EN" "http://www.w3.org/Graphics/SVG/1.1/DTD/svg11.dtd">
<svg width="24px" height="24px" version="1.1" xmlns="http://www.w3.org/2000/svg" xmlns:xlink="http://www.w3.org/1999/xlink" xml:space="preserve" xmlns:serif="http://www.serif.com/" style="fill-rule:evenodd;clip-rule:evenodd;stroke-linejoin:round;stroke-miterlimit:1.41421;">
    <g transform="matrix(1,0,0,1,-1871,-984)">
        <g id="object.regular.shoppingBag" transform="matrix(0.800768,0,0,0.984948,1871,984)">
            <rect x="0" y="0" width="29.971" height="24.367" style="fill:none;"/>
            <g transform="matrix(1.2488,0,0,1.01528,-2336.51,-999.038)">
                <path d="M1880,990C1880,990 1880,988.873 1880,988C1880,987.448 1880.44,987 1881,987C1882.11,987 1883.89,987 1885,987C1885.55,987 1886,987.448 1886,988C1886,988.873 1886,990 1886,990C1886,990 1888.54,990 1890,990C1890.55,990 1891,990.448 1891,991C1891,993.358 1891,999.343 1891,1003C1891,1004.66 1889.66,1006 1888,1006C1885.14,1006 1880.86,1006 1878,1006C1876.34,1006 1875,1004.66 1875,1003C1875,999.343 1875,993.358 1875,991C1875,990.735 1875.11,990.48 1875.29,990.293C1875.48,990.105 1875.74,990 1876,990C1877.46,990 1880,990 1880,990ZM1889,992L1877,992C1877,992 1877,1000.12 1877,1003C1877,1003.26 1877.11,1003.52 1877.29,1003.71C1877.48,1003.89 1877.74,1004 1878,1004C1880.26,1004 1885.74,1004 1888,1004C1888.27,1004 1888.52,1003.89 1888.71,1003.71C1888.89,1003.52 1889,1003.26 1889,1003C1889,1000.12 1889,992 1889,992ZM1885.5,993C1885.78,993 1886,993.223 1886,993.499C1886,993.499 1886,993.5 1886,993.5C1886,993.633 1885.95,993.76 1885.85,993.854C1885.76,993.947 1885.63,994 1885.5,994C1884.37,994 1881.63,994 1880.5,994C1880.36,994 1880.24,993.947 1880.14,993.854C1880.05,993.76 1880,993.633 1880,993.5C1880,993.5 1880,993.499 1880,993.499C1880,993.223 1880.22,993 1880.5,993C1881.63,993 1884.37,993 1885.5,993ZM1881,988L1881,990L1885,990L1885,988L1881,988Z" style="fill:rgb(51,51,51);"/>
            </g>
        </g>
    </g>
</svg>
