<?xml version="1.0" encoding="UTF-8" standalone="no"?>
<!DOCTYPE svg PUBLIC "-//W3C//DTD SVG 1.1//EN" "http://www.w3.org/Graphics/SVG/1.1/DTD/svg11.dtd">
<svg width="24px" height="24px" version="1.1" xmlns="http://www.w3.org/2000/svg" xmlns:xlink="http://www.w3.org/1999/xlink" xml:space="preserve" xmlns:serif="http://www.serif.com/" style="fill-rule:evenodd;clip-rule:evenodd;stroke-linejoin:round;stroke-miterlimit:1.41421;">
    <g transform="matrix(1,0,0,1,-1054,-1032)">
        <g id="object.thin.home" transform="matrix(1,0,0,1,-514,262)">
            <rect x="1568" y="770" width="24" height="24" style="fill:none;"/>
            <g transform="matrix(1,0,0,1,-829,-262)">
                <path d="M2414,1050C2414,1050.55 2413.55,1051 2413,1051C2411.08,1051 2406.92,1051 2405,1051C2404.45,1051 2404,1050.55 2404,1050C2404,1048.07 2404,1044 2404,1044C2404,1044 2403.61,1044 2403.1,1044C2402.71,1044 2402.35,1043.77 2402.19,1043.41C2402.03,1043.06 2402.09,1042.64 2402.35,1042.34C2404.08,1040.36 2406.91,1037.13 2408.25,1035.6C2408.44,1035.38 2408.71,1035.26 2409,1035.26C2409.29,1035.26 2409.56,1035.38 2409.75,1035.6C2411.09,1037.13 2413.92,1040.36 2415.65,1042.34C2415.91,1042.64 2415.97,1043.06 2415.81,1043.41C2415.65,1043.77 2415.29,1044 2414.9,1044C2414.39,1044 2414,1044 2414,1044C2414,1044 2414,1048.07 2414,1050ZM2413,1044L2405,1044L2405,1050L2407,1050C2407,1050 2407,1047.46 2407,1046C2407,1045.45 2407.45,1045 2408,1045C2408.61,1045 2409.39,1045 2410,1045C2410.55,1045 2411,1045.45 2411,1046C2411,1047.46 2411,1050 2411,1050L2413,1050L2413,1044ZM2408,1046L2408,1050L2410,1050L2410,1046L2408,1046ZM2403.1,1043L2414.9,1043L2409,1036.26L2403.1,1043Z" style="fill:rgb(51,51,51);"/>
            </g>
        </g>
    </g>
</svg>
