<?xml version="1.0" encoding="UTF-8" standalone="no"?>
<!DOCTYPE svg PUBLIC "-//W3C//DTD SVG 1.1//EN" "http://www.w3.org/Graphics/SVG/1.1/DTD/svg11.dtd">
<svg width="24px" height="24px" version="1.1" xmlns="http://www.w3.org/2000/svg" xmlns:xlink="http://www.w3.org/1999/xlink" xml:space="preserve" xmlns:serif="http://www.serif.com/" style="fill-rule:evenodd;clip-rule:evenodd;stroke-linecap:round;stroke-linejoin:bevel;stroke-miterlimit:100;">
    <g transform="matrix(1,0,0,1,-3571,-984)">
        <g id="object.regular.alarm" transform="matrix(1,0,0,1,2003,214)">
            <rect x="1568" y="770" width="24" height="24" style="fill:none;"/>
            <g transform="matrix(1,0,0,1,-687,-214)">
                <path d="M2268,996C2268,996.265 2267.89,996.52 2267.71,996.707C2267.08,997.334 2265.59,998.819 2264.7,999.707C2264.31,1000.1 2263.68,1000.1 2263.29,999.707C2262.9,999.316 2262.9,998.683 2263.29,998.293C2264.29,997.293 2266,995.585 2266,995.585C2266,995.585 2266,992.607 2266,991C2266,990.448 2266.45,990 2267,990C2267.26,990 2267.52,990.105 2267.71,990.293C2267.89,990.48 2268,990.735 2268,991C2268,992.431 2268,995 2268,996Z" style="fill:rgb(51,51,51);"/>
            </g>
            <g transform="matrix(1,0,0,1,-2003,-214)">
                <circle cx="3583" cy="996" r="8" style="fill:none;stroke:rgb(51,51,51);stroke-width:2px;"/>
            </g>
            <g transform="matrix(1,0,0,1,-2003,-214)">
                <path d="M3574,990L3577,987" style="fill:none;stroke:rgb(51,51,51);stroke-width:2px;"/>
            </g>
            <g transform="matrix(1,0,0,1,-2003,-214)">
                <path d="M3589,987L3592,990" style="fill:none;stroke:rgb(51,51,51);stroke-width:2px;"/>
            </g>
        </g>
    </g>
</svg>
