<?xml version="1.0" encoding="UTF-8" standalone="no"?>
<!DOCTYPE svg PUBLIC "-//W3C//DTD SVG 1.1//EN" "http://www.w3.org/Graphics/SVG/1.1/DTD/svg11.dtd">
<svg width="24px" height="24px" version="1.1" xmlns="http://www.w3.org/2000/svg" xmlns:xlink="http://www.w3.org/1999/xlink" xml:space="preserve" xmlns:serif="http://www.serif.com/" style="fill-rule:evenodd;clip-rule:evenodd;stroke-linejoin:round;stroke-miterlimit:1.41421;">
    <g transform="matrix(1,0,0,1,-3091,-1032)">
        <g id="object.thin.flagTriangle" transform="matrix(1,0,0,1,1523,262)">
            <rect x="1568" y="770" width="24" height="24" style="fill:none;"/>
            <g transform="matrix(-1,0,0,1,4682.5,-214.5)">
                <path d="M3097.64,993.081C3097.31,993.263 3097.11,993.617 3097.12,993.996C3097.13,994.374 3097.36,994.713 3097.7,994.87C3100.97,996.356 3107.5,999.322 3107.5,999.322C3107.5,999.322 3107.5,1004.37 3107.5,1006C3107.5,1006.13 3107.55,1006.26 3107.65,1006.35C3107.74,1006.45 3107.87,1006.5 3108,1006.5C3108.13,1006.5 3108.26,1006.45 3108.35,1006.35C3108.45,1006.26 3108.5,1006.13 3108.5,1006C3108.5,1003.58 3108.5,992.998 3108.5,988.842C3108.5,988.489 3108.31,988.163 3108.01,987.982C3107.71,987.802 3107.33,987.795 3107.02,987.964C3104.68,989.24 3100.14,991.717 3097.64,993.081ZM3107.5,998.223L3098.12,993.959L3107.5,988.842L3107.5,998.223Z" style="fill-rule:nonzero;"/>
            </g>
        </g>
    </g>
</svg>
