<?xml version="1.0" encoding="UTF-8" standalone="no"?>
<!DOCTYPE svg PUBLIC "-//W3C//DTD SVG 1.1//EN" "http://www.w3.org/Graphics/SVG/1.1/DTD/svg11.dtd">
<svg width="24px" height="24px" version="1.1" xmlns="http://www.w3.org/2000/svg" xmlns:xlink="http://www.w3.org/1999/xlink" xml:space="preserve" xmlns:serif="http://www.serif.com/" style="fill-rule:evenodd;clip-rule:evenodd;stroke-linejoin:round;stroke-miterlimit:1.41421;">
    <g transform="matrix(1,0,0,1,-3043,-1032)">
        <g id="object.thin.magnet" transform="matrix(1,0,0,1,1475,262)">
            <rect x="1568" y="770" width="24" height="24" style="fill:none;"/>
            <g transform="matrix(1,0,0,1,-1475,-214)">
                <path d="M3053,997C3053,998.105 3053.89,999 3055,999C3055,999 3055,999 3055,999C3056.11,999 3057,998.105 3057,997C3057,994.179 3057,989.136 3057,987C3057,986.735 3057.11,986.48 3057.29,986.293C3057.48,986.105 3057.74,986 3058,986C3059.33,986 3061.67,986 3063,986C3063.26,986 3063.52,986.105 3063.71,986.293C3063.89,986.48 3064,986.735 3064,987C3064,988.863 3064,993.037 3064,997C3064,1001.97 3059.97,1006 3055,1006C3055,1006 3055,1006 3055,1006C3050.03,1006 3046,1001.97 3046,997C3046,993.037 3046,988.863 3046,987C3046,986.735 3046.11,986.48 3046.29,986.293C3046.48,986.105 3046.74,986 3047,986C3048.33,986 3050.67,986 3052,986C3052.26,986 3052.52,986.105 3052.71,986.293C3052.89,986.48 3053,986.735 3053,987C3053,989.136 3053,994.179 3053,997ZM3047,987C3047,987 3047,992.193 3047,997C3047,999.122 3047.84,1001.16 3049.34,1002.66C3050.84,1004.16 3052.88,1005 3055,1005C3055,1005 3055,1005 3055,1005C3059.42,1005 3063,1001.42 3063,997C3063,992.193 3063,987 3063,987L3058,987C3058,987 3058,993.161 3058,997C3058,997.796 3057.68,998.559 3057.12,999.121C3056.56,999.684 3055.8,1000 3055,1000C3054.2,1000 3053.44,999.684 3052.88,999.121C3052.32,998.559 3052,997.796 3052,997C3052,993.161 3052,987 3052,987L3047,987Z" style="fill:rgb(51,51,51);fill-rule:nonzero;"/>
            </g>
            <g transform="matrix(1,0,0,1,-1475,-214)">
                <rect x="3047" y="991" width="5" height="1" style="fill:rgb(51,51,51);fill-rule:nonzero;"/>
            </g>
            <g transform="matrix(1,0,0,1,-1475,-214)">
                <rect x="3058" y="991" width="5" height="1" style="fill:rgb(51,51,51);fill-rule:nonzero;"/>
            </g>
        </g>
    </g>
</svg>
