<?xml version="1.0" encoding="UTF-8" standalone="no"?>
<!DOCTYPE svg PUBLIC "-//W3C//DTD SVG 1.1//EN" "http://www.w3.org/Graphics/SVG/1.1/DTD/svg11.dtd">
<svg width="24px" height="24px" version="1.1" xmlns="http://www.w3.org/2000/svg" xmlns:xlink="http://www.w3.org/1999/xlink" xml:space="preserve" xmlns:serif="http://www.serif.com/" style="fill-rule:evenodd;clip-rule:evenodd;stroke-linejoin:round;stroke-miterlimit:1.41421;">
    <g transform="matrix(1,0,0,1,-3187,-984)">
        <g id="object.regular.flagRibbon" transform="matrix(1,0,0,1,1619,214)">
            <rect x="1568" y="770" width="24" height="24" style="fill:none;"/>
            <g transform="matrix(1,0,0,1,-1619,-214)">
                <path d="M3204.28,993C3204.28,993 3206.36,995.598 3207.78,997.375C3208.02,997.675 3208.07,998.087 3207.9,998.433C3207.74,998.78 3207.38,999 3207,999C3202.86,999 3194,999 3194,999C3194,999 3194,1003.07 3194,1005C3194,1005.55 3193.55,1006 3193,1006C3192.74,1006 3192.48,1005.89 3192.29,1005.71C3192.11,1005.52 3192,1005.26 3192,1005C3192,1001.72 3192,991.284 3192,988C3192,987.735 3192.11,987.48 3192.29,987.293C3192.48,987.105 3192.74,987 3193,987C3195.72,987 3203.3,987 3207,987C3207.38,987 3207.74,987.22 3207.9,987.567C3208.07,987.913 3208.02,988.325 3207.78,988.625C3206.61,990.083 3205.45,991.542 3204.28,993ZM3194,989L3194,997L3204.92,997C3204.92,997 3203.12,994.75 3202.22,993.625C3201.93,993.259 3201.93,992.74 3202.22,992.375C3203.12,991.25 3204.92,989 3204.92,989C3201.28,989 3197.64,989 3194,989Z" style="fill-rule:nonzero;"/>
            </g>
        </g>
    </g>
</svg>
