<?xml version="1.0" encoding="UTF-8" standalone="no"?>
<!DOCTYPE svg PUBLIC "-//W3C//DTD SVG 1.1//EN" "http://www.w3.org/Graphics/SVG/1.1/DTD/svg11.dtd">
<svg width="24px" height="24px" version="1.1" xmlns="http://www.w3.org/2000/svg" xmlns:xlink="http://www.w3.org/1999/xlink" xml:space="preserve" xmlns:serif="http://www.serif.com/" style="fill-rule:evenodd;clip-rule:evenodd;stroke-linejoin:round;stroke-miterlimit:1.41421;">
    <g transform="matrix(1,0,0,1,-3235,-1032)">
        <g id="object.thin.archiveBox" transform="matrix(1,0,0,1,1667,262)">
            <rect x="1568" y="770" width="24" height="24" style="fill:none;"/>
            <g transform="matrix(1,0,0,1,-1667,-262)">
                <path d="M3257,1040C3257,1040.55 3256.55,1041 3256,1041C3256,1041 3256,1041 3256,1041C3256,1041 3256,1048.29 3256,1051C3256,1051.55 3255.55,1052 3255,1052C3251.85,1052 3242.15,1052 3239,1052C3238.45,1052 3238,1051.55 3238,1051C3238,1048.29 3238,1041 3238,1041C3238,1041 3238,1041 3238,1041C3237.45,1041 3237,1040.55 3237,1040C3237,1039.13 3237,1037.87 3237,1037C3237,1036.74 3237.11,1036.48 3237.29,1036.29C3237.48,1036.11 3237.74,1036 3238,1036C3241.41,1036 3252.59,1036 3256,1036C3256.26,1036 3256.52,1036.11 3256.71,1036.29C3256.89,1036.48 3257,1036.74 3257,1037C3257,1037.87 3257,1039.13 3257,1040ZM3255,1041L3239,1041L3239,1051L3255,1051L3255,1041ZM3249.5,1043C3249.63,1043 3249.76,1043.05 3249.85,1043.15C3249.95,1043.24 3250,1043.37 3250,1043.5C3250,1043.63 3249.95,1043.76 3249.85,1043.85C3249.76,1043.95 3249.63,1044 3249.5,1044C3248.37,1044 3245.63,1044 3244.5,1044C3244.37,1044 3244.24,1043.95 3244.15,1043.85C3244.05,1043.76 3244,1043.63 3244,1043.5C3244,1043.37 3244.05,1043.24 3244.15,1043.15C3244.24,1043.05 3244.37,1043 3244.5,1043C3245.63,1043 3248.37,1043 3249.5,1043ZM3256,1037L3238,1037L3238,1040L3256,1040L3256,1037Z" style="fill:rgb(51,51,51);"/>
            </g>
        </g>
    </g>
</svg>
