<?xml version="1.0" encoding="UTF-8" standalone="no"?>
<!DOCTYPE svg PUBLIC "-//W3C//DTD SVG 1.1//EN" "http://www.w3.org/Graphics/SVG/1.1/DTD/svg11.dtd">
<svg width="24px" height="24px" version="1.1" xmlns="http://www.w3.org/2000/svg" xmlns:xlink="http://www.w3.org/1999/xlink" xml:space="preserve" xmlns:serif="http://www.serif.com/" style="fill-rule:evenodd;clip-rule:evenodd;stroke-linejoin:round;stroke-miterlimit:1.41421;">
    <g transform="matrix(1,0,0,1,-3379,-1032)">
        <g id="object.thin.barcode" transform="matrix(1,0,0,1,1811,262)">
            <rect x="1568" y="770" width="24" height="24" style="fill:none;"/>
            <g transform="matrix(1,0,0,1,-1811,-214)">
                <path d="M3392,1002.5C3392,1002.78 3391.78,1003 3391.5,1003C3391.5,1003 3391.5,1003 3391.5,1003C3391.22,1003 3391,1002.78 3391,1002.5C3391,1000.32 3391,991.678 3391,989.5C3391,989.224 3391.22,989 3391.5,989C3391.5,989 3391.5,989 3391.5,989C3391.78,989 3392,989.223 3392,989.499C3392,991.675 3392,1000.33 3392,1002.5ZM3385,1002.5C3385,1002.78 3384.78,1003 3384.5,1003C3384.22,1003 3384,1002.78 3384,1002.5C3384,1000.32 3384,991.678 3384,989.5C3384,989.224 3384.22,989 3384.5,989C3384.78,989 3385,989.224 3385,989.5C3385,991.678 3385,1000.32 3385,1002.5ZM3390,1002.5C3390,1002.78 3389.78,1003 3389.5,1003C3389.22,1003 3389,1002.78 3389,1002.5C3389,1000.32 3389,991.678 3389,989.5C3389,989.224 3389.22,989 3389.5,989C3389.78,989 3390,989.224 3390,989.5C3390,991.678 3390,1000.32 3390,1002.5ZM3395,1002C3395,1002.55 3394.55,1003 3394,1003C3393.45,1003 3393,1002.55 3393,1002C3393,999.423 3393,992.577 3393,990C3393,989.448 3393.45,989 3394,989C3394.55,989 3395,989.448 3395,990C3395,992.577 3395,999.423 3395,1002ZM3398,1002C3398,1002.55 3397.55,1003 3397,1003C3396.45,1003 3396,1002.55 3396,1002C3396,999.423 3396,992.577 3396,990C3396,989.448 3396.45,989 3397,989C3397.55,989 3398,989.448 3398,990C3398,992.577 3398,999.423 3398,1002ZM3388,1002C3388,1002.55 3387.55,1003 3387,1003C3386.45,1003 3386,1002.55 3386,1002C3386,999.423 3386,992.577 3386,990C3386,989.448 3386.45,989 3387,989C3387.55,989 3388,989.448 3388,990C3388,992.577 3388,999.423 3388,1002ZM3401,1002C3401,1002.55 3400.55,1003 3400,1003C3399.45,1003 3399,1002.55 3399,1002C3399,999.423 3399,992.577 3399,990C3399,989.448 3399.45,989 3400,989C3400.55,989 3401,989.448 3401,990C3401,992.577 3401,999.423 3401,1002ZM3383,1002C3383,1002.55 3382.55,1003 3382,1003C3381.45,1003 3381,1002.55 3381,1002C3381,999.423 3381,992.577 3381,990C3381,989.448 3381.45,989 3382,989C3382.55,989 3383,989.448 3383,990C3383,992.577 3383,999.423 3383,1002Z" style="fill:rgb(51,51,51);"/>
            </g>
        </g>
    </g>
</svg>
