<?xml version="1.0" encoding="UTF-8" standalone="no"?>
<!DOCTYPE svg PUBLIC "-//W3C//DTD SVG 1.1//EN" "http://www.w3.org/Graphics/SVG/1.1/DTD/svg11.dtd">
<svg width="24px" height="24px" version="1.1" xmlns="http://www.w3.org/2000/svg" xmlns:xlink="http://www.w3.org/1999/xlink" xml:space="preserve" xmlns:serif="http://www.serif.com/" style="fill-rule:evenodd;clip-rule:evenodd;stroke-linejoin:round;stroke-miterlimit:1.41421;">
    <g transform="matrix(1,0,0,1,-3139,-984)">
        <g id="object.regular.flagSquare" transform="matrix(1,0,0,1,1571,214)">
            <rect x="1568" y="770" width="24" height="24" style="fill:none;"/>
            <g transform="matrix(-1,0,0,1,4683,-214)">
                <path d="M3097,987C3096.45,987 3096,987.448 3096,988C3096,990.26 3096,995.74 3096,998C3096,998.265 3096.11,998.52 3096.29,998.707C3096.48,998.895 3096.74,999 3097,999C3099.88,999 3108,999 3108,999C3108,999 3108,1003.07 3108,1005C3108,1005.26 3108.11,1005.52 3108.29,1005.71C3108.48,1005.89 3108.74,1006 3109,1006C3109.26,1006 3109.52,1005.89 3109.71,1005.71C3109.89,1005.52 3110,1005.26 3110,1005C3110,1001.72 3110,991.284 3110,988C3110,987.448 3109.55,987 3109,987C3106.42,987 3099.58,987 3097,987ZM3108,997L3098,997L3098,988.919L3108,989L3108,997Z" style="fill-rule:nonzero;"/>
            </g>
        </g>
    </g>
</svg>
