<?xml version="1.0" encoding="UTF-8" standalone="no"?>
<!DOCTYPE svg PUBLIC "-//W3C//DTD SVG 1.1//EN" "http://www.w3.org/Graphics/SVG/1.1/DTD/svg11.dtd">
<svg width="24px" height="24px" version="1.1" xmlns="http://www.w3.org/2000/svg" xmlns:xlink="http://www.w3.org/1999/xlink" xml:space="preserve" xmlns:serif="http://www.serif.com/" style="fill-rule:evenodd;clip-rule:evenodd;stroke-linecap:round;stroke-linejoin:round;stroke-miterlimit:100;">
    <g transform="matrix(1,0,0,1,-2707,-1032)">
        <g id="object.thin.calendar" transform="matrix(1,0,0,1,1139,262)">
            <rect x="1568" y="770" width="24" height="24" style="fill:none;"/>
            <g>
                <g transform="matrix(1,0,0,0.777778,-641,7.33333)">
                    <path d="M2230.08,985.719L2230.16,985.732L2230.24,985.754L2230.33,985.784L2230.4,985.823L2230.48,985.869L2230.55,985.924L2230.61,985.985L2230.68,986.054L2230.74,986.129L2230.79,986.21L2230.84,986.297L2230.88,986.388L2230.92,986.484L2230.95,986.583L2230.97,986.684L2230.99,986.788L2231,986.894L2231,987L2231,1005L2231,1005.11L2230.99,1005.21L2230.97,1005.32L2230.95,1005.42L2230.92,1005.52L2230.88,1005.61L2230.84,1005.7L2230.79,1005.79L2230.74,1005.87L2230.68,1005.95L2230.61,1006.01L2230.55,1006.08L2230.48,1006.13L2230.4,1006.18L2230.33,1006.22L2230.24,1006.25L2230.16,1006.27L2230.08,1006.28L2230,1006.29L2212,1006.29L2211.92,1006.28L2211.84,1006.27L2211.75,1006.25L2211.68,1006.22L2211.6,1006.18L2211.52,1006.13L2211.45,1006.08L2211.39,1006.01L2211.32,1005.95L2211.26,1005.87L2211.21,1005.79L2211.16,1005.7L2211.12,1005.61L2211.08,1005.52L2211.05,1005.42L2211.03,1005.32L2211.01,1005.21L2211,1005.11L2211,1005L2211,987L2211,986.894L2211.01,986.788L2211.03,986.684L2211.05,986.583L2211.08,986.484L2211.12,986.388L2211.16,986.297L2211.21,986.21L2211.26,986.129L2211.32,986.054L2211.39,985.985L2211.45,985.924L2211.52,985.869L2211.6,985.823L2211.68,985.784L2211.75,985.754L2211.84,985.732L2211.92,985.719L2212,985.714L2230,985.714L2230.08,985.719ZM2212,987L2212,1005L2230,1005L2230,987L2212,987Z" style="fill:rgb(51,51,51);"/>
                </g>
                <g transform="matrix(1,0,0,1,-641.5,-214.5)">
                    <path d="M2216,987L2216,989" style="fill:none;stroke:rgb(51,51,51);stroke-width:1px;"/>
                </g>
                <g transform="matrix(1,0,0,1,-630.5,-214.5)">
                    <path d="M2216,987L2216,989" style="fill:none;stroke:rgb(51,51,51);stroke-width:1px;"/>
                </g>
                <g transform="matrix(1,0,0,1,-641,-216)">
                    <path d="M2212,993.5L2230,993.5" style="fill:none;stroke:rgb(51,51,51);stroke-width:1px;"/>
                </g>
            </g>
            <g>
                <g transform="matrix(1,0,0,1,-644,-214)">
                    <path d="M2220,996.5L2221.5,994.5L2221.5,1000.5" style="fill:none;stroke:rgb(51,51,51);stroke-width:1px;"/>
                </g>
                <g>
                    <g transform="matrix(1,0,0,1,-641,-214)">
                        <path d="M2221.5,994.5L2224.5,994.5L2223,996.5" style="fill:none;stroke:rgb(51,51,51);stroke-width:1px;"/>
                    </g>
                    <g transform="matrix(1,0,0,1,-641.5,-214)">
                        <path d="M2223.5,996.5C2224.6,996.5 2225.5,997.396 2225.5,998.5C2225.5,999.604 2224.6,1000.5 2223.5,1000.5" style="fill:none;stroke:rgb(51,51,51);stroke-width:1px;"/>
                    </g>
                    <g transform="matrix(0.707107,0.707107,-0.707107,0.707107,715.794,-1493.8)">
                        <path d="M2223.5,996.5C2224.6,996.5 2225.5,997.396 2225.5,998.5C2225.5,999.604 2224.6,1000.5 2223.5,1000.5" style="fill:none;stroke:rgb(51,51,51);stroke-width:1px;"/>
                    </g>
                </g>
            </g>
        </g>
    </g>
</svg>
