<?xml version="1.0" encoding="UTF-8" standalone="no"?>
<!DOCTYPE svg PUBLIC "-//W3C//DTD SVG 1.1//EN" "http://www.w3.org/Graphics/SVG/1.1/DTD/svg11.dtd">
<svg width="24px" height="24px" version="1.1" xmlns="http://www.w3.org/2000/svg" xmlns:xlink="http://www.w3.org/1999/xlink" xml:space="preserve" xmlns:serif="http://www.serif.com/" style="fill-rule:evenodd;clip-rule:evenodd;stroke-linejoin:round;stroke-miterlimit:1.41421;">
    <g transform="matrix(1,0,0,1,-3523,-984)">
        <g id="object.regular.film" transform="matrix(1,0,0,1,1955,214)">
            <rect x="1568" y="770" width="24" height="24" style="fill:none;"/>
            <g transform="matrix(1,0,0,1,-1955,-214)">
                <path d="M3545,1004C3545,1004.26 3544.89,1004.52 3544.71,1004.71C3544.52,1004.89 3544.26,1005 3544,1005C3540.59,1005 3529.41,1005 3526,1005C3525.74,1005 3525.48,1004.89 3525.29,1004.71C3525.11,1004.52 3525,1004.26 3525,1004C3525,1000.85 3525,991.151 3525,988C3525,987.735 3525.11,987.48 3525.29,987.293C3525.48,987.105 3525.74,987 3526,987C3529.41,987 3540.59,987 3544,987C3544.26,987 3544.52,987.105 3544.71,987.293C3544.89,987.48 3545,987.735 3545,988C3545,991.151 3545,1000.85 3545,1004ZM3530,1003L3530,1001L3527,1001L3527,1003L3530,1003ZM3532,997L3532,1003L3538,1003L3538,997L3532,997ZM3543,1001L3540,1001L3540,1003L3543,1003L3543,1001ZM3527,999L3530,999L3530,997L3527,997L3527,999ZM3543,997L3540,997L3540,999L3543,999L3543,997ZM3543,993L3540,993L3540,995L3543,995L3543,993ZM3527,995L3530,995L3530,993L3527,993L3527,995ZM3538,989L3532,989L3532,995L3538,995L3538,989ZM3530,989L3527,989L3527,991L3530,991L3530,989ZM3543,989L3540,989L3540,991L3543,991L3543,989Z" style="fill:rgb(51,51,51);"/>
            </g>
        </g>
    </g>
</svg>
