<?xml version="1.0" encoding="UTF-8" standalone="no"?>
<!DOCTYPE svg PUBLIC "-//W3C//DTD SVG 1.1//EN" "http://www.w3.org/Graphics/SVG/1.1/DTD/svg11.dtd">
<svg width="24px" height="24px" version="1.1" xmlns="http://www.w3.org/2000/svg" xmlns:xlink="http://www.w3.org/1999/xlink" xml:space="preserve" xmlns:serif="http://www.serif.com/" style="fill-rule:evenodd;clip-rule:evenodd;stroke-linejoin:round;stroke-miterlimit:1.41421;">
    <g transform="matrix(1,0,0,1,-1489,-1080)">
        <g id="object.filled.champaigne" transform="matrix(1,0,0,1,-79,310)">
            <rect x="1568" y="770" width="24" height="24" style="fill:none;"/>
            <g transform="matrix(2,0,0,7.5,-3333.08,-6651.75)">
                <path d="M2457.79,990.5L2455.79,990.5L2456.04,991.3L2456.79,991.5L2457.54,991.3L2457.79,990.5Z" style="fill:rgb(51,51,51);"/>
            </g>
            <g transform="matrix(0.559054,0,0,1,206.964,-213)">
                <rect x="2456" y="997" width="1.789" height="7" style="fill:rgb(51,51,51);"/>
            </g>
            <g transform="matrix(0.625,0,0,1,44.382,-214)">
                <path d="M2461.79,1004.5C2461.79,1004.22 2461.43,1004 2460.99,1004L2454.59,1004C2454.15,1004 2453.79,1004.22 2453.79,1004.5C2453.79,1004.78 2454.15,1005 2454.59,1005L2460.99,1005C2461.43,1005 2461.79,1004.78 2461.79,1004.5Z" style="fill:rgb(51,51,51);"/>
            </g>
            <g transform="matrix(2,0,0,1,-3333.08,-213.5)">
                <rect x="2455.79" y="990.5" width="2" height="1" style="fill:rgb(51,51,51);"/>
            </g>
            <g transform="matrix(1,0,0,1,-877,-262)">
                <path d="M2459.05,1036L2459.1,1036.01L2459.15,1036.01L2459.2,1036.02L2459.24,1036.03L2459.29,1036.04L2459.34,1036.06L2459.38,1036.08L2459.43,1036.1L2459.47,1036.12L2459.51,1036.14L2459.55,1036.17L2459.6,1036.2L2459.63,1036.23L2459.67,1036.26L2459.71,1036.29L2459.74,1036.33L2459.77,1036.37L2459.8,1036.4L2459.83,1036.44L2459.86,1036.49L2459.88,1036.53L2459.9,1036.57L2459.92,1036.62L2459.94,1036.66L2459.96,1036.71L2459.97,1036.76L2459.98,1036.8L2459.99,1036.85L2459.99,1036.9L2460,1036.95L2460,1037L2460,1041L2460,1041.04L2460,1041.19L2460,1041.35L2459.99,1041.5L2459.99,1041.65L2459.98,1041.8L2459.97,1041.95L2459.96,1042.09L2459.95,1042.24L2459.93,1042.38L2459.92,1042.53L2459.9,1042.67L2459.88,1042.81L2459.87,1042.95L2459.84,1043.09L2459.82,1043.22L2459.8,1043.36L2459.77,1043.49L2459.75,1043.62L2459.72,1043.75L2459.69,1043.88L2459.66,1044.01L2459.63,1044.13L2459.6,1044.25L2459.57,1044.37L2459.53,1044.49L2459.5,1044.61L2459.46,1044.72L2459.42,1044.83L2459.39,1044.94L2459.35,1045.05L2459.3,1045.15L2459.26,1045.26L2459.22,1045.35L2459.18,1045.45L2459.13,1045.55L2459.09,1045.64L2459.04,1045.73L2458.99,1045.82L2458.94,1045.9L2458.89,1045.98L2458.84,1046.06L2458.79,1046.14L2458.74,1046.21L2458.69,1046.28L2458.63,1046.35L2458.58,1046.41L2458.53,1046.47L2458.47,1046.53L2458.41,1046.59L2458.36,1046.64L2458.3,1046.69L2458.27,1046.71L2458.24,1046.73L2458.21,1046.75L2458.18,1046.77L2458.15,1046.79L2458.12,1046.81L2458.09,1046.83L2458.06,1046.85L2458.03,1046.86L2458,1046.88L2457.97,1046.89L2457.94,1046.91L2457.91,1046.92L2457.88,1046.93L2457.85,1046.94L2457.82,1046.95L2457.79,1046.96L2457.75,1046.97L2457.72,1046.98L2457.69,1046.98L2457.66,1046.99L2457.63,1046.99L2457.6,1047L2457.56,1047L2457.53,1047L2457.5,1047L2457.47,1047L2457.44,1047L2457.4,1047L2457.37,1046.99L2457.34,1046.99L2457.31,1046.98L2457.28,1046.98L2457.24,1046.97L2457.21,1046.96L2457.18,1046.95L2457.15,1046.94L2457.12,1046.93L2457.09,1046.92L2457.06,1046.91L2457.03,1046.89L2457,1046.88L2456.97,1046.86L2456.94,1046.85L2456.91,1046.83L2456.88,1046.81L2456.85,1046.79L2456.82,1046.77L2456.79,1046.75L2456.76,1046.73L2456.73,1046.71L2456.7,1046.68L2456.64,1046.64L2456.58,1046.58L2456.53,1046.53L2456.47,1046.47L2456.42,1046.41L2456.36,1046.34L2456.31,1046.28L2456.26,1046.2L2456.2,1046.13L2456.15,1046.05L2456.1,1045.97L2456.05,1045.89L2456.01,1045.81L2455.96,1045.72L2455.91,1045.63L2455.86,1045.54L2455.82,1045.44L2455.78,1045.34L2455.73,1045.24L2455.69,1045.14L2455.65,1045.03L2455.61,1044.93L2455.57,1044.82L2455.53,1044.7L2455.5,1044.59L2455.46,1044.47L2455.43,1044.35L2455.39,1044.23L2455.36,1044.11L2455.33,1043.99L2455.3,1043.86L2455.27,1043.73L2455.25,1043.6L2455.22,1043.47L2455.2,1043.34L2455.17,1043.2L2455.15,1043.06L2455.13,1042.92L2455.11,1042.78L2455.1,1042.64L2455.08,1042.5L2455.06,1042.35L2455.05,1042.21L2455.04,1042.06L2455.03,1041.91L2455.02,1041.76L2455.01,1041.61L2455.01,1041.46L2455,1041.31L2455,1041.15L2455,1041L2455,1037L2455,1036.95L2455.01,1036.9L2455.01,1036.85L2455.02,1036.8L2455.03,1036.76L2455.04,1036.71L2455.06,1036.66L2455.08,1036.62L2455.1,1036.57L2455.12,1036.53L2455.14,1036.49L2455.17,1036.44L2455.2,1036.4L2455.23,1036.37L2455.26,1036.33L2455.29,1036.29L2455.33,1036.26L2455.37,1036.23L2455.41,1036.2L2455.45,1036.17L2455.49,1036.14L2455.53,1036.12L2455.57,1036.1L2455.62,1036.08L2455.66,1036.06L2455.71,1036.04L2455.76,1036.03L2455.8,1036.02L2455.85,1036.01L2455.9,1036.01L2455.95,1036L2456,1036L2459,1036L2459.05,1036ZM2456.01,1037L2456,1037L2456,1037L2456,1037.01L2456,1041L2456,1041.14L2456,1041.29L2456.01,1041.43L2456.01,1041.57L2456.02,1041.71L2456.03,1041.85L2456.04,1041.99L2456.05,1042.12L2456.06,1042.26L2456.07,1042.39L2456.09,1042.52L2456.1,1042.65L2456.12,1042.78L2456.14,1042.91L2456.16,1043.04L2456.18,1043.16L2456.2,1043.28L2456.23,1043.4L2456.25,1043.52L2456.28,1043.64L2456.3,1043.75L2456.33,1043.87L2456.36,1043.97L2456.39,1044.08L2456.42,1044.19L2456.45,1044.29L2456.48,1044.39L2456.52,1044.49L2456.55,1044.59L2456.59,1044.68L2456.62,1044.77L2456.66,1044.86L2456.69,1044.94L2456.73,1045.02L2456.77,1045.1L2456.8,1045.18L2456.84,1045.25L2456.88,1045.32L2456.92,1045.39L2456.95,1045.45L2456.99,1045.51L2457.03,1045.57L2457.07,1045.62L2457.1,1045.67L2457.14,1045.71L2457.17,1045.75L2457.21,1045.79L2457.24,1045.83L2457.27,1045.86L2457.3,1045.88L2457.33,1045.91L2457.34,1045.92L2457.36,1045.93L2457.37,1045.94L2457.38,1045.95L2457.39,1045.95L2457.4,1045.96L2457.41,1045.97L2457.42,1045.97L2457.43,1045.98L2457.45,1045.99L2457.46,1045.99L2457.47,1045.99L2457.48,1046L2457.49,1046L2457.5,1046L2457.5,1046L2457.5,1046L2457.51,1046L2457.51,1046L2457.51,1046L2457.51,1046L2457.51,1046L2457.52,1046L2457.52,1046L2457.53,1046L2457.53,1045.99L2457.53,1045.99L2457.54,1045.99L2457.55,1045.99L2457.55,1045.98L2457.56,1045.98L2457.57,1045.98L2457.58,1045.97L2457.59,1045.97L2457.6,1045.96L2457.61,1045.95L2457.62,1045.95L2457.63,1045.94L2457.64,1045.93L2457.66,1045.92L2457.67,1045.91L2457.7,1045.89L2457.73,1045.86L2457.76,1045.83L2457.79,1045.79L2457.82,1045.76L2457.86,1045.72L2457.89,1045.67L2457.93,1045.62L2457.97,1045.57L2458.01,1045.51L2458.04,1045.46L2458.08,1045.39L2458.12,1045.33L2458.16,1045.26L2458.19,1045.19L2458.23,1045.11L2458.27,1045.03L2458.3,1044.95L2458.34,1044.87L2458.38,1044.78L2458.41,1044.69L2458.45,1044.6L2458.48,1044.5L2458.51,1044.41L2458.54,1044.31L2458.58,1044.2L2458.61,1044.1L2458.64,1043.99L2458.66,1043.88L2458.69,1043.77L2458.72,1043.66L2458.74,1043.54L2458.77,1043.42L2458.79,1043.31L2458.82,1043.18L2458.84,1043.06L2458.86,1042.94L2458.88,1042.81L2458.89,1042.68L2458.91,1042.55L2458.92,1042.42L2458.94,1042.29L2458.95,1042.15L2458.96,1042.02L2458.97,1041.88L2458.98,1041.74L2458.99,1041.6L2458.99,1041.46L2459,1041.32L2459,1041.18L2459,1041.03L2459,1041L2459,1037.01L2459,1037L2459,1037L2458.99,1037L2456.01,1037Z" style="fill:rgb(51,51,51);"/>
            </g>
        </g>
    </g>
</svg>
