<?xml version="1.0" encoding="UTF-8" standalone="no"?>
<!DOCTYPE svg PUBLIC "-//W3C//DTD SVG 1.1//EN" "http://www.w3.org/Graphics/SVG/1.1/DTD/svg11.dtd">
<svg width="25px" height="24px" version="1.1" xmlns="http://www.w3.org/2000/svg" xmlns:xlink="http://www.w3.org/1999/xlink" xml:space="preserve" xmlns:serif="http://www.serif.com/" style="fill-rule:evenodd;clip-rule:evenodd;stroke-linecap:round;stroke-linejoin:round;stroke-miterlimit:1.5;">
    <g transform="matrix(1,0,0,1,-434,-1080)">
        <g id="object.filled.id" transform="matrix(0.800768,0,0,0.984948,434.977,1080)">
            <rect x="0" y="0" width="29.971" height="24.367" style="fill:none;"/>
            <g transform="matrix(1.2488,0,0,1.01528,-58.6936,-779.229)">
                <path d="M61,779L66,779" style="fill:none;stroke:rgb(51,51,51);stroke-width:1px;"/>
            </g>
            <g transform="matrix(1.2488,0,0,1.01528,-58.6936,-777.199)">
                <path d="M61,779L66,779" style="fill:none;stroke:rgb(51,51,51);stroke-width:1px;"/>
            </g>
            <g transform="matrix(1.2488,0,0,1.01528,-59.9424,-778.722)">
                <path d="M56.077,775.001L56.153,775.004L56.229,775.009L56.306,775.015L56.382,775.024L56.456,775.035L56.53,775.047L56.604,775.061L56.676,775.077L56.748,775.094L56.821,775.114L56.892,775.135L56.961,775.158L57.031,775.182L57.101,775.209L57.168,775.236L57.234,775.265L57.301,775.296L57.366,775.329L57.431,775.363L57.494,775.398L57.557,775.435L57.618,775.474L57.678,775.513L57.736,775.554L57.795,775.597L57.853,775.641L57.909,775.686L57.964,775.732L58.017,775.779L58.07,775.829L58.121,775.879L58.171,775.93L58.22,775.983L58.268,776.037L58.314,776.092L58.36,776.148L58.403,776.205L58.446,776.263L58.487,776.322L58.527,776.383L58.565,776.444L58.602,776.506L58.637,776.569L58.671,776.633L58.704,776.699L58.734,776.765L58.764,776.832L58.792,776.9L58.818,776.968L58.842,777.038L58.865,777.108L58.886,777.179L58.906,777.251L58.923,777.323L58.939,777.396L58.953,777.47L58.965,777.544L58.976,777.619L58.985,777.694L58.991,777.771L58.996,777.847L58.999,777.923L59,778L58.999,778.077L58.996,778.153L58.991,778.229L58.985,778.306L58.976,778.381L58.965,778.456L58.953,778.53L58.939,778.604L58.923,778.677L58.906,778.749L58.886,778.821L58.865,778.892L58.842,778.962L58.818,779.032L58.792,779.1L58.764,779.168L58.734,779.235L58.704,779.301L58.671,779.367L58.637,779.431L58.602,779.494L58.565,779.556L58.527,779.617L58.487,779.678L58.446,779.737L58.403,779.795L58.36,779.852L58.314,779.908L58.268,779.963L58.22,780.017L58.171,780.07L58.121,780.121L58.07,780.171L58.017,780.221L57.964,780.268L57.909,780.314L57.853,780.359L57.795,780.403L57.736,780.446L57.678,780.487L57.618,780.526L57.557,780.565L57.494,780.602L57.431,780.637L57.366,780.671L57.301,780.704L57.234,780.735L57.168,780.764L57.101,780.791L57.031,780.818L56.961,780.842L56.892,780.865L56.821,780.886L56.748,780.906L56.676,780.923L56.604,780.939L56.53,780.953L56.456,780.965L56.382,780.976L56.306,780.985L56.229,780.991L56.153,780.996L56.077,780.999L56,781L55.923,780.999L55.847,780.996L55.771,780.991L55.694,780.985L55.619,780.976L55.544,780.965L55.47,780.953L55.396,780.939L55.324,780.923L55.252,780.906L55.179,780.886L55.108,780.865L55.039,780.842L54.969,780.818L54.899,780.791L54.832,780.764L54.766,780.735L54.699,780.704L54.634,780.671L54.569,780.637L54.506,780.602L54.443,780.565L54.382,780.526L54.322,780.487L54.263,780.446L54.205,780.403L54.147,780.359L54.091,780.314L54.037,780.268L53.983,780.221L53.93,780.171L53.879,780.121L53.829,780.07L53.78,780.018L53.732,779.963L53.686,779.908L53.64,779.852L53.597,779.795L53.554,779.737L53.513,779.678L53.473,779.617L53.435,779.556L53.398,779.494L53.363,779.431L53.329,779.367L53.297,779.301L53.265,779.235L53.236,779.168L53.209,779.1L53.183,779.032L53.158,778.962L53.135,778.891L53.114,778.821L53.095,778.749L53.077,778.676L53.061,778.604L53.047,778.53L53.034,778.455L53.024,778.381L53.015,778.306L53.009,778.23L53.004,778.154L53.001,778.077L53,778L53.001,777.923L53.004,777.846L53.009,777.77L53.015,777.694L53.024,777.619L53.034,777.545L53.047,777.47L53.061,777.396L53.077,777.324L53.095,777.251L53.114,777.179L53.135,777.109L53.158,777.038L53.183,776.968L53.209,776.9L53.236,776.832L53.265,776.765L53.297,776.699L53.329,776.633L53.363,776.569L53.398,776.506L53.435,776.444L53.473,776.383L53.513,776.322L53.554,776.263L53.597,776.205L53.64,776.148L53.686,776.092L53.732,776.037L53.78,775.982L53.829,775.93L53.879,775.879L53.93,775.829L53.983,775.779L54.037,775.732L54.091,775.686L54.147,775.641L54.205,775.597L54.263,775.554L54.322,775.513L54.382,775.474L54.443,775.435L54.506,775.398L54.569,775.363L54.634,775.329L54.699,775.296L54.766,775.265L54.832,775.236L54.899,775.209L54.969,775.182L55.039,775.158L55.108,775.135L55.179,775.114L55.252,775.094L55.324,775.077L55.396,775.061L55.47,775.047L55.544,775.035L55.619,775.024L55.694,775.015L55.771,775.009L55.847,775.004L55.923,775.001L56,775L56.077,775.001ZM55.948,776.001L55.897,776.003L55.846,776.006L55.796,776.01L55.745,776.016L55.696,776.023L55.646,776.031L55.597,776.041L55.549,776.051L55.5,776.063L55.453,776.076L55.406,776.09L55.359,776.105L55.313,776.121L55.267,776.139L55.222,776.157L55.177,776.177L55.133,776.197L55.09,776.219L55.047,776.242L55.005,776.265L54.963,776.29L54.922,776.315L54.882,776.342L54.843,776.369L54.804,776.398L54.766,776.427L54.728,776.457L54.691,776.488L54.656,776.52L54.62,776.553L54.586,776.586L54.553,776.62L54.52,776.656L54.488,776.691L54.457,776.728L54.427,776.766L54.398,776.804L54.369,776.843L54.342,776.882L54.315,776.922L54.29,776.963L54.265,777.005L54.242,777.047L54.219,777.09L54.197,777.133L54.177,777.177L54.157,777.222L54.139,777.267L54.121,777.313L54.105,777.359L54.09,777.406L54.076,777.453L54.063,777.5L54.051,777.549L54.041,777.597L54.031,777.646L54.023,777.696L54.016,777.745L54.01,777.796L54.006,777.846L54.003,777.897L54.001,777.948L54,778L54.001,778.052L54.003,778.103L54.006,778.154L54.01,778.204L54.016,778.255L54.023,778.304L54.031,778.354L54.041,778.403L54.051,778.451L54.063,778.5L54.076,778.547L54.09,778.594L54.105,778.641L54.121,778.687L54.139,778.733L54.157,778.778L54.177,778.823L54.197,778.867L54.219,778.91L54.242,778.953L54.265,778.995L54.29,779.037L54.315,779.078L54.342,779.118L54.369,779.157L54.398,779.196L54.427,779.234L54.457,779.272L54.488,779.309L54.52,779.344L54.553,779.38L54.586,779.414L54.62,779.447L54.656,779.48L54.691,779.512L54.728,779.543L54.766,779.573L54.804,779.602L54.843,779.631L54.882,779.658L54.922,779.685L54.963,779.71L55.005,779.735L55.047,779.758L55.09,779.781L55.133,779.803L55.177,779.823L55.222,779.843L55.267,779.861L55.313,779.879L55.359,779.895L55.406,779.91L55.453,779.924L55.5,779.937L55.549,779.949L55.597,779.959L55.646,779.969L55.696,779.977L55.745,779.984L55.796,779.99L55.846,779.994L55.897,779.997L55.948,779.999L56,780L56.052,779.999L56.103,779.997L56.154,779.994L56.204,779.99L56.255,779.984L56.304,779.977L56.354,779.969L56.403,779.959L56.451,779.949L56.5,779.937L56.547,779.924L56.594,779.91L56.641,779.895L56.687,779.879L56.733,779.861L56.778,779.843L56.823,779.823L56.867,779.803L56.91,779.781L56.953,779.758L56.995,779.735L57.037,779.71L57.078,779.685L57.118,779.658L57.157,779.631L57.196,779.602L57.234,779.573L57.272,779.543L57.309,779.512L57.344,779.48L57.38,779.447L57.414,779.414L57.447,779.38L57.48,779.344L57.512,779.309L57.543,779.272L57.573,779.234L57.602,779.196L57.631,779.157L57.658,779.118L57.685,779.078L57.71,779.037L57.735,778.995L57.758,778.953L57.781,778.91L57.803,778.867L57.823,778.823L57.843,778.778L57.861,778.733L57.879,778.687L57.895,778.641L57.91,778.594L57.924,778.547L57.937,778.5L57.949,778.451L57.959,778.403L57.969,778.354L57.977,778.304L57.984,778.255L57.99,778.204L57.994,778.154L57.997,778.103L57.999,778.052L58,778L57.999,777.948L57.997,777.897L57.994,777.846L57.99,777.796L57.984,777.745L57.977,777.696L57.969,777.646L57.959,777.597L57.949,777.549L57.937,777.5L57.924,777.453L57.91,777.406L57.895,777.359L57.879,777.313L57.861,777.267L57.843,777.222L57.823,777.177L57.803,777.133L57.781,777.09L57.758,777.047L57.735,777.005L57.71,776.963L57.685,776.922L57.658,776.882L57.631,776.843L57.602,776.804L57.573,776.766L57.543,776.728L57.512,776.691L57.48,776.656L57.447,776.62L57.414,776.586L57.38,776.553L57.344,776.52L57.309,776.488L57.272,776.457L57.234,776.427L57.196,776.398L57.157,776.369L57.118,776.342L57.078,776.315L57.037,776.29L56.995,776.265L56.953,776.242L56.91,776.219L56.867,776.197L56.823,776.177L56.778,776.157L56.733,776.139L56.687,776.121L56.641,776.105L56.594,776.09L56.547,776.076L56.5,776.063L56.451,776.051L56.403,776.041L56.354,776.031L56.304,776.023L56.255,776.016L56.204,776.01L56.154,776.006L56.103,776.003L56.052,776.001L56,776L55.948,776.001Z" style="fill:rgb(51,51,51);"/>
            </g>
            <g transform="matrix(1.2488,0,0,1.01528,-59.9424,-779.737)">
                <path d="M53.972,782.553L54.019,782.556L54.067,782.562L54.114,782.569L54.16,782.579L54.206,782.591L54.252,782.605L54.296,782.622L54.34,782.64L54.393,782.664L54.44,782.684L54.489,782.704L54.537,782.724L54.586,782.742L54.634,782.761L54.684,782.778L54.734,782.795L54.783,782.811L54.833,782.827L54.884,782.842L54.935,782.856L54.985,782.87L55.036,782.883L55.088,782.896L55.14,782.907L55.191,782.918L55.243,782.929L55.296,782.938L55.349,782.947L55.402,782.956L55.455,782.963L55.509,782.97L55.562,782.976L55.616,782.982L55.671,782.987L55.725,782.991L55.779,782.994L55.834,782.997L55.889,782.998L55.945,783L56,783L56.055,783L56.111,782.998L56.166,782.997L56.221,782.994L56.275,782.991L56.329,782.987L56.384,782.982L56.438,782.976L56.491,782.97L56.545,782.963L56.598,782.956L56.651,782.947L56.704,782.938L56.757,782.929L56.809,782.918L56.86,782.907L56.912,782.896L56.964,782.883L57.015,782.87L57.065,782.856L57.116,782.842L57.167,782.827L57.217,782.811L57.266,782.795L57.316,782.778L57.366,782.761L57.414,782.743L57.463,782.724L57.511,782.704L57.56,782.684L57.607,782.664L57.66,782.64L57.704,782.622L57.748,782.605L57.794,782.591L57.84,782.579L57.886,782.569L57.933,782.562L57.981,782.556L58.028,782.553L58.076,782.552L58.124,782.554L58.171,782.558L58.218,782.564L58.265,782.572L58.312,782.582L58.357,782.595L58.403,782.61L58.447,782.627L58.491,782.646L58.534,782.667L58.575,782.69L58.616,782.715L58.678,782.755L58.748,782.803L58.818,782.854L58.886,782.905L58.953,782.958L59.019,783.013L59.083,783.069L59.145,783.127L59.206,783.186L59.266,783.248L59.324,783.311L59.38,783.375L59.434,783.441L59.486,783.509L59.537,783.579L59.586,783.651L59.632,783.723L59.676,783.799L59.718,783.875L59.757,783.953L59.795,784.034L59.829,784.115L59.86,784.198L59.889,784.283L59.914,784.369L59.936,784.456L59.956,784.545L59.972,784.634L59.984,784.724L59.993,784.815L59.998,784.908L60,784.991L60,786L59.999,786.048L59.995,786.095L59.99,786.142L59.982,786.189L59.972,786.236L59.959,786.282L59.945,786.327L59.928,786.372L59.91,786.415L59.889,786.458L59.866,786.5L59.841,786.541L59.815,786.58L59.786,786.618L59.756,786.655L59.724,786.69L59.69,786.724L59.655,786.756L59.618,786.786L59.58,786.815L59.541,786.841L59.5,786.866L59.458,786.889L59.415,786.91L59.372,786.928L59.327,786.945L59.282,786.959L59.236,786.972L59.189,786.982L59.142,786.99L59.095,786.995L59.048,786.999L59,787L53,787L52.952,786.999L52.905,786.995L52.858,786.99L52.811,786.982L52.764,786.972L52.718,786.959L52.673,786.945L52.628,786.928L52.585,786.91L52.542,786.889L52.5,786.866L52.459,786.841L52.42,786.815L52.382,786.786L52.345,786.756L52.31,786.724L52.276,786.69L52.244,786.655L52.214,786.618L52.185,786.58L52.159,786.541L52.134,786.5L52.111,786.458L52.09,786.415L52.072,786.372L52.055,786.327L52.04,786.282L52.028,786.236L52.018,786.189L52.01,786.142L52.005,786.095L52.001,786.048L52,786L52,784.99L52.002,784.907L52.007,784.815L52.016,784.724L52.028,784.634L52.044,784.545L52.063,784.456L52.086,784.369L52.111,784.283L52.14,784.198L52.171,784.115L52.206,784.034L52.243,783.953L52.282,783.875L52.324,783.799L52.368,783.723L52.414,783.651L52.463,783.579L52.514,783.509L52.566,783.441L52.62,783.375L52.677,783.31L52.734,783.248L52.794,783.186L52.855,783.127L52.917,783.069L52.982,783.013L53.047,782.958L53.114,782.905L53.182,782.854L53.252,782.804L53.322,782.755L53.385,782.715L53.425,782.69L53.467,782.667L53.509,782.646L53.553,782.626L53.597,782.61L53.643,782.595L53.689,782.582L53.735,782.572L53.782,782.564L53.829,782.558L53.877,782.554L53.924,782.552L53.972,782.553ZM53.878,783.587L53.826,783.622L53.775,783.659L53.726,783.696L53.678,783.734L53.632,783.773L53.587,783.812L53.543,783.852L53.501,783.893L53.461,783.935L53.422,783.977L53.384,784.02L53.348,784.064L53.314,784.109L53.281,784.154L53.25,784.199L53.221,784.246L53.193,784.293L53.167,784.34L53.143,784.388L53.121,784.436L53.1,784.485L53.082,784.535L53.065,784.585L53.05,784.635L53.037,784.686L53.026,784.738L53.016,784.789L53.009,784.841L53.004,784.894L53.001,784.947L53,785L53,786L59,786L59,785L58.999,784.947L58.996,784.894L58.991,784.841L58.984,784.789L58.974,784.738L58.963,784.686L58.95,784.635L58.935,784.585L58.918,784.535L58.9,784.485L58.879,784.436L58.857,784.388L58.833,784.34L58.807,784.293L58.779,784.246L58.75,784.199L58.719,784.154L58.686,784.109L58.652,784.064L58.616,784.02L58.578,783.977L58.539,783.935L58.499,783.893L58.457,783.852L58.413,783.812L58.368,783.773L58.322,783.734L58.274,783.696L58.225,783.659L58.174,783.622L58.122,783.587L58.069,783.552L58.01,783.579L57.95,783.605L57.89,783.63L57.829,783.654L57.769,783.678L57.707,783.7L57.646,783.722L57.584,783.744L57.521,783.764L57.458,783.784L57.395,783.802L57.332,783.82L57.268,783.837L57.204,783.854L57.14,783.869L57.075,783.884L57.01,783.898L56.944,783.911L56.879,783.923L56.813,783.934L56.746,783.945L56.68,783.954L56.613,783.963L56.546,783.97L56.479,783.977L56.411,783.983L56.343,783.988L56.275,783.993L56.207,783.996L56.138,783.998L56.069,784L56,784L55.931,784L55.862,783.998L55.793,783.996L55.725,783.993L55.657,783.988L55.589,783.983L55.521,783.977L55.454,783.97L55.387,783.963L55.32,783.954L55.254,783.945L55.187,783.934L55.121,783.923L55.056,783.911L54.99,783.898L54.925,783.884L54.86,783.869L54.796,783.854L54.732,783.837L54.668,783.82L54.605,783.802L54.542,783.784L54.479,783.764L54.416,783.744L54.354,783.722L54.293,783.7L54.231,783.678L54.171,783.654L54.11,783.63L54.05,783.605L53.99,783.579L53.931,783.552L53.878,783.587Z" style="fill:rgb(51,51,51);"/>
            </g>
            <g transform="matrix(1.2488,0,0,1.01528,-1245.06,-178.69)">
                <path d="M1018,181C1018.55,181 1019,181.448 1019,182C1019,184.577 1019,191.423 1019,194C1019,194.552 1018.55,195 1018,195C1014.59,195 1003.41,195 1000,195C999.448,195 999,194.552 999,194C999,191.423 999,184.577 999,182C999,181.448 999.448,181 1000,181C1003.41,181 1014.59,181 1018,181ZM1018,182L1000,182L1000,194L1018,194L1018,182Z" style="fill:rgb(51,51,51);"/>
            </g>
        </g>
    </g>
</svg>
