<?xml version="1.0" encoding="UTF-8" standalone="no"?>
<!DOCTYPE svg PUBLIC "-//W3C//DTD SVG 1.1//EN" "http://www.w3.org/Graphics/SVG/1.1/DTD/svg11.dtd">
<svg width="25px" height="24px" version="1.1" xmlns="http://www.w3.org/2000/svg" xmlns:xlink="http://www.w3.org/1999/xlink" xml:space="preserve" xmlns:serif="http://www.serif.com/" style="fill-rule:evenodd;clip-rule:evenodd;stroke-linejoin:round;stroke-miterlimit:1.41421;">
    <g transform="matrix(1,0,0,1,-1392,-1080)">
        <g id="object.filled.shoppingCart" transform="matrix(1,0,0,1,-175.023,310)">
            <rect x="1568" y="770" width="24" height="24" style="fill:none;"/>
            <g transform="matrix(4,0,0,4,-5347,-2360)">
                <circle cx="1732.5" cy="787.5" r="0.5" style="fill:rgb(51,51,51);"/>
            </g>
            <g transform="matrix(4,0,0,4,-5353,-2360)">
                <circle cx="1732.5" cy="787.5" r="0.5" style="fill:rgb(51,51,51);"/>
            </g>
            <g transform="matrix(1,0,0,1,-147.003,-46)">
                <path d="M1733.92,832.394C1733.76,832.762 1733.4,833 1733,833C1730.79,833 1723.65,833 1721,833C1720.74,833 1720.48,832.895 1720.29,832.707C1720.11,832.52 1720,832.265 1720,832C1720,829.655 1720,824 1720,824C1720,824 1731.74,824 1736,824C1736.34,824 1736.65,824.169 1736.84,824.449C1737.02,824.73 1737.05,825.085 1736.92,825.394C1736.07,827.388 1734.53,830.971 1733.92,832.394Z" style="fill:rgb(51,51,51);fill-rule:nonzero;"/>
            </g>
            <g transform="matrix(1,0,0,1,-147.003,1)">
                <path d="M1721,774C1721.27,774 1721.52,774.105 1721.71,774.293C1721.89,774.48 1722,774.735 1722,775C1722,776.185 1722,778 1722,778L1720,778L1720,776C1720,776 1718.88,776 1718,776C1717.74,776 1717.48,775.895 1717.3,775.707C1717.11,775.52 1717,775.265 1717,775C1717,774.735 1717.11,774.48 1717.3,774.293C1717.48,774.105 1717.74,774 1718,774C1718.87,774 1720.13,774 1721,774Z" style="fill:rgb(51,51,51);"/>
            </g>
        </g>
    </g>
</svg>
