<?xml version="1.0" encoding="UTF-8" standalone="no"?>
<!DOCTYPE svg PUBLIC "-//W3C//DTD SVG 1.1//EN" "http://www.w3.org/Graphics/SVG/1.1/DTD/svg11.dtd">
<svg width="24px" height="24px" version="1.1" xmlns="http://www.w3.org/2000/svg" xmlns:xlink="http://www.w3.org/1999/xlink" xml:space="preserve" xmlns:serif="http://www.serif.com/" style="fill-rule:evenodd;clip-rule:evenodd;stroke-linejoin:round;stroke-miterlimit:1.41421;">
    <g transform="matrix(1,0,0,1,-1077,-984)">
        <g id="object.regular.bell" transform="matrix(0.800768,0,0,0.984948,1077,984)">
            <rect x="0" y="0" width="29.971" height="24.367" style="fill:none;"/>
            <g transform="matrix(1.2488,0,0,1.01528,-1125.18,-779.737)">
                <path d="M910.177,786L906.576,786C906.234,786 905.916,785.826 905.732,785.537C905.549,785.249 905.525,784.887 905.669,784.577C905.857,784.175 906.062,783.734 906.255,783.322C906.748,782.265 907.004,781.112 907.004,779.945C907.005,778.704 907.006,777.304 907.006,777C907.006,773.689 909.694,771 913.006,771C916.317,771 919.006,773.689 919.006,777C919.006,777 919.006,778.602 919.006,779.937C919.006,781.106 919.262,782.26 919.755,783.318C919.948,783.732 920.154,784.174 920.342,784.577C920.487,784.887 920.463,785.249 920.28,785.537C920.096,785.826 919.778,786 919.436,786L915.835,786C915.423,787.165 914.311,788 913.006,788C911.701,788 910.589,787.165 910.177,786ZM914.876,786L911.135,786C911.493,786.667 912.197,787.121 913.006,787.121C913.815,787.121 914.519,786.667 914.876,786ZM909.006,780.381C909.006,781.549 908.75,782.703 908.256,783.762C908.189,783.907 908.145,784 908.145,784L917.866,784C917.866,784 917.823,783.907 917.755,783.762C917.262,782.703 917.006,781.549 917.006,780.381C917.006,779.038 917.006,777 917.006,777C917.006,774.792 915.214,773 913.006,773C910.798,773 909.006,774.792 909.006,777C909.006,777 909.006,778.89 909.006,780.381ZM911.001,777.493C911,777.221 910.779,777 910.507,777C910.506,777 910.506,777 910.506,777C910.372,777 910.243,777.053 910.148,777.148C910.054,777.243 910.001,777.372 910.001,777.506C910.002,778.278 910.004,779.742 910.005,780.507C910.006,780.779 910.227,781 910.499,781C910.499,781 910.5,781 910.5,781C910.634,781 910.763,780.947 910.857,780.852C910.952,780.757 911.005,780.628 911.005,780.494C911.004,779.722 911.002,778.258 911.001,777.493Z" style="fill:rgb(51,51,51);"/>
            </g>
        </g>
    </g>
</svg>
