<?xml version="1.0" encoding="UTF-8" standalone="no"?><!DOCTYPE svg PUBLIC "-//W3C//DTD SVG 1.1//EN" "http://www.w3.org/Graphics/SVG/1.1/DTD/svg11.dtd"><svg width="100%" height="100%" viewBox="0 0 24 24" version="1.1" xmlns="http://www.w3.org/2000/svg" xmlns:xlink="http://www.w3.org/1999/xlink" xml:space="preserve" xmlns:serif="http://www.serif.com/" style="fill-rule:evenodd;clip-rule:evenodd;stroke-linecap:round;stroke-linejoin:round;stroke-miterlimit:1.5;"><rect id="object.regular.window" x="0" y="0" width="24" height="24" style="fill:none;"/><path d="M21,2c0.265,0 0.52,0.105 0.707,0.293c0.188,0.187 0.293,0.442 0.293,0.707c0,3.414 0,14.586 0,18c0,0.265 -0.105,0.52 -0.293,0.707c-0.187,0.188 -0.442,0.293 -0.707,0.293c-3.414,0 -14.586,0 -18,0c-0.265,0 -0.52,-0.105 -0.707,-0.293c-0.188,-0.187 -0.293,-0.442 -0.293,-0.707c0,-3.414 0,-14.586 0,-18c0,-0.265 0.105,-0.52 0.293,-0.707c0.187,-0.188 0.442,-0.293 0.707,-0.293c3.414,0 14.586,0 18,0Zm-1,2l-16,0l0,16l16,0l0,-16Z" style="fill:#333;"/><circle cx="6" cy="6" r="1" style="fill:#333;"/><circle cx="9" cy="6" r="1" style="fill:#333;"/><circle cx="12" cy="6" r="1" style="fill:#333;"/><rect x="3" y="8" width="18" height="1" style="fill:#333;"/><rect x="3" y="15" width="18" height="1" style="fill:#333;"/><path d="M12,17.5c0,-0.276 -0.224,-0.5 -0.5,-0.5l-6.006,0c-0.276,0 -0.5,0.224 -0.5,0.5c0,0.276 0.224,0.5 0.5,0.5l6.006,0c0.276,0 0.5,-0.224 0.5,-0.5Z" style="fill:#333;"/><path d="M3.5,14.5l5,-4l5,4" style="fill:none;stroke:#333;stroke-width:1px;"/><path d="M12,15.5l4.5,-3l4,3" style="fill:none;stroke:#333;stroke-width:1px;"/></svg>