<?xml version="1.0" encoding="UTF-8" standalone="no"?>
<!DOCTYPE svg PUBLIC "-//W3C//DTD SVG 1.1//EN" "http://www.w3.org/Graphics/SVG/1.1/DTD/svg11.dtd">
<svg width="24px" height="24px" version="1.1" xmlns="http://www.w3.org/2000/svg" xmlns:xlink="http://www.w3.org/1999/xlink" xml:space="preserve" xmlns:serif="http://www.serif.com/" style="fill-rule:evenodd;clip-rule:evenodd;stroke-linejoin:round;stroke-miterlimit:1.41421;">
    <g transform="matrix(1,0,0,1,-981,-984)">
        <g id="object.regular.creditCardFront" transform="matrix(0.800768,0,0,0.984948,981,984)">
            <rect x="0" y="0" width="29.971" height="24.367" style="fill:none;"/>
            <g transform="matrix(1.2488,0,0,1.01528,-1797.02,-999.038)">
                <path d="M1441.01,990C1441.01,989.448 1441.45,989 1442.01,989C1445.42,989 1456.59,989 1460.01,989C1460.56,989 1461.01,989.448 1461.01,990C1461.01,992.577 1461.01,999.423 1461.01,1002C1461.01,1002.55 1460.56,1003 1460.01,1003C1456.59,1003 1445.42,1003 1442.01,1003C1441.45,1003 1441.01,1002.55 1441.01,1002C1441.01,999.423 1441.01,992.577 1441.01,990ZM1458.99,991L1443,991L1443,1001L1458.99,1001L1458.99,991ZM1458,999C1458,999.552 1457.55,1000 1457,1000C1456.39,1000 1455.61,1000 1454.99,1000C1454.44,1000 1453.99,999.552 1453.99,999C1453.99,998.448 1454.44,998 1454.99,998C1455.61,998 1456.39,998 1457,998C1457.55,998 1458,998.448 1458,999C1458,999 1458,999 1458,999ZM1449.99,999.513C1449.99,999.782 1449.78,1000 1449.51,1000C1448.39,1000 1445.65,1000 1444.51,1000C1444.23,1000 1444,999.771 1444,999.488C1444,999.488 1444,999.487 1444,999.487C1444,999.218 1444.22,999 1444.49,999C1445.6,999 1448.34,999 1449.48,999C1449.77,999 1449.99,999.229 1449.99,999.512C1449.99,999.512 1449.99,999.513 1449.99,999.513ZM1457.99,996C1457.99,996.552 1457.55,997 1456.99,997C1454.42,997 1447.57,997 1445,997C1444.45,997 1444,996.554 1444,996.003C1444,995.737 1444.1,995.482 1444.29,995.294C1444.48,995.106 1444.73,995 1445,995C1447.58,995 1454.42,995 1456.99,995C1457.55,995 1457.99,995.448 1457.99,996C1457.99,996 1457.99,996 1457.99,996Z" style="fill:rgb(51,51,51);"/>
            </g>
        </g>
    </g>
</svg>
