<?xml version="1.0" encoding="UTF-8" standalone="no"?>
<!DOCTYPE svg PUBLIC "-//W3C//DTD SVG 1.1//EN" "http://www.w3.org/Graphics/SVG/1.1/DTD/svg11.dtd">
<svg width="24px" height="24px" version="1.1" xmlns="http://www.w3.org/2000/svg" xmlns:xlink="http://www.w3.org/1999/xlink" xml:space="preserve" xmlns:serif="http://www.serif.com/" style="fill-rule:evenodd;clip-rule:evenodd;stroke-linejoin:round;stroke-miterlimit:1.41421;">
    <g transform="matrix(1,0,0,1,-3187,-1032)">
        <g id="object.thin.flagRibbon" transform="matrix(1,0,0,1,1619,262)">
            <rect x="1568" y="770" width="24" height="24" style="fill:none;"/>
            <g transform="matrix(1,0,0,1,-1619.5,-214.5)">
                <path d="M3203.62,993.5C3203.62,993.5 3205.53,996.134 3206.83,997.912C3207.05,998.216 3207.08,998.619 3206.91,998.954C3206.74,999.289 3206.39,999.5 3206.02,999.5C3202.06,999.5 3193.5,999.5 3193.5,999.5C3193.5,999.5 3193.5,1004.4 3193.5,1006C3193.5,1006.28 3193.28,1006.5 3193,1006.5C3193,1006.5 3193,1006.5 3193,1006.5C3192.72,1006.5 3192.5,1006.28 3192.5,1006C3192.5,1003.46 3192.5,991.976 3192.5,988.5C3192.5,988.235 3192.61,987.98 3192.79,987.793C3192.98,987.605 3193.24,987.5 3193.5,987.5C3196.02,987.5 3202.68,987.5 3206.02,987.5C3206.39,987.5 3206.74,987.711 3206.91,988.046C3207.08,988.381 3207.05,988.784 3206.83,989.088C3205.53,990.866 3203.62,993.5 3203.62,993.5ZM3193.5,988.5L3193.5,998.5L3206.02,998.5C3206.02,998.5 3203.77,995.41 3202.81,994.088C3202.55,993.737 3202.55,993.262 3202.81,992.912C3203.77,991.59 3206.02,988.5 3206.02,988.5L3193.5,988.5Z" style="fill-rule:nonzero;"/>
            </g>
        </g>
    </g>
</svg>
