<?xml version="1.0" encoding="UTF-8" standalone="no"?>
<!DOCTYPE svg PUBLIC "-//W3C//DTD SVG 1.1//EN" "http://www.w3.org/Graphics/SVG/1.1/DTD/svg11.dtd">
<svg width="24px" height="24px" version="1.1" xmlns="http://www.w3.org/2000/svg" xmlns:xlink="http://www.w3.org/1999/xlink" xml:space="preserve" xmlns:serif="http://www.serif.com/" style="fill-rule:evenodd;clip-rule:evenodd;stroke-linejoin:round;stroke-miterlimit:1.41421;">
    <g transform="matrix(1,0,0,1,-2995,-984)">
        <g id="object.regular.magnifyingGlassMinus" transform="matrix(1,0,0,1,1427,214)">
            <rect x="1568" y="770" width="24" height="24" style="fill:none;"/>
            <g transform="matrix(1,0,0,1,-1427,-214)">
                <path d="M3009.91,1000.32C3008.55,1001.37 3006.85,1002 3005,1002C3000.59,1002 2997,998.415 2997,994C2997,989.585 3000.59,986 3005,986C3009.41,986 3013,989.585 3013,994C3013,995.848 3012.37,997.55 3011.32,998.905C3011.32,998.905 3015.1,1002.69 3016.71,1004.29C3016.89,1004.48 3017,1004.74 3017,1005C3017,1005.26 3016.89,1005.52 3016.71,1005.71C3016.32,1006.1 3015.68,1006.1 3015.29,1005.71C3013.69,1004.1 3009.91,1000.32 3009.91,1000.32ZM3005,988C3008.31,988 3011,990.689 3011,994C3011,997.311 3008.31,1000 3005,1000C3001.69,1000 2999,997.311 2999,994C2999,990.689 3001.69,988 3005,988ZM3008,993C3008.55,993 3009,993.448 3009,994C3009,994.552 3008.55,995 3008,995C3006.46,995 3003.54,995 3002,995C3001.45,995 3001,994.552 3001,994C3001,993.448 3001.45,993 3002,993C3003.54,993 3006.46,993 3008,993Z" style="fill:rgb(51,51,51);"/>
            </g>
        </g>
    </g>
</svg>
