<?xml version="1.0" encoding="UTF-8" standalone="no"?><!DOCTYPE svg PUBLIC "-//W3C//DTD SVG 1.1//EN" "http://www.w3.org/Graphics/SVG/1.1/DTD/svg11.dtd"><svg width="100%" height="100%" viewBox="0 0 24 24" version="1.1" xmlns="http://www.w3.org/2000/svg" xmlns:xlink="http://www.w3.org/1999/xlink" xml:space="preserve" xmlns:serif="http://www.serif.com/" style="fill-rule:evenodd;clip-rule:evenodd;stroke-linejoin:round;stroke-miterlimit:1.41421;"><rect id="object.real.stick" x="0" y="0" width="24" height="24" style="fill:none;"/><path d="M10.997,11.785l3.9,-8.364c0.234,-0.501 0.829,-0.717 1.329,-0.484c0.5,0.233 0.717,0.829 0.484,1.329l-7.607,16.313c-0.234,0.501 -0.829,0.717 -1.329,0.484c-0.5,-0.233 -0.717,-0.829 -0.484,-1.329l2.707,-5.805c0,0 0,-6.548 0,-8.429c0,-0.276 0.224,-0.5 0.5,-0.5c0.133,0 0.26,0.053 0.354,0.146c0.093,0.094 0.146,0.221 0.146,0.354c0,1.568 0,6.285 0,6.285Z" style="fill:url(#_Linear1);"/><defs><linearGradient id="_Linear1" x1="0" y1="0" x2="1" y2="0" gradientUnits="userSpaceOnUse" gradientTransform="matrix(-20,20,-20,-20,22,2)"><stop offset="0" style="stop-color:#fff;stop-opacity:1"/><stop offset="1" style="stop-color:#666;stop-opacity:1"/></linearGradient></defs></svg>