<?xml version="1.0" encoding="UTF-8" standalone="no"?>
<!DOCTYPE svg PUBLIC "-//W3C//DTD SVG 1.1//EN" "http://www.w3.org/Graphics/SVG/1.1/DTD/svg11.dtd">
<svg width="24px" height="24px" version="1.1" xmlns="http://www.w3.org/2000/svg" xmlns:xlink="http://www.w3.org/1999/xlink" xml:space="preserve" xmlns:serif="http://www.serif.com/" style="fill-rule:evenodd;clip-rule:evenodd;stroke-linejoin:round;stroke-miterlimit:1.41421;">
    <g transform="matrix(1,0,0,1,-3283,-1032)">
        <g id="object.thin.trashBin" transform="matrix(1,0,0,1,1715,262)">
            <rect x="1568" y="770" width="24" height="24" style="fill:none;"/>
            <g transform="matrix(1,0,0,1,-1715,-262)">
                <path d="M3298,1036C3298,1036 3301.2,1036 3302.48,1036C3302.77,1036 3303,1036.23 3303,1036.52C3303,1036.52 3303,1036.52 3303,1036.52C3303,1036.79 3302.79,1037 3302.52,1037C3302.27,1037 3302,1037 3302,1037C3302,1037 3301.23,1048.65 3301,1052.07C3300.96,1052.59 3300.53,1053 3300,1053C3297.78,1053 3292.22,1053 3290,1053C3289.47,1053 3289.04,1052.59 3289,1052.07C3288.77,1048.65 3288,1037 3288,1037C3288,1037 3287.73,1037 3287.48,1037C3287.21,1037 3287,1036.79 3287,1036.52C3287,1036.52 3287,1036.52 3287,1036.52C3287,1036.38 3287.06,1036.25 3287.15,1036.15C3287.25,1036.06 3287.38,1036 3287.52,1036C3288.8,1036 3292,1036 3292,1036C3292,1036 3292,1035.5 3292,1035C3292,1034.45 3292.45,1034 3293,1034C3294.11,1034 3295.89,1034 3297,1034C3297.55,1034 3298,1034.45 3298,1035C3298,1035.5 3298,1036 3298,1036ZM3289,1037L3290,1052L3300,1052L3301,1037L3289,1037ZM3294,1048.99C3294.01,1049.25 3293.81,1049.48 3293.54,1049.5C3293.54,1049.5 3293.54,1049.5 3293.54,1049.5C3293.26,1049.51 3293.02,1049.3 3293,1049.02C3292.91,1047.3 3292.6,1041.73 3292.5,1040.03C3292.49,1039.75 3292.7,1039.52 3292.97,1039.5C3293.25,1039.49 3293.48,1039.7 3293.5,1039.97C3293.59,1041.68 3293.91,1047.3 3294,1048.99ZM3297.03,1039.5C3297.3,1039.52 3297.51,1039.75 3297.5,1040.03C3297.41,1041.73 3297.1,1047.3 3297,1049.02C3296.98,1049.3 3296.74,1049.51 3296.46,1049.5C3296.46,1049.5 3296.46,1049.5 3296.46,1049.5C3296.19,1049.48 3295.99,1049.25 3296,1048.99C3296.09,1047.3 3296.41,1041.68 3296.5,1039.97C3296.52,1039.7 3296.75,1039.49 3297.03,1039.5C3297.03,1039.5 3297.03,1039.5 3297.03,1039.5ZM3293,1035L3293,1036L3297,1036L3297,1035L3293,1035Z"/>
            </g>
        </g>
    </g>
</svg>
