<?xml version="1.0" encoding="UTF-8" standalone="no"?>
<!DOCTYPE svg PUBLIC "-//W3C//DTD SVG 1.1//EN" "http://www.w3.org/Graphics/SVG/1.1/DTD/svg11.dtd">
<svg width="24px" height="24px" version="1.1" xmlns="http://www.w3.org/2000/svg" xmlns:xlink="http://www.w3.org/1999/xlink" xml:space="preserve" xmlns:serif="http://www.serif.com/" style="fill-rule:evenodd;clip-rule:evenodd;stroke-linejoin:round;stroke-miterlimit:1.41421;">
    <g transform="matrix(1,0,0,1,-768,-984)">
        <g id="object.regular.person" transform="matrix(0.800768,0,0,0.984948,768,984)">
            <rect x="0" y="0" width="29.971" height="24.367" style="fill:none;"/>
            <g transform="matrix(0.832534,0,0,0.676855,-634.391,-516.44)">
                <path d="M780.153,769.002L780.304,769.007L780.458,769.017L780.612,769.031L780.763,769.048L780.911,769.069L781.059,769.094L781.207,769.122L781.351,769.153L781.496,769.189L781.642,769.228L781.785,769.271L781.922,769.316L782.061,769.364L782.202,769.418L782.338,769.473L782.469,769.531L782.602,769.593L782.734,769.658L782.862,769.726L782.989,769.797L783.115,769.872L783.237,769.948L783.356,770.027L783.474,770.108L783.592,770.194L783.705,770.281L783.818,770.372L783.928,770.465L784.033,770.558L784.14,770.658L784.243,770.758L784.341,770.859L784.439,770.964L784.536,771.073L784.629,771.183L784.719,771.295L784.806,771.408L784.891,771.524L784.973,771.643L785.053,771.764L785.13,771.888L785.203,772.011L785.274,772.138L785.341,772.266L785.406,772.397L785.468,772.529L785.527,772.663L785.583,772.8L785.635,772.936L785.684,773.076L785.73,773.217L785.772,773.358L785.811,773.502L785.846,773.647L785.878,773.793L785.907,773.942L785.931,774.09L785.952,774.24L785.969,774.39L785.983,774.541L785.992,774.693L785.998,774.847L786,775L785.998,775.153L785.992,775.307L785.983,775.459L785.969,775.61L785.952,775.76L785.931,775.91L785.907,776.058L785.878,776.207L785.846,776.353L785.811,776.498L785.772,776.642L785.73,776.783L785.684,776.924L785.635,777.064L785.583,777.2L785.527,777.337L785.468,777.471L785.406,777.603L785.341,777.734L785.274,777.862L785.203,777.989L785.13,778.112L785.053,778.236L784.973,778.357L784.891,778.476L784.806,778.592L784.719,778.705L784.629,778.817L784.536,778.927L784.439,779.036L784.341,779.141L784.243,779.242L784.14,779.342L784.033,779.442L783.928,779.535L783.818,779.628L783.705,779.719L783.592,779.806L783.474,779.892L783.356,779.973L783.237,780.052L783.115,780.128L782.989,780.203L782.862,780.274L782.734,780.342L782.602,780.407L782.469,780.469L782.338,780.527L782.202,780.582L782.061,780.636L781.922,780.684L781.785,780.729L781.642,780.772L781.496,780.811L781.351,780.847L781.207,780.878L781.059,780.906L780.911,780.931L780.763,780.952L780.612,780.969L780.458,780.983L780.304,780.993L780.153,780.998L780,781L779.847,780.998L779.696,780.993L779.542,780.983L779.388,780.969L779.237,780.952L779.089,780.931L778.941,780.906L778.793,780.878L778.649,780.847L778.504,780.811L778.358,780.772L778.215,780.729L778.078,780.684L777.939,780.636L777.798,780.582L777.662,780.527L777.531,780.469L777.398,780.407L777.266,780.342L777.138,780.274L777.011,780.203L776.885,780.128L776.763,780.052L776.644,779.973L776.526,779.892L776.408,779.806L776.295,779.719L776.182,779.628L776.072,779.535L775.967,779.442L775.86,779.342L775.757,779.242L775.659,779.141L775.561,779.036L775.464,778.927L775.371,778.817L775.281,778.705L775.194,778.592L775.109,778.476L775.027,778.357L774.947,778.236L774.87,778.112L774.797,777.989L774.726,777.862L774.659,777.734L774.594,777.603L774.532,777.471L774.473,777.337L774.417,777.2L774.365,777.064L774.316,776.924L774.27,776.783L774.228,776.642L774.189,776.498L774.154,776.353L774.122,776.207L774.093,776.058L774.069,775.91L774.048,775.76L774.031,775.61L774.017,775.459L774.008,775.307L774.002,775.153L774,775L774.002,774.847L774.008,774.693L774.017,774.541L774.031,774.39L774.048,774.24L774.069,774.09L774.093,773.942L774.122,773.793L774.154,773.647L774.189,773.502L774.228,773.358L774.27,773.217L774.316,773.076L774.365,772.936L774.417,772.8L774.473,772.663L774.532,772.529L774.594,772.397L774.659,772.266L774.726,772.138L774.797,772.011L774.87,771.888L774.947,771.764L775.027,771.643L775.109,771.524L775.194,771.408L775.281,771.295L775.371,771.183L775.464,771.073L775.561,770.964L775.659,770.859L775.757,770.758L775.86,770.658L775.967,770.558L776.072,770.465L776.182,770.372L776.295,770.281L776.408,770.194L776.526,770.108L776.644,770.027L776.763,769.948L776.885,769.872L777.011,769.797L777.138,769.726L777.266,769.658L777.398,769.593L777.531,769.531L777.662,769.473L777.798,769.418L777.939,769.364L778.078,769.316L778.215,769.271L778.358,769.228L778.504,769.189L778.649,769.153L778.793,769.122L778.941,769.094L779.089,769.069L779.237,769.048L779.388,769.031L779.542,769.017L779.696,769.007L779.847,769.002L780,769L780.153,769.002ZM779.923,772.001L779.846,772.004L779.769,772.009L779.693,772.016L779.618,772.024L779.543,772.035L779.469,772.047L779.396,772.061L779.323,772.077L779.251,772.095L779.179,772.114L779.108,772.135L779.038,772.158L778.969,772.182L778.9,772.208L778.833,772.236L778.766,772.265L778.7,772.296L778.635,772.328L778.571,772.362L778.507,772.398L778.445,772.435L778.384,772.473L778.323,772.513L778.264,772.554L778.206,772.596L778.148,772.64L778.092,772.685L778.037,772.732L777.983,772.78L777.931,772.829L777.879,772.879L777.829,772.931L777.78,772.983L777.732,773.037L777.685,773.092L777.64,773.148L777.596,773.206L777.554,773.264L777.513,773.323L777.473,773.384L777.435,773.445L777.398,773.507L777.362,773.571L777.328,773.635L777.296,773.7L777.265,773.766L777.236,773.833L777.208,773.9L777.182,773.969L777.158,774.038L777.135,774.108L777.114,774.179L777.095,774.251L777.077,774.323L777.061,774.396L777.047,774.469L777.035,774.543L777.024,774.618L777.016,774.693L777.009,774.769L777.004,774.846L777.001,774.923L777,775L777.001,775.077L777.004,775.154L777.009,775.231L777.016,775.307L777.024,775.382L777.035,775.457L777.047,775.531L777.061,775.604L777.077,775.677L777.095,775.749L777.114,775.821L777.135,775.892L777.158,775.962L777.182,776.031L777.208,776.1L777.236,776.167L777.265,776.234L777.296,776.3L777.328,776.365L777.362,776.429L777.398,776.493L777.435,776.555L777.473,776.616L777.513,776.677L777.554,776.736L777.596,776.794L777.64,776.852L777.685,776.908L777.732,776.963L777.78,777.017L777.829,777.069L777.879,777.121L777.931,777.171L777.983,777.22L778.037,777.268L778.092,777.315L778.148,777.36L778.206,777.404L778.264,777.446L778.323,777.487L778.384,777.527L778.445,777.565L778.507,777.602L778.571,777.638L778.635,777.672L778.7,777.704L778.766,777.735L778.833,777.764L778.9,777.792L778.969,777.818L779.038,777.842L779.108,777.865L779.179,777.886L779.251,777.905L779.323,777.923L779.396,777.939L779.469,777.953L779.543,777.965L779.618,777.976L779.693,777.984L779.769,777.991L779.846,777.996L779.923,777.999L780,778L780.077,777.999L780.154,777.996L780.231,777.991L780.307,777.984L780.382,777.976L780.457,777.965L780.531,777.953L780.604,777.939L780.677,777.923L780.749,777.905L780.821,777.886L780.892,777.865L780.962,777.842L781.031,777.818L781.1,777.792L781.167,777.764L781.234,777.735L781.3,777.704L781.365,777.672L781.429,777.638L781.493,777.602L781.555,777.565L781.616,777.527L781.677,777.487L781.736,777.446L781.794,777.404L781.852,777.36L781.908,777.315L781.963,777.268L782.017,777.22L782.069,777.171L782.121,777.121L782.171,777.069L782.22,777.017L782.268,776.963L782.315,776.908L782.36,776.852L782.404,776.794L782.446,776.736L782.487,776.677L782.527,776.616L782.565,776.555L782.602,776.493L782.638,776.429L782.672,776.365L782.704,776.3L782.735,776.234L782.764,776.167L782.792,776.1L782.818,776.031L782.842,775.962L782.865,775.892L782.886,775.821L782.905,775.749L782.923,775.677L782.939,775.604L782.953,775.531L782.965,775.457L782.976,775.382L782.984,775.307L782.991,775.231L782.996,775.154L782.999,775.077L783,775L782.999,774.923L782.996,774.846L782.991,774.769L782.984,774.693L782.976,774.618L782.965,774.543L782.953,774.469L782.939,774.396L782.923,774.323L782.905,774.251L782.886,774.179L782.865,774.108L782.842,774.038L782.818,773.969L782.792,773.9L782.764,773.833L782.735,773.766L782.704,773.7L782.672,773.635L782.638,773.571L782.602,773.507L782.565,773.445L782.527,773.384L782.487,773.323L782.446,773.264L782.404,773.206L782.36,773.148L782.315,773.092L782.268,773.037L782.22,772.983L782.171,772.931L782.121,772.879L782.069,772.829L782.017,772.78L781.963,772.732L781.908,772.685L781.852,772.64L781.794,772.596L781.736,772.554L781.677,772.513L781.616,772.473L781.555,772.435L781.493,772.398L781.429,772.362L781.365,772.328L781.3,772.296L781.234,772.265L781.167,772.236L781.1,772.208L781.031,772.182L780.962,772.158L780.892,772.135L780.821,772.114L780.749,772.095L780.677,772.077L780.604,772.061L780.531,772.047L780.457,772.035L780.382,772.024L780.307,772.016L780.231,772.009L780.154,772.004L780.077,772.001L780,772L779.923,772.001Z" style="fill:rgb(51,51,51);"/>
            </g>
            <g transform="matrix(1.2488,0,0,1.01528,-959.079,-779.737)">
                <path d="M782.475,780.589L782.553,780.594L782.63,780.603L782.708,780.614L782.784,780.629L782.861,780.646L782.936,780.667L783.011,780.69L783.084,780.716L783.157,780.746L783.228,780.777L783.298,780.812L783.366,780.85L783.48,780.915L783.614,780.996L783.746,781.08L783.874,781.167L784,781.258L784.125,781.354L784.247,781.452L784.365,781.553L784.482,781.658L784.595,781.767L784.705,781.879L784.812,781.995L784.91,782.108L784.965,782.174L785.015,782.236L785.064,782.3L785.112,782.364L785.159,782.428L785.204,782.493L785.249,782.56L785.293,782.627L785.336,782.695L785.378,782.765L785.419,782.835L785.458,782.905L785.496,782.977L785.534,783.049L785.57,783.124L785.604,783.197L785.638,783.272L785.67,783.348L785.701,783.424L785.73,783.502L785.759,783.581L785.785,783.66L785.81,783.739L785.834,783.818L785.857,783.901L785.878,783.983L785.897,784.064L785.914,784.148L785.93,784.23L785.945,784.314L785.958,784.399L785.969,784.484L785.978,784.569L785.986,784.656L785.992,784.741L785.997,784.826L785.999,784.914L786,784.99L786,787L785.998,787.079L785.994,787.157L785.986,787.235L785.975,787.313L785.962,787.39L785.945,787.467L785.925,787.543L785.902,787.618L785.876,787.692L785.848,787.765L785.816,787.837L785.782,787.908L785.745,787.977L785.705,788.045L785.663,788.111L785.618,788.176L785.571,788.238L785.521,788.299L785.469,788.358L785.414,788.414L785.358,788.469L785.299,788.521L785.238,788.571L785.176,788.618L785.111,788.663L785.045,788.705L784.977,788.745L784.908,788.782L784.837,788.816L784.765,788.848L784.692,788.876L784.618,788.902L784.543,788.925L784.467,788.945L784.39,788.962L784.313,788.975L784.235,788.986L784.157,788.994L784.079,788.998L784,789L776,789L775.921,788.998L775.843,788.994L775.765,788.986L775.687,788.975L775.61,788.962L775.533,788.945L775.457,788.925L775.382,788.902L775.308,788.876L775.235,788.848L775.163,788.816L775.092,788.782L775.023,788.745L774.955,788.705L774.889,788.663L774.824,788.618L774.762,788.571L774.701,788.521L774.642,788.469L774.586,788.414L774.531,788.358L774.479,788.299L774.429,788.238L774.382,788.176L774.337,788.111L774.295,788.045L774.255,787.977L774.218,787.908L774.184,787.837L774.152,787.765L774.124,787.692L774.098,787.618L774.075,787.543L774.055,787.467L774.038,787.39L774.025,787.313L774.014,787.235L774.006,787.157L774.002,787.079L774,787L774,784.99L774.001,784.914L774.003,784.826L774.008,784.741L774.014,784.656L774.022,784.569L774.031,784.484L774.042,784.399L774.055,784.314L774.07,784.23L774.086,784.148L774.103,784.064L774.122,783.983L774.143,783.901L774.166,783.818L774.19,783.739L774.215,783.66L774.241,783.581L774.27,783.502L774.299,783.424L774.33,783.348L774.362,783.272L774.396,783.197L774.43,783.124L774.466,783.049L774.504,782.977L774.542,782.905L774.581,782.835L774.622,782.765L774.664,782.695L774.707,782.627L774.751,782.56L774.796,782.493L774.841,782.428L774.888,782.364L774.936,782.3L774.985,782.236L775.035,782.174L775.09,782.108L775.188,781.995L775.295,781.879L775.405,781.767L775.518,781.658L775.635,781.553L775.753,781.452L775.875,781.354L776,781.258L776.126,781.167L776.254,781.08L776.386,780.996L776.52,780.915L776.634,780.85L776.702,780.812L776.772,780.777L776.843,780.746L776.916,780.716L776.989,780.69L777.064,780.667L777.139,780.646L777.216,780.629L777.292,780.614L777.37,780.603L777.447,780.594L777.525,780.589L777.603,780.586L777.681,780.587L777.759,780.591L777.837,780.598L777.915,780.607L777.992,780.62L778.068,780.636L778.144,780.655L778.219,780.677L778.293,780.701L778.353,780.722L778.404,780.74L778.454,780.756L778.505,780.773L778.556,780.788L778.606,780.803L778.657,780.818L778.708,780.832L778.759,780.845L778.81,780.858L778.862,780.87L778.916,780.882L778.967,780.893L779.019,780.904L779.073,780.914L779.126,780.924L779.179,780.933L779.231,780.941L779.286,780.949L779.34,780.957L779.394,780.964L779.448,780.97L779.501,780.975L779.556,780.981L779.612,780.985L779.666,780.989L779.721,780.992L779.777,780.995L779.832,780.997L779.888,780.999L779.944,781L780,781L780.056,781L780.112,780.999L780.168,780.997L780.223,780.995L780.279,780.992L780.334,780.989L780.388,780.985L780.444,780.981L780.499,780.975L780.552,780.97L780.606,780.964L780.66,780.957L780.714,780.949L780.769,780.941L780.821,780.933L780.874,780.924L780.927,780.914L780.981,780.904L781.033,780.893L781.084,780.882L781.138,780.87L781.19,780.858L781.241,780.845L781.292,780.832L781.343,780.818L781.394,780.803L781.444,780.788L781.495,780.773L781.546,780.756L781.596,780.74L781.647,780.722L781.707,780.701L781.781,780.677L781.856,780.655L781.932,780.636L782.008,780.62L782.085,780.607L782.163,780.598L782.241,780.591L782.319,780.587L782.397,780.586L782.475,780.589ZM782.305,782.611L782.235,782.635L782.165,782.658L782.094,782.681L782.023,782.703L781.952,782.724L781.88,782.744L781.808,782.764L781.736,782.783L781.663,782.801L781.59,782.818L781.517,782.835L781.444,782.851L781.37,782.866L781.296,782.88L781.222,782.894L781.147,782.906L781.072,782.918L780.997,782.929L780.922,782.94L780.847,782.949L780.771,782.958L780.695,782.966L780.618,782.973L780.542,782.979L780.465,782.985L780.388,782.989L780.311,782.993L780.233,782.996L780.156,782.998L780.078,783L780,783L779.922,783L779.844,782.998L779.767,782.996L779.689,782.993L779.612,782.989L779.535,782.985L779.458,782.979L779.382,782.973L779.305,782.966L779.229,782.958L779.153,782.949L779.078,782.94L779.003,782.929L778.928,782.918L778.853,782.906L778.778,782.894L778.704,782.88L778.63,782.866L778.556,782.851L778.483,782.835L778.41,782.818L778.337,782.801L778.264,782.783L778.192,782.764L778.12,782.744L778.048,782.724L777.977,782.703L777.906,782.681L777.835,782.658L777.765,782.635L777.695,782.611L777.625,782.586L777.534,782.638L777.445,782.693L777.358,782.749L777.273,782.806L777.19,782.866L777.109,782.927L777.031,782.99L776.956,783.055L776.882,783.121L776.812,783.189L776.743,783.258L776.678,783.329L776.615,783.402L776.585,783.438L776.555,783.476L776.526,783.513L776.498,783.551L776.47,783.589L776.443,783.627L776.417,783.666L776.391,783.705L776.367,783.744L776.343,783.784L776.319,783.824L776.297,783.864L776.275,783.905L776.254,783.946L776.234,783.987L776.215,784.028L776.196,784.07L776.178,784.112L776.161,784.154L776.145,784.197L776.13,784.239L776.115,784.282L776.102,784.326L776.089,784.369L776.077,784.413L776.066,784.457L776.055,784.501L776.046,784.545L776.037,784.59L776.029,784.635L776.023,784.68L776.017,784.725L776.012,784.77L776.007,784.816L776.004,784.862L776.002,784.908L776,784.954L776,785L776,787L784,787L784,785L784,784.954L783.998,784.908L783.996,784.862L783.993,784.816L783.988,784.77L783.983,784.725L783.977,784.68L783.971,784.635L783.963,784.59L783.954,784.545L783.945,784.501L783.934,784.457L783.923,784.413L783.911,784.369L783.898,784.326L783.885,784.282L783.87,784.239L783.855,784.197L783.839,784.154L783.822,784.112L783.804,784.07L783.785,784.028L783.766,783.987L783.746,783.946L783.725,783.905L783.703,783.864L783.681,783.824L783.657,783.784L783.633,783.744L783.609,783.705L783.583,783.666L783.557,783.627L783.53,783.589L783.502,783.551L783.474,783.513L783.445,783.476L783.415,783.438L783.385,783.402L783.322,783.329L783.257,783.258L783.188,783.189L783.118,783.121L783.044,783.055L782.969,782.99L782.891,782.927L782.81,782.866L782.727,782.806L782.642,782.749L782.555,782.693L782.466,782.638L782.375,782.586L782.305,782.611Z" style="fill:rgb(51,51,51);"/>
            </g>
        </g>
    </g>
</svg>
