<?xml version="1.0" encoding="UTF-8" standalone="no"?><!DOCTYPE svg PUBLIC "-//W3C//DTD SVG 1.1//EN" "http://www.w3.org/Graphics/SVG/1.1/DTD/svg11.dtd"><svg width="100%" height="100%" viewBox="0 0 24 24" version="1.1" xmlns="http://www.w3.org/2000/svg" xmlns:xlink="http://www.w3.org/1999/xlink" xml:space="preserve" xmlns:serif="http://www.serif.com/" style="fill-rule:evenodd;clip-rule:evenodd;stroke-linejoin:round;stroke-miterlimit:1.41421;"><rect id="object.filled.clock" x="0" y="0" width="24" height="24" style="fill:none;"/><path d="M12,2c5.519,0 10,4.481 10,10c0,5.519 -4.481,10 -10,10c-5.519,0 -10,-4.481 -10,-10c0,-5.519 4.481,-10 10,-10Zm1.003,10c0,0.133 -0.053,0.26 -0.147,0.354c-0.515,0.514 -2.25,2.247 -3.003,3c-0.195,0.195 -0.512,0.195 -0.707,-0.001c-0.093,-0.093 -0.146,-0.221 -0.146,-0.353c0,-0.133 0.053,-0.26 0.147,-0.354c0.834,-0.833 2.856,-2.853 2.856,-2.853c0,0 0,-4.304 0,-5.793c0,-0.276 0.224,-0.5 0.5,-0.5c0.276,0 0.5,0.224 0.5,0.5c0,1.359 0,5.081 0,6Z" style="fill:#333;"/></svg>