<?xml version="1.0" encoding="UTF-8" standalone="no"?>
<!DOCTYPE svg PUBLIC "-//W3C//DTD SVG 1.1//EN" "http://www.w3.org/Graphics/SVG/1.1/DTD/svg11.dtd">
<svg width="24px" height="24px" version="1.1" xmlns="http://www.w3.org/2000/svg" xmlns:xlink="http://www.w3.org/1999/xlink" xml:space="preserve" xmlns:serif="http://www.serif.com/" style="fill-rule:evenodd;clip-rule:evenodd;stroke-linejoin:round;stroke-miterlimit:1.41421;">
    <g transform="matrix(1,0,0,1,-3235,-984)">
        <g id="object.regular.archiveBox" transform="matrix(1,0,0,1,1667,214)">
            <rect x="1568" y="770" width="24" height="24" style="fill:none;"/>
            <g transform="matrix(1,0,0,1,-1667,-214)">
                <path d="M3257,993.001C3257,993.553 3256.55,994 3256,994C3256,994 3256,994 3256,994C3256,994 3256,1000.47 3256,1003C3256,1003.55 3255.55,1004 3255,1004C3251.85,1004 3242.15,1004 3239,1004C3238.45,1004 3238,1003.55 3238,1003C3238,1000.47 3238,994 3238,994C3238,994 3238,994 3238,994C3237.45,994 3237,993.552 3237,993C3237,991.89 3237,990.11 3237,989C3237,988.448 3237.45,988 3238,988C3241.41,988 3252.59,988 3256,988C3256.55,988 3257,988.448 3257,989C3257,990.11 3257,991.891 3257,993.001ZM3254,994L3240,994L3240,1002L3254,1002L3254,994ZM3249.5,995C3249.63,995 3249.76,995.053 3249.85,995.146C3249.95,995.24 3250,995.367 3250,995.5C3250,995.633 3249.95,995.76 3249.85,995.854C3249.76,995.947 3249.63,996 3249.5,996C3248.37,996 3245.63,996 3244.5,996C3244.37,996 3244.24,995.947 3244.15,995.854C3244.05,995.76 3244,995.633 3244,995.5C3244,995.367 3244.05,995.24 3244.15,995.146C3244.24,995.053 3244.37,995 3244.5,995C3245.63,995 3248.37,995 3249.5,995ZM3255,990L3239,990L3239,992L3255,992L3255,990Z"/>
            </g>
        </g>
    </g>
</svg>
