<?xml version="1.0" encoding="UTF-8" standalone="no"?><!DOCTYPE svg PUBLIC "-//W3C//DTD SVG 1.1//EN" "http://www.w3.org/Graphics/SVG/1.1/DTD/svg11.dtd"><svg width="100%" height="100%" viewBox="0 0 24 24" version="1.1" xmlns="http://www.w3.org/2000/svg" xmlns:xlink="http://www.w3.org/1999/xlink" xml:space="preserve" xmlns:serif="http://www.serif.com/" style="fill-rule:evenodd;clip-rule:evenodd;stroke-linejoin:round;stroke-miterlimit:1.41421;"><rect id="object.regular.picture" x="0" y="0" width="24" height="24" style="fill:none;"/><path d="M15.707,6c0,0 3.518,0 5.293,0c0.265,0 0.52,0.105 0.707,0.293c0.188,0.187 0.293,0.442 0.293,0.707c0,2.873 0,11.127 0,14c0,0.265 -0.105,0.52 -0.293,0.707c-0.187,0.188 -0.442,0.293 -0.707,0.293c-3.414,0 -14.586,0 -18,0c-0.265,0 -0.52,-0.105 -0.707,-0.293c-0.188,-0.187 -0.293,-0.442 -0.293,-0.707c0,-2.873 0,-11.127 0,-14c0,-0.265 0.105,-0.52 0.293,-0.707c0.187,-0.188 0.442,-0.293 0.707,-0.293c1.775,0 5.293,0 5.293,0c0,0 1.924,-1.924 3,-3c0.39,-0.39 1.024,-0.39 1.414,0c1.076,1.076 3,3 3,3Zm-11.707,9.24l0,4.76l16,0l0,-3.56l-3.5,-2.8c0,0 -3.498,2.799 -4.688,3.75c-0.215,0.173 -0.53,0.138 -0.702,-0.078c-0.001,0 -0.001,0 -0.001,0c-0.172,-0.216 -0.137,-0.53 0.078,-0.702c0.62,-0.496 1.763,-1.41 1.763,-1.41l-4.45,-3.56l-4.5,3.6Zm16,-0.08l0,-7.16c-5.333,0 -10.667,0 -16,0l0,5.96c0,0 2.639,-2.112 3.875,-3.101c0.366,-0.292 0.884,-0.292 1.25,0c1.391,1.114 4.625,3.701 4.625,3.701c0,0 1.314,-1.051 2.125,-1.701c0.366,-0.292 0.884,-0.292 1.25,0c1.006,0.806 2.875,2.301 2.875,2.301Zm-10.293,-9.16l4.586,0l-2.293,-2.293l-2.293,2.293Z" style="fill:#333;"/></svg>