<?xml version="1.0" encoding="UTF-8" standalone="no"?>
<!DOCTYPE svg PUBLIC "-//W3C//DTD SVG 1.1//EN" "http://www.w3.org/Graphics/SVG/1.1/DTD/svg11.dtd">
<svg width="24px" height="24px" version="1.1" xmlns="http://www.w3.org/2000/svg" xmlns:xlink="http://www.w3.org/1999/xlink" xml:space="preserve" xmlns:serif="http://www.serif.com/" style="fill-rule:evenodd;clip-rule:evenodd;stroke-linejoin:round;stroke-miterlimit:1.41421;">
    <g transform="matrix(1,0,0,1,-1919,-1128)">
        <g id="object.real.suitcase" transform="matrix(0.800768,0,0,0.984948,1919,1128)">
            <rect x="0" y="0" width="29.971" height="24.367" style="fill:none;"/>
            <g transform="matrix(1.2488,0,0,1.01528,-2396.45,-1145.24)">
                <path d="M1933,1135L1933,1133L1929,1133L1929,1135L1928,1135C1928,1135 1928,1133.87 1928,1133C1928,1132.45 1928.45,1132 1929,1132C1930.11,1132 1931.89,1132 1933,1132C1933.55,1132 1934,1132.45 1934,1133C1934,1133.87 1934,1135 1934,1135L1933,1135Z" style="fill:rgb(51,51,51);"/>
            </g>
            <g transform="matrix(1.31453,0,0,1.09338,-63.2288,-944.056)">
                <path d="M69,869.929C69,869.416 68.575,869 68.05,869C64.807,869 54.193,869 50.95,869C50.425,869 50,869.416 50,869.929C50,872.322 50,878.678 50,881.071C50,881.584 50.425,882 50.95,882C54.193,882 64.807,882 68.05,882C68.575,882 69,881.584 69,881.071C69,878.678 69,872.322 69,869.929Z" style="fill:url(#_Linear1);"/>
                <clipPath id="_clip2">
                    <path d="M69,869.929C69,869.416 68.575,869 68.05,869C64.807,869 54.193,869 50.95,869C50.425,869 50,869.416 50,869.929C50,872.322 50,878.678 50,881.071C50,881.584 50.425,882 50.95,882C54.193,882 64.807,882 68.05,882C68.575,882 69,881.584 69,881.071C69,878.678 69,872.322 69,869.929Z"/>
                </clipPath>
                <g clip-path="url(#_clip2)">
                    <g transform="matrix(0.844444,0,0,0.83871,-435.978,139.742)">
                        <rect x="593.5" y="869.5" width="4.5" height="15.5" style="fill:rgb(51,51,51);fill-opacity:0.501961;"/>
                    </g>
                    <g transform="matrix(0.844444,0,0,0.83871,-451.178,139.742)">
                        <rect x="593.5" y="869.5" width="4.5" height="15.5" style="fill:rgb(51,51,51);fill-opacity:0.501961;"/>
                    </g>
                </g>
            </g>
        </g>
    </g>
    <defs>
        <linearGradient id="_Linear1" x1="0" y1="0" x2="1" y2="0" gradientUnits="userSpaceOnUse" gradientTransform="matrix(-19,18.5714,-19,-18.5714,69,865.286)"><stop offset="0" style="stop-color:white;stop-opacity:1"/><stop offset="1" style="stop-color:rgb(102,102,102);stop-opacity:1"/></linearGradient>
    </defs>
</svg>
