<?xml version="1.0" encoding="UTF-8" standalone="no"?>
<!DOCTYPE svg PUBLIC "-//W3C//DTD SVG 1.1//EN" "http://www.w3.org/Graphics/SVG/1.1/DTD/svg11.dtd">
<svg width="24px" height="24px" version="1.1" xmlns="http://www.w3.org/2000/svg" xmlns:xlink="http://www.w3.org/1999/xlink" xml:space="preserve" xmlns:serif="http://www.serif.com/" style="fill-rule:evenodd;clip-rule:evenodd;stroke-linejoin:round;stroke-miterlimit:1.41421;">
    <g transform="matrix(1,0,0,1,-2397,-1032)">
        <g id="object.thin.home" transform="matrix(1,0,0,1,829,262)">
            <rect x="1568" y="770" width="24" height="24" style="fill:none;"/>
            <g transform="matrix(1,0,0,1,-195,-262)">
                <path d="M1782.38,1043.17C1782.51,1043.32 1782.54,1043.53 1782.45,1043.71C1782.37,1043.88 1782.2,1044 1782,1044C1781.11,1044 1780,1044 1780,1044C1780,1044 1780,1048.9 1780,1050.5C1780,1050.78 1779.78,1051 1779.5,1051C1777.79,1051 1772.21,1051 1770.5,1051C1770.22,1051 1770,1050.78 1770,1050.5C1770,1048.9 1770,1044 1770,1044C1770,1044 1768.89,1044 1768,1044C1767.8,1044 1767.63,1043.88 1767.55,1043.71C1767.46,1043.53 1767.49,1043.32 1767.62,1043.17C1769.29,1041.26 1773.37,1036.61 1774.62,1035.17C1774.72,1035.06 1774.86,1035 1775,1035C1775.14,1035 1775.28,1035.06 1775.38,1035.17C1776.63,1036.61 1780.7,1041.26 1782.38,1043.17ZM1779,1044L1771,1044L1771,1050L1779,1050L1779,1044ZM1778,1047.5C1778,1047.63 1777.95,1047.76 1777.85,1047.85C1777.76,1047.95 1777.63,1048 1777.5,1048C1776.94,1048 1776.06,1048 1775.5,1048C1775.37,1048 1775.24,1047.95 1775.15,1047.85C1775.05,1047.76 1775,1047.63 1775,1047.5C1775,1046.94 1775,1046.06 1775,1045.5C1775,1045.37 1775.05,1045.24 1775.15,1045.15C1775.24,1045.05 1775.37,1045 1775.5,1045C1776.06,1045 1776.94,1045 1777.5,1045C1777.63,1045 1777.76,1045.05 1777.85,1045.15C1777.95,1045.24 1778,1045.37 1778,1045.5C1778,1046.06 1778,1046.94 1778,1047.5ZM1777,1046L1776,1046L1776,1047L1777,1047L1777,1046ZM1769.1,1043L1780.9,1043L1775,1036.26L1769.1,1043Z" style="fill:rgb(51,51,51);"/>
            </g>
        </g>
    </g>
</svg>
