<?xml version="1.0" encoding="UTF-8" standalone="no"?><!DOCTYPE svg PUBLIC "-//W3C//DTD SVG 1.1//EN" "http://www.w3.org/Graphics/SVG/1.1/DTD/svg11.dtd"><svg width="100%" height="100%" viewBox="0 0 24 24" version="1.1" xmlns="http://www.w3.org/2000/svg" xmlns:xlink="http://www.w3.org/1999/xlink" xml:space="preserve" xmlns:serif="http://www.serif.com/" style="fill-rule:evenodd;clip-rule:evenodd;stroke-linecap:square;"><rect id="object.regular.letterEnvelope" x="0" y="0" width="24" height="24" style="fill:none;"/><path d="M2,6c0,-0.552 0.448,-1 1,-1c3.414,0 14.586,0 18,0c0.552,0 1,0.448 1,1c0,2.577 0,9.423 0,12c0,0.552 -0.448,1 -1,1c-3.414,0 -14.586,0 -18,0c-0.552,0 -1,-0.448 -1,-1c0,-2.577 0,-9.423 0,-12Zm2,1l-0.006,10l16,0l0.006,-9.991l-16,-0.009Z" style="fill:#333;"/><path d="M3,6l9,6.5l9,-6.5" style="fill:none;stroke:#333;stroke-width:1px;"/></svg>