<?xml version="1.0" encoding="UTF-8" standalone="no"?>
<!DOCTYPE svg PUBLIC "-//W3C//DTD SVG 1.1//EN" "http://www.w3.org/Graphics/SVG/1.1/DTD/svg11.dtd">
<svg width="25px" height="24px" version="1.1" xmlns="http://www.w3.org/2000/svg" xmlns:xlink="http://www.w3.org/1999/xlink" xml:space="preserve" xmlns:serif="http://www.serif.com/" style="fill-rule:evenodd;clip-rule:evenodd;stroke-linejoin:round;stroke-miterlimit:1.41421;">
    <g transform="matrix(1,0,0,1,-1440,-984)">
        <g id="object.regular.home" transform="matrix(1,0,0,1,-127.023,214)">
            <rect x="1568" y="770" width="24" height="24" style="fill:none;"/>
            <g transform="matrix(1,0,0,1,-829,-214)">
                <path d="M2416.75,995.342C2417.01,995.637 2417.07,996.056 2416.91,996.413C2416.75,996.771 2416.39,997 2416,997C2415.44,997 2415,997 2415,997C2415,997 2415,1001.85 2415,1004C2415,1004.55 2414.55,1005 2414,1005C2411.74,1005 2406.26,1005 2404,1005C2403.45,1005 2403,1004.55 2403,1004C2403,1001.85 2403,997 2403,997C2403,997 2402.56,997 2402,997C2401.61,997 2401.25,996.771 2401.09,996.413C2400.93,996.056 2400.99,995.637 2401.25,995.342C2403.23,993.074 2406.72,989.087 2408.25,987.342C2408.44,987.124 2408.71,987 2409,987C2409.29,987 2409.56,987.124 2409.75,987.342C2411.28,989.087 2414.77,993.074 2416.75,995.342ZM2413,997L2405,997L2405,1003L2407,1003C2407,1003 2407,1000.46 2407,999C2407,998.448 2407.45,998 2408,998C2408.61,998 2409.39,998 2410,998C2410.55,998 2411,998.448 2411,999C2411,1000.46 2411,1003 2411,1003L2413,1003L2413,997ZM2408,999L2408,1003L2410,1003L2410,999L2408,999ZM2404.2,995L2413.8,995L2409,989.519L2404.2,995Z" style="fill:rgb(51,51,51);"/>
            </g>
        </g>
    </g>
</svg>
