<?xml version="1.0" encoding="UTF-8" standalone="no"?>
<!DOCTYPE svg PUBLIC "-//W3C//DTD SVG 1.1//EN" "http://www.w3.org/Graphics/SVG/1.1/DTD/svg11.dtd">
<svg width="24px" height="24px" version="1.1" xmlns="http://www.w3.org/2000/svg" xmlns:xlink="http://www.w3.org/1999/xlink" xml:space="preserve" xmlns:serif="http://www.serif.com/" style="fill-rule:evenodd;clip-rule:evenodd;stroke-linejoin:round;stroke-miterlimit:1.41421;">
    <g transform="matrix(1,0,0,1,-1150,-1032)">
        <g id="object.thin.cup" transform="matrix(1,0,0,1,-418,262)">
            <rect x="1568" y="770" width="24" height="24" style="fill:none;"/>
            <g transform="matrix(1,0,0,1,-925,-261)">
                <path d="M2510,1040C2510,1040 2510.5,1040 2511,1040C2511.26,1040 2511.52,1040.11 2511.71,1040.29C2511.89,1040.48 2512,1040.74 2512,1041C2512,1041.57 2512,1042.31 2512,1043C2512,1044.11 2511.11,1045 2510,1045C2510,1045 2510,1045 2510,1045C2510,1045 2510,1045.43 2510,1046C2510,1046.8 2509.68,1047.56 2509.12,1048.12C2508.56,1048.68 2507.8,1049 2507,1049C2505.45,1049 2503.55,1049 2502,1049C2500.34,1049 2499,1047.66 2499,1046C2499,1043.38 2499,1039.74 2499,1038C2499,1037.45 2499.45,1037 2500,1037C2502.09,1037 2506.91,1037 2509,1037C2509.55,1037 2510,1037.45 2510,1038C2510,1038.87 2510,1040 2510,1040ZM2509,1038L2500,1038C2500,1038 2500,1043.08 2500,1046C2500,1046.53 2500.21,1047.04 2500.59,1047.41C2500.96,1047.79 2501.47,1048 2502,1048C2503.49,1048 2505.51,1048 2507,1048C2507.53,1048 2508.04,1047.79 2508.41,1047.41C2508.79,1047.04 2509,1046.53 2509,1046C2509,1043.08 2509,1038 2509,1038ZM2511,1041L2510,1041L2510,1044C2510,1044 2510,1044 2510,1044C2510.55,1044 2511,1043.55 2511,1043C2511,1042.13 2511,1041 2511,1041Z" style="fill:rgb(51,51,51);"/>
            </g>
        </g>
    </g>
</svg>
