<?xml version="1.0" encoding="UTF-8" standalone="no"?>
<!DOCTYPE svg PUBLIC "-//W3C//DTD SVG 1.1//EN" "http://www.w3.org/Graphics/SVG/1.1/DTD/svg11.dtd">
<svg width="24px" height="24px" version="1.1" xmlns="http://www.w3.org/2000/svg" xmlns:xlink="http://www.w3.org/1999/xlink" xml:space="preserve" xmlns:serif="http://www.serif.com/" style="fill-rule:evenodd;clip-rule:evenodd;stroke-linejoin:round;stroke-miterlimit:1.41421;">
    <g transform="matrix(1,0,0,1,-1461,-984)">
        <g id="object.regular.suitcase" transform="matrix(0.800768,0,0,0.984948,1461,984)">
            <rect x="0" y="0" width="29.971" height="24.367" style="fill:none;"/>
            <g transform="matrix(1.2488,0,0,1.01528,-2396.45,-999.038)">
                <path d="M1921,991C1921,990.448 1921.45,990 1922,990C1923.93,990 1928,990 1928,990C1928,990 1928,989.5 1928,989C1928,988.735 1928.11,988.48 1928.29,988.293C1928.48,988.105 1928.74,988 1929,988C1930.11,988 1931.89,988 1933,988C1933.27,988 1933.52,988.105 1933.71,988.293C1933.89,988.48 1934,988.735 1934,989C1934,989.5 1934,990 1934,990C1934,990 1938.07,990 1940,990C1940.55,990 1941,990.448 1941,991C1941,993.577 1941,1000.42 1941,1003C1941,1003.55 1940.55,1004 1940,1004C1936.59,1004 1925.41,1004 1922,1004C1921.45,1004 1921,1003.55 1921,1003C1921,1000.42 1921,993.577 1921,991ZM1923,992L1923,1002L1925,1002L1925,992L1923,992ZM1926,992L1926,1002L1936,1002L1936,992L1926,992ZM1937,992L1937,1002L1939,1002L1939,992L1937,992ZM1929,989L1929,990L1933,990L1933,989L1929,989Z" style="fill:rgb(51,51,51);"/>
            </g>
        </g>
    </g>
</svg>
