<?xml version="1.0" encoding="UTF-8" standalone="no"?>
<!DOCTYPE svg PUBLIC "-//W3C//DTD SVG 1.1//EN" "http://www.w3.org/Graphics/SVG/1.1/DTD/svg11.dtd">
<svg width="25px" height="24px" version="1.1" xmlns="http://www.w3.org/2000/svg" xmlns:xlink="http://www.w3.org/1999/xlink" xml:space="preserve" xmlns:serif="http://www.serif.com/" style="fill-rule:evenodd;clip-rule:evenodd;stroke-linejoin:round;stroke-miterlimit:1.41421;">
    <g transform="matrix(1,0,0,1,-1680,-984)">
        <g id="object.regular.smartphone" transform="matrix(1,0,0,1,112.977,214)">
            <rect x="1568" y="770" width="24" height="24" style="fill:none;"/>
            <g transform="matrix(1,0,0,1,-1069,-214)">
                <path d="M2655,1004C2655,1004.53 2654.79,1005.04 2654.41,1005.41C2654.04,1005.79 2653.53,1006 2653,1006C2650.78,1006 2647.22,1006 2645,1006C2644.47,1006 2643.96,1005.79 2643.59,1005.41C2643.21,1005.04 2643,1004.53 2643,1004C2643,1000.17 2643,991.832 2643,988C2643,987.47 2643.21,986.961 2643.59,986.586C2643.96,986.211 2644.47,986 2645,986C2647.22,986 2650.78,986 2653,986C2653.53,986 2654.04,986.211 2654.41,986.586C2654.79,986.961 2655,987.47 2655,988C2655,991.832 2655,1000.17 2655,1004ZM2653,989C2653,988.448 2652.55,988 2652,988C2650.46,988 2647.54,988 2646,988C2645.45,988 2645,988.448 2645,989C2645,991.873 2645,1000.13 2645,1003C2645,1003.55 2645.45,1004 2646,1004C2647.54,1004 2650.46,1004 2652,1004C2652.55,1004 2653,1003.55 2653,1003C2653,1000.13 2653,991.873 2653,989Z" style="fill:rgb(51,51,51);"/>
            </g>
            <g transform="matrix(1,0,0,1,-1069,-214)">
                <path d="M2652.1,989.002L2652.2,989.009L2652.3,989.022L2652.39,989.038L2652.49,989.06L2652.58,989.086L2652.67,989.117L2652.76,989.152L2652.86,989.192L2652.94,989.235L2653.03,989.283L2653.11,989.336L2653.19,989.392L2653.27,989.453L2653.34,989.517L2653.41,989.586L2653.48,989.657L2653.55,989.732L2653.61,989.81L2653.66,989.891L2653.72,989.973L2653.76,990.057L2653.81,990.145L2653.85,990.234L2653.88,990.326L2653.91,990.419L2653.94,990.512L2653.96,990.608L2653.98,990.706L2653.99,990.802L2654,990.9L2654,990.988L2654,1001.01L2654,1001.1L2653.99,1001.2L2653.98,1001.29L2653.96,1001.39L2653.94,1001.49L2653.91,1001.58L2653.88,1001.67L2653.85,1001.77L2653.81,1001.86L2653.76,1001.94L2653.72,1002.03L2653.66,1002.11L2653.61,1002.19L2653.55,1002.27L2653.48,1002.34L2653.41,1002.41L2653.34,1002.48L2653.27,1002.55L2653.19,1002.61L2653.11,1002.67L2653.03,1002.72L2652.94,1002.76L2652.86,1002.81L2652.77,1002.85L2652.67,1002.88L2652.58,1002.91L2652.49,1002.94L2652.39,1002.96L2652.3,1002.98L2652.2,1002.99L2652.1,1003L2652.01,1003L2645.99,1003L2645.9,1003L2645.8,1002.99L2645.7,1002.98L2645.61,1002.96L2645.51,1002.94L2645.42,1002.91L2645.33,1002.88L2645.23,1002.85L2645.14,1002.81L2645.06,1002.76L2644.97,1002.72L2644.89,1002.66L2644.81,1002.61L2644.73,1002.55L2644.66,1002.48L2644.59,1002.42L2644.52,1002.34L2644.45,1002.27L2644.39,1002.19L2644.34,1002.11L2644.28,1002.03L2644.24,1001.94L2644.19,1001.86L2644.15,1001.77L2644.12,1001.67L2644.09,1001.58L2644.06,1001.49L2644.04,1001.39L2644.02,1001.3L2644.01,1001.2L2644,1001.1L2644,1001.01L2644,990.988L2644,990.902L2644.01,990.802L2644.02,990.704L2644.04,990.608L2644.06,990.512L2644.09,990.419L2644.12,990.326L2644.15,990.234L2644.19,990.145L2644.24,990.059L2644.28,989.973L2644.34,989.89L2644.39,989.811L2644.45,989.733L2644.52,989.657L2644.59,989.585L2644.66,989.517L2644.73,989.453L2644.81,989.392L2644.89,989.336L2644.97,989.283L2645.06,989.235L2645.14,989.192L2645.24,989.152L2645.33,989.117L2645.42,989.086L2645.51,989.06L2645.61,989.038L2645.7,989.022L2645.8,989.009L2645.9,989.002L2645.99,989L2652.01,989L2652.1,989.002ZM2646,990L2645.95,990.001L2645.9,990.005L2645.85,990.011L2645.8,990.019L2645.76,990.03L2645.71,990.043L2645.66,990.059L2645.62,990.076L2645.57,990.096L2645.53,990.118L2645.49,990.142L2645.45,990.168L2645.41,990.196L2645.37,990.226L2645.33,990.259L2645.29,990.293L2645.26,990.329L2645.23,990.366L2645.2,990.405L2645.17,990.445L2645.14,990.487L2645.12,990.529L2645.1,990.573L2645.08,990.617L2645.06,990.663L2645.04,990.709L2645.03,990.756L2645.02,990.804L2645.01,990.852L2645.01,990.901L2645,990.95L2645,991L2645,1001L2645,1001.05L2645.01,1001.1L2645.01,1001.15L2645.02,1001.2L2645.03,1001.24L2645.04,1001.29L2645.06,1001.34L2645.08,1001.38L2645.1,1001.43L2645.12,1001.47L2645.14,1001.51L2645.17,1001.56L2645.2,1001.6L2645.23,1001.63L2645.26,1001.67L2645.29,1001.71L2645.33,1001.74L2645.37,1001.77L2645.41,1001.8L2645.45,1001.83L2645.49,1001.86L2645.53,1001.88L2645.57,1001.9L2645.62,1001.92L2645.66,1001.94L2645.71,1001.96L2645.76,1001.97L2645.8,1001.98L2645.85,1001.99L2645.9,1002L2645.95,1002L2646,1002L2652,1002L2652.05,1002L2652.1,1002L2652.15,1001.99L2652.2,1001.98L2652.24,1001.97L2652.29,1001.96L2652.34,1001.94L2652.38,1001.92L2652.43,1001.9L2652.47,1001.88L2652.51,1001.86L2652.55,1001.83L2652.6,1001.8L2652.63,1001.77L2652.67,1001.74L2652.71,1001.71L2652.74,1001.67L2652.77,1001.63L2652.8,1001.6L2652.83,1001.56L2652.86,1001.51L2652.88,1001.47L2652.9,1001.43L2652.92,1001.38L2652.94,1001.34L2652.96,1001.29L2652.97,1001.24L2652.98,1001.2L2652.99,1001.15L2652.99,1001.1L2653,1001.05L2653,1001L2653,991L2653,990.95L2652.99,990.901L2652.99,990.852L2652.98,990.804L2652.97,990.756L2652.96,990.709L2652.94,990.663L2652.92,990.617L2652.9,990.573L2652.88,990.529L2652.86,990.487L2652.83,990.445L2652.8,990.405L2652.77,990.366L2652.74,990.329L2652.71,990.293L2652.67,990.259L2652.63,990.226L2652.6,990.196L2652.55,990.168L2652.51,990.142L2652.47,990.118L2652.43,990.096L2652.38,990.076L2652.34,990.059L2652.29,990.043L2652.24,990.03L2652.2,990.019L2652.15,990.011L2652.1,990.005L2652.05,990.001L2652,990L2646,990Z" style="fill:rgb(51,51,51);"/>
            </g>
        </g>
    </g>
</svg>
