<?xml version="1.0" encoding="UTF-8" standalone="no"?>
<!DOCTYPE svg PUBLIC "-//W3C//DTD SVG 1.1//EN" "http://www.w3.org/Graphics/SVG/1.1/DTD/svg11.dtd">
<svg width="24px" height="24px" version="1.1" xmlns="http://www.w3.org/2000/svg" xmlns:xlink="http://www.w3.org/1999/xlink" xml:space="preserve" xmlns:serif="http://www.serif.com/" style="fill-rule:evenodd;clip-rule:evenodd;stroke-linejoin:round;stroke-miterlimit:1.41421;">
    <g transform="matrix(1,0,0,1,-1487,-1080)">
        <g id="object.filled.creditCardBack" transform="matrix(0.800768,0,0,0.984948,1487,1080)">
            <rect x="0" y="0" width="29.971" height="24.367" style="fill:none;"/>
            <g transform="matrix(1.2488,0,0,1.01528,-1856.97,-1096.5)">
                <path d="M1509,1098C1509,1098.55 1508.55,1099 1508,1099C1504.59,1099 1493.41,1099 1489.99,1099C1489.44,1099 1488.99,1098.55 1488.99,1098C1488.99,1095.42 1488.99,1088.58 1488.99,1086C1488.99,1085.45 1489.44,1085 1489.99,1085C1493.41,1085 1504.59,1085 1508,1085C1508.55,1085 1509,1085.45 1509,1086C1509,1088.58 1509,1095.42 1509,1098ZM1493.49,1096C1493.63,1096 1493.75,1096.05 1493.85,1096.15C1493.94,1096.24 1493.99,1096.37 1493.99,1096.5C1493.99,1096.5 1493.99,1096.5 1493.99,1096.5C1493.99,1096.78 1493.77,1097 1493.5,1097C1492.94,1097 1492.06,1097 1491.51,1097C1491.22,1097 1490.99,1096.77 1490.99,1096.49C1490.99,1096.49 1490.99,1096.49 1490.99,1096.49C1490.99,1096.36 1491.05,1096.23 1491.14,1096.14C1491.23,1096.05 1491.35,1096 1491.48,1096C1492.04,1096 1492.93,1096 1493.49,1096ZM1497.5,1095C1497.63,1095 1497.76,1094.95 1497.85,1094.85C1497.95,1094.76 1498,1094.63 1498,1094.5C1498,1094.37 1497.95,1094.24 1497.85,1094.15C1497.76,1094.05 1497.63,1094 1497.5,1094C1496.21,1094 1492.78,1094 1491.49,1094C1491.36,1094 1491.23,1094.05 1491.14,1094.15C1491.05,1094.24 1490.99,1094.37 1490.99,1094.5C1490.99,1094.63 1491.05,1094.76 1491.14,1094.85C1491.23,1094.95 1491.36,1095 1491.49,1095C1492.78,1095 1496.21,1095 1497.5,1095ZM1507.99,1088L1489.99,1088L1489.99,1092L1507.99,1092L1507.99,1088Z" style="fill:rgb(51,51,51);"/>
            </g>
        </g>
    </g>
</svg>
