<?xml version="1.0" encoding="UTF-8" standalone="no"?>
<!DOCTYPE svg PUBLIC "-//W3C//DTD SVG 1.1//EN" "http://www.w3.org/Graphics/SVG/1.1/DTD/svg11.dtd">
<svg width="24px" height="24px" version="1.1" xmlns="http://www.w3.org/2000/svg" xmlns:xlink="http://www.w3.org/1999/xlink" xml:space="preserve" xmlns:serif="http://www.serif.com/" style="fill-rule:evenodd;clip-rule:evenodd;stroke-linecap:round;stroke-linejoin:round;stroke-miterlimit:100;">
    <g transform="matrix(1,0,0,1,-2803,-1032)">
        <g id="object.thin.headphones" transform="matrix(1,0,0,1,1235,262)">
            <rect x="1568" y="770" width="24" height="24" style="fill:none;"/>
            <g transform="matrix(1,0,0,1,-1235,-212)">
                <path d="M2808,993C2808,989.137 2811.14,986 2815,986C2818.86,986 2822,989.137 2822,993" style="fill:none;stroke:rgb(51,51,51);stroke-width:1px;"/>
            </g>
            <g transform="matrix(1,0,0,1,-1235,-213)">
                <path d="M2822,994L2822,996" style="fill:none;stroke:rgb(51,51,51);stroke-width:1px;stroke-linecap:butt;"/>
            </g>
            <g transform="matrix(-1,0,0,1,4396,-214)">
                <path d="M2821.93,996.002L2821.88,996.007L2821.84,996.014L2821.79,996.023L2821.74,996.034L2821.69,996.048L2821.65,996.064L2821.6,996.082L2821.56,996.102L2821.52,996.125L2821.47,996.149L2821.43,996.176L2821.39,996.204L2821.36,996.234L2821.32,996.266L2821.29,996.3L2821.25,996.336L2821.22,996.373L2821.19,996.411L2821.16,996.451L2821.14,996.492L2821.12,996.534L2821.09,996.578L2821.07,996.622L2821.06,996.667L2821.04,996.713L2821.03,996.76L2821.02,996.807L2821.01,996.855L2821.01,996.903L2821,996.952L2821,997L2821,1003L2821,1003.05L2821.01,1003.1L2821.01,1003.14L2821.02,1003.19L2821.03,1003.24L2821.04,1003.29L2821.06,1003.33L2821.07,1003.38L2821.09,1003.42L2821.12,1003.47L2821.14,1003.51L2821.16,1003.55L2821.19,1003.59L2821.22,1003.63L2821.25,1003.66L2821.29,1003.7L2821.32,1003.73L2821.36,1003.77L2821.39,1003.8L2821.43,1003.82L2821.47,1003.85L2821.52,1003.88L2821.56,1003.9L2821.6,1003.92L2821.65,1003.94L2821.69,1003.95L2821.74,1003.97L2821.79,1003.98L2821.84,1003.99L2821.88,1003.99L2821.93,1004L2821.98,1004L2822.03,1004L2822.08,1004L2822.12,1003.99L2822.17,1003.99L2822.22,1003.98L2822.27,1003.96L2822.31,1003.95L2822.36,1003.93L2822.4,1003.92L2822.45,1003.89L2824.45,1002.89L2824.49,1002.87L2824.53,1002.85L2824.57,1002.82L2824.61,1002.79L2824.65,1002.76L2824.68,1002.73L2824.72,1002.7L2824.75,1002.66L2824.78,1002.62L2824.81,1002.59L2824.84,1002.55L2824.86,1002.5L2824.89,1002.46L2824.91,1002.42L2824.93,1002.38L2824.94,1002.33L2824.96,1002.28L2824.97,1002.24L2824.98,1002.19L2824.99,1002.14L2824.99,1002.1L2825,1002.05L2825,1002L2825,998L2825,997.952L2824.99,997.904L2824.99,997.856L2824.98,997.809L2824.97,997.762L2824.96,997.715L2824.94,997.669L2824.93,997.624L2824.91,997.58L2824.89,997.537L2824.86,997.495L2824.84,997.454L2824.81,997.414L2824.78,997.376L2824.75,997.339L2824.72,997.304L2824.68,997.27L2824.65,997.238L2824.61,997.208L2824.57,997.179L2824.53,997.153L2824.49,997.128L2824.45,997.106L2822.45,996.106L2822.4,996.085L2822.36,996.067L2822.31,996.05L2822.27,996.036L2822.22,996.024L2822.17,996.015L2822.12,996.008L2822.08,996.003L2822.03,996L2821.98,996L2821.93,996.002ZM2824,998L2824,1002L2822,1003L2822,997L2824,998Z" style="fill:rgb(51,51,51);"/>
            </g>
            <g transform="matrix(1,0,0,1,-1236,-214)">
                <path d="M2822.03,996L2822.08,996.003L2822.12,996.008L2822.17,996.015L2822.22,996.024L2822.27,996.036L2822.31,996.05L2822.36,996.066L2822.4,996.085L2822.45,996.106L2824.45,997.106L2824.49,997.128L2824.53,997.153L2824.57,997.179L2824.61,997.208L2824.65,997.238L2824.68,997.27L2824.72,997.304L2824.75,997.339L2824.78,997.376L2824.81,997.414L2824.84,997.454L2824.86,997.495L2824.89,997.537L2824.91,997.58L2824.93,997.624L2824.94,997.669L2824.96,997.715L2824.97,997.762L2824.98,997.809L2824.99,997.856L2824.99,997.904L2825,997.952L2825,998L2825,1002L2825,1002.05L2824.99,1002.1L2824.99,1002.14L2824.98,1002.19L2824.97,1002.24L2824.96,1002.28L2824.94,1002.33L2824.93,1002.38L2824.91,1002.42L2824.89,1002.46L2824.86,1002.5L2824.84,1002.55L2824.81,1002.59L2824.78,1002.62L2824.75,1002.66L2824.72,1002.7L2824.68,1002.73L2824.65,1002.76L2824.61,1002.79L2824.57,1002.82L2824.53,1002.85L2824.49,1002.87L2824.45,1002.89L2822.45,1003.89L2822.4,1003.92L2822.36,1003.93L2822.31,1003.95L2822.27,1003.96L2822.22,1003.98L2822.17,1003.99L2822.12,1003.99L2822.08,1004L2822.03,1004L2821.98,1004L2821.93,1004L2821.88,1003.99L2821.84,1003.99L2821.79,1003.98L2821.74,1003.97L2821.69,1003.95L2821.65,1003.94L2821.6,1003.92L2821.56,1003.9L2821.52,1003.88L2821.47,1003.85L2821.43,1003.82L2821.39,1003.8L2821.36,1003.77L2821.32,1003.73L2821.28,1003.7L2821.25,1003.66L2821.22,1003.63L2821.19,1003.59L2821.16,1003.55L2821.14,1003.51L2821.12,1003.47L2821.09,1003.42L2821.07,1003.38L2821.06,1003.33L2821.04,1003.29L2821.03,1003.24L2821.02,1003.19L2821.01,1003.14L2821.01,1003.1L2821,1003.05L2821,1003L2821,997L2821,996.952L2821.01,996.903L2821.01,996.855L2821.02,996.807L2821.03,996.76L2821.04,996.713L2821.06,996.667L2821.07,996.622L2821.09,996.578L2821.12,996.534L2821.14,996.492L2821.16,996.451L2821.19,996.411L2821.22,996.373L2821.25,996.336L2821.28,996.3L2821.32,996.266L2821.36,996.234L2821.39,996.204L2821.43,996.176L2821.47,996.149L2821.52,996.125L2821.56,996.102L2821.6,996.082L2821.65,996.064L2821.69,996.048L2821.74,996.034L2821.79,996.023L2821.84,996.014L2821.88,996.007L2821.93,996.002L2821.98,996L2822.03,996ZM2822,1003L2824,1002L2824,998L2822,997L2822,1003Z" style="fill:rgb(51,51,51);"/>
            </g>
            <g transform="matrix(-1,0,0,1,4395,-213)">
                <path d="M2822,994L2822,996" style="fill:none;stroke:rgb(51,51,51);stroke-width:1px;stroke-linecap:butt;"/>
            </g>
        </g>
    </g>
</svg>
