<?xml version="1.0" encoding="UTF-8" standalone="no"?>
<!DOCTYPE svg PUBLIC "-//W3C//DTD SVG 1.1//EN" "http://www.w3.org/Graphics/SVG/1.1/DTD/svg11.dtd">
<svg width="24px" height="24px" version="1.1" xmlns="http://www.w3.org/2000/svg" xmlns:xlink="http://www.w3.org/1999/xlink" xml:space="preserve" xmlns:serif="http://www.serif.com/" style="fill-rule:evenodd;clip-rule:evenodd;stroke-linecap:round;stroke-linejoin:round;stroke-miterlimit:100;">
    <g transform="matrix(1,0,0,1,-2707,-984)">
        <g id="object.regular.calendar" transform="matrix(1,0,0,1,1139,214)">
            <rect x="1568" y="770" width="24" height="24" style="fill:none;"/>
            <g>
                <g transform="matrix(1,0,0,0.777778,-641,7.33333)">
                    <rect x="2212" y="987" width="18" height="18" style="fill:none;stroke:rgb(51,51,51);stroke-width:2.23px;"/>
                </g>
                <g transform="matrix(1,0,0,1,-641,-214)">
                    <path d="M2216,987L2216,989" style="fill:none;stroke:rgb(51,51,51);stroke-width:2px;"/>
                </g>
                <g transform="matrix(1,0,0,1,-641,-214)">
                    <path d="M2226,989L2226,987" style="fill:none;stroke:rgb(51,51,51);stroke-width:2px;"/>
                </g>
                <g transform="matrix(1,0,0,1,-641,-215)">
                    <path d="M2212,993.5L2230,993.5" style="fill:none;stroke:rgb(51,51,51);stroke-width:1px;"/>
                </g>
            </g>
            <g>
                <g transform="matrix(1,0,0,1,-644,-214)">
                    <path d="M2220,996.5L2221.5,994.5L2221.5,1000.5" style="fill:none;stroke:rgb(51,51,51);stroke-width:1px;"/>
                </g>
                <g>
                    <g transform="matrix(1,0,0,1,-641,-214)">
                        <path d="M2221.5,994.5L2224.5,994.5L2223,996.5" style="fill:none;stroke:rgb(51,51,51);stroke-width:1px;"/>
                    </g>
                    <g transform="matrix(1,0,0,1,-641.5,-214)">
                        <path d="M2223.5,996.5C2224.6,996.5 2225.5,997.396 2225.5,998.5C2225.5,999.604 2224.6,1000.5 2223.5,1000.5" style="fill:none;stroke:rgb(51,51,51);stroke-width:1px;"/>
                    </g>
                    <g transform="matrix(0.707107,0.707107,-0.707107,0.707107,715.794,-1493.8)">
                        <path d="M2223.5,996.5C2224.6,996.5 2225.5,997.396 2225.5,998.5C2225.5,999.604 2224.6,1000.5 2223.5,1000.5" style="fill:none;stroke:rgb(51,51,51);stroke-width:1px;"/>
                    </g>
                </g>
            </g>
        </g>
    </g>
</svg>
