<?xml version="1.0" encoding="UTF-8" standalone="no"?>
<!DOCTYPE svg PUBLIC "-//W3C//DTD SVG 1.1//EN" "http://www.w3.org/Graphics/SVG/1.1/DTD/svg11.dtd">
<svg width="25px" height="24px" version="1.1" xmlns="http://www.w3.org/2000/svg" xmlns:xlink="http://www.w3.org/1999/xlink" xml:space="preserve" xmlns:serif="http://www.serif.com/" style="fill-rule:evenodd;clip-rule:evenodd;stroke-linejoin:round;stroke-miterlimit:1.41421;">
    <g transform="matrix(1,0,0,1,-1440,-1032)">
        <g id="object.thin.home" transform="matrix(1,0,0,1,-127.023,262)">
            <rect x="1568" y="770" width="24" height="24" style="fill:none;"/>
            <g transform="matrix(1,0,0,1,-829,-262)">
                <path d="M2414,1051C2414,1051.55 2413.55,1052 2413,1052C2411.08,1052 2406.92,1052 2405,1052C2404.45,1052 2404,1051.55 2404,1051C2404,1049.07 2404,1045 2404,1045C2404,1045 2403.61,1045 2403.1,1045C2402.71,1045 2402.35,1044.77 2402.19,1044.41C2402.03,1044.06 2402.09,1043.64 2402.35,1043.34C2404.08,1041.36 2406.91,1038.13 2408.25,1036.6C2408.44,1036.38 2408.71,1036.26 2409,1036.26C2409.29,1036.26 2409.56,1036.38 2409.75,1036.6C2411.09,1038.13 2413.92,1041.36 2415.65,1043.34C2415.91,1043.64 2415.97,1044.06 2415.81,1044.41C2415.65,1044.77 2415.29,1045 2414.9,1045C2414.39,1045 2414,1045 2414,1045C2414,1045 2414,1049.07 2414,1051ZM2413,1045L2405,1045L2405,1051L2407,1051C2407,1051 2407,1048.46 2407,1047C2407,1046.45 2407.45,1046 2408,1046C2408.61,1046 2409.39,1046 2410,1046C2410.55,1046 2411,1046.45 2411,1047C2411,1048.46 2411,1051 2411,1051L2413,1051L2413,1045ZM2408,1047L2408,1051L2410,1051L2410,1047L2408,1047ZM2403.1,1044L2414.9,1044L2409,1037.26L2403.1,1044Z" style="fill:rgb(51,51,51);"/>
            </g>
        </g>
    </g>
</svg>
