<?xml version="1.0" encoding="UTF-8" standalone="no"?>
<!DOCTYPE svg PUBLIC "-//W3C//DTD SVG 1.1//EN" "http://www.w3.org/Graphics/SVG/1.1/DTD/svg11.dtd">
<svg width="24px" height="24px" version="1.1" xmlns="http://www.w3.org/2000/svg" xmlns:xlink="http://www.w3.org/1999/xlink" xml:space="preserve" xmlns:serif="http://www.serif.com/" style="fill-rule:evenodd;clip-rule:evenodd;stroke-linejoin:round;stroke-miterlimit:1.41421;">
    <g transform="matrix(1,0,0,1,-1679,-1032)">
        <g id="object.thin.document" transform="matrix(0.800768,0,0,0.984948,1679,1032)">
            <rect x="0" y="0" width="29.971" height="24.367" style="fill:none;"/>
            <g transform="matrix(1.2488,0,0,1.01528,-1305,-828.47)">
                <path d="M1050,819C1050,818.735 1050.11,818.48 1050.3,818.293C1050.48,818.105 1050.74,818 1051,818C1053.28,818 1058.75,818 1060.3,818C1060.56,818 1060.82,818.105 1061,818.293C1061.79,819.077 1063.93,821.216 1064.71,822C1064.9,822.188 1065,822.442 1065,822.707C1065,824.768 1065,833.937 1065,837C1065,837.552 1064.56,838 1064,838C1061.28,838 1053.73,838 1051,838C1050.74,838 1050.48,837.895 1050.3,837.707C1050.11,837.52 1050,837.265 1050,837C1050,833.586 1050,822.414 1050,819ZM1060,819L1051,819L1051,837L1064,837L1064,823C1064,823 1062.19,823 1061,823C1060.74,823 1060.48,822.895 1060.3,822.708C1060.11,822.52 1060,822.266 1060,822C1060,820.815 1060,819 1060,819ZM1059,830.513C1059,830.643 1058.95,830.766 1058.86,830.858C1058.77,830.949 1058.64,831 1058.52,831C1057.24,831 1053.8,831 1052.5,831C1052.37,831 1052.24,830.948 1052.15,830.854C1052.06,830.76 1052,830.633 1052,830.5C1052,830.5 1052,830.5 1052,830.499C1052,830.367 1052.06,830.24 1052.15,830.147C1052.24,830.053 1052.37,830 1052.5,830C1053.79,830 1057.19,830 1058.49,830C1058.63,830 1058.76,830.054 1058.85,830.15C1058.95,830.246 1059,830.377 1059,830.512C1059,830.513 1059,830.513 1059,830.513ZM1062.5,828C1062.78,828 1063,828.224 1063,828.5C1063,828.501 1063,828.501 1063,828.501C1063,828.634 1062.95,828.761 1062.86,828.854C1062.76,828.948 1062.64,829 1062.5,829C1060.67,829 1054.34,829 1052.5,829C1052.23,829 1052,828.777 1052,828.5C1052,828.5 1052,828.5 1052,828.499C1052,828.367 1052.06,828.24 1052.15,828.147C1052.24,828.053 1052.37,828 1052.5,828C1054.33,828 1060.67,828 1062.5,828ZM1062.5,824C1062.78,824 1063,824.224 1063,824.5C1063,824.501 1063,824.501 1063,824.501C1063,824.634 1062.95,824.761 1062.86,824.854C1062.76,824.948 1062.64,825 1062.5,825C1060.67,825 1054.34,825 1052.5,825C1052.23,825 1052,824.777 1052,824.5C1052,824.5 1052,824.5 1052,824.499C1052,824.367 1052.06,824.24 1052.15,824.147C1052.24,824.053 1052.37,824 1052.5,824C1054.33,824 1060.67,824 1062.5,824ZM1058.5,822.001C1058.78,822.001 1059,822.224 1059,822.5C1059,822.5 1059,822.5 1059,822.501C1059,822.777 1058.78,823 1058.5,823.001C1057.21,823.001 1053.79,823.001 1052.5,823.001C1052.23,823.001 1052,822.777 1052,822.502C1052,822.501 1052,822.501 1052,822.501C1052,822.224 1052.23,822.001 1052.5,822.001C1053.79,822.001 1057.22,822.001 1058.5,822.001ZM1061,822L1063.3,822.001L1061,819.707L1061,822ZM1058.5,820C1058.78,820 1059,820.224 1059,820.499C1059,820.5 1059,820.5 1059,820.5C1059,820.777 1058.78,821 1058.5,821C1057.21,821 1053.79,821 1052.5,821C1052.23,821 1052,820.777 1052,820.501C1052,820.501 1052,820.501 1052,820.5C1052,820.224 1052.23,820 1052.5,820C1053.79,820 1057.22,820 1058.5,820Z" style="fill:rgb(51,51,51);"/>
            </g>
        </g>
    </g>
</svg>
