<?xml version="1.0" encoding="UTF-8" standalone="no"?>
<!DOCTYPE svg PUBLIC "-//W3C//DTD SVG 1.1//EN" "http://www.w3.org/Graphics/SVG/1.1/DTD/svg11.dtd">
<svg width="25px" height="25px" version="1.1" xmlns="http://www.w3.org/2000/svg" xmlns:xlink="http://www.w3.org/1999/xlink" xml:space="preserve" xmlns:serif="http://www.serif.com/" style="fill-rule:evenodd;clip-rule:evenodd;stroke-linejoin:round;stroke-miterlimit:1.41421;">
    <g transform="matrix(1,0,0,1,-484,-1503)">
        <g id="object.thin.chatBubbleCircle" transform="matrix(1,0,0,1,-1083.85,733.119)">
            <rect x="1568" y="770" width="24" height="24" style="fill:none;"/>
            <g transform="matrix(1,0,0,1,1083.85,-733.119)">
                <path d="M489.918,1518.3C489.43,1517.35 489.154,1516.26 489.154,1515.12C489.154,1511.26 492.291,1508.12 496.154,1508.12C500.018,1508.12 503.154,1511.26 503.154,1515.12C503.154,1518.98 500.018,1522.12 496.154,1522.12C495.009,1522.12 493.928,1521.84 492.973,1521.36C492.973,1521.36 491.701,1521.61 490.625,1521.83C490.297,1521.89 489.958,1521.79 489.722,1521.55C489.486,1521.32 489.383,1520.98 489.448,1520.65C489.664,1519.57 489.918,1518.3 489.918,1518.3ZM492.783,1520.37C493.007,1520.33 493.24,1520.36 493.442,1520.47C494.256,1520.88 495.178,1521.12 496.154,1521.12C499.466,1521.12 502.154,1518.43 502.154,1515.12C502.154,1511.81 499.466,1509.12 496.154,1509.12C492.843,1509.12 490.154,1511.81 490.154,1515.12C490.154,1516.1 490.388,1517.02 490.803,1517.83C490.908,1518.04 490.941,1518.27 490.896,1518.49C490.754,1519.22 490.429,1520.84 490.429,1520.84C490.429,1520.84 492.052,1520.52 492.783,1520.37ZM495.654,1516.12C495.787,1516.12 495.914,1516.17 496.008,1516.27C496.102,1516.36 496.154,1516.49 496.154,1516.62C496.154,1516.75 496.102,1516.88 496.008,1516.97C495.914,1517.07 495.787,1517.12 495.654,1517.12C494.886,1517.12 493.423,1517.12 492.654,1517.12C492.522,1517.12 492.395,1517.07 492.301,1516.97C492.207,1516.88 492.154,1516.75 492.154,1516.62C492.154,1516.49 492.207,1516.36 492.301,1516.27C492.395,1516.17 492.522,1516.12 492.654,1516.12C493.423,1516.12 494.886,1516.12 495.654,1516.12ZM499.654,1513.12C499.93,1513.12 500.154,1513.34 500.154,1513.62C500.154,1513.89 499.93,1514.12 499.654,1514.12C498.218,1514.12 494.091,1514.12 492.654,1514.12C492.378,1514.12 492.154,1513.89 492.154,1513.62C492.154,1513.34 492.378,1513.12 492.654,1513.12C494.091,1513.12 498.218,1513.12 499.654,1513.12Z" style="fill:rgb(51,51,51);"/>
            </g>
        </g>
    </g>
</svg>
