<?xml version="1.0" encoding="UTF-8" standalone="no"?>
<!DOCTYPE svg PUBLIC "-//W3C//DTD SVG 1.1//EN" "http://www.w3.org/Graphics/SVG/1.1/DTD/svg11.dtd">
<svg width="24px" height="24px" version="1.1" xmlns="http://www.w3.org/2000/svg" xmlns:xlink="http://www.w3.org/1999/xlink" xml:space="preserve" xmlns:serif="http://www.serif.com/" style="fill-rule:evenodd;clip-rule:evenodd;stroke-linejoin:round;stroke-miterlimit:1.41421;">
    <g transform="matrix(1,0,0,1,-2733,-1032)">
        <g id="object.thin.smartphoneButton" transform="matrix(1,0,0,1,1165,262)">
            <rect x="1568" y="770" width="24" height="24" style="fill:none;"/>
            <g transform="matrix(1,0,0,1,-1069,-214)">
                <path d="M2655,1004C2655,1004.53 2654.79,1005.04 2654.41,1005.41C2654.04,1005.79 2653.53,1006 2653,1006C2650.78,1006 2647.22,1006 2645,1006C2644.47,1006 2643.96,1005.79 2643.59,1005.41C2643.21,1005.04 2643,1004.53 2643,1004C2643,1000.17 2643,991.832 2643,988C2643,987.47 2643.21,986.961 2643.59,986.586C2643.96,986.211 2644.47,986 2645,986C2647.22,986 2650.78,986 2653,986C2653.53,986 2654.04,986.211 2654.41,986.586C2654.79,986.961 2655,987.47 2655,988C2655,991.832 2655,1000.17 2655,1004ZM2654,988C2654,987.735 2653.89,987.48 2653.71,987.293C2653.52,987.105 2653.26,987 2653,987C2651.08,987 2646.92,987 2645,987C2644.74,987 2644.48,987.105 2644.29,987.293C2644.11,987.48 2644,987.735 2644,988C2644,991.151 2644,1000.85 2644,1004C2644,1004.26 2644.11,1004.52 2644.29,1004.71C2644.48,1004.89 2644.74,1005 2645,1005C2646.92,1005 2651.08,1005 2653,1005C2653.26,1005 2653.52,1004.89 2653.71,1004.71C2653.89,1004.52 2654,1004.26 2654,1004C2654,1000.85 2654,991.151 2654,988Z" style="fill:rgb(51,51,51);"/>
            </g>
            <g transform="matrix(2.00008,0,0,2,-3911.21,-1216)">
                <ellipse cx="2745.5" cy="1002.5" rx="0.5" ry="0.5" style="fill:rgb(51,51,51);"/>
            </g>
        </g>
    </g>
</svg>
