<?xml version="1.0" encoding="UTF-8" standalone="no"?><!DOCTYPE svg PUBLIC "-//W3C//DTD SVG 1.1//EN" "http://www.w3.org/Graphics/SVG/1.1/DTD/svg11.dtd"><svg width="100%" height="100%" viewBox="0 0 24 24" version="1.1" xmlns="http://www.w3.org/2000/svg" xmlns:xlink="http://www.w3.org/1999/xlink" xml:space="preserve" xmlns:serif="http://www.serif.com/" style="fill-rule:evenodd;clip-rule:evenodd;stroke-linejoin:round;stroke-miterlimit:1.41421;"><rect id="object.regular.folder" x="0" y="0" width="24" height="24" style="fill:none;"/><path d="M2,5c0,-0.265 0.105,-0.52 0.293,-0.707c0.187,-0.188 0.442,-0.293 0.707,-0.293c2.659,0 9.846,0 12,0c0.379,0 0.725,0.214 0.894,0.553c0.296,0.592 0.724,1.447 0.724,1.447c0,0 2.825,0 4.382,0c0.552,0 1,0.448 1,1c0,2.577 0,9.423 0,12c0,0.552 -0.448,1 -1,1c-3.414,0 -14.586,0 -18,0c-0.265,0 -0.52,-0.105 -0.707,-0.293c-0.188,-0.187 -0.293,-0.442 -0.293,-0.707c0,-2.873 0,-11.127 0,-14Zm8,3c-0.379,0 -0.725,-0.214 -0.894,-0.553c-0.296,-0.592 -0.724,-1.447 -0.724,-1.447l-4.382,0l0,12l16,0l0,-10c0,0 -7.732,0 -10,0Zm2,8.511c0,0.13 -0.052,0.254 -0.143,0.346c-0.092,0.091 -0.216,0.143 -0.346,0.143c-1.28,0 -4.719,0 -6.011,0c-0.276,0 -0.5,-0.224 -0.5,-0.5c0,-0.276 0.224,-0.5 0.5,-0.5c1.285,0 4.694,0 5.99,0c0.282,0 0.51,0.228 0.51,0.51c0,0 0,0.001 0,0.001Zm3,-11.511l-4.882,0l0.5,1l4.882,0l-0.5,-1Z" style="fill:#333;"/></svg>