<?xml version="1.0" encoding="UTF-8" standalone="no"?>
<!DOCTYPE svg PUBLIC "-//W3C//DTD SVG 1.1//EN" "http://www.w3.org/Graphics/SVG/1.1/DTD/svg11.dtd">
<svg width="24px" height="24px" version="1.1" xmlns="http://www.w3.org/2000/svg" xmlns:xlink="http://www.w3.org/1999/xlink" xml:space="preserve" xmlns:serif="http://www.serif.com/" style="fill-rule:evenodd;clip-rule:evenodd;stroke-linejoin:round;stroke-miterlimit:1.41421;">
    <g transform="matrix(1,0,0,1,-1251,-984)">
        <g id="object.regular.compass" transform="matrix(1,0,0,1,-317,214)">
            <rect x="1568" y="770" width="24" height="24" style="fill:none;"/>
            <g transform="matrix(1,0,0,1,666.994,594)">
                <path d="M913.006,178C918.525,178 923.006,182.481 923.006,188C923.006,193.519 918.525,198 913.006,198C907.487,198 903.006,193.519 903.006,188C903.006,182.481 907.487,178 913.006,178ZM913.006,180C917.421,180 921.006,183.585 921.006,188C921.006,192.415 917.421,196 913.006,196C908.591,196 905.006,192.415 905.006,188C905.006,183.585 908.591,180 913.006,180Z" style="fill:rgb(51,51,51);"/>
            </g>
            <g transform="matrix(0.5,0,0,1,469.994,-214)">
                <path d="M2220,987.5C2220,987.367 2219.89,987.24 2219.71,987.146C2219.52,987.053 2219.26,987 2219,987C2218.74,987 2218.48,987.053 2218.29,987.146C2218.11,987.24 2218,987.367 2218,987.5C2218,988.055 2218,988.945 2218,989.5C2218,989.633 2218.11,989.76 2218.29,989.854C2218.48,989.947 2218.74,990 2219,990C2219.26,990 2219.52,989.947 2219.71,989.854C2219.89,989.76 2220,989.633 2220,989.5C2220,988.945 2220,988.055 2220,987.5Z" style="fill:rgb(51,51,51);"/>
            </g>
            <g transform="matrix(0.501465,0,0,1,466.742,-199)">
                <path d="M2220,987.501C2220,987.368 2219.89,987.241 2219.71,987.147C2219.52,987.053 2219.27,987 2219,987C2219,987 2219,987 2219,987C2218.73,987 2218.48,987.053 2218.29,987.147C2218.11,987.241 2218,987.368 2218,987.501C2218,988.056 2218,988.944 2218,989.499C2218,989.632 2218.11,989.759 2218.29,989.853C2218.48,989.947 2218.73,990 2219,990C2219,990 2219,990 2219,990C2219.27,990 2219.52,989.947 2219.71,989.853C2219.89,989.759 2220,989.632 2220,989.499C2220,988.944 2220,988.056 2220,987.501Z" style="fill:rgb(51,51,51);"/>
            </g>
            <g transform="matrix(1.5,0,0,0.333333,-1756,452)">
                <path d="M2220,988.5C2220,988.102 2219.97,987.721 2219.9,987.439C2219.84,987.158 2219.76,987 2219.67,987C2219.3,987 2218.7,987 2218.33,987C2218.24,987 2218.16,987.158 2218.1,987.439C2218.03,987.721 2218,988.102 2218,988.5C2218,988.5 2218,988.5 2218,988.5C2218,988.898 2218.03,989.279 2218.1,989.561C2218.16,989.842 2218.24,990 2218.33,990C2218.7,990 2219.3,990 2219.67,990C2219.76,990 2219.84,989.842 2219.9,989.561C2219.97,989.279 2220,988.898 2220,988.5C2220,988.5 2220,988.5 2220,988.5Z" style="fill:rgb(51,51,51);"/>
            </g>
            <g transform="matrix(1.5,0,0,0.333333,-1741,452)">
                <path d="M2220,988.5C2220,988.102 2219.97,987.721 2219.9,987.439C2219.84,987.158 2219.76,987 2219.67,987C2219.3,987 2218.7,987 2218.33,987C2218.24,987 2218.16,987.158 2218.1,987.439C2218.03,987.721 2218,988.102 2218,988.5C2218,988.5 2218,988.5 2218,988.5C2218,988.898 2218.03,989.279 2218.1,989.561C2218.16,989.842 2218.24,990 2218.33,990C2218.7,990 2219.3,990 2219.67,990C2219.76,990 2219.84,989.842 2219.9,989.561C2219.97,989.279 2220,988.898 2220,988.5C2220,988.5 2220,988.5 2220,988.5Z" style="fill:rgb(51,51,51);"/>
            </g>
            <g transform="matrix(1,0,0,1,-5.00293,-94)">
                <path d="M1586.86,877.515C1586.77,877.655 1586.65,877.773 1586.52,877.857C1585.82,878.277 1583.53,879.648 1581.52,880.857C1581.12,881.094 1580.62,881.032 1580.29,880.707C1579.97,880.383 1579.91,879.879 1580.14,879.485C1581.35,877.47 1582.72,875.185 1583.14,874.485C1583.23,874.345 1583.35,874.227 1583.49,874.143C1584.18,873.723 1586.47,872.352 1588.49,871.143C1588.88,870.906 1589.38,870.968 1589.71,871.293C1590.03,871.617 1590.09,872.121 1589.86,872.515C1588.65,874.53 1587.28,876.815 1586.86,877.515ZM1581,880L1586,877L1584,875L1581,880Z" style="fill:rgb(51,51,51);"/>
            </g>
        </g>
    </g>
</svg>
