<?xml version="1.0" encoding="UTF-8" standalone="no"?>
<!DOCTYPE svg PUBLIC "-//W3C//DTD SVG 1.1//EN" "http://www.w3.org/Graphics/SVG/1.1/DTD/svg11.dtd">
<svg width="24px" height="24px" version="1.1" xmlns="http://www.w3.org/2000/svg" xmlns:xlink="http://www.w3.org/1999/xlink" xml:space="preserve" xmlns:serif="http://www.serif.com/" style="fill-rule:evenodd;clip-rule:evenodd;stroke-linejoin:round;stroke-miterlimit:1.41421;">
    <g transform="matrix(1,0,0,1,-2659,-1032)">
        <g id="object.thin.tag" transform="matrix(1,0,0,1,1091,262)">
            <rect x="1568" y="770" width="24" height="24" style="fill:none;"/>
            <g transform="matrix(1,0,0,1.25,-158,-463)">
                <path d="M1742.08,991.203L1742.16,991.21L1742.23,991.222L1742.31,991.239L1742.38,991.261L1742.45,991.287L1742.52,991.318L1742.59,991.353L1742.65,991.392L1742.71,991.434L1747.71,995.434L1747.76,995.483L1747.81,995.535L1747.86,995.59L1747.9,995.649L1747.93,995.709L1747.96,995.772L1747.98,995.836L1747.99,995.901L1748,995.967L1748,996.033L1747.99,996.099L1747.98,996.164L1747.96,996.228L1747.93,996.291L1747.9,996.351L1747.86,996.41L1747.81,996.465L1747.76,996.517L1747.71,996.566L1742.71,1000.57L1742.65,1000.61L1742.59,1000.65L1742.52,1000.68L1742.45,1000.71L1742.38,1000.74L1742.31,1000.76L1742.23,1000.78L1742.16,1000.79L1742.08,1000.8L1742,1000.8L1729,1000.8L1728.92,1000.8L1728.84,1000.79L1728.75,1000.77L1728.67,1000.76L1728.6,1000.73L1728.52,1000.7L1728.45,1000.67L1728.39,1000.63L1728.32,1000.59L1728.26,1000.54L1728.21,1000.49L1728.16,1000.44L1728.12,1000.38L1728.08,1000.32L1728.05,1000.26L1728.03,1000.2L1728.01,1000.13L1728,1000.07L1728,1000L1728,992L1728,991.934L1728.01,991.868L1728.03,991.804L1728.05,991.74L1728.08,991.679L1728.12,991.619L1728.16,991.562L1728.21,991.509L1728.26,991.458L1728.32,991.411L1728.39,991.369L1728.45,991.33L1728.52,991.296L1728.6,991.267L1728.67,991.243L1728.75,991.225L1728.84,991.211L1728.92,991.203L1729,991.2L1742,991.2L1742.08,991.203ZM1729,992L1729,1000L1742,1000L1747,996L1742,992L1729,992Z" style="fill:rgb(51,51,51);"/>
            </g>
            <g transform="matrix(0.666667,0,0,0.666667,-198,118)">
                <circle cx="2674.5" cy="996" r="1.5" style="fill:rgb(51,51,51);"/>
            </g>
        </g>
    </g>
</svg>
