<svg width="24" height="24" viewBox="0 0 24 24" fill="none" xmlns="http://www.w3.org/2000/svg">
<path fill-rule="evenodd" clip-rule="evenodd" d="M22 8C22 8.55 21.55 9 21 9C21 9 21 16.29 21 19C21 19.55 20.55 20 20 20C16.85 20 7.15 20 4 20C3.45 20 3 19.55 3 19C3 16.29 3 9 3 9C2.45 9 2 8.55 2 8C2 7.13 2 5.87 2 5C2 4.74 2.11004 4.48004 2.29004 4.29004C2.48004 4.11004 2.74 4 3 4C6.41 4 17.59 4 21 4C21.26 4 21.52 4.11004 21.71 4.29004C21.89 4.48004 22 4.74 22 5C22 5.87 22 7.13 22 8ZM20 9H4V19H20V9ZM21 5H3V8H21V5Z" fill="black"/>
<path fill-rule="evenodd" clip-rule="evenodd" d="M9.14645 11.1464C9.34171 10.9512 9.65829 10.9512 9.85355 11.1464L12 13.2929L14.1464 11.1464C14.3417 10.9512 14.6583 10.9512 14.8536 11.1464C15.0488 11.3417 15.0488 11.6583 14.8536 11.8536L12.7071 14L14.8536 16.1464C15.0488 16.3417 15.0488 16.6583 14.8536 16.8536C14.6583 17.0488 14.3417 17.0488 14.1464 16.8536L12 14.7071L9.85355 16.8536C9.65829 17.0488 9.34171 17.0488 9.14645 16.8536C8.95118 16.6583 8.95118 16.3417 9.14645 16.1464L11.2929 14L9.14645 11.8536C8.95118 11.6583 8.95118 11.3417 9.14645 11.1464Z" fill="black"/>
<path d="M3.5 8.5V19.5H20.5V8.5L21.5 8.50001V4.50001L2.5 4.5V8.5H3.5Z" fill="black" fill-opacity="0.1"/>
</svg>
