<svg width="24" height="24" viewBox="0 0 24 24" fill="none" xmlns="http://www.w3.org/2000/svg">
<path fill-rule="evenodd" clip-rule="evenodd" d="M22 19C22 19.27 21.8899 19.5199 21.7099 19.7099C21.5199 19.8899 21.27 20 21 20C17.59 20 6.41 20 3 20C2.74 20 2.48004 19.8899 2.29004 19.7099C2.11004 19.5199 2 19.27 2 19C2 16.13 2 7.86999 2 5C2 4.74 2.11004 4.48004 2.29004 4.29004C2.48004 4.11004 2.74 4 3 4C5.66 4 12.85 4 15 4C15.38 4 15.73 4.21005 15.89 4.55005C16.19 5.14005 16.62 6 16.62 6C16.62 6 19.44 6 21 6C21.27 6 21.5199 6.11003 21.7099 6.29003C21.8899 6.48003 22 6.73999 22 6.99999C22 9.57999 22 16.42 22 19ZM8.99999 5H3V19H21V6.99999C21 6.99999 12.94 6.99999 10.62 6.99999C10.24 6.99999 9.88996 6.78995 9.71996 6.44995C9.42996 5.85995 8.99999 5 8.99999 5ZM15 5H10.12L10.62 6H15.5L15 5Z" fill="black"/>
<path fill-rule="evenodd" clip-rule="evenodd" d="M9.14645 10.1464C9.34171 9.95118 9.65829 9.95118 9.85355 10.1464L12 12.2929L14.1464 10.1464C14.3417 9.95118 14.6583 9.95118 14.8536 10.1464C15.0488 10.3417 15.0488 10.6583 14.8536 10.8536L12.7071 13L14.8536 15.1464C15.0488 15.3417 15.0488 15.6583 14.8536 15.8536C14.6583 16.0488 14.3417 16.0488 14.1464 15.8536L12 13.7071L9.85355 15.8536C9.65829 16.0488 9.34171 16.0488 9.14645 15.8536C8.95118 15.6583 8.95118 15.3417 9.14645 15.1464L11.2929 13L9.14645 10.8536C8.95118 10.6583 8.95118 10.3417 9.14645 10.1464Z" fill="black"/>
<path d="M2.5 4.5V19.5H21.5V6.5H10.5L9.5 4.5H2.5Z" fill="black" fill-opacity="0.1"/>
</svg>
