<svg width="24" height="24" viewBox="0 0 24 24" fill="none" xmlns="http://www.w3.org/2000/svg">
<path fill-rule="evenodd" clip-rule="evenodd" d="M7 3C7.55228 3 8 3.44772 8 4V6C8 6.55228 7.55228 7 7 7C6.44772 7 6 6.55228 6 6V4C6 3.44772 6.44772 3 7 3Z" fill="black"/>
<path fill-rule="evenodd" clip-rule="evenodd" d="M17 3C17.5523 3 18 3.44772 18 4V6C18 6.55228 17.5523 7 17 7C16.4477 7 16 6.55228 16 6V4C16 3.44772 16.4477 3 17 3Z" fill="black"/>
<path fill-rule="evenodd" clip-rule="evenodd" d="M2.5 9.5C2.5 9.22386 2.72386 9 3 9H21C21.2761 9 21.5 9.22386 21.5 9.5C21.5 9.77614 21.2761 10 21 10H3C2.72386 10 2.5 9.77614 2.5 9.5Z" fill="black"/>
<path fill-rule="evenodd" clip-rule="evenodd" d="M2 6C2 5.44772 2.44772 5 3 5H21C21.5523 5 22 5.44772 22 6V20C22 20.5523 21.5523 21 21 21H3C2.44772 21 2 20.5523 2 20V6ZM4 7V19H20V7H4Z" fill="black"/>
<rect x="6" y="12" width="12" height="1" rx="0.5" fill="black"/>
<rect x="6" y="15" width="8" height="1" rx="0.5" fill="black"/>
<rect x="3" y="6" width="18" height="3" fill="black" fill-opacity="0.1"/>
</svg>
