<svg width="24" height="24" viewBox="0 0 24 24" fill="none" xmlns="http://www.w3.org/2000/svg">
<path fill-rule="evenodd" clip-rule="evenodd" d="M11.2929 4.29289C11.4804 4.10536 11.7348 4 12 4H19C19.5523 4 20 4.44772 20 5V12C20 12.2652 19.8946 12.5196 19.7071 12.7071L10.7071 21.7071C10.3166 22.0976 9.68342 22.0976 9.29289 21.7071L2.29289 14.7071C1.90237 14.3166 1.90237 13.6834 2.29289 13.2929L11.2929 4.29289ZM12.4142 6L4.41421 14L10 19.5858L18 11.5858V6H12.4142Z" fill="black"/>
<path d="M16 9C16 9.55228 15.5523 10 15 10C14.4477 10 14 9.55228 14 9C14 8.44772 14.4477 8 15 8C15.5523 8 16 8.44772 16 9Z" fill="black"/>
<path d="M12 5L3 14L10 21L19 12V5H12Z" fill="black" fill-opacity="0.1"/>
</svg>
