<svg width="24" height="24" viewBox="0 0 24 24" fill="none" xmlns="http://www.w3.org/2000/svg">
<path fill-rule="evenodd" clip-rule="evenodd" d="M15.08 6.00374L15.16 6.01251L15.23 6.02747L15.3101 6.04875L15.38 6.07622L15.45 6.10872L15.52 6.14748L15.59 6.19127L15.65 6.24002L15.71 6.29251L20.71 11.2925L20.76 11.3537L20.8101 11.4187L20.86 11.4875L20.9 11.5612L20.9301 11.6362L20.96 11.715L20.98 11.795L20.99 11.8762L21 11.9587V12.0413L20.99 12.1237L20.98 12.205L20.96 12.285L20.9301 12.3638L20.9 12.4388L20.86 12.5125L20.8101 12.5813L20.76 12.6463L20.71 12.7075L15.71 17.7125L15.65 17.7625L15.59 17.8125L15.52 17.85L15.45 17.8875L15.38 17.925L15.3101 17.95L15.23 17.975L15.16 17.9875L15.08 18H15H4H3.92004L3.83997 17.9875L3.75 17.9625L3.67004 17.95L3.59998 17.9125L3.52002 17.875L3.44995 17.8375L3.39001 17.7875L3.31995 17.7375L3.26001 17.675L3.20996 17.6125L3.16003 17.55L3.12 17.475L3.07996 17.4L3.05005 17.325L3.03003 17.25L3.01001 17.1625L3 17.0875V17V6.99998V6.91751L3.01001 6.83496L3.03003 6.755L3.05005 6.67497L3.07996 6.59875L3.12 6.52376L3.16003 6.4525L3.20996 6.3862L3.26001 6.32249L3.31995 6.26375L3.39001 6.21126L3.44995 6.16251L3.52002 6.12001L3.59998 6.08377L3.67004 6.05371L3.75 6.0312L3.83997 6.01373L3.92004 6.00374L4 6H15L15.08 6.00374ZM4 6.99998V17H15L20 12L15 6.99998H4Z" fill="black"/>
<path d="M4 7V17H15L20 12L15 7H4Z" fill="black" fill-opacity="0.1"/>
</svg>
