<svg width="24" height="24" viewBox="0 0 24 24" fill="none" xmlns="http://www.w3.org/2000/svg">
<path fill-rule="evenodd" clip-rule="evenodd" d="M22 18C22 18.55 21.55 19 21 19C17.59 19 6.41 19 3 19C2.74 19 2.48004 18.89 2.29004 18.71C2.11004 18.52 2 18.26 2 18C2 16.31 2 12.963 2 12C2 11.826 2.04988 11.655 2.12988 11.504C2.73988 10.442 5.26988 6.01003 6.12988 4.50403C6.30988 4.19203 6.64 4 7 4C8.92 4 15.08 4 17 4C17.36 4 17.6901 4.19203 17.8701 4.50403C18.7301 6.01003 21.2601 10.442 21.8701 11.504C21.9501 11.655 22 11.826 22 12C22 12.963 22 16.31 22 18ZM6.59009 13H4V17H20V13H17.4099C17.4099 13 16.26 14.152 15.71 14.707C15.52 14.895 15.26 15 15 15C13.78 15 10.22 15 9 15C8.74 15 8.48004 14.895 8.29004 14.707C7.74004 14.152 6.59009 13 6.59009 13ZM16.4199 6H7.58008L4.71997 11C4.71997 11 6.24 11 7 11C7.26 11 7.51996 11.105 7.70996 11.293C8.25996 11.848 9.40991 13 9.40991 13H14.5901C14.5901 13 15.74 11.848 16.29 11.293C16.48 11.105 16.74 11 17 11C17.76 11 19.28 11 19.28 11L16.4199 6ZM17 9.5C17 9.633 16.9501 9.76 16.8501 9.854C16.7601 9.947 16.63 10 16.5 10C14.79 10 9.21 10 7.5 10C7.37 10 7.2399 9.947 7.1499 9.854C7.0499 9.76 7 9.633 7 9.5C7 9.367 7.0499 9.24 7.1499 9.146C7.2399 9.053 7.37 9 7.5 9C9.21 9 14.79 9 16.5 9C16.63 9 16.7601 9.053 16.8501 9.146C16.9501 9.24 17 9.367 17 9.5ZM16 7.50098C16 7.63298 15.9501 7.76 15.8501 7.854C15.7601 7.947 15.63 8 15.5 8C14.07 8 9.93 8 8.5 8C8.37 8 8.2399 7.947 8.1499 7.854C8.0499 7.76 8 7.63298 8 7.50098V7.5C8 7.224 8.22 7 8.5 7C9.94 7 14.06 7 15.5 7C15.78 7 16 7.224 16 7.5V7.50098Z" fill="black"/>
<path d="M3 12V18H21V12H17L15 14H9L7 12H3Z" fill="black" fill-opacity="0.1"/>
</svg>
