<svg width="24" height="24" viewBox="0 0 24 24" fill="none" xmlns="http://www.w3.org/2000/svg">
<path fill-rule="evenodd" clip-rule="evenodd" d="M8 4C8 3.44772 7.55228 3 7 3C6.44772 3 6 3.44772 6 4V5H3C2.44772 5 2 5.44772 2 6V20C2 20.5523 2.44772 21 3 21H21C21.5523 21 22 20.5523 22 20V6C22 5.44772 21.5523 5 21 5H18V4C18 3.44772 17.5523 3 17 3C16.4477 3 16 3.44772 16 4V5H8V4ZM17 7H7H4V9H20V7H17ZM20 10H4V19H20V10ZM13 11C12.4477 11 12 11.4477 12 12V17C12 17.5523 12.4477 18 13 18H18C18.5523 18 19 17.5523 19 17V12C19 11.4477 18.5523 11 18 11H13ZM18 17V12H13V17H18Z" fill="black"/>
<rect x="13" y="12" width="5" height="5" fill="black" fill-opacity="0.1"/>
<rect x="3" y="6" width="18" height="3" fill="black" fill-opacity="0.1"/>
</svg>
