<svg width="24" height="24" viewBox="0 0 24 24" fill="none" xmlns="http://www.w3.org/2000/svg">
<path fill-rule="evenodd" clip-rule="evenodd" d="M22 19C22 19.27 21.8899 19.5199 21.7099 19.7099C21.5199 19.8899 21.27 20 21 20C17.59 20 6.41 20 3 20C2.74 20 2.48004 19.8899 2.29004 19.7099C2.11004 19.5199 2 19.27 2 19C2 16.13 2 7.86999 2 5C2 4.74 2.11004 4.48004 2.29004 4.29004C2.48004 4.11004 2.74 4 3 4C5.66 4 12.85 4 15 4C15.38 4 15.73 4.21005 15.89 4.55005C16.19 5.14005 16.62 6 16.62 6C16.62 6 19.44 6 21 6C21.27 6 21.5199 6.11003 21.7099 6.29003C21.8899 6.48003 22 6.73999 22 6.99999C22 9.57999 22 16.42 22 19ZM8.99999 5H3V19H21V6.99999C21 6.99999 12.94 6.99999 10.62 6.99999C10.24 6.99999 9.88996 6.78995 9.71996 6.44995C9.42996 5.85995 8.99999 5 8.99999 5ZM15 5H10.12L10.62 6H15.5L15 5Z" fill="black"/>
<path fill-rule="evenodd" clip-rule="evenodd" d="M10 12V13C9.44772 13 9 13.4477 9 14V16C9 16.5523 9.44772 17 10 17H14C14.5523 17 15 16.5523 15 16V14C15 13.4477 14.5523 13 14 13V12C14 10.8954 13.1046 10 12 10C10.8954 10 10 10.8954 10 12ZM13 13V12C13 11.4477 12.5523 11 12 11C11.4477 11 11 11.4477 11 12V13H13ZM11 14H10V16H14V14H13H11Z" fill="black"/>
<path fill-rule="evenodd" clip-rule="evenodd" d="M2.5 19.5V4.5H9.5L10.5 6.5H21.5V19.5H2.5ZM9.5 16.5V13.5H14.5V16.5H9.5Z" fill="black" fill-opacity="0.1"/>
</svg>
