<svg width="24" height="24" viewBox="0 0 24 24" fill="none" xmlns="http://www.w3.org/2000/svg">
<path fill-rule="evenodd" clip-rule="evenodd" d="M5 3C5 2.735 5.11005 2.48003 5.30005 2.29303C5.48005 2.10503 5.74 2 6 2C8.28 2 13.75 2 15.3 2C15.56 2 15.82 2.10503 16 2.29303C16.79 3.07703 18.9299 5.21599 19.7099 5.99999C19.8999 6.18799 20 6.44196 20 6.70696C20 8.76796 20 17.937 20 21C20 21.552 19.56 22 19 22C16.28 22 8.73 22 6 22C5.74 22 5.48005 21.8949 5.30005 21.7069C5.11005 21.5199 5 21.265 5 21C5 17.586 5 6.41399 5 3ZM15 3H6V21H19V6.99999C19 6.99999 17.19 6.99999 16 6.99999C15.74 6.99999 15.48 6.895 15.3 6.708C15.11 6.52 15 6.26599 15 5.99999C15 4.81499 15 3 15 3ZM14 14.501C14 14.634 13.95 14.761 13.86 14.854C13.76 14.948 13.64 15 13.5 15C12.22 15 8.79 15 7.5 15C7.37 15 7.24002 14.948 7.15002 14.854C7.06002 14.76 7 14.633 7 14.5C7 14.368 7.06002 14.2399 7.15002 14.1469C7.24002 14.0529 7.37 14 7.5 14C8.79 14 12.21 14 13.5 14C13.63 14 13.76 14.0529 13.86 14.1469C13.95 14.2409 14 14.369 14 14.501ZM17.5 12C17.78 12 18 12.224 18 12.5C18 12.633 17.95 12.761 17.86 12.854C17.76 12.948 17.64 13 17.5 13C15.67 13 9.34 13 7.5 13C7.23 13 7 12.777 7 12.5C7 12.368 7.06002 12.24 7.15002 12.147C7.24002 12.053 7.37 12 7.5 12C9.33 12 15.67 12 17.5 12ZM17.5 7.99999C17.78 7.99999 18 8.22399 18 8.49999C18 8.63299 17.95 8.76099 17.86 8.85399C17.76 8.94799 17.64 8.99999 17.5 8.99999C15.67 8.99999 9.34 8.99999 7.5 8.99999C7.23 8.99999 7 8.77699 7 8.49999C7 8.36799 7.06002 8.23996 7.15002 8.14696C7.24002 8.05296 7.37 7.99999 7.5 7.99999C9.33 7.99999 15.67 7.99999 17.5 7.99999ZM13.5 6.00097C13.78 6.00097 14 6.22399 14 6.49999C14 6.77599 13.78 6.99997 13.5 7.00097C12.21 7.00097 8.79 7.00097 7.5 7.00097C7.23 7.00097 7 6.777 7 6.50201C7 6.50101 7 6.50097 7 6.50097C7 6.22397 7.23 6.00097 7.5 6.00097C8.79 6.00097 12.22 6.00097 13.5 6.00097ZM16 5.99999L18.3 6.00097L16 3.70697V5.99999ZM13.5 4C13.78 4 14 4.22402 14 4.49902C14 4.77602 13.78 4.99999 13.5 4.99999C12.21 4.99999 8.79 4.99999 7.5 4.99999C7.23 4.99999 7 4.77697 7 4.50097C7 4.22497 7.23 4 7.5 4C8.79 4 12.22 4 13.5 4Z" fill="black"/>
</svg>
