<svg width="24" height="24" viewBox="0 0 24 24" fill="none" xmlns="http://www.w3.org/2000/svg">
<path fill-rule="evenodd" clip-rule="evenodd" d="M4 5C4 4.44772 4.44772 4 5 4H14C14.2652 4 14.5196 4.10536 14.7071 4.29289L19.7071 9.29289C19.8946 9.48043 20 9.73478 20 10V19C20 19.5523 19.5523 20 19 20H5C4.44772 20 4 19.5523 4 19V5ZM6 6V18H18V10.4142L13.5858 6H6Z" fill="black"/>
<path fill-rule="evenodd" clip-rule="evenodd" d="M13.6173 5.07615C13.991 4.92137 14.4211 5.00692 14.7071 5.29292L18.7071 9.29292C18.9931 9.57892 19.0787 10.009 18.9239 10.3827C18.7691 10.7564 18.4045 11 18 11H14C13.4477 11 13 10.5523 13 10V6.00003C13 5.59557 13.2436 5.23093 13.6173 5.07615ZM14 10V6.00003L18 10H14Z" fill="black"/>
<path d="M5 5V19H19V10L14 5H5Z" fill="black" fill-opacity="0.1"/>
</svg>
