<svg width="24" height="24" viewBox="0 0 24 24" fill="none" xmlns="http://www.w3.org/2000/svg">
<mask id="path-1-outside-1" maskUnits="userSpaceOnUse" x="4" y="4" width="16" height="16" fill="black">
<rect fill="white" x="4" y="4" width="16" height="16"/>
<path d="M5 5V19H19V10L14 5H5Z"/>
</mask>
<path d="M5 19H4C4 19.5523 4.44772 20 5 20V19ZM5 5V4C4.44772 4 4 4.44772 4 5H5ZM14 5L14.7071 4.29289C14.5196 4.10536 14.2652 4 14 4V5ZM19 10H20C20 9.73478 19.8946 9.48043 19.7071 9.29289L19 10ZM19 19V20C19.5523 20 20 19.5523 20 19H19ZM6 19V5H4V19H6ZM5 6H14V4H5V6ZM13.2929 5.70711L18.2929 10.7071L19.7071 9.29289L14.7071 4.29289L13.2929 5.70711ZM18 10V19H20V10H18ZM19 18H5V20H19V18Z" fill="black" mask="url(#path-1-outside-1)"/>
<path d="M14.3536 4.64645C14.2106 4.50345 13.9955 4.46067 13.8087 4.53806C13.6218 4.61545 13.5 4.79777 13.5 5V10C13.5 10.2761 13.7239 10.5 14 10.5H19C19.2022 10.5 19.3845 10.3782 19.4619 10.1913C19.5393 10.0045 19.4966 9.78945 19.3536 9.64645L14.3536 4.64645Z" stroke="black" stroke-linejoin="round"/>
<path d="M4.5 4.5V19.5H19.5V9.85714L14.1429 4.5H4.5Z" fill="black" fill-opacity="0.1"/>
</svg>
