<svg width="24" height="24" viewBox="0 0 24 24" fill="none" xmlns="http://www.w3.org/2000/svg">
<path d="M4.5 19C4.5 19.2761 4.72386 19.5 5 19.5H19C19.2761 19.5 19.5 19.2761 19.5 19V10C19.5 9.86739 19.4473 9.74021 19.3536 9.64645L14.3536 4.64645C14.2598 4.55268 14.1326 4.5 14 4.5H5C4.72386 4.5 4.5 4.72386 4.5 5V19Z" stroke="black" stroke-linejoin="round"/>
<path d="M14.3536 4.64645C14.2106 4.50345 13.9955 4.46067 13.8087 4.53806C13.6218 4.61545 13.5 4.79777 13.5 5V10C13.5 10.2761 13.7239 10.5 14 10.5H19C19.2022 10.5 19.3845 10.3782 19.4619 10.1913C19.5393 10.0045 19.4966 9.78945 19.3536 9.64645L14.3536 4.64645Z" stroke="black" stroke-linejoin="round"/>
<path d="M4.5 4.5V19.5H19.5V9.85714L14.1429 4.5H4.5Z" fill="black" fill-opacity="0.1"/>
</svg>
