<svg width="24" height="24" viewBox="0 0 24 24" fill="none" xmlns="http://www.w3.org/2000/svg">
<path fill-rule="evenodd" clip-rule="evenodd" d="M5 3C5 2.735 5.11005 2.48003 5.30005 2.29303C5.48005 2.10503 5.74 2 6 2C8.28 2 13.75 2 15.3 2C15.56 2 15.82 2.10503 16 2.29303C16.79 3.07703 18.9299 5.21599 19.7099 5.99999C19.8999 6.18799 20 6.44196 20 6.70696C20 8.76796 20 17.937 20 21C20 21.552 19.56 22 19 22C16.28 22 8.73 22 6 22C5.74 22 5.48005 21.8949 5.30005 21.7069C5.11005 21.5199 5 21.265 5 21C5 17.586 5 6.41399 5 3ZM15 3H6V21H19V6.99999C19 6.99999 17.19 6.99999 16 6.99999C15.74 6.99999 15.48 6.895 15.3 6.708C15.11 6.52 15 6.26599 15 5.99999C15 4.81499 15 3 15 3ZM16 5.99999L18.3 6.00097L16 3.70697V5.99999Z" fill="black"/>
<path d="M10.5 14C10.5 14.2761 10.7239 14.5 11 14.5H13C13.2761 14.5 13.5 14.2761 13.5 14V13C13.5 12.1716 12.8284 11.5 12 11.5C11.1716 11.5 10.5 12.1716 10.5 13V14Z" stroke="black" stroke-linejoin="round"/>
<path d="M10 14.5C9.72386 14.5 9.5 14.7239 9.5 15V17C9.5 17.2761 9.72386 17.5 10 17.5H14C14.2761 17.5 14.5 17.2761 14.5 17V15C14.5 14.7239 14.2761 14.5 14 14.5H10Z" stroke="black" stroke-linejoin="round"/>
<path fill-rule="evenodd" clip-rule="evenodd" d="M5.5 21.5V2.5H15.5L19.5 6.5V21.5H5.5ZM9.5 17.5V14.5H14.5V17.5H9.5Z" fill="black" fill-opacity="0.1"/>
</svg>
