<svg width="24" height="24" viewBox="0 0 24 24" fill="none" xmlns="http://www.w3.org/2000/svg">
<path fill-rule="evenodd" clip-rule="evenodd" d="M22 6C22 5.448 21.55 5 21 5H3C2.448 5 2 5.448 2 6V18C2 18.552 2.448 19 3 19H21C21.55 19 22 18.552 22 18V6ZM20.1887 6H3.82092L12.0048 12.3658L20.1887 6ZM3 6.62896V18H21V6.63646C19.0512 8.152 13.6567 12.3472 12.3118 13.3938C12.1308 13.5338 11.8788 13.5338 11.6978 13.3938C10.3507 12.3455 4.94059 8.13811 3 6.62896Z" fill="black"/>
<path d="M3 6V18H21V6H3Z" fill="black" fill-opacity="0.1"/>
</svg>
