<svg width="24" height="24" viewBox="0 0 24 24" fill="none" xmlns="http://www.w3.org/2000/svg">
<path fill-rule="evenodd" clip-rule="evenodd" d="M3 5C2.448 5 2 5.448 2 6V18C2 18.552 2.448 19 3 19H21C21.552 19 22 18.552 22 18V7.08924C22.0059 7.03092 22.006 6.97204 22 6.91345V6C22 5.448 21.552 5 21 5H3ZM19.3664 7.00861L4.63103 7.00035L12.0044 12.3256L19.3664 7.00861ZM3.99886 8.89653L3.99402 17H19.994L19.9988 8.90456L12.6184 14.2349C12.2572 14.4957 11.7516 14.4957 11.3905 14.2349L3.99886 8.89653Z" fill="black"/>
<path d="M3 6V18H21V6H3Z" fill="black" fill-opacity="0.1"/>
</svg>
