<svg width="24" height="24" viewBox="0 0 24 24" fill="none" xmlns="http://www.w3.org/2000/svg">
<path fill-rule="evenodd" clip-rule="evenodd" d="M22 18C22 18.27 21.89 18.52 21.71 18.71C21.52 18.89 21.26 19 21 19C17.59 19 6.41 19 3 19C2.74 19 2.48004 18.89 2.29004 18.71C2.11004 18.52 2 18.27 2 18C2 16.31 2 12.96 2 12C2 11.83 2.04988 11.65 2.12988 11.5C2.73988 10.44 5.26988 6.01 6.12988 4.5C6.30988 4.19 6.64 4 7 4C8.92 4 15.08 4 17 4C17.36 4 17.6901 4.19 17.8701 4.5C18.7301 6.01 21.2601 10.44 21.8701 11.5C21.9501 11.65 22 11.83 22 12C22 12.96 22 16.31 22 18ZM6.79004 13H3V18H21V13H17.21C17.21 13 16.06 14.15 15.5 14.71C15.31 14.89 15.06 15 14.79 15C13.63 15 10.37 15 9.20996 15C8.93996 15 8.69 14.89 8.5 14.71C7.94 14.15 6.79004 13 6.79004 13ZM17 5H7L3 12C3 12 5.73004 12 6.79004 12C7.06004 12 7.31 12.11 7.5 12.29C8.06 12.85 9.20996 14 9.20996 14H14.79C14.79 14 15.94 12.85 16.5 12.29C16.69 12.11 16.94 12 17.21 12C18.27 12 21 12 21 12L17 5ZM7 9.5C7 9.37 7.0499 9.24002 7.1499 9.15002C7.2399 9.05002 7.37 9 7.5 9C9.2 9 14.8 9 16.5 9C16.63 9 16.7601 9.05002 16.8501 9.15002C16.9501 9.24002 17 9.37 17 9.5C17 9.63 16.9501 9.75998 16.8501 9.84998C16.7601 9.94998 16.63 10 16.5 10C14.8 10 9.2 10 7.5 10C7.37 10 7.2399 9.94998 7.1499 9.84998C7.0499 9.75998 7 9.63 7 9.5ZM8 7.5C8 7.37 8.0499 7.24002 8.1499 7.15002C8.2399 7.05002 8.37 7 8.5 7C9.93 7 14.07 7 15.5 7C15.63 7 15.7601 7.05002 15.8501 7.15002C15.9501 7.24002 16 7.37 16 7.5C16 7.63 15.9501 7.75998 15.8501 7.84998C15.7601 7.94998 15.63 8 15.5 8C14.07 8 9.93 8 8.5 8C8.37 8 8.2399 7.94998 8.1499 7.84998C8.0499 7.75998 8 7.63 8 7.5Z" fill="black"/>
</svg>
