<svg width="24" height="24" viewBox="0 0 24 24" fill="none" xmlns="http://www.w3.org/2000/svg">
<path fill-rule="evenodd" clip-rule="evenodd" d="M21.0801 4.00389L21.1599 4.014L21.24 4.03114L21.3301 4.05445L21.3999 4.08478L21.48 4.12058L21.55 4.16335L21.6101 4.21077L21.6799 4.26447L21.74 4.32281L21.79 4.3858L21.8401 4.45345L21.8799 4.52423L21.9199 4.5989L21.95 4.6759L21.97 4.75447L21.99 4.83536L22 4.91777V19.0858L21.99 19.1636L21.97 19.2491L21.95 19.3269L21.9199 19.4047L21.8799 19.4747L21.8401 19.5447L21.79 19.6147L21.74 19.6769L21.6799 19.7391L21.6101 19.7858L21.55 19.8402L21.48 19.8791L21.3999 19.918L21.3301 19.9491L21.24 19.9725L21.1599 19.988L21 20.0036H3L2.84009 19.988L2.75 19.9725L2.67993 19.9491L2.6001 19.918L2.52002 19.8791L2.44995 19.8402L2.38989 19.7858L2.32007 19.7391L2.26001 19.6769L2.20996 19.6147L2.15991 19.5447L2.12012 19.4747L2.08008 19.4047L2.05005 19.3269L2.03003 19.2491L2.01001 19.1636L2 19.0858V4.91777L2.01001 4.83536L2.03003 4.75447L2.05005 4.6759L2.08008 4.5989L2.12012 4.52423L2.15991 4.45345L2.20996 4.3858L2.26001 4.32281L2.32007 4.26447L2.38989 4.21077L2.44995 4.16335L2.52002 4.12058L2.6001 4.08478L2.67993 4.05445L2.75 4.03114L2.84009 4.014L2.91992 4.00389L3 4H21L21.0801 4.00389ZM3 5.00023V19.0002H21V5.00023H3Z" fill="black"/>
<path fill-rule="evenodd" clip-rule="evenodd" d="M6.5 2C6.77614 2 7 2.22386 7 2.5V4.5C7 4.77614 6.77614 5 6.5 5C6.22386 5 6 4.77614 6 4.5V2.5C6 2.22386 6.22386 2 6.5 2Z" fill="black"/>
<path fill-rule="evenodd" clip-rule="evenodd" d="M17.5 2C17.7761 2 18 2.22386 18 2.5V4.5C18 4.77614 17.7761 5 17.5 5C17.2239 5 17 4.77614 17 4.5V2.5C17 2.22386 17.2239 2 17.5 2Z" fill="black"/>
<path fill-rule="evenodd" clip-rule="evenodd" d="M2.5 7.5C2.5 7.22386 2.72386 7 3 7H21C21.2761 7 21.5 7.22386 21.5 7.5C21.5 7.77614 21.2761 8 21 8H3C2.72386 8 2.5 7.77614 2.5 7.5Z" fill="black"/>
<path fill-rule="evenodd" clip-rule="evenodd" d="M12 11C12 10.4477 12.4477 10 13 10H18C18.5523 10 19 10.4477 19 11V16C19 16.5523 18.5523 17 18 17H13C12.4477 17 12 16.5523 12 16V11ZM18 11V16H13V11H18Z" fill="black"/>
<path d="M3 4.5V7.5H21V4.5H3Z" fill="black" fill-opacity="0.1"/>
<rect x="13" y="11" width="5" height="5" fill="black" fill-opacity="0.1"/>
</svg>
