<svg width="24" height="24" viewBox="0 0 24 24" fill="none" xmlns="http://www.w3.org/2000/svg">
<path fill-rule="evenodd" clip-rule="evenodd" d="M4 3C4 2.735 4.11005 2.48003 4.30005 2.29303C4.48005 2.10503 4.74 2 5 2C7.4 2 13.37 2 15 2C15.27 2 15.52 2.10503 15.71 2.29303C16.5299 3.12003 18.8799 5.46602 19.7099 6.29302C19.8899 6.48002 20 6.73499 20 6.99999C20 9.03299 20 17.98 20 21C20 21.265 19.8899 21.5199 19.7099 21.7069C19.5199 21.8949 19.27 22 19 22C16.13 22 7.88 22 5 22C4.74 22 4.48005 21.8949 4.30005 21.7069C4.11005 21.5199 4 21.265 4 21C4 17.586 4 6.41399 4 3ZM14 4H6V20H18V7.99999C18 7.99999 16.18 7.99999 15 7.99999C14.44 7.99999 14 7.55199 14 6.99999C14 5.81499 14 4 14 4ZM13 15.5C13 15.633 12.94 15.76 12.85 15.854C12.76 15.947 12.63 16 12.5 16C11.37 16 8.63 16 7.5 16C7.36 16 7.24001 15.947 7.14001 15.854C7.05001 15.76 7 15.633 7 15.5C7 15.367 7.05001 15.24 7.14001 15.146C7.24001 15.053 7.36 15 7.5 15C8.63 15 11.37 15 12.5 15C12.63 15 12.76 15.053 12.85 15.146C12.94 15.24 13 15.367 13 15.5ZM17 13.513C17 13.782 16.78 14 16.51 14C14.82 14 9.21 14 7.5 14C7.36 14 7.24001 13.947 7.14001 13.854C7.05001 13.76 7 13.633 7 13.5V13.499C7 13.367 7.05001 13.24 7.14001 13.146C7.24001 13.053 7.36 13 7.5 13C9.2 13 14.76 13 16.49 13C16.77 13 17 13.229 17 13.512V13.513ZM17 9.51299C17 9.78198 16.78 9.99998 16.51 9.99998C14.82 9.99998 9.21 9.99998 7.5 9.99998C7.36 9.99998 7.24001 9.94699 7.14001 9.85399C7.05001 9.75999 7 9.63298 7 9.49998V9.49901C7 9.36701 7.05001 9.23998 7.14001 9.14598C7.24001 9.05298 7.36 8.99999 7.5 8.99999C9.2 8.99999 14.76 8.99999 16.49 8.99999C16.77 8.99999 17 9.22901 17 9.51201V9.51299ZM13 7.51299C13 7.64199 12.95 7.76598 12.85 7.85698C12.76 7.94898 12.64 7.99999 12.51 7.99999C11.39 7.99999 8.63 7.99999 7.5 7.99999C7.36 7.99999 7.24001 7.94699 7.14001 7.85399C7.05001 7.75999 7 7.63299 7 7.49999V7.49901C7 7.36701 7.05001 7.23999 7.14001 7.14599C7.24001 7.05299 7.36 6.99999 7.5 6.99999C8.62 6.99999 11.35 6.99999 12.49 6.99999C12.62 6.99999 12.75 7.05401 12.85 7.15001C12.94 7.24601 13 7.37601 13 7.51201V7.51299ZM15 4.41998V6.99999H17.5799L15 4.41998ZM13 5.51299C13 5.64199 12.95 5.76599 12.85 5.85699C12.76 5.94899 12.64 5.99999 12.51 5.99999C11.39 5.99999 8.63 5.99999 7.5 5.99999C7.36 5.99999 7.24001 5.947 7.14001 5.854C7.05001 5.76 7 5.63299 7 5.49999V5.49902C7 5.36702 7.05001 5.23999 7.14001 5.14599C7.24001 5.05299 7.36 4.99999 7.5 4.99999C8.62 4.99999 11.35 4.99999 12.49 4.99999C12.62 4.99999 12.75 5.05402 12.85 5.15002C12.94 5.24602 13 5.37602 13 5.51202V5.51299Z" fill="black"/>
</svg>
