<svg width="24" height="24" viewBox="0 0 24 24" fill="none" xmlns="http://www.w3.org/2000/svg">
<path fill-rule="evenodd" clip-rule="evenodd" d="M22 9.00098C22 9.55298 21.55 10 21 10C21 10 21 16.47 21 19C21 19.55 20.55 20 20 20C16.85 20 7.15 20 4 20C3.45 20 3 19.55 3 19C3 16.47 3 10 3 10C2.45 10 2 9.552 2 9C2 7.89 2 6.11 2 5C2 4.448 2.45 4 3 4C6.41 4 17.59 4 21 4C21.55 4 22 4.448 22 5C22 6.11 22 7.89098 22 9.00098ZM19 10H5V18H19V10ZM20 6H4V8H20V6Z" fill="black"/>
<path fill-rule="evenodd" clip-rule="evenodd" d="M9.14645 11.1464C9.34171 10.9512 9.65829 10.9512 9.85355 11.1464L12 13.2929L14.1464 11.1464C14.3417 10.9512 14.6583 10.9512 14.8536 11.1464C15.0488 11.3417 15.0488 11.6583 14.8536 11.8536L12.7071 14L14.8536 16.1464C15.0488 16.3417 15.0488 16.6583 14.8536 16.8536C14.6583 17.0488 14.3417 17.0488 14.1464 16.8536L12 14.7071L9.85355 16.8536C9.65829 17.0488 9.34171 17.0488 9.14645 16.8536C8.95118 16.6583 8.95118 16.3417 9.14645 16.1464L11.2929 14L9.14645 11.8536C8.95118 11.6583 8.95118 11.3417 9.14645 11.1464Z" fill="black"/>
<path d="M4 9V19H20V9H21V5H3V9H4Z" fill="black" fill-opacity="0.1"/>
</svg>
