<svg width="24" height="24" viewBox="0 0 24 24" fill="none" xmlns="http://www.w3.org/2000/svg">
<rect width="20" height="17.5036" fill="black" fill-opacity="0" transform="translate(2 2.5)"/>
<rect width="20" height="20.576" fill="black" fill-opacity="0" transform="translate(2 4) scale(1 0.777778)"/>
<path fill-rule="evenodd" clip-rule="evenodd" d="M21.0801 4.00389L21.1599 4.014L21.24 4.03114L21.3301 4.05445L21.3999 4.08478L21.48 4.12058L21.55 4.16335L21.6101 4.21077L21.6799 4.26447L21.74 4.32281L21.79 4.3858L21.8401 4.45345L21.8799 4.52423L21.9199 4.5989L21.95 4.6759L21.97 4.75447L21.99 4.83536L22 4.91777V5.00023V19.0002V19.0858L21.99 19.1636L21.97 19.2491L21.95 19.3269L21.9199 19.4047L21.8799 19.4747L21.8401 19.5447L21.79 19.6147L21.74 19.6769L21.6799 19.7391L21.6101 19.7858L21.55 19.8402L21.48 19.8791L21.3999 19.918L21.3301 19.9491L21.24 19.9725L21.1599 19.988L21.0801 19.9958L21 20.0036H3L2.91992 19.9958L2.84009 19.988L2.75 19.9725L2.67993 19.9491L2.6001 19.918L2.52002 19.8791L2.44995 19.8402L2.38989 19.7858L2.32007 19.7391L2.26001 19.6769L2.20996 19.6147L2.15991 19.5447L2.12012 19.4747L2.08008 19.4047L2.05005 19.3269L2.03003 19.2491L2.01001 19.1636L2 19.0858V19.0002V5.00023V4.91777L2.01001 4.83536L2.03003 4.75447L2.05005 4.6759L2.08008 4.5989L2.12012 4.52423L2.15991 4.45345L2.20996 4.3858L2.26001 4.32281L2.32007 4.26447L2.38989 4.21077L2.44995 4.16335L2.52002 4.12058L2.6001 4.08478L2.67993 4.05445L2.75 4.03114L2.84009 4.014L2.91992 4.00389L3 4H21L21.0801 4.00389ZM3 5.00023V19.0002H21V5.00023H3Z" fill="black"/>
<rect width="0" height="2" fill="black" fill-opacity="0" transform="translate(6.5 2.5)"/>
<path d="M6.5 2.5V4.5" stroke="black" stroke-miterlimit="100" stroke-linecap="round" stroke-linejoin="round"/>
<rect width="0" height="2" fill="black" fill-opacity="0" transform="translate(17.5 2.5)"/>
<path d="M17.5 2.5V4.5" stroke="black" stroke-miterlimit="100" stroke-linecap="round" stroke-linejoin="round"/>
<rect width="18" height="0" fill="black" fill-opacity="0" transform="translate(3 7.5)"/>
<path d="M3 7.5H21" stroke="black" stroke-miterlimit="100" stroke-linecap="round" stroke-linejoin="round"/>
<rect width="8.82852" height="6.82718" fill="black" fill-opacity="0" transform="translate(8 10.5)"/>
<rect width="1.5" height="6" fill="black" fill-opacity="0" transform="translate(8 10.5)"/>
<path d="M8 12.5L9.5 10.5V16.5" stroke="black" stroke-miterlimit="100" stroke-linecap="round" stroke-linejoin="round"/>
<rect width="4.32852" height="6.82718" fill="black" fill-opacity="0" transform="translate(12.5 10.5)"/>
<rect width="3" height="2" fill="black" fill-opacity="0" transform="translate(12.5 10.5)"/>
<path d="M12.5 10.5H15.5L14 12.5" stroke="black" stroke-miterlimit="100" stroke-linecap="round" stroke-linejoin="round"/>
<rect width="2" height="4" fill="black" fill-opacity="0" transform="translate(14 12.5)"/>
<path d="M14 12.5C15.1 12.5 16 13.396 16 14.5C16 15.604 15.1 16.5 14 16.5" stroke="black" stroke-miterlimit="100" stroke-linecap="round" stroke-linejoin="round"/>
<rect width="2" height="4" fill="black" fill-opacity="0" transform="translate(15.4143 13.0845) rotate(45)"/>
<path d="M15.4143 13.0845C16.1921 13.8624 16.195 15.1323 15.4143 15.913C14.6337 16.6936 13.3637 16.6908 12.5859 15.913" stroke="black" stroke-miterlimit="100" stroke-linecap="round" stroke-linejoin="round"/>
</svg>
