<svg width="24" height="24" viewBox="0 0 24 24" fill="none" xmlns="http://www.w3.org/2000/svg">
<path fill-rule="evenodd" clip-rule="evenodd" d="M2 5C2 4.735 2.11004 4.48003 2.29004 4.29303C2.48004 4.10503 2.74 4 3 4C5.66 4 12.85 4 15 4C15.38 4 15.73 4.21398 15.89 4.55298C16.19 5.14498 16.62 6 16.62 6C16.62 6 19.44 6 21 6C21.55 6 22 6.44799 22 6.99999C22 9.57699 22 16.42 22 19C22 19.55 21.55 20 21 20C17.59 20 6.41 20 3 20C2.74 20 2.48004 19.89 2.29004 19.71C2.11004 19.52 2 19.26 2 19C2 16.13 2 7.87299 2 5ZM9.99999 7.99999C9.61999 7.99999 9.27998 7.78601 9.10998 7.44701C8.80998 6.85502 8.38 6 8.38 6H4V18H20V7.99999C20 7.99999 12.27 7.99999 9.99999 7.99999ZM15 5H10.12L10.62 6H15.5L15 5Z" fill="black"/>
<path fill-rule="evenodd" clip-rule="evenodd" d="M9.14645 10.1464C9.34171 9.95118 9.65829 9.95118 9.85355 10.1464L12 12.2929L14.1464 10.1464C14.3417 9.95118 14.6583 9.95118 14.8536 10.1464C15.0488 10.3417 15.0488 10.6583 14.8536 10.8536L12.7071 13L14.8536 15.1464C15.0488 15.3417 15.0488 15.6583 14.8536 15.8536C14.6583 16.0488 14.3417 16.0488 14.1464 15.8536L12 13.7071L9.85355 15.8536C9.65829 16.0488 9.34171 16.0488 9.14645 15.8536C8.95118 15.6583 8.95118 15.3417 9.14645 15.1464L11.2929 13L9.14645 10.8536C8.95118 10.6583 8.95118 10.3417 9.14645 10.1464Z" fill="black"/>
<path d="M3 5V19H21V7H10L9 5H3Z" fill="black" fill-opacity="0.1"/>
</svg>
