<svg width="24" height="24" viewBox="0 0 24 24" fill="none" xmlns="http://www.w3.org/2000/svg">
<path fill-rule="evenodd" clip-rule="evenodd" d="M2 5C2 4.735 2.11004 4.48003 2.29004 4.29303C2.48004 4.10503 2.74 4 3 4C5.66 4 12.85 4 15 4C15.38 4 15.73 4.21398 15.89 4.55298C16.19 5.14498 16.62 6 16.62 6C16.62 6 19.44 6 21 6C21.55 6 22 6.448 22 6.99999C22 9.57699 22 16.42 22 19C22 19.55 21.55 20 21 20C17.59 20 6.41 20 3 20C2.74 20 2.48004 19.89 2.29004 19.71C2.11004 19.52 2 19.26 2 19C2 16.13 2 7.87299 2 5ZM9.99999 7.99999C9.61999 7.99999 9.27998 7.78601 9.10998 7.44701C8.80998 6.85502 8.38 6 8.38 6H4V18H20V7.99999C20 7.99999 12.27 7.99999 9.99999 7.99999ZM12 16.51C12 16.64 11.95 16.76 11.86 16.86C11.77 16.95 11.64 17 11.51 17C10.23 17 6.79 17 5.5 17C5.22 17 5 16.78 5 16.5C5 16.22 5.22 16 5.5 16C6.79 16 10.19 16 11.49 16C11.77 16 12 16.23 12 16.51ZM15 5H10.12L10.62 6H15.5L15 5Z" fill="black"/>
<path d="M3 5V19H21V7H10L9 5H3Z" fill="black" fill-opacity="0.1"/>
</svg>
