<svg width="24" height="24" viewBox="0 0 24 24" fill="none" xmlns="http://www.w3.org/2000/svg">
<path fill-rule="evenodd" clip-rule="evenodd" d="M22 9.00098C22 9.55298 21.55 10 21 10C21 10 21 16.47 21 19C21 19.55 20.55 20 20 20C16.85 20 7.15 20 4 20C3.45 20 3 19.55 3 19C3 16.47 3 10 3 10C2.45 10 2 9.552 2 9C2 7.89 2 6.11 2 5C2 4.448 2.45 4 3 4C6.41 4 17.59 4 21 4C21.55 4 22 4.448 22 5C22 6.11 22 7.89098 22 9.00098ZM19 10H5V18H19V10ZM14.5 11C14.63 11 14.7601 11.053 14.8501 11.146C14.9501 11.24 15 11.367 15 11.5C15 11.633 14.9501 11.76 14.8501 11.854C14.7601 11.947 14.63 12 14.5 12C13.37 12 10.63 12 9.5 12C9.37 12 9.2399 11.947 9.1499 11.854C9.0499 11.76 9 11.633 9 11.5C9 11.367 9.0499 11.24 9.1499 11.146C9.2399 11.053 9.37 11 9.5 11C10.63 11 13.37 11 14.5 11ZM20 6H4V8H20V6Z" fill="black"/>
<path d="M4 9V19H20V9H21V5H3V9H4Z" fill="black" fill-opacity="0.1"/>
</svg>
