<svg width="24" height="24" viewBox="0 0 24 24" fill="none" xmlns="http://www.w3.org/2000/svg">
<path fill-rule="evenodd" clip-rule="evenodd" d="M12.1464 4.14645C12.2402 4.05268 12.3674 4 12.5 4H19.5C19.7761 4 20 4.22386 20 4.5V11.5C20 11.6326 19.9473 11.7598 19.8536 11.8536L10.8536 20.8536C10.6583 21.0488 10.3417 21.0488 10.1464 20.8536L3.14645 13.8536C2.95118 13.6583 2.95118 13.3417 3.14645 13.1464L12.1464 4.14645ZM12.7071 5L4.20711 13.5L10.5 19.7929L19 11.2929V5H12.7071Z" fill="black"/>
<path d="M17 8C17 8.55228 16.5523 9 16 9C15.4477 9 15 8.55228 15 8C15 7.44772 15.4477 7 16 7C16.5523 7 17 7.44772 17 8Z" fill="black"/>
<path d="M12.5 4.5L3.5 13.5L10.5 20.5L19.5 11.5V4.5H12.5Z" fill="black" fill-opacity="0.1"/>
</svg>
