<svg width="24" height="24" viewBox="0 0 24 24" fill="none" xmlns="http://www.w3.org/2000/svg">
<path fill-rule="evenodd" clip-rule="evenodd" d="M22 8C22 8.55 21.55 9 21 9C21 9 21 16.29 21 19C21 19.55 20.55 20 20 20C16.85 20 7.15 20 4 20C3.45 20 3 19.55 3 19C3 16.29 3 9 3 9C2.45 9 2 8.55 2 8C2 7.13 2 5.87 2 5C2 4.74 2.11004 4.48004 2.29004 4.29004C2.48004 4.11004 2.74 4 3 4C6.41 4 17.59 4 21 4C21.26 4 21.52 4.11004 21.71 4.29004C21.89 4.48004 22 4.74 22 5C22 5.87 22 7.13 22 8ZM20 9H4V19H20V9ZM14.5 11C14.63 11 14.7601 11.05 14.8501 11.15C14.9501 11.24 15 11.37 15 11.5C15 11.63 14.9501 11.76 14.8501 11.85C14.7601 11.95 14.63 12 14.5 12C13.37 12 10.63 12 9.5 12C9.37 12 9.2399 11.95 9.1499 11.85C9.0499 11.76 9 11.63 9 11.5C9 11.37 9.0499 11.24 9.1499 11.15C9.2399 11.05 9.37 11 9.5 11C10.63 11 13.37 11 14.5 11ZM21 5H3V8H21V5Z" fill="black"/>
<path d="M3.5 8.5V19.5H20.5V8.5L21.5 8.50001V4.50001L2.5 4.5V8.5H3.5Z" fill="black" fill-opacity="0.1"/>
</svg>
