<svg width="24" height="24" viewBox="0 0 24 24" fill="none" xmlns="http://www.w3.org/2000/svg">
<path fill-rule="evenodd" clip-rule="evenodd" d="M3 6C2.44771 6 2 6.44769 2 7V17C2 17.5523 2.44771 18 3 18H16C16.2652 18 16.5196 17.8947 16.7071 17.7071L21.7071 12.7071C22.0976 12.3166 22.0976 11.6834 21.7071 11.2929L16.7071 6.29291C16.5196 6.10535 16.2652 6 16 6H3ZM4 16V8H15.5858L19.5858 12L15.5858 16H4ZM17.0009 12.0002C17.0009 12.5526 16.5531 13.0002 16.0009 13.0002C15.4486 13.0002 15.0009 12.5526 15.0009 12.0002C15.0009 11.4479 15.4486 11.0002 16.0009 11.0002C16.5531 11.0002 17.0009 11.4479 17.0009 12.0002Z" fill="black"/>
</svg>
