<svg width="24" height="24" viewBox="0 0 24 24" fill="none" xmlns="http://www.w3.org/2000/svg">
<path fill-rule="evenodd" clip-rule="evenodd" d="M16.16 6.01251L16.08 6.00372L16 6H3L2.92004 6.00372L2.83997 6.01373L2.75 6.03119L2.67004 6.05371L2.59998 6.08374L2.52002 6.12L2.44995 6.16248L2.39001 6.21124L2.31995 6.26373L2.26001 6.32251L2.20996 6.38623L2.16003 6.45251L2.12 6.52374L2.07996 6.59875L2.05005 6.67499L2.03003 6.755L2.01001 6.83496L2 6.91748V7V17V17.0875L2.01001 17.1625L2.03003 17.25L2.05005 17.325L2.07996 17.4L2.12 17.475L2.16003 17.55L2.20996 17.6125L2.26001 17.6749L2.31995 17.7375L2.39001 17.7875L2.44995 17.8375L2.52002 17.875L2.59998 17.9125L2.67004 17.95L2.75 17.9625L2.83997 17.9874L2.92004 18H3H16H16.08L16.16 17.9874L16.23 17.975L16.3101 17.95L16.38 17.925L16.45 17.8875L16.52 17.85L16.59 17.8125L16.65 17.7625L16.71 17.7125L21.71 12.7075L21.76 12.6462L21.8101 12.5813L21.86 12.5125L21.9 12.4387L21.9301 12.3638L21.96 12.285L21.98 12.205L21.99 12.1237L22 12.0413V11.9587L21.99 11.8762L21.98 11.795L21.96 11.715L21.9301 11.6362L21.9 11.5612L21.86 11.4875L21.8101 11.4187L21.76 11.3537L21.71 11.2925L16.71 6.29248L16.65 6.23999L16.59 6.19128L16.52 6.14746L16.45 6.1087L16.38 6.07623L16.3101 6.04877L16.23 6.02747L16.16 6.01251ZM3 17V7H16L21 12L16 17H3ZM18.0009 12.0002C18.0009 12.5526 17.5531 13.0002 17.0009 13.0002C16.4486 13.0002 16.0009 12.5526 16.0009 12.0002C16.0009 11.4479 16.4486 11.0002 17.0009 11.0002C17.5531 11.0002 18.0009 11.4479 18.0009 12.0002Z" fill="black"/>
</svg>
