<svg width="24" height="24" viewBox="0 0 24 24" fill="none" xmlns="http://www.w3.org/2000/svg">
<path fill-rule="evenodd" clip-rule="evenodd" d="M5 3C5 2.735 5.11005 2.48003 5.30005 2.29303C5.48005 2.10503 5.74 2 6 2C8.28 2 13.75 2 15.3 2C15.56 2 15.82 2.10503 16 2.29303C16.79 3.07703 18.9299 5.21599 19.7099 5.99999C19.8999 6.18799 20 6.44196 20 6.70696C20 8.76796 20 17.937 20 21C20 21.552 19.56 22 19 22C16.28 22 8.73 22 6 22C5.74 22 5.48005 21.8949 5.30005 21.7069C5.11005 21.5199 5 21.265 5 21C5 17.586 5 6.41399 5 3ZM15 3H6V21H19V6.99999C19 6.99999 17.19 6.99999 16 6.99999C15.74 6.99999 15.48 6.895 15.3 6.708C15.11 6.52 15 6.26599 15 5.99999C15 4.81499 15 3 15 3ZM16 5.99999L18.3 6.00097L16 3.70697V5.99999Z" fill="black"/>
<path fill-rule="evenodd" clip-rule="evenodd" d="M9.14645 12.1464C9.34171 11.9512 9.65829 11.9512 9.85355 12.1464L12 14.2929L14.1464 12.1464C14.3417 11.9512 14.6583 11.9512 14.8536 12.1464C15.0488 12.3417 15.0488 12.6583 14.8536 12.8536L12.7071 15L14.8536 17.1464C15.0488 17.3417 15.0488 17.6583 14.8536 17.8536C14.6583 18.0488 14.3417 18.0488 14.1464 17.8536L12 15.7071L9.85355 17.8536C9.65829 18.0488 9.34171 18.0488 9.14645 17.8536C8.95118 17.6583 8.95118 17.3417 9.14645 17.1464L11.2929 15L9.14645 12.8536C8.95118 12.6583 8.95118 12.3417 9.14645 12.1464Z" fill="black"/>
<path d="M5.5 2.5V21.5H19.5V6.5L15.5 2.5H5.5Z" fill="black" fill-opacity="0.1"/>
</svg>
