<svg width="24" height="24" viewBox="0 0 24 24" fill="none" xmlns="http://www.w3.org/2000/svg">
<path fill-rule="evenodd" clip-rule="evenodd" d="M3 5C2.448 5 2 5.448 2 6V18C2 18.552 2.448 19 3 19H21C21.552 19 22 18.552 22 18V6.08917C22.0105 5.98627 22.0026 5.88177 21.9757 5.78003C21.8754 5.33374 21.4764 5 21 5H3ZM17.9828 7.00781L6.01672 7.00116L12.0044 11.3256L17.9828 7.00781ZM3.99947 7.89697L3.99402 17H19.994L19.9995 7.90411L12.6184 13.2349C12.2572 13.4957 11.7516 13.4957 11.3905 13.2349L3.99947 7.89697Z" fill="black"/>
</svg>
