<svg width="24" height="24" viewBox="0 0 24 24" fill="none" xmlns="http://www.w3.org/2000/svg">
<path fill-rule="evenodd" clip-rule="evenodd" d="M5 3C5 2.735 5.11005 2.48003 5.30005 2.29303C5.48005 2.10503 5.74 2 6 2C8.28 2 13.75 2 15.3 2C15.56 2 15.82 2.10503 16 2.29303C16.79 3.07703 18.9299 5.21599 19.7099 5.99999C19.8999 6.18799 20 6.44196 20 6.70696C20 8.76796 20 17.937 20 21C20 21.552 19.56 22 19 22C16.28 22 8.73 22 6 22C5.74 22 5.48005 21.8949 5.30005 21.7069C5.11005 21.5199 5 21.265 5 21C5 17.586 5 6.41399 5 3ZM15 3H6V21H19V6.99999C19 6.99999 17.19 6.99999 16 6.99999C15.74 6.99999 15.48 6.895 15.3 6.708C15.11 6.52 15 6.26599 15 5.99999C15 4.81499 15 3 15 3ZM16 5.99999L18.3 6.00097L16 3.70697V5.99999Z" fill="black"/>
<path d="M5.5 2.5V21.5H19.5V6.5L15.5 2.5H5.5Z" fill="black" fill-opacity="0.1"/>
</svg>
