<?xml version="1.0" encoding="UTF-8" standalone="no"?>
<!DOCTYPE svg PUBLIC "-//W3C//DTD SVG 1.1//EN" "http://www.w3.org/Graphics/SVG/1.1/DTD/svg11.dtd">
<svg width="24px" height="24px" version="1.1" xmlns="http://www.w3.org/2000/svg" xmlns:xlink="http://www.w3.org/1999/xlink" xml:space="preserve" xmlns:serif="http://www.serif.com/" style="fill-rule:evenodd;clip-rule:evenodd;stroke-linejoin:round;stroke-miterlimit:1.41421;">
    <g transform="matrix(1,0,0,1,-932,-1455)">
        <g id="social.regular.chatBubbleSquare" transform="matrix(1,0,0,1,-636,685)">
            <rect x="1568" y="770" width="24" height="24" style="fill:none;"/>
            <g transform="matrix(1,0,0,1,1131.85,-685.119)">
                <path d="M457.154,1469.12C457.154,1470.78 455.811,1472.12 454.154,1472.12C451.342,1472.12 447.569,1472.12 447.569,1472.12C447.569,1472.12 445.448,1474.24 443.861,1475.83C443.575,1476.11 443.145,1476.2 442.772,1476.04C442.398,1475.89 442.154,1475.52 442.154,1475.12C442.154,1473.67 442.154,1472.12 442.154,1472.12C442.154,1472.12 442.154,1472.12 442.154,1472.12C440.497,1472.12 439.154,1470.78 439.154,1469.12C439.154,1467.29 439.154,1464.95 439.154,1463.12C439.154,1461.46 440.497,1460.12 442.154,1460.12C445.484,1460.12 450.825,1460.12 454.154,1460.12C455.811,1460.12 457.154,1461.46 457.154,1463.12C457.154,1464.95 457.154,1467.29 457.154,1469.12ZM455.154,1463.12C455.154,1462.57 454.707,1462.12 454.154,1462.12C451.577,1462.12 444.731,1462.12 442.154,1462.12C441.602,1462.12 441.154,1462.57 441.154,1463.12C441.154,1464.66 441.154,1467.58 441.154,1469.12C441.154,1469.67 441.602,1470.12 442.154,1470.12C442.476,1470.12 442.833,1470.12 443.154,1470.12C443.42,1470.12 443.674,1470.22 443.861,1470.41C444.049,1470.6 444.154,1470.85 444.154,1471.12C444.154,1471.85 444.154,1472.7 444.154,1472.7C444.154,1472.7 445.77,1471.09 446.447,1470.41C446.635,1470.22 446.889,1470.12 447.154,1470.12C448.427,1470.12 452.306,1470.12 454.154,1470.12C454.707,1470.12 455.154,1469.67 455.154,1469.12C455.154,1467.58 455.154,1464.66 455.154,1463.12ZM448.154,1467.62C448.154,1467.75 448.102,1467.88 448.008,1467.97C447.914,1468.07 447.787,1468.12 447.654,1468.12C446.696,1468.12 444.612,1468.12 443.654,1468.12C443.522,1468.12 443.395,1468.07 443.301,1467.97C443.207,1467.88 443.154,1467.75 443.154,1467.62C443.154,1467.49 443.207,1467.36 443.301,1467.27C443.395,1467.17 443.522,1467.12 443.654,1467.12C444.612,1467.12 446.696,1467.12 447.654,1467.12C447.787,1467.12 447.914,1467.17 448.008,1467.27C448.102,1467.36 448.154,1467.49 448.154,1467.62C448.154,1467.62 448.154,1467.62 448.154,1467.62ZM453.154,1464.62C453.154,1464.75 453.102,1464.88 453.008,1464.97C452.914,1465.07 452.787,1465.12 452.654,1465.12C450.947,1465.12 445.361,1465.12 443.654,1465.12C443.522,1465.12 443.395,1465.07 443.301,1464.97C443.207,1464.88 443.154,1464.75 443.154,1464.62C443.154,1464.49 443.207,1464.36 443.301,1464.27C443.395,1464.17 443.522,1464.12 443.654,1464.12C445.361,1464.12 450.947,1464.12 452.654,1464.12C452.787,1464.12 452.914,1464.17 453.008,1464.27C453.102,1464.36 453.154,1464.49 453.154,1464.62C453.154,1464.62 453.154,1464.62 453.154,1464.62Z" style="fill:rgb(51,51,51);"/>
            </g>
        </g>
    </g>
</svg>
