<svg width="24" height="24" viewBox="0 0 24 24" fill="none" xmlns="http://www.w3.org/2000/svg">
<path fill-rule="evenodd" clip-rule="evenodd" d="M12.1329 2.00098H12.2619L12.3909 2.01099H12.5189L12.6459 2.021L12.7729 2.03101L12.8999 2.04102L13.0259 2.05103L13.1519 2.06104L13.2769 2.08093L13.4019 2.10095L13.5259 2.11096L13.6499 2.13098L13.7739 2.16101L13.8959 2.18103L14.0189 2.20093L14.1399 2.23096L14.2619 2.26099L14.3819 2.28101L14.5019 2.31104L14.6219 2.35095L14.7409 2.38098L14.8589 2.41101L14.9769 2.45093L15.0939 2.49097L15.2099 2.521L15.3259 2.56104L15.4409 2.61096L15.5559 2.651L15.6699 2.69104L15.7829 2.74097L15.8949 2.79102L16.0069 2.83093L16.1179 2.88098L16.2279 2.93103L16.3379 2.99097L16.4469 3.04102L16.5549 3.09094L16.6629 3.151L16.7689 3.21094L16.8749 3.26099L16.9799 3.32092L17.0849 3.39099L17.1879 3.45093L17.2909 3.51099L17.3929 3.57092L17.4939 3.64099L17.5939 3.71094L17.6929 3.78101L17.7919 3.84094L17.8889 3.92102L17.9859 3.99097L18.0819 4.06104L18.1769 4.13098L18.2709 4.21094L18.3639 4.28101L18.4559 4.36096L18.5469 4.44104L18.6369 4.521L18.7269 4.60095L18.8149 4.68103L18.9019 4.76099L18.9889 4.84094L19.0739 4.93103L19.1579 5.01099L19.2419 5.10095L19.3239 5.19104L19.4049 5.28101L19.4849 5.37097L19.5649 5.46094L19.6429 5.55103L19.7199 5.64099L19.7949 5.73096L19.8699 5.83093L19.9439 5.92102L20.0169 6.021L20.0879 6.11096L20.1579 6.21094L20.2269 6.31104L20.2949 6.41101L20.3619 6.51099L20.4279 6.61096L20.4919 6.71094L20.5559 6.81104L20.6179 6.92102L20.6789 7.021L20.7379 7.13098L20.7969 7.23096L20.8539 7.34094L20.9099 7.45093L20.9639 7.56104L21.0179 7.67102L21.0699 7.771L21.1199 7.89099L21.1699 8.00098L21.2179 8.11096L21.2649 8.22095L21.3099 8.33093L21.3539 8.45093L21.3969 8.56104L21.4379 8.68103L21.4789 8.79102L21.5169 8.91101L21.5539 9.03101L21.5899 9.151L21.6249 9.26099L21.6579 9.38098L21.6889 9.50098L21.7189 9.62097L21.7479 9.74097L21.7749 9.86096L21.8009 9.99097L21.8249 10.111L21.8479 10.231L21.8689 10.351L21.8889 10.481L21.9069 10.601L21.9239 10.731L21.9389 10.851L21.9529 10.981L21.9649 11.101L21.9749 11.231L21.9839 11.361L21.9909 11.491L21.9969 11.611L22.0009 11.741L22.0029 11.871L22.0039 12.001L22.0029 12.131L22.0009 12.261L21.9969 12.391L21.9909 12.511L21.9839 12.641L21.9749 12.771L21.9649 12.901L21.9529 13.021L21.9389 13.151L21.9239 13.271L21.9069 13.401L21.8889 13.521L21.8689 13.651L21.8479 13.771L21.8249 13.891L21.8009 14.011L21.7749 14.141L21.7479 14.261L21.7189 14.381L21.6889 14.501L21.6579 14.621L21.6249 14.741L21.5899 14.851L21.5539 14.9709L21.5169 15.0909L21.4789 15.2109L21.4379 15.3209L21.3969 15.441L21.3539 15.551L21.3099 15.661L21.2649 15.781L21.2179 15.891L21.1699 16.001L21.1199 16.111L21.0699 16.2209L21.0179 16.3309L20.9639 16.441L20.9099 16.551L20.8539 16.661L20.7969 16.761L20.7379 16.871L20.6789 16.981L20.6179 17.0809L20.5559 17.181L20.4919 17.291L20.4279 17.391L20.3619 17.491L20.2949 17.5909L20.2269 17.691L20.1579 17.791L20.0879 17.881L20.0169 17.981L19.9439 18.0809L19.8699 18.171L19.7949 18.261L19.7199 18.361L19.6429 18.4509L19.5649 18.541L19.4849 18.631L19.4049 18.7209L19.3239 18.811L19.2419 18.901L19.1579 18.981L19.0739 19.0709L18.9889 19.151L18.9019 19.241L18.8149 19.3209L18.7269 19.401L18.6369 19.481L18.5469 19.561L18.4559 19.641L18.3639 19.7109L18.2709 19.791L18.1769 19.871L18.0819 19.941L17.9859 20.011L17.8889 20.0809L17.7919 20.151L17.6929 20.2209L17.5939 20.291L17.4939 20.361L17.3929 20.421L17.2909 20.491L17.1879 20.551L17.0849 20.611L16.9799 20.671L16.8749 20.731L16.7689 20.791L16.6629 20.851L16.5549 20.901L16.4469 20.9609L16.3379 21.011L16.2279 21.061L16.1179 21.121L16.0069 21.171L15.8949 21.2109L15.7829 21.261L15.6699 21.301L15.5559 21.351L15.4409 21.391L15.3259 21.431L15.2099 21.4709L15.0939 21.511L14.9769 21.551L14.8589 21.5809L14.7409 21.621L14.6219 21.651L14.5019 21.681L14.3819 21.7109L14.2619 21.741L14.1399 21.771L14.0189 21.801L13.8959 21.8209L13.7739 21.8409L13.6499 21.861L13.5259 21.881L13.4019 21.901L13.2769 21.921L13.1519 21.931L13.0259 21.9509L12.8999 21.9609L12.7729 21.9709L12.6459 21.981L12.5189 21.991H12.3909L12.2619 22.001H12.1329H12.0039H11.8749H11.7459L11.6179 21.991H11.4899L11.3619 21.981L11.2349 21.9709L11.1089 21.9609L10.9819 21.9509L10.8569 21.931L10.7309 21.921L10.6069 21.901L10.4819 21.881L10.3579 21.861L10.2349 21.8409L10.1119 21.8209L9.98993 21.801L9.86792 21.771L9.74689 21.741L9.62592 21.7109L9.50592 21.681L9.3869 21.651L9.26794 21.621L9.1499 21.5809L9.03192 21.551L8.91492 21.511L8.79791 21.4709L8.68292 21.431L8.56689 21.391L8.45294 21.351L8.33893 21.301L8.22589 21.261L8.11292 21.2109L8.00189 21.171L7.89093 21.121L7.77991 21.061L7.66992 21.011L7.56189 20.9609L7.45294 20.901L7.34589 20.851L7.23889 20.791L7.13293 20.731L7.02789 20.671L6.92389 20.611L6.82092 20.551L6.7179 20.491L6.61591 20.421L6.51489 20.361L6.41492 20.291L6.31494 20.2209L6.21692 20.151L6.1189 20.0809L6.02289 20.011L5.92694 19.941L5.83191 19.871L5.73792 19.791L5.6449 19.7109L5.55292 19.641L5.46191 19.561L5.37091 19.481L5.28192 19.401L5.19391 19.3209L5.1059 19.241L5.0199 19.151L4.93494 19.0709L4.84991 18.981L4.76691 18.901L4.68494 18.811L4.60291 18.7209L4.52289 18.631L4.44391 18.541L4.36591 18.4509L4.28894 18.361L4.21289 18.261L4.13794 18.171L4.06494 18.0809L3.99194 17.981L3.9209 17.881L3.84991 17.791L3.78094 17.691L3.71289 17.5909L3.64594 17.491L3.58093 17.391L3.51593 17.291L3.45294 17.181L3.39093 17.0809L3.3299 16.981L3.2699 16.871L3.21191 16.761L3.15491 16.661L3.09894 16.551L3.04388 16.441L2.99091 16.3309L2.9389 16.2209L2.88794 16.111L2.83893 16.001L2.79089 15.891L2.7439 15.781L2.69794 15.661L2.65393 15.551L2.61194 15.441L2.56989 15.3209L2.52991 15.2109L2.49091 15.0909L2.45392 14.9709L2.41791 14.851L2.38391 14.741L2.35089 14.621L2.31891 14.501L2.28894 14.381L2.26093 14.261L2.23291 14.141L2.20789 14.011L2.18292 13.891L2.16089 13.771L2.13892 13.651L2.11993 13.521L2.10089 13.401L2.0849 13.271L2.06989 13.151L2.05591 13.021L2.04388 12.901L2.0329 12.771L2.0249 12.641L2.01691 12.511L2.0119 12.391L2.00793 12.261L2.00494 12.131L2.00391 12.001L2.00494 11.871L2.00793 11.741L2.0119 11.611L2.01691 11.491L2.0249 11.361L2.0329 11.231L2.04388 11.101L2.05591 10.981L2.06989 10.851L2.0849 10.731L2.10089 10.601L2.11993 10.481L2.13892 10.351L2.16089 10.231L2.18292 10.111L2.20789 9.99097L2.23291 9.86096L2.26093 9.74097L2.28894 9.62097L2.31891 9.50098L2.35089 9.38098L2.38391 9.26099L2.41791 9.151L2.45392 9.03101L2.49091 8.91101L2.52991 8.79102L2.56989 8.68103L2.61194 8.56104L2.65393 8.45093L2.69794 8.33093L2.7439 8.22095L2.79089 8.11096L2.83893 8.00098L2.88794 7.89099L2.9389 7.771L2.99091 7.67102L3.04388 7.56104L3.09894 7.45093L3.15491 7.34094L3.21191 7.23096L3.2699 7.13098L3.3299 7.021L3.39093 6.92102L3.45294 6.81104L3.51593 6.71094L3.58093 6.61096L3.64594 6.51099L3.71289 6.41101L3.78094 6.31104L3.84991 6.21094L3.9209 6.11096L3.99194 6.021L4.06494 5.92102L4.13794 5.83093L4.21289 5.73096L4.28894 5.64099L4.36591 5.55103L4.44391 5.46094L4.52289 5.37097L4.60291 5.28101L4.68494 5.19104L4.76691 5.10095L4.84991 5.01099L4.93494 4.93103L5.0199 4.84094L5.1059 4.76099L5.19391 4.68103L5.28192 4.60095L5.37091 4.521L5.46191 4.44104L5.55292 4.36096L5.6449 4.28101L5.73792 4.21094L5.83191 4.13098L5.92694 4.06104L6.02289 3.99097L6.1189 3.92102L6.21692 3.84094L6.31494 3.78101L6.41492 3.71094L6.51489 3.64099L6.61591 3.57092L6.7179 3.51099L6.82092 3.45093L6.92389 3.39099L7.02789 3.32092L7.13293 3.26099L7.23889 3.21094L7.34589 3.151L7.45294 3.09094L7.56189 3.04102L7.66992 2.99097L7.77991 2.93103L7.89093 2.88098L8.00189 2.83093L8.11292 2.79102L8.22589 2.74097L8.33893 2.69104L8.45294 2.651L8.56689 2.61096L8.68292 2.56104L8.79791 2.521L8.91492 2.49097L9.03192 2.45093L9.1499 2.41101L9.26794 2.38098L9.3869 2.35095L9.50592 2.31104L9.62592 2.28101L9.74689 2.26099L9.86792 2.23096L9.98993 2.20093L10.1119 2.18103L10.2349 2.16101L10.3579 2.13098L10.4819 2.11096L10.6069 2.10095L10.7309 2.08093L10.8569 2.06104L10.9819 2.05103L11.1089 2.04102L11.2349 2.03101L11.3619 2.021L11.4899 2.01099H11.6179L11.7459 2.00098H11.8749H12.0039H12.1329ZM11.8999 4.00098H11.7969H11.6939L11.5909 4.01099H11.4889L11.3879 4.021L11.2859 4.03101L11.1849 4.04102L11.0839 4.05103L10.9839 4.06104L10.8839 4.08093L10.7839 4.09094L10.6859 4.11096L10.5879 4.12097L10.4899 4.14099L10.3909 4.16101L10.2939 4.18103L10.1969 4.20093L10.1009 4.23096L10.0059 4.25098L9.90991 4.28101L9.8139 4.30103L9.71991 4.33093L9.62689 4.36096L9.5329 4.39099L9.43994 4.42102L9.3479 4.45093L9.25592 4.48096L9.16394 4.521L9.07391 4.55103L8.98291 4.59094L8.89294 4.63098L8.80389 4.67102L8.7149 4.71094L8.62592 4.75098L8.53894 4.79102L8.4519 4.83093L8.36493 4.87097L8.27991 4.92102L8.19489 4.96094L8.10992 5.01099L8.0249 5.06104L7.94189 5.11096L7.85992 5.16101L7.77789 5.21094L7.69592 5.26099L7.61493 5.31104L7.53491 5.37097L7.4549 5.42102L7.37592 5.48096L7.29791 5.53101L7.22089 5.59094L7.14392 5.651L7.06793 5.71094L6.99292 5.76099L6.91888 5.83093L6.84393 5.89099L6.77094 5.95093L6.69891 6.01099L6.62689 6.08093L6.55591 6.14099L6.48694 6.21094L6.41791 6.28101L6.34894 6.34094L6.28094 6.41101L6.2149 6.48096L6.14893 6.55103L6.08289 6.62097L6.01892 6.69104L5.95593 6.771L5.89294 6.84094L5.83191 6.91101L5.77094 6.99097L5.71094 7.06104L5.65094 7.14099L5.59393 7.22095L5.53693 7.29102L5.47992 7.37097L5.42389 7.45093L5.36993 7.53101L5.31689 7.61096L5.26392 7.69104L5.21191 7.771L5.16193 7.85095L5.11292 7.94104L5.06293 8.021L5.01593 8.11096L4.96893 8.19104L4.92389 8.271L4.87891 8.36096L4.8349 8.45093L4.79291 8.53101L4.75092 8.62097L4.71094 8.71094L4.6709 8.80103L4.6319 8.89099L4.59491 8.98096L4.5589 9.07092L4.52289 9.16101L4.48889 9.25098L4.45691 9.34094L4.42389 9.44104L4.39294 9.53101L4.36389 9.62097L4.3349 9.72095L4.30792 9.81104L4.28094 9.901L4.25592 10.001L4.23193 10.101L4.20892 10.191L4.18793 10.291L4.16693 10.391L4.14789 10.481L4.12891 10.5809L4.11194 10.681L4.09692 10.781L4.08191 10.881L4.06891 10.981L4.05688 11.0809L4.0459 11.181L4.03589 11.281L4.02789 11.381L4.02094 11.481L4.01489 11.5909L4.00989 11.691L4.0069 11.791L4.00494 11.901L4.00391 12.001L4.00494 12.101L4.0069 12.2109L4.00989 12.311L4.01489 12.411L4.02094 12.511L4.02789 12.621L4.03589 12.7209L4.0459 12.8209L4.05688 12.921L4.06891 13.021L4.08191 13.121L4.09692 13.2209L4.11194 13.3209L4.12891 13.421L4.14789 13.511L4.16693 13.611L4.18793 13.7109L4.20892 13.811L4.23193 13.901L4.25592 14.001L4.28094 14.0909L4.30792 14.191L4.3349 14.281L4.36389 14.381L4.39294 14.4709L4.42389 14.561L4.45691 14.661L4.48889 14.751L4.52289 14.8409L4.5589 14.931L4.59491 15.021L4.6319 15.111L4.6709 15.2009L4.71094 15.291L4.75092 15.381L4.79291 15.4709L4.8349 15.551L4.87891 15.641L4.92389 15.7209L4.96893 15.811L5.01593 15.891L5.06293 15.981L5.11292 16.061L5.16193 16.141L5.21191 16.231L5.26392 16.311L5.31689 16.391L5.36993 16.4709L5.42389 16.551L5.47992 16.631L5.53693 16.7109L5.59393 16.781L5.65094 16.861L5.71094 16.941L5.77094 17.011L5.83191 17.0909L5.89294 17.161L5.95593 17.231L6.01892 17.301L6.08289 17.381L6.14893 17.4509L6.2149 17.521L6.28094 17.5909L6.34894 17.651L6.41791 17.7209L6.48694 17.791L6.55591 17.861L6.62689 17.921L6.69891 17.981L6.77094 18.051L6.84393 18.111L6.91888 18.171L6.99292 18.231L7.06793 18.291L7.14392 18.351L7.22089 18.411L7.29791 18.4709L7.37592 18.521L7.4549 18.5809L7.53491 18.631L7.61493 18.691L7.69592 18.741L7.77789 18.791L7.85992 18.8409L7.94189 18.891L8.0249 18.941L8.10992 18.991L8.19489 19.031L8.27991 19.0809L8.36493 19.121L8.4519 19.171L8.53894 19.2109L8.62592 19.251L8.7149 19.291L8.80389 19.3309L8.89294 19.371L8.98291 19.411L9.07391 19.4509L9.16394 19.481L9.25592 19.511L9.3479 19.551L9.43994 19.5809L9.5329 19.611L9.62689 19.641L9.71991 19.671L9.8139 19.7009L9.90991 19.7209L10.0059 19.751L10.1009 19.771L10.1969 19.791L10.2939 19.8209L10.3909 19.8409L10.4899 19.861L10.5879 19.871L10.6859 19.891L10.7839 19.911L10.8839 19.921L10.9839 19.941L11.0839 19.9509L11.1849 19.9609L11.2859 19.9709L11.3879 19.981H11.4889L11.5909 19.991H11.6939L11.7969 20.001H11.8999H12.0039H12.1079H12.2119L12.3149 19.991H12.4179L12.5199 19.981H12.6209L12.7229 19.9709L12.8239 19.9609L12.9239 19.9509L13.0239 19.941L13.1249 19.921L13.2249 19.911L13.3229 19.891L13.4209 19.871L13.5189 19.861L13.6179 19.8409L13.7149 19.8209L13.8109 19.791L13.9079 19.771L14.0029 19.751L14.0979 19.7209L14.1939 19.7009L14.2879 19.671L14.3819 19.641L14.4759 19.611L14.5689 19.5809L14.6609 19.551L14.7519 19.511L14.8449 19.481L14.9349 19.4509L15.0259 19.411L15.1159 19.371L15.2049 19.3309L15.2929 19.291L15.3819 19.251L15.4699 19.2109L15.5569 19.171L15.6439 19.121L15.7279 19.0809L15.8129 19.031L15.8989 18.991L15.9839 18.941L16.0669 18.891L16.1489 18.8409L16.2309 18.791L16.3129 18.741L16.3939 18.691L16.4739 18.631L16.5529 18.5809L16.6329 18.521L16.7099 18.4709L16.7879 18.411L16.8649 18.351L16.9409 18.291L17.0159 18.231L17.0899 18.171L17.1649 18.111L17.2379 18.051L17.3099 17.981L17.3809 17.921L17.4519 17.861L17.5219 17.791L17.5909 17.7209L17.6599 17.651L17.7279 17.5909L17.7939 17.521L17.8599 17.4509L17.9249 17.381L17.9899 17.301L18.0529 17.231L18.1149 17.161L18.1769 17.0909L18.2379 17.011L18.2979 16.941L18.3569 16.861L18.4149 16.781L18.4719 16.7109L18.5279 16.631L18.5839 16.551L18.6379 16.4709L18.6919 16.391L18.7439 16.311L18.7959 16.231L18.8469 16.141L18.8959 16.061L18.9449 15.981L18.9929 15.891L19.0399 15.811L19.0849 15.7209L19.1299 15.641L19.1729 15.551L19.2159 15.4709L19.2569 15.381L19.2979 15.291L19.3379 15.2009L19.3759 15.111L19.4129 15.021L19.4499 14.931L19.4849 14.8409L19.5189 14.751L19.5519 14.661L19.5839 14.561L19.6149 14.4709L19.6449 14.381L19.6729 14.281L19.7009 14.191L19.7269 14.0909L19.7529 14.001L19.7759 13.901L19.7989 13.811L19.8209 13.7109L19.8409 13.611L19.8609 13.511L19.8789 13.421L19.8959 13.3209L19.9119 13.2209L19.9259 13.121L19.9399 13.021L19.9519 12.921L19.9629 12.8209L19.9719 12.7209L19.9809 12.621L19.9879 12.511L19.9939 12.411L19.9979 12.311L20.0019 12.2109L20.0039 12.101V12.001V11.901L20.0019 11.791L19.9979 11.691L19.9939 11.5909L19.9879 11.481L19.9809 11.381L19.9719 11.281L19.9629 11.181L19.9519 11.0809L19.9399 10.981L19.9259 10.881L19.9119 10.781L19.8959 10.681L19.8789 10.5809L19.8609 10.491L19.8409 10.391L19.8209 10.291L19.7989 10.191L19.7759 10.101L19.7529 10.001L19.7269 9.91101L19.7009 9.81104L19.6729 9.72095L19.6449 9.62097L19.6149 9.53101L19.5839 9.44104L19.5519 9.34094L19.5189 9.25098L19.4849 9.16101L19.4499 9.07092L19.4129 8.98096L19.3759 8.89099L19.3379 8.80103L19.2979 8.71094L19.2569 8.62097L19.2159 8.53101L19.1729 8.45093L19.1299 8.36096L19.0849 8.271L19.0399 8.19104L18.9929 8.11096L18.9449 8.021L18.8959 7.94104L18.8469 7.86096L18.7959 7.771L18.7439 7.69104L18.6919 7.61096L18.6379 7.53101L18.5839 7.45093L18.5279 7.37097L18.4719 7.29102L18.4149 7.22095L18.3569 7.14099L18.2979 7.06104L18.2379 6.99097L18.1769 6.91101L18.1149 6.84094L18.0529 6.771L17.9899 6.69104L17.9249 6.62097L17.8599 6.55103L17.7939 6.48096L17.7279 6.41101L17.6599 6.34094L17.5909 6.28101L17.5219 6.21094L17.4519 6.14099L17.3809 6.08093L17.3099 6.01099L17.2379 5.95093L17.1649 5.89099L17.0899 5.83093L17.0159 5.76099L16.9409 5.71094L16.8649 5.651L16.7879 5.59094L16.7099 5.53101L16.6329 5.48096L16.5529 5.42102L16.4739 5.37097L16.3939 5.31104L16.3129 5.26099L16.2309 5.21094L16.1489 5.16101L16.0669 5.11096L15.9839 5.06104L15.8989 5.01099L15.8129 4.96094L15.7279 4.92102L15.6439 4.87097L15.5569 4.83093L15.4699 4.79102L15.3819 4.75098L15.2929 4.71094L15.2049 4.67102L15.1159 4.63098L15.0259 4.59094L14.9349 4.55103L14.8449 4.521L14.7519 4.48096L14.6609 4.45093L14.5689 4.42102L14.4759 4.39099L14.3819 4.36096L14.2879 4.33093L14.1939 4.30103L14.0979 4.28101L14.0029 4.25098L13.9079 4.23096L13.8109 4.20093L13.7149 4.18103L13.6179 4.16101L13.5189 4.14099L13.4209 4.12097L13.3229 4.11096L13.2249 4.09094L13.1249 4.08093L13.0239 4.06104L12.9239 4.05103L12.8239 4.04102L12.7229 4.03101L12.6209 4.021L12.5199 4.01099H12.4179L12.3149 4.00098H12.2119H12.1079H12.0039H11.8999Z" fill="black"/>
<path d="M9.00391 11.001C9.55619 11.001 10.0039 10.5533 10.0039 10.001C10.0039 9.44869 9.55619 9.00098 9.00391 9.00098C8.45162 9.00098 8.00391 9.44869 8.00391 10.001C8.00391 10.5533 8.45162 11.001 9.00391 11.001Z" fill="black"/>
<path d="M15.0039 11.001C15.5562 11.001 16.0039 10.5533 16.0039 10.001C16.0039 9.44869 15.5562 9.00098 15.0039 9.00098C14.4516 9.00098 14.0039 9.44869 14.0039 10.001C14.0039 10.5533 14.4516 11.001 15.0039 11.001Z" fill="black"/>
<path d="M15.8889 13.8904C13.7428 16.0365 10.2562 16.0359 8.11072 13.8904" stroke="black" stroke-width="1.09" stroke-miterlimit="100" stroke-linecap="round" stroke-linejoin="round"/>
<circle cx="12" cy="12" r="9" fill="black" fill-opacity="0.1"/>
</svg>
