<svg width="24" height="24" viewBox="0 0 24 24" fill="none" xmlns="http://www.w3.org/2000/svg">
<g clip-path="url(#clip0)">
<rect width="8.5" height="8.5" fill="black" fill-opacity="0" transform="translate(7.72705 7.72717) scale(0.941176)"/>
<path d="M11.727 15.7272C13.9362 15.7272 15.727 13.9363 15.727 11.7272C15.727 9.51803 13.9362 7.72717 11.727 7.72717C9.51791 7.72717 7.72705 9.51803 7.72705 11.7272C7.72705 13.9363 9.51791 15.7272 11.727 15.7272Z" stroke="#333333" stroke-width="2.13" stroke-miterlimit="100" stroke-linecap="round" stroke-linejoin="round"/>
<rect width="6" height="3" fill="black" fill-opacity="0" transform="translate(15.7262 11.7273) scale(0.833333)"/>
<path d="M20.7262 11.7273C20.7262 13.1106 19.6062 14.2273 18.2262 14.2273C16.847 14.2273 15.7262 13.1106 15.7262 11.7273" stroke="#333333" stroke-width="2.4" stroke-miterlimit="100" stroke-linecap="round" stroke-linejoin="round"/>
<rect width="12" height="12" fill="black" fill-opacity="0" transform="translate(-1 11.7279) scale(1.5) rotate(-45)"/>
<path d="M18.0919 18.0919C14.58 21.6037 8.87474 21.6026 5.36396 18.0919C1.85318 14.5811 1.85211 8.87579 5.36396 5.36395C8.87687 1.85104 14.5811 1.85316 18.0919 5.36395" stroke="#333333" stroke-width="1.33" stroke-miterlimit="100" stroke-linecap="round" stroke-linejoin="round"/>
<rect width="6" height="6" fill="black" fill-opacity="0" transform="translate(11.728 2.72668) scale(1.5)"/>
<path d="M11.728 2.72668C16.696 2.72668 20.728 6.76168 20.728 11.7267" stroke="#333333" stroke-width="1.33" stroke-miterlimit="100" stroke-linecap="round" stroke-linejoin="round"/>
</g>
<defs>
<clipPath id="clip0">
<rect width="24" height="24" fill="white"/>
</clipPath>
</defs>
</svg>
