<svg width="24" height="24" viewBox="0 0 24 24" fill="none" xmlns="http://www.w3.org/2000/svg">
<path fill-rule="evenodd" clip-rule="evenodd" d="M15.7071 4.29293C15.3166 3.90241 14.6834 3.90241 14.2929 4.29293C13.9024 4.68345 13.9024 5.31662 14.2929 5.70714L17.5858 9.00004H8.00099C8.00066 9.00004 8.00033 9.00004 8 9.00004C5.23858 9.00004 3 11.2386 3 14C3 16.7615 5.23858 19 8 19C8.55228 19 9 18.5523 9 18C9 17.4478 8.55228 17 8 17C6.34315 17 5 15.6569 5 14C5 12.3432 6.34315 11 8 11H17.5858L14.2929 14.2929C13.9024 14.6835 13.9024 15.3166 14.2929 15.7071C14.6834 16.0977 15.3166 16.0977 15.7071 15.7071L20.7071 10.7071C21.0976 10.3166 21.0976 9.68345 20.7071 9.29293L15.7071 4.29293Z" fill="black"/>
</svg>
