<?xml version="1.0" encoding="UTF-8" standalone="no"?>
<!DOCTYPE svg PUBLIC "-//W3C//DTD SVG 1.1//EN" "http://www.w3.org/Graphics/SVG/1.1/DTD/svg11.dtd">
<svg width="24px" height="24px" version="1.1" xmlns="http://www.w3.org/2000/svg" xmlns:xlink="http://www.w3.org/1999/xlink" xml:space="preserve" xmlns:serif="http://www.serif.com/" style="fill-rule:evenodd;clip-rule:evenodd;stroke-linecap:round;stroke-linejoin:round;stroke-miterlimit:100;">
    <g transform="matrix(1,0,0,1,-578,-1455)">
        <g id="social.regular.hashtag" transform="matrix(1,0,0,1,-990,685)">
            <rect x="1568" y="770" width="24" height="24" style="fill:none;"/>
            <g transform="matrix(1,0,0,1,987.846,-685.119)">
                <path d="M590.154,1458.12L588.154,1476.12" style="fill:none;stroke:rgb(51,51,51);stroke-width:2px;"/>
            </g>
            <g transform="matrix(1,0,0,1,991.846,-685.119)">
                <path d="M592.154,1458.12L590.154,1476.12" style="fill:none;stroke:rgb(51,51,51);stroke-width:2px;"/>
            </g>
            <g transform="matrix(1,0,0,1,988.346,-682.619)">
                <path d="M598.654,1461.62L585.654,1461.62" style="fill:none;stroke:rgb(51,51,51);stroke-width:2px;"/>
            </g>
            <g transform="matrix(1,0,0,1e-20,988.846,783)">
                <path d="M585.154,-2.14748e+06L598.154,-2.14748e+06" style="fill:none;stroke:rgb(51,51,51);stroke-width:2.83px;"/>
            </g>
        </g>
    </g>
</svg>
