<?xml version="1.0" encoding="UTF-8" standalone="no"?>
<!DOCTYPE svg PUBLIC "-//W3C//DTD SVG 1.1//EN" "http://www.w3.org/Graphics/SVG/1.1/DTD/svg11.dtd">
<svg width="24px" height="24px" version="1.1" xmlns="http://www.w3.org/2000/svg" xmlns:xlink="http://www.w3.org/1999/xlink" xml:space="preserve" xmlns:serif="http://www.serif.com/" style="fill-rule:evenodd;clip-rule:evenodd;stroke-linecap:round;stroke-linejoin:round;stroke-miterlimit:100;">
    <g transform="matrix(1,0,0,1,-1028,-1455)">
        <g id="social.regular.emoji" transform="matrix(1,0,0,1,-540,685)">
            <rect x="1568" y="770" width="24" height="24" style="fill:none;"/>
            <g transform="matrix(1,0,0,1,1035.85,-684.119)">
                <path d="M544.283,1456.12L544.412,1456.12L544.541,1456.13L544.669,1456.13L544.796,1456.14L544.923,1456.15L545.05,1456.16L545.176,1456.17L545.302,1456.18L545.427,1456.2L545.552,1456.22L545.676,1456.23L545.8,1456.25L545.924,1456.28L546.046,1456.3L546.169,1456.32L546.29,1456.35L546.412,1456.38L546.532,1456.4L546.652,1456.43L546.772,1456.47L546.891,1456.5L547.009,1456.53L547.127,1456.57L547.244,1456.61L547.36,1456.64L547.476,1456.68L547.591,1456.73L547.706,1456.77L547.82,1456.81L547.933,1456.86L548.045,1456.91L548.157,1456.95L548.268,1457L548.378,1457.05L548.488,1457.11L548.597,1457.16L548.705,1457.21L548.813,1457.27L548.919,1457.33L549.025,1457.38L549.13,1457.44L549.235,1457.51L549.338,1457.57L549.441,1457.63L549.543,1457.69L549.644,1457.76L549.744,1457.83L549.843,1457.9L549.942,1457.96L550.039,1458.04L550.136,1458.11L550.232,1458.18L550.327,1458.25L550.421,1458.33L550.514,1458.4L550.606,1458.48L550.697,1458.56L550.787,1458.64L550.877,1458.72L550.965,1458.8L551.052,1458.88L551.139,1458.96L551.224,1459.05L551.308,1459.13L551.392,1459.22L551.474,1459.31L551.555,1459.4L551.635,1459.49L551.715,1459.58L551.793,1459.67L551.87,1459.76L551.945,1459.85L552.02,1459.95L552.094,1460.04L552.167,1460.14L552.238,1460.23L552.308,1460.33L552.377,1460.43L552.445,1460.53L552.512,1460.63L552.578,1460.73L552.642,1460.83L552.706,1460.93L552.768,1461.04L552.829,1461.14L552.888,1461.25L552.947,1461.35L553.004,1461.46L553.06,1461.57L553.114,1461.68L553.168,1461.79L553.22,1461.89L553.27,1462.01L553.32,1462.12L553.368,1462.23L553.415,1462.34L553.46,1462.45L553.504,1462.57L553.547,1462.68L553.588,1462.8L553.629,1462.91L553.667,1463.03L553.704,1463.15L553.74,1463.27L553.775,1463.38L553.808,1463.5L553.839,1463.62L553.869,1463.74L553.898,1463.86L553.925,1463.98L553.951,1464.11L553.975,1464.23L553.998,1464.35L554.019,1464.47L554.039,1464.6L554.057,1464.72L554.074,1464.85L554.089,1464.97L554.103,1465.1L554.115,1465.22L554.125,1465.35L554.134,1465.48L554.141,1465.61L554.147,1465.73L554.151,1465.86L554.153,1465.99L554.154,1466.12L554.153,1466.25L554.151,1466.38L554.147,1466.51L554.141,1466.63L554.134,1466.76L554.125,1466.89L554.115,1467.02L554.103,1467.14L554.089,1467.27L554.074,1467.39L554.057,1467.52L554.039,1467.64L554.019,1467.77L553.998,1467.89L553.975,1468.01L553.951,1468.13L553.925,1468.26L553.898,1468.38L553.869,1468.5L553.839,1468.62L553.808,1468.74L553.775,1468.86L553.74,1468.97L553.704,1469.09L553.667,1469.21L553.629,1469.33L553.588,1469.44L553.547,1469.56L553.504,1469.67L553.46,1469.78L553.415,1469.9L553.368,1470.01L553.32,1470.12L553.27,1470.23L553.22,1470.34L553.168,1470.45L553.114,1470.56L553.06,1470.67L553.004,1470.78L552.947,1470.88L552.888,1470.99L552.829,1471.1L552.768,1471.2L552.706,1471.3L552.642,1471.41L552.578,1471.51L552.512,1471.61L552.445,1471.71L552.377,1471.81L552.308,1471.91L552.238,1472L552.167,1472.1L552.094,1472.2L552.02,1472.29L551.945,1472.38L551.87,1472.48L551.793,1472.57L551.715,1472.66L551.635,1472.75L551.555,1472.84L551.474,1472.93L551.392,1473.02L551.308,1473.1L551.224,1473.19L551.139,1473.27L551.052,1473.36L550.965,1473.44L550.877,1473.52L550.787,1473.6L550.697,1473.68L550.606,1473.76L550.514,1473.83L550.421,1473.91L550.327,1473.99L550.232,1474.06L550.136,1474.13L550.039,1474.2L549.942,1474.27L549.843,1474.34L549.744,1474.41L549.644,1474.48L549.543,1474.54L549.441,1474.61L549.338,1474.67L549.235,1474.73L549.13,1474.79L549.025,1474.85L548.919,1474.91L548.813,1474.97L548.705,1475.02L548.597,1475.08L548.488,1475.13L548.378,1475.18L548.268,1475.24L548.157,1475.29L548.045,1475.33L547.933,1475.38L547.82,1475.42L547.706,1475.47L547.591,1475.51L547.476,1475.55L547.36,1475.59L547.244,1475.63L547.127,1475.67L547.009,1475.7L546.891,1475.74L546.772,1475.77L546.652,1475.8L546.532,1475.83L546.412,1475.86L546.29,1475.89L546.169,1475.92L546.046,1475.94L545.924,1475.96L545.8,1475.98L545.676,1476L545.552,1476.02L545.427,1476.04L545.302,1476.05L545.176,1476.07L545.05,1476.08L544.923,1476.09L544.796,1476.1L544.669,1476.11L544.541,1476.11L544.412,1476.12L544.283,1476.12L544.154,1476.12L544.025,1476.12L543.896,1476.12L543.768,1476.11L543.64,1476.11L543.512,1476.1L543.385,1476.09L543.259,1476.08L543.132,1476.07L543.007,1476.05L542.881,1476.04L542.757,1476.02L542.632,1476L542.508,1475.98L542.385,1475.96L542.262,1475.94L542.14,1475.92L542.018,1475.89L541.897,1475.86L541.776,1475.83L541.656,1475.8L541.537,1475.77L541.418,1475.74L541.3,1475.7L541.182,1475.67L541.065,1475.63L540.948,1475.59L540.833,1475.55L540.717,1475.51L540.603,1475.47L540.489,1475.42L540.376,1475.38L540.263,1475.33L540.152,1475.29L540.041,1475.24L539.93,1475.18L539.82,1475.13L539.712,1475.08L539.603,1475.02L539.496,1474.97L539.389,1474.91L539.283,1474.85L539.178,1474.79L539.074,1474.73L538.971,1474.67L538.868,1474.61L538.766,1474.54L538.665,1474.48L538.565,1474.41L538.465,1474.34L538.367,1474.27L538.269,1474.2L538.173,1474.13L538.077,1474.06L537.982,1473.99L537.888,1473.91L537.795,1473.83L537.703,1473.76L537.612,1473.68L537.521,1473.6L537.432,1473.52L537.344,1473.44L537.256,1473.36L537.17,1473.27L537.085,1473.19L537,1473.1L536.917,1473.02L536.835,1472.93L536.753,1472.84L536.673,1472.75L536.594,1472.66L536.516,1472.57L536.439,1472.48L536.363,1472.38L536.288,1472.29L536.215,1472.2L536.142,1472.1L536.071,1472L536,1471.91L535.931,1471.81L535.863,1471.71L535.796,1471.61L535.731,1471.51L535.666,1471.41L535.603,1471.3L535.541,1471.2L535.48,1471.1L535.42,1470.99L535.362,1470.88L535.305,1470.78L535.249,1470.67L535.194,1470.56L535.141,1470.45L535.089,1470.34L535.038,1470.23L534.989,1470.12L534.941,1470.01L534.894,1469.9L534.848,1469.78L534.804,1469.67L534.762,1469.56L534.72,1469.44L534.68,1469.33L534.641,1469.21L534.604,1469.09L534.568,1468.97L534.534,1468.86L534.501,1468.74L534.469,1468.62L534.439,1468.5L534.411,1468.38L534.383,1468.26L534.358,1468.13L534.333,1468.01L534.311,1467.89L534.289,1467.77L534.27,1467.64L534.251,1467.52L534.235,1467.39L534.22,1467.27L534.206,1467.14L534.194,1467.02L534.183,1466.89L534.175,1466.76L534.167,1466.63L534.162,1466.51L534.158,1466.38L534.155,1466.25L534.154,1466.12L534.155,1465.99L534.158,1465.86L534.162,1465.73L534.167,1465.61L534.175,1465.48L534.183,1465.35L534.194,1465.22L534.206,1465.1L534.22,1464.97L534.235,1464.85L534.251,1464.72L534.27,1464.6L534.289,1464.47L534.311,1464.35L534.333,1464.23L534.358,1464.11L534.383,1463.98L534.411,1463.86L534.439,1463.74L534.469,1463.62L534.501,1463.5L534.534,1463.38L534.568,1463.27L534.604,1463.15L534.641,1463.03L534.68,1462.91L534.72,1462.8L534.762,1462.68L534.804,1462.57L534.848,1462.45L534.894,1462.34L534.941,1462.23L534.989,1462.12L535.038,1462.01L535.089,1461.89L535.141,1461.79L535.194,1461.68L535.249,1461.57L535.305,1461.46L535.362,1461.35L535.42,1461.25L535.48,1461.14L535.541,1461.04L535.603,1460.93L535.666,1460.83L535.731,1460.73L535.796,1460.63L535.863,1460.53L535.931,1460.43L536,1460.33L536.071,1460.23L536.142,1460.14L536.215,1460.04L536.288,1459.95L536.363,1459.85L536.439,1459.76L536.516,1459.67L536.594,1459.58L536.673,1459.49L536.753,1459.4L536.835,1459.31L536.917,1459.22L537,1459.13L537.085,1459.05L537.17,1458.96L537.256,1458.88L537.344,1458.8L537.432,1458.72L537.521,1458.64L537.612,1458.56L537.703,1458.48L537.795,1458.4L537.888,1458.33L537.982,1458.25L538.077,1458.18L538.173,1458.11L538.269,1458.04L538.367,1457.96L538.465,1457.9L538.565,1457.83L538.665,1457.76L538.766,1457.69L538.868,1457.63L538.971,1457.57L539.074,1457.51L539.178,1457.44L539.283,1457.38L539.389,1457.33L539.496,1457.27L539.603,1457.21L539.712,1457.16L539.82,1457.11L539.93,1457.05L540.041,1457L540.152,1456.95L540.263,1456.91L540.376,1456.86L540.489,1456.81L540.603,1456.77L540.717,1456.73L540.833,1456.68L540.948,1456.64L541.065,1456.61L541.182,1456.57L541.3,1456.53L541.418,1456.5L541.537,1456.47L541.656,1456.43L541.776,1456.4L541.897,1456.38L542.018,1456.35L542.14,1456.32L542.262,1456.3L542.385,1456.28L542.508,1456.25L542.632,1456.23L542.757,1456.22L542.881,1456.2L543.007,1456.18L543.132,1456.17L543.259,1456.16L543.385,1456.15L543.512,1456.14L543.64,1456.13L543.768,1456.13L543.896,1456.12L544.025,1456.12L544.154,1456.12L544.283,1456.12ZM544.05,1458.12L543.947,1458.12L543.844,1458.12L543.741,1458.13L543.639,1458.13L543.538,1458.14L543.436,1458.15L543.335,1458.16L543.234,1458.17L543.134,1458.18L543.034,1458.2L542.934,1458.21L542.836,1458.23L542.738,1458.24L542.64,1458.26L542.541,1458.28L542.444,1458.3L542.347,1458.32L542.251,1458.35L542.156,1458.37L542.06,1458.4L541.964,1458.42L541.87,1458.45L541.777,1458.48L541.683,1458.51L541.59,1458.54L541.498,1458.57L541.406,1458.6L541.314,1458.64L541.224,1458.67L541.133,1458.71L541.043,1458.75L540.954,1458.79L540.865,1458.83L540.776,1458.87L540.689,1458.91L540.602,1458.95L540.515,1458.99L540.43,1459.04L540.345,1459.08L540.26,1459.13L540.175,1459.18L540.092,1459.23L540.01,1459.28L539.928,1459.33L539.846,1459.38L539.765,1459.43L539.685,1459.49L539.605,1459.54L539.526,1459.6L539.448,1459.65L539.371,1459.71L539.294,1459.77L539.218,1459.83L539.143,1459.88L539.069,1459.95L538.994,1460.01L538.921,1460.07L538.849,1460.13L538.777,1460.2L538.706,1460.26L538.637,1460.33L538.568,1460.4L538.499,1460.46L538.431,1460.53L538.365,1460.6L538.299,1460.67L538.233,1460.74L538.169,1460.81L538.106,1460.89L538.043,1460.96L537.982,1461.03L537.921,1461.11L537.861,1461.18L537.801,1461.26L537.744,1461.34L537.687,1461.41L537.63,1461.49L537.574,1461.57L537.52,1461.65L537.467,1461.73L537.414,1461.81L537.362,1461.89L537.312,1461.97L537.263,1462.06L537.213,1462.14L537.166,1462.23L537.119,1462.31L537.074,1462.39L537.029,1462.48L536.985,1462.57L536.943,1462.65L536.901,1462.74L536.861,1462.83L536.821,1462.92L536.782,1463.01L536.745,1463.1L536.709,1463.19L536.673,1463.28L536.639,1463.37L536.607,1463.46L536.574,1463.56L536.543,1463.65L536.514,1463.74L536.485,1463.84L536.458,1463.93L536.431,1464.02L536.406,1464.12L536.382,1464.22L536.359,1464.31L536.338,1464.41L536.317,1464.51L536.298,1464.6L536.279,1464.7L536.262,1464.8L536.247,1464.9L536.232,1465L536.219,1465.1L536.207,1465.2L536.196,1465.3L536.186,1465.4L536.178,1465.5L536.171,1465.6L536.165,1465.71L536.16,1465.81L536.157,1465.91L536.155,1466.02L536.154,1466.12L536.155,1466.22L536.157,1466.33L536.16,1466.43L536.165,1466.53L536.171,1466.63L536.178,1466.74L536.186,1466.84L536.196,1466.94L536.207,1467.04L536.219,1467.14L536.232,1467.24L536.247,1467.34L536.262,1467.44L536.279,1467.54L536.298,1467.63L536.317,1467.73L536.338,1467.83L536.359,1467.93L536.382,1468.02L536.406,1468.12L536.431,1468.21L536.458,1468.31L536.485,1468.4L536.514,1468.5L536.543,1468.59L536.574,1468.68L536.607,1468.78L536.639,1468.87L536.673,1468.96L536.709,1469.05L536.745,1469.14L536.782,1469.23L536.821,1469.32L536.861,1469.41L536.901,1469.5L536.943,1469.59L536.985,1469.67L537.029,1469.76L537.074,1469.84L537.119,1469.93L537.166,1470.01L537.213,1470.1L537.263,1470.18L537.312,1470.26L537.362,1470.35L537.414,1470.43L537.467,1470.51L537.52,1470.59L537.574,1470.67L537.63,1470.75L537.687,1470.83L537.744,1470.9L537.801,1470.98L537.861,1471.06L537.921,1471.13L537.982,1471.21L538.043,1471.28L538.106,1471.35L538.169,1471.42L538.233,1471.5L538.299,1471.57L538.365,1471.64L538.431,1471.71L538.499,1471.77L538.568,1471.84L538.637,1471.91L538.706,1471.98L538.777,1472.04L538.849,1472.1L538.921,1472.17L538.994,1472.23L539.069,1472.29L539.143,1472.35L539.218,1472.41L539.294,1472.47L539.371,1472.53L539.448,1472.59L539.526,1472.64L539.605,1472.7L539.685,1472.75L539.765,1472.81L539.846,1472.86L539.928,1472.91L540.01,1472.96L540.092,1473.01L540.175,1473.06L540.26,1473.11L540.345,1473.15L540.43,1473.2L540.515,1473.24L540.602,1473.29L540.689,1473.33L540.776,1473.37L540.865,1473.41L540.954,1473.45L541.043,1473.49L541.133,1473.53L541.224,1473.57L541.314,1473.6L541.406,1473.63L541.498,1473.67L541.59,1473.7L541.683,1473.73L541.777,1473.76L541.87,1473.79L541.964,1473.82L542.06,1473.84L542.156,1473.87L542.251,1473.89L542.347,1473.91L542.444,1473.94L542.541,1473.96L542.64,1473.98L542.738,1473.99L542.836,1474.01L542.934,1474.03L543.034,1474.04L543.134,1474.06L543.234,1474.07L543.335,1474.08L543.436,1474.09L543.538,1474.1L543.639,1474.1L543.741,1474.11L543.844,1474.11L543.947,1474.12L544.05,1474.12L544.154,1474.12L544.258,1474.12L544.362,1474.12L544.465,1474.11L544.568,1474.11L544.67,1474.1L544.771,1474.1L544.873,1474.09L544.974,1474.08L545.074,1474.07L545.174,1474.06L545.275,1474.04L545.375,1474.03L545.473,1474.01L545.571,1473.99L545.669,1473.98L545.768,1473.96L545.865,1473.94L545.961,1473.91L546.058,1473.89L546.153,1473.87L546.248,1473.84L546.344,1473.82L546.438,1473.79L546.532,1473.76L546.626,1473.73L546.719,1473.7L546.811,1473.67L546.902,1473.63L546.995,1473.6L547.085,1473.57L547.176,1473.53L547.266,1473.49L547.355,1473.45L547.443,1473.41L547.532,1473.37L547.62,1473.33L547.707,1473.29L547.794,1473.24L547.878,1473.2L547.963,1473.15L548.049,1473.11L548.134,1473.06L548.217,1473.01L548.299,1472.96L548.381,1472.91L548.463,1472.86L548.544,1472.81L548.624,1472.75L548.703,1472.7L548.783,1472.64L548.86,1472.59L548.938,1472.53L549.015,1472.47L549.091,1472.41L549.166,1472.35L549.24,1472.29L549.315,1472.23L549.388,1472.17L549.46,1472.1L549.531,1472.04L549.602,1471.98L549.672,1471.91L549.741,1471.84L549.81,1471.77L549.878,1471.71L549.944,1471.64L550.01,1471.57L550.075,1471.5L550.14,1471.42L550.203,1471.35L550.265,1471.28L550.327,1471.21L550.388,1471.13L550.448,1471.06L550.507,1470.98L550.565,1470.9L550.622,1470.83L550.678,1470.75L550.734,1470.67L550.788,1470.59L550.842,1470.51L550.894,1470.43L550.946,1470.35L550.997,1470.26L551.046,1470.18L551.095,1470.1L551.143,1470.01L551.19,1469.93L551.235,1469.84L551.28,1469.76L551.323,1469.67L551.366,1469.59L551.407,1469.5L551.448,1469.41L551.488,1469.32L551.526,1469.23L551.563,1469.14L551.6,1469.05L551.635,1468.96L551.669,1468.87L551.702,1468.78L551.734,1468.68L551.765,1468.59L551.795,1468.5L551.823,1468.4L551.851,1468.31L551.877,1468.21L551.903,1468.12L551.926,1468.02L551.949,1467.93L551.971,1467.83L551.991,1467.73L552.011,1467.63L552.029,1467.54L552.046,1467.44L552.062,1467.34L552.076,1467.24L552.09,1467.14L552.102,1467.04L552.113,1466.94L552.122,1466.84L552.131,1466.74L552.138,1466.63L552.144,1466.53L552.148,1466.43L552.152,1466.33L552.154,1466.22L552.154,1466.12L552.154,1466.02L552.152,1465.91L552.148,1465.81L552.144,1465.71L552.138,1465.6L552.131,1465.5L552.122,1465.4L552.113,1465.3L552.102,1465.2L552.09,1465.1L552.076,1465L552.062,1464.9L552.046,1464.8L552.029,1464.7L552.011,1464.61L551.991,1464.51L551.971,1464.41L551.949,1464.31L551.926,1464.22L551.903,1464.12L551.877,1464.03L551.851,1463.93L551.823,1463.84L551.795,1463.74L551.765,1463.65L551.734,1463.56L551.702,1463.46L551.669,1463.37L551.635,1463.28L551.6,1463.19L551.563,1463.1L551.526,1463.01L551.488,1462.92L551.448,1462.83L551.407,1462.74L551.366,1462.65L551.323,1462.57L551.28,1462.48L551.235,1462.39L551.19,1462.31L551.143,1462.23L551.095,1462.14L551.046,1462.06L550.997,1461.98L550.946,1461.89L550.894,1461.81L550.842,1461.73L550.788,1461.65L550.734,1461.57L550.678,1461.49L550.622,1461.41L550.565,1461.34L550.507,1461.26L550.448,1461.18L550.388,1461.11L550.327,1461.03L550.265,1460.96L550.203,1460.89L550.14,1460.81L550.075,1460.74L550.01,1460.67L549.944,1460.6L549.878,1460.53L549.81,1460.46L549.741,1460.4L549.672,1460.33L549.602,1460.26L549.531,1460.2L549.46,1460.13L549.388,1460.07L549.315,1460.01L549.24,1459.95L549.166,1459.88L549.091,1459.83L549.015,1459.77L548.938,1459.71L548.86,1459.65L548.783,1459.6L548.703,1459.54L548.624,1459.49L548.544,1459.43L548.463,1459.38L548.381,1459.33L548.299,1459.28L548.217,1459.23L548.134,1459.18L548.049,1459.13L547.963,1459.08L547.878,1459.04L547.794,1458.99L547.707,1458.95L547.62,1458.91L547.532,1458.87L547.443,1458.83L547.355,1458.79L547.266,1458.75L547.176,1458.71L547.085,1458.67L546.995,1458.64L546.902,1458.6L546.811,1458.57L546.719,1458.54L546.626,1458.51L546.532,1458.48L546.438,1458.45L546.344,1458.42L546.248,1458.4L546.153,1458.37L546.058,1458.35L545.961,1458.32L545.865,1458.3L545.768,1458.28L545.669,1458.26L545.571,1458.24L545.473,1458.23L545.375,1458.21L545.275,1458.2L545.174,1458.18L545.074,1458.17L544.974,1458.16L544.873,1458.15L544.771,1458.14L544.67,1458.13L544.568,1458.13L544.465,1458.12L544.362,1458.12L544.258,1458.12L544.154,1458.12L544.05,1458.12Z" style="fill:rgb(51,51,51);"/>
            </g>
            <g transform="matrix(1,0,0,1,1036.85,-684.119)">
                <circle cx="540.154" cy="1464.12" r="1" style="fill:rgb(51,51,51);"/>
            </g>
            <g transform="matrix(1,0,0,1,1042.85,-684.119)">
                <circle cx="540.154" cy="1464.12" r="1" style="fill:rgb(51,51,51);"/>
            </g>
            <g transform="matrix(0.648181,-0.648181,0.648181,0.648181,276.408,181.83)">
                <path d="M544.154,1473C540.843,1473 538.154,1470.31 538.154,1467" style="fill:none;stroke:rgb(51,51,51);stroke-width:1.09px;"/>
            </g>
        </g>
    </g>
</svg>
