<svg width="24" height="24" viewBox="0 0 24 24" fill="none" xmlns="http://www.w3.org/2000/svg">
<path fill-rule="evenodd" clip-rule="evenodd" d="M8 6C8 7.10457 7.10457 8 6 8C4.89543 8 4 7.10457 4 6C4 4.89543 4.89543 4 6 4C7.10457 4 8 4.89543 8 6ZM9.01696 8.62648C8.28365 9.4681 7.20394 10 6 10C3.79086 10 2 8.20914 2 6C2 3.79086 3.79086 2 6 2C8.20914 2 10 3.79086 10 6C10 6.28741 9.96969 6.56775 9.91208 6.83798L14.9831 9.37347C15.7164 8.53188 16.7961 8 18 8C20.2091 8 22 9.79086 22 12C22 14.2091 20.2091 16 18 16C16.7961 16 15.7164 15.4681 14.9831 14.6265L9.91208 17.162C9.96968 17.4322 10 17.7126 10 18C10 20.2091 8.20914 22 6 22C3.79086 22 2 20.2091 2 18C2 15.7909 3.79086 14 6 14C7.20393 14 8.28363 14.5319 9.01693 15.3735L14.0879 12.838C14.0303 12.5678 14 12.2874 14 12C14 11.7126 14.0303 11.4322 14.0879 11.162L9.01696 8.62648ZM20 12C20 13.1046 19.1046 14 18 14C16.8954 14 16 13.1046 16 12C16 10.8954 16.8954 10 18 10C19.1046 10 20 10.8954 20 12ZM6 20C7.10457 20 8 19.1046 8 18C8 16.8954 7.10457 16 6 16C4.89543 16 4 16.8954 4 18C4 19.1046 4.89543 20 6 20Z" fill="black"/>
</svg>
