<?xml version="1.0" encoding="UTF-8" standalone="no"?>
<!DOCTYPE svg PUBLIC "-//W3C//DTD SVG 1.1//EN" "http://www.w3.org/Graphics/SVG/1.1/DTD/svg11.dtd">
<svg width="24px" height="24px" version="1.1" xmlns="http://www.w3.org/2000/svg" xmlns:xlink="http://www.w3.org/1999/xlink" xml:space="preserve" xmlns:serif="http://www.serif.com/" style="fill-rule:evenodd;clip-rule:evenodd;stroke-linejoin:round;stroke-miterlimit:1.41421;">
    <g transform="matrix(1,0,0,1,-932,-1503)">
        <g id="social.thin.chatBubbleSquare" transform="matrix(1,0,0,1,-636,733)">
            <rect x="1568" y="770" width="24" height="24" style="fill:none;"/>
            <g transform="matrix(1,0,0,1,1131.85,-733.119)">
                <path d="M456.154,1517.12C456.154,1517.65 455.944,1518.16 455.569,1518.53C455.193,1518.91 454.685,1519.12 454.154,1519.12C451.503,1519.12 447.154,1519.12 447.154,1519.12C447.154,1519.12 445.949,1520.33 444.861,1521.41C444.575,1521.7 444.145,1521.78 443.772,1521.63C443.398,1521.47 443.154,1521.11 443.154,1520.7C443.154,1519.86 443.154,1519.12 443.154,1519.12C443.154,1519.12 442.705,1519.12 442.154,1519.12C441.624,1519.12 441.115,1518.91 440.74,1518.53C440.365,1518.16 440.154,1517.65 440.154,1517.12C440.154,1515.38 440.154,1512.86 440.154,1511.12C440.154,1510.59 440.365,1510.08 440.74,1509.7C441.115,1509.33 441.624,1509.12 442.154,1509.12C445.228,1509.12 451.08,1509.12 454.154,1509.12C454.685,1509.12 455.193,1509.33 455.569,1509.7C455.944,1510.08 456.154,1510.59 456.154,1511.12C456.154,1512.86 456.154,1515.38 456.154,1517.12ZM455.154,1511.12C455.154,1510.57 454.707,1510.12 454.154,1510.12C451.577,1510.12 444.731,1510.12 442.154,1510.12C441.602,1510.12 441.154,1510.57 441.154,1511.12C441.154,1512.66 441.154,1515.58 441.154,1517.12C441.154,1517.67 441.602,1518.12 442.154,1518.12C442.476,1518.12 442.833,1518.12 443.154,1518.12C443.42,1518.12 443.674,1518.22 443.861,1518.41C444.049,1518.6 444.154,1518.85 444.154,1519.12C444.154,1519.85 444.154,1520.7 444.154,1520.7C444.154,1520.7 445.77,1519.09 446.447,1518.41C446.635,1518.22 446.889,1518.12 447.154,1518.12C448.427,1518.12 452.306,1518.12 454.154,1518.12C454.707,1518.12 455.154,1517.67 455.154,1517.12C455.154,1515.58 455.154,1512.66 455.154,1511.12ZM448.154,1515.62C448.154,1515.75 448.102,1515.88 448.008,1515.97C447.914,1516.07 447.787,1516.12 447.654,1516.12C446.696,1516.12 444.612,1516.12 443.654,1516.12C443.522,1516.12 443.395,1516.07 443.301,1515.97C443.207,1515.88 443.154,1515.75 443.154,1515.62C443.154,1515.49 443.207,1515.36 443.301,1515.27C443.395,1515.17 443.522,1515.12 443.654,1515.12C444.612,1515.12 446.696,1515.12 447.654,1515.12C447.787,1515.12 447.914,1515.17 448.008,1515.27C448.102,1515.36 448.154,1515.49 448.154,1515.62C448.154,1515.62 448.154,1515.62 448.154,1515.62ZM453.154,1512.62C453.154,1512.75 453.102,1512.88 453.008,1512.97C452.914,1513.07 452.787,1513.12 452.654,1513.12C450.947,1513.12 445.361,1513.12 443.654,1513.12C443.522,1513.12 443.395,1513.07 443.301,1512.97C443.207,1512.88 443.154,1512.75 443.154,1512.62C443.154,1512.49 443.207,1512.36 443.301,1512.27C443.395,1512.17 443.522,1512.12 443.654,1512.12C445.361,1512.12 450.947,1512.12 452.654,1512.12C452.787,1512.12 452.914,1512.17 453.008,1512.27C453.102,1512.36 453.154,1512.49 453.154,1512.62C453.154,1512.62 453.154,1512.62 453.154,1512.62Z" style="fill:rgb(51,51,51);"/>
            </g>
        </g>
    </g>
</svg>
