<?xml version="1.0" encoding="UTF-8" standalone="no"?>
<!DOCTYPE svg PUBLIC "-//W3C//DTD SVG 1.1//EN" "http://www.w3.org/Graphics/SVG/1.1/DTD/svg11.dtd">
<svg width="24px" height="24px" version="1.1" xmlns="http://www.w3.org/2000/svg" xmlns:xlink="http://www.w3.org/1999/xlink" xml:space="preserve" xmlns:serif="http://www.serif.com/" style="fill-rule:evenodd;clip-rule:evenodd;stroke-linejoin:round;stroke-miterlimit:1.41421;">
    <g transform="matrix(1,0,0,1,-884,-1455)">
        <g id="social.regular.paperPlane" transform="matrix(1,0,0,1,-684,685)">
            <rect x="1568" y="770" width="24" height="24" style="fill:none;"/>
            <g transform="matrix(1,0,0,1,-1453,-214)">
                <path d="M3042.36,994.568C3042.75,994.717 3043,995.088 3043,995.5C3043,995.912 3042.75,996.283 3042.36,996.432C3037.9,998.168 3028.4,1001.86 3024.36,1003.43C3024.01,1003.57 3023.61,1003.5 3023.33,1003.24C3023.05,1002.98 3022.93,1002.59 3023.04,1002.23C3023.77,999.672 3024.96,995.5 3024.96,995.5C3024.96,995.5 3023.77,991.328 3023.04,988.775C3022.93,988.41 3023.05,988.017 3023.33,987.761C3023.61,987.505 3024.01,987.43 3024.36,987.568C3028.4,989.138 3037.9,992.832 3042.36,994.568ZM3026.9,995C3026.9,995 3030.22,995 3031.5,995C3031.78,995 3032,995.224 3032,995.5C3032,995.776 3031.78,996 3031.5,996C3030.22,996 3026.9,996 3026.9,996L3025.51,1000.84L3039.24,995.5L3025.51,990.162L3026.9,995Z" style="fill:rgb(51,51,51);"/>
            </g>
        </g>
    </g>
</svg>
