<svg width="24" height="24" viewBox="0 0 24 24" fill="none" xmlns="http://www.w3.org/2000/svg">
<path fill-rule="evenodd" clip-rule="evenodd" d="M8.28262 18.6078C8.03511 19.8453 8.98169 21 10.2438 21H11.5556C12.1492 21 12.7121 20.7364 13.092 20.2804L17.7922 14.6402C17.942 14.4605 18.024 14.2339 18.024 14V4C18.024 3.44772 17.5763 3 17.024 3H7.86668C6.64851 3 5.55128 3.73663 5.09004 4.8641L2.22641 11.8641C1.419 13.8377 2.87063 16 5.00305 16H8.80417L8.28262 18.6078ZM11.5556 19L10.2438 19L11.0046 15.1961C11.0633 14.9023 10.9873 14.5977 10.7973 14.366C10.6074 14.1343 10.3236 14 10.024 14H5.00305C4.29224 14 3.80836 13.2793 4.0775 12.6214L6.94113 5.62137C7.09488 5.24554 7.46062 5 7.86668 5H16.024V13.638L11.5556 19Z" fill="black"/>
<path fill-rule="evenodd" clip-rule="evenodd" d="M21.024 15C21.5763 15 22.024 14.5523 22.024 14L22.024 4C22.024 3.44771 21.5763 3 21.024 3C20.4717 3 20.024 3.44771 20.024 4L20.024 14C20.024 14.5523 20.4717 15 21.024 15Z" fill="black"/>
<path d="M7.8427 4L17 4V14L12.2998 19.6402C12.1099 19.8682 11.8284 20 11.5316 20H10.2198C9.58876 20 9.11547 19.4227 9.23922 18.8039L10 15H4.97907C3.55746 15 2.5897 13.5585 3.12797 12.2427L5.99161 5.24273C6.2991 4.49108 7.03059 4 7.8427 4Z" fill="black" fill-opacity="0.1"/>
</svg>
