<svg width="24" height="24" viewBox="0 0 24 24" fill="none" xmlns="http://www.w3.org/2000/svg">
<path fill-rule="evenodd" clip-rule="evenodd" d="M11.7682 19C11.4527 19 11.216 18.7113 11.2779 18.4019L12.0387 14.5981C12.0681 14.4512 12.03 14.2988 11.9351 14.183C11.8401 14.0672 11.6982 14 11.5484 14L6.50247 14C5.44127 14 4.71563 12.9282 5.10975 11.9429L7.50975 5.94291C7.73755 5.37343 8.28911 5 8.90246 5L17.0484 5V13.319L12.4641 18.8201C12.3691 18.9341 12.2284 19 12.08 19H11.7682ZM10.2973 18.2058C10.1117 19.134 10.8216 20 11.7682 20H12.08C12.5252 20 12.9474 19.8023 13.2324 19.4603L17.9325 13.8201C18.0074 13.7302 18.0484 13.617 18.0484 13.5V4.5C18.0484 4.22386 17.8245 4 17.5484 4H8.90246C7.8802 4 6.96093 4.62238 6.58127 5.57152L4.18127 11.5715C3.52441 13.2137 4.7338 15 6.50247 15L10.9385 15L10.2973 18.2058Z" fill="black"/>
<path fill-rule="evenodd" clip-rule="evenodd" d="M20.5484 14C20.8245 14 21.0484 13.7761 21.0484 13.5L21.0484 4.5C21.0484 4.22386 20.8245 4 20.5484 4C20.2723 4 20.0484 4.22386 20.0484 4.5L20.0484 13.5C20.0484 13.7761 20.2723 14 20.5484 14Z" fill="black"/>
<path d="M8.85407 4.5L17.5 4.5V13.5L12.7998 19.1402C12.6099 19.3682 12.3284 19.5 12.0316 19.5H11.7198C11.0888 19.5 10.6155 18.9227 10.7392 18.3039L11.5 14.5H6.45407C5.03914 14.5 4.07162 13.0709 4.59711 11.7572L6.99711 5.75722C7.30084 4.9979 8.03626 4.5 8.85407 4.5Z" fill="black" fill-opacity="0.1"/>
</svg>
