<svg width="24" height="24" viewBox="0 0 24 24" fill="none" xmlns="http://www.w3.org/2000/svg">
<rect width="20" height="20" fill="black" fill-opacity="0" transform="translate(2.99854 3.00098) scale(0.9)"/>
<path fill-rule="evenodd" clip-rule="evenodd" d="M12.1147 3.00098H12.2307L12.3469 3.00999H12.462L12.5764 3.01899L12.6906 3.028L12.8049 3.03701L12.9184 3.04602L13.0317 3.05503L13.1442 3.07294L13.2567 3.09095L13.3684 3.09996L13.4799 3.11798L13.5916 3.14501L13.7014 3.16302L13.812 3.18093L13.9209 3.20796L14.0307 3.23499L14.1387 3.253L14.2467 3.28003L14.3547 3.31595L14.4618 3.34298L14.568 3.37001L14.6743 3.40593L14.7796 3.44197L14.8839 3.46899L14.9884 3.50503L15.0918 3.54996L15.1953 3.586L15.2979 3.62203L15.3996 3.66697L15.5004 3.71201L15.6012 3.74794L15.7011 3.79298L15.8001 3.83802L15.8991 3.89197L15.9972 3.93701L16.0945 3.98195L16.1916 4.036L16.287 4.08994L16.3825 4.13499L16.4769 4.18893L16.5714 4.25199L16.6642 4.30593L16.7568 4.35999L16.8487 4.41393L16.9395 4.47699L17.0296 4.53994L17.1187 4.603L17.2078 4.65695L17.295 4.72902L17.3823 4.79197L17.4687 4.85503L17.5543 4.91798L17.6389 4.98994L17.7225 5.053L17.8054 5.12496L17.8873 5.19703L17.9682 5.26899L18.0493 5.34095L18.1285 5.41302L18.2067 5.48499L18.285 5.55695L18.3615 5.63802L18.4371 5.70999L18.5128 5.79095L18.5865 5.87203L18.6594 5.953L18.7315 6.03397L18.8035 6.11494L18.8737 6.19602L18.9429 6.27699L19.0104 6.35796L19.078 6.44794L19.1445 6.52902L19.2102 6.61899L19.2741 6.69996L19.3371 6.78994L19.3993 6.88003L19.4604 6.97001L19.5208 7.05999L19.5801 7.14996L19.6378 7.23994L19.6953 7.33003L19.7511 7.42902L19.806 7.51899L19.8591 7.61798L19.9123 7.70796L19.9636 7.80695L20.0139 7.90593L20.0626 8.00503L20.1112 8.10402L20.1579 8.19399L20.203 8.30199L20.2479 8.40098L20.2911 8.49996L20.3334 8.59895L20.374 8.69794L20.4136 8.80593L20.4522 8.90503L20.4892 9.01302L20.5261 9.11201L20.5602 9.22001L20.5935 9.328L20.6259 9.436L20.6575 9.53499L20.6871 9.64298L20.715 9.75098L20.7421 9.85897L20.7682 9.96697L20.7924 10.075L20.8158 10.192L20.8374 10.3L20.8581 10.408L20.877 10.516L20.895 10.633L20.9112 10.741L20.9265 10.858L20.94 10.966L20.9527 11.083L20.9634 11.191L20.9724 11.308L20.9805 11.425L20.9868 11.542L20.9922 11.65L20.9958 11.767L20.9977 11.884L20.9985 12.001L20.9977 12.118L20.9958 12.235L20.9922 12.352L20.9868 12.46L20.9805 12.577L20.9724 12.694L20.9634 12.811L20.9527 12.919L20.94 13.036L20.9265 13.144L20.9112 13.261L20.895 13.369L20.877 13.486L20.8581 13.594L20.8374 13.702L20.8158 13.81L20.7924 13.927L20.7682 14.035L20.7421 14.143L20.715 14.251L20.6871 14.359L20.6575 14.467L20.6259 14.566L20.5935 14.6739L20.5602 14.7819L20.5261 14.8899L20.4892 14.9889L20.4522 15.097L20.4136 15.196L20.374 15.295L20.3334 15.403L20.2911 15.502L20.2479 15.601L20.203 15.7L20.1579 15.7989L20.1112 15.8979L20.0626 15.997L20.0139 16.096L19.9636 16.195L19.9123 16.285L19.8591 16.384L19.806 16.483L19.7511 16.5729L19.6953 16.663L19.6378 16.762L19.5801 16.852L19.5208 16.942L19.4604 17.0319L19.3993 17.122L19.3371 17.212L19.2741 17.293L19.2102 17.383L19.1445 17.4729L19.078 17.554L19.0104 17.635L18.9429 17.725L18.8737 17.8059L18.8035 17.887L18.7315 17.968L18.6594 18.0489L18.5865 18.13L18.5128 18.211L18.4371 18.283L18.3615 18.3639L18.285 18.436L18.2067 18.517L18.1285 18.5889L18.0493 18.661L17.9682 18.733L17.8873 18.805L17.8054 18.877L17.7225 18.9399L17.6389 19.012L17.5543 19.084L17.4687 19.147L17.3823 19.21L17.295 19.2729L17.2078 19.336L17.1187 19.3989L17.0296 19.462L16.9395 19.525L16.8487 19.579L16.7568 19.642L16.6642 19.696L16.5714 19.75L16.4769 19.804L16.3825 19.858L16.287 19.912L16.1916 19.966L16.0945 20.011L15.9972 20.0649L15.8991 20.11L15.8001 20.155L15.7011 20.209L15.6012 20.254L15.5004 20.2899L15.3996 20.335L15.2979 20.371L15.1953 20.416L15.0918 20.452L14.9884 20.488L14.8839 20.5239L14.7796 20.56L14.6743 20.596L14.568 20.6229L14.4618 20.659L14.3547 20.686L14.2467 20.713L14.1387 20.7399L14.0307 20.767L13.9209 20.794L13.812 20.821L13.7014 20.8389L13.5916 20.8569L13.4799 20.875L13.3684 20.893L13.2567 20.911L13.1442 20.929L13.0317 20.938L12.9184 20.9559L12.8049 20.9649L12.6906 20.9739L12.5764 20.983L12.462 20.992H12.3469L12.2307 21.001H12.1147H11.9985H11.8825H11.7663L11.6511 20.992H11.536L11.4208 20.983L11.3065 20.9739L11.193 20.9649L11.0788 20.9559L10.9663 20.938L10.8528 20.929L10.7413 20.911L10.6288 20.893L10.5171 20.875L10.4065 20.8569L10.2958 20.8389L10.186 20.821L10.0761 20.794L9.96722 20.767L9.85834 20.7399L9.75035 20.713L9.64323 20.686L9.53617 20.659L9.42993 20.6229L9.32375 20.596L9.21844 20.56L9.11314 20.5239L9.00965 20.488L8.90522 20.452L8.80267 20.416L8.70005 20.371L8.59832 20.335L8.49664 20.2899L8.39672 20.254L8.29686 20.209L8.19694 20.155L8.09795 20.11L8.00072 20.0649L7.90267 20.011L7.80632 19.966L7.71002 19.912L7.61466 19.858L7.52012 19.804L7.42652 19.75L7.33385 19.696L7.24113 19.642L7.14933 19.579L7.05842 19.525L6.96844 19.462L6.87847 19.3989L6.79025 19.336L6.70203 19.2729L6.61562 19.21L6.52927 19.147L6.44374 19.084L6.35914 19.012L6.27543 18.9399L6.19265 18.877L6.11074 18.805L6.02884 18.733L5.94875 18.661L5.86954 18.5889L5.79033 18.517L5.71293 18.436L5.63646 18.3639L5.55994 18.283L5.48524 18.211L5.41146 18.13L5.33763 18.0489L5.26562 17.968L5.19454 17.887L5.12433 17.8059L5.05507 17.725L4.98662 17.635L4.91916 17.554L4.85347 17.4729L4.78777 17.383L4.72383 17.293L4.65994 17.212L4.59787 17.122L4.53662 17.0319L4.47636 16.942L4.41786 16.852L4.35936 16.762L4.30267 16.663L4.24686 16.5729L4.19193 16.483L4.13793 16.384L4.08574 16.285L4.03444 16.195L3.98406 16.096L3.93452 15.997L3.88683 15.8979L3.84003 15.7989L3.79417 15.7L3.75005 15.601L3.70682 15.502L3.66453 15.403L3.62316 15.295L3.58356 15.196L3.54576 15.097L3.50792 14.9889L3.47194 14.8899L3.43683 14.7819L3.40355 14.6739L3.37114 14.566L3.34054 14.467L3.31082 14.359L3.28204 14.251L3.25507 14.143L3.22985 14.035L3.20464 13.927L3.18212 13.81L3.15965 13.702L3.13982 13.594L3.12004 13.486L3.10296 13.369L3.08582 13.261L3.07143 13.144L3.05792 13.036L3.04534 12.919L3.03452 12.811L3.02463 12.694L3.01743 12.577L3.01024 12.46L3.00573 12.352L3.00216 12.235L2.99947 12.118L2.99854 12.001L2.99947 11.884L3.00216 11.767L3.00573 11.65L3.01024 11.542L3.01743 11.425L3.02463 11.308L3.03452 11.191L3.04534 11.083L3.05792 10.966L3.07143 10.858L3.08582 10.741L3.10296 10.633L3.12004 10.516L3.13982 10.408L3.15965 10.3L3.18212 10.192L3.20464 10.075L3.22985 9.96697L3.25507 9.85897L3.28204 9.75098L3.31082 9.64298L3.34054 9.53499L3.37114 9.436L3.40355 9.328L3.43683 9.22001L3.47194 9.11201L3.50792 9.01302L3.54576 8.90503L3.58356 8.80593L3.62316 8.69794L3.66453 8.59895L3.70682 8.49996L3.75005 8.40098L3.79417 8.30199L3.84003 8.19399L3.88683 8.10402L3.93452 8.00503L3.98406 7.90593L4.03444 7.80695L4.08574 7.70796L4.13793 7.61798L4.19193 7.51899L4.24686 7.42902L4.30267 7.33003L4.35936 7.23994L4.41786 7.14996L4.47636 7.05999L4.53662 6.97001L4.59787 6.88003L4.65994 6.78994L4.72383 6.69996L4.78777 6.61899L4.85347 6.52902L4.91916 6.44794L4.98662 6.35796L5.05507 6.27699L5.12433 6.19602L5.19454 6.11494L5.26562 6.03397L5.33763 5.953L5.41146 5.87203L5.48524 5.79095L5.55994 5.70999L5.63646 5.63802L5.71293 5.55695L5.79033 5.48499L5.86954 5.41302L5.94875 5.34095L6.02884 5.26899L6.11074 5.19703L6.19265 5.12496L6.27543 5.053L6.35914 4.98994L6.44374 4.91798L6.52927 4.85503L6.61562 4.79197L6.70203 4.72902L6.79025 4.65695L6.87847 4.603L6.96844 4.53994L7.05842 4.47699L7.14933 4.41393L7.24113 4.35999L7.33385 4.30593L7.42652 4.25199L7.52012 4.18893L7.61466 4.13499L7.71002 4.08994L7.80632 4.036L7.90267 3.98195L8.00072 3.93701L8.09795 3.89197L8.19694 3.83802L8.29686 3.79298L8.39672 3.74794L8.49664 3.71201L8.59832 3.66697L8.70005 3.62203L8.80267 3.586L8.90522 3.54996L9.00965 3.50503L9.11314 3.46899L9.21844 3.44197L9.32375 3.40593L9.42993 3.37001L9.53617 3.34298L9.64323 3.31595L9.75035 3.28003L9.85834 3.253L9.96722 3.23499L10.0761 3.20796L10.186 3.18093L10.2958 3.16302L10.4065 3.14501L10.5171 3.11798L10.6288 3.09996L10.7413 3.09095L10.8528 3.07294L10.9663 3.05503L11.0788 3.04602L11.193 3.03701L11.3065 3.028L11.4208 3.01899L11.536 3.00999H11.6511L11.7663 3.00098H11.8825H11.9985H12.1147ZM11.895 3.99996H11.7916L11.6889 4.00897H11.5863L11.4846 4.01798L11.3829 4.02699L11.2812 4.036L11.1804 4.04501L11.0796 4.05402L10.9788 4.06302L10.8799 4.08093L10.7799 4.08994L10.6809 4.10796L10.5828 4.12598L10.4838 4.14399L10.3866 4.16201L10.2894 4.18003L10.1922 4.20695L10.0959 4.22496L10.0006 4.25199L9.90515 4.27902L9.80973 4.30593L9.71525 4.33296L9.62076 4.35999L9.52716 4.38701L9.43444 4.42294L9.34177 4.44996L9.24992 4.486L9.15813 4.52203L9.06722 4.55796L8.97724 4.59399L8.88726 4.63003L8.79723 4.66595L8.70813 4.711L8.62084 4.74703L8.53262 4.79197L8.44534 4.828L8.35893 4.87294L8.27346 4.91798L8.18793 4.96302L8.10333 5.01697L8.01962 5.06201L7.93596 5.10695L7.85312 5.161L7.77034 5.20593L7.68937 5.25999L7.60834 5.31393L7.52825 5.36798L7.44816 5.42203L7.36983 5.47598L7.29243 5.53003L7.21415 5.59298L7.13763 5.64703L7.06205 5.70999L6.98646 5.76393L6.91176 5.82699L6.83793 5.88994L6.76503 5.953L6.69302 6.01595L6.62106 6.07902L6.55085 6.14197L6.48065 6.21393L6.41133 6.27699L6.34294 6.34895L6.27543 6.41201L6.20885 6.48397L6.14315 6.55593L6.07833 6.61899L6.01445 6.69095L5.95056 6.76302L5.88755 6.83499L5.82636 6.91595L5.76517 6.98802L5.70573 7.05999L5.64635 7.14095L5.58873 7.21302L5.53116 7.29399L5.47447 7.37496L5.41954 7.44703L5.36554 7.528L5.31154 7.60897L5.25936 7.68994L5.20712 7.77102L5.15762 7.85199L5.10725 7.94197L5.05864 8.02294L5.01096 8.10402L4.96415 8.18499L4.91916 8.27496L4.87412 8.36494L4.83007 8.44602L4.78777 8.536L4.74635 8.62598L4.70587 8.70695L4.66626 8.79703L4.62753 8.88701L4.58974 8.97699L4.55376 9.06697L4.51866 9.15695L4.48444 9.25593L4.45115 9.34602L4.41962 9.436L4.38814 9.52598L4.35842 9.62496L4.32964 9.71494L4.30267 9.81393L4.27564 9.90402L4.25043 10.003L4.22703 10.102L4.20363 10.192L4.18204 10.291L4.16133 10.3899L4.14243 10.4889L4.12354 10.588L4.10733 10.678L4.09113 10.786L4.07673 10.885L4.06322 10.984L4.05152 11.083L4.03982 11.1819L4.03087 11.2809L4.02186 11.38L4.01554 11.488L4.00922 11.587L4.00472 11.695L4.00115 11.794L3.99933 11.893L3.99846 12.001L3.99933 12.1L4.00115 12.208L4.00472 12.3069L4.00922 12.4149L4.01554 12.5139L4.02186 12.613L4.03087 12.721L4.03982 12.82L4.05152 12.919L4.06322 13.018L4.07673 13.117L4.09113 13.216L4.10733 13.3149L4.12354 13.4139L4.14243 13.513L4.16133 13.612L4.18204 13.711L4.20363 13.81L4.22703 13.9L4.25043 13.9989L4.27564 14.0979L4.30267 14.188L4.32964 14.287L4.35842 14.377L4.38814 14.476L4.41962 14.566L4.45115 14.6559L4.48444 14.746L4.51866 14.845L4.55376 14.935L4.58974 15.025L4.62753 15.1149L4.66626 15.205L4.70587 15.295L4.74635 15.376L4.78777 15.466L4.83007 15.5559L4.87412 15.637L4.91823 15.727L4.96415 15.808L5.01096 15.8979L5.05864 15.979L5.10725 16.06L5.15762 16.15L5.20805 16.2309L5.25936 16.312L5.31154 16.393L5.36554 16.4739L5.41954 16.546L5.47535 16.627L5.53116 16.708L5.58873 16.78L5.64635 16.861L5.70573 16.942L5.76517 17.0139L5.82636 17.086L5.88755 17.158L5.95056 17.23L6.01357 17.311L6.07833 17.3739L6.14315 17.446L6.20885 17.518L6.27543 17.5899L6.34294 17.653L6.41133 17.725L6.48065 17.788L6.55085 17.86L6.62106 17.9229L6.69302 17.986L6.76503 18.0489L6.83793 18.112L6.91176 18.175L6.98646 18.238L7.06205 18.292L7.13763 18.355L7.21415 18.409L7.29155 18.472L7.36983 18.526L7.44816 18.58L7.52825 18.634L7.60834 18.688L7.68937 18.742L7.77034 18.787L7.85224 18.841L7.93596 18.895L8.01962 18.9399L8.10333 18.985L8.18793 19.03L8.27346 19.084L8.35893 19.129L8.44534 19.1649L8.53262 19.21L8.61996 19.255L8.70906 19.291L8.79723 19.336L8.88633 19.372L8.97636 19.408L9.06722 19.444L9.15813 19.48L9.24992 19.516L9.34177 19.552L9.43444 19.579L9.52716 19.6149L9.62076 19.642L9.71525 19.669L9.80973 19.696L9.90427 19.7229L9.99963 19.75L10.0959 19.777L10.1922 19.795L10.2894 19.813L10.3866 19.8399L10.4838 19.858L10.5828 19.876L10.6809 19.894L10.7799 19.903L10.8799 19.921L10.9797 19.9389L11.0796 19.9479L11.1804 19.9569L11.2812 19.966L11.382 19.975L11.4846 19.984L11.5863 19.993H11.6898L11.7916 20.002H11.895H11.9985H12.102H12.2055L12.3081 19.993H12.4107L12.5134 19.984L12.615 19.975L12.7158 19.966L12.8176 19.9569L12.9174 19.9479L13.0182 19.9389L13.1182 19.921L13.2171 19.903L13.3161 19.894L13.4152 19.876L13.5132 19.858L13.6113 19.8399L13.7086 19.813L13.8049 19.795L13.9011 19.777L13.9974 19.75L14.0937 19.7229L14.1873 19.696L14.2818 19.669L14.3772 19.642L14.47 19.6149L14.5626 19.579L14.6562 19.552L14.748 19.516L14.8398 19.48L14.9307 19.444L15.0208 19.408L15.1107 19.372L15.1998 19.336L15.2889 19.291L15.3772 19.255L15.4644 19.21L15.5517 19.1649L15.6381 19.129L15.7245 19.084L15.81 19.03L15.8946 18.985L15.9783 18.9399L16.062 18.895L16.1448 18.841L16.2267 18.787L16.3086 18.742L16.3887 18.688L16.4688 18.634L16.549 18.58L16.6272 18.526L16.7055 18.472L16.7838 18.409L16.8604 18.355L16.936 18.292L17.0115 18.238L17.0862 18.175L17.1591 18.112L17.232 18.0489L17.3049 17.986L17.3761 17.9229L17.4462 17.86L17.5174 17.788L17.5866 17.725L17.6541 17.653L17.7216 17.5899L17.7892 17.518L17.8549 17.446L17.9196 17.3739L17.9836 17.311L18.0474 17.23L18.1095 17.158L18.1716 17.086L18.232 17.0139L18.2922 16.942L18.3507 16.861L18.4092 16.78L18.466 16.708L18.5227 16.627L18.5775 16.546L18.6325 16.4739L18.6855 16.393L18.7386 16.312L18.79 16.2309L18.8403 16.15L18.8898 16.06L18.9394 15.979L18.9862 15.8979L19.0329 15.808L19.0788 15.727L19.1238 15.637L19.1671 15.5559L19.2102 15.466L19.2517 15.376L19.2921 15.295L19.3317 15.205L19.3704 15.1149L19.4073 15.025L19.4442 14.935L19.4793 14.845L19.5136 14.746L19.5459 14.6559L19.5783 14.566L19.6089 14.476L19.6395 14.377L19.6674 14.287L19.6953 14.188L19.7214 14.0979L19.7466 13.9989L19.7709 13.9L19.7934 13.81L19.816 13.711L19.8357 13.612L19.8555 13.513L19.8735 13.4139L19.8906 13.3149L19.9068 13.216L19.9212 13.117L19.9347 13.018L19.9464 12.919L19.9573 12.82L19.9671 12.721L19.9753 12.613L19.9825 12.5139L19.9887 12.4149L19.9932 12.3069L19.9959 12.208L19.9977 12.1L19.9987 12.001L19.9977 11.893L19.9959 11.794L19.9932 11.695L19.9887 11.587L19.9825 11.488L19.9753 11.38L19.9671 11.2809L19.9573 11.1819L19.9464 11.083L19.9347 10.984L19.9212 10.885L19.9068 10.786L19.8906 10.678L19.8735 10.588L19.8555 10.4889L19.8357 10.3899L19.816 10.291L19.7934 10.192L19.7709 10.102L19.7466 10.003L19.7214 9.90402L19.6953 9.81393L19.6674 9.71494L19.6386 9.62496L19.6089 9.52598L19.5783 9.436L19.5459 9.34602L19.5136 9.25593L19.4793 9.15695L19.4442 9.06697L19.4073 8.97699L19.3704 8.88701L19.3317 8.79703L19.2921 8.70695L19.2517 8.62598L19.2102 8.536L19.1679 8.44602L19.1238 8.36494L19.0788 8.27496L19.0329 8.18499L18.9862 8.10402L18.9394 8.02294L18.8898 7.94197L18.8403 7.85199L18.79 7.77102L18.7386 7.68994L18.6855 7.60897L18.6325 7.528L18.5775 7.44703L18.5227 7.37496L18.466 7.29399L18.4092 7.21302L18.3507 7.14095L18.2922 7.05999L18.232 6.98802L18.1716 6.91595L18.1095 6.83499L18.0474 6.76302L17.9836 6.69095L17.9196 6.61899L17.8549 6.55593L17.7882 6.48397L17.7216 6.41201L17.6541 6.34895L17.5866 6.27699L17.5174 6.21393L17.4471 6.14197L17.3761 6.07902L17.3049 6.01595L17.232 5.953L17.1591 5.88994L17.0862 5.82699L17.0115 5.76393L16.936 5.70999L16.8604 5.64703L16.7838 5.59298L16.7055 5.53003L16.6272 5.47598L16.549 5.42203L16.4698 5.36798L16.3887 5.31393L16.3086 5.25999L16.2267 5.20593L16.1448 5.161L16.062 5.10695L15.9783 5.06201L15.8946 5.01697L15.81 4.96302L15.7245 4.91798L15.6381 4.87294L15.5527 4.828L15.4644 4.79197L15.3772 4.74703L15.2889 4.711L15.2007 4.66595L15.1107 4.63003L15.0208 4.59399L14.9307 4.55796L14.8398 4.52203L14.748 4.486L14.6562 4.44996L14.5636 4.42294L14.47 4.38701L14.3764 4.35999L14.2828 4.33296L14.1882 4.30593L14.0929 4.27902L13.9974 4.25199L13.902 4.22496L13.8049 4.20695L13.7076 4.18003L13.6113 4.16201L13.5132 4.14399L13.4152 4.12598L13.3161 4.10796L13.2171 4.08994L13.1182 4.08093L13.0182 4.06302L12.9174 4.05402L12.8176 4.04501L12.7158 4.036L12.615 4.02699L12.5134 4.01798L12.4107 4.00897H12.3081L12.2055 3.99996H12.102H11.9985H11.895Z" fill="#333333"/>
<rect width="2" height="2" fill="black" fill-opacity="0" transform="translate(8.00391 9.00098)"/>
<path d="M9.00391 11.001C9.55619 11.001 10.0039 10.5533 10.0039 10.001C10.0039 9.44869 9.55619 9.00098 9.00391 9.00098C8.45162 9.00098 8.00391 9.44869 8.00391 10.001C8.00391 10.5533 8.45162 11.001 9.00391 11.001Z" fill="#333333"/>
<rect width="2" height="2" fill="black" fill-opacity="0" transform="translate(14.0039 9.00098)"/>
<path d="M15.0039 11.001C15.5562 11.001 16.0039 10.5533 16.0039 10.001C16.0039 9.44869 15.5562 9.00098 15.0039 9.00098C14.4516 9.00098 14.0039 9.44869 14.0039 10.001C14.0039 10.5533 14.4516 11.001 15.0039 11.001Z" fill="#333333"/>
<rect width="6" height="6" fill="black" fill-opacity="0" transform="translate(8.11072 13.8904) scale(0.916666) rotate(-45)"/>
<path d="M15.8889 13.8904C13.7428 16.0365 10.2562 16.0359 8.11072 13.8904" stroke="#333333" stroke-width="1.09" stroke-miterlimit="100" stroke-linecap="round" stroke-linejoin="round"/>
</svg>
