<?xml version="1.0" encoding="UTF-8" standalone="no"?>
<!DOCTYPE svg PUBLIC "-//W3C//DTD SVG 1.1//EN" "http://www.w3.org/Graphics/SVG/1.1/DTD/svg11.dtd">
<svg width="24px" height="24px" version="1.1" xmlns="http://www.w3.org/2000/svg" xmlns:xlink="http://www.w3.org/1999/xlink" xml:space="preserve" xmlns:serif="http://www.serif.com/" style="fill-rule:evenodd;clip-rule:evenodd;stroke-linecap:square;stroke-linejoin:round;stroke-miterlimit:100;">
    <g transform="matrix(1,0,0,1,-1124,-1503)">
        <g id="social.thin.mention" transform="matrix(1,0,0,1,-444,733)">
            <rect x="1568" y="770" width="24" height="24" style="fill:none;"/>
            <g transform="matrix(1,0,0,1,444,-733)">
                <path d="M1139.58,1516.78C1138.93,1518.09 1137.57,1519 1136,1519C1133.79,1519 1132,1517.21 1132,1515C1132,1512.79 1133.79,1511 1136,1511C1138.21,1511 1140,1512.79 1140,1515L1140,1515.01C1140.01,1516.11 1140.9,1517 1142,1517C1143.1,1517 1144,1516.1 1144,1515L1145,1515C1145,1516.66 1143.66,1518 1142,1518C1141.01,1518 1140.13,1517.52 1139.58,1516.78ZM1136,1512C1137.66,1512 1139,1513.34 1139,1515C1139,1516.66 1137.66,1518 1136,1518C1134.34,1518 1133,1516.66 1133,1515C1133,1513.34 1134.34,1512 1136,1512Z" style="fill:rgb(51,51,51);"/>
            </g>
            <g transform="matrix(0.707107,-0.707107,0.707107,0.707107,-294.54,514.007)">
                <path d="M1136,1523.5C1131.31,1523.5 1127.5,1519.69 1127.5,1515C1127.5,1510.31 1131.31,1506.5 1136,1506.5C1140.69,1506.5 1144.5,1510.31 1144.5,1515" style="fill:none;stroke:rgb(51,51,51);stroke-width:1px;"/>
            </g>
            <g transform="matrix(1,-1.11022e-16,1.11022e-16,1,444,-733)">
                <path d="M1136,1523.5C1131.31,1523.5 1127.5,1519.69 1127.5,1515C1127.5,1510.31 1131.31,1506.5 1136,1506.5C1140.69,1506.5 1144.5,1510.31 1144.5,1515" style="fill:none;stroke:rgb(51,51,51);stroke-width:1px;stroke-linecap:butt;"/>
            </g>
        </g>
    </g>
</svg>
