<svg width="24" height="24" viewBox="0 0 24 24" fill="none" xmlns="http://www.w3.org/2000/svg">
<path fill-rule="evenodd" clip-rule="evenodd" d="M5.53284 14.6788C4.05339 11.1071 5.7495 7.01231 9.32121 5.53286C10.1981 5.16965 11.1065 4.99783 12 4.99819V5.00002C13.4394 5.00002 14.7774 5.43448 15.8898 6.17942C16.7321 6.74339 17.4451 7.48531 17.9751 8.35138C18.1611 8.65685 18.326 8.98051 18.4672 9.32124C18.4745 9.33903 18.4824 9.3565 18.4906 9.37364C18.8191 10.1846 19 11.0712 19 12V12.5H21V12C21 10.2812 20.5182 8.6749 19.6822 7.30885C18.331 5.10087 16.0546 3.52053 13.3923 3.10707C11.8109 2.85793 10.1432 3.0276 8.55585 3.6851C3.96364 5.58726 1.78293 10.852 3.68508 15.4442C5.58723 20.0364 10.8519 22.2171 15.4441 20.3149C15.9544 20.1036 16.1967 19.5186 15.9853 19.0084C15.774 18.4981 15.189 18.2558 14.6788 18.4672C11.1071 19.9466 7.01229 18.2505 5.53284 14.6788Z" fill="black"/>
<circle cx="12" cy="12" r="3" stroke="black" stroke-width="2"/>
<path d="M20 12.5C20 13.8807 18.8807 15 17.5 15C16.1193 15 15 13.8807 15 12.5" stroke="black" stroke-width="2"/>
<line x1="15" y1="13" x2="15" y2="9" stroke="black" stroke-width="2" stroke-linecap="round"/>
</svg>
