<svg width="24" height="24" viewBox="0 0 24 24" fill="none" xmlns="http://www.w3.org/2000/svg">
<path fill-rule="evenodd" clip-rule="evenodd" d="M4.72192 15.311C4.26092 14.301 4.00391 13.181 4.00391 12.001C4.00391 7.58098 7.58891 4.00098 12.0039 4.00098C16.4199 4.00098 20.0039 7.58098 20.0039 12.001C20.0039 16.411 16.4199 20.001 12.0039 20.001C10.8229 20.001 9.69992 19.741 8.69092 19.281C8.69092 19.281 6.66293 19.691 5.20093 19.981C4.87293 20.041 4.53391 19.9409 4.29691 19.7109C4.06091 19.4709 3.95793 19.131 4.02393 18.801C4.31693 17.341 4.72192 15.311 4.72192 15.311ZM8.63391 17.251C8.85791 17.211 9.08991 17.241 9.29291 17.351C10.1059 17.771 11.0279 18.001 12.0039 18.001C15.3159 18.001 18.0039 15.311 18.0039 12.001C18.0039 8.69098 15.3159 6.00098 12.0039 6.00098C8.69291 6.00098 6.00391 8.69098 6.00391 12.001C6.00391 12.981 6.23792 13.9009 6.65292 14.7109C6.75792 14.9209 6.79091 15.151 6.74591 15.371C6.60391 16.101 6.2789 17.7209 6.2789 17.7209C6.2789 17.7209 7.90291 17.401 8.63391 17.251ZM11.5039 13.001C11.6369 13.001 11.7639 13.051 11.8579 13.151C11.9519 13.241 12.0039 13.371 12.0039 13.501C12.0039 13.631 11.9519 13.761 11.8579 13.851C11.7639 13.951 11.6369 14.001 11.5039 14.001C10.7359 14.001 9.27291 14.001 8.50391 14.001C8.37191 14.001 8.24491 13.951 8.15091 13.851C8.05691 13.761 8.00391 13.631 8.00391 13.501C8.00391 13.371 8.05691 13.241 8.15091 13.151C8.24491 13.051 8.37191 13.001 8.50391 13.001C9.27291 13.001 10.7359 13.001 11.5039 13.001ZM15.5039 10.001C15.7799 10.001 16.0039 10.221 16.0039 10.501C16.0039 10.771 15.7799 11.001 15.5039 11.001C14.0679 11.001 9.94091 11.001 8.50391 11.001C8.22791 11.001 8.00391 10.771 8.00391 10.501C8.00391 10.221 8.22791 10.001 8.50391 10.001C9.94091 10.001 14.0679 10.001 15.5039 10.001Z" fill="black"/>
<path fill-rule="evenodd" clip-rule="evenodd" d="M12.93 18.9387C16.3564 18.4839 19 15.5507 19 12C19 8.13403 15.866 5 12 5C8.134 5 5 8.13403 5 12C5 12.7988 5.13382 13.5664 5.38028 14.2816L5.5 15L5 19L9 18.5L9.58862 18.5736C10.3404 18.8495 11.1526 19 12 19C12.2407 19 12.4786 18.9878 12.713 18.9641L13 19L12.93 18.9387Z" fill="black" fill-opacity="0.1"/>
</svg>
