<svg width="24" height="24" viewBox="0 0 24 24" fill="none" xmlns="http://www.w3.org/2000/svg">
<path fill-rule="evenodd" clip-rule="evenodd" d="M21.36 10.5679C21.75 10.7169 21.9999 11.088 21.9999 11.5C21.9999 11.912 21.75 12.283 21.36 12.432C16.9 14.168 7.40004 17.8599 3.36004 19.4299C3.01004 19.5699 2.61001 19.4999 2.33001 19.2399C2.05001 18.9799 1.92998 18.5899 2.03998 18.2299C2.76998 15.6719 3.9599 11.5 3.9599 11.5C3.9599 11.5 2.76998 7.32797 2.03998 4.77497C1.92998 4.40997 2.05001 4.01694 2.33001 3.76094C2.61001 3.50494 3.01004 3.42994 3.36004 3.56794C7.40004 5.13794 16.9 8.83194 21.36 10.5679ZM5.89984 11C5.89984 11 9.21994 11 10.4999 11C10.7799 11 10.9999 11.224 10.9999 11.5C10.9999 11.776 10.7799 12 10.4999 12C9.21994 12 5.89984 12 5.89984 12L4.50995 16.84L18.2399 11.5L4.50995 6.16194L5.89984 11Z" fill="#333333"/>
</svg>
