<svg width="24" height="24" viewBox="0 0 24 24" fill="none" xmlns="http://www.w3.org/2000/svg">
<path fill-rule="evenodd" clip-rule="evenodd" d="M5.76791 15.181C5.27991 14.231 5.00391 13.141 5.00391 12.001C5.00391 8.14098 8.14091 5.00098 12.0039 5.00098C15.8679 5.00098 19.0039 8.14098 19.0039 12.001C19.0039 15.861 15.8679 19.001 12.0039 19.001C10.8589 19.001 9.77791 18.721 8.82291 18.241C8.82291 18.241 7.55091 18.4909 6.47491 18.7109C6.14691 18.7709 5.8079 18.671 5.5719 18.431C5.3359 18.201 5.23291 17.861 5.29791 17.531C5.51391 16.451 5.76791 15.181 5.76791 15.181ZM8.6329 17.251C8.8569 17.211 9.0899 17.241 9.2919 17.351C10.1059 17.761 11.0279 18.001 12.0039 18.001C15.3159 18.001 18.0039 15.311 18.0039 12.001C18.0039 8.69098 15.3159 6.00098 12.0039 6.00098C8.69291 6.00098 6.00391 8.69098 6.00391 12.001C6.00391 12.981 6.23792 13.9009 6.65292 14.7109C6.75792 14.9209 6.79091 15.151 6.74591 15.371C6.60391 16.101 6.2789 17.7209 6.2789 17.7209C6.2789 17.7209 7.9019 17.401 8.6329 17.251ZM11.5039 13.001C11.6369 13.001 11.7639 13.051 11.8579 13.151C11.9519 13.241 12.0039 13.371 12.0039 13.501C12.0039 13.631 11.9519 13.761 11.8579 13.851C11.7639 13.951 11.6369 14.001 11.5039 14.001C10.7359 14.001 9.27291 14.001 8.50391 14.001C8.37191 14.001 8.24491 13.951 8.15091 13.851C8.05691 13.761 8.00391 13.631 8.00391 13.501C8.00391 13.371 8.05691 13.241 8.15091 13.151C8.24491 13.051 8.37191 13.001 8.50391 13.001C9.27291 13.001 10.7359 13.001 11.5039 13.001ZM15.5039 10.001C15.7799 10.001 16.0039 10.221 16.0039 10.501C16.0039 10.771 15.7799 11.001 15.5039 11.001C14.0679 11.001 9.94091 11.001 8.50391 11.001C8.22791 11.001 8.00391 10.771 8.00391 10.501C8.00391 10.221 8.22791 10.001 8.50391 10.001C9.94091 10.001 14.0679 10.001 15.5039 10.001Z" fill="#333333"/>
</svg>
