<svg width="24" height="24" viewBox="0 0 24 24" fill="none" xmlns="http://www.w3.org/2000/svg">
<path fill-rule="evenodd" clip-rule="evenodd" d="M12.2802 5C12.5957 5 12.8324 5.28866 12.7705 5.59806L12.0097 9.40194C11.9803 9.54883 12.0184 9.70115 12.1133 9.81699C12.2083 9.93284 12.3502 10 12.5 10H17.5459C18.6071 10 19.3328 11.0718 18.9387 12.0571L16.5387 18.0571C16.3109 18.6266 15.7593 19 15.1459 19H7V10.681L11.5843 5.17991C11.6793 5.06591 11.82 5 11.9684 5H12.2802ZM13.7511 5.79418C13.9367 4.86599 13.2268 4 12.2802 4H11.9684C11.5232 4 11.101 4.19773 10.816 4.53972L6.11589 10.1799C6.04101 10.2698 6 10.383 6 10.5V19.5C6 19.7761 6.22386 20 6.5 20H15.1459C16.1682 20 17.0875 19.3776 17.4671 18.4285L19.8671 12.4285C20.524 10.7863 19.3146 9 17.5459 9H13.1099L13.7511 5.79418Z" fill="black"/>
<path fill-rule="evenodd" clip-rule="evenodd" d="M3.5 10C3.22386 10 3 10.2239 3 10.5V19.5C3 19.7761 3.22386 20 3.5 20C3.77614 20 4 19.7761 4 19.5V10.5C4 10.2239 3.77614 10 3.5 10Z" fill="black"/>
<path d="M15.1459 19.5H6.5V10.5L11.2002 4.85982C11.3901 4.63182 11.6716 4.5 11.9684 4.5H12.2802C12.9112 4.5 13.3845 5.07733 13.2608 5.69612L12.5 9.5H17.5459C18.9609 9.5 19.9284 10.9291 19.4029 12.2428L17.0029 18.2428C16.6992 19.0021 15.9637 19.5 15.1459 19.5Z" fill="black" fill-opacity="0.1"/>
</svg>
