<?xml version="1.0" encoding="UTF-8" standalone="no"?>
<!DOCTYPE svg PUBLIC "-//W3C//DTD SVG 1.1//EN" "http://www.w3.org/Graphics/SVG/1.1/DTD/svg11.dtd">
<svg width="24px" height="24px" version="1.1" xmlns="http://www.w3.org/2000/svg" xmlns:xlink="http://www.w3.org/1999/xlink" xml:space="preserve" xmlns:serif="http://www.serif.com/" style="fill-rule:evenodd;clip-rule:evenodd;stroke-linejoin:round;stroke-miterlimit:1.41421;">
    <g transform="matrix(1,0,0,1,-482,-1455)">
        <g id="social.regular.chatBubbleCircle" transform="matrix(1,0,0,1,-1086,685)">
            <rect x="1568" y="770" width="24" height="24" style="fill:none;"/>
            <g transform="matrix(1,0,0,1,1083.85,-685.119)">
                <path d="M488.872,1470.43C488.411,1469.42 488.154,1468.3 488.154,1467.12C488.154,1462.7 491.739,1459.12 496.154,1459.12C500.57,1459.12 504.154,1462.7 504.154,1467.12C504.154,1471.53 500.57,1475.12 496.154,1475.12C494.973,1475.12 493.85,1474.86 492.841,1474.4C492.841,1474.4 490.813,1474.81 489.351,1475.1C489.023,1475.16 488.684,1475.06 488.447,1474.83C488.211,1474.59 488.108,1474.25 488.174,1473.92C488.467,1472.46 488.872,1470.43 488.872,1470.43ZM492.784,1472.37C493.008,1472.33 493.24,1472.36 493.443,1472.47C494.256,1472.89 495.178,1473.12 496.154,1473.12C499.466,1473.12 502.154,1470.43 502.154,1467.12C502.154,1463.81 499.466,1461.12 496.154,1461.12C492.843,1461.12 490.154,1463.81 490.154,1467.12C490.154,1468.1 490.388,1469.02 490.803,1469.83C490.908,1470.04 490.941,1470.27 490.896,1470.49C490.754,1471.22 490.429,1472.84 490.429,1472.84C490.429,1472.84 492.053,1472.52 492.784,1472.37ZM495.654,1468.12C495.787,1468.12 495.914,1468.17 496.008,1468.27C496.102,1468.36 496.154,1468.49 496.154,1468.62C496.154,1468.75 496.102,1468.88 496.008,1468.97C495.914,1469.07 495.787,1469.12 495.654,1469.12C494.886,1469.12 493.423,1469.12 492.654,1469.12C492.522,1469.12 492.395,1469.07 492.301,1468.97C492.207,1468.88 492.154,1468.75 492.154,1468.62C492.154,1468.49 492.207,1468.36 492.301,1468.27C492.395,1468.17 492.522,1468.12 492.654,1468.12C493.423,1468.12 494.886,1468.12 495.654,1468.12ZM499.654,1465.12C499.93,1465.12 500.154,1465.34 500.154,1465.62C500.154,1465.89 499.93,1466.12 499.654,1466.12C498.218,1466.12 494.091,1466.12 492.654,1466.12C492.378,1466.12 492.154,1465.89 492.154,1465.62C492.154,1465.34 492.378,1465.12 492.654,1465.12C494.091,1465.12 498.218,1465.12 499.654,1465.12Z" style="fill:rgb(51,51,51);"/>
            </g>
        </g>
    </g>
</svg>
