<svg width="24" height="24" viewBox="0 0 24 24" fill="none" xmlns="http://www.w3.org/2000/svg">
<path fill-rule="evenodd" clip-rule="evenodd" d="M14.8536 5.14645C14.6583 4.95118 14.3417 4.95118 14.1464 5.14645C13.9512 5.34171 13.9512 5.65829 14.1464 5.85355L18.2929 10H7.5C5.01472 10 3 12.0147 3 14.5C3 16.9853 5.01472 19 7.5 19C7.77614 19 8 18.7761 8 18.5C8 18.2239 7.77614 18 7.5 18C5.567 18 4 16.433 4 14.5C4 12.567 5.567 11 7.5 11H18.2929L14.1464 15.1464C13.9512 15.3417 13.9512 15.6583 14.1464 15.8536C14.3417 16.0488 14.6583 16.0488 14.8536 15.8536L19.8536 10.8536C20.0488 10.6583 20.0488 10.3417 19.8536 10.1464L14.8536 5.14645Z" fill="black"/>
</svg>
