<svg width="24" height="24" viewBox="0 0 24 24" fill="none" xmlns="http://www.w3.org/2000/svg">
<path fill-rule="evenodd" clip-rule="evenodd" d="M20.0039 14.001C20.0039 14.531 19.7939 15.041 19.4189 15.411C19.0429 15.791 18.5349 16.001 18.0039 16.001C15.3529 16.001 11.0039 16.001 11.0039 16.001C11.0039 16.001 9.79891 17.211 8.71091 18.291C8.42491 18.581 7.99492 18.661 7.62192 18.511C7.24792 18.351 7.00391 17.9909 7.00391 17.5809C7.00391 16.7409 7.00391 16.001 7.00391 16.001C7.00391 16.001 6.55491 16.001 6.00391 16.001C5.47391 16.001 4.9649 15.791 4.5899 15.411C4.2149 15.041 4.00391 14.531 4.00391 14.001C4.00391 12.261 4.00391 9.74098 4.00391 8.00098C4.00391 7.47098 4.2149 6.96093 4.5899 6.58093C4.9649 6.21093 5.47391 6.00098 6.00391 6.00098C9.07791 6.00098 14.9299 6.00098 18.0039 6.00098C18.5349 6.00098 19.0429 6.21093 19.4189 6.58093C19.7939 6.96093 20.0039 7.47098 20.0039 8.00098C20.0039 9.74098 20.0039 12.261 20.0039 14.001ZM19.0039 8.00098C19.0039 7.45098 18.5569 7.00098 18.0039 7.00098C15.4269 7.00098 8.58091 7.00098 6.00391 7.00098C5.45191 7.00098 5.00391 7.45098 5.00391 8.00098C5.00391 9.54098 5.00391 12.461 5.00391 14.001C5.00391 14.551 5.45191 15.001 6.00391 15.001C6.32591 15.001 6.68291 15.001 7.00391 15.001C7.26991 15.001 7.52391 15.101 7.71091 15.291C7.89891 15.481 8.00391 15.731 8.00391 16.001C8.00391 16.731 8.00391 17.5809 8.00391 17.5809C8.00391 17.5809 9.61991 15.971 10.2969 15.291C10.4849 15.101 10.7389 15.001 11.0039 15.001C12.2769 15.001 16.1559 15.001 18.0039 15.001C18.5569 15.001 19.0039 14.551 19.0039 14.001C19.0039 12.461 19.0039 9.54098 19.0039 8.00098ZM12.0039 12.501C12.0039 12.631 11.9519 12.761 11.8579 12.851C11.7639 12.951 11.6369 13.001 11.5039 13.001C10.5459 13.001 8.46191 13.001 7.50391 13.001C7.37191 13.001 7.24491 12.951 7.15091 12.851C7.05691 12.761 7.00391 12.631 7.00391 12.501C7.00391 12.371 7.05691 12.241 7.15091 12.151C7.24491 12.051 7.37191 12.001 7.50391 12.001C8.46191 12.001 10.5459 12.001 11.5039 12.001C11.6369 12.001 11.7639 12.051 11.8579 12.151C11.9519 12.241 12.0039 12.371 12.0039 12.501ZM17.0039 9.50098C17.0039 9.63098 16.9519 9.76095 16.8579 9.85095C16.7639 9.95095 16.6369 10.001 16.5039 10.001C14.7969 10.001 9.21091 10.001 7.50391 10.001C7.37191 10.001 7.24491 9.95095 7.15091 9.85095C7.05691 9.76095 7.00391 9.63098 7.00391 9.50098C7.00391 9.37098 7.05691 9.241 7.15091 9.151C7.24491 9.051 7.37191 9.00098 7.50391 9.00098C9.21091 9.00098 14.7969 9.00098 16.5039 9.00098C16.6369 9.00098 16.7639 9.051 16.8579 9.151C16.9519 9.241 17.0039 9.37098 17.0039 9.50098Z" fill="black"/>
<path d="M4 8V14C4 15.1046 4.89543 16 6 16H7C7 17.4761 8.78467 18.2153 9.82843 17.1716L11 16H18C19.1046 16 20 15.1046 20 14V8C20 6.89543 19.1046 6 18 6H6C4.89543 6 4 6.89543 4 8Z" fill="black" fill-opacity="0.1"/>
</svg>
