<svg width="24" height="24" viewBox="0 0 24 24" fill="none" xmlns="http://www.w3.org/2000/svg">
<g clip-path="url(#clip0)">
<path fill-rule="evenodd" clip-rule="evenodd" d="M4.57313 15.3702C2.988 11.5433 4.80526 7.15609 8.6321 5.571C9.57162 5.18184 10.5449 4.99776 11.5022 4.99813V5.00008C13.0357 5.00008 14.4617 5.46041 15.6496 6.2502C16.5634 6.85787 17.3368 7.66109 17.9094 8.59944C18.1065 8.92415 18.2814 9.26815 18.4313 9.62996C18.4369 9.64339 18.443 9.65657 18.4496 9.66927C18.8058 10.5424 19.0021 11.4978 19.0022 12.499V12.5001L19 12.9979L20 13.0023L20.0022 12.5023L20.0022 12.5001C20.0022 10.8768 19.5472 9.3597 18.7576 8.06954C17.4355 5.89839 15.2365 4.48433 12.8242 4.10225C11.3285 3.86531 9.75091 4.0251 8.24942 4.64705C3.91233 6.44356 1.85277 11.4157 3.64925 15.7529C5.44572 20.0899 10.418 22.1495 14.755 20.353C15.0102 20.2474 15.1313 19.9549 15.0256 19.6998C14.92 19.4447 14.6275 19.3234 14.3723 19.4292C10.5455 21.0142 6.15825 19.197 4.57313 15.3702Z" fill="black"/>
<circle cx="11.5" cy="12.5" r="3" stroke="black"/>
<path d="M19.5 13C19.5 14.3807 18.3807 15.5 17 15.5C15.6193 15.5 14.5 14.3807 14.5 13" stroke="black"/>
<line x1="14.5" y1="13.5" x2="14.5" y2="9.5" stroke="black" stroke-linecap="round"/>
</g>
<defs>
<clipPath id="clip0">
<rect width="24" height="24" fill="white"/>
</clipPath>
</defs>
</svg>
