<svg width="24" height="24" viewBox="0 0 24 24" fill="none" xmlns="http://www.w3.org/2000/svg">
<path fill-rule="evenodd" clip-rule="evenodd" d="M15.7071 6.29288C15.3166 5.90237 14.6834 5.90237 14.2929 6.29288C13.9024 6.6835 13.9024 7.31656 14.2929 7.70718L15.5858 9.00003H8C5.79086 9.00003 4 10.7909 4 13C4 15.2091 5.79086 17 8 17C8.55228 17 9 16.5523 9 16C9 15.4478 8.55228 15 8 15C6.89543 15 6 14.1046 6 13C6 11.8954 6.89543 11 8 11H15.5858L14.2929 12.2929C13.9024 12.6835 13.9024 13.3166 14.2929 13.7072C14.6834 14.0977 15.3166 14.0977 15.7071 13.7072L18.7071 10.7072C19.0976 10.3166 19.0976 9.6835 18.7071 9.29288L15.7071 6.29288Z" fill="black"/>
</svg>
