<svg width="24" height="24" viewBox="0 0 24 24" fill="none" xmlns="http://www.w3.org/2000/svg">
<path fill-rule="evenodd" clip-rule="evenodd" d="M4.57313 15.3702C2.988 11.5434 4.80526 7.15611 8.6321 5.57098C9.57161 5.18182 10.5449 4.99774 11.5022 4.99812V5.00008C13.0448 5.00008 14.4786 5.46579 15.6707 6.26427C16.5724 6.86821 17.3358 7.66253 17.9034 8.5897C18.103 8.91731 18.2799 9.26447 18.4313 9.62995C18.4369 9.64346 18.443 9.6566 18.4496 9.66935C18.8058 10.5425 19.0021 11.4978 19.0022 12.4989V12.5001L19 12.9979L20 13.0023L20.0022 12.5023L20.0022 12.5001C20.0022 10.8766 19.5471 9.35935 18.7574 8.06909C17.4811 5.98388 15.3312 4.49145 12.8167 4.1011C11.3233 3.86592 9.74843 4.02619 8.24941 4.6471C3.91234 6.44358 1.85277 11.4158 3.64925 15.7529C5.44572 20.09 10.418 22.1495 14.755 20.3531C15.0102 20.2474 15.1313 19.9549 15.0256 19.6998C14.92 19.4447 14.6275 19.3235 14.3723 19.4292C10.5455 21.0143 6.15825 19.197 4.57313 15.3702Z" fill="black"/>
<circle cx="11.5" cy="12.5" r="3" stroke="black"/>
<path d="M19.5 13C19.5 14.3807 18.3807 15.5 17 15.5C15.6193 15.5 14.5 14.3807 14.5 13" stroke="black"/>
<line x1="14.5" y1="13.5" x2="14.5" y2="9.5" stroke="black" stroke-linecap="round"/>
</svg>
