<svg width="24" height="24" viewBox="0 0 24 24" fill="none" xmlns="http://www.w3.org/2000/svg">
<path fill-rule="evenodd" clip-rule="evenodd" d="M8 6C8 7.10457 7.10457 8 6 8C4.89543 8 4 7.10457 4 6C4 4.89543 4.89543 4 6 4C7.10457 4 8 4.89543 8 6ZM8.42237 7.77013C7.87657 8.51576 6.99484 9 6 9C4.34315 9 3 7.65685 3 6C3 4.34315 4.34315 3 6 3C7.65685 3 9 4.34315 9 6C9 6.30473 8.95456 6.59886 8.8701 6.87596L15.5777 10.2298C16.1235 9.48419 17.0052 9 18 9C19.6569 9 21 10.3431 21 12C21 13.6569 19.6569 15 18 15C17.0052 15 16.1234 14.5158 15.5776 13.7701L8.87007 17.1239C8.95455 17.4011 9 17.6952 9 18C9 19.6569 7.65685 21 6 21C4.34315 21 3 19.6569 3 18C3 16.3431 4.34315 15 6 15C6.9948 15 7.87651 15.4842 8.4223 16.2298L15.1299 12.876C15.0454 12.5989 15 12.3047 15 12C15 11.6952 15.0454 11.4011 15.1299 11.1239L8.42237 7.77013ZM16.2729 10.9909C16.3363 10.8826 16.4096 10.7808 16.4916 10.6867C16.8582 10.2659 17.3981 10 18 10C19.1046 10 20 10.8954 20 12C20 13.1046 19.1046 14 18 14C17.398 14 16.8582 13.734 16.4915 13.3132L16.4915 13.3132C16.2729 13.0623 16.1159 12.7564 16.044 12.4189L16.044 12.419C16.0152 12.2839 16 12.1437 16 12C16 11.8563 16.0152 11.7161 16.044 11.5809L16.044 11.5809C16.0889 11.37 16.1672 11.1715 16.2729 10.9909ZM8 18C8 19.1046 7.10457 20 6 20C4.89543 20 4 19.1046 4 18C4 16.8954 4.89543 16 6 16C7.10457 16 8 16.8954 8 18Z" fill="black"/>
<path fill-rule="evenodd" clip-rule="evenodd" d="M9 6C9 7.65685 7.65685 9 6 9C4.34315 9 3 7.65685 3 6C3 4.34315 4.34315 3 6 3C7.65685 3 9 4.34315 9 6ZM21 12C21 13.6569 19.6569 15 18 15C16.3431 15 15 13.6569 15 12C15 10.3431 16.3431 9 18 9C19.6569 9 21 10.3431 21 12ZM6 21C7.65685 21 9 19.6569 9 18C9 16.3431 7.65685 15 6 15C4.34315 15 3 16.3431 3 18C3 19.6569 4.34315 21 6 21Z" fill="black" fill-opacity="0.1"/>
</svg>
