<svg width="24" height="24" viewBox="0 0 24 24" fill="none" xmlns="http://www.w3.org/2000/svg">
<path fill-rule="evenodd" clip-rule="evenodd" d="M19.98 10.57C20.37 10.72 20.6202 11.0901 20.6202 11.5001C20.6202 11.9101 20.37 12.2801 19.98 12.4301C15.93 14.0101 7.79019 17.17 4.12019 18.6C3.77019 18.74 3.37015 18.6601 3.08015 18.4101C2.80015 18.1501 2.69012 17.7601 2.80012 17.3901C3.46012 15.0801 4.48005 11.5001 4.48005 11.5001C4.48005 11.5001 3.46012 7.92004 2.80012 5.61004C2.69012 5.24004 2.80015 4.85002 3.08015 4.59002C3.37015 4.34002 3.77019 4.26008 4.12019 4.40008C7.79019 5.83008 15.93 8.99 19.98 10.57ZM5.37995 11.0001C5.37995 11.0001 9.12007 11.0001 10.5001 11.0001C10.6301 11.0001 10.7602 11.0501 10.8502 11.1501C10.9502 11.2401 11.0001 11.3701 11.0001 11.5001C11.0001 11.7801 10.7801 12.0001 10.5001 12.0001C9.12007 12.0001 5.37995 12.0001 5.37995 12.0001L3.76008 17.6701L19.6202 11.5001L3.76008 5.33001L5.37995 11.0001Z" fill="#333333"/>
</svg>
