<svg width="24" height="24" viewBox="0 0 24 24" fill="none" xmlns="http://www.w3.org/2000/svg">
<path fill-rule="evenodd" clip-rule="evenodd" d="M15.8536 7.14648C15.6583 6.95117 15.3417 6.95117 15.1464 7.14648C14.9512 7.34167 14.9512 7.65833 15.1464 7.85352L17.2929 10H8.5C6.567 10 5 11.567 5 13.5C5 15.433 6.567 17 8.5 17C8.77615 17 9 16.7761 9 16.5C9 16.2239 8.77615 16 8.5 16C7.11929 16 6 14.8807 6 13.5C6 12.1193 7.11929 11 8.5 11H17.2929L15.1464 13.1465C14.9512 13.3417 14.9512 13.6583 15.1464 13.8535C15.3417 14.0488 15.6583 14.0488 15.8536 13.8535L18.8536 10.8535C19.0488 10.6583 19.0488 10.3417 18.8536 10.1465L15.8536 7.14648Z" fill="black"/>
</svg>
