<svg width="24" height="24" viewBox="0 0 24 24" fill="none" xmlns="http://www.w3.org/2000/svg">
<path fill-rule="evenodd" clip-rule="evenodd" d="M5.53284 14.6788C4.05339 11.1072 5.7495 7.01242 9.32121 5.53293C10.1981 5.16965 11.1065 4.9979 12 4.99826V5.00009C13.4351 5.00009 14.7693 5.43198 15.8798 6.17282C16.7292 6.73947 17.4478 7.48691 17.9804 8.3602C18.1642 8.66306 18.3274 8.98374 18.4672 9.32126C18.4745 9.33896 18.4823 9.3563 18.4905 9.37339C18.8191 10.1845 19 11.0711 19 12.0001V12.5001H21V12.0001C21 10.2848 20.5202 8.68161 19.6874 7.31736C18.2871 5.01206 15.9538 3.5112 13.3943 3.10739C11.8123 2.85776 10.1439 3.02744 8.55585 3.68515C3.96365 5.58725 1.78293 10.852 3.68508 15.4442C5.58723 20.0365 10.8519 22.2171 15.4441 20.315C15.9544 20.1036 16.1967 19.5187 15.9853 19.0084C15.774 18.4981 15.189 18.2558 14.6788 18.4673C11.1071 19.9466 7.01229 18.2506 5.53284 14.6788Z" fill="black"/>
<circle cx="12" cy="12" r="3" stroke="black" stroke-width="2"/>
<path d="M20 12.5C20 13.8807 18.8807 15 17.5 15C16.1193 15 15 13.8807 15 12.5" stroke="black" stroke-width="2"/>
<line x1="15" y1="13" x2="15" y2="9" stroke="black" stroke-width="2" stroke-linecap="round"/>
</svg>
