<?xml version="1.0" encoding="UTF-8" standalone="no"?>
<!DOCTYPE svg PUBLIC "-//W3C//DTD SVG 1.1//EN" "http://www.w3.org/Graphics/SVG/1.1/DTD/svg11.dtd">
<svg width="24px" height="24px" version="1.1" xmlns="http://www.w3.org/2000/svg" xmlns:xlink="http://www.w3.org/1999/xlink" xml:space="preserve" xmlns:serif="http://www.serif.com/" style="fill-rule:evenodd;clip-rule:evenodd;stroke-linejoin:round;stroke-miterlimit:1.41421;">
    <g transform="matrix(1,0,0,1,-386,-1503)">
        <g id="social.thin.paperPlane" transform="matrix(1,0,0,1,-1182,733)">
            <rect x="1568" y="770" width="24" height="24" style="fill:none;"/>
            <g transform="matrix(1,0,0,1,-1453,-262)">
                <path d="M3040.98,1042.57C3041.37,1042.72 3041.62,1043.09 3041.62,1043.5C3041.62,1043.91 3041.37,1044.28 3040.98,1044.43C3036.93,1046.01 3028.79,1049.17 3025.12,1050.6C3024.77,1050.74 3024.37,1050.66 3024.08,1050.41C3023.8,1050.15 3023.69,1049.76 3023.8,1049.39C3024.46,1047.08 3025.48,1043.5 3025.48,1043.5C3025.48,1043.5 3024.46,1039.92 3023.8,1037.61C3023.69,1037.24 3023.8,1036.85 3024.08,1036.59C3024.37,1036.34 3024.77,1036.26 3025.12,1036.4C3028.79,1037.83 3036.93,1040.99 3040.98,1042.57ZM3026.38,1043C3026.38,1043 3030.12,1043 3031.5,1043C3031.63,1043 3031.76,1043.05 3031.85,1043.15C3031.95,1043.24 3032,1043.37 3032,1043.5C3032,1043.5 3032,1043.5 3032,1043.5C3032,1043.78 3031.78,1044 3031.5,1044C3030.12,1044 3026.38,1044 3026.38,1044L3024.76,1049.67L3040.62,1043.5L3024.76,1037.33L3026.38,1043Z" style="fill:rgb(51,51,51);"/>
            </g>
        </g>
    </g>
</svg>
