<svg width="24" height="24" viewBox="0 0 24 24" fill="none" xmlns="http://www.w3.org/2000/svg">
<path fill-rule="evenodd" clip-rule="evenodd" d="M15.7414 5.39223C15.9889 4.15465 15.0423 3 13.7802 3H12.4684C11.8748 3 11.3119 3.26365 10.9319 3.71963L6.23179 9.35982C6.08203 9.53953 6.00001 9.76606 6.00001 10V20C6.00001 20.5523 6.44773 21 7.00001 21H16.1573C17.3755 21 18.4727 20.2634 18.9339 19.1359L21.7976 12.1359C22.605 10.1623 21.1534 8 19.0209 8H15.2198L15.7414 5.39223ZM12.4684 5L13.7802 5L13.0194 8.80388C12.9607 9.09766 13.0367 9.4023 13.2267 9.63399C13.4166 9.86568 13.7004 10 14 10H19.0209C19.7317 10 20.2156 10.7207 19.9465 11.3786L17.0829 18.3786C16.9291 18.7545 16.5634 19 16.1573 19H8.00001V10.362L12.4684 5Z" fill="black"/>
<path fill-rule="evenodd" clip-rule="evenodd" d="M3 9C2.44772 9 2 9.44772 2 10V20C2 20.5523 2.44772 21 3 21C3.55228 21 4 20.5523 4 20V10C4 9.44772 3.55228 9 3 9Z" fill="black"/>
<path d="M16.1573 20H7V10L11.7002 4.35982C11.8901 4.13182 12.1716 4 12.4684 4H13.7802C14.4112 4 14.8845 4.57733 14.7608 5.19612L14 9H19.0209C20.4425 9 21.4103 10.4415 20.872 11.7573L18.0084 18.7573C17.7009 19.5089 16.9694 20 16.1573 20Z" fill="black" fill-opacity="0.1"/>
</svg>
