<?xml version="1.0" encoding="UTF-8" standalone="no"?>
<!DOCTYPE svg PUBLIC "-//W3C//DTD SVG 1.1//EN" "http://www.w3.org/Graphics/SVG/1.1/DTD/svg11.dtd">
<svg width="24px" height="24px" version="1.1" xmlns="http://www.w3.org/2000/svg" xmlns:xlink="http://www.w3.org/1999/xlink" xml:space="preserve" xmlns:serif="http://www.serif.com/" style="fill-rule:evenodd;clip-rule:evenodd;stroke-linecap:round;stroke-linejoin:round;stroke-miterlimit:100;">
    <g transform="matrix(1,0,0,1,-1028,-1503)">
        <g id="social.thin.emoji" transform="matrix(1,0,0,1,-540,733)">
            <rect x="1568" y="770" width="24" height="24" style="fill:none;"/>
            <g transform="matrix(0.9,0,0,0.9,1090.26,-537.507)">
                <path d="M544.283,1456.12L544.412,1456.12L544.541,1456.13L544.669,1456.13L544.796,1456.14L544.923,1456.15L545.05,1456.16L545.176,1456.17L545.302,1456.18L545.427,1456.2L545.552,1456.22L545.676,1456.23L545.8,1456.25L545.924,1456.28L546.046,1456.3L546.169,1456.32L546.29,1456.35L546.412,1456.38L546.532,1456.4L546.652,1456.43L546.772,1456.47L546.891,1456.5L547.009,1456.53L547.127,1456.57L547.244,1456.61L547.36,1456.64L547.476,1456.68L547.591,1456.73L547.706,1456.77L547.82,1456.81L547.933,1456.86L548.045,1456.91L548.157,1456.95L548.268,1457L548.378,1457.05L548.488,1457.11L548.597,1457.16L548.705,1457.21L548.813,1457.27L548.919,1457.33L549.025,1457.38L549.13,1457.44L549.235,1457.51L549.338,1457.57L549.441,1457.63L549.543,1457.69L549.644,1457.76L549.744,1457.83L549.843,1457.9L549.942,1457.96L550.039,1458.04L550.136,1458.11L550.232,1458.18L550.327,1458.25L550.421,1458.33L550.514,1458.4L550.606,1458.48L550.697,1458.56L550.787,1458.64L550.877,1458.72L550.965,1458.8L551.052,1458.88L551.139,1458.96L551.224,1459.05L551.308,1459.13L551.392,1459.22L551.474,1459.31L551.555,1459.4L551.635,1459.49L551.715,1459.58L551.793,1459.67L551.87,1459.76L551.945,1459.85L552.02,1459.95L552.094,1460.04L552.167,1460.14L552.238,1460.23L552.308,1460.33L552.377,1460.43L552.445,1460.53L552.512,1460.63L552.578,1460.73L552.642,1460.83L552.706,1460.93L552.768,1461.04L552.829,1461.14L552.888,1461.25L552.947,1461.35L553.004,1461.46L553.06,1461.57L553.114,1461.68L553.168,1461.79L553.22,1461.89L553.27,1462.01L553.32,1462.12L553.368,1462.23L553.415,1462.34L553.46,1462.45L553.504,1462.57L553.547,1462.68L553.588,1462.8L553.629,1462.91L553.667,1463.03L553.704,1463.15L553.74,1463.27L553.775,1463.38L553.808,1463.5L553.839,1463.62L553.869,1463.74L553.898,1463.86L553.925,1463.98L553.951,1464.11L553.975,1464.23L553.998,1464.35L554.019,1464.47L554.039,1464.6L554.057,1464.72L554.074,1464.85L554.089,1464.97L554.103,1465.1L554.115,1465.22L554.125,1465.35L554.134,1465.48L554.141,1465.61L554.147,1465.73L554.151,1465.86L554.153,1465.99L554.154,1466.12L554.153,1466.25L554.151,1466.38L554.147,1466.51L554.141,1466.63L554.134,1466.76L554.125,1466.89L554.115,1467.02L554.103,1467.14L554.089,1467.27L554.074,1467.39L554.057,1467.52L554.039,1467.64L554.019,1467.77L553.998,1467.89L553.975,1468.01L553.951,1468.13L553.925,1468.26L553.898,1468.38L553.869,1468.5L553.839,1468.62L553.808,1468.74L553.775,1468.86L553.74,1468.97L553.704,1469.09L553.667,1469.21L553.629,1469.33L553.588,1469.44L553.547,1469.56L553.504,1469.67L553.46,1469.78L553.415,1469.9L553.368,1470.01L553.32,1470.12L553.27,1470.23L553.22,1470.34L553.168,1470.45L553.114,1470.56L553.06,1470.67L553.004,1470.78L552.947,1470.88L552.888,1470.99L552.829,1471.1L552.768,1471.2L552.706,1471.3L552.642,1471.41L552.578,1471.51L552.512,1471.61L552.445,1471.71L552.377,1471.81L552.308,1471.91L552.238,1472L552.167,1472.1L552.094,1472.2L552.02,1472.29L551.945,1472.38L551.87,1472.48L551.793,1472.57L551.715,1472.66L551.635,1472.75L551.555,1472.84L551.474,1472.93L551.392,1473.02L551.308,1473.1L551.224,1473.19L551.139,1473.27L551.052,1473.36L550.965,1473.44L550.877,1473.52L550.787,1473.6L550.697,1473.68L550.606,1473.76L550.514,1473.83L550.421,1473.91L550.327,1473.99L550.232,1474.06L550.136,1474.13L550.039,1474.2L549.942,1474.27L549.843,1474.34L549.744,1474.41L549.644,1474.48L549.543,1474.54L549.441,1474.61L549.338,1474.67L549.235,1474.73L549.13,1474.79L549.025,1474.85L548.919,1474.91L548.813,1474.97L548.705,1475.02L548.597,1475.08L548.488,1475.13L548.378,1475.18L548.268,1475.24L548.157,1475.29L548.045,1475.33L547.933,1475.38L547.82,1475.42L547.706,1475.47L547.591,1475.51L547.476,1475.55L547.36,1475.59L547.244,1475.63L547.127,1475.67L547.009,1475.7L546.891,1475.74L546.772,1475.77L546.652,1475.8L546.532,1475.83L546.412,1475.86L546.29,1475.89L546.169,1475.92L546.046,1475.94L545.924,1475.96L545.8,1475.98L545.676,1476L545.552,1476.02L545.427,1476.04L545.302,1476.05L545.176,1476.07L545.05,1476.08L544.923,1476.09L544.796,1476.1L544.669,1476.11L544.541,1476.11L544.412,1476.12L544.283,1476.12L544.154,1476.12L544.025,1476.12L543.896,1476.12L543.768,1476.11L543.64,1476.11L543.512,1476.1L543.385,1476.09L543.259,1476.08L543.132,1476.07L543.007,1476.05L542.881,1476.04L542.757,1476.02L542.632,1476L542.508,1475.98L542.385,1475.96L542.262,1475.94L542.14,1475.92L542.018,1475.89L541.897,1475.86L541.776,1475.83L541.656,1475.8L541.537,1475.77L541.418,1475.74L541.3,1475.7L541.182,1475.67L541.065,1475.63L540.948,1475.59L540.833,1475.55L540.717,1475.51L540.603,1475.47L540.489,1475.42L540.376,1475.38L540.263,1475.33L540.152,1475.29L540.041,1475.24L539.93,1475.18L539.82,1475.13L539.712,1475.08L539.603,1475.02L539.496,1474.97L539.389,1474.91L539.283,1474.85L539.178,1474.79L539.074,1474.73L538.971,1474.67L538.868,1474.61L538.766,1474.54L538.665,1474.48L538.565,1474.41L538.465,1474.34L538.367,1474.27L538.269,1474.2L538.173,1474.13L538.077,1474.06L537.982,1473.99L537.888,1473.91L537.795,1473.83L537.703,1473.76L537.612,1473.68L537.521,1473.6L537.432,1473.52L537.344,1473.44L537.256,1473.36L537.17,1473.27L537.085,1473.19L537,1473.1L536.917,1473.02L536.835,1472.93L536.753,1472.84L536.673,1472.75L536.594,1472.66L536.516,1472.57L536.439,1472.48L536.363,1472.38L536.288,1472.29L536.215,1472.2L536.142,1472.1L536.071,1472L536,1471.91L535.931,1471.81L535.863,1471.71L535.796,1471.61L535.731,1471.51L535.666,1471.41L535.603,1471.3L535.541,1471.2L535.48,1471.1L535.42,1470.99L535.362,1470.88L535.305,1470.78L535.249,1470.67L535.194,1470.56L535.141,1470.45L535.089,1470.34L535.038,1470.23L534.989,1470.12L534.941,1470.01L534.894,1469.9L534.848,1469.78L534.804,1469.67L534.762,1469.56L534.72,1469.44L534.68,1469.33L534.641,1469.21L534.604,1469.09L534.568,1468.97L534.534,1468.86L534.501,1468.74L534.469,1468.62L534.439,1468.5L534.411,1468.38L534.383,1468.26L534.358,1468.13L534.333,1468.01L534.311,1467.89L534.289,1467.77L534.27,1467.64L534.251,1467.52L534.235,1467.39L534.22,1467.27L534.206,1467.14L534.194,1467.02L534.183,1466.89L534.175,1466.76L534.167,1466.63L534.162,1466.51L534.158,1466.38L534.155,1466.25L534.154,1466.12L534.155,1465.99L534.158,1465.86L534.162,1465.73L534.167,1465.61L534.175,1465.48L534.183,1465.35L534.194,1465.22L534.206,1465.1L534.22,1464.97L534.235,1464.85L534.251,1464.72L534.27,1464.6L534.289,1464.47L534.311,1464.35L534.333,1464.23L534.358,1464.11L534.383,1463.98L534.411,1463.86L534.439,1463.74L534.469,1463.62L534.501,1463.5L534.534,1463.38L534.568,1463.27L534.604,1463.15L534.641,1463.03L534.68,1462.91L534.72,1462.8L534.762,1462.68L534.804,1462.57L534.848,1462.45L534.894,1462.34L534.941,1462.23L534.989,1462.12L535.038,1462.01L535.089,1461.89L535.141,1461.79L535.194,1461.68L535.249,1461.57L535.305,1461.46L535.362,1461.35L535.42,1461.25L535.48,1461.14L535.541,1461.04L535.603,1460.93L535.666,1460.83L535.731,1460.73L535.796,1460.63L535.863,1460.53L535.931,1460.43L536,1460.33L536.071,1460.23L536.142,1460.14L536.215,1460.04L536.288,1459.95L536.363,1459.85L536.439,1459.76L536.516,1459.67L536.594,1459.58L536.673,1459.49L536.753,1459.4L536.835,1459.31L536.917,1459.22L537,1459.13L537.085,1459.05L537.17,1458.96L537.256,1458.88L537.344,1458.8L537.432,1458.72L537.521,1458.64L537.612,1458.56L537.703,1458.48L537.795,1458.4L537.888,1458.33L537.982,1458.25L538.077,1458.18L538.173,1458.11L538.269,1458.04L538.367,1457.96L538.465,1457.9L538.565,1457.83L538.665,1457.76L538.766,1457.69L538.868,1457.63L538.971,1457.57L539.074,1457.51L539.178,1457.44L539.283,1457.38L539.389,1457.33L539.496,1457.27L539.603,1457.21L539.712,1457.16L539.82,1457.11L539.93,1457.05L540.041,1457L540.152,1456.95L540.263,1456.91L540.376,1456.86L540.489,1456.81L540.603,1456.77L540.717,1456.73L540.833,1456.68L540.948,1456.64L541.065,1456.61L541.182,1456.57L541.3,1456.53L541.418,1456.5L541.537,1456.47L541.656,1456.43L541.776,1456.4L541.897,1456.38L542.018,1456.35L542.14,1456.32L542.262,1456.3L542.385,1456.28L542.508,1456.25L542.632,1456.23L542.757,1456.22L542.881,1456.2L543.007,1456.18L543.132,1456.17L543.259,1456.16L543.385,1456.15L543.512,1456.14L543.64,1456.13L543.768,1456.13L543.896,1456.12L544.025,1456.12L544.154,1456.12L544.283,1456.12ZM544.039,1457.23L543.924,1457.23L543.81,1457.24L543.696,1457.24L543.583,1457.25L543.47,1457.26L543.357,1457.27L543.245,1457.28L543.133,1457.29L543.021,1457.3L542.911,1457.32L542.8,1457.33L542.69,1457.35L542.581,1457.37L542.471,1457.39L542.363,1457.41L542.255,1457.43L542.147,1457.46L542.04,1457.48L541.934,1457.51L541.828,1457.54L541.722,1457.57L541.617,1457.6L541.512,1457.63L541.408,1457.66L541.305,1457.7L541.202,1457.73L541.1,1457.77L540.998,1457.81L540.897,1457.85L540.797,1457.89L540.697,1457.93L540.597,1457.97L540.498,1458.02L540.401,1458.06L540.303,1458.11L540.206,1458.15L540.11,1458.2L540.015,1458.25L539.92,1458.3L539.826,1458.36L539.733,1458.41L539.64,1458.46L539.548,1458.52L539.456,1458.57L539.366,1458.63L539.276,1458.69L539.187,1458.75L539.098,1458.81L539.011,1458.87L538.925,1458.93L538.838,1459L538.753,1459.06L538.669,1459.13L538.585,1459.19L538.502,1459.26L538.42,1459.33L538.339,1459.4L538.259,1459.47L538.179,1459.54L538.101,1459.61L538.023,1459.69L537.946,1459.76L537.87,1459.84L537.795,1459.91L537.721,1459.99L537.648,1460.07L537.576,1460.14L537.505,1460.22L537.434,1460.3L537.364,1460.38L537.296,1460.47L537.228,1460.55L537.162,1460.63L537.096,1460.72L537.032,1460.8L536.968,1460.89L536.905,1460.98L536.844,1461.06L536.784,1461.15L536.724,1461.24L536.666,1461.33L536.608,1461.42L536.553,1461.51L536.497,1461.61L536.443,1461.7L536.39,1461.79L536.338,1461.88L536.288,1461.98L536.238,1462.08L536.189,1462.17L536.142,1462.27L536.096,1462.37L536.051,1462.46L536.007,1462.56L535.964,1462.66L535.922,1462.76L535.882,1462.86L535.843,1462.96L535.805,1463.07L535.768,1463.17L535.733,1463.27L535.698,1463.37L535.665,1463.48L535.633,1463.58L535.603,1463.69L535.573,1463.79L535.545,1463.9L535.519,1464.01L535.493,1464.11L535.469,1464.22L535.446,1464.33L535.425,1464.44L535.404,1464.55L535.386,1464.65L535.368,1464.77L535.352,1464.88L535.337,1464.99L535.324,1465.1L535.311,1465.21L535.301,1465.32L535.291,1465.43L535.284,1465.55L535.277,1465.66L535.272,1465.78L535.268,1465.89L535.266,1466L535.265,1466.12L535.266,1466.23L535.268,1466.35L535.272,1466.46L535.277,1466.58L535.284,1466.69L535.291,1466.8L535.301,1466.92L535.311,1467.03L535.324,1467.14L535.337,1467.25L535.352,1467.36L535.368,1467.47L535.386,1467.58L535.404,1467.69L535.425,1467.8L535.446,1467.91L535.469,1468.02L535.493,1468.13L535.519,1468.23L535.545,1468.34L535.573,1468.45L535.603,1468.55L535.633,1468.66L535.665,1468.76L535.698,1468.87L535.733,1468.97L535.768,1469.07L535.805,1469.17L535.843,1469.28L535.882,1469.38L535.922,1469.48L535.964,1469.58L536.007,1469.68L536.051,1469.78L536.096,1469.87L536.142,1469.97L536.189,1470.07L536.238,1470.16L536.287,1470.26L536.338,1470.35L536.39,1470.45L536.443,1470.54L536.497,1470.63L536.553,1470.73L536.609,1470.82L536.666,1470.91L536.724,1471L536.784,1471.09L536.844,1471.17L536.906,1471.26L536.968,1471.35L537.032,1471.43L537.096,1471.52L537.162,1471.61L537.228,1471.69L537.296,1471.77L537.364,1471.85L537.434,1471.93L537.504,1472.02L537.576,1472.09L537.648,1472.17L537.721,1472.25L537.795,1472.33L537.87,1472.4L537.946,1472.48L538.023,1472.55L538.101,1472.63L538.179,1472.7L538.259,1472.77L538.339,1472.84L538.42,1472.91L538.502,1472.98L538.585,1473.05L538.669,1473.11L538.753,1473.18L538.838,1473.24L538.924,1473.31L539.011,1473.37L539.098,1473.43L539.187,1473.49L539.276,1473.55L539.366,1473.61L539.456,1473.66L539.547,1473.72L539.64,1473.78L539.733,1473.83L539.826,1473.88L539.92,1473.93L540.015,1473.99L540.11,1474.04L540.206,1474.08L540.303,1474.13L540.4,1474.18L540.499,1474.22L540.597,1474.27L540.696,1474.31L540.796,1474.35L540.897,1474.39L540.998,1474.43L541.1,1474.47L541.202,1474.51L541.305,1474.54L541.408,1474.58L541.512,1474.61L541.617,1474.64L541.722,1474.67L541.827,1474.7L541.933,1474.73L542.04,1474.76L542.147,1474.78L542.255,1474.8L542.363,1474.83L542.471,1474.85L542.581,1474.87L542.69,1474.89L542.8,1474.9L542.911,1474.92L543.022,1474.94L543.133,1474.95L543.245,1474.96L543.357,1474.97L543.469,1474.98L543.583,1474.99L543.696,1475L543.811,1475L543.924,1475.01L544.039,1475.01L544.154,1475.01L544.269,1475.01L544.384,1475.01L544.498,1475L544.612,1475L544.726,1474.99L544.839,1474.98L544.951,1474.97L545.064,1474.96L545.175,1474.95L545.287,1474.94L545.398,1474.92L545.508,1474.9L545.618,1474.89L545.728,1474.87L545.837,1474.85L545.946,1474.83L546.054,1474.8L546.161,1474.78L546.268,1474.76L546.375,1474.73L546.482,1474.7L546.586,1474.67L546.691,1474.64L546.797,1474.61L546.9,1474.58L547.003,1474.54L547.107,1474.51L547.209,1474.47L547.311,1474.43L547.412,1474.39L547.512,1474.35L547.612,1474.31L547.711,1474.27L547.81,1474.22L547.908,1474.18L548.005,1474.13L548.102,1474.08L548.198,1474.04L548.294,1473.99L548.389,1473.93L548.483,1473.88L548.576,1473.83L548.669,1473.78L548.761,1473.72L548.852,1473.66L548.943,1473.61L549.032,1473.55L549.121,1473.49L549.21,1473.43L549.297,1473.37L549.384,1473.31L549.471,1473.24L549.556,1473.18L549.64,1473.11L549.724,1473.05L549.807,1472.98L549.888,1472.91L549.969,1472.84L550.05,1472.77L550.129,1472.7L550.207,1472.63L550.286,1472.55L550.363,1472.48L550.438,1472.4L550.513,1472.33L550.588,1472.25L550.661,1472.17L550.733,1472.09L550.804,1472.02L550.875,1471.93L550.944,1471.85L551.013,1471.77L551.08,1471.69L551.147,1471.61L551.212,1471.52L551.277,1471.43L551.34,1471.35L551.403,1471.26L551.464,1471.17L551.525,1471.09L551.584,1471L551.643,1470.91L551.7,1470.82L551.756,1470.73L551.811,1470.63L551.866,1470.54L551.918,1470.45L551.97,1470.35L552.021,1470.26L552.071,1470.16L552.119,1470.07L552.167,1469.97L552.213,1469.87L552.258,1469.78L552.302,1469.68L552.345,1469.58L552.386,1469.48L552.427,1469.38L552.466,1469.28L552.504,1469.17L552.54,1469.07L552.576,1468.97L552.61,1468.87L552.644,1468.76L552.675,1468.66L552.706,1468.55L552.735,1468.45L552.763,1468.34L552.79,1468.23L552.815,1468.13L552.84,1468.02L552.862,1467.91L552.884,1467.8L552.904,1467.69L552.923,1467.58L552.941,1467.47L552.957,1467.36L552.972,1467.25L552.985,1467.14L552.997,1467.03L553.008,1466.92L553.017,1466.8L553.025,1466.69L553.032,1466.58L553.037,1466.46L553.04,1466.35L553.042,1466.23L553.043,1466.12L553.042,1466L553.04,1465.89L553.037,1465.78L553.032,1465.66L553.025,1465.55L553.017,1465.43L553.008,1465.32L552.997,1465.21L552.985,1465.1L552.972,1464.99L552.957,1464.88L552.941,1464.77L552.923,1464.65L552.904,1464.55L552.884,1464.44L552.862,1464.33L552.84,1464.22L552.815,1464.11L552.79,1464.01L552.763,1463.9L552.735,1463.79L552.706,1463.69L552.675,1463.58L552.643,1463.48L552.61,1463.37L552.576,1463.27L552.54,1463.17L552.504,1463.07L552.466,1462.96L552.427,1462.86L552.386,1462.76L552.345,1462.66L552.302,1462.56L552.258,1462.46L552.213,1462.37L552.167,1462.27L552.12,1462.17L552.071,1462.08L552.021,1461.98L551.97,1461.88L551.918,1461.79L551.866,1461.7L551.811,1461.61L551.756,1461.51L551.7,1461.42L551.643,1461.33L551.584,1461.24L551.525,1461.15L551.464,1461.06L551.403,1460.98L551.34,1460.89L551.277,1460.8L551.212,1460.72L551.147,1460.63L551.08,1460.55L551.013,1460.47L550.944,1460.38L550.875,1460.3L550.804,1460.22L550.733,1460.14L550.661,1460.07L550.587,1459.99L550.513,1459.91L550.438,1459.84L550.363,1459.76L550.286,1459.69L550.208,1459.61L550.129,1459.54L550.05,1459.47L549.969,1459.4L549.888,1459.33L549.807,1459.26L549.724,1459.19L549.64,1459.13L549.556,1459.06L549.471,1459L549.384,1458.93L549.297,1458.87L549.21,1458.81L549.122,1458.75L549.032,1458.69L548.943,1458.63L548.852,1458.57L548.761,1458.52L548.669,1458.46L548.576,1458.41L548.483,1458.36L548.389,1458.3L548.294,1458.25L548.198,1458.2L548.103,1458.15L548.005,1458.11L547.908,1458.06L547.81,1458.02L547.712,1457.97L547.612,1457.93L547.512,1457.89L547.412,1457.85L547.311,1457.81L547.209,1457.77L547.107,1457.73L547.004,1457.7L546.9,1457.66L546.796,1457.63L546.692,1457.6L546.587,1457.57L546.481,1457.54L546.375,1457.51L546.269,1457.48L546.161,1457.46L546.053,1457.43L545.946,1457.41L545.837,1457.39L545.728,1457.37L545.618,1457.35L545.508,1457.33L545.398,1457.32L545.287,1457.3L545.175,1457.29L545.064,1457.28L544.951,1457.27L544.839,1457.26L544.726,1457.25L544.612,1457.24L544.498,1457.24L544.384,1457.23L544.269,1457.23L544.154,1457.23L544.039,1457.23Z" style="fill:rgb(51,51,51);"/>
            </g>
            <g transform="matrix(1,0,0,1,1036.85,-684.119)">
                <circle cx="540.154" cy="1464.12" r="1" style="fill:rgb(51,51,51);"/>
            </g>
            <g transform="matrix(1,0,0,1,1042.85,-684.119)">
                <circle cx="540.154" cy="1464.12" r="1" style="fill:rgb(51,51,51);"/>
            </g>
            <g transform="matrix(0.648181,-0.648181,0.648181,0.648181,276.408,181.83)">
                <path d="M544.154,1473C540.843,1473 538.154,1470.31 538.154,1467" style="fill:none;stroke:rgb(51,51,51);stroke-width:1.09px;"/>
            </g>
        </g>
    </g>
</svg>
