<svg width="24" height="24" viewBox="0 0 24 24" fill="none" xmlns="http://www.w3.org/2000/svg">
<path fill-rule="evenodd" clip-rule="evenodd" d="M17.0015 17.9983C17.0015 17.4463 16.5515 16.9983 16.0015 16.9983C13.5815 16.9983 7.42146 16.9983 5.00146 16.9983C4.45146 16.9983 4.00146 17.4463 4.00146 17.9983C4.00146 18.5503 4.45146 18.9983 5.00146 18.9983C7.42146 18.9983 13.5815 18.9983 16.0015 18.9983C16.5515 18.9983 17.0015 18.5503 17.0015 17.9983ZM15.2915 11.2913C15.1115 11.4783 15.0015 11.7333 15.0015 11.9983C15.0015 12.2633 15.1115 12.5182 15.2915 12.7052C16.1215 13.5292 17.4715 14.8812 18.2915 15.7052C18.4815 15.8932 18.7415 15.9983 19.0015 15.9983C19.2614 15.9983 19.5214 15.8932 19.7114 15.7052C20.1014 15.3152 20.1014 14.6813 19.7114 14.2913C18.8214 13.4043 17.4114 11.9983 17.4114 11.9983C17.4114 11.9983 18.8214 10.5922 19.7114 9.70525C20.1014 9.31525 20.1014 8.68131 19.7114 8.29131C19.5214 8.10331 19.2614 7.99828 19.0015 7.99828C18.7415 7.99828 18.4815 8.10331 18.2915 8.29131C17.4715 9.11531 16.1215 10.4673 15.2915 11.2913ZM13.0015 13.9983C13.0015 13.7333 12.8914 13.4783 12.7114 13.2913C12.5214 13.1033 12.2615 12.9983 12.0015 12.9983C10.2715 12.9983 6.73146 12.9983 5.00146 12.9983C4.45146 12.9983 4.00146 13.4463 4.00146 13.9983C4.00146 14.2633 4.1115 14.5182 4.2915 14.7052C4.4815 14.8932 4.74146 14.9983 5.00146 14.9983C6.73146 14.9983 10.2715 14.9983 12.0015 14.9983C12.5515 14.9983 13.0015 14.5503 13.0015 13.9983ZM13.0015 9.99828C13.0015 9.73328 12.8914 9.47831 12.7114 9.29131C12.5214 9.10331 12.2615 8.99828 12.0015 8.99828C10.2715 8.99828 6.73146 8.99828 5.00146 8.99828C4.45146 8.99828 4.00146 9.44628 4.00146 9.99828C4.00146 10.2633 4.1115 10.5183 4.2915 10.7052C4.4815 10.8932 4.74146 10.9983 5.00146 10.9983C6.73146 10.9983 10.2715 10.9983 12.0015 10.9983C12.5515 10.9983 13.0015 10.5503 13.0015 9.99828ZM17.0015 5.99829C17.0015 5.44629 16.5515 4.99829 16.0015 4.99829C13.5815 4.99829 7.42146 4.99829 5.00146 4.99829C4.45146 4.99829 4.00146 5.44629 4.00146 5.99829C4.00146 6.55029 4.45146 6.99829 5.00146 6.99829C7.42146 6.99829 13.5815 6.99829 16.0015 6.99829C16.5515 6.99829 17.0015 6.55029 17.0015 5.99829Z" fill="#333333"/>
</svg>
