<svg width="24" height="24" viewBox="0 0 24 24" fill="none" xmlns="http://www.w3.org/2000/svg">
<path fill-rule="evenodd" clip-rule="evenodd" d="M20.0031 17.9983C20.0031 17.4463 19.5531 16.9983 19.0031 16.9983C17.0831 16.9983 12.9231 16.9983 11.0031 16.9983C10.4531 16.9983 10.0031 17.4463 10.0031 17.9983C10.0031 18.5503 10.4531 18.9983 11.0031 18.9983C12.9231 18.9983 17.0831 18.9983 19.0031 18.9983C19.5531 18.9983 20.0031 18.5503 20.0031 17.9983ZM20.0031 13.9983C20.0031 13.4463 19.5531 12.9983 19.0031 12.9983C16.1331 12.9983 7.87312 12.9983 5.00313 12.9983C4.73313 12.9983 4.48317 13.1033 4.29317 13.2913C4.11317 13.4783 4.00313 13.7333 4.00313 13.9983C4.00313 14.5503 4.45313 14.9983 5.00313 14.9983C7.87312 14.9983 16.1331 14.9983 19.0031 14.9983C19.2631 14.9983 19.5231 14.8932 19.7131 14.7052C19.8931 14.5182 20.0031 14.2633 20.0031 13.9983ZM20.0031 9.99828C20.0031 9.44628 19.5531 8.99828 19.0031 8.99828C16.4231 8.99828 9.58312 8.99828 7.00312 8.99828C6.73312 8.99828 6.48316 9.10331 6.29316 9.29131C6.11316 9.47831 6.00313 9.73328 6.00313 9.99828C6.00313 10.5503 6.45312 10.9983 7.00312 10.9983C9.58312 10.9983 16.4231 10.9983 19.0031 10.9983C19.2631 10.9983 19.5231 10.8932 19.7131 10.7052C19.8931 10.5183 20.0031 10.2633 20.0031 9.99828ZM20.0031 5.99829C20.0031 5.44629 19.5531 4.99829 19.0031 4.99829C16.1331 4.99829 7.87312 4.99829 5.00313 4.99829C4.73313 4.99829 4.48317 5.10332 4.29317 5.29132C4.11317 5.47832 4.00313 5.73329 4.00313 5.99829C4.00313 6.55029 4.45313 6.99829 5.00313 6.99829C7.87312 6.99829 16.1331 6.99829 19.0031 6.99829C19.2631 6.99829 19.5231 6.89326 19.7131 6.70526C19.8931 6.51826 20.0031 6.26329 20.0031 5.99829Z" fill="#333333"/>
</svg>
