<svg width="24" height="24" viewBox="0 0 24 24" fill="none" xmlns="http://www.w3.org/2000/svg">
<path fill-rule="evenodd" clip-rule="evenodd" d="M17.0014 17.5107C17.0014 17.2277 16.7714 16.9986 16.4914 16.9986C14.4014 16.9986 6.53137 16.9986 4.49138 16.9986C4.22137 16.9986 4.00139 17.2166 4.00139 17.4856C4.00139 17.7686 4.2314 17.9986 4.51139 17.9986C6.60139 17.9986 14.4714 17.9986 16.5114 17.9986C16.7814 17.9986 17.0014 17.7797 17.0014 17.5107ZM16.0114 10.7897C15.8214 10.9767 15.7113 11.2317 15.7113 11.4977C15.7113 11.7637 15.8114 12.0196 16.0014 12.2076C16.7914 12.9996 18.0413 14.2476 18.6513 14.8526C18.8413 15.0476 19.1615 15.0476 19.3515 14.8526C19.4515 14.7586 19.5014 14.6316 19.5014 14.4986C19.5014 14.3656 19.4515 14.2386 19.3515 14.1446C18.5615 13.3516 16.7113 11.5007 16.7113 11.5007C16.7113 11.5007 18.5813 9.64463 19.3813 8.85363C19.5813 8.65963 19.5813 8.34364 19.3813 8.14764C19.1913 7.95164 18.8713 7.94867 18.6813 8.14367C18.0713 8.74867 16.8014 9.99866 16.0114 10.7897ZM13.0014 13.5107C13.0014 13.3747 12.9515 13.2447 12.8515 13.1487C12.7515 13.0527 12.6214 12.9986 12.4914 12.9986C10.9014 12.9986 6.05137 12.9986 4.49138 12.9986C4.36138 12.9986 4.23128 13.0496 4.14128 13.1416C4.05128 13.2326 4.00139 13.3566 4.00139 13.4856C4.00139 13.6216 4.05129 13.7526 4.15129 13.8486C4.25129 13.9446 4.38139 13.9986 4.51139 13.9986C6.10139 13.9986 10.9514 13.9986 12.5114 13.9986C12.6414 13.9986 12.7715 13.9476 12.8615 13.8556C12.9515 13.7646 13.0014 13.6397 13.0014 13.5107ZM13.0014 9.51067C13.0014 9.37467 12.9515 9.24467 12.8515 9.14867C12.7515 9.05267 12.6214 8.99865 12.4914 8.99865C10.9014 8.99865 6.05137 8.99865 4.49138 8.99865C4.36138 8.99865 4.23128 9.04965 4.14128 9.14165C4.05128 9.23265 4.00139 9.35665 4.00139 9.48565C4.00139 9.62165 4.05129 9.75262 4.15129 9.84862C4.25129 9.94462 4.38139 9.99865 4.51139 9.99865C6.10139 9.99865 10.9514 9.99865 12.5114 9.99865C12.6414 9.99865 12.7715 9.94764 12.8615 9.85564C12.9515 9.76464 13.0014 9.63967 13.0014 9.51067ZM17.0014 5.51068C17.0014 5.22768 16.7714 4.99866 16.4914 4.99866C14.4014 4.99866 6.53137 4.99866 4.49138 4.99866C4.22137 4.99866 4.00139 5.21666 4.00139 5.48566C4.00139 5.76866 4.2314 5.99866 4.51139 5.99866C6.60139 5.99866 14.4714 5.99866 16.5114 5.99866C16.7814 5.99866 17.0014 5.77968 17.0014 5.51068Z" fill="#333333"/>
</svg>
