<?xml version="1.0" encoding="UTF-8" standalone="no"?>
<!DOCTYPE svg PUBLIC "-//W3C//DTD SVG 1.1//EN" "http://www.w3.org/Graphics/SVG/1.1/DTD/svg11.dtd">
<svg width="24px" height="24px" version="1.1" xmlns="http://www.w3.org/2000/svg" xmlns:xlink="http://www.w3.org/1999/xlink" xml:space="preserve" xmlns:serif="http://www.serif.com/" style="fill-rule:evenodd;clip-rule:evenodd;stroke-linejoin:round;stroke-miterlimit:1.41421;">
    <g transform="matrix(1,0,0,1,-2997,-558)">
        <g id="ui.regular.alignTop" transform="matrix(0.800768,0,0,0.984948,2997,558)">
            <rect x="0" y="0" width="29.971" height="24.367" style="fill:none;"/>
            <g transform="matrix(7.6467e-17,1.01528,-1.2488,6.21681e-17,726.802,-2896.6)">
                <path d="M2856,560C2856.26,560 2856.52,560.105 2856.71,560.293C2856.89,560.48 2857,560.735 2857,561C2857,564.414 2857,575.586 2857,579C2857,579.265 2856.89,579.52 2856.71,579.707C2856.52,579.895 2856.26,580 2856,580C2855.74,580 2855.48,579.895 2855.29,579.707C2855.11,579.52 2855,579.265 2855,579C2855,575.586 2855,564.414 2855,561C2855,560.735 2855.11,560.48 2855.29,560.293C2855.48,560.105 2855.74,560 2856,560C2856,560 2856,560 2856,560ZM2868,575C2868,575.552 2867.55,576 2867,576C2865.08,576 2860.92,576 2859,576C2858.45,576 2858,575.552 2858,575C2858,574.129 2858,572.871 2858,572C2858,571.448 2858.45,571 2859,571C2860.92,571 2865.08,571 2867,571C2867.55,571 2868,571.448 2868,572C2868,572.871 2868,574.129 2868,575ZM2866,573L2860,573L2860,574L2866,574L2866,573ZM2874,568C2874,568.552 2873.55,569 2873,569C2870.13,569 2861.87,569 2859,569C2858.45,569 2858,568.552 2858,568C2858,567.129 2858,565.871 2858,565C2858,564.448 2858.45,564 2859,564C2861.87,564 2870.13,564 2873,564C2873.55,564 2874,564.448 2874,565C2874,565.871 2874,567.129 2874,568ZM2872,566L2860,566L2860,567L2872,567L2872,566Z" style="fill:rgb(51,51,51);"/>
            </g>
        </g>
    </g>
</svg>
