<?xml version="1.0" encoding="UTF-8" standalone="no"?>
<!DOCTYPE svg PUBLIC "-//W3C//DTD SVG 1.1//EN" "http://www.w3.org/Graphics/SVG/1.1/DTD/svg11.dtd">
<svg width="24px" height="24px" version="1.1" xmlns="http://www.w3.org/2000/svg" xmlns:xlink="http://www.w3.org/1999/xlink" xml:space="preserve" xmlns:serif="http://www.serif.com/" style="fill-rule:evenodd;clip-rule:evenodd;stroke-linejoin:round;stroke-miterlimit:1.41421;">
    <g transform="matrix(1,0,0,1,-2373,-558)">
        <g id="ui.regular.backOne" transform="matrix(0.800768,0,0,0.984948,2373,558)">
            <rect x="0" y="0" width="29.971" height="24.367" style="fill:none;"/>
            <g transform="matrix(1.2488,0,0,1.01528,-2963.4,-566.528)">
                <path d="M2392,569C2392.26,569 2392.52,569.105 2392.71,569.293C2392.89,569.48 2393,569.735 2393,570C2393,571.732 2393,575.268 2393,577C2393,577.265 2392.89,577.52 2392.71,577.707C2392.52,577.895 2392.26,578 2392,578C2390.27,578 2386.73,578 2385,578C2384.74,578 2384.48,577.895 2384.29,577.707C2384.11,577.52 2384,577.265 2384,577C2384,575.268 2384,571.732 2384,570C2384,569.735 2384.11,569.48 2384.29,569.293C2384.48,569.105 2384.74,569 2385,569C2386.73,569 2390.27,569 2392,569ZM2392,570L2392,577L2385,577L2385,570L2392,570ZM2389,567.001C2389,567.266 2388.89,567.52 2388.71,567.707C2388.52,567.895 2388.27,568 2388,568C2388,568 2388,568 2388,568C2387.73,568 2387.48,567.895 2387.29,567.707C2387.11,567.52 2387,567.266 2387,567.001C2387,565.816 2387,564 2387,564L2379,564L2379,572C2379,572 2380.82,572 2382,572C2382.55,572 2383,572.448 2383,573C2383,573.265 2382.89,573.52 2382.71,573.707C2382.52,573.895 2382.26,574 2382,574C2380.89,574 2379.11,574 2378,574C2377.74,574 2377.48,573.895 2377.29,573.707C2377.11,573.52 2377,573.265 2377,573C2377,570.74 2377,565.26 2377,563C2377,562.735 2377.11,562.48 2377.29,562.293C2377.48,562.105 2377.74,562 2378,562C2380.26,562 2385.74,562 2388,562C2388.26,562 2388.52,562.105 2388.71,562.293C2388.89,562.48 2389,562.735 2389,563C2389,564.11 2389,565.891 2389,567.001ZM2385.5,567C2385.63,567 2385.76,567.053 2385.85,567.146C2385.95,567.24 2386,567.367 2386,567.5C2386,567.633 2385.95,567.76 2385.85,567.854C2385.76,567.947 2385.63,568 2385.5,568C2384.37,568 2381.63,568 2380.5,568C2380.37,568 2380.24,567.947 2380.15,567.854C2380.05,567.76 2380,567.633 2380,567.501C2380,567.5 2380,567.5 2380,567.499C2380,567.367 2380.05,567.24 2380.15,567.146C2380.24,567.053 2380.37,567 2380.5,567C2381.63,567 2384.37,567 2385.5,567ZM2385.5,565C2385.63,565 2385.76,565.053 2385.85,565.146C2385.95,565.24 2386,565.367 2386,565.5C2386,565.633 2385.95,565.76 2385.85,565.854C2385.76,565.947 2385.63,566 2385.5,566C2384.37,566 2381.63,566 2380.5,566C2380.37,566 2380.24,565.947 2380.15,565.854C2380.05,565.76 2380,565.633 2380,565.501C2380,565.5 2380,565.5 2380,565.499C2380,565.367 2380.05,565.24 2380.15,565.146C2380.24,565.053 2380.37,565 2380.5,565C2381.63,565 2384.37,565 2385.5,565Z"/>
            </g>
        </g>
    </g>
</svg>
