<?xml version="1.0" encoding="UTF-8" standalone="no"?>
<!DOCTYPE svg PUBLIC "-//W3C//DTD SVG 1.1//EN" "http://www.w3.org/Graphics/SVG/1.1/DTD/svg11.dtd">
<svg width="25px" height="24px" version="1.1" xmlns="http://www.w3.org/2000/svg" xmlns:xlink="http://www.w3.org/1999/xlink" xml:space="preserve" xmlns:serif="http://www.serif.com/" style="fill-rule:evenodd;clip-rule:evenodd;stroke-linejoin:round;stroke-miterlimit:1.41421;">
    <g transform="matrix(1,0,0,1,-387,-788)">
        <g id="ui.regular.dollar" transform="matrix(0.800768,0,0,0.984948,387.977,788)">
            <rect x="0" y="0" width="29.971" height="24.367" style="fill:none;"/>
            <g transform="matrix(1.2488,0,0,1.01528,-885.403,-800.042)">
                <path d="M725.001,797C724.737,797 724.483,796.895 724.296,796.708C724.109,796.521 724.004,796.267 724.004,796.003C724.004,795.842 724.004,795.672 724.004,795.502C724.004,795.104 723.846,794.722 723.564,794.44C723.283,794.158 722.901,794 722.502,794C721.747,794 720.821,794 720.006,794C718.901,794 718.006,794.895 718.006,796C718.006,796.329 718.006,796.671 718.006,797C718.006,798.105 718.901,799 720.006,799C720.615,799 721.307,799 722,799C724.209,799 726,800.791 726,803C726,803.332 726,803.668 726,804C726,805.061 725.579,806.078 724.828,806.828C724.078,807.579 723.061,808 722,808C721.123,808 720.203,808 719.354,808C718.465,808 717.612,807.647 716.983,807.017C716.355,806.388 716.002,805.535 716.002,804.646C716.002,804.645 716.002,804.644 716.002,804.644C716.003,804.288 716.291,804 716.646,804C716.774,804 716.91,804 717.045,804C717.298,804 717.54,804.101 717.719,804.279C717.898,804.458 717.999,804.701 717.999,804.954C717.999,804.954 717.999,804.955 717.999,804.955C717.999,805.232 718.109,805.498 718.305,805.694C718.501,805.89 718.766,806 719.044,806C719.858,806 721.014,806 722.004,806C723.109,806 724.004,805.105 724.004,804C724.004,803.671 724.004,803.329 724.004,803C724.004,802.47 723.794,801.961 723.419,801.586C723.044,801.211 722.535,801 722.004,801C721.392,801 720.696,801 720,801C718.939,801 717.922,800.579 717.172,799.828C716.421,799.078 716,798.061 716,797C716,796.668 716,796.332 716,796C716,794.939 716.421,793.922 717.172,793.172C717.922,792.421 718.939,792 720,792C720.819,792 721.675,792 722.476,792C723.411,792 724.307,792.371 724.968,793.032C725.629,793.693 726,794.589 726,795.524C726,795.692 726,795.853 726,796.003C726,796.267 725.895,796.521 725.708,796.708C725.521,796.895 725.267,797 725.003,797C725.002,797 725.002,797 725.001,797Z" style="fill:rgb(51,51,51);"/>
            </g>
            <g transform="matrix(1.2488,0,0,8.34839,-884.155,-6597.94)">
                <path d="M721.003,790.69C721.003,790.622 720.554,790.568 720.001,790.568C719.449,790.568 719,790.622 719,790.69L719,792.878C719,792.945 719.449,793 720.001,793C720.554,793 721.003,792.945 721.003,792.878L721.003,790.69Z" style="fill:rgb(51,51,51);"/>
            </g>
        </g>
    </g>
</svg>
