<?xml version="1.0" encoding="UTF-8" standalone="no"?>
<!DOCTYPE svg PUBLIC "-//W3C//DTD SVG 1.1//EN" "http://www.w3.org/Graphics/SVG/1.1/DTD/svg11.dtd">
<svg width="24px" height="24px" version="1.1" xmlns="http://www.w3.org/2000/svg" xmlns:xlink="http://www.w3.org/1999/xlink" xml:space="preserve" xmlns:serif="http://www.serif.com/" style="fill-rule:evenodd;clip-rule:evenodd;stroke-linejoin:round;stroke-miterlimit:1.41421;">
    <g transform="matrix(1,0,0,1,-1971,-558)">
        <g id="ui.regular.moveBack" transform="matrix(0.800768,0,0,0.984948,1971,558)">
            <rect x="0" y="0" width="29.971" height="24.367" style="fill:none;"/>
            <g transform="matrix(3.7464,0,0,0.169214,-5439.78,-87.1451)">
                <path d="M1457,572C1457,571.204 1456.98,570.441 1456.95,569.879C1456.92,569.316 1456.88,569 1456.83,569C1456.65,569 1456.35,569 1456.17,569C1456.12,569 1456.08,569.316 1456.05,569.879C1456.02,570.441 1456,571.204 1456,572C1456,572 1456,572 1456,572C1456,572.796 1456.02,573.559 1456.05,574.121C1456.08,574.684 1456.12,575 1456.17,575C1456.35,575 1456.65,575 1456.83,575C1456.88,575 1456.92,574.684 1456.95,574.121C1456.98,573.559 1457,572.796 1457,572C1457,572 1457,572 1457,572Z"/>
            </g>
            <g transform="matrix(3.7464,0,0,0.169214,-5439.78,-85.1145)">
                <path d="M1457,572C1457,571.204 1456.98,570.441 1456.95,569.879C1456.92,569.316 1456.88,569 1456.83,569C1456.65,569 1456.35,569 1456.17,569C1456.12,569 1456.08,569.316 1456.05,569.879C1456.02,570.441 1456,571.204 1456,572C1456,572 1456,572 1456,572C1456,572.796 1456.02,573.559 1456.05,574.121C1456.08,574.684 1456.12,575 1456.17,575C1456.35,575 1456.65,575 1456.83,575C1456.88,575 1456.92,574.684 1456.95,574.121C1456.98,573.559 1457,572.796 1457,572C1457,572 1457,572 1457,572Z"/>
            </g>
            <g transform="matrix(1.2488,0,0,1.01528,-1978.1,-566.528)">
                <path d="M1606,579C1606,579.265 1605.89,579.52 1605.71,579.707C1605.52,579.895 1605.27,580 1605,580C1603.27,580 1599.73,580 1598,580C1597.74,580 1597.48,579.895 1597.29,579.707C1597.11,579.52 1597,579.265 1597,579C1597,577.268 1597,573.732 1597,572C1597,571.735 1597.11,571.48 1597.29,571.293C1597.48,571.105 1597.74,571 1598,571C1599.73,571 1603.27,571 1605,571C1605.27,571 1605.52,571.105 1605.71,571.293C1605.89,571.48 1606,571.735 1606,572C1606,573.732 1606,577.268 1606,579ZM1605,579L1605,572L1598,572L1598,579L1605,579Z"/>
            </g>
            <g transform="matrix(1.2488,0,0,1.01528,-1991.84,-577.696)">
                <path d="M1606,579C1606,579.265 1605.89,579.52 1605.71,579.707C1605.52,579.895 1605.27,580 1605,580C1603.27,580 1599.73,580 1598,580C1597.74,580 1597.48,579.895 1597.29,579.707C1597.11,579.52 1597,579.265 1597,579C1597,577.268 1597,573.732 1597,572C1597,571.735 1597.11,571.48 1597.29,571.293C1597.48,571.105 1597.74,571 1598,571C1599.73,571 1603.27,571 1605,571C1605.27,571 1605.52,571.105 1605.71,571.293C1605.89,571.48 1606,571.735 1606,572C1606,573.732 1606,577.268 1606,579ZM1605,579L1605,572L1598,572L1598,579L1605,579Z"/>
            </g>
            <g transform="matrix(1.2488,0,0,1.01528,-1978.1,-566.528)">
                <path d="M1590,571C1590,570.735 1590.11,570.48 1590.29,570.293C1590.48,570.105 1590.74,570 1591,570C1591.55,570 1592,570.448 1592,571C1592,572.185 1592,574 1592,574C1592,574 1593.82,574 1595,574C1595.55,574 1596,574.448 1596,575C1596,575.265 1595.89,575.52 1595.71,575.707C1595.52,575.895 1595.27,576 1595,576C1593.89,576 1592.11,576 1591,576C1590.74,576 1590.48,575.895 1590.29,575.707C1590.11,575.52 1590,575.265 1590,575C1590,573.89 1590,572.11 1590,571ZM1602,569C1602,569.265 1601.89,569.52 1601.71,569.707C1601.52,569.895 1601.27,570 1601,570C1600.45,570 1600,569.552 1600,569C1600,567.815 1600,566 1600,566C1600,566 1598.18,566 1597,566C1596.45,566 1596,565.552 1596,565C1596,564.735 1596.11,564.48 1596.29,564.293C1596.48,564.105 1596.74,564 1597,564C1598.11,564 1599.89,564 1601,564C1601.27,564 1601.52,564.105 1601.71,564.293C1601.89,564.48 1602,564.735 1602,565C1602,566.11 1602,567.89 1602,569Z"/>
            </g>
        </g>
    </g>
</svg>
