<?xml version="1.0" encoding="UTF-8" standalone="no"?>
<!DOCTYPE svg PUBLIC "-//W3C//DTD SVG 1.1//EN" "http://www.w3.org/Graphics/SVG/1.1/DTD/svg11.dtd">
<svg width="24px" height="24px" version="1.1" xmlns="http://www.w3.org/2000/svg" xmlns:xlink="http://www.w3.org/1999/xlink" xml:space="preserve" xmlns:serif="http://www.serif.com/" style="fill-rule:evenodd;clip-rule:evenodd;stroke-linejoin:round;stroke-miterlimit:1.41421;">
    <g transform="matrix(1,0,0,1,-2757,-558)">
        <g id="ui.regular.soundwave" transform="matrix(0.800768,0,0,0.984948,2757,558)">
            <rect x="0" y="0" width="29.971" height="24.367" style="fill:none;"/>
            <g transform="matrix(1.2488,0,0,1.01528,-2337.75,-566.528)">
                <path d="M1884,561C1884.27,561 1884.52,561.105 1884.71,561.293C1884.89,561.48 1885,561.735 1885,562C1885,565.151 1885,574.849 1885,578C1885,578.265 1884.89,578.52 1884.71,578.707C1884.52,578.895 1884.27,579 1884,579C1883.74,579 1883.48,578.895 1883.29,578.707C1883.11,578.52 1883,578.265 1883,578C1883,574.849 1883,565.151 1883,562C1883,561.735 1883.11,561.48 1883.29,561.293C1883.48,561.105 1883.74,561 1884,561C1884,561 1884,561 1884,561ZM1890,563C1890.55,563 1891,563.448 1891,564C1891,566.577 1891,573.423 1891,576C1891,576.552 1890.55,577 1890,577C1889.45,577 1889,576.552 1889,576C1889,573.423 1889,566.577 1889,564C1889,563.448 1889.45,563 1890,563C1890,563 1890,563 1890,563ZM1881,564C1881.27,564 1881.52,564.105 1881.71,564.293C1881.89,564.48 1882,564.735 1882,565C1882,567.26 1882,572.74 1882,575C1882,575.265 1881.89,575.52 1881.71,575.707C1881.52,575.895 1881.27,576 1881,576C1880.74,576 1880.48,575.895 1880.29,575.707C1880.11,575.52 1880,575.265 1880,575C1880,572.74 1880,567.26 1880,565C1880,564.735 1880.11,564.48 1880.29,564.293C1880.48,564.105 1880.74,564 1881,564C1881,564 1881,564 1881,564ZM1893,565C1893.55,565 1894,565.448 1894,566C1894,567.916 1894,572.084 1894,574C1894,574.552 1893.55,575 1893,575C1892.45,575 1892,574.552 1892,574C1892,572.084 1892,567.916 1892,566C1892,565.448 1892.45,565 1893,565C1893,565 1893,565 1893,565ZM1887,566C1887.55,566 1888,566.448 1888,567C1888,568.537 1888,571.463 1888,573C1888,573.552 1887.55,574 1887,574C1886.45,574 1886,573.552 1886,573C1886,571.463 1886,568.537 1886,567C1886,566.448 1886.45,566 1887,566C1887,566 1887,566 1887,566ZM1878,567C1878.27,567 1878.52,567.105 1878.71,567.293C1878.89,567.48 1879,567.735 1879,568C1879,569.11 1879,570.89 1879,572C1879,572.265 1878.89,572.52 1878.71,572.707C1878.52,572.895 1878.27,573 1878,573C1877.74,573 1877.48,572.895 1877.29,572.707C1877.11,572.52 1877,572.265 1877,572C1877,570.89 1877,569.11 1877,568C1877,567.735 1877.11,567.48 1877.29,567.293C1877.48,567.105 1877.74,567 1878,567C1878,567 1878,567 1878,567ZM1875,568C1875.55,568 1876,568.448 1876,569C1876,569.611 1876,570.389 1876,571C1876,571.552 1875.55,572 1875,572C1874.45,572 1874,571.552 1874,571C1874,570.389 1874,569.611 1874,569C1874,568.448 1874.45,568 1875,568C1875,568 1875,568 1875,568Z" style="fill:rgb(51,51,51);"/>
            </g>
        </g>
    </g>
</svg>
