<?xml version="1.0" encoding="UTF-8" standalone="no"?>
<!DOCTYPE svg PUBLIC "-//W3C//DTD SVG 1.1//EN" "http://www.w3.org/Graphics/SVG/1.1/DTD/svg11.dtd">
<svg width="25px" height="24px" version="1.1" xmlns="http://www.w3.org/2000/svg" xmlns:xlink="http://www.w3.org/1999/xlink" xml:space="preserve" xmlns:serif="http://www.serif.com/" style="fill-rule:evenodd;clip-rule:evenodd;stroke-linejoin:round;stroke-miterlimit:1.41421;">
    <g transform="matrix(1,0,0,1,-1538,-558)">
        <g id="ui.regular.shrink" transform="matrix(0.800768,0,0,0.984948,1538.98,558)">
            <rect x="0" y="0" width="29.971" height="24.367" style="fill:none;"/>
            <g transform="matrix(1.2488,0,0,1.01528,-3115.76,-566.528)">
                <path d="M2514,572C2514,572.265 2513.89,572.52 2513.71,572.707C2513.52,572.895 2513.26,573 2513,573C2512.27,573 2511.41,573 2511.41,573C2511.41,573 2513.56,575.144 2514.71,576.293C2514.89,576.48 2515,576.735 2515,577C2515,577.265 2514.89,577.52 2514.71,577.707C2514.52,577.895 2514.26,578 2514,578C2513.74,578 2513.48,577.895 2513.29,577.707C2512.14,576.558 2510,574.414 2510,574.414C2510,574.414 2510,575.272 2510,576C2510,576.265 2509.89,576.52 2509.71,576.707C2509.52,576.895 2509.26,577 2509,577C2508.74,577 2508.48,576.895 2508.29,576.707C2508.11,576.52 2508,576.265 2508,576C2508,574.89 2508,573.11 2508,572C2508,571.735 2508.11,571.48 2508.29,571.293C2508.48,571.105 2508.74,571 2509,571C2510.11,571 2511.89,571 2513,571C2513.26,571 2513.52,571.105 2513.71,571.293C2513.89,571.48 2514,571.735 2514,572C2514,572 2514,572 2514,572ZM2506,568C2506,568.265 2505.89,568.52 2505.71,568.707C2505.52,568.895 2505.26,569 2505,569C2503.89,569 2502.11,569 2501,569C2500.74,569 2500.48,568.895 2500.29,568.707C2500.11,568.52 2500,568.265 2500,568C2500,567.735 2500.11,567.48 2500.29,567.293C2500.48,567.105 2500.74,567 2501,567C2501.73,567 2502.59,567 2502.59,567C2502.59,567 2500.44,564.856 2499.29,563.707C2499.11,563.52 2499,563.265 2499,563C2499,562.735 2499.11,562.48 2499.29,562.293C2499.48,562.105 2499.74,562 2500,562C2500.26,562 2500.52,562.105 2500.71,562.293C2501.86,563.442 2504,565.586 2504,565.586C2504,565.586 2504,564.728 2504,564C2504,563.735 2504.11,563.48 2504.29,563.293C2504.48,563.105 2504.74,563 2505,563C2505.26,563 2505.52,563.105 2505.71,563.293C2505.89,563.48 2506,563.735 2506,564C2506,565.11 2506,566.89 2506,568Z" style="fill:rgb(51,51,51);"/>
            </g>
        </g>
    </g>
</svg>
