<?xml version="1.0" encoding="UTF-8" standalone="no"?>
<!DOCTYPE svg PUBLIC "-//W3C//DTD SVG 1.1//EN" "http://www.w3.org/Graphics/SVG/1.1/DTD/svg11.dtd">
<svg width="24px" height="24px" version="1.1" xmlns="http://www.w3.org/2000/svg" xmlns:xlink="http://www.w3.org/1999/xlink" xml:space="preserve" xmlns:serif="http://www.serif.com/" style="fill-rule:evenodd;clip-rule:evenodd;stroke-linejoin:round;stroke-miterlimit:1.41421;">
    <g transform="matrix(1,0,0,1,-2325,-558)">
        <g id="ui.regular.forwardOne" transform="matrix(0.800768,0,0,0.984948,2325,558)">
            <rect x="0" y="0" width="29.971" height="24.367" style="fill:none;"/>
            <g transform="matrix(1.2488,0,0,1.01528,-2903.46,-566.528)">
                <path d="M2345,577C2345,577.265 2344.89,577.52 2344.71,577.707C2344.52,577.895 2344.26,578 2344,578C2341.74,578 2336.26,578 2334,578C2333.74,578 2333.48,577.895 2333.29,577.707C2333.11,577.52 2333,577.265 2333,577C2333,574.74 2333,569.26 2333,567C2333,566.735 2333.11,566.48 2333.29,566.293C2333.48,566.105 2333.74,566 2334,566C2336.26,566 2341.74,566 2344,566C2344.26,566 2344.52,566.105 2344.71,566.293C2344.89,566.48 2345,566.735 2345,567C2345,569.26 2345,574.74 2345,577ZM2335,568L2335,576L2343,576L2343,568L2335,568ZM2336,571.5C2336,571.367 2336.05,571.24 2336.15,571.146C2336.24,571.053 2336.37,571 2336.5,571C2337.63,571 2340.37,571 2341.5,571C2341.63,571 2341.76,571.053 2341.85,571.146C2341.95,571.24 2342,571.367 2342,571.5C2342,571.633 2341.95,571.76 2341.85,571.854C2341.76,571.947 2341.63,572 2341.5,572C2340.37,572 2337.63,572 2336.5,572C2336.37,572 2336.24,571.947 2336.15,571.854C2336.05,571.76 2336,571.633 2336,571.5C2336,571.5 2336,571.5 2336,571.5ZM2338,564.5C2338,564.776 2337.78,565 2337.5,565C2337.5,565 2337.5,565 2337.5,565C2337.22,565 2337,564.776 2337,564.5C2337,563.908 2337,563 2337,563L2330,563L2330,570C2330,570 2330.91,570 2331.5,570C2331.78,570 2332,570.224 2332,570.5C2332,570.633 2331.95,570.76 2331.85,570.854C2331.76,570.947 2331.63,571 2331.5,571C2331.09,571 2330.5,571 2330,571C2329.45,571 2329,570.552 2329,570C2329,568.268 2329,564.732 2329,563C2329,562.735 2329.11,562.48 2329.29,562.293C2329.48,562.105 2329.74,562 2330,562C2331.73,562 2335.27,562 2337,562C2337.55,562 2338,562.448 2338,563C2338,563.504 2338,564.092 2338,564.5ZM2336,569.5C2336,569.367 2336.05,569.24 2336.15,569.146C2336.24,569.053 2336.37,569 2336.5,569C2337.63,569 2340.37,569 2341.5,569C2341.63,569 2341.76,569.053 2341.85,569.146C2341.95,569.24 2342,569.367 2342,569.5C2342,569.633 2341.95,569.76 2341.85,569.854C2341.76,569.947 2341.63,570 2341.5,570C2340.37,570 2337.63,570 2336.5,570C2336.37,570 2336.24,569.947 2336.15,569.854C2336.05,569.76 2336,569.633 2336,569.5C2336,569.5 2336,569.5 2336,569.5Z"/>
            </g>
        </g>
    </g>
</svg>
