<?xml version="1.0" encoding="UTF-8" standalone="no"?>
<!DOCTYPE svg PUBLIC "-//W3C//DTD SVG 1.1//EN" "http://www.w3.org/Graphics/SVG/1.1/DTD/svg11.dtd">
<svg width="24px" height="24px" version="1.1" xmlns="http://www.w3.org/2000/svg" xmlns:xlink="http://www.w3.org/1999/xlink" xml:space="preserve" xmlns:serif="http://www.serif.com/" style="fill-rule:evenodd;clip-rule:evenodd;stroke-linejoin:round;stroke-miterlimit:1.41421;">
    <g transform="matrix(1,0,0,1,-579,-558)">
        <g id="ui.regular.external" transform="matrix(0.800768,0,0,0.984948,579,558)">
            <rect x="0" y="0" width="29.971" height="24.367" style="fill:none;"/>
            <g transform="matrix(1.2488,0,0,1.01528,-1916.91,-566.528)">
                <path d="M1543,563C1543,563.552 1542.55,564 1542,564C1541.5,564 1541,564 1541,564L1541,576L1553,576C1553,576 1553,575.5 1553,575C1553,574.448 1553.45,574 1554,574C1554.55,574 1555,574.448 1555,575C1555,575.611 1555,576.389 1555,577C1555,577.552 1554.55,578 1554,578C1551.13,578 1542.87,578 1540,578C1539.45,578 1539,577.552 1539,577C1539,574.127 1539,565.873 1539,563C1539,562.735 1539.11,562.48 1539.29,562.293C1539.48,562.105 1539.74,562 1540,562C1540.61,562 1541.39,562 1542,562C1542.27,562 1542.52,562.105 1542.71,562.293C1542.89,562.48 1543,562.735 1543,563C1543,563 1543,563 1543,563ZM1545,563C1545,562.448 1545.45,562 1546,562C1547.92,562 1552.08,562 1554,562C1554.55,562 1555,562.448 1555,563C1555,564.916 1555,569.084 1555,571C1555,571.552 1554.55,572 1554,572C1553.45,572 1553,571.552 1553,571C1553,569.157 1553,565.41 1553,565.41C1553,565.41 1548.08,570.319 1546.21,572.183C1545.82,572.573 1545.19,572.572 1544.8,572.181C1544.41,571.79 1544.41,571.157 1544.8,570.767C1546.66,568.904 1551.58,564 1551.58,564C1551.58,564 1547.84,564 1546,564C1545.45,564 1545,563.552 1545,563C1545,563 1545,563 1545,563Z" style="fill:rgb(51,51,51);"/>
            </g>
        </g>
    </g>
</svg>
