<?xml version="1.0" encoding="UTF-8" standalone="no"?>
<!DOCTYPE svg PUBLIC "-//W3C//DTD SVG 1.1//EN" "http://www.w3.org/Graphics/SVG/1.1/DTD/svg11.dtd">
<svg width="24px" height="24px" version="1.1" xmlns="http://www.w3.org/2000/svg" xmlns:xlink="http://www.w3.org/1999/xlink" xml:space="preserve" xmlns:serif="http://www.serif.com/" style="fill-rule:evenodd;clip-rule:evenodd;stroke-linejoin:round;stroke-miterlimit:1.41421;">
    <g transform="matrix(1,0,0,1,-144,-558)">
        <g id="ui.regular.hamburger" transform="matrix(0.800768,0,0,0.984948,144,558)">
            <rect x="0" y="0" width="29.971" height="24.367" style="fill:none;"/>
            <g transform="matrix(1.2488,0,0,1.01528,-1856.97,-566.528)">
                <path d="M1508,575C1508.27,575 1508.52,575.105 1508.71,575.293C1508.89,575.48 1509,575.735 1509,576C1509,576.265 1508.89,576.52 1508.71,576.707C1508.52,576.895 1508.27,577 1508,577C1504.59,577 1493.41,577 1490,577C1489.74,577 1489.48,576.895 1489.29,576.707C1489.11,576.52 1489,576.265 1489,576C1489,575.735 1489.11,575.48 1489.29,575.293C1489.48,575.105 1489.74,575 1490,575C1493.41,575 1504.59,575 1508,575ZM1508,569C1508.27,569 1508.52,569.105 1508.71,569.293C1508.89,569.48 1509,569.735 1509,570C1509,570.265 1508.89,570.52 1508.71,570.707C1508.52,570.895 1508.27,571 1508,571C1504.59,571 1493.41,571 1490,571C1489.74,571 1489.48,570.895 1489.29,570.707C1489.11,570.52 1489,570.265 1489,570C1489,569.735 1489.11,569.48 1489.29,569.293C1489.48,569.105 1489.74,569 1490,569C1493.41,569 1504.59,569 1508,569ZM1508,563C1508.27,563 1508.52,563.105 1508.71,563.293C1508.89,563.48 1509,563.735 1509,564C1509,564.265 1508.89,564.52 1508.71,564.707C1508.52,564.895 1508.27,565 1508,565C1504.59,565 1493.41,565 1490,565C1489.74,565 1489.48,564.895 1489.29,564.707C1489.11,564.52 1489,564.265 1489,564C1489,563.735 1489.11,563.48 1489.29,563.293C1489.48,563.105 1489.74,563 1490,563C1493.41,563 1504.59,563 1508,563Z" style="fill:rgb(51,51,51);"/>
            </g>
        </g>
    </g>
</svg>
