<?xml version="1.0" encoding="UTF-8" standalone="no"?>
<!DOCTYPE svg PUBLIC "-//W3C//DTD SVG 1.1//EN" "http://www.w3.org/Graphics/SVG/1.1/DTD/svg11.dtd">
<svg width="25px" height="24px" version="1.1" xmlns="http://www.w3.org/2000/svg" xmlns:xlink="http://www.w3.org/1999/xlink" xml:space="preserve" xmlns:serif="http://www.serif.com/" style="fill-rule:evenodd;clip-rule:evenodd;stroke-linejoin:round;stroke-miterlimit:1.41421;">
    <g transform="matrix(1,0,0,1,-1730,-558)">
        <g id="ui.regular.move" transform="matrix(0.800768,0,0,0.984948,1730.98,558)">
            <rect x="0" y="0" width="29.971" height="24.367" style="fill:none;"/>
            <g transform="matrix(1.2488,0,0,1.01528,-3355.53,-566.528)">
                <path d="M2698,563.414C2698,563.414 2697.28,564.132 2696.71,564.707C2696.32,565.098 2695.68,565.098 2695.29,564.707C2695.11,564.52 2695,564.265 2695,564C2695,563.735 2695.11,563.48 2695.29,563.293C2696.12,562.469 2697.47,561.117 2698.29,560.293C2698.48,560.105 2698.74,560 2699,560C2699.26,560 2699.52,560.105 2699.71,560.293C2700.53,561.117 2701.88,562.469 2702.71,563.293C2702.89,563.48 2703,563.735 2703,564C2703,564.265 2702.89,564.52 2702.71,564.707C2702.52,564.895 2702.26,565 2702,565C2701.74,565 2701.48,564.895 2701.29,564.707C2700.72,564.132 2700,563.414 2700,563.414L2700,569L2705.59,569C2705.59,569 2704.87,568.283 2704.29,567.707C2703.9,567.317 2703.9,566.683 2704.29,566.293C2704.48,566.105 2704.74,566 2705,566C2705.26,566 2705.52,566.105 2705.71,566.293C2706.53,567.117 2707.88,568.469 2708.71,569.293C2708.89,569.48 2709,569.735 2709,570C2709,570.265 2708.89,570.52 2708.71,570.707C2707.88,571.531 2706.53,572.883 2705.71,573.707C2705.52,573.895 2705.26,574 2705,574C2704.74,574 2704.48,573.895 2704.29,573.707C2703.9,573.317 2703.9,572.683 2704.29,572.293C2704.87,571.717 2705.59,571 2705.59,571L2700,571L2700,576.586C2700,576.586 2700.72,575.868 2701.29,575.293C2701.48,575.105 2701.74,575 2702,575C2702.26,575 2702.52,575.105 2702.71,575.293C2702.89,575.48 2703,575.735 2703,576C2703,576.265 2702.89,576.52 2702.71,576.707C2701.88,577.531 2700.53,578.883 2699.71,579.707C2699.52,579.895 2699.26,580 2699,580C2698.74,580 2698.48,579.895 2698.29,579.707C2697.47,578.883 2696.12,577.531 2695.29,576.707C2695.11,576.52 2695,576.265 2695,576C2695,575.735 2695.11,575.48 2695.29,575.293C2695.68,574.902 2696.32,574.902 2696.71,575.293C2697.28,575.868 2698,576.586 2698,576.586L2698,571L2692.41,571C2692.41,571 2693.13,571.717 2693.71,572.293C2694.1,572.683 2694.1,573.317 2693.71,573.707C2693.52,573.895 2693.26,574 2693,574C2692.74,574 2692.48,573.895 2692.29,573.707C2691.47,572.883 2690.12,571.531 2689.29,570.707C2689.11,570.52 2689,570.265 2689,570C2689,569.735 2689.11,569.48 2689.29,569.293C2690.12,568.469 2691.47,567.117 2692.29,566.293C2692.48,566.105 2692.74,566 2693,566C2693.26,566 2693.52,566.105 2693.71,566.293C2694.1,566.683 2694.1,567.317 2693.71,567.707C2693.13,568.283 2692.41,569 2692.41,569L2698,569L2698,563.414Z" style="fill:rgb(51,51,51);"/>
            </g>
        </g>
    </g>
</svg>
