<?xml version="1.0" encoding="UTF-8" standalone="no"?>
<!DOCTYPE svg PUBLIC "-//W3C//DTD SVG 1.1//EN" "http://www.w3.org/Graphics/SVG/1.1/DTD/svg11.dtd">
<svg width="24px" height="24px" version="1.1" xmlns="http://www.w3.org/2000/svg" xmlns:xlink="http://www.w3.org/1999/xlink" xml:space="preserve" xmlns:serif="http://www.serif.com/" style="fill-rule:evenodd;clip-rule:evenodd;stroke-linejoin:round;stroke-miterlimit:1.41421;">
    <g transform="matrix(1,0,0,1,-2015,-558)">
        <g id="ui.regular.alignRight" transform="matrix(0.800768,0,0,0.984948,2015,558)">
            <rect x="0" y="0" width="29.971" height="24.367" style="fill:none;"/>
            <g transform="matrix(-1.2488,0,-0,1.01528,2366.48,-566.528)">
                <path d="M1875,576C1875,575.448 1875.45,575 1876,575C1877.92,575 1882.08,575 1884,575C1884.55,575 1885,575.448 1885,576C1885,576.552 1884.55,577 1884,577C1882.08,577 1877.92,577 1876,577C1875.45,577 1875,576.552 1875,576C1875,576 1875,576 1875,576ZM1875,572C1875,571.735 1875.11,571.48 1875.29,571.293C1875.48,571.105 1875.74,571 1876,571C1878.26,571 1883.74,571 1886,571C1886.27,571 1886.52,571.105 1886.71,571.293C1886.89,571.48 1887,571.735 1887,572C1887,572.265 1886.89,572.52 1886.71,572.707C1886.52,572.895 1886.27,573 1886,573C1883.74,573 1878.26,573 1876,573C1875.74,573 1875.48,572.895 1875.29,572.707C1875.11,572.52 1875,572.265 1875,572C1875,572 1875,572 1875,572ZM1875,568C1875,567.448 1875.45,567 1876,567C1878.58,567 1885.42,567 1888,567C1888.27,567 1888.52,567.105 1888.71,567.293C1888.89,567.48 1889,567.735 1889,568C1889,568.552 1888.55,569 1888,569C1885.42,569 1878.58,569 1876,569C1875.74,569 1875.48,568.895 1875.29,568.707C1875.11,568.52 1875,568.265 1875,568C1875,568 1875,568 1875,568ZM1875,564C1875,563.448 1875.45,563 1876,563C1878.87,563 1887.13,563 1890,563C1890.27,563 1890.52,563.105 1890.71,563.293C1890.89,563.48 1891,563.735 1891,564C1891,564.552 1890.55,565 1890,565C1887.13,565 1878.87,565 1876,565C1875.74,565 1875.48,564.895 1875.29,564.707C1875.11,564.52 1875,564.265 1875,564C1875,564 1875,564 1875,564Z" style="fill:rgb(51,51,51);"/>
            </g>
        </g>
    </g>
</svg>
