<?xml version="1.0" encoding="UTF-8" standalone="no"?>
<!DOCTYPE svg PUBLIC "-//W3C//DTD SVG 1.1//EN" "http://www.w3.org/Graphics/SVG/1.1/DTD/svg11.dtd">
<svg width="24px" height="24px" version="1.1" xmlns="http://www.w3.org/2000/svg" xmlns:xlink="http://www.w3.org/1999/xlink" xml:space="preserve" xmlns:serif="http://www.serif.com/" style="fill-rule:evenodd;clip-rule:evenodd;stroke-linejoin:round;stroke-miterlimit:1.41421;">
    <g transform="matrix(1,0,0,1,-1919,-558)">
        <g id="ui.regular.alignCenter" transform="matrix(0.800768,0,0,0.984948,1919,558)">
            <rect x="0" y="0" width="29.971" height="24.367" style="fill:none;"/>
            <g transform="matrix(1.2488,0,0,1.01528,-2336.51,-566.528)">
                <path d="M1878,576C1878,575.448 1878.45,575 1879,575C1880.92,575 1885.08,575 1887,575C1887.55,575 1888,575.448 1888,576C1888,576.552 1887.55,577 1887,577C1885.08,577 1880.92,577 1879,577C1878.45,577 1878,576.552 1878,576C1878,576 1878,576 1878,576ZM1877,572C1877,571.735 1877.11,571.48 1877.29,571.293C1877.48,571.105 1877.74,571 1878,571C1880.26,571 1885.74,571 1888,571C1888.27,571 1888.52,571.105 1888.71,571.293C1888.89,571.48 1889,571.735 1889,572C1889,572.265 1888.89,572.52 1888.71,572.707C1888.52,572.895 1888.27,573 1888,573C1885.74,573 1880.26,573 1878,573C1877.74,573 1877.48,572.895 1877.29,572.707C1877.11,572.52 1877,572.265 1877,572C1877,572 1877,572 1877,572ZM1876,568C1876,567.448 1876.45,567 1877,567C1879.58,567 1886.42,567 1889,567C1889.27,567 1889.52,567.105 1889.71,567.293C1889.89,567.48 1890,567.735 1890,568C1890,568.552 1889.55,569 1889,569C1886.42,569 1879.58,569 1877,569C1876.74,569 1876.48,568.895 1876.29,568.707C1876.11,568.52 1876,568.265 1876,568C1876,568 1876,568 1876,568ZM1875,564C1875,563.448 1875.45,563 1876,563C1878.87,563 1887.13,563 1890,563C1890.27,563 1890.52,563.105 1890.71,563.293C1890.89,563.48 1891,563.735 1891,564C1891,564.552 1890.55,565 1890,565C1887.13,565 1878.87,565 1876,565C1875.74,565 1875.48,564.895 1875.29,564.707C1875.11,564.52 1875,564.265 1875,564C1875,564 1875,564 1875,564Z" style="fill:rgb(51,51,51);"/>
            </g>
        </g>
    </g>
</svg>
