<?xml version="1.0" encoding="UTF-8" standalone="no"?><!DOCTYPE svg PUBLIC "-//W3C//DTD SVG 1.1//EN" "http://www.w3.org/Graphics/SVG/1.1/DTD/svg11.dtd"><svg width="100%" height="100%" viewBox="0 0 24 24" version="1.1" xmlns="http://www.w3.org/2000/svg" xmlns:xlink="http://www.w3.org/1999/xlink" xml:space="preserve" xmlns:serif="http://www.serif.com/" style="fill-rule:evenodd;clip-rule:evenodd;stroke-linejoin:round;stroke-miterlimit:1.41421;"><rect id="ui.regular.alignLeft" x="0" y="0" width="24" height="24" style="fill:none;"/><path d="M4,18c0,-0.552 0.448,-1 1,-1c1.916,0 6.084,0 8,0c0.552,0 1,0.448 1,1c0,0.552 -0.448,1 -1,1c-1.916,0 -6.084,0 -8,0c-0.552,0 -1,-0.448 -1,-1c0,0 0,0 0,0Zm0,-4c0,-0.265 0.105,-0.52 0.293,-0.707c0.187,-0.188 0.442,-0.293 0.707,-0.293c2.26,0 7.74,0 10,0c0.265,0 0.52,0.105 0.707,0.293c0.188,0.187 0.293,0.442 0.293,0.707c0,0.265 -0.105,0.52 -0.293,0.707c-0.187,0.188 -0.442,0.293 -0.707,0.293c-2.26,0 -7.74,0 -10,0c-0.265,0 -0.52,-0.105 -0.707,-0.293c-0.188,-0.187 -0.293,-0.442 -0.293,-0.707c0,0 0,0 0,0Zm0,-4c0,-0.552 0.448,-1 1,-1c2.577,0 9.423,0 12,0c0.265,0 0.52,0.105 0.707,0.293c0.188,0.187 0.293,0.442 0.293,0.707c0,0.552 -0.448,1 -1,1c-2.577,0 -9.423,0 -12,0c-0.265,0 -0.52,-0.105 -0.707,-0.293c-0.188,-0.187 -0.293,-0.442 -0.293,-0.707c0,0 0,0 0,0Zm0,-4c0,-0.552 0.448,-1 1,-1c2.873,0 11.127,0 14,0c0.265,0 0.52,0.105 0.707,0.293c0.188,0.187 0.293,0.442 0.293,0.707c0,0.552 -0.448,1 -1,1c-2.873,0 -11.127,0 -14,0c-0.265,0 -0.52,-0.105 -0.707,-0.293c-0.188,-0.187 -0.293,-0.442 -0.293,-0.707c0,0 0,0 0,0Z" style="fill:#333;"/></svg>