<?xml version="1.0" encoding="UTF-8" standalone="no"?>
<!DOCTYPE svg PUBLIC "-//W3C//DTD SVG 1.1//EN" "http://www.w3.org/Graphics/SVG/1.1/DTD/svg11.dtd">
<svg width="25px" height="24px" version="1.1" xmlns="http://www.w3.org/2000/svg" xmlns:xlink="http://www.w3.org/1999/xlink" xml:space="preserve" xmlns:serif="http://www.serif.com/" style="fill-rule:evenodd;clip-rule:evenodd;stroke-linejoin:round;stroke-miterlimit:1.41421;">
    <g transform="matrix(1,0,0,1,-1682,-558)">
        <g id="ui.regular.code" transform="matrix(0.800768,0,0,0.984948,1682.98,558)">
            <rect x="0" y="0" width="29.971" height="24.367" style="fill:none;"/>
            <g transform="matrix(1.2488,0,0,1.01528,-3295.59,-566.528)">
                <path d="M2648.71,565.293C2648.89,565.48 2649,565.735 2649,566C2649,566.265 2648.89,566.52 2648.71,566.707C2647.56,567.856 2645.41,570 2645.41,570C2645.41,570 2647.56,572.144 2648.71,573.293C2648.89,573.48 2649,573.735 2649,574C2649,574.265 2648.89,574.52 2648.71,574.707C2648.52,574.895 2648.26,575 2648,575C2647.74,575 2647.48,574.895 2647.29,574.707C2646.26,573.669 2644.33,571.745 2643.29,570.707C2643.11,570.52 2643,570.265 2643,570C2643,569.735 2643.11,569.48 2643.29,569.293C2644.33,568.255 2646.26,566.331 2647.29,565.293C2647.48,565.105 2647.74,565 2648,565C2648.26,565 2648.52,565.105 2648.71,565.293C2648.71,565.293 2648.71,565.293 2648.71,565.293ZM2658.71,569.293C2658.89,569.48 2659,569.735 2659,570C2659,570.265 2658.89,570.52 2658.71,570.707C2657.67,571.745 2655.74,573.669 2654.71,574.707C2654.52,574.895 2654.26,575 2654,575C2653.74,575 2653.48,574.895 2653.29,574.707C2653.11,574.52 2653,574.265 2653,574C2653,573.735 2653.11,573.48 2653.29,573.293C2654.44,572.144 2656.59,570 2656.59,570C2656.59,570 2654.44,567.856 2653.29,566.707C2653.11,566.52 2653,566.265 2653,566C2653,565.735 2653.11,565.48 2653.29,565.293C2653.48,565.105 2653.74,565 2654,565C2654.26,565 2654.52,565.105 2654.71,565.293C2655.74,566.331 2657.67,568.255 2658.71,569.293Z" style="fill:rgb(51,51,51);"/>
            </g>
        </g>
    </g>
</svg>
