<?xml version="1.0" encoding="UTF-8" standalone="no"?>
<!DOCTYPE svg PUBLIC "-//W3C//DTD SVG 1.1//EN" "http://www.w3.org/Graphics/SVG/1.1/DTD/svg11.dtd">
<svg width="24px" height="24px" version="1.1" xmlns="http://www.w3.org/2000/svg" xmlns:xlink="http://www.w3.org/1999/xlink" xml:space="preserve" xmlns:serif="http://www.serif.com/" style="fill-rule:evenodd;clip-rule:evenodd;stroke-linejoin:round;stroke-miterlimit:1.41421;">
    <g transform="matrix(1,0,0,1,-2565,-558)">
        <g id="ui.regular.history" transform="matrix(0.800768,0,0,0.984948,2565,558)">
            <rect x="0" y="0" width="29.971" height="24.367" style="fill:none;"/>
            <g transform="matrix(1.2488,0,0,1.01528,-2097.99,-566.528)">
                <path d="M1698.71,564C1700.13,565.593 1701,567.696 1701,570C1701,574.967 1696.97,579 1692,579C1687.03,579 1683,574.967 1683,570C1683,565.033 1687.03,561 1692,561C1692,561 1692,561 1692,561C1692.55,561 1693,561.448 1693,562C1693,562.552 1692.55,563 1692,563C1692,563 1692,563 1692,563C1688.14,563 1685,566.137 1685,570C1685,573.863 1688.14,577 1692,577C1695.86,577 1699,573.863 1699,570C1699,568.094 1698.24,566.366 1697,565.103C1697,565.103 1697,566.162 1697,567C1697,567.265 1696.89,567.52 1696.71,567.707C1696.52,567.895 1696.27,568 1696,568C1695.74,568 1695.48,567.895 1695.29,567.707C1695.11,567.52 1695,567.265 1695,567C1695,565.89 1695,564.11 1695,563C1695,562.735 1695.11,562.48 1695.29,562.293C1695.48,562.105 1695.74,562 1696,562C1697.11,562 1698.89,562 1700,562C1700.27,562 1700.52,562.105 1700.71,562.293C1700.89,562.48 1701,562.735 1701,563C1701,563.265 1700.89,563.52 1700.71,563.707C1700.52,563.895 1700.27,564 1700,564C1699.38,564 1698.71,564 1698.71,564ZM1692,570.293C1692,570.293 1692,565.989 1692,564.5C1692,564.367 1692.05,564.24 1692.15,564.146C1692.24,564.053 1692.37,564 1692.5,564C1692.63,564 1692.76,564.053 1692.85,564.146C1692.95,564.24 1693,564.367 1693,564.5C1693,565.773 1693,569.119 1693,570.293C1693,570.558 1692.89,570.812 1692.71,571C1692.25,571.462 1691.35,572.358 1690.85,572.854C1690.76,572.948 1690.63,573 1690.5,573C1690.37,573 1690.24,572.948 1690.15,572.854C1690.15,572.854 1690.15,572.853 1690.15,572.853C1689.95,572.658 1689.95,572.342 1690.15,572.147C1690.77,571.524 1692,570.293 1692,570.293Z" style="fill:rgb(51,51,51);"/>
                <path d="M1692.05,561.001L1692.1,561.005L1692.15,561.012L1692.2,561.02L1692.25,561.031L1692.3,561.045L1692.34,561.061L1692.39,561.079L1692.43,561.099L1692.48,561.121L1692.52,561.145L1692.56,561.171L1692.6,561.199L1692.64,561.228L1692.67,561.26L1692.71,561.293L1692.74,561.328L1692.77,561.364L1692.8,561.402L1692.83,561.441L1692.86,561.481L1692.88,561.523L1692.9,561.566L1692.92,561.611L1692.94,561.656L1692.95,561.703L1692.97,561.75L1692.98,561.798L1692.99,561.848L1693,561.898L1693,561.949L1693,562C1693,562 1693,562.051 1693,562.051L1693,562.102L1692.99,562.152L1692.98,562.202L1692.97,562.25L1692.95,562.297L1692.94,562.344L1692.92,562.389L1692.9,562.434L1692.88,562.477L1692.86,562.519L1692.83,562.559L1692.8,562.598L1692.77,562.636L1692.74,562.672L1692.71,562.707L1692.67,562.74L1692.64,562.772L1692.6,562.801L1692.56,562.829L1692.52,562.855L1692.48,562.879L1692.43,562.901L1692.39,562.921L1692.34,562.939L1692.3,562.955L1692.25,562.969L1692.2,562.98L1692.15,562.988L1692.1,562.995L1692.05,562.999L1692,563L1692,563L1691.91,563.001L1691.82,563.002L1691.73,563.005L1691.64,563.009L1691.55,563.014L1691.46,563.02L1691.37,563.028L1691.29,563.036L1691.2,563.046L1691.11,563.056L1691.02,563.068L1690.93,563.081L1690.85,563.095L1690.76,563.109L1690.68,563.125L1690.59,563.142L1690.51,563.16L1690.42,563.179L1690.34,563.199L1690.25,563.221L1690.17,563.243L1690.09,563.266L1690,563.29L1689.92,563.315L1689.84,563.341L1689.76,563.368L1689.67,563.396L1689.59,563.425L1689.51,563.455L1689.43,563.486L1689.36,563.518L1689.28,563.55L1689.2,563.584L1689.12,563.619L1689.04,563.654L1688.97,563.691L1688.89,563.728L1688.81,563.766L1688.74,563.805L1688.66,563.845L1688.59,563.886L1688.52,563.928L1688.44,563.971L1688.37,564.014L1688.3,564.058L1688.23,564.103L1688.16,564.149L1688.09,564.196L1688.02,564.244L1687.95,564.292L1687.88,564.341L1687.81,564.391L1687.75,564.442L1687.68,564.494L1687.61,564.546L1687.55,564.599L1687.48,564.653L1687.42,564.708L1687.36,564.763L1687.29,564.819L1687.23,564.876L1687.17,564.934L1687.11,564.992L1687.05,565.051L1686.99,565.111L1686.93,565.171L1686.88,565.233L1686.82,565.294L1686.76,565.357L1686.71,565.42L1686.65,565.484L1686.6,565.548L1686.55,565.614L1686.49,565.679L1686.44,565.746L1686.39,565.813L1686.34,565.881L1686.29,565.949L1686.24,566.018L1686.2,566.087L1686.15,566.157L1686.1,566.228L1686.06,566.3L1686.01,566.371L1685.97,566.444L1685.93,566.517L1685.89,566.59L1685.85,566.665L1685.81,566.739L1685.77,566.814L1685.73,566.89L1685.69,566.966L1685.65,567.043L1685.62,567.12L1685.58,567.198L1685.55,567.276L1685.52,567.355L1685.49,567.434L1685.45,567.514L1685.42,567.594L1685.4,567.675L1685.37,567.756L1685.34,567.837L1685.32,567.919L1685.29,568.002L1685.27,568.085L1685.24,568.168L1685.22,568.251L1685.2,568.336L1685.18,568.42L1685.16,568.505L1685.14,568.59L1685.12,568.676L1685.11,568.762L1685.1,568.848L1685.08,568.935L1685.07,569.022L1685.06,569.109L1685.05,569.197L1685.04,569.285L1685.03,569.373L1685.02,569.462L1685.01,569.551L1685.01,569.64L1685.01,569.73L1685,569.819L1685,569.91L1685,570L1685,570.09L1685,570.181L1685.01,570.27L1685.01,570.36L1685.01,570.449L1685.02,570.538L1685.03,570.627L1685.04,570.715L1685.05,570.803L1685.06,570.891L1685.07,570.978L1685.08,571.065L1685.1,571.152L1685.11,571.238L1685.12,571.324L1685.14,571.41L1685.16,571.495L1685.18,571.58L1685.2,571.664L1685.22,571.749L1685.24,571.832L1685.27,571.915L1685.29,571.998L1685.32,572.081L1685.34,572.163L1685.37,572.244L1685.4,572.325L1685.42,572.406L1685.45,572.486L1685.49,572.566L1685.52,572.645L1685.55,572.724L1685.58,572.802L1685.62,572.88L1685.65,572.957L1685.69,573.034L1685.73,573.11L1685.77,573.186L1685.81,573.261L1685.85,573.335L1685.89,573.41L1685.93,573.483L1685.97,573.556L1686.01,573.629L1686.06,573.7L1686.1,573.772L1686.15,573.843L1686.2,573.913L1686.24,573.982L1686.29,574.051L1686.34,574.119L1686.39,574.187L1686.44,574.254L1686.49,574.321L1686.55,574.386L1686.6,574.452L1686.65,574.516L1686.71,574.58L1686.76,574.643L1686.82,574.706L1686.88,574.767L1686.93,574.829L1686.99,574.889L1687.05,574.949L1687.11,575.008L1687.17,575.066L1687.23,575.124L1687.29,575.181L1687.36,575.237L1687.42,575.292L1687.48,575.347L1687.55,575.401L1687.61,575.454L1687.68,575.506L1687.75,575.558L1687.81,575.609L1687.88,575.659L1687.95,575.708L1688.02,575.756L1688.09,575.804L1688.16,575.851L1688.23,575.897L1688.3,575.942L1688.37,575.986L1688.44,576.029L1688.52,576.072L1688.59,576.114L1688.66,576.155L1688.74,576.195L1688.81,576.234L1688.89,576.272L1688.97,576.309L1689.04,576.346L1689.12,576.381L1689.2,576.416L1689.28,576.45L1689.36,576.482L1689.43,576.514L1689.51,576.545L1689.59,576.575L1689.67,576.604L1689.76,576.632L1689.84,576.659L1689.92,576.685L1690,576.71L1690.09,576.734L1690.17,576.757L1690.25,576.779L1690.34,576.801L1690.42,576.821L1690.51,576.84L1690.59,576.858L1690.68,576.875L1690.76,576.891L1690.85,576.905L1690.93,576.919L1691.02,576.932L1691.11,576.944L1691.2,576.954L1691.29,576.964L1691.37,576.972L1691.46,576.98L1691.55,576.986L1691.64,576.991L1691.73,576.995L1691.82,576.998L1691.91,576.999L1692,577L1692.09,576.999L1692.18,576.998L1692.27,576.995L1692.36,576.991L1692.45,576.986L1692.54,576.98L1692.63,576.972L1692.72,576.964L1692.8,576.954L1692.89,576.944L1692.98,576.932L1693.07,576.919L1693.15,576.905L1693.24,576.891L1693.32,576.875L1693.41,576.858L1693.5,576.84L1693.58,576.821L1693.66,576.801L1693.75,576.779L1693.83,576.757L1693.91,576.734L1694,576.71L1694.08,576.685L1694.16,576.659L1694.24,576.632L1694.33,576.604L1694.41,576.575L1694.49,576.545L1694.57,576.514L1694.64,576.482L1694.72,576.45L1694.8,576.416L1694.88,576.381L1694.96,576.346L1695.03,576.309L1695.11,576.272L1695.19,576.234L1695.26,576.195L1695.34,576.155L1695.41,576.114L1695.48,576.072L1695.56,576.029L1695.63,575.986L1695.7,575.942L1695.77,575.897L1695.84,575.851L1695.91,575.804L1695.98,575.756L1696.05,575.708L1696.12,575.659L1696.19,575.609L1696.25,575.558L1696.32,575.506L1696.39,575.454L1696.45,575.401L1696.52,575.347L1696.58,575.292L1696.64,575.237L1696.71,575.181L1696.77,575.124L1696.83,575.066L1696.89,575.008L1696.95,574.949L1697.01,574.889L1697.07,574.829L1697.12,574.767L1697.18,574.706L1697.24,574.643L1697.29,574.58L1697.35,574.516L1697.4,574.452L1697.45,574.386L1697.51,574.321L1697.56,574.254L1697.61,574.187L1697.66,574.119L1697.71,574.051L1697.76,573.982L1697.8,573.913L1697.85,573.843L1697.9,573.772L1697.94,573.7L1697.99,573.629L1698.03,573.556L1698.07,573.483L1698.11,573.41L1698.15,573.335L1698.19,573.261L1698.23,573.186L1698.27,573.11L1698.31,573.034L1698.35,572.957L1698.38,572.88L1698.42,572.802L1698.45,572.724L1698.48,572.645L1698.51,572.566L1698.55,572.486L1698.58,572.406L1698.6,572.325L1698.63,572.244L1698.66,572.163L1698.68,572.081L1698.71,571.998L1698.73,571.915L1698.76,571.832L1698.78,571.749L1698.8,571.664L1698.82,571.58L1698.84,571.495L1698.86,571.41L1698.88,571.324L1698.89,571.238L1698.9,571.152L1698.92,571.065L1698.93,570.978L1698.94,570.891L1698.95,570.803L1698.96,570.715L1698.97,570.627L1698.98,570.538L1698.99,570.449L1698.99,570.36L1699,570.27L1699,570.181L1699,570.09L1699,570L1699,569.911L1699,569.822L1699,569.733L1698.99,569.645L1698.99,569.557L1698.98,569.469L1698.97,569.381L1698.97,569.294L1698.96,569.207L1698.94,569.121L1698.93,569.035L1698.92,568.949L1698.91,568.863L1698.89,568.778L1698.88,568.693L1698.86,568.609L1698.84,568.524L1698.83,568.441L1698.81,568.357L1698.79,568.274L1698.76,568.192L1698.74,568.109L1698.72,568.028L1698.69,567.946L1698.67,567.865L1698.64,567.785L1698.61,567.704L1698.59,567.625L1698.56,567.545L1698.53,567.467L1698.5,567.388L1698.46,567.31L1698.43,567.233L1698.4,567.156L1698.36,567.08L1698.33,567.004L1698.29,566.928L1698.25,566.853L1698.22,566.779L1698.18,566.705L1698.14,566.632L1698.1,566.559L1698.05,566.486L1698.01,566.415L1697.97,566.343L1697.92,566.273L1697.88,566.202L1697.83,566.133L1697.79,566.064L1697.74,565.996L1697.69,565.928L1697.64,565.861L1697.59,565.794L1697.54,565.728L1697.49,565.663L1697.44,565.598L1697.39,565.534L1697.34,565.47L1697.28,565.407L1697.23,565.345L1697.17,565.284L1697.12,565.223L1697.06,565.163L1697,565.103L1697,567L1697,567.05L1697,567.099L1696.99,567.148L1696.98,567.196L1696.97,567.244L1696.96,567.291L1696.94,567.337L1696.92,567.383L1696.9,567.427L1696.88,567.471L1696.86,567.513L1696.83,567.555L1696.8,567.595L1696.77,567.634L1696.74,567.671L1696.71,567.707L1696.67,567.741L1696.63,567.774L1696.6,567.804L1696.56,567.832L1696.51,567.858L1696.47,567.882L1696.43,567.904L1696.38,567.924L1696.34,567.941L1696.29,567.957L1696.24,567.97L1696.2,567.981L1696.15,567.989L1696.1,567.995L1696.05,567.999L1696,568C1696,568 1695.95,567.999 1695.95,567.999L1695.9,567.995L1695.85,567.989L1695.8,567.981L1695.76,567.97L1695.71,567.957L1695.66,567.941L1695.62,567.924L1695.57,567.904L1695.53,567.882L1695.49,567.858L1695.44,567.832L1695.4,567.804L1695.37,567.774L1695.33,567.741L1695.29,567.707L1695.26,567.671L1695.23,567.634L1695.2,567.595L1695.17,567.555L1695.14,567.513L1695.12,567.471L1695.1,567.427L1695.08,567.383L1695.06,567.337L1695.04,567.291L1695.03,567.244L1695.02,567.196L1695.01,567.148L1695.01,567.099L1695,567.05L1695,567L1695,563L1695,562.95L1695.01,562.901L1695.01,562.852L1695.02,562.804L1695.03,562.756L1695.04,562.709L1695.06,562.663L1695.08,562.617L1695.1,562.573L1695.12,562.529L1695.14,562.487L1695.17,562.445L1695.2,562.405L1695.23,562.366L1695.26,562.329L1695.29,562.293L1695.33,562.259L1695.37,562.226L1695.4,562.196L1695.44,562.168L1695.49,562.142L1695.53,562.118L1695.57,562.096L1695.62,562.076L1695.66,562.059L1695.71,562.043L1695.76,562.03L1695.8,562.019L1695.85,562.011L1695.9,562.005L1695.95,562.001L1696,562L1700,562L1700.05,562.001L1700.1,562.005L1700.15,562.011L1700.2,562.019L1700.24,562.03L1700.29,562.043L1700.34,562.059L1700.38,562.076L1700.43,562.096L1700.47,562.118L1700.51,562.142L1700.56,562.168L1700.6,562.196L1700.63,562.226L1700.67,562.259L1700.71,562.293L1700.74,562.329L1700.77,562.366L1700.8,562.405L1700.83,562.445L1700.86,562.487L1700.88,562.529L1700.9,562.573L1700.92,562.617L1700.94,562.663L1700.96,562.709L1700.97,562.756L1700.98,562.804L1700.99,562.852L1701,562.901L1701,562.95L1701,563C1701,563 1701,563.05 1701,563.05L1701,563.099L1700.99,563.148L1700.98,563.196L1700.97,563.244L1700.96,563.291L1700.94,563.337L1700.92,563.383L1700.9,563.427L1700.88,563.471L1700.86,563.513L1700.83,563.555L1700.8,563.595L1700.77,563.634L1700.74,563.671L1700.71,563.707L1700.67,563.741L1700.63,563.774L1700.6,563.804L1700.56,563.832L1700.51,563.858L1700.47,563.882L1700.43,563.904L1700.38,563.924L1700.34,563.941L1700.29,563.957L1700.24,563.97L1700.2,563.981L1700.15,563.989L1700.1,563.995L1700.05,563.999L1700,564L1698.71,564L1698.77,564.075L1698.84,564.151L1698.9,564.227L1698.97,564.305L1699.03,564.382L1699.09,564.461L1699.15,564.541L1699.21,564.621L1699.27,564.701L1699.33,564.783L1699.39,564.865L1699.45,564.948L1699.5,565.031L1699.56,565.115L1699.61,565.2L1699.67,565.285L1699.72,565.371L1699.77,565.458L1699.82,565.545L1699.87,565.633L1699.92,565.722L1699.97,565.811L1700.01,565.901L1700.06,565.991L1700.1,566.082L1700.15,566.173L1700.19,566.265L1700.23,566.358L1700.27,566.451L1700.31,566.544L1700.35,566.639L1700.39,566.733L1700.42,566.828L1700.46,566.924L1700.49,567.02L1700.53,567.117L1700.56,567.214L1700.59,567.312L1700.62,567.41L1700.65,567.509L1700.68,567.608L1700.7,567.708L1700.73,567.808L1700.76,567.908L1700.78,568.009L1700.8,568.11L1700.82,568.212L1700.84,568.314L1700.86,568.417L1700.88,568.52L1700.89,568.623L1700.91,568.727L1700.92,568.831L1700.94,568.936L1700.95,569.041L1700.96,569.146L1700.97,569.252L1700.98,569.358L1700.98,569.464L1700.99,569.57L1700.99,569.677L1701,569.785L1701,569.892L1701,570L1701,570.116L1701,570.232L1700.99,570.348L1700.99,570.463L1700.98,570.578L1700.97,570.692L1700.96,570.806L1700.95,570.92L1700.94,571.033L1700.93,571.146L1700.91,571.258L1700.9,571.37L1700.88,571.481L1700.86,571.592L1700.84,571.703L1700.82,571.813L1700.79,571.922L1700.77,572.031L1700.74,572.14L1700.72,572.248L1700.69,572.356L1700.66,572.463L1700.63,572.569L1700.6,572.675L1700.56,572.78L1700.53,572.885L1700.49,572.99L1700.45,573.093L1700.41,573.196L1700.38,573.299L1700.33,573.401L1700.29,573.502L1700.25,573.602L1700.2,573.702L1700.16,573.802L1700.11,573.9L1700.06,573.998L1700.02,574.096L1699.96,574.192L1699.91,574.288L1699.86,574.384L1699.81,574.478L1699.75,574.572L1699.7,574.665L1699.64,574.758L1699.58,574.849L1699.52,574.94L1699.46,575.031L1699.4,575.12L1699.34,575.209L1699.28,575.296L1699.21,575.383L1699.15,575.47L1699.08,575.555L1699.01,575.64L1698.94,575.723L1698.87,575.806L1698.8,575.888L1698.73,575.97L1698.66,576.05L1698.59,576.13L1698.51,576.208L1698.44,576.286L1698.36,576.363L1698.29,576.439L1698.21,576.514L1698.13,576.588L1698.05,576.661L1697.97,576.733L1697.89,576.804L1697.81,576.874L1697.72,576.944L1697.64,577.012L1697.56,577.079L1697.47,577.146L1697.38,577.211L1697.3,577.275L1697.21,577.339L1697.12,577.401L1697.03,577.462L1696.94,577.522L1696.85,577.581L1696.76,577.639L1696.66,577.696L1696.57,577.752L1696.48,577.807L1696.38,577.861L1696.29,577.913L1696.19,577.964L1696.1,578.015L1696,578.064L1695.9,578.112L1695.8,578.159L1695.7,578.204L1695.6,578.249L1695.5,578.292L1695.4,578.334L1695.3,578.375L1695.2,578.415L1695.09,578.454L1694.99,578.491L1694.88,578.527L1694.78,578.562L1694.67,578.595L1694.57,578.627L1694.46,578.658L1694.36,578.688L1694.25,578.716L1694.14,578.744L1694.03,578.769L1693.92,578.794L1693.81,578.817L1693.7,578.839L1693.59,578.859L1693.48,578.878L1693.37,578.896L1693.26,578.913L1693.15,578.928L1693.03,578.941L1692.92,578.953L1692.81,578.964L1692.69,578.974L1692.58,578.982L1692.46,578.988L1692.35,578.993L1692.23,578.997L1692.12,578.999L1692,579L1691.88,578.999L1691.77,578.997L1691.65,578.993L1691.54,578.988L1691.42,578.982L1691.31,578.974L1691.19,578.964L1691.08,578.953L1690.97,578.941L1690.85,578.928L1690.74,578.913L1690.63,578.896L1690.52,578.878L1690.41,578.859L1690.3,578.839L1690.19,578.817L1690.08,578.794L1689.97,578.769L1689.86,578.744L1689.75,578.716L1689.64,578.688L1689.54,578.658L1689.43,578.627L1689.33,578.595L1689.22,578.562L1689.12,578.527L1689.01,578.491L1688.91,578.454L1688.8,578.415L1688.7,578.375L1688.6,578.334L1688.5,578.292L1688.4,578.249L1688.3,578.204L1688.2,578.159L1688.1,578.112L1688,578.064L1687.9,578.015L1687.81,577.964L1687.71,577.913L1687.62,577.861L1687.52,577.807L1687.43,577.752L1687.34,577.696L1687.24,577.639L1687.15,577.581L1687.06,577.522L1686.97,577.462L1686.88,577.401L1686.79,577.339L1686.7,577.275L1686.62,577.211L1686.53,577.146L1686.44,577.079L1686.36,577.012L1686.28,576.944L1686.19,576.874L1686.11,576.804L1686.03,576.733L1685.95,576.661L1685.87,576.588L1685.79,576.514L1685.71,576.439L1685.64,576.363L1685.56,576.286L1685.49,576.208L1685.41,576.13L1685.34,576.05L1685.27,575.97L1685.2,575.888L1685.13,575.806L1685.06,575.723L1684.99,575.64L1684.92,575.555L1684.85,575.47L1684.79,575.383L1684.73,575.296L1684.66,575.209L1684.6,575.12L1684.54,575.031L1684.48,574.94L1684.42,574.849L1684.36,574.758L1684.3,574.665L1684.25,574.572L1684.19,574.478L1684.14,574.384L1684.09,574.288L1684.04,574.192L1683.99,574.096L1683.94,573.998L1683.89,573.9L1683.84,573.802L1683.8,573.702L1683.75,573.602L1683.71,573.502L1683.67,573.401L1683.62,573.299L1683.59,573.196L1683.55,573.093L1683.51,572.99L1683.47,572.885L1683.44,572.78L1683.4,572.675L1683.37,572.569L1683.34,572.463L1683.31,572.356L1683.28,572.248L1683.26,572.14L1683.23,572.031L1683.21,571.922L1683.18,571.813L1683.16,571.703L1683.14,571.592L1683.12,571.481L1683.1,571.37L1683.09,571.258L1683.07,571.146L1683.06,571.033L1683.05,570.92L1683.04,570.806L1683.03,570.692L1683.02,570.578L1683.01,570.463L1683.01,570.348L1683,570.232L1683,570.116L1683,570L1683,569.884L1683,569.768L1683.01,569.652L1683.01,569.537L1683.02,569.422L1683.03,569.308L1683.04,569.194L1683.05,569.08L1683.06,568.967L1683.07,568.854L1683.09,568.742L1683.1,568.63L1683.12,568.519L1683.14,568.408L1683.16,568.297L1683.18,568.187L1683.21,568.078L1683.23,567.969L1683.26,567.86L1683.28,567.752L1683.31,567.644L1683.34,567.537L1683.37,567.431L1683.4,567.325L1683.44,567.22L1683.47,567.115L1683.51,567.01L1683.55,566.907L1683.59,566.804L1683.62,566.701L1683.67,566.599L1683.71,566.498L1683.75,566.398L1683.8,566.298L1683.84,566.198L1683.89,566.1L1683.94,566.002L1683.99,565.904L1684.04,565.808L1684.09,565.712L1684.14,565.616L1684.19,565.522L1684.25,565.428L1684.3,565.335L1684.36,565.242L1684.42,565.151L1684.48,565.06L1684.54,564.969L1684.6,564.88L1684.66,564.791L1684.73,564.704L1684.79,564.617L1684.85,564.53L1684.92,564.445L1684.99,564.36L1685.06,564.277L1685.13,564.194L1685.2,564.112L1685.27,564.03L1685.34,563.95L1685.41,563.87L1685.49,563.792L1685.56,563.714L1685.64,563.637L1685.71,563.561L1685.79,563.486L1685.87,563.412L1685.95,563.339L1686.03,563.267L1686.11,563.196L1686.19,563.126L1686.28,563.056L1686.36,562.988L1686.44,562.921L1686.53,562.854L1686.62,562.789L1686.7,562.725L1686.79,562.661L1686.88,562.599L1686.97,562.538L1687.06,562.478L1687.15,562.419L1687.24,562.361L1687.34,562.304L1687.43,562.248L1687.52,562.193L1687.62,562.139L1687.71,562.087L1687.81,562.036L1687.9,561.985L1688,561.936L1688.1,561.888L1688.2,561.841L1688.3,561.796L1688.4,561.751L1688.5,561.708L1688.6,561.666L1688.7,561.625L1688.8,561.585L1688.91,561.546L1689.01,561.509L1689.12,561.473L1689.22,561.438L1689.33,561.405L1689.43,561.373L1689.54,561.342L1689.64,561.312L1689.75,561.284L1689.86,561.256L1689.97,561.231L1690.08,561.206L1690.19,561.183L1690.3,561.161L1690.41,561.141L1690.52,561.122L1690.63,561.104L1690.74,561.087L1690.85,561.072L1690.97,561.059L1691.08,561.047L1691.19,561.036L1691.31,561.026L1691.42,561.018L1691.54,561.012L1691.65,561.007L1691.77,561.003L1691.88,561.001L1692,561L1692.05,561.001ZM1692.31,577.994L1692.27,577.995L1692.31,577.994L1692.36,577.992L1692.31,577.994ZM1691.69,577.994L1691.71,577.995L1691.69,577.994L1691.65,577.992L1691.69,577.994ZM1691.49,577.984L1691.5,577.984L1691.49,577.984L1691.44,577.98L1691.49,577.984ZM1692.51,577.984L1692.51,577.984L1692.56,577.98L1692.51,577.984ZM1695.73,577.079L1695.64,577.124L1695.56,577.168L1695.47,577.21L1695.38,577.252L1695.29,577.292L1695.2,577.332L1695.11,577.371L1695.02,577.408L1694.93,577.444L1694.84,577.48L1694.75,577.514L1694.66,577.547L1694.57,577.579L1694.47,577.61L1694.38,577.64L1694.28,577.669L1694.19,577.696L1694.09,577.723L1694,577.748L1693.9,577.772L1693.81,577.795L1693.71,577.817L1693.61,577.837L1693.51,577.857L1693.41,577.875L1693.32,577.892L1693.22,577.908L1693.12,577.922L1693.02,577.936L1692.92,577.948L1692.82,577.959L1692.72,577.968L1692.62,577.977L1692.62,577.977L1692.72,577.968L1692.82,577.959L1692.92,577.948L1693.02,577.936L1693.12,577.922L1693.22,577.908L1693.32,577.892L1693.42,577.875L1693.51,577.857L1693.61,577.837L1693.71,577.817L1693.81,577.795L1693.9,577.772L1694,577.748L1694.09,577.723L1694.19,577.696L1694.28,577.669L1694.38,577.64L1694.47,577.611L1694.56,577.58L1694.66,577.548L1694.75,577.514L1694.84,577.48L1694.93,577.445L1695.02,577.409L1695.11,577.371L1695.2,577.333L1695.29,577.293L1695.38,577.253L1695.47,577.211L1695.55,577.169L1695.64,577.125L1695.73,577.08L1695.8,577.039L1695.73,577.079ZM1688.27,577.08L1688.36,577.125L1688.45,577.169L1688.53,577.211L1688.62,577.253L1688.71,577.293L1688.8,577.333L1688.89,577.371L1688.98,577.409L1689.07,577.445L1689.16,577.48L1689.25,577.514L1689.34,577.548L1689.44,577.58L1689.53,577.611L1689.62,577.64L1689.72,577.669L1689.81,577.696L1689.91,577.723L1690,577.748L1690.1,577.772L1690.19,577.795L1690.29,577.817L1690.39,577.837L1690.49,577.857L1690.58,577.875L1690.68,577.892L1690.78,577.908L1690.88,577.922L1690.98,577.936L1691.08,577.948L1691.18,577.959L1691.28,577.968L1691.38,577.977L1691.28,577.968L1691.18,577.959L1691.08,577.948L1690.98,577.936L1690.88,577.922L1690.78,577.908L1690.68,577.892L1690.59,577.875L1690.49,577.857L1690.39,577.837L1690.29,577.817L1690.19,577.795L1690.1,577.772L1690,577.748L1689.91,577.723L1689.81,577.696L1689.72,577.669L1689.62,577.64L1689.53,577.61L1689.43,577.579L1689.34,577.547L1689.25,577.514L1689.16,577.48L1689.07,577.444L1688.98,577.408L1688.89,577.37L1688.8,577.332L1688.71,577.292L1688.62,577.252L1688.53,577.21L1688.44,577.167L1688.36,577.124L1688.27,577.079L1688.2,577.039L1688.27,577.08ZM1695.9,576.986L1695.84,577.018L1695.9,576.988L1695.98,576.94L1695.98,576.94L1695.9,576.986ZM1688.02,576.94L1688.1,576.988L1688.16,577.018L1688.1,576.986L1688.02,576.939L1688.02,576.94ZM1687.94,576.891L1687.99,576.921L1687.93,576.89L1687.94,576.891ZM1696.02,576.916L1696.06,576.891L1696.07,576.89L1696.02,576.916ZM1685.31,574.39L1685.31,574.39L1685.31,574.39L1685.31,574.39ZM1685.06,573.98L1685.11,574.063L1685.13,574.095L1685.11,574.065L1685.06,573.982L1685.03,573.931L1685.06,573.98ZM1698.94,573.982L1698.92,574.016L1698.94,573.98L1698.97,573.931L1698.94,573.982ZM1699.17,573.555L1699.12,573.642L1699.08,573.728L1699.03,573.813L1699,573.878L1699.03,573.811L1699.08,573.726L1699.12,573.64L1699.17,573.554L1699.21,573.469L1699.17,573.555ZM1684.02,570.616L1684.03,570.717L1684.04,570.819L1684.05,570.919L1684.06,571.019L1684.08,571.119L1684.09,571.218L1684.11,571.318L1684.12,571.416L1684.14,571.514L1684.16,571.612L1684.18,571.71L1684.2,571.807L1684.23,571.902L1684.25,571.999L1684.28,572.094L1684.3,572.189L1684.33,572.284L1684.36,572.378L1684.39,572.472L1684.42,572.564L1684.45,572.657L1684.49,572.75L1684.52,572.84L1684.56,572.931L1684.59,573.022L1684.63,573.113L1684.67,573.202L1684.71,573.29L1684.75,573.379L1684.79,573.466L1684.83,573.553L1684.88,573.64L1684.92,573.726L1684.95,573.788L1684.92,573.727L1684.88,573.642L1684.83,573.555L1684.79,573.468L1684.75,573.38L1684.71,573.292L1684.67,573.202L1684.63,573.113L1684.59,573.023L1684.56,572.933L1684.52,572.842L1684.49,572.749L1684.45,572.657L1684.42,572.565L1684.39,572.472L1684.36,572.379L1684.33,572.284L1684.3,572.188L1684.28,572.094L1684.25,571.998L1684.23,571.902L1684.2,571.805L1684.18,571.707L1684.16,571.611L1684.14,571.512L1684.12,571.415L1684.11,571.316L1684.09,571.217L1684.08,571.118L1684.06,571.017L1684.05,570.917L1684.04,570.816L1684.03,570.716L1684.02,570.615L1684.02,570.594L1684.02,570.616ZM1699.98,570.512L1699.98,570.614L1699.97,570.716L1699.96,570.817L1699.95,570.918L1699.94,571.017L1699.92,571.116L1699.91,571.217L1699.89,571.316L1699.88,571.415L1699.86,571.512L1699.84,571.61L1699.82,571.709L1699.8,571.805L1699.77,571.902L1699.75,571.998L1699.72,572.094L1699.7,572.189L1699.67,572.283L1699.64,572.377L1699.61,572.472L1699.58,572.565L1699.55,572.658L1699.51,572.75L1699.48,572.841L1699.44,572.932L1699.41,573.023L1699.37,573.114L1699.33,573.203L1699.29,573.291L1699.25,573.379L1699.21,573.468L1699.21,573.466L1699.25,573.378L1699.29,573.291L1699.33,573.202L1699.37,573.112L1699.41,573.022L1699.44,572.932L1699.48,572.841L1699.52,572.749L1699.55,572.657L1699.58,572.564L1699.61,572.471L1699.64,572.378L1699.67,572.284L1699.7,572.189L1699.72,572.094L1699.75,571.999L1699.77,571.903L1699.8,571.807L1699.82,571.709L1699.84,571.612L1699.86,571.514L1699.88,571.416L1699.89,571.318L1699.91,571.218L1699.92,571.119L1699.94,571.02L1699.95,570.919L1699.96,570.818L1699.97,570.717L1699.98,570.616L1699.98,570.515L1699.99,570.468L1699.98,570.512ZM1692.5,564L1692.53,564.001L1692.55,564.002L1692.57,564.005L1692.6,564.01L1692.62,564.015L1692.64,564.022L1692.67,564.029L1692.69,564.038L1692.71,564.048L1692.74,564.059L1692.76,564.071L1692.78,564.084L1692.8,564.098L1692.82,564.113L1692.84,564.129L1692.85,564.146L1692.87,564.164L1692.89,564.183L1692.9,564.203L1692.92,564.223L1692.93,564.243L1692.94,564.265L1692.95,564.286L1692.96,564.309L1692.97,564.331L1692.98,564.355L1692.99,564.378L1692.99,564.402L1693,564.426L1693,564.451L1693,564.475L1693,564.5L1693,570.293L1693,570.342L1693,570.392L1692.99,570.441L1692.98,570.489L1692.97,570.537L1692.96,570.584L1692.94,570.63L1692.92,570.676L1692.9,570.72L1692.88,570.764L1692.86,570.806L1692.83,570.848L1692.8,570.888L1692.77,570.927L1692.74,570.964L1692.71,571L1690.85,572.854L1690.84,572.871L1690.82,572.887L1690.8,572.902L1690.78,572.917L1690.76,572.93L1690.74,572.942L1690.71,572.953L1690.69,572.962L1690.67,572.971L1690.64,572.979L1690.62,572.985L1690.6,572.991L1690.57,572.995L1690.55,572.998L1690.53,573L1690.5,573L1690.48,573L1690.45,572.998L1690.43,572.995L1690.4,572.991L1690.38,572.985L1690.36,572.979L1690.33,572.971L1690.31,572.962L1690.29,572.953L1690.27,572.942L1690.24,572.93L1690.22,572.917L1690.2,572.903L1690.18,572.887L1690.16,572.871L1690.15,572.854L1690.15,572.853L1690.13,572.834L1690.11,572.815L1690.1,572.795L1690.08,572.775L1690.07,572.754L1690.06,572.732L1690.05,572.71L1690.04,572.688L1690.03,572.665L1690.02,572.642L1690.01,572.619L1690.01,572.595L1690.01,572.572L1690,572.548L1690,572.524L1690,572.5L1690,572.476L1690,572.452L1690.01,572.428L1690.01,572.405L1690.01,572.381L1690.02,572.358L1690.03,572.335L1690.04,572.312L1690.05,572.29L1690.06,572.268L1690.07,572.246L1690.08,572.225L1690.1,572.205L1690.11,572.185L1690.13,572.166L1690.15,572.147L1692,570.293L1692,564.5L1692,564.475L1692,564.451L1692.01,564.426L1692.01,564.402L1692.02,564.378L1692.02,564.355L1692.03,564.331L1692.04,564.309L1692.05,564.286L1692.06,564.265L1692.07,564.243L1692.08,564.223L1692.1,564.203L1692.11,564.183L1692.13,564.164L1692.15,564.146L1692.16,564.129L1692.18,564.113L1692.2,564.098L1692.22,564.084L1692.24,564.071L1692.27,564.059L1692.29,564.048L1692.31,564.038L1692.33,564.029L1692.36,564.022L1692.38,564.015L1692.4,564.01L1692.43,564.005L1692.45,564.002L1692.48,564.001L1692.5,564L1692.5,564ZM1684.01,570.412L1684.01,570.46L1684.01,570.41L1684.01,570.349L1684.01,570.412ZM1700,569.899L1700,570L1700,569.999L1700,569.904L1700,569.873L1700,569.899ZM1700,569.738L1700,569.713L1700,569.703L1700,569.738ZM1684.01,569.588L1684.01,569.652L1684.01,569.59L1684.01,569.541L1684.01,569.588ZM1699.99,569.635L1699.99,569.618L1699.99,569.616L1699.99,569.635ZM1699.99,569.539L1699.99,569.522L1699.99,569.514L1699.99,569.539ZM1699.98,569.469L1699.98,569.427L1699.98,569.395L1699.98,569.469ZM1684.92,566.274L1684.88,566.36L1684.83,566.447L1684.79,566.534L1684.75,566.621L1684.71,566.71L1684.67,566.798L1684.63,566.887L1684.59,566.978L1684.56,567.069L1684.52,567.16L1684.49,567.25L1684.45,567.343L1684.42,567.436L1684.39,567.528L1684.36,567.622L1684.33,567.716L1684.3,567.811L1684.28,567.905L1684.25,568.002L1684.23,568.098L1684.2,568.193L1684.18,568.29L1684.16,568.388L1684.14,568.486L1684.12,568.584L1684.11,568.682L1684.09,568.782L1684.08,568.881L1684.06,568.981L1684.05,569.081L1684.04,569.181L1684.03,569.283L1684.02,569.384L1684.02,569.406L1684.02,569.385L1684.03,569.284L1684.04,569.184L1684.05,569.083L1684.06,568.983L1684.08,568.882L1684.09,568.783L1684.11,568.684L1684.12,568.585L1684.14,568.488L1684.16,568.389L1684.18,568.293L1684.2,568.195L1684.23,568.098L1684.25,568.002L1684.28,567.906L1684.3,567.812L1684.33,567.716L1684.36,567.621L1684.39,567.528L1684.42,567.435L1684.45,567.343L1684.49,567.251L1684.52,567.158L1684.56,567.067L1684.59,566.977L1684.63,566.887L1684.67,566.798L1684.71,566.708L1684.75,566.62L1684.79,566.532L1684.83,566.445L1684.88,566.358L1684.92,566.273L1684.95,566.211L1684.92,566.274ZM1699.97,569.294L1699.98,569.392L1699.97,569.334L1699.96,569.241L1699.96,569.211L1699.97,569.294ZM1699.96,569.175L1699.95,569.146L1699.95,569.115L1699.96,569.175ZM1699.19,566.489L1699.23,566.574L1699.27,566.661L1699.31,566.749L1699.35,566.837L1699.39,566.927L1699.42,567.015L1699.46,567.104L1699.49,567.194L1699.53,567.285L1699.56,567.376L1699.59,567.467L1699.62,567.561L1699.65,567.653L1699.68,567.746L1699.7,567.84L1699.73,567.933L1699.75,568.028L1699.78,568.123L1699.8,568.218L1699.82,568.313L1699.84,568.411L1699.86,568.508L1699.88,568.605L1699.89,568.702L1699.91,568.799L1699.92,568.897L1699.94,568.996L1699.95,569.082L1699.94,569.052L1699.93,568.96L1699.92,568.869L1699.91,568.776L1699.89,568.683L1699.88,568.592L1699.86,568.5L1699.84,568.41L1699.82,568.32L1699.8,568.23L1699.78,568.141L1699.76,568.05L1699.74,567.962L1699.71,567.873L1699.69,567.786L1699.66,567.698L1699.64,567.611L1699.61,567.524L1699.58,567.437L1699.55,567.352L1699.52,567.267L1699.49,567.181L1699.46,567.096L1699.42,567.013L1699.39,566.929L1699.35,566.846L1699.32,566.763L1699.28,566.681L1699.24,566.599L1699.2,566.518L1699.16,566.438L1699.15,566.414L1699.19,566.489ZM1696,563.011L1696,566.987L1696,566.986L1696,563.01L1696,563.011ZM1699.1,566.317L1699.14,566.387L1699.12,566.357L1699.08,566.277L1699.06,566.244L1699.1,566.317ZM1699.05,566.221L1699.04,566.198L1699.03,566.175L1699.05,566.221ZM1699,566.131L1699,566.119L1698.98,566.089L1699,566.131ZM1685.11,565.937L1685.06,566.02L1685.03,566.069L1685.06,566.018L1685.11,565.935L1685.13,565.905L1685.11,565.937ZM1698.96,566.057L1698.95,566.041L1698.94,566.014L1698.96,566.057ZM1698.91,565.972L1698.91,565.964L1698.88,565.916L1698.91,565.972ZM1698.87,565.897L1698.86,565.887L1698.83,565.837L1698.87,565.897ZM1698.82,565.817L1698.82,565.81L1698.8,565.792L1698.82,565.817ZM1696.36,563L1697.78,564.471L1697.85,564.54L1697.91,564.61L1697.94,564.645L1696.49,563L1699.99,563L1699.99,563L1699.99,563L1696.36,563ZM1687.94,563.109L1687.93,563.11L1687.98,563.082L1687.94,563.109ZM1691.49,562.016L1691.38,562.023L1691.28,562.032L1691.18,562.041L1691.08,562.052L1690.98,562.064L1690.88,562.078L1690.78,562.092L1690.68,562.108L1690.58,562.125L1690.49,562.143L1690.39,562.163L1690.29,562.183L1690.19,562.205L1690.1,562.228L1690,562.252L1689.91,562.277L1689.81,562.304L1689.72,562.331L1689.62,562.36L1689.53,562.39L1689.43,562.42L1689.34,562.452L1689.25,562.485L1689.16,562.52L1689.07,562.555L1688.98,562.591L1688.89,562.629L1688.8,562.667L1688.71,562.707L1688.62,562.747L1688.53,562.789L1688.45,562.831L1688.36,562.875L1688.27,562.92L1688.19,562.966L1688.1,563.012L1688.02,563.06L1688.02,563.06L1688.1,563.013L1688.19,562.967L1688.27,562.921L1688.36,562.876L1688.44,562.833L1688.53,562.79L1688.62,562.748L1688.71,562.708L1688.8,562.668L1688.89,562.63L1688.98,562.592L1689.07,562.555L1689.16,562.52L1689.25,562.486L1689.34,562.453L1689.43,562.421L1689.53,562.39L1689.62,562.36L1689.72,562.332L1689.81,562.304L1689.91,562.277L1690,562.252L1690.1,562.228L1690.19,562.205L1690.29,562.183L1690.39,562.163L1690.49,562.143L1690.59,562.125L1690.68,562.108L1690.78,562.092L1690.88,562.078L1690.98,562.064L1691.08,562.052L1691.18,562.041L1691.28,562.032L1691.39,562.023L1691.49,562.016L1691.58,562.011L1691.49,562.016Z" style="fill:rgb(51,51,51);"/>
            </g>
        </g>
    </g>
</svg>
