<?xml version="1.0" encoding="UTF-8" standalone="no"?>
<!DOCTYPE svg PUBLIC "-//W3C//DTD SVG 1.1//EN" "http://www.w3.org/Graphics/SVG/1.1/DTD/svg11.dtd">
<svg width="24px" height="24px" version="1.1" xmlns="http://www.w3.org/2000/svg" xmlns:xlink="http://www.w3.org/1999/xlink" xml:space="preserve" xmlns:serif="http://www.serif.com/" style="fill-rule:evenodd;clip-rule:evenodd;stroke-linejoin:round;stroke-miterlimit:1.41421;">
    <g transform="matrix(1,0,0,1,-1653,-558)">
        <g id="ui.regular.indentRight" transform="matrix(0.800768,0,0,0.984948,1653,558)">
            <rect x="0" y="0" width="29.971" height="24.367" style="fill:none;"/>
            <g transform="matrix(1.2488,0,0,1.01528,-2636.22,-566.528)">
                <path d="M2118,576C2118,575.448 2118.45,575 2119,575C2121.42,575 2127.58,575 2130,575C2130.55,575 2131,575.448 2131,576C2131,576.552 2130.55,577 2130,577C2127.58,577 2121.42,577 2119,577C2118.45,577 2118,576.552 2118,576C2118,576 2118,576 2118,576ZM2119.71,569.293C2119.89,569.48 2120,569.735 2120,570C2120,570.265 2119.89,570.52 2119.71,570.707C2118.88,571.531 2117.53,572.883 2116.71,573.707C2116.52,573.895 2116.26,574 2116,574C2115.74,574 2115.48,573.895 2115.29,573.707C2114.9,573.317 2114.9,572.683 2115.29,572.293C2116.18,571.406 2117.59,570 2117.59,570C2117.59,570 2116.18,568.594 2115.29,567.707C2114.9,567.317 2114.9,566.683 2115.29,566.293C2115.48,566.105 2115.74,566 2116,566C2116.26,566 2116.52,566.105 2116.71,566.293C2117.53,567.117 2118.88,568.469 2119.71,569.293ZM2122,572C2122,571.735 2122.11,571.48 2122.29,571.293C2122.48,571.105 2122.74,571 2123,571C2124.73,571 2128.27,571 2130,571C2130.55,571 2131,571.448 2131,572C2131,572.265 2130.89,572.52 2130.71,572.707C2130.52,572.895 2130.26,573 2130,573C2128.27,573 2124.73,573 2123,573C2122.45,573 2122,572.552 2122,572C2122,572 2122,572 2122,572ZM2122,568C2122,567.735 2122.11,567.48 2122.29,567.293C2122.48,567.105 2122.74,567 2123,567C2124.73,567 2128.27,567 2130,567C2130.55,567 2131,567.448 2131,568C2131,568.265 2130.89,568.52 2130.71,568.707C2130.52,568.895 2130.26,569 2130,569C2128.27,569 2124.73,569 2123,569C2122.45,569 2122,568.552 2122,568C2122,568 2122,568 2122,568ZM2118,564C2118,563.448 2118.45,563 2119,563C2121.42,563 2127.58,563 2130,563C2130.55,563 2131,563.448 2131,564C2131,564.552 2130.55,565 2130,565C2127.58,565 2121.42,565 2119,565C2118.45,565 2118,564.552 2118,564C2118,564 2118,564 2118,564Z" style="fill:rgb(51,51,51);"/>
            </g>
        </g>
    </g>
</svg>
