<?xml version="1.0" encoding="UTF-8" standalone="no"?>
<!DOCTYPE svg PUBLIC "-//W3C//DTD SVG 1.1//EN" "http://www.w3.org/Graphics/SVG/1.1/DTD/svg11.dtd">
<svg width="24px" height="24px" version="1.1" xmlns="http://www.w3.org/2000/svg" xmlns:xlink="http://www.w3.org/1999/xlink" xml:space="preserve" xmlns:serif="http://www.serif.com/" style="fill-rule:evenodd;clip-rule:evenodd;stroke-linejoin:round;stroke-miterlimit:1.41421;">
    <g transform="matrix(1,0,0,1,-960,-558)">
        <g id="ui.regular.decreasingLines" transform="matrix(0.800768,0,0,0.984948,960,558)">
            <rect x="0" y="0" width="29.971" height="24.367" style="fill:none;"/>
            <g transform="matrix(-7.6467e-17,1.01528,1.2488,6.21681e-17,-696.831,-1899.59)">
                <path d="M1887,576C1887,575.448 1887.45,575 1888,575C1888.61,575 1889.39,575 1890,575C1890.55,575 1891,575.448 1891,576C1891,576.552 1890.55,577 1890,577C1889.39,577 1888.61,577 1888,577C1887.45,577 1887,576.552 1887,576C1887,576 1887,576 1887,576ZM1883,572C1883,571.448 1883.45,571 1884,571C1885.54,571 1888.46,571 1890,571C1890.55,571 1891,571.448 1891,572C1891,572.552 1890.55,573 1890,573C1888.46,573 1885.54,573 1884,573C1883.45,573 1883,572.552 1883,572C1883,572 1883,572 1883,572ZM1879,568C1879,567.735 1879.11,567.48 1879.29,567.293C1879.48,567.105 1879.74,567 1880,567C1882.26,567 1887.74,567 1890,567C1890.27,567 1890.52,567.105 1890.71,567.293C1890.89,567.48 1891,567.735 1891,568C1891,568.265 1890.89,568.52 1890.71,568.707C1890.52,568.895 1890.27,569 1890,569C1887.74,569 1882.26,569 1880,569C1879.74,569 1879.48,568.895 1879.29,568.707C1879.11,568.52 1879,568.265 1879,568C1879,568 1879,568 1879,568ZM1875,564C1875,563.448 1875.45,563 1876,563C1878.87,563 1887.13,563 1890,563C1890.27,563 1890.52,563.105 1890.71,563.293C1890.89,563.48 1891,563.735 1891,564C1891,564.552 1890.55,565 1890,565C1887.13,565 1878.87,565 1876,565C1875.74,565 1875.48,564.895 1875.29,564.707C1875.11,564.52 1875,564.265 1875,564C1875,564 1875,564 1875,564Z" style="fill:rgb(51,51,51);"/>
            </g>
        </g>
    </g>
</svg>
