<?xml version="1.0" encoding="UTF-8" standalone="no"?>
<!DOCTYPE svg PUBLIC "-//W3C//DTD SVG 1.1//EN" "http://www.w3.org/Graphics/SVG/1.1/DTD/svg11.dtd">
<svg width="24px" height="24px" version="1.1" xmlns="http://www.w3.org/2000/svg" xmlns:xlink="http://www.w3.org/1999/xlink" xml:space="preserve" xmlns:serif="http://www.serif.com/" style="fill-rule:evenodd;clip-rule:evenodd;stroke-linejoin:round;stroke-miterlimit:1.41421;">
    <g transform="matrix(1,0,0,1,-3093,-558)">
        <g id="ui.regular.alignVertical" transform="matrix(0.800768,0,0,0.984948,3093,558)">
            <rect x="0" y="0" width="29.971" height="24.367" style="fill:none;"/>
            <g transform="matrix(7.6467e-17,1.01528,-1.2488,6.21681e-17,726.802,-2994.07)">
                <path d="M2960,564C2960,564 2960,562.185 2960,561C2960,560.448 2960.45,560 2961,560C2961.55,560 2962,560.448 2962,561C2962,562.185 2962,564 2962,564C2962,564 2966.07,564 2968,564C2968.26,564 2968.52,564.105 2968.71,564.293C2968.89,564.48 2969,564.735 2969,565C2969,565.871 2969,567.129 2969,568C2969,568.265 2968.89,568.52 2968.71,568.707C2968.52,568.895 2968.26,569 2968,569C2966.07,569 2962,569 2962,569L2962,571C2962,571 2963.82,571 2965,571C2965.55,571 2966,571.448 2966,572C2966,572.871 2966,574.129 2966,575C2966,575.552 2965.55,576 2965,576C2963.82,576 2962,576 2962,576C2962,576 2962,577.815 2962,579C2962,579.552 2961.55,580 2961,580C2960.45,580 2960,579.552 2960,579C2960,577.815 2960,576 2960,576C2960,576 2958.18,576 2957,576C2956.45,576 2956,575.552 2956,575C2956,574.129 2956,572.871 2956,572C2956,571.448 2956.45,571 2957,571C2958.18,571 2960,571 2960,571L2960,569C2960,569 2955.93,569 2954,569C2953.74,569 2953.48,568.895 2953.29,568.707C2953.11,568.52 2953,568.265 2953,568C2953,567.129 2953,565.871 2953,565C2953,564.735 2953.11,564.48 2953.29,564.293C2953.48,564.105 2953.74,564 2954,564C2955.93,564 2960,564 2960,564ZM2960,574L2960,573L2958,573L2958,574L2960,574ZM2964,573L2962,573L2962,574L2964,574L2964,573ZM2960,567L2960,566L2955,566L2955,567L2960,567ZM2967,566L2962,566L2962,567L2967,567L2967,566Z" style="fill:rgb(51,51,51);"/>
            </g>
        </g>
    </g>
</svg>
