<?xml version="1.0" encoding="UTF-8" standalone="no"?>
<!DOCTYPE svg PUBLIC "-//W3C//DTD SVG 1.1//EN" "http://www.w3.org/Graphics/SVG/1.1/DTD/svg11.dtd">
<svg width="24px" height="24px" version="1.1" xmlns="http://www.w3.org/2000/svg" xmlns:xlink="http://www.w3.org/1999/xlink" xml:space="preserve" xmlns:serif="http://www.serif.com/" style="fill-rule:evenodd;clip-rule:evenodd;stroke-linejoin:round;stroke-miterlimit:1.41421;">
    <g transform="matrix(1,0,0,1,-1989,-558)">
        <g id="ui.regular.expand" transform="matrix(0.800768,0,0,0.984948,1989,558)">
            <rect x="0" y="0" width="29.971" height="24.367" style="fill:none;"/>
            <g transform="matrix(1.2488,0,0,1.01528,-3055.82,-566.528)">
                <path d="M2465,574.586C2465,574.586 2465,573.728 2465,573C2465,572.735 2465.11,572.48 2465.29,572.293C2465.48,572.105 2465.74,572 2466,572C2466.26,572 2466.52,572.105 2466.71,572.293C2466.89,572.48 2467,572.735 2467,573C2467,574.11 2467,575.89 2467,577C2467,577.265 2466.89,577.52 2466.71,577.707C2466.52,577.895 2466.26,578 2466,578C2464.89,578 2463.11,578 2462,578C2461.74,578 2461.48,577.895 2461.29,577.707C2461.11,577.52 2461,577.265 2461,577C2461,576.735 2461.11,576.48 2461.29,576.293C2461.48,576.105 2461.74,576 2462,576C2462.73,576 2463.59,576 2463.59,576C2463.59,576 2461.44,573.856 2460.29,572.707C2460.11,572.52 2460,572.265 2460,572C2460,571.735 2460.11,571.48 2460.29,571.293C2460.48,571.105 2460.74,571 2461,571C2461.26,571 2461.52,571.105 2461.71,571.293C2462.86,572.442 2465,574.586 2465,574.586ZM2456,562C2456,562.265 2455.89,562.52 2455.71,562.707C2455.52,562.895 2455.26,563 2455,563C2454.27,563 2453.41,563 2453.41,563C2453.41,563 2455.56,565.144 2456.71,566.293C2456.89,566.48 2457,566.735 2457,567C2457,567.265 2456.89,567.52 2456.71,567.707C2456.52,567.895 2456.26,568 2456,568C2455.74,568 2455.48,567.895 2455.29,567.707C2454.14,566.558 2452,564.414 2452,564.414C2452,564.414 2452,565.272 2452,566C2452,566.265 2451.89,566.52 2451.71,566.707C2451.52,566.895 2451.26,567 2451,567C2450.74,567 2450.48,566.895 2450.29,566.707C2450.11,566.52 2450,566.265 2450,566C2450,564.89 2450,563.11 2450,562C2450,561.735 2450.11,561.48 2450.29,561.293C2450.48,561.105 2450.74,561 2451,561C2452.11,561 2453.89,561 2455,561C2455.26,561 2455.52,561.105 2455.71,561.293C2455.89,561.48 2456,561.735 2456,562C2456,562 2456,562 2456,562Z" style="fill:rgb(51,51,51);"/>
            </g>
        </g>
    </g>
</svg>
