<?xml version="1.0" encoding="UTF-8" standalone="no"?><!DOCTYPE svg PUBLIC "-//W3C//DTD SVG 1.1//EN" "http://www.w3.org/Graphics/SVG/1.1/DTD/svg11.dtd"><svg width="100%" height="100%" viewBox="0 0 24 24" version="1.1" xmlns="http://www.w3.org/2000/svg" xmlns:xlink="http://www.w3.org/1999/xlink" xml:space="preserve" xmlns:serif="http://www.serif.com/" style="fill-rule:evenodd;clip-rule:evenodd;stroke-linejoin:round;stroke-miterlimit:1.41421;"><rect id="ui.regular.decreasingLines" x="0" y="0" width="24" height="24" style="fill:none;"/><path d="M18,16c-0.552,0 -1,0.448 -1,1c0,0.611 0,1.389 0,2c0,0.552 0.448,1 1,1c0.552,0 1,-0.448 1,-1c0,-0.611 0,-1.389 0,-2c0,-0.552 -0.448,-1 -1,-1c0,0 0,0 0,0Zm-4,-4c-0.552,0 -1,0.448 -1,1c0,1.537 0,4.463 0,6c0,0.552 0.448,1 1,1c0.552,0 1,-0.448 1,-1c0,-1.537 0,-4.463 0,-6c0,-0.552 -0.448,-1 -1,-1c0,0 0,0 0,0Zm-4,-4c-0.265,0 -0.52,0.105 -0.707,0.293c-0.188,0.187 -0.293,0.442 -0.293,0.707c0,2.26 0,7.74 0,10c0,0.265 0.105,0.52 0.293,0.707c0.187,0.188 0.442,0.293 0.707,0.293c0.265,0 0.52,-0.105 0.707,-0.293c0.188,-0.187 0.293,-0.442 0.293,-0.707c0,-2.26 0,-7.74 0,-10c0,-0.265 -0.105,-0.52 -0.293,-0.707c-0.187,-0.188 -0.442,-0.293 -0.707,-0.293c0,0 0,0 0,0Zm-4,-4c-0.552,0 -1,0.448 -1,1c0,2.873 0,11.127 0,14c0,0.265 0.105,0.52 0.293,0.707c0.187,0.188 0.442,0.293 0.707,0.293c0.552,0 1,-0.448 1,-1c0,-2.873 0,-11.127 0,-14c0,-0.265 -0.105,-0.52 -0.293,-0.707c-0.187,-0.188 -0.442,-0.293 -0.707,-0.293c0,0 0,0 0,0Z" style="fill:#333;"/></svg>