<?xml version="1.0" encoding="UTF-8" standalone="no"?>
<!DOCTYPE svg PUBLIC "-//W3C//DTD SVG 1.1//EN" "http://www.w3.org/Graphics/SVG/1.1/DTD/svg11.dtd">
<svg width="24px" height="24px" version="1.1" xmlns="http://www.w3.org/2000/svg" xmlns:xlink="http://www.w3.org/1999/xlink" xml:space="preserve" xmlns:serif="http://www.serif.com/" style="fill-rule:evenodd;clip-rule:evenodd;stroke-linecap:round;stroke-miterlimit:5;">
    <g transform="matrix(1,0,0,1,-934,-788)">
        <g id="ui.regular.euro" transform="matrix(0.800768,0,0,0.984948,934,788)">
            <rect x="0" y="0" width="29.971" height="24.367" style="fill:none;"/>
            <g transform="matrix(0.661804,0.538687,-0.662587,0.538051,37.3744,-832.509)">
                <path d="M777,800C777,804.414 773.417,807.997 769.003,807.997C764.589,807.997 761.006,804.414 761.006,800C761.006,795.586 764.589,792.003 769.003,792.003" style="fill:none;stroke:rgb(51,51,51);stroke-width:2.67px;"/>
            </g>
            <g transform="matrix(6.2367,0,0,0.834839,-4479.18,-649.845)">
                <path d="M721.003,791.784C721.003,791.113 720.913,790.568 720.803,790.568L719.2,790.568C719.09,790.568 719,791.113 719,791.784C719,792.455 719.09,793 719.2,793L720.803,793C720.913,793 721.003,792.455 721.003,791.784Z" style="fill:rgb(51,51,51);"/>
            </g>
            <g transform="matrix(6.2367,0,0,0.834839,-4479.18,-646.8)">
                <path d="M721.003,791.784C721.003,791.113 720.913,790.568 720.803,790.568L719.2,790.568C719.09,790.568 719,791.113 719,791.784C719,792.455 719.09,793 719.2,793L720.803,793C720.913,793 721.003,792.455 721.003,791.784Z" style="fill:rgb(51,51,51);"/>
            </g>
        </g>
    </g>
</svg>
