<?xml version="1.0" encoding="UTF-8" standalone="no"?>
<!DOCTYPE svg PUBLIC "-//W3C//DTD SVG 1.1//EN" "http://www.w3.org/Graphics/SVG/1.1/DTD/svg11.dtd">
<svg width="24px" height="24px" version="1.1" xmlns="http://www.w3.org/2000/svg" xmlns:xlink="http://www.w3.org/1999/xlink" xml:space="preserve" xmlns:serif="http://www.serif.com/" style="fill-rule:evenodd;clip-rule:evenodd;stroke-linejoin:round;stroke-miterlimit:1.41421;">
    <g transform="matrix(1,0,0,1,-2399,-558)">
        <g id="ui.regular.decreasingArrow" transform="matrix(0.800768,0,0,0.984948,2399,558)">
            <rect x="0" y="0" width="29.971" height="24.367" style="fill:none;"/>
            <g transform="matrix(1.2488,-0,0,-1.01528,-2935.93,591.315)">
                <path d="M2371,570.414C2371,570.679 2370.89,570.934 2370.71,571.121C2370.52,571.309 2370.26,571.414 2370,571.414C2369.45,571.414 2369,570.967 2369,570.414C2369,569.687 2369,568.828 2369,568.828C2369,568.828 2365.29,572.535 2363.71,574.121C2363.32,574.512 2362.68,574.512 2362.29,574.121C2361.41,573.234 2360,571.828 2360,571.828C2360,571.828 2357.86,573.973 2356.71,575.121C2356.52,575.309 2356.26,575.414 2356,575.414C2355.74,575.414 2355.48,575.309 2355.29,575.121C2355.11,574.934 2355,574.679 2355,574.414C2355,574.149 2355.11,573.895 2355.29,573.707C2356.33,572.669 2358.26,570.745 2359.29,569.707C2359.68,569.317 2360.32,569.317 2360.71,569.707C2361.59,570.594 2363,572 2363,572L2367.59,567.414C2367.59,567.414 2366.73,567.414 2366,567.414C2365.74,567.414 2365.48,567.309 2365.29,567.121C2365.11,566.934 2365,566.679 2365,566.414C2365,566.149 2365.11,565.895 2365.29,565.707C2365.48,565.52 2365.74,565.414 2366,565.414C2367.11,565.414 2368.89,565.414 2370,565.414C2370.26,565.414 2370.52,565.52 2370.71,565.707C2370.89,565.895 2371,566.149 2371,566.414C2371,567.524 2371,569.304 2371,570.414Z" style="fill:rgb(51,51,51);"/>
            </g>
        </g>
    </g>
</svg>
