<?xml version="1.0" encoding="UTF-8" standalone="no"?>
<!DOCTYPE svg PUBLIC "-//W3C//DTD SVG 1.1//EN" "http://www.w3.org/Graphics/SVG/1.1/DTD/svg11.dtd">
<svg width="24px" height="24px" version="1.1" xmlns="http://www.w3.org/2000/svg" xmlns:xlink="http://www.w3.org/1999/xlink" xml:space="preserve" xmlns:serif="http://www.serif.com/" style="fill-rule:evenodd;clip-rule:evenodd;stroke-linejoin:round;stroke-miterlimit:1.41421;">
    <g transform="matrix(1,0,0,1,-1875,-558)">
        <g id="ui.regular.backOne" transform="matrix(0.800768,0,0,0.984948,1875,558)">
            <rect x="0" y="0" width="29.971" height="24.367" style="fill:none;"/>
            <g transform="matrix(1.2488,0,0,1.01528,-1858.22,-566.528)">
                <path d="M1507,569C1507.27,569 1507.52,569.105 1507.71,569.293C1507.89,569.48 1508,569.735 1508,570C1508,571.732 1508,575.268 1508,577C1508,577.265 1507.89,577.52 1507.71,577.707C1507.52,577.895 1507.27,578 1507,578C1505.27,578 1501.73,578 1500,578C1499.74,578 1499.48,577.895 1499.29,577.707C1499.11,577.52 1499,577.265 1499,577C1499,575.268 1499,571.732 1499,570C1499,569.735 1499.11,569.48 1499.29,569.293C1499.48,569.105 1499.74,569 1500,569C1501.73,569 1505.27,569 1507,569ZM1507,570L1507,577L1500,577L1500,570L1507,570ZM1504,567.001C1504,567.266 1503.89,567.52 1503.71,567.707C1503.52,567.895 1503.27,568 1503,568C1503,568 1503,568 1503,568C1502.73,568 1502.48,567.895 1502.29,567.707C1502.11,567.52 1502,567.266 1502,567.001C1502,565.816 1502,564 1502,564L1494,564L1494,572C1494,572 1495.82,572 1497,572C1497.55,572 1498,572.448 1498,573C1498,573.265 1497.89,573.52 1497.71,573.707C1497.52,573.895 1497.27,574 1497,574C1495.89,574 1494.11,574 1493,574C1492.74,574 1492.48,573.895 1492.29,573.707C1492.11,573.52 1492,573.265 1492,573C1492,570.74 1492,565.26 1492,563C1492,562.735 1492.11,562.48 1492.29,562.293C1492.48,562.105 1492.74,562 1493,562C1495.26,562 1500.74,562 1503,562C1503.27,562 1503.52,562.105 1503.71,562.293C1503.89,562.48 1504,562.735 1504,563C1504,564.11 1504,565.891 1504,567.001Z"/>
            </g>
            <g transform="matrix(3.7464,0,0,0.169214,-5442.27,-89.1756)">
                <path d="M1457,572C1457,571.204 1456.98,570.441 1456.95,569.879C1456.92,569.316 1456.88,569 1456.83,569C1456.46,569 1455.54,569 1455.17,569C1455.12,569 1455.08,569.316 1455.05,569.879C1455.02,570.441 1455,571.204 1455,572C1455,572 1455,572 1455,572C1455,572.796 1455.02,573.559 1455.05,574.121C1455.08,574.684 1455.12,575 1455.17,575C1455.54,575 1456.46,575 1456.83,575C1456.88,575 1456.92,574.684 1456.95,574.121C1456.98,573.559 1457,572.796 1457,572C1457,572 1457,572 1457,572Z"/>
            </g>
            <g transform="matrix(3.7464,0,0,0.169214,-5442.27,-87.1451)">
                <path d="M1457,572C1457,571.204 1456.98,570.441 1456.95,569.879C1456.92,569.316 1456.88,569 1456.83,569C1456.46,569 1455.54,569 1455.17,569C1455.12,569 1455.08,569.316 1455.05,569.879C1455.02,570.441 1455,571.204 1455,572C1455,572 1455,572 1455,572C1455,572.796 1455.02,573.559 1455.05,574.121C1455.08,574.684 1455.12,575 1455.17,575C1455.54,575 1456.46,575 1456.83,575C1456.88,575 1456.92,574.684 1456.95,574.121C1456.98,573.559 1457,572.796 1457,572C1457,572 1457,572 1457,572Z"/>
            </g>
        </g>
    </g>
</svg>
