<?xml version="1.0" encoding="UTF-8" standalone="no"?>
<!DOCTYPE svg PUBLIC "-//W3C//DTD SVG 1.1//EN" "http://www.w3.org/Graphics/SVG/1.1/DTD/svg11.dtd">
<svg width="24px" height="24px" version="1.1" xmlns="http://www.w3.org/2000/svg" xmlns:xlink="http://www.w3.org/1999/xlink" xml:space="preserve" xmlns:serif="http://www.serif.com/" style="fill-rule:evenodd;clip-rule:evenodd;stroke-linecap:round;stroke-linejoin:round;stroke-miterlimit:1.5;">
    <g transform="matrix(1,0,0,1,-981,-558)">
        <g id="ui.regular.questionMark" transform="matrix(0.800768,0,0,0.984948,981,558)">
            <rect x="0" y="0" width="29.971" height="24.367" style="fill:none;"/>
            <g transform="matrix(1.2488,0,0,1.01528,-239.77,0)">
                <path d="M204.129,2.001L204.258,2.003L204.386,2.007L204.514,2.013L204.642,2.02L204.769,2.029L204.896,2.04L205.022,2.052L205.148,2.065L205.273,2.08L205.398,2.097L205.522,2.115L205.646,2.135L205.769,2.156L205.892,2.179L206.014,2.203L206.136,2.229L206.257,2.256L206.378,2.285L206.498,2.315L206.617,2.347L206.736,2.38L206.855,2.414L206.972,2.45L207.089,2.487L207.206,2.526L207.322,2.566L207.437,2.607L207.551,2.65L207.665,2.694L207.778,2.74L207.891,2.786L208.003,2.834L208.114,2.884L208.224,2.935L208.334,2.987L208.443,3.04L208.551,3.095L208.658,3.151L208.765,3.208L208.871,3.266L208.976,3.326L209.08,3.387L209.184,3.449L209.286,3.512L209.388,3.576L209.489,3.642L209.589,3.709L209.689,3.777L209.787,3.846L209.885,3.916L209.982,3.988L210.077,4.06L210.172,4.134L210.266,4.209L210.359,4.285L210.452,4.362L210.543,4.44L210.633,4.519L210.722,4.599L210.811,4.68L210.898,4.763L210.984,4.846L211.07,4.93L211.154,5.016L211.237,5.102L211.32,5.189L211.401,5.278L211.481,5.367L211.56,5.457L211.638,5.548L211.715,5.641L211.791,5.734L211.866,5.828L211.94,5.923L212.012,6.018L212.084,6.115L212.154,6.213L212.223,6.311L212.291,6.411L212.358,6.511L212.424,6.612L212.488,6.714L212.551,6.816L212.613,6.92L212.674,7.024L212.734,7.129L212.792,7.235L212.849,7.342L212.905,7.449L212.96,7.557L213.013,7.666L213.065,7.776L213.116,7.886L213.166,7.997L213.214,8.109L213.26,8.222L213.306,8.335L213.35,8.449L213.393,8.563L213.434,8.678L213.474,8.794L213.513,8.911L213.55,9.028L213.586,9.145L213.62,9.264L213.653,9.383L213.685,9.502L213.715,9.622L213.744,9.743L213.771,9.864L213.797,9.986L213.821,10.108L213.844,10.231L213.865,10.354L213.885,10.478L213.903,10.602L213.92,10.727L213.935,10.852L213.948,10.978L213.96,11.104L213.971,11.231L213.98,11.358L213.987,11.486L213.993,11.614L213.997,11.742L213.999,11.871L214,12L213.999,12.129L213.997,12.258L213.993,12.386L213.987,12.514L213.98,12.642L213.971,12.769L213.96,12.896L213.948,13.022L213.935,13.148L213.92,13.273L213.903,13.398L213.885,13.522L213.865,13.646L213.844,13.769L213.821,13.892L213.797,14.014L213.771,14.136L213.744,14.257L213.715,14.378L213.685,14.498L213.653,14.617L213.62,14.736L213.586,14.855L213.55,14.972L213.513,15.089L213.474,15.206L213.434,15.322L213.393,15.437L213.35,15.551L213.306,15.665L213.26,15.778L213.214,15.891L213.166,16.003L213.116,16.114L213.065,16.224L213.013,16.334L212.96,16.443L212.905,16.551L212.849,16.658L212.792,16.765L212.734,16.871L212.674,16.976L212.613,17.08L212.551,17.184L212.488,17.286L212.424,17.388L212.358,17.489L212.291,17.589L212.223,17.689L212.154,17.787L212.084,17.885L212.012,17.982L211.94,18.077L211.866,18.172L211.791,18.266L211.715,18.359L211.638,18.452L211.56,18.543L211.481,18.633L211.401,18.722L211.32,18.811L211.237,18.898L211.154,18.984L211.07,19.07L210.984,19.154L210.898,19.237L210.811,19.32L210.722,19.401L210.633,19.481L210.543,19.56L210.452,19.638L210.359,19.715L210.266,19.791L210.172,19.866L210.077,19.94L209.982,20.012L209.885,20.084L209.787,20.154L209.689,20.223L209.589,20.291L209.489,20.358L209.388,20.424L209.286,20.488L209.184,20.551L209.08,20.613L208.976,20.674L208.871,20.734L208.765,20.792L208.658,20.849L208.551,20.905L208.443,20.96L208.334,21.013L208.224,21.065L208.114,21.116L208.003,21.166L207.891,21.214L207.778,21.26L207.665,21.306L207.551,21.35L207.437,21.393L207.322,21.434L207.206,21.474L207.089,21.513L206.972,21.55L206.855,21.586L206.736,21.62L206.617,21.653L206.498,21.685L206.378,21.715L206.257,21.744L206.136,21.771L206.014,21.797L205.892,21.821L205.769,21.844L205.646,21.865L205.522,21.885L205.398,21.903L205.273,21.92L205.148,21.935L205.022,21.948L204.896,21.96L204.769,21.971L204.642,21.98L204.514,21.987L204.386,21.993L204.258,21.997L204.129,21.999L204,22L203.871,21.999L203.742,21.997L203.614,21.993L203.486,21.987L203.358,21.98L203.231,21.971L203.104,21.96L202.978,21.948L202.852,21.935L202.727,21.92L202.602,21.903L202.478,21.885L202.354,21.865L202.231,21.844L202.108,21.821L201.986,21.797L201.864,21.771L201.743,21.744L201.622,21.715L201.502,21.685L201.383,21.653L201.264,21.62L201.145,21.586L201.028,21.55L200.911,21.513L200.794,21.474L200.678,21.434L200.563,21.393L200.449,21.35L200.335,21.306L200.222,21.26L200.109,21.214L199.997,21.166L199.886,21.116L199.776,21.065L199.666,21.013L199.557,20.96L199.449,20.905L199.342,20.849L199.235,20.792L199.129,20.734L199.024,20.674L198.92,20.613L198.816,20.551L198.714,20.488L198.612,20.424L198.511,20.358L198.411,20.291L198.311,20.223L198.213,20.154L198.115,20.084L198.018,20.012L197.923,19.94L197.828,19.866L197.734,19.791L197.641,19.715L197.548,19.638L197.457,19.56L197.367,19.481L197.278,19.401L197.189,19.32L197.102,19.237L197.016,19.154L196.93,19.07L196.846,18.984L196.763,18.898L196.68,18.811L196.599,18.722L196.519,18.633L196.44,18.543L196.362,18.452L196.285,18.359L196.209,18.266L196.134,18.172L196.06,18.077L195.988,17.982L195.916,17.885L195.846,17.787L195.777,17.689L195.709,17.589L195.642,17.489L195.576,17.388L195.512,17.286L195.449,17.184L195.387,17.08L195.326,16.976L195.266,16.871L195.208,16.765L195.151,16.658L195.095,16.551L195.04,16.443L194.987,16.334L194.935,16.224L194.884,16.114L194.834,16.003L194.786,15.891L194.74,15.778L194.694,15.665L194.65,15.551L194.607,15.437L194.566,15.322L194.526,15.206L194.487,15.089L194.45,14.972L194.414,14.855L194.38,14.736L194.347,14.617L194.315,14.498L194.285,14.378L194.256,14.257L194.229,14.136L194.203,14.014L194.179,13.892L194.156,13.769L194.135,13.646L194.115,13.522L194.097,13.398L194.08,13.273L194.065,13.148L194.052,13.022L194.04,12.896L194.029,12.769L194.02,12.642L194.013,12.514L194.007,12.386L194.003,12.258L194.001,12.129L194,12L194.001,11.871L194.003,11.742L194.007,11.614L194.013,11.486L194.02,11.358L194.029,11.231L194.04,11.104L194.052,10.978L194.065,10.852L194.08,10.727L194.097,10.602L194.115,10.478L194.135,10.354L194.156,10.231L194.179,10.108L194.203,9.986L194.229,9.864L194.256,9.743L194.285,9.622L194.315,9.502L194.347,9.383L194.38,9.264L194.414,9.145L194.45,9.028L194.487,8.911L194.526,8.794L194.566,8.678L194.607,8.563L194.65,8.449L194.694,8.335L194.74,8.222L194.786,8.109L194.834,7.997L194.884,7.886L194.935,7.776L194.987,7.666L195.04,7.557L195.095,7.449L195.151,7.342L195.208,7.235L195.266,7.129L195.326,7.024L195.387,6.92L195.449,6.816L195.512,6.714L195.576,6.612L195.642,6.511L195.709,6.411L195.777,6.311L195.846,6.213L195.916,6.115L195.988,6.018L196.06,5.923L196.134,5.828L196.209,5.734L196.285,5.641L196.362,5.548L196.44,5.457L196.519,5.367L196.599,5.278L196.68,5.189L196.763,5.102L196.846,5.016L196.93,4.93L197.016,4.846L197.102,4.763L197.189,4.68L197.278,4.599L197.367,4.519L197.457,4.44L197.548,4.362L197.641,4.285L197.734,4.209L197.828,4.134L197.923,4.06L198.018,3.988L198.115,3.916L198.213,3.846L198.311,3.777L198.411,3.709L198.511,3.642L198.612,3.576L198.714,3.512L198.816,3.449L198.92,3.387L199.024,3.326L199.129,3.266L199.235,3.208L199.342,3.151L199.449,3.095L199.557,3.04L199.666,2.987L199.776,2.935L199.886,2.884L199.997,2.834L200.109,2.786L200.222,2.74L200.335,2.694L200.449,2.65L200.563,2.607L200.678,2.566L200.794,2.526L200.911,2.487L201.028,2.45L201.145,2.414L201.264,2.38L201.383,2.347L201.502,2.315L201.622,2.285L201.743,2.256L201.864,2.229L201.986,2.203L202.108,2.179L202.231,2.156L202.354,2.135L202.478,2.115L202.602,2.097L202.727,2.08L202.852,2.065L202.978,2.052L203.104,2.04L203.231,2.029L203.358,2.02L203.486,2.013L203.614,2.007L203.742,2.003L203.871,2.001L204,2L204.129,2.001ZM203.896,4.001L203.793,4.003L203.69,4.006L203.587,4.01L203.485,4.016L203.383,4.023L203.282,4.032L203.181,4.041L203.079,4.052L202.98,4.064L202.88,4.078L202.781,4.092L202.681,4.108L202.583,4.125L202.485,4.143L202.387,4.163L202.29,4.183L202.193,4.205L202.097,4.228L202.001,4.252L201.905,4.277L201.811,4.303L201.716,4.331L201.622,4.36L201.529,4.389L201.436,4.42L201.343,4.452L201.251,4.485L201.16,4.519L201.069,4.555L200.979,4.591L200.889,4.628L200.799,4.667L200.711,4.706L200.622,4.747L200.535,4.788L200.448,4.831L200.361,4.875L200.275,4.919L200.19,4.965L200.105,5.012L200.021,5.059L199.938,5.108L199.855,5.158L199.773,5.208L199.691,5.26L199.611,5.312L199.53,5.366L199.451,5.42L199.372,5.476L199.294,5.532L199.216,5.589L199.14,5.648L199.064,5.706L198.988,5.766L198.914,5.827L198.84,5.889L198.767,5.951L198.695,6.015L198.623,6.079L198.552,6.144L198.482,6.21L198.413,6.277L198.345,6.345L198.277,6.413L198.21,6.482L198.144,6.552L198.079,6.623L198.015,6.695L197.951,6.767L197.889,6.84L197.827,6.914L197.766,6.988L197.706,7.064L197.648,7.14L197.589,7.216L197.532,7.294L197.476,7.372L197.42,7.451L197.366,7.53L197.312,7.611L197.26,7.691L197.208,7.773L197.158,7.855L197.108,7.938L197.059,8.021L197.012,8.105L196.965,8.19L196.919,8.275L196.875,8.361L196.831,8.448L196.788,8.535L196.747,8.622L196.706,8.711L196.667,8.799L196.628,8.889L196.591,8.979L196.555,9.069L196.519,9.16L196.485,9.251L196.452,9.343L196.42,9.436L196.389,9.529L196.36,9.622L196.331,9.716L196.303,9.811L196.277,9.905L196.252,10.001L196.228,10.097L196.205,10.193L196.183,10.29L196.163,10.387L196.143,10.485L196.125,10.583L196.108,10.681L196.092,10.781L196.078,10.88L196.064,10.98L196.052,11.079L196.041,11.181L196.032,11.282L196.023,11.383L196.016,11.485L196.01,11.587L196.006,11.69L196.003,11.793L196.001,11.896L196,12L196.001,12.104L196.003,12.207L196.006,12.31L196.01,12.413L196.016,12.515L196.023,12.617L196.032,12.718L196.041,12.819L196.052,12.921L196.064,13.02L196.078,13.12L196.092,13.219L196.108,13.319L196.125,13.417L196.143,13.515L196.163,13.613L196.183,13.71L196.205,13.807L196.228,13.903L196.252,13.999L196.277,14.095L196.303,14.189L196.331,14.284L196.36,14.378L196.389,14.471L196.42,14.564L196.452,14.657L196.485,14.749L196.519,14.84L196.555,14.931L196.591,15.021L196.628,15.111L196.667,15.201L196.706,15.289L196.747,15.378L196.788,15.465L196.831,15.552L196.875,15.639L196.919,15.725L196.965,15.81L197.012,15.895L197.059,15.979L197.108,16.062L197.158,16.145L197.208,16.227L197.26,16.309L197.312,16.389L197.366,16.47L197.42,16.549L197.476,16.628L197.532,16.706L197.589,16.784L197.648,16.86L197.706,16.936L197.766,17.012L197.827,17.086L197.889,17.16L197.951,17.233L198.015,17.305L198.079,17.377L198.144,17.448L198.21,17.518L198.277,17.587L198.345,17.655L198.413,17.723L198.482,17.79L198.552,17.856L198.623,17.921L198.695,17.985L198.767,18.049L198.84,18.111L198.914,18.173L198.988,18.234L199.064,18.294L199.14,18.352L199.216,18.411L199.294,18.468L199.372,18.524L199.451,18.58L199.53,18.634L199.611,18.688L199.691,18.74L199.773,18.792L199.855,18.842L199.938,18.892L200.021,18.941L200.105,18.988L200.19,19.035L200.275,19.081L200.361,19.125L200.448,19.169L200.535,19.212L200.622,19.253L200.711,19.294L200.799,19.333L200.889,19.372L200.979,19.409L201.069,19.445L201.16,19.481L201.251,19.515L201.343,19.548L201.436,19.58L201.529,19.611L201.622,19.64L201.716,19.669L201.811,19.697L201.905,19.723L202.001,19.748L202.097,19.772L202.193,19.795L202.29,19.817L202.387,19.837L202.485,19.857L202.583,19.875L202.681,19.892L202.781,19.908L202.88,19.922L202.98,19.936L203.079,19.948L203.181,19.959L203.282,19.968L203.383,19.977L203.485,19.984L203.587,19.99L203.69,19.994L203.793,19.997L203.896,19.999L204,20L204.104,19.999L204.207,19.997L204.31,19.994L204.413,19.99L204.515,19.984L204.617,19.977L204.718,19.968L204.819,19.959L204.921,19.948L205.02,19.936L205.12,19.922L205.219,19.908L205.319,19.892L205.417,19.875L205.515,19.857L205.613,19.837L205.71,19.817L205.807,19.795L205.903,19.772L205.999,19.748L206.095,19.723L206.189,19.697L206.284,19.669L206.378,19.64L206.471,19.611L206.564,19.58L206.657,19.548L206.749,19.515L206.84,19.481L206.931,19.445L207.021,19.409L207.111,19.372L207.201,19.333L207.289,19.294L207.378,19.253L207.465,19.212L207.552,19.169L207.639,19.125L207.725,19.081L207.81,19.035L207.895,18.988L207.979,18.941L208.062,18.892L208.145,18.842L208.227,18.792L208.309,18.74L208.389,18.688L208.47,18.634L208.549,18.58L208.628,18.524L208.706,18.468L208.784,18.411L208.86,18.352L208.936,18.294L209.012,18.234L209.086,18.173L209.16,18.111L209.233,18.049L209.305,17.985L209.377,17.921L209.448,17.856L209.518,17.79L209.587,17.723L209.655,17.655L209.723,17.587L209.79,17.518L209.856,17.448L209.921,17.377L209.985,17.305L210.049,17.233L210.111,17.16L210.173,17.086L210.234,17.012L210.294,16.936L210.352,16.86L210.411,16.784L210.468,16.706L210.524,16.628L210.58,16.549L210.634,16.47L210.688,16.389L210.74,16.309L210.792,16.227L210.842,16.145L210.892,16.062L210.941,15.979L210.988,15.895L211.035,15.81L211.081,15.725L211.125,15.639L211.169,15.552L211.212,15.465L211.253,15.378L211.294,15.289L211.333,15.201L211.372,15.111L211.409,15.021L211.445,14.931L211.481,14.84L211.515,14.749L211.548,14.657L211.58,14.564L211.611,14.471L211.64,14.378L211.669,14.284L211.697,14.189L211.723,14.095L211.748,13.999L211.772,13.903L211.795,13.807L211.817,13.71L211.837,13.613L211.857,13.515L211.875,13.417L211.892,13.319L211.908,13.219L211.922,13.12L211.936,13.02L211.948,12.921L211.959,12.819L211.968,12.718L211.977,12.617L211.984,12.515L211.99,12.413L211.994,12.31L211.997,12.207L211.999,12.104L212,12L211.999,11.896L211.997,11.793L211.994,11.69L211.99,11.587L211.984,11.485L211.977,11.383L211.968,11.282L211.959,11.181L211.948,11.079L211.936,10.98L211.922,10.88L211.908,10.781L211.892,10.681L211.875,10.583L211.857,10.485L211.837,10.387L211.817,10.29L211.795,10.193L211.772,10.097L211.748,10.001L211.723,9.905L211.697,9.811L211.669,9.716L211.64,9.622L211.611,9.529L211.58,9.436L211.548,9.343L211.515,9.251L211.481,9.16L211.445,9.069L211.409,8.979L211.372,8.889L211.333,8.799L211.294,8.711L211.253,8.622L211.212,8.535L211.169,8.448L211.125,8.361L211.081,8.275L211.035,8.19L210.988,8.105L210.941,8.021L210.892,7.938L210.842,7.855L210.792,7.773L210.74,7.691L210.688,7.611L210.634,7.53L210.58,7.451L210.524,7.372L210.468,7.294L210.411,7.216L210.352,7.14L210.294,7.064L210.234,6.988L210.173,6.914L210.111,6.84L210.049,6.767L209.985,6.695L209.921,6.623L209.856,6.552L209.79,6.482L209.723,6.413L209.655,6.345L209.587,6.277L209.518,6.21L209.448,6.144L209.377,6.079L209.305,6.015L209.233,5.951L209.16,5.889L209.086,5.827L209.012,5.766L208.936,5.706L208.86,5.648L208.784,5.589L208.706,5.532L208.628,5.476L208.549,5.42L208.47,5.366L208.389,5.312L208.309,5.26L208.227,5.208L208.145,5.158L208.062,5.108L207.979,5.059L207.895,5.012L207.81,4.965L207.725,4.919L207.639,4.875L207.552,4.831L207.465,4.788L207.378,4.747L207.289,4.706L207.201,4.667L207.111,4.628L207.021,4.591L206.931,4.555L206.84,4.519L206.749,4.485L206.657,4.452L206.564,4.42L206.471,4.389L206.378,4.36L206.284,4.331L206.189,4.303L206.095,4.277L205.999,4.252L205.903,4.228L205.807,4.205L205.71,4.183L205.613,4.163L205.515,4.143L205.417,4.125L205.319,4.108L205.219,4.092L205.12,4.078L205.02,4.064L204.921,4.052L204.819,4.041L204.718,4.032L204.617,4.023L204.515,4.016L204.413,4.01L204.31,4.006L204.207,4.003L204.104,4.001L204,4L203.896,4.001Z" style="fill:rgb(51,51,51);"/>
            </g>
            <g transform="matrix(-1.2488,0,0,1.01528,29.9712,-205.087)">
                <circle cx="12" cy="218" r="1" style="fill:rgb(51,51,51);"/>
            </g>
            <g transform="matrix(0.832534,0,0,0.676855,-77.4256,-376.67)">
                <path d="M108,570C108,568.344 109.344,567 111,567C112.656,567 114,568.344 114,570" style="fill:none;stroke:rgb(51,51,51);stroke-width:3px;"/>
            </g>
            <g transform="matrix(1.2488,0,0,1.01528,-1797.02,-566.528)">
                <circle cx="1449" cy="567" r="1" style="fill:none;"/>
            </g>
            <g transform="matrix(1.2488,0,0,1.01528,-119.885,-566.528)">
                <path d="M108,571C108.012,570.205 107.998,570.738 108,570C108.002,568.954 109.884,568.943 110,567" style="fill:none;stroke:rgb(51,51,51);stroke-width:2px;"/>
            </g>
        </g>
    </g>
</svg>
