<?xml version="1.0" encoding="UTF-8" standalone="no"?>
<!DOCTYPE svg PUBLIC "-//W3C//DTD SVG 1.1//EN" "http://www.w3.org/Graphics/SVG/1.1/DTD/svg11.dtd">
<svg width="24px" height="24px" version="1.1" xmlns="http://www.w3.org/2000/svg" xmlns:xlink="http://www.w3.org/1999/xlink" xml:space="preserve" xmlns:serif="http://www.serif.com/" style="fill-rule:evenodd;clip-rule:evenodd;stroke-linejoin:round;stroke-miterlimit:1.41421;">
    <g transform="matrix(1,0,0,1,-1365,-558)">
        <g id="ui.regular.crop" transform="matrix(0.800768,0,0,0.984948,1365,558)">
            <rect x="0" y="0" width="29.971" height="24.367" style="fill:none;"/>
            <g transform="matrix(1.2488,0,0,1.01528,-2276.56,-566.528)">
                <path d="M1831,564C1831,564 1837.47,564 1840,564C1840.55,564 1841,564.448 1841,565C1841,567.533 1841,574 1841,574C1841,574 1842.82,574 1844,574C1844.55,574 1845,574.448 1845,575C1845,575.552 1844.55,576 1844,576C1842.82,576 1841,576 1841,576C1841,576 1841,577.815 1841,579C1841,579.552 1840.55,580 1840,580C1839.45,580 1839,579.552 1839,579C1839,577.815 1839,576 1839,576C1839,576 1832.53,576 1830,576C1829.45,576 1829,575.552 1829,575C1829,572.467 1829,566 1829,566C1829,566 1827.18,566 1826,566C1825.45,566 1825,565.552 1825,565C1825,564.448 1825.45,564 1826,564C1827.18,564 1829,564 1829,564C1829,564 1829,562.185 1829,561C1829,560.448 1829.45,560 1830,560C1830.55,560 1831,560.448 1831,561C1831,562.185 1831,564 1831,564ZM1831,566L1831,574L1839,574L1839,566L1831,566Z" style="fill:rgb(51,51,51);"/>
            </g>
        </g>
    </g>
</svg>
