<?xml version="1.0" encoding="UTF-8" standalone="no"?>
<!DOCTYPE svg PUBLIC "-//W3C//DTD SVG 1.1//EN" "http://www.w3.org/Graphics/SVG/1.1/DTD/svg11.dtd">
<svg width="24px" height="24px" version="1.1" xmlns="http://www.w3.org/2000/svg" xmlns:xlink="http://www.w3.org/1999/xlink" xml:space="preserve" xmlns:serif="http://www.serif.com/" style="fill-rule:evenodd;clip-rule:evenodd;stroke-linejoin:round;stroke-miterlimit:1.41421;">
    <g transform="matrix(1,0,0,1,-2901,-558)">
        <g id="ui.regular.alignRight" transform="matrix(0.800768,0,0,0.984948,2901,558)">
            <rect x="0" y="0" width="29.971" height="24.367" style="fill:none;"/>
            <g transform="matrix(1.2488,0,0,1.01528,-3622.77,-566.528)">
                <path d="M2922,560C2922.26,560 2922.52,560.105 2922.71,560.293C2922.89,560.48 2923,560.735 2923,561C2923,564.414 2923,575.586 2923,579C2923,579.265 2922.89,579.52 2922.71,579.707C2922.52,579.895 2922.26,580 2922,580C2921.74,580 2921.48,579.895 2921.29,579.707C2921.11,579.52 2921,579.265 2921,579C2921,575.586 2921,564.414 2921,561C2921,560.735 2921.11,560.48 2921.29,560.293C2921.48,560.105 2921.74,560 2922,560C2922,560 2922,560 2922,560ZM2920,575C2920,575.552 2919.55,576 2919,576C2917.08,576 2912.92,576 2911,576C2910.45,576 2910,575.552 2910,575C2910,574.129 2910,572.871 2910,572C2910,571.448 2910.45,571 2911,571C2912.92,571 2917.08,571 2919,571C2919.55,571 2920,571.448 2920,572C2920,572.871 2920,574.129 2920,575ZM2918,573L2912,573L2912,574L2918,574L2918,573ZM2920,568C2920,568.552 2919.55,569 2919,569C2916.13,569 2907.87,569 2905,569C2904.45,569 2904,568.552 2904,568C2904,567.129 2904,565.871 2904,565C2904,564.448 2904.45,564 2905,564C2907.87,564 2916.13,564 2919,564C2919.55,564 2920,564.448 2920,565C2920,565.871 2920,567.129 2920,568ZM2918,566L2906,566L2906,567L2918,567L2918,566Z" style="fill:rgb(51,51,51);"/>
            </g>
        </g>
    </g>
</svg>
