<?xml version="1.0" encoding="UTF-8" standalone="no"?><!DOCTYPE svg PUBLIC "-//W3C//DTD SVG 1.1//EN" "http://www.w3.org/Graphics/SVG/1.1/DTD/svg11.dtd"><svg width="100%" height="100%" viewBox="0 0 24 24" version="1.1" xmlns="http://www.w3.org/2000/svg" xmlns:xlink="http://www.w3.org/1999/xlink" xml:space="preserve" xmlns:serif="http://www.serif.com/" style="fill-rule:evenodd;clip-rule:evenodd;stroke-linejoin:round;stroke-miterlimit:1.41421;"><rect id="ui.regular.external" x="0" y="0" width="24" height="24" style="fill:none;"/><path d="M8,5c0,0.552 -0.448,1 -1,1c-0.5,0 -1,0 -1,0l0,12l12,0c0,0 0,-0.5 0,-1c0,-0.552 0.448,-1 1,-1c0.552,0 1,0.448 1,1c0,0.611 0,1.389 0,2c0,0.552 -0.448,1 -1,1c-2.873,0 -11.127,0 -14,0c-0.552,0 -1,-0.448 -1,-1c0,-2.873 0,-11.127 0,-14c0,-0.265 0.105,-0.52 0.293,-0.707c0.187,-0.188 0.442,-0.293 0.707,-0.293c0.611,0 1.389,0 2,0c0.265,0 0.52,0.105 0.707,0.293c0.188,0.187 0.293,0.442 0.293,0.707c0,0 0,0 0,0Zm2,0c0,-0.552 0.448,-1 1,-1c1.916,0 6.084,0 8,0c0.552,0 1,0.448 1,1c0,1.916 0,6.084 0,8c0,0.552 -0.448,1 -1,1c-0.552,0 -1,-0.448 -1,-1c0,-1.843 0,-5.59 0,-5.59c0,0 -4.921,4.909 -6.789,6.773c-0.391,0.39 -1.025,0.389 -1.415,-0.002c-0.39,-0.391 -0.389,-1.024 0.002,-1.414c1.867,-1.863 6.784,-6.767 6.784,-6.767c0,0 -3.741,0 -5.582,0c-0.552,0 -1,-0.448 -1,-1c0,0 0,0 0,0Z" style="fill:#333;"/></svg>