<?xml version="1.0" encoding="UTF-8" standalone="no"?>
<!DOCTYPE svg PUBLIC "-//W3C//DTD SVG 1.1//EN" "http://www.w3.org/Graphics/SVG/1.1/DTD/svg11.dtd">
<svg width="24px" height="24px" version="1.1" xmlns="http://www.w3.org/2000/svg" xmlns:xlink="http://www.w3.org/1999/xlink" xml:space="preserve" xmlns:serif="http://www.serif.com/" style="fill-rule:evenodd;clip-rule:evenodd;stroke-linejoin:round;stroke-miterlimit:1.41421;">
    <g transform="matrix(1,0,0,1,0,-558)">
        <g id="ui.regular.info" transform="matrix(0.800768,0,0,0.984948,0,558)">
            <rect x="0" y="0" width="29.971" height="24.367" style="fill:none;"/>
            <g transform="matrix(1.2488,0,0,1.01528,-1677.14,-566.528)">
                <path d="M1355.13,560.001L1355.26,560.003L1355.39,560.007L1355.51,560.013L1355.64,560.02L1355.77,560.029L1355.9,560.04L1356.02,560.052L1356.15,560.065L1356.27,560.08L1356.4,560.097L1356.52,560.115L1356.65,560.135L1356.77,560.156L1356.89,560.179L1357.01,560.203L1357.14,560.229L1357.26,560.256L1357.38,560.285L1357.5,560.315L1357.62,560.347L1357.74,560.38L1357.86,560.414L1357.97,560.45L1358.09,560.487L1358.21,560.526L1358.32,560.566L1358.44,560.607L1358.55,560.65L1358.66,560.694L1358.78,560.74L1358.89,560.786L1359,560.834L1359.11,560.884L1359.22,560.935L1359.33,560.987L1359.44,561.04L1359.55,561.095L1359.66,561.151L1359.77,561.208L1359.87,561.266L1359.98,561.326L1360.08,561.387L1360.18,561.449L1360.29,561.512L1360.39,561.576L1360.49,561.642L1360.59,561.709L1360.69,561.777L1360.79,561.846L1360.88,561.916L1360.98,561.988L1361.08,562.06L1361.17,562.134L1361.27,562.209L1361.36,562.285L1361.45,562.362L1361.54,562.44L1361.63,562.519L1361.72,562.599L1361.81,562.68L1361.9,562.763L1361.98,562.846L1362.07,562.93L1362.15,563.016L1362.24,563.102L1362.32,563.189L1362.4,563.278L1362.48,563.367L1362.56,563.457L1362.64,563.548L1362.71,563.641L1362.79,563.734L1362.87,563.828L1362.94,563.923L1363.01,564.018L1363.08,564.115L1363.15,564.213L1363.22,564.311L1363.29,564.411L1363.36,564.511L1363.42,564.612L1363.49,564.714L1363.55,564.816L1363.61,564.92L1363.67,565.024L1363.73,565.129L1363.79,565.235L1363.85,565.342L1363.9,565.449L1363.96,565.557L1364.01,565.666L1364.07,565.776L1364.12,565.886L1364.17,565.997L1364.21,566.109L1364.26,566.222L1364.31,566.335L1364.35,566.449L1364.39,566.563L1364.43,566.678L1364.47,566.794L1364.51,566.911L1364.55,567.028L1364.59,567.145L1364.62,567.264L1364.65,567.383L1364.68,567.502L1364.71,567.622L1364.74,567.743L1364.77,567.864L1364.8,567.986L1364.82,568.108L1364.84,568.231L1364.87,568.354L1364.88,568.478L1364.9,568.602L1364.92,568.727L1364.93,568.852L1364.95,568.978L1364.96,569.104L1364.97,569.231L1364.98,569.358L1364.99,569.486L1364.99,569.614L1365,569.742L1365,569.871L1365,570L1365,570.129L1365,570.258L1364.99,570.386L1364.99,570.514L1364.98,570.642L1364.97,570.769L1364.96,570.896L1364.95,571.022L1364.93,571.148L1364.92,571.273L1364.9,571.398L1364.88,571.522L1364.87,571.646L1364.84,571.769L1364.82,571.892L1364.8,572.014L1364.77,572.136L1364.74,572.257L1364.71,572.378L1364.68,572.498L1364.65,572.617L1364.62,572.736L1364.59,572.855L1364.55,572.972L1364.51,573.089L1364.47,573.206L1364.43,573.322L1364.39,573.437L1364.35,573.551L1364.31,573.665L1364.26,573.778L1364.21,573.891L1364.17,574.003L1364.12,574.114L1364.07,574.224L1364.01,574.334L1363.96,574.443L1363.9,574.551L1363.85,574.658L1363.79,574.765L1363.73,574.871L1363.67,574.976L1363.61,575.08L1363.55,575.184L1363.49,575.286L1363.42,575.388L1363.36,575.489L1363.29,575.589L1363.22,575.689L1363.15,575.787L1363.08,575.885L1363.01,575.982L1362.94,576.077L1362.87,576.172L1362.79,576.266L1362.71,576.359L1362.64,576.452L1362.56,576.543L1362.48,576.633L1362.4,576.722L1362.32,576.811L1362.24,576.898L1362.15,576.984L1362.07,577.07L1361.98,577.154L1361.9,577.237L1361.81,577.32L1361.72,577.401L1361.63,577.481L1361.54,577.56L1361.45,577.638L1361.36,577.715L1361.27,577.791L1361.17,577.866L1361.08,577.94L1360.98,578.012L1360.88,578.084L1360.79,578.154L1360.69,578.223L1360.59,578.291L1360.49,578.358L1360.39,578.424L1360.29,578.488L1360.18,578.551L1360.08,578.613L1359.98,578.674L1359.87,578.734L1359.77,578.792L1359.66,578.849L1359.55,578.905L1359.44,578.96L1359.33,579.013L1359.22,579.065L1359.11,579.116L1359,579.166L1358.89,579.214L1358.78,579.26L1358.66,579.306L1358.55,579.35L1358.44,579.393L1358.32,579.434L1358.21,579.474L1358.09,579.513L1357.97,579.55L1357.86,579.586L1357.74,579.62L1357.62,579.653L1357.5,579.685L1357.38,579.715L1357.26,579.744L1357.14,579.771L1357.01,579.797L1356.89,579.821L1356.77,579.844L1356.65,579.865L1356.52,579.885L1356.4,579.903L1356.27,579.92L1356.15,579.935L1356.02,579.948L1355.9,579.96L1355.77,579.971L1355.64,579.98L1355.51,579.987L1355.39,579.993L1355.26,579.997L1355.13,579.999L1355,580L1354.87,579.999L1354.74,579.997L1354.61,579.993L1354.49,579.987L1354.36,579.98L1354.23,579.971L1354.1,579.96L1353.98,579.948L1353.85,579.935L1353.73,579.92L1353.6,579.903L1353.48,579.885L1353.35,579.865L1353.23,579.844L1353.11,579.821L1352.99,579.797L1352.86,579.771L1352.74,579.744L1352.62,579.715L1352.5,579.685L1352.38,579.653L1352.26,579.62L1352.14,579.586L1352.03,579.55L1351.91,579.513L1351.79,579.474L1351.68,579.434L1351.56,579.393L1351.45,579.35L1351.34,579.306L1351.22,579.26L1351.11,579.214L1351,579.166L1350.89,579.116L1350.78,579.065L1350.67,579.013L1350.56,578.96L1350.45,578.905L1350.34,578.849L1350.24,578.792L1350.13,578.734L1350.02,578.674L1349.92,578.613L1349.82,578.551L1349.71,578.488L1349.61,578.424L1349.51,578.358L1349.41,578.291L1349.31,578.223L1349.21,578.154L1349.12,578.084L1349.02,578.012L1348.92,577.94L1348.83,577.866L1348.73,577.791L1348.64,577.715L1348.55,577.638L1348.46,577.56L1348.37,577.481L1348.28,577.401L1348.19,577.32L1348.1,577.237L1348.02,577.154L1347.93,577.07L1347.85,576.984L1347.76,576.898L1347.68,576.811L1347.6,576.722L1347.52,576.633L1347.44,576.543L1347.36,576.452L1347.29,576.359L1347.21,576.266L1347.13,576.172L1347.06,576.077L1346.99,575.982L1346.92,575.885L1346.85,575.787L1346.78,575.689L1346.71,575.589L1346.64,575.489L1346.58,575.388L1346.51,575.286L1346.45,575.184L1346.39,575.08L1346.33,574.976L1346.27,574.871L1346.21,574.765L1346.15,574.658L1346.1,574.551L1346.04,574.443L1345.99,574.334L1345.93,574.224L1345.88,574.114L1345.83,574.003L1345.79,573.891L1345.74,573.778L1345.69,573.665L1345.65,573.551L1345.61,573.437L1345.57,573.322L1345.53,573.206L1345.49,573.089L1345.45,572.972L1345.41,572.855L1345.38,572.736L1345.35,572.617L1345.32,572.498L1345.29,572.378L1345.26,572.257L1345.23,572.136L1345.2,572.014L1345.18,571.892L1345.16,571.769L1345.13,571.646L1345.12,571.522L1345.1,571.398L1345.08,571.273L1345.07,571.148L1345.05,571.022L1345.04,570.896L1345.03,570.769L1345.02,570.642L1345.01,570.514L1345.01,570.386L1345,570.258L1345,570.129L1345,570L1345,569.871L1345,569.742L1345.01,569.614L1345.01,569.486L1345.02,569.358L1345.03,569.231L1345.04,569.104L1345.05,568.978L1345.07,568.852L1345.08,568.727L1345.1,568.602L1345.12,568.478L1345.13,568.354L1345.16,568.231L1345.18,568.108L1345.2,567.986L1345.23,567.864L1345.26,567.743L1345.29,567.622L1345.32,567.502L1345.35,567.383L1345.38,567.264L1345.41,567.145L1345.45,567.028L1345.49,566.911L1345.53,566.794L1345.57,566.678L1345.61,566.563L1345.65,566.449L1345.69,566.335L1345.74,566.222L1345.79,566.109L1345.83,565.997L1345.88,565.886L1345.93,565.776L1345.99,565.666L1346.04,565.557L1346.1,565.449L1346.15,565.342L1346.21,565.235L1346.27,565.129L1346.33,565.024L1346.39,564.92L1346.45,564.816L1346.51,564.714L1346.58,564.612L1346.64,564.511L1346.71,564.411L1346.78,564.311L1346.85,564.213L1346.92,564.115L1346.99,564.018L1347.06,563.923L1347.13,563.828L1347.21,563.734L1347.29,563.641L1347.36,563.548L1347.44,563.457L1347.52,563.367L1347.6,563.278L1347.68,563.189L1347.76,563.102L1347.85,563.016L1347.93,562.93L1348.02,562.846L1348.1,562.763L1348.19,562.68L1348.28,562.599L1348.37,562.519L1348.46,562.44L1348.55,562.362L1348.64,562.285L1348.73,562.209L1348.83,562.134L1348.92,562.06L1349.02,561.988L1349.12,561.916L1349.21,561.846L1349.31,561.777L1349.41,561.709L1349.51,561.642L1349.61,561.576L1349.71,561.512L1349.82,561.449L1349.92,561.387L1350.02,561.326L1350.13,561.266L1350.24,561.208L1350.34,561.151L1350.45,561.095L1350.56,561.04L1350.67,560.987L1350.78,560.935L1350.89,560.884L1351,560.834L1351.11,560.786L1351.22,560.74L1351.34,560.694L1351.45,560.65L1351.56,560.607L1351.68,560.566L1351.79,560.526L1351.91,560.487L1352.03,560.45L1352.14,560.414L1352.26,560.38L1352.38,560.347L1352.5,560.315L1352.62,560.285L1352.74,560.256L1352.86,560.229L1352.99,560.203L1353.11,560.179L1353.23,560.156L1353.35,560.135L1353.48,560.115L1353.6,560.097L1353.73,560.08L1353.85,560.065L1353.98,560.052L1354.1,560.04L1354.23,560.029L1354.36,560.02L1354.49,560.013L1354.61,560.007L1354.74,560.003L1354.87,560.001L1355,560L1355.13,560.001ZM1350.52,577.808L1350.62,577.861L1350.71,577.914L1350.81,577.965L1350.9,578.015L1351,578.064L1351.1,578.112L1351.2,578.159L1351.3,578.205L1351.4,578.249L1351.5,578.293L1351.6,578.335L1351.7,578.376L1351.8,578.415L1351.91,578.454L1352.01,578.491L1352.12,578.527L1352.22,578.562L1352.33,578.595L1352.43,578.627L1352.54,578.658L1352.64,578.688L1352.75,578.717L1352.86,578.744L1352.97,578.769L1353.08,578.794L1353.19,578.817L1353.3,578.839L1353.41,578.859L1353.52,578.878L1353.63,578.896L1353.74,578.913L1353.85,578.928L1353.97,578.941L1354.08,578.953L1354.19,578.964L1354.31,578.974L1354.42,578.982L1354.54,578.988L1354.65,578.993L1354.77,578.997L1354.65,578.993L1354.54,578.988L1354.42,578.982L1354.31,578.974L1354.19,578.964L1354.08,578.954L1353.97,578.941L1353.86,578.928L1353.74,578.913L1353.63,578.896L1353.52,578.878L1353.41,578.859L1353.3,578.839L1353.19,578.817L1353.08,578.794L1352.97,578.769L1352.86,578.743L1352.75,578.716L1352.64,578.688L1352.54,578.658L1352.43,578.627L1352.33,578.595L1352.22,578.561L1352.12,578.527L1352.01,578.491L1351.91,578.453L1351.8,578.415L1351.7,578.375L1351.6,578.334L1351.5,578.292L1351.4,578.249L1351.3,578.204L1351.2,578.158L1351.1,578.111L1351,578.063L1350.9,578.014L1350.81,577.964L1350.71,577.912L1350.62,577.86L1350.52,577.807L1350.52,577.808ZM1359.38,577.86L1359.29,577.912L1359.19,577.964L1359.1,578.014L1359,578.063L1358.9,578.111L1358.8,578.158L1358.7,578.204L1358.6,578.249L1358.5,578.292L1358.4,578.334L1358.3,578.375L1358.2,578.415L1358.09,578.453L1357.99,578.491L1357.88,578.527L1357.78,578.561L1357.67,578.595L1357.57,578.627L1357.46,578.658L1357.36,578.688L1357.25,578.716L1357.14,578.743L1357.03,578.769L1356.92,578.794L1356.81,578.817L1356.7,578.839L1356.59,578.859L1356.48,578.878L1356.37,578.896L1356.26,578.913L1356.14,578.928L1356.03,578.941L1355.92,578.954L1355.81,578.964L1355.69,578.974L1355.58,578.982L1355.46,578.988L1355.35,578.993L1355.23,578.997L1355.23,578.997L1355.35,578.993L1355.46,578.988L1355.58,578.982L1355.69,578.974L1355.81,578.964L1355.92,578.953L1356.03,578.941L1356.15,578.928L1356.26,578.913L1356.37,578.896L1356.48,578.878L1356.59,578.859L1356.7,578.839L1356.81,578.817L1356.92,578.794L1357.03,578.769L1357.14,578.744L1357.25,578.717L1357.36,578.688L1357.46,578.658L1357.57,578.627L1357.67,578.595L1357.78,578.562L1357.88,578.527L1357.99,578.491L1358.09,578.454L1358.2,578.415L1358.3,578.376L1358.4,578.335L1358.5,578.293L1358.6,578.249L1358.7,578.205L1358.8,578.159L1358.9,578.112L1359,578.064L1359.1,578.015L1359.19,577.965L1359.29,577.914L1359.38,577.861L1359.48,577.808L1359.48,577.807L1359.38,577.86ZM1354.9,562.001L1354.79,562.003L1354.69,562.006L1354.59,562.01L1354.49,562.016L1354.38,562.023L1354.28,562.032L1354.18,562.041L1354.08,562.052L1353.98,562.064L1353.88,562.078L1353.78,562.092L1353.68,562.108L1353.59,562.125L1353.49,562.143L1353.39,562.163L1353.29,562.183L1353.19,562.205L1353.1,562.228L1353,562.252L1352.91,562.277L1352.81,562.304L1352.72,562.331L1352.62,562.36L1352.53,562.39L1352.43,562.421L1352.34,562.453L1352.25,562.486L1352.16,562.52L1352.07,562.555L1351.98,562.592L1351.89,562.629L1351.8,562.668L1351.71,562.707L1351.62,562.748L1351.53,562.789L1351.45,562.832L1351.36,562.876L1351.27,562.92L1351.19,562.966L1351.1,563.013L1351.02,563.061L1350.94,563.109L1350.85,563.159L1350.77,563.209L1350.69,563.261L1350.61,563.314L1350.53,563.367L1350.45,563.421L1350.37,563.477L1350.29,563.533L1350.21,563.59L1350.14,563.648L1350.06,563.707L1349.99,563.767L1349.91,563.828L1349.84,563.889L1349.77,563.952L1349.69,564.015L1349.62,564.079L1349.55,564.144L1349.48,564.21L1349.41,564.277L1349.34,564.344L1349.28,564.413L1349.21,564.482L1349.14,564.551L1349.08,564.622L1349.02,564.694L1348.95,564.766L1348.89,564.839L1348.83,564.912L1348.77,564.987L1348.71,565.062L1348.65,565.138L1348.59,565.215L1348.53,565.292L1348.48,565.37L1348.42,565.449L1348.37,565.528L1348.31,565.609L1348.26,565.689L1348.21,565.771L1348.16,565.853L1348.11,565.936L1348.06,566.019L1348.01,566.103L1347.97,566.188L1347.92,566.273L1347.88,566.359L1347.83,566.446L1347.79,566.533L1347.75,566.621L1347.71,566.709L1347.67,566.798L1347.63,566.887L1347.59,566.977L1347.56,567.068L1347.52,567.159L1347.49,567.251L1347.45,567.343L1347.42,567.435L1347.39,567.528L1347.36,567.622L1347.33,567.716L1347.3,567.811L1347.28,567.906L1347.25,568.002L1347.23,568.098L1347.2,568.194L1347.18,568.291L1347.16,568.389L1347.14,568.486L1347.12,568.585L1347.11,568.683L1347.09,568.782L1347.08,568.882L1347.06,568.982L1347.05,569.082L1347.04,569.183L1347.03,569.284L1347.02,569.385L1347.02,569.487L1347.01,569.589L1347.01,569.691L1347,569.794L1347,569.897L1347,570L1347,570.103L1347,570.206L1347.01,570.309L1347.01,570.411L1347.02,570.513L1347.02,570.615L1347.03,570.716L1347.04,570.817L1347.05,570.918L1347.06,571.018L1347.08,571.118L1347.09,571.218L1347.11,571.317L1347.12,571.415L1347.14,571.514L1347.16,571.611L1347.18,571.709L1347.2,571.806L1347.23,571.902L1347.25,571.998L1347.28,572.094L1347.3,572.189L1347.33,572.284L1347.36,572.378L1347.39,572.472L1347.42,572.565L1347.45,572.657L1347.49,572.749L1347.52,572.841L1347.56,572.932L1347.59,573.023L1347.63,573.113L1347.67,573.202L1347.71,573.291L1347.75,573.379L1347.79,573.467L1347.83,573.554L1347.88,573.641L1347.92,573.727L1347.97,573.812L1348.01,573.897L1348.06,573.981L1348.11,574.064L1348.16,574.147L1348.21,574.229L1348.26,574.311L1348.31,574.391L1348.37,574.472L1348.42,574.551L1348.48,574.63L1348.53,574.708L1348.59,574.785L1348.65,574.862L1348.71,574.938L1348.77,575.013L1348.83,575.088L1348.89,575.161L1348.95,575.234L1349.02,575.306L1349.08,575.378L1349.14,575.449L1349.21,575.518L1349.28,575.587L1349.34,575.656L1349.41,575.723L1349.48,575.79L1349.55,575.856L1349.62,575.921L1349.69,575.985L1349.77,576.048L1349.84,576.111L1349.91,576.172L1349.99,576.233L1350.06,576.293L1350.14,576.352L1350.21,576.41L1350.29,576.467L1350.37,576.523L1350.45,576.579L1350.53,576.633L1350.61,576.686L1350.69,576.739L1350.77,576.791L1350.85,576.841L1350.94,576.891L1351.02,576.939L1351.1,576.987L1351.19,577.034L1351.27,577.08L1351.36,577.124L1351.45,577.168L1351.53,577.211L1351.62,577.252L1351.71,577.293L1351.8,577.332L1351.89,577.371L1351.98,577.408L1352.07,577.445L1352.16,577.48L1352.25,577.514L1352.34,577.547L1352.43,577.579L1352.53,577.61L1352.62,577.64L1352.72,577.669L1352.81,577.696L1352.91,577.723L1353,577.748L1353.1,577.772L1353.19,577.795L1353.29,577.817L1353.39,577.837L1353.49,577.857L1353.59,577.875L1353.68,577.892L1353.78,577.908L1353.88,577.922L1353.98,577.936L1354.08,577.948L1354.18,577.959L1354.28,577.968L1354.38,577.977L1354.49,577.984L1354.59,577.99L1354.69,577.994L1354.79,577.997L1354.9,577.999L1355,578L1355.1,577.999L1355.21,577.997L1355.31,577.994L1355.41,577.99L1355.51,577.984L1355.62,577.977L1355.72,577.968L1355.82,577.959L1355.92,577.948L1356.02,577.936L1356.12,577.922L1356.22,577.908L1356.32,577.892L1356.41,577.875L1356.51,577.857L1356.61,577.837L1356.71,577.817L1356.81,577.795L1356.9,577.772L1357,577.748L1357.09,577.723L1357.19,577.696L1357.28,577.669L1357.38,577.64L1357.47,577.61L1357.57,577.579L1357.66,577.547L1357.75,577.514L1357.84,577.48L1357.93,577.445L1358.02,577.408L1358.11,577.371L1358.2,577.332L1358.29,577.293L1358.38,577.252L1358.47,577.211L1358.55,577.168L1358.64,577.124L1358.73,577.08L1358.81,577.034L1358.9,576.987L1358.98,576.939L1359.06,576.891L1359.15,576.841L1359.23,576.791L1359.31,576.739L1359.39,576.686L1359.47,576.633L1359.55,576.579L1359.63,576.523L1359.71,576.467L1359.79,576.41L1359.86,576.352L1359.94,576.293L1360.01,576.233L1360.09,576.172L1360.16,576.111L1360.23,576.048L1360.31,575.985L1360.38,575.921L1360.45,575.856L1360.52,575.79L1360.59,575.723L1360.66,575.656L1360.72,575.587L1360.79,575.518L1360.86,575.449L1360.92,575.378L1360.99,575.306L1361.05,575.234L1361.11,575.161L1361.17,575.088L1361.23,575.013L1361.29,574.938L1361.35,574.862L1361.41,574.785L1361.47,574.708L1361.52,574.63L1361.58,574.551L1361.63,574.472L1361.69,574.391L1361.74,574.311L1361.79,574.229L1361.84,574.147L1361.89,574.064L1361.94,573.981L1361.99,573.897L1362.03,573.812L1362.08,573.727L1362.12,573.641L1362.17,573.554L1362.21,573.467L1362.25,573.379L1362.29,573.291L1362.33,573.202L1362.37,573.113L1362.41,573.023L1362.44,572.932L1362.48,572.841L1362.51,572.749L1362.55,572.657L1362.58,572.565L1362.61,572.472L1362.64,572.378L1362.67,572.284L1362.7,572.189L1362.72,572.094L1362.75,571.998L1362.77,571.902L1362.8,571.806L1362.82,571.709L1362.84,571.611L1362.86,571.514L1362.88,571.415L1362.89,571.317L1362.91,571.218L1362.92,571.118L1362.94,571.018L1362.95,570.918L1362.96,570.817L1362.97,570.716L1362.98,570.615L1362.98,570.513L1362.99,570.411L1362.99,570.309L1363,570.206L1363,570.103L1363,570L1363,569.897L1363,569.794L1362.99,569.691L1362.99,569.589L1362.98,569.487L1362.98,569.385L1362.97,569.284L1362.96,569.183L1362.95,569.082L1362.94,568.982L1362.92,568.882L1362.91,568.782L1362.89,568.683L1362.88,568.585L1362.86,568.486L1362.84,568.389L1362.82,568.291L1362.8,568.194L1362.77,568.098L1362.75,568.002L1362.72,567.906L1362.7,567.811L1362.67,567.716L1362.64,567.622L1362.61,567.528L1362.58,567.435L1362.55,567.343L1362.51,567.251L1362.48,567.159L1362.44,567.068L1362.41,566.977L1362.37,566.887L1362.33,566.798L1362.29,566.709L1362.25,566.621L1362.21,566.533L1362.17,566.446L1362.12,566.359L1362.08,566.273L1362.03,566.188L1361.99,566.103L1361.94,566.019L1361.89,565.936L1361.84,565.853L1361.79,565.771L1361.74,565.689L1361.69,565.609L1361.63,565.528L1361.58,565.449L1361.52,565.37L1361.47,565.292L1361.41,565.215L1361.35,565.138L1361.29,565.062L1361.23,564.987L1361.17,564.912L1361.11,564.839L1361.05,564.766L1360.99,564.694L1360.92,564.622L1360.86,564.551L1360.79,564.482L1360.72,564.413L1360.66,564.344L1360.59,564.277L1360.52,564.21L1360.45,564.144L1360.38,564.079L1360.31,564.015L1360.23,563.952L1360.16,563.889L1360.09,563.828L1360.01,563.767L1359.94,563.707L1359.86,563.648L1359.79,563.59L1359.71,563.533L1359.63,563.477L1359.55,563.421L1359.47,563.367L1359.39,563.314L1359.31,563.261L1359.23,563.209L1359.15,563.159L1359.06,563.109L1358.98,563.061L1358.9,563.013L1358.81,562.966L1358.73,562.92L1358.64,562.876L1358.55,562.832L1358.47,562.789L1358.38,562.748L1358.29,562.707L1358.2,562.668L1358.11,562.629L1358.02,562.592L1357.93,562.555L1357.84,562.52L1357.75,562.486L1357.66,562.453L1357.57,562.421L1357.47,562.39L1357.38,562.36L1357.28,562.331L1357.19,562.304L1357.09,562.277L1357,562.252L1356.9,562.228L1356.81,562.205L1356.71,562.183L1356.61,562.163L1356.51,562.143L1356.41,562.125L1356.32,562.108L1356.22,562.092L1356.12,562.078L1356.02,562.064L1355.92,562.052L1355.82,562.041L1355.72,562.032L1355.62,562.023L1355.51,562.016L1355.41,562.01L1355.31,562.006L1355.21,562.003L1355.1,562.001L1355,562L1354.9,562.001ZM1355,569L1355.05,569.001L1355.1,569.005L1355.15,569.011L1355.2,569.019L1355.24,569.03L1355.29,569.043L1355.34,569.059L1355.38,569.076L1355.43,569.096L1355.47,569.118L1355.51,569.142L1355.56,569.168L1355.6,569.196L1355.63,569.226L1355.67,569.259L1355.71,569.293L1355.74,569.329L1355.77,569.366L1355.8,569.405L1355.83,569.445L1355.86,569.487L1355.88,569.529L1355.9,569.573L1355.92,569.617L1355.94,569.663L1355.96,569.709L1355.97,569.756L1355.98,569.804L1355.99,569.852L1356,569.901L1356,569.95L1356,570L1356,574L1356,574.05L1356,574.099L1355.99,574.148L1355.98,574.196L1355.97,574.244L1355.96,574.291L1355.94,574.337L1355.92,574.383L1355.9,574.427L1355.88,574.471L1355.86,574.513L1355.83,574.555L1355.8,574.595L1355.77,574.634L1355.74,574.671L1355.71,574.707L1355.67,574.741L1355.63,574.774L1355.6,574.804L1355.56,574.832L1355.51,574.858L1355.47,574.882L1355.43,574.904L1355.38,574.924L1355.34,574.941L1355.29,574.957L1355.24,574.97L1355.2,574.981L1355.15,574.989L1355.1,574.995L1355.05,574.999L1355,575C1355,575 1354.95,574.999 1354.95,574.999L1354.9,574.995L1354.85,574.989L1354.8,574.981L1354.76,574.97L1354.71,574.957L1354.66,574.941L1354.62,574.924L1354.57,574.904L1354.53,574.882L1354.49,574.858L1354.44,574.832L1354.4,574.804L1354.37,574.774L1354.33,574.741L1354.29,574.707L1354.26,574.671L1354.23,574.634L1354.2,574.595L1354.17,574.555L1354.14,574.513L1354.12,574.471L1354.1,574.427L1354.08,574.383L1354.06,574.337L1354.04,574.291L1354.03,574.244L1354.02,574.196L1354.01,574.148L1354.01,574.099L1354,574.05L1354,574L1354,570L1354,569.95L1354.01,569.901L1354.01,569.852L1354.02,569.804L1354.03,569.756L1354.04,569.709L1354.06,569.663L1354.08,569.617L1354.1,569.573L1354.12,569.529L1354.14,569.487L1354.17,569.445L1354.2,569.405L1354.23,569.366L1354.26,569.329L1354.29,569.293L1354.33,569.259L1354.37,569.226L1354.4,569.196L1354.44,569.168L1354.49,569.142L1354.53,569.118L1354.57,569.096L1354.62,569.076L1354.66,569.059L1354.71,569.043L1354.76,569.03L1354.8,569.019L1354.85,569.011L1354.9,569.005L1354.95,569.001L1355,569L1355,569ZM1362.81,574.478L1362.81,574.477L1362.84,574.414L1362.81,574.478ZM1347.19,574.477L1347.19,574.478L1347.16,574.419L1347.19,574.477ZM1363.98,570.577L1363.97,570.691L1363.96,570.805L1363.95,570.919L1363.94,571.032L1363.93,571.145L1363.91,571.257L1363.9,571.369L1363.88,571.48L1363.86,571.591L1363.84,571.702L1363.82,571.812L1363.79,571.922L1363.77,572.031L1363.74,572.14L1363.72,572.248L1363.69,572.355L1363.66,572.463L1363.63,572.569L1363.6,572.675L1363.56,572.781L1363.53,572.885L1363.49,572.99L1363.45,573.094L1363.41,573.197L1363.38,573.299L1363.33,573.401L1363.29,573.503L1363.25,573.603L1363.2,573.703L1363.16,573.803L1363.11,573.901L1363.06,574L1363.01,574.097L1362.96,574.193L1362.91,574.289L1362.86,574.384L1362.86,574.383L1362.91,574.287L1362.96,574.191L1363.02,574.095L1363.07,573.997L1363.11,573.899L1363.16,573.801L1363.2,573.702L1363.25,573.602L1363.29,573.501L1363.34,573.4L1363.38,573.298L1363.41,573.196L1363.45,573.093L1363.49,572.989L1363.53,572.885L1363.56,572.78L1363.6,572.675L1363.63,572.569L1363.66,572.463L1363.69,572.356L1363.72,572.249L1363.74,572.141L1363.77,572.032L1363.79,571.923L1363.82,571.814L1363.84,571.704L1363.86,571.593L1363.88,571.482L1363.9,571.371L1363.91,571.259L1363.93,571.147L1363.94,571.034L1363.95,570.921L1363.96,570.807L1363.97,570.693L1363.98,570.578L1363.99,570.464L1363.99,570.463L1363.98,570.577ZM1346.01,570.464L1346.02,570.578L1346.03,570.693L1346.04,570.807L1346.05,570.921L1346.06,571.034L1346.07,571.147L1346.09,571.259L1346.1,571.371L1346.12,571.482L1346.14,571.593L1346.16,571.704L1346.18,571.814L1346.21,571.923L1346.23,572.032L1346.26,572.141L1346.28,572.249L1346.31,572.356L1346.34,572.463L1346.37,572.569L1346.4,572.675L1346.44,572.78L1346.47,572.885L1346.51,572.989L1346.55,573.093L1346.59,573.196L1346.62,573.298L1346.66,573.4L1346.71,573.501L1346.75,573.602L1346.8,573.702L1346.84,573.801L1346.89,573.899L1346.93,573.997L1346.99,574.095L1347.04,574.191L1347.09,574.287L1347.14,574.383L1347.14,574.384L1347.09,574.289L1347.04,574.193L1346.99,574.097L1346.94,574L1346.89,573.901L1346.84,573.803L1346.8,573.703L1346.75,573.603L1346.71,573.503L1346.67,573.401L1346.62,573.299L1346.59,573.197L1346.55,573.094L1346.51,572.99L1346.47,572.885L1346.44,572.781L1346.4,572.675L1346.37,572.569L1346.34,572.463L1346.31,572.355L1346.28,572.248L1346.26,572.14L1346.23,572.031L1346.21,571.922L1346.18,571.812L1346.16,571.702L1346.14,571.591L1346.12,571.48L1346.1,571.369L1346.09,571.257L1346.07,571.145L1346.06,571.032L1346.05,570.919L1346.04,570.805L1346.03,570.691L1346.02,570.577L1346.01,570.463L1346.01,570.464ZM1362.91,565.711L1362.96,565.807L1363.01,565.903L1363.06,566L1363.11,566.099L1363.16,566.197L1363.2,566.297L1363.25,566.397L1363.29,566.497L1363.33,566.599L1363.38,566.701L1363.41,566.803L1363.45,566.906L1363.49,567.01L1363.53,567.115L1363.56,567.219L1363.6,567.325L1363.63,567.431L1363.66,567.537L1363.69,567.645L1363.72,567.752L1363.74,567.86L1363.77,567.969L1363.79,568.078L1363.82,568.188L1363.84,568.298L1363.86,568.409L1363.88,568.52L1363.9,568.631L1363.91,568.743L1363.93,568.855L1363.94,568.968L1363.95,569.081L1363.96,569.195L1363.97,569.309L1363.98,569.423L1363.99,569.537L1363.99,569.536L1363.98,569.422L1363.97,569.307L1363.96,569.193L1363.95,569.079L1363.94,568.966L1363.93,568.853L1363.91,568.741L1363.9,568.629L1363.88,568.518L1363.86,568.407L1363.84,568.296L1363.82,568.186L1363.79,568.077L1363.77,567.968L1363.74,567.859L1363.72,567.751L1363.69,567.644L1363.66,567.537L1363.63,567.431L1363.6,567.325L1363.56,567.22L1363.53,567.115L1363.49,567.011L1363.45,566.907L1363.41,566.804L1363.38,566.702L1363.34,566.6L1363.29,566.499L1363.25,566.398L1363.2,566.298L1363.16,566.199L1363.11,566.101L1363.07,566.003L1363.02,565.905L1362.96,565.809L1362.91,565.713L1362.86,565.617L1362.86,565.616L1362.91,565.711ZM1347.14,565.617L1347.09,565.713L1347.04,565.809L1346.99,565.905L1346.93,566.003L1346.89,566.101L1346.84,566.199L1346.8,566.298L1346.75,566.398L1346.71,566.499L1346.66,566.6L1346.62,566.702L1346.59,566.804L1346.55,566.907L1346.51,567.011L1346.47,567.115L1346.44,567.22L1346.4,567.325L1346.37,567.431L1346.34,567.537L1346.31,567.644L1346.28,567.751L1346.26,567.859L1346.23,567.968L1346.21,568.077L1346.18,568.186L1346.16,568.296L1346.14,568.407L1346.12,568.518L1346.1,568.629L1346.09,568.741L1346.07,568.853L1346.06,568.966L1346.05,569.079L1346.04,569.193L1346.03,569.307L1346.02,569.422L1346.01,569.536L1346.01,569.537L1346.02,569.423L1346.03,569.309L1346.04,569.195L1346.05,569.081L1346.06,568.968L1346.07,568.855L1346.09,568.743L1346.1,568.631L1346.12,568.52L1346.14,568.409L1346.16,568.298L1346.18,568.188L1346.21,568.078L1346.23,567.969L1346.26,567.86L1346.28,567.752L1346.31,567.645L1346.34,567.537L1346.37,567.431L1346.4,567.325L1346.44,567.219L1346.47,567.115L1346.51,567.01L1346.55,566.906L1346.59,566.803L1346.62,566.701L1346.67,566.599L1346.71,566.497L1346.75,566.397L1346.8,566.297L1346.84,566.197L1346.89,566.099L1346.94,566L1346.99,565.903L1347.04,565.807L1347.09,565.711L1347.14,565.616L1347.14,565.617ZM1355,565L1355.05,565.001L1355.1,565.005L1355.15,565.012L1355.2,565.02L1355.25,565.031L1355.3,565.045L1355.34,565.061L1355.39,565.079L1355.43,565.099L1355.48,565.121L1355.52,565.145L1355.56,565.171L1355.6,565.199L1355.64,565.228L1355.67,565.26L1355.71,565.293L1355.74,565.328L1355.77,565.364L1355.8,565.402L1355.83,565.441L1355.86,565.481L1355.88,565.523L1355.9,565.566L1355.92,565.611L1355.94,565.656L1355.95,565.703L1355.97,565.75L1355.98,565.798L1355.99,565.848L1356,565.898L1356,565.949L1356,566C1356,566 1356,566.051 1356,566.051L1356,566.102L1355.99,566.152L1355.98,566.202L1355.97,566.25L1355.95,566.297L1355.94,566.344L1355.92,566.389L1355.9,566.434L1355.88,566.477L1355.86,566.519L1355.83,566.559L1355.8,566.598L1355.77,566.636L1355.74,566.672L1355.71,566.707L1355.67,566.74L1355.64,566.772L1355.6,566.801L1355.56,566.829L1355.52,566.855L1355.48,566.879L1355.43,566.901L1355.39,566.921L1355.34,566.939L1355.3,566.955L1355.25,566.969L1355.2,566.98L1355.15,566.988L1355.1,566.995L1355.05,566.999L1355,567C1355,567 1354.95,566.999 1354.95,566.999L1354.9,566.995L1354.85,566.988L1354.8,566.98L1354.75,566.969L1354.7,566.955L1354.66,566.939L1354.61,566.921L1354.57,566.901L1354.52,566.879L1354.48,566.855L1354.44,566.829L1354.4,566.801L1354.36,566.772L1354.33,566.74L1354.29,566.707L1354.26,566.672L1354.23,566.636L1354.2,566.598L1354.17,566.559L1354.14,566.519L1354.12,566.477L1354.1,566.434L1354.08,566.389L1354.06,566.344L1354.05,566.297L1354.03,566.25L1354.02,566.202L1354.01,566.152L1354.01,566.102L1354,566.051L1354,566C1354,566 1354,565.949 1354,565.949L1354.01,565.898L1354.01,565.848L1354.02,565.798L1354.03,565.75L1354.05,565.703L1354.06,565.656L1354.08,565.611L1354.1,565.566L1354.12,565.523L1354.14,565.481L1354.17,565.441L1354.2,565.402L1354.23,565.364L1354.26,565.328L1354.29,565.293L1354.33,565.26L1354.36,565.228L1354.4,565.199L1354.44,565.171L1354.48,565.145L1354.52,565.121L1354.57,565.099L1354.61,565.079L1354.66,565.061L1354.7,565.045L1354.75,565.031L1354.8,565.02L1354.85,565.012L1354.9,565.005L1354.95,565.001L1355,565L1355,565ZM1355,566L1355,566L1355,566L1355,566L1355,566L1355,566L1355,566L1355,566L1355,566L1355,566L1355,566ZM1362.84,565.586L1362.81,565.523L1362.81,565.522L1362.84,565.586ZM1347.19,565.523L1347.16,565.581L1347.19,565.522L1347.19,565.523ZM1354.77,561.003L1354.65,561.007L1354.54,561.012L1354.42,561.018L1354.31,561.026L1354.19,561.036L1354.08,561.047L1353.97,561.059L1353.85,561.072L1353.74,561.087L1353.63,561.104L1353.52,561.122L1353.41,561.141L1353.3,561.161L1353.19,561.183L1353.08,561.206L1352.97,561.231L1352.86,561.256L1352.75,561.283L1352.64,561.312L1352.54,561.342L1352.43,561.373L1352.33,561.405L1352.22,561.438L1352.12,561.473L1352.01,561.509L1351.91,561.546L1351.8,561.585L1351.7,561.624L1351.6,561.665L1351.5,561.707L1351.4,561.751L1351.3,561.795L1351.2,561.841L1351.1,561.888L1351,561.936L1350.9,561.985L1350.81,562.035L1350.71,562.086L1350.62,562.139L1350.52,562.192L1350.52,562.193L1350.62,562.14L1350.71,562.088L1350.81,562.036L1350.9,561.986L1351,561.937L1351.1,561.889L1351.2,561.842L1351.3,561.796L1351.4,561.751L1351.5,561.708L1351.6,561.666L1351.7,561.625L1351.8,561.585L1351.91,561.547L1352.01,561.509L1352.12,561.473L1352.22,561.439L1352.33,561.405L1352.43,561.373L1352.54,561.342L1352.64,561.312L1352.75,561.284L1352.86,561.257L1352.97,561.231L1353.08,561.206L1353.19,561.183L1353.3,561.161L1353.41,561.141L1353.52,561.122L1353.63,561.104L1353.74,561.087L1353.86,561.072L1353.97,561.059L1354.08,561.046L1354.19,561.036L1354.31,561.026L1354.42,561.018L1354.54,561.012L1354.65,561.007L1354.77,561.003L1354.77,561.003ZM1355.35,561.007L1355.46,561.012L1355.58,561.018L1355.69,561.026L1355.81,561.036L1355.92,561.046L1356.03,561.059L1356.14,561.072L1356.26,561.087L1356.37,561.104L1356.48,561.122L1356.59,561.141L1356.7,561.161L1356.81,561.183L1356.92,561.206L1357.03,561.231L1357.14,561.257L1357.25,561.284L1357.36,561.312L1357.46,561.342L1357.57,561.373L1357.67,561.405L1357.78,561.439L1357.88,561.473L1357.99,561.509L1358.09,561.547L1358.2,561.585L1358.3,561.625L1358.4,561.666L1358.5,561.708L1358.6,561.751L1358.7,561.796L1358.8,561.842L1358.9,561.889L1359,561.937L1359.1,561.986L1359.19,562.036L1359.29,562.088L1359.38,562.14L1359.48,562.193L1359.48,562.192L1359.38,562.139L1359.29,562.086L1359.19,562.035L1359.1,561.985L1359,561.936L1358.9,561.888L1358.8,561.841L1358.7,561.795L1358.6,561.751L1358.5,561.707L1358.4,561.665L1358.3,561.624L1358.2,561.585L1358.09,561.546L1357.99,561.509L1357.88,561.473L1357.78,561.438L1357.67,561.405L1357.57,561.373L1357.46,561.342L1357.36,561.312L1357.25,561.283L1357.14,561.256L1357.03,561.231L1356.92,561.206L1356.81,561.183L1356.7,561.161L1356.59,561.141L1356.48,561.122L1356.37,561.104L1356.26,561.087L1356.15,561.072L1356.03,561.059L1355.92,561.047L1355.81,561.036L1355.69,561.026L1355.58,561.018L1355.46,561.012L1355.35,561.007L1355.23,561.003L1355.23,561.003L1355.35,561.007Z" style="fill:rgb(51,51,51);"/>
            </g>
        </g>
    </g>
</svg>
