<?xml version="1.0" encoding="UTF-8" standalone="no"?>
<!DOCTYPE svg PUBLIC "-//W3C//DTD SVG 1.1//EN" "http://www.w3.org/Graphics/SVG/1.1/DTD/svg11.dtd">
<svg width="24px" height="24px" version="1.1" xmlns="http://www.w3.org/2000/svg" xmlns:xlink="http://www.w3.org/1999/xlink" xml:space="preserve" xmlns:serif="http://www.serif.com/" style="fill-rule:evenodd;clip-rule:evenodd;stroke-linejoin:round;stroke-miterlimit:1.41421;">
    <g transform="matrix(1,0,0,1,-1605,-558)">
        <g id="ui.regular.list" transform="matrix(0.800768,0,0,0.984948,1605,558)">
            <rect x="0" y="0" width="29.971" height="24.367" style="fill:none;"/>
            <g transform="matrix(1.2488,0,0,1.01528,-2576.28,-566.528)">
                <path d="M2083,576C2083,575.735 2082.89,575.48 2082.71,575.293C2082.52,575.105 2082.26,575 2082,575C2079.74,575 2074.26,575 2072,575C2071.74,575 2071.48,575.105 2071.29,575.293C2071.11,575.48 2071,575.735 2071,576C2071,576.265 2071.11,576.52 2071.29,576.707C2071.48,576.895 2071.74,577 2072,577C2074.26,577 2079.74,577 2082,577C2082.26,577 2082.52,576.895 2082.71,576.707C2082.89,576.52 2083,576.265 2083,576C2083,576 2083,576 2083,576ZM2069,576C2069,575.448 2068.55,575 2068,575C2067.45,575 2067,575.448 2067,576C2067,576.552 2067.45,577 2068,577C2068.55,577 2069,576.552 2069,576C2069,576 2069,576 2069,576ZM2083,572C2083,571.735 2082.89,571.48 2082.71,571.293C2082.52,571.105 2082.26,571 2082,571C2079.74,571 2074.26,571 2072,571C2071.74,571 2071.48,571.105 2071.29,571.293C2071.11,571.48 2071,571.735 2071,572C2071,572.265 2071.11,572.52 2071.29,572.707C2071.48,572.895 2071.74,573 2072,573C2074.26,573 2079.74,573 2082,573C2082.26,573 2082.52,572.895 2082.71,572.707C2082.89,572.52 2083,572.265 2083,572C2083,572 2083,572 2083,572ZM2069,572C2069,571.448 2068.55,571 2068,571C2067.45,571 2067,571.448 2067,572C2067,572.552 2067.45,573 2068,573C2068.55,573 2069,572.552 2069,572C2069,572 2069,572 2069,572ZM2083,568C2083,567.735 2082.89,567.48 2082.71,567.293C2082.52,567.105 2082.26,567 2082,567C2079.74,567 2074.26,567 2072,567C2071.74,567 2071.48,567.105 2071.29,567.293C2071.11,567.48 2071,567.735 2071,568C2071,568.265 2071.11,568.52 2071.29,568.707C2071.48,568.895 2071.74,569 2072,569C2074.26,569 2079.74,569 2082,569C2082.26,569 2082.52,568.895 2082.71,568.707C2082.89,568.52 2083,568.265 2083,568C2083,568 2083,568 2083,568ZM2069,568C2069,567.448 2068.55,567 2068,567C2067.45,567 2067,567.448 2067,568C2067,568.552 2067.45,569 2068,569C2068.55,569 2069,568.552 2069,568C2069,568 2069,568 2069,568ZM2083,564C2083,563.735 2082.89,563.48 2082.71,563.293C2082.52,563.105 2082.26,563 2082,563C2079.74,563 2074.26,563 2072,563C2071.74,563 2071.48,563.105 2071.29,563.293C2071.11,563.48 2071,563.735 2071,564C2071,564.265 2071.11,564.52 2071.29,564.707C2071.48,564.895 2071.74,565 2072,565C2074.26,565 2079.74,565 2082,565C2082.26,565 2082.52,564.895 2082.71,564.707C2082.89,564.52 2083,564.265 2083,564C2083,564 2083,564 2083,564ZM2069,564C2069,563.448 2068.55,563 2068,563C2067.45,563 2067,563.448 2067,564C2067,564.552 2067.45,565 2068,565C2068.55,565 2069,564.552 2069,564C2069,564 2069,564 2069,564Z" style="fill:rgb(51,51,51);"/>
            </g>
        </g>
    </g>
</svg>
