<?xml version="1.0" encoding="UTF-8" standalone="no"?>
<!DOCTYPE svg PUBLIC "-//W3C//DTD SVG 1.1//EN" "http://www.w3.org/Graphics/SVG/1.1/DTD/svg11.dtd">
<svg width="24px" height="24px" version="1.1" xmlns="http://www.w3.org/2000/svg" xmlns:xlink="http://www.w3.org/1999/xlink" xml:space="preserve" xmlns:serif="http://www.serif.com/" style="fill-rule:evenodd;clip-rule:evenodd;stroke-linejoin:round;stroke-miterlimit:1.41421;">
    <g transform="matrix(1,0,0,1,-2469,-558)">
        <g id="ui.regular.moveBack" transform="matrix(0.800768,0,0,0.984948,2469,558)">
            <rect x="0" y="0" width="29.971" height="24.367" style="fill:none;"/>
            <g transform="matrix(1.2488,0,0,1.01528,-3083.29,-566.528)">
                <path d="M2491,579C2491,579.265 2490.89,579.52 2490.71,579.707C2490.52,579.895 2490.26,580 2490,580C2488.27,580 2484.73,580 2483,580C2482.74,580 2482.48,579.895 2482.29,579.707C2482.11,579.52 2482,579.265 2482,579C2482,577.268 2482,573.732 2482,572C2482,571.735 2482.11,571.48 2482.29,571.293C2482.48,571.105 2482.74,571 2483,571C2484.73,571 2488.27,571 2490,571C2490.26,571 2490.52,571.105 2490.71,571.293C2490.89,571.48 2491,571.735 2491,572C2491,573.732 2491,577.268 2491,579ZM2490,579L2490,572L2483,572L2483,579L2490,579ZM2477,574C2477,574 2478.82,574 2480,574C2480.55,574 2481,574.448 2481,575C2481,575.265 2480.89,575.52 2480.71,575.707C2480.52,575.895 2480.26,576 2480,576C2478.89,576 2477.11,576 2476,576C2475.74,576 2475.48,575.895 2475.29,575.707C2475.11,575.52 2475,575.265 2475,575C2475,573.89 2475,572.11 2475,571C2475,570.735 2475.11,570.48 2475.29,570.293C2475.48,570.105 2475.74,570 2476,570C2476.55,570 2477,570.448 2477,571C2477,572.185 2477,574 2477,574ZM2487,569C2487,569.265 2486.89,569.52 2486.71,569.707C2486.52,569.895 2486.26,570 2486,570C2485.45,570 2485,569.552 2485,569C2485,567.815 2485,566 2485,566C2485,566 2483.18,566 2482,566C2481.45,566 2481,565.552 2481,565C2481,564.735 2481.11,564.48 2481.29,564.293C2481.48,564.105 2481.74,564 2482,564C2483.11,564 2484.89,564 2486,564C2486.26,564 2486.52,564.105 2486.71,564.293C2486.89,564.48 2487,564.735 2487,565C2487,566.11 2487,567.89 2487,569ZM2481,569.5C2481,569.367 2481.05,569.24 2481.15,569.146C2481.24,569.053 2481.37,569 2481.5,569C2482.05,569 2482.95,569 2483.5,569C2483.63,569 2483.76,569.053 2483.85,569.146C2483.95,569.24 2484,569.367 2484,569.5C2484,569.633 2483.95,569.76 2483.85,569.854C2483.76,569.947 2483.63,570 2483.5,570C2482.95,570 2482.05,570 2481.5,570C2481.37,570 2481.24,569.947 2481.15,569.854C2481.05,569.76 2481,569.633 2481,569.5C2481,569.5 2481,569.5 2481,569.5ZM2480,568C2480,568.265 2479.89,568.52 2479.71,568.707C2479.52,568.895 2479.26,569 2479,569C2477.27,569 2473.73,569 2472,569C2471.74,569 2471.48,568.895 2471.29,568.707C2471.11,568.52 2471,568.265 2471,568C2471,566.268 2471,562.732 2471,561C2471,560.735 2471.11,560.48 2471.29,560.293C2471.48,560.105 2471.74,560 2472,560C2473.73,560 2477.27,560 2479,560C2479.26,560 2479.52,560.105 2479.71,560.293C2479.89,560.48 2480,560.735 2480,561C2480,562.732 2480,566.268 2480,568ZM2481,567.5C2481,567.367 2481.05,567.24 2481.15,567.146C2481.24,567.053 2481.37,567 2481.5,567C2482.05,567 2482.95,567 2483.5,567C2483.63,567 2483.76,567.053 2483.85,567.146C2483.95,567.24 2484,567.367 2484,567.5C2484,567.633 2483.95,567.76 2483.85,567.854C2483.76,567.947 2483.63,568 2483.5,568C2482.95,568 2482.05,568 2481.5,568C2481.37,568 2481.24,567.947 2481.15,567.854C2481.05,567.76 2481,567.633 2481,567.5C2481,567.5 2481,567.5 2481,567.5ZM2479,568L2479,561L2472,561L2472,568L2479,568Z"/>
            </g>
        </g>
    </g>
</svg>
