<?xml version="1.0" encoding="UTF-8" standalone="no"?>
<!DOCTYPE svg PUBLIC "-//W3C//DTD SVG 1.1//EN" "http://www.w3.org/Graphics/SVG/1.1/DTD/svg11.dtd">
<svg width="25px" height="24px" version="1.1" xmlns="http://www.w3.org/2000/svg" xmlns:xlink="http://www.w3.org/1999/xlink" xml:space="preserve" xmlns:serif="http://www.serif.com/" style="fill-rule:evenodd;clip-rule:evenodd;stroke-linejoin:round;stroke-miterlimit:1.41421;">
    <g transform="matrix(1,0,0,1,-2210,-558)">
        <g id="ui.regular.fullscreen" transform="matrix(0.800768,0,0,0.984948,2210.98,558)">
            <rect x="0" y="0" width="29.971" height="24.367" style="fill:none;"/>
            <g transform="matrix(1.2488,0,0,1.01528,-2277.81,-566.528)">
                <path d="M1829,577C1829,577 1831.54,577 1833,577C1833.27,577 1833.52,577.105 1833.71,577.293C1833.89,577.48 1834,577.735 1834,578C1834,578.265 1833.89,578.52 1833.71,578.707C1833.52,578.895 1833.27,579 1833,579C1831.67,579 1829.33,579 1828,579C1827.74,579 1827.48,578.895 1827.29,578.707C1827.11,578.52 1827,578.265 1827,578C1827,576.669 1827,574.331 1827,573C1827,572.735 1827.11,572.48 1827.29,572.293C1827.48,572.105 1827.74,572 1828,572C1828.27,572 1828.52,572.105 1828.71,572.293C1828.89,572.48 1829,572.735 1829,573C1829,574.459 1829,577 1829,577ZM1845,578C1845,578.265 1844.89,578.52 1844.71,578.707C1844.52,578.895 1844.27,579 1844,579C1842.67,579 1840.33,579 1839,579C1838.74,579 1838.48,578.895 1838.29,578.707C1838.11,578.52 1838,578.265 1838,578C1838,577.735 1838.11,577.48 1838.29,577.293C1838.48,577.105 1838.74,577 1839,577C1840.46,577 1843,577 1843,577C1843,577 1843,574.459 1843,573C1843,572.735 1843.11,572.48 1843.29,572.293C1843.48,572.105 1843.74,572 1844,572C1844.27,572 1844.52,572.105 1844.71,572.293C1844.89,572.48 1845,572.735 1845,573C1845,574.331 1845,576.669 1845,578ZM1834,562C1834,562.265 1833.89,562.52 1833.71,562.707C1833.52,562.895 1833.27,563 1833,563C1831.54,563 1829,563 1829,563C1829,563 1829,565.541 1829,567C1829,567.265 1828.89,567.52 1828.71,567.707C1828.52,567.895 1828.27,568 1828,568C1827.74,568 1827.48,567.895 1827.29,567.707C1827.11,567.52 1827,567.265 1827,567C1827,565.669 1827,563.331 1827,562C1827,561.735 1827.11,561.48 1827.29,561.293C1827.48,561.105 1827.74,561 1828,561C1829.33,561 1831.67,561 1833,561C1833.27,561 1833.52,561.105 1833.71,561.293C1833.89,561.48 1834,561.735 1834,562C1834,562 1834,562 1834,562ZM1845,567C1845,567.265 1844.89,567.52 1844.71,567.707C1844.52,567.895 1844.27,568 1844,568C1843.74,568 1843.48,567.895 1843.29,567.707C1843.11,567.52 1843,567.265 1843,567C1843,565.541 1843,563 1843,563C1843,563 1840.46,563 1839,563C1838.74,563 1838.48,562.895 1838.29,562.707C1838.11,562.52 1838,562.265 1838,562C1838,561.735 1838.11,561.48 1838.29,561.293C1838.48,561.105 1838.74,561 1839,561C1840.33,561 1842.67,561 1844,561C1844.27,561 1844.52,561.105 1844.71,561.293C1844.89,561.48 1845,561.735 1845,562C1845,563.331 1845,565.669 1845,567Z" style="fill:rgb(51,51,51);"/>
            </g>
        </g>
    </g>
</svg>
