<?xml version="1.0" encoding="UTF-8" standalone="no"?>
<!DOCTYPE svg PUBLIC "-//W3C//DTD SVG 1.1//EN" "http://www.w3.org/Graphics/SVG/1.1/DTD/svg11.dtd">
<svg width="24px" height="24px" version="1.1" xmlns="http://www.w3.org/2000/svg" xmlns:xlink="http://www.w3.org/1999/xlink" xml:space="preserve" xmlns:serif="http://www.serif.com/" style="fill-rule:evenodd;clip-rule:evenodd;stroke-linejoin:round;stroke-miterlimit:1.41421;">
    <g transform="matrix(1,0,0,1,-1635,-558)">
        <g id="ui.regular.bluetooth" transform="matrix(0.800768,0,0,0.984948,1635,558)">
            <rect x="0" y="0" width="29.971" height="24.367" style="fill:none;"/>
            <g transform="matrix(1.2488,0,0,1.01528,-3235.64,-566.528)">
                <path d="M2604.41,570C2604.41,570 2606.56,572.144 2607.71,573.293C2608.1,573.683 2608.1,574.317 2607.71,574.707C2606.75,575.664 2605.01,577.4 2603.71,578.707C2603.42,578.993 2602.99,579.079 2602.62,578.924C2602.24,578.769 2602,578.405 2602,578C2602,575.645 2602,572.414 2602,572.414C2602,572.414 2600.59,573.82 2599.71,574.707C2599.32,575.098 2598.68,575.098 2598.29,574.707C2598.11,574.52 2598,574.265 2598,574C2598,573.735 2598.11,573.48 2598.29,573.293C2599.44,572.144 2601.59,570 2601.59,570C2601.59,570 2599.44,567.856 2598.29,566.707C2598.11,566.52 2598,566.265 2598,566C2598,565.735 2598.11,565.48 2598.29,565.293C2598.68,564.902 2599.32,564.902 2599.71,565.293C2600.59,566.18 2602,567.586 2602,567.586C2602,567.586 2602,564.355 2602,562C2602,561.595 2602.24,561.231 2602.62,561.076C2602.99,560.921 2603.42,561.007 2603.71,561.293C2605.01,562.6 2606.75,564.336 2607.71,565.293C2608.1,565.683 2608.1,566.317 2607.71,566.707C2606.56,567.856 2604.41,570 2604.41,570ZM2604,575.586L2605.59,574L2604,572.414L2604,575.586ZM2604,567.586L2605.59,566L2604,564.414L2604,567.586Z" style="fill:rgb(51,51,51);"/>
            </g>
        </g>
    </g>
</svg>
