<?xml version="1.0" encoding="UTF-8" standalone="no"?>
<!DOCTYPE svg PUBLIC "-//W3C//DTD SVG 1.1//EN" "http://www.w3.org/Graphics/SVG/1.1/DTD/svg11.dtd">
<svg width="24px" height="24px" version="1.1" xmlns="http://www.w3.org/2000/svg" xmlns:xlink="http://www.w3.org/1999/xlink" xml:space="preserve" xmlns:serif="http://www.serif.com/" style="fill-rule:evenodd;clip-rule:evenodd;stroke-linejoin:round;stroke-miterlimit:1.41421;">
    <g transform="matrix(1,0,0,1,-2351,-558)">
        <g id="ui.regular.increasingArrow" transform="matrix(0.800768,0,0,0.984948,2351,558)">
            <rect x="0" y="0" width="29.971" height="24.367" style="fill:none;"/>
            <g transform="matrix(1.2488,0,0,1.01528,-2935.93,-566.528)">
                <path d="M2371,570C2371,570.265 2370.89,570.52 2370.71,570.707C2370.52,570.895 2370.26,571 2370,571C2369.45,571 2369,570.552 2369,570C2369,569.272 2369,568.414 2369,568.414C2369,568.414 2365.29,572.12 2363.71,573.707C2363.32,574.098 2362.68,574.098 2362.29,573.707C2361.41,572.82 2360,571.414 2360,571.414C2360,571.414 2357.86,573.558 2356.71,574.707C2356.52,574.895 2356.26,575 2356,575C2355.74,575 2355.48,574.895 2355.29,574.707C2355.11,574.52 2355,574.265 2355,574C2355,573.735 2355.11,573.48 2355.29,573.293C2356.33,572.255 2358.26,570.331 2359.29,569.293C2359.68,568.902 2360.32,568.902 2360.71,569.293C2361.59,570.18 2363,571.586 2363,571.586L2367.59,567C2367.59,567 2366.73,567 2366,567C2365.74,567 2365.48,566.895 2365.29,566.707C2365.11,566.52 2365,566.265 2365,566C2365,565.735 2365.11,565.48 2365.29,565.293C2365.48,565.105 2365.74,565 2366,565C2367.11,565 2368.89,565 2370,565C2370.26,565 2370.52,565.105 2370.71,565.293C2370.89,565.48 2371,565.735 2371,566C2371,567.11 2371,568.89 2371,570Z" style="fill:rgb(51,51,51);"/>
            </g>
        </g>
    </g>
</svg>
