<?xml version="1.0" encoding="UTF-8" standalone="no"?>
<!DOCTYPE svg PUBLIC "-//W3C//DTD SVG 1.1//EN" "http://www.w3.org/Graphics/SVG/1.1/DTD/svg11.dtd">
<svg width="25px" height="24px" version="1.1" xmlns="http://www.w3.org/2000/svg" xmlns:xlink="http://www.w3.org/1999/xlink" xml:space="preserve" xmlns:serif="http://www.serif.com/" style="fill-rule:evenodd;clip-rule:evenodd;stroke-linejoin:round;stroke-miterlimit:1.41421;">
    <g transform="matrix(1,0,0,1,-1922,-558)">
        <g id="ui.regular.moveForward" transform="matrix(0.800768,0,0,0.984948,1922.98,558)">
            <rect x="0" y="0" width="29.971" height="24.367" style="fill:none;"/>
            <g transform="matrix(1.2488,0,0,1.01528,-1918.16,-566.528)">
                <path d="M1554,575C1554,575.265 1553.89,575.52 1553.71,575.707C1553.52,575.895 1553.27,576 1553,576C1550.74,576 1545.26,576 1543,576C1542.74,576 1542.48,575.895 1542.29,575.707C1542.11,575.52 1542,575.265 1542,575C1542,572.74 1542,567.26 1542,565C1542,564.735 1542.11,564.48 1542.29,564.293C1542.48,564.105 1542.74,564 1543,564C1545.26,564 1550.74,564 1553,564C1553.27,564 1553.52,564.105 1553.71,564.293C1553.89,564.48 1554,564.735 1554,565C1554,567.26 1554,572.74 1554,575ZM1552,574L1552,566L1544,566L1544,574L1552,574Z"/>
            </g>
            <g transform="matrix(3.7464,0,0,0.169214,-5439.78,-87.1451)">
                <path d="M1457,572C1457,571.204 1456.98,570.441 1456.95,569.879C1456.92,569.316 1456.88,569 1456.83,569C1456.46,569 1455.54,569 1455.17,569C1455.12,569 1455.08,569.316 1455.05,569.879C1455.02,570.441 1455,571.204 1455,572C1455,572 1455,572 1455,572C1455,572.796 1455.02,573.559 1455.05,574.121C1455.08,574.684 1455.12,575 1455.17,575C1455.54,575 1456.46,575 1456.83,575C1456.88,575 1456.92,574.684 1456.95,574.121C1456.98,573.559 1457,572.796 1457,572C1457,572 1457,572 1457,572Z"/>
            </g>
            <g transform="matrix(3.7464,0,0,0.169214,-5439.78,-85.1145)">
                <path d="M1457,572C1457,571.204 1456.98,570.441 1456.95,569.879C1456.92,569.316 1456.88,569 1456.83,569C1456.46,569 1455.54,569 1455.17,569C1455.12,569 1455.08,569.316 1455.05,569.879C1455.02,570.441 1455,571.204 1455,572C1455,572 1455,572 1455,572C1455,572.796 1455.02,573.559 1455.05,574.121C1455.08,574.684 1455.12,575 1455.17,575C1455.54,575 1456.46,575 1456.83,575C1456.88,575 1456.92,574.684 1456.95,574.121C1456.98,573.559 1457,572.796 1457,572C1457,572 1457,572 1457,572Z"/>
            </g>
            <g transform="matrix(1.2488,0,0,1.01528,-1740.83,-568.558)">
                <path d="M1405,564.5C1405,564.776 1404.78,565 1404.5,565C1404.5,565 1404.5,565 1404.5,565C1404.22,565 1404,564.776 1404,564.5C1404,563.908 1404,563 1404,563L1397,563L1397,570C1397,570 1397.91,570 1398.5,570C1398.78,570 1399,570.224 1399,570.5C1399,570.633 1398.95,570.76 1398.85,570.854C1398.76,570.947 1398.63,571 1398.5,571C1398.09,571 1397.5,571 1397,571C1396.45,571 1396,570.552 1396,570C1396,568.268 1396,564.732 1396,563C1396,562.735 1396.11,562.48 1396.29,562.293C1396.48,562.105 1396.74,562 1397,562C1398.73,562 1402.27,562 1404,562C1404.55,562 1405,562.448 1405,563C1405,563.504 1405,564.092 1405,564.5Z"/>
            </g>
            <g transform="matrix(-1.2488,-1.249e-16,8.32667e-17,-1.01528,1770.8,592.925)">
                <path d="M1405,564.5C1405,564.776 1404.78,565 1404.5,565C1404.5,565 1404.5,565 1404.5,565C1404.22,565 1404,564.776 1404,564.5C1404,563.908 1404,563 1404,563L1397,563L1397,570C1397,570 1397.91,570 1398.5,570C1398.78,570 1399,570.224 1399,570.5C1399,570.633 1398.95,570.76 1398.85,570.854C1398.76,570.947 1398.63,571 1398.5,571C1398.09,571 1397.5,571 1397,571C1396.45,571 1396,570.552 1396,570C1396,568.268 1396,564.732 1396,563C1396,562.735 1396.11,562.48 1396.29,562.293C1396.48,562.105 1396.74,562 1397,562C1398.73,562 1402.27,562 1404,562C1404.55,562 1405,562.448 1405,563C1405,563.504 1405,564.092 1405,564.5Z"/>
            </g>
        </g>
    </g>
</svg>
