<?xml version="1.0" encoding="UTF-8" standalone="no"?>
<!DOCTYPE svg PUBLIC "-//W3C//DTD SVG 1.1//EN" "http://www.w3.org/Graphics/SVG/1.1/DTD/svg11.dtd">
<svg width="24px" height="24px" version="1.1" xmlns="http://www.w3.org/2000/svg" xmlns:xlink="http://www.w3.org/1999/xlink" xml:space="preserve" xmlns:serif="http://www.serif.com/" style="fill-rule:evenodd;clip-rule:evenodd;stroke-linejoin:round;stroke-miterlimit:1.41421;">
    <g transform="matrix(1,0,0,1,-2421,-558)">
        <g id="ui.regular.moveForward" transform="matrix(0.800768,0,0,0.984948,2421,558)">
            <rect x="0" y="0" width="29.971" height="24.367" style="fill:none;"/>
            <g transform="matrix(1.2488,0,0,1.01528,-3023.35,-566.528)">
                <path d="M2443,579C2443,579.265 2442.89,579.52 2442.71,579.707C2442.52,579.895 2442.26,580 2442,580C2440.27,580 2436.73,580 2435,580C2434.45,580 2434,579.552 2434,579C2434,578.496 2434,577.908 2434,577.5C2434,577.224 2434.22,577 2434.5,577C2434.5,577 2434.5,577 2434.5,577C2434.78,577 2435,577.224 2435,577.5C2435,578.092 2435,579 2435,579L2442,579L2442,572C2442,572 2441.09,572 2440.5,572C2440.22,572 2440,571.776 2440,571.5C2440,571.367 2440.05,571.24 2440.15,571.146C2440.24,571.053 2440.37,571 2440.5,571C2440.91,571 2441.5,571 2442,571C2442.55,571 2443,571.448 2443,572C2443,573.732 2443,577.268 2443,579ZM2439,575C2439,575.265 2438.89,575.52 2438.71,575.707C2438.52,575.895 2438.26,576 2438,576C2435.74,576 2430.26,576 2428,576C2427.74,576 2427.48,575.895 2427.29,575.707C2427.11,575.52 2427,575.265 2427,575C2427,572.74 2427,567.26 2427,565C2427,564.735 2427.11,564.48 2427.29,564.293C2427.48,564.105 2427.74,564 2428,564C2430.26,564 2435.74,564 2438,564C2438.26,564 2438.52,564.105 2438.71,564.293C2438.89,564.48 2439,564.735 2439,565C2439,567.26 2439,572.74 2439,575ZM2437,574L2437,566L2429,566L2429,574L2437,574ZM2430,569.5C2430,569.367 2430.05,569.24 2430.15,569.146C2430.24,569.053 2430.37,569 2430.5,569C2431.63,569 2434.37,569 2435.5,569C2435.63,569 2435.76,569.053 2435.85,569.146C2435.95,569.24 2436,569.367 2436,569.5C2436,569.633 2435.95,569.76 2435.85,569.854C2435.76,569.947 2435.63,570 2435.5,570C2434.37,570 2431.63,570 2430.5,570C2430.37,570 2430.24,569.947 2430.15,569.854C2430.05,569.76 2430,569.633 2430,569.5C2430,569.5 2430,569.5 2430,569.5ZM2432,562.5C2432,562.776 2431.78,563 2431.5,563C2431.5,563 2431.5,563 2431.5,563C2431.22,563 2431,562.776 2431,562.5C2431,561.908 2431,561 2431,561L2424,561L2424,568C2424,568 2424.91,568 2425.5,568C2425.78,568 2426,568.224 2426,568.5C2426,568.633 2425.95,568.76 2425.85,568.854C2425.76,568.947 2425.63,569 2425.5,569C2425.09,569 2424.5,569 2424,569C2423.45,569 2423,568.552 2423,568C2423,566.268 2423,562.732 2423,561C2423,560.735 2423.11,560.48 2423.29,560.293C2423.48,560.105 2423.74,560 2424,560C2425.73,560 2429.27,560 2431,560C2431.55,560 2432,560.448 2432,561C2432,561.504 2432,562.092 2432,562.5ZM2430,567.5C2430,567.367 2430.05,567.24 2430.15,567.146C2430.24,567.053 2430.37,567 2430.5,567C2431.63,567 2434.37,567 2435.5,567C2435.63,567 2435.76,567.053 2435.85,567.146C2435.95,567.24 2436,567.367 2436,567.5C2436,567.633 2435.95,567.76 2435.85,567.854C2435.76,567.947 2435.63,568 2435.5,568C2434.37,568 2431.63,568 2430.5,568C2430.37,568 2430.24,567.947 2430.15,567.854C2430.05,567.76 2430,567.633 2430,567.5C2430,567.5 2430,567.5 2430,567.5Z"/>
            </g>
        </g>
    </g>
</svg>
