<?xml version="1.0" encoding="UTF-8" standalone="no"?>
<!DOCTYPE svg PUBLIC "-//W3C//DTD SVG 1.1//EN" "http://www.w3.org/Graphics/SVG/1.1/DTD/svg11.dtd">
<svg width="24px" height="24px" version="1.1" xmlns="http://www.w3.org/2000/svg" xmlns:xlink="http://www.w3.org/1999/xlink" xml:space="preserve" xmlns:serif="http://www.serif.com/" style="fill-rule:evenodd;clip-rule:evenodd;stroke-linejoin:round;stroke-miterlimit:1.41421;">
    <g transform="matrix(1,0,0,1,-528,-558)">
        <g id="ui.regular.alignJustify" transform="matrix(0.800768,0,0,0.984948,528,558)">
            <rect x="0" y="0" width="29.971" height="24.367" style="fill:none;"/>
            <g transform="matrix(1.2488,0,0,1.01528,-2336.51,-566.528)">
                <path d="M1875,576C1875,575.448 1875.45,575 1876,575C1878.87,575 1887.13,575 1890,575C1890.27,575 1890.52,575.105 1890.71,575.293C1890.89,575.48 1891,575.735 1891,576C1891,576.552 1890.55,577 1890,577C1887.13,577 1878.87,577 1876,577C1875.74,577 1875.48,576.895 1875.29,576.707C1875.11,576.52 1875,576.265 1875,576C1875,576 1875,576 1875,576ZM1875,572C1875,571.448 1875.45,571 1876,571C1878.87,571 1887.13,571 1890,571C1890.27,571 1890.52,571.105 1890.71,571.293C1890.89,571.48 1891,571.735 1891,572C1891,572.552 1890.55,573 1890,573C1887.13,573 1878.87,573 1876,573C1875.74,573 1875.48,572.895 1875.29,572.707C1875.11,572.52 1875,572.265 1875,572C1875,572 1875,572 1875,572ZM1875,568C1875,567.448 1875.45,567 1876,567C1878.87,567 1887.13,567 1890,567C1890.27,567 1890.52,567.105 1890.71,567.293C1890.89,567.48 1891,567.735 1891,568C1891,568.552 1890.55,569 1890,569C1887.13,569 1878.87,569 1876,569C1875.74,569 1875.48,568.895 1875.29,568.707C1875.11,568.52 1875,568.265 1875,568C1875,568 1875,568 1875,568ZM1875,564C1875,563.448 1875.45,563 1876,563C1878.87,563 1887.13,563 1890,563C1890.27,563 1890.52,563.105 1890.71,563.293C1890.89,563.48 1891,563.735 1891,564C1891,564.552 1890.55,565 1890,565C1887.13,565 1878.87,565 1876,565C1875.74,565 1875.48,564.895 1875.29,564.707C1875.11,564.52 1875,564.265 1875,564C1875,564 1875,564 1875,564Z" style="fill:rgb(51,51,51);"/>
            </g>
        </g>
    </g>
</svg>
