<?xml version="1.0" encoding="UTF-8" standalone="no"?>
<!DOCTYPE svg PUBLIC "-//W3C//DTD SVG 1.1//EN" "http://www.w3.org/Graphics/SVG/1.1/DTD/svg11.dtd">
<svg width="24px" height="24px" version="1.1" xmlns="http://www.w3.org/2000/svg" xmlns:xlink="http://www.w3.org/1999/xlink" xml:space="preserve" xmlns:serif="http://www.serif.com/" style="fill-rule:evenodd;clip-rule:evenodd;stroke-linejoin:round;stroke-miterlimit:1.41421;">
    <g transform="matrix(1,0,0,1,-2085,-558)">
        <g id="ui.regular.eject" transform="matrix(0.800768,0,0,0.984948,2085,558)">
            <rect x="0" y="0" width="29.971" height="24.367" style="fill:none;"/>
            <g transform="matrix(1.2488,0,0,1.01528,-3175.7,-566.528)">
                <path d="M2561,574C2561,574.265 2560.89,574.52 2560.71,574.707C2560.52,574.895 2560.26,575 2560,575C2557.74,575 2552.26,575 2550,575C2549.74,575 2549.48,574.895 2549.29,574.707C2549.11,574.52 2549,574.265 2549,574C2549,573.735 2549.11,573.48 2549.29,573.293C2549.48,573.105 2549.74,573 2550,573C2552.26,573 2557.74,573 2560,573C2560.26,573 2560.52,573.105 2560.71,573.293C2560.89,573.48 2561,573.735 2561,574C2561,574 2561,574 2561,574ZM2560.71,569.293C2560.99,569.579 2561.08,570.009 2560.92,570.383C2560.77,570.756 2560.4,571 2560,571C2557.24,571 2552.76,571 2550,571C2549.6,571 2549.23,570.756 2549.08,570.383C2548.92,570.009 2549.01,569.579 2549.29,569.293C2550.88,567.71 2553.15,565.433 2554.29,564.293C2554.68,563.902 2555.32,563.902 2555.71,564.293C2556.85,565.433 2559.12,567.71 2560.71,569.293ZM2552.41,569L2557.59,569L2555,566.414L2552.41,569Z" style="fill:rgb(51,51,51);"/>
            </g>
        </g>
    </g>
</svg>
