<?xml version="1.0" encoding="UTF-8" standalone="no"?>
<!DOCTYPE svg PUBLIC "-//W3C//DTD SVG 1.1//EN" "http://www.w3.org/Graphics/SVG/1.1/DTD/svg11.dtd">
<svg width="24px" height="24px" version="1.1" xmlns="http://www.w3.org/2000/svg" xmlns:xlink="http://www.w3.org/1999/xlink" xml:space="preserve" xmlns:serif="http://www.serif.com/" style="fill-rule:evenodd;clip-rule:evenodd;stroke-linejoin:round;stroke-miterlimit:1.41421;">
    <g transform="matrix(1,0,0,1,-2307,-558)">
        <g id="ui.regular.link" transform="matrix(0.800768,0,0,0.984948,2307,558)">
            <rect x="0" y="0" width="29.971" height="24.367" style="fill:none;"/>
            <g transform="matrix(1.2488,0,0,1.01528,-2397.7,-566.528)">
                <path d="M1938,566C1940.21,566 1942,567.791 1942,570C1942,570 1942,570 1942,570C1942,572.209 1940.21,574 1938,574C1936.88,574 1935.77,574 1935,574C1934.45,574 1934,573.552 1934,573C1934,572.735 1934.11,572.48 1934.29,572.293C1934.48,572.105 1934.74,572 1935,572C1935.82,572 1936.99,572 1938,572C1939.11,572 1940,571.105 1940,570C1940,568.895 1939.11,568 1938,568C1936.99,568 1935.82,568 1935,568C1934.74,568 1934.48,567.895 1934.29,567.707C1934.11,567.52 1934,567.265 1934,567C1934,566.448 1934.45,566 1935,566C1935.77,566 1936.88,566 1938,566ZM1930,567C1930,567.265 1929.89,567.52 1929.71,567.707C1929.52,567.895 1929.27,568 1929,568C1928.18,568 1927.01,568 1926,568C1924.89,568 1924,568.895 1924,570C1924,571.105 1924.89,572 1926,572C1927.01,572 1928.18,572 1929,572C1929.27,572 1929.52,572.105 1929.71,572.293C1929.89,572.48 1930,572.735 1930,573C1930,573.552 1929.55,574 1929,574C1928.23,574 1927.12,574 1926,574C1923.79,574 1922,572.209 1922,570C1922,570 1922,570 1922,570C1922,567.791 1923.79,566 1926,566C1927.12,566 1928.23,566 1929,566C1929.55,566 1930,566.448 1930,567C1930,567 1930,567 1930,567ZM1935,569C1935.55,569 1936,569.448 1936,570C1936,570.552 1935.55,571 1935,571C1933.46,571 1930.54,571 1929,571C1928.45,571 1928,570.552 1928,570C1928,569.448 1928.45,569 1929,569C1930.54,569 1933.46,569 1935,569Z" style="fill:rgb(51,51,51);"/>
            </g>
        </g>
    </g>
</svg>
