<?xml version="1.0" encoding="UTF-8" standalone="no"?><!DOCTYPE svg PUBLIC "-//W3C//DTD SVG 1.1//EN" "http://www.w3.org/Graphics/SVG/1.1/DTD/svg11.dtd"><svg width="100%" height="100%" viewBox="0 0 24 24" version="1.1" xmlns="http://www.w3.org/2000/svg" xmlns:xlink="http://www.w3.org/1999/xlink" xml:space="preserve" xmlns:serif="http://www.serif.com/" style="fill-rule:evenodd;clip-rule:evenodd;stroke-linejoin:round;stroke-miterlimit:1.41421;"><rect id="ui.regular.crop" x="0" y="0" width="24" height="24" style="fill:none;"/><path d="M8,6c0,0 6.467,0 9,0c0.552,0 1,0.448 1,1c0,2.533 0,9 0,9c0,0 1.815,0 3,0c0.552,0 1,0.448 1,1c0,0.552 -0.448,1 -1,1c-1.185,0 -3,0 -3,0c0,0 0,1.815 0,3c0,0.552 -0.448,1 -1,1c-0.552,0 -1,-0.448 -1,-1c0,-1.185 0,-3 0,-3c0,0 -6.467,0 -9,0c-0.552,0 -1,-0.448 -1,-1c0,-2.533 0,-9 0,-9c0,0 -1.815,0 -3,0c-0.552,0 -1,-0.448 -1,-1c0,-0.552 0.448,-1 1,-1c1.185,0 3,0 3,0c0,0 0,-1.815 0,-3c0,-0.552 0.448,-1 1,-1c0.552,0 1,0.448 1,1c0,1.185 0,3 0,3Zm0,2l0,8l8,0l0,-8l-8,0Z" style="fill:#333;"/></svg>