<?xml version="1.0" encoding="UTF-8" standalone="no"?><!DOCTYPE svg PUBLIC "-//W3C//DTD SVG 1.1//EN" "http://www.w3.org/Graphics/SVG/1.1/DTD/svg11.dtd"><svg width="100%" height="100%" viewBox="0 0 24 24" version="1.1" xmlns="http://www.w3.org/2000/svg" xmlns:xlink="http://www.w3.org/1999/xlink" xml:space="preserve" xmlns:serif="http://www.serif.com/" style="fill-rule:evenodd;clip-rule:evenodd;stroke-linecap:square;stroke-miterlimit:5;"><rect id="ui.thin.move" x="0" y="0" width="24" height="24" style="fill:none;"/><clipPath id="_clip1"><rect x="0" y="0" width="24" height="24"/></clipPath><g clip-path="url(#_clip1)"><path d="M11,5.414c0,0 -0.717,0.718 -1.293,1.293c-0.39,0.391 -1.023,0.391 -1.414,0c-0.188,-0.187 -0.293,-0.442 -0.293,-0.707c0,-0.265 0.105,-0.52 0.293,-0.707c0.824,-0.824 2.176,-2.176 3,-3c0.188,-0.188 0.442,-0.293 0.707,-0.293c0.265,0 0.52,0.105 0.707,0.293c0.824,0.824 2.177,2.176 3,3c0.188,0.187 0.293,0.442 0.293,0.707c0,0.265 -0.105,0.52 -0.293,0.707c-0.187,0.188 -0.442,0.293 -0.707,0.293c-0.265,0 -0.519,-0.105 -0.707,-0.293c-0.576,-0.575 -1.293,-1.293 -1.293,-1.293l0,5.586l5.586,0c0,0 -0.718,-0.717 -1.293,-1.293c-0.391,-0.39 -0.391,-1.024 0,-1.414c0.188,-0.188 0.442,-0.293 0.707,-0.293c0.265,0 0.52,0.105 0.707,0.293c0.824,0.824 2.177,2.176 3,3c0.188,0.187 0.293,0.442 0.293,0.707c0,0.265 -0.105,0.52 -0.293,0.707c-0.823,0.824 -2.176,2.176 -3,3c-0.187,0.188 -0.442,0.293 -0.707,0.293c-0.265,0 -0.519,-0.105 -0.707,-0.293c-0.391,-0.39 -0.391,-1.024 0,-1.414c0.575,-0.576 1.293,-1.293 1.293,-1.293l-5.586,0l0,5.586c0,0 0.717,-0.718 1.293,-1.293c0.188,-0.188 0.442,-0.293 0.707,-0.293c0.265,0 0.52,0.105 0.707,0.293c0.188,0.187 0.293,0.442 0.293,0.707c0,0.265 -0.105,0.52 -0.293,0.707c-0.823,0.824 -2.176,2.176 -3,3c-0.187,0.188 -0.442,0.293 -0.707,0.293c-0.265,0 -0.519,-0.105 -0.707,-0.293c-0.824,-0.824 -2.176,-2.176 -3,-3c-0.188,-0.187 -0.293,-0.442 -0.293,-0.707c0,-0.265 0.105,-0.52 0.293,-0.707c0.391,-0.391 1.024,-0.391 1.414,0c0.576,0.575 1.293,1.293 1.293,1.293l0,-5.586l-5.586,0c0,0 0.718,0.717 1.293,1.293c0.391,0.39 0.391,1.024 0,1.414c-0.187,0.188 -0.442,0.293 -0.707,0.293c-0.265,0 -0.519,-0.105 -0.707,-0.293c-0.824,-0.824 -2.176,-2.176 -3,-3c-0.188,-0.187 -0.293,-0.442 -0.293,-0.707c0,-0.265 0.105,-0.52 0.293,-0.707c0.824,-0.824 2.176,-2.176 3,-3c0.188,-0.188 0.442,-0.293 0.707,-0.293c0.265,0 0.52,0.105 0.707,0.293c0.391,0.39 0.391,1.024 0,1.414c-0.575,0.576 -1.293,1.293 -1.293,1.293l5.586,0l0,-5.586Z" style="fill:#333;fill-opacity:0.27451;"/><path d="M5.5,8.5l-3,3l3,3" style="fill:none;stroke:#333;stroke-width:1px;"/><path d="M8.5,18l3,3l3,-3" style="fill:none;stroke:#333;stroke-width:1px;"/><path d="M18,14.5l3,-3l-3,-3" style="fill:none;stroke:#333;stroke-width:1px;"/></g></svg>