<?xml version="1.0" encoding="UTF-8" standalone="no"?><!DOCTYPE svg PUBLIC "-//W3C//DTD SVG 1.1//EN" "http://www.w3.org/Graphics/SVG/1.1/DTD/svg11.dtd"><svg width="100%" height="100%" viewBox="0 0 24 24" version="1.1" xmlns="http://www.w3.org/2000/svg" xmlns:xlink="http://www.w3.org/1999/xlink" xml:space="preserve" xmlns:serif="http://www.serif.com/" style="fill-rule:evenodd;clip-rule:evenodd;stroke-linecap:round;stroke-miterlimit:5;"><rect id="ui.thin.euro" x="0" y="0" width="24" height="24" style="fill:none;"/><path d="M17.238,15.724c-2.342,2.339 -6.142,2.337 -8.481,-0.005c-2.339,-2.342 -2.337,-6.142 0.005,-8.481c2.342,-2.339 6.142,-2.337 8.481,0.005" style="fill:none;stroke:#333;stroke-width:1px;"/><path d="M14.007,10.499c0,-0.276 -0.224,-0.5 -0.5,-0.5l-9.003,0c-0.276,0 -0.5,0.224 -0.5,0.5c0,0.275 0.224,0.5 0.5,0.5l9.003,0c0.276,0 0.5,-0.225 0.5,-0.5Z" style="fill:#333;"/><path d="M14.007,13.499c0,-0.276 -0.224,-0.5 -0.5,-0.5l-9.003,0c-0.276,0 -0.5,0.224 -0.5,0.5c0,0.275 0.224,0.5 0.5,0.5l9.003,0c0.276,0 0.5,-0.225 0.5,-0.5Z" style="fill:#333;"/></svg>