<?xml version="1.0" encoding="UTF-8" standalone="no"?>
<!DOCTYPE svg PUBLIC "-//W3C//DTD SVG 1.1//EN" "http://www.w3.org/Graphics/SVG/1.1/DTD/svg11.dtd">
<svg width="24px" height="24px" version="1.1" xmlns="http://www.w3.org/2000/svg" xmlns:xlink="http://www.w3.org/1999/xlink" xml:space="preserve" xmlns:serif="http://www.serif.com/" style="fill-rule:evenodd;clip-rule:evenodd;stroke-linejoin:round;stroke-miterlimit:1.41421;">
    <g transform="matrix(1,0,0,1,-3093,-606)">
        <g id="ui.thin.alignVertical" transform="matrix(0.800768,0,0,0.984948,3093,606)">
            <rect x="0" y="0" width="29.971" height="24.367" style="fill:none;"/>
            <g transform="matrix(7.6467e-17,1.01528,-1.2488,6.21681e-17,726.802,-2994.07)">
                <path d="M2960,565C2960,565 2960,561.766 2960,560.5C2960,560.367 2960.05,560.24 2960.15,560.146C2960.24,560.053 2960.37,560 2960.5,560C2960.63,560 2960.76,560.053 2960.85,560.146C2960.95,560.24 2961,560.367 2961,560.5C2961,561.766 2961,565 2961,565C2961,565 2965.07,565 2967,565C2967.55,565 2968,565.448 2968,566C2968,566.611 2968,567.389 2968,568C2968,568.552 2967.55,569 2967,569C2965.07,569 2961,569 2961,569L2961,571C2961,571 2962.82,571 2964,571C2964.55,571 2965,571.448 2965,572C2965,572.611 2965,573.389 2965,574C2965,574.552 2964.55,575 2964,575C2962.82,575 2961,575 2961,575C2961,575 2961,578.234 2961,579.5C2961,579.633 2960.95,579.76 2960.85,579.854C2960.76,579.947 2960.63,580 2960.5,580C2960.37,580 2960.24,579.947 2960.15,579.854C2960.05,579.76 2960,579.633 2960,579.5C2960,578.234 2960,575 2960,575C2960,575 2958.18,575 2957,575C2956.45,575 2956,574.552 2956,574C2956,573.389 2956,572.611 2956,572C2956,571.448 2956.45,571 2957,571C2958.18,571 2960,571 2960,571L2960,569C2960,569 2955.93,569 2954,569C2953.45,569 2953,568.552 2953,568C2953,567.389 2953,566.611 2953,566C2953,565.448 2953.45,565 2954,565C2955.93,565 2960,565 2960,565ZM2960,574L2960,572L2957,572L2957,574L2960,574ZM2964,572L2961,572L2961,574L2964,574L2964,572ZM2960,568L2960,566L2954,566L2954,568L2960,568ZM2967,566L2961,566L2961,568L2967,568L2967,566Z" style="fill:rgb(51,51,51);"/>
            </g>
        </g>
    </g>
</svg>
