<?xml version="1.0" encoding="UTF-8" standalone="no"?>
<!DOCTYPE svg PUBLIC "-//W3C//DTD SVG 1.1//EN" "http://www.w3.org/Graphics/SVG/1.1/DTD/svg11.dtd">
<svg width="24px" height="24px" version="1.1" xmlns="http://www.w3.org/2000/svg" xmlns:xlink="http://www.w3.org/1999/xlink" xml:space="preserve" xmlns:serif="http://www.serif.com/" style="fill-rule:evenodd;clip-rule:evenodd;stroke-linejoin:round;stroke-miterlimit:1.41421;">
    <g transform="matrix(1,0,0,1,-2757,-606)">
        <g id="ui.thin.soundwave" transform="matrix(0.800768,0,0,0.984948,2757,606)">
            <rect x="0" y="0" width="29.971" height="24.367" style="fill:none;"/>
            <g transform="matrix(1.2488,0,0,1.01528,-2337.75,-566.528)">
                <path d="M1883.5,561C1883.78,561 1884,561.224 1884,561.5C1884,564.085 1884,575.915 1884,578.5C1884,578.776 1883.78,579 1883.5,579C1883.22,579 1883,578.776 1883,578.5C1883,575.915 1883,564.085 1883,561.5C1883,561.224 1883.22,561 1883.5,561C1883.5,561 1883.5,561 1883.5,561ZM1889.5,563C1889.78,563 1890,563.224 1890,563.5C1890,565.678 1890,574.322 1890,576.5C1890,576.776 1889.78,577 1889.5,577C1889.22,577 1889,576.776 1889,576.5C1889,574.322 1889,565.678 1889,563.5C1889,563.224 1889.22,563 1889.5,563C1889.5,563 1889.5,563 1889.5,563ZM1880.5,564C1880.78,564 1881,564.224 1881,564.5C1881,566.452 1881,573.548 1881,575.5C1881,575.633 1880.95,575.76 1880.85,575.854C1880.76,575.947 1880.63,576 1880.5,576C1880.22,576 1880,575.776 1880,575.5C1880,573.548 1880,566.452 1880,564.5C1880,564.224 1880.22,564 1880.5,564C1880.5,564 1880.5,564 1880.5,564ZM1892.5,565C1892.63,565 1892.76,565.053 1892.85,565.146C1892.95,565.24 1893,565.367 1893,565.5C1893,567.207 1893,572.793 1893,574.5C1893,574.633 1892.95,574.76 1892.85,574.854C1892.76,574.947 1892.63,575 1892.5,575C1892.37,575 1892.24,574.947 1892.15,574.854C1892.05,574.76 1892,574.633 1892,574.5C1892,572.793 1892,567.207 1892,565.5C1892,565.367 1892.05,565.24 1892.15,565.146C1892.24,565.053 1892.37,565 1892.5,565C1892.5,565 1892.5,565 1892.5,565ZM1886.5,566C1886.78,566 1887,566.224 1887,566.5C1887,567.936 1887,572.064 1887,573.5C1887,573.776 1886.78,574 1886.5,574C1886.22,574 1886,573.776 1886,573.5C1886,572.064 1886,567.936 1886,566.5C1886,566.224 1886.22,566 1886.5,566C1886.5,566 1886.5,566 1886.5,566ZM1877.5,567C1877.63,567 1877.76,567.053 1877.85,567.146C1877.95,567.24 1878,567.367 1878,567.5C1878,568.63 1878,571.37 1878,572.5C1878,572.633 1877.95,572.76 1877.85,572.854C1877.76,572.947 1877.63,573 1877.5,573C1877.37,573 1877.24,572.947 1877.15,572.854C1877.05,572.76 1877,572.633 1877,572.5C1877,571.37 1877,568.63 1877,567.5C1877,567.367 1877.05,567.24 1877.15,567.146C1877.24,567.053 1877.37,567 1877.5,567C1877.5,567 1877.5,567 1877.5,567ZM1874.5,568C1874.63,568 1874.76,568.053 1874.85,568.146C1874.95,568.24 1875,568.367 1875,568.5C1875,569.269 1875,570.731 1875,571.5C1875,571.633 1874.95,571.76 1874.85,571.854C1874.76,571.947 1874.63,572 1874.5,572C1874.37,572 1874.24,571.947 1874.15,571.854C1874.05,571.76 1874,571.633 1874,571.5C1874,570.731 1874,569.269 1874,568.5C1874,568.367 1874.05,568.24 1874.15,568.146C1874.24,568.053 1874.37,568 1874.5,568C1874.5,568 1874.5,568 1874.5,568Z" style="fill:rgb(51,51,51);"/>
            </g>
        </g>
    </g>
</svg>
