<?xml version="1.0" encoding="UTF-8" standalone="no"?>
<!DOCTYPE svg PUBLIC "-//W3C//DTD SVG 1.1//EN" "http://www.w3.org/Graphics/SVG/1.1/DTD/svg11.dtd">
<svg width="24px" height="24px" version="1.1" xmlns="http://www.w3.org/2000/svg" xmlns:xlink="http://www.w3.org/1999/xlink" xml:space="preserve" xmlns:serif="http://www.serif.com/" style="fill-rule:evenodd;clip-rule:evenodd;stroke-linejoin:round;stroke-miterlimit:1.41421;">
    <g transform="matrix(1,0,0,1,-915,-606)">
        <g id="ui.thin.alignJustify" transform="matrix(0.800768,0,0,0.984948,915,606)">
            <rect x="0" y="0" width="29.971" height="24.367" style="fill:none;"/>
            <g transform="matrix(1.2488,0,0,1.01528,-2336.51,-566.528)">
                <path d="M1875,575.512C1875,575.376 1875.05,575.246 1875.15,575.15C1875.25,575.054 1875.38,575 1875.51,575C1877.93,575 1888.15,575 1890.51,575C1890.64,575 1890.77,575.051 1890.86,575.143C1890.95,575.234 1891,575.358 1891,575.487C1891,575.487 1891,575.488 1891,575.488C1891,575.624 1890.95,575.754 1890.85,575.85C1890.75,575.946 1890.62,576 1890.49,576C1888.07,576 1877.85,576 1875.49,576C1875.36,576 1875.23,575.949 1875.14,575.857C1875.05,575.766 1875,575.642 1875,575.513C1875,575.513 1875,575.512 1875,575.512ZM1875,571.512C1875,571.376 1875.05,571.246 1875.15,571.15C1875.25,571.054 1875.38,571 1875.51,571C1877.93,571 1888.15,571 1890.51,571C1890.64,571 1890.77,571.051 1890.86,571.143C1890.95,571.234 1891,571.358 1891,571.487C1891,571.487 1891,571.488 1891,571.488C1891,571.624 1890.95,571.754 1890.85,571.85C1890.75,571.946 1890.62,572 1890.49,572C1888.07,572 1877.85,572 1875.49,572C1875.36,572 1875.23,571.949 1875.14,571.857C1875.05,571.766 1875,571.642 1875,571.513C1875,571.513 1875,571.512 1875,571.512ZM1875,567.512C1875,567.376 1875.05,567.246 1875.15,567.15C1875.25,567.054 1875.38,567 1875.51,567C1877.93,567 1888.15,567 1890.51,567C1890.64,567 1890.77,567.051 1890.86,567.143C1890.95,567.234 1891,567.358 1891,567.487C1891,567.487 1891,567.488 1891,567.488C1891,567.624 1890.95,567.754 1890.85,567.85C1890.75,567.946 1890.62,568 1890.49,568C1888.07,568 1877.85,568 1875.49,568C1875.36,568 1875.23,567.949 1875.14,567.857C1875.05,567.766 1875,567.642 1875,567.513C1875,567.513 1875,567.512 1875,567.512ZM1875,563.512C1875,563.376 1875.05,563.246 1875.15,563.15C1875.25,563.054 1875.38,563 1875.51,563C1877.93,563 1888.15,563 1890.51,563C1890.64,563 1890.77,563.051 1890.86,563.143C1890.95,563.234 1891,563.358 1891,563.487C1891,563.487 1891,563.488 1891,563.488C1891,563.624 1890.95,563.754 1890.85,563.85C1890.75,563.946 1890.62,564 1890.49,564C1888.07,564 1877.85,564 1875.49,564C1875.36,564 1875.23,563.949 1875.14,563.857C1875.05,563.766 1875,563.642 1875,563.513C1875,563.513 1875,563.512 1875,563.512Z" style="fill:rgb(51,51,51);"/>
            </g>
        </g>
    </g>
</svg>
