<?xml version="1.0" encoding="UTF-8" standalone="no"?>
<!DOCTYPE svg PUBLIC "-//W3C//DTD SVG 1.1//EN" "http://www.w3.org/Graphics/SVG/1.1/DTD/svg11.dtd">
<svg width="24px" height="24px" version="1.1" xmlns="http://www.w3.org/2000/svg" xmlns:xlink="http://www.w3.org/1999/xlink" xml:space="preserve" xmlns:serif="http://www.serif.com/" style="fill-rule:evenodd;clip-rule:evenodd;stroke-linejoin:round;stroke-miterlimit:1.41421;">
    <g transform="matrix(1,0,0,1,-1008,-606)">
        <g id="ui.thin.increasingArrow" transform="matrix(0.800768,0,0,0.984948,1008,606)">
            <rect x="0" y="0" width="29.971" height="24.367" style="fill:none;"/>
            <g transform="matrix(1.2488,0,0,1.01528,-2935.93,-615.261)">
                <path d="M2370,618.5C2370,618.633 2369.95,618.76 2369.85,618.854C2369.76,618.947 2369.63,619 2369.5,619C2369.37,619 2369.24,618.947 2369.15,618.854C2369.05,618.76 2369,618.633 2369,618.5C2369,617.579 2369,615.707 2369,615.707C2369,615.707 2365.29,619.413 2363.71,621C2363.52,621.188 2363.26,621.293 2363,621.293C2362.74,621.293 2362.48,621.188 2362.29,621C2361.41,620.113 2360,618.707 2360,618.707C2360,618.707 2357.33,621.376 2356.35,622.354C2356.16,622.549 2355.84,622.549 2355.65,622.354C2355.65,622.353 2355.65,622.353 2355.65,622.353C2355.45,622.158 2355.45,621.842 2355.65,621.647C2356.42,620.875 2358.27,619.022 2359.29,618C2359.48,617.812 2359.74,617.707 2360,617.707C2360.26,617.707 2360.52,617.812 2360.71,618C2361.59,618.887 2363,620.293 2363,620.293L2368.29,615C2368.29,615 2366.42,615 2365.5,615C2365.37,615 2365.24,614.947 2365.15,614.854C2365.05,614.76 2365,614.633 2365,614.5C2365,614.367 2365.05,614.24 2365.15,614.146C2365.24,614.053 2365.37,614 2365.5,614C2366.31,614 2367.94,614 2369,614C2369.26,614 2369.52,614.105 2369.71,614.293C2369.89,614.48 2370,614.735 2370,615C2370,616.058 2370,617.686 2370,618.5Z" style="fill:rgb(51,51,51);"/>
            </g>
        </g>
    </g>
</svg>
