<?xml version="1.0" encoding="UTF-8" standalone="no"?>
<!DOCTYPE svg PUBLIC "-//W3C//DTD SVG 1.1//EN" "http://www.w3.org/Graphics/SVG/1.1/DTD/svg11.dtd">
<svg width="24px" height="24px" version="1.1" xmlns="http://www.w3.org/2000/svg" xmlns:xlink="http://www.w3.org/1999/xlink" xml:space="preserve" xmlns:serif="http://www.serif.com/" style="fill-rule:evenodd;clip-rule:evenodd;stroke-linejoin:round;stroke-miterlimit:1.41421;">
    <g transform="matrix(1,0,0,1,-1299,-606)">
        <g id="ui.thin.increasingLines" transform="matrix(0.800768,0,0,0.984948,1299,606)">
            <rect x="0" y="0" width="29.971" height="24.367" style="fill:none;"/>
            <g transform="matrix(7.6467e-17,1.01528,-1.2488,6.21681e-17,726.802,-1899.59)">
                <path d="M1887,576.512C1887,576.229 1887.23,576 1887.51,576C1888.29,576 1889.75,576 1890.51,576C1890.64,576 1890.77,576.051 1890.86,576.143C1890.95,576.234 1891,576.358 1891,576.487C1891,576.487 1891,576.488 1891,576.488C1891,576.771 1890.77,577 1890.49,577C1889.71,577 1888.25,577 1887.49,577C1887.36,577 1887.23,576.949 1887.14,576.857C1887.05,576.766 1887,576.642 1887,576.513C1887,576.513 1887,576.512 1887,576.512ZM1883,572.512C1883,572.229 1883.23,572 1883.51,572C1884.96,572 1889.09,572 1890.51,572C1890.64,572 1890.77,572.051 1890.86,572.143C1890.95,572.234 1891,572.358 1891,572.487C1891,572.487 1891,572.488 1891,572.488C1891,572.771 1890.77,573 1890.49,573C1889.04,573 1884.91,573 1883.49,573C1883.36,573 1883.23,572.949 1883.14,572.857C1883.05,572.766 1883,572.642 1883,572.513C1883,572.513 1883,572.512 1883,572.512ZM1879,568.512C1879,568.229 1879.23,568 1879.51,568C1881.49,568 1888.58,568 1890.51,568C1890.64,568 1890.77,568.051 1890.86,568.143C1890.95,568.234 1891,568.358 1891,568.487C1891,568.487 1891,568.488 1891,568.488C1891,568.771 1890.77,569 1890.49,569C1888.52,569 1881.42,569 1879.49,569C1879.36,569 1879.23,568.949 1879.14,568.857C1879.05,568.766 1879,568.642 1879,568.513C1879,568.513 1879,568.512 1879,568.512ZM1875,564.512C1875,564.376 1875.05,564.246 1875.15,564.15C1875.25,564.054 1875.38,564 1875.51,564C1877.93,564 1888.15,564 1890.51,564C1890.64,564 1890.77,564.051 1890.86,564.143C1890.95,564.234 1891,564.358 1891,564.487C1891,564.487 1891,564.488 1891,564.488C1891,564.624 1890.95,564.754 1890.85,564.85C1890.75,564.946 1890.62,565 1890.49,565C1888.07,565 1877.85,565 1875.49,565C1875.36,565 1875.23,564.949 1875.14,564.857C1875.05,564.766 1875,564.642 1875,564.513C1875,564.513 1875,564.512 1875,564.512Z" style="fill:rgb(51,51,51);"/>
            </g>
        </g>
    </g>
</svg>
