<?xml version="1.0" encoding="UTF-8" standalone="no"?><!DOCTYPE svg PUBLIC "-//W3C//DTD SVG 1.1//EN" "http://www.w3.org/Graphics/SVG/1.1/DTD/svg11.dtd"><svg width="100%" height="100%" viewBox="0 0 24 24" version="1.1" xmlns="http://www.w3.org/2000/svg" xmlns:xlink="http://www.w3.org/1999/xlink" xml:space="preserve" xmlns:serif="http://www.serif.com/" style="fill-rule:evenodd;clip-rule:evenodd;stroke-linejoin:round;stroke-miterlimit:1.41421;"><rect id="ui.thin.increasingArrow" x="0" y="0" width="24" height="24" style="fill:none;"/><path d="M19,12.5c0,0.133 -0.053,0.26 -0.146,0.354c-0.094,0.093 -0.221,0.146 -0.354,0.146c-0.133,0 -0.26,-0.053 -0.354,-0.146c-0.093,-0.094 -0.146,-0.221 -0.146,-0.354c0,-0.921 0,-2.793 0,-2.793c0,0 -3.706,3.706 -5.293,5.293c-0.188,0.188 -0.442,0.293 -0.707,0.293c-0.265,0 -0.52,-0.105 -0.707,-0.293c-0.887,-0.887 -2.293,-2.293 -2.293,-2.293c0,0 -2.67,2.67 -3.647,3.647c-0.195,0.195 -0.511,0.195 -0.706,0c0,0 -0.001,-0.001 -0.001,-0.001c-0.195,-0.195 -0.195,-0.511 0,-0.706c0.772,-0.772 2.625,-2.625 3.647,-3.647c0.187,-0.188 0.442,-0.293 0.707,-0.293c0.265,0 0.52,0.105 0.707,0.293c0.887,0.887 2.293,2.293 2.293,2.293l5.293,-5.293c0,0 -1.872,0 -2.793,0c-0.133,0 -0.26,-0.053 -0.354,-0.146c-0.093,-0.094 -0.146,-0.221 -0.146,-0.354c0,-0.133 0.053,-0.26 0.146,-0.354c0.094,-0.093 0.221,-0.146 0.354,-0.146c0.814,0 2.442,0 3.5,0c0.265,0 0.52,0.105 0.707,0.293c0.188,0.187 0.293,0.442 0.293,0.707c0,1.058 0,2.686 0,3.5Z" style="fill:#333;"/></svg>