<?xml version="1.0" encoding="UTF-8" standalone="no"?>
<!DOCTYPE svg PUBLIC "-//W3C//DTD SVG 1.1//EN" "http://www.w3.org/Graphics/SVG/1.1/DTD/svg11.dtd">
<svg width="24px" height="24px" version="1.1" xmlns="http://www.w3.org/2000/svg" xmlns:xlink="http://www.w3.org/1999/xlink" xml:space="preserve" xmlns:serif="http://www.serif.com/" style="fill-rule:evenodd;clip-rule:evenodd;stroke-linejoin:round;stroke-miterlimit:1.41421;">
    <g transform="matrix(1,0,0,1,-627,-606)">
        <g id="ui.thin.play" transform="matrix(0.800768,0,0,0.984948,627,606)">
            <rect x="0" y="0" width="29.971" height="24.367" style="fill:none;"/>
            <g transform="matrix(7.6467e-17,1.01528,-1.2488,6.21681e-17,29.9712,-291.894)">
                <path d="M293.002,15.936L293.009,15.869L293.02,15.801L293.036,15.735L293.056,15.67L293.081,15.607L293.109,15.545L293.142,15.485L299.142,5.486L299.18,5.428L299.221,5.373L299.266,5.321L299.314,5.272L299.366,5.227L299.42,5.185L299.478,5.147L299.537,5.113L299.599,5.084L299.663,5.058L299.729,5.038L299.795,5.021L299.863,5.009L299.931,5.002L300,5L300.069,5.002L300.137,5.009L300.205,5.021L300.271,5.038L300.337,5.058L300.401,5.084L300.463,5.113L300.522,5.147L300.58,5.185L300.634,5.227L300.686,5.272L300.734,5.321L300.779,5.373L300.82,5.428L300.857,5.486L306.857,15.485L306.891,15.545L306.919,15.607L306.944,15.67L306.964,15.735L306.98,15.801L306.991,15.869L306.998,15.936L307,16.004L306.997,16.072L306.99,16.14L306.978,16.207L306.962,16.273L306.941,16.338L306.916,16.401L306.886,16.463L306.853,16.522L306.815,16.579L306.774,16.633L306.729,16.684L306.681,16.732L306.63,16.777L306.575,16.818L306.518,16.855L306.459,16.888L306.397,16.918L306.334,16.943L306.269,16.963L306.203,16.979L306.136,16.991L306.068,16.998L306,17L294,17L293.932,16.998L293.864,16.991L293.797,16.979L293.731,16.963L293.666,16.943L293.603,16.918L293.541,16.888L293.482,16.855L293.425,16.818L293.37,16.777L293.319,16.732L293.271,16.684L293.226,16.633L293.185,16.579L293.147,16.522L293.114,16.463L293.084,16.401L293.059,16.338L293.038,16.273L293.022,16.207L293.01,16.14L293.003,16.072L293,16.004L293.002,15.936ZM306,16L300,6L294,16L306,16Z" style="fill:rgb(51,51,51);"/>
            </g>
        </g>
    </g>
</svg>
