<?xml version="1.0" encoding="UTF-8" standalone="no"?>
<!DOCTYPE svg PUBLIC "-//W3C//DTD SVG 1.1//EN" "http://www.w3.org/Graphics/SVG/1.1/DTD/svg11.dtd">
<svg width="24px" height="24px" version="1.1" xmlns="http://www.w3.org/2000/svg" xmlns:xlink="http://www.w3.org/1999/xlink" xml:space="preserve" xmlns:serif="http://www.serif.com/" style="fill-rule:evenodd;clip-rule:evenodd;stroke-linejoin:round;stroke-miterlimit:1.41421;">
    <g transform="matrix(1,0,0,1,-933,-606)">
        <g id="ui.thin.warning" transform="matrix(0.800768,0,0,0.984948,933,606)">
            <rect x="0" y="0" width="29.971" height="24.367" style="fill:none;"/>
            <g transform="matrix(1.8732,0,0,1.52292,-546.975,-5.07641)">
                <path d="M305.94,15.669C306.058,15.875 306.057,16.129 305.938,16.334C305.819,16.54 305.599,16.667 305.361,16.667C302.781,16.667 296.552,16.667 293.972,16.667C293.734,16.667 293.515,16.54 293.395,16.334C293.276,16.129 293.275,15.875 293.393,15.669C294.68,13.42 297.794,7.977 299.088,5.716C299.207,5.508 299.428,5.38 299.667,5.38C299.906,5.38 300.127,5.508 300.245,5.716C301.539,7.977 304.653,13.42 305.94,15.669ZM294,16L305.333,16L299.667,6C297.667,9.333 296,12.667 294,16Z" style="fill:rgb(51,51,51);fill-rule:nonzero;"/>
            </g>
            <g transform="matrix(1.2488,0,0,1.01528,-1737.08,-566.528)">
                <path d="M1402,574.487C1402,574.358 1402.05,574.234 1402.14,574.143C1402.23,574.051 1402.36,574 1402.49,574C1402.49,574 1402.5,574 1402.5,574C1402.78,574 1403,574.223 1403,574.499C1403,574.499 1403,574.5 1403,574.5C1403,574.776 1402.78,575 1402.5,575C1402.5,575 1402.49,575 1402.49,575C1402.36,575 1402.23,574.949 1402.14,574.857C1402.05,574.766 1402,574.642 1402,574.513C1402,574.504 1402,574.496 1402,574.487ZM1402,567.5C1402,567.367 1402.05,567.24 1402.15,567.146C1402.24,567.053 1402.37,567 1402.5,567C1402.63,567 1402.76,567.053 1402.85,567.146C1402.95,567.24 1403,567.367 1403,567.5C1403,568.458 1403,570.542 1403,571.5C1403,571.633 1402.95,571.76 1402.85,571.854C1402.76,571.947 1402.63,572 1402.5,572C1402.37,572 1402.24,571.947 1402.15,571.854C1402.05,571.76 1402,571.633 1402,571.5C1402,570.542 1402,568.458 1402,567.5Z" style="fill:rgb(51,51,51);"/>
            </g>
        </g>
    </g>
</svg>
