<?xml version="1.0" encoding="UTF-8" standalone="no"?>
<!DOCTYPE svg PUBLIC "-//W3C//DTD SVG 1.1//EN" "http://www.w3.org/Graphics/SVG/1.1/DTD/svg11.dtd">
<svg width="24px" height="24px" version="1.1" xmlns="http://www.w3.org/2000/svg" xmlns:xlink="http://www.w3.org/1999/xlink" xml:space="preserve" xmlns:serif="http://www.serif.com/" style="fill-rule:evenodd;clip-rule:evenodd;stroke-linecap:round;stroke-miterlimit:5;">
    <g transform="matrix(1,0,0,1,-436,-836)">
        <g id="ui.thin.euro" transform="matrix(0.800768,0,0,0.984948,436,836)">
            <rect x="0" y="0" width="29.971" height="24.367" style="fill:none;"/>
            <g transform="matrix(0.661804,0.538687,-0.662587,0.538051,37.3744,-833.036)">
                <path d="M777,800C777,804.414 773.417,807.997 769.003,807.997C764.589,807.997 761.006,804.414 761.006,800C761.006,795.586 764.589,792.003 769.003,792.003" style="fill:none;stroke:rgb(51,51,51);stroke-width:1.33px;"/>
            </g>
            <g transform="matrix(6.2367,0,0,0.417419,-4479.18,-319.847)">
                <path d="M721.003,791.784C721.003,791.113 720.958,790.568 720.903,790.568L719.1,790.568C719.045,790.568 719,791.113 719,791.784C719,792.455 719.045,793 719.1,793L720.903,793C720.958,793 721.003,792.455 721.003,791.784Z" style="fill:rgb(51,51,51);"/>
            </g>
            <g transform="matrix(6.2367,0,0,0.417419,-4479.18,-316.801)">
                <path d="M721.003,791.784C721.003,791.113 720.958,790.568 720.903,790.568L719.1,790.568C719.045,790.568 719,791.113 719,791.784C719,792.455 719.045,793 719.1,793L720.903,793C720.958,793 721.003,792.455 721.003,791.784Z" style="fill:rgb(51,51,51);"/>
            </g>
        </g>
    </g>
</svg>
