<?xml version="1.0" encoding="UTF-8" standalone="no"?><!DOCTYPE svg PUBLIC "-//W3C//DTD SVG 1.1//EN" "http://www.w3.org/Graphics/SVG/1.1/DTD/svg11.dtd"><svg width="100%" height="100%" viewBox="0 0 24 24" version="1.1" xmlns="http://www.w3.org/2000/svg" xmlns:xlink="http://www.w3.org/1999/xlink" xml:space="preserve" xmlns:serif="http://www.serif.com/" style="fill-rule:evenodd;clip-rule:evenodd;stroke-linejoin:round;stroke-miterlimit:1.41421;"><rect id="ui.thin.decreasingLines" x="0" y="0" width="24" height="24" style="fill:none;"/><path d="M17.512,16c-0.283,0 -0.512,0.229 -0.512,0.512c0,0.776 0,2.24 0,3.001c0,0.129 0.051,0.253 0.143,0.344c0.091,0.092 0.215,0.143 0.344,0.143c0,0 0.001,0 0.001,0c0.283,0 0.512,-0.229 0.512,-0.512c0,-0.776 0,-2.24 0,-3.001c0,-0.129 -0.051,-0.253 -0.143,-0.344c-0.091,-0.092 -0.215,-0.143 -0.344,-0.143c0,0 -0.001,0 -0.001,0Zm-4,-4c-0.283,0 -0.512,0.229 -0.512,0.512c0,1.452 0,5.581 0,7.001c0,0.129 0.051,0.253 0.143,0.344c0.091,0.092 0.215,0.143 0.344,0.143c0,0 0.001,0 0.001,0c0.283,0 0.512,-0.229 0.512,-0.512c0,-1.452 0,-5.581 0,-7.001c0,-0.129 -0.051,-0.253 -0.143,-0.344c-0.091,-0.092 -0.215,-0.143 -0.344,-0.143c0,0 -0.001,0 -0.001,0Zm-4,-4c-0.283,0 -0.512,0.229 -0.512,0.512c0,1.973 0,9.072 0,11.001c0,0.129 0.051,0.253 0.143,0.344c0.091,0.092 0.215,0.143 0.344,0.143c0,0 0.001,0 0.001,0c0.283,0 0.512,-0.229 0.512,-0.512c0,-1.973 0,-9.072 0,-11.001c0,-0.129 -0.051,-0.253 -0.143,-0.344c-0.091,-0.092 -0.215,-0.143 -0.344,-0.143c0,0 -0.001,0 -0.001,0Zm-4,-4c-0.136,0 -0.266,0.054 -0.362,0.15c-0.096,0.096 -0.15,0.226 -0.15,0.362c0,2.414 0,12.642 0,15.001c0,0.129 0.051,0.253 0.143,0.344c0.091,0.092 0.215,0.143 0.344,0.143c0,0 0.001,0 0.001,0c0.136,0 0.266,-0.054 0.362,-0.15c0.096,-0.096 0.15,-0.226 0.15,-0.362c0,-2.414 0,-12.642 0,-15.001c0,-0.129 -0.051,-0.253 -0.143,-0.344c-0.091,-0.092 -0.215,-0.143 -0.344,-0.143c0,0 -0.001,0 -0.001,0Z" style="fill:#333;"/></svg>