<?xml version="1.0" encoding="UTF-8" standalone="no"?>
<!DOCTYPE svg PUBLIC "-//W3C//DTD SVG 1.1//EN" "http://www.w3.org/Graphics/SVG/1.1/DTD/svg11.dtd">
<svg width="24px" height="24px" version="1.1" xmlns="http://www.w3.org/2000/svg" xmlns:xlink="http://www.w3.org/1999/xlink" xml:space="preserve" xmlns:serif="http://www.serif.com/" style="fill-rule:evenodd;clip-rule:evenodd;stroke-linejoin:round;stroke-miterlimit:1.41421;">
    <g transform="matrix(1,0,0,1,-1876,-606)">
        <g id="ui.thin.backOne" transform="matrix(0.800768,0,0,0.984948,1876,606)">
            <rect x="0" y="0" width="29.971" height="24.367" style="fill:none;"/>
            <g transform="matrix(1.2488,0,0,1.01528,-1858.22,-615.261)">
                <path d="M1508,625C1508,625.265 1507.89,625.52 1507.71,625.707C1507.52,625.895 1507.27,626 1507,626C1505.27,626 1501.73,626 1500,626C1499.74,626 1499.48,625.895 1499.29,625.707C1499.11,625.52 1499,625.265 1499,625C1499,623.268 1499,619.732 1499,618C1499,617.735 1499.11,617.48 1499.29,617.293C1499.48,617.105 1499.74,617 1500,617C1501.73,617 1505.27,617 1507,617C1507.27,617 1507.52,617.105 1507.71,617.293C1507.89,617.48 1508,617.735 1508,618C1508,619.732 1508,623.268 1508,625ZM1507,625L1507,618L1500,618L1500,625L1507,625ZM1504,615.501C1504,615.633 1503.95,615.76 1503.85,615.854C1503.76,615.947 1503.63,616 1503.5,616C1503.5,616 1503.5,616 1503.5,616C1503.37,616 1503.24,615.947 1503.15,615.854C1503.05,615.76 1503,615.633 1503,615.501C1503,614.235 1503,611 1503,611L1493,611L1493,621C1493,621 1496.24,621 1497.5,621C1497.78,621 1498,621.223 1498,621.499C1498,621.5 1498,621.5 1498,621.501C1498,621.777 1497.78,622 1497.5,622C1496.52,622 1494.3,622 1493,622C1492.74,622 1492.48,621.895 1492.29,621.707C1492.11,621.52 1492,621.265 1492,621C1492,618.74 1492,613.26 1492,611C1492,610.735 1492.11,610.48 1492.29,610.293C1492.48,610.105 1492.74,610 1493,610C1495.26,610 1500.74,610 1503,610C1503.27,610 1503.52,610.105 1503.71,610.293C1503.89,610.48 1504,610.735 1504,611C1504,612.298 1504,614.515 1504,615.501Z"/>
            </g>
            <g transform="matrix(3.7464,0,0,0.169214,-5442.27,-89.1756)">
                <path d="M1457,572C1457,571.204 1456.98,570.441 1456.95,569.879C1456.92,569.316 1456.88,569 1456.83,569C1456.46,569 1455.54,569 1455.17,569C1455.12,569 1455.08,569.316 1455.05,569.879C1455.02,570.441 1455,571.204 1455,572C1455,572 1455,572 1455,572C1455,572.796 1455.02,573.559 1455.05,574.121C1455.08,574.684 1455.12,575 1455.17,575C1455.54,575 1456.46,575 1456.83,575C1456.88,575 1456.92,574.684 1456.95,574.121C1456.98,573.559 1457,572.796 1457,572C1457,572 1457,572 1457,572Z"/>
            </g>
            <g transform="matrix(3.7464,0,0,0.169214,-5442.27,-87.1451)">
                <path d="M1457,572C1457,571.204 1456.98,570.441 1456.95,569.879C1456.92,569.316 1456.88,569 1456.83,569C1456.46,569 1455.54,569 1455.17,569C1455.12,569 1455.08,569.316 1455.05,569.879C1455.02,570.441 1455,571.204 1455,572C1455,572 1455,572 1455,572C1455,572.796 1455.02,573.559 1455.05,574.121C1455.08,574.684 1455.12,575 1455.17,575C1455.54,575 1456.46,575 1456.83,575C1456.88,575 1456.92,574.684 1456.95,574.121C1456.98,573.559 1457,572.796 1457,572C1457,572 1457,572 1457,572Z"/>
            </g>
        </g>
    </g>
</svg>
