<?xml version="1.0" encoding="UTF-8" standalone="no"?>
<!DOCTYPE svg PUBLIC "-//W3C//DTD SVG 1.1//EN" "http://www.w3.org/Graphics/SVG/1.1/DTD/svg11.dtd">
<svg width="24px" height="24px" version="1.1" xmlns="http://www.w3.org/2000/svg" xmlns:xlink="http://www.w3.org/1999/xlink" xml:space="preserve" xmlns:serif="http://www.serif.com/" style="fill-rule:evenodd;clip-rule:evenodd;stroke-linejoin:round;stroke-miterlimit:1.41421;">
    <g transform="matrix(1,0,0,1,-288,-606)">
        <g id="ui.thin.stop" transform="matrix(0.800768,0,0,0.984948,288,606)">
            <rect x="0" y="0" width="29.971" height="24.367" style="fill:none;"/>
            <g transform="matrix(0.74928,0,0,0.609169,-173.833,-24.3668)">
                <path d="M262.114,48.337L262.227,48.349L262.339,48.368L262.45,48.395L262.558,48.43L262.664,48.471L262.767,48.52L262.866,48.576L262.961,48.638L263.052,48.707L263.138,48.782L263.218,48.862L263.293,48.948L263.362,49.039L263.424,49.134L263.48,49.233L263.529,49.336L263.57,49.442L263.605,49.55L263.632,49.661L263.651,49.773L263.663,49.886L263.667,50L263.667,70L263.663,70.114L263.651,70.227L263.632,70.339L263.605,70.45L263.57,70.558L263.529,70.664L263.48,70.767L263.424,70.866L263.362,70.961L263.293,71.052L263.218,71.138L263.138,71.218L263.052,71.293L262.961,71.362L262.866,71.424L262.767,71.48L262.664,71.529L262.558,71.57L262.45,71.605L262.339,71.632L262.227,71.651L262.114,71.663L262,71.667L242,71.667L241.886,71.663L241.773,71.651L241.661,71.632L241.55,71.605L241.442,71.57L241.336,71.529L241.233,71.48L241.134,71.424L241.039,71.362L240.948,71.293L240.862,71.218L240.782,71.138L240.707,71.052L240.638,70.961L240.576,70.866L240.52,70.767L240.471,70.664L240.43,70.558L240.395,70.45L240.368,70.339L240.349,70.227L240.337,70.114L240.333,70L240.333,50L240.337,49.886L240.349,49.773L240.368,49.661L240.395,49.55L240.43,49.442L240.471,49.336L240.52,49.233L240.576,49.134L240.638,49.039L240.707,48.948L240.782,48.862L240.862,48.782L240.948,48.707L241.039,48.638L241.134,48.576L241.233,48.52L241.336,48.471L241.442,48.43L241.55,48.395L241.661,48.368L241.773,48.349L241.886,48.337L242,48.333L262,48.333L262.114,48.337ZM242,50L242,70L262,70L262,50L242,50Z" style="fill:rgb(51,51,51);"/>
            </g>
        </g>
    </g>
</svg>
