<?xml version="1.0" encoding="UTF-8" standalone="no"?>
<!DOCTYPE svg PUBLIC "-//W3C//DTD SVG 1.1//EN" "http://www.w3.org/Graphics/SVG/1.1/DTD/svg11.dtd">
<svg width="24px" height="24px" version="1.1" xmlns="http://www.w3.org/2000/svg" xmlns:xlink="http://www.w3.org/1999/xlink" xml:space="preserve" xmlns:serif="http://www.serif.com/" style="fill-rule:evenodd;clip-rule:evenodd;stroke-linejoin:round;stroke-miterlimit:1.41421;">
    <g transform="matrix(1,0,0,1,-3189,-606)">
        <g id="ui.thin.rewindBackward" transform="matrix(0.800768,0,0,0.984948,3189,606)">
            <rect x="0" y="0" width="29.971" height="24.367" style="fill:none;"/>
            <g transform="matrix(-7.21645e-17,0.812226,0.999041,4.44089e-17,10.2402,-231.484)">
                <path d="M292.752,16.078L292.759,16.153L292.771,16.228L292.787,16.302L292.807,16.374L292.832,16.445L292.861,16.515L292.894,16.583L292.931,16.648L292.972,16.712L293.017,16.772L293.065,16.83L293.117,16.885L293.172,16.937L293.23,16.985L293.291,17.029L293.354,17.07L293.42,17.107L293.488,17.14L293.557,17.169L293.629,17.194L293.701,17.214L293.775,17.23L293.85,17.241L293.925,17.248L294,17.25L306,17.25L306.075,17.248L306.15,17.241L306.225,17.23L306.299,17.214L306.371,17.194L306.443,17.169L306.512,17.14L306.58,17.107L306.646,17.07L306.709,17.029L306.77,16.985L306.828,16.937L306.883,16.885L306.935,16.83L306.983,16.772L307.028,16.712L307.069,16.648L307.106,16.583L307.139,16.515L307.168,16.445L307.193,16.374L307.213,16.302L307.229,16.228L307.241,16.153L307.248,16.078L307.25,16.003L307.248,15.928L307.241,15.853L307.23,15.778L307.215,15.704L307.194,15.632L307.17,15.56L307.141,15.491L307.109,15.423L307.072,15.357L301.072,5.357L301.031,5.293L300.986,5.232L300.938,5.174L300.886,5.118L300.831,5.066L300.773,5.018L300.712,4.973L300.649,4.932L300.583,4.894L300.515,4.861L300.445,4.832L300.373,4.807L300.3,4.787L300.226,4.771L300.151,4.759L300.076,4.752L300,4.75L299.924,4.752L299.849,4.759L299.774,4.771L299.7,4.787L299.627,4.807L299.555,4.832L299.485,4.861L299.417,4.894L299.351,4.932L299.288,4.973L299.227,5.018L299.169,5.066L299.114,5.118L299.062,5.174L299.014,5.232L298.969,5.293L298.928,5.357L292.928,15.357L292.891,15.423L292.859,15.491L292.83,15.56L292.806,15.632L292.785,15.704L292.77,15.778L292.759,15.853L292.752,15.928L292.75,16.003L292.752,16.078ZM300,6L306,16L294,16L300,6Z" style="fill:rgb(51,51,51);"/>
            </g>
            <g transform="matrix(-7.21645e-17,0.812226,0.999041,4.44089e-17,-2.24784,-231.484)">
                <path d="M292.752,16.078L292.759,16.153L292.771,16.228L292.787,16.302L292.807,16.374L292.832,16.445L292.861,16.515L292.894,16.583L292.931,16.648L292.972,16.712L293.017,16.772L293.065,16.83L293.117,16.885L293.172,16.936L293.23,16.985L293.291,17.029L293.354,17.07L293.42,17.107L293.488,17.14L293.557,17.169L293.629,17.193L293.701,17.214L293.775,17.229L293.85,17.241L293.925,17.248L294,17.25L306,17.25L306.075,17.248L306.15,17.241L306.225,17.229L306.299,17.214L306.371,17.193L306.443,17.169L306.512,17.14L306.58,17.107L306.646,17.07L306.709,17.029L306.77,16.985L306.828,16.936L306.883,16.885L306.935,16.83L306.983,16.772L307.028,16.712L307.069,16.648L307.106,16.583L307.139,16.515L307.168,16.445L307.193,16.374L307.213,16.302L307.229,16.228L307.241,16.153L307.248,16.078L307.25,16.003L307.248,15.928L307.241,15.853L307.23,15.778L307.215,15.704L307.194,15.632L307.17,15.56L307.141,15.49L307.109,15.423L307.072,15.357L301.072,5.357L301.031,5.293L300.986,5.232L300.938,5.174L300.886,5.118L300.831,5.066L300.773,5.018L300.712,4.973L300.649,4.931L300.583,4.894L300.515,4.861L300.445,4.832L300.373,4.807L300.3,4.787L300.226,4.771L300.151,4.759L300.076,4.752L300,4.75L299.924,4.752L299.849,4.759L299.774,4.771L299.7,4.787L299.627,4.807L299.555,4.832L299.485,4.861L299.417,4.894L299.351,4.931L299.288,4.973L299.227,5.018L299.169,5.066L299.114,5.118L299.062,5.174L299.014,5.232L298.969,5.293L298.928,5.357L292.928,15.357L292.891,15.423L292.859,15.49L292.83,15.56L292.806,15.632L292.785,15.704L292.77,15.778L292.759,15.853L292.752,15.928L292.75,16.003L292.752,16.078ZM300,6L306,16L294,16L300,6Z" style="fill:rgb(51,51,51);"/>
            </g>
        </g>
    </g>
</svg>
