<?xml version="1.0" encoding="UTF-8" standalone="no"?>
<!DOCTYPE svg PUBLIC "-//W3C//DTD SVG 1.1//EN" "http://www.w3.org/Graphics/SVG/1.1/DTD/svg11.dtd">
<svg width="24px" height="24px" version="1.1" xmlns="http://www.w3.org/2000/svg" xmlns:xlink="http://www.w3.org/1999/xlink" xml:space="preserve" xmlns:serif="http://www.serif.com/" style="fill-rule:evenodd;clip-rule:evenodd;stroke-linecap:round;stroke-linejoin:round;stroke-miterlimit:100;">
    <g transform="matrix(1,0,0,1,-981,-606)">
        <g id="ui.thin.questionMark" transform="matrix(0.800768,0,0,0.984948,981,606)">
            <rect x="0" y="0" width="29.971" height="24.367" style="fill:none;"/>
            <g transform="matrix(1.2488,0,0,1.01528,-1225.07,-615.261)">
                <path d="M992.5,608C997.743,608 1002,612.257 1002,617.5C1002,622.743 997.743,627 992.5,627C987.257,627 983,622.743 983,617.5C983,612.257 987.257,608 992.5,608ZM992.5,609C997.191,609 1001,612.809 1001,617.5C1001,622.191 997.191,626 992.5,626C987.809,626 984,622.191 984,617.5C984,612.809 987.809,609 992.5,609Z" style="fill:rgb(51,51,51);"/>
            </g>
            <g transform="matrix(-0.6244,0,0,0.507641,21.854,-93.9136)">
                <circle cx="12" cy="218" r="1" style="fill:rgb(51,51,51);"/>
            </g>
            <g transform="matrix(1.2488,0,0,1.01528,-1225.7,-567.035)">
                <path d="M990.5,567.5C990.5,566.12 991.62,565 993,565C994.38,565 995.5,566.12 995.5,567.5C995.5,568.88 994.38,570 993,570L993,572" style="fill:none;stroke:rgb(51,51,51);stroke-width:1px;"/>
            </g>
        </g>
    </g>
</svg>
