<?xml version="1.0" encoding="UTF-8" standalone="no"?>
<!DOCTYPE svg PUBLIC "-//W3C//DTD SVG 1.1//EN" "http://www.w3.org/Graphics/SVG/1.1/DTD/svg11.dtd">
<svg width="25px" height="24px" version="1.1" xmlns="http://www.w3.org/2000/svg" xmlns:xlink="http://www.w3.org/1999/xlink" xml:space="preserve" xmlns:serif="http://www.serif.com/" style="fill-rule:evenodd;clip-rule:evenodd;stroke-linejoin:round;stroke-miterlimit:1.41421;">
    <g transform="matrix(1,0,0,1,-2066,-606)">
        <g id="ui.thin.history" transform="matrix(0.800768,0,0,0.984948,2066.98,606)">
            <rect x="0" y="0" width="29.971" height="24.367" style="fill:none;"/>
            <g transform="matrix(1.2488,0,0,1.01528,-2097.99,-615.261)">
                <path d="M1696,615.5C1696,615.776 1695.78,616 1695.5,616C1695.37,616 1695.24,615.947 1695.15,615.854C1695.05,615.76 1695,615.633 1695,615.5C1695,614.686 1695,613.058 1695,612C1695,611.735 1695.11,611.48 1695.29,611.293C1695.48,611.105 1695.74,611 1696,611C1697.06,611 1698.69,611 1699.5,611C1699.63,611 1699.76,611.053 1699.85,611.146C1699.95,611.24 1700,611.367 1700,611.5C1700,611.776 1699.78,612 1699.5,612C1698.72,612 1697.29,612 1697.29,612C1698.95,613.466 1700,615.612 1700,618C1700,622.415 1696.41,626 1692,626C1687.59,626 1684,622.415 1684,618C1684,613.585 1687.59,610 1692,610C1692,610 1692.25,610 1692.5,610C1692.78,610 1693,610.224 1693,610.5C1693,610.776 1692.78,611 1692.5,611C1692.25,611 1692,611 1692,611C1688.14,611 1685,614.137 1685,618C1685,621.863 1688.14,625 1692,625C1695.86,625 1699,621.863 1699,618C1699,615.623 1697.81,613.522 1696,612.256C1696,612.256 1696,614.48 1696,615.5ZM1692,618.293C1692,618.293 1692,613.989 1692,612.5C1692,612.367 1692.05,612.24 1692.15,612.146C1692.24,612.053 1692.37,612 1692.5,612C1692.63,612 1692.76,612.053 1692.85,612.146C1692.95,612.24 1693,612.367 1693,612.5C1693,613.773 1693,617.119 1693,618.293C1693,618.558 1692.89,618.812 1692.71,619C1692.25,619.462 1691.35,620.357 1690.85,620.854C1690.66,621.049 1690.34,621.049 1690.15,620.854C1689.95,620.658 1689.95,620.342 1690.15,620.146C1690.77,619.523 1692,618.293 1692,618.293Z" style="fill:rgb(51,51,51);"/>
                <path d="M1692.53,610.001L1692.55,610.003L1692.58,610.006L1692.6,610.01L1692.62,610.016L1692.65,610.022L1692.67,610.03L1692.69,610.039L1692.72,610.049L1692.74,610.06L1692.76,610.072L1692.78,610.085L1692.8,610.099L1692.82,610.114L1692.84,610.13L1692.85,610.146L1692.87,610.164L1692.89,610.182L1692.9,610.201L1692.91,610.22L1692.93,610.241L1692.94,610.262L1692.95,610.283L1692.96,610.305L1692.97,610.328L1692.98,610.351L1692.98,610.375L1692.99,610.399L1692.99,610.424L1693,610.449L1693,610.474L1693,610.5C1693,610.5 1693,610.526 1693,610.526L1693,610.551L1692.99,610.576L1692.99,610.601L1692.98,610.625L1692.98,610.649L1692.97,610.672L1692.96,610.695L1692.95,610.717L1692.94,610.738L1692.93,610.759L1692.91,610.78L1692.9,610.799L1692.89,610.818L1692.87,610.836L1692.85,610.854L1692.84,610.87L1692.82,610.886L1692.8,610.901L1692.78,610.915L1692.76,610.928L1692.74,610.94L1692.72,610.951L1692.69,610.961L1692.67,610.97L1692.65,610.978L1692.62,610.984L1692.6,610.99L1692.58,610.994L1692.55,610.997L1692.53,610.999L1692.5,611L1692,611L1691.91,611.001L1691.82,611.002L1691.73,611.005L1691.64,611.009L1691.55,611.014L1691.46,611.02L1691.37,611.028L1691.29,611.036L1691.2,611.046L1691.11,611.056L1691.02,611.068L1690.93,611.081L1690.85,611.095L1690.76,611.109L1690.68,611.125L1690.59,611.142L1690.51,611.16L1690.42,611.179L1690.34,611.199L1690.25,611.221L1690.17,611.243L1690.09,611.266L1690,611.29L1689.92,611.315L1689.84,611.341L1689.76,611.368L1689.67,611.396L1689.59,611.425L1689.51,611.455L1689.43,611.486L1689.36,611.518L1689.28,611.55L1689.2,611.584L1689.12,611.619L1689.04,611.654L1688.97,611.691L1688.89,611.728L1688.81,611.766L1688.74,611.805L1688.66,611.845L1688.59,611.886L1688.52,611.928L1688.44,611.971L1688.37,612.014L1688.3,612.058L1688.23,612.103L1688.16,612.149L1688.09,612.196L1688.02,612.244L1687.95,612.292L1687.88,612.341L1687.81,612.391L1687.75,612.442L1687.68,612.494L1687.61,612.546L1687.55,612.599L1687.48,612.653L1687.42,612.708L1687.36,612.763L1687.29,612.819L1687.23,612.876L1687.17,612.934L1687.11,612.992L1687.05,613.051L1686.99,613.111L1686.93,613.171L1686.88,613.233L1686.82,613.294L1686.76,613.357L1686.71,613.42L1686.65,613.484L1686.6,613.548L1686.55,613.614L1686.49,613.679L1686.44,613.746L1686.39,613.813L1686.34,613.881L1686.29,613.949L1686.24,614.018L1686.2,614.087L1686.15,614.158L1686.1,614.228L1686.06,614.3L1686.01,614.371L1685.97,614.444L1685.93,614.517L1685.89,614.59L1685.85,614.665L1685.81,614.739L1685.77,614.814L1685.73,614.89L1685.69,614.966L1685.65,615.043L1685.62,615.12L1685.58,615.198L1685.55,615.276L1685.52,615.355L1685.49,615.434L1685.45,615.514L1685.42,615.594L1685.4,615.675L1685.37,615.756L1685.34,615.837L1685.32,615.919L1685.29,616.002L1685.27,616.085L1685.24,616.168L1685.22,616.251L1685.2,616.336L1685.18,616.42L1685.16,616.505L1685.14,616.59L1685.12,616.676L1685.11,616.762L1685.1,616.848L1685.08,616.935L1685.07,617.022L1685.06,617.109L1685.05,617.197L1685.04,617.285L1685.03,617.373L1685.02,617.462L1685.01,617.551L1685.01,617.64L1685.01,617.73L1685,617.819L1685,617.91L1685,618L1685,618.09L1685,618.181L1685.01,618.27L1685.01,618.36L1685.01,618.449L1685.02,618.538L1685.03,618.627L1685.04,618.715L1685.05,618.803L1685.06,618.891L1685.07,618.978L1685.08,619.065L1685.1,619.152L1685.11,619.238L1685.12,619.324L1685.14,619.41L1685.16,619.495L1685.18,619.58L1685.2,619.664L1685.22,619.749L1685.24,619.832L1685.27,619.915L1685.29,619.998L1685.32,620.081L1685.34,620.163L1685.37,620.244L1685.4,620.325L1685.42,620.406L1685.45,620.486L1685.49,620.566L1685.52,620.645L1685.55,620.724L1685.58,620.802L1685.62,620.88L1685.65,620.957L1685.69,621.034L1685.73,621.11L1685.77,621.186L1685.81,621.261L1685.85,621.335L1685.89,621.41L1685.93,621.483L1685.97,621.556L1686.01,621.629L1686.06,621.7L1686.1,621.772L1686.15,621.843L1686.2,621.913L1686.24,621.982L1686.29,622.051L1686.34,622.119L1686.39,622.187L1686.44,622.254L1686.49,622.321L1686.55,622.386L1686.6,622.452L1686.65,622.516L1686.71,622.58L1686.76,622.643L1686.82,622.706L1686.88,622.767L1686.93,622.829L1686.99,622.889L1687.05,622.949L1687.11,623.008L1687.17,623.066L1687.23,623.124L1687.29,623.181L1687.36,623.237L1687.42,623.292L1687.48,623.347L1687.55,623.401L1687.61,623.454L1687.68,623.506L1687.75,623.558L1687.81,623.609L1687.88,623.659L1687.95,623.708L1688.02,623.756L1688.09,623.804L1688.16,623.851L1688.23,623.897L1688.3,623.942L1688.37,623.986L1688.44,624.029L1688.52,624.072L1688.59,624.114L1688.66,624.155L1688.74,624.195L1688.81,624.234L1688.89,624.272L1688.97,624.309L1689.04,624.346L1689.12,624.381L1689.2,624.416L1689.28,624.45L1689.36,624.482L1689.43,624.514L1689.51,624.545L1689.59,624.575L1689.67,624.604L1689.76,624.632L1689.84,624.659L1689.92,624.685L1690,624.71L1690.09,624.734L1690.17,624.757L1690.25,624.779L1690.34,624.801L1690.42,624.821L1690.51,624.84L1690.59,624.858L1690.68,624.875L1690.76,624.891L1690.85,624.905L1690.93,624.919L1691.02,624.932L1691.11,624.944L1691.2,624.954L1691.29,624.964L1691.37,624.972L1691.46,624.98L1691.55,624.986L1691.64,624.991L1691.73,624.995L1691.82,624.998L1691.91,624.999L1692,625L1692.09,624.999L1692.18,624.998L1692.27,624.995L1692.36,624.991L1692.45,624.986L1692.54,624.98L1692.63,624.972L1692.72,624.964L1692.8,624.954L1692.89,624.944L1692.98,624.932L1693.07,624.919L1693.15,624.905L1693.24,624.891L1693.32,624.875L1693.41,624.858L1693.5,624.84L1693.58,624.821L1693.66,624.801L1693.75,624.779L1693.83,624.757L1693.91,624.734L1694,624.71L1694.08,624.685L1694.16,624.659L1694.24,624.632L1694.33,624.604L1694.41,624.575L1694.49,624.545L1694.57,624.514L1694.64,624.482L1694.72,624.45L1694.8,624.416L1694.88,624.381L1694.96,624.346L1695.03,624.309L1695.11,624.272L1695.19,624.234L1695.26,624.195L1695.34,624.155L1695.41,624.114L1695.48,624.072L1695.56,624.029L1695.63,623.986L1695.7,623.942L1695.77,623.897L1695.84,623.851L1695.91,623.804L1695.98,623.756L1696.05,623.708L1696.12,623.659L1696.19,623.609L1696.25,623.558L1696.32,623.506L1696.39,623.454L1696.45,623.401L1696.52,623.347L1696.58,623.292L1696.64,623.237L1696.71,623.181L1696.77,623.124L1696.83,623.066L1696.89,623.008L1696.95,622.949L1697.01,622.889L1697.07,622.829L1697.12,622.767L1697.18,622.706L1697.24,622.643L1697.29,622.58L1697.35,622.516L1697.4,622.452L1697.45,622.386L1697.51,622.321L1697.56,622.254L1697.61,622.187L1697.66,622.119L1697.71,622.051L1697.76,621.982L1697.8,621.913L1697.85,621.843L1697.9,621.772L1697.94,621.7L1697.99,621.629L1698.03,621.556L1698.07,621.483L1698.11,621.41L1698.15,621.335L1698.19,621.261L1698.23,621.186L1698.27,621.11L1698.31,621.034L1698.35,620.957L1698.38,620.88L1698.42,620.802L1698.45,620.724L1698.48,620.645L1698.51,620.566L1698.55,620.486L1698.58,620.406L1698.6,620.325L1698.63,620.244L1698.66,620.163L1698.68,620.081L1698.71,619.998L1698.73,619.915L1698.76,619.832L1698.78,619.749L1698.8,619.664L1698.82,619.58L1698.84,619.495L1698.86,619.41L1698.88,619.324L1698.89,619.238L1698.9,619.152L1698.92,619.065L1698.93,618.978L1698.94,618.891L1698.95,618.803L1698.96,618.715L1698.97,618.627L1698.98,618.538L1698.99,618.449L1698.99,618.36L1699,618.27L1699,618.181L1699,618.09L1699,618L1699,617.889L1699,617.778L1698.99,617.668L1698.99,617.558L1698.98,617.448L1698.97,617.339L1698.96,617.231L1698.94,617.123L1698.93,617.015L1698.91,616.908L1698.9,616.802L1698.88,616.696L1698.86,616.59L1698.84,616.486L1698.81,616.381L1698.79,616.278L1698.76,616.175L1698.73,616.072L1698.7,615.971L1698.67,615.87L1698.64,615.769L1698.6,615.669L1698.57,615.57L1698.53,615.472L1698.49,615.374L1698.45,615.277L1698.41,615.181L1698.37,615.086L1698.32,614.991L1698.28,614.897L1698.23,614.804L1698.18,614.711L1698.13,614.62L1698.08,614.529L1698.03,614.439L1697.97,614.35L1697.92,614.262L1697.86,614.175L1697.81,614.089L1697.75,614.003L1697.69,613.918L1697.62,613.835L1697.56,613.752L1697.5,613.67L1697.43,613.59L1697.37,613.51L1697.3,613.431L1697.23,613.353L1697.16,613.277L1697.09,613.201L1697.02,613.126L1696.95,613.053L1696.88,612.98L1696.8,612.909L1696.73,612.838L1696.65,612.769L1696.57,612.701L1696.49,612.634L1696.41,612.568L1696.33,612.503L1696.25,612.44L1696.17,612.377L1696.09,612.316L1696,612.256L1696,615.5L1696,615.526L1696,615.551L1695.99,615.576L1695.99,615.601L1695.98,615.625L1695.98,615.649L1695.97,615.672L1695.96,615.695L1695.95,615.717L1695.94,615.738L1695.93,615.759L1695.91,615.78L1695.9,615.799L1695.89,615.818L1695.87,615.836L1695.85,615.854L1695.84,615.87L1695.82,615.886L1695.8,615.901L1695.78,615.915L1695.76,615.928L1695.74,615.94L1695.72,615.951L1695.69,615.961L1695.67,615.97L1695.65,615.978L1695.62,615.984L1695.6,615.99L1695.58,615.994L1695.55,615.997L1695.53,615.999L1695.5,616C1695.5,616 1695.48,615.999 1695.48,615.999L1695.45,615.998L1695.43,615.995L1695.4,615.99L1695.38,615.985L1695.36,615.978L1695.33,615.971L1695.31,615.962L1695.29,615.952L1695.27,615.941L1695.24,615.929L1695.22,615.916L1695.2,615.902L1695.18,615.887L1695.16,615.871L1695.15,615.854L1695.13,615.836L1695.11,615.817L1695.1,615.797L1695.08,615.777L1695.07,615.757L1695.06,615.735L1695.05,615.714L1695.04,615.691L1695.03,615.669L1695.02,615.645L1695.02,615.622L1695.01,615.598L1695.01,615.574L1695,615.549L1695,615.525L1695,615.5L1695,612L1695,611.95L1695.01,611.901L1695.01,611.852L1695.02,611.804L1695.03,611.756L1695.04,611.709L1695.06,611.663L1695.08,611.617L1695.1,611.573L1695.12,611.529L1695.14,611.487L1695.17,611.445L1695.2,611.405L1695.23,611.366L1695.26,611.329L1695.29,611.293L1695.33,611.259L1695.37,611.226L1695.4,611.196L1695.44,611.168L1695.49,611.142L1695.53,611.118L1695.57,611.096L1695.62,611.076L1695.66,611.059L1695.71,611.043L1695.76,611.03L1695.8,611.019L1695.85,611.011L1695.9,611.005L1695.95,611.001L1696,611L1699.5,611L1699.53,611.001L1699.55,611.002L1699.57,611.005L1699.6,611.01L1699.62,611.015L1699.64,611.022L1699.67,611.029L1699.69,611.038L1699.71,611.048L1699.74,611.059L1699.76,611.071L1699.78,611.084L1699.8,611.098L1699.82,611.113L1699.84,611.129L1699.85,611.146L1699.87,611.164L1699.89,611.183L1699.9,611.203L1699.92,611.223L1699.93,611.243L1699.94,611.265L1699.95,611.286L1699.96,611.309L1699.97,611.331L1699.98,611.355L1699.99,611.378L1699.99,611.402L1700,611.426L1700,611.451L1700,611.475L1700,611.5C1700,611.5 1700,611.526 1700,611.526L1700,611.551L1699.99,611.576L1699.99,611.601L1699.98,611.625L1699.98,611.649L1699.97,611.672L1699.96,611.695L1699.95,611.717L1699.94,611.738L1699.93,611.759L1699.91,611.78L1699.9,611.799L1699.89,611.818L1699.87,611.836L1699.85,611.854L1699.84,611.87L1699.82,611.886L1699.8,611.901L1699.78,611.915L1699.76,611.928L1699.74,611.94L1699.72,611.951L1699.69,611.961L1699.67,611.97L1699.65,611.978L1699.62,611.984L1699.6,611.99L1699.58,611.994L1699.55,611.997L1699.53,611.999L1699.5,612L1697.29,612L1697.37,612.069L1697.44,612.139L1697.52,612.211L1697.59,612.283L1697.67,612.356L1697.74,612.43L1697.81,612.505L1697.88,612.581L1697.95,612.658L1698.02,612.735L1698.09,612.814L1698.16,612.894L1698.22,612.974L1698.29,613.055L1698.35,613.137L1698.41,613.22L1698.48,613.304L1698.54,613.389L1698.6,613.474L1698.65,613.56L1698.71,613.647L1698.77,613.735L1698.82,613.824L1698.88,613.913L1698.93,614.003L1698.98,614.094L1699.03,614.186L1699.08,614.278L1699.13,614.371L1699.18,614.465L1699.22,614.559L1699.27,614.654L1699.31,614.75L1699.35,614.846L1699.39,614.944L1699.43,615.041L1699.47,615.14L1699.51,615.239L1699.55,615.338L1699.58,615.439L1699.61,615.539L1699.65,615.641L1699.68,615.743L1699.71,615.845L1699.73,615.949L1699.76,616.052L1699.79,616.156L1699.81,616.261L1699.83,616.366L1699.85,616.472L1699.87,616.578L1699.89,616.685L1699.91,616.792L1699.92,616.9L1699.94,617.008L1699.95,617.117L1699.96,617.226L1699.97,617.335L1699.98,617.445L1699.99,617.555L1699.99,617.666L1700,617.777L1700,617.888L1700,618L1700,618.103L1700,618.206L1699.99,618.309L1699.99,618.411L1699.98,618.513L1699.98,618.615L1699.97,618.716L1699.96,618.817L1699.95,618.918L1699.94,619.018L1699.92,619.118L1699.91,619.218L1699.89,619.317L1699.88,619.415L1699.86,619.514L1699.84,619.611L1699.82,619.709L1699.8,619.806L1699.77,619.902L1699.75,619.998L1699.72,620.094L1699.7,620.189L1699.67,620.284L1699.64,620.378L1699.61,620.472L1699.58,620.565L1699.55,620.657L1699.51,620.749L1699.48,620.841L1699.44,620.932L1699.41,621.023L1699.37,621.113L1699.33,621.202L1699.29,621.291L1699.25,621.379L1699.21,621.467L1699.17,621.554L1699.12,621.641L1699.08,621.727L1699.03,621.812L1698.99,621.897L1698.94,621.981L1698.89,622.064L1698.84,622.147L1698.79,622.229L1698.74,622.311L1698.69,622.391L1698.63,622.472L1698.58,622.551L1698.52,622.63L1698.47,622.708L1698.41,622.785L1698.35,622.862L1698.29,622.938L1698.23,623.013L1698.17,623.088L1698.11,623.161L1698.05,623.234L1697.99,623.306L1697.92,623.378L1697.86,623.449L1697.79,623.518L1697.72,623.587L1697.66,623.656L1697.59,623.723L1697.52,623.79L1697.45,623.856L1697.38,623.921L1697.31,623.985L1697.23,624.048L1697.16,624.111L1697.09,624.172L1697.01,624.233L1696.94,624.293L1696.86,624.352L1696.79,624.41L1696.71,624.467L1696.63,624.523L1696.55,624.579L1696.47,624.633L1696.39,624.686L1696.31,624.739L1696.23,624.791L1696.15,624.841L1696.06,624.891L1695.98,624.939L1695.9,624.987L1695.81,625.034L1695.73,625.08L1695.64,625.124L1695.55,625.168L1695.47,625.211L1695.38,625.252L1695.29,625.293L1695.2,625.332L1695.11,625.371L1695.02,625.408L1694.93,625.445L1694.84,625.48L1694.75,625.514L1694.66,625.547L1694.57,625.579L1694.47,625.61L1694.38,625.64L1694.28,625.669L1694.19,625.696L1694.09,625.723L1694,625.748L1693.9,625.772L1693.81,625.795L1693.71,625.817L1693.61,625.837L1693.51,625.857L1693.41,625.875L1693.32,625.892L1693.22,625.908L1693.12,625.922L1693.02,625.936L1692.92,625.948L1692.82,625.959L1692.72,625.968L1692.62,625.977L1692.51,625.984L1692.41,625.99L1692.31,625.994L1692.21,625.997L1692.1,625.999L1692,626L1691.9,625.999L1691.79,625.997L1691.69,625.994L1691.59,625.99L1691.49,625.984L1691.38,625.977L1691.28,625.968L1691.18,625.959L1691.08,625.948L1690.98,625.936L1690.88,625.922L1690.78,625.908L1690.68,625.892L1690.59,625.875L1690.49,625.857L1690.39,625.837L1690.29,625.817L1690.19,625.795L1690.1,625.772L1690,625.748L1689.91,625.723L1689.81,625.696L1689.72,625.669L1689.62,625.64L1689.53,625.61L1689.43,625.579L1689.34,625.547L1689.25,625.514L1689.16,625.48L1689.07,625.445L1688.98,625.408L1688.89,625.371L1688.8,625.332L1688.71,625.293L1688.62,625.252L1688.53,625.211L1688.45,625.168L1688.36,625.124L1688.27,625.08L1688.19,625.034L1688.1,624.987L1688.02,624.939L1687.94,624.891L1687.85,624.841L1687.77,624.791L1687.69,624.739L1687.61,624.686L1687.53,624.633L1687.45,624.579L1687.37,624.523L1687.29,624.467L1687.22,624.41L1687.14,624.352L1687.06,624.293L1686.99,624.233L1686.91,624.172L1686.84,624.111L1686.77,624.048L1686.69,623.985L1686.62,623.921L1686.55,623.856L1686.48,623.79L1686.41,623.723L1686.34,623.656L1686.28,623.587L1686.21,623.518L1686.14,623.449L1686.08,623.378L1686.02,623.306L1685.95,623.234L1685.89,623.161L1685.83,623.088L1685.77,623.013L1685.71,622.938L1685.65,622.862L1685.59,622.785L1685.53,622.708L1685.48,622.63L1685.42,622.551L1685.37,622.472L1685.31,622.391L1685.26,622.311L1685.21,622.229L1685.16,622.147L1685.11,622.064L1685.06,621.981L1685.01,621.897L1684.97,621.812L1684.92,621.727L1684.88,621.641L1684.83,621.554L1684.79,621.467L1684.75,621.379L1684.71,621.291L1684.67,621.202L1684.63,621.113L1684.59,621.023L1684.56,620.932L1684.52,620.841L1684.49,620.749L1684.45,620.657L1684.42,620.565L1684.39,620.472L1684.36,620.378L1684.33,620.284L1684.3,620.189L1684.28,620.094L1684.25,619.998L1684.23,619.902L1684.2,619.806L1684.18,619.709L1684.16,619.611L1684.14,619.514L1684.12,619.415L1684.11,619.317L1684.09,619.218L1684.08,619.118L1684.06,619.018L1684.05,618.918L1684.04,618.817L1684.03,618.716L1684.02,618.615L1684.02,618.513L1684.01,618.411L1684.01,618.309L1684,618.206L1684,618.103L1684,618L1684,617.897L1684,617.794L1684.01,617.691L1684.01,617.589L1684.02,617.487L1684.02,617.385L1684.03,617.284L1684.04,617.183L1684.05,617.082L1684.06,616.982L1684.08,616.882L1684.09,616.782L1684.11,616.683L1684.12,616.585L1684.14,616.486L1684.16,616.389L1684.18,616.291L1684.2,616.194L1684.23,616.098L1684.25,616.002L1684.28,615.906L1684.3,615.811L1684.33,615.716L1684.36,615.622L1684.39,615.528L1684.42,615.435L1684.45,615.343L1684.49,615.251L1684.52,615.159L1684.56,615.068L1684.59,614.977L1684.63,614.887L1684.67,614.798L1684.71,614.709L1684.75,614.621L1684.79,614.533L1684.83,614.446L1684.88,614.359L1684.92,614.273L1684.97,614.188L1685.01,614.103L1685.06,614.019L1685.11,613.936L1685.16,613.853L1685.21,613.771L1685.26,613.689L1685.31,613.609L1685.37,613.528L1685.42,613.449L1685.48,613.37L1685.53,613.292L1685.59,613.215L1685.65,613.138L1685.71,613.062L1685.77,612.987L1685.83,612.912L1685.89,612.839L1685.95,612.766L1686.02,612.694L1686.08,612.622L1686.14,612.551L1686.21,612.482L1686.28,612.413L1686.34,612.344L1686.41,612.277L1686.48,612.21L1686.55,612.144L1686.62,612.079L1686.69,612.015L1686.77,611.952L1686.84,611.889L1686.91,611.828L1686.99,611.767L1687.06,611.707L1687.14,611.648L1687.22,611.59L1687.29,611.533L1687.37,611.477L1687.45,611.421L1687.53,611.367L1687.61,611.314L1687.69,611.261L1687.77,611.209L1687.85,611.159L1687.94,611.109L1688.02,611.061L1688.1,611.013L1688.19,610.966L1688.27,610.92L1688.36,610.876L1688.45,610.832L1688.53,610.789L1688.62,610.748L1688.71,610.707L1688.8,610.668L1688.89,610.629L1688.98,610.592L1689.07,610.555L1689.16,610.52L1689.25,610.486L1689.34,610.453L1689.43,610.421L1689.53,610.39L1689.62,610.36L1689.72,610.331L1689.81,610.304L1689.91,610.277L1690,610.252L1690.1,610.228L1690.19,610.205L1690.29,610.183L1690.39,610.163L1690.49,610.143L1690.59,610.125L1690.68,610.108L1690.78,610.092L1690.88,610.078L1690.98,610.064L1691.08,610.052L1691.18,610.041L1691.28,610.032L1691.38,610.023L1691.49,610.016L1691.59,610.01L1691.69,610.006L1691.79,610.003L1691.9,610.001L1692,610L1692.5,610L1692.53,610.001ZM1692.5,612L1692.53,612.001L1692.55,612.002L1692.57,612.005L1692.6,612.01L1692.62,612.015L1692.64,612.022L1692.67,612.029L1692.69,612.038L1692.71,612.048L1692.74,612.059L1692.76,612.071L1692.78,612.084L1692.8,612.098L1692.82,612.113L1692.84,612.129L1692.85,612.146L1692.87,612.164L1692.89,612.183L1692.9,612.203L1692.92,612.223L1692.93,612.243L1692.94,612.265L1692.95,612.286L1692.96,612.309L1692.97,612.331L1692.98,612.355L1692.99,612.378L1692.99,612.402L1693,612.426L1693,612.451L1693,612.475L1693,612.5L1693,618.293L1693,618.342L1693,618.392L1692.99,618.441L1692.98,618.489L1692.97,618.537L1692.96,618.584L1692.94,618.63L1692.92,618.676L1692.9,618.72L1692.88,618.764L1692.86,618.806L1692.83,618.848L1692.8,618.888L1692.77,618.927L1692.74,618.964L1692.71,619L1690.85,620.854L1690.84,620.871L1690.82,620.888L1690.8,620.903L1690.78,620.918L1690.75,620.931L1690.73,620.943L1690.71,620.954L1690.69,620.963L1690.66,620.972L1690.64,620.979L1690.62,620.986L1690.6,620.991L1690.57,620.995L1690.55,620.998L1690.52,620.999L1690.5,621L1690.48,620.999L1690.45,620.998L1690.43,620.995L1690.4,620.991L1690.38,620.986L1690.36,620.979L1690.34,620.972L1690.31,620.963L1690.29,620.954L1690.27,620.943L1690.25,620.931L1690.23,620.918L1690.2,620.903L1690.18,620.888L1690.16,620.871L1690.15,620.854C1690.15,620.854 1690.13,620.835 1690.13,620.835L1690.11,620.816L1690.1,620.796L1690.08,620.775L1690.07,620.754L1690.06,620.733L1690.05,620.711L1690.04,620.688L1690.03,620.665L1690.02,620.642L1690.01,620.619L1690.01,620.596L1690.01,620.572L1690,620.548L1690,620.524L1690,620.5L1690,620.476L1690,620.452L1690.01,620.428L1690.01,620.405L1690.01,620.381L1690.02,620.358L1690.03,620.335L1690.04,620.312L1690.05,620.289L1690.06,620.267L1690.07,620.246L1690.08,620.225L1690.1,620.204L1690.11,620.184L1690.13,620.165L1690.15,620.146L1692,618.293L1692,612.5L1692,612.475L1692,612.451L1692.01,612.426L1692.01,612.402L1692.02,612.378L1692.02,612.355L1692.03,612.331L1692.04,612.309L1692.05,612.286L1692.06,612.265L1692.07,612.243L1692.08,612.223L1692.1,612.203L1692.11,612.183L1692.13,612.164L1692.15,612.146L1692.16,612.129L1692.18,612.113L1692.2,612.098L1692.22,612.084L1692.24,612.071L1692.27,612.059L1692.29,612.048L1692.31,612.038L1692.33,612.029L1692.36,612.022L1692.38,612.015L1692.4,612.01L1692.43,612.005L1692.45,612.002L1692.48,612.001L1692.5,612L1692.5,612Z" style="fill:rgb(51,51,51);"/>
            </g>
        </g>
    </g>
</svg>
