<?xml version="1.0" encoding="UTF-8" standalone="no"?>
<!DOCTYPE svg PUBLIC "-//W3C//DTD SVG 1.1//EN" "http://www.w3.org/Graphics/SVG/1.1/DTD/svg11.dtd">
<svg width="24px" height="24px" version="1.1" xmlns="http://www.w3.org/2000/svg" xmlns:xlink="http://www.w3.org/1999/xlink" xml:space="preserve" xmlns:serif="http://www.serif.com/" style="fill-rule:evenodd;clip-rule:evenodd;stroke-linejoin:round;stroke-miterlimit:1.41421;">
    <g transform="matrix(1,0,0,1,-579,-606)">
        <g id="ui.thin.external" transform="matrix(0.800768,0,0,0.984948,579,606)">
            <rect x="0" y="0" width="29.971" height="24.367" style="fill:none;"/>
            <g transform="matrix(1.2488,0,0,1.01528,-1916.91,-615.261)">
                <path d="M1543,611.5C1543,611.776 1542.78,612 1542.5,612C1541.91,612 1541,612 1541,612L1541,625L1554,625C1554,625 1554,624.092 1554,623.5C1554,623.367 1554.05,623.24 1554.15,623.146C1554.24,623.053 1554.37,623 1554.5,623C1554.63,623 1554.76,623.053 1554.85,623.146C1554.95,623.24 1555,623.367 1555,623.5C1555,623.908 1555,624.496 1555,625C1555,625.552 1554.55,626 1554,626C1551.27,626 1543.73,626 1541,626C1540.74,626 1540.48,625.895 1540.29,625.707C1540.11,625.52 1540,625.265 1540,625C1540,622.273 1540,614.727 1540,612C1540,611.735 1540.11,611.48 1540.29,611.293C1540.48,611.105 1540.74,611 1541,611C1541.5,611 1542.09,611 1542.5,611C1542.78,611 1543,611.224 1543,611.5C1543,611.5 1543,611.5 1543,611.5ZM1546,611.499C1546,611.223 1546.22,611 1546.5,611C1547.93,611 1552.07,611 1554,611C1554.26,611 1554.52,611.105 1554.7,611.293C1554.89,611.48 1555,611.735 1555,612C1555,613.922 1555,618.068 1555,619.501C1555,619.777 1554.77,620 1554.5,620C1554.5,620 1554.5,620 1554.5,620C1554.22,620 1554,619.777 1554,619.501C1554,617.855 1554,612.705 1554,612.705C1554,612.705 1547.88,618.809 1546.34,620.338C1546.25,620.429 1546.13,620.48 1546,620.48C1545.87,620.48 1545.75,620.429 1545.65,620.337C1545.65,620.337 1545.65,620.337 1545.65,620.336C1545.45,620.136 1545.45,619.812 1545.65,619.612C1547.22,618.055 1553.29,612 1553.29,612C1553.29,612 1548.14,612 1546.5,612C1546.36,612 1546.24,611.947 1546.14,611.854C1546.05,611.76 1546,611.633 1546,611.501C1546,611.5 1546,611.5 1546,611.499Z" style="fill:rgb(51,51,51);"/>
            </g>
        </g>
    </g>
</svg>
