<?xml version="1.0" encoding="UTF-8" standalone="no"?><!DOCTYPE svg PUBLIC "-//W3C//DTD SVG 1.1//EN" "http://www.w3.org/Graphics/SVG/1.1/DTD/svg11.dtd"><svg width="100%" height="100%" viewBox="0 0 24 24" version="1.1" xmlns="http://www.w3.org/2000/svg" xmlns:xlink="http://www.w3.org/1999/xlink" xml:space="preserve" xmlns:serif="http://www.serif.com/" style="fill-rule:evenodd;clip-rule:evenodd;stroke-linejoin:round;stroke-miterlimit:1.41421;"><rect id="ui.thin.indentRight" x="0" y="0" width="24" height="24" style="fill:none;"/><path d="M7,17.512c0,-0.283 0.229,-0.512 0.512,-0.512c2.09,0 9.958,0 12.001,0c0.269,0 0.487,0.218 0.487,0.487c0,0 0,0.001 0,0.001c0,0.283 -0.229,0.512 -0.512,0.512c-2.09,0 -9.958,0 -12.001,0c-0.269,0 -0.487,-0.218 -0.487,-0.487c0,0 0,-0.001 0,-0.001Zm0.995,-6.721c0.189,0.187 0.296,0.442 0.296,0.708c0.001,0.266 -0.105,0.522 -0.293,0.71c-0.787,0.788 -2.027,2.027 -2.636,2.636c-0.2,0.2 -0.524,0.2 -0.724,0c0,0 0,0 -0.001,-0.001c-0.19,-0.19 -0.19,-0.498 0,-0.688c0.788,-0.788 2.654,-2.654 2.654,-2.654c0,0 -1.873,-1.856 -2.672,-2.647c-0.196,-0.194 -0.198,-0.51 -0.004,-0.706c0,0 0.001,-0.001 0.001,-0.001c0.194,-0.196 0.511,-0.198 0.707,-0.003c0.611,0.605 1.873,1.855 2.672,2.646Zm3.005,2.721c0,-0.136 0.054,-0.266 0.15,-0.362c0.096,-0.096 0.226,-0.15 0.362,-0.15c1.592,0 6.443,0 8.001,0c0.129,0 0.253,0.051 0.344,0.143c0.092,0.091 0.143,0.215 0.143,0.344c0,0 0,0.001 0,0.001c0,0.136 -0.054,0.266 -0.15,0.362c-0.096,0.096 -0.226,0.15 -0.362,0.15c-1.592,0 -6.443,0 -8.001,0c-0.129,0 -0.253,-0.051 -0.344,-0.143c-0.092,-0.091 -0.143,-0.215 -0.143,-0.344c0,0 0,-0.001 0,-0.001Zm0,-4c0,-0.136 0.054,-0.266 0.15,-0.362c0.096,-0.096 0.226,-0.15 0.362,-0.15c1.592,0 6.443,0 8.001,0c0.129,0 0.253,0.051 0.344,0.143c0.092,0.091 0.143,0.215 0.143,0.344c0,0 0,0.001 0,0.001c0,0.136 -0.054,0.266 -0.15,0.362c-0.096,0.096 -0.226,0.15 -0.362,0.15c-1.592,0 -6.443,0 -8.001,0c-0.129,0 -0.253,-0.051 -0.344,-0.143c-0.092,-0.091 -0.143,-0.215 -0.143,-0.344c0,0 0,-0.001 0,-0.001Zm-4,-4c0,-0.283 0.229,-0.512 0.512,-0.512c2.09,0 9.958,0 12.001,0c0.269,0 0.487,0.218 0.487,0.487c0,0 0,0.001 0,0.001c0,0.283 -0.229,0.512 -0.512,0.512c-2.09,0 -9.958,0 -12.001,0c-0.269,0 -0.487,-0.218 -0.487,-0.487c0,0 0,-0.001 0,-0.001Z" style="fill:#333;"/></svg>