<?xml version="1.0" encoding="UTF-8" standalone="no"?>
<!DOCTYPE svg PUBLIC "-//W3C//DTD SVG 1.1//EN" "http://www.w3.org/Graphics/SVG/1.1/DTD/svg11.dtd">
<svg width="24px" height="24px" version="1.1" xmlns="http://www.w3.org/2000/svg" xmlns:xlink="http://www.w3.org/1999/xlink" xml:space="preserve" xmlns:serif="http://www.serif.com/" style="fill-rule:evenodd;clip-rule:evenodd;stroke-linejoin:round;stroke-miterlimit:1.41421;">
    <g transform="matrix(1,0,0,1,-2211,-606)">
        <g id="ui.thin.fullscreen" transform="matrix(0.800768,0,0,0.984948,2211,606)">
            <rect x="0" y="0" width="29.971" height="24.367" style="fill:none;"/>
            <g transform="matrix(1.2488,0,0,1.01528,-2277.81,-566.528)">
                <path d="M1829,577C1829,577 1833.06,577 1834.5,577C1834.63,577 1834.76,577.053 1834.85,577.146C1834.95,577.24 1835,577.367 1835,577.5C1835,577.776 1834.78,578 1834.5,578C1833.35,578 1830.52,578 1829,578C1828.74,578 1828.48,577.895 1828.29,577.707C1828.11,577.52 1828,577.265 1828,577C1828,575.702 1828,573.487 1828,572.5C1828,572.367 1828.05,572.24 1828.15,572.146C1828.24,572.053 1828.37,572 1828.5,572C1828.63,572 1828.76,572.053 1828.85,572.146C1828.95,572.24 1829,572.367 1829,572.5C1829,573.766 1829,577 1829,577ZM1844,577C1844,577.265 1843.89,577.52 1843.71,577.707C1843.52,577.895 1843.27,578 1843,578C1841.7,578 1839.49,578 1838.5,578C1838.37,578 1838.24,577.947 1838.15,577.854C1838.05,577.76 1838,577.633 1838,577.5C1838,577.367 1838.05,577.24 1838.15,577.146C1838.24,577.053 1838.37,577 1838.5,577C1839.77,577 1843,577 1843,577C1843,577 1843,573.766 1843,572.5C1843,572.367 1843.05,572.24 1843.15,572.146C1843.24,572.053 1843.37,572 1843.5,572C1843.63,572 1843.76,572.053 1843.85,572.146C1843.95,572.24 1844,572.367 1844,572.5C1844,573.487 1844,575.702 1844,577ZM1834,562.5C1834,562.633 1833.95,562.76 1833.85,562.854C1833.76,562.947 1833.63,563 1833.5,563C1832.23,563 1829,563 1829,563C1829,563 1829,566.235 1829,567.501C1829,567.633 1828.95,567.76 1828.85,567.854C1828.76,567.947 1828.63,568 1828.5,568C1828.5,568 1828.5,568 1828.5,568C1828.37,568 1828.24,567.947 1828.15,567.854C1828.05,567.76 1828,567.633 1828,567.5C1828,566.513 1828,564.298 1828,563C1828,562.735 1828.11,562.48 1828.29,562.293C1828.48,562.105 1828.74,562 1829,562C1830.3,562 1832.51,562 1833.5,562C1833.63,562 1833.76,562.053 1833.85,562.146C1833.95,562.24 1834,562.367 1834,562.5C1834,562.5 1834,562.5 1834,562.5ZM1844,567.5C1844,567.633 1843.95,567.76 1843.85,567.854C1843.76,567.947 1843.63,568 1843.5,568C1843.37,568 1843.24,567.947 1843.15,567.854C1843.05,567.76 1843,567.633 1843,567.5C1843,566.234 1843,563 1843,563C1843,563 1839.77,563 1838.5,563C1838.37,563 1838.24,562.947 1838.15,562.854C1838.05,562.76 1838,562.633 1838,562.5C1838,562.367 1838.05,562.24 1838.15,562.146C1838.24,562.053 1838.37,562 1838.5,562C1839.49,562 1841.7,562 1843,562C1843.27,562 1843.52,562.105 1843.71,562.293C1843.89,562.48 1844,562.735 1844,563C1844,564.298 1844,566.513 1844,567.5Z" style="fill:rgb(51,51,51);"/>
            </g>
        </g>
    </g>
</svg>
