<?xml version="1.0" encoding="UTF-8" standalone="no"?>
<!DOCTYPE svg PUBLIC "-//W3C//DTD SVG 1.1//EN" "http://www.w3.org/Graphics/SVG/1.1/DTD/svg11.dtd">
<svg width="24px" height="24px" version="1.1" xmlns="http://www.w3.org/2000/svg" xmlns:xlink="http://www.w3.org/1999/xlink" xml:space="preserve" xmlns:serif="http://www.serif.com/" style="fill-rule:evenodd;clip-rule:evenodd;stroke-linejoin:round;stroke-miterlimit:1.41421;">
    <g transform="matrix(1,0,0,1,-1200,-606)">
        <g id="ui.thin.eject" transform="matrix(0.800768,0,0,0.984948,1200,606)">
            <rect x="0" y="0" width="29.971" height="24.367" style="fill:none;"/>
            <g transform="matrix(1.2488,0,0,1.01528,-3175.7,-615.261)">
                <path d="M2561,621.5C2561,621.776 2560.78,622 2560.5,622C2558.55,622 2551.45,622 2549.5,622C2549.37,622 2549.24,621.947 2549.15,621.854C2549.05,621.76 2549,621.633 2549,621.5C2549,621.224 2549.22,621 2549.5,621C2551.45,621 2558.55,621 2560.5,621C2560.78,621 2561,621.224 2561,621.5C2561,621.5 2561,621.5 2561,621.5ZM2560.85,618.146C2561,618.289 2561.04,618.505 2560.96,618.691C2560.89,618.878 2560.7,619 2560.5,619C2557.95,619 2552.05,619 2549.5,619C2549.3,619 2549.12,618.878 2549.04,618.691C2548.96,618.505 2549,618.289 2549.15,618.146C2550.49,616.808 2553.05,614.242 2554.29,613C2554.48,612.812 2554.74,612.707 2555,612.707C2555.26,612.707 2555.52,612.812 2555.71,613C2556.95,614.242 2559.51,616.808 2560.85,618.146ZM2550.71,618L2559.29,618L2555,613.707L2550.71,618Z" style="fill:rgb(51,51,51);"/>
            </g>
        </g>
    </g>
</svg>
