<?xml version="1.0" encoding="UTF-8" standalone="no"?>
<!DOCTYPE svg PUBLIC "-//W3C//DTD SVG 1.1//EN" "http://www.w3.org/Graphics/SVG/1.1/DTD/svg11.dtd">
<svg width="24px" height="24px" version="1.1" xmlns="http://www.w3.org/2000/svg" xmlns:xlink="http://www.w3.org/1999/xlink" xml:space="preserve" xmlns:serif="http://www.serif.com/" style="fill-rule:evenodd;clip-rule:evenodd;stroke-linejoin:round;stroke-miterlimit:1.41421;">
    <g transform="matrix(1,0,0,1,-886,-836)">
        <g id="ui.thin.dollar" transform="matrix(0.800768,0,0,0.984948,886,836)">
            <rect x="0" y="0" width="29.971" height="24.367" style="fill:none;"/>
            <g transform="matrix(1.2488,0,0,1.01528,-884.155,-800.042)">
                <path d="M724.297,797C724.136,797 724.004,796.869 724.004,796.707C724.004,796.707 724.004,796.706 724.004,796.706C724.004,795.212 722.793,794 721.298,794C720.875,794 720.435,794 720.006,794C718.349,794 717.006,795.343 717.006,797C717.006,797.796 717.322,798.559 717.885,799.121C718.447,799.684 719.21,800 720.006,800C720.331,800 720.665,800 721,800C723.209,800 725,801.791 725,804C725,804 725,804 725,804C725,806.209 723.209,808 721,808C720.568,808 720.129,808 719.701,808C718.719,808 717.778,807.61 717.085,806.916C716.391,806.222 716.002,805.281 716.003,804.299C716.003,804.299 716.003,804.299 716.003,804.299C716.003,804.134 716.137,804 716.302,804C716.43,804 716.578,804 716.706,804C716.867,804 716.999,804.131 716.999,804.293C716.999,804.293 716.999,804.294 716.999,804.294C716.999,805.788 718.21,807 719.705,807C720.13,807 720.573,807 721.004,807C722.661,807 724.004,805.657 724.004,804C724.004,803.204 723.688,802.441 723.126,801.879C722.563,801.316 721.8,801 721.004,801C720.676,801 720.338,801 720,801C718.939,801 717.922,800.579 717.172,799.828C716.421,799.078 716,798.061 716,797C716,797 716,797 716,797C716,794.791 717.791,793 720,793C720.428,793 720.862,793 721.286,793C722.271,793 723.216,793.391 723.912,794.088C724.609,794.784 725,795.729 725,796.714C725,796.715 725,796.715 725,796.716C725,796.873 724.873,797 724.716,797C724.585,797 724.43,797 724.297,797Z" style="fill:rgb(51,51,51);"/>
            </g>
            <g transform="matrix(0.623487,0,0,8.34839,-433.302,-6597.94)">
                <path d="M721.003,790.629C721.003,790.595 720.554,790.568 720.001,790.568C719.449,790.568 719,790.595 719,790.629L719,792.939C719,792.973 719.449,793 720.001,793C720.554,793 721.003,792.973 721.003,792.939L721.003,790.629Z" style="fill:rgb(51,51,51);"/>
            </g>
        </g>
    </g>
</svg>
