<?xml version="1.0" encoding="UTF-8" standalone="no"?>
<!DOCTYPE svg PUBLIC "-//W3C//DTD SVG 1.1//EN" "http://www.w3.org/Graphics/SVG/1.1/DTD/svg11.dtd">
<svg width="24px" height="24px" version="1.1" xmlns="http://www.w3.org/2000/svg" xmlns:xlink="http://www.w3.org/1999/xlink" xml:space="preserve" xmlns:serif="http://www.serif.com/" style="fill-rule:evenodd;clip-rule:evenodd;stroke-linejoin:round;stroke-miterlimit:1.41421;">
    <g transform="matrix(1,0,0,1,-981,-606)">
        <g id="ui.thin.questionMark" transform="matrix(0.800768,0,0,0.984948,981,606)">
            <rect x="0" y="0" width="29.971" height="24.367" style="fill:none;"/>
            <g transform="matrix(1.2488,0,0,1.01528,-1677.14,-615.261)">
                <path d="M1355.13,608.001L1355.26,608.003L1355.39,608.007L1355.51,608.013L1355.64,608.02L1355.77,608.029L1355.9,608.04L1356.02,608.052L1356.15,608.065L1356.27,608.08L1356.4,608.097L1356.52,608.115L1356.65,608.135L1356.77,608.156L1356.89,608.179L1357.01,608.203L1357.14,608.229L1357.26,608.256L1357.38,608.285L1357.5,608.315L1357.62,608.347L1357.74,608.38L1357.86,608.414L1357.97,608.45L1358.09,608.487L1358.21,608.526L1358.32,608.566L1358.44,608.607L1358.55,608.65L1358.66,608.694L1358.78,608.74L1358.89,608.786L1359,608.834L1359.11,608.884L1359.22,608.935L1359.33,608.987L1359.44,609.04L1359.55,609.095L1359.66,609.151L1359.77,609.208L1359.87,609.266L1359.98,609.326L1360.08,609.387L1360.18,609.449L1360.29,609.512L1360.39,609.576L1360.49,609.642L1360.59,609.709L1360.69,609.777L1360.79,609.846L1360.88,609.916L1360.98,609.988L1361.08,610.06L1361.17,610.134L1361.27,610.209L1361.36,610.285L1361.45,610.362L1361.54,610.44L1361.63,610.519L1361.72,610.599L1361.81,610.68L1361.9,610.763L1361.98,610.846L1362.07,610.93L1362.15,611.016L1362.24,611.102L1362.32,611.189L1362.4,611.278L1362.48,611.367L1362.56,611.457L1362.64,611.548L1362.71,611.641L1362.79,611.734L1362.87,611.828L1362.94,611.923L1363.01,612.018L1363.08,612.115L1363.15,612.213L1363.22,612.311L1363.29,612.411L1363.36,612.511L1363.42,612.612L1363.49,612.714L1363.55,612.816L1363.61,612.92L1363.67,613.024L1363.73,613.129L1363.79,613.235L1363.85,613.342L1363.9,613.449L1363.96,613.557L1364.01,613.666L1364.07,613.776L1364.12,613.886L1364.17,613.997L1364.21,614.109L1364.26,614.222L1364.31,614.335L1364.35,614.449L1364.39,614.563L1364.43,614.678L1364.47,614.794L1364.51,614.911L1364.55,615.028L1364.59,615.145L1364.62,615.264L1364.65,615.383L1364.68,615.502L1364.71,615.622L1364.74,615.743L1364.77,615.864L1364.8,615.986L1364.82,616.108L1364.84,616.231L1364.87,616.354L1364.88,616.478L1364.9,616.602L1364.92,616.727L1364.93,616.852L1364.95,616.978L1364.96,617.104L1364.97,617.231L1364.98,617.358L1364.99,617.486L1364.99,617.614L1365,617.742L1365,617.871L1365,618L1365,618.129L1365,618.258L1364.99,618.386L1364.99,618.514L1364.98,618.642L1364.97,618.769L1364.96,618.896L1364.95,619.022L1364.93,619.148L1364.92,619.273L1364.9,619.398L1364.88,619.522L1364.87,619.646L1364.84,619.769L1364.82,619.892L1364.8,620.014L1364.77,620.136L1364.74,620.257L1364.71,620.378L1364.68,620.498L1364.65,620.617L1364.62,620.736L1364.59,620.855L1364.55,620.972L1364.51,621.089L1364.47,621.206L1364.43,621.322L1364.39,621.437L1364.35,621.551L1364.31,621.665L1364.26,621.778L1364.21,621.891L1364.17,622.003L1364.12,622.114L1364.07,622.224L1364.01,622.334L1363.96,622.443L1363.9,622.551L1363.85,622.658L1363.79,622.765L1363.73,622.871L1363.67,622.976L1363.61,623.08L1363.55,623.184L1363.49,623.286L1363.42,623.388L1363.36,623.489L1363.29,623.589L1363.22,623.689L1363.15,623.787L1363.08,623.885L1363.01,623.982L1362.94,624.077L1362.87,624.172L1362.79,624.266L1362.71,624.359L1362.64,624.452L1362.56,624.543L1362.48,624.633L1362.4,624.722L1362.32,624.811L1362.24,624.898L1362.15,624.984L1362.07,625.07L1361.98,625.154L1361.9,625.237L1361.81,625.32L1361.72,625.401L1361.63,625.481L1361.54,625.56L1361.45,625.638L1361.36,625.715L1361.27,625.791L1361.17,625.866L1361.08,625.94L1360.98,626.012L1360.88,626.084L1360.79,626.154L1360.69,626.223L1360.59,626.291L1360.49,626.358L1360.39,626.424L1360.29,626.488L1360.18,626.551L1360.08,626.613L1359.98,626.674L1359.87,626.734L1359.77,626.792L1359.66,626.849L1359.55,626.905L1359.44,626.96L1359.33,627.013L1359.22,627.065L1359.11,627.116L1359,627.166L1358.89,627.214L1358.78,627.26L1358.66,627.306L1358.55,627.35L1358.44,627.393L1358.32,627.434L1358.21,627.474L1358.09,627.513L1357.97,627.55L1357.86,627.586L1357.74,627.62L1357.62,627.653L1357.5,627.685L1357.38,627.715L1357.26,627.744L1357.14,627.771L1357.01,627.797L1356.89,627.821L1356.77,627.844L1356.65,627.865L1356.52,627.885L1356.4,627.903L1356.27,627.92L1356.15,627.935L1356.02,627.948L1355.9,627.96L1355.77,627.971L1355.64,627.98L1355.51,627.987L1355.39,627.993L1355.26,627.997L1355.13,627.999L1355,628L1354.87,627.999L1354.74,627.997L1354.61,627.993L1354.49,627.987L1354.36,627.98L1354.23,627.971L1354.1,627.96L1353.98,627.948L1353.85,627.935L1353.73,627.92L1353.6,627.903L1353.48,627.885L1353.35,627.865L1353.23,627.844L1353.11,627.821L1352.99,627.797L1352.86,627.771L1352.74,627.744L1352.62,627.715L1352.5,627.685L1352.38,627.653L1352.26,627.62L1352.14,627.586L1352.03,627.55L1351.91,627.513L1351.79,627.474L1351.68,627.434L1351.56,627.393L1351.45,627.35L1351.34,627.306L1351.22,627.26L1351.11,627.214L1351,627.166L1350.89,627.116L1350.78,627.065L1350.67,627.013L1350.56,626.96L1350.45,626.905L1350.34,626.849L1350.24,626.792L1350.13,626.734L1350.02,626.674L1349.92,626.613L1349.82,626.551L1349.71,626.488L1349.61,626.424L1349.51,626.358L1349.41,626.291L1349.31,626.223L1349.21,626.154L1349.12,626.084L1349.02,626.012L1348.92,625.94L1348.83,625.866L1348.73,625.791L1348.64,625.715L1348.55,625.638L1348.46,625.56L1348.37,625.481L1348.28,625.401L1348.19,625.32L1348.1,625.237L1348.02,625.154L1347.93,625.07L1347.85,624.984L1347.76,624.898L1347.68,624.811L1347.6,624.722L1347.52,624.633L1347.44,624.543L1347.36,624.452L1347.29,624.359L1347.21,624.266L1347.13,624.172L1347.06,624.077L1346.99,623.982L1346.92,623.885L1346.85,623.787L1346.78,623.689L1346.71,623.589L1346.64,623.489L1346.58,623.388L1346.51,623.286L1346.45,623.184L1346.39,623.08L1346.33,622.976L1346.27,622.871L1346.21,622.765L1346.15,622.658L1346.1,622.551L1346.04,622.443L1345.99,622.334L1345.93,622.224L1345.88,622.114L1345.83,622.003L1345.79,621.891L1345.74,621.778L1345.69,621.665L1345.65,621.551L1345.61,621.437L1345.57,621.322L1345.53,621.206L1345.49,621.089L1345.45,620.972L1345.41,620.855L1345.38,620.736L1345.35,620.617L1345.32,620.498L1345.29,620.378L1345.26,620.257L1345.23,620.136L1345.2,620.014L1345.18,619.892L1345.16,619.769L1345.13,619.646L1345.12,619.522L1345.1,619.398L1345.08,619.273L1345.07,619.148L1345.05,619.022L1345.04,618.896L1345.03,618.769L1345.02,618.642L1345.01,618.514L1345.01,618.386L1345,618.258L1345,618.129L1345,618L1345,617.871L1345,617.742L1345.01,617.614L1345.01,617.486L1345.02,617.358L1345.03,617.231L1345.04,617.104L1345.05,616.978L1345.07,616.852L1345.08,616.727L1345.1,616.602L1345.12,616.478L1345.13,616.354L1345.16,616.231L1345.18,616.108L1345.2,615.986L1345.23,615.864L1345.26,615.743L1345.29,615.622L1345.32,615.502L1345.35,615.383L1345.38,615.264L1345.41,615.145L1345.45,615.028L1345.49,614.911L1345.53,614.794L1345.57,614.678L1345.61,614.563L1345.65,614.449L1345.69,614.335L1345.74,614.222L1345.79,614.109L1345.83,613.997L1345.88,613.886L1345.93,613.776L1345.99,613.666L1346.04,613.557L1346.1,613.449L1346.15,613.342L1346.21,613.235L1346.27,613.129L1346.33,613.024L1346.39,612.92L1346.45,612.816L1346.51,612.714L1346.58,612.612L1346.64,612.511L1346.71,612.411L1346.78,612.311L1346.85,612.213L1346.92,612.115L1346.99,612.018L1347.06,611.923L1347.13,611.828L1347.21,611.734L1347.29,611.641L1347.36,611.548L1347.44,611.457L1347.52,611.367L1347.6,611.278L1347.68,611.189L1347.76,611.102L1347.85,611.016L1347.93,610.93L1348.02,610.846L1348.1,610.763L1348.19,610.68L1348.28,610.599L1348.37,610.519L1348.46,610.44L1348.55,610.362L1348.64,610.285L1348.73,610.209L1348.83,610.134L1348.92,610.06L1349.02,609.988L1349.12,609.916L1349.21,609.846L1349.31,609.777L1349.41,609.709L1349.51,609.642L1349.61,609.576L1349.71,609.512L1349.82,609.449L1349.92,609.387L1350.02,609.326L1350.13,609.266L1350.24,609.208L1350.34,609.151L1350.45,609.095L1350.56,609.04L1350.67,608.987L1350.78,608.935L1350.89,608.884L1351,608.834L1351.11,608.786L1351.22,608.74L1351.34,608.694L1351.45,608.65L1351.56,608.607L1351.68,608.566L1351.79,608.526L1351.91,608.487L1352.03,608.45L1352.14,608.414L1352.26,608.38L1352.38,608.347L1352.5,608.315L1352.62,608.285L1352.74,608.256L1352.86,608.229L1352.99,608.203L1353.11,608.179L1353.23,608.156L1353.35,608.135L1353.48,608.115L1353.6,608.097L1353.73,608.08L1353.85,608.065L1353.98,608.052L1354.1,608.04L1354.23,608.029L1354.36,608.02L1354.49,608.013L1354.61,608.007L1354.74,608.003L1354.87,608.001L1355,608L1355.13,608.001ZM1354.88,609.001L1354.77,609.003L1354.65,609.007L1354.54,609.012L1354.42,609.018L1354.31,609.026L1354.19,609.036L1354.08,609.047L1353.97,609.059L1353.85,609.072L1353.74,609.087L1353.63,609.104L1353.52,609.122L1353.41,609.141L1353.3,609.161L1353.19,609.183L1353.08,609.206L1352.97,609.231L1352.86,609.256L1352.75,609.284L1352.64,609.312L1352.54,609.342L1352.43,609.373L1352.33,609.405L1352.22,609.438L1352.12,609.473L1352.01,609.509L1351.91,609.546L1351.8,609.585L1351.7,609.625L1351.6,609.666L1351.5,609.708L1351.4,609.751L1351.3,609.796L1351.2,609.841L1351.1,609.888L1351,609.936L1350.9,609.985L1350.81,610.036L1350.71,610.087L1350.62,610.139L1350.52,610.193L1350.43,610.248L1350.34,610.304L1350.24,610.361L1350.15,610.419L1350.06,610.478L1349.97,610.538L1349.88,610.599L1349.79,610.661L1349.7,610.725L1349.62,610.789L1349.53,610.854L1349.44,610.921L1349.36,610.988L1349.28,611.056L1349.19,611.126L1349.11,611.196L1349.03,611.267L1348.95,611.339L1348.87,611.412L1348.79,611.486L1348.71,611.561L1348.64,611.637L1348.56,611.714L1348.49,611.792L1348.41,611.87L1348.34,611.95L1348.27,612.03L1348.2,612.112L1348.13,612.194L1348.06,612.277L1347.99,612.36L1347.92,612.445L1347.85,612.53L1347.79,612.617L1347.73,612.704L1347.66,612.791L1347.6,612.88L1347.54,612.969L1347.48,613.06L1347.42,613.151L1347.36,613.242L1347.3,613.335L1347.25,613.428L1347.19,613.522L1347.14,613.616L1347.09,613.712L1347.04,613.808L1346.99,613.904L1346.94,614.002L1346.89,614.1L1346.84,614.198L1346.8,614.298L1346.75,614.398L1346.71,614.498L1346.67,614.599L1346.62,614.701L1346.59,614.804L1346.55,614.907L1346.51,615.01L1346.47,615.115L1346.44,615.22L1346.4,615.325L1346.37,615.431L1346.34,615.537L1346.31,615.644L1346.28,615.752L1346.26,615.86L1346.23,615.969L1346.21,616.078L1346.18,616.187L1346.16,616.297L1346.14,616.408L1346.12,616.519L1346.1,616.63L1346.09,616.742L1346.07,616.854L1346.06,616.967L1346.05,617.08L1346.04,617.194L1346.03,617.308L1346.02,617.422L1346.01,617.537L1346.01,617.652L1346,617.768L1346,617.884L1346,618L1346,618.116L1346,618.232L1346.01,618.348L1346.01,618.463L1346.02,618.578L1346.03,618.692L1346.04,618.806L1346.05,618.92L1346.06,619.033L1346.07,619.146L1346.09,619.258L1346.1,619.37L1346.12,619.481L1346.14,619.592L1346.16,619.703L1346.18,619.813L1346.21,619.922L1346.23,620.031L1346.26,620.14L1346.28,620.248L1346.31,620.356L1346.34,620.463L1346.37,620.569L1346.4,620.675L1346.44,620.78L1346.47,620.885L1346.51,620.99L1346.55,621.093L1346.59,621.196L1346.62,621.299L1346.67,621.401L1346.71,621.502L1346.75,621.602L1346.8,621.702L1346.84,621.802L1346.89,621.9L1346.94,621.998L1346.99,622.096L1347.04,622.192L1347.09,622.288L1347.14,622.384L1347.19,622.478L1347.25,622.572L1347.3,622.665L1347.36,622.758L1347.42,622.849L1347.48,622.94L1347.54,623.031L1347.6,623.12L1347.66,623.209L1347.73,623.296L1347.79,623.383L1347.85,623.47L1347.92,623.555L1347.99,623.64L1348.06,623.723L1348.13,623.806L1348.2,623.888L1348.27,623.97L1348.34,624.05L1348.41,624.13L1348.49,624.208L1348.56,624.286L1348.64,624.363L1348.71,624.439L1348.79,624.514L1348.87,624.588L1348.95,624.661L1349.03,624.733L1349.11,624.804L1349.19,624.874L1349.28,624.944L1349.36,625.012L1349.44,625.079L1349.53,625.146L1349.62,625.211L1349.7,625.275L1349.79,625.339L1349.88,625.401L1349.97,625.462L1350.06,625.522L1350.15,625.581L1350.24,625.639L1350.34,625.696L1350.43,625.752L1350.52,625.807L1350.62,625.861L1350.71,625.913L1350.81,625.964L1350.9,626.015L1351,626.064L1351.1,626.112L1351.2,626.159L1351.3,626.204L1351.4,626.249L1351.5,626.292L1351.6,626.334L1351.7,626.375L1351.8,626.415L1351.91,626.454L1352.01,626.491L1352.12,626.527L1352.22,626.562L1352.33,626.595L1352.43,626.627L1352.54,626.658L1352.64,626.688L1352.75,626.716L1352.86,626.744L1352.97,626.769L1353.08,626.794L1353.19,626.817L1353.3,626.839L1353.41,626.859L1353.52,626.878L1353.63,626.896L1353.74,626.913L1353.85,626.928L1353.97,626.941L1354.08,626.953L1354.19,626.964L1354.31,626.974L1354.42,626.982L1354.54,626.988L1354.65,626.993L1354.77,626.997L1354.88,626.999L1355,627L1355.12,626.999L1355.23,626.997L1355.35,626.993L1355.46,626.988L1355.58,626.982L1355.69,626.974L1355.81,626.964L1355.92,626.953L1356.03,626.941L1356.15,626.928L1356.26,626.913L1356.37,626.896L1356.48,626.878L1356.59,626.859L1356.7,626.839L1356.81,626.817L1356.92,626.794L1357.03,626.769L1357.14,626.744L1357.25,626.716L1357.36,626.688L1357.46,626.658L1357.57,626.627L1357.67,626.595L1357.78,626.562L1357.88,626.527L1357.99,626.491L1358.09,626.454L1358.2,626.415L1358.3,626.375L1358.4,626.334L1358.5,626.292L1358.6,626.249L1358.7,626.204L1358.8,626.159L1358.9,626.112L1359,626.064L1359.1,626.015L1359.19,625.964L1359.29,625.913L1359.38,625.861L1359.48,625.807L1359.57,625.752L1359.66,625.696L1359.76,625.639L1359.85,625.581L1359.94,625.522L1360.03,625.462L1360.12,625.401L1360.21,625.339L1360.3,625.275L1360.38,625.211L1360.47,625.146L1360.56,625.079L1360.64,625.012L1360.72,624.944L1360.81,624.874L1360.89,624.804L1360.97,624.733L1361.05,624.661L1361.13,624.588L1361.21,624.514L1361.29,624.439L1361.36,624.363L1361.44,624.286L1361.51,624.208L1361.59,624.13L1361.66,624.05L1361.73,623.97L1361.8,623.888L1361.87,623.806L1361.94,623.723L1362.01,623.64L1362.08,623.555L1362.15,623.47L1362.21,623.383L1362.28,623.296L1362.34,623.209L1362.4,623.12L1362.46,623.031L1362.52,622.94L1362.58,622.849L1362.64,622.758L1362.7,622.665L1362.75,622.572L1362.81,622.478L1362.86,622.384L1362.91,622.288L1362.96,622.192L1363.02,622.096L1363.06,621.998L1363.11,621.9L1363.16,621.802L1363.2,621.702L1363.25,621.602L1363.29,621.502L1363.33,621.401L1363.38,621.299L1363.41,621.196L1363.45,621.093L1363.49,620.99L1363.53,620.885L1363.56,620.78L1363.6,620.675L1363.63,620.569L1363.66,620.463L1363.69,620.356L1363.72,620.248L1363.74,620.14L1363.77,620.031L1363.79,619.922L1363.82,619.813L1363.84,619.703L1363.86,619.592L1363.88,619.481L1363.9,619.37L1363.91,619.258L1363.93,619.146L1363.94,619.033L1363.95,618.92L1363.96,618.806L1363.97,618.692L1363.98,618.578L1363.99,618.463L1363.99,618.348L1364,618.232L1364,618.116L1364,618L1364,617.884L1364,617.768L1363.99,617.652L1363.99,617.537L1363.98,617.422L1363.97,617.308L1363.96,617.194L1363.95,617.08L1363.94,616.967L1363.93,616.854L1363.91,616.742L1363.9,616.63L1363.88,616.519L1363.86,616.408L1363.84,616.297L1363.82,616.187L1363.79,616.078L1363.77,615.969L1363.74,615.86L1363.72,615.752L1363.69,615.644L1363.66,615.537L1363.63,615.431L1363.6,615.325L1363.56,615.22L1363.53,615.115L1363.49,615.01L1363.45,614.907L1363.41,614.804L1363.38,614.701L1363.33,614.599L1363.29,614.498L1363.25,614.398L1363.2,614.298L1363.16,614.198L1363.11,614.1L1363.06,614.002L1363.02,613.904L1362.96,613.808L1362.91,613.712L1362.86,613.616L1362.81,613.522L1362.75,613.428L1362.7,613.335L1362.64,613.242L1362.58,613.151L1362.52,613.06L1362.46,612.969L1362.4,612.88L1362.34,612.791L1362.28,612.704L1362.21,612.617L1362.15,612.53L1362.08,612.445L1362.01,612.36L1361.94,612.277L1361.87,612.194L1361.8,612.112L1361.73,612.03L1361.66,611.95L1361.59,611.87L1361.51,611.792L1361.44,611.714L1361.36,611.637L1361.29,611.561L1361.21,611.486L1361.13,611.412L1361.05,611.339L1360.97,611.267L1360.89,611.196L1360.81,611.126L1360.72,611.056L1360.64,610.988L1360.56,610.921L1360.47,610.854L1360.38,610.789L1360.3,610.725L1360.21,610.661L1360.12,610.599L1360.03,610.538L1359.94,610.478L1359.85,610.419L1359.76,610.361L1359.66,610.304L1359.57,610.248L1359.48,610.193L1359.38,610.139L1359.29,610.087L1359.19,610.036L1359.1,609.985L1359,609.936L1358.9,609.888L1358.8,609.841L1358.7,609.796L1358.6,609.751L1358.5,609.708L1358.4,609.666L1358.3,609.625L1358.2,609.585L1358.09,609.546L1357.99,609.509L1357.88,609.473L1357.78,609.438L1357.67,609.405L1357.57,609.373L1357.46,609.342L1357.36,609.312L1357.25,609.284L1357.14,609.256L1357.03,609.231L1356.92,609.206L1356.81,609.183L1356.7,609.161L1356.59,609.141L1356.48,609.122L1356.37,609.104L1356.26,609.087L1356.15,609.072L1356.03,609.059L1355.92,609.047L1355.81,609.036L1355.69,609.026L1355.58,609.018L1355.46,609.012L1355.35,609.007L1355.23,609.003L1355.12,609.001L1355,609L1354.88,609.001Z" style="fill:rgb(51,51,51);"/>
            </g>
        </g>
    </g>
</svg>
