<?xml version="1.0" encoding="UTF-8" standalone="no"?>
<!DOCTYPE svg PUBLIC "-//W3C//DTD SVG 1.1//EN" "http://www.w3.org/Graphics/SVG/1.1/DTD/svg11.dtd">
<svg width="24px" height="24px" version="1.1" xmlns="http://www.w3.org/2000/svg" xmlns:xlink="http://www.w3.org/1999/xlink" xml:space="preserve" xmlns:serif="http://www.serif.com/" style="fill-rule:evenodd;clip-rule:evenodd;stroke-linejoin:round;stroke-miterlimit:1.41421;">
    <g transform="matrix(1,0,0,1,-1491,-606)">
        <g id="ui.thin.expand" transform="matrix(0.800768,0,0,0.984948,1491,606)">
            <rect x="0" y="0" width="29.971" height="24.367" style="fill:none;"/>
            <g transform="matrix(1.2488,0,0,1.01528,-3055.82,-615.261)">
                <path d="M2466,624.293C2466,624.293 2466,621.632 2466,620.5C2466,620.224 2466.22,620 2466.5,620C2466.63,620 2466.76,620.053 2466.85,620.146C2466.95,620.24 2467,620.367 2467,620.5C2467,621.487 2467,623.702 2467,625C2467,625.265 2466.89,625.52 2466.71,625.707C2466.52,625.895 2466.26,626 2466,626C2464.7,626 2462.49,626 2461.5,626C2461.37,626 2461.24,625.947 2461.15,625.854C2461.05,625.76 2461,625.633 2461,625.5C2461,625.224 2461.22,625 2461.5,625C2462.63,625 2465.29,625 2465.29,625C2465.29,625 2461.79,621.494 2460.65,620.354C2460.45,620.158 2460.45,619.842 2460.65,619.646C2460.65,619.646 2460.65,619.646 2460.65,619.646C2460.84,619.451 2461.16,619.451 2461.35,619.646C2462.49,620.785 2466,624.293 2466,624.293ZM2457,610.5C2457,610.776 2456.78,611 2456.5,611C2455.37,611 2452.71,611 2452.71,611C2452.71,611 2456.23,614.525 2457.36,615.656C2457.45,615.747 2457.51,615.871 2457.51,616C2457.51,616.129 2457.45,616.253 2457.36,616.344C2457.36,616.345 2457.36,616.345 2457.36,616.345C2457.27,616.441 2457.14,616.495 2457,616.495C2456.86,616.495 2456.73,616.441 2456.64,616.345C2455.49,615.196 2452,611.707 2452,611.707C2452,611.707 2452,614.368 2452,615.5C2452,615.776 2451.78,616 2451.5,616C2451.37,616 2451.24,615.947 2451.15,615.854C2451.05,615.76 2451,615.633 2451,615.5C2451,614.513 2451,612.298 2451,611C2451,610.735 2451.11,610.48 2451.29,610.293C2451.48,610.105 2451.74,610 2452,610C2453.3,610 2455.51,610 2456.5,610C2456.63,610 2456.76,610.053 2456.85,610.146C2456.95,610.24 2457,610.367 2457,610.5C2457,610.5 2457,610.5 2457,610.5Z" style="fill:rgb(51,51,51);"/>
            </g>
        </g>
    </g>
</svg>
