<?xml version="1.0" encoding="UTF-8" standalone="no"?>
<!DOCTYPE svg PUBLIC "-//W3C//DTD SVG 1.1//EN" "http://www.w3.org/Graphics/SVG/1.1/DTD/svg11.dtd">
<svg width="24px" height="24px" version="1.1" xmlns="http://www.w3.org/2000/svg" xmlns:xlink="http://www.w3.org/1999/xlink" xml:space="preserve" xmlns:serif="http://www.serif.com/" style="fill-rule:evenodd;clip-rule:evenodd;stroke-linejoin:round;stroke-miterlimit:1.41421;">
    <g transform="matrix(1,0,0,1,-1653,-606)">
        <g id="ui.thin.indentRight" transform="matrix(0.800768,0,0,0.984948,1653,606)">
            <rect x="0" y="0" width="29.971" height="24.367" style="fill:none;"/>
            <g transform="matrix(1.2488,0,0,1.01528,-2636.22,-615.261)">
                <path d="M2118,623.512C2118,623.229 2118.23,623 2118.51,623C2120.6,623 2128.47,623 2130.51,623C2130.78,623 2131,623.218 2131,623.487C2131,623.487 2131,623.488 2131,623.488C2131,623.771 2130.77,624 2130.49,624C2128.4,624 2120.53,624 2118.49,624C2118.22,624 2118,623.782 2118,623.513C2118,623.513 2118,623.512 2118,623.512ZM2118.99,616.791C2119.18,616.978 2119.29,617.233 2119.29,617.499C2119.29,617.765 2119.19,618.021 2119,618.209C2118.21,619 2116.96,620.248 2116.35,620.854C2116.16,621.049 2115.84,621.049 2115.65,620.854C2115.65,620.853 2115.65,620.853 2115.65,620.853C2115.55,620.759 2115.5,620.632 2115.5,620.5C2115.5,620.368 2115.55,620.241 2115.65,620.147C2116.44,619.355 2118.29,617.502 2118.29,617.502C2118.29,617.502 2116.42,615.646 2115.62,614.855C2115.42,614.661 2115.42,614.345 2115.62,614.149C2115.62,614.149 2115.62,614.148 2115.62,614.148C2115.81,613.952 2116.13,613.95 2116.32,614.145C2116.93,614.75 2118.2,616 2118.99,616.791ZM2122,619.512C2122,619.376 2122.05,619.246 2122.15,619.15C2122.25,619.054 2122.38,619 2122.51,619C2124.1,619 2128.95,619 2130.51,619C2130.64,619 2130.77,619.051 2130.86,619.143C2130.95,619.234 2131,619.358 2131,619.487C2131,619.487 2131,619.488 2131,619.488C2131,619.624 2130.95,619.754 2130.85,619.85C2130.75,619.946 2130.62,620 2130.49,620C2128.9,620 2124.05,620 2122.49,620C2122.36,620 2122.23,619.949 2122.14,619.857C2122.05,619.766 2122,619.642 2122,619.513C2122,619.513 2122,619.512 2122,619.512ZM2122,615.512C2122,615.376 2122.05,615.246 2122.15,615.15C2122.25,615.054 2122.38,615 2122.51,615C2124.1,615 2128.95,615 2130.51,615C2130.64,615 2130.77,615.051 2130.86,615.143C2130.95,615.234 2131,615.358 2131,615.487C2131,615.487 2131,615.488 2131,615.488C2131,615.624 2130.95,615.754 2130.85,615.85C2130.75,615.946 2130.62,616 2130.49,616C2128.9,616 2124.05,616 2122.49,616C2122.36,616 2122.23,615.949 2122.14,615.857C2122.05,615.766 2122,615.642 2122,615.513C2122,615.513 2122,615.512 2122,615.512ZM2118,611.512C2118,611.229 2118.23,611 2118.51,611C2120.6,611 2128.47,611 2130.51,611C2130.78,611 2131,611.218 2131,611.487C2131,611.487 2131,611.488 2131,611.488C2131,611.771 2130.77,612 2130.49,612C2128.4,612 2120.53,612 2118.49,612C2118.22,612 2118,611.782 2118,611.513C2118,611.513 2118,611.512 2118,611.512Z" style="fill:rgb(51,51,51);"/>
            </g>
        </g>
    </g>
</svg>
