<?xml version="1.0" encoding="UTF-8" standalone="no"?>
<!DOCTYPE svg PUBLIC "-//W3C//DTD SVG 1.1//EN" "http://www.w3.org/Graphics/SVG/1.1/DTD/svg11.dtd">
<svg width="24px" height="24px" version="1.1" xmlns="http://www.w3.org/2000/svg" xmlns:xlink="http://www.w3.org/1999/xlink" xml:space="preserve" xmlns:serif="http://www.serif.com/" style="fill-rule:evenodd;clip-rule:evenodd;stroke-linejoin:round;stroke-miterlimit:1.41421;">
    <g transform="matrix(1,0,0,1,-2591,-606)">
        <g id="ui.thin.bluetooth" transform="matrix(0.800768,0,0,0.984948,2591,606)">
            <rect x="0" y="0" width="29.971" height="24.367" style="fill:none;"/>
            <g transform="matrix(1.2488,0,0,1.01528,-3235.64,-615.261)">
                <path d="M2602,611.207C2602,610.803 2602.24,610.438 2602.62,610.283C2602.99,610.129 2603.42,610.214 2603.71,610.5C2604.66,611.449 2605.79,612.579 2606.5,613.293C2606.69,613.48 2606.79,613.735 2606.79,614C2606.79,614.265 2606.69,614.52 2606.5,614.707C2605.35,615.856 2603.21,618 2603.21,618C2603.21,618 2605.35,620.144 2606.5,621.293C2606.69,621.48 2606.79,621.735 2606.79,622C2606.79,622.265 2606.69,622.52 2606.5,622.707C2605.79,623.421 2604.66,624.551 2603.71,625.5C2603.42,625.786 2602.99,625.871 2602.62,625.717C2602.24,625.562 2602,625.197 2602,624.793C2602,622.438 2602,619.207 2602,619.207C2602,619.207 2599.74,621.465 2598.85,622.354C2598.76,622.447 2598.63,622.5 2598.5,622.5C2598.37,622.5 2598.24,622.447 2598.15,622.354C2598.05,622.26 2598,622.133 2598,622C2598,621.867 2598.05,621.74 2598.15,621.646C2599.12,620.669 2601.79,618 2601.79,618C2601.79,618 2599.12,615.331 2598.15,614.354C2598.05,614.26 2598,614.133 2598,614C2598,613.867 2598.05,613.74 2598.15,613.646C2598.15,613.646 2598.15,613.646 2598.15,613.646C2598.24,613.552 2598.37,613.5 2598.5,613.5C2598.63,613.5 2598.76,613.552 2598.85,613.646C2599.74,614.534 2602,616.793 2602,616.793C2602,616.793 2602,613.562 2602,611.207ZM2603,624.793L2605.79,622L2603,619.207L2603,624.793ZM2603,616.793L2605.79,614L2603,611.207L2603,616.793Z" style="fill:rgb(51,51,51);"/>
            </g>
        </g>
    </g>
</svg>
