<?xml version="1.0" encoding="UTF-8" standalone="no"?>
<!DOCTYPE svg PUBLIC "-//W3C//DTD SVG 1.1//EN" "http://www.w3.org/Graphics/SVG/1.1/DTD/svg11.dtd">
<svg width="25px" height="24px" version="1.1" xmlns="http://www.w3.org/2000/svg" xmlns:xlink="http://www.w3.org/1999/xlink" xml:space="preserve" xmlns:serif="http://www.serif.com/" style="fill-rule:evenodd;clip-rule:evenodd;stroke-linejoin:round;stroke-miterlimit:1.41421;">
    <g transform="matrix(1,0,0,1,-1106,-606)">
        <g id="ui.thin.list" transform="matrix(0.800768,0,0,0.984948,1106.98,606)">
            <rect x="0" y="0" width="29.971" height="24.367" style="fill:none;"/>
            <g transform="matrix(1.2488,0,0,1.01528,-2576.28,-566.528)">
                <path d="M2083,575.512C2083,575.229 2082.77,575 2082.49,575C2080.51,575 2073.42,575 2071.49,575C2071.36,575 2071.23,575.051 2071.14,575.143C2071.05,575.234 2071,575.358 2071,575.487C2071,575.487 2071,575.488 2071,575.488C2071,575.771 2071.23,576 2071.51,576C2073.49,576 2080.58,576 2082.51,576C2082.64,576 2082.77,575.949 2082.86,575.857C2082.95,575.766 2083,575.642 2083,575.513C2083,575.513 2083,575.512 2083,575.512ZM2069,575.512C2069,575.229 2068.77,575 2068.49,575C2068.18,575 2067.79,575 2067.49,575C2067.22,575 2067,575.218 2067,575.487C2067,575.487 2067,575.488 2067,575.488C2067,575.771 2067.23,576 2067.51,576C2067.82,576 2068.21,576 2068.51,576C2068.78,576 2069,575.782 2069,575.513C2069,575.513 2069,575.512 2069,575.512ZM2083,571.512C2083,571.229 2082.77,571 2082.49,571C2080.51,571 2073.42,571 2071.49,571C2071.36,571 2071.23,571.051 2071.14,571.143C2071.05,571.234 2071,571.358 2071,571.487C2071,571.487 2071,571.488 2071,571.488C2071,571.771 2071.23,572 2071.51,572C2073.49,572 2080.58,572 2082.51,572C2082.64,572 2082.77,571.949 2082.86,571.857C2082.95,571.766 2083,571.642 2083,571.513C2083,571.513 2083,571.512 2083,571.512ZM2069,571.512C2069,571.229 2068.77,571 2068.49,571C2068.18,571 2067.79,571 2067.49,571C2067.22,571 2067,571.218 2067,571.487C2067,571.487 2067,571.488 2067,571.488C2067,571.771 2067.23,572 2067.51,572C2067.82,572 2068.21,572 2068.51,572C2068.78,572 2069,571.782 2069,571.513C2069,571.513 2069,571.512 2069,571.512ZM2083,567.512C2083,567.229 2082.77,567 2082.49,567C2080.51,567 2073.42,567 2071.49,567C2071.36,567 2071.23,567.051 2071.14,567.143C2071.05,567.234 2071,567.358 2071,567.487C2071,567.487 2071,567.488 2071,567.488C2071,567.771 2071.23,568 2071.51,568C2073.49,568 2080.58,568 2082.51,568C2082.64,568 2082.77,567.949 2082.86,567.857C2082.95,567.766 2083,567.642 2083,567.513C2083,567.513 2083,567.512 2083,567.512ZM2069,567.512C2069,567.229 2068.77,567 2068.49,567C2068.18,567 2067.79,567 2067.49,567C2067.22,567 2067,567.218 2067,567.487C2067,567.487 2067,567.488 2067,567.488C2067,567.771 2067.23,568 2067.51,568C2067.82,568 2068.21,568 2068.51,568C2068.78,568 2069,567.782 2069,567.513C2069,567.513 2069,567.512 2069,567.512ZM2083,563.512C2083,563.229 2082.77,563 2082.49,563C2080.51,563 2073.42,563 2071.49,563C2071.36,563 2071.23,563.051 2071.14,563.143C2071.05,563.234 2071,563.358 2071,563.487C2071,563.487 2071,563.488 2071,563.488C2071,563.771 2071.23,564 2071.51,564C2073.49,564 2080.58,564 2082.51,564C2082.64,564 2082.77,563.949 2082.86,563.857C2082.95,563.766 2083,563.642 2083,563.513C2083,563.513 2083,563.512 2083,563.512ZM2069,563.512C2069,563.229 2068.77,563 2068.49,563C2068.18,563 2067.79,563 2067.49,563C2067.22,563 2067,563.218 2067,563.487C2067,563.487 2067,563.488 2067,563.488C2067,563.771 2067.23,564 2067.51,564C2067.82,564 2068.21,564 2068.51,564C2068.78,564 2069,563.782 2069,563.513C2069,563.513 2069,563.512 2069,563.512Z" style="fill:rgb(51,51,51);"/>
            </g>
        </g>
    </g>
</svg>
