<?xml version="1.0" encoding="UTF-8" standalone="no"?>
<!DOCTYPE svg PUBLIC "-//W3C//DTD SVG 1.1//EN" "http://www.w3.org/Graphics/SVG/1.1/DTD/svg11.dtd">
<svg width="24px" height="24px" version="1.1" xmlns="http://www.w3.org/2000/svg" xmlns:xlink="http://www.w3.org/1999/xlink" xml:space="preserve" xmlns:serif="http://www.serif.com/" style="fill-rule:evenodd;clip-rule:evenodd;stroke-linejoin:round;stroke-miterlimit:1.41421;">
    <g transform="matrix(1,0,0,1,-2421,-606)">
        <g id="ui.thin.moveForward" transform="matrix(0.800768,0,0,0.984948,2421,606)">
            <rect x="0" y="0" width="29.971" height="24.367" style="fill:none;"/>
            <g transform="matrix(1.2488,0,0,1.01528,-3023.35,-615.261)">
                <path d="M2443,627C2443,627.265 2442.89,627.52 2442.71,627.707C2442.52,627.895 2442.26,628 2442,628C2440.27,628 2436.73,628 2435,628C2434.45,628 2434,627.552 2434,627C2434,626.496 2434,625.908 2434,625.5C2434,625.224 2434.22,625 2434.5,625C2434.5,625 2434.5,625 2434.5,625C2434.78,625 2435,625.224 2435,625.5C2435,626.092 2435,627 2435,627L2442,627L2442,620C2442,620 2441.09,620 2440.5,620C2440.22,620 2440,619.776 2440,619.5C2440,619.367 2440.05,619.24 2440.15,619.146C2440.24,619.053 2440.37,619 2440.5,619C2440.91,619 2441.5,619 2442,619C2442.55,619 2443,619.448 2443,620C2443,621.732 2443,625.268 2443,627ZM2439,623C2439,623.265 2438.89,623.52 2438.71,623.707C2438.52,623.895 2438.26,624 2438,624C2435.74,624 2430.26,624 2428,624C2427.74,624 2427.48,623.895 2427.29,623.707C2427.11,623.52 2427,623.265 2427,623C2427,620.74 2427,615.26 2427,613C2427,612.735 2427.11,612.48 2427.29,612.293C2427.48,612.105 2427.74,612 2428,612C2430.26,612 2435.74,612 2438,612C2438.26,612 2438.52,612.105 2438.71,612.293C2438.89,612.48 2439,612.735 2439,613C2439,615.26 2439,620.74 2439,623ZM2438,623L2438,613L2428,613L2428,623L2438,623ZM2430,617.5C2430,617.367 2430.05,617.24 2430.15,617.146C2430.24,617.053 2430.37,617 2430.5,617C2431.63,617 2434.37,617 2435.5,617C2435.63,617 2435.76,617.053 2435.85,617.146C2435.95,617.24 2436,617.367 2436,617.5C2436,617.633 2435.95,617.76 2435.85,617.854C2435.76,617.947 2435.63,618 2435.5,618C2434.37,618 2431.63,618 2430.5,618C2430.37,618 2430.24,617.947 2430.15,617.854C2430.05,617.76 2430,617.633 2430,617.5C2430,617.5 2430,617.5 2430,617.5ZM2432,610.5C2432,610.776 2431.78,611 2431.5,611C2431.5,611 2431.5,611 2431.5,611C2431.22,611 2431,610.776 2431,610.5C2431,609.908 2431,609 2431,609L2424,609L2424,616C2424,616 2424.91,616 2425.5,616C2425.78,616 2426,616.224 2426,616.5C2426,616.633 2425.95,616.76 2425.85,616.854C2425.76,616.947 2425.63,617 2425.5,617C2425.09,617 2424.5,617 2424,617C2423.45,617 2423,616.552 2423,616C2423,614.268 2423,610.732 2423,609C2423,608.735 2423.11,608.48 2423.29,608.293C2423.48,608.105 2423.74,608 2424,608C2425.73,608 2429.27,608 2431,608C2431.55,608 2432,608.448 2432,609C2432,609.504 2432,610.092 2432,610.5ZM2430,615.5C2430,615.367 2430.05,615.24 2430.15,615.146C2430.24,615.053 2430.37,615 2430.5,615C2431.63,615 2434.37,615 2435.5,615C2435.63,615 2435.76,615.053 2435.85,615.146C2435.95,615.24 2436,615.367 2436,615.5C2436,615.633 2435.95,615.76 2435.85,615.854C2435.76,615.947 2435.63,616 2435.5,616C2434.37,616 2431.63,616 2430.5,616C2430.37,616 2430.24,615.947 2430.15,615.854C2430.05,615.76 2430,615.633 2430,615.5C2430,615.5 2430,615.5 2430,615.5Z"/>
            </g>
        </g>
    </g>
</svg>
