<?xml version="1.0" encoding="UTF-8" standalone="no"?>
<!DOCTYPE svg PUBLIC "-//W3C//DTD SVG 1.1//EN" "http://www.w3.org/Graphics/SVG/1.1/DTD/svg11.dtd">
<svg width="24px" height="24px" version="1.1" xmlns="http://www.w3.org/2000/svg" xmlns:xlink="http://www.w3.org/1999/xlink" xml:space="preserve" xmlns:serif="http://www.serif.com/" style="fill-rule:evenodd;clip-rule:evenodd;stroke-linejoin:round;stroke-miterlimit:1.41421;">
    <g transform="matrix(1,0,0,1,-2325,-606)">
        <g id="ui.thin.forwardOne" transform="matrix(0.800768,0,0,0.984948,2325,606)">
            <rect x="0" y="0" width="29.971" height="24.367" style="fill:none;"/>
            <g transform="matrix(1.2488,0,0,1.01528,-2903.46,-615.261)">
                <path d="M2345,625C2345,625.265 2344.89,625.52 2344.71,625.707C2344.52,625.895 2344.26,626 2344,626C2341.74,626 2336.26,626 2334,626C2333.74,626 2333.48,625.895 2333.29,625.707C2333.11,625.52 2333,625.265 2333,625C2333,622.74 2333,617.26 2333,615C2333,614.735 2333.11,614.48 2333.29,614.293C2333.48,614.105 2333.74,614 2334,614C2336.26,614 2341.74,614 2344,614C2344.26,614 2344.52,614.105 2344.71,614.293C2344.89,614.48 2345,614.735 2345,615C2345,617.26 2345,622.74 2345,625ZM2334,615L2334,625L2344,625L2344,615L2334,615ZM2336,619.5C2336,619.367 2336.05,619.24 2336.15,619.146C2336.24,619.053 2336.37,619 2336.5,619C2337.63,619 2340.37,619 2341.5,619C2341.63,619 2341.76,619.053 2341.85,619.146C2341.95,619.24 2342,619.367 2342,619.5C2342,619.633 2341.95,619.76 2341.85,619.854C2341.76,619.947 2341.63,620 2341.5,620C2340.37,620 2337.63,620 2336.5,620C2336.37,620 2336.24,619.947 2336.15,619.854C2336.05,619.76 2336,619.633 2336,619.5C2336,619.5 2336,619.5 2336,619.5ZM2338,612.5C2338,612.776 2337.78,613 2337.5,613C2337.5,613 2337.5,613 2337.5,613C2337.22,613 2337,612.776 2337,612.5C2337,611.908 2337,611 2337,611L2330,611L2330,618C2330,618 2330.91,618 2331.5,618C2331.78,618 2332,618.224 2332,618.5C2332,618.633 2331.95,618.76 2331.85,618.854C2331.76,618.947 2331.63,619 2331.5,619C2331.09,619 2330.5,619 2330,619C2329.45,619 2329,618.552 2329,618C2329,616.268 2329,612.732 2329,611C2329,610.735 2329.11,610.48 2329.29,610.293C2329.48,610.105 2329.74,610 2330,610C2331.73,610 2335.27,610 2337,610C2337.55,610 2338,610.448 2338,611C2338,611.504 2338,612.092 2338,612.5ZM2336,617.5C2336,617.367 2336.05,617.24 2336.15,617.146C2336.24,617.053 2336.37,617 2336.5,617C2337.63,617 2340.37,617 2341.5,617C2341.63,617 2341.76,617.053 2341.85,617.146C2341.95,617.24 2342,617.367 2342,617.5C2342,617.633 2341.95,617.76 2341.85,617.854C2341.76,617.947 2341.63,618 2341.5,618C2340.37,618 2337.63,618 2336.5,618C2336.37,618 2336.24,617.947 2336.15,617.854C2336.05,617.76 2336,617.633 2336,617.5C2336,617.5 2336,617.5 2336,617.5Z"/>
            </g>
        </g>
    </g>
</svg>
