<?xml version="1.0" encoding="UTF-8" standalone="no"?>
<!DOCTYPE svg PUBLIC "-//W3C//DTD SVG 1.1//EN" "http://www.w3.org/Graphics/SVG/1.1/DTD/svg11.dtd">
<svg width="24px" height="24px" version="1.1" xmlns="http://www.w3.org/2000/svg" xmlns:xlink="http://www.w3.org/1999/xlink" xml:space="preserve" xmlns:serif="http://www.serif.com/" style="fill-rule:evenodd;clip-rule:evenodd;stroke-linejoin:round;stroke-miterlimit:1.41421;">
    <g transform="matrix(1,0,0,1,-2853,-606)">
        <g id="ui.thin.alignLeft" transform="matrix(0.800768,0,0,0.984948,2853,606)">
            <rect x="0" y="0" width="29.971" height="24.367" style="fill:none;"/>
            <g transform="matrix(1.2488,0,0,1.01528,-3562.83,-566.528)">
                <path d="M2855.5,560C2855.63,560 2855.76,560.053 2855.85,560.146C2855.95,560.24 2856,560.367 2856,560.5C2856,563.272 2856,576.728 2856,579.5C2856,579.633 2855.95,579.76 2855.85,579.854C2855.76,579.947 2855.63,580 2855.5,580C2855.37,580 2855.24,579.947 2855.15,579.854C2855.05,579.76 2855,579.633 2855,579.5C2855,576.728 2855,563.272 2855,560.5C2855,560.367 2855.05,560.24 2855.15,560.146C2855.24,560.053 2855.37,560 2855.5,560C2855.5,560 2855.5,560 2855.5,560ZM2868,574C2868,574.552 2867.55,575 2867,575C2865.08,575 2860.92,575 2859,575C2858.45,575 2858,574.552 2858,574C2858,573.389 2858,572.611 2858,572C2858,571.448 2858.45,571 2859,571C2860.92,571 2865.08,571 2867,571C2867.55,571 2868,571.448 2868,572C2868,572.611 2868,573.389 2868,574ZM2867,572L2859,572L2859,574L2867,574L2867,572ZM2874,568C2874,568.552 2873.55,569 2873,569C2870.13,569 2861.87,569 2859,569C2858.45,569 2858,568.552 2858,568C2858,567.389 2858,566.611 2858,566C2858,565.448 2858.45,565 2859,565C2861.87,565 2870.13,565 2873,565C2873.55,565 2874,565.448 2874,566C2874,566.611 2874,567.389 2874,568ZM2873,566L2859,566L2859,568L2873,568L2873,566Z" style="fill:rgb(51,51,51);"/>
            </g>
        </g>
    </g>
</svg>
