<?xml version="1.0" encoding="UTF-8" standalone="no"?><!DOCTYPE svg PUBLIC "-//W3C//DTD SVG 1.1//EN" "http://www.w3.org/Graphics/SVG/1.1/DTD/svg11.dtd"><svg width="100%" height="100%" viewBox="0 0 24 24" version="1.1" xmlns="http://www.w3.org/2000/svg" xmlns:xlink="http://www.w3.org/1999/xlink" xml:space="preserve" xmlns:serif="http://www.serif.com/" style="fill-rule:evenodd;clip-rule:evenodd;stroke-linejoin:round;stroke-miterlimit:1.41421;"><rect id="ui.thin.external" x="0" y="0" width="24" height="24" style="fill:none;"/><path d="M8,5.5c0,0.276 -0.224,0.5 -0.5,0.5c-0.592,0 -1.5,0 -1.5,0l0,13l13,0c0,0 0,-0.908 0,-1.5c0,-0.133 0.053,-0.26 0.146,-0.354c0.094,-0.093 0.221,-0.146 0.354,-0.146c0.133,0 0.26,0.053 0.354,0.146c0.093,0.094 0.146,0.221 0.146,0.354c0,0.408 0,0.996 0,1.5c0,0.552 -0.448,1 -1,1c-2.727,0 -10.273,0 -13,0c-0.265,0 -0.52,-0.105 -0.707,-0.293c-0.188,-0.187 -0.293,-0.442 -0.293,-0.707c0,-2.727 0,-10.273 0,-13c0,-0.265 0.105,-0.52 0.293,-0.707c0.187,-0.188 0.442,-0.293 0.707,-0.293c0.504,0 1.092,0 1.5,0c0.276,0 0.5,0.224 0.5,0.5c0,0 0,0 0,0Zm2.996,-0.001c0,-0.276 0.223,-0.499 0.499,-0.499c1.432,0 5.579,0 7.501,0c0.265,0 0.519,0.105 0.707,0.293c0.187,0.187 0.293,0.442 0.293,0.707c0,1.922 0,6.068 0,7.501c0,0.276 -0.224,0.499 -0.499,0.499c-0.001,0 -0.001,0 -0.001,0c-0.276,0 -0.5,-0.224 -0.5,-0.5c0,-1.647 0,-6.795 0,-6.795c0,0 -6.119,6.104 -7.652,7.633c-0.091,0.091 -0.215,0.142 -0.345,0.142c-0.129,0 -0.253,-0.051 -0.344,-0.143c0,0 0,0 0,-0.001c-0.2,-0.2 -0.2,-0.524 0,-0.724c1.561,-1.557 7.632,-7.612 7.632,-7.612c0,0 -5.147,0 -6.792,0c-0.133,0 -0.26,-0.053 -0.353,-0.146c-0.094,-0.094 -0.146,-0.221 -0.146,-0.353c0,-0.001 0,-0.001 0,-0.002Z" style="fill:#333;"/></svg>