<?xml version="1.0" encoding="UTF-8" standalone="no"?>
<!DOCTYPE svg PUBLIC "-//W3C//DTD SVG 1.1//EN" "http://www.w3.org/Graphics/SVG/1.1/DTD/svg11.dtd">
<svg width="24px" height="24px" version="1.1" xmlns="http://www.w3.org/2000/svg" xmlns:xlink="http://www.w3.org/1999/xlink" xml:space="preserve" xmlns:serif="http://www.serif.com/" style="fill-rule:evenodd;clip-rule:evenodd;stroke-linejoin:round;stroke-miterlimit:1.41421;">
    <g transform="matrix(1,0,0,1,-2901,-606)">
        <g id="ui.thin.alignRight" transform="matrix(0.800768,0,0,0.984948,2901,606)">
            <rect x="0" y="0" width="29.971" height="24.367" style="fill:none;"/>
            <g transform="matrix(1.2488,0,0,1.01528,-3622.77,-566.528)">
                <path d="M2922.5,560C2922.63,560 2922.76,560.053 2922.85,560.146C2922.95,560.24 2923,560.367 2923,560.5C2923,563.272 2923,576.728 2923,579.5C2923,579.633 2922.95,579.76 2922.85,579.854C2922.76,579.947 2922.63,580 2922.5,580C2922.37,580 2922.24,579.947 2922.15,579.854C2922.05,579.76 2922,579.633 2922,579.5C2922,576.728 2922,563.272 2922,560.5C2922,560.367 2922.05,560.24 2922.15,560.146C2922.24,560.053 2922.37,560 2922.5,560C2922.5,560 2922.5,560 2922.5,560ZM2920,574C2920,574.552 2919.55,575 2919,575C2917.08,575 2912.92,575 2911,575C2910.45,575 2910,574.552 2910,574C2910,573.389 2910,572.611 2910,572C2910,571.448 2910.45,571 2911,571C2912.92,571 2917.08,571 2919,571C2919.55,571 2920,571.448 2920,572C2920,572.611 2920,573.389 2920,574ZM2919,572L2911,572L2911,574L2919,574L2919,572ZM2920,568C2920,568.552 2919.55,569 2919,569C2916.13,569 2907.87,569 2905,569C2904.45,569 2904,568.552 2904,568C2904,567.389 2904,566.611 2904,566C2904,565.448 2904.45,565 2905,565C2907.87,565 2916.13,565 2919,565C2919.55,565 2920,565.448 2920,566C2920,566.611 2920,567.389 2920,568ZM2919,566L2905,566L2905,568L2919,568L2919,566Z" style="fill:rgb(51,51,51);"/>
            </g>
        </g>
    </g>
</svg>
