<?xml version="1.0" encoding="UTF-8" standalone="no"?>
<!DOCTYPE svg PUBLIC "-//W3C//DTD SVG 1.1//EN" "http://www.w3.org/Graphics/SVG/1.1/DTD/svg11.dtd">
<svg width="24px" height="24px" version="1.1" xmlns="http://www.w3.org/2000/svg" xmlns:xlink="http://www.w3.org/1999/xlink" xml:space="preserve" xmlns:serif="http://www.serif.com/" style="fill-rule:evenodd;clip-rule:evenodd;stroke-linejoin:round;stroke-miterlimit:1.41421;">
    <g transform="matrix(1,0,0,1,-2639,-606)">
        <g id="ui.thin.code" transform="matrix(0.800768,0,0,0.984948,2639,606)">
            <rect x="0" y="0" width="29.971" height="24.367" style="fill:none;"/>
            <g transform="matrix(1.2488,0,0,1.01528,-3295.59,-615.261)">
                <path d="M2657.5,617.293C2657.89,617.683 2657.89,618.317 2657.5,618.707C2656.47,619.733 2654.61,621.596 2653.84,622.363C2653.65,622.553 2653.35,622.553 2653.16,622.363C2653.16,622.363 2653.16,622.362 2653.16,622.362C2653.06,622.266 2653.01,622.136 2653.01,622C2653.01,621.864 2653.06,621.734 2653.16,621.638C2654.14,620.653 2656.79,618 2656.79,618C2656.79,618 2654.14,615.347 2653.16,614.362C2653.06,614.266 2653.01,614.136 2653.01,614C2653.01,613.864 2653.06,613.734 2653.16,613.638C2653.16,613.638 2653.16,613.637 2653.16,613.637C2653.35,613.447 2653.65,613.447 2653.84,613.637C2654.61,614.404 2656.47,616.267 2657.5,617.293ZM2648.85,613.638C2648.94,613.734 2648.99,613.864 2648.99,614C2648.99,614.136 2648.94,614.266 2648.85,614.362C2647.86,615.347 2645.21,618 2645.21,618C2645.21,618 2647.86,620.653 2648.85,621.638C2648.94,621.734 2648.99,621.864 2648.99,622C2648.99,622.136 2648.94,622.266 2648.85,622.362C2648.85,622.362 2648.85,622.363 2648.84,622.363C2648.65,622.553 2648.35,622.553 2648.16,622.363C2647.39,621.596 2645.53,619.733 2644.5,618.707C2644.11,618.317 2644.11,617.683 2644.5,617.293C2645.53,616.267 2647.39,614.404 2648.16,613.637C2648.35,613.447 2648.65,613.447 2648.84,613.637C2648.85,613.637 2648.85,613.638 2648.85,613.638Z" style="fill:rgb(51,51,51);"/>
            </g>
        </g>
    </g>
</svg>
