<?xml version="1.0" encoding="UTF-8" standalone="no"?>
<!DOCTYPE svg PUBLIC "-//W3C//DTD SVG 1.1//EN" "http://www.w3.org/Graphics/SVG/1.1/DTD/svg11.dtd">
<svg width="24px" height="24px" version="1.1" xmlns="http://www.w3.org/2000/svg" xmlns:xlink="http://www.w3.org/1999/xlink" xml:space="preserve" xmlns:serif="http://www.serif.com/" style="fill-rule:evenodd;clip-rule:evenodd;stroke-linejoin:round;stroke-miterlimit:1.41421;">
    <g transform="matrix(1,0,0,1,-2805,-606)">
        <g id="ui.thin.link" transform="matrix(0.800768,0,0,0.984948,2805,606)">
            <rect x="0" y="0" width="29.971" height="24.367" style="fill:none;"/>
            <g transform="matrix(1.2488,0,0,1.01528,-2397.7,-566.528)">
                <path d="M1938.5,566C1939.43,566 1940.32,566.369 1940.98,567.025C1941.63,567.682 1942,568.572 1942,569.5C1942,570.428 1941.63,571.319 1940.98,571.975C1940.32,572.631 1939.43,573 1938.5,573C1936.95,573 1935.3,573 1934.5,573C1934.22,573 1934,572.776 1934,572.5C1934,572.224 1934.22,572 1934.5,572C1935.33,572 1937.04,572 1938.5,572C1939.16,572 1939.8,571.737 1940.27,571.268C1940.74,570.799 1941,570.163 1941,569.5C1941,568.837 1940.74,568.201 1940.27,567.732C1939.8,567.263 1939.16,567 1938.5,567C1937.04,567 1935.33,567 1934.5,567C1934.22,567 1934,566.776 1934,566.5C1934,566.224 1934.22,566 1934.5,566C1935.3,566 1936.95,566 1938.5,566ZM1930,566.5C1930,566.776 1929.78,567 1929.5,567C1928.67,567 1926.96,567 1925.5,567C1924.84,567 1924.2,567.263 1923.73,567.732C1923.26,568.201 1923,568.837 1923,569.5C1923,570.163 1923.26,570.799 1923.73,571.268C1924.2,571.737 1924.84,572 1925.5,572C1926.96,572 1928.67,572 1929.5,572C1929.78,572 1930,572.224 1930,572.5C1930,572.776 1929.78,573 1929.5,573C1928.7,573 1927.05,573 1925.5,573C1924.57,573 1923.68,572.631 1923.03,571.975C1922.37,571.318 1922,570.428 1922,569.5C1922,568.572 1922.37,567.681 1923.03,567.025C1923.68,566.369 1924.57,566 1925.5,566C1927.05,566 1928.7,566 1929.5,566C1929.78,566 1930,566.224 1930,566.5C1930,566.5 1930,566.5 1930,566.5ZM1935.5,569C1935.78,569 1936,569.224 1936,569.5C1936,569.776 1935.78,570 1935.5,570C1934.06,570 1929.94,570 1928.5,570C1928.22,570 1928,569.776 1928,569.5C1928,569.224 1928.22,569 1928.5,569C1929.94,569 1934.06,569 1935.5,569Z" style="fill:rgb(51,51,51);"/>
            </g>
        </g>
    </g>
</svg>
