<?xml version="1.0" encoding="UTF-8" standalone="no"?><!DOCTYPE svg PUBLIC "-//W3C//DTD SVG 1.1//EN" "http://www.w3.org/Graphics/SVG/1.1/DTD/svg11.dtd"><svg width="100%" height="100%" viewBox="0 0 24 24" version="1.1" xmlns="http://www.w3.org/2000/svg" xmlns:xlink="http://www.w3.org/1999/xlink" xml:space="preserve" xmlns:serif="http://www.serif.com/" style="fill-rule:evenodd;clip-rule:evenodd;stroke-linejoin:round;stroke-miterlimit:1.41421;"><rect id="ui.thin.crop" x="0" y="0" width="24" height="24" style="fill:none;"/><path d="M7,6c0,0 6.467,0 9,0c0.552,0 1,0.448 1,1c0,2.533 0,9 0,9c0,0 2.427,0 3.5,0c0.133,0 0.26,0.053 0.354,0.146c0.093,0.094 0.146,0.221 0.146,0.354c0,0.133 -0.053,0.26 -0.146,0.354c-0.094,0.093 -0.221,0.146 -0.354,0.146c-1.073,0 -3.5,0 -3.5,0c0,0 0,2.427 0,3.5c0,0.276 -0.224,0.5 -0.5,0.5c-0.276,0 -0.5,-0.224 -0.5,-0.5c0,-1.073 0,-3.5 0,-3.5c0,0 -6.467,0 -9,0c-0.552,0 -1,-0.448 -1,-1c0,-2.533 0,-9 0,-9c0,0 -2.427,0 -3.5,0c-0.133,0 -0.26,-0.053 -0.354,-0.146c-0.093,-0.094 -0.146,-0.221 -0.146,-0.354c0,-0.133 0.053,-0.26 0.146,-0.354c0.094,-0.093 0.221,-0.146 0.354,-0.146c1.073,0 3.5,0 3.5,0c0,0 0,-2.427 0,-3.5c0,-0.276 0.224,-0.5 0.5,-0.5c0.276,0 0.5,0.224 0.5,0.5c0,1.073 0,3.5 0,3.5Zm0,1l0,9l9,0l0,-9l-9,0Z" style="fill:#333;"/></svg>