<?xml version="1.0" encoding="UTF-8" standalone="no"?>
<!DOCTYPE svg PUBLIC "-//W3C//DTD SVG 1.1//EN" "http://www.w3.org/Graphics/SVG/1.1/DTD/svg11.dtd">
<svg width="25px" height="24px" version="1.1" xmlns="http://www.w3.org/2000/svg" xmlns:xlink="http://www.w3.org/1999/xlink" xml:space="preserve" xmlns:serif="http://www.serif.com/" style="fill-rule:evenodd;clip-rule:evenodd;stroke-linejoin:round;stroke-miterlimit:1.41421;">
    <g transform="matrix(1,0,0,1,-1442,-606)">
        <g id="ui.thin.decreasingArrow" transform="matrix(0.800768,0,0,0.984948,1442.98,606)">
            <rect x="0" y="0" width="29.971" height="24.367" style="fill:none;"/>
            <g transform="matrix(1.2488,-0,0,-1.01528,-2935.93,640.346)">
                <path d="M2370,619.207C2370,619.34 2369.95,619.467 2369.85,619.561C2369.76,619.654 2369.63,619.707 2369.5,619.707C2369.37,619.707 2369.24,619.654 2369.15,619.561C2369.05,619.467 2369,619.34 2369,619.207C2369,618.286 2369,616.414 2369,616.414C2369,616.414 2365.29,620.12 2363.71,621.707C2363.52,621.895 2363.26,622 2363,622C2362.74,622 2362.48,621.895 2362.29,621.707C2361.41,620.82 2360,619.414 2360,619.414C2360,619.414 2357.32,622.1 2356.35,623.07C2356.25,623.161 2356.13,623.212 2356,623.212C2355.87,623.212 2355.75,623.161 2355.66,623.07C2355.66,623.07 2355.66,623.069 2355.66,623.069C2355.45,622.869 2355.45,622.545 2355.66,622.345C2356.43,621.567 2358.28,619.725 2359.29,618.707C2359.48,618.52 2359.74,618.414 2360,618.414C2360.26,618.414 2360.52,618.52 2360.71,618.707C2361.59,619.594 2363,621 2363,621L2368.29,615.707C2368.29,615.707 2366.42,615.707 2365.5,615.707C2365.37,615.707 2365.24,615.654 2365.15,615.561C2365.05,615.467 2365,615.34 2365,615.207C2365,615.074 2365.05,614.947 2365.15,614.854C2365.24,614.76 2365.37,614.707 2365.5,614.707C2366.31,614.707 2367.94,614.707 2369,614.707C2369.26,614.707 2369.52,614.812 2369.71,615C2369.89,615.188 2370,615.442 2370,615.707C2370,616.765 2370,618.393 2370,619.207Z" style="fill:rgb(51,51,51);"/>
            </g>
        </g>
    </g>
</svg>
