<?xml version="1.0" encoding="UTF-8" standalone="no"?>
<!DOCTYPE svg PUBLIC "-//W3C//DTD SVG 1.1//EN" "http://www.w3.org/Graphics/SVG/1.1/DTD/svg11.dtd">
<svg width="24px" height="24px" version="1.1" xmlns="http://www.w3.org/2000/svg" xmlns:xlink="http://www.w3.org/1999/xlink" xml:space="preserve" xmlns:serif="http://www.serif.com/" style="fill-rule:evenodd;clip-rule:evenodd;stroke-linejoin:round;stroke-miterlimit:1.41421;">
    <g transform="matrix(1,0,0,1,-1731,-606)">
        <g id="ui.thin.move" transform="matrix(0.800768,0,0,0.984948,1731,606)">
            <rect x="0" y="0" width="29.971" height="24.367" style="fill:none;"/>
            <g transform="matrix(1.2488,0,0,1.01528,-1678.39,-615.261)">
                <path d="M1355,609.707C1355,609.707 1353.56,611.152 1352.86,611.845C1352.77,611.941 1352.64,611.995 1352.5,611.995C1352.36,611.995 1352.23,611.941 1352.14,611.845C1352.14,611.845 1352.14,611.845 1352.14,611.844C1352.05,611.753 1352,611.629 1352,611.5C1352,611.371 1352.05,611.247 1352.14,611.156C1352.74,610.553 1354,609.295 1354.79,608.5C1354.98,608.312 1355.24,608.207 1355.5,608.207C1355.77,608.207 1356.02,608.312 1356.21,608.5C1357,609.291 1358.25,610.54 1358.85,611.146C1359.05,611.342 1359.05,611.658 1358.85,611.854C1358.66,612.049 1358.34,612.049 1358.15,611.854C1357.46,611.164 1356,609.707 1356,609.707L1356,616.871L1363.25,616.961C1363.25,616.961 1361.83,615.534 1361.15,614.854C1360.95,614.658 1360.95,614.342 1361.15,614.146C1361.15,614.146 1361.15,614.146 1361.15,614.146C1361.34,613.951 1361.66,613.951 1361.85,614.146C1362.46,614.752 1363.71,616.002 1364.5,616.793C1364.69,616.98 1364.79,617.235 1364.79,617.5C1364.79,617.765 1364.69,618.02 1364.5,618.207C1363.71,618.998 1362.46,620.248 1361.85,620.854C1361.66,621.049 1361.34,621.049 1361.15,620.854C1361.15,620.854 1361.15,620.854 1361.15,620.854C1360.95,620.658 1360.95,620.342 1361.15,620.146C1361.84,619.457 1363.29,618 1363.29,618L1356,618L1356,625.293C1356,625.293 1357.46,623.835 1358.15,623.146C1358.34,622.951 1358.66,622.951 1358.85,623.146C1358.85,623.146 1358.85,623.146 1358.85,623.146C1359.05,623.342 1359.05,623.658 1358.85,623.854C1358.25,624.46 1357,625.709 1356.21,626.5C1356.02,626.688 1355.77,626.793 1355.5,626.793C1355.24,626.793 1354.98,626.688 1354.79,626.5C1354,625.705 1352.74,624.447 1352.14,623.844C1352.05,623.753 1352,623.629 1352,623.5C1352,623.371 1352.05,623.247 1352.14,623.156C1352.14,623.155 1352.14,623.155 1352.14,623.155C1352.23,623.059 1352.36,623.005 1352.5,623.005C1352.64,623.005 1352.77,623.059 1352.86,623.155C1353.56,623.848 1355,625.293 1355,625.293L1355,618L1347.71,618C1347.71,618 1349.18,619.47 1349.86,620.156C1350.05,620.346 1350.05,620.654 1349.86,620.844C1349.86,620.845 1349.86,620.845 1349.86,620.845C1349.66,621.045 1349.34,621.045 1349.14,620.845C1348.53,620.236 1347.29,618.994 1346.5,618.207C1346.31,618.02 1346.21,617.765 1346.21,617.5C1346.21,617.235 1346.31,616.98 1346.5,616.793C1347.29,616.002 1348.54,614.753 1349.15,614.146C1349.34,613.951 1349.66,613.951 1349.85,614.146C1350.05,614.342 1350.05,614.658 1349.85,614.854C1349.16,615.543 1347.71,616.998 1347.71,616.998L1355,616.886L1355,609.707Z" style="fill:rgb(51,51,51);"/>
            </g>
        </g>
    </g>
</svg>
