<?xml version="1.0" encoding="UTF-8" standalone="no"?>
<!DOCTYPE svg PUBLIC "-//W3C//DTD SVG 1.1//EN" "http://www.w3.org/Graphics/SVG/1.1/DTD/svg11.dtd">
<svg width="25px" height="24px" version="1.1" xmlns="http://www.w3.org/2000/svg" xmlns:xlink="http://www.w3.org/1999/xlink" xml:space="preserve" xmlns:serif="http://www.serif.com/" style="fill-rule:evenodd;clip-rule:evenodd;stroke-linejoin:round;stroke-miterlimit:1.41421;">
    <g transform="matrix(1,0,0,1,-1970,-606)">
        <g id="ui.thin.moveBack" transform="matrix(0.800768,0,0,0.984948,1970.98,606)">
            <rect x="0" y="0" width="29.971" height="24.367" style="fill:none;"/>
            <g transform="matrix(3.7464,0,0,0.169214,-5439.78,-87.1451)">
                <path d="M1457,572C1457,571.204 1456.98,570.441 1456.95,569.879C1456.92,569.316 1456.88,569 1456.83,569C1456.65,569 1456.35,569 1456.17,569C1456.12,569 1456.08,569.316 1456.05,569.879C1456.02,570.441 1456,571.204 1456,572C1456,572 1456,572 1456,572C1456,572.796 1456.02,573.559 1456.05,574.121C1456.08,574.684 1456.12,575 1456.17,575C1456.35,575 1456.65,575 1456.83,575C1456.88,575 1456.92,574.684 1456.95,574.121C1456.98,573.559 1457,572.796 1457,572C1457,572 1457,572 1457,572Z"/>
            </g>
            <g transform="matrix(3.7464,0,0,0.169214,-5439.78,-85.1145)">
                <path d="M1457,572C1457,571.204 1456.98,570.441 1456.95,569.879C1456.92,569.316 1456.88,569 1456.83,569C1456.65,569 1456.35,569 1456.17,569C1456.12,569 1456.08,569.316 1456.05,569.879C1456.02,570.441 1456,571.204 1456,572C1456,572 1456,572 1456,572C1456,572.796 1456.02,573.559 1456.05,574.121C1456.08,574.684 1456.12,575 1456.17,575C1456.35,575 1456.65,575 1456.83,575C1456.88,575 1456.92,574.684 1456.95,574.121C1456.98,573.559 1457,572.796 1457,572C1457,572 1457,572 1457,572Z"/>
            </g>
            <g transform="matrix(1.2488,0,0,1.01528,-1978.1,-566.528)">
                <path d="M1606,579C1606,579.265 1605.89,579.52 1605.71,579.707C1605.52,579.895 1605.27,580 1605,580C1603.27,580 1599.73,580 1598,580C1597.74,580 1597.48,579.895 1597.29,579.707C1597.11,579.52 1597,579.265 1597,579C1597,577.268 1597,573.732 1597,572C1597,571.735 1597.11,571.48 1597.29,571.293C1597.48,571.105 1597.74,571 1598,571C1599.73,571 1603.27,571 1605,571C1605.27,571 1605.52,571.105 1605.71,571.293C1605.89,571.48 1606,571.735 1606,572C1606,573.732 1606,577.268 1606,579ZM1605,579L1605,572L1598,572L1598,579L1605,579Z"/>
            </g>
            <g transform="matrix(1.2488,0,0,1.01528,-1991.84,-577.696)">
                <path d="M1606,579C1606,579.265 1605.89,579.52 1605.71,579.707C1605.52,579.895 1605.27,580 1605,580C1603.27,580 1599.73,580 1598,580C1597.74,580 1597.48,579.895 1597.29,579.707C1597.11,579.52 1597,579.265 1597,579C1597,577.268 1597,573.732 1597,572C1597,571.735 1597.11,571.48 1597.29,571.293C1597.48,571.105 1597.74,571 1598,571C1599.73,571 1603.27,571 1605,571C1605.27,571 1605.52,571.105 1605.71,571.293C1605.89,571.48 1606,571.735 1606,572C1606,573.732 1606,577.268 1606,579ZM1605,579L1605,572L1598,572L1598,579L1605,579Z"/>
            </g>
            <g transform="matrix(1.2488,0,0,1.01528,-1978.1,-566.528)">
                <path d="M1590,570.5C1590,570.367 1590.05,570.24 1590.15,570.146C1590.24,570.053 1590.37,570 1590.5,570C1590.63,570 1590.76,570.053 1590.85,570.146C1590.95,570.24 1591,570.367 1591,570.5C1591,571.766 1591,575 1591,575C1591,575 1594.23,575 1595.5,575C1595.63,575 1595.76,575.053 1595.85,575.146C1595.95,575.24 1596,575.367 1596,575.5C1596,575.5 1596,575.501 1596,575.501C1596,575.633 1595.95,575.76 1595.85,575.854C1595.76,575.947 1595.63,576 1595.5,576C1594.52,576 1592.3,576 1591,576C1590.74,576 1590.48,575.895 1590.29,575.707C1590.11,575.52 1590,575.265 1590,575C1590,573.702 1590,571.487 1590,570.5ZM1602,569.501C1602,569.633 1601.95,569.76 1601.85,569.854C1601.76,569.947 1601.63,570 1601.5,570C1601.5,570 1601.5,570 1601.5,570C1601.37,570 1601.24,569.947 1601.15,569.854C1601.05,569.76 1601,569.633 1601,569.5C1601,568.234 1601,565 1601,565C1601,565 1597.77,565 1596.5,565C1596.37,565 1596.24,564.947 1596.15,564.854C1596.05,564.76 1596,564.633 1596,564.5C1596,564.367 1596.05,564.24 1596.15,564.146C1596.24,564.053 1596.37,564 1596.5,564C1597.49,564 1599.7,564 1601,564C1601.27,564 1601.52,564.105 1601.71,564.293C1601.89,564.48 1602,564.735 1602,565C1602,566.298 1602,568.515 1602,569.501Z"/>
            </g>
        </g>
    </g>
</svg>
