<?xml version="1.0" encoding="UTF-8" standalone="no"?>
<!DOCTYPE svg PUBLIC "-//W3C//DTD SVG 1.1//EN" "http://www.w3.org/Graphics/SVG/1.1/DTD/svg11.dtd">
<svg width="24px" height="24px" version="1.1" xmlns="http://www.w3.org/2000/svg" xmlns:xlink="http://www.w3.org/1999/xlink" xml:space="preserve" xmlns:serif="http://www.serif.com/" style="fill-rule:evenodd;clip-rule:evenodd;stroke-linejoin:round;stroke-miterlimit:1.41421;">
    <g transform="matrix(1,0,0,1,-2374,-606)">
        <g id="ui.thin.backOne" transform="matrix(0.800768,0,0,0.984948,2374,606)">
            <rect x="0" y="0" width="29.971" height="24.367" style="fill:none;"/>
            <g transform="matrix(1.2488,0,0,1.01528,-2964.65,-615.261)">
                <path d="M2394,625C2394,625.265 2393.89,625.52 2393.71,625.707C2393.52,625.895 2393.26,626 2393,626C2391.27,626 2387.73,626 2386,626C2385.74,626 2385.48,625.895 2385.29,625.707C2385.11,625.52 2385,625.265 2385,625C2385,623.268 2385,619.732 2385,618C2385,617.735 2385.11,617.48 2385.29,617.293C2385.48,617.105 2385.74,617 2386,617C2387.73,617 2391.27,617 2393,617C2393.26,617 2393.52,617.105 2393.71,617.293C2393.89,617.48 2394,617.735 2394,618C2394,619.732 2394,623.268 2394,625ZM2393,618L2386,618L2386,625L2393,625L2393,618ZM2390,615.501C2390,615.633 2389.95,615.76 2389.85,615.854C2389.76,615.947 2389.63,616 2389.5,616C2389.5,616 2389.5,616 2389.5,616C2389.37,616 2389.24,615.947 2389.15,615.854C2389.05,615.76 2389,615.633 2389,615.501C2389,614.235 2389,611 2389,611L2379,611L2379,621C2379,621 2382.24,621 2383.5,621C2383.78,621 2384,621.223 2384,621.499C2384,621.5 2384,621.5 2384,621.501C2384,621.777 2383.78,622 2383.5,622C2382.51,622 2380.3,622 2379,622C2378.74,622 2378.48,621.895 2378.29,621.707C2378.11,621.52 2378,621.265 2378,621C2378,618.74 2378,613.26 2378,611C2378,610.735 2378.11,610.48 2378.29,610.293C2378.48,610.105 2378.74,610 2379,610C2381.26,610 2386.74,610 2389,610C2389.26,610 2389.52,610.105 2389.71,610.293C2389.89,610.48 2390,610.735 2390,611C2390,612.298 2390,614.515 2390,615.501ZM2386.5,615C2386.63,615 2386.76,615.053 2386.85,615.146C2386.95,615.24 2387,615.367 2387,615.5C2387,615.633 2386.95,615.76 2386.85,615.854C2386.76,615.947 2386.63,616 2386.5,616C2385.37,616 2382.63,616 2381.5,616C2381.37,616 2381.24,615.947 2381.15,615.854C2381.05,615.76 2381,615.633 2381,615.5C2381,615.367 2381.05,615.24 2381.15,615.146C2381.24,615.053 2381.37,615 2381.5,615C2382.63,615 2385.37,615 2386.5,615ZM2386.5,613C2386.63,613 2386.76,613.053 2386.85,613.146C2386.95,613.24 2387,613.367 2387,613.5C2387,613.633 2386.95,613.76 2386.85,613.854C2386.76,613.947 2386.63,614 2386.5,614C2385.37,614 2382.63,614 2381.5,614C2381.37,614 2381.24,613.947 2381.15,613.854C2381.05,613.76 2381,613.633 2381,613.5C2381,613.367 2381.05,613.24 2381.15,613.146C2381.24,613.053 2381.37,613 2381.5,613C2382.63,613 2385.37,613 2386.5,613Z"/>
            </g>
        </g>
    </g>
</svg>
