<?xml version="1.0" encoding="UTF-8" standalone="no"?>
<!DOCTYPE svg PUBLIC "-//W3C//DTD SVG 1.1//EN" "http://www.w3.org/Graphics/SVG/1.1/DTD/svg11.dtd">
<svg width="24px" height="24px" version="1.1" xmlns="http://www.w3.org/2000/svg" xmlns:xlink="http://www.w3.org/1999/xlink" xml:space="preserve" xmlns:serif="http://www.serif.com/" style="fill-rule:evenodd;clip-rule:evenodd;stroke-linejoin:round;stroke-miterlimit:1.41421;">
    <g transform="matrix(1,0,0,1,-2495,-606)">
        <g id="ui.thin.shrink" transform="matrix(0.800768,0,0,0.984948,2495,606)">
            <rect x="0" y="0" width="29.971" height="24.367" style="fill:none;"/>
            <g transform="matrix(1.2488,0,0,1.01528,-3115.76,-615.261)">
                <path d="M2514,619.5C2514,619.776 2513.78,620 2513.5,620C2512.37,620 2509.71,620 2509.71,620C2509.71,620 2513.2,623.489 2514.35,624.638C2514.44,624.734 2514.49,624.864 2514.49,625C2514.49,625.136 2514.44,625.266 2514.35,625.362C2514.35,625.362 2514.35,625.363 2514.34,625.363C2514.25,625.454 2514.13,625.505 2514,625.505C2513.87,625.505 2513.75,625.454 2513.66,625.363C2512.53,624.232 2509,620.707 2509,620.707C2509,620.707 2509,623.368 2509,624.5C2509,624.776 2508.78,625 2508.5,625C2508.37,625 2508.24,624.947 2508.15,624.854C2508.05,624.76 2508,624.633 2508,624.5C2508,623.513 2508,621.298 2508,620C2508,619.735 2508.11,619.48 2508.29,619.293C2508.48,619.105 2508.74,619 2509,619C2510.3,619 2512.51,619 2513.5,619C2513.63,619 2513.76,619.053 2513.85,619.146C2513.95,619.24 2514,619.367 2514,619.5C2514,619.5 2514,619.5 2514,619.5ZM2506,616C2506,616.265 2505.89,616.52 2505.71,616.707C2505.52,616.895 2505.26,617 2505,617C2503.7,617 2501.49,617 2500.5,617C2500.37,617 2500.24,616.947 2500.15,616.854C2500.05,616.76 2500,616.633 2500,616.5C2500,616.224 2500.22,616 2500.5,616C2501.63,616 2504.29,616 2504.29,616C2504.29,616 2500.79,612.494 2499.65,611.354C2499.45,611.158 2499.45,610.842 2499.65,610.646C2499.65,610.646 2499.65,610.646 2499.65,610.646C2499.84,610.451 2500.16,610.451 2500.35,610.646C2501.49,611.785 2505,615.293 2505,615.293C2505,615.293 2505,612.632 2505,611.5C2505,611.224 2505.22,611 2505.5,611C2505.63,611 2505.76,611.053 2505.85,611.146C2505.95,611.24 2506,611.367 2506,611.5C2506,612.487 2506,614.702 2506,616Z" style="fill:rgb(51,51,51);"/>
            </g>
        </g>
    </g>
</svg>
