<?xml version="1.0" encoding="UTF-8" standalone="no"?>
<!DOCTYPE svg PUBLIC "-//W3C//DTD SVG 1.1//EN" "http://www.w3.org/Graphics/SVG/1.1/DTD/svg11.dtd">
<svg width="24px" height="24px" version="1.1" xmlns="http://www.w3.org/2000/svg" xmlns:xlink="http://www.w3.org/1999/xlink" xml:space="preserve" xmlns:serif="http://www.serif.com/" style="fill-rule:evenodd;clip-rule:evenodd;stroke-linejoin:round;stroke-miterlimit:1.41421;">
    <g transform="matrix(1,0,0,1,-1683,-606)">
        <g id="ui.thin.code" transform="matrix(0.800768,0,0,0.984948,1683,606)">
            <rect x="0" y="0" width="29.971" height="24.367" style="fill:none;"/>
            <g transform="matrix(1.2488,0,0,1.01528,-3295.59,-615.261)">
                <path d="M2657.5,617.293C2657.89,617.683 2657.89,618.317 2657.5,618.707C2656.48,619.725 2654.64,621.567 2653.86,622.345C2653.66,622.545 2653.34,622.545 2653.14,622.345C2653.14,622.345 2653.14,622.345 2653.14,622.344C2653.05,622.253 2652.99,622.129 2652.99,622C2652.99,621.871 2653.05,621.747 2653.14,621.656C2654.11,620.685 2656.79,618 2656.79,618C2656.79,618 2654.11,615.315 2653.14,614.344C2653.05,614.253 2652.99,614.129 2652.99,614C2652.99,613.871 2653.05,613.747 2653.14,613.656C2653.14,613.655 2653.14,613.655 2653.14,613.655C2653.34,613.455 2653.66,613.455 2653.86,613.655C2654.64,614.433 2656.48,616.275 2657.5,617.293ZM2648.85,613.647C2649.05,613.842 2649.05,614.158 2648.85,614.353C2647.88,615.33 2645.21,618 2645.21,618C2645.21,618 2647.88,620.669 2648.85,621.646C2648.95,621.74 2649,621.867 2649,622C2649,622.133 2648.95,622.26 2648.85,622.354C2648.76,622.447 2648.63,622.5 2648.5,622.5C2648.37,622.5 2648.24,622.447 2648.15,622.354C2647.37,621.581 2645.52,619.729 2644.5,618.707C2644.11,618.317 2644.11,617.683 2644.5,617.293C2645.52,616.271 2647.37,614.419 2648.15,613.646C2648.24,613.553 2648.37,613.5 2648.5,613.5C2648.63,613.5 2648.76,613.553 2648.85,613.646C2648.85,613.647 2648.85,613.647 2648.85,613.647Z" style="fill:rgb(51,51,51);"/>
            </g>
        </g>
    </g>
</svg>
