<?xml version="1.0" encoding="UTF-8" standalone="no"?><!DOCTYPE svg PUBLIC "-//W3C//DTD SVG 1.1//EN" "http://www.w3.org/Graphics/SVG/1.1/DTD/svg11.dtd"><svg width="100%" height="100%" viewBox="0 0 24 24" version="1.1" xmlns="http://www.w3.org/2000/svg" xmlns:xlink="http://www.w3.org/1999/xlink" xml:space="preserve" xmlns:serif="http://www.serif.com/" style="fill-rule:evenodd;clip-rule:evenodd;stroke-linejoin:round;stroke-miterlimit:1.41421;"><rect id="ui.thin.list" x="0" y="0" width="24" height="24" style="fill:none;"/><path d="M20,17.512c0,-0.283 -0.229,-0.512 -0.512,-0.512c-1.973,0 -9.072,0 -11.001,0c-0.129,0 -0.253,0.051 -0.344,0.143c-0.092,0.091 -0.143,0.215 -0.143,0.344c0,0 0,0.001 0,0.001c0,0.283 0.229,0.512 0.512,0.512c1.973,0 9.072,0 11.001,0c0.129,0 0.253,-0.051 0.344,-0.143c0.092,-0.091 0.143,-0.215 0.143,-0.344c0,0 0,-0.001 0,-0.001Zm-14,0c0,-0.283 -0.229,-0.512 -0.512,-0.512c-0.308,0 -0.698,0 -1.001,0c-0.269,0 -0.487,0.218 -0.487,0.487c0,0 0,0.001 0,0.001c0,0.283 0.229,0.512 0.512,0.512c0.308,0 0.698,0 1.001,0c0.269,0 0.487,-0.218 0.487,-0.487c0,0 0,-0.001 0,-0.001Zm14,-4c0,-0.283 -0.229,-0.512 -0.512,-0.512c-1.973,0 -9.072,0 -11.001,0c-0.129,0 -0.253,0.051 -0.344,0.143c-0.092,0.091 -0.143,0.215 -0.143,0.344c0,0 0,0.001 0,0.001c0,0.283 0.229,0.512 0.512,0.512c1.973,0 9.072,0 11.001,0c0.129,0 0.253,-0.051 0.344,-0.143c0.092,-0.091 0.143,-0.215 0.143,-0.344c0,0 0,-0.001 0,-0.001Zm-14,0c0,-0.283 -0.229,-0.512 -0.512,-0.512c-0.308,0 -0.698,0 -1.001,0c-0.269,0 -0.487,0.218 -0.487,0.487c0,0 0,0.001 0,0.001c0,0.283 0.229,0.512 0.512,0.512c0.308,0 0.698,0 1.001,0c0.269,0 0.487,-0.218 0.487,-0.487c0,0 0,-0.001 0,-0.001Zm14,-4c0,-0.283 -0.229,-0.512 -0.512,-0.512c-1.973,0 -9.072,0 -11.001,0c-0.129,0 -0.253,0.051 -0.344,0.143c-0.092,0.091 -0.143,0.215 -0.143,0.344c0,0 0,0.001 0,0.001c0,0.283 0.229,0.512 0.512,0.512c1.973,0 9.072,0 11.001,0c0.129,0 0.253,-0.051 0.344,-0.143c0.092,-0.091 0.143,-0.215 0.143,-0.344c0,0 0,-0.001 0,-0.001Zm-14,0c0,-0.283 -0.229,-0.512 -0.512,-0.512c-0.308,0 -0.698,0 -1.001,0c-0.269,0 -0.487,0.218 -0.487,0.487c0,0 0,0.001 0,0.001c0,0.283 0.229,0.512 0.512,0.512c0.308,0 0.698,0 1.001,0c0.269,0 0.487,-0.218 0.487,-0.487c0,0 0,-0.001 0,-0.001Zm14,-4c0,-0.283 -0.229,-0.512 -0.512,-0.512c-1.973,0 -9.072,0 -11.001,0c-0.129,0 -0.253,0.051 -0.344,0.143c-0.092,0.091 -0.143,0.215 -0.143,0.344c0,0 0,0.001 0,0.001c0,0.283 0.229,0.512 0.512,0.512c1.973,0 9.072,0 11.001,0c0.129,0 0.253,-0.051 0.344,-0.143c0.092,-0.091 0.143,-0.215 0.143,-0.344c0,0 0,-0.001 0,-0.001Zm-14,0c0,-0.283 -0.229,-0.512 -0.512,-0.512c-0.308,0 -0.698,0 -1.001,0c-0.269,0 -0.487,0.218 -0.487,0.487c0,0 0,0.001 0,0.001c0,0.283 0.229,0.512 0.512,0.512c0.308,0 0.698,0 1.001,0c0.269,0 0.487,-0.218 0.487,-0.487c0,0 0,-0.001 0,-0.001Z" style="fill:#333;"/></svg>