<?xml version="1.0" encoding="UTF-8" standalone="no"?>
<!DOCTYPE svg PUBLIC "-//W3C//DTD SVG 1.1//EN" "http://www.w3.org/Graphics/SVG/1.1/DTD/svg11.dtd">
<svg width="25px" height="24px" version="1.1" xmlns="http://www.w3.org/2000/svg" xmlns:xlink="http://www.w3.org/1999/xlink" xml:space="preserve" xmlns:serif="http://www.serif.com/" style="fill-rule:evenodd;clip-rule:evenodd;stroke-linecap:round;stroke-linejoin:round;stroke-miterlimit:1.5;">
    <g transform="matrix(1,0,0,1,-770,-606)">
        <g id="ui.thin.refresh" transform="matrix(0.800768,0,0,0.984948,770.977,606)">
            <rect x="0" y="0" width="29.971" height="24.367" style="fill:none;"/>
            <g transform="matrix(0.883035,-0.717913,-0.883035,-0.717913,4.53607,29.4643)">
                <path d="M17.95,8.95L20.778,11.778L17.95,14.607" style="fill:none;stroke:rgb(51,51,51);stroke-width:1px;"/>
            </g>
            <g transform="matrix(-0.883035,-0.717913,-0.883035,0.717913,1494.7,396.777)">
                <path d="M1111,567.753C1111,567.753 1111,569.609 1111,570C1111,573.311 1108.31,576 1105,576C1101.69,576 1099,573.311 1099,570C1099,566.689 1101.69,564 1105,564" style="fill:none;stroke:rgb(51,51,51);stroke-width:1px;"/>
            </g>
        </g>
    </g>
</svg>
