<?xml version="1.0" encoding="UTF-8" standalone="no"?>
<!DOCTYPE svg PUBLIC "-//W3C//DTD SVG 1.1//EN" "http://www.w3.org/Graphics/SVG/1.1/DTD/svg11.dtd">
<svg width="24px" height="24px" version="1.1" xmlns="http://www.w3.org/2000/svg" xmlns:xlink="http://www.w3.org/1999/xlink" xml:space="preserve" xmlns:serif="http://www.serif.com/" style="fill-rule:evenodd;clip-rule:evenodd;stroke-linejoin:round;stroke-miterlimit:1.41421;">
    <g transform="matrix(1,0,0,1,-1152,-606)">
        <g id="ui.thin.shrink" transform="matrix(0.800768,0,0,0.984948,1152,606)">
            <rect x="0" y="0" width="29.971" height="24.367" style="fill:none;"/>
            <g transform="matrix(1.2488,0,0,1.01528,-3115.76,-615.261)">
                <path d="M2514,619.5C2514,619.776 2513.78,620 2513.5,620C2512.37,620 2509.71,620 2509.71,620C2509.71,620 2513.21,623.506 2514.35,624.646C2514.55,624.842 2514.55,625.158 2514.35,625.354C2514.16,625.549 2513.84,625.549 2513.65,625.354C2512.51,624.213 2509,620.707 2509,620.707C2509,620.707 2509,623.368 2509,624.5C2509,624.776 2508.78,625 2508.5,625C2508.37,625 2508.24,624.947 2508.15,624.854C2508.05,624.76 2508,624.633 2508,624.5C2508,623.513 2508,621.298 2508,620C2508,619.735 2508.11,619.48 2508.29,619.293C2508.48,619.105 2508.74,619 2509,619C2510.3,619 2512.51,619 2513.5,619C2513.63,619 2513.76,619.053 2513.85,619.146C2513.95,619.24 2514,619.367 2514,619.5C2514,619.5 2514,619.5 2514,619.5ZM2506,616C2506,616.265 2505.89,616.52 2505.71,616.707C2505.52,616.895 2505.26,617 2505,617C2503.7,617 2501.49,617 2500.5,617C2500.37,617 2500.24,616.947 2500.15,616.854C2500.05,616.76 2500,616.633 2500,616.5C2500,616.224 2500.22,616 2500.5,616C2501.63,616 2504.29,616 2504.29,616C2504.29,616 2500.77,612.475 2499.64,611.344C2499.55,611.253 2499.49,611.129 2499.49,611C2499.49,610.871 2499.55,610.747 2499.64,610.656C2499.64,610.655 2499.64,610.655 2499.64,610.655C2499.73,610.559 2499.86,610.505 2500,610.505C2500.14,610.505 2500.27,610.559 2500.36,610.655C2501.51,611.804 2505,615.293 2505,615.293C2505,615.293 2505,612.632 2505,611.5C2505,611.224 2505.22,611 2505.5,611C2505.63,611 2505.76,611.053 2505.85,611.146C2505.95,611.24 2506,611.367 2506,611.5C2506,612.487 2506,614.702 2506,616Z" style="fill:rgb(51,51,51);"/>
            </g>
        </g>
    </g>
</svg>
