<?xml version="1.0" encoding="UTF-8" standalone="no"?>
<!DOCTYPE svg PUBLIC "-//W3C//DTD SVG 1.1//EN" "http://www.w3.org/Graphics/SVG/1.1/DTD/svg11.dtd">
<svg width="24px" height="24px" version="1.1" xmlns="http://www.w3.org/2000/svg" xmlns:xlink="http://www.w3.org/1999/xlink" xml:space="preserve" xmlns:serif="http://www.serif.com/" style="fill-rule:evenodd;clip-rule:evenodd;stroke-linejoin:round;stroke-miterlimit:1.41421;">
    <g transform="matrix(1,0,0,1,-2469,-606)">
        <g id="ui.thin.moveBack" transform="matrix(0.800768,0,0,0.984948,2469,606)">
            <rect x="0" y="0" width="29.971" height="24.367" style="fill:none;"/>
            <g transform="matrix(1.2488,0,0,1.01528,-3083.29,-615.261)">
                <path d="M2491,627C2491,627.265 2490.89,627.52 2490.71,627.707C2490.52,627.895 2490.26,628 2490,628C2488.27,628 2484.73,628 2483,628C2482.74,628 2482.48,627.895 2482.29,627.707C2482.11,627.52 2482,627.265 2482,627C2482,625.268 2482,621.732 2482,620C2482,619.735 2482.11,619.48 2482.29,619.293C2482.48,619.105 2482.74,619 2483,619C2484.73,619 2488.27,619 2490,619C2490.26,619 2490.52,619.105 2490.71,619.293C2490.89,619.48 2491,619.735 2491,620C2491,621.732 2491,625.268 2491,627ZM2490,627L2490,620L2483,620L2483,627L2490,627ZM2476,623C2476,623 2479.23,623 2480.5,623C2480.63,623 2480.76,623.053 2480.85,623.146C2480.95,623.24 2481,623.367 2481,623.5C2481,623.633 2480.95,623.76 2480.85,623.854C2480.76,623.947 2480.63,624 2480.5,624C2479.51,624 2477.3,624 2476,624C2475.74,624 2475.48,623.895 2475.29,623.707C2475.11,623.52 2475,623.265 2475,623C2475,621.702 2475,619.487 2475,618.5C2475,618.367 2475.05,618.24 2475.15,618.146C2475.24,618.053 2475.37,618 2475.5,618C2475.63,618 2475.76,618.053 2475.85,618.146C2475.95,618.24 2476,618.367 2476,618.5C2476,619.766 2476,623 2476,623ZM2481,617.5C2481,617.367 2481.05,617.24 2481.15,617.146C2481.24,617.053 2481.37,617 2481.5,617C2482.05,617 2482.95,617 2483.5,617C2483.63,617 2483.76,617.053 2483.85,617.146C2483.95,617.24 2484,617.367 2484,617.5C2484,617.633 2483.95,617.76 2483.85,617.854C2483.76,617.947 2483.63,618 2483.5,618C2482.95,618 2482.05,618 2481.5,618C2481.37,618 2481.24,617.947 2481.15,617.854C2481.05,617.76 2481,617.633 2481,617.5C2481,617.5 2481,617.5 2481,617.5ZM2487,617.5C2487,617.633 2486.95,617.76 2486.85,617.854C2486.76,617.947 2486.63,618 2486.5,618C2486.37,618 2486.24,617.947 2486.15,617.854C2486.05,617.76 2486,617.633 2486,617.5C2486,616.234 2486,613 2486,613C2486,613 2482.77,613 2481.5,613C2481.37,613 2481.24,612.947 2481.15,612.854C2481.05,612.76 2481,612.633 2481,612.5C2481,612.367 2481.05,612.24 2481.15,612.146C2481.24,612.053 2481.37,612 2481.5,612C2482.49,612 2484.7,612 2486,612C2486.26,612 2486.52,612.105 2486.71,612.293C2486.89,612.48 2487,612.735 2487,613C2487,614.298 2487,616.513 2487,617.5ZM2480,616C2480,616.265 2479.89,616.52 2479.71,616.707C2479.52,616.895 2479.26,617 2479,617C2477.27,617 2473.73,617 2472,617C2471.74,617 2471.48,616.895 2471.29,616.707C2471.11,616.52 2471,616.265 2471,616C2471,614.268 2471,610.732 2471,609C2471,608.735 2471.11,608.48 2471.29,608.293C2471.48,608.105 2471.74,608 2472,608C2473.73,608 2477.27,608 2479,608C2479.26,608 2479.52,608.105 2479.71,608.293C2479.89,608.48 2480,608.735 2480,609C2480,610.732 2480,614.268 2480,616ZM2481,615.5C2481,615.367 2481.05,615.24 2481.15,615.146C2481.24,615.053 2481.37,615 2481.5,615C2482.05,615 2482.95,615 2483.5,615C2483.63,615 2483.76,615.053 2483.85,615.146C2483.95,615.24 2484,615.367 2484,615.5C2484,615.633 2483.95,615.76 2483.85,615.854C2483.76,615.947 2483.63,616 2483.5,616C2482.95,616 2482.05,616 2481.5,616C2481.37,616 2481.24,615.947 2481.15,615.854C2481.05,615.76 2481,615.633 2481,615.5C2481,615.5 2481,615.5 2481,615.5ZM2479,616L2479,609L2472,609L2472,616L2479,616Z"/>
            </g>
        </g>
    </g>
</svg>
