<?xml version="1.0" encoding="UTF-8" standalone="no"?>
<!DOCTYPE svg PUBLIC "-//W3C//DTD SVG 1.1//EN" "http://www.w3.org/Graphics/SVG/1.1/DTD/svg11.dtd">
<svg width="24px" height="24px" version="1.1" xmlns="http://www.w3.org/2000/svg" xmlns:xlink="http://www.w3.org/1999/xlink" xml:space="preserve" xmlns:serif="http://www.serif.com/" style="fill-rule:evenodd;clip-rule:evenodd;stroke-linejoin:round;stroke-miterlimit:1.41421;">
    <g transform="matrix(1,0,0,1,-963,-606)">
        <g id="ui.thin.alignCenter" transform="matrix(0.800768,0,0,0.984948,963,606)">
            <rect x="0" y="0" width="29.971" height="24.367" style="fill:none;"/>
            <g transform="matrix(1.2488,0,0,1.01528,-2336.51,-566.528)">
                <path d="M1878,575.512C1878,575.229 1878.23,575 1878.51,575C1880.24,575 1885.83,575 1887.51,575C1887.78,575 1888,575.218 1888,575.487C1888,575.487 1888,575.488 1888,575.488C1888,575.771 1887.77,576 1887.49,576C1885.76,576 1880.17,576 1878.49,576C1878.22,576 1878,575.782 1878,575.513C1878,575.513 1878,575.512 1878,575.512ZM1875,571.512C1875,571.376 1875.05,571.246 1875.15,571.15C1875.25,571.054 1875.38,571 1875.51,571C1877.93,571 1888.15,571 1890.51,571C1890.64,571 1890.77,571.051 1890.86,571.143C1890.95,571.234 1891,571.358 1891,571.487C1891,571.487 1891,571.488 1891,571.488C1891,571.624 1890.95,571.754 1890.85,571.85C1890.75,571.946 1890.62,572 1890.49,572C1888.07,572 1877.85,572 1875.49,572C1875.36,572 1875.23,571.949 1875.14,571.857C1875.05,571.766 1875,571.642 1875,571.513C1875,571.513 1875,571.512 1875,571.512ZM1876,567.512C1876,567.229 1876.23,567 1876.51,567C1878.71,567 1887.36,567 1889.51,567C1889.64,567 1889.77,567.051 1889.86,567.143C1889.95,567.234 1890,567.358 1890,567.487C1890,567.487 1890,567.488 1890,567.488C1890,567.771 1889.77,568 1889.49,568C1887.29,568 1878.64,568 1876.49,568C1876.36,568 1876.23,567.949 1876.14,567.857C1876.05,567.766 1876,567.642 1876,567.513C1876,567.513 1876,567.512 1876,567.512ZM1875,563.512C1875,563.376 1875.05,563.246 1875.15,563.15C1875.25,563.054 1875.38,563 1875.51,563C1877.93,563 1888.15,563 1890.51,563C1890.64,563 1890.77,563.051 1890.86,563.143C1890.95,563.234 1891,563.358 1891,563.487C1891,563.487 1891,563.488 1891,563.488C1891,563.624 1890.95,563.754 1890.85,563.85C1890.75,563.946 1890.62,564 1890.49,564C1888.07,564 1877.85,564 1875.49,564C1875.36,564 1875.23,563.949 1875.14,563.857C1875.05,563.766 1875,563.642 1875,563.513C1875,563.513 1875,563.512 1875,563.512Z" style="fill:rgb(51,51,51);"/>
            </g>
        </g>
    </g>
</svg>
