<?xml version="1.0" encoding="UTF-8" standalone="no"?>
<!DOCTYPE svg PUBLIC "-//W3C//DTD SVG 1.1//EN" "http://www.w3.org/Graphics/SVG/1.1/DTD/svg11.dtd">
<svg width="25px" height="24px" version="1.1" xmlns="http://www.w3.org/2000/svg" xmlns:xlink="http://www.w3.org/1999/xlink" xml:space="preserve" xmlns:serif="http://www.serif.com/" style="fill-rule:evenodd;clip-rule:evenodd;stroke-linejoin:round;stroke-miterlimit:1.41421;">
    <g transform="matrix(1,0,0,1,-2162,-606)">
        <g id="ui.thin.kebabMenuHorizontal" transform="matrix(0.800768,0,0,0.984948,2162.98,606)">
            <rect x="0" y="0" width="29.971" height="24.367" style="fill:none;"/>
            <g transform="matrix(7.6467e-17,-1.01528,1.2488,6.21681e-17,-756.773,1778.77)">
                <path d="M1740,622C1740.55,622 1741,622.448 1741,623C1741,623.552 1740.55,624 1740,624C1739.45,624 1739,623.552 1739,623C1739,622.448 1739.45,622 1740,622ZM1740,617C1740.55,617 1741,617.448 1741,618C1741,618.552 1740.55,619 1740,619C1739.45,619 1739,618.552 1739,618C1739,617.448 1739.45,617 1740,617ZM1740,612C1740.55,612 1741,612.448 1741,613C1741,613.552 1740.55,614 1740,614C1739.45,614 1739,613.552 1739,613C1739,612.448 1739.45,612 1740,612Z" style="fill:rgb(51,51,51);"/>
            </g>
        </g>
    </g>
</svg>
