<?xml version="1.0" encoding="UTF-8" standalone="no"?>
<!DOCTYPE svg PUBLIC "-//W3C//DTD SVG 1.1//EN" "http://www.w3.org/Graphics/SVG/1.1/DTD/svg11.dtd">
<svg width="24px" height="24px" version="1.1" xmlns="http://www.w3.org/2000/svg" xmlns:xlink="http://www.w3.org/1999/xlink" xml:space="preserve" xmlns:serif="http://www.serif.com/" style="fill-rule:evenodd;clip-rule:evenodd;stroke-linejoin:round;stroke-miterlimit:1.41421;">
    <g transform="matrix(1,0,0,1,-723,-606)">
        <g id="ui.thin.pause" transform="matrix(0.800768,0,0,0.984948,723,606)">
            <rect x="0" y="0" width="29.971" height="24.367" style="fill:none;"/>
            <g transform="matrix(1.2488,0,0,1.01528,-418.973,-566.528)">
                <path d="M344.5,576C344.5,576.133 344.447,576.26 344.354,576.354C344.26,576.447 344.133,576.5 344,576.5C343.867,576.5 343.74,576.447 343.646,576.354C343.553,576.26 343.5,576.133 343.5,576C343.5,573.933 343.5,566.067 343.5,564C343.5,563.867 343.553,563.74 343.646,563.646C343.74,563.553 343.867,563.5 344,563.5C344.133,563.5 344.26,563.553 344.354,563.646C344.447,563.74 344.5,563.867 344.5,564C344.5,566.067 344.5,573.933 344.5,576Z" style="fill:rgb(51,51,51);fill-rule:nonzero;"/>
            </g>
            <g transform="matrix(1.2488,0,0,1.01528,-420.221,-566.528)">
                <path d="M352.5,576C352.5,576.133 352.447,576.26 352.354,576.354C352.26,576.447 352.133,576.5 352,576.5C351.867,576.5 351.74,576.447 351.646,576.354C351.553,576.26 351.5,576.133 351.5,576C351.5,573.933 351.5,566.067 351.5,564C351.5,563.867 351.553,563.74 351.646,563.646C351.74,563.553 351.867,563.5 352,563.5C352.133,563.5 352.26,563.553 352.354,563.646C352.447,563.74 352.5,563.867 352.5,564C352.5,566.067 352.5,573.933 352.5,576Z" style="fill:rgb(51,51,51);fill-rule:nonzero;"/>
            </g>
        </g>
    </g>
</svg>
