<?xml version="1.0" encoding="UTF-8" standalone="no"?>
<!DOCTYPE svg PUBLIC "-//W3C//DTD SVG 1.1//EN" "http://www.w3.org/Graphics/SVG/1.1/DTD/svg11.dtd">
<svg width="25px" height="24px" version="1.1" xmlns="http://www.w3.org/2000/svg" xmlns:xlink="http://www.w3.org/1999/xlink" xml:space="preserve" xmlns:serif="http://www.serif.com/" style="fill-rule:evenodd;clip-rule:evenodd;stroke-linejoin:round;stroke-miterlimit:1.41421;">
    <g transform="matrix(1,0,0,1,-866,-606)">
        <g id="ui.thin.crop" transform="matrix(0.800768,0,0,0.984948,866.977,606)">
            <rect x="0" y="0" width="29.971" height="24.367" style="fill:none;"/>
            <g transform="matrix(1.2488,0,0,1.01528,-2276.56,-567.543)">
                <path d="M1830,565C1830,565 1836.47,565 1839,565C1839.55,565 1840,565.448 1840,566C1840,568.533 1840,575 1840,575C1840,575 1842.43,575 1843.5,575C1843.63,575 1843.76,575.053 1843.85,575.146C1843.95,575.24 1844,575.367 1844,575.5C1844,575.633 1843.95,575.76 1843.85,575.854C1843.76,575.947 1843.63,576 1843.5,576C1842.43,576 1840,576 1840,576C1840,576 1840,578.427 1840,579.5C1840,579.776 1839.78,580 1839.5,580C1839.22,580 1839,579.776 1839,579.5C1839,578.427 1839,576 1839,576C1839,576 1832.53,576 1830,576C1829.45,576 1829,575.552 1829,575C1829,572.467 1829,566 1829,566C1829,566 1826.57,566 1825.5,566C1825.37,566 1825.24,565.947 1825.15,565.854C1825.05,565.76 1825,565.633 1825,565.5C1825,565.367 1825.05,565.24 1825.15,565.146C1825.24,565.053 1825.37,565 1825.5,565C1826.57,565 1829,565 1829,565C1829,565 1829,562.573 1829,561.5C1829,561.224 1829.22,561 1829.5,561C1829.78,561 1830,561.224 1830,561.5C1830,562.573 1830,565 1830,565ZM1830,566L1830,575L1839,575L1839,566L1830,566Z" style="fill:rgb(51,51,51);"/>
            </g>
        </g>
    </g>
</svg>
