<?xml version="1.0" encoding="UTF-8" standalone="no"?>
<!DOCTYPE svg PUBLIC "-//W3C//DTD SVG 1.1//EN" "http://www.w3.org/Graphics/SVG/1.1/DTD/svg11.dtd">
<svg width="24px" height="25px" version="1.1" xmlns="http://www.w3.org/2000/svg" xmlns:xlink="http://www.w3.org/1999/xlink" xml:space="preserve" xmlns:serif="http://www.serif.com/" style="fill-rule:evenodd;clip-rule:evenodd;stroke-linecap:round;stroke-linejoin:round;stroke-miterlimit:5;">
    <g transform="matrix(1,0,0,1,-48,-1276)">
        <g id="weather.regular.cloud" transform="matrix(1,0,0,1,-1520,506.893)">
            <rect x="1568" y="770" width="24" height="24" style="fill:none;"/>
            <g transform="matrix(1,0,0,1,-254,-214)">
                <path d="M1828.02,995C1828.28,992.198 1830.63,990 1833.5,990C1835.65,990 1837.52,991.239 1838.42,993.042C1838.61,993.014 1838.8,993 1839,993C1841.21,993 1843,994.792 1843,997C1843,999.208 1841.21,1001 1839,1001L1828,1001C1826.34,1001 1825,999.656 1825,998C1825,996.344 1826.34,995 1828,995C1828.01,995 1828.02,995 1828.02,995Z" style="fill:none;stroke:rgb(51,51,51);stroke-width:2px;"/>
            </g>
        </g>
    </g>
</svg>
