<?xml version="1.0" encoding="UTF-8" standalone="no"?>
<!DOCTYPE svg PUBLIC "-//W3C//DTD SVG 1.1//EN" "http://www.w3.org/Graphics/SVG/1.1/DTD/svg11.dtd">
<svg width="24px" height="24px" version="1.1" xmlns="http://www.w3.org/2000/svg" xmlns:xlink="http://www.w3.org/1999/xlink" xml:space="preserve" xmlns:serif="http://www.serif.com/" style="fill-rule:evenodd;clip-rule:evenodd;stroke-linejoin:round;stroke-miterlimit:1.41421;">
    <g transform="matrix(1,0,0,1,-674,-1324)">
        <g id="weather.thin.moon" transform="matrix(1,0,0,1,-894,554)">
            <rect x="1568" y="770" width="24" height="24" style="fill:none;"/>
            <g transform="matrix(-0.707107,0.707107,-0.707107,-0.707107,2603.4,1581.37)">
                <path d="M154.999,1296.46L154.976,1296.43L154.953,1296.4L154.932,1296.38L154.911,1296.35L154.892,1296.32L154.873,1296.29L154.856,1296.26L154.84,1296.23L154.824,1296.19L154.81,1296.16L154.797,1296.13L154.786,1296.09L154.775,1296.06L154.766,1296.02L154.758,1295.99L154.751,1295.95L154.746,1295.92L154.742,1295.88L154.739,1295.85L154.737,1295.81L154.737,1295.77L154.738,1295.74L154.741,1295.7L154.744,1295.67L154.749,1295.63L154.755,1295.6L154.763,1295.56L154.771,1295.53L154.781,1295.5L154.792,1295.46L154.804,1295.43L154.817,1295.4L154.832,1295.37L154.848,1295.33L154.864,1295.3L154.882,1295.27L154.901,1295.24L154.921,1295.21L154.942,1295.18L154.964,1295.16L154.988,1295.13L155.012,1295.1L155.037,1295.08L155.064,1295.05L155.091,1295.03L155.119,1295.01L155.202,1294.94L155.283,1294.87L155.364,1294.8L155.443,1294.73L155.521,1294.65L155.599,1294.58L155.675,1294.51L155.75,1294.43L155.825,1294.35L155.898,1294.27L155.97,1294.19L156.041,1294.12L156.111,1294.03L156.18,1293.95L156.248,1293.87L156.315,1293.79L156.38,1293.7L156.445,1293.62L156.508,1293.53L156.57,1293.44L156.631,1293.35L156.691,1293.27L156.75,1293.17L156.807,1293.08L156.863,1292.99L156.918,1292.9L156.972,1292.81L157.025,1292.71L157.076,1292.62L157.126,1292.52L157.175,1292.43L157.222,1292.33L157.268,1292.23L157.313,1292.13L157.357,1292.03L157.399,1291.93L157.44,1291.83L157.479,1291.73L157.517,1291.63L157.554,1291.53L157.59,1291.42L157.624,1291.32L157.656,1291.21L157.688,1291.11L157.717,1291L157.746,1290.9L157.773,1290.79L157.798,1290.68L157.822,1290.57L157.845,1290.47L157.866,1290.36L157.886,1290.25L157.904,1290.14L157.92,1290.03L157.935,1289.91L157.949,1289.8L157.961,1289.69L157.971,1289.58L157.98,1289.46L157.987,1289.35L157.993,1289.24L157.997,1289.12L157.999,1289.01L158,1288.89L157.999,1288.78L157.997,1288.66L157.993,1288.55L157.987,1288.43L157.98,1288.32L157.971,1288.21L157.961,1288.1L157.949,1287.98L157.935,1287.87L157.92,1287.76L157.904,1287.65L157.886,1287.54L157.866,1287.43L157.845,1287.32L157.823,1287.21L157.799,1287.1L157.773,1287L157.746,1286.89L157.718,1286.78L157.688,1286.67L157.657,1286.57L157.624,1286.46L157.59,1286.36L157.555,1286.26L157.518,1286.15L157.48,1286.05L157.441,1285.95L157.4,1285.85L157.358,1285.75L157.315,1285.65L157.27,1285.55L157.224,1285.45L157.177,1285.36L157.128,1285.26L157.078,1285.16L157.027,1285.07L156.975,1284.97L156.921,1284.88L156.867,1284.79L156.811,1284.7L156.754,1284.61L156.695,1284.52L156.636,1284.42L156.575,1284.34L156.513,1284.25L156.45,1284.16L156.386,1284.08L156.321,1283.99L156.255,1283.91L156.187,1283.82L156.119,1283.74L156.049,1283.66L155.979,1283.58L155.907,1283.5L155.834,1283.42L155.76,1283.34L155.686,1283.27L155.61,1283.19L155.533,1283.12L155.455,1283.04L155.377,1282.97L155.297,1282.9L155.216,1282.83L155.135,1282.76L155.107,1282.74L155.08,1282.71L155.054,1282.69L155.029,1282.66L155.006,1282.64L154.983,1282.61L154.961,1282.59L154.94,1282.56L154.921,1282.53L154.902,1282.5L154.885,1282.47L154.869,1282.44L154.853,1282.41L154.839,1282.38L154.826,1282.35L154.814,1282.32L154.804,1282.28L154.794,1282.25L154.786,1282.22L154.778,1282.18L154.772,1282.15L154.768,1282.11L154.764,1282.08L154.762,1282.05L154.76,1282.01L154.761,1281.98L154.762,1281.94L154.765,1281.91L154.769,1281.87L154.774,1281.84L154.78,1281.8L154.788,1281.77L154.797,1281.73L154.808,1281.7L154.819,1281.66L154.832,1281.63L154.846,1281.6L154.86,1281.57L154.876,1281.54L154.893,1281.51L154.912,1281.48L154.931,1281.45L154.951,1281.42L154.972,1281.39L154.994,1281.37L155.016,1281.34L155.04,1281.32L155.065,1281.29L155.09,1281.27L155.116,1281.25L155.143,1281.23L155.171,1281.21L155.2,1281.19L155.229,1281.17L155.259,1281.15L155.289,1281.14L155.32,1281.12L155.352,1281.11L155.385,1281.09L155.418,1281.08L155.451,1281.07L155.485,1281.06L155.52,1281.06L155.554,1281.05L155.642,1281.03L155.73,1281.01L155.818,1280.99L155.907,1280.98L155.997,1280.96L156.086,1280.95L156.176,1280.94L156.266,1280.93L156.357,1280.92L156.448,1280.91L156.539,1280.91L156.631,1280.9L156.723,1280.9L156.815,1280.89L156.907,1280.89L157,1280.89L157.103,1280.89L157.206,1280.89L157.309,1280.9L157.411,1280.9L157.513,1280.91L157.615,1280.92L157.716,1280.92L157.817,1280.93L157.918,1280.94L158.018,1280.96L158.118,1280.97L158.218,1280.99L158.317,1281L158.415,1281.02L158.514,1281.04L158.611,1281.06L158.709,1281.08L158.806,1281.1L158.902,1281.12L158.998,1281.14L159.094,1281.17L159.189,1281.2L159.284,1281.22L159.378,1281.25L159.472,1281.28L159.565,1281.31L159.657,1281.35L159.749,1281.38L159.841,1281.41L159.932,1281.45L160.023,1281.48L160.113,1281.52L160.202,1281.56L160.291,1281.6L160.379,1281.64L160.467,1281.68L160.554,1281.73L160.641,1281.77L160.727,1281.81L160.812,1281.86L160.897,1281.9L160.981,1281.95L161.064,1282L161.147,1282.05L161.229,1282.1L161.311,1282.15L161.391,1282.21L161.472,1282.26L161.551,1282.31L161.63,1282.37L161.708,1282.43L161.785,1282.48L161.862,1282.54L161.938,1282.6L162.013,1282.66L162.088,1282.72L162.161,1282.78L162.234,1282.84L162.306,1282.91L162.378,1282.97L162.449,1283.04L162.518,1283.1L162.587,1283.17L162.656,1283.24L162.723,1283.31L162.79,1283.37L162.856,1283.44L162.921,1283.52L162.985,1283.59L163.048,1283.66L163.111,1283.73L163.172,1283.81L163.233,1283.88L163.293,1283.95L163.352,1284.03L163.41,1284.11L163.467,1284.18L163.523,1284.26L163.579,1284.34L163.633,1284.42L163.686,1284.5L163.739,1284.58L163.791,1284.66L163.841,1284.75L163.891,1284.83L163.939,1284.91L163.987,1285L164.034,1285.08L164.08,1285.17L164.124,1285.25L164.168,1285.34L164.211,1285.43L164.252,1285.51L164.293,1285.6L164.332,1285.69L164.371,1285.78L164.408,1285.87L164.445,1285.96L164.48,1286.05L164.514,1286.14L164.547,1286.24L164.579,1286.33L164.61,1286.42L164.64,1286.52L164.669,1286.61L164.696,1286.7L164.723,1286.8L164.748,1286.89L164.772,1286.99L164.795,1287.09L164.817,1287.18L164.837,1287.28L164.857,1287.38L164.875,1287.48L164.892,1287.58L164.908,1287.67L164.922,1287.77L164.936,1287.87L164.948,1287.97L164.959,1288.08L164.968,1288.18L164.977,1288.28L164.984,1288.38L164.99,1288.48L164.994,1288.58L164.997,1288.69L164.999,1288.79L165,1288.89L164.999,1289L164.997,1289.1L164.994,1289.2L164.99,1289.3L164.984,1289.41L164.977,1289.51L164.968,1289.61L164.959,1289.71L164.948,1289.81L164.936,1289.91L164.922,1290.01L164.908,1290.11L164.892,1290.21L164.875,1290.31L164.857,1290.41L164.837,1290.5L164.817,1290.6L164.795,1290.7L164.772,1290.8L164.748,1290.89L164.723,1290.99L164.696,1291.08L164.669,1291.18L164.64,1291.27L164.61,1291.36L164.579,1291.46L164.547,1291.55L164.514,1291.64L164.48,1291.73L164.445,1291.83L164.408,1291.91L164.371,1292.01L164.332,1292.1L164.293,1292.18L164.252,1292.27L164.211,1292.36L164.168,1292.45L164.124,1292.53L164.08,1292.62L164.034,1292.7L163.987,1292.79L163.939,1292.87L163.891,1292.96L163.841,1293.04L163.791,1293.12L163.739,1293.2L163.686,1293.28L163.633,1293.36L163.579,1293.44L163.523,1293.52L163.467,1293.6L163.41,1293.68L163.352,1293.75L163.293,1293.83L163.233,1293.91L163.172,1293.98L163.111,1294.05L163.048,1294.13L162.985,1294.2L162.921,1294.27L162.856,1294.34L162.79,1294.41L162.723,1294.48L162.656,1294.55L162.587,1294.62L162.518,1294.68L162.449,1294.75L162.378,1294.81L162.306,1294.88L162.234,1294.94L162.161,1295L162.088,1295.07L162.013,1295.13L161.938,1295.18L161.862,1295.24L161.785,1295.3L161.708,1295.36L161.63,1295.42L161.551,1295.47L161.472,1295.53L161.391,1295.58L161.311,1295.63L161.229,1295.68L161.147,1295.73L161.064,1295.78L160.981,1295.83L160.897,1295.88L160.812,1295.93L160.727,1295.97L160.641,1296.02L160.554,1296.06L160.467,1296.1L160.379,1296.14L160.291,1296.18L160.202,1296.23L160.113,1296.26L160.023,1296.3L159.932,1296.34L159.841,1296.37L159.749,1296.41L159.657,1296.44L159.565,1296.47L159.472,1296.5L159.378,1296.53L159.284,1296.56L159.189,1296.59L159.094,1296.62L158.998,1296.64L158.902,1296.66L158.806,1296.69L158.709,1296.71L158.611,1296.73L158.514,1296.75L158.415,1296.77L158.317,1296.79L158.218,1296.8L158.118,1296.82L158.018,1296.83L157.918,1296.84L157.817,1296.85L157.716,1296.86L157.615,1296.87L157.513,1296.88L157.411,1296.88L157.309,1296.89L157.206,1296.89L157.103,1296.89L157,1296.89L156.907,1296.89L156.815,1296.89L156.723,1296.89L156.631,1296.88L156.539,1296.88L156.448,1296.87L156.357,1296.87L156.266,1296.86L156.175,1296.85L156.085,1296.84L155.995,1296.83L155.906,1296.82L155.816,1296.81L155.727,1296.79L155.639,1296.78L155.55,1296.76L155.514,1296.75L155.479,1296.75L155.444,1296.74L155.41,1296.73L155.376,1296.71L155.343,1296.7L155.311,1296.68L155.279,1296.67L155.247,1296.65L155.217,1296.64L155.187,1296.62L155.158,1296.6L155.129,1296.58L155.102,1296.56L155.075,1296.53L155.049,1296.51L155.024,1296.48L154.999,1296.46ZM155.808,1295.79L155.886,1295.8L155.963,1295.82L156.041,1295.83L156.12,1295.84L156.198,1295.85L156.277,1295.86L156.357,1295.86L156.436,1295.87L156.516,1295.88L156.596,1295.88L156.676,1295.88L156.757,1295.89L156.837,1295.89L156.919,1295.89L157,1295.89L157.09,1295.89L157.181,1295.89L157.271,1295.89L157.361,1295.88L157.45,1295.88L157.539,1295.87L157.628,1295.87L157.716,1295.86L157.804,1295.85L157.892,1295.84L157.98,1295.83L158.066,1295.81L158.153,1295.8L158.239,1295.78L158.325,1295.77L158.411,1295.75L158.496,1295.73L158.581,1295.71L158.665,1295.69L158.749,1295.67L158.832,1295.65L158.916,1295.63L158.998,1295.6L159.081,1295.58L159.162,1295.55L159.244,1295.53L159.325,1295.5L159.405,1295.47L159.486,1295.44L159.565,1295.41L159.644,1295.38L159.723,1295.34L159.801,1295.31L159.879,1295.27L159.956,1295.24L160.033,1295.2L160.109,1295.16L160.184,1295.13L160.26,1295.09L160.334,1295.05L160.408,1295.01L160.482,1294.96L160.555,1294.92L160.627,1294.88L160.699,1294.84L160.771,1294.79L160.841,1294.74L160.912,1294.7L160.981,1294.65L161.05,1294.6L161.118,1294.55L161.186,1294.5L161.253,1294.45L161.32,1294.4L161.386,1294.35L161.451,1294.29L161.516,1294.24L161.579,1294.18L161.643,1294.13L161.705,1294.07L161.767,1294.02L161.828,1293.96L161.889,1293.9L161.949,1293.84L162.008,1293.78L162.066,1293.72L162.124,1293.66L162.181,1293.6L162.237,1293.54L162.292,1293.47L162.347,1293.41L162.401,1293.34L162.454,1293.28L162.507,1293.21L162.558,1293.15L162.609,1293.08L162.659,1293.01L162.708,1292.94L162.757,1292.87L162.804,1292.8L162.851,1292.73L162.897,1292.66L162.942,1292.59L162.987,1292.52L163.03,1292.45L163.073,1292.37L163.114,1292.3L163.155,1292.23L163.195,1292.15L163.234,1292.08L163.273,1292L163.31,1291.92L163.346,1291.85L163.382,1291.77L163.416,1291.69L163.45,1291.62L163.483,1291.54L163.515,1291.46L163.545,1291.38L163.575,1291.3L163.604,1291.22L163.632,1291.14L163.659,1291.06L163.685,1290.97L163.71,1290.89L163.734,1290.81L163.758,1290.73L163.78,1290.64L163.801,1290.56L163.821,1290.47L163.84,1290.39L163.858,1290.3L163.875,1290.22L163.891,1290.13L163.905,1290.05L163.919,1289.96L163.932,1289.87L163.944,1289.79L163.954,1289.7L163.964,1289.61L163.972,1289.52L163.98,1289.43L163.986,1289.34L163.991,1289.25L163.995,1289.16L163.998,1289.07L163.999,1288.98L164,1288.89L163.999,1288.8L163.998,1288.71L163.995,1288.62L163.991,1288.53L163.986,1288.44L163.98,1288.35L163.972,1288.27L163.964,1288.18L163.954,1288.09L163.944,1288L163.932,1287.91L163.919,1287.83L163.905,1287.74L163.891,1287.65L163.875,1287.57L163.858,1287.48L163.84,1287.4L163.821,1287.31L163.801,1287.23L163.78,1287.14L163.758,1287.06L163.734,1286.98L163.71,1286.89L163.685,1286.81L163.659,1286.73L163.632,1286.65L163.604,1286.57L163.575,1286.49L163.545,1286.41L163.515,1286.33L163.483,1286.25L163.45,1286.17L163.416,1286.09L163.382,1286.01L163.346,1285.94L163.31,1285.86L163.273,1285.78L163.234,1285.71L163.195,1285.63L163.155,1285.56L163.114,1285.48L163.073,1285.41L163.03,1285.34L162.987,1285.27L162.942,1285.19L162.897,1285.12L162.851,1285.05L162.804,1284.98L162.757,1284.91L162.708,1284.84L162.659,1284.77L162.609,1284.71L162.558,1284.64L162.507,1284.57L162.454,1284.51L162.401,1284.44L162.347,1284.38L162.292,1284.31L162.237,1284.25L162.181,1284.19L162.124,1284.13L162.066,1284.06L162.008,1284L161.949,1283.94L161.889,1283.88L161.828,1283.83L161.767,1283.77L161.705,1283.71L161.643,1283.66L161.58,1283.6L161.516,1283.55L161.451,1283.49L161.386,1283.44L161.32,1283.39L161.253,1283.33L161.186,1283.28L161.118,1283.23L161.05,1283.18L160.981,1283.14L160.912,1283.09L160.841,1283.04L160.771,1283L160.699,1282.95L160.627,1282.91L160.555,1282.86L160.482,1282.82L160.409,1282.78L160.334,1282.74L160.26,1282.7L160.184,1282.66L160.109,1282.62L160.033,1282.58L159.956,1282.55L159.879,1282.51L159.801,1282.48L159.723,1282.44L159.644,1282.41L159.565,1282.38L159.485,1282.35L159.406,1282.32L159.325,1282.29L159.244,1282.26L159.163,1282.23L159.08,1282.21L158.998,1282.18L158.916,1282.16L158.832,1282.13L158.749,1282.11L158.665,1282.09L158.581,1282.07L158.496,1282.05L158.411,1282.04L158.325,1282.02L158.239,1282L158.153,1281.99L158.067,1281.97L157.98,1281.96L157.892,1281.95L157.804,1281.94L157.716,1281.93L157.628,1281.92L157.539,1281.91L157.45,1281.91L157.361,1281.9L157.271,1281.9L157.181,1281.89L157.091,1281.89L157,1281.89L156.919,1281.89L156.838,1281.89L156.758,1281.9L156.679,1281.9L156.601,1281.9L156.523,1281.91L156.446,1281.92L156.37,1281.92L156.294,1281.93L156.219,1281.94L156.145,1281.95L156.071,1281.96L155.998,1281.98L155.926,1281.99L155.855,1282.01L155.804,1282.02L155.869,1282.07L155.959,1282.15L156.049,1282.23L156.138,1282.31L156.225,1282.39L156.311,1282.48L156.396,1282.56L156.481,1282.65L156.564,1282.74L156.645,1282.83L156.726,1282.91L156.805,1283.01L156.883,1283.1L156.96,1283.19L157.036,1283.28L157.111,1283.38L157.184,1283.47L157.256,1283.57L157.327,1283.67L157.397,1283.77L157.465,1283.87L157.532,1283.97L157.597,1284.07L157.661,1284.17L157.724,1284.27L157.786,1284.38L157.846,1284.48L157.905,1284.59L157.963,1284.7L158.018,1284.8L158.073,1284.91L158.127,1285.02L158.178,1285.13L158.229,1285.24L158.277,1285.36L158.325,1285.47L158.371,1285.58L158.415,1285.7L158.458,1285.81L158.499,1285.93L158.539,1286.04L158.577,1286.16L158.614,1286.28L158.649,1286.4L158.682,1286.52L158.714,1286.64L158.745,1286.76L158.773,1286.88L158.8,1287L158.826,1287.12L158.849,1287.25L158.871,1287.37L158.892,1287.49L158.91,1287.62L158.927,1287.74L158.942,1287.87L158.956,1288L158.967,1288.12L158.977,1288.25L158.985,1288.38L158.992,1288.51L158.996,1288.63L158.999,1288.76L159,1288.89L158.999,1289.02L158.996,1289.15L158.992,1289.28L158.985,1289.41L158.977,1289.54L158.967,1289.66L158.956,1289.79L158.942,1289.91L158.927,1290.04L158.91,1290.17L158.892,1290.29L158.871,1290.41L158.849,1290.54L158.825,1290.66L158.8,1290.79L158.773,1290.91L158.744,1291.03L158.714,1291.15L158.682,1291.27L158.648,1291.39L158.613,1291.51L158.576,1291.62L158.538,1291.74L158.498,1291.86L158.457,1291.97L158.413,1292.09L158.369,1292.2L158.323,1292.32L158.275,1292.43L158.226,1292.54L158.176,1292.65L158.124,1292.76L158.07,1292.87L158.015,1292.98L157.959,1293.09L157.901,1293.19L157.842,1293.3L157.781,1293.41L157.719,1293.51L157.656,1293.61L157.591,1293.72L157.525,1293.82L157.458,1293.92L157.389,1294.02L157.319,1294.12L157.247,1294.21L157.175,1294.31L157.101,1294.4L157.026,1294.5L156.949,1294.59L156.872,1294.68L156.793,1294.78L156.712,1294.87L156.631,1294.95L156.549,1295.04L156.465,1295.13L156.38,1295.21L156.294,1295.3L156.207,1295.38L156.118,1295.46L156.029,1295.54L155.938,1295.62L155.846,1295.7L155.753,1295.78L155.751,1295.78L155.808,1295.79Z" style="fill:rgb(51,51,51);"/>
            </g>
        </g>
    </g>
</svg>
