<?xml version="1.0" encoding="UTF-8" standalone="no"?>
<!DOCTYPE svg PUBLIC "-//W3C//DTD SVG 1.1//EN" "http://www.w3.org/Graphics/SVG/1.1/DTD/svg11.dtd">
<svg width="24px" height="24px" version="1.1" xmlns="http://www.w3.org/2000/svg" xmlns:xlink="http://www.w3.org/1999/xlink" xml:space="preserve" xmlns:serif="http://www.serif.com/" style="fill-rule:evenodd;clip-rule:evenodd;stroke-linejoin:round;stroke-miterlimit:1.41421;">
    <g transform="matrix(1,0,0,1,-1124,-1324)">
        <g id="weather.thin.sun" transform="matrix(1,0,0,1,-444,554)">
            <rect x="1568" y="770" width="24" height="24" style="fill:none;"/>
            <g transform="matrix(1,0,0,1,1472,-554.893)">
                <path d="M108,1345.39C108,1345.53 107.947,1345.65 107.854,1345.75C107.76,1345.84 107.633,1345.89 107.5,1345.89C107.367,1345.89 107.24,1345.84 107.146,1345.75C107.053,1345.65 107,1345.53 107,1345.39C107,1344.62 107,1343.16 107,1342.39C107,1342.26 107.053,1342.13 107.146,1342.04C107.24,1341.94 107.367,1341.89 107.5,1341.89C107.633,1341.89 107.76,1341.94 107.854,1342.04C107.947,1342.13 108,1342.26 108,1342.39C108,1343.16 108,1344.62 108,1345.39ZM102.043,1338.97C102.288,1338.82 102.601,1338.91 102.743,1339.15C102.743,1339.15 102.743,1339.15 102.743,1339.15C102.878,1339.39 102.798,1339.68 102.565,1339.82C101.902,1340.2 100.624,1340.94 99.955,1341.33C99.716,1341.46 99.411,1341.38 99.273,1341.14C99.273,1341.14 99.273,1341.14 99.273,1341.14C99.206,1341.03 99.188,1340.89 99.223,1340.76C99.257,1340.63 99.341,1340.53 99.456,1340.46C100.118,1340.08 101.375,1339.35 102.043,1338.97ZM115.534,1340.45C115.779,1340.6 115.863,1340.91 115.721,1341.15C115.721,1341.15 115.721,1341.15 115.721,1341.15C115.586,1341.39 115.288,1341.47 115.056,1341.33C114.389,1340.95 113.101,1340.2 112.435,1339.82C112.202,1339.68 112.122,1339.39 112.257,1339.15C112.257,1339.15 112.257,1339.15 112.257,1339.15C112.399,1338.91 112.712,1338.82 112.957,1338.97C113.621,1339.35 114.869,1340.07 115.534,1340.45ZM107.5,1331.89C109.984,1331.89 112,1333.91 112,1336.39C112,1338.88 109.984,1340.89 107.5,1340.89C105.016,1340.89 103,1338.88 103,1336.39C103,1333.91 105.016,1331.89 107.5,1331.89ZM107.5,1332.89C109.432,1332.89 111,1334.46 111,1336.39C111,1338.32 109.432,1339.89 107.5,1339.89C105.568,1339.89 104,1338.32 104,1336.39C104,1334.46 105.568,1332.89 107.5,1332.89ZM115.045,1331.46C115.284,1331.32 115.589,1331.4 115.727,1331.64C115.727,1331.64 115.727,1331.64 115.728,1331.64C115.866,1331.88 115.784,1332.19 115.545,1332.33C114.88,1332.71 113.611,1333.44 112.945,1333.83C112.707,1333.96 112.401,1333.88 112.264,1333.64C112.263,1333.64 112.263,1333.64 112.263,1333.64C112.197,1333.53 112.179,1333.39 112.213,1333.26C112.248,1333.13 112.331,1333.03 112.446,1332.96C113.112,1332.58 114.38,1331.84 115.045,1331.46ZM102.554,1332.96C102.669,1333.03 102.752,1333.13 102.787,1333.26C102.821,1333.39 102.803,1333.53 102.737,1333.64C102.737,1333.64 102.737,1333.64 102.736,1333.64C102.599,1333.88 102.293,1333.96 102.055,1333.83C101.389,1333.44 100.122,1332.71 99.456,1332.33C99.341,1332.26 99.257,1332.15 99.223,1332.02C99.188,1331.89 99.206,1331.76 99.273,1331.64C99.273,1331.64 99.273,1331.64 99.273,1331.64C99.411,1331.4 99.716,1331.32 99.955,1331.46C100.62,1331.84 101.888,1332.58 102.554,1332.96ZM108,1330.39C108,1330.53 107.947,1330.65 107.854,1330.75C107.76,1330.84 107.633,1330.89 107.5,1330.89C107.367,1330.89 107.24,1330.84 107.146,1330.75C107.053,1330.65 107,1330.53 107,1330.39C107,1329.62 107,1328.16 107,1327.39C107,1327.26 107.053,1327.13 107.146,1327.04C107.24,1326.94 107.367,1326.89 107.5,1326.89C107.633,1326.89 107.76,1326.94 107.854,1327.04C107.947,1327.13 108,1327.26 108,1327.39C108,1328.16 108,1329.62 108,1330.39Z" style="fill:rgb(51,51,51);"/>
            </g>
        </g>
    </g>
</svg>
