<svg width="24" height="24" viewBox="0 0 24 24" fill="none" xmlns="http://www.w3.org/2000/svg">
<circle cx="12" cy="12" r="4" fill="black" fill-opacity="0.1"/>
<path fill-rule="evenodd" clip-rule="evenodd" d="M13.0001 20.9971C13.0001 21.5471 12.5521 21.9971 12.0001 21.9971C11.4481 21.9971 11.0001 21.5471 11.0001 20.9971C11.0001 20.3871 11.0001 19.6071 11.0001 18.9971C11.0001 18.4471 11.4481 17.9971 12.0001 17.9971C12.5521 17.9971 13.0001 18.4471 13.0001 18.9971C13.0001 19.6071 13.0001 20.3871 13.0001 20.9971ZM17.1961 14.9971C17.4721 14.5171 18.084 14.3571 18.562 14.6371C19.091 14.9371 19.7651 15.3271 20.2941 15.6371C20.7731 15.9071 20.9361 16.5171 20.6601 16.9971C20.3841 17.4771 19.7731 17.6471 19.2941 17.3671C18.765 17.0571 18.091 16.6671 17.562 16.3671C17.084 16.0871 16.9201 15.4771 17.1961 14.9971ZM3.34005 16.9971C3.06405 16.5171 3.22705 15.9071 3.70605 15.6371C4.23505 15.3271 4.90906 14.9371 5.43806 14.6371C5.91606 14.3571 6.52805 14.5171 6.80405 14.9971C7.08005 15.4771 6.91606 16.0871 6.43806 16.3671C5.90906 16.6671 5.23505 17.0571 4.70605 17.3671C4.22705 17.6471 3.61605 17.4771 3.34005 16.9971ZM12.0001 6.99707C14.7601 6.99707 17.0001 9.23707 17.0001 11.9971C17.0001 14.7571 14.7601 16.9971 12.0001 16.9971C9.24005 16.9971 7.00005 14.7571 7.00005 11.9971C7.00005 9.23707 9.24005 6.99707 12.0001 6.99707ZM12.0001 8.99707C13.6561 8.99707 15.0001 10.3471 15.0001 11.9971C15.0001 13.6571 13.6561 14.9971 12.0001 14.9971C10.3441 14.9971 9.00005 13.6571 9.00005 11.9971C9.00005 10.3471 10.3441 8.99707 12.0001 8.99707ZM17.1961 8.99707C16.9201 8.51707 17.084 7.90708 17.562 7.63708C18.091 7.32709 18.765 6.93709 19.2941 6.63708C19.7731 6.35708 20.3841 6.51707 20.6601 6.99707C20.9361 7.47707 20.7731 8.08707 20.2941 8.36707C19.7651 8.66707 19.091 9.05707 18.562 9.36707C18.084 9.64707 17.4721 9.47707 17.1961 8.99707ZM3.34005 6.99707C3.61605 6.51707 4.22705 6.35708 4.70605 6.63708C5.23505 6.93709 5.90906 7.32709 6.43806 7.63708C6.91606 7.90708 7.08005 8.51707 6.80405 8.99707C6.52805 9.47707 5.91606 9.64707 5.43806 9.36707C4.90906 9.05707 4.23505 8.66707 3.70605 8.36707C3.22705 8.08707 3.06405 7.47707 3.34005 6.99707ZM13.0001 4.99707C13.0001 5.54707 12.5521 5.99707 12.0001 5.99707C11.4481 5.99707 11.0001 5.54707 11.0001 4.99707C11.0001 4.38707 11.0001 3.60707 11.0001 2.99707C11.0001 2.44707 11.4481 1.99707 12.0001 1.99707C12.5521 1.99707 13.0001 2.44707 13.0001 2.99707C13.0001 3.60707 13.0001 4.38707 13.0001 4.99707Z" fill="black"/>
</svg>
