<?xml version="1.0" encoding="UTF-8" standalone="no"?>
<!DOCTYPE svg PUBLIC "-//W3C//DTD SVG 1.1//EN" "http://www.w3.org/Graphics/SVG/1.1/DTD/svg11.dtd">
<svg width="24px" height="25px" version="1.1" xmlns="http://www.w3.org/2000/svg" xmlns:xlink="http://www.w3.org/1999/xlink" xml:space="preserve" xmlns:serif="http://www.serif.com/" style="fill-rule:evenodd;clip-rule:evenodd;stroke-linejoin:round;stroke-miterlimit:1.41421;">
    <g transform="matrix(1,0,0,1,-240,-1276)">
        <g id="weather.regular.sun" transform="matrix(1,0,0,1,-1328,506.893)">
            <rect x="1568" y="770" width="24" height="24" style="fill:none;"/>
            <g transform="matrix(1,0,0,1,1472,-506.893)">
                <path d="M109,1297.89C109,1298.44 108.552,1298.89 108,1298.89C107.448,1298.89 107,1298.44 107,1297.89C107,1297.28 107,1296.5 107,1295.89C107,1295.34 107.448,1294.89 108,1294.89C108.552,1294.89 109,1295.34 109,1295.89C109,1296.5 109,1297.28 109,1297.89ZM113.196,1291.89C113.472,1291.41 114.084,1291.25 114.562,1291.53C115.091,1291.83 115.765,1292.22 116.294,1292.53C116.773,1292.8 116.936,1293.41 116.66,1293.89C116.384,1294.37 115.773,1294.54 115.294,1294.26C114.765,1293.95 114.091,1293.56 113.562,1293.26C113.084,1292.98 112.92,1292.37 113.196,1291.89C113.196,1291.89 113.196,1291.89 113.196,1291.89ZM99.34,1293.89C99.064,1293.41 99.227,1292.8 99.706,1292.53C100.235,1292.22 100.909,1291.83 101.438,1291.53C101.916,1291.25 102.528,1291.41 102.804,1291.89C103.08,1292.37 102.916,1292.98 102.438,1293.26C101.909,1293.56 101.235,1293.95 100.706,1294.26C100.227,1294.54 99.616,1294.37 99.34,1293.89C99.34,1293.89 99.34,1293.89 99.34,1293.89ZM108,1283.89C110.76,1283.89 113,1286.13 113,1288.89C113,1291.65 110.76,1293.89 108,1293.89C105.24,1293.89 103,1291.65 103,1288.89C103,1286.13 105.24,1283.89 108,1283.89ZM108,1285.89C109.656,1285.89 111,1287.24 111,1288.89C111,1290.55 109.656,1291.89 108,1291.89C106.344,1291.89 105,1290.55 105,1288.89C105,1287.24 106.344,1285.89 108,1285.89ZM113.196,1285.89C112.92,1285.41 113.084,1284.8 113.562,1284.53C114.091,1284.22 114.765,1283.83 115.294,1283.53C115.773,1283.25 116.384,1283.41 116.66,1283.89C116.936,1284.37 116.773,1284.98 116.294,1285.26C115.765,1285.56 115.091,1285.95 114.562,1286.26C114.084,1286.54 113.472,1286.37 113.196,1285.89C113.196,1285.89 113.196,1285.89 113.196,1285.89ZM99.34,1283.89C99.616,1283.41 100.227,1283.25 100.706,1283.53C101.235,1283.83 101.909,1284.22 102.438,1284.53C102.916,1284.8 103.08,1285.41 102.804,1285.89C102.528,1286.37 101.916,1286.54 101.438,1286.26C100.909,1285.95 100.235,1285.56 99.706,1285.26C99.227,1284.98 99.064,1284.37 99.34,1283.89C99.34,1283.89 99.34,1283.89 99.34,1283.89ZM109,1281.89C109,1282.44 108.552,1282.89 108,1282.89C107.448,1282.89 107,1282.44 107,1281.89C107,1281.28 107,1280.5 107,1279.89C107,1279.34 107.448,1278.89 108,1278.89C108.552,1278.89 109,1279.34 109,1279.89C109,1280.5 109,1281.28 109,1281.89Z" style="fill:rgb(51,51,51);"/>
            </g>
        </g>
    </g>
</svg>
