<svg width="24" height="24" viewBox="0 0 24 24" fill="none" xmlns="http://www.w3.org/2000/svg">
<rect width="5" height="18" fill="black" fill-opacity="0" transform="translate(8.97998 2.49707)"/>
<rect width="0" height="18" fill="black" fill-opacity="0" transform="translate(11.48 2.49707)"/>
<path d="M11.48 2.49707V20.4971" stroke="#333333" stroke-miterlimit="5" stroke-linecap="round"/>
<rect width="5" height="2" fill="black" fill-opacity="0" transform="translate(8.97998 3.99707)"/>
<path d="M8.97998 3.99707L11.48 5.99707L13.98 3.99707" stroke="#333333" stroke-miterlimit="5" stroke-linecap="round"/>
<rect width="5" height="2" fill="black" fill-opacity="0" transform="translate(8.97998 19.1001) scale(1 -1)"/>
<path d="M8.97998 19.1001L11.48 17.1001L13.98 19.1001" stroke="#333333" stroke-miterlimit="5" stroke-linecap="round"/>
<rect width="5" height="18" fill="black" fill-opacity="0" transform="translate(2.43323 9.16785) rotate(-60)"/>
<rect width="0" height="18" fill="black" fill-opacity="0" transform="translate(3.68323 7.00281) rotate(-60)"/>
<path d="M3.68323 7.00281L19.2717 16.0028" stroke="#333333" stroke-miterlimit="5" stroke-linecap="round"/>
<rect width="5" height="2" fill="black" fill-opacity="0" transform="translate(3.73227 9.91785) rotate(-60)"/>
<path d="M3.73227 9.91785L6.71432 8.75278L6.23227 5.58772" stroke="#333333" stroke-miterlimit="5" stroke-linecap="round"/>
<rect width="5" height="2" fill="black" fill-opacity="0" transform="translate(16.8101 17.4684) scale(1 -1) rotate(60)"/>
<path d="M16.8101 17.4684L16.3281 14.3033L19.3101 13.1383" stroke="#333333" stroke-miterlimit="5" stroke-linecap="round"/>
<rect width="5" height="18" fill="black" fill-opacity="0" transform="translate(4.93823 18.1687) rotate(-120)"/>
<rect width="0" height="18" fill="black" fill-opacity="0" transform="translate(3.68823 16.0037) rotate(-120)"/>
<path d="M3.68823 16.0037L19.2767 7.00366" stroke="#333333" stroke-miterlimit="5" stroke-linecap="round"/>
<rect width="5" height="2" fill="black" fill-opacity="0" transform="translate(6.23727 17.4187) rotate(-120)"/>
<path d="M6.23727 17.4187L6.71932 14.2536L3.73727 13.0886" stroke="#333333" stroke-miterlimit="5" stroke-linecap="round"/>
<rect width="5" height="2" fill="black" fill-opacity="0" transform="translate(19.3151 9.86816) scale(-1 1) rotate(-60)"/>
<path d="M19.3151 9.86816L16.3331 8.7031L16.8151 5.53804" stroke="#333333" stroke-miterlimit="5" stroke-linecap="round"/>
</svg>
