<?xml version="1.0" encoding="UTF-8" standalone="no"?>
<!DOCTYPE svg PUBLIC "-//W3C//DTD SVG 1.1//EN" "http://www.w3.org/Graphics/SVG/1.1/DTD/svg11.dtd">
<svg width="25px" height="25px" version="1.1" xmlns="http://www.w3.org/2000/svg" xmlns:xlink="http://www.w3.org/1999/xlink" xml:space="preserve" xmlns:serif="http://www.serif.com/" style="fill-rule:evenodd;clip-rule:evenodd;stroke-linejoin:round;stroke-miterlimit:1.41421;">
    <g transform="matrix(1,0,0,1,-674,-1276)">
        <g id="weather.regular.moon" transform="matrix(1,0,0,1,-893.023,506.893)">
            <rect x="1568" y="770" width="24" height="24" style="fill:none;"/>
            <g transform="matrix(-0.707107,0.707107,-0.707107,-0.707107,2603.4,1581.37)">
                <path d="M154.999,1296.46L154.976,1296.43L154.953,1296.4L154.932,1296.38L154.911,1296.35L154.892,1296.32L154.873,1296.29L154.856,1296.26L154.84,1296.23L154.824,1296.19L154.81,1296.16L154.797,1296.13L154.786,1296.09L154.775,1296.06L154.766,1296.02L154.758,1295.99L154.751,1295.95L154.746,1295.92L154.742,1295.88L154.739,1295.85L154.737,1295.81L154.737,1295.77L154.738,1295.74L154.741,1295.7L154.744,1295.67L154.749,1295.63L154.755,1295.6L154.763,1295.56L154.771,1295.53L154.781,1295.5L154.792,1295.46L154.804,1295.43L154.817,1295.4L154.832,1295.37L154.848,1295.33L154.864,1295.3L154.882,1295.27L154.901,1295.24L154.921,1295.21L154.942,1295.18L154.964,1295.16L154.988,1295.13L155.012,1295.1L155.037,1295.08L155.064,1295.05L155.091,1295.03L155.119,1295.01L155.202,1294.94L155.283,1294.87L155.364,1294.8L155.443,1294.73L155.521,1294.65L155.599,1294.58L155.675,1294.51L155.75,1294.43L155.825,1294.35L155.898,1294.27L155.97,1294.19L156.041,1294.12L156.111,1294.03L156.18,1293.95L156.248,1293.87L156.315,1293.79L156.38,1293.7L156.445,1293.62L156.508,1293.53L156.57,1293.44L156.631,1293.35L156.691,1293.27L156.75,1293.17L156.807,1293.08L156.863,1292.99L156.918,1292.9L156.972,1292.81L157.025,1292.71L157.076,1292.62L157.126,1292.52L157.175,1292.43L157.222,1292.33L157.268,1292.23L157.313,1292.13L157.357,1292.03L157.399,1291.93L157.44,1291.83L157.479,1291.73L157.517,1291.63L157.554,1291.53L157.59,1291.42L157.624,1291.32L157.656,1291.21L157.688,1291.11L157.717,1291L157.746,1290.9L157.773,1290.79L157.798,1290.68L157.822,1290.57L157.845,1290.47L157.866,1290.36L157.886,1290.25L157.904,1290.14L157.92,1290.03L157.935,1289.91L157.949,1289.8L157.961,1289.69L157.971,1289.58L157.98,1289.46L157.987,1289.35L157.993,1289.24L157.997,1289.12L157.999,1289.01L158,1288.89L157.999,1288.78L157.997,1288.66L157.993,1288.55L157.987,1288.43L157.98,1288.32L157.971,1288.21L157.961,1288.1L157.949,1287.98L157.935,1287.87L157.92,1287.76L157.904,1287.65L157.886,1287.54L157.866,1287.43L157.845,1287.32L157.823,1287.21L157.799,1287.1L157.773,1287L157.746,1286.89L157.718,1286.78L157.688,1286.67L157.657,1286.57L157.624,1286.46L157.59,1286.36L157.555,1286.26L157.518,1286.15L157.48,1286.05L157.441,1285.95L157.4,1285.85L157.358,1285.75L157.315,1285.65L157.27,1285.55L157.224,1285.45L157.177,1285.36L157.128,1285.26L157.078,1285.16L157.027,1285.07L156.975,1284.97L156.921,1284.88L156.867,1284.79L156.811,1284.7L156.754,1284.61L156.695,1284.52L156.636,1284.42L156.575,1284.34L156.513,1284.25L156.45,1284.16L156.386,1284.08L156.321,1283.99L156.255,1283.91L156.187,1283.82L156.119,1283.74L156.049,1283.66L155.979,1283.58L155.907,1283.5L155.834,1283.42L155.76,1283.34L155.686,1283.27L155.61,1283.19L155.533,1283.12L155.455,1283.04L155.377,1282.97L155.297,1282.9L155.216,1282.83L155.135,1282.76L155.107,1282.74L155.08,1282.71L155.054,1282.69L155.029,1282.66L155.006,1282.64L154.983,1282.61L154.961,1282.59L154.94,1282.56L154.921,1282.53L154.902,1282.5L154.885,1282.47L154.869,1282.44L154.853,1282.41L154.839,1282.38L154.826,1282.35L154.814,1282.32L154.804,1282.28L154.794,1282.25L154.786,1282.22L154.778,1282.18L154.772,1282.15L154.768,1282.11L154.764,1282.08L154.762,1282.05L154.76,1282.01L154.761,1281.98L154.762,1281.94L154.765,1281.91L154.769,1281.87L154.774,1281.84L154.78,1281.8L154.788,1281.77L154.797,1281.73L154.808,1281.7L154.819,1281.66L154.832,1281.63L154.846,1281.6L154.86,1281.57L154.876,1281.54L154.893,1281.51L154.912,1281.48L154.931,1281.45L154.951,1281.42L154.972,1281.39L154.994,1281.37L155.016,1281.34L155.04,1281.32L155.065,1281.29L155.09,1281.27L155.116,1281.25L155.143,1281.23L155.171,1281.21L155.2,1281.19L155.229,1281.17L155.259,1281.15L155.289,1281.14L155.32,1281.12L155.352,1281.11L155.385,1281.09L155.418,1281.08L155.451,1281.07L155.485,1281.06L155.52,1281.06L155.554,1281.05L155.642,1281.03L155.73,1281.01L155.818,1280.99L155.907,1280.98L155.997,1280.96L156.086,1280.95L156.176,1280.94L156.266,1280.93L156.357,1280.92L156.448,1280.91L156.539,1280.91L156.631,1280.9L156.723,1280.9L156.815,1280.89L156.907,1280.89L157,1280.89L157.103,1280.89L157.206,1280.89L157.309,1280.9L157.411,1280.9L157.513,1280.91L157.615,1280.92L157.716,1280.92L157.817,1280.93L157.918,1280.94L158.018,1280.96L158.118,1280.97L158.218,1280.99L158.317,1281L158.415,1281.02L158.514,1281.04L158.611,1281.06L158.709,1281.08L158.806,1281.1L158.902,1281.12L158.998,1281.14L159.094,1281.17L159.189,1281.2L159.284,1281.22L159.378,1281.25L159.472,1281.28L159.565,1281.31L159.657,1281.35L159.749,1281.38L159.841,1281.41L159.932,1281.45L160.023,1281.48L160.113,1281.52L160.202,1281.56L160.291,1281.6L160.379,1281.64L160.467,1281.68L160.554,1281.73L160.641,1281.77L160.727,1281.81L160.812,1281.86L160.897,1281.9L160.981,1281.95L161.064,1282L161.147,1282.05L161.229,1282.1L161.311,1282.15L161.391,1282.21L161.472,1282.26L161.551,1282.31L161.63,1282.37L161.708,1282.43L161.785,1282.48L161.862,1282.54L161.938,1282.6L162.013,1282.66L162.088,1282.72L162.161,1282.78L162.234,1282.84L162.306,1282.91L162.378,1282.97L162.449,1283.04L162.518,1283.1L162.587,1283.17L162.656,1283.24L162.723,1283.31L162.79,1283.37L162.856,1283.44L162.921,1283.52L162.985,1283.59L163.048,1283.66L163.111,1283.73L163.172,1283.81L163.233,1283.88L163.293,1283.95L163.352,1284.03L163.41,1284.11L163.467,1284.18L163.523,1284.26L163.579,1284.34L163.633,1284.42L163.686,1284.5L163.739,1284.58L163.791,1284.66L163.841,1284.75L163.891,1284.83L163.939,1284.91L163.987,1285L164.034,1285.08L164.08,1285.17L164.124,1285.25L164.168,1285.34L164.211,1285.43L164.252,1285.51L164.293,1285.6L164.332,1285.69L164.371,1285.78L164.408,1285.87L164.445,1285.96L164.48,1286.05L164.514,1286.14L164.547,1286.24L164.579,1286.33L164.61,1286.42L164.64,1286.52L164.669,1286.61L164.696,1286.7L164.723,1286.8L164.748,1286.89L164.772,1286.99L164.795,1287.09L164.817,1287.18L164.837,1287.28L164.857,1287.38L164.875,1287.48L164.892,1287.58L164.908,1287.67L164.922,1287.77L164.936,1287.87L164.948,1287.97L164.959,1288.08L164.968,1288.18L164.977,1288.28L164.984,1288.38L164.99,1288.48L164.994,1288.58L164.997,1288.69L164.999,1288.79L165,1288.89L164.999,1289L164.997,1289.1L164.994,1289.2L164.99,1289.3L164.984,1289.41L164.977,1289.51L164.968,1289.61L164.959,1289.71L164.948,1289.81L164.936,1289.91L164.922,1290.01L164.908,1290.11L164.892,1290.21L164.875,1290.31L164.857,1290.41L164.837,1290.5L164.817,1290.6L164.795,1290.7L164.772,1290.8L164.748,1290.89L164.723,1290.99L164.696,1291.08L164.669,1291.18L164.64,1291.27L164.61,1291.36L164.579,1291.46L164.547,1291.55L164.514,1291.64L164.48,1291.73L164.445,1291.83L164.408,1291.91L164.371,1292.01L164.332,1292.1L164.293,1292.18L164.252,1292.27L164.211,1292.36L164.168,1292.45L164.124,1292.53L164.08,1292.62L164.034,1292.7L163.987,1292.79L163.939,1292.87L163.891,1292.96L163.841,1293.04L163.791,1293.12L163.739,1293.2L163.686,1293.28L163.633,1293.36L163.579,1293.44L163.523,1293.52L163.467,1293.6L163.41,1293.68L163.352,1293.75L163.293,1293.83L163.233,1293.91L163.172,1293.98L163.111,1294.05L163.048,1294.13L162.985,1294.2L162.921,1294.27L162.856,1294.34L162.79,1294.41L162.723,1294.48L162.656,1294.55L162.587,1294.62L162.518,1294.68L162.449,1294.75L162.378,1294.81L162.306,1294.88L162.234,1294.94L162.161,1295L162.088,1295.07L162.013,1295.13L161.938,1295.18L161.862,1295.24L161.785,1295.3L161.708,1295.36L161.63,1295.42L161.551,1295.47L161.472,1295.53L161.391,1295.58L161.311,1295.63L161.229,1295.68L161.147,1295.73L161.064,1295.78L160.981,1295.83L160.897,1295.88L160.812,1295.93L160.727,1295.97L160.641,1296.02L160.554,1296.06L160.467,1296.1L160.379,1296.14L160.291,1296.18L160.202,1296.23L160.113,1296.26L160.023,1296.3L159.932,1296.34L159.841,1296.37L159.749,1296.41L159.657,1296.44L159.565,1296.47L159.472,1296.5L159.378,1296.53L159.284,1296.56L159.189,1296.59L159.094,1296.62L158.998,1296.64L158.902,1296.66L158.806,1296.69L158.709,1296.71L158.611,1296.73L158.514,1296.75L158.415,1296.77L158.317,1296.79L158.218,1296.8L158.118,1296.82L158.018,1296.83L157.918,1296.84L157.817,1296.85L157.716,1296.86L157.615,1296.87L157.513,1296.88L157.411,1296.88L157.309,1296.89L157.206,1296.89L157.103,1296.89L157,1296.89L156.907,1296.89L156.815,1296.89L156.723,1296.89L156.631,1296.88L156.539,1296.88L156.448,1296.87L156.357,1296.87L156.266,1296.86L156.175,1296.85L156.085,1296.84L155.995,1296.83L155.906,1296.82L155.816,1296.81L155.727,1296.79L155.639,1296.78L155.55,1296.76L155.514,1296.75L155.479,1296.75L155.444,1296.74L155.41,1296.73L155.376,1296.71L155.343,1296.7L155.311,1296.68L155.279,1296.67L155.247,1296.65L155.217,1296.64L155.187,1296.62L155.158,1296.6L155.129,1296.58L155.102,1296.56L155.075,1296.53L155.049,1296.51L155.024,1296.48L154.999,1296.46ZM158.064,1294.8L158.137,1294.79L158.21,1294.77L158.283,1294.76L158.356,1294.74L158.428,1294.72L158.5,1294.7L158.571,1294.68L158.642,1294.66L158.713,1294.64L158.784,1294.62L158.853,1294.6L158.923,1294.58L158.992,1294.55L159.061,1294.53L159.13,1294.5L159.198,1294.48L159.266,1294.45L159.333,1294.42L159.4,1294.39L159.467,1294.36L159.533,1294.33L159.599,1294.3L159.664,1294.27L159.729,1294.24L159.793,1294.2L159.857,1294.17L159.921,1294.13L159.984,1294.1L160.046,1294.06L160.108,1294.03L160.169,1293.99L160.231,1293.95L160.292,1293.91L160.352,1293.87L160.411,1293.83L160.471,1293.79L160.529,1293.74L160.587,1293.7L160.645,1293.66L160.702,1293.61L160.758,1293.57L160.815,1293.52L160.87,1293.48L160.924,1293.43L160.979,1293.38L161.032,1293.33L161.085,1293.29L161.138,1293.24L161.19,1293.18L161.241,1293.13L161.292,1293.08L161.342,1293.03L161.392,1292.98L161.441,1292.92L161.489,1292.87L161.537,1292.82L161.584,1292.76L161.63,1292.71L161.675,1292.65L161.721,1292.59L161.765,1292.54L161.808,1292.48L161.851,1292.42L161.893,1292.36L161.935,1292.3L161.976,1292.24L162.016,1292.18L162.055,1292.12L162.094,1292.06L162.132,1292L162.169,1291.94L162.206,1291.88L162.242,1291.81L162.277,1291.75L162.311,1291.69L162.344,1291.62L162.377,1291.56L162.409,1291.49L162.44,1291.43L162.471,1291.36L162.5,1291.29L162.529,1291.23L162.557,1291.16L162.584,1291.09L162.611,1291.02L162.636,1290.95L162.661,1290.88L162.685,1290.82L162.708,1290.75L162.73,1290.68L162.752,1290.61L162.773,1290.54L162.792,1290.46L162.811,1290.39L162.829,1290.32L162.846,1290.25L162.863,1290.17L162.878,1290.1L162.893,1290.03L162.906,1289.96L162.919,1289.88L162.931,1289.81L162.942,1289.73L162.952,1289.66L162.961,1289.58L162.969,1289.51L162.976,1289.43L162.982,1289.36L162.988,1289.28L162.992,1289.2L162.996,1289.12L162.998,1289.05L162.999,1288.97L163,1288.89L162.999,1288.82L162.998,1288.74L162.996,1288.66L162.992,1288.58L162.988,1288.51L162.982,1288.43L162.976,1288.35L162.969,1288.28L162.961,1288.2L162.952,1288.13L162.942,1288.05L162.931,1287.98L162.919,1287.9L162.906,1287.83L162.893,1287.76L162.878,1287.68L162.863,1287.61L162.846,1287.54L162.829,1287.46L162.811,1287.39L162.792,1287.32L162.773,1287.25L162.752,1287.18L162.73,1287.11L162.708,1287.04L162.685,1286.97L162.661,1286.9L162.636,1286.83L162.611,1286.76L162.584,1286.69L162.557,1286.63L162.529,1286.56L162.5,1286.49L162.47,1286.43L162.44,1286.36L162.409,1286.29L162.377,1286.23L162.344,1286.16L162.311,1286.1L162.276,1286.04L162.242,1285.97L162.206,1285.91L162.17,1285.85L162.132,1285.78L162.094,1285.72L162.055,1285.66L162.016,1285.6L161.976,1285.54L161.935,1285.48L161.893,1285.42L161.851,1285.36L161.808,1285.31L161.764,1285.25L161.721,1285.19L161.675,1285.13L161.629,1285.08L161.584,1285.02L161.537,1284.97L161.489,1284.91L161.441,1284.86L161.392,1284.81L161.342,1284.75L161.292,1284.7L161.241,1284.65L161.19,1284.6L161.139,1284.55L161.085,1284.5L161.032,1284.45L160.979,1284.4L160.924,1284.36L160.869,1284.31L160.815,1284.26L160.758,1284.22L160.701,1284.17L160.645,1284.13L160.588,1284.09L160.529,1284.04L160.471,1284L160.412,1283.96L160.351,1283.92L160.291,1283.88L160.231,1283.84L160.17,1283.8L160.108,1283.76L160.046,1283.72L159.983,1283.69L159.92,1283.65L159.857,1283.62L159.793,1283.58L159.728,1283.55L159.664,1283.52L159.598,1283.48L159.533,1283.45L159.467,1283.42L159.4,1283.39L159.333,1283.36L159.266,1283.34L159.198,1283.31L159.13,1283.28L159.061,1283.26L158.992,1283.23L158.923,1283.21L158.853,1283.18L158.783,1283.16L158.713,1283.14L158.642,1283.12L158.571,1283.1L158.499,1283.08L158.428,1283.06L158.356,1283.05L158.283,1283.03L158.21,1283.02L158.137,1283L158.069,1282.99L158.141,1283.09L158.218,1283.2L158.293,1283.31L158.368,1283.42L158.441,1283.53L158.512,1283.64L158.582,1283.76L158.651,1283.88L158.718,1283.99L158.783,1284.11L158.847,1284.23L158.909,1284.35L158.97,1284.47L159.029,1284.59L159.086,1284.71L159.142,1284.84L159.197,1284.96L159.249,1285.09L159.3,1285.21L159.35,1285.34L159.398,1285.47L159.443,1285.6L159.487,1285.73L159.53,1285.86L159.571,1285.99L159.61,1286.12L159.647,1286.25L159.683,1286.39L159.716,1286.52L159.748,1286.66L159.778,1286.79L159.806,1286.93L159.833,1287.06L159.857,1287.2L159.88,1287.34L159.9,1287.48L159.919,1287.62L159.936,1287.76L159.951,1287.9L159.964,1288.04L159.975,1288.18L159.984,1288.32L159.991,1288.46L159.996,1288.61L159.999,1288.75L160,1288.89L159.999,1289.04L159.996,1289.18L159.991,1289.32L159.984,1289.46L159.975,1289.61L159.964,1289.75L159.951,1289.89L159.936,1290.03L159.919,1290.17L159.9,1290.31L159.88,1290.45L159.857,1290.58L159.832,1290.72L159.806,1290.86L159.778,1291L159.748,1291.13L159.716,1291.27L159.682,1291.4L159.646,1291.53L159.609,1291.66L159.57,1291.8L159.529,1291.93L159.486,1292.06L159.442,1292.19L159.396,1292.32L159.348,1292.44L159.298,1292.57L159.247,1292.7L159.194,1292.83L159.139,1292.95L159.083,1293.07L159.025,1293.19L158.966,1293.32L158.904,1293.44L158.842,1293.56L158.777,1293.68L158.711,1293.8L158.644,1293.91L158.575,1294.03L158.504,1294.14L158.432,1294.26L158.359,1294.37L158.284,1294.48L158.207,1294.59L158.129,1294.7L158.057,1294.8L158.064,1294.8Z" style="fill:rgb(51,51,51);"/>
            </g>
        </g>
    </g>
</svg>
