<svg width="24" height="24" viewBox="0 0 24 24" fill="none" xmlns="http://www.w3.org/2000/svg">
<path fill-rule="evenodd" clip-rule="evenodd" d="M9.06306 4.23497L9.10047 4.23985L9.13796 4.24483L9.16696 4.24414L9.20305 4.25051L9.23772 4.25831L9.2723 4.26603L9.30556 4.27524L9.33811 4.28516L9.37773 4.30216L9.40878 4.31341L9.43921 4.32545L9.4753 4.34598L9.50422 4.35935L9.53889 4.3813L9.56579 4.39687L9.59904 4.42024L9.62373 4.43785L9.65487 4.46334L9.67823 4.48245L9.70787 4.50926L9.73618 4.53757L9.7567 4.55952L9.7829 4.58994L9.80192 4.61322L9.8267 4.64506L9.84369 4.67054L9.86626 4.70442L9.88184 4.73131L9.89599 4.75962L9.91653 4.79571L9.92919 4.82534L9.94124 4.85577L9.95186 4.88761L9.96886 4.92724L9.9787 4.95969L9.9872 4.99366L9.995 5.02832L10.0021 5.0637L10.0084 5.0997L10.007 5.12941L10.0112 5.16762L10.0155 5.20581L10.012 5.23765L10.0141 5.27789L10.0091 5.31114L10.0035 5.3451L9.99433 5.45333L9.98651 5.56007L9.9787 5.6668L9.97238 5.7722L9.97377 5.8839L9.96816 5.9886L9.96387 6.0918L9.96738 6.20137L9.97097 6.31102L9.97589 6.41918L9.9816 6.52672L9.98085 6.62638L9.99498 6.73949L10.0028 6.8449L10.0113 6.94953L10.0204 7.05345L10.0382 7.16311L10.0487 7.26561L10.0678 7.37377L10.0877 7.48132L10.1082 7.58806L10.1223 7.68702L10.1512 7.79944L10.1746 7.90345L10.1986 8.00666L10.2234 8.10916L10.2488 8.21096L10.2821 8.31922L10.3097 8.4189L10.345 8.52495L10.374 8.62321L10.4115 8.72722L10.4497 8.83045L10.4885 8.93296L10.5281 9.03476L10.5691 9.13516L10.6109 9.23493L10.654 9.3332L10.6979 9.43076L10.7424 9.52762L10.7947 9.63084L10.8414 9.72566L10.8966 9.82607L10.9446 9.91939L11.0019 10.0177L11.0521 10.1089L11.1108 10.2057L11.1709 10.3012L11.2318 10.396L11.2862 10.483L11.3491 10.5756L11.4127 10.6675L11.4778 10.758L11.5442 10.8471L11.6185 10.9425L11.6864 11.0302L11.7557 11.1165L11.8264 11.2014L11.9049 11.2926L11.9777 11.3753L12.0513 11.4573L12.1333 11.545L12.2097 11.6242L12.2938 11.7098L12.3723 11.7868L12.4585 11.8703L12.5391 11.9452L12.6282 12.0258L12.711 12.0987L12.7952 12.1701L12.88 12.2408L12.9733 12.3172L13.061 12.3851L13.1494 12.4522L13.2385 12.5187L13.329 12.5837L13.4209 12.6474L13.5136 12.7104L13.6069 12.7726L13.7017 12.8334L13.7907 12.8857L13.8876 12.9444L13.9852 13.0023L14.0842 13.0589L14.1769 13.1078L14.278 13.1622L14.3727 13.2088L14.4682 13.2548L14.5721 13.3064L14.6696 13.3502L14.768 13.3934L14.8677 13.4351L14.9681 13.4761L15.0692 13.5164L15.1717 13.5553L15.275 13.5935L15.3718 13.6239L15.4772 13.66L15.5832 13.6953L15.683 13.7229L15.7905 13.7569L15.8923 13.7823L15.9941 13.8077L16.0974 13.8318L16.2013 13.8551L16.3066 13.877L16.419 13.906L16.5188 13.9195L16.6262 13.9393L16.7344 13.9583L16.8363 13.9697L16.9459 13.9874L17.0491 13.9972L17.1609 14.0129L17.2655 14.0213L17.3715 14.0283L17.4776 14.0355L17.5851 14.0411L17.6932 14.046L17.8022 14.0503L17.904 14.0475L18.0143 14.0503L18.1182 14.0454L18.2299 14.0467L18.3346 14.0411L18.4407 14.034L18.5475 14.0263L18.6542 14.0185L18.6882 14.0128L18.7285 14.015L18.761 14.0107L18.7999 14.0142L18.8303 14.0121L18.8678 14.0171L18.8975 14.0157L18.9335 14.022L18.9682 14.0298L19.0028 14.0376L19.0361 14.0468L19.0686 14.0567L19.1011 14.0665L19.1322 14.0779L19.1627 14.0899L19.1924 14.1027L19.2277 14.1238L19.256 14.138L19.2829 14.1536L19.3167 14.1761L19.3422 14.1931L19.3734 14.2186L19.3974 14.237L19.42 14.2567L19.4497 14.2836L19.4702 14.3056L19.4979 14.3346L19.5169 14.3579L19.5424 14.389L19.5601 14.4138L19.584 14.4462L19.5996 14.4731L19.6216 14.5078L19.635 14.5368L19.6555 14.5728L19.6675 14.6032L19.6788 14.6344L19.6902 14.6655L19.7 14.698L19.7092 14.7312L19.717 14.7659L19.7248 14.8006L19.7318 14.8359L19.7382 14.8719L19.7368 14.9017L19.7425 14.9385L19.7397 14.9696L19.7431 15.0084L19.7396 15.0402L19.7354 15.0728L19.7305 15.106L19.7248 15.14L19.7185 15.1746L19.712 15.2092L19.705 15.2446L19.6908 15.2729L19.6831 15.309L19.6675 15.3387L19.6583 15.3761L19.6421 15.4066L19.6258 15.437L19.6088 15.468L19.584 15.4928L19.5671 15.5239L19.519 15.6003L19.4709 15.6766L19.4229 15.753L19.367 15.823L19.3175 15.9008L19.2617 15.9708L19.2051 16.0415L19.1485 16.1122L19.0912 16.1836L19.0339 16.255L18.9696 16.3194L18.9116 16.3915L18.8465 16.4566L18.7886 16.5287L18.7235 16.5937L18.6578 16.6595L18.5849 16.7323L18.5121 16.8052L18.4322 16.8709L18.3601 16.943L18.2808 17.0081L18.2016 17.0732L18.1302 17.1446L18.0517 17.2089L17.9733 17.2733L17.8885 17.3299L17.8107 17.3935L17.7258 17.4501L17.6487 17.513L17.5653 17.5681L17.4811 17.624L17.3984 17.6784L17.315 17.7336L17.2323 17.7881L17.1502 17.8418L17.0682 17.8955L16.9791 17.9422L16.8907 17.9882L16.8094 18.0412L16.7217 18.0865L16.634 18.1317L16.547 18.1762L16.4537 18.213L16.3674 18.2569L16.2811 18.3007L16.1886 18.3368L16.103 18.3799L16.011 18.4153L15.9198 18.4499L15.8286 18.4846L15.7381 18.5185L15.6476 18.5524L15.5507 18.5786L15.4609 18.6118L15.3718 18.6443L15.2764 18.6691L15.188 18.7009L15.0933 18.725L14.9992 18.7483L14.9051 18.7716L14.8118 18.7943L14.7184 18.8169L14.6195 18.8311L14.5268 18.853L14.4356 18.8734L14.3373 18.8869L14.2397 18.8996L14.15 18.9187L14.0531 18.9307L13.9569 18.9421L13.8614 18.9526L13.766 18.9633L13.6719 18.9724L13.5779 18.9817L13.4775 18.983L13.3842 18.9916L13.2844 18.9922L13.1933 18.9987L13.0949 18.9979L12.9967 18.9972L12.8997 18.9951L12.81 19L12.7139 18.9973L12.6113 18.9866L12.5166 18.9824L12.4225 18.9774L12.3285 18.9725L12.2287 18.959L12.1361 18.9527L12.0442 18.9456L11.9459 18.9307L11.8483 18.9152L11.7585 18.906L11.6623 18.889L11.5662 18.8721L11.4714 18.8536L11.3774 18.8346L11.2834 18.8155L11.19 18.7957L11.091 18.7674L10.9991 18.7462L10.9086 18.7235L10.811 18.6939L10.7212 18.6706L10.625 18.6394L10.5373 18.614L10.4426 18.5815L10.3485 18.5482L10.263 18.5206L10.1704 18.486L10.0792 18.45L9.9879 18.4138L9.89812 18.3764L9.80834 18.3389L9.7199 18.3L9.63223 18.2604L9.53821 18.213L9.45197 18.172L9.36634 18.1303L9.27444 18.0808L9.19031 18.0377L9.10761 17.9932L9.01773 17.9415L8.93644 17.8955L8.84878 17.8418L8.76182 17.7874L8.68256 17.7392L8.59773 17.6827L8.5129 17.6261L8.42947 17.5682L8.34676 17.5095L8.27174 17.4571L8.19115 17.3963L8.11055 17.3355L8.03138 17.2733L7.94583 17.2033L7.86868 17.1389L7.79162 17.0746L7.71599 17.0088L7.64104 16.9424L7.56752 16.8745L7.48764 16.7989L7.41544 16.7295L7.34404 16.6595L7.26698 16.581L7.1977 16.5089L7.12912 16.4361L7.06117 16.3625L6.98765 16.2805L6.9219 16.2048L6.85757 16.1278L6.79324 16.0507L6.73024 15.9722L6.66803 15.893L6.60724 15.8124L6.54644 15.7318L6.48706 15.6498L6.4283 15.567L6.37034 15.4836L6.32086 15.4058L6.26431 15.321L6.20918 15.2347L6.15466 15.1477L6.10802 15.0671L6.055 14.9787L6.01048 14.896L5.95878 14.8062L5.91568 14.722L5.87328 14.6372L5.82451 14.5446L5.78343 14.4583L5.74314 14.3713L5.70358 14.2837L5.65762 14.1882L5.62717 14.1054L5.58264 14.0086L5.5466 13.9174L5.51755 13.8332L5.48293 13.7406L5.44831 13.648L5.4151 13.5539L5.38959 13.4662L5.35708 13.3715L5.33307 13.2824L5.3026 13.1855L5.28001 13.095L5.25033 12.9974L5.22906 12.9055L5.20788 12.8136L5.18812 12.7203L5.16896 12.6262L5.14991 12.5321L5.13156 12.4374L5.11453 12.3412L5.09759 12.2451L5.08127 12.1481L5.07282 12.0577L5.058 11.9594L5.0438 11.8604L5.03748 11.7678L5.03107 11.6751L5.01908 11.574L5.01417 11.48L5.00987 11.3852L5.00638 11.2898L5.00351 11.1936L5.00141 11.0967L4.99924 10.9998L4.99857 10.9016L5.0049 10.8103L5.00423 10.712L5.01196 10.6194L5.01342 10.519L5.02196 10.4257L5.03111 10.3316L5.03326 10.2305L5.04383 10.135L5.06147 10.0466L5.07283 9.9505L5.08481 9.85358L5.09688 9.75675L5.10956 9.65913L5.13012 9.56796L5.14351 9.46964L5.16548 9.37706L5.18666 9.2851L5.20925 9.19173L5.23193 9.09844L5.25524 9.00436L5.27862 8.91037L5.30263 8.81558L5.32734 8.72008L5.35922 8.63176L5.38464 8.53556L5.41785 8.44572L5.45114 8.35598L5.48506 8.26544L5.51897 8.17491L5.5466 8.07667L5.58829 7.99251L5.62363 7.90055L5.65974 7.80798L5.70285 7.7224L5.7396 7.62903L5.78351 7.54283L5.82732 7.45654L5.87185 7.36955L5.91708 7.28185L5.96232 7.19414L6.00835 7.10582L6.05429 7.01741L6.10802 6.93537L6.16175 6.85333L6.20848 6.76431L6.26291 6.68156L6.31806 6.5981L6.37248 6.51537L6.42834 6.4312L6.48347 6.34775L6.5464 6.27067L6.60304 6.18589L6.66667 6.1081L6.73031 6.03031L6.79464 5.95182L6.85898 5.87332L6.92332 5.79483L6.98837 5.71562L7.0605 5.64349L7.12554 5.5643L7.19838 5.49146L7.27121 5.41863L7.34404 5.3458L7.4098 5.28003L7.47485 5.21498L7.5399 5.14993L7.61204 5.09195L7.67709 5.0269L7.74852 4.96963L7.81287 4.90528L7.88428 4.84802L7.95571 4.79075L8.02643 4.73419L8.09715 4.67762L8.16716 4.62177L8.2378 4.56512L8.31488 4.51635L8.38418 4.4612L8.46127 4.41242L8.4938 4.39405L8.51855 4.3693L8.55038 4.35162L8.5815 4.33466L8.61969 4.32478L8.65011 4.30852L8.6868 4.29996L8.71651 4.28441L8.7533 4.27593L8.78159 4.2618L8.81696 4.25474L8.85162 4.2484L8.88628 4.24204L8.91944 4.23703L8.95977 4.23916L8.99231 4.23493L9.03122 4.23849L9.06306 4.23497ZM8.07021 7.57528L8.02426 7.63539L7.98821 7.69975L7.94367 7.75845L7.9055 7.82493L7.86875 7.89L7.83199 7.95507L7.79655 8.01864L7.76051 8.083L7.72376 8.14806L7.68771 8.21242L7.65236 8.27608L7.61844 8.33831L7.58938 8.40967L7.55475 8.47261L7.52789 8.54194L7.49397 8.60417L7.46712 8.67349L7.4409 8.74201L7.41475 8.81062L7.38861 8.87923L7.36317 8.94714L7.33835 9.01425L7.31292 9.08215L7.28819 9.14935L7.27195 9.22221L7.24785 9.28861L7.2302 9.36288L7.20689 9.42866L7.19127 9.50073L7.16866 9.5658L7.15314 9.63795L7.13831 9.7094L7.12411 9.78005L7.10929 9.8515L7.09589 9.92153L7.08169 9.99218L7.07606 10.0686L7.06336 10.1379L7.05128 10.2064L7.04566 10.2828L7.03438 10.3507L7.03008 10.4256L7.0188 10.4936L7.0152 10.5678L7.01241 10.6413L7.01033 10.7142L7.00107 10.7799L6.99828 10.8535L7.0046 10.9319L7.00322 11.0041L7.00325 11.0748L7.00321 11.1455L7.00324 11.2162L7.01097 11.2932L7.01242 11.3626L7.01458 11.4312L7.02373 11.5068L7.02588 11.5755L7.03644 11.6497L7.04001 11.7169L7.05057 11.7911L7.06264 11.8639L7.07461 11.9367L7.08738 12.0089L7.10006 12.081L7.10646 12.1453L7.12763 12.2231L7.14253 12.2931L7.15734 12.3631L7.17293 12.4324L7.18923 12.5011L7.20616 12.5689L7.22945 12.6445L7.24718 12.7117L7.27259 12.7852L7.29173 12.851L7.31077 12.9168L7.33769 12.9889L7.36523 13.0603L7.38649 13.124L7.41473 13.1947L7.43669 13.2576L7.46635 13.3269L7.49681 13.3955L7.52718 13.4641L7.55904 13.5313L7.59083 13.5984L7.61633 13.6579L7.64952 13.7236L7.68343 13.7886L7.71741 13.8537L7.7591 13.9251L7.79521 13.9881L7.83123 14.051L7.86806 14.1133L7.9055 14.1747L7.95 14.2433L7.98894 14.3035L8.02851 14.3628L8.06815 14.4223L8.1155 14.488L8.15647 14.5459L8.20532 14.6103L8.24771 14.6669L8.29797 14.7299L8.34177 14.785L8.39336 14.8465L8.43867 14.9002L8.49095 14.961L8.54475 15.0205L8.59846 15.0798L8.64651 15.1307L8.70243 15.188L8.75825 15.2453L8.8078 15.2948L8.86575 15.35L8.92441 15.4044L8.98315 15.4589L9.03544 15.5055L9.09623 15.5578L9.15709 15.6102L9.2115 15.6547L9.27378 15.7057L9.32961 15.7488L9.39321 15.7982L9.45054 15.84L9.51555 15.8881L9.57429 15.9284L9.63366 15.968L9.70009 16.0146L9.76024 16.0535L9.82173 16.091L9.89037 16.1356L9.95255 16.1723L10.0155 16.2084L10.0784 16.2444L10.1427 16.2791L10.2078 16.313L10.2729 16.3469L10.3387 16.3802L10.4051 16.4127L10.4723 16.4446L10.5395 16.4764L10.6081 16.5068L10.6696 16.5301L10.7388 16.5598L10.8089 16.5888L10.8725 16.61L10.9432 16.6383L11.0146 16.6659L11.0797 16.6857L11.1518 16.7125L11.2183 16.731L11.2847 16.7493L11.3597 16.7734L11.4269 16.791L11.4948 16.808L11.5711 16.8306L11.6405 16.8462L11.7104 16.861L11.7805 16.8759L11.8511 16.89L11.9226 16.9035L11.9947 16.9162L12.0668 16.9289L12.1325 16.9338L12.2061 16.9452L12.279 16.9572L12.3539 16.9671L12.4218 16.97L12.496 16.9805L12.5646 16.9827L12.641 16.9911L12.7103 16.9926L12.7802 16.9932L12.8581 17.0003L12.9288 17.0004L12.9995 17.0003L13.0716 16.999L13.1437 16.9975L13.2166 16.9954L13.2887 16.994L13.3622 16.9911L13.4294 16.9806L13.5029 16.9777L13.5772 16.9742L13.6458 16.9622L13.7214 16.9572L13.7893 16.9459L13.8579 16.9339L13.935 16.9275L14.0043 16.9148L14.075 16.9007L14.1457 16.8865L14.2164 16.8724L14.2872 16.8582L14.3585 16.8433L14.4307 16.8278L14.5028 16.8123L14.5686 16.789L14.6414 16.7726L14.7072 16.7493L14.7807 16.7324L14.8478 16.7076L14.9143 16.6835L14.9886 16.6659L15.0565 16.6405L15.1243 16.6149L15.1929 16.5888L15.2615 16.5627L15.3231 16.5294L15.3923 16.5025L15.4623 16.4749L15.5246 16.441L15.5939 16.4142L15.6575 16.3788L15.7282 16.3505L15.7918 16.3151L15.8555 16.2798L15.9198 16.2437L15.9842 16.2077L16.0493 16.1709L16.1136 16.1348L16.1715 16.091L16.2373 16.0535L16.2953 16.0097L16.3625 15.9708L16.4169 15.9305L16.2953 15.9107L16.1631 15.8874L16.0315 15.8633L15.9014 15.8378L15.772 15.8117L15.6441 15.7841L15.5097 15.7488L15.3761 15.7127L15.2516 15.6816L15.1201 15.6434L14.99 15.6038L14.8613 15.5628L14.7333 15.5211L14.6068 15.478L14.4816 15.4334L14.3501 15.3811L14.2263 15.3351L14.0977 15.28L13.976 15.2319L13.8495 15.1746L13.7243 15.1159L13.5998 15.0565L13.4761 14.9964L13.3545 14.9342L13.2336 14.8713L13.114 14.8069L12.996 14.7411L12.8715 14.6676L12.7562 14.599L12.6417 14.5297L12.5215 14.4519L12.4027 14.3727L12.2916 14.2999L12.1757 14.2179L12.0605 14.1352L11.9473 14.0503L11.8349 13.9647L11.7239 13.8778L11.6142 13.7894L11.5061 13.6995L11.3993 13.6083L11.294 13.5158L11.19 13.4217L11.0804 13.3192L10.9793 13.2223L10.8796 13.124L10.7742 13.0172L10.6773 12.9161L10.5819 12.8136L10.4879 12.7096L10.3882 12.5972L10.2969 12.4904L10.2071 12.3822L10.1187 12.2726L10.0317 12.1616L9.94617 12.0491L9.86138 11.9361L9.78572 11.8279L9.70439 11.7112L9.62377 11.5938L9.54457 11.475L9.47385 11.3619L9.39747 11.2402L9.32958 11.1243L9.26312 11.0069L9.19736 10.8888L9.12592 10.7622L9.06298 10.6413L9.00147 10.519L8.94074 10.396L8.88134 10.2716L8.83042 10.1528L8.77385 10.0255L8.718 9.89749L8.67062 9.77516L8.61758 9.64435L8.57234 9.51989L8.5285 9.39403L8.479 9.25968L8.43727 9.13171L8.39619 9.00292L8.3573 8.87211L8.31912 8.74059L8.28872 8.61544L8.25266 8.4818L8.2251 8.35383L8.19115 8.21807L8.16501 8.08867L8.14027 7.95787L8.11694 7.82566L8.09361 7.69344L8.07445 7.57104L8.07021 7.57528Z" fill="black"/>
<path fill-rule="evenodd" clip-rule="evenodd" d="M8.07021 7.57526L8.02426 7.63537L7.98821 7.69973L7.94367 7.75843L7.9055 7.82491L7.86875 7.88997L7.83199 7.95505L7.79655 8.01862L7.76051 8.08298L7.72376 8.14804L7.68771 8.2124L7.65236 8.27606L7.61844 8.33829L7.58938 8.40964L7.55475 8.47259L7.52789 8.54191L7.49397 8.60415L7.46712 8.67347L7.4409 8.74198L7.41475 8.8106L7.38861 8.87921L7.36317 8.94712L7.33835 9.01423L7.31292 9.08213L7.28819 9.14932L7.27195 9.22219L7.24785 9.28859L7.2302 9.36286L7.20689 9.42863L7.19127 9.50071L7.16866 9.56578L7.15314 9.63793L7.13831 9.70938L7.12411 9.78003L7.10929 9.85148L7.09589 9.9215L7.08169 9.99215L7.07606 10.0686L7.06336 10.1379L7.05128 10.2064L7.04566 10.2828L7.03438 10.3507L7.03008 10.4256L7.0188 10.4935L7.0152 10.5677L7.01241 10.6413L7.01033 10.7142L7.00107 10.7799L6.99828 10.8535L7.0046 10.9319L7.00322 11.0041L7.00325 11.0748L7.00321 11.1455L7.00324 11.2162L7.01097 11.2932L7.01242 11.3626L7.01458 11.4312L7.02373 11.5068L7.02588 11.5754L7.03644 11.6496L7.04001 11.7168L7.05057 11.791L7.06264 11.8639L7.07461 11.9367L7.08738 12.0089L7.10006 12.0809L7.10646 12.1453L7.12763 12.2231L7.14253 12.2931L7.15734 12.3631L7.17293 12.4324L7.18923 12.501L7.20616 12.5689L7.22945 12.6445L7.24718 12.7117L7.27259 12.7852L7.29173 12.851L7.31077 12.9167L7.33769 12.9889L7.36523 13.0603L7.38649 13.124L7.41473 13.1946L7.43669 13.2576L7.46635 13.3269L7.49681 13.3955L7.52718 13.4641L7.55904 13.5313L7.59083 13.5984L7.61633 13.6579L7.64952 13.7236L7.68343 13.7886L7.71741 13.8537L7.7591 13.9251L7.79521 13.9881L7.83123 14.051L7.86806 14.1132L7.9055 14.1747L7.95 14.2433L7.98894 14.3034L8.02851 14.3628L8.06815 14.4222L8.11549 14.488L8.15647 14.5459L8.20532 14.6103L8.24771 14.6668L8.29797 14.7298L8.34177 14.7849L8.39336 14.8464L8.43866 14.9002L8.49095 14.961L8.54475 15.0205L8.59846 15.0798L8.6465 15.1307L8.70243 15.188L8.75825 15.2453L8.8078 15.2948L8.86575 15.3499L8.92441 15.4044L8.98315 15.4589L9.03544 15.5055L9.09623 15.5578L9.15709 15.6102L9.2115 15.6547L9.27378 15.7056L9.32961 15.7487L9.39321 15.7982L9.45053 15.84L9.51555 15.888L9.57429 15.9284L9.63366 15.9679L9.70009 16.0146L9.76024 16.0535L9.82173 16.091L9.89037 16.1356L9.95255 16.1723L10.0155 16.2084L10.0784 16.2444L10.1427 16.279L10.2078 16.313L10.2729 16.3469L10.3387 16.3802L10.4051 16.4127L10.4723 16.4446L10.5395 16.4763L10.6081 16.5068L10.6696 16.5301L10.7388 16.5598L10.8089 16.5888L10.8725 16.61L10.9432 16.6383L11.0146 16.6658L11.0797 16.6857L11.1518 16.7125L11.2183 16.7309L11.2847 16.7493L11.3597 16.7734L11.4269 16.791L11.4948 16.808L11.5711 16.8306L11.6405 16.8462L11.7104 16.861L11.7805 16.8759L11.8511 16.89L11.9226 16.9035L11.9947 16.9162L12.0668 16.9289L12.1325 16.9338L12.2061 16.9452L12.279 16.9572L12.3539 16.9671L12.4218 16.9699L12.496 16.9805L12.5646 16.9827L12.641 16.9911L12.7103 16.9926L12.7802 16.9932L12.8581 17.0003L12.9288 17.0004L12.9995 17.0003L13.0716 16.9989L13.1437 16.9975L13.2166 16.9954L13.2887 16.994L13.3622 16.9911L13.4294 16.9805L13.5029 16.9777L13.5772 16.9742L13.6458 16.9622L13.7214 16.9572L13.7893 16.9459L13.8579 16.9339L13.935 16.9275L14.0043 16.9148L14.075 16.9006L14.1457 16.8864L14.2164 16.8723L14.2872 16.8582L14.3585 16.8433L14.4307 16.8278L14.5028 16.8123L14.5686 16.7889L14.6414 16.7726L14.7072 16.7493L14.7807 16.7324L14.8478 16.7075L14.9143 16.6835L14.9886 16.6659L15.0565 16.6404L15.1243 16.6149L15.1929 16.5888L15.2615 16.5626L15.3231 16.5294L15.3923 16.5025L15.4623 16.4749L15.5246 16.441L15.5939 16.4141L15.6575 16.3788L15.7282 16.3505L15.7918 16.3151L15.8555 16.2798L15.9198 16.2437L15.9842 16.2077L16.0493 16.1709L16.1136 16.1348L16.1715 16.091L16.2373 16.0535L16.2953 16.0097L16.3625 15.9708L16.4169 15.9305L16.2953 15.9107L16.1631 15.8874L16.0315 15.8633L15.9014 15.8378L15.772 15.8117L15.6441 15.7841L15.5097 15.7487L15.3761 15.7127L15.2516 15.6816L15.1201 15.6434L14.99 15.6038L14.8613 15.5628L14.7333 15.5211L14.6068 15.478L14.4816 15.4334L14.3501 15.3811L14.2263 15.3351L14.0977 15.28L13.976 15.2319L13.8495 15.1746L13.7243 15.1159L13.5998 15.0565L13.4761 14.9964L13.3545 14.9342L13.2336 14.8712L13.114 14.8069L12.996 14.7411L12.8715 14.6676L12.7562 14.599L12.6417 14.5297L12.5215 14.4519L12.4027 14.3727L12.2916 14.2998L12.1757 14.2179L12.0605 14.1352L11.9473 14.0503L11.8349 13.9647L11.7239 13.8777L11.6142 13.7893L11.5061 13.6995L11.3993 13.6083L11.294 13.5157L11.19 13.4217L11.0804 13.3191L10.9793 13.2222L10.8796 13.124L10.7742 13.0172L10.6773 12.916L10.5819 12.8136L10.4879 12.7096L10.3882 12.5972L10.2969 12.4904L10.2071 12.3822L10.1187 12.2726L10.0317 12.1616L9.94617 12.0491L9.86138 11.9361L9.78572 11.8279L9.70439 11.7112L9.62377 11.5938L9.54457 11.475L9.47385 11.3618L9.39747 11.2402L9.32958 11.1243L9.26312 11.0069L9.19736 10.8888L9.12592 10.7622L9.06298 10.6413L9.00147 10.5189L8.94074 10.396L8.88134 10.2715L8.83042 10.1527L8.77385 10.0255L8.718 9.89746L8.67062 9.77514L8.61758 9.64433L8.57234 9.51987L8.5285 9.39401L8.479 9.25966L8.43727 9.13168L8.39619 9.0029L8.3573 8.87209L8.31912 8.74057L8.28872 8.61542L8.25266 8.48178L8.2251 8.35381L8.19115 8.21805L8.16501 8.08865L8.14027 7.95785L8.11694 7.82563L8.09361 7.69342L8.07445 7.57102L8.07021 7.57526Z" fill="black" fill-opacity="0.1"/>
</svg>
