<svg width="24" height="24" viewBox="0 0 24 24" fill="none" xmlns="http://www.w3.org/2000/svg">
<path d="M6 17C4.34 17 3 15.656 3 14C3 12.344 4.34 11 6 11C6.01 11 6.02002 11 6.02002 11C6.28002 8.198 8.63 6 11.5 6C13.65 6 15.52 7.23899 16.42 9.04199C16.61 9.01399 16.8 9 17 9C19.21 9 21 10.792 21 13C21 15.208 19.21 17 17 17" stroke="#333333" stroke-width="2" stroke-miterlimit="5" stroke-linecap="round" stroke-linejoin="round"/>
<path d="M10 16.9971C10.5523 16.9971 11 16.5494 11 15.9971C11 15.4448 10.5523 14.9971 10 14.9971C9.44772 14.9971 9 15.4448 9 15.9971C9 16.5494 9.44772 16.9971 10 16.9971Z" fill="#333333"/>
<path d="M13 18.9971C13.5523 18.9971 14 18.5494 14 17.9971C14 17.4448 13.5523 16.9971 13 16.9971C12.4477 16.9971 12 17.4448 12 17.9971C12 18.5494 12.4477 18.9971 13 18.9971Z" fill="#333333"/>
<path d="M13 14.9971C13.5523 14.9971 14 14.5494 14 13.9971C14 13.4448 13.5523 12.9971 13 12.9971C12.4477 12.9971 12 13.4448 12 13.9971C12 14.5494 12.4477 14.9971 13 14.9971Z" fill="#333333"/>
<path d="M10 20.9971C10.5523 20.9971 11 20.5494 11 19.9971C11 19.4448 10.5523 18.9971 10 18.9971C9.44772 18.9971 9 19.4448 9 19.9971C9 20.5494 9.44772 20.9971 10 20.9971Z" fill="#333333"/>
</svg>
