<?xml version="1.0" encoding="UTF-8" standalone="no"?>
<!DOCTYPE svg PUBLIC "-//W3C//DTD SVG 1.1//EN" "http://www.w3.org/Graphics/SVG/1.1/DTD/svg11.dtd">
<svg width="25px" height="25px" version="1.1" xmlns="http://www.w3.org/2000/svg" xmlns:xlink="http://www.w3.org/1999/xlink" xml:space="preserve" xmlns:serif="http://www.serif.com/" style="fill-rule:evenodd;clip-rule:evenodd;stroke-linejoin:round;stroke-miterlimit:1.41421;">
    <g transform="matrix(1,0,0,1,-626,-1324)">
        <g id="weather.thin.sun" transform="matrix(1,0,0,1,-941.023,554.893)">
            <rect x="1568" y="770" width="24" height="24" style="fill:none;"/>
            <g transform="matrix(1,0,0,1,1472,-554.893)">
                <path d="M108,1345.39C108,1345.53 107.947,1345.65 107.854,1345.75C107.76,1345.84 107.633,1345.89 107.5,1345.89C107.367,1345.89 107.24,1345.84 107.146,1345.75C107.053,1345.65 107,1345.53 107,1345.39C107,1344.62 107,1343.16 107,1342.39C107,1342.26 107.053,1342.13 107.146,1342.04C107.24,1341.94 107.367,1341.89 107.5,1341.89C107.633,1341.89 107.76,1341.94 107.854,1342.04C107.947,1342.13 108,1342.26 108,1342.39C108,1343.16 108,1344.62 108,1345.39ZM102.055,1338.96C102.293,1338.82 102.599,1338.9 102.736,1339.14C102.737,1339.14 102.737,1339.14 102.737,1339.14C102.875,1339.38 102.793,1339.69 102.555,1339.83C101.889,1340.21 100.62,1340.94 99.955,1341.33C99.716,1341.46 99.411,1341.38 99.273,1341.14C99.273,1341.14 99.273,1341.14 99.273,1341.14C99.206,1341.03 99.188,1340.89 99.223,1340.76C99.257,1340.63 99.341,1340.53 99.456,1340.46C100.122,1340.08 101.389,1339.34 102.055,1338.96ZM115.544,1340.46C115.659,1340.53 115.743,1340.63 115.777,1340.76C115.812,1340.89 115.794,1341.03 115.727,1341.14C115.727,1341.14 115.727,1341.14 115.727,1341.14C115.589,1341.38 115.284,1341.46 115.045,1341.33C114.38,1340.94 113.112,1340.21 112.446,1339.83C112.331,1339.76 112.248,1339.65 112.213,1339.52C112.179,1339.39 112.197,1339.26 112.263,1339.14C112.263,1339.14 112.263,1339.14 112.264,1339.14C112.401,1338.9 112.707,1338.82 112.945,1338.96C113.611,1339.34 114.878,1340.08 115.544,1340.46ZM107.5,1331.89C109.984,1331.89 112,1333.91 112,1336.39C112,1338.88 109.984,1340.89 107.5,1340.89C105.016,1340.89 103,1338.88 103,1336.39C103,1333.91 105.016,1331.89 107.5,1331.89ZM107.5,1332.89C109.432,1332.89 111,1334.46 111,1336.39C111,1338.32 109.432,1339.89 107.5,1339.89C105.568,1339.89 104,1338.32 104,1336.39C104,1334.46 105.568,1332.89 107.5,1332.89ZM115.045,1331.46C115.284,1331.32 115.589,1331.4 115.727,1331.64C115.727,1331.64 115.727,1331.64 115.728,1331.64C115.866,1331.88 115.784,1332.19 115.545,1332.33C114.883,1332.71 113.625,1333.43 112.957,1333.82C112.712,1333.96 112.399,1333.88 112.257,1333.63C112.257,1333.63 112.257,1333.63 112.257,1333.63C112.122,1333.4 112.202,1333.1 112.435,1332.97C113.098,1332.58 114.376,1331.85 115.045,1331.46ZM102.565,1332.97C102.798,1333.1 102.878,1333.4 102.743,1333.63C102.743,1333.63 102.743,1333.63 102.743,1333.63C102.601,1333.88 102.288,1333.96 102.043,1333.82C101.375,1333.43 100.118,1332.71 99.456,1332.33C99.341,1332.26 99.257,1332.15 99.223,1332.02C99.188,1331.89 99.206,1331.76 99.273,1331.64C99.273,1331.64 99.273,1331.64 99.273,1331.64C99.411,1331.4 99.716,1331.32 99.955,1331.46C100.624,1331.85 101.902,1332.58 102.565,1332.97ZM108,1330.39C108,1330.53 107.947,1330.65 107.854,1330.75C107.76,1330.84 107.633,1330.89 107.5,1330.89C107.367,1330.89 107.24,1330.84 107.146,1330.75C107.053,1330.65 107,1330.53 107,1330.39C107,1329.62 107,1328.16 107,1327.39C107,1327.26 107.053,1327.13 107.146,1327.04C107.24,1326.94 107.367,1326.89 107.5,1326.89C107.633,1326.89 107.76,1326.94 107.854,1327.04C107.947,1327.13 108,1327.26 108,1327.39C108,1328.16 108,1329.62 108,1330.39Z" style="fill:rgb(51,51,51);"/>
            </g>
        </g>
    </g>
</svg>
