<svg width="24" height="24" viewBox="0 0 24 24" fill="none" xmlns="http://www.w3.org/2000/svg">
<path fill-rule="evenodd" clip-rule="evenodd" d="M12 20.4971C12 20.6371 11.947 20.7571 11.854 20.8571C11.76 20.9471 11.633 20.9971 11.5 20.9971C11.367 20.9971 11.2401 20.9471 11.1461 20.8571C11.0531 20.7571 11 20.6371 11 20.4971C11 19.7271 11 18.2671 11 17.4971C11 17.3671 11.0531 17.2371 11.1461 17.1471C11.2401 17.0471 11.367 16.9971 11.5 16.9971C11.633 16.9971 11.76 17.0471 11.854 17.1471C11.947 17.2371 12 17.3671 12 17.4971C12 18.2671 12 19.7271 12 20.4971ZM6.04305 14.077C6.28805 13.927 6.60104 14.0171 6.74304 14.2571C6.87804 14.4971 6.79805 14.787 6.56505 14.927C5.90205 15.307 4.62405 16.047 3.95505 16.437C3.71605 16.567 3.41105 16.4871 3.27305 16.2471C3.20605 16.1371 3.18805 15.9971 3.22305 15.8671C3.25705 15.7371 3.34105 15.637 3.45605 15.567C4.11805 15.187 5.37505 14.457 6.04305 14.077ZM19.534 15.557C19.779 15.707 19.863 16.0171 19.721 16.2571C19.586 16.4971 19.288 16.577 19.056 16.437C18.389 16.057 17.101 15.307 16.435 14.927C16.202 14.787 16.1221 14.4971 16.2571 14.2571C16.3991 14.0171 16.712 13.927 16.957 14.077C17.621 14.457 18.869 15.177 19.534 15.557ZM11.5 6.99707C13.984 6.99707 16 9.01707 16 11.4971C16 13.9871 13.984 15.9971 11.5 15.9971C9.01605 15.9971 7.00005 13.9871 7.00005 11.4971C7.00005 9.01707 9.01605 6.99707 11.5 6.99707ZM11.5 7.99707C13.432 7.99707 15 9.56707 15 11.4971C15 13.4271 13.432 14.9971 11.5 14.9971C9.56805 14.9971 8.00005 13.4271 8.00005 11.4971C8.00005 9.56707 9.56805 7.99707 11.5 7.99707ZM19.045 6.56702C19.284 6.42702 19.589 6.50707 19.727 6.74707C19.865 6.98707 19.784 7.29701 19.545 7.43701C18.88 7.81701 17.611 8.54701 16.945 8.93701C16.707 9.06701 16.401 8.98707 16.264 8.74707C16.198 8.63707 16.179 8.49707 16.213 8.36707C16.248 8.23707 16.331 8.13702 16.446 8.06702C17.112 7.68702 18.38 6.94702 19.045 6.56702ZM6.55405 8.06702C6.66905 8.13702 6.75205 8.23707 6.78705 8.36707C6.82105 8.49707 6.80305 8.63707 6.73705 8.74707C6.60005 8.98707 6.29305 9.06701 6.05505 8.93701C5.38905 8.54701 4.12205 7.81701 3.45605 7.43701C3.34105 7.36701 3.25705 7.25708 3.22305 7.12708C3.18805 6.99708 3.20605 6.86707 3.27305 6.74707C3.41105 6.50707 3.71605 6.42702 3.95505 6.56702C4.62005 6.94702 5.88805 7.68702 6.55405 8.06702ZM12 5.49707C12 5.63707 11.947 5.75706 11.854 5.85706C11.76 5.94706 11.633 5.99707 11.5 5.99707C11.367 5.99707 11.2401 5.94706 11.1461 5.85706C11.0531 5.75706 11 5.63707 11 5.49707C11 4.72707 11 3.26707 11 2.49707C11 2.36707 11.0531 2.23709 11.1461 2.14709C11.2401 2.04709 11.367 1.99707 11.5 1.99707C11.633 1.99707 11.76 2.04709 11.854 2.14709C11.947 2.23709 12 2.36707 12 2.49707C12 3.26707 12 4.72707 12 5.49707Z" fill="#333333"/>
</svg>
