<svg width="24" height="24" viewBox="0 0 24 24" fill="none" xmlns="http://www.w3.org/2000/svg">
<path d="M6.02002 11.5C6.27826 11.5 6.49402 11.3033 6.51788 11.0462C6.75437 8.49752 8.89206 6.5 11.5 6.5C13.4538 6.5 15.1543 7.62577 15.9727 9.2653C16.0692 9.4587 16.2791 9.56816 16.4929 9.53665C16.6584 9.51226 16.824 9.5 17 9.5C18.9337 9.5 20.5 11.068 20.5 13C20.5 14.932 18.9337 16.5 17 16.5H6C4.61658 16.5 3.5 15.3803 3.5 14C3.5 12.6197 4.61658 11.5 6 11.5H6.00006H6.00012H6.00018H6.00023H6.00029H6.00035H6.00041H6.00047H6.00053H6.00059H6.00064H6.0007H6.00076H6.00082H6.00088H6.00094H6.001H6.00105H6.00111H6.00117H6.00123H6.00129H6.00135H6.00141H6.00146H6.00152H6.00158H6.00164H6.0017H6.00176H6.00181H6.00187H6.00193H6.00199H6.00205H6.00211H6.00216H6.00222H6.00228H6.00234H6.0024H6.00246H6.00251H6.00257H6.00263H6.00269H6.00275H6.0028H6.00286H6.00292H6.00298H6.00304H6.00309H6.00315H6.00321H6.00327H6.00333H6.00338H6.00344H6.0035H6.00356H6.00362H6.00367H6.00373H6.00379H6.00385H6.0039H6.00396H6.00402H6.00408H6.00413H6.00419H6.00425H6.00431H6.00436H6.00442H6.00448H6.00454H6.00459H6.00465H6.00471H6.00477H6.00482H6.00488H6.00494H6.00499H6.00505H6.00511H6.00516H6.00522H6.00528H6.00533H6.00539H6.00545H6.0055H6.00556H6.00562H6.00567H6.00573H6.00579H6.00584H6.0059H6.00596H6.00601H6.00607H6.00612H6.00618H6.00624H6.00629H6.00635H6.0064H6.00646H6.00652H6.00657H6.00663H6.00668H6.00674H6.00679H6.00685H6.00691H6.00696H6.00702H6.00707H6.00713H6.00718H6.00724H6.00729H6.00735H6.0074H6.00746H6.00751H6.00757H6.00762H6.00768H6.00773H6.00778H6.00784H6.00789H6.00795H6.008H6.00806H6.00811H6.00816H6.00822H6.00827H6.00833H6.00838H6.00843H6.00849H6.00854H6.0086H6.00865H6.0087H6.00876H6.00881H6.00886H6.00892H6.00897H6.00902H6.00907H6.00913H6.00918H6.00923H6.00929H6.00934H6.00939H6.00944H6.0095H6.00955H6.0096H6.00965H6.0097H6.00976H6.00981H6.00986H6.00991H6.00996H6.01002H6.01007H6.01012H6.01017H6.01022H6.01027H6.01032H6.01037H6.01042H6.01048H6.01053H6.01058H6.01063H6.01068H6.01073H6.01078H6.01083H6.01088H6.01093H6.01098H6.01103H6.01108H6.01113H6.01118H6.01123H6.01128H6.01133H6.01138H6.01143H6.01148H6.01152H6.01157H6.01162H6.01167H6.01172H6.01177H6.01182H6.01186H6.01191H6.01196H6.01201H6.01206H6.0121H6.01215H6.0122H6.01225H6.0123H6.01234H6.01239H6.01244H6.01248H6.01253H6.01258H6.01263H6.01267H6.01272H6.01276H6.01281H6.01286H6.0129H6.01295H6.013H6.01304H6.01309H6.01313H6.01318H6.01322H6.01327H6.01331H6.01336H6.0134H6.01345H6.01349H6.01354H6.01358H6.01363H6.01367H6.01372H6.01376H6.0138H6.01385H6.01389H6.01393H6.01398H6.01402H6.01407H6.01411H6.01415H6.01419H6.01424H6.01428H6.01432H6.01436H6.01441H6.01445H6.01449H6.01453H6.01457H6.01462H6.01466H6.0147H6.01474H6.01478H6.01482H6.01486H6.0149H6.01495H6.01499H6.01503H6.01507H6.01511H6.01515H6.01519H6.01523H6.01527H6.01531H6.01535H6.01538H6.01542H6.01546H6.0155H6.01554H6.01558H6.01562H6.01566H6.01569H6.01573H6.01577H6.01581H6.01585H6.01588H6.01592H6.01596H6.01599H6.01603H6.01607H6.0161H6.01614H6.01618H6.01621H6.01625H6.01629H6.01632H6.01636H6.01639H6.01643H6.01646H6.0165H6.01653H6.01657H6.0166H6.01664H6.01667H6.01671H6.01674H6.01677H6.01681H6.01684H6.01688H6.01691H6.01694H6.01697H6.01701H6.01704H6.01707H6.01711H6.01714H6.01717H6.0172H6.01723H6.01727H6.0173H6.01733H6.01736H6.01739H6.01742H6.01745H6.01748H6.01751H6.01754H6.01757H6.0176H6.01763H6.01766H6.01769H6.01772H6.01775H6.01778H6.01781H6.01784H6.01787H6.01789H6.01792H6.01795H6.01798H6.018H6.01803H6.01806H6.01809H6.01811H6.01814H6.01817H6.01819H6.01822H6.01825H6.01827H6.0183H6.01832H6.01835H6.01837H6.0184H6.01842H6.01845H6.01847H6.0185H6.01852H6.01855H6.01857H6.01859H6.01862H6.01864H6.01866H6.01869H6.01871H6.01873H6.01875H6.01878H6.0188H6.01882H6.01884H6.01886H6.01888H6.01891H6.01893H6.01895H6.01897H6.01899H6.01901H6.01903H6.01905H6.01907H6.01909H6.01911H6.01913H6.01915H6.01916H6.01918H6.0192H6.01922H6.01924H6.01925H6.01927H6.01929H6.01931H6.01932H6.01934H6.01936H6.01937H6.01939H6.01941H6.01942H6.01944H6.01945H6.01947H6.01948H6.0195H6.01951H6.01953H6.01954H6.01956H6.01957H6.01958H6.0196H6.01961H6.01962H6.01964H6.01965H6.01966H6.01967H6.01969H6.0197H6.01971H6.01972H6.01973H6.01974H6.01975H6.01976H6.01977H6.01978H6.01979H6.0198H6.01981H6.01982H6.01983H6.01984H6.01985H6.01986H6.01987H6.01987H6.01988H6.01989H6.0199H6.0199H6.01991H6.01992H6.01992H6.01993H6.01994H6.01994H6.01995H6.01995H6.01996H6.01996H6.01997H6.01997H6.01998H6.01998H6.01999H6.01999H6.01999H6.02H6.02001H6.02001H6.02001H6.02002Z" stroke="#333333" stroke-miterlimit="5" stroke-linecap="round" stroke-linejoin="round"/>
</svg>
