<svg width="24" height="24" viewBox="0 0 24 24" fill="none" xmlns="http://www.w3.org/2000/svg">
<path d="M10 16.9971C10.5523 16.9971 11 16.5494 11 15.9971C11 15.4448 10.5523 14.9971 10 14.9971C9.44772 14.9971 9 15.4448 9 15.9971C9 16.5494 9.44772 16.9971 10 16.9971Z" fill="#333333"/>
<path d="M13 18.9971C13.5523 18.9971 14 18.5494 14 17.9971C14 17.4448 13.5523 16.9971 13 16.9971C12.4477 16.9971 12 17.4448 12 17.9971C12 18.5494 12.4477 18.9971 13 18.9971Z" fill="#333333"/>
<path d="M13 14.9971C13.5523 14.9971 14 14.5494 14 13.9971C14 13.4448 13.5523 12.9971 13 12.9971C12.4477 12.9971 12 13.4448 12 13.9971C12 14.5494 12.4477 14.9971 13 14.9971Z" fill="#333333"/>
<path d="M10 20.9971C10.5523 20.9971 11 20.5494 11 19.9971C11 19.4448 10.5523 18.9971 10 18.9971C9.44772 18.9971 9 19.4448 9 19.9971C9 20.5494 9.44772 20.9971 10 20.9971Z" fill="#333333"/>
<path d="M6.02002 12C6.53651 12 6.96802 11.6067 7.01575 11.0924C7.22873 8.797 9.15411 7 11.5 7C13.2576 7 14.7885 8.01257 15.5253 9.48865C15.7184 9.87537 16.1382 10.0944 16.5658 10.0312C16.7068 10.0105 16.848 10 17 10C18.6574 10 20 11.344 20 13C20 14.656 18.6574 16 17 16H16.5C16.2239 16 16 16.2239 16 16.5C16 16.7761 16.2239 17 16.5 17H17C19.21 17 21 15.208 21 13C21 10.792 19.21 9 17 9C16.8 9 16.61 9.01404 16.42 9.04199C15.5201 7.23901 13.65 6 11.5 6C8.63 6 6.28001 8.198 6.02002 11H6C4.34 11 3 12.344 3 14C3 15.656 4.34 17 6 17H6.5C6.77614 17 7 16.7761 7 16.5C7 16.2239 6.77614 16 6.5 16H6C4.89316 16 4 15.1046 4 14C4 12.8954 4.89362 12 6.00047 12H6.02002Z" fill="black"/>
</svg>
