<svg width="24" height="24" viewBox="0 0 24 24" fill="none" xmlns="http://www.w3.org/2000/svg">
<path d="M6 17C4.34 17 3 15.656 3 14C3 12.344 4.34 11 6 11C6.01 11 6.02002 11 6.02002 11C6.28002 8.198 8.63 6 11.5 6C13.65 6 15.52 7.23899 16.42 9.04199C16.61 9.01399 16.8 9 17 9C19.21 9 21 10.792 21 13C21 15.208 19.21 17 17 17" stroke="black" stroke-width="2" stroke-miterlimit="5" stroke-linecap="round" stroke-linejoin="round"/>
<path fill-rule="evenodd" clip-rule="evenodd" d="M9.5 12.4971L8.5 17.4971H10.5L9.5 21.4971L14.5 15.4971H12.5L14.5 12.4971H9.5Z" stroke="black" stroke-miterlimit="100" stroke-linecap="round" stroke-linejoin="round"/>
<path fill-rule="evenodd" clip-rule="evenodd" d="M6.02002 11C6.28002 8.198 8.63 6 11.5 6C13.65 6 15.52 7.23899 16.42 9.04199C16.61 9.01399 16.8 9 17 9C19.21 9 21 10.792 21 13C21 15.208 19.21 17 17 17H13.5L14.5 15.5H12.5L14.5 12.5H9.5L8.5 17H6C4.34 17 3 15.656 3 14C3 12.344 4.34 11 6 11C6.01 11 6.02002 11 6.02002 11Z" fill="black" fill-opacity="0.1"/>
</svg>
