<?xml version="1.0" encoding="UTF-8" standalone="no"?>
<!DOCTYPE svg PUBLIC "-//W3C//DTD SVG 1.1//EN" "http://www.w3.org/Graphics/SVG/1.1/DTD/svg11.dtd">
<svg width="25px" height="25px" version="1.1" xmlns="http://www.w3.org/2000/svg" xmlns:xlink="http://www.w3.org/1999/xlink" xml:space="preserve" xmlns:serif="http://www.serif.com/" style="fill-rule:evenodd;clip-rule:evenodd;stroke-linecap:round;stroke-miterlimit:5;">
    <g transform="matrix(1,0,0,1,-722,-1324)">
        <g id="weather.thin.snowflake" transform="matrix(1,0,0,1,-845.023,554.893)">
            <rect x="1568" y="770" width="24" height="24" style="fill:none;"/>
            <clipPath id="_clip1">
                <rect x="1568" y="770" width="24" height="24"/>
            </clipPath>
            <g clip-path="url(#_clip1)">
                <g>
                    <g transform="matrix(1,0,0,1,1231.48,-507.393)">
                        <path d="M348,1279.89L348,1297.89" style="fill:none;stroke:rgb(51,51,51);stroke-width:1px;"/>
                    </g>
                    <g transform="matrix(1,0,0,1,1231.48,-506.893)">
                        <path d="M345.5,1280.89L348,1282.89L350.5,1280.89" style="fill:none;stroke:rgb(51,51,51);stroke-width:1px;"/>
                    </g>
                    <g transform="matrix(1,0,0,-1,1231.48,2069.99)">
                        <path d="M345.5,1280.89L348,1282.89L350.5,1280.89" style="fill:none;stroke:rgb(51,51,51);stroke-width:1px;"/>
                    </g>
                </g>
                <g transform="matrix(0.5,-0.866025,0.866025,0.5,112.768,1759.32)">
                    <g transform="matrix(1,0,0,1,1232.17,-507.591)">
                        <path d="M348,1279.89L348,1297.89" style="fill:none;stroke:rgb(51,51,51);stroke-width:1px;"/>
                    </g>
                    <g transform="matrix(1,0,0,1,1232.17,-507.091)">
                        <path d="M345.5,1280.89L348,1282.89L350.5,1280.89" style="fill:none;stroke:rgb(51,51,51);stroke-width:1px;"/>
                    </g>
                    <g transform="matrix(1,0,0,-1,1232.17,2069.79)">
                        <path d="M345.5,1280.89L348,1282.89L350.5,1280.89" style="fill:none;stroke:rgb(51,51,51);stroke-width:1px;"/>
                    </g>
                </g>
                <g transform="matrix(-0.5,-0.866025,0.866025,-0.5,1692.77,2541.32)">
                    <g transform="matrix(1,0,0,1,1232.69,-507.091)">
                        <path d="M348,1279.89L348,1297.89" style="fill:none;stroke:rgb(51,51,51);stroke-width:1px;"/>
                    </g>
                    <g transform="matrix(1,0,0,1,1232.69,-506.591)">
                        <path d="M345.5,1280.89L348,1282.89L350.5,1280.89" style="fill:none;stroke:rgb(51,51,51);stroke-width:1px;"/>
                    </g>
                    <g transform="matrix(1,0,0,-1,1232.69,2070.29)">
                        <path d="M345.5,1280.89L348,1282.89L350.5,1280.89" style="fill:none;stroke:rgb(51,51,51);stroke-width:1px;"/>
                    </g>
                </g>
            </g>
        </g>
    </g>
</svg>
