<svg width="24" height="24" viewBox="0 0 24 24" fill="none" xmlns="http://www.w3.org/2000/svg">
<path fill-rule="evenodd" clip-rule="evenodd" d="M9.06306 4.23497L9.10047 4.23985L9.13796 4.24483L9.16696 4.24414L9.20305 4.25051L9.23772 4.25831L9.2723 4.26603L9.30556 4.27524L9.33811 4.28516L9.37773 4.30216L9.40878 4.31341L9.43921 4.32545L9.4753 4.34598L9.50422 4.35935L9.53889 4.3813L9.56579 4.39687L9.59904 4.42024L9.62373 4.43785L9.65487 4.46334L9.67823 4.48245L9.70787 4.50926L9.73618 4.53757L9.7567 4.55952L9.7829 4.58994L9.80192 4.61322L9.8267 4.64506L9.84369 4.67054L9.86626 4.70442L9.88184 4.73131L9.89599 4.75962L9.91653 4.79571L9.92919 4.82534L9.94124 4.85577L9.95186 4.88761L9.96886 4.92724L9.9787 4.95969L9.9872 4.99366L9.995 5.02832L10.0021 5.0637L10.0084 5.0997L10.007 5.12941L10.0112 5.16762L10.0155 5.20581L10.012 5.23765L10.0141 5.27789L10.0091 5.31114L10.0035 5.3451L9.99433 5.45333L9.98651 5.56007L9.9787 5.6668L9.97238 5.7722L9.97377 5.8839L9.96816 5.9886L9.96387 6.0918L9.96738 6.20137L9.97097 6.31102L9.97589 6.41918L9.9816 6.52672L9.98085 6.62638L9.99498 6.73949L10.0028 6.8449L10.0113 6.94953L10.0204 7.05345L10.0382 7.16311L10.0487 7.26561L10.0678 7.37377L10.0877 7.48132L10.1082 7.58806L10.1223 7.68702L10.1512 7.79944L10.1746 7.90345L10.1986 8.00666L10.2234 8.10916L10.2488 8.21096L10.2821 8.31922L10.3097 8.4189L10.345 8.52495L10.374 8.62321L10.4115 8.72722L10.4497 8.83045L10.4885 8.93296L10.5281 9.03476L10.5691 9.13516L10.6109 9.23493L10.654 9.3332L10.6979 9.43076L10.7424 9.52762L10.7947 9.63084L10.8414 9.72566L10.8966 9.82607L10.9446 9.91939L11.0019 10.0177L11.0521 10.1089L11.1108 10.2057L11.1709 10.3012L11.2318 10.396L11.2862 10.483L11.3491 10.5756L11.4127 10.6675L11.4778 10.758L11.5442 10.8471L11.6185 10.9425L11.6864 11.0302L11.7557 11.1165L11.8264 11.2014L11.9049 11.2926L11.9777 11.3753L12.0513 11.4573L12.1333 11.545L12.2097 11.6242L12.2938 11.7098L12.3723 11.7868L12.4585 11.8703L12.5391 11.9452L12.6282 12.0258L12.711 12.0987L12.7952 12.1701L12.88 12.2408L12.9733 12.3172L13.061 12.3851L13.1494 12.4522L13.2385 12.5187L13.329 12.5837L13.4209 12.6474L13.5136 12.7104L13.6069 12.7726L13.7017 12.8334L13.7907 12.8857L13.8876 12.9444L13.9852 13.0023L14.0842 13.0589L14.1769 13.1078L14.278 13.1622L14.3727 13.2088L14.4682 13.2548L14.5721 13.3064L14.6696 13.3502L14.768 13.3934L14.8677 13.4351L14.9681 13.4761L15.0692 13.5164L15.1717 13.5553L15.275 13.5935L15.3718 13.6239L15.4772 13.66L15.5832 13.6953L15.683 13.7229L15.7905 13.7569L15.8923 13.7823L15.9941 13.8077L16.0974 13.8318L16.2013 13.8551L16.3066 13.877L16.419 13.906L16.5188 13.9195L16.6262 13.9393L16.7344 13.9583L16.8363 13.9697L16.9459 13.9874L17.0491 13.9972L17.1609 14.0129L17.2655 14.0213L17.3715 14.0283L17.4776 14.0355L17.5851 14.0411L17.6932 14.046L17.8022 14.0503L17.904 14.0475L18.0143 14.0503L18.1182 14.0454L18.2299 14.0467L18.3346 14.0411L18.4407 14.034L18.5475 14.0263L18.6542 14.0185L18.6882 14.0128L18.7285 14.015L18.761 14.0107L18.7999 14.0142L18.8303 14.0121L18.8678 14.0171L18.8975 14.0157L18.9335 14.022L18.9682 14.0298L19.0028 14.0376L19.0361 14.0468L19.0686 14.0567L19.1011 14.0665L19.1322 14.0779L19.1627 14.0899L19.1924 14.1027L19.2277 14.1238L19.256 14.138L19.2829 14.1536L19.3167 14.1761L19.3422 14.1931L19.3734 14.2186L19.3974 14.237L19.42 14.2567L19.4497 14.2836L19.4702 14.3056L19.4979 14.3346L19.5169 14.3579L19.5424 14.389L19.5601 14.4138L19.584 14.4462L19.5996 14.4731L19.6216 14.5078L19.635 14.5368L19.6555 14.5728L19.6675 14.6032L19.6788 14.6344L19.6902 14.6655L19.7 14.698L19.7092 14.7312L19.717 14.7659L19.7248 14.8006L19.7318 14.8359L19.7382 14.8719L19.7368 14.9017L19.7425 14.9385L19.7397 14.9696L19.7431 15.0084L19.7396 15.0402L19.7354 15.0728L19.7305 15.106L19.7248 15.14L19.7185 15.1746L19.712 15.2092L19.705 15.2446L19.6908 15.2729L19.6831 15.309L19.6675 15.3387L19.6583 15.3761L19.6421 15.4066L19.6258 15.437L19.6088 15.468L19.584 15.4928L19.5671 15.5239L19.519 15.6003L19.4709 15.6766L19.4229 15.753L19.367 15.823L19.3175 15.9008L19.2617 15.9708L19.2051 16.0415L19.1485 16.1122L19.0912 16.1836L19.0339 16.255L18.9696 16.3194L18.9116 16.3915L18.8465 16.4566L18.7886 16.5287L18.7235 16.5937L18.6578 16.6595L18.5849 16.7323L18.5121 16.8052L18.4322 16.8709L18.3601 16.943L18.2808 17.0081L18.2016 17.0732L18.1302 17.1446L18.0517 17.2089L17.9733 17.2733L17.8885 17.3299L17.8107 17.3935L17.7258 17.4501L17.6487 17.513L17.5653 17.5681L17.4811 17.624L17.3984 17.6784L17.315 17.7336L17.2323 17.7881L17.1502 17.8418L17.0682 17.8955L16.9791 17.9422L16.8907 17.9882L16.8094 18.0412L16.7217 18.0865L16.634 18.1317L16.547 18.1762L16.4537 18.213L16.3674 18.2569L16.2811 18.3007L16.1886 18.3368L16.103 18.3799L16.011 18.4153L15.9198 18.4499L15.8286 18.4846L15.7381 18.5185L15.6476 18.5524L15.5507 18.5786L15.4609 18.6118L15.3718 18.6443L15.2764 18.6691L15.188 18.7009L15.0933 18.725L14.9992 18.7483L14.9051 18.7716L14.8118 18.7943L14.7184 18.8169L14.6195 18.8311L14.5268 18.853L14.4356 18.8734L14.3373 18.8869L14.2397 18.8996L14.15 18.9187L14.0531 18.9307L13.9569 18.9421L13.8614 18.9526L13.766 18.9633L13.6719 18.9724L13.5779 18.9817L13.4775 18.983L13.3842 18.9916L13.2844 18.9922L13.1933 18.9987L13.0949 18.9979L12.9967 18.9972L12.8997 18.9951L12.81 19L12.7139 18.9973L12.6113 18.9866L12.5166 18.9824L12.4225 18.9774L12.3285 18.9725L12.2287 18.959L12.1361 18.9527L12.0442 18.9456L11.9459 18.9307L11.8483 18.9152L11.7585 18.906L11.6623 18.889L11.5662 18.8721L11.4714 18.8536L11.3774 18.8346L11.2834 18.8155L11.19 18.7957L11.091 18.7674L10.9991 18.7462L10.9086 18.7235L10.811 18.6939L10.7212 18.6706L10.625 18.6394L10.5373 18.614L10.4426 18.5815L10.3485 18.5482L10.263 18.5206L10.1704 18.486L10.0792 18.45L9.9879 18.4138L9.89812 18.3764L9.80834 18.3389L9.7199 18.3L9.63223 18.2604L9.53821 18.213L9.45197 18.172L9.36634 18.1303L9.27444 18.0808L9.19031 18.0377L9.10761 17.9932L9.01773 17.9415L8.93644 17.8955L8.84878 17.8418L8.76182 17.7874L8.68256 17.7392L8.59773 17.6827L8.5129 17.6261L8.42947 17.5682L8.34676 17.5095L8.27174 17.4571L8.19115 17.3963L8.11055 17.3355L8.03138 17.2733L7.94583 17.2033L7.86868 17.1389L7.79162 17.0746L7.71599 17.0088L7.64104 16.9424L7.56752 16.8745L7.48764 16.7989L7.41544 16.7295L7.34404 16.6595L7.26698 16.581L7.1977 16.5089L7.12912 16.4361L7.06117 16.3625L6.98765 16.2805L6.9219 16.2048L6.85757 16.1278L6.79324 16.0507L6.73024 15.9722L6.66803 15.893L6.60724 15.8124L6.54644 15.7318L6.48706 15.6498L6.4283 15.567L6.37034 15.4836L6.32086 15.4058L6.26431 15.321L6.20918 15.2347L6.15466 15.1477L6.10802 15.0671L6.055 14.9787L6.01048 14.896L5.95878 14.8062L5.91568 14.722L5.87328 14.6372L5.82451 14.5446L5.78343 14.4583L5.74314 14.3713L5.70358 14.2837L5.65762 14.1882L5.62717 14.1054L5.58264 14.0086L5.5466 13.9174L5.51755 13.8332L5.48293 13.7406L5.44831 13.648L5.4151 13.5539L5.38959 13.4662L5.35708 13.3715L5.33307 13.2824L5.3026 13.1855L5.28001 13.095L5.25033 12.9974L5.22906 12.9055L5.20788 12.8136L5.18812 12.7203L5.16896 12.6262L5.14991 12.5321L5.13156 12.4374L5.11453 12.3412L5.09759 12.2451L5.08127 12.1481L5.07282 12.0577L5.058 11.9594L5.0438 11.8604L5.03748 11.7678L5.03107 11.6751L5.01908 11.574L5.01417 11.48L5.00987 11.3852L5.00638 11.2898L5.00351 11.1936L5.00141 11.0967L4.99924 10.9998L4.99857 10.9016L5.0049 10.8103L5.00423 10.712L5.01196 10.6194L5.01342 10.519L5.02196 10.4257L5.03111 10.3316L5.03326 10.2305L5.04383 10.135L5.06147 10.0466L5.07283 9.9505L5.08481 9.85358L5.09688 9.75675L5.10956 9.65913L5.13012 9.56796L5.14351 9.46964L5.16548 9.37706L5.18666 9.2851L5.20925 9.19173L5.23193 9.09844L5.25524 9.00436L5.27862 8.91037L5.30263 8.81558L5.32734 8.72008L5.35922 8.63176L5.38464 8.53556L5.41785 8.44572L5.45114 8.35598L5.48506 8.26544L5.51897 8.17491L5.5466 8.07667L5.58829 7.99251L5.62363 7.90055L5.65974 7.80798L5.70285 7.7224L5.7396 7.62903L5.78351 7.54283L5.82732 7.45654L5.87185 7.36955L5.91708 7.28185L5.96232 7.19414L6.00835 7.10582L6.05429 7.01741L6.10802 6.93537L6.16175 6.85333L6.20848 6.76431L6.26291 6.68156L6.31806 6.5981L6.37248 6.51537L6.42834 6.4312L6.48347 6.34775L6.5464 6.27067L6.60304 6.18589L6.66667 6.1081L6.73031 6.03031L6.79464 5.95182L6.85898 5.87332L6.92332 5.79483L6.98837 5.71562L7.0605 5.64349L7.12554 5.5643L7.19838 5.49146L7.27121 5.41863L7.34404 5.3458L7.4098 5.28003L7.47485 5.21498L7.5399 5.14993L7.61204 5.09195L7.67709 5.0269L7.74852 4.96963L7.81287 4.90528L7.88428 4.84802L7.95571 4.79075L8.02643 4.73419L8.09715 4.67762L8.16716 4.62177L8.2378 4.56512L8.31488 4.51635L8.38418 4.4612L8.46127 4.41242L8.4938 4.39405L8.51855 4.3693L8.55038 4.35162L8.5815 4.33466L8.61969 4.32478L8.65011 4.30852L8.6868 4.29996L8.71651 4.28441L8.7533 4.27593L8.78159 4.2618L8.81696 4.25474L8.85162 4.2484L8.88628 4.24204L8.91944 4.23703L8.95977 4.23916L8.99231 4.23493L9.03122 4.23849L9.06306 4.23497ZM8.96541 5.28002L8.90319 5.32809L8.83396 5.36918L8.77173 5.41726L8.70879 5.46604L8.64656 5.51412L8.58362 5.5629L8.52705 5.61946L8.46411 5.66826L8.40046 5.71775L8.3439 5.77431L8.28733 5.83088L8.22297 5.88108L8.1657 5.93835L8.10842 5.99563L8.05115 6.0529L7.98751 6.11654L7.92316 6.18089L7.85952 6.24453L7.80296 6.31524L7.74003 6.37818L7.68417 6.44819L7.62123 6.51113L7.56609 6.58043L7.51094 6.64973L7.4558 6.71903L7.40065 6.78833L7.3532 6.86393L7.29947 6.93181L7.25281 7.00678L7.19837 7.07538L7.15243 7.14963L7.10647 7.2239L7.06053 7.29815L7.01529 7.37171L6.96996 7.44517L6.92542 7.51802L6.8809 7.59086L6.84343 7.67079L6.79891 7.74363L6.76207 7.82277L6.71894 7.8942L6.68291 7.97271L6.64686 8.05122L6.61223 8.12832L6.57681 8.20603L6.54219 8.28312L6.51463 8.36731L6.48063 8.4436L6.45379 8.52707L6.42058 8.60275L6.39515 8.6848L6.36893 8.76747L6.33642 8.84245L6.3117 8.92379L6.2876 9.00434L6.26358 9.08499L6.24665 9.17269L6.22326 9.25254L6.20065 9.33177L6.17805 9.41099L6.16245 9.4972L6.14834 9.5821L6.12644 9.66061L6.11296 9.74471L6.09956 9.82889L6.08678 9.91227L6.07408 9.99575L6.06209 10.0785L6.05002 10.1612L6.03875 10.2432L6.03516 10.3316L6.02459 10.4129L6.02172 10.5006L6.01256 10.5805L6.01119 10.6668L6.00265 10.746L6.00199 10.8316L6.00123 10.9171L6.00127 11.002L6.00194 11.0861L6.0034 11.1696L6.00477 11.253L6.00693 11.3357L6.00971 11.4177L6.02036 11.5062L6.02386 11.5874L6.03522 11.6751L6.04013 11.755L6.05219 11.842L6.05851 11.9205L6.072 12.0061L6.0861 12.0909L6.101 12.1751L6.11581 12.2592L6.13203 12.3419L6.14835 12.4247L6.16528 12.5067L6.183 12.588L6.20064 12.6693L6.21978 12.7493L6.23954 12.8284L6.26638 12.9146L6.28694 12.9932L6.31519 13.078L6.33716 13.1551L6.36683 13.2385L6.3965 13.3219L6.42059 13.3969L6.45166 13.4789L6.48425 13.5596L6.50967 13.6331L6.54287 13.713L6.57687 13.7922L6.61219 13.87L6.64752 13.9477L6.68363 14.0249L6.72037 14.1012L6.75782 14.1768L6.80313 14.2589L6.84199 14.3331L6.88156 14.4066L6.92122 14.4802L6.96927 14.5594L7.01096 14.6308L7.06052 14.7086L7.10363 14.7786L7.15451 14.8549L7.19911 14.9236L7.25141 14.9985L7.29734 15.0657L7.35185 15.1386L7.40627 15.2114L7.45433 15.2764L7.51096 15.3472L7.5675 15.4179L7.62546 15.4871L7.68343 15.5564L7.74289 15.6243L7.80296 15.6915L7.86375 15.7579L7.92533 15.8238L7.98824 15.8881L8.05115 15.9524L8.11547 16.0153L8.17988 16.0783L8.24562 16.1398L8.31206 16.2006L8.3793 16.2607L8.44716 16.3201L8.50935 16.371L8.57862 16.429L8.6494 16.4856L8.72008 16.5421L8.79218 16.5973L8.85799 16.6447L8.93151 16.6984L9.00502 16.7521L9.07296 16.7974L9.1486 16.849L9.21787 16.8928L9.29492 16.943L9.36569 16.9855L9.44485 17.0336L9.51624 17.0753L9.58984 17.1149L9.67042 17.1616L9.74464 17.2004L9.81965 17.2387L9.89527 17.2761L9.97169 17.3129L10.0487 17.349L10.1265 17.3843L10.2043 17.4197L10.2835 17.4536L10.3634 17.4868L10.444 17.5194L10.5246 17.5519L10.5996 17.576L10.6816 17.6071L10.7643 17.6374L10.8414 17.6594L10.9255 17.6884L11.0033 17.7095L11.0889 17.7372L11.1674 17.7576L11.2473 17.7768L11.3272 17.7958L11.4156 17.8206L11.4969 17.8383L11.5789 17.8552L11.6617 17.8715L11.7443 17.8877L11.8286 17.9026L11.9127 17.9174L11.9905 17.9246L12.076 17.938L12.1616 17.9514L12.2415 17.9563L12.3285 17.9684L12.4091 17.9726L12.4974 17.9832L12.5788 17.9868L12.6608 17.9896L12.7435 17.9917L12.834 18.0001L12.9175 18.0016L13.0017 18.0024L13.0865 18.0023L13.165 17.9946L13.2505 17.9938L13.3368 17.9924L13.4159 17.9839L13.503 17.9818L13.5835 17.9719L13.672 17.9684L13.7533 17.9578L13.8353 17.9464L13.9251 17.9415L14.0078 17.9295L14.0913 17.9168L14.1747 17.904L14.2518 17.8835L14.3359 17.8701L14.4215 17.8552L14.4993 17.834L14.5856 17.8185L14.6647 17.7958L14.751 17.7803L14.8309 17.757L14.9115 17.7329L14.9921 17.7089L15.0728 17.6849L15.1547 17.6593L15.2361 17.6346L15.3181 17.6092L15.3937 17.5759L15.4765 17.5498L15.5529 17.5158L15.6363 17.489L15.7133 17.4543L15.7904 17.4197L15.8682 17.3843L15.9453 17.3497L16.0238 17.3136L16.1023 17.2775L16.1808 17.2415L16.2529 17.1977L16.3328 17.1601L16.4049 17.1163L16.4855 17.0781L16.5584 17.0336L16.6319 16.9883L16.7055 16.9431L16.7796 16.8971L16.8468 16.844L16.9218 16.7974L16.9968 16.7507L17.0647 16.697L17.1396 16.6503L17.2082 16.5959L17.2775 16.5408L17.3468 16.4856L17.416 16.4304L17.4853 16.3752L17.5554 16.3194L17.6183 16.2564L17.6883 16.2006L17.7519 16.1369L17.8227 16.0804L17.8863 16.0168L17.9506 15.9524L18.0079 15.8951L18.0645 15.8386L18.1147 15.7742L18.1705 15.7183L18.2257 15.6632L18.2738 15.601L18.3211 15.5394L18.3756 15.485L18.4215 15.4249L18.4676 15.3648L18.5128 15.3054L18.5581 15.246L18.5955 15.1803L18.6394 15.1223L18.6754 15.0579L18.7044 15.0148L18.6231 15.0254L18.5029 15.0324L18.3827 15.0395L18.2632 15.0459L18.1451 15.0508L18.0207 15.048L17.9039 15.0515L17.7802 15.048L17.6579 15.0431L17.537 15.0367L17.4231 15.0374L17.2966 15.0226L17.1778 15.0141L17.0597 15.0049L16.9423 14.995L16.8186 14.9773L16.7033 14.9653L16.5817 14.9455L16.4608 14.925L16.3406 14.9038L16.2218 14.8811L16.1037 14.8578L15.9871 14.8331L15.871 14.8076L15.7558 14.7814L15.6342 14.7475L15.5211 14.7192L15.4016 14.6832L15.2835 14.6457L15.1731 14.6145L15.0564 14.5757L14.9412 14.5354L14.8267 14.4944L14.7135 14.4519L14.594 14.4017L14.4823 14.3579L14.372 14.3127L14.2561 14.2589L14.1478 14.2115L14.034 14.1556L13.9279 14.1061L13.8162 14.0481L13.7052 13.9895L13.5956 13.9294L13.4874 13.8679L13.3799 13.8056L13.2731 13.7427L13.1685 13.6776L13.0645 13.6119L12.9613 13.5454L12.8531 13.4698L12.7527 13.4005L12.653 13.3305L12.5484 13.2513L12.4515 13.1784L12.349 13.0971L12.2471 13.0151L12.1545 12.938L12.0555 12.8532L11.9572 12.7676L11.861 12.6799L11.7734 12.5979L11.6793 12.5081L11.5867 12.4169L11.4955 12.3242L11.4057 12.2302L11.3166 12.1354L11.2296 12.0386L11.1433 11.941L11.0655 11.849L10.9814 11.7493L10.9064 11.6546L10.8251 11.5521L10.7452 11.4481L10.6731 11.3505L10.6031 11.2508L10.5267 11.1433L10.4581 11.0422L10.3846 10.9319L10.3188 10.828L10.2545 10.7226L10.1908 10.6166L10.1286 10.5091L10.0678 10.4002L10.0077 10.2906L9.9561 10.1867L9.89813 10.0749L9.84156 9.96181L9.79349 9.85434L9.73905 9.73908L9.69238 9.63021L9.64007 9.51283L9.59615 9.40102L9.55303 9.28861L9.51061 9.17548L9.46961 9.06094L9.43001 8.94499L9.39114 8.82832L9.35296 8.71095L9.32328 8.59925L9.28715 8.47967L9.2525 8.35877L9.22566 8.24423L9.1995 8.129L9.1677 8.00526L9.14368 7.88789L9.12098 7.76903L9.09836 7.65026L9.07717 7.53007L9.06447 7.41553L9.0446 7.29385L9.03331 7.1779L9.01565 7.05418L9.00648 6.93612L8.99723 6.81796L8.9824 6.69141L8.97605 6.57052L8.9768 6.45671L8.97108 6.33502L8.96686 6.21201L8.97042 6.09537L8.96753 5.97086L8.97251 5.8528L8.97891 5.73333L8.98521 5.61378L8.99302 5.49289L9.00155 5.37129L9.01068 5.24892L9.01209 5.2475L8.96541 5.28002Z" fill="black"/>
<path fill-rule="evenodd" clip-rule="evenodd" d="M8.96541 5.28001L8.90319 5.32807L8.83396 5.36916L8.77173 5.41724L8.70879 5.46602L8.64656 5.5141L8.58362 5.56288L8.52705 5.61945L8.46411 5.66824L8.40046 5.71773L8.3439 5.77429L8.28733 5.83086L8.22297 5.88106L8.1657 5.93833L8.10842 5.99562L8.05115 6.05289L7.98751 6.11652L7.92316 6.18087L7.85952 6.24451L7.80296 6.31523L7.74003 6.37816L7.68417 6.44818L7.62124 6.51111L7.56609 6.58041L7.51094 6.64971L7.4558 6.71902L7.40065 6.78832L7.3532 6.86391L7.29947 6.9318L7.25281 7.00676L7.19837 7.07536L7.15243 7.14962L7.10647 7.22388L7.06053 7.29814L7.01529 7.37169L6.96996 7.44516L6.92542 7.51801L6.8809 7.59085L6.84343 7.67078L6.79891 7.74362L6.76207 7.82275L6.71894 7.89419L6.68291 7.97269L6.64686 8.05121L6.61224 8.1283L6.57681 8.20602L6.54219 8.28311L6.51463 8.36729L6.48063 8.44358L6.45379 8.52705L6.42058 8.60273L6.39515 8.68478L6.36893 8.76745L6.33642 8.84243L6.3117 8.92377L6.2876 9.00433L6.26358 9.08497L6.24665 9.17268L6.22326 9.25252L6.20066 9.33175L6.17805 9.41098L6.16245 9.49719L6.14834 9.58208L6.12644 9.66059L6.11296 9.74469L6.09956 9.82887L6.08678 9.91225L6.07408 9.99573L6.0621 10.0785L6.05002 10.1612L6.03875 10.2432L6.03516 10.3316L6.02459 10.4129L6.02172 10.5006L6.01256 10.5805L6.01119 10.6668L6.00266 10.746L6.00199 10.8316L6.00123 10.9171L6.00127 11.002L6.00194 11.0861L6.0034 11.1695L6.00477 11.2529L6.00693 11.3357L6.00971 11.4177L6.02036 11.5061L6.02386 11.5874L6.03522 11.6751L6.04013 11.755L6.05219 11.842L6.05851 11.9205L6.072 12.0061L6.0861 12.0909L6.101 12.1751L6.11581 12.2592L6.13203 12.3419L6.14835 12.4247L6.16528 12.5066L6.183 12.588L6.20064 12.6693L6.21979 12.7492L6.23954 12.8284L6.26639 12.9146L6.28694 12.9932L6.31519 13.078L6.33717 13.1551L6.36683 13.2385L6.3965 13.3219L6.42059 13.3969L6.45166 13.4789L6.48425 13.5596L6.50967 13.6331L6.54287 13.713L6.57687 13.7922L6.61219 13.87L6.64752 13.9477L6.68363 14.0248L6.72037 14.1012L6.75782 14.1768L6.80314 14.2589L6.84199 14.3331L6.88157 14.4066L6.92122 14.4802L6.96927 14.5594L7.01096 14.6308L7.06052 14.7086L7.10363 14.7786L7.15451 14.8549L7.19911 14.9236L7.25141 14.9985L7.29734 15.0657L7.35185 15.1385L7.40627 15.2114L7.45433 15.2764L7.51097 15.3471L7.5675 15.4178L7.62546 15.4871L7.68343 15.5564L7.74289 15.6243L7.80296 15.6915L7.86375 15.7579L7.92533 15.8237L7.98824 15.8881L8.05115 15.9524L8.11547 16.0153L8.17988 16.0783L8.24562 16.1398L8.31206 16.2006L8.3793 16.2607L8.44716 16.3201L8.50935 16.371L8.57862 16.429L8.6494 16.4856L8.72008 16.5421L8.79218 16.5973L8.85799 16.6447L8.93151 16.6984L9.00502 16.7521L9.07296 16.7974L9.1486 16.849L9.21787 16.8928L9.29492 16.943L9.36569 16.9855L9.44485 17.0336L9.51624 17.0752L9.58984 17.1149L9.67042 17.1615L9.74464 17.2004L9.81965 17.2386L9.89527 17.2761L9.97169 17.3129L10.0487 17.3489L10.1265 17.3843L10.2043 17.4197L10.2835 17.4536L10.3634 17.4868L10.444 17.5194L10.5246 17.5519L10.5996 17.576L10.6816 17.607L10.7643 17.6374L10.8414 17.6594L10.9255 17.6883L11.0033 17.7095L11.0889 17.7371L11.1674 17.7576L11.2473 17.7768L11.3272 17.7958L11.4156 17.8206L11.4969 17.8383L11.5789 17.8552L11.6617 17.8715L11.7444 17.8877L11.8286 17.9026L11.9127 17.9174L11.9905 17.9245L12.076 17.9379L12.1616 17.9514L12.2415 17.9563L12.3285 17.9684L12.4091 17.9726L12.4974 17.9832L12.5788 17.9867L12.6608 17.9896L12.7435 17.9917L12.834 18.0001L12.9175 18.0016L13.0017 18.0023L13.0865 18.0023L13.165 17.9946L13.2505 17.9938L13.3368 17.9924L13.416 17.9839L13.503 17.9818L13.5835 17.9719L13.672 17.9684L13.7533 17.9578L13.8353 17.9464L13.9251 17.9415L14.0078 17.9294L14.0913 17.9168L14.1747 17.904L14.2518 17.8835L14.3359 17.8701L14.4215 17.8552L14.4993 17.834L14.5856 17.8185L14.6647 17.7958L14.751 17.7803L14.8309 17.757L14.9115 17.7329L14.9921 17.7089L15.0728 17.6848L15.1547 17.6593L15.2361 17.6346L15.3181 17.6092L15.3937 17.5759L15.4765 17.5497L15.5529 17.5158L15.6363 17.489L15.7133 17.4543L15.7904 17.4196L15.8682 17.3843L15.9453 17.3497L16.0238 17.3135L16.1023 17.2775L16.1808 17.2415L16.2529 17.1976L16.3328 17.1601L16.4049 17.1163L16.4855 17.0781L16.5584 17.0336L16.6319 16.9883L16.7055 16.9431L16.7796 16.8971L16.8468 16.844L16.9218 16.7974L16.9968 16.7507L17.0647 16.697L17.1396 16.6503L17.2082 16.5959L17.2775 16.5407L17.3468 16.4856L17.416 16.4304L17.4853 16.3752L17.5554 16.3194L17.6183 16.2564L17.6883 16.2006L17.7519 16.1369L17.8227 16.0804L17.8863 16.0167L17.9506 15.9524L18.0079 15.8951L18.0645 15.8385L18.1147 15.7742L18.1705 15.7183L18.2257 15.6632L18.2738 15.6009L18.3211 15.5394L18.3756 15.485L18.4215 15.4249L18.4676 15.3648L18.5128 15.3054L18.5581 15.246L18.5955 15.1802L18.6394 15.1223L18.6754 15.0579L18.7044 15.0148L18.6231 15.0254L18.5029 15.0324L18.3827 15.0395L18.2632 15.0458L18.1451 15.0508L18.0207 15.048L17.9039 15.0515L17.7802 15.048L17.6579 15.0431L17.537 15.0367L17.4231 15.0374L17.2966 15.0225L17.1778 15.0141L17.0597 15.0049L16.9423 14.9949L16.8186 14.9773L16.7033 14.9653L16.5817 14.9455L16.4608 14.9249L16.3406 14.9037L16.2218 14.8811L16.1037 14.8578L15.9871 14.8331L15.871 14.8076L15.7558 14.7814L15.6342 14.7475L15.5211 14.7192L15.4016 14.6832L15.2835 14.6457L15.1731 14.6145L15.0564 14.5756L14.9412 14.5353L14.8267 14.4943L14.7135 14.4519L14.594 14.4017L14.4823 14.3579L14.372 14.3126L14.2561 14.2589L14.1478 14.2115L14.034 14.1556L13.9279 14.1061L13.8162 14.0481L13.7052 13.9894L13.5956 13.9293L13.4874 13.8678L13.3799 13.8056L13.2731 13.7427L13.1685 13.6776L13.0645 13.6119L12.9613 13.5454L12.8531 13.4697L12.7527 13.4005L12.653 13.3304L12.5484 13.2513L12.4515 13.1784L12.349 13.0971L12.2471 13.0151L12.1545 12.938L12.0555 12.8531L11.9572 12.7676L11.861 12.6799L11.7734 12.5979L11.6793 12.5081L11.5867 12.4169L11.4955 12.3242L11.4057 12.2302L11.3166 12.1354L11.2296 12.0385L11.1433 11.941L11.0655 11.849L10.9814 11.7493L10.9064 11.6546L10.8251 11.552L10.7452 11.4481L10.6731 11.3505L10.6031 11.2508L10.5267 11.1433L10.4581 11.0422L10.3846 10.9319L10.3188 10.828L10.2545 10.7226L10.1908 10.6166L10.1286 10.5091L10.0678 10.4002L10.0077 10.2906L9.9561 10.1867L9.89813 10.0749L9.84156 9.9618L9.79349 9.85432L9.73905 9.73907L9.69238 9.63019L9.64007 9.51281L9.59615 9.40101L9.55303 9.28859L9.51061 9.17546L9.46961 9.06092L9.43001 8.94497L9.39114 8.82831L9.35297 8.71094L9.32328 8.59923L9.28715 8.47965L9.2525 8.35875L9.22566 8.24421L9.19951 8.12898L9.1677 8.00524L9.14368 7.88787L9.12098 7.76902L9.09836 7.65024L9.07717 7.53005L9.06447 7.41552L9.0446 7.29383L9.03331 7.17789L9.01565 7.05416L9.00648 6.9361L8.99723 6.81795L8.9824 6.69139L8.97605 6.57051L8.9768 6.45669L8.97108 6.335L8.96686 6.21199L8.97042 6.09536L8.96753 5.97084L8.97251 5.85278L8.97891 5.73331L8.98521 5.61376L8.99302 5.49287L9.00155 5.37128L9.01068 5.2489L9.01209 5.24749L8.96541 5.28001Z" fill="black" fill-opacity="0.1"/>
</svg>
