<?xml version="1.0" encoding="UTF-8" standalone="no"?>
<!DOCTYPE svg PUBLIC "-//W3C//DTD SVG 1.1//EN" "http://www.w3.org/Graphics/SVG/1.1/DTD/svg11.dtd">
<svg width="24px" height="25px" version="1.1" xmlns="http://www.w3.org/2000/svg" xmlns:xlink="http://www.w3.org/1999/xlink" xml:space="preserve" xmlns:serif="http://www.serif.com/" style="fill-rule:evenodd;clip-rule:evenodd;stroke-linecap:round;stroke-linejoin:round;stroke-miterlimit:100;">
    <g transform="matrix(1,0,0,1,-96,-1324)">
        <g id="weather.thin.cloudStorm" transform="matrix(1,0,0,1,-1472,554.893)">
            <rect x="1568" y="770" width="24" height="24" style="fill:none;"/>
            <g>
                <g transform="matrix(1,0,0,1,-254,-214)">
                    <clipPath id="_clip1">
                        <path d="M1846,984L1846,1008L1822,1008C1822,1008 1822,984 1822,984L1846,984ZM1838.5,999L1828.5,999L1828.5,1002L1838.5,1002L1838.5,999Z"/>
                    </clipPath>
                    <g clip-path="url(#_clip1)">
                        <path d="M1833.6,990.001L1833.7,990.004L1833.8,990.008L1833.9,990.014L1834,990.022L1834.1,990.032L1834.19,990.044L1834.29,990.057L1834.39,990.072L1834.49,990.088L1834.58,990.106L1834.68,990.126L1834.77,990.148L1834.86,990.171L1834.96,990.195L1835.05,990.222L1835.14,990.25L1835.23,990.279L1835.32,990.31L1835.41,990.342L1835.5,990.376L1835.59,990.412L1835.68,990.449L1835.77,990.487L1835.85,990.527L1835.94,990.568L1836.02,990.611L1836.1,990.655L1836.19,990.7L1836.27,990.747L1836.35,990.795L1836.43,990.845L1836.51,990.896L1836.59,990.948L1836.66,991.001L1836.74,991.056L1836.81,991.112L1836.89,991.169L1836.96,991.227L1837.03,991.287L1837.11,991.348L1837.18,991.41L1837.25,991.473L1837.31,991.537L1837.38,991.603L1837.44,991.669L1837.51,991.737L1837.57,991.806L1837.64,991.876L1837.7,991.947L1837.76,992.019L1837.82,992.092L1837.87,992.166L1837.93,992.241L1837.98,992.316L1838.04,992.393L1838.09,992.471L1838.14,992.55L1838.19,992.63L1838.24,992.71L1838.29,992.792L1838.33,992.874L1838.38,992.958L1838.42,993.042L1838.49,993.032L1838.56,993.024L1838.63,993.016L1838.71,993.011L1838.78,993.006L1838.85,993.003L1838.93,993.001L1839,993L1839.1,993.001L1839.21,993.005L1839.31,993.012L1839.41,993.021L1839.51,993.032L1839.61,993.046L1839.71,993.063L1839.81,993.081L1839.9,993.103L1840,993.126L1840.1,993.152L1840.19,993.18L1840.28,993.21L1840.38,993.243L1840.47,993.278L1840.56,993.315L1840.65,993.354L1840.73,993.395L1840.82,993.438L1840.91,993.483L1840.99,993.53L1841.07,993.579L1841.15,993.631L1841.24,993.684L1841.32,993.738L1841.39,993.795L1841.47,993.854L1841.54,993.914L1841.62,993.976L1841.69,994.04L1841.76,994.105L1841.83,994.172L1841.89,994.241L1841.96,994.311L1842.02,994.383L1842.09,994.456L1842.15,994.531L1842.2,994.607L1842.26,994.685L1842.32,994.764L1842.37,994.845L1842.42,994.927L1842.47,995.01L1842.52,995.094L1842.56,995.18L1842.61,995.266L1842.65,995.354L1842.68,995.444L1842.72,995.534L1842.76,995.625L1842.79,995.718L1842.82,995.811L1842.85,995.905L1842.87,996.001L1842.9,996.097L1842.92,996.194L1842.94,996.292L1842.95,996.391L1842.97,996.491L1842.98,996.591L1842.99,996.692L1843,996.794L1843,996.897L1843,997L1843,997.103L1843,997.206L1842.99,997.308L1842.98,997.409L1842.97,997.509L1842.95,997.609L1842.94,997.708L1842.92,997.806L1842.9,997.903L1842.87,997.999L1842.85,998.095L1842.82,998.189L1842.79,998.282L1842.76,998.375L1842.72,998.466L1842.68,998.556L1842.65,998.646L1842.61,998.734L1842.56,998.82L1842.52,998.906L1842.47,998.99L1842.42,999.073L1842.37,999.155L1842.32,999.236L1842.26,999.315L1842.2,999.393L1842.15,999.469L1842.09,999.544L1842.02,999.617L1841.96,999.689L1841.89,999.759L1841.83,999.828L1841.76,999.895L1841.69,999.96L1841.62,1000.02L1841.54,1000.09L1841.47,1000.15L1841.39,1000.21L1841.32,1000.26L1841.24,1000.32L1841.15,1000.37L1841.07,1000.42L1840.99,1000.47L1840.91,1000.52L1840.82,1000.56L1840.73,1000.61L1840.65,1000.65L1840.56,1000.69L1840.47,1000.72L1840.38,1000.76L1840.28,1000.79L1840.19,1000.82L1840.1,1000.85L1840,1000.87L1839.9,1000.9L1839.81,1000.92L1839.71,1000.94L1839.61,1000.95L1839.51,1000.97L1839.41,1000.98L1839.31,1000.99L1839.21,1001L1839.1,1001L1839,1001L1838,1001L1829,1001L1828,1001L1827.92,1001L1827.85,1001L1827.77,1000.99L1827.69,1000.98L1827.62,1000.98L1827.54,1000.97L1827.47,1000.95L1827.4,1000.94L1827.32,1000.92L1827.25,1000.9L1827.18,1000.89L1827.11,1000.87L1827.04,1000.84L1826.97,1000.82L1826.9,1000.79L1826.83,1000.76L1826.77,1000.74L1826.7,1000.7L1826.63,1000.67L1826.57,1000.64L1826.51,1000.6L1826.44,1000.57L1826.38,1000.53L1826.32,1000.49L1826.26,1000.45L1826.21,1000.4L1826.15,1000.36L1826.09,1000.32L1826.04,1000.27L1825.98,1000.22L1825.93,1000.17L1825.88,1000.12L1825.83,1000.07L1825.78,1000.02L1825.73,999.963L1825.68,999.908L1825.64,999.852L1825.6,999.794L1825.55,999.736L1825.51,999.677L1825.47,999.616L1825.43,999.555L1825.4,999.493L1825.36,999.429L1825.33,999.365L1825.3,999.3L1825.27,999.234L1825.24,999.167L1825.21,999.1L1825.18,999.031L1825.16,998.962L1825.13,998.892L1825.11,998.821L1825.1,998.749L1825.08,998.677L1825.06,998.604L1825.05,998.531L1825.04,998.457L1825.02,998.382L1825.02,998.307L1825.01,998.231L1825,998.154L1825,998.077L1825,998L1825,997.923L1825,997.846L1825.01,997.769L1825.02,997.693L1825.02,997.618L1825.04,997.543L1825.05,997.469L1825.06,997.396L1825.08,997.323L1825.1,997.251L1825.11,997.179L1825.13,997.108L1825.16,997.038L1825.18,996.969L1825.21,996.9L1825.24,996.833L1825.27,996.766L1825.3,996.7L1825.33,996.635L1825.36,996.571L1825.4,996.507L1825.43,996.445L1825.47,996.384L1825.51,996.323L1825.55,996.264L1825.6,996.206L1825.64,996.148L1825.68,996.092L1825.73,996.037L1825.78,995.983L1825.83,995.931L1825.88,995.879L1825.93,995.829L1825.98,995.78L1826.04,995.732L1826.09,995.685L1826.15,995.64L1826.21,995.596L1826.26,995.554L1826.32,995.513L1826.38,995.473L1826.44,995.435L1826.51,995.398L1826.57,995.362L1826.63,995.328L1826.7,995.296L1826.77,995.265L1826.83,995.236L1826.9,995.208L1826.97,995.182L1827.04,995.158L1827.11,995.135L1827.18,995.114L1827.25,995.095L1827.32,995.077L1827.4,995.061L1827.47,995.047L1827.54,995.035L1827.62,995.024L1827.69,995.016L1827.77,995.009L1827.85,995.004L1827.92,995.001L1828,995L1828.02,995L1828.03,994.935L1828.04,994.869L1828.04,994.804L1828.05,994.739L1828.06,994.675L1828.07,994.61L1828.08,994.546L1828.09,994.482L1828.11,994.419L1828.12,994.355L1828.13,994.292L1828.15,994.229L1828.16,994.167L1828.18,994.105L1828.2,994.043L1828.21,993.981L1828.23,993.919L1828.25,993.858L1828.29,993.737L1828.33,993.617L1828.38,993.498L1828.42,993.381L1828.47,993.265L1828.53,993.15L1828.58,993.037L1828.64,992.925L1828.7,992.815L1828.76,992.706L1828.83,992.599L1828.89,992.493L1828.97,992.39L1829.04,992.287L1829.11,992.187L1829.19,992.088L1829.27,991.991L1829.35,991.896L1829.43,991.803L1829.51,991.712L1829.6,991.622L1829.69,991.535L1829.78,991.449L1829.87,991.366L1829.97,991.285L1830.07,991.206L1830.16,991.129L1830.26,991.054L1830.37,990.982L1830.47,990.911L1830.57,990.843L1830.68,990.778L1830.79,990.715L1830.9,990.654L1831.01,990.595L1831.12,990.54L1831.24,990.486L1831.35,990.435L1831.47,990.387L1831.59,990.342L1831.71,990.299L1831.83,990.259L1831.95,990.221L1832.01,990.204L1832.08,990.187L1832.14,990.17L1832.2,990.155L1832.26,990.14L1832.33,990.126L1832.39,990.113L1832.45,990.1L1832.52,990.088L1832.58,990.077L1832.64,990.066L1832.71,990.057L1832.77,990.048L1832.84,990.039L1832.9,990.032L1832.97,990.025L1833.03,990.019L1833.1,990.014L1833.17,990.01L1833.23,990.006L1833.3,990.004L1833.37,990.002L1833.43,990L1833.5,990L1833.6,990.001ZM1833.45,991L1833.39,991.001L1833.34,991.003L1833.28,991.005L1833.23,991.008L1833.17,991.012L1833.12,991.016L1833.06,991.021L1833.01,991.026L1832.96,991.032L1832.9,991.039L1832.85,991.046L1832.8,991.054L1832.75,991.063L1832.69,991.072L1832.64,991.082L1832.59,991.092L1832.54,991.103L1832.49,991.115L1832.43,991.127L1832.38,991.139L1832.33,991.153L1832.28,991.166L1832.24,991.18L1832.13,991.212L1832.03,991.244L1831.94,991.279L1831.84,991.317L1831.74,991.356L1831.65,991.397L1831.56,991.441L1831.46,991.487L1831.37,991.534L1831.28,991.584L1831.19,991.636L1831.11,991.689L1831.02,991.745L1830.94,991.803L1830.85,991.862L1830.77,991.923L1830.69,991.986L1830.61,992.051L1830.53,992.117L1830.46,992.186L1830.38,992.256L1830.31,992.328L1830.24,992.401L1830.17,992.475L1830.1,992.552L1830.04,992.63L1829.97,992.709L1829.91,992.79L1829.85,992.873L1829.79,992.956L1829.73,993.041L1829.68,993.127L1829.62,993.215L1829.57,993.304L1829.52,993.394L1829.48,993.486L1829.43,993.578L1829.39,993.672L1829.35,993.767L1829.31,993.863L1829.27,993.96L1829.24,994.058L1829.2,994.16L1829.19,994.207L1829.17,994.257L1829.16,994.307L1829.15,994.358L1829.13,994.409L1829.12,994.46L1829.11,994.511L1829.1,994.563L1829.09,994.615L1829.08,994.666L1829.07,994.719L1829.06,994.771L1829.05,994.824L1829.04,994.877L1829.04,994.93L1829.03,994.983L1829.02,995.036L1829.02,995.096L1829.01,995.177L1828.99,995.258L1828.96,995.336L1828.93,995.412L1828.9,995.486L1828.85,995.556L1828.81,995.622L1828.75,995.684L1828.69,995.742L1828.63,995.795L1828.56,995.842L1828.49,995.883L1828.42,995.919L1828.34,995.948L1828.26,995.971L1828.18,995.987L1828.1,995.997L1828.02,996L1828,996L1827.95,996.001L1827.9,996.003L1827.85,996.006L1827.79,996.01L1827.75,996.016L1827.69,996.023L1827.65,996.031L1827.6,996.041L1827.55,996.051L1827.5,996.063L1827.45,996.076L1827.41,996.09L1827.36,996.105L1827.31,996.121L1827.27,996.138L1827.22,996.157L1827.18,996.176L1827.13,996.197L1827.09,996.218L1827.05,996.241L1827.01,996.264L1826.96,996.289L1826.92,996.315L1826.88,996.341L1826.84,996.369L1826.81,996.397L1826.77,996.426L1826.73,996.456L1826.69,996.488L1826.66,996.52L1826.62,996.553L1826.59,996.586L1826.55,996.621L1826.52,996.656L1826.49,996.692L1826.46,996.729L1826.43,996.766L1826.4,996.805L1826.37,996.844L1826.34,996.883L1826.32,996.923L1826.29,996.965L1826.27,997.006L1826.24,997.048L1826.22,997.091L1826.2,997.134L1826.18,997.178L1826.16,997.223L1826.14,997.268L1826.12,997.313L1826.11,997.359L1826.09,997.405L1826.08,997.453L1826.06,997.5L1826.05,997.548L1826.04,997.596L1826.03,997.645L1826.02,997.695L1826.02,997.744L1826.01,997.795L1826.01,997.845L1826,997.896L1826,997.948L1826,998L1826,998.052L1826,998.104L1826.01,998.155L1826.01,998.205L1826.02,998.256L1826.02,998.305L1826.03,998.355L1826.04,998.404L1826.05,998.452L1826.06,998.5L1826.08,998.548L1826.09,998.594L1826.11,998.641L1826.12,998.687L1826.14,998.733L1826.16,998.777L1826.18,998.822L1826.2,998.866L1826.22,998.909L1826.24,998.952L1826.27,998.994L1826.29,999.036L1826.32,999.077L1826.34,999.117L1826.37,999.156L1826.4,999.195L1826.43,999.234L1826.46,999.271L1826.49,999.308L1826.52,999.344L1826.55,999.379L1826.59,999.414L1826.62,999.447L1826.66,999.48L1826.69,999.512L1826.73,999.543L1826.77,999.574L1826.81,999.603L1826.84,999.631L1826.88,999.659L1826.92,999.685L1826.97,999.711L1827.01,999.736L1827.05,999.759L1827.09,999.782L1827.13,999.803L1827.18,999.824L1827.22,999.843L1827.27,999.862L1827.31,999.879L1827.36,999.895L1827.41,999.91L1827.45,999.924L1827.5,999.937L1827.55,999.949L1827.6,999.959L1827.65,999.969L1827.69,999.977L1827.74,999.984L1827.79,999.989L1827.85,999.994L1827.9,999.997L1827.95,999.999L1828.01,1000L1838.99,1000L1839.08,999.999L1839.15,999.996L1839.23,999.991L1839.31,999.984L1839.38,999.976L1839.46,999.965L1839.53,999.953L1839.61,999.939L1839.68,999.923L1839.75,999.906L1839.82,999.886L1839.89,999.865L1839.96,999.842L1840.03,999.818L1840.1,999.792L1840.17,999.764L1840.23,999.735L1840.3,999.704L1840.36,999.672L1840.43,999.638L1840.49,999.603L1840.55,999.566L1840.62,999.528L1840.68,999.488L1840.74,999.447L1840.79,999.404L1840.85,999.36L1840.91,999.315L1840.96,999.268L1841.02,999.22L1841.07,999.171L1841.12,999.121L1841.17,999.069L1841.22,999.016L1841.27,998.962L1841.32,998.907L1841.36,998.851L1841.4,998.794L1841.45,998.735L1841.49,998.676L1841.53,998.616L1841.57,998.554L1841.6,998.492L1841.64,998.429L1841.67,998.364L1841.7,998.299L1841.74,998.233L1841.76,998.167L1841.79,998.099L1841.82,998.031L1841.84,997.961L1841.87,997.892L1841.89,997.821L1841.9,997.75L1841.92,997.678L1841.94,997.605L1841.95,997.532L1841.97,997.458L1841.98,997.383L1841.98,997.308L1841.99,997.232L1842,997.155L1842,997.078L1842,997L1842,996.922L1842,996.845L1841.99,996.768L1841.98,996.692L1841.98,996.617L1841.97,996.542L1841.95,996.468L1841.94,996.395L1841.92,996.322L1841.9,996.25L1841.89,996.179L1841.87,996.108L1841.84,996.039L1841.82,995.969L1841.79,995.901L1841.76,995.833L1841.74,995.767L1841.7,995.701L1841.67,995.636L1841.64,995.571L1841.6,995.508L1841.57,995.446L1841.53,995.385L1841.49,995.324L1841.45,995.265L1841.4,995.206L1841.36,995.149L1841.32,995.093L1841.27,995.038L1841.22,994.984L1841.17,994.931L1841.12,994.88L1841.07,994.829L1841.02,994.78L1840.96,994.732L1840.91,994.685L1840.85,994.64L1840.79,994.596L1840.74,994.553L1840.68,994.512L1840.62,994.472L1840.55,994.434L1840.49,994.397L1840.43,994.362L1840.36,994.328L1840.3,994.296L1840.23,994.265L1840.17,994.236L1840.1,994.208L1840.03,994.182L1839.96,994.158L1839.89,994.135L1839.82,994.114L1839.75,994.094L1839.68,994.077L1839.61,994.061L1839.53,994.047L1839.46,994.035L1839.38,994.024L1839.31,994.016L1839.23,994.009L1839.15,994.004L1839.08,994.001L1839,994L1838.94,994.001L1838.89,994.002L1838.83,994.005L1838.78,994.008L1838.73,994.012L1838.67,994.018L1838.62,994.024L1838.56,994.033L1838.47,994.04L1838.39,994.041L1838.31,994.036L1838.23,994.023L1838.15,994.004L1838.07,993.978L1838,993.946L1837.92,993.908L1837.85,993.865L1837.79,993.815L1837.73,993.761L1837.67,993.701L1837.62,993.637L1837.57,993.569L1837.53,993.498L1837.49,993.421L1837.45,993.353L1837.42,993.285L1837.38,993.219L1837.34,993.153L1837.3,993.087L1837.26,993.023L1837.21,992.959L1837.17,992.896L1837.12,992.834L1837.08,992.773L1837.03,992.712L1836.98,992.652L1836.93,992.593L1836.88,992.535L1836.83,992.478L1836.78,992.422L1836.73,992.366L1836.67,992.312L1836.62,992.258L1836.56,992.205L1836.51,992.153L1836.45,992.103L1836.39,992.053L1836.33,992.004L1836.27,991.956L1836.21,991.909L1836.15,991.863L1836.09,991.819L1836.02,991.775L1835.96,991.732L1835.89,991.69L1835.83,991.65L1835.76,991.611L1835.7,991.572L1835.63,991.535L1835.56,991.499L1835.49,991.464L1835.42,991.431L1835.35,991.398L1835.28,991.366L1835.21,991.337L1835.14,991.307L1835.07,991.28L1834.99,991.253L1834.92,991.228L1834.84,991.204L1834.77,991.181L1834.69,991.16L1834.62,991.14L1834.54,991.121L1834.46,991.103L1834.38,991.087L1834.31,991.072L1834.23,991.059L1834.15,991.047L1834.07,991.036L1833.99,991.026L1833.91,991.018L1833.83,991.012L1833.75,991.007L1833.66,991.003L1833.58,991.001L1833.5,991L1833.45,991Z" style="fill:rgb(51,51,51);"/>
                    </g>
                </g>
                <g transform="matrix(1,0,0,1,1472,-554.893)">
                    <circle cx="102.5" cy="1341.39" r="0.5" style="fill:rgb(51,51,51);"/>
                </g>
                <g transform="matrix(1,0,0,1,1472,-554.893)">
                    <circle cx="112.5" cy="1341.39" r="0.5" style="fill:rgb(51,51,51);"/>
                </g>
            </g>
            <g transform="matrix(1,0,0,1,1472,-506.893)">
                <path d="M105.5,1289.39L104.5,1294.39L106.5,1294.39L105.5,1298.39L110.5,1292.39L108.5,1292.39L110.5,1289.39L105.5,1289.39Z" style="fill:none;stroke:rgb(51,51,51);stroke-width:1px;"/>
            </g>
        </g>
    </g>
</svg>
