<?xml version="1.0" encoding="UTF-8" standalone="no"?><!DOCTYPE svg PUBLIC "-//W3C//DTD SVG 1.1//EN" "http://www.w3.org/Graphics/SVG/1.1/DTD/svg11.dtd"><svg width="100%" height="100%" viewBox="0 0 24 24" version="1.1" xmlns="http://www.w3.org/2000/svg" xmlns:xlink="http://www.w3.org/1999/xlink" xml:space="preserve" xmlns:serif="http://www.serif.com/" style="fill-rule:evenodd;clip-rule:evenodd;stroke-linejoin:round;stroke-miterlimit:1.41421;"><rect id="basic.regular.triangle" x="0" y="0" width="24" height="24" style="fill:none;"/><path d="M21.858,18.486c0.185,0.308 0.19,0.693 0.012,1.007c-0.177,0.313 -0.51,0.507 -0.87,0.507c-4.047,0 -13.953,0 -18,0c-0.36,0 -0.693,-0.194 -0.87,-0.507c-0.178,-0.314 -0.173,-0.699 0.013,-1.007c2.048,-3.414 7.001,-11.669 9,-15c0.18,-0.302 0.506,-0.486 0.857,-0.486c0.351,0 0.677,0.184 0.858,0.486c1.998,3.331 6.951,11.586 9,15Zm-17.092,-0.486l14.468,0l-7.234,-12.056l-7.234,12.056Z" style="fill:#333;fill-rule:nonzero;"/></svg>