<?xml version="1.0" encoding="UTF-8" standalone="no"?><!DOCTYPE svg PUBLIC "-//W3C//DTD SVG 1.1//EN" "http://www.w3.org/Graphics/SVG/1.1/DTD/svg11.dtd"><svg width="100%" height="100%" viewBox="0 0 24 24" version="1.1" xmlns="http://www.w3.org/2000/svg" xmlns:xlink="http://www.w3.org/1999/xlink" xml:space="preserve" xmlns:serif="http://www.serif.com/" style="fill-rule:evenodd;clip-rule:evenodd;stroke-linejoin:round;stroke-miterlimit:1.41421;"><rect id="basic.thin.triangle" x="0.003" y="0" width="24" height="24" style="fill:none;"/><path d="M12.126,3.008l0.082,0.013l0.079,0.02l0.078,0.027l0.076,0.033l0.072,0.039l0.069,0.045l0.066,0.051l0.06,0.055l0.056,0.061l0.051,0.065l0.045,0.068l9,15.001l0.041,0.074l0.034,0.077l0.027,0.08l0.02,0.082l0.014,0.083l0.006,0.084l0,0.085l-0.008,0.084l-0.015,0.083l-0.022,0.081l-0.029,0.08l-0.035,0.077l-0.041,0.073l-0.048,0.07l-0.053,0.065l-0.059,0.061l-0.064,0.055l-0.068,0.05l-0.072,0.044l-0.075,0.038l-0.079,0.031l-0.08,0.025l-0.083,0.018l-0.084,0.01l-0.084,0.004l-18,0l-0.084,-0.004l-0.084,-0.01l-0.083,-0.018l-0.081,-0.025l-0.078,-0.031l-0.075,-0.038l-0.072,-0.044l-0.068,-0.05l-0.064,-0.055l-0.059,-0.061l-0.053,-0.065l-0.048,-0.07l-0.041,-0.073l-0.036,-0.077l-0.028,-0.08l-0.022,-0.081l-0.015,-0.083l-0.008,-0.084l-0.001,-0.085l0.007,-0.084l0.013,-0.083l0.021,-0.082l0.027,-0.08l0.034,-0.077l0.04,-0.074l9,-15.001l0.046,-0.068l0.05,-0.065l0.056,-0.061l0.061,-0.055l0.065,-0.051l0.069,-0.045l0.073,-0.039l0.075,-0.033l0.078,-0.027l0.08,-0.02l0.082,-0.013l0.082,-0.007l0.082,0l0.082,0.007Zm-9.123,15.992l18,0l-9,-15l-9,15Z" style="fill:#333;"/></svg>