<?xml version="1.0" encoding="UTF-8" standalone="no"?><!DOCTYPE svg PUBLIC "-//W3C//DTD SVG 1.1//EN" "http://www.w3.org/Graphics/SVG/1.1/DTD/svg11.dtd"><svg width="100%" height="100%" viewBox="0 0 24 24" version="1.1" xmlns="http://www.w3.org/2000/svg" xmlns:xlink="http://www.w3.org/1999/xlink" xml:space="preserve" xmlns:serif="http://www.serif.com/" style="fill-rule:evenodd;clip-rule:evenodd;stroke-linejoin:round;stroke-miterlimit:1.41421;"><rect id="basic.thin.smallTriangle" x="0.003" y="0" width="24" height="24" style="fill:none;"/><path d="M12.072,5.002l0.068,0.007l0.068,0.012l0.066,0.017l0.066,0.02l0.063,0.026l0.062,0.029l0.06,0.034l0.057,0.038l0.055,0.042l0.052,0.045l0.048,0.049l0.045,0.052l0.041,0.055l0.037,0.058l6,10l0.033,0.059l0.029,0.062l0.025,0.063l0.02,0.065l0.016,0.066l0.011,0.068l0.007,0.067l0.002,0.068l-0.003,0.068l-0.007,0.068l-0.012,0.067l-0.016,0.066l-0.021,0.065l-0.025,0.063l-0.03,0.062l-0.033,0.059l-0.038,0.057l-0.041,0.054l-0.045,0.051l-0.048,0.048l-0.052,0.045l-0.054,0.041l-0.057,0.037l-0.059,0.034l-0.062,0.029l-0.063,0.025l-0.065,0.02l-0.066,0.016l-0.067,0.012l-0.068,0.007l-0.068,0.002l-12,0l-0.068,-0.002l-0.068,-0.007l-0.067,-0.012l-0.066,-0.016l-0.065,-0.02l-0.063,-0.025l-0.062,-0.029l-0.059,-0.034l-0.057,-0.037l-0.055,-0.041l-0.051,-0.045l-0.048,-0.048l-0.045,-0.051l-0.042,-0.054l-0.037,-0.057l-0.034,-0.059l-0.029,-0.062l-0.025,-0.063l-0.021,-0.065l-0.016,-0.066l-0.012,-0.067l-0.007,-0.068l-0.003,-0.068l0.002,-0.068l0.007,-0.067l0.011,-0.068l0.016,-0.066l0.02,-0.065l0.024,-0.063l0.029,-0.062l0.033,-0.059l6,-10l0.038,-0.058l0.041,-0.055l0.045,-0.052l0.048,-0.049l0.052,-0.045l0.054,-0.042l0.058,-0.038l0.059,-0.034l0.062,-0.029l0.064,-0.026l0.066,-0.02l0.066,-0.017l0.068,-0.012l0.068,-0.007l0.069,-0.002l0.069,0.002Zm-6.069,10.998l12,0l-6,-10l-6,10Z" style="fill:#333;"/></svg>