<?xml version="1.0" encoding="UTF-8" standalone="no"?><!DOCTYPE svg PUBLIC "-//W3C//DTD SVG 1.1//EN" "http://www.w3.org/Graphics/SVG/1.1/DTD/svg11.dtd"><svg width="100%" height="100%" viewBox="0 0 24 24" version="1.1" xmlns="http://www.w3.org/2000/svg" xmlns:xlink="http://www.w3.org/1999/xlink" xml:space="preserve" xmlns:serif="http://www.serif.com/" style="fill-rule:evenodd;clip-rule:evenodd;stroke-linejoin:round;stroke-miterlimit:1.41421;"><rect id="basic.regular.doubleChevronLeft" x="0" y="0" width="24" height="24" style="fill:none;"/><path d="M13.778,4.693c0.391,0.39 0.391,1.024 0,1.414c-1.791,1.791 -6.364,6.364 -6.364,6.364c0,0 4.573,4.573 6.364,6.364c0.391,0.391 0.391,1.024 0,1.414c-0.187,0.188 -0.442,0.293 -0.707,0.293c-0.265,0 -0.519,-0.105 -0.707,-0.293c-1.598,-1.598 -5.473,-5.473 -7.071,-7.071c-0.188,-0.187 -0.293,-0.442 -0.293,-0.707c0,-0.265 0.105,-0.519 0.293,-0.707c1.598,-1.598 5.473,-5.473 7.071,-7.071c0.188,-0.188 0.442,-0.293 0.707,-0.293c0.265,0 0.52,0.105 0.707,0.293c0,0 0,0 0,0Z" style="fill:#333;fill-rule:nonzero;"/><path d="M18.011,6.461c0.094,0.094 0.146,0.221 0.146,0.353c0,0.133 -0.052,0.259 -0.146,0.353c-1.237,1.237 -5.304,5.304 -5.304,5.304c0,0 4.086,4.086 5.313,5.313c0.091,0.091 0.142,0.215 0.142,0.344c0,0.129 -0.051,0.253 -0.142,0.344c-0.001,0.001 -0.001,0.001 -0.001,0.001c-0.096,0.096 -0.226,0.15 -0.362,0.15c-0.136,0 -0.266,-0.054 -0.362,-0.15c-1.022,-1.022 -3.94,-3.94 -5.295,-5.295c-0.188,-0.187 -0.293,-0.442 -0.293,-0.707c0,-0.265 0.105,-0.52 0.293,-0.707c1.359,-1.359 4.29,-4.29 5.303,-5.303c0.196,-0.196 0.512,-0.196 0.707,0c0.001,0 0.001,0 0.001,0Z" style="fill:#333;fill-rule:nonzero;"/></svg>