<?xml version="1.0" encoding="UTF-8" standalone="no"?><!DOCTYPE svg PUBLIC "-//W3C//DTD SVG 1.1//EN" "http://www.w3.org/Graphics/SVG/1.1/DTD/svg11.dtd"><svg width="100%" height="100%" viewBox="0 0 24 24" version="1.1" xmlns="http://www.w3.org/2000/svg" xmlns:xlink="http://www.w3.org/1999/xlink" xml:space="preserve" xmlns:serif="http://www.serif.com/" style="fill-rule:evenodd;clip-rule:evenodd;stroke-linejoin:round;stroke-miterlimit:1.41421;"><rect id="basic.thin.arrowLeft" x="0" y="0" width="24" height="24" style="fill:none;"/><path d="M12.423,5.045c-0.094,-0.093 -0.221,-0.146 -0.353,-0.145c-0.132,0 -0.259,0.053 -0.352,0.146c-1.195,1.2 -5.106,5.127 -6.719,6.747c-0.39,0.391 -0.389,1.024 0.002,1.414c1.616,1.609 5.522,5.499 6.718,6.69c0.195,0.195 0.511,0.194 0.706,-0.001c0,-0.001 0.001,-0.001 0.001,-0.002c0.195,-0.195 0.194,-0.511 -0.001,-0.705c-1.365,-1.36 -6.214,-6.189 -6.214,-6.189c0,0 12.605,0 15.29,0c0.132,0 0.259,-0.053 0.353,-0.146c0.093,-0.094 0.146,-0.221 0.146,-0.353c0,0 0,-0.001 0,-0.001c0,-0.133 -0.053,-0.26 -0.146,-0.354c-0.094,-0.093 -0.221,-0.146 -0.354,-0.146c-2.688,0 -15.296,0 -15.296,0c0,0 4.857,-4.877 6.221,-6.247c0.094,-0.094 0.146,-0.221 0.146,-0.354c0,-0.133 -0.053,-0.26 -0.147,-0.353c0,-0.001 -0.001,-0.001 -0.001,-0.001Z" style="fill:#333;"/></svg>