<?xml version="1.0" encoding="UTF-8" standalone="no"?><!DOCTYPE svg PUBLIC "-//W3C//DTD SVG 1.1//EN" "http://www.w3.org/Graphics/SVG/1.1/DTD/svg11.dtd"><svg width="100%" height="100%" viewBox="0 0 24 24" version="1.1" xmlns="http://www.w3.org/2000/svg" xmlns:xlink="http://www.w3.org/1999/xlink" xml:space="preserve" xmlns:serif="http://www.serif.com/" style="fill-rule:evenodd;clip-rule:evenodd;stroke-linejoin:round;stroke-miterlimit:1.41421;"><rect id="basic.regular.smallTriangle" x="0" y="0" width="24" height="24" style="fill:none;"/><path d="M18.857,15.486c0.186,0.308 0.191,0.693 0.013,1.007c-0.177,0.313 -0.51,0.507 -0.87,0.507c-2.989,0 -9.011,0 -12,0c-0.36,0 -0.693,-0.194 -0.87,-0.507c-0.178,-0.314 -0.173,-0.699 0.012,-1.007c1.512,-2.52 4.523,-7.539 6,-10.001c0.181,-0.301 0.507,-0.485 0.858,-0.485c0.351,0 0.677,0.184 0.857,0.485c1.478,2.462 4.489,7.481 6,10.001Zm-11.091,-0.486l8.468,0l-4.234,-7.056l-4.234,7.056Z" style="fill:#333;fill-rule:nonzero;"/></svg>