<?xml version="1.0" encoding="UTF-8" standalone="no"?><!DOCTYPE svg PUBLIC "-//W3C//DTD SVG 1.1//EN" "http://www.w3.org/Graphics/SVG/1.1/DTD/svg11.dtd"><svg width="100%" height="100%" viewBox="0 0 24 24" version="1.1" xmlns="http://www.w3.org/2000/svg" xmlns:xlink="http://www.w3.org/1999/xlink" xml:space="preserve" xmlns:serif="http://www.serif.com/" style="fill-rule:evenodd;clip-rule:evenodd;stroke-linejoin:round;stroke-miterlimit:1.41421;"><rect id="basic.thin.cross" x="0" y="0" width="24" height="24" style="fill:none;"/><path d="M12.5,11.793c0,0 6.099,-6.099 7.646,-7.647c0.196,-0.195 0.512,-0.195 0.708,0c0,0.001 0,0.001 0,0.001c0.094,0.094 0.146,0.221 0.146,0.353c0,0.132 -0.052,0.259 -0.146,0.353c-1.546,1.546 -7.647,7.647 -7.647,7.647c0,0 6.099,6.099 7.647,7.646c0.195,0.196 0.195,0.512 0,0.708c-0.196,0.195 -0.512,0.195 -0.708,0c-1.547,-1.548 -7.646,-7.647 -7.646,-7.647c0,0 -6.077,6.077 -7.638,7.638c-0.096,0.096 -0.226,0.15 -0.362,0.15c-0.136,0 -0.266,-0.054 -0.362,-0.15c0,0 -0.001,0 -0.001,-0.001c-0.19,-0.19 -0.19,-0.498 0,-0.688c1.533,-1.533 7.656,-7.656 7.656,-7.656c0,0 -6.123,-6.123 -7.656,-7.656c-0.19,-0.19 -0.19,-0.498 0,-0.688c0,-0.001 0.001,-0.001 0.001,-0.001c0.096,-0.096 0.226,-0.15 0.362,-0.15c0.136,0 0.266,0.054 0.362,0.15c1.561,1.561 7.638,7.638 7.638,7.638Z" style="fill:#333;"/></svg>