<?xml version="1.0" encoding="UTF-8" standalone="no"?><!DOCTYPE svg PUBLIC "-//W3C//DTD SVG 1.1//EN" "http://www.w3.org/Graphics/SVG/1.1/DTD/svg11.dtd"><svg width="100%" height="100%" viewBox="0 0 24 24" version="1.1" xmlns="http://www.w3.org/2000/svg" xmlns:xlink="http://www.w3.org/1999/xlink" xml:space="preserve" xmlns:serif="http://www.serif.com/" style="fill-rule:evenodd;clip-rule:evenodd;stroke-linejoin:round;stroke-miterlimit:1.41421;"><rect id="basic.regular.arrowUp" x="0" y="0" width="24" height="24" style="fill:none;"/><path d="M13.015,7.414c0,0 3.763,3.763 5.364,5.364c0.39,0.391 1.023,0.391 1.414,0c0.187,-0.187 0.293,-0.442 0.293,-0.707c0,-0.265 -0.106,-0.52 -0.293,-0.707c-1.598,-1.598 -5.473,-5.473 -7.071,-7.071c-0.188,-0.188 -0.442,-0.293 -0.707,-0.293c-0.266,0 -0.52,0.105 -0.707,0.293c-1.598,1.598 -5.473,5.473 -7.071,7.071c-0.188,0.187 -0.293,0.442 -0.293,0.707c0,0.265 0.105,0.52 0.293,0.707c0.39,0.391 1.023,0.391 1.414,0c1.601,-1.601 5.364,-5.364 5.364,-5.364c0,0 0,10.293 0,13.586c0,0.265 0.105,0.52 0.293,0.707c0.187,0.188 0.442,0.293 0.707,0.293c0.265,0 0.519,-0.105 0.707,-0.293c0.187,-0.187 0.293,-0.442 0.293,-0.707c0,-3.293 0,-13.586 0,-13.586Z" style="fill:#333;"/></svg>