<?xml version="1.0" encoding="UTF-8" standalone="no"?><!DOCTYPE svg PUBLIC "-//W3C//DTD SVG 1.1//EN" "http://www.w3.org/Graphics/SVG/1.1/DTD/svg11.dtd"><svg width="100%" height="100%" viewBox="0 0 24 24" version="1.1" xmlns="http://www.w3.org/2000/svg" xmlns:xlink="http://www.w3.org/1999/xlink" xml:space="preserve" xmlns:serif="http://www.serif.com/" style="fill-rule:evenodd;clip-rule:evenodd;stroke-linejoin:round;stroke-miterlimit:1.41421;"><rect id="basic.thin.doubleChevronUp" x="0" y="0" width="24" height="24" style="fill:none;"/><path d="M19.934,12.685c0.091,0.091 0.142,0.215 0.142,0.344c0,0.129 -0.051,0.253 -0.142,0.344c0,0.001 -0.001,0.001 -0.001,0.001c-0.2,0.2 -0.524,0.2 -0.724,0c-1.443,-1.443 -6.709,-6.709 -6.709,-6.709c0,0 -5.266,5.266 -6.709,6.709c-0.2,0.2 -0.524,0.2 -0.724,0c0,0 -0.001,0 -0.001,-0.001c-0.091,-0.091 -0.142,-0.215 -0.142,-0.344c0,-0.129 0.051,-0.253 0.142,-0.344c1.185,-1.185 5.109,-5.109 6.727,-6.727c0.39,-0.391 1.024,-0.391 1.414,0c1.618,1.618 5.542,5.542 6.727,6.727Z" style="fill:#333;fill-rule:nonzero;"/><path d="M18.481,17.303c0.196,0.196 0.196,0.512 0,0.707c0,0.001 0,0.001 0,0.001c-0.094,0.094 -0.221,0.146 -0.353,0.146c-0.132,0 -0.259,-0.052 -0.353,-0.146c-1.237,-1.237 -5.304,-5.304 -5.304,-5.304c0,0 -4.047,4.047 -5.295,5.295c-0.2,0.2 -0.524,0.2 -0.724,0c0,0 0,-0.001 -0.001,-0.001c-0.19,-0.19 -0.19,-0.498 0,-0.689c1.005,-1.005 3.95,-3.949 5.313,-5.312c0.187,-0.188 0.442,-0.293 0.707,-0.293c0.265,0 0.52,0.105 0.707,0.293c1.359,1.359 4.29,4.29 5.303,5.303Z" style="fill:#333;fill-rule:nonzero;"/></svg>