<?xml version="1.0" encoding="UTF-8" standalone="no"?><!DOCTYPE svg PUBLIC "-//W3C//DTD SVG 1.1//EN" "http://www.w3.org/Graphics/SVG/1.1/DTD/svg11.dtd"><svg width="100%" height="100%" viewBox="0 0 24 24" version="1.1" xmlns="http://www.w3.org/2000/svg" xmlns:xlink="http://www.w3.org/1999/xlink" xml:space="preserve" xmlns:serif="http://www.serif.com/" style="fill-rule:evenodd;clip-rule:evenodd;stroke-linejoin:round;stroke-miterlimit:1.41421;"><rect id="basic.thin.chevronLeft" x="0" y="0" width="24" height="24" style="fill:none;"/><path d="M14.405,5.085c0.19,0.19 0.19,0.498 0,0.688c-1.418,1.418 -6.727,6.727 -6.727,6.727c0,0 5.309,5.309 6.727,6.727c0.19,0.19 0.19,0.498 0,0.688c0,0.001 -0.001,0.001 -0.001,0.001c-0.2,0.2 -0.524,0.2 -0.724,0c-1.206,-1.205 -5.099,-5.099 -6.709,-6.709c-0.39,-0.39 -0.39,-1.024 0,-1.414c1.61,-1.61 5.503,-5.504 6.709,-6.709c0.2,-0.2 0.524,-0.2 0.724,0c0,0 0.001,0 0.001,0.001Z" style="fill:#333;fill-rule:nonzero;"/></svg>