<?xml version="1.0" encoding="UTF-8" standalone="no"?><!DOCTYPE svg PUBLIC "-//W3C//DTD SVG 1.1//EN" "http://www.w3.org/Graphics/SVG/1.1/DTD/svg11.dtd"><svg width="100%" height="100%" viewBox="0 0 24 24" version="1.1" xmlns="http://www.w3.org/2000/svg" xmlns:xlink="http://www.w3.org/1999/xlink" xml:space="preserve" xmlns:serif="http://www.serif.com/" style="fill-rule:evenodd;clip-rule:evenodd;stroke-linejoin:round;stroke-miterlimit:1.41421;"><rect id="basic.thin.smallCross" x="0" y="0" width="24" height="24" style="fill:none;"/><path d="M12.5,11.793c0,0 3.506,-3.506 4.646,-4.647c0.196,-0.195 0.512,-0.195 0.708,0c0,0.001 0,0.001 0,0.001c0.195,0.195 0.195,0.511 0,0.706c-1.139,1.139 -4.647,4.647 -4.647,4.647c0,0 3.508,3.508 4.647,4.647c0.195,0.195 0.195,0.511 0,0.706c0,0 0,0 0,0.001c-0.196,0.195 -0.512,0.195 -0.708,0c-1.14,-1.141 -4.646,-4.647 -4.646,-4.647c0,0 -3.508,3.508 -4.647,4.647c-0.195,0.195 -0.511,0.195 -0.706,0c0,0 0,0 -0.001,0c-0.195,-0.196 -0.195,-0.512 0,-0.708c1.141,-1.14 4.647,-4.646 4.647,-4.646c0,0 -3.506,-3.506 -4.647,-4.646c-0.195,-0.196 -0.195,-0.512 0,-0.708c0.196,-0.195 0.512,-0.195 0.708,0c1.14,1.141 4.646,4.647 4.646,4.647Z" style="fill:#333;"/></svg>