<?xml version="1.0" encoding="UTF-8" standalone="no"?><!DOCTYPE svg PUBLIC "-//W3C//DTD SVG 1.1//EN" "http://www.w3.org/Graphics/SVG/1.1/DTD/svg11.dtd"><svg width="100%" height="100%" viewBox="0 0 24 24" version="1.1" xmlns="http://www.w3.org/2000/svg" xmlns:xlink="http://www.w3.org/1999/xlink" xml:space="preserve" xmlns:serif="http://www.serif.com/" style="fill-rule:evenodd;clip-rule:evenodd;stroke-linejoin:round;stroke-miterlimit:1.41421;"><rect id="logo.thin.bartaxyz" x="0" y="0" width="24" height="24" style="fill:none;"/><path d="M14.424,11c0,0 2.087,0 3.474,0c0.297,0 0.579,0.132 0.769,0.361c0.19,0.229 0.268,0.531 0.213,0.823c-0.348,1.856 -1.013,5.403 -1.312,7c-0.089,0.473 -0.502,0.816 -0.983,0.816c-2.225,0 -8.332,0 -10.967,0c-0.302,0 -0.587,-0.136 -0.777,-0.371c-0.19,-0.235 -0.264,-0.543 -0.2,-0.839c0.635,-2.965 2.257,-10.533 2.785,-13c0.099,-0.461 0.507,-0.79 0.978,-0.79c1.099,0 3.054,0 4.172,0c0.489,0 0.906,0.353 0.987,0.836c0.275,1.649 0.861,5.164 0.861,5.164Zm-6.02,-5l-2.786,13l10.967,0l1.313,-7c0,0 -2.216,0 -3.474,0c-0.489,0 -0.907,-0.353 -0.987,-0.836c-0.275,-1.649 -0.861,-5.164 -0.861,-5.164l-4.172,0Z" style="fill:#333;fill-rule:nonzero;"/></svg>