<?xml version="1.0" encoding="UTF-8" standalone="no"?><!DOCTYPE svg PUBLIC "-//W3C//DTD SVG 1.1//EN" "http://www.w3.org/Graphics/SVG/1.1/DTD/svg11.dtd"><svg width="100%" height="100%" viewBox="0 0 24 24" version="1.1" xmlns="http://www.w3.org/2000/svg" xmlns:xlink="http://www.w3.org/1999/xlink" xml:space="preserve" xmlns:serif="http://www.serif.com/" style="fill-rule:evenodd;clip-rule:evenodd;stroke-linejoin:round;stroke-miterlimit:1.41421;"><rect id="logo.regular.bartaxyz" x="0" y="0" width="24" height="24" style="fill:none;"/><path d="M14.847,10c0,0 2.214,0 3.653,0c0.297,0 0.58,0.132 0.77,0.361c0.189,0.229 0.268,0.531 0.213,0.823c-0.386,2.056 -1.169,6.235 -1.5,8c-0.089,0.473 -0.502,0.816 -0.983,0.816c-2.371,0 -9.187,0 -12,0c-0.302,0 -0.588,-0.136 -0.778,-0.371c-0.19,-0.235 -0.263,-0.543 -0.2,-0.839c0.67,-3.124 2.444,-11.403 3,-14c0.099,-0.461 0.506,-0.79 0.978,-0.79c1.267,0 3.709,0 5,0c0.489,0 0.906,0.353 0.986,0.836c0.275,1.649 0.861,5.164 0.861,5.164Zm-6.039,-4l-2.571,12l9.933,0l1.125,-6c0,0 -2.083,0 -3.295,0c-0.489,0 -0.906,-0.353 -0.986,-0.836c-0.275,-1.649 -0.861,-5.164 -0.861,-5.164l-3.345,0Z" style="fill:#333;fill-rule:nonzero;"/></svg>