<?xml version="1.0" encoding="UTF-8" standalone="no"?><!DOCTYPE svg PUBLIC "-//W3C//DTD SVG 1.1//EN" "http://www.w3.org/Graphics/SVG/1.1/DTD/svg11.dtd"><svg width="100%" height="100%" viewBox="0 0 24 24" version="1.1" xmlns="http://www.w3.org/2000/svg" xmlns:xlink="http://www.w3.org/1999/xlink" xml:space="preserve" xmlns:serif="http://www.serif.com/" style="fill-rule:evenodd;clip-rule:evenodd;stroke-linejoin:round;stroke-miterlimit:1.41421;"><rect id="object.regular.bell" x="0.003" y="0" width="24" height="24" style="fill:none;"/><path d="M9.174,18l-3.601,0c-0.342,0 -0.66,-0.174 -0.844,-0.463c-0.183,-0.288 -0.207,-0.65 -0.063,-0.96c0.188,-0.402 0.393,-0.843 0.586,-1.255c0.493,-1.057 0.749,-2.21 0.749,-3.377c0.001,-1.241 0.002,-2.641 0.002,-2.945c0,-3.311 2.688,-6 6,-6c3.311,0 6,2.689 6,6c0,0 0,1.602 0,2.937c0,1.169 0.256,2.323 0.749,3.381c0.193,0.414 0.399,0.856 0.588,1.259c0.144,0.31 0.12,0.672 -0.063,0.96c-0.184,0.289 -0.502,0.463 -0.844,0.463l-3.601,0c-0.412,1.165 -1.524,2 -2.829,2c-1.305,0 -2.417,-0.835 -2.829,-2Zm4.699,0l-3.741,0c0.358,0.667 1.062,1.121 1.871,1.121c0.809,0 1.513,-0.454 1.87,-1.121Zm-5.87,-5.619c0,1.168 -0.256,2.322 -0.75,3.381c-0.067,0.145 -0.111,0.238 -0.111,0.238l9.722,0c0,0 -0.044,-0.093 -0.112,-0.238c-0.493,-1.059 -0.749,-2.213 -0.749,-3.381c0,-1.343 0,-3.381 0,-3.381c0,-2.208 -1.792,-4 -4,-4c-2.208,0 -4,1.792 -4,4c0,0 0,1.89 0,3.381Zm1.994,-2.881c0,-0.276 -0.224,-0.5 -0.5,-0.5c-0.276,0 -0.5,0.224 -0.5,0.5l0,3c0,0.276 0.224,0.5 0.5,0.5c0.276,0 0.5,-0.224 0.5,-0.5l0,-3Z" style="fill:#333;"/></svg>