<?xml version="1.0" encoding="UTF-8" standalone="no"?><!DOCTYPE svg PUBLIC "-//W3C//DTD SVG 1.1//EN" "http://www.w3.org/Graphics/SVG/1.1/DTD/svg11.dtd"><svg width="100%" height="100%" viewBox="0 0 24 24" version="1.1" xmlns="http://www.w3.org/2000/svg" xmlns:xlink="http://www.w3.org/1999/xlink" xml:space="preserve" xmlns:serif="http://www.serif.com/" style="fill-rule:evenodd;clip-rule:evenodd;stroke-linecap:round;stroke-linejoin:round;stroke-miterlimit:1.5;"><rect id="object.thin.window" x="0.003" y="0" width="24" height="24" style="fill:none;"/><path d="M21.003,2c0.265,0 0.519,0.105 0.707,0.293c0.188,0.187 0.293,0.442 0.293,0.707c0,3.414 0,14.586 0,18c0,0.265 -0.105,0.52 -0.293,0.707c-0.188,0.188 -0.442,0.293 -0.707,0.293c-3.414,0 -14.586,0 -18,0c-0.265,0 -0.52,-0.105 -0.707,-0.293c-0.188,-0.187 -0.293,-0.442 -0.293,-0.707c0,-3.414 0,-14.586 0,-18c0,-0.265 0.105,-0.52 0.293,-0.707c0.187,-0.188 0.442,-0.293 0.707,-0.293c3.414,0 14.586,0 18,0Zm-0.006,1l-18,0l0,18l18,0l0,-18Z" style="fill:#333;"/><circle cx="5.003" cy="5" r="1" style="fill:#333;"/><circle cx="8.003" cy="5" r="1" style="fill:#333;"/><circle cx="11.003" cy="5" r="1" style="fill:#333;"/><rect x="2.503" y="7.5" width="19" height="7" style="fill:none;stroke:#333;stroke-width:1px;"/><path d="M15.003,16.5c0,-0.276 -0.224,-0.5 -0.5,-0.5l-10.006,0c-0.276,0 -0.5,0.224 -0.5,0.5c0,0.276 0.224,0.5 0.5,0.5l10.006,0c0.276,0 0.5,-0.224 0.5,-0.5Z" style="fill:#333;"/><path d="M11.003,18.5c0,-0.276 -0.224,-0.5 -0.5,-0.5l-6.006,0c-0.276,0 -0.5,0.224 -0.5,0.5c0,0.276 0.224,0.5 0.5,0.5l6.006,0c0.276,0 0.5,-0.224 0.5,-0.5Z" style="fill:#333;"/><path d="M2.503,14.5l6,-5l5,4" style="fill:none;stroke:#333;stroke-width:1px;"/><path d="M12.003,14.5l4.5,-3l4,3" style="fill:none;stroke:#333;stroke-width:1px;"/></svg>