<?xml version="1.0" encoding="UTF-8" standalone="no"?><!DOCTYPE svg PUBLIC "-//W3C//DTD SVG 1.1//EN" "http://www.w3.org/Graphics/SVG/1.1/DTD/svg11.dtd"><svg width="100%" height="100%" viewBox="0 0 24 24" version="1.1" xmlns="http://www.w3.org/2000/svg" xmlns:xlink="http://www.w3.org/1999/xlink" xml:space="preserve" xmlns:serif="http://www.serif.com/" style="fill-rule:evenodd;clip-rule:evenodd;stroke-linejoin:round;stroke-miterlimit:1.41421;"><rect id="object.real.shoppingBag" x="0" y="0" width="24" height="24" style="fill:none;"/><path d="M13.997,8l0,-3l-4,0l0,3l-1,0c0,0 0,-1.815 0,-3c0,-0.265 0.105,-0.52 0.293,-0.707c0.188,-0.188 0.442,-0.293 0.707,-0.293c1.11,0 2.89,0 4,0c0.265,0 0.52,0.105 0.707,0.293c0.188,0.187 0.293,0.442 0.293,0.707c0,1.185 0,3 0,3l-1,0Z" style="fill:#333;"/><path d="M17.997,7c0.265,0 0.52,0.105 0.707,0.293c0.188,0.188 0.293,0.442 0.293,0.707c-0.001,2.212 -0.002,7.591 -0.002,11.001c-0.001,1.656 -1.344,2.999 -3,2.999c-2.362,0 -5.637,0 -7.999,0c-1.656,0 -2.999,-1.343 -3,-2.999c0,-3.41 -0.001,-8.789 -0.002,-11.001c0,-0.265 0.106,-0.519 0.293,-0.707c0.188,-0.188 0.442,-0.293 0.707,-0.293c2.578,0 9.425,0 12.003,0Z" style="fill:url(#_Linear1);"/><path d="M15,9.5c0,-0.133 -0.053,-0.26 -0.146,-0.354c-0.094,-0.093 -0.221,-0.146 -0.354,-0.146c-1.13,0 -3.87,0 -5,0c-0.133,0 -0.26,0.053 -0.354,0.146c-0.093,0.094 -0.146,0.221 -0.146,0.354c0,0.133 0.053,0.26 0.146,0.354c0.094,0.093 0.221,0.146 0.354,0.146c1.13,0 3.87,0 5,0c0.133,0 0.26,-0.053 0.354,-0.146c0.093,-0.094 0.146,-0.221 0.146,-0.354c0,0 0,0 0,0Z" style="fill:#333;"/><defs><linearGradient id="_Linear1" x1="0" y1="0" x2="1" y2="0" gradientUnits="userSpaceOnUse" gradientTransform="matrix(-20,20,-20,-20,22,2)"><stop offset="0" style="stop-color:#fff;stop-opacity:1"/><stop offset="1" style="stop-color:#666;stop-opacity:1"/></linearGradient></defs></svg>