<?xml version="1.0" encoding="UTF-8" standalone="no"?><!DOCTYPE svg PUBLIC "-//W3C//DTD SVG 1.1//EN" "http://www.w3.org/Graphics/SVG/1.1/DTD/svg11.dtd"><svg width="100%" height="100%" viewBox="0 0 24 24" version="1.1" xmlns="http://www.w3.org/2000/svg" xmlns:xlink="http://www.w3.org/1999/xlink" xml:space="preserve" xmlns:serif="http://www.serif.com/" style="fill-rule:evenodd;clip-rule:evenodd;stroke-linejoin:round;stroke-miterlimit:1.41421;"><rect id="object.thin.bell" x="0.003" y="0" width="24" height="24" style="fill:none;"/><path d="M9.174,18l-3.598,0c-0.342,0 -0.659,-0.174 -0.843,-0.462c-0.184,-0.288 -0.208,-0.65 -0.064,-0.96c0.189,-0.403 0.397,-0.849 0.597,-1.278c0.482,-1.048 0.731,-2.188 0.731,-3.342c0,-1.339 0,-2.958 0,-2.958c0,-3.312 2.689,-6 6,-6c3.312,0 6,2.689 6,6c0,0 0,1.598 0,2.933c0,1.171 0.257,2.328 0.753,3.389c0.193,0.412 0.399,0.852 0.587,1.254c0.145,0.31 0.122,0.672 -0.062,0.961c-0.184,0.288 -0.502,0.463 -0.844,0.463l-3.599,0c-0.412,1.165 -1.524,2 -2.829,2c-1.305,0 -2.417,-0.835 -2.829,-2Zm4.699,0l-3.741,0c0.358,0.667 1.062,1.121 1.871,1.121c0.809,0 1.513,-0.454 1.87,-1.121Zm1.13,-1l3.424,0c0,0 -0.333,-0.716 -0.678,-1.455c-0.493,-1.057 -0.749,-2.209 -0.75,-3.375c-0.001,-1.417 -0.002,-3.17 -0.002,-3.17c0,-2.76 -2.24,-5 -5,-5c-2.76,0 -5,2.24 -5,5c0,0 0.002,1.733 0.004,3.142c0.001,1.171 -0.255,2.328 -0.75,3.39c-0.347,0.745 -0.684,1.468 -0.684,1.468l9.436,0Zm-6.006,-7.5c0,-0.276 -0.224,-0.5 -0.5,-0.5c-0.276,0 -0.5,0.224 -0.5,0.5l0,3c0,0.276 0.224,0.5 0.5,0.5c0.276,0 0.5,-0.224 0.5,-0.5l0,-3Z" style="fill:#333;"/></svg>