<?xml version="1.0" encoding="UTF-8" standalone="no"?><!DOCTYPE svg PUBLIC "-//W3C//DTD SVG 1.1//EN" "http://www.w3.org/Graphics/SVG/1.1/DTD/svg11.dtd"><svg width="100%" height="100%" viewBox="0 0 24 24" version="1.1" xmlns="http://www.w3.org/2000/svg" xmlns:xlink="http://www.w3.org/1999/xlink" xml:space="preserve" xmlns:serif="http://www.serif.com/" style="fill-rule:evenodd;clip-rule:evenodd;stroke-linejoin:round;stroke-miterlimit:1.41421;"><rect id="object.thin.shoppingBag" x="0" y="0" width="24" height="24" style="fill:none;"/><path d="M8.997,7c0,0 0,-1.127 0,-2c0,-0.552 0.448,-1 1,-1c1.11,0 2.89,0 4,0c0.552,0 1,0.448 1,1c0,0.873 0,2 0,2c0,0 1.815,0 3,0c0.552,0 1,0.448 1,1c0,2.211 0,7.59 0,11c0,1.657 -1.343,3 -3,3c-2.362,0 -5.638,0 -7.999,0c-0.796,0 -1.559,-0.316 -2.122,-0.879c-0.563,-0.563 -0.879,-1.326 -0.878,-2.122c0,-3.41 0.001,-8.788 0.002,-10.999c0,-0.552 0.448,-1 1,-1c1.184,0 2.997,0 2.997,0Zm9,1l-11.997,0c0,0 0,7.354 0,11c0,0.53 0.211,1.039 0.586,1.414c0.375,0.375 0.884,0.586 1.414,0.586c2.219,0 5.778,0 7.997,0c0.53,0 1.039,-0.211 1.414,-0.586c0.375,-0.375 0.586,-0.884 0.586,-1.414c0,-3.646 0,-11 0,-11Zm-3.496,1c0.132,0 0.259,0.053 0.353,0.146c0.093,0.094 0.146,0.221 0.146,0.353c0,0.001 0,0.001 0,0.002c0,0.132 -0.053,0.259 -0.146,0.353c-0.094,0.093 -0.221,0.146 -0.353,0.146c-1.13,0 -3.872,0 -5.002,0c-0.132,0 -0.259,-0.053 -0.353,-0.146c-0.093,-0.094 -0.146,-0.221 -0.146,-0.353c0,-0.001 0,-0.001 0,-0.002c0,-0.132 0.053,-0.259 0.146,-0.353c0.094,-0.093 0.221,-0.146 0.353,-0.146c1.13,0 3.872,0 5.002,0Zm-4.504,-4l0,2l4,0l0,-2l-4,0Z" style="fill:#333;"/></svg>