<?xml version="1.0" encoding="UTF-8" standalone="no"?><!DOCTYPE svg PUBLIC "-//W3C//DTD SVG 1.1//EN" "http://www.w3.org/Graphics/SVG/1.1/DTD/svg11.dtd"><svg width="100%" height="100%" viewBox="0 0 24 24" version="1.1" xmlns="http://www.w3.org/2000/svg" xmlns:xlink="http://www.w3.org/1999/xlink" xml:space="preserve" xmlns:serif="http://www.serif.com/" style="fill-rule:evenodd;clip-rule:evenodd;stroke-linejoin:round;stroke-miterlimit:1.41421;"><rect id="object.filled.folder" x="0.003" y="0" width="24" height="24" style="fill:none;"/><path d="M21.003,20l-18,0c-0.552,0 -1,-0.448 -1,-1c0,0 0,-12.541 0,-14c0,-0.265 0.105,-0.519 0.293,-0.707c0.187,-0.187 0.442,-0.293 0.707,-0.293c1.39,0 3.832,0 4.691,0c0.189,0 0.362,0.107 0.447,0.277l0.862,1.723l12,0c0.552,0 1,0.448 1,1l0,12c0,0.552 -0.448,1 -1,1Zm-10.003,-2.5c0,-0.276 -0.224,-0.5 -0.5,-0.5c-1.289,0 -4.711,0 -6,0c-0.276,0 -0.5,0.224 -0.5,0.5c0,0.276 0.224,0.5 0.5,0.5c1.289,0 4.711,0 6,0c0.276,0 0.5,-0.224 0.5,-0.5c0,0 0,0 0,0Z" style="fill:#333;"/><path d="M13.694,4l0.035,0.001l0.035,0.004l0.034,0.006l0.034,0.008l0.033,0.011l0.031,0.013l0.031,0.015l0.03,0.017l0.028,0.019l0.027,0.021l0.026,0.022l0.024,0.025l0.023,0.026l0.02,0.028l0.019,0.029l0.017,0.031l1.362,2.724l-9,0l0,-3l7.191,0Zm-6.191,1l0,1l6.382,0l-0.5,-1l-5.882,0Z" style="fill:#333;"/></svg>