<?xml version="1.0" encoding="UTF-8" standalone="no"?><!DOCTYPE svg PUBLIC "-//W3C//DTD SVG 1.1//EN" "http://www.w3.org/Graphics/SVG/1.1/DTD/svg11.dtd"><svg width="100%" height="100%" viewBox="0 0 24 24" version="1.1" xmlns="http://www.w3.org/2000/svg" xmlns:xlink="http://www.w3.org/1999/xlink" xml:space="preserve" xmlns:serif="http://www.serif.com/" style="fill-rule:evenodd;clip-rule:evenodd;stroke-linejoin:round;stroke-miterlimit:1.41421;"><rect id="object.regular.shoppingBag" x="0" y="0" width="24" height="24" style="fill:none;"/><path d="M8.997,6c0,0 0,-1.127 0,-2c0,-0.552 0.448,-1 1,-1c1.11,0 2.89,0 4,0c0.552,0 1,0.448 1,1c0,0.873 0,2 0,2c0,0 2.543,0 4.003,0c0.552,0 1,0.448 1,1c0,2.358 0,8.343 0,12c0,1.657 -1.343,3 -3,3c-2.859,0 -7.141,0 -10,0c-1.657,0 -3,-1.343 -3,-3c0,-3.657 0,-9.642 0,-12c0,-0.265 0.105,-0.52 0.293,-0.707c0.187,-0.188 0.442,-0.293 0.707,-0.293c1.458,0 3.997,0 3.997,0Zm9.003,2l-12,0c0,0 0,8.118 0,11c0,0.265 0.105,0.52 0.293,0.707c0.187,0.188 0.442,0.293 0.707,0.293c2.26,0 7.74,0 10,0c0.265,0 0.52,-0.105 0.707,-0.293c0.188,-0.187 0.293,-0.442 0.293,-0.707c0,-2.882 0,-11 0,-11Zm-3.499,1c0.276,0 0.499,0.223 0.499,0.499c0,0 0,0.001 0,0.001c0,0.133 -0.053,0.26 -0.146,0.354c-0.094,0.093 -0.221,0.146 -0.354,0.146c-1.13,0 -3.872,0 -5.003,0c-0.133,0 -0.26,-0.053 -0.353,-0.146c-0.094,-0.094 -0.147,-0.221 -0.147,-0.354c0,0 0,-0.001 0,-0.001c0,-0.276 0.223,-0.499 0.499,-0.499c1.13,0 3.875,0 5.005,0Zm-4.504,-5l0,2l4,0l0,-2l-4,0Z" style="fill:#333;"/></svg>