<?xml version="1.0" encoding="UTF-8" standalone="no"?><!DOCTYPE svg PUBLIC "-//W3C//DTD SVG 1.1//EN" "http://www.w3.org/Graphics/SVG/1.1/DTD/svg11.dtd"><svg width="100%" height="100%" viewBox="0 0 24 24" version="1.1" xmlns="http://www.w3.org/2000/svg" xmlns:xlink="http://www.w3.org/1999/xlink" xml:space="preserve" xmlns:serif="http://www.serif.com/" style="fill-rule:evenodd;clip-rule:evenodd;stroke-linecap:round;stroke-linejoin:round;stroke-miterlimit:1.5;"><rect id="object.thin.lock" x="0.003" y="0" width="24" height="24" style="fill:none;"/><path d="M18.071,9.002l0.068,0.007l0.067,0.012l0.067,0.016l0.065,0.021l0.063,0.025l0.062,0.029l0.059,0.034l0.058,0.037l0.054,0.041l0.051,0.045l0.049,0.048l0.045,0.052l0.041,0.054l0.037,0.057l0.034,0.06l0.029,0.062l0.025,0.063l0.021,0.065l0.016,0.067l0.012,0.067l0.007,0.068l0.002,0.068l0,10l-0.002,0.068l-0.007,0.068l-0.012,0.067l-0.016,0.067l-0.021,0.065l-0.025,0.063l-0.029,0.062l-0.034,0.06l-0.037,0.057l-0.041,0.054l-0.045,0.052l-0.049,0.048l-0.051,0.045l-0.054,0.041l-0.058,0.037l-0.059,0.034l-0.062,0.029l-0.063,0.025l-0.065,0.021l-0.067,0.016l-0.067,0.012l-0.068,0.007l-0.068,0.002l-12,0l-0.068,-0.002l-0.068,-0.007l-0.068,-0.012l-0.066,-0.016l-0.065,-0.021l-0.064,-0.025l-0.061,-0.029l-0.06,-0.034l-0.057,-0.037l-0.054,-0.041l-0.052,-0.045l-0.048,-0.048l-0.045,-0.052l-0.041,-0.054l-0.038,-0.057l-0.033,-0.06l-0.029,-0.062l-0.025,-0.063l-0.021,-0.065l-0.016,-0.067l-0.012,-0.067l-0.007,-0.068l-0.002,-0.068l0,-10l0.002,-0.068l0.007,-0.068l0.012,-0.067l0.016,-0.067l0.021,-0.065l0.025,-0.063l0.029,-0.062l0.033,-0.06l0.038,-0.057l0.041,-0.054l0.045,-0.052l0.048,-0.048l0.052,-0.045l0.054,-0.041l0.057,-0.037l0.06,-0.034l0.061,-0.029l0.064,-0.025l0.065,-0.021l0.066,-0.016l0.068,-0.012l0.068,-0.007l0.068,-0.002l12,0l0.068,0.002Zm-12.068,0.998l0,10l12,0l0,-10l-12,0Z" style="fill:#333;"/><path d="M8.503,9.5l0,-2.5c0,-1.38 1.045,-2.5 2.333,-2.5l2.334,0c1.287,0 2.333,1.12 2.333,2.5l0,2.5l-7,0Z" style="fill:none;stroke:#333;stroke-width:1px;"/><path d="M14.58,13.002l0.075,0.005l0.075,0.01l0.074,0.013l0.074,0.017l0.07,0.02l0.07,0.024l0.07,0.027l0.067,0.031l0.064,0.033l0.063,0.036l0.06,0.039l0.059,0.041l0.057,0.045l0.054,0.047l0.051,0.049l0.05,0.052l0.048,0.055l0.043,0.056l0.042,0.058l0.04,0.062l0.035,0.062l0.033,0.064l0.031,0.067l0.027,0.07l0.024,0.069l0.02,0.07l0.017,0.074l0.013,0.076l0.009,0.074l0.006,0.075l0.002,0.077l-0.002,0.077l-0.006,0.075l-0.009,0.074l-0.013,0.076l-0.017,0.074l-0.02,0.07l-0.024,0.069l-0.027,0.07l-0.031,0.067l-0.033,0.064l-0.035,0.062l-0.04,0.062l-0.042,0.058l-0.043,0.056l-0.048,0.055l-0.05,0.052l-0.051,0.049l-0.054,0.047l-0.057,0.045l-0.059,0.041l-0.06,0.039l-0.063,0.036l-0.064,0.033l-0.067,0.031l-0.07,0.027l-0.07,0.024l-0.07,0.02l-0.074,0.017l-0.074,0.013l-0.075,0.01l-0.075,0.005l-0.077,0.002l-0.077,-0.002l-0.075,-0.005l-0.075,-0.01l-0.075,-0.013l-0.073,-0.017l-0.071,-0.02l-0.07,-0.024l-0.068,-0.027l-0.068,-0.031l-0.064,-0.033l-0.063,-0.036l-0.061,-0.039l-0.058,-0.041l-0.056,-0.044l-0.054,-0.047l-0.053,-0.051l-0.05,-0.052l-0.046,-0.053l-0.045,-0.057l-0.042,-0.059l-0.038,-0.059l-0.037,-0.064l-0.032,-0.064l-0.031,-0.067l-0.027,-0.07l-0.024,-0.069l-0.02,-0.072l-0.017,-0.072l-0.013,-0.074l-0.01,-0.076l-0.005,-0.075l-0.002,-0.077l0.002,-0.077l0.005,-0.075l0.01,-0.076l0.013,-0.074l0.017,-0.072l0.02,-0.072l0.024,-0.069l0.027,-0.07l0.031,-0.067l0.032,-0.064l0.037,-0.064l0.038,-0.059l0.042,-0.059l0.045,-0.057l0.046,-0.053l0.05,-0.052l0.053,-0.051l0.054,-0.047l0.056,-0.044l0.058,-0.041l0.061,-0.039l0.063,-0.036l0.064,-0.033l0.068,-0.031l0.068,-0.027l0.07,-0.024l0.071,-0.02l0.073,-0.017l0.075,-0.013l0.075,-0.01l0.075,-0.005l0.077,-0.002l0.077,0.002Zm-0.102,0.998l-0.025,0.002l-0.025,0.003l-0.025,0.005l-0.025,0.006l-0.023,0.006l-0.023,0.008l-0.025,0.01l-0.022,0.01l-0.022,0.011l-0.021,0.012l-0.02,0.013l-0.019,0.014l-0.019,0.014l-0.018,0.016l-0.016,0.016l-0.017,0.017l-0.016,0.019l-0.014,0.018l-0.014,0.019l-0.014,0.021l-0.011,0.021l-0.011,0.021l-0.01,0.022l-0.01,0.024l-0.008,0.024l-0.006,0.022l-0.006,0.026l-0.005,0.026l-0.003,0.024l-0.002,0.025l0,0.025l0,0.025l0.002,0.025l0.003,0.024l0.005,0.026l0.006,0.026l0.006,0.022l0.008,0.024l0.01,0.024l0.01,0.022l0.011,0.021l0.011,0.021l0.014,0.021l0.014,0.019l0.014,0.018l0.016,0.019l0.017,0.017l0.016,0.016l0.018,0.016l0.019,0.014l0.019,0.014l0.02,0.013l0.021,0.012l0.022,0.011l0.022,0.01l0.025,0.01l0.023,0.008l0.023,0.006l0.025,0.006l0.025,0.005l0.025,0.003l0.025,0.002l0.025,0l0.025,0l0.025,-0.002l0.024,-0.003l0.026,-0.005l0.025,-0.006l0.024,-0.006l0.023,-0.008l0.023,-0.009l0.023,-0.011l0.021,-0.011l0.021,-0.012l0.021,-0.013l0.019,-0.014l0.018,-0.014l0.017,-0.015l0.019,-0.018l0.017,-0.018l0.014,-0.015l0.015,-0.02l0.015,-0.02l0.012,-0.019l0.012,-0.022l0.011,-0.021l0.01,-0.022l0.01,-0.024l0.008,-0.024l0.007,-0.024l0.005,-0.024l0.004,-0.024l0.004,-0.026l0.002,-0.025l0,-0.025l0,-0.025l-0.002,-0.025l-0.004,-0.026l-0.004,-0.024l-0.005,-0.024l-0.007,-0.024l-0.008,-0.024l-0.01,-0.024l-0.01,-0.022l-0.011,-0.021l-0.012,-0.022l-0.012,-0.019l-0.015,-0.02l-0.015,-0.02l-0.014,-0.015l-0.017,-0.018l-0.019,-0.018l-0.017,-0.015l-0.018,-0.014l-0.019,-0.014l-0.021,-0.013l-0.021,-0.012l-0.021,-0.011l-0.023,-0.011l-0.023,-0.009l-0.023,-0.008l-0.024,-0.006l-0.025,-0.006l-0.026,-0.005l-0.024,-0.003l-0.025,-0.002l-0.025,0l-0.025,0Z" style="fill:#333;"/><path d="M14.503,15.5l0,1.5" style="fill:none;stroke:#333;stroke-width:1px;"/></svg>