<?xml version="1.0" encoding="UTF-8" standalone="no"?><!DOCTYPE svg PUBLIC "-//W3C//DTD SVG 1.1//EN" "http://www.w3.org/Graphics/SVG/1.1/DTD/svg11.dtd"><svg width="100%" height="100%" viewBox="0 0 24 24" version="1.1" xmlns="http://www.w3.org/2000/svg" xmlns:xlink="http://www.w3.org/1999/xlink" xml:space="preserve" xmlns:serif="http://www.serif.com/" style="fill-rule:evenodd;clip-rule:evenodd;stroke-linejoin:round;stroke-miterlimit:1.41421;"><rect id="object.thin.QRCode" x="0.003" y="0" width="24" height="24" style="fill:none;"/><path d="M21.085,2.003l0.082,0.011l0.081,0.017l0.08,0.023l0.077,0.03l0.074,0.037l0.071,0.042l0.067,0.048l0.063,0.053l0.059,0.059l0.053,0.063l0.048,0.067l0.042,0.071l0.037,0.074l0.03,0.077l0.023,0.08l0.017,0.08l0.01,0.082l0.004,0.083l0,18l-0.004,0.083l-0.01,0.082l-0.017,0.08l-0.023,0.08l-0.03,0.077l-0.037,0.074l-0.042,0.071l-0.048,0.067l-0.053,0.063l-0.059,0.059l-0.063,0.053l-0.067,0.048l-0.071,0.042l-0.074,0.037l-0.077,0.03l-0.08,0.023l-0.081,0.017l-0.082,0.011l-0.082,0.003l-18,0l-0.083,-0.003l-0.082,-0.011l-0.081,-0.017l-0.079,-0.023l-0.077,-0.03l-0.074,-0.037l-0.071,-0.042l-0.067,-0.048l-0.063,-0.053l-0.059,-0.059l-0.053,-0.063l-0.048,-0.067l-0.043,-0.071l-0.036,-0.074l-0.03,-0.077l-0.024,-0.08l-0.016,-0.08l-0.011,-0.082l-0.003,-0.083l0,-18l0.003,-0.083l0.011,-0.082l0.016,-0.08l0.024,-0.08l0.03,-0.077l0.036,-0.074l0.043,-0.071l0.048,-0.067l0.053,-0.063l0.059,-0.059l0.063,-0.053l0.067,-0.048l0.071,-0.042l0.074,-0.037l0.077,-0.03l0.079,-0.023l0.081,-0.017l0.082,-0.011l0.083,-0.003l18,0l0.082,0.003Zm-18.082,0.997l0,18l18,0l0,-18l-18,0Z" style="fill:#333;"/><path d="M7.042,2.001l0.039,0.002l0.039,0.004l0.039,0.005l0.039,0.007l0.038,0.009l0.038,0.01l0.038,0.011l0.037,0.013l0.037,0.014l0.036,0.016l0.035,0.017l0.035,0.019l0.033,0.019l0.033,0.022l0.033,0.022l0.031,0.024l0.03,0.025l0.03,0.026l0.028,0.027l0.027,0.028l0.026,0.03l0.025,0.03l0.024,0.031l0.022,0.032l0.022,0.034l0.019,0.033l0.019,0.035l0.017,0.035l0.016,0.036l0.014,0.037l0.013,0.037l0.011,0.038l0.01,0.038l0.009,0.038l0.007,0.039l0.005,0.038l0.004,0.04l0.002,0.039l0.001,0.039l0,4l-0.001,0.039l-0.002,0.039l-0.004,0.04l-0.005,0.038l-0.007,0.039l-0.009,0.038l-0.01,0.038l-0.011,0.038l-0.013,0.037l-0.014,0.037l-0.016,0.036l-0.017,0.035l-0.019,0.035l-0.019,0.033l-0.022,0.034l-0.022,0.032l-0.024,0.031l-0.025,0.03l-0.026,0.03l-0.027,0.028l-0.028,0.027l-0.03,0.026l-0.03,0.025l-0.031,0.024l-0.033,0.022l-0.033,0.022l-0.033,0.019l-0.035,0.019l-0.035,0.017l-0.036,0.016l-0.037,0.014l-0.037,0.013l-0.038,0.011l-0.038,0.01l-0.038,0.009l-0.039,0.007l-0.039,0.005l-0.039,0.004l-0.039,0.002l-0.039,0.001l-4,0l-0.039,-0.001l-0.04,-0.002l-0.039,-0.004l-0.039,-0.005l-0.038,-0.007l-0.039,-0.009l-0.038,-0.01l-0.037,-0.011l-0.037,-0.013l-0.037,-0.014l-0.036,-0.016l-0.035,-0.017l-0.035,-0.019l-0.034,-0.019l-0.033,-0.022l-0.032,-0.022l-0.031,-0.024l-0.031,-0.025l-0.029,-0.026l-0.028,-0.027l-0.027,-0.028l-0.027,-0.03l-0.024,-0.03l-0.024,-0.031l-0.023,-0.032l-0.021,-0.034l-0.02,-0.033l-0.018,-0.035l-0.017,-0.035l-0.016,-0.036l-0.014,-0.037l-0.013,-0.037l-0.012,-0.038l-0.009,-0.038l-0.009,-0.038l-0.007,-0.039l-0.005,-0.038l-0.004,-0.04l-0.002,-0.039l-0.001,-0.039l0,-4l0.001,-0.039l0.002,-0.039l0.004,-0.04l0.005,-0.038l0.007,-0.039l0.009,-0.038l0.009,-0.038l0.012,-0.038l0.013,-0.037l0.014,-0.037l0.016,-0.036l0.017,-0.035l0.018,-0.035l0.02,-0.033l0.021,-0.034l0.023,-0.032l0.024,-0.031l0.024,-0.03l0.027,-0.03l0.027,-0.028l0.028,-0.027l0.029,-0.026l0.031,-0.025l0.031,-0.024l0.032,-0.022l0.033,-0.022l0.034,-0.019l0.035,-0.019l0.035,-0.017l0.036,-0.016l0.037,-0.014l0.037,-0.013l0.037,-0.011l0.038,-0.01l0.039,-0.009l0.038,-0.007l0.039,-0.005l0.039,-0.004l0.04,-0.002l0.039,-0.001l4,0l0.039,0.001Zm-4.039,0.999l0,4l4,0l0,-4l-4,0Z" style="fill:#333;"/><path d="M21.042,2.001l0.039,0.002l0.039,0.004l0.039,0.005l0.039,0.007l0.038,0.009l0.038,0.01l0.038,0.011l0.037,0.013l0.037,0.014l0.036,0.016l0.035,0.017l0.035,0.019l0.033,0.019l0.033,0.022l0.033,0.022l0.031,0.024l0.03,0.025l0.03,0.026l0.028,0.027l0.027,0.028l0.026,0.03l0.025,0.03l0.024,0.031l0.022,0.032l0.022,0.034l0.019,0.033l0.019,0.035l0.017,0.035l0.016,0.036l0.014,0.037l0.013,0.037l0.011,0.038l0.01,0.038l0.009,0.038l0.007,0.039l0.005,0.038l0.004,0.04l0.002,0.039l0.001,0.039l0,4l-0.001,0.039l-0.002,0.039l-0.004,0.04l-0.005,0.038l-0.007,0.039l-0.009,0.038l-0.01,0.038l-0.011,0.038l-0.013,0.037l-0.014,0.037l-0.016,0.036l-0.017,0.035l-0.019,0.035l-0.019,0.033l-0.022,0.034l-0.022,0.032l-0.024,0.031l-0.025,0.03l-0.026,0.03l-0.027,0.028l-0.028,0.027l-0.03,0.026l-0.03,0.025l-0.031,0.024l-0.033,0.022l-0.033,0.022l-0.033,0.019l-0.035,0.019l-0.035,0.017l-0.036,0.016l-0.037,0.014l-0.037,0.013l-0.038,0.011l-0.038,0.01l-0.038,0.009l-0.039,0.007l-0.039,0.005l-0.039,0.004l-0.039,0.002l-0.039,0.001l-4,0l-0.039,-0.001l-0.04,-0.002l-0.039,-0.004l-0.039,-0.005l-0.038,-0.007l-0.039,-0.009l-0.038,-0.01l-0.037,-0.011l-0.037,-0.013l-0.037,-0.014l-0.036,-0.016l-0.035,-0.017l-0.035,-0.019l-0.034,-0.019l-0.033,-0.022l-0.032,-0.022l-0.031,-0.024l-0.031,-0.025l-0.029,-0.026l-0.028,-0.027l-0.027,-0.028l-0.027,-0.03l-0.024,-0.03l-0.024,-0.031l-0.023,-0.032l-0.021,-0.034l-0.02,-0.033l-0.018,-0.035l-0.017,-0.035l-0.016,-0.036l-0.014,-0.037l-0.013,-0.037l-0.012,-0.038l-0.009,-0.038l-0.009,-0.038l-0.007,-0.039l-0.005,-0.038l-0.004,-0.04l-0.002,-0.039l-0.001,-0.039l0,-4l0.001,-0.039l0.002,-0.039l0.004,-0.04l0.005,-0.038l0.007,-0.039l0.009,-0.038l0.009,-0.038l0.012,-0.038l0.013,-0.037l0.014,-0.037l0.016,-0.036l0.017,-0.035l0.018,-0.035l0.02,-0.033l0.021,-0.034l0.023,-0.032l0.024,-0.031l0.024,-0.03l0.027,-0.03l0.027,-0.028l0.028,-0.027l0.029,-0.026l0.031,-0.025l0.031,-0.024l0.032,-0.022l0.033,-0.022l0.034,-0.019l0.035,-0.019l0.035,-0.017l0.036,-0.016l0.037,-0.014l0.037,-0.013l0.037,-0.011l0.038,-0.01l0.039,-0.009l0.038,-0.007l0.039,-0.005l0.039,-0.004l0.04,-0.002l0.039,-0.001l4,0l0.039,0.001Zm-4.039,0.999l0,4l4,0l0,-4l-4,0Z" style="fill:#333;"/><path d="M7.042,16.001l0.039,0.002l0.039,0.004l0.039,0.005l0.039,0.007l0.038,0.009l0.038,0.01l0.038,0.011l0.037,0.013l0.037,0.014l0.036,0.016l0.035,0.017l0.035,0.019l0.033,0.019l0.033,0.022l0.033,0.022l0.031,0.024l0.03,0.025l0.03,0.026l0.028,0.027l0.027,0.028l0.026,0.03l0.025,0.03l0.024,0.031l0.022,0.032l0.022,0.034l0.019,0.033l0.019,0.035l0.017,0.035l0.016,0.036l0.014,0.037l0.013,0.037l0.011,0.038l0.01,0.038l0.009,0.038l0.007,0.039l0.005,0.038l0.004,0.04l0.002,0.039l0.001,0.039l0,4l-0.001,0.039l-0.002,0.039l-0.004,0.04l-0.005,0.038l-0.007,0.039l-0.009,0.038l-0.01,0.038l-0.011,0.038l-0.013,0.037l-0.014,0.037l-0.016,0.036l-0.017,0.035l-0.019,0.035l-0.019,0.033l-0.022,0.034l-0.022,0.032l-0.024,0.031l-0.025,0.03l-0.026,0.03l-0.027,0.028l-0.028,0.027l-0.03,0.026l-0.03,0.025l-0.031,0.024l-0.033,0.022l-0.033,0.022l-0.033,0.019l-0.035,0.019l-0.035,0.017l-0.036,0.016l-0.037,0.014l-0.037,0.013l-0.038,0.011l-0.038,0.01l-0.038,0.009l-0.039,0.007l-0.039,0.005l-0.039,0.004l-0.039,0.002l-0.039,0.001l-4,0l-0.039,-0.001l-0.04,-0.002l-0.039,-0.004l-0.039,-0.005l-0.038,-0.007l-0.039,-0.009l-0.038,-0.01l-0.037,-0.011l-0.037,-0.013l-0.037,-0.014l-0.036,-0.016l-0.035,-0.017l-0.035,-0.019l-0.034,-0.019l-0.033,-0.022l-0.032,-0.022l-0.031,-0.024l-0.031,-0.025l-0.029,-0.026l-0.028,-0.027l-0.027,-0.028l-0.027,-0.03l-0.024,-0.03l-0.024,-0.031l-0.023,-0.032l-0.021,-0.034l-0.02,-0.033l-0.018,-0.035l-0.017,-0.035l-0.016,-0.036l-0.014,-0.037l-0.013,-0.037l-0.012,-0.038l-0.009,-0.038l-0.009,-0.038l-0.007,-0.039l-0.005,-0.038l-0.004,-0.04l-0.002,-0.039l-0.001,-0.039l0,-4l0.001,-0.039l0.002,-0.039l0.004,-0.04l0.005,-0.038l0.007,-0.039l0.009,-0.038l0.009,-0.038l0.012,-0.038l0.013,-0.037l0.014,-0.037l0.016,-0.036l0.017,-0.035l0.018,-0.035l0.02,-0.033l0.021,-0.034l0.023,-0.032l0.024,-0.031l0.024,-0.03l0.027,-0.03l0.027,-0.028l0.028,-0.027l0.029,-0.026l0.031,-0.025l0.031,-0.024l0.032,-0.022l0.033,-0.022l0.034,-0.019l0.035,-0.019l0.035,-0.017l0.036,-0.016l0.037,-0.014l0.037,-0.013l0.037,-0.011l0.038,-0.01l0.039,-0.009l0.038,-0.007l0.039,-0.005l0.039,-0.004l0.04,-0.002l0.039,-0.001l4,0l0.039,0.001Zm-4.039,0.999l0,4l4,0l0,-4l-4,0Z" style="fill:#333;"/><g><circle cx="5.003" cy="5" r="1" style="fill:#333;"/><circle cx="19.003" cy="5" r="1" style="fill:#333;"/><circle cx="5.003" cy="19" r="1" style="fill:#333;"/><path d="M13.031,10l0.028,0.002l0.028,0.002l0.028,0.002l0.028,0.004l0.027,0.004l0.028,0.005l0.027,0.006l0.028,0.007l0.027,0.007l0.027,0.008l0.026,0.009l0.027,0.01l0.026,0.01l0.025,0.011l0.026,0.012l0.025,0.013l0.025,0.013l0.024,0.014l0.024,0.014l0.023,0.016l0.024,0.015l0.022,0.017l0.022,0.017l0.022,0.018l0.021,0.018l0.021,0.019l0.02,0.02l0.02,0.02l0.019,0.021l0.018,0.021l0.018,0.022l0.017,0.022l0.016,0.022l0.016,0.023l0.016,0.024l0.014,0.024l0.014,0.024l0.013,0.025l0.013,0.025l0.012,0.026l0.011,0.025l0.01,0.026l0.01,0.027l0.009,0.026l0.008,0.027l0.007,0.027l0.007,0.027l0.006,0.028l0.005,0.027l0.004,0.028l0.004,0.028l0.002,0.028l0.002,0.028l0.002,0.028l0,0.028l0,2l0,0.028l-0.002,0.028l-0.002,0.028l-0.002,0.028l-0.004,0.028l-0.004,0.028l-0.005,0.027l-0.006,0.028l-0.007,0.027l-0.007,0.027l-0.008,0.027l-0.009,0.026l-0.01,0.027l-0.01,0.026l-0.011,0.025l-0.012,0.026l-0.013,0.025l-0.013,0.025l-0.014,0.024l-0.014,0.024l-0.016,0.024l-0.016,0.023l-0.016,0.022l-0.017,0.022l-0.018,0.022l-0.018,0.021l-0.019,0.021l-0.02,0.02l-0.02,0.02l-0.021,0.019l-0.021,0.018l-0.022,0.018l-0.022,0.017l-0.022,0.017l-0.024,0.015l-0.023,0.016l-0.024,0.014l-0.024,0.014l-0.025,0.013l-0.025,0.013l-0.026,0.012l-0.025,0.011l-0.026,0.01l-0.027,0.01l-0.026,0.009l-0.027,0.008l-0.027,0.007l-0.028,0.007l-0.027,0.006l-0.028,0.005l-0.027,0.004l-0.028,0.004l-0.028,0.002l-0.028,0.002l-0.028,0.002l-0.028,0l-2,0l-0.028,0l-0.028,-0.002l-0.028,-0.002l-0.028,-0.002l-0.028,-0.004l-0.028,-0.004l-0.027,-0.005l-0.028,-0.006l-0.027,-0.007l-0.027,-0.007l-0.027,-0.008l-0.026,-0.009l-0.027,-0.01l-0.026,-0.01l-0.026,-0.011l-0.025,-0.012l-0.025,-0.013l-0.025,-0.013l-0.024,-0.014l-0.024,-0.014l-0.024,-0.016l-0.023,-0.015l-0.022,-0.017l-0.023,-0.017l-0.021,-0.018l-0.021,-0.018l-0.021,-0.019l-0.02,-0.02l-0.02,-0.02l-0.019,-0.021l-0.018,-0.021l-0.018,-0.022l-0.017,-0.022l-0.017,-0.022l-0.016,-0.023l-0.015,-0.024l-0.014,-0.024l-0.014,-0.024l-0.014,-0.025l-0.012,-0.025l-0.012,-0.026l-0.011,-0.025l-0.01,-0.026l-0.01,-0.027l-0.009,-0.026l-0.008,-0.027l-0.007,-0.027l-0.007,-0.027l-0.006,-0.028l-0.005,-0.027l-0.004,-0.028l-0.004,-0.028l-0.003,-0.028l-0.002,-0.028l-0.001,-0.028l0,-0.028l0,-2l0,-0.028l0.001,-0.028l0.002,-0.028l0.003,-0.028l0.004,-0.028l0.004,-0.028l0.005,-0.027l0.006,-0.028l0.007,-0.027l0.007,-0.027l0.008,-0.027l0.009,-0.026l0.01,-0.027l0.01,-0.026l0.011,-0.025l0.012,-0.026l0.012,-0.025l0.014,-0.025l0.014,-0.024l0.014,-0.024l0.015,-0.024l0.016,-0.023l0.017,-0.022l0.017,-0.022l0.018,-0.022l0.018,-0.021l0.019,-0.021l0.02,-0.02l0.02,-0.02l0.021,-0.019l0.021,-0.018l0.021,-0.018l0.023,-0.017l0.022,-0.017l0.023,-0.015l0.024,-0.016l0.024,-0.014l0.024,-0.014l0.025,-0.013l0.025,-0.013l0.025,-0.012l0.026,-0.011l0.026,-0.01l0.027,-0.01l0.026,-0.009l0.027,-0.008l0.027,-0.007l0.027,-0.007l0.028,-0.006l0.027,-0.005l0.028,-0.004l0.028,-0.004l0.028,-0.002l0.028,-0.002l0.028,-0.002l0.028,0l2,0l0.028,0Zm-2.028,1l0,2l2,0l0,-2l-2,0Z" style="fill:#333;"/><path d="M9,11.5c0,-0.133 -0.053,-0.26 -0.146,-0.354c-0.094,-0.093 -0.221,-0.146 -0.354,-0.146c-0.133,0 -0.26,0.053 -0.354,0.146c-0.093,0.094 -0.146,0.221 -0.146,0.354c0,0.555 0,1.445 0,2c0,0.133 0.053,0.26 0.146,0.354c0.094,0.093 0.221,0.146 0.354,0.146c0.133,0 0.26,-0.053 0.354,-0.146c0.093,-0.094 0.146,-0.221 0.146,-0.354c0,-0.555 0,-1.445 0,-2Z" style="fill:#333;"/><path d="M4,13.5c0,-0.133 0.053,-0.26 0.146,-0.354c0.094,-0.093 0.221,-0.146 0.354,-0.146c0.25,0 0.5,0 0.5,0c0,0 0,-0.908 0,-1.5c0,-0.133 0.053,-0.26 0.146,-0.354c0.094,-0.093 0.221,-0.146 0.354,-0.146c0.276,0 0.5,0.224 0.5,0.5c0,0.25 0,0.5 0,0.5c0,0 0.25,0 0.5,0c0.133,0 0.26,0.053 0.354,0.146c0.093,0.094 0.146,0.221 0.146,0.354c0,0.276 -0.224,0.5 -0.5,0.5c-0.25,0 -0.5,0 -0.5,0l0.003,0c0,0 0,0.908 0,1.5c0,0.133 -0.053,0.26 -0.147,0.354c-0.093,0.093 -0.22,0.146 -0.353,0.146c-0.306,0 -0.697,0 -1.003,0c-0.133,0 -0.26,-0.053 -0.354,-0.146c-0.093,-0.094 -0.146,-0.221 -0.146,-0.354c0,-0.305 0,-0.695 0,-1Z" style="fill:#333;"/><path d="M7.997,14.498c0,-0.275 -0.223,-0.498 -0.498,-0.498c0,0 -0.001,0 -0.001,0c-0.275,0 -0.498,0.223 -0.498,0.498c0,0.001 0,0.003 0,0.004c0,0.275 0.223,0.498 0.498,0.498c0,0 0.001,0 0.001,0c0.275,0 0.498,-0.223 0.498,-0.498c0,-0.001 0,-0.003 0,-0.004Z" style="fill:#333;"/><path d="M12.003,5.5c0,-0.276 0.224,-0.5 0.5,-0.5c0.591,0 1.497,0 1.497,0c0,0 0,-0.25 0,-0.5c0,-0.133 0.053,-0.26 0.146,-0.354c0.094,-0.093 0.221,-0.146 0.354,-0.146c0.133,0 0.26,0.053 0.354,0.146c0.093,0.094 0.146,0.221 0.146,0.354c0,0.958 0,3.042 0,4c0,0.133 -0.053,0.26 -0.146,0.354c-0.094,0.093 -0.221,0.146 -0.354,0.146c-0.276,0 -0.5,-0.224 -0.5,-0.5c0,-0.25 0,-0.5 0,-0.5c0,0 -0.249,0 -0.499,0c-0.132,0 -0.259,-0.053 -0.353,-0.146c-0.094,-0.094 -0.147,-0.221 -0.147,-0.354c0,-0.592 0,-1.5 0,-1.5c0,0 -0.249,0 -0.498,0c-0.276,0 -0.5,-0.224 -0.5,-0.5c0,0 0,0 0,0Z" style="fill:#333;"/><path d="M4,9.5c0,-0.133 0.053,-0.26 0.146,-0.354c0.094,-0.093 0.221,-0.146 0.354,-0.146l4,0c0.133,0 0.26,0.053 0.354,0.146c0.093,0.094 0.146,0.221 0.146,0.354c0,0.276 -0.224,0.5 -0.5,0.5c-0.25,0 -0.5,0 -0.5,0c0,0 0,0.25 0,0.5c0,0.133 -0.053,0.26 -0.146,0.354c-0.094,0.093 -0.221,0.146 -0.354,0.146c-0.305,0 -0.695,0 -1,0c-0.133,0 -0.26,-0.053 -0.354,-0.146c-0.093,-0.094 -0.146,-0.221 -0.146,-0.354c0,-0.25 0,-0.5 0,-0.5c0,0 -0.908,0 -1.5,0c-0.133,0 -0.26,-0.053 -0.354,-0.146c-0.093,-0.094 -0.146,-0.221 -0.146,-0.354c0,0 0,0 0,0Z" style="fill:#333;"/><path d="M10,8.499c0,-0.276 -0.223,-0.499 -0.499,-0.499c-0.001,0 -0.001,0 -0.002,0c-0.276,0 -0.499,0.223 -0.499,0.499c0,0.001 0,0.001 0,0.002c0,0.276 0.223,0.499 0.499,0.499c0.001,0 0.001,0 0.002,0c0.276,0 0.499,-0.223 0.499,-0.499c0,-0.001 0,-0.001 0,-0.002Z" style="fill:#333;"/><path d="M14.999,19.499c0,-0.276 -0.224,-0.499 -0.499,-0.499c-0.001,0 -0.001,0 -0.001,0c-0.276,0 -0.499,0.223 -0.499,0.499c0,0.001 0,0.001 0,0.002c0,0.276 0.223,0.499 0.499,0.499c0,0 0,0 0.001,0c0.275,0 0.499,-0.223 0.499,-0.499c0,-0.001 0,-0.001 0,-0.002Z" style="fill:#333;"/><path d="M18.997,9.499c0,-0.276 -0.223,-0.499 -0.499,-0.499c-0.305,0 -0.694,0 -0.999,0c-0.276,0 -0.499,0.223 -0.499,0.499c0,0.001 0,0.001 0,0.002c0,0.276 0.223,0.499 0.499,0.499c0.305,0 0.694,0 0.999,0c0.276,0 0.499,-0.223 0.499,-0.499c0,-0.001 0,-0.001 0,-0.002Z" style="fill:#333;"/><path d="M15.997,10.499c0,-0.276 -0.223,-0.499 -0.499,-0.499c0,0 0,0 0,0c-0.276,0 -0.499,0.223 -0.499,0.499c0,0.001 0,0.001 0,0.002c0,0.276 0.223,0.499 0.499,0.499c0,0 0,0 0,0c0.276,0 0.499,-0.223 0.499,-0.499c0,-0.001 0,-0.001 0,-0.002Z" style="fill:#333;"/><path d="M18.499,11.5c0,-0.276 -0.224,-0.5 -0.5,-0.5c-0.436,0 -1.067,0 -1.503,0c-0.276,0 -0.499,0.223 -0.499,0.499c0,0.001 0,0.001 0,0.002c0,0.276 0.223,0.499 0.499,0.499c0.436,0 1.067,0 1.503,0c0.276,0 0.5,-0.224 0.5,-0.5c0,0 0,0 0,0Z" style="fill:#333;"/><path d="M20,19.499c0,-0.276 -0.223,-0.499 -0.499,-0.499c-0.769,0 -2.233,0 -3.002,0c-0.276,0 -0.499,0.223 -0.499,0.499c0,0.001 0,0.001 0,0.002c0,0.276 0.223,0.499 0.499,0.499c0.769,0 2.233,0 3.002,0c0.276,0 0.499,-0.223 0.499,-0.499c0,-0.001 0,-0.001 0,-0.002Z" style="fill:#333;"/><path d="M18,16.5c0,-0.276 0.224,-0.5 0.5,-0.5l0.5,0c0,0 0,-0.25 0,-0.5c0,-0.133 0.053,-0.26 0.146,-0.354c0.094,-0.093 0.221,-0.146 0.354,-0.146c0.276,0 0.5,0.224 0.5,0.5l0,1c0,0.276 -0.224,0.5 -0.5,0.5c-0.25,0 -0.5,0 -0.5,0l-0.001,0c0,0 0,0.251 0,0.501c0,0.276 -0.224,0.499 -0.499,0.499c-0.001,0 -0.001,0 -0.001,0c-0.276,0 -0.499,-0.223 -0.499,-0.499c0,-0.25 0,-0.501 0,-0.501c0,0 0,-0.25 0,-0.5Z" style="fill:#333;"/><path d="M10,19.499c0,-0.276 -0.223,-0.499 -0.499,-0.499c-0.001,0 -0.001,0 -0.002,0c-0.276,0 -0.499,0.223 -0.499,0.499c0,0.001 0,0.001 0,0.002c0,0.276 0.223,0.499 0.499,0.499c0.001,0 0.001,0 0.002,0c0.276,0 0.499,-0.223 0.499,-0.499c0,-0.001 0,-0.001 0,-0.002Z" style="fill:#333;"/><path d="M13,16.5c0,-0.276 0.224,-0.5 0.5,-0.5c0.25,0 0.5,0 0.5,0c0,0 0,-0.25 0,-0.5c0,-0.133 0.053,-0.26 0.146,-0.354c0.094,-0.093 0.221,-0.146 0.354,-0.146c0.305,0 0.695,0 1,0c0.133,0 0.26,0.053 0.354,0.146c0.093,0.094 0.146,0.221 0.146,0.354c0,0.276 -0.224,0.5 -0.5,0.5c-0.25,0 -0.5,0 -0.5,0c0,0 0,0.25 0,0.5c0,0.133 -0.053,0.26 -0.146,0.354c-0.094,0.093 -0.221,0.146 -0.354,0.146c-0.25,0 -0.5,0 -0.5,0c0,0 -0.25,0 -0.5,0c-0.276,0 -0.5,-0.224 -0.5,-0.5c0,0 0,0 0,0Z" style="fill:#333;"/><path d="M9,16.5c0,-0.133 0.053,-0.26 0.146,-0.354c0.094,-0.093 0.221,-0.146 0.354,-0.146c0.25,0 0.5,0 0.5,0c0,0 0,-0.25 0,-0.5c0,-0.133 0.053,-0.26 0.146,-0.354c0.094,-0.093 0.221,-0.146 0.354,-0.146c0.276,0 0.5,0.224 0.5,0.5c0,0.25 0,0.5 0,0.5c0,0 0.25,0 0.5,0c0.133,0 0.26,0.053 0.354,0.146c0.093,0.094 0.146,0.221 0.146,0.354c0,0.592 0,1.5 0,1.5c0,0 0.25,0 0.5,0c0.133,0 0.26,0.053 0.354,0.146c0.093,0.094 0.146,0.221 0.146,0.354c0,0.276 -0.224,0.5 -0.5,0.5c-0.25,0 -0.5,0 -0.5,0c0,0 -0.25,0 -0.5,0c-0.133,0 -0.26,-0.053 -0.354,-0.146c-0.093,-0.094 -0.146,-0.221 -0.146,-0.354c0,-0.25 0,-0.5 0,-0.5c0,0 -0.908,0 -1.5,0c-0.133,0 -0.26,-0.053 -0.354,-0.146c-0.093,-0.094 -0.146,-0.221 -0.146,-0.354c0,-0.305 0,-0.695 0,-1Z" style="fill:#333;"/><path d="M16,13.5c0,-0.276 0.224,-0.5 0.5,-0.5l2,0c0.133,0 0.26,0.053 0.354,0.146c0.093,0.094 0.146,0.221 0.146,0.354c0,0.305 0,0.695 0,1c0,0.133 -0.053,0.26 -0.146,0.354c-0.094,0.093 -0.221,0.146 -0.354,0.146c0,0 -0.001,0 -0.001,0l-0.499,0c0,0 0,0.25 0,0.5c0,0.133 -0.053,0.26 -0.146,0.354c-0.094,0.093 -0.221,0.146 -0.354,0.146c-0.133,0 -0.26,-0.053 -0.354,-0.146c-0.093,-0.094 -0.146,-0.221 -0.146,-0.354c0,-0.592 0,-1.5 0,-1.5c0,0 -0.25,0 -0.5,0c-0.276,0 -0.5,-0.224 -0.5,-0.5c0,0 0,0 0,0Z" style="fill:#333;"/><path d="M9,4.499c0,-0.276 0.223,-0.499 0.499,-0.499c0.555,0 1.448,0 2.004,0c0.276,0 0.5,0.224 0.5,0.5c0,0.276 -0.224,0.5 -0.5,0.5c-0.251,0 -0.503,0 -0.503,0l0,1c0,0 0.25,0 0.5,0c0.276,0 0.5,0.224 0.5,0.5c0,0.276 -0.224,0.5 -0.5,0.5c-0.25,0 -0.5,0 -0.5,0c0,0 0,0.259 0,0.513c0,0.129 -0.051,0.253 -0.143,0.344c-0.091,0.092 -0.215,0.143 -0.344,0.143c0,0 -0.001,0 -0.001,0c-0.283,0 -0.512,-0.229 -0.512,-0.512c0,-0.857 0,-2.488 0,-2.488c0,0 -0.251,0 -0.501,0c-0.276,0 -0.499,-0.223 -0.499,-0.499c0,-0.001 0,-0.001 0,-0.002Z" style="fill:#333;"/></g></svg>