<?xml version="1.0" encoding="UTF-8" standalone="no"?><!DOCTYPE svg PUBLIC "-//W3C//DTD SVG 1.1//EN" "http://www.w3.org/Graphics/SVG/1.1/DTD/svg11.dtd"><svg width="100%" height="100%" viewBox="0 0 24 24" version="1.1" xmlns="http://www.w3.org/2000/svg" xmlns:xlink="http://www.w3.org/1999/xlink" xml:space="preserve" xmlns:serif="http://www.serif.com/" style="fill-rule:evenodd;clip-rule:evenodd;stroke-linejoin:round;stroke-miterlimit:1.41421;"><rect id="object.filled.shoppingBag" x="0.003" y="0" width="24" height="24" style="fill:none;"/><path d="M19,20c0,1.105 -0.895,2 -2,2c-2.661,0 -7.338,0 -10,0c-0.53,0 -1.039,-0.211 -1.414,-0.586c-0.375,-0.375 -0.586,-0.884 -0.586,-1.414c0.001,-3.25 0.002,-9.558 0.003,-12c0,-0.552 0.448,-1 1,-1c2.576,0 9.42,0 11.997,0c0.552,0 1,0.448 1,1c0,2.443 0,8.751 0,12Zm-3.5,-10.5c0,-0.276 -0.224,-0.5 -0.5,-0.5c-1.289,0 -4.711,0 -6,0c-0.276,0 -0.5,0.224 -0.5,0.5c0,0.276 0.224,0.5 0.5,0.5c1.289,0 4.711,0 6,0c0.276,0 0.5,-0.224 0.5,-0.5c0,0 0,0 0,0Z" style="fill:#333;"/><path d="M14,8l0,-3l-4,0l0,3l-1,0c0,0 0,-1.815 0,-3c0,-0.265 0.105,-0.52 0.293,-0.707c0.187,-0.188 0.442,-0.293 0.707,-0.293c1.11,0 2.89,0 4,0c0.265,0 0.52,0.105 0.707,0.293c0.188,0.187 0.293,0.442 0.293,0.707c0,1.185 0,3 0,3l-1,0Z" style="fill:#333;"/></svg>