<?xml version="1.0" encoding="UTF-8" standalone="no"?><!DOCTYPE svg PUBLIC "-//W3C//DTD SVG 1.1//EN" "http://www.w3.org/Graphics/SVG/1.1/DTD/svg11.dtd"><svg width="100%" height="100%" viewBox="0 0 24 24" version="1.1" xmlns="http://www.w3.org/2000/svg" xmlns:xlink="http://www.w3.org/1999/xlink" xml:space="preserve" xmlns:serif="http://www.serif.com/" style="fill-rule:evenodd;clip-rule:evenodd;stroke-linejoin:round;stroke-miterlimit:1.41421;"><rect id="object.thin.creditCardBack" x="0.003" y="0" width="24" height="24" style="fill:none;"/><path d="M21.997,12l0,6c0,0.552 -0.448,1 -1,1c-3.414,0 -14.586,0 -18,0c-0.552,0 -1,-0.448 -1,-1c0,-2.577 0,-9.423 0,-12c0,-0.552 0.448,-1 1,-1c3.414,0 14.586,0 18,0c0.552,0 1,0.448 1,1l0,6Zm-1,0l-18,0l0,6l18,0l0,-6Zm-14.5,4c0.276,0 0.5,0.224 0.5,0.5c0,0.276 -0.224,0.5 -0.5,0.5l-2,0c-0.276,0 -0.5,-0.224 -0.5,-0.5c0,-0.276 0.224,-0.5 0.5,-0.5l2,0Zm4,-2c0.276,0 0.5,0.224 0.5,0.5c0,0.276 -0.224,0.5 -0.5,0.5l-6,0c-0.276,0 -0.5,-0.224 -0.5,-0.5c0,-0.276 0.224,-0.5 0.5,-0.5l6,0Zm10.5,-8l-18,0l0,2l18,0l0,-2Z" style="fill:#333;"/></svg>