<?xml version="1.0" encoding="UTF-8" standalone="no"?><!DOCTYPE svg PUBLIC "-//W3C//DTD SVG 1.1//EN" "http://www.w3.org/Graphics/SVG/1.1/DTD/svg11.dtd"><svg width="100%" height="100%" viewBox="0 0 24 24" version="1.1" xmlns="http://www.w3.org/2000/svg" xmlns:xlink="http://www.w3.org/1999/xlink" xml:space="preserve" xmlns:serif="http://www.serif.com/" style="fill-rule:evenodd;clip-rule:evenodd;stroke-linecap:round;stroke-linejoin:round;stroke-miterlimit:1.5;"><rect id="object.thin.picture" x="0.003" y="0" width="24" height="24" style="fill:none;"/><path d="M21.086,6.003l0.082,0.011l0.08,0.017l0.08,0.023l0.077,0.03l0.074,0.037l0.071,0.042l0.067,0.048l0.063,0.053l0.059,0.059l0.053,0.063l0.048,0.067l0.042,0.071l0.037,0.074l0.03,0.077l0.023,0.08l0.017,0.08l0.011,0.082l0.003,0.083l0,14l-0.003,0.083l-0.011,0.082l-0.017,0.08l-0.023,0.08l-0.03,0.077l-0.037,0.074l-0.042,0.071l-0.048,0.067l-0.053,0.063l-0.059,0.059l-0.063,0.053l-0.067,0.048l-0.071,0.042l-0.074,0.037l-0.077,0.03l-0.08,0.023l-0.08,0.017l-0.082,0.011l-0.083,0.003l-18,0l-0.083,-0.003l-0.082,-0.011l-0.081,-0.017l-0.079,-0.023l-0.077,-0.03l-0.074,-0.037l-0.071,-0.042l-0.067,-0.048l-0.063,-0.053l-0.059,-0.059l-0.053,-0.063l-0.048,-0.067l-0.042,-0.071l-0.037,-0.074l-0.03,-0.077l-0.023,-0.08l-0.017,-0.08l-0.011,-0.082l-0.003,-0.083l0,-14l0.003,-0.083l0.011,-0.082l0.017,-0.08l0.023,-0.08l0.03,-0.077l0.037,-0.074l0.042,-0.071l0.048,-0.067l0.053,-0.063l0.059,-0.059l0.063,-0.053l0.067,-0.048l0.071,-0.042l0.074,-0.037l0.077,-0.03l0.079,-0.023l0.081,-0.017l0.082,-0.011l0.083,-0.003l18,0l0.083,0.003Zm-18.083,0.997l0,14l18,0l0,-14l-18,0Z" style="fill:#333;"/><path d="M19.078,8.003l0.074,0.008l0.073,0.014l0.073,0.019l0.07,0.025l0.069,0.03l0.066,0.035l0.063,0.04l0.06,0.044l0.057,0.049l0.053,0.053l0.049,0.056l0.044,0.061l0.04,0.063l0.035,0.066l0.03,0.069l0.025,0.07l0.019,0.072l0.014,0.074l0.008,0.074l0.003,0.075l0,10l-0.003,0.075l-0.008,0.074l-0.014,0.074l-0.019,0.072l-0.025,0.07l-0.03,0.069l-0.035,0.066l-0.04,0.063l-0.044,0.06l-0.049,0.057l-0.053,0.053l-0.057,0.049l-0.06,0.044l-0.063,0.04l-0.066,0.035l-0.069,0.03l-0.07,0.025l-0.073,0.019l-0.073,0.014l-0.074,0.008l-0.075,0.003l-14,0l-0.075,-0.003l-0.074,-0.008l-0.074,-0.014l-0.072,-0.019l-0.07,-0.025l-0.069,-0.03l-0.066,-0.035l-0.063,-0.04l-0.061,-0.044l-0.056,-0.049l-0.053,-0.053l-0.049,-0.057l-0.044,-0.06l-0.04,-0.063l-0.035,-0.066l-0.03,-0.069l-0.025,-0.07l-0.019,-0.072l-0.014,-0.074l-0.008,-0.074l-0.003,-0.075l0,-10l0.003,-0.075l0.008,-0.074l0.014,-0.074l0.019,-0.072l0.025,-0.07l0.03,-0.069l0.035,-0.066l0.04,-0.063l0.044,-0.061l0.049,-0.056l0.053,-0.053l0.056,-0.049l0.061,-0.044l0.063,-0.04l0.066,-0.035l0.069,-0.03l0.07,-0.025l0.072,-0.019l0.074,-0.014l0.074,-0.008l0.075,-0.003l14,0l0.075,0.003Zm-14.075,0.997l0,10l14,0l0,-10l-14,0Z" style="fill:#333;"/><path d="M4.503,14l4,-3l5,4" style="fill:none;stroke:#333;stroke-width:1px;"/><path d="M11.003,17l5,-4l3.5,2.5" style="fill:none;stroke:#333;stroke-width:1px;"/><path d="M7.503,6.5l4.5,-4l4,4" style="fill:none;stroke:#333;stroke-width:1px;"/></svg>