<?xml version="1.0" encoding="UTF-8" standalone="no"?><!DOCTYPE svg PUBLIC "-//W3C//DTD SVG 1.1//EN" "http://www.w3.org/Graphics/SVG/1.1/DTD/svg11.dtd"><svg width="100%" height="100%" viewBox="0 0 24 24" version="1.1" xmlns="http://www.w3.org/2000/svg" xmlns:xlink="http://www.w3.org/1999/xlink" xml:space="preserve" xmlns:serif="http://www.serif.com/" style="fill-rule:evenodd;clip-rule:evenodd;stroke-linecap:round;stroke-linejoin:round;stroke-miterlimit:1.5;"><rect id="object.thin.shoppingCart" x="0" y="0" width="24" height="24" style="fill:none;"/><path d="M4.997,6c0.552,0 1,0.448 1,1c0,0.873 0,2 0,2l-1,0l0,-2c0,0 -1.647,0 -2.5,0c-0.276,0 -0.5,-0.224 -0.5,-0.5c0,-0.133 0.053,-0.26 0.147,-0.354c0.093,-0.093 0.22,-0.146 0.353,-0.146c0.624,0 1.704,0 2.5,0Z" style="fill:#333;"/><path d="M15.05,18.001l0.051,0.002l0.051,0.003l0.051,0.004l0.05,0.006l0.05,0.007l0.049,0.008l0.049,0.01l0.049,0.01l0.048,0.012l0.048,0.013l0.047,0.014l0.047,0.015l0.046,0.016l0.046,0.018l0.045,0.018l0.044,0.02l0.044,0.02l0.044,0.022l0.043,0.023l0.042,0.023l0.041,0.025l0.041,0.025l0.04,0.027l0.04,0.027l0.039,0.029l0.038,0.029l0.037,0.03l0.037,0.031l0.036,0.032l0.035,0.033l0.034,0.033l0.034,0.034l0.033,0.036l0.032,0.035l0.031,0.037l0.03,0.038l0.029,0.038l0.028,0.039l0.028,0.039l0.026,0.04l0.026,0.041l0.024,0.042l0.024,0.042l0.023,0.043l0.021,0.043l0.021,0.044l0.019,0.045l0.019,0.045l0.017,0.046l0.016,0.046l0.016,0.047l0.014,0.047l0.013,0.047l0.011,0.049l0.011,0.048l0.009,0.049l0.008,0.05l0.007,0.049l0.006,0.051l0.005,0.05l0.003,0.051l0.002,0.051l0.001,0.052l-0.001,0.052l-0.002,0.051l-0.003,0.051l-0.005,0.05l-0.006,0.051l-0.007,0.049l-0.008,0.05l-0.009,0.049l-0.011,0.048l-0.011,0.049l-0.013,0.047l-0.014,0.047l-0.016,0.047l-0.016,0.046l-0.017,0.046l-0.019,0.045l-0.019,0.045l-0.021,0.044l-0.021,0.043l-0.023,0.043l-0.024,0.042l-0.024,0.042l-0.026,0.041l-0.026,0.04l-0.028,0.039l-0.028,0.039l-0.029,0.038l-0.03,0.038l-0.031,0.037l-0.032,0.035l-0.033,0.036l-0.034,0.034l-0.034,0.033l-0.035,0.033l-0.036,0.032l-0.037,0.031l-0.037,0.03l-0.038,0.029l-0.039,0.029l-0.04,0.027l-0.04,0.027l-0.041,0.025l-0.041,0.025l-0.042,0.023l-0.043,0.023l-0.044,0.022l-0.044,0.02l-0.044,0.02l-0.045,0.018l-0.046,0.018l-0.046,0.016l-0.047,0.015l-0.047,0.014l-0.048,0.013l-0.048,0.012l-0.049,0.01l-0.049,0.01l-0.049,0.008l-0.05,0.007l-0.05,0.006l-0.051,0.004l-0.051,0.003l-0.051,0.002l-0.051,0.001l-0.052,-0.001l-0.051,-0.002l-0.051,-0.003l-0.051,-0.004l-0.05,-0.006l-0.05,-0.007l-0.049,-0.008l-0.049,-0.01l-0.049,-0.01l-0.048,-0.012l-0.048,-0.013l-0.047,-0.014l-0.047,-0.015l-0.046,-0.016l-0.046,-0.018l-0.045,-0.018l-0.044,-0.02l-0.044,-0.02l-0.044,-0.022l-0.042,-0.023l-0.043,-0.023l-0.041,-0.025l-0.041,-0.025l-0.04,-0.027l-0.04,-0.027l-0.039,-0.029l-0.038,-0.029l-0.037,-0.03l-0.037,-0.031l-0.036,-0.032l-0.035,-0.033l-0.034,-0.033l-0.034,-0.034l-0.033,-0.036l-0.032,-0.035l-0.031,-0.037l-0.03,-0.038l-0.029,-0.038l-0.028,-0.039l-0.028,-0.039l-0.026,-0.04l-0.026,-0.041l-0.024,-0.042l-0.024,-0.042l-0.023,-0.043l-0.021,-0.043l-0.021,-0.044l-0.019,-0.045l-0.019,-0.045l-0.017,-0.046l-0.016,-0.046l-0.015,-0.047l-0.015,-0.047l-0.012,-0.047l-0.012,-0.049l-0.011,-0.048l-0.009,-0.049l-0.008,-0.05l-0.007,-0.049l-0.006,-0.051l-0.005,-0.05l-0.003,-0.051l-0.002,-0.051l0,-0.052l0,-0.052l0.002,-0.051l0.003,-0.051l0.005,-0.05l0.006,-0.051l0.007,-0.049l0.008,-0.05l0.009,-0.049l0.011,-0.048l0.012,-0.049l0.012,-0.047l0.015,-0.047l0.015,-0.047l0.016,-0.046l0.017,-0.046l0.019,-0.045l0.019,-0.045l0.021,-0.044l0.021,-0.043l0.023,-0.043l0.024,-0.042l0.024,-0.042l0.026,-0.041l0.026,-0.04l0.028,-0.039l0.028,-0.039l0.029,-0.038l0.03,-0.038l0.031,-0.037l0.032,-0.035l0.033,-0.036l0.034,-0.034l0.034,-0.033l0.035,-0.033l0.036,-0.032l0.037,-0.031l0.037,-0.03l0.038,-0.029l0.039,-0.029l0.04,-0.027l0.04,-0.027l0.041,-0.025l0.041,-0.025l0.043,-0.023l0.042,-0.023l0.044,-0.022l0.044,-0.02l0.044,-0.02l0.045,-0.018l0.046,-0.018l0.046,-0.016l0.047,-0.015l0.047,-0.014l0.048,-0.013l0.048,-0.012l0.049,-0.01l0.049,-0.01l0.049,-0.008l0.05,-0.007l0.05,-0.006l0.051,-0.004l0.051,-0.003l0.051,-0.002l0.052,-0.001l0.051,0.001Zm-0.078,0.999l-0.026,0.001l-0.025,0.002l-0.025,0.002l-0.025,0.003l-0.026,0.004l-0.025,0.004l-0.024,0.004l-0.024,0.006l-0.024,0.006l-0.023,0.006l-0.023,0.007l-0.024,0.007l-0.024,0.009l-0.021,0.008l-0.022,0.009l-0.024,0.01l-0.021,0.01l-0.021,0.011l-0.022,0.011l-0.021,0.012l-0.021,0.012l-0.02,0.013l-0.021,0.014l-0.02,0.013l-0.019,0.014l-0.019,0.015l-0.018,0.015l-0.019,0.016l-0.019,0.016l-0.016,0.016l-0.019,0.018l-0.016,0.017l-0.017,0.018l-0.016,0.018l-0.014,0.017l-0.016,0.019l-0.015,0.02l-0.014,0.019l-0.015,0.021l-0.012,0.019l-0.013,0.021l-0.013,0.021l-0.011,0.021l-0.012,0.021l-0.01,0.02l-0.01,0.023l-0.01,0.023l-0.009,0.022l-0.01,0.024l-0.007,0.021l-0.007,0.023l-0.008,0.024l-0.006,0.023l-0.006,0.025l-0.005,0.024l-0.005,0.024l-0.004,0.025l-0.003,0.025l-0.003,0.024l-0.002,0.025l-0.002,0.027l-0.001,0.026l0,0.026l0.001,0.052l0.004,0.052l0.006,0.049l0.009,0.049l0.011,0.049l0.014,0.047l0.014,0.044l0.019,0.046l0.02,0.046l0.022,0.041l0.024,0.042l0.025,0.04l0.029,0.04l0.031,0.039l0.03,0.035l0.033,0.035l0.035,0.034l0.038,0.032l0.037,0.03l0.039,0.027l0.041,0.027l0.042,0.024l0.043,0.022l0.045,0.02l0.043,0.017l0.048,0.016l0.046,0.013l0.048,0.012l0.049,0.008l0.051,0.007l0.05,0.004l0.053,0.001l0.026,0l0.027,-0.001l0.025,-0.002l0.024,-0.002l0.025,-0.003l0.026,-0.004l0.024,-0.004l0.025,-0.004l0.024,-0.006l0.024,-0.006l0.023,-0.006l0.023,-0.007l0.025,-0.008l0.022,-0.008l0.022,-0.008l0.022,-0.009l0.023,-0.01l0.023,-0.011l0.021,-0.01l0.021,-0.011l0.02,-0.011l0.021,-0.013l0.021,-0.013l0.021,-0.014l0.02,-0.013l0.019,-0.014l0.019,-0.015l0.018,-0.015l0.019,-0.016l0.02,-0.017l0.015,-0.015l0.018,-0.017l0.018,-0.019l0.016,-0.017l0.015,-0.017l0.017,-0.019l0.014,-0.018l0.015,-0.02l0.015,-0.019l0.013,-0.019l0.013,-0.021l0.013,-0.021l0.013,-0.021l0.011,-0.021l0.012,-0.021l0.011,-0.022l0.009,-0.021l0.01,-0.023l0.009,-0.022l0.009,-0.022l0.009,-0.025l0.007,-0.021l0.007,-0.024l0.006,-0.023l0.006,-0.023l0.005,-0.026l0.005,-0.024l0.004,-0.025l0.003,-0.025l0.003,-0.024l0.002,-0.027l0.002,-0.025l0.001,-0.026l0,-0.026l0,-0.026l-0.001,-0.026l-0.002,-0.025l-0.002,-0.027l-0.003,-0.024l-0.003,-0.025l-0.004,-0.025l-0.005,-0.024l-0.005,-0.026l-0.006,-0.023l-0.006,-0.023l-0.007,-0.024l-0.007,-0.021l-0.009,-0.025l-0.009,-0.022l-0.009,-0.022l-0.01,-0.023l-0.009,-0.021l-0.011,-0.022l-0.012,-0.021l-0.011,-0.021l-0.013,-0.021l-0.013,-0.021l-0.013,-0.021l-0.013,-0.019l-0.015,-0.019l-0.015,-0.02l-0.014,-0.018l-0.017,-0.019l-0.015,-0.017l-0.016,-0.017l-0.018,-0.019l-0.018,-0.017l-0.015,-0.015l-0.02,-0.017l-0.019,-0.016l-0.018,-0.015l-0.019,-0.015l-0.019,-0.014l-0.02,-0.013l-0.021,-0.014l-0.021,-0.013l-0.021,-0.013l-0.02,-0.011l-0.021,-0.011l-0.021,-0.01l-0.023,-0.011l-0.023,-0.01l-0.022,-0.009l-0.022,-0.008l-0.022,-0.008l-0.025,-0.008l-0.023,-0.007l-0.023,-0.006l-0.024,-0.006l-0.024,-0.006l-0.025,-0.004l-0.024,-0.004l-0.026,-0.004l-0.025,-0.003l-0.024,-0.002l-0.025,-0.002l-0.027,-0.001l-0.026,0l-0.027,0Z" style="fill:#333;"/><path d="M9.05,18.001l0.051,0.002l0.051,0.003l0.051,0.004l0.05,0.006l0.05,0.007l0.049,0.008l0.049,0.01l0.049,0.01l0.048,0.012l0.048,0.013l0.047,0.014l0.047,0.015l0.046,0.016l0.046,0.018l0.045,0.018l0.044,0.02l0.044,0.02l0.044,0.022l0.043,0.023l0.042,0.023l0.041,0.025l0.041,0.025l0.04,0.027l0.04,0.027l0.039,0.029l0.038,0.029l0.037,0.03l0.037,0.031l0.036,0.032l0.035,0.033l0.034,0.033l0.034,0.034l0.033,0.036l0.032,0.035l0.031,0.037l0.03,0.038l0.029,0.038l0.028,0.039l0.028,0.039l0.026,0.04l0.026,0.041l0.024,0.042l0.024,0.042l0.023,0.043l0.021,0.043l0.021,0.044l0.019,0.045l0.019,0.045l0.017,0.046l0.016,0.046l0.016,0.047l0.014,0.047l0.013,0.047l0.011,0.049l0.011,0.048l0.009,0.049l0.008,0.05l0.007,0.049l0.006,0.051l0.005,0.05l0.003,0.051l0.002,0.051l0.001,0.052l-0.001,0.052l-0.002,0.051l-0.003,0.051l-0.005,0.05l-0.006,0.051l-0.007,0.049l-0.008,0.05l-0.009,0.049l-0.011,0.048l-0.011,0.049l-0.013,0.047l-0.014,0.047l-0.016,0.047l-0.016,0.046l-0.017,0.046l-0.019,0.045l-0.019,0.045l-0.021,0.044l-0.021,0.043l-0.023,0.043l-0.024,0.042l-0.024,0.042l-0.026,0.041l-0.026,0.04l-0.028,0.039l-0.028,0.039l-0.029,0.038l-0.03,0.038l-0.031,0.037l-0.032,0.035l-0.033,0.036l-0.034,0.034l-0.034,0.033l-0.035,0.033l-0.036,0.032l-0.037,0.031l-0.037,0.03l-0.038,0.029l-0.039,0.029l-0.04,0.027l-0.04,0.027l-0.041,0.025l-0.041,0.025l-0.042,0.023l-0.043,0.023l-0.044,0.022l-0.044,0.02l-0.044,0.02l-0.045,0.018l-0.046,0.018l-0.046,0.016l-0.047,0.015l-0.047,0.014l-0.048,0.013l-0.048,0.012l-0.049,0.01l-0.049,0.01l-0.049,0.008l-0.05,0.007l-0.05,0.006l-0.051,0.004l-0.051,0.003l-0.051,0.002l-0.051,0.001l-0.052,-0.001l-0.051,-0.002l-0.051,-0.003l-0.051,-0.004l-0.05,-0.006l-0.05,-0.007l-0.049,-0.008l-0.049,-0.01l-0.049,-0.01l-0.048,-0.012l-0.048,-0.013l-0.047,-0.014l-0.047,-0.015l-0.046,-0.016l-0.046,-0.018l-0.045,-0.018l-0.044,-0.02l-0.044,-0.02l-0.044,-0.022l-0.042,-0.023l-0.043,-0.023l-0.041,-0.025l-0.041,-0.025l-0.04,-0.027l-0.04,-0.027l-0.039,-0.029l-0.038,-0.029l-0.037,-0.03l-0.037,-0.031l-0.036,-0.032l-0.035,-0.033l-0.034,-0.033l-0.034,-0.034l-0.033,-0.036l-0.032,-0.035l-0.031,-0.037l-0.03,-0.038l-0.029,-0.038l-0.028,-0.039l-0.028,-0.039l-0.026,-0.04l-0.026,-0.041l-0.024,-0.042l-0.024,-0.042l-0.023,-0.043l-0.021,-0.043l-0.021,-0.044l-0.019,-0.045l-0.019,-0.045l-0.017,-0.046l-0.016,-0.046l-0.015,-0.047l-0.015,-0.047l-0.012,-0.047l-0.012,-0.049l-0.011,-0.048l-0.009,-0.049l-0.008,-0.05l-0.007,-0.049l-0.006,-0.051l-0.005,-0.05l-0.003,-0.051l-0.002,-0.051l0,-0.052l0,-0.052l0.002,-0.051l0.003,-0.051l0.005,-0.05l0.006,-0.051l0.007,-0.049l0.008,-0.05l0.009,-0.049l0.011,-0.048l0.012,-0.049l0.012,-0.047l0.015,-0.047l0.015,-0.047l0.016,-0.046l0.017,-0.046l0.019,-0.045l0.019,-0.045l0.021,-0.044l0.021,-0.043l0.023,-0.043l0.024,-0.042l0.024,-0.042l0.026,-0.041l0.026,-0.04l0.028,-0.039l0.028,-0.039l0.029,-0.038l0.03,-0.038l0.031,-0.037l0.032,-0.035l0.033,-0.036l0.034,-0.034l0.034,-0.033l0.035,-0.033l0.036,-0.032l0.037,-0.031l0.037,-0.03l0.038,-0.029l0.039,-0.029l0.04,-0.027l0.04,-0.027l0.041,-0.025l0.041,-0.025l0.043,-0.023l0.042,-0.023l0.044,-0.022l0.044,-0.02l0.044,-0.02l0.045,-0.018l0.046,-0.018l0.046,-0.016l0.047,-0.015l0.047,-0.014l0.048,-0.013l0.048,-0.012l0.049,-0.01l0.049,-0.01l0.049,-0.008l0.05,-0.007l0.05,-0.006l0.051,-0.004l0.051,-0.003l0.051,-0.002l0.052,-0.001l0.051,0.001Zm-0.078,0.999l-0.026,0.001l-0.025,0.002l-0.025,0.002l-0.025,0.003l-0.026,0.004l-0.025,0.004l-0.024,0.004l-0.024,0.006l-0.024,0.006l-0.023,0.006l-0.023,0.007l-0.024,0.007l-0.024,0.009l-0.021,0.008l-0.022,0.009l-0.024,0.01l-0.021,0.01l-0.021,0.011l-0.022,0.011l-0.021,0.012l-0.021,0.012l-0.02,0.013l-0.021,0.014l-0.02,0.013l-0.019,0.014l-0.019,0.015l-0.018,0.015l-0.019,0.016l-0.019,0.016l-0.016,0.016l-0.019,0.018l-0.016,0.017l-0.017,0.018l-0.016,0.018l-0.014,0.017l-0.016,0.019l-0.015,0.02l-0.014,0.019l-0.015,0.021l-0.012,0.019l-0.013,0.021l-0.013,0.021l-0.011,0.021l-0.012,0.021l-0.01,0.02l-0.01,0.023l-0.01,0.023l-0.009,0.022l-0.01,0.024l-0.007,0.021l-0.007,0.023l-0.008,0.024l-0.006,0.023l-0.006,0.025l-0.005,0.024l-0.005,0.024l-0.004,0.025l-0.003,0.025l-0.003,0.024l-0.002,0.025l-0.002,0.027l-0.001,0.026l0,0.026l0.001,0.052l0.004,0.052l0.006,0.049l0.009,0.049l0.011,0.049l0.014,0.047l0.014,0.044l0.019,0.046l0.02,0.046l0.022,0.041l0.024,0.042l0.025,0.04l0.029,0.04l0.031,0.039l0.03,0.035l0.033,0.035l0.035,0.034l0.038,0.032l0.037,0.03l0.039,0.027l0.041,0.027l0.042,0.024l0.043,0.022l0.045,0.02l0.043,0.017l0.048,0.016l0.046,0.013l0.048,0.012l0.049,0.008l0.051,0.007l0.05,0.004l0.053,0.001l0.026,0l0.027,-0.001l0.025,-0.002l0.024,-0.002l0.025,-0.003l0.026,-0.004l0.024,-0.004l0.025,-0.004l0.024,-0.006l0.024,-0.006l0.023,-0.006l0.023,-0.007l0.025,-0.008l0.022,-0.008l0.022,-0.008l0.022,-0.009l0.023,-0.01l0.023,-0.011l0.021,-0.01l0.021,-0.011l0.02,-0.011l0.021,-0.013l0.021,-0.013l0.021,-0.014l0.02,-0.013l0.019,-0.014l0.019,-0.015l0.018,-0.015l0.019,-0.016l0.02,-0.017l0.015,-0.015l0.018,-0.017l0.018,-0.019l0.016,-0.017l0.015,-0.017l0.017,-0.019l0.014,-0.018l0.015,-0.02l0.015,-0.019l0.013,-0.019l0.013,-0.021l0.013,-0.021l0.013,-0.021l0.011,-0.021l0.012,-0.021l0.011,-0.022l0.009,-0.021l0.01,-0.023l0.009,-0.022l0.009,-0.022l0.009,-0.025l0.007,-0.021l0.007,-0.024l0.006,-0.023l0.006,-0.023l0.005,-0.026l0.005,-0.024l0.004,-0.025l0.003,-0.025l0.003,-0.024l0.002,-0.027l0.002,-0.025l0.001,-0.026l0,-0.026l0,-0.026l-0.001,-0.026l-0.002,-0.025l-0.002,-0.027l-0.003,-0.024l-0.003,-0.025l-0.004,-0.025l-0.005,-0.024l-0.005,-0.026l-0.006,-0.023l-0.006,-0.023l-0.007,-0.024l-0.007,-0.021l-0.009,-0.025l-0.009,-0.022l-0.009,-0.022l-0.01,-0.023l-0.009,-0.021l-0.011,-0.022l-0.012,-0.021l-0.011,-0.021l-0.013,-0.021l-0.013,-0.021l-0.013,-0.021l-0.013,-0.019l-0.015,-0.019l-0.015,-0.02l-0.014,-0.018l-0.017,-0.019l-0.015,-0.017l-0.016,-0.017l-0.018,-0.019l-0.018,-0.017l-0.015,-0.015l-0.02,-0.017l-0.019,-0.016l-0.018,-0.015l-0.019,-0.015l-0.019,-0.014l-0.02,-0.013l-0.021,-0.014l-0.021,-0.013l-0.021,-0.013l-0.02,-0.011l-0.021,-0.011l-0.021,-0.01l-0.023,-0.011l-0.023,-0.01l-0.022,-0.009l-0.022,-0.008l-0.022,-0.008l-0.025,-0.008l-0.023,-0.007l-0.023,-0.006l-0.024,-0.006l-0.024,-0.006l-0.025,-0.004l-0.024,-0.004l-0.026,-0.004l-0.025,-0.003l-0.024,-0.002l-0.025,-0.002l-0.027,-0.001l-0.026,0l-0.027,0Z" style="fill:#333;"/><path d="M18.916,16.394c-0.157,0.368 -0.519,0.606 -0.919,0.606c-2.208,0 -9.351,0 -12,0c-0.265,0 -0.519,-0.105 -0.707,-0.293c-0.188,-0.187 -0.293,-0.442 -0.293,-0.707c0,-2.345 0,-8 0,-8c0,0 11.745,0 16,0c0.336,0 0.65,0.169 0.835,0.449c0.185,0.281 0.217,0.636 0.084,0.945c-0.854,1.994 -2.39,5.577 -3,7Zm-12.919,-7.394l0,7l12,0l3,-7l-15,0Z" style="fill:#333;fill-rule:nonzero;"/><path d="M5.997,12.5l14.003,0" style="fill:none;stroke:#333;stroke-width:1px;"/><path d="M5.997,14.5l13.073,0" style="fill:none;stroke:#333;stroke-width:1px;"/><path d="M5.997,10.5l14.682,0" style="fill:none;stroke:#333;stroke-width:1px;"/></svg>