<?xml version="1.0" encoding="UTF-8" standalone="no"?><!DOCTYPE svg PUBLIC "-//W3C//DTD SVG 1.1//EN" "http://www.w3.org/Graphics/SVG/1.1/DTD/svg11.dtd"><svg width="100%" height="100%" viewBox="0 0 24 24" version="1.1" xmlns="http://www.w3.org/2000/svg" xmlns:xlink="http://www.w3.org/1999/xlink" xml:space="preserve" xmlns:serif="http://www.serif.com/" style="fill-rule:evenodd;clip-rule:evenodd;stroke-linejoin:round;stroke-miterlimit:1.41421;"><rect id="object.thin.creditCardBack" x="0" y="0" width="24" height="24" style="fill:none;"/><path d="M1.994,6c0,-0.552 0.448,-1 1,-1c3.415,0 14.591,0 18.006,0c0.552,0 1,0.448 1,1c0,2.577 0,9.423 0,12c0,0.552 -0.448,1 -1,1c-3.415,0 -14.591,0 -18.006,0c-0.552,0 -1,-0.448 -1,-1c0,-2.577 0,-9.423 0,-12Zm19,6l-18,0l0,6l18,0l0,-6Zm-14.5,4c0.133,0 0.26,0.053 0.354,0.146c0.093,0.094 0.146,0.221 0.146,0.354c0,0.133 -0.053,0.26 -0.146,0.354c-0.094,0.093 -0.221,0.146 -0.354,0.146c-0.555,0 -1.445,0 -2,0c-0.132,0 -0.26,-0.053 -0.353,-0.146c-0.094,-0.094 -0.147,-0.221 -0.147,-0.354c0,-0.133 0.053,-0.26 0.147,-0.354c0.093,-0.093 0.221,-0.146 0.353,-0.146c0.555,0 1.445,0 2,0Zm4.006,-2c0.133,0 0.26,0.053 0.354,0.146c0.093,0.094 0.146,0.221 0.146,0.354c0,0.133 -0.053,0.26 -0.146,0.354c-0.094,0.093 -0.221,0.146 -0.354,0.146c-1.289,0 -4.716,0 -6.006,0c-0.132,0 -0.26,-0.053 -0.353,-0.146c-0.094,-0.094 -0.147,-0.221 -0.147,-0.354c0,-0.133 0.053,-0.26 0.147,-0.354c0.093,-0.093 0.221,-0.146 0.353,-0.146c1.29,0 4.717,0 6.006,0Zm10.494,-8l-18,0l0,2l18,0l0,-2Z" style="fill:#333;"/></svg>