<?xml version="1.0" encoding="UTF-8" standalone="no"?><!DOCTYPE svg PUBLIC "-//W3C//DTD SVG 1.1//EN" "http://www.w3.org/Graphics/SVG/1.1/DTD/svg11.dtd"><svg width="100%" height="100%" viewBox="0 0 24 24" version="1.1" xmlns="http://www.w3.org/2000/svg" xmlns:xlink="http://www.w3.org/1999/xlink" xml:space="preserve" xmlns:serif="http://www.serif.com/" style="fill-rule:evenodd;clip-rule:evenodd;stroke-linejoin:round;stroke-miterlimit:1.41421;"><rect id="object.regular.person" x="0" y="0" width="24" height="24" style="fill:none;"/><path d="M12.102,4.001l0.101,0.004l0.102,0.006l0.103,0.009l0.101,0.012l0.098,0.014l0.099,0.016l0.098,0.019l0.096,0.021l0.097,0.024l0.098,0.026l0.095,0.028l0.091,0.03l0.094,0.033l0.093,0.036l0.09,0.036l0.088,0.039l0.089,0.041l0.088,0.044l0.085,0.045l0.084,0.047l0.085,0.051l0.083,0.051l0.077,0.051l0.077,0.053l0.081,0.059l0.077,0.06l0.072,0.058l0.074,0.062l0.071,0.063l0.07,0.065l0.07,0.069l0.066,0.067l0.065,0.069l0.065,0.074l0.06,0.071l0.061,0.076l0.058,0.076l0.056,0.077l0.055,0.078l0.054,0.083l0.052,0.083l0.047,0.08l0.048,0.085l0.045,0.085l0.043,0.087l0.041,0.087l0.04,0.091l0.037,0.091l0.035,0.092l0.033,0.093l0.03,0.094l0.028,0.093l0.025,0.095l0.024,0.097l0.022,0.098l0.019,0.099l0.016,0.099l0.015,0.102l0.011,0.099l0.009,0.099l0.006,0.102l0.004,0.103l0.001,0.102l-0.001,0.102l-0.004,0.103l-0.006,0.102l-0.009,0.099l-0.011,0.099l-0.015,0.102l-0.016,0.099l-0.019,0.099l-0.022,0.098l-0.024,0.097l-0.025,0.095l-0.028,0.093l-0.03,0.094l-0.033,0.093l-0.035,0.092l-0.037,0.091l-0.04,0.091l-0.041,0.087l-0.043,0.087l-0.045,0.085l-0.048,0.085l-0.047,0.08l-0.052,0.083l-0.054,0.083l-0.055,0.078l-0.056,0.077l-0.058,0.076l-0.061,0.076l-0.06,0.071l-0.065,0.074l-0.065,0.069l-0.066,0.067l-0.07,0.069l-0.07,0.065l-0.071,0.063l-0.074,0.062l-0.072,0.058l-0.077,0.06l-0.081,0.059l-0.077,0.053l-0.077,0.051l-0.083,0.051l-0.085,0.051l-0.084,0.047l-0.085,0.045l-0.088,0.044l-0.089,0.041l-0.088,0.039l-0.09,0.036l-0.093,0.036l-0.094,0.033l-0.091,0.03l-0.095,0.028l-0.098,0.026l-0.097,0.024l-0.096,0.021l-0.098,0.019l-0.099,0.016l-0.098,0.014l-0.101,0.012l-0.103,0.009l-0.102,0.006l-0.101,0.004l-0.102,0.001l-0.102,-0.001l-0.101,-0.004l-0.102,-0.006l-0.103,-0.009l-0.101,-0.012l-0.098,-0.014l-0.099,-0.016l-0.098,-0.019l-0.096,-0.021l-0.097,-0.024l-0.098,-0.026l-0.095,-0.028l-0.091,-0.03l-0.094,-0.033l-0.093,-0.036l-0.09,-0.036l-0.088,-0.039l-0.089,-0.041l-0.088,-0.044l-0.085,-0.045l-0.084,-0.047l-0.085,-0.051l-0.083,-0.051l-0.077,-0.051l-0.077,-0.053l-0.081,-0.059l-0.077,-0.06l-0.072,-0.058l-0.074,-0.062l-0.071,-0.063l-0.07,-0.065l-0.07,-0.069l-0.066,-0.067l-0.065,-0.069l-0.065,-0.074l-0.06,-0.071l-0.061,-0.076l-0.058,-0.076l-0.056,-0.077l-0.055,-0.078l-0.054,-0.083l-0.052,-0.083l-0.047,-0.08l-0.048,-0.085l-0.045,-0.085l-0.043,-0.087l-0.041,-0.087l-0.04,-0.091l-0.037,-0.091l-0.035,-0.092l-0.033,-0.093l-0.03,-0.094l-0.028,-0.093l-0.025,-0.095l-0.024,-0.097l-0.022,-0.098l-0.019,-0.099l-0.016,-0.099l-0.015,-0.102l-0.011,-0.099l-0.009,-0.099l-0.006,-0.102l-0.004,-0.103l-0.001,-0.102l0.001,-0.102l0.004,-0.103l0.006,-0.102l0.009,-0.099l0.011,-0.099l0.015,-0.102l0.016,-0.099l0.019,-0.099l0.022,-0.098l0.024,-0.097l0.025,-0.095l0.028,-0.093l0.03,-0.094l0.033,-0.093l0.035,-0.092l0.037,-0.091l0.04,-0.091l0.041,-0.087l0.043,-0.087l0.045,-0.085l0.048,-0.085l0.047,-0.08l0.052,-0.083l0.054,-0.083l0.055,-0.078l0.056,-0.077l0.058,-0.076l0.061,-0.076l0.06,-0.071l0.065,-0.074l0.065,-0.069l0.066,-0.067l0.07,-0.069l0.07,-0.065l0.071,-0.063l0.074,-0.062l0.072,-0.058l0.077,-0.06l0.081,-0.059l0.077,-0.053l0.077,-0.051l0.083,-0.051l0.085,-0.051l0.084,-0.047l0.085,-0.045l0.088,-0.044l0.089,-0.041l0.088,-0.039l0.09,-0.036l0.093,-0.036l0.094,-0.033l0.091,-0.03l0.095,-0.028l0.098,-0.026l0.097,-0.024l0.096,-0.021l0.098,-0.019l0.099,-0.016l0.098,-0.014l0.101,-0.012l0.103,-0.009l0.102,-0.006l0.101,-0.004l0.102,-0.001l0.102,0.001Zm-0.154,2l-0.051,0.002l-0.051,0.003l-0.05,0.004l-0.051,0.006l-0.049,0.007l-0.05,0.008l-0.049,0.01l-0.048,0.01l-0.049,0.012l-0.047,0.013l-0.047,0.014l-0.047,0.015l-0.046,0.016l-0.046,0.018l-0.045,0.018l-0.045,0.02l-0.044,0.02l-0.043,0.022l-0.043,0.023l-0.042,0.023l-0.042,0.025l-0.041,0.025l-0.04,0.027l-0.039,0.027l-0.039,0.029l-0.038,0.029l-0.038,0.03l-0.037,0.031l-0.035,0.032l-0.036,0.033l-0.034,0.033l-0.033,0.034l-0.033,0.036l-0.032,0.035l-0.031,0.037l-0.03,0.038l-0.029,0.038l-0.029,0.039l-0.027,0.039l-0.027,0.04l-0.025,0.041l-0.025,0.042l-0.023,0.042l-0.023,0.043l-0.022,0.043l-0.02,0.044l-0.02,0.045l-0.018,0.045l-0.018,0.046l-0.016,0.046l-0.015,0.047l-0.014,0.047l-0.013,0.047l-0.012,0.049l-0.01,0.048l-0.01,0.049l-0.008,0.05l-0.007,0.049l-0.006,0.051l-0.004,0.05l-0.003,0.051l-0.002,0.051l-0.001,0.052l0.001,0.052l0.002,0.051l0.003,0.051l0.004,0.05l0.006,0.051l0.007,0.049l0.008,0.05l0.01,0.049l0.01,0.048l0.012,0.049l0.013,0.047l0.014,0.047l0.015,0.047l0.016,0.046l0.018,0.046l0.018,0.045l0.02,0.045l0.02,0.044l0.022,0.043l0.023,0.043l0.023,0.042l0.025,0.042l0.025,0.041l0.027,0.04l0.027,0.039l0.029,0.039l0.029,0.038l0.03,0.038l0.031,0.037l0.032,0.035l0.033,0.036l0.033,0.034l0.034,0.033l0.036,0.033l0.035,0.032l0.037,0.031l0.038,0.03l0.038,0.029l0.039,0.029l0.039,0.027l0.04,0.027l0.041,0.025l0.042,0.025l0.042,0.023l0.043,0.023l0.043,0.022l0.044,0.02l0.045,0.02l0.045,0.018l0.046,0.018l0.046,0.016l0.047,0.015l0.047,0.014l0.047,0.013l0.049,0.012l0.048,0.01l0.049,0.01l0.05,0.008l0.049,0.007l0.051,0.006l0.05,0.004l0.051,0.003l0.051,0.002l0.052,0.001l0.052,-0.001l0.051,-0.002l0.051,-0.003l0.05,-0.004l0.051,-0.006l0.049,-0.007l0.05,-0.008l0.049,-0.01l0.048,-0.01l0.049,-0.012l0.047,-0.013l0.047,-0.014l0.047,-0.015l0.046,-0.016l0.046,-0.018l0.045,-0.018l0.045,-0.02l0.044,-0.02l0.043,-0.022l0.043,-0.023l0.042,-0.023l0.042,-0.025l0.041,-0.025l0.04,-0.027l0.039,-0.027l0.039,-0.029l0.038,-0.029l0.038,-0.03l0.037,-0.031l0.035,-0.032l0.036,-0.033l0.034,-0.033l0.033,-0.034l0.033,-0.036l0.032,-0.035l0.031,-0.037l0.03,-0.038l0.029,-0.038l0.029,-0.039l0.027,-0.039l0.027,-0.04l0.025,-0.041l0.025,-0.042l0.023,-0.042l0.023,-0.043l0.022,-0.043l0.02,-0.044l0.02,-0.045l0.018,-0.045l0.018,-0.046l0.016,-0.046l0.015,-0.047l0.014,-0.047l0.013,-0.047l0.012,-0.049l0.01,-0.048l0.01,-0.049l0.008,-0.05l0.007,-0.049l0.006,-0.051l0.004,-0.05l0.003,-0.051l0.002,-0.051l0.001,-0.052l-0.001,-0.052l-0.002,-0.051l-0.003,-0.051l-0.004,-0.05l-0.006,-0.051l-0.007,-0.049l-0.008,-0.05l-0.01,-0.049l-0.01,-0.048l-0.012,-0.049l-0.013,-0.047l-0.014,-0.047l-0.015,-0.047l-0.016,-0.046l-0.018,-0.046l-0.018,-0.045l-0.02,-0.045l-0.02,-0.044l-0.022,-0.043l-0.023,-0.043l-0.023,-0.042l-0.025,-0.042l-0.025,-0.041l-0.027,-0.04l-0.027,-0.039l-0.029,-0.039l-0.029,-0.038l-0.03,-0.038l-0.031,-0.037l-0.032,-0.035l-0.033,-0.036l-0.033,-0.034l-0.034,-0.033l-0.036,-0.033l-0.035,-0.032l-0.037,-0.031l-0.038,-0.03l-0.038,-0.029l-0.039,-0.029l-0.039,-0.027l-0.04,-0.027l-0.041,-0.025l-0.042,-0.025l-0.042,-0.023l-0.043,-0.023l-0.043,-0.022l-0.044,-0.02l-0.045,-0.02l-0.045,-0.018l-0.046,-0.018l-0.046,-0.016l-0.047,-0.015l-0.047,-0.014l-0.047,-0.013l-0.049,-0.012l-0.048,-0.01l-0.049,-0.01l-0.05,-0.008l-0.049,-0.007l-0.051,-0.006l-0.05,-0.004l-0.051,-0.003l-0.051,-0.002l-0.052,-0.001l-0.052,0.001Z" style="fill:#333;"/><path d="M14.474,12.589l0.078,0.005l0.078,0.009l0.077,0.011l0.077,0.015l0.076,0.017l0.076,0.021l0.074,0.023l0.074,0.026l0.072,0.029l0.072,0.032l0.07,0.035l0.068,0.038l0.114,0.064l0.135,0.082l0.131,0.085l0.127,0.086l0.127,0.091l0.125,0.095l0.122,0.099l0.119,0.101l0.115,0.105l0.113,0.108l0.111,0.113l0.107,0.116l0.098,0.112l0.056,0.069l0.048,0.059l0.05,0.064l0.05,0.067l0.044,0.061l0.045,0.064l0.047,0.069l0.043,0.067l0.044,0.069l0.041,0.069l0.04,0.068l0.042,0.076l0.037,0.069l0.036,0.07l0.036,0.074l0.035,0.075l0.034,0.075l0.032,0.076l0.031,0.076l0.029,0.077l0.029,0.081l0.027,0.079l0.025,0.078l0.024,0.082l0.022,0.08l0.02,0.08l0.02,0.083l0.018,0.085l0.015,0.08l0.015,0.085l0.013,0.085l0.011,0.085l0.009,0.085l0.008,0.085l0.006,0.086l0.005,0.085l0.002,0.09l0.001,0.076l0,2.009l-0.002,0.079l-0.004,0.078l-0.008,0.078l-0.011,0.078l-0.013,0.077l-0.017,0.077l-0.02,0.076l-0.023,0.075l-0.026,0.074l-0.028,0.073l-0.032,0.072l-0.034,0.071l-0.037,0.069l-0.04,0.068l-0.042,0.066l-0.045,0.065l-0.047,0.062l-0.05,0.061l-0.052,0.059l-0.055,0.056l-0.056,0.055l-0.059,0.052l-0.061,0.05l-0.062,0.047l-0.065,0.045l-0.066,0.042l-0.068,0.04l-0.069,0.037l-0.071,0.034l-0.072,0.032l-0.073,0.028l-0.074,0.026l-0.075,0.023l-0.076,0.02l-0.077,0.017l-0.077,0.013l-0.078,0.011l-0.078,0.008l-0.078,0.004l-0.079,0.002l-8,0l-0.079,-0.002l-0.078,-0.004l-0.078,-0.008l-0.078,-0.011l-0.077,-0.013l-0.077,-0.017l-0.076,-0.02l-0.075,-0.023l-0.074,-0.026l-0.073,-0.028l-0.072,-0.032l-0.071,-0.034l-0.069,-0.037l-0.068,-0.04l-0.066,-0.042l-0.065,-0.045l-0.062,-0.047l-0.061,-0.05l-0.059,-0.052l-0.056,-0.055l-0.055,-0.056l-0.052,-0.059l-0.05,-0.061l-0.047,-0.062l-0.045,-0.065l-0.042,-0.066l-0.04,-0.068l-0.037,-0.069l-0.034,-0.071l-0.032,-0.072l-0.028,-0.073l-0.026,-0.074l-0.023,-0.075l-0.02,-0.076l-0.017,-0.077l-0.013,-0.077l-0.011,-0.078l-0.008,-0.078l-0.004,-0.078l-0.002,-0.079l0,-2.009l0.001,-0.076l0.002,-0.09l0.005,-0.085l0.006,-0.086l0.008,-0.085l0.009,-0.085l0.011,-0.085l0.013,-0.085l0.015,-0.085l0.015,-0.08l0.018,-0.085l0.02,-0.083l0.02,-0.08l0.022,-0.08l0.024,-0.082l0.025,-0.078l0.027,-0.079l0.029,-0.081l0.029,-0.077l0.031,-0.076l0.032,-0.076l0.034,-0.075l0.035,-0.075l0.036,-0.074l0.036,-0.07l0.037,-0.069l0.042,-0.076l0.04,-0.068l0.041,-0.069l0.044,-0.069l0.043,-0.067l0.047,-0.069l0.045,-0.064l0.044,-0.061l0.05,-0.067l0.05,-0.064l0.048,-0.059l0.056,-0.069l0.098,-0.112l0.107,-0.116l0.111,-0.113l0.113,-0.108l0.115,-0.105l0.119,-0.101l0.122,-0.099l0.125,-0.095l0.127,-0.091l0.127,-0.086l0.131,-0.085l0.135,-0.082l0.114,-0.064l0.068,-0.038l0.07,-0.035l0.072,-0.032l0.072,-0.029l0.074,-0.026l0.074,-0.023l0.076,-0.021l0.076,-0.017l0.077,-0.015l0.077,-0.011l0.078,-0.009l0.078,-0.005l0.078,-0.003l0.078,0.001l0.078,0.004l0.078,0.007l0.078,0.009l0.077,0.013l0.076,0.016l0.076,0.019l0.075,0.022l0.074,0.024l0.059,0.021l0.051,0.018l0.051,0.017l0.05,0.016l0.051,0.015l0.05,0.015l0.051,0.015l0.051,0.014l0.052,0.013l0.05,0.013l0.052,0.012l0.054,0.012l0.051,0.011l0.052,0.011l0.054,0.01l0.053,0.01l0.053,0.009l0.052,0.008l0.055,0.008l0.054,0.008l0.053,0.007l0.055,0.006l0.054,0.006l0.054,0.005l0.056,0.004l0.054,0.004l0.055,0.003l0.056,0.003l0.055,0.002l0.056,0.002l0.056,0.001l0.056,0l0.056,0l0.056,-0.001l0.056,-0.002l0.055,-0.002l0.056,-0.003l0.055,-0.003l0.054,-0.004l0.056,-0.004l0.054,-0.005l0.054,-0.006l0.055,-0.006l0.053,-0.007l0.054,-0.008l0.055,-0.008l0.052,-0.008l0.053,-0.009l0.053,-0.01l0.054,-0.01l0.052,-0.011l0.051,-0.011l0.054,-0.012l0.052,-0.012l0.05,-0.013l0.052,-0.013l0.051,-0.014l0.051,-0.015l0.05,-0.015l0.051,-0.015l0.05,-0.016l0.051,-0.017l0.051,-0.018l0.059,-0.021l0.074,-0.024l0.075,-0.022l0.076,-0.019l0.076,-0.016l0.077,-0.013l0.078,-0.009l0.078,-0.007l0.078,-0.004l0.078,-0.001l0.078,0.003Zm-0.169,2.022l-0.07,0.024l-0.07,0.023l-0.071,0.023l-0.071,0.022l-0.071,0.021l-0.072,0.02l-0.072,0.02l-0.072,0.019l-0.073,0.018l-0.073,0.017l-0.073,0.017l-0.073,0.016l-0.074,0.015l-0.074,0.014l-0.074,0.014l-0.075,0.012l-0.075,0.012l-0.075,0.011l-0.075,0.011l-0.075,0.009l-0.076,0.009l-0.076,0.008l-0.077,0.007l-0.076,0.006l-0.077,0.006l-0.077,0.004l-0.077,0.004l-0.078,0.003l-0.077,0.002l-0.078,0.002l-0.078,0l-0.078,0l-0.078,-0.002l-0.077,-0.002l-0.078,-0.003l-0.077,-0.004l-0.077,-0.004l-0.077,-0.006l-0.076,-0.006l-0.077,-0.007l-0.076,-0.008l-0.076,-0.009l-0.075,-0.009l-0.075,-0.011l-0.075,-0.011l-0.075,-0.012l-0.075,-0.012l-0.074,-0.014l-0.074,-0.014l-0.074,-0.015l-0.073,-0.016l-0.073,-0.017l-0.073,-0.017l-0.073,-0.018l-0.072,-0.019l-0.072,-0.02l-0.072,-0.02l-0.071,-0.021l-0.071,-0.022l-0.071,-0.023l-0.07,-0.023l-0.07,-0.024l-0.07,-0.025l-0.091,0.052l-0.089,0.055l-0.087,0.056l-0.085,0.057l-0.083,0.06l-0.081,0.061l-0.078,0.063l-0.075,0.065l-0.074,0.066l-0.07,0.068l-0.069,0.069l-0.065,0.071l-0.063,0.073l-0.03,0.036l-0.03,0.038l-0.029,0.037l-0.028,0.038l-0.028,0.038l-0.027,0.038l-0.026,0.039l-0.026,0.039l-0.024,0.039l-0.024,0.04l-0.024,0.04l-0.022,0.04l-0.022,0.041l-0.021,0.041l-0.02,0.041l-0.019,0.041l-0.019,0.042l-0.018,0.042l-0.017,0.042l-0.016,0.043l-0.015,0.042l-0.015,0.043l-0.013,0.044l-0.013,0.043l-0.012,0.044l-0.011,0.044l-0.011,0.044l-0.009,0.044l-0.009,0.045l-0.008,0.045l-0.006,0.045l-0.006,0.045l-0.005,0.045l-0.005,0.046l-0.003,0.046l-0.002,0.046l-0.002,0.046l0,0.046l0,2l8,0l0,-2l0,-0.046l-0.002,-0.046l-0.002,-0.046l-0.003,-0.046l-0.005,-0.046l-0.005,-0.045l-0.006,-0.045l-0.006,-0.045l-0.008,-0.045l-0.009,-0.045l-0.009,-0.044l-0.011,-0.044l-0.011,-0.044l-0.012,-0.044l-0.013,-0.043l-0.013,-0.044l-0.015,-0.043l-0.015,-0.042l-0.016,-0.043l-0.017,-0.042l-0.018,-0.042l-0.019,-0.042l-0.019,-0.041l-0.02,-0.041l-0.021,-0.041l-0.022,-0.041l-0.022,-0.04l-0.024,-0.04l-0.024,-0.04l-0.024,-0.039l-0.026,-0.039l-0.026,-0.039l-0.027,-0.038l-0.028,-0.038l-0.028,-0.038l-0.029,-0.037l-0.03,-0.038l-0.03,-0.036l-0.063,-0.073l-0.065,-0.071l-0.069,-0.069l-0.07,-0.068l-0.074,-0.066l-0.075,-0.065l-0.078,-0.063l-0.081,-0.061l-0.083,-0.06l-0.085,-0.057l-0.087,-0.056l-0.089,-0.055l-0.091,-0.052l-0.07,0.025Z" style="fill:#333;"/></svg>