<?xml version="1.0" encoding="UTF-8" standalone="no"?><!DOCTYPE svg PUBLIC "-//W3C//DTD SVG 1.1//EN" "http://www.w3.org/Graphics/SVG/1.1/DTD/svg11.dtd"><svg width="100%" height="100%" viewBox="0 0 24 24" version="1.1" xmlns="http://www.w3.org/2000/svg" xmlns:xlink="http://www.w3.org/1999/xlink" xml:space="preserve" xmlns:serif="http://www.serif.com/" style="fill-rule:evenodd;clip-rule:evenodd;stroke-linecap:round;stroke-linejoin:round;stroke-miterlimit:1.5;"><rect id="object.real.document" x="0.003" y="0" width="24" height="24" style="fill:none;"/><path d="M20.003,6.5c0,0 0,14.5 0,14.5c0,0.552 -0.448,1 -1,1l-13,0c-0.552,0 -1,-0.448 -1,-1l0,-18c0,-0.552 0.448,-1 1,-1l9.5,0l4.5,4.5Z" style="fill:url(#_Linear1);"/><clipPath id="_clip2"><path d="M20.003,6.5c0,0 0,14.5 0,14.5c0,0.552 -0.448,1 -1,1l-13,0c-0.552,0 -1,-0.448 -1,-1l0,-18c0,-0.552 0.448,-1 1,-1l9.5,0l4.5,4.5Z"/></clipPath><g clip-path="url(#_clip2)"><path d="M7.503,4.5l6,0" style="fill:none;stroke:#333;stroke-width:1px;"/><path d="M7.503,6.5l6,0" style="fill:none;stroke:#333;stroke-width:1px;"/><path d="M7.503,8.5l10,0" style="fill:none;stroke:#333;stroke-width:1px;"/><path d="M7.503,12.5l10,0" style="fill:none;stroke:#333;stroke-width:1px;"/><path d="M7.503,14.5l4.5,0" style="fill:none;stroke:#333;stroke-width:1px;"/></g><path d="M15.503,2l4.5,4.5l-3.5,0c-0.552,0 -1,-0.448 -1,-1l0,-3.5Z" style="fill:#333;"/><defs><linearGradient id="_Linear1" x1="0" y1="0" x2="1" y2="0" gradientUnits="userSpaceOnUse" gradientTransform="matrix(-20,20,-20,-20,22.0029,2)"><stop offset="0" style="stop-color:#fff;stop-opacity:1"/><stop offset="1" style="stop-color:#666;stop-opacity:1"/></linearGradient></defs></svg>