<?xml version="1.0" encoding="UTF-8" standalone="no"?><!DOCTYPE svg PUBLIC "-//W3C//DTD SVG 1.1//EN" "http://www.w3.org/Graphics/SVG/1.1/DTD/svg11.dtd"><svg width="100%" height="100%" viewBox="0 0 24 24" version="1.1" xmlns="http://www.w3.org/2000/svg" xmlns:xlink="http://www.w3.org/1999/xlink" xml:space="preserve" xmlns:serif="http://www.serif.com/" style="fill-rule:evenodd;clip-rule:evenodd;stroke-linejoin:round;stroke-miterlimit:1.41421;"><rect id="object.real.QRCode" x="0.003" y="0" width="24" height="24" style="fill:none;"/><path d="M22.003,3c0,-0.552 -0.448,-1 -1,-1l-18,0c-0.552,0 -1,0.448 -1,1l0,18c0,0.552 0.448,1 1,1l18,0c0.552,0 1,-0.448 1,-1l0,-18Z" style="fill:url(#_Linear1);"/><clipPath id="_clip2"><path d="M22.003,3c0,-0.552 -0.448,-1 -1,-1l-18,0c-0.552,0 -1,0.448 -1,1l0,18c0,0.552 0.448,1 1,1l18,0c0.552,0 1,-0.448 1,-1l0,-18Z"/></clipPath><g clip-path="url(#_clip2)"><path d="M7.003,2c0.265,0 0.519,0.105 0.707,0.293c0.188,0.187 0.293,0.442 0.293,0.707c0,1.11 0,2.89 0,4c0,0.265 -0.105,0.52 -0.293,0.707c-0.188,0.188 -0.442,0.293 -0.707,0.293c-1.11,0 -2.89,0 -4,0c-0.265,0 -0.52,-0.105 -0.707,-0.293c-0.188,-0.187 -0.293,-0.442 -0.293,-0.707c0,-1.11 0,-2.89 0,-4c0,-0.265 0.105,-0.52 0.293,-0.707c0.187,-0.188 0.442,-0.293 0.707,-0.293c1.11,0 2.89,0 4,0Zm0,1l-4,0l0,4l4,0l0,-4Z" style="fill:#333;"/><path d="M13.031,10l0.028,0.002l0.028,0.002l0.028,0.002l0.028,0.004l0.027,0.004l0.028,0.005l0.027,0.006l0.028,0.007l0.027,0.007l0.027,0.008l0.026,0.009l0.027,0.01l0.026,0.01l0.025,0.011l0.026,0.012l0.025,0.013l0.025,0.013l0.024,0.014l0.024,0.014l0.023,0.016l0.024,0.015l0.022,0.017l0.022,0.017l0.022,0.018l0.021,0.018l0.021,0.019l0.02,0.02l0.02,0.02l0.019,0.021l0.018,0.021l0.018,0.022l0.017,0.022l0.016,0.022l0.016,0.023l0.016,0.024l0.014,0.024l0.014,0.024l0.013,0.025l0.013,0.025l0.012,0.026l0.011,0.025l0.01,0.026l0.01,0.027l0.009,0.026l0.008,0.027l0.007,0.027l0.007,0.027l0.006,0.028l0.005,0.027l0.004,0.028l0.004,0.028l0.002,0.028l0.002,0.028l0.002,0.028l0,0.028l0,2l0,0.028l-0.002,0.028l-0.002,0.028l-0.002,0.028l-0.004,0.028l-0.004,0.028l-0.005,0.027l-0.006,0.028l-0.007,0.027l-0.007,0.027l-0.008,0.027l-0.009,0.026l-0.01,0.027l-0.01,0.026l-0.011,0.025l-0.012,0.026l-0.013,0.025l-0.013,0.025l-0.014,0.024l-0.014,0.024l-0.016,0.024l-0.016,0.023l-0.016,0.022l-0.017,0.022l-0.018,0.022l-0.018,0.021l-0.019,0.021l-0.02,0.02l-0.02,0.02l-0.021,0.019l-0.021,0.018l-0.022,0.018l-0.022,0.017l-0.022,0.017l-0.024,0.015l-0.023,0.016l-0.024,0.014l-0.024,0.014l-0.025,0.013l-0.025,0.013l-0.026,0.012l-0.025,0.011l-0.026,0.01l-0.027,0.01l-0.026,0.009l-0.027,0.008l-0.027,0.007l-0.028,0.007l-0.027,0.006l-0.028,0.005l-0.027,0.004l-0.028,0.004l-0.028,0.002l-0.028,0.002l-0.028,0.002l-0.028,0l-2,0l-0.028,0l-0.028,-0.002l-0.028,-0.002l-0.028,-0.002l-0.028,-0.004l-0.028,-0.004l-0.027,-0.005l-0.028,-0.006l-0.027,-0.007l-0.027,-0.007l-0.027,-0.008l-0.026,-0.009l-0.027,-0.01l-0.026,-0.01l-0.026,-0.011l-0.025,-0.012l-0.025,-0.013l-0.025,-0.013l-0.024,-0.014l-0.024,-0.014l-0.024,-0.016l-0.023,-0.015l-0.022,-0.017l-0.023,-0.017l-0.021,-0.018l-0.021,-0.018l-0.021,-0.019l-0.02,-0.02l-0.02,-0.02l-0.019,-0.021l-0.018,-0.021l-0.018,-0.022l-0.017,-0.022l-0.017,-0.022l-0.016,-0.023l-0.015,-0.024l-0.014,-0.024l-0.014,-0.024l-0.014,-0.025l-0.012,-0.025l-0.012,-0.026l-0.011,-0.025l-0.01,-0.026l-0.01,-0.027l-0.009,-0.026l-0.008,-0.027l-0.007,-0.027l-0.007,-0.027l-0.006,-0.028l-0.005,-0.027l-0.004,-0.028l-0.004,-0.028l-0.003,-0.028l-0.002,-0.028l-0.001,-0.028l0,-0.028l0,-2l0,-0.028l0.001,-0.028l0.002,-0.028l0.003,-0.028l0.004,-0.028l0.004,-0.028l0.005,-0.027l0.006,-0.028l0.007,-0.027l0.007,-0.027l0.008,-0.027l0.009,-0.026l0.01,-0.027l0.01,-0.026l0.011,-0.025l0.012,-0.026l0.012,-0.025l0.014,-0.025l0.014,-0.024l0.014,-0.024l0.015,-0.024l0.016,-0.023l0.017,-0.022l0.017,-0.022l0.018,-0.022l0.018,-0.021l0.019,-0.021l0.02,-0.02l0.02,-0.02l0.021,-0.019l0.021,-0.018l0.021,-0.018l0.023,-0.017l0.022,-0.017l0.023,-0.015l0.024,-0.016l0.024,-0.014l0.024,-0.014l0.025,-0.013l0.025,-0.013l0.025,-0.012l0.026,-0.011l0.026,-0.01l0.027,-0.01l0.026,-0.009l0.027,-0.008l0.027,-0.007l0.027,-0.007l0.028,-0.006l0.027,-0.005l0.028,-0.004l0.028,-0.004l0.028,-0.002l0.028,-0.002l0.028,-0.002l0.028,0l2,0l0.028,0Zm-2.028,1l0,2l2,0l0,-2l-2,0Z" style="fill:#333;"/><g><circle cx="5.003" cy="5" r="1" style="fill:#333;"/><circle cx="19.003" cy="5" r="1" style="fill:#333;"/><circle cx="5.003" cy="19" r="1" style="fill:#333;"/><path d="M13.031,10l0.028,0.002l0.028,0.002l0.028,0.002l0.028,0.004l0.027,0.004l0.028,0.005l0.027,0.006l0.028,0.007l0.027,0.007l0.027,0.008l0.026,0.009l0.027,0.01l0.026,0.01l0.025,0.011l0.026,0.012l0.025,0.013l0.025,0.013l0.024,0.014l0.024,0.014l0.023,0.016l0.024,0.015l0.022,0.017l0.022,0.017l0.022,0.018l0.021,0.018l0.021,0.019l0.02,0.02l0.02,0.02l0.019,0.021l0.018,0.021l0.018,0.022l0.017,0.022l0.016,0.022l0.016,0.023l0.016,0.024l0.014,0.024l0.014,0.024l0.013,0.025l0.013,0.025l0.012,0.026l0.011,0.025l0.01,0.026l0.01,0.027l0.009,0.026l0.008,0.027l0.007,0.027l0.007,0.027l0.006,0.028l0.005,0.027l0.004,0.028l0.004,0.028l0.002,0.028l0.002,0.028l0.002,0.028l0,0.028l0,2l0,0.028l-0.002,0.028l-0.002,0.028l-0.002,0.028l-0.004,0.028l-0.004,0.028l-0.005,0.027l-0.006,0.028l-0.007,0.027l-0.007,0.027l-0.008,0.027l-0.009,0.026l-0.01,0.027l-0.01,0.026l-0.011,0.025l-0.012,0.026l-0.013,0.025l-0.013,0.025l-0.014,0.024l-0.014,0.024l-0.016,0.024l-0.016,0.023l-0.016,0.022l-0.017,0.022l-0.018,0.022l-0.018,0.021l-0.019,0.021l-0.02,0.02l-0.02,0.02l-0.021,0.019l-0.021,0.018l-0.022,0.018l-0.022,0.017l-0.022,0.017l-0.024,0.015l-0.023,0.016l-0.024,0.014l-0.024,0.014l-0.025,0.013l-0.025,0.013l-0.026,0.012l-0.025,0.011l-0.026,0.01l-0.027,0.01l-0.026,0.009l-0.027,0.008l-0.027,0.007l-0.028,0.007l-0.027,0.006l-0.028,0.005l-0.027,0.004l-0.028,0.004l-0.028,0.002l-0.028,0.002l-0.028,0.002l-0.028,0l-2,0l-0.028,0l-0.028,-0.002l-0.028,-0.002l-0.028,-0.002l-0.028,-0.004l-0.028,-0.004l-0.027,-0.005l-0.028,-0.006l-0.027,-0.007l-0.027,-0.007l-0.027,-0.008l-0.026,-0.009l-0.027,-0.01l-0.026,-0.01l-0.026,-0.011l-0.025,-0.012l-0.025,-0.013l-0.025,-0.013l-0.024,-0.014l-0.024,-0.014l-0.024,-0.016l-0.023,-0.015l-0.022,-0.017l-0.023,-0.017l-0.021,-0.018l-0.021,-0.018l-0.021,-0.019l-0.02,-0.02l-0.02,-0.02l-0.019,-0.021l-0.018,-0.021l-0.018,-0.022l-0.017,-0.022l-0.017,-0.022l-0.016,-0.023l-0.015,-0.024l-0.014,-0.024l-0.014,-0.024l-0.014,-0.025l-0.012,-0.025l-0.012,-0.026l-0.011,-0.025l-0.01,-0.026l-0.01,-0.027l-0.009,-0.026l-0.008,-0.027l-0.007,-0.027l-0.007,-0.027l-0.006,-0.028l-0.005,-0.027l-0.004,-0.028l-0.004,-0.028l-0.003,-0.028l-0.002,-0.028l-0.001,-0.028l0,-0.028l0,-2l0,-0.028l0.001,-0.028l0.002,-0.028l0.003,-0.028l0.004,-0.028l0.004,-0.028l0.005,-0.027l0.006,-0.028l0.007,-0.027l0.007,-0.027l0.008,-0.027l0.009,-0.026l0.01,-0.027l0.01,-0.026l0.011,-0.025l0.012,-0.026l0.012,-0.025l0.014,-0.025l0.014,-0.024l0.014,-0.024l0.015,-0.024l0.016,-0.023l0.017,-0.022l0.017,-0.022l0.018,-0.022l0.018,-0.021l0.019,-0.021l0.02,-0.02l0.02,-0.02l0.021,-0.019l0.021,-0.018l0.021,-0.018l0.023,-0.017l0.022,-0.017l0.023,-0.015l0.024,-0.016l0.024,-0.014l0.024,-0.014l0.025,-0.013l0.025,-0.013l0.025,-0.012l0.026,-0.011l0.026,-0.01l0.027,-0.01l0.026,-0.009l0.027,-0.008l0.027,-0.007l0.027,-0.007l0.028,-0.006l0.027,-0.005l0.028,-0.004l0.028,-0.004l0.028,-0.002l0.028,-0.002l0.028,-0.002l0.028,0l2,0l0.028,0Zm-2.028,1l0,2l2,0l0,-2l-2,0Z" style="fill:#333;"/><path d="M9,11.5c0,-0.133 -0.053,-0.26 -0.146,-0.354c-0.094,-0.093 -0.221,-0.146 -0.354,-0.146c-0.133,0 -0.26,0.053 -0.354,0.146c-0.093,0.094 -0.146,0.221 -0.146,0.354c0,0.555 0,1.445 0,2c0,0.133 0.053,0.26 0.146,0.354c0.094,0.093 0.221,0.146 0.354,0.146c0.133,0 0.26,-0.053 0.354,-0.146c0.093,-0.094 0.146,-0.221 0.146,-0.354c0,-0.555 0,-1.445 0,-2Z" style="fill:#333;"/><path d="M7.997,14.498c0,-0.275 -0.223,-0.498 -0.498,-0.498c0,0 -0.001,0 -0.001,0c-0.275,0 -0.498,0.223 -0.498,0.498c0,0.001 0,0.003 0,0.004c0,0.275 0.223,0.498 0.498,0.498c0,0 0.001,0 0.001,0c0.275,0 0.498,-0.223 0.498,-0.498c0,-0.001 0,-0.003 0,-0.004Z" style="fill:#333;"/><path d="M12.003,5.5c0,-0.276 0.224,-0.5 0.5,-0.5c0.591,0 1.497,0 1.497,0c0,0 0,-0.25 0,-0.5c0,-0.133 0.053,-0.26 0.146,-0.354c0.094,-0.093 0.221,-0.146 0.354,-0.146c0.133,0 0.26,0.053 0.354,0.146c0.093,0.094 0.146,0.221 0.146,0.354c0,0.958 0,3.042 0,4c0,0.133 -0.053,0.26 -0.146,0.354c-0.094,0.093 -0.221,0.146 -0.354,0.146c-0.276,0 -0.5,-0.224 -0.5,-0.5c0,-0.25 0,-0.5 0,-0.5c0,0 -0.249,0 -0.499,0c-0.132,0 -0.259,-0.053 -0.353,-0.146c-0.094,-0.094 -0.147,-0.221 -0.147,-0.354c0,-0.592 0,-1.5 0,-1.5c0,0 -0.249,0 -0.498,0c-0.276,0 -0.5,-0.224 -0.5,-0.5c0,0 0,0 0,0Z" style="fill:#333;"/><path d="M4,9.5c0,-0.133 0.053,-0.26 0.146,-0.354c0.094,-0.093 0.221,-0.146 0.354,-0.146l4,0c0.133,0 0.26,0.053 0.354,0.146c0.093,0.094 0.146,0.221 0.146,0.354c0,0.276 -0.224,0.5 -0.5,0.5c-0.25,0 -0.5,0 -0.5,0c0,0 0,0.25 0,0.5c0,0.133 -0.053,0.26 -0.146,0.354c-0.094,0.093 -0.221,0.146 -0.354,0.146c-0.305,0 -0.695,0 -1,0c-0.133,0 -0.26,-0.053 -0.354,-0.146c-0.093,-0.094 -0.146,-0.221 -0.146,-0.354c0,-0.25 0,-0.5 0,-0.5c0,0 -0.908,0 -1.5,0c-0.133,0 -0.26,-0.053 -0.354,-0.146c-0.093,-0.094 -0.146,-0.221 -0.146,-0.354c0,0 0,0 0,0Z" style="fill:#333;"/><path d="M10,8.499c0,-0.276 -0.223,-0.499 -0.499,-0.499c-0.001,0 -0.001,0 -0.002,0c-0.276,0 -0.499,0.223 -0.499,0.499c0,0.001 0,0.001 0,0.002c0,0.276 0.223,0.499 0.499,0.499c0.001,0 0.001,0 0.002,0c0.276,0 0.499,-0.223 0.499,-0.499c0,-0.001 0,-0.001 0,-0.002Z" style="fill:#333;"/><path d="M18.997,9.499c0,-0.276 -0.223,-0.499 -0.499,-0.499c-0.305,0 -0.694,0 -0.999,0c-0.276,0 -0.499,0.223 -0.499,0.499c0,0.001 0,0.001 0,0.002c0,0.276 0.223,0.499 0.499,0.499c0.305,0 0.694,0 0.999,0c0.276,0 0.499,-0.223 0.499,-0.499c0,-0.001 0,-0.001 0,-0.002Z" style="fill:#333;"/><path d="M15.997,10.499c0,-0.276 -0.223,-0.499 -0.499,-0.499c0,0 0,0 0,0c-0.276,0 -0.499,0.223 -0.499,0.499c0,0.001 0,0.001 0,0.002c0,0.276 0.223,0.499 0.499,0.499c0,0 0,0 0,0c0.276,0 0.499,-0.223 0.499,-0.499c0,-0.001 0,-0.001 0,-0.002Z" style="fill:#333;"/><path d="M18.499,11.499c0,-0.276 -0.223,-0.499 -0.499,-0.499c-0.436,0 -1.067,0 -1.504,0c-0.276,0 -0.499,0.223 -0.499,0.499c0,0.001 0,0.001 0,0.002c0,0.276 0.223,0.499 0.499,0.499c0.437,0 1.068,0 1.504,0c0.276,0 0.499,-0.223 0.499,-0.499c0,-0.001 0,-0.001 0,-0.002Z" style="fill:#333;"/><path d="M18,16.5c0,-0.276 0.224,-0.5 0.5,-0.5l0.5,0c0,0 0,-0.25 0,-0.5c0,-0.276 0.224,-0.5 0.5,-0.5c0.276,0 0.5,0.224 0.5,0.5l0,1c0,0.133 -0.053,0.26 -0.146,0.354c-0.094,0.093 -0.221,0.146 -0.354,0.146c-0.25,0 -0.5,0 -0.5,0l-0.001,0c0,0 0,0.251 0,0.501c0,0.276 -0.224,0.499 -0.499,0.499c-0.001,0 -0.001,0 -0.001,0c-0.276,0 -0.499,-0.223 -0.499,-0.499c0,-0.25 0,-0.501 0,-0.501c0,0 0,-0.25 0,-0.5Z" style="fill:#333;"/><path d="M10,19.499c0,-0.276 -0.223,-0.499 -0.499,-0.499c-0.001,0 -0.001,0 -0.002,0c-0.276,0 -0.499,0.223 -0.499,0.499c0,0.001 0,0.001 0,0.002c0,0.276 0.223,0.499 0.499,0.499c0.001,0 0.001,0 0.002,0c0.276,0 0.499,-0.223 0.499,-0.499c0,-0.001 0,-0.001 0,-0.002Z" style="fill:#333;"/><path d="M13,16.5c0,-0.276 0.224,-0.5 0.5,-0.5c0.25,0 0.5,0 0.5,0c0,0 0,-0.25 0,-0.5c0,-0.133 0.053,-0.26 0.146,-0.354c0.094,-0.093 0.221,-0.146 0.354,-0.146c0.305,0 0.695,0 1,0c0.133,0 0.26,0.053 0.354,0.146c0.093,0.094 0.146,0.221 0.146,0.354c0,0.276 -0.224,0.5 -0.5,0.5c-0.25,0 -0.5,0 -0.5,0c0,0 0,0.25 0,0.5c0,0.133 -0.053,0.26 -0.146,0.354c-0.094,0.093 -0.221,0.146 -0.354,0.146c-0.25,0 -0.5,0 -0.5,0c0,0 -0.25,0 -0.5,0c-0.276,0 -0.5,-0.224 -0.5,-0.5c0,0 0,0 0,0Z" style="fill:#333;"/><path d="M9,16.5c0,-0.133 0.053,-0.26 0.146,-0.354c0.094,-0.093 0.221,-0.146 0.354,-0.146c0.25,0 0.5,0 0.5,0c0,0 0,-0.25 0,-0.5c0,-0.133 0.053,-0.26 0.146,-0.354c0.094,-0.093 0.221,-0.146 0.354,-0.146c0.276,0 0.5,0.224 0.5,0.5c0,0.25 0,0.5 0,0.5c0,0 0.25,0 0.5,0c0.133,0 0.26,0.053 0.354,0.146c0.093,0.094 0.146,0.221 0.146,0.354c0,0.592 0,1.5 0,1.5c0,0 0.25,0 0.5,0c0.133,0 0.26,0.053 0.354,0.146c0.093,0.094 0.146,0.221 0.146,0.354c0,0.276 -0.224,0.5 -0.5,0.5c-0.25,0 -0.5,0 -0.5,0c0,0 -0.25,0 -0.5,0c-0.133,0 -0.26,-0.053 -0.354,-0.146c-0.093,-0.094 -0.146,-0.221 -0.146,-0.354c0,-0.25 0,-0.5 0,-0.5c0,0 -0.908,0 -1.5,0c-0.133,0 -0.26,-0.053 -0.354,-0.146c-0.093,-0.094 -0.146,-0.221 -0.146,-0.354c0,-0.305 0,-0.695 0,-1Z" style="fill:#333;"/><path d="M16,13.5c0,-0.276 0.224,-0.5 0.5,-0.5l2,0c0.133,0 0.26,0.053 0.354,0.146c0.093,0.094 0.146,0.221 0.146,0.354c0,0.305 0,0.695 0,1c0,0.133 -0.053,0.26 -0.146,0.354c-0.094,0.093 -0.221,0.146 -0.354,0.146c0,0 -0.001,0 -0.001,0l-0.499,0c0,0 0,0.25 0,0.5c0,0.133 -0.053,0.26 -0.146,0.354c-0.094,0.093 -0.221,0.146 -0.354,0.146c-0.133,0 -0.26,-0.053 -0.354,-0.146c-0.093,-0.094 -0.146,-0.221 -0.146,-0.354c0,-0.592 0,-1.5 0,-1.5c0,0 -0.25,0 -0.5,0c-0.276,0 -0.5,-0.224 -0.5,-0.5c0,0 0,0 0,0Z" style="fill:#333;"/><path d="M3.003,11.5c0,-0.133 0.053,-0.26 0.146,-0.354c0.094,-0.093 0.221,-0.146 0.354,-0.146c0.133,0 0.26,0.053 0.353,0.146c0.094,0.094 0.147,0.221 0.147,0.354c0,0.592 0,1.5 0,1.5l0.997,0c0,0 0,-0.908 0,-1.5c0,-0.133 0.053,-0.26 0.146,-0.354c0.094,-0.093 0.221,-0.146 0.354,-0.146c0.276,0 0.5,0.224 0.5,0.5c0,0.25 0,0.5 0,0.5c0,0 0.25,0 0.5,0c0.133,0 0.26,0.053 0.354,0.146c0.093,0.094 0.146,0.221 0.146,0.354c0,0.276 -0.224,0.5 -0.5,0.5c-0.25,0 -0.5,0 -0.5,0l0.003,0c0,0 0,0.908 0,1.5c0,0.133 -0.053,0.26 -0.147,0.354c-0.093,0.093 -0.22,0.146 -0.353,0.146c-0.306,0 -0.697,0 -1.003,0c-0.133,0 -0.26,-0.053 -0.354,-0.146c-0.093,-0.094 -0.146,-0.221 -0.146,-0.354l0,-0.5c0,0 -0.248,0 -0.497,0c-0.133,0 -0.26,-0.053 -0.354,-0.146c-0.093,-0.094 -0.146,-0.221 -0.146,-0.354c0,-0.555 0,-1.445 0,-2Z" style="fill:#333;"/><path d="M14,20c0,0 0,-0.25 0,-0.5c0,-0.276 0.224,-0.5 0.5,-0.5c0.133,0 0.26,0.053 0.354,0.146c0.093,0.094 0.146,0.221 0.146,0.354c0,0.305 0,0.695 0,1c0,0.133 -0.053,0.26 -0.146,0.354c-0.094,0.093 -0.221,0.146 -0.354,0.146c-0.554,0 -1.443,0 -1.997,0c-0.133,0 -0.26,-0.053 -0.354,-0.146c-0.093,-0.094 -0.146,-0.221 -0.146,-0.354c0,-0.276 0.224,-0.5 0.5,-0.5c0.591,0 1.497,0 1.497,0Z" style="fill:#333;"/><path d="M11,20.5c0,-0.276 -0.224,-0.5 -0.5,-0.5c-0.276,0 -0.5,0.224 -0.5,0.5c0,0.276 0.224,0.5 0.5,0.5c0.276,0 0.5,-0.224 0.5,-0.5c0,0 0,0 0,0Z" style="fill:#333;"/><path d="M21,10.5c0,-0.133 -0.053,-0.26 -0.146,-0.354c-0.094,-0.093 -0.221,-0.146 -0.354,-0.146c-0.133,0 -0.26,0.053 -0.354,0.146c-0.093,0.094 -0.146,0.221 -0.146,0.354c0,0.555 0,1.445 0,2c0,0.133 0.053,0.26 0.146,0.354c0.094,0.093 0.221,0.146 0.354,0.146c0.133,0 0.26,-0.053 0.354,-0.146c0.093,-0.094 0.146,-0.221 0.146,-0.354c0,-0.555 0,-1.445 0,-2Z" style="fill:#333;"/><path d="M21,17.5c0,-0.276 -0.224,-0.5 -0.5,-0.5c-0.276,0 -0.5,0.224 -0.5,0.5c0,0.276 0.224,0.5 0.5,0.5c0.276,0 0.5,-0.224 0.5,-0.5c0,0 0,0 0,0Z" style="fill:#333;"/><path d="M16.499,19c0.562,0 2.178,0 3.004,0c0.133,0 0.26,0.053 0.353,0.146c0.094,0.094 0.147,0.221 0.147,0.354c0,0.305 0,0.695 0,1c0,0.133 -0.053,0.26 -0.147,0.354c-0.093,0.093 -0.22,0.146 -0.353,0.146c-0.001,0 -0.002,0 -0.003,0c-0.276,0 -0.5,-0.224 -0.5,-0.5c0,-0.25 0,-0.5 0,-0.5l-2.501,0c-0.276,0 -0.499,-0.223 -0.499,-0.499c0,-0.001 0,-0.001 0,-0.002c0,-0.276 0.223,-0.499 0.499,-0.499Z" style="fill:#333;"/><path d="M10,4c0,0 0,-0.25 0,-0.5c0,-0.276 0.224,-0.5 0.5,-0.5c0.306,0 0.696,0 1.001,0c0.133,0 0.26,0.053 0.354,0.146c0.094,0.094 0.146,0.221 0.146,0.354c0,0.305 0,0.695 0,1c0,0.133 -0.052,0.26 -0.146,0.354c-0.094,0.093 -0.221,0.146 -0.354,0.146c-0.25,0 -0.501,0 -0.501,0l0,1l0.513,0c0.129,0 0.253,0.051 0.344,0.143c0.092,0.091 0.143,0.215 0.143,0.344c0,0 0,0.001 0,0.001c0,0.283 -0.229,0.512 -0.512,0.512c-0.246,0 -0.488,0 -0.488,0c0,0 0,0.259 0,0.513c0,0.129 -0.051,0.253 -0.143,0.344c-0.091,0.092 -0.215,0.143 -0.344,0.143c0,0 -0.001,0 -0.001,0c-0.283,0 -0.512,-0.229 -0.512,-0.512c0,-0.857 0,-2.488 0,-2.488c0,0 -0.251,0 -0.501,0c-0.276,0 -0.499,-0.223 -0.499,-0.499c0,-0.001 0,-0.001 0,-0.002c0,-0.276 0.223,-0.499 0.499,-0.499l0.501,0Z" style="fill:#333;"/><path d="M14,3.5c0,-0.276 -0.224,-0.5 -0.5,-0.5c-0.276,0 -0.5,0.224 -0.5,0.5c0,0.276 0.224,0.5 0.5,0.5c0.276,0 0.5,-0.224 0.5,-0.5c0,0 0,0 0,0Z" style="fill:#333;"/></g></g><path d="M21.003,2c0.265,0 0.519,0.105 0.707,0.293c0.188,0.187 0.293,0.442 0.293,0.707c0,1.11 0,2.89 0,4c0,0.265 -0.105,0.52 -0.293,0.707c-0.188,0.188 -0.442,0.293 -0.707,0.293c-1.11,0 -2.89,0 -4,0c-0.265,0 -0.52,-0.105 -0.707,-0.293c-0.188,-0.187 -0.293,-0.442 -0.293,-0.707c0,-1.11 0,-2.89 0,-4c0,-0.265 0.105,-0.52 0.293,-0.707c0.187,-0.188 0.442,-0.293 0.707,-0.293c1.11,0 2.89,0 4,0Zm0,1l-4,0l0,4l4,0l0,-4Z" style="fill:#333;"/><path d="M7.003,16c0.265,0 0.519,0.105 0.707,0.293c0.188,0.187 0.293,0.442 0.293,0.707c0,1.11 0,2.89 0,4c0,0.265 -0.105,0.52 -0.293,0.707c-0.188,0.188 -0.442,0.293 -0.707,0.293c-1.11,0 -2.89,0 -4,0c-0.265,0 -0.52,-0.105 -0.707,-0.293c-0.188,-0.187 -0.293,-0.442 -0.293,-0.707c0,-1.11 0,-2.89 0,-4c0,-0.265 0.105,-0.52 0.293,-0.707c0.187,-0.188 0.442,-0.293 0.707,-0.293c1.11,0 2.89,0 4,0Zm0,1l-4,0l0,4l4,0l0,-4Z" style="fill:#333;"/><defs><linearGradient id="_Linear1" x1="0" y1="0" x2="1" y2="0" gradientUnits="userSpaceOnUse" gradientTransform="matrix(-20,20,-20.1914,-19.8104,22.0029,2)"><stop offset="0" style="stop-color:#fff;stop-opacity:1"/><stop offset="1" style="stop-color:#666;stop-opacity:1"/></linearGradient></defs></svg>