<?xml version="1.0" encoding="UTF-8" standalone="no"?><!DOCTYPE svg PUBLIC "-//W3C//DTD SVG 1.1//EN" "http://www.w3.org/Graphics/SVG/1.1/DTD/svg11.dtd"><svg width="100%" height="100%" viewBox="0 0 24 24" version="1.1" xmlns="http://www.w3.org/2000/svg" xmlns:xlink="http://www.w3.org/1999/xlink" xml:space="preserve" xmlns:serif="http://www.serif.com/" style="fill-rule:evenodd;clip-rule:evenodd;stroke-linecap:round;stroke-linejoin:round;stroke-miterlimit:1.5;"><rect id="object.real.lock" x="0.003" y="0" width="24" height="24" style="fill:none;"/><path d="M18.071,9.002l0.068,0.007l0.067,0.012l0.067,0.016l0.065,0.021l0.063,0.025l0.062,0.029l0.059,0.034l0.058,0.037l0.054,0.041l0.051,0.045l0.049,0.048l0.045,0.052l0.041,0.054l0.037,0.057l0.034,0.06l0.029,0.062l0.025,0.063l0.021,0.065l0.016,0.067l0.012,0.067l0.007,0.068l0.002,0.068l0,10l-0.002,0.068l-0.007,0.068l-0.012,0.067l-0.016,0.067l-0.021,0.065l-0.025,0.063l-0.029,0.062l-0.034,0.06l-0.037,0.057l-0.041,0.054l-0.045,0.052l-0.049,0.048l-0.051,0.045l-0.054,0.041l-0.058,0.037l-0.059,0.034l-0.062,0.029l-0.063,0.025l-0.065,0.021l-0.067,0.016l-0.067,0.012l-0.068,0.007l-0.068,0.002l-12,0l-0.068,-0.002l-0.068,-0.007l-0.068,-0.012l-0.066,-0.016l-0.065,-0.021l-0.064,-0.025l-0.061,-0.029l-0.06,-0.034l-0.057,-0.037l-0.054,-0.041l-0.052,-0.045l-0.048,-0.048l-0.045,-0.052l-0.041,-0.054l-0.038,-0.057l-0.033,-0.06l-0.029,-0.062l-0.025,-0.063l-0.021,-0.065l-0.016,-0.067l-0.012,-0.067l-0.007,-0.068l-0.002,-0.068l0,-10l0.002,-0.068l0.007,-0.068l0.012,-0.067l0.016,-0.067l0.021,-0.065l0.025,-0.063l0.029,-0.062l0.033,-0.06l0.038,-0.057l0.041,-0.054l0.045,-0.052l0.048,-0.048l0.052,-0.045l0.054,-0.041l0.057,-0.037l0.06,-0.034l0.061,-0.029l0.064,-0.025l0.065,-0.021l0.066,-0.016l0.068,-0.012l0.068,-0.007l0.068,-0.002l12,0l0.068,0.002Zm-12.068,0.998l0,10l12,0l0,-10l-12,0Z"/><path d="M8.503,9.5l0,-2.5c0,-1.38 1.045,-2.5 2.333,-2.5l2.334,0c1.287,0 2.333,1.12 2.333,2.5l0,2.5l-7,0Z" style="fill:none;stroke:#333;stroke-width:1px;"/><path d="M19.003,10c0,-0.552 -0.448,-1 -1,-1l-12,0c-0.552,0 -1,0.448 -1,1l0,10c0,0.552 0.448,1 1,1l12,0c0.552,0 1,-0.448 1,-1l0,-10Z" style="fill:url(#_Linear1);"/><path d="M14.503,15.5l0,1.5" style="fill:none;stroke:#333;stroke-width:1px;"/><circle cx="14.503" cy="14.5" r="1.5" style="fill:#333;"/><defs><linearGradient id="_Linear1" x1="0" y1="0" x2="1" y2="0" gradientUnits="userSpaceOnUse" gradientTransform="matrix(-20,20,-20,-20,22.0029,2)"><stop offset="0" style="stop-color:#fff;stop-opacity:1"/><stop offset="1" style="stop-color:#666;stop-opacity:1"/></linearGradient></defs></svg>