<?xml version="1.0" encoding="UTF-8" standalone="no"?><!DOCTYPE svg PUBLIC "-//W3C//DTD SVG 1.1//EN" "http://www.w3.org/Graphics/SVG/1.1/DTD/svg11.dtd"><svg width="100%" height="100%" viewBox="0 0 24 24" version="1.1" xmlns="http://www.w3.org/2000/svg" xmlns:xlink="http://www.w3.org/1999/xlink" xml:space="preserve" xmlns:serif="http://www.serif.com/" style="fill-rule:evenodd;clip-rule:evenodd;stroke-linejoin:round;stroke-miterlimit:1.41421;"><rect id="object.regular.letterEnvelope" x="0.003" y="0" width="24" height="24" style="fill:none;"/><path d="M2.003,6c0,-0.552 0.448,-1 1,-1c3.414,0 14.586,0 18,0c0.552,0 1,0.448 1,1c0,2.577 0,9.423 0,12c0,0.552 -0.448,1 -1,1c-3.414,0 -14.586,0 -18,0c-0.552,0 -1,-0.448 -1,-1c0,-2.577 0,-9.423 0,-12Zm1.994,1.407l0,9.593l16,0l0,-9.584l-7.687,5.979c-0.181,0.14 -0.434,0.14 -0.614,0l-7.699,-5.988Zm14.906,-0.407l-13.8,0l6.9,5.367l6.9,-5.367Z" style="fill:#333;"/></svg>