<?xml version="1.0" encoding="UTF-8" standalone="no"?><!DOCTYPE svg PUBLIC "-//W3C//DTD SVG 1.1//EN" "http://www.w3.org/Graphics/SVG/1.1/DTD/svg11.dtd"><svg width="100%" height="100%" viewBox="0 0 24 24" version="1.1" xmlns="http://www.w3.org/2000/svg" xmlns:xlink="http://www.w3.org/1999/xlink" xml:space="preserve" xmlns:serif="http://www.serif.com/" style="fill-rule:evenodd;clip-rule:evenodd;stroke-linejoin:round;stroke-miterlimit:1.41421;"><rect id="object.thin.creditCardFront" x="0.003" y="0" width="24" height="24" style="fill:none;"/><path d="M2.003,6c0,-0.552 0.448,-1 1,-1c3.414,0 14.585,0 18,0c0.265,0 0.519,0.105 0.707,0.293c0.187,0.188 0.293,0.442 0.293,0.707c-0.002,2.578 -0.004,9.424 -0.006,12c0,0.553 -0.447,1 -0.999,1c-3.413,0 -14.582,0 -17.995,0c-0.552,0 -1,-0.448 -1,-1c0,-2.577 0,-9.423 0,-12Zm18.994,0l-18,0l0,12l18,0l0,-12Zm-11.5,10c0.276,0 0.5,0.224 0.5,0.5c0,0.276 -0.224,0.5 -0.5,0.5l-5,0c-0.276,0 -0.5,-0.224 -0.5,-0.5c0,-0.276 0.224,-0.5 0.5,-0.5l5,0Zm9.5,-1c0.552,0 1,0.448 1,1c0,0.552 -0.448,1 -1,1l-2,0c-0.552,0 -1,-0.448 -1,-1c0,-0.552 0.448,-1 1,-1l2,0Zm0,-4c0.552,0 1,0.448 1,1c0,0.552 -0.448,1 -1,1l-14,0c-0.552,0 -1,-0.448 -1,-1c0,-0.552 0.448,-1 1,-1l14,0Z" style="fill:#333;"/></svg>