<?xml version="1.0" encoding="UTF-8" standalone="no"?><!DOCTYPE svg PUBLIC "-//W3C//DTD SVG 1.1//EN" "http://www.w3.org/Graphics/SVG/1.1/DTD/svg11.dtd"><svg width="100%" height="100%" viewBox="0 0 24 24" version="1.1" xmlns="http://www.w3.org/2000/svg" xmlns:xlink="http://www.w3.org/1999/xlink" xml:space="preserve" xmlns:serif="http://www.serif.com/" style="fill-rule:evenodd;clip-rule:evenodd;stroke-linejoin:round;stroke-miterlimit:1.41421;"><rect id="object.real.document" x="0.003" y="0" width="24" height="24" style="fill:none;"/><path d="M15.003,2l5,5c0,0 0,10.645 0,14c0,0.265 -0.105,0.52 -0.293,0.707c-0.188,0.188 -0.442,0.293 -0.707,0.293c-2.727,0 -10.273,0 -13,0c-0.265,0 -0.52,-0.105 -0.707,-0.293c-0.188,-0.187 -0.293,-0.442 -0.293,-0.707c0,-3.414 0,-14.586 0,-18c0,-0.552 0.448,-1 1,-1c2.533,0 9,0 9,0Z" style="fill:url(#_Linear1);"/><path d="M15.003,2l4.997,5c0,0 -2.539,0 -3.997,0c-0.552,0 -1,-0.448 -1,-1c0,-1.459 0,-4 0,-4Z" style="fill:#333;"/><path d="M13.491,14c0.283,0 0.512,0.229 0.512,0.512c0,0 0,0.001 0,0.001c0,0.269 -0.218,0.487 -0.487,0.487c-1.278,0 -4.72,0 -6.013,0c-0.276,0 -0.5,-0.224 -0.5,-0.5c0,0 0,-0.001 0,-0.001c0,-0.276 0.223,-0.499 0.499,-0.499c1.284,0 4.691,0 5.989,0Zm4.013,-2c0.275,0 0.499,0.223 0.499,0.499c0,0.001 0,0.001 0,0.002c0,0.276 -0.224,0.499 -0.499,0.499c-1.831,0 -8.171,0 -10.002,0c-0.276,0 -0.499,-0.223 -0.499,-0.499c0,-0.001 0,-0.001 0,-0.002c0,-0.276 0.223,-0.499 0.499,-0.499c1.831,0 8.171,0 10.002,0Zm0,-4c0.275,0 0.499,0.223 0.499,0.499c0,0.001 0,0.001 0,0.002c0,0.276 -0.224,0.499 -0.499,0.499c-1.828,0 -8.15,0 -9.993,0c-0.281,0 -0.508,-0.227 -0.508,-0.508c0,0 0,-0.001 0,-0.001c0,-0.13 0.052,-0.255 0.144,-0.347c0.092,-0.092 0.217,-0.144 0.347,-0.144c1.821,0 8.176,0 10.01,0Zm-4.001,-2c0.133,0 0.26,0.053 0.353,0.146c0.094,0.094 0.147,0.221 0.147,0.354c0,0.276 -0.224,0.5 -0.5,0.5c-1.286,0 -4.697,0 -5.992,0c-0.281,0 -0.508,-0.227 -0.508,-0.508c0,0 0,-0.001 0,-0.001c0,-0.13 0.052,-0.255 0.144,-0.347c0.092,-0.092 0.217,-0.144 0.347,-0.144c1.282,0 4.717,0 6.009,0Zm0.001,-2c0.275,0 0.499,0.223 0.499,0.499c0,0.001 0,0.001 0,0.002c0,0.276 -0.224,0.499 -0.499,0.499c-1.288,0 -4.714,0 -6.002,0c-0.276,0 -0.499,-0.223 -0.499,-0.499c0,-0.001 0,-0.001 0,-0.002c0,-0.276 0.223,-0.499 0.499,-0.499c1.288,0 4.714,0 6.002,0Z" style="fill:#333;"/><defs><linearGradient id="_Linear1" x1="0" y1="0" x2="1" y2="0" gradientUnits="userSpaceOnUse" gradientTransform="matrix(-20,20,-20,-20,22.0029,2)"><stop offset="0" style="stop-color:#fff;stop-opacity:1"/><stop offset="1" style="stop-color:#666;stop-opacity:1"/></linearGradient></defs></svg>