<?xml version="1.0" encoding="UTF-8" standalone="no"?><!DOCTYPE svg PUBLIC "-//W3C//DTD SVG 1.1//EN" "http://www.w3.org/Graphics/SVG/1.1/DTD/svg11.dtd"><svg width="100%" height="100%" viewBox="0 0 24 24" version="1.1" xmlns="http://www.w3.org/2000/svg" xmlns:xlink="http://www.w3.org/1999/xlink" xml:space="preserve" xmlns:serif="http://www.serif.com/" style="fill-rule:evenodd;clip-rule:evenodd;stroke-linejoin:round;stroke-miterlimit:1.41421;"><rect id="object.regular.document" x="0" y="0" width="24" height="24" style="fill:none;"/><path d="M4,3c0,-0.265 0.105,-0.52 0.293,-0.707c0.187,-0.188 0.442,-0.293 0.707,-0.293c2.393,0 8.371,0 9.997,0c0.265,0 0.52,0.105 0.707,0.293c0.827,0.827 3.173,3.173 4,4c0.188,0.187 0.293,0.442 0.293,0.707c0,2.033 0,10.98 0,14c0,0.265 -0.105,0.52 -0.293,0.707c-0.187,0.188 -0.442,0.293 -0.707,0.293c-2.872,0 -11.125,0 -13.997,0c-0.265,0 -0.52,-0.105 -0.707,-0.293c-0.188,-0.187 -0.293,-0.442 -0.293,-0.707c0,-3.414 0,-14.586 0,-18Zm9.994,1l-7.994,0l0,16l11.994,0l0,-12c0,0 -1.815,0 -3,0c-0.552,0 -1,-0.448 -1,-1c0,-1.185 0,-3 0,-3Zm-1,11.5c0,0.133 -0.053,0.26 -0.146,0.354c-0.094,0.093 -0.221,0.146 -0.354,0.146c-1.13,0 -3.87,0 -5,0c-0.132,0 -0.26,-0.053 -0.353,-0.146c-0.094,-0.094 -0.147,-0.221 -0.147,-0.354c0,-0.133 0.053,-0.26 0.147,-0.354c0.093,-0.093 0.221,-0.146 0.353,-0.146c1.13,0 3.87,0 5,0c0.133,0 0.26,0.053 0.354,0.146c0.093,0.094 0.146,0.221 0.146,0.354c0,0 0,0 0,0Zm4,-1.987c0,0.269 -0.218,0.487 -0.487,0.487c-1.691,0 -7.301,0 -9.013,0c-0.132,0 -0.26,-0.053 -0.353,-0.146c-0.094,-0.094 -0.147,-0.221 -0.147,-0.354c0,0 0,-0.001 0,-0.001c0,-0.132 0.053,-0.259 0.146,-0.353c0.094,-0.093 0.221,-0.146 0.353,-0.146c1.702,0 7.268,0 8.989,0c0.283,0 0.512,0.229 0.512,0.512c0,0 0,0.001 0,0.001Zm0,-4c0,0.269 -0.218,0.487 -0.487,0.487c-1.691,0 -7.301,0 -9.013,0c-0.132,0 -0.26,-0.053 -0.353,-0.146c-0.094,-0.094 -0.147,-0.221 -0.147,-0.354c0,0 0,-0.001 0,-0.001c0,-0.132 0.053,-0.259 0.146,-0.353c0.094,-0.093 0.221,-0.146 0.353,-0.146c1.702,0 7.268,0 8.989,0c0.283,0 0.512,0.229 0.512,0.512c0,0 0,0.001 0,0.001Zm-4,-2.012c0,0.132 -0.052,0.259 -0.146,0.353c-0.094,0.093 -0.221,0.146 -0.353,0.146c-1.129,0 -3.871,0 -5.001,0c-0.132,0 -0.26,-0.053 -0.353,-0.146c-0.094,-0.094 -0.147,-0.221 -0.147,-0.354c0,0 0,-0.001 0,-0.001c0,-0.132 0.053,-0.259 0.146,-0.353c0.094,-0.093 0.221,-0.146 0.353,-0.146c1.13,0 3.871,0 5.001,0c0.133,0 0.26,0.053 0.354,0.146c0.093,0.094 0.146,0.221 0.146,0.354c0,0 0,0.001 0,0.001Zm2.006,-3.081l0,2.58l2.58,0l-2.58,-2.58Zm-2.006,1.081c0,0.132 -0.052,0.259 -0.146,0.353c-0.094,0.093 -0.221,0.146 -0.353,0.146c-1.129,0 -3.871,0 -5.001,0c-0.132,0 -0.26,-0.053 -0.353,-0.146c-0.094,-0.094 -0.147,-0.221 -0.147,-0.354c0,0 0,-0.001 0,-0.001c0,-0.132 0.053,-0.259 0.146,-0.353c0.094,-0.093 0.221,-0.146 0.353,-0.146c1.13,0 3.871,0 5.001,0c0.133,0 0.26,0.053 0.354,0.146c0.093,0.094 0.146,0.221 0.146,0.354c0,0 0,0.001 0,0.001Z" style="fill:#333;"/></svg>