<?xml version="1.0" encoding="UTF-8" standalone="no"?><!DOCTYPE svg PUBLIC "-//W3C//DTD SVG 1.1//EN" "http://www.w3.org/Graphics/SVG/1.1/DTD/svg11.dtd"><svg width="100%" height="100%" viewBox="0 0 24 24" version="1.1" xmlns="http://www.w3.org/2000/svg" xmlns:xlink="http://www.w3.org/1999/xlink" xml:space="preserve" xmlns:serif="http://www.serif.com/" style="fill-rule:evenodd;clip-rule:evenodd;stroke-linejoin:round;stroke-miterlimit:1.41421;"><rect id="object.filled.suitcase" x="0.003" y="0" width="24" height="24" style="fill:none;"/><path d="M21.086,6.003l0.082,0.011l0.08,0.017l0.08,0.023l0.077,0.03l0.074,0.037l0.071,0.042l0.067,0.048l0.063,0.053l0.059,0.059l0.053,0.063l0.048,0.067l0.042,0.071l0.037,0.074l0.03,0.077l0.023,0.079l0.017,0.081l0.011,0.082l0.003,0.083l0,12l-0.003,0.083l-0.011,0.082l-0.017,0.08l-0.023,0.08l-0.03,0.077l-0.037,0.074l-0.042,0.071l-0.048,0.067l-0.053,0.063l-0.059,0.059l-0.063,0.053l-0.067,0.048l-0.071,0.042l-0.074,0.037l-0.077,0.03l-0.08,0.023l-0.08,0.017l-0.082,0.011l-0.083,0.003l-18,0l-0.083,-0.003l-0.082,-0.011l-0.081,-0.017l-0.079,-0.023l-0.077,-0.03l-0.074,-0.037l-0.071,-0.042l-0.067,-0.048l-0.063,-0.053l-0.059,-0.059l-0.053,-0.063l-0.048,-0.067l-0.043,-0.071l-0.036,-0.074l-0.03,-0.077l-0.023,-0.08l-0.017,-0.08l-0.011,-0.082l-0.003,-0.083l0,-12l0.003,-0.083l0.011,-0.082l0.017,-0.081l0.023,-0.079l0.03,-0.077l0.036,-0.074l0.043,-0.071l0.048,-0.067l0.053,-0.063l0.059,-0.059l0.063,-0.053l0.067,-0.048l0.071,-0.042l0.074,-0.037l0.077,-0.03l0.079,-0.023l0.081,-0.017l0.082,-0.011l0.083,-0.003l18,0l0.083,0.003Zm-18.083,0.997l0,12l18,0l0,-12l-18,0Z" style="fill:#333;"/><path d="M14,4c0.265,0 0.52,0.105 0.707,0.293c0.188,0.187 0.293,0.442 0.293,0.707c0,0.696 0,1.5 0,1.5l-1,0l0,-1.5l-4,0l0,1.5l-1,0c0,0 0,-0.804 0,-1.5c0,-0.265 0.105,-0.52 0.293,-0.707c0.187,-0.188 0.442,-0.293 0.707,-0.293c1.11,0 2.89,0 4,0Z" style="fill:#333;"/><path d="M21.003,6c0.552,0 1,0.448 1,1c0,2.577 0,9.423 0,12c0,0.552 -0.448,1 -1,1c-3.414,0 -14.586,0 -18,0c-0.552,0 -1,-0.448 -1,-1c0,-2.577 0,-9.423 0,-12c0,-0.552 0.448,-1 1,-1c3.414,0 14.586,0 18,0Zm-14.003,1l-1,0l0,12l1,0l0,-12Zm11,0l-1,0l0,12l1,0l0,-12Z" style="fill:#333;"/></svg>