<?xml version="1.0" encoding="UTF-8" standalone="no"?><!DOCTYPE svg PUBLIC "-//W3C//DTD SVG 1.1//EN" "http://www.w3.org/Graphics/SVG/1.1/DTD/svg11.dtd"><svg width="100%" height="100%" viewBox="0 0 24 24" version="1.1" xmlns="http://www.w3.org/2000/svg" xmlns:xlink="http://www.w3.org/1999/xlink" xml:space="preserve" xmlns:serif="http://www.serif.com/" style="fill-rule:evenodd;clip-rule:evenodd;stroke-linejoin:round;stroke-miterlimit:1.41421;"><rect id="object.regular.suitcase" x="0" y="0" width="24" height="24" style="fill:none;"/><path d="M2,7c0,-0.552 0.448,-1 1,-1c1.934,0 6,0 6,0c0,0 0,-0.5 0,-1c0,-0.265 0.105,-0.52 0.293,-0.707c0.187,-0.188 0.442,-0.293 0.707,-0.293c1.11,0 2.89,0 4,0c0.265,0 0.52,0.105 0.707,0.293c0.188,0.187 0.293,0.442 0.293,0.707c0,0.5 0,1 0,1c0,0 4.066,0 6,0c0.552,0 1,0.448 1,1c0,2.577 0,9.423 0,12c0,0.552 -0.448,1 -1,1c-3.414,0 -14.586,0 -18,0c-0.552,0 -1,-0.448 -1,-1c0,-2.577 0,-9.423 0,-12Zm2,1l0,10l2,0l0,-10l-2,0Zm3,0l0,10l10,0l0,-10l-10,0Zm11,0l0,10l2,0l0,-10l-2,0Zm-8,-3l0,1l4,0l0,-1l-4,0Z" style="fill:#333;"/></svg>