<?xml version="1.0" encoding="UTF-8" standalone="no"?><!DOCTYPE svg PUBLIC "-//W3C//DTD SVG 1.1//EN" "http://www.w3.org/Graphics/SVG/1.1/DTD/svg11.dtd"><svg width="100%" height="100%" viewBox="0 0 24 24" version="1.1" xmlns="http://www.w3.org/2000/svg" xmlns:xlink="http://www.w3.org/1999/xlink" xml:space="preserve" xmlns:serif="http://www.serif.com/" style="fill-rule:evenodd;clip-rule:evenodd;stroke-linecap:round;stroke-linejoin:round;stroke-miterlimit:1.5;"><rect id="object.thin.folder" x="0.003" y="0" width="24" height="24" style="fill:none;"/><path d="M8.082,4.003l0.078,0.01l0.078,0.015l0.076,0.022l0.074,0.027l0.072,0.033l0.069,0.039l0.065,0.045l0.062,0.049l0.058,0.054l0.053,0.058l0.049,0.063l0.043,0.066l0.038,0.069l0.724,1.447l11.382,0l0.083,0.003l0.082,0.011l0.08,0.017l0.08,0.023l0.077,0.03l0.074,0.037l0.071,0.042l0.067,0.048l0.063,0.053l0.059,0.059l0.053,0.063l0.048,0.067l0.042,0.071l0.037,0.074l0.03,0.077l0.023,0.08l0.017,0.08l0.011,0.082l0.003,0.083l0,12l-0.003,0.083l-0.011,0.082l-0.017,0.08l-0.023,0.08l-0.03,0.077l-0.037,0.074l-0.042,0.071l-0.048,0.067l-0.053,0.063l-0.059,0.059l-0.063,0.053l-0.067,0.048l-0.071,0.042l-0.074,0.037l-0.077,0.03l-0.08,0.023l-0.08,0.017l-0.082,0.011l-0.083,0.003l-18,0l-0.083,-0.003l-0.082,-0.011l-0.081,-0.017l-0.079,-0.023l-0.077,-0.03l-0.074,-0.037l-0.071,-0.042l-0.067,-0.048l-0.063,-0.053l-0.059,-0.059l-0.053,-0.063l-0.048,-0.067l-0.043,-0.071l-0.036,-0.074l-0.03,-0.077l-0.023,-0.08l-0.017,-0.08l-0.011,-0.082l-0.003,-0.083l0,-14l0.003,-0.083l0.011,-0.082l0.017,-0.08l0.023,-0.08l0.03,-0.077l0.036,-0.074l0.043,-0.071l0.048,-0.067l0.053,-0.063l0.059,-0.059l0.063,-0.053l0.067,-0.048l0.071,-0.042l0.074,-0.037l0.077,-0.03l0.079,-0.023l0.081,-0.017l0.082,-0.011l0.083,-0.003l5,0l0.079,0.003Zm-5.079,0.997l0,14l18,0l0,-12l-12,0l-1,-2l-5,0Z" style="fill:#333;"/><path d="M4.503,17.5l6,0" style="fill:none;stroke:#333;stroke-width:1px;"/><path d="M7.503,4.5l7,0l1,2" style="fill:none;stroke:#333;stroke-width:1px;"/></svg>