<?xml version="1.0" encoding="UTF-8" standalone="no"?><!DOCTYPE svg PUBLIC "-//W3C//DTD SVG 1.1//EN" "http://www.w3.org/Graphics/SVG/1.1/DTD/svg11.dtd"><svg width="100%" height="100%" viewBox="0 0 24 24" version="1.1" xmlns="http://www.w3.org/2000/svg" xmlns:xlink="http://www.w3.org/1999/xlink" xml:space="preserve" xmlns:serif="http://www.serif.com/" style="fill-rule:evenodd;clip-rule:evenodd;stroke-linejoin:round;stroke-miterlimit:1.41421;"><rect id="object.thin.champaigne" x="0" y="0" width="24" height="24" style="fill:none;"/><rect x="12" y="14" width="1" height="7" style="fill:#333;"/><path d="M15,20.5c0,-0.276 -0.224,-0.5 -0.5,-0.5l-4,0c-0.276,0 -0.5,0.224 -0.5,0.5c0,0.276 0.224,0.5 0.5,0.5l4,0c0.276,0 0.5,-0.224 0.5,-0.5Z" style="fill:#333;"/><rect x="10.5" y="7" width="4" height="1" style="fill:#333;"/><path d="M14.05,4.001l0.049,0.004l0.049,0.006l0.048,0.008l0.048,0.011l0.047,0.013l0.046,0.016l0.046,0.017l0.044,0.02l0.044,0.022l0.042,0.024l0.042,0.026l0.04,0.028l0.039,0.03l0.037,0.033l0.036,0.034l0.034,0.036l0.033,0.037l0.03,0.039l0.028,0.04l0.026,0.042l0.024,0.042l0.022,0.044l0.02,0.044l0.017,0.046l0.016,0.046l0.013,0.047l0.011,0.048l0.008,0.048l0.006,0.049l0.004,0.049l0.001,0.05l0,4l0,0.039l-0.001,0.154l-0.003,0.153l-0.004,0.152l-0.006,0.151l-0.008,0.149l-0.009,0.149l-0.011,0.147l-0.012,0.147l-0.013,0.144l-0.015,0.144l-0.016,0.142l-0.018,0.141l-0.019,0.139l-0.021,0.138l-0.022,0.136l-0.023,0.135l-0.025,0.133l-0.025,0.131l-0.028,0.129l-0.028,0.128l-0.029,0.126l-0.031,0.124l-0.032,0.121l-0.033,0.12l-0.035,0.118l-0.035,0.116l-0.037,0.114l-0.038,0.111l-0.038,0.11l-0.04,0.107l-0.041,0.104l-0.042,0.103l-0.043,0.099l-0.044,0.098l-0.044,0.095l-0.046,0.092l-0.047,0.09l-0.047,0.087l-0.049,0.085l-0.049,0.081l-0.05,0.079l-0.052,0.076l-0.051,0.074l-0.053,0.07l-0.053,0.067l-0.054,0.064l-0.055,0.062l-0.056,0.058l-0.056,0.055l-0.057,0.051l-0.057,0.049l-0.03,0.023l-0.029,0.022l-0.029,0.021l-0.029,0.021l-0.03,0.02l-0.03,0.018l-0.03,0.018l-0.03,0.017l-0.03,0.017l-0.03,0.015l-0.031,0.014l-0.03,0.014l-0.031,0.013l-0.031,0.011l-0.031,0.011l-0.031,0.01l-0.031,0.009l-0.032,0.008l-0.031,0.007l-0.032,0.007l-0.031,0.005l-0.032,0.004l-0.032,0.004l-0.032,0.002l-0.032,0.002l-0.032,0l-0.032,0l-0.032,-0.002l-0.033,-0.002l-0.032,-0.004l-0.031,-0.004l-0.032,-0.006l-0.032,-0.006l-0.031,-0.007l-0.032,-0.008l-0.031,-0.009l-0.031,-0.01l-0.032,-0.011l-0.03,-0.012l-0.031,-0.013l-0.031,-0.013l-0.031,-0.015l-0.03,-0.015l-0.03,-0.017l-0.03,-0.017l-0.03,-0.018l-0.03,-0.019l-0.03,-0.02l-0.03,-0.02l-0.029,-0.022l-0.029,-0.022l-0.029,-0.023l-0.058,-0.049l-0.057,-0.052l-0.057,-0.056l-0.055,-0.058l-0.055,-0.062l-0.055,-0.065l-0.053,-0.068l-0.053,-0.07l-0.052,-0.074l-0.051,-0.077l-0.05,-0.079l-0.05,-0.083l-0.048,-0.085l-0.048,-0.087l-0.047,-0.091l-0.046,-0.093l-0.045,-0.095l-0.043,-0.099l-0.043,-0.1l-0.042,-0.103l-0.041,-0.106l-0.04,-0.107l-0.039,-0.11l-0.037,-0.113l-0.037,-0.114l-0.036,-0.117l-0.034,-0.118l-0.033,-0.121l-0.032,-0.123l-0.031,-0.124l-0.029,-0.127l-0.028,-0.128l-0.027,-0.131l-0.026,-0.132l-0.024,-0.133l-0.023,-0.136l-0.022,-0.137l-0.021,-0.138l-0.019,-0.141l-0.017,-0.141l-0.016,-0.143l-0.015,-0.145l-0.013,-0.145l-0.012,-0.147l-0.01,-0.149l-0.009,-0.149l-0.007,-0.151l-0.006,-0.152l-0.004,-0.152l-0.002,-0.154l-0.001,-0.155l0,-4l0.001,-0.05l0.004,-0.049l0.006,-0.049l0.008,-0.048l0.011,-0.048l0.013,-0.047l0.016,-0.046l0.017,-0.046l0.02,-0.044l0.022,-0.044l0.024,-0.042l0.026,-0.042l0.028,-0.04l0.03,-0.039l0.033,-0.037l0.034,-0.036l0.036,-0.034l0.037,-0.033l0.039,-0.03l0.04,-0.028l0.042,-0.026l0.042,-0.024l0.044,-0.022l0.044,-0.02l0.046,-0.017l0.046,-0.016l0.047,-0.013l0.048,-0.011l0.048,-0.008l0.049,-0.006l0.049,-0.004l0.05,-0.001l3,0l0.05,0.001Zm-3.038,0.999l-0.012,0l0,0.001l0,0.01l0,3.986l0.001,0.147l0.002,0.144l0.004,0.142l0.005,0.14l0.007,0.141l0.008,0.139l0.009,0.137l0.011,0.136l0.013,0.136l0.013,0.133l0.015,0.132l0.016,0.131l0.018,0.129l0.018,0.127l0.02,0.126l0.022,0.124l0.022,0.122l0.023,0.12l0.025,0.119l0.025,0.116l0.027,0.114l0.028,0.113l0.028,0.11l0.03,0.108l0.03,0.105l0.032,0.103l0.032,0.101l0.033,0.098l0.034,0.096l0.034,0.094l0.035,0.09l0.036,0.087l0.036,0.086l0.036,0.081l0.038,0.079l0.037,0.076l0.037,0.071l0.038,0.071l0.038,0.066l0.038,0.062l0.037,0.06l0.038,0.056l0.037,0.052l0.037,0.05l0.035,0.045l0.035,0.041l0.035,0.04l0.031,0.033l0.032,0.031l0.031,0.028l0.03,0.026l0.01,0.007l0.013,0.01l0.014,0.01l0.012,0.009l0.009,0.006l0.011,0.007l0.01,0.006l0.01,0.006l0.016,0.008l0.016,0.008l0.011,0.004l0.013,0.004l0.013,0.003l0.01,0.001l0.002,0l0.001,0l0.002,0l0.003,-0.001l0.002,0l0.003,0l0.002,-0.001l0.003,-0.001l0.004,-0.001l0.003,0l0.005,-0.002l0.006,-0.002l0.006,-0.002l0.006,-0.003l0.007,-0.003l0.007,-0.003l0.008,-0.005l0.009,-0.004l0.008,-0.005l0.011,-0.006l0.011,-0.007l0.011,-0.007l0.011,-0.008l0.013,-0.01l0.011,-0.008l0.01,-0.008l0.033,-0.028l0.029,-0.026l0.031,-0.03l0.032,-0.034l0.034,-0.038l0.035,-0.042l0.036,-0.045l0.036,-0.048l0.036,-0.051l0.038,-0.057l0.038,-0.059l0.037,-0.062l0.038,-0.066l0.037,-0.067l0.038,-0.073l0.038,-0.076l0.036,-0.077l0.036,-0.082l0.037,-0.085l0.036,-0.086l0.034,-0.089l0.035,-0.093l0.034,-0.095l0.032,-0.097l0.033,-0.101l0.031,-0.102l0.031,-0.105l0.029,-0.107l0.029,-0.109l0.028,-0.112l0.026,-0.113l0.026,-0.115l0.024,-0.118l0.024,-0.12l0.022,-0.121l0.022,-0.123l0.02,-0.125l0.019,-0.127l0.017,-0.128l0.017,-0.129l0.015,-0.132l0.014,-0.133l0.012,-0.133l0.011,-0.136l0.01,-0.138l0.009,-0.137l0.007,-0.139l0.005,-0.141l0.004,-0.141l0.003,-0.142l0.001,-0.148l0,-0.036l0,-3.982l0,-0.013l0,-0.001l-0.013,0l-2.975,0Z" style="fill:#333;"/></svg>