<?xml version="1.0" encoding="UTF-8" standalone="no"?><!DOCTYPE svg PUBLIC "-//W3C//DTD SVG 1.1//EN" "http://www.w3.org/Graphics/SVG/1.1/DTD/svg11.dtd"><svg width="100%" height="100%" viewBox="0 0 24 24" version="1.1" xmlns="http://www.w3.org/2000/svg" xmlns:xlink="http://www.w3.org/1999/xlink" xml:space="preserve" xmlns:serif="http://www.serif.com/" style="fill-rule:evenodd;clip-rule:evenodd;stroke-linecap:round;stroke-linejoin:round;stroke-miterlimit:1.5;"><rect id="object.real.folder" x="0.003" y="0" width="24" height="24" style="fill:none;"/><path d="M14.141,4.276c-0.085,-0.169 -0.258,-0.276 -0.447,-0.276c-1.292,0 -6.191,0 -6.191,0l0,3l8,0c0,0 -0.991,-1.981 -1.362,-2.724Z" style="fill:#333;"/><path d="M2.003,19c0,0 0,-12.541 0,-14c0,-0.265 0.105,-0.519 0.293,-0.707c0.187,-0.187 0.442,-0.293 0.707,-0.293c1.39,0 3.832,0 4.691,0c0.189,0 0.362,0.107 0.447,0.277c0.275,0.548 0.862,1.723 0.862,1.723l12,0c0.552,0 1,0.448 1,1l0,12c0,0.552 -0.448,1 -1,1l-18,0c-0.552,0 -1,-0.448 -1,-1Z" style="fill:url(#_Linear1);"/><path d="M4.503,17.5l6,0" style="fill:none;stroke:#333;stroke-width:1px;"/><defs><linearGradient id="_Linear1" x1="0" y1="0" x2="1" y2="0" gradientUnits="userSpaceOnUse" gradientTransform="matrix(-20,20,-20,-20,22.0029,2)"><stop offset="0" style="stop-color:#fff;stop-opacity:1"/><stop offset="1" style="stop-color:#666;stop-opacity:1"/></linearGradient></defs></svg>