<?xml version="1.0" encoding="UTF-8" standalone="no"?><!DOCTYPE svg PUBLIC "-//W3C//DTD SVG 1.1//EN" "http://www.w3.org/Graphics/SVG/1.1/DTD/svg11.dtd"><svg width="100%" height="100%" viewBox="0 0 24 24" version="1.1" xmlns="http://www.w3.org/2000/svg" xmlns:xlink="http://www.w3.org/1999/xlink" xml:space="preserve" xmlns:serif="http://www.serif.com/" style="fill-rule:evenodd;clip-rule:evenodd;stroke-linejoin:round;stroke-miterlimit:1.41421;"><rect id="object.regular.creditCardFront" x="0.003" y="0" width="24" height="24" style="fill:none;"/><path d="M20.997,5c0.552,0 1,0.448 1,1c0,2.577 0,9.423 0,12c0,0.552 -0.448,1 -1,1c-3.414,0 -14.586,0 -18,0c-0.552,0 -1,-0.448 -1,-1c0,-2.577 0,-9.423 0,-12c0,-0.552 0.448,-1 1,-1c3.414,0 14.586,0 18,0Zm-1,2l-16,0l0,10l16,0l0,-10Zm-2,7c0.552,0 1,0.448 1,1c0,0.552 -0.448,1 -1,1l-2,0c-0.552,0 -1,-0.448 -1,-1c0,-0.552 0.448,-1 1,-1l2,0Zm-7.5,1c0.276,0 0.5,0.224 0.5,0.5c0,0.276 -0.224,0.5 -0.5,0.5l-5,0c-0.276,0 -0.5,-0.224 -0.5,-0.5c0,-0.276 0.224,-0.5 0.5,-0.5l5,0Zm7.5,-4c0.552,0 1,0.448 1,1c0,0.552 -0.448,1 -1,1l-12,0c-0.552,0 -1,-0.448 -1,-1c0,-0.552 0.448,-1 1,-1l12,0Z" style="fill:#333;"/></svg>