<?xml version="1.0" encoding="UTF-8" standalone="no"?><!DOCTYPE svg PUBLIC "-//W3C//DTD SVG 1.1//EN" "http://www.w3.org/Graphics/SVG/1.1/DTD/svg11.dtd"><svg width="100%" height="100%" viewBox="0 0 24 24" version="1.1" xmlns="http://www.w3.org/2000/svg" xmlns:xlink="http://www.w3.org/1999/xlink" xml:space="preserve" xmlns:serif="http://www.serif.com/" style="fill-rule:evenodd;clip-rule:evenodd;stroke-linejoin:round;stroke-miterlimit:1.41421;"><rect id="object.filled.QRCode" x="0" y="0" width="24" height="24" style="fill:none;"/><path d="M21.083,2.003l0.082,0.011l0.081,0.017l0.079,0.023l0.077,0.03l0.074,0.037l0.071,0.042l0.067,0.048l0.063,0.053l0.059,0.059l0.053,0.063l0.048,0.067l0.042,0.071l0.037,0.074l0.03,0.077l0.023,0.08l0.017,0.08l0.011,0.082l0.003,0.083l0,18l-0.003,0.083l-0.011,0.082l-0.017,0.081l-0.023,0.079l-0.03,0.077l-0.037,0.074l-0.042,0.071l-0.048,0.067l-0.053,0.063l-0.059,0.059l-0.063,0.053l-0.067,0.048l-0.071,0.043l-0.074,0.036l-0.077,0.03l-0.079,0.023l-0.081,0.017l-0.082,0.011l-0.083,0.003l-18,0l-0.083,-0.003l-0.082,-0.011l-0.08,-0.017l-0.08,-0.023l-0.077,-0.03l-0.074,-0.036l-0.071,-0.043l-0.067,-0.048l-0.063,-0.053l-0.059,-0.059l-0.053,-0.063l-0.048,-0.067l-0.042,-0.071l-0.037,-0.074l-0.03,-0.077l-0.023,-0.079l-0.017,-0.081l-0.011,-0.082l-0.003,-0.083l0,-18l0.003,-0.083l0.011,-0.082l0.017,-0.08l0.023,-0.08l0.03,-0.077l0.037,-0.074l0.042,-0.071l0.048,-0.067l0.053,-0.063l0.059,-0.059l0.063,-0.053l0.067,-0.048l0.071,-0.042l0.074,-0.037l0.077,-0.03l0.08,-0.023l0.08,-0.017l0.082,-0.011l0.083,-0.003l18,0l0.083,0.003Zm-18.083,0.997l0,18l18,0l0,-18l-18,0Z" style="fill:#333;"/><path d="M7.039,2.001l0.039,0.002l0.04,0.004l0.038,0.005l0.039,0.007l0.038,0.009l0.038,0.01l0.038,0.011l0.037,0.013l0.037,0.014l0.036,0.016l0.035,0.017l0.035,0.019l0.033,0.019l0.034,0.022l0.032,0.022l0.031,0.024l0.03,0.025l0.03,0.026l0.028,0.027l0.027,0.028l0.026,0.03l0.025,0.03l0.024,0.031l0.022,0.032l0.022,0.034l0.019,0.033l0.019,0.035l0.017,0.035l0.016,0.036l0.014,0.037l0.013,0.037l0.011,0.038l0.01,0.038l0.009,0.038l0.007,0.039l0.005,0.038l0.004,0.04l0.002,0.039l0.001,0.039l0,4l-0.001,0.039l-0.002,0.039l-0.004,0.04l-0.005,0.038l-0.007,0.039l-0.009,0.038l-0.01,0.038l-0.011,0.038l-0.013,0.037l-0.014,0.037l-0.016,0.036l-0.017,0.035l-0.019,0.035l-0.019,0.033l-0.022,0.034l-0.022,0.032l-0.024,0.031l-0.025,0.03l-0.026,0.03l-0.027,0.028l-0.028,0.027l-0.03,0.026l-0.03,0.025l-0.031,0.024l-0.032,0.022l-0.034,0.022l-0.033,0.019l-0.035,0.019l-0.035,0.017l-0.036,0.016l-0.037,0.014l-0.037,0.013l-0.038,0.011l-0.038,0.01l-0.038,0.009l-0.039,0.007l-0.038,0.005l-0.04,0.004l-0.039,0.002l-0.039,0.001l-4,0l-0.039,-0.001l-0.039,-0.002l-0.04,-0.004l-0.038,-0.005l-0.039,-0.007l-0.038,-0.009l-0.038,-0.01l-0.038,-0.011l-0.037,-0.013l-0.037,-0.014l-0.036,-0.016l-0.035,-0.017l-0.035,-0.019l-0.033,-0.019l-0.034,-0.022l-0.032,-0.022l-0.031,-0.024l-0.03,-0.025l-0.03,-0.026l-0.028,-0.027l-0.027,-0.028l-0.026,-0.03l-0.025,-0.03l-0.024,-0.031l-0.022,-0.032l-0.022,-0.034l-0.019,-0.033l-0.019,-0.035l-0.017,-0.035l-0.016,-0.036l-0.014,-0.037l-0.013,-0.037l-0.011,-0.038l-0.01,-0.038l-0.009,-0.038l-0.007,-0.039l-0.005,-0.038l-0.004,-0.04l-0.002,-0.039l-0.001,-0.039l0,-4l0.001,-0.039l0.002,-0.039l0.004,-0.04l0.005,-0.038l0.007,-0.039l0.009,-0.038l0.01,-0.038l0.011,-0.038l0.013,-0.037l0.014,-0.037l0.016,-0.036l0.017,-0.035l0.019,-0.035l0.019,-0.033l0.022,-0.034l0.022,-0.032l0.024,-0.031l0.025,-0.03l0.026,-0.03l0.027,-0.028l0.028,-0.027l0.03,-0.026l0.03,-0.025l0.031,-0.024l0.032,-0.022l0.034,-0.022l0.033,-0.019l0.035,-0.019l0.035,-0.017l0.036,-0.016l0.037,-0.014l0.037,-0.013l0.038,-0.011l0.038,-0.01l0.038,-0.009l0.039,-0.007l0.038,-0.005l0.04,-0.004l0.039,-0.002l0.039,-0.001l4,0l0.039,0.001Zm-4.039,0.999l0,4l4,0l0,-4l-4,0Z" style="fill:#333;"/><path d="M21.039,2.001l0.039,0.002l0.04,0.004l0.038,0.005l0.039,0.007l0.038,0.009l0.038,0.01l0.038,0.011l0.037,0.013l0.037,0.014l0.036,0.016l0.035,0.017l0.035,0.019l0.033,0.019l0.034,0.022l0.032,0.022l0.031,0.024l0.03,0.025l0.03,0.026l0.028,0.027l0.027,0.028l0.026,0.03l0.025,0.03l0.024,0.031l0.022,0.032l0.022,0.034l0.019,0.033l0.019,0.035l0.017,0.035l0.016,0.036l0.014,0.037l0.013,0.037l0.011,0.038l0.01,0.038l0.009,0.038l0.007,0.039l0.005,0.038l0.004,0.04l0.002,0.039l0.001,0.039l0,4l-0.001,0.039l-0.002,0.039l-0.004,0.04l-0.005,0.038l-0.007,0.039l-0.009,0.038l-0.01,0.038l-0.011,0.038l-0.013,0.037l-0.014,0.037l-0.016,0.036l-0.017,0.035l-0.019,0.035l-0.019,0.033l-0.022,0.034l-0.022,0.032l-0.024,0.031l-0.025,0.03l-0.026,0.03l-0.027,0.028l-0.028,0.027l-0.03,0.026l-0.03,0.025l-0.031,0.024l-0.032,0.022l-0.034,0.022l-0.033,0.019l-0.035,0.019l-0.035,0.017l-0.036,0.016l-0.037,0.014l-0.037,0.013l-0.038,0.011l-0.038,0.01l-0.038,0.009l-0.039,0.007l-0.038,0.005l-0.04,0.004l-0.039,0.002l-0.039,0.001l-4,0l-0.039,-0.001l-0.039,-0.002l-0.04,-0.004l-0.038,-0.005l-0.039,-0.007l-0.038,-0.009l-0.038,-0.01l-0.038,-0.011l-0.037,-0.013l-0.037,-0.014l-0.036,-0.016l-0.035,-0.017l-0.035,-0.019l-0.033,-0.019l-0.034,-0.022l-0.032,-0.022l-0.031,-0.024l-0.03,-0.025l-0.03,-0.026l-0.028,-0.027l-0.027,-0.028l-0.026,-0.03l-0.025,-0.03l-0.024,-0.031l-0.022,-0.032l-0.022,-0.034l-0.019,-0.033l-0.019,-0.035l-0.017,-0.035l-0.016,-0.036l-0.014,-0.037l-0.013,-0.037l-0.011,-0.038l-0.01,-0.038l-0.009,-0.038l-0.007,-0.039l-0.005,-0.038l-0.004,-0.04l-0.002,-0.039l-0.001,-0.039l0,-4l0.001,-0.039l0.002,-0.039l0.004,-0.04l0.005,-0.038l0.007,-0.039l0.009,-0.038l0.01,-0.038l0.011,-0.038l0.013,-0.037l0.014,-0.037l0.016,-0.036l0.017,-0.035l0.019,-0.035l0.019,-0.033l0.022,-0.034l0.022,-0.032l0.024,-0.031l0.025,-0.03l0.026,-0.03l0.027,-0.028l0.028,-0.027l0.03,-0.026l0.03,-0.025l0.031,-0.024l0.032,-0.022l0.034,-0.022l0.033,-0.019l0.035,-0.019l0.035,-0.017l0.036,-0.016l0.037,-0.014l0.037,-0.013l0.038,-0.011l0.038,-0.01l0.038,-0.009l0.039,-0.007l0.038,-0.005l0.04,-0.004l0.039,-0.002l0.039,-0.001l4,0l0.039,0.001Zm-4.039,0.999l0,4l4,0l0,-4l-4,0Z" style="fill:#333;"/><path d="M7.039,16.001l0.039,0.002l0.04,0.004l0.038,0.005l0.039,0.007l0.038,0.009l0.038,0.01l0.038,0.011l0.037,0.013l0.037,0.014l0.036,0.016l0.035,0.017l0.035,0.019l0.033,0.019l0.034,0.022l0.032,0.022l0.031,0.024l0.03,0.025l0.03,0.026l0.028,0.027l0.027,0.028l0.026,0.03l0.025,0.03l0.024,0.031l0.022,0.032l0.022,0.034l0.019,0.033l0.019,0.035l0.017,0.035l0.016,0.036l0.014,0.037l0.013,0.037l0.011,0.038l0.01,0.038l0.009,0.038l0.007,0.039l0.005,0.038l0.004,0.04l0.002,0.039l0.001,0.039l0,4l-0.001,0.039l-0.002,0.039l-0.004,0.04l-0.005,0.038l-0.007,0.039l-0.009,0.038l-0.01,0.038l-0.011,0.038l-0.013,0.037l-0.014,0.037l-0.016,0.036l-0.017,0.035l-0.019,0.035l-0.019,0.033l-0.022,0.034l-0.022,0.032l-0.024,0.031l-0.025,0.03l-0.026,0.03l-0.027,0.028l-0.028,0.027l-0.03,0.026l-0.03,0.025l-0.031,0.024l-0.032,0.022l-0.034,0.022l-0.033,0.019l-0.035,0.019l-0.035,0.017l-0.036,0.016l-0.037,0.014l-0.037,0.013l-0.038,0.011l-0.038,0.01l-0.038,0.009l-0.039,0.007l-0.038,0.005l-0.04,0.004l-0.039,0.002l-0.039,0.001l-4,0l-0.039,-0.001l-0.039,-0.002l-0.04,-0.004l-0.038,-0.005l-0.039,-0.007l-0.038,-0.009l-0.038,-0.01l-0.038,-0.011l-0.037,-0.013l-0.037,-0.014l-0.036,-0.016l-0.035,-0.017l-0.035,-0.019l-0.033,-0.019l-0.034,-0.022l-0.032,-0.022l-0.031,-0.024l-0.03,-0.025l-0.03,-0.026l-0.028,-0.027l-0.027,-0.028l-0.026,-0.03l-0.025,-0.03l-0.024,-0.031l-0.022,-0.032l-0.022,-0.034l-0.019,-0.033l-0.019,-0.035l-0.017,-0.035l-0.016,-0.036l-0.014,-0.037l-0.013,-0.037l-0.011,-0.038l-0.01,-0.038l-0.009,-0.038l-0.007,-0.039l-0.005,-0.038l-0.004,-0.04l-0.002,-0.039l-0.001,-0.039l0,-4l0.001,-0.039l0.002,-0.039l0.004,-0.04l0.005,-0.038l0.007,-0.039l0.009,-0.038l0.01,-0.038l0.011,-0.038l0.013,-0.037l0.014,-0.037l0.016,-0.036l0.017,-0.035l0.019,-0.035l0.019,-0.033l0.022,-0.034l0.022,-0.032l0.024,-0.031l0.025,-0.03l0.026,-0.03l0.027,-0.028l0.028,-0.027l0.03,-0.026l0.03,-0.025l0.031,-0.024l0.032,-0.022l0.034,-0.022l0.033,-0.019l0.035,-0.019l0.035,-0.017l0.036,-0.016l0.037,-0.014l0.037,-0.013l0.038,-0.011l0.038,-0.01l0.038,-0.009l0.039,-0.007l0.038,-0.005l0.04,-0.004l0.039,-0.002l0.039,-0.001l4,0l0.039,0.001Zm-4.039,0.999l0,4l4,0l0,-4l-4,0Z" style="fill:#333;"/><g><circle cx="5" cy="5" r="1" style="fill:#333;"/><circle cx="19" cy="5" r="1" style="fill:#333;"/><circle cx="5" cy="19" r="1" style="fill:#333;"/><path d="M22,21c0,0.265 -0.105,0.52 -0.293,0.707c-0.187,0.188 -0.442,0.293 -0.707,0.293c-3.414,0 -14.586,0 -18,0c-0.265,0 -0.52,-0.105 -0.707,-0.293c-0.188,-0.187 -0.293,-0.442 -0.293,-0.707c0,-3.414 0,-14.586 0,-18c0,-0.265 0.105,-0.52 0.293,-0.707c0.187,-0.188 0.442,-0.293 0.707,-0.293c3.414,0 14.586,0 18,0c0.265,0 0.52,0.105 0.707,0.293c0.188,0.187 0.293,0.442 0.293,0.707c0,3.414 0,14.586 0,18Zm-2,-1.5c0,-0.133 -0.053,-0.26 -0.146,-0.354c-0.094,-0.093 -0.221,-0.146 -0.354,-0.146c-0.769,0 -2.234,0 -3.003,0c-0.276,0 -0.5,0.224 -0.5,0.5c0,0.133 0.053,0.26 0.147,0.354c0.093,0.093 0.22,0.146 0.353,0.146c0.853,0 2.5,0 2.5,0c0,0 0,0.25 0,0.5c0,0.276 0.224,0.5 0.5,0.5c0.001,0 0.002,0 0.003,0c0.133,0 0.26,-0.053 0.354,-0.146c0.093,-0.094 0.146,-0.221 0.146,-0.354c0,-0.305 0,-0.695 0,-1Zm-13.003,-2c0,-0.133 -0.053,-0.26 -0.146,-0.354c-0.094,-0.093 -0.221,-0.146 -0.354,-0.146c-0.768,0 -2.231,0 -3,0c-0.133,0 -0.26,0.053 -0.353,0.146c-0.094,0.094 -0.147,0.221 -0.147,0.354c0,0.769 0,2.231 0,3c0,0.133 0.053,0.26 0.147,0.354c0.093,0.093 0.22,0.146 0.353,0.146c0.769,0 2.232,0 3,0c0.133,0 0.26,-0.053 0.354,-0.146c0.093,-0.094 0.146,-0.221 0.146,-0.354c0,-0.769 0,-2.231 0,-3Zm8,2c0,-0.133 -0.053,-0.26 -0.146,-0.354c-0.094,-0.093 -0.221,-0.146 -0.354,-0.146c-0.276,0 -0.5,0.224 -0.5,0.5c0,0.25 0,0.5 0,0.5c0,0 -0.905,0 -1.497,0c-0.276,0 -0.5,0.224 -0.5,0.5c0,0.133 0.053,0.26 0.146,0.354c0.094,0.093 0.221,0.146 0.354,0.146c0.554,0 1.443,0 1.997,0c0.133,0 0.26,-0.053 0.354,-0.146c0.093,-0.094 0.146,-0.221 0.146,-0.354c0,-0.305 0,-0.695 0,-1Zm-4.998,-0.001c-0.001,-0.276 -0.225,-0.499 -0.5,-0.499c-0.001,0 -0.001,0 -0.002,0c-0.133,0 -0.26,0.053 -0.353,0.146c-0.094,0.094 -0.147,0.221 -0.147,0.354c0,0.276 0.224,0.5 0.5,0.5c0.001,0 0.001,0 0.002,0c0.132,0 0.26,-0.053 0.354,-0.147c0.093,-0.094 0.146,-0.222 0.146,-0.354c0,0 0,0 0,0Zm0.998,-3.999c0,-0.276 -0.224,-0.5 -0.5,-0.5c-0.276,0 -0.5,0.224 -0.5,0.5c0,0.25 0,0.5 0,0.5c0,0 -0.25,0 -0.5,0c-0.133,0 -0.26,0.053 -0.353,0.146c-0.094,0.094 -0.147,0.221 -0.147,0.354c0,0.305 0,0.695 0,1c0,0.133 0.053,0.26 0.147,0.354c0.093,0.093 0.22,0.146 0.353,0.146c0.592,0 1.5,0 1.5,0c0,0 0,0.25 0,0.5c0,0.133 0.053,0.26 0.147,0.354c0.093,0.093 0.22,0.146 0.353,0.146c0.305,0 0.695,0 1,0c0.133,0 0.26,-0.053 0.354,-0.146c0.093,-0.094 0.146,-0.221 0.146,-0.354c0,-0.276 -0.224,-0.5 -0.5,-0.5c-0.25,0 -0.5,0 -0.5,0c0,0 0,-0.908 0,-1.5c0,-0.133 -0.053,-0.26 -0.146,-0.354c-0.094,-0.093 -0.221,-0.146 -0.354,-0.146c-0.25,0 -0.5,0 -0.5,0c0,0 0,-0.25 0,-0.5Zm10,2c0,-0.276 -0.224,-0.5 -0.5,-0.5c-0.276,0 -0.5,0.224 -0.5,0.5c0,0.276 0.224,0.5 0.5,0.5c0.276,0 0.5,-0.224 0.5,-0.5c0,0 0,0 0,0Zm-3,-1.5l0,-1c0,0 0.25,0 0.5,0c0.133,0 0.26,-0.053 0.354,-0.146c0.093,-0.094 0.146,-0.221 0.146,-0.354c0,-0.305 0,-0.695 0,-1c0,-0.133 -0.053,-0.26 -0.146,-0.354c-0.094,-0.093 -0.221,-0.146 -0.354,-0.146c-0.555,0 -1.445,0 -2,0c-0.133,0 -0.26,0.053 -0.353,0.146c-0.094,0.094 -0.147,0.221 -0.147,0.354c0,0.276 0.224,0.5 0.5,0.5c0.25,0 0.5,0 0.5,0c0,0 0,0.908 0,1.5c0,0.133 0.053,0.26 0.147,0.354c0.093,0.093 0.22,0.146 0.353,0.146c0.276,0 0.5,-0.224 0.5,-0.5c0,-0.25 0,-0.5 0,-0.5c0,0 0,1.648 0,2.501c0,0.276 0.223,0.499 0.499,0.499c0,0 0,0 0.001,0c0.275,0 0.499,-0.223 0.499,-0.499c0,-0.25 0,-0.501 0,-0.501c0,0 0.25,0 0.501,0c0.133,0 0.26,-0.053 0.354,-0.146c0.093,-0.094 0.146,-0.221 0.146,-0.354c0,-0.305 0,-0.695 0,-1c0,-0.133 -0.053,-0.26 -0.146,-0.354c-0.094,-0.093 -0.221,-0.146 -0.354,-0.146c-0.276,0 -0.5,0.224 -0.5,0.5c0,0.25 0,0.5 0,0.5c0,0 -0.25,0 -0.5,0c-0.133,0 -0.26,0.053 -0.353,0.146c-0.094,0.094 -0.147,0.221 -0.147,0.354c0,0.25 0,0.5 0,0.5m-2,-1.5c0,-0.133 -0.053,-0.26 -0.146,-0.354c-0.094,-0.093 -0.221,-0.146 -0.354,-0.146c-0.305,0 -0.695,0 -1,0c-0.133,0 -0.26,0.053 -0.353,0.146c-0.094,0.094 -0.147,0.221 -0.147,0.354c0,0.25 0,0.5 0,0.5c0,0 -0.25,0 -0.5,0c-0.276,0 -0.5,0.224 -0.5,0.5c0,0.133 0.053,0.26 0.147,0.354c0.093,0.093 0.22,0.146 0.353,0.146c0.305,0 0.695,0 1,0c0.133,0 0.26,-0.053 0.354,-0.146c0.093,-0.094 0.146,-0.221 0.146,-0.354c0,-0.25 0,-0.5 0,-0.5c0,0 0.25,0 0.5,0c0.276,0 0.5,-0.224 0.5,-0.5c0,0 0,0 0,0Zm-9,-0.001c0,-0.276 -0.223,-0.499 -0.499,-0.499c0,0 0,0 0,0c-0.275,0 -0.499,0.223 -0.499,0.498c0,0 0,0.001 0,0.002c-0.001,0.132 0.052,0.259 0.145,0.353c0.094,0.094 0.221,0.147 0.354,0.147c0,0 0,0 0,0c0.276,0 0.499,-0.223 0.499,-0.499c0,-0.001 0,-0.001 0,-0.002Zm-3,-1.499c0,0 0,0.25 0,0.5c0,0.276 0.224,0.5 0.5,0.5c0.306,0 0.697,0 1.003,0c0.133,0 0.26,-0.053 0.354,-0.146c0.093,-0.094 0.146,-0.221 0.146,-0.354c0,-0.592 0,-1.5 0,-1.5l-0.003,0c0,0 0.25,0 0.5,0c0.133,0 0.26,-0.053 0.354,-0.146c0.093,-0.094 0.146,-0.221 0.146,-0.354c0,-0.276 -0.224,-0.5 -0.5,-0.5c-0.25,0 -0.5,0 -0.5,0c0,0 0,-0.251 0,-0.502c0,-0.275 -0.223,-0.498 -0.498,-0.498c-0.001,0 -0.001,0 -0.002,0c-0.274,0 -0.497,0.223 -0.498,0.497c-0.001,0.593 -0.002,1.503 -0.002,1.503l-0.997,0c0,0 0,-0.908 0,-1.5c0,-0.133 -0.053,-0.26 -0.146,-0.354c-0.094,-0.093 -0.221,-0.146 -0.354,-0.146c-0.133,0 -0.26,0.053 -0.354,0.146c-0.093,0.094 -0.146,0.221 -0.146,0.354c0,0.555 0,1.445 0,2c0,0.133 0.053,0.26 0.146,0.354c0.094,0.093 0.221,0.146 0.354,0.146c0.249,0 0.497,0 0.497,0Zm3.997,0.498c0,-0.275 -0.223,-0.498 -0.498,-0.498c0,0 -0.001,0 -0.001,0c-0.275,0 -0.498,0.223 -0.498,0.498c0,0.001 0,0.003 0,0.004c0,0.275 0.223,0.498 0.498,0.498c0,0 0.001,0 0.001,0c0.275,0 0.498,-0.223 0.498,-0.498c0,-0.001 0,-0.003 0,-0.004Zm6.006,-3.498c0,-0.552 -0.448,-1 -1,-1c-0.611,0 -1.389,0 -2,0c-0.552,0 -1,0.448 -1,1c0,0.611 0,1.389 0,2c0,0.552 0.448,1 1,1c0.611,0 1.389,0 2,0c0.552,0 1,-0.448 1,-1c0,-0.611 0,-1.389 0,-2Zm-5.003,0.5c0,-0.133 -0.053,-0.26 -0.146,-0.354c-0.094,-0.093 -0.221,-0.146 -0.354,-0.146c-0.133,0 -0.26,0.053 -0.353,0.146c-0.094,0.094 -0.147,0.221 -0.147,0.354c0,0.555 0,1.445 0,2c0,0.133 0.053,0.26 0.147,0.354c0.093,0.093 0.22,0.146 0.353,0.146c0.133,0 0.26,-0.053 0.354,-0.146c0.093,-0.094 0.146,-0.221 0.146,-0.354c0,-0.555 0,-1.445 0,-2Zm12,-1c0,-0.133 -0.053,-0.26 -0.146,-0.354c-0.094,-0.093 -0.221,-0.146 -0.354,-0.146c-0.133,0 -0.26,0.053 -0.353,0.146c-0.094,0.094 -0.147,0.221 -0.147,0.354c0,0.555 0,1.445 0,2c0,0.133 0.053,0.26 0.147,0.354c0.093,0.093 0.22,0.146 0.353,0.146c0.133,0 0.26,-0.053 0.354,-0.146c0.093,-0.094 0.146,-0.221 0.146,-0.354c0,-0.555 0,-1.445 0,-2Zm-7.997,2c0,0.133 -0.053,0.26 -0.146,0.354c-0.094,0.093 -0.221,0.146 -0.354,0.146c-0.305,0 -0.695,0 -1,0c-0.133,0 -0.26,-0.053 -0.354,-0.146c-0.093,-0.094 -0.146,-0.221 -0.146,-0.354c0,-0.305 0,-0.695 0,-1c0,-0.133 0.053,-0.26 0.146,-0.354c0.094,-0.093 0.221,-0.146 0.354,-0.146c0.305,0 0.695,0 1,0c0.133,0 0.26,0.053 0.354,0.146c0.093,0.094 0.146,0.221 0.146,0.354c0,0.305 0,0.695 0,1Zm5.496,-1c0,-0.276 -0.224,-0.5 -0.5,-0.5c-0.436,0 -1.066,0 -1.502,0c-0.276,0 -0.5,0.224 -0.5,0.5c0,0.276 0.224,0.5 0.5,0.5c0.436,0 1.066,0 1.502,0c0.276,0 0.5,-0.224 0.5,-0.5c0,0 0,0 0,0Zm-2.502,-1.001c0,-0.276 -0.223,-0.499 -0.499,-0.499c0,0 0,0 0,0c-0.276,0 -0.499,0.223 -0.499,0.499c0,0.001 0,0.001 0,0.002c0,0.276 0.223,0.499 0.499,0.499c0,0 0,0 0,0c0.276,0 0.499,-0.223 0.499,-0.499c0,-0.001 0,-0.001 0,-0.002Zm-10.997,-1.499c0,0 -0.25,0 -0.5,0c-0.276,0 -0.5,0.224 -0.5,0.5c0,0.133 0.053,0.26 0.147,0.354c0.093,0.093 0.22,0.146 0.353,0.146c0.592,0 1.5,0 1.5,0c0,0 0.001,0.251 0.002,0.501c0,0.276 0.224,0.499 0.5,0.499c0.304,0 0.693,0 0.998,0c0.276,0 0.5,-0.224 0.5,-0.5c0,-0.25 0,-0.5 0,-0.5c0,0 0.25,0 0.5,0c0.276,0 0.5,-0.224 0.5,-0.5c0,-0.133 -0.053,-0.26 -0.146,-0.354c-0.094,-0.093 -0.221,-0.146 -0.354,-0.146c-0.853,0 -2.497,0 -2.497,0c0,0 0,-0.258 0,-0.512c0,-0.272 -0.216,-0.493 -0.487,-0.5c-0.001,0 -0.001,0 -0.002,0c-0.134,-0.004 -0.265,0.047 -0.361,0.141c-0.096,0.094 -0.151,0.223 -0.151,0.357c-0.001,0.257 -0.002,0.514 -0.002,0.514Zm13.997,0c0,0 0.91,0 1.503,0c0.276,0 0.5,-0.224 0.5,-0.5c0,-0.133 -0.053,-0.26 -0.146,-0.354c-0.094,-0.093 -0.221,-0.146 -0.354,-0.146c-0.555,0 -1.445,0 -2,0c-0.133,0 -0.26,0.053 -0.353,0.146c-0.094,0.094 -0.147,0.221 -0.147,0.354c0,0.25 0,0.5 0,0.5c0,0 -0.25,0 -0.5,0c-0.276,0 -0.5,0.224 -0.5,0.5c0,0.276 0.224,0.5 0.5,0.5c0.305,0 0.693,0 0.997,0c0.276,0 0.5,-0.224 0.5,-0.5c0,-0.25 0,-0.5 0,-0.5Zm-8.997,-0.5c0,-0.276 -0.224,-0.5 -0.5,-0.5c-0.276,0 -0.5,0.224 -0.5,0.5c0,0.276 0.224,0.5 0.5,0.5c0.276,0 0.5,-0.224 0.5,-0.5c0,0 0,0 0,0Zm5,-5c0,-0.276 -0.224,-0.5 -0.5,-0.5c-0.276,0 -0.5,0.224 -0.5,0.5l0,1.5c0,0 -0.905,0 -1.497,0c-0.276,0 -0.5,0.224 -0.5,0.5c0,0.276 0.224,0.5 0.5,0.5c0.249,0 0.499,0 0.499,0c0,0 0,0.908 0,1.5c0,0.133 0.052,0.26 0.146,0.354c0.094,0.093 0.221,0.146 0.354,0.146c0.249,0 0.498,0 0.498,0c0,0 0,0.25 0,0.5c0,0.276 0.224,0.5 0.5,0.5c0.133,0 0.26,-0.053 0.354,-0.146c0.093,-0.094 0.146,-0.221 0.146,-0.354c0,-0.853 0,-2.5 0,-2.5c0,0 0.251,0 0.502,0c0.275,0 0.499,-0.223 0.5,-0.499c0,-0.132 -0.053,-0.26 -0.146,-0.354c-0.094,-0.094 -0.222,-0.147 -0.354,-0.147c-0.252,0 -0.503,0 -0.503,0c0,0 0.001,-0.978 0.001,-1l0,-0.5Zm-2.998,0c0,-0.133 -0.053,-0.26 -0.147,-0.354c-0.094,-0.093 -0.221,-0.146 -0.353,-0.146c-0.306,0 -0.696,0 -1.002,0c-0.276,0 -0.5,0.224 -0.5,0.5c0,0.25 0,0.5 0,0.5c0,0 -0.25,0 -0.5,0c-0.133,0 -0.26,0.053 -0.353,0.146c-0.094,0.094 -0.147,0.221 -0.147,0.354c0,0.276 0.224,0.5 0.5,0.5c0.25,0 0.5,0 0.5,0c0,0 0,1.643 0,2.487c0,0.272 0.216,0.493 0.488,0.5c0.134,0.004 0.265,-0.048 0.361,-0.142c0.097,-0.094 0.151,-0.223 0.151,-0.358c0,-0.245 0,-0.487 0,-0.487c0,0 0.25,0 0.5,0c0.276,0 0.5,-0.224 0.5,-0.5c0,-0.276 -0.224,-0.5 -0.5,-0.5c-0.25,0 -0.5,0 -0.5,0l0,-1c0,0 0.251,0 0.502,0c0.132,0 0.259,-0.053 0.353,-0.146c0.094,-0.094 0.147,-0.221 0.147,-0.354c0,-0.305 0,-0.695 0,-1Zm-5.003,0c0,-0.133 -0.053,-0.26 -0.147,-0.354c-0.094,-0.093 -0.221,-0.146 -0.353,-0.146c-0.768,0 -2.23,0 -2.997,0c-0.133,0 -0.26,0.053 -0.354,0.146c-0.094,0.094 -0.146,0.221 -0.146,0.354c0,0.769 0,2.231 0,3c0,0.133 0.052,0.26 0.146,0.354c0.094,0.093 0.221,0.146 0.354,0.146c0.767,0 2.229,0 2.997,0c0.132,0 0.259,-0.053 0.353,-0.146c0.094,-0.094 0.147,-0.221 0.147,-0.354c0,-0.769 0,-2.231 0,-3Zm14.001,0c0,-0.133 -0.053,-0.26 -0.146,-0.354c-0.094,-0.093 -0.221,-0.146 -0.354,-0.146c-0.768,0 -2.231,0 -3,0c-0.133,0 -0.26,0.053 -0.353,0.146c-0.094,0.094 -0.147,0.221 -0.147,0.354c0,0.769 0,2.231 0,3c0,0.133 0.053,0.26 0.147,0.354c0.093,0.093 0.22,0.146 0.353,0.146c0.769,0 2.232,0 3,0c0.133,0 0.26,-0.053 0.354,-0.146c0.093,-0.094 0.146,-0.221 0.146,-0.354c0,-0.769 0,-2.231 0,-3Z" style="fill:#333;"/></g></svg>