<?xml version="1.0" encoding="UTF-8" standalone="no"?><!DOCTYPE svg PUBLIC "-//W3C//DTD SVG 1.1//EN" "http://www.w3.org/Graphics/SVG/1.1/DTD/svg11.dtd"><svg width="100%" height="100%" viewBox="0 0 24 24" version="1.1" xmlns="http://www.w3.org/2000/svg" xmlns:xlink="http://www.w3.org/1999/xlink" xml:space="preserve" xmlns:serif="http://www.serif.com/" style="fill-rule:evenodd;clip-rule:evenodd;stroke-linejoin:round;stroke-miterlimit:1.41421;"><rect id="object.filled.shoppingCart" x="0.003" y="0" width="24" height="24" style="fill:none;"/><circle cx="15.001" cy="20" r="2" style="fill:#333;"/><circle cx="9.001" cy="20" r="2" style="fill:#333;"/><path d="M5,6c0.552,0 1,0.448 1,1c0,0.873 0,2 0,2l-1,0l0,-2c0,0 -1.647,0 -2.5,0c-0.276,0 -0.5,-0.224 -0.5,-0.5c0,-0.133 0.053,-0.26 0.146,-0.354c0.094,-0.093 0.221,-0.146 0.354,-0.146c0.623,0 1.704,0 2.5,0Z" style="fill:#333;"/><path d="M18.919,16.394c-0.157,0.368 -0.519,0.606 -0.919,0.606c-2.208,0 -9.352,0 -12,0c-0.265,0 -0.52,-0.105 -0.707,-0.293c-0.188,-0.187 -0.293,-0.442 -0.293,-0.707c0,-2.345 0,-8 0,-8c0,0 11.744,0 16,0c0.336,0 0.65,0.169 0.835,0.449c0.185,0.281 0.217,0.636 0.084,0.945c-0.854,1.994 -2.39,5.577 -3,7Z" style="fill:#333;fill-rule:nonzero;"/></svg>