<?xml version="1.0" encoding="UTF-8" standalone="no"?><!DOCTYPE svg PUBLIC "-//W3C//DTD SVG 1.1//EN" "http://www.w3.org/Graphics/SVG/1.1/DTD/svg11.dtd"><svg width="100%" height="100%" viewBox="0 0 24 24" version="1.1" xmlns="http://www.w3.org/2000/svg" xmlns:xlink="http://www.w3.org/1999/xlink" xml:space="preserve" xmlns:serif="http://www.serif.com/" style="fill-rule:evenodd;clip-rule:evenodd;stroke-linejoin:round;stroke-miterlimit:1.41421;"><rect id="object.real.emptyDocument" x="0.003" y="0" width="24" height="24" style="fill:none;"/><path d="M20.003,6.5c0,0 0,11.071 0,14.5c0,0.265 -0.105,0.52 -0.293,0.707c-0.188,0.188 -0.442,0.293 -0.707,0.293c-2.727,0 -10.273,0 -13,0c-0.265,0 -0.52,-0.105 -0.707,-0.293c-0.188,-0.187 -0.293,-0.442 -0.293,-0.707c0,-3.414 0,-14.586 0,-18c0,-0.265 0.105,-0.52 0.293,-0.707c0.187,-0.188 0.442,-0.293 0.707,-0.293c2.623,0 9.5,0 9.5,0l4.5,4.5Z" style="fill:url(#_Linear1);"/><clipPath id="_clip2"><path d="M20.003,6.5c0,0 0,11.071 0,14.5c0,0.265 -0.105,0.52 -0.293,0.707c-0.188,0.188 -0.442,0.293 -0.707,0.293c-2.727,0 -10.273,0 -13,0c-0.265,0 -0.52,-0.105 -0.707,-0.293c-0.188,-0.187 -0.293,-0.442 -0.293,-0.707c0,-3.414 0,-14.586 0,-18c0,-0.265 0.105,-0.52 0.293,-0.707c0.187,-0.188 0.442,-0.293 0.707,-0.293c2.623,0 9.5,0 9.5,0l4.5,4.5Z"/></clipPath><g clip-path="url(#_clip2)"><path d="M15.503,2l4.5,4.5l-3.5,0c-0.552,0 -1,-0.448 -1,-1l0,-3.5Z" style="fill:#333;"/></g><defs><linearGradient id="_Linear1" x1="0" y1="0" x2="1" y2="0" gradientUnits="userSpaceOnUse" gradientTransform="matrix(-20,20,-20,-20,22.0029,2)"><stop offset="0" style="stop-color:#fff;stop-opacity:1"/><stop offset="1" style="stop-color:#666;stop-opacity:1"/></linearGradient></defs></svg>