<?xml version="1.0" encoding="UTF-8" standalone="no"?><!DOCTYPE svg PUBLIC "-//W3C//DTD SVG 1.1//EN" "http://www.w3.org/Graphics/SVG/1.1/DTD/svg11.dtd"><svg width="100%" height="100%" viewBox="0 0 24 24" version="1.1" xmlns="http://www.w3.org/2000/svg" xmlns:xlink="http://www.w3.org/1999/xlink" xml:space="preserve" xmlns:serif="http://www.serif.com/" style="fill-rule:evenodd;clip-rule:evenodd;stroke-linejoin:round;stroke-miterlimit:1.41421;"><rect id="object.real.cog" x="0.003" y="0" width="24" height="24" style="fill:none;"/><path d="M13.892,20c0,0.276 -0.224,0.5 -0.5,0.5c-0.724,0 -2.055,0 -2.778,0c-0.276,0 -0.5,-0.224 -0.5,-0.5c0,-0.398 0,-0.946 0,-1.303c0,-0.212 -0.135,-0.402 -0.336,-0.471c-0.758,-0.27 -1.451,-0.676 -2.052,-1.186c-0.161,-0.14 -0.392,-0.162 -0.576,-0.055c-0.31,0.177 -0.785,0.451 -1.131,0.651c-0.239,0.138 -0.545,0.056 -0.683,-0.183c-0.362,-0.627 -1.027,-1.779 -1.389,-2.406c-0.138,-0.239 -0.056,-0.545 0.183,-0.683c0.345,-0.199 0.819,-0.473 1.128,-0.651c0.183,-0.106 0.28,-0.317 0.241,-0.525c-0.071,-0.385 -0.107,-0.782 -0.107,-1.188c0,-0.406 0.036,-0.803 0.106,-1.188c0.04,-0.208 -0.057,-0.418 -0.241,-0.524c-0.308,-0.179 -0.782,-0.453 -1.127,-0.652c-0.239,-0.138 -0.321,-0.444 -0.183,-0.683c0.362,-0.627 1.027,-1.779 1.389,-2.406c0.138,-0.239 0.444,-0.321 0.683,-0.183c0.346,0.2 0.821,0.474 1.13,0.653c0.185,0.106 0.416,0.084 0.577,-0.056c0.601,-0.511 1.294,-0.917 2.052,-1.188c0.2,-0.069 0.334,-0.258 0.334,-0.47c0.002,-0.357 0.002,-0.905 0.002,-1.303c0,-0.276 0.224,-0.5 0.5,-0.5c0.723,0 2.054,0 2.778,0c0.276,0 0.5,0.224 0.5,0.5c0,0.398 0,0.946 0,1.303c0,0.212 0.135,0.402 0.336,0.471c0.757,0.27 1.451,0.676 2.052,1.186c0.161,0.14 0.392,0.162 0.576,0.055c0.31,-0.177 0.785,-0.451 1.131,-0.651c0.239,-0.138 0.545,-0.056 0.683,0.183c0.361,0.627 1.027,1.779 1.389,2.406c0.138,0.239 0.056,0.545 -0.183,0.683c-0.345,0.199 -0.819,0.473 -1.128,0.651c-0.184,0.106 -0.28,0.317 -0.241,0.525c0.07,0.385 0.107,0.782 0.107,1.188c0,0.406 -0.037,0.803 -0.107,1.188c-0.039,0.208 0.058,0.418 0.241,0.524c0.309,0.179 0.783,0.453 1.128,0.652c0.239,0.138 0.321,0.444 0.183,0.683c-0.362,0.627 -1.028,1.779 -1.389,2.406c-0.138,0.239 -0.444,0.321 -0.683,0.183c-0.346,-0.2 -0.821,-0.474 -1.131,-0.653c-0.184,-0.106 -0.416,-0.084 -0.576,0.056c-0.601,0.511 -1.295,0.917 -2.052,1.188c-0.2,0.069 -0.335,0.258 -0.335,0.47c-0.001,0.357 -0.001,0.905 -0.001,1.303Zm-1.889,-11c1.654,0 2.997,1.344 2.997,3c0,1.656 -1.343,3 -2.997,3c-1.654,0 -2.997,-1.344 -2.997,-3c0,-1.656 1.343,-3 2.997,-3Z" style="fill:url(#_Linear1);"/><defs><linearGradient id="_Linear1" x1="0" y1="0" x2="1" y2="0" gradientUnits="userSpaceOnUse" gradientTransform="matrix(-20,20,-20,-20,22.0029,2)"><stop offset="0" style="stop-color:#fff;stop-opacity:1"/><stop offset="1" style="stop-color:#666;stop-opacity:1"/></linearGradient></defs></svg>