<?xml version="1.0" encoding="UTF-8" standalone="no"?><!DOCTYPE svg PUBLIC "-//W3C//DTD SVG 1.1//EN" "http://www.w3.org/Graphics/SVG/1.1/DTD/svg11.dtd"><svg width="100%" height="100%" viewBox="0 0 24 24" version="1.1" xmlns="http://www.w3.org/2000/svg" xmlns:xlink="http://www.w3.org/1999/xlink" xml:space="preserve" xmlns:serif="http://www.serif.com/" style="fill-rule:evenodd;clip-rule:evenodd;stroke-linecap:round;stroke-linejoin:round;stroke-miterlimit:1.5;"><rect id="object.regular.folder" x="0.003" y="0" width="24" height="24" style="fill:none;"/><path d="M3.003,5l6,0l1,2l11,0l0,12l-18,0l0,-14Z" style="fill:none;stroke:#333;stroke-width:2px;"/><path d="M5.503,16.5l6,0" style="fill:none;stroke:#333;stroke-width:1px;"/><path d="M15.054,4.001l0.051,0.004l0.051,0.007l0.051,0.009l0.05,0.012l0.049,0.014l0.049,0.017l0.047,0.019l0.047,0.022l0.045,0.024l0.044,0.026l0.043,0.029l0.041,0.03l0.039,0.033l0.038,0.035l0.036,0.037l0.034,0.038l0.032,0.04l0.03,0.042l0.028,0.043l0.025,0.045l0.023,0.046l0.021,0.047l0.822,2l0.019,0.048l0.015,0.049l0.014,0.05l0.011,0.05l0.008,0.051l0.005,0.052l0.003,0.051l0,0.052l-0.002,0.051l-0.006,0.052l-0.007,0.051l-0.011,0.05l-0.013,0.05l-0.015,0.049l-0.018,0.049l-0.021,0.047l-0.023,0.046l-0.025,0.045l-0.028,0.044l-0.03,0.042l-0.032,0.04l-0.034,0.039l-0.036,0.037l-0.037,0.035l-0.04,0.033l-0.041,0.031l-0.043,0.029l-0.044,0.027l-0.046,0.024l-0.046,0.022l-0.048,0.019l-0.049,0.017l-0.049,0.015l-0.051,0.012l-0.05,0.009l-0.052,0.007l-0.051,0.004l-0.052,0.001l-5.822,0l-0.05,-0.001l-0.051,-0.004l-0.049,-0.006l-0.05,-0.009l-0.049,-0.012l-0.048,-0.013l-0.048,-0.016l-0.047,-0.019l-0.046,-0.021l-0.044,-0.023l-0.044,-0.025l-0.042,-0.028l-0.041,-0.029l-0.039,-0.032l-0.037,-0.034l-0.036,-0.035l-0.034,-0.037l-0.032,-0.039l-0.03,-0.04l-0.028,-0.042l-0.026,-0.043l-0.024,-0.045l-1,-2l-0.022,-0.047l-0.019,-0.048l-0.017,-0.05l-0.015,-0.05l-0.012,-0.051l-0.009,-0.051l-0.006,-0.052l-0.004,-0.052l-0.001,-0.052l0.002,-0.052l0.004,-0.052l0.007,-0.052l0.01,-0.051l0.012,-0.051l0.015,-0.049l0.018,-0.05l0.02,-0.048l0.023,-0.047l0.025,-0.045l0.027,-0.045l0.03,-0.043l0.032,-0.041l0.034,-0.039l0.036,-0.038l0.038,-0.036l0.04,-0.034l0.041,-0.031l0.043,-0.03l0.045,-0.027l0.045,-0.025l0.048,-0.022l0.048,-0.02l0.049,-0.017l0.05,-0.015l0.051,-0.012l0.051,-0.01l0.052,-0.007l0.052,-0.004l0.052,-0.001l6,0l0.051,0.001Zm-6.051,0.999l1,2l5.822,0l-0.822,-2l-6,0Z" style="fill:#333;"/></svg>