<?xml version="1.0" encoding="UTF-8" standalone="no"?><!DOCTYPE svg PUBLIC "-//W3C//DTD SVG 1.1//EN" "http://www.w3.org/Graphics/SVG/1.1/DTD/svg11.dtd"><svg width="100%" height="100%" viewBox="0 0 24 24" version="1.1" xmlns="http://www.w3.org/2000/svg" xmlns:xlink="http://www.w3.org/1999/xlink" xml:space="preserve" xmlns:serif="http://www.serif.com/" style="fill-rule:evenodd;clip-rule:evenodd;stroke-linecap:round;stroke-linejoin:round;stroke-miterlimit:1.5;"><rect id="object.filled.lock" x="0.003" y="0" width="24" height="24" style="fill:none;"/><path d="M8.503,9.5l0,-2.5c0,-1.38 1.045,-2.5 2.333,-2.5l2.334,0c1.287,0 2.333,1.12 2.333,2.5l0,2.5l-7,0Z" style="fill:none;stroke:#333;stroke-width:1px;"/><path d="M5,10c0,-0.552 0.448,-1 1,-1c2.577,0 9.423,0 12,0c0.552,0 1,0.448 1,1c0,2.26 0,7.74 0,10c0,0.552 -0.448,1 -1,1c-2.577,0 -9.423,0 -12,0c-0.552,0 -1,-0.448 -1,-1c0,-2.26 0,-7.74 0,-10Zm10.003,5.913c0.581,-0.206 0.997,-0.762 0.997,-1.413c0,-0.828 -0.672,-1.5 -1.5,-1.5c-0.828,0 -1.5,0.672 -1.5,1.5c0,0.654 0.419,1.21 1.003,1.416c0,0 0,0.62 0,1.084c0,0.133 0.053,0.26 0.146,0.354c0.094,0.093 0.221,0.146 0.354,0.146c0.276,0 0.5,-0.224 0.5,-0.5c0,-0.465 0,-1.087 0,-1.087Z" style="fill:#333;"/></svg>