<?xml version="1.0" encoding="UTF-8" standalone="no"?><!DOCTYPE svg PUBLIC "-//W3C//DTD SVG 1.1//EN" "http://www.w3.org/Graphics/SVG/1.1/DTD/svg11.dtd"><svg width="100%" height="100%" viewBox="0 0 24 24" version="1.1" xmlns="http://www.w3.org/2000/svg" xmlns:xlink="http://www.w3.org/1999/xlink" xml:space="preserve" xmlns:serif="http://www.serif.com/" style="fill-rule:evenodd;clip-rule:evenodd;stroke-linejoin:round;stroke-miterlimit:1.41421;"><rect id="object.thin.document" x="0.003" y="0" width="24" height="24" style="fill:none;"/><path d="M5.003,3c0,-0.265 0.105,-0.52 0.293,-0.707c0.187,-0.188 0.442,-0.293 0.707,-0.293c2.272,0 7.745,0 9.293,0c0.265,0 0.519,0.105 0.707,0.293c0.784,0.784 2.923,2.923 3.707,3.707c0.188,0.188 0.293,0.442 0.293,0.707c0,2.061 0,11.23 0,14.293c0,0.552 -0.448,1 -1,1c-2.727,0 -10.273,0 -13,0c-0.265,0 -0.52,-0.105 -0.707,-0.293c-0.188,-0.187 -0.293,-0.442 -0.293,-0.707c0,-3.414 0,-14.586 0,-18Zm10.001,0l-9.001,0l0,18l13,0l0,-14c0,0 -1.815,0 -2.999,0c-0.266,0 -0.52,-0.105 -0.707,-0.292c-0.188,-0.188 -0.293,-0.442 -0.293,-0.708c0,-1.185 0,-3 0,-3Zm-1.001,11.501c0,0.133 -0.053,0.26 -0.146,0.353c-0.094,0.094 -0.221,0.146 -0.353,0.146c-1.288,0 -4.712,0 -6.001,0c-0.133,0 -0.26,-0.052 -0.353,-0.146c-0.094,-0.094 -0.147,-0.221 -0.147,-0.354c0,0 0,0 0,-0.001c0,-0.132 0.053,-0.259 0.146,-0.352c0.094,-0.094 0.221,-0.147 0.353,-0.147c1.288,0 4.712,0 6.001,0c0.132,0 0.26,0.053 0.353,0.147c0.094,0.094 0.147,0.221 0.147,0.353c0,0.001 0,0.001 0,0.001Zm3.5,-2.501c0.276,0 0.5,0.224 0.5,0.5c0,0.001 0,0.001 0,0.001c0,0.133 -0.053,0.26 -0.146,0.353c-0.094,0.094 -0.221,0.146 -0.353,0.146c-1.831,0 -8.168,0 -10.001,0c-0.276,0 -0.5,-0.223 -0.5,-0.5c0,0 0,0 0,-0.001c0,-0.132 0.053,-0.259 0.146,-0.352c0.094,-0.094 0.221,-0.147 0.353,-0.147c1.831,0 8.168,0 10.001,0Zm0,-4c0.276,0 0.5,0.224 0.5,0.5c0,0.001 0,0.001 0,0.001c0,0.133 -0.053,0.26 -0.146,0.353c-0.094,0.094 -0.221,0.146 -0.353,0.146c-1.831,0 -8.168,0 -10.001,0c-0.276,0 -0.5,-0.223 -0.5,-0.5c0,0 0,0 0,-0.001c0,-0.132 0.053,-0.259 0.146,-0.352c0.094,-0.094 0.221,-0.147 0.353,-0.147c1.831,0 8.168,0 10.001,0Zm-3.999,-1.999c0.275,0 0.499,0.223 0.499,0.499c0,0 0,0 0,0.001c0,0.276 -0.224,0.499 -0.5,0.5c-1.289,0 -4.713,0 -6.001,0c-0.276,0 -0.499,-0.224 -0.499,-0.499c0,-0.001 0,-0.001 0,-0.001c0,-0.277 0.224,-0.5 0.5,-0.5c1.289,0 4.713,0 6.001,0Zm2.499,-0.001l2.293,0.001l-2.293,-2.294l0,2.293Zm-2.499,-2c0.275,0 0.499,0.224 0.499,0.499c0,0.001 0,0.001 0,0.001c0,0.277 -0.224,0.5 -0.5,0.5c-1.289,0 -4.713,0 -6.001,0c-0.276,0 -0.499,-0.223 -0.499,-0.499c0,0 0,0 0,-0.001c0,-0.276 0.224,-0.5 0.5,-0.5c1.289,0 4.713,0 6.001,0Z" style="fill:#333;"/></svg>