<?xml version="1.0" encoding="UTF-8" standalone="no"?><!DOCTYPE svg PUBLIC "-//W3C//DTD SVG 1.1//EN" "http://www.w3.org/Graphics/SVG/1.1/DTD/svg11.dtd"><svg width="100%" height="100%" viewBox="0 0 24 24" version="1.1" xmlns="http://www.w3.org/2000/svg" xmlns:xlink="http://www.w3.org/1999/xlink" xml:space="preserve" xmlns:serif="http://www.serif.com/" style="fill-rule:evenodd;clip-rule:evenodd;stroke-linecap:round;stroke-linejoin:round;stroke-miterlimit:1.5;"><rect id="object.real.shoppingBag" x="0.003" y="0" width="24" height="24" style="fill:none;"/><path d="M14,8l0,-3l-4,0l0,3l-1,0c0,0 0,-1.815 0,-3c0,-0.265 0.105,-0.52 0.293,-0.707c0.187,-0.188 0.442,-0.293 0.707,-0.293c1.11,0 2.89,0 4,0c0.265,0 0.52,0.105 0.707,0.293c0.188,0.187 0.293,0.442 0.293,0.707c0,1.185 0,3 0,3l-1,0Z" style="fill:#333;"/><path d="M18,7c0.265,0 0.519,0.105 0.707,0.293c0.188,0.188 0.293,0.442 0.293,0.707c-0.001,2.443 -0.002,8.751 -0.003,12c0,1.105 -0.895,2 -2,2c-2.66,0 -7.337,0 -9.997,0c-1.105,0 -2,-0.895 -2,-2c-0.001,-3.249 -0.002,-9.557 -0.003,-12c0,-0.265 0.106,-0.519 0.293,-0.707c0.188,-0.188 0.442,-0.293 0.707,-0.293c2.578,0 9.425,0 12.003,0Z" style="fill:url(#_Linear1);"/><path d="M9.003,9.5l6,0" style="fill:none;stroke:#333;stroke-width:1px;"/><defs><linearGradient id="_Linear1" x1="0" y1="0" x2="1" y2="0" gradientUnits="userSpaceOnUse" gradientTransform="matrix(-20,20,-20,-20,22.0029,2)"><stop offset="0" style="stop-color:#fff;stop-opacity:1"/><stop offset="1" style="stop-color:#666;stop-opacity:1"/></linearGradient></defs></svg>