<?xml version="1.0" encoding="UTF-8" standalone="no"?><!DOCTYPE svg PUBLIC "-//W3C//DTD SVG 1.1//EN" "http://www.w3.org/Graphics/SVG/1.1/DTD/svg11.dtd"><svg width="100%" height="100%" viewBox="0 0 24 24" version="1.1" xmlns="http://www.w3.org/2000/svg" xmlns:xlink="http://www.w3.org/1999/xlink" xml:space="preserve" xmlns:serif="http://www.serif.com/" style="fill-rule:evenodd;clip-rule:evenodd;stroke-linecap:round;stroke-linejoin:round;stroke-miterlimit:1.5;"><rect id="object.regular.shoppingBag" x="0.003" y="0" width="24" height="24" style="fill:none;"/><path d="M9.003,9.5l6,0" style="fill:none;stroke:#333;stroke-width:1px;"/><path d="M19.003,7l0,12c0,1.104 -0.896,2 -2,2l-10,0c-1.104,0 -2,-0.896 -2,-2l0,-12l14,0Z" style="fill:none;stroke:#333;stroke-width:2px;"/><path d="M14,7l0,-3l-4,0l0,3l-1,0c0,0 0,-1.815 0,-3c0,-0.265 0.105,-0.52 0.293,-0.707c0.187,-0.188 0.442,-0.293 0.707,-0.293c1.11,0 2.89,0 4,0c0.265,0 0.52,0.105 0.707,0.293c0.188,0.187 0.293,0.442 0.293,0.707c0,1.185 0,3 0,3l-1,0Z" style="fill:#333;"/></svg>