<?xml version="1.0" encoding="UTF-8" standalone="no"?><!DOCTYPE svg PUBLIC "-//W3C//DTD SVG 1.1//EN" "http://www.w3.org/Graphics/SVG/1.1/DTD/svg11.dtd"><svg width="100%" height="100%" viewBox="0 0 24 24" version="1.1" xmlns="http://www.w3.org/2000/svg" xmlns:xlink="http://www.w3.org/1999/xlink" xml:space="preserve" xmlns:serif="http://www.serif.com/" style="fill-rule:evenodd;clip-rule:evenodd;stroke-linejoin:round;stroke-miterlimit:1.41421;"><rect id="object.real.creditCardBack" x="0" y="0" width="24" height="24" style="fill:none;"/><path d="M21,19c0.552,0 1,-0.448 1,-1c0,-2.577 0,-9.423 0,-12c0,-0.552 -0.448,-1 -1,-1c-3.414,0 -14.586,0 -18,0c-0.552,0 -1,0.448 -1,1c0,2.577 0,9.423 0,12c0,0.552 0.448,1 1,1c3.414,0 14.586,0 18,0Z" style="fill:url(#_Linear1);"/><clipPath id="_clip2"><path d="M21,19c0.552,0 1,-0.448 1,-1c0,-2.577 0,-9.423 0,-12c0,-0.552 -0.448,-1 -1,-1c-3.414,0 -14.586,0 -18,0c-0.552,0 -1,0.448 -1,1c0,2.577 0,9.423 0,12c0,0.552 0.448,1 1,1c3.414,0 14.586,0 18,0Z"/></clipPath><g clip-path="url(#_clip2)"><path d="M6.494,16c0.276,0 0.5,0.224 0.5,0.5c0,0.276 -0.224,0.5 -0.5,0.5c-0.553,0 -1.44,0 -1.994,0c-0.276,0 -0.5,-0.224 -0.5,-0.5c0,-0.276 0.224,-0.5 0.5,-0.5c0.554,0 1.441,0 1.994,0Zm4,-2c0.133,0 0.26,0.053 0.354,0.146c0.093,0.094 0.146,0.221 0.146,0.354c0,0.133 -0.053,0.26 -0.146,0.354c-0.094,0.093 -0.221,0.146 -0.354,0.146c-1.288,0 -4.706,0 -5.994,0c-0.133,0 -0.26,-0.053 -0.354,-0.146c-0.093,-0.094 -0.146,-0.221 -0.146,-0.354c0,-0.133 0.053,-0.26 0.146,-0.354c0.094,-0.093 0.221,-0.146 0.354,-0.146c1.288,0 4.706,0 5.994,0Zm11.506,-6l0,4l-20,0l0,-4l20,0Z" style="fill:#333;"/></g><defs><linearGradient id="_Linear1" x1="0" y1="0" x2="1" y2="0" gradientUnits="userSpaceOnUse" gradientTransform="matrix(-20,20,-20,-20,22,2)"><stop offset="0" style="stop-color:#fff;stop-opacity:1"/><stop offset="1" style="stop-color:#666;stop-opacity:1"/></linearGradient></defs></svg>