<?xml version="1.0" encoding="UTF-8" standalone="no"?><!DOCTYPE svg PUBLIC "-//W3C//DTD SVG 1.1//EN" "http://www.w3.org/Graphics/SVG/1.1/DTD/svg11.dtd"><svg width="100%" height="100%" viewBox="0 0 24 24" version="1.1" xmlns="http://www.w3.org/2000/svg" xmlns:xlink="http://www.w3.org/1999/xlink" xml:space="preserve" xmlns:serif="http://www.serif.com/" style="fill-rule:evenodd;clip-rule:evenodd;stroke-linejoin:round;stroke-miterlimit:1.41421;"><rect id="object.real.bell" x="0.003" y="0" width="24" height="24" style="fill:none;"/><path d="M14.832,16c0.111,0.313 0.171,0.649 0.171,1c0,1.656 -1.344,3 -3,3c-1.656,0 -3,-1.344 -3,-3c0,-0.351 0.06,-0.687 0.171,-1l5.658,0Z" style="fill:url(#_Linear1);"/><path d="M14.832,16c0.111,0.313 0.171,0.649 0.171,1c0,1.656 -1.344,3 -3,3c-1.656,0 -3,-1.344 -3,-3c0,-0.351 0.06,-0.687 0.171,-1l5.658,0Z" style="fill:#333;fill-opacity:0.501961;"/><path d="M19.279,16.553c0.155,0.31 0.139,0.678 -0.043,0.973c-0.183,0.295 -0.505,0.474 -0.851,0.474c-3.068,0 -9.698,0 -12.765,0c-0.347,0 -0.668,-0.179 -0.851,-0.474c-0.182,-0.295 -0.199,-0.663 -0.044,-0.973c0.141,-0.282 0.29,-0.579 0.434,-0.868c0.553,-1.109 0.842,-2.33 0.842,-3.569c0.001,-1.281 0.002,-2.798 0.002,-3.116c0,-3.311 2.688,-6 6,-6c3.311,0 6,2.689 6,6c0,0 0,1.695 0,3.111c0,1.242 0.289,2.467 0.845,3.578c0.143,0.287 0.291,0.583 0.431,0.864Z" style="fill:url(#_Linear2);"/><defs><linearGradient id="_Linear1" x1="0" y1="0" x2="1" y2="0" gradientUnits="userSpaceOnUse" gradientTransform="matrix(-20,20,-20,-20,22.0029,2)"><stop offset="0" style="stop-color:#fff;stop-opacity:1"/><stop offset="1" style="stop-color:#666;stop-opacity:1"/></linearGradient><linearGradient id="_Linear2" x1="0" y1="0" x2="1" y2="0" gradientUnits="userSpaceOnUse" gradientTransform="matrix(-20,20,-20,-20,22.0029,2)"><stop offset="0" style="stop-color:#fff;stop-opacity:1"/><stop offset="1" style="stop-color:#666;stop-opacity:1"/></linearGradient></defs></svg>