<?xml version="1.0" encoding="UTF-8" standalone="no"?><!DOCTYPE svg PUBLIC "-//W3C//DTD SVG 1.1//EN" "http://www.w3.org/Graphics/SVG/1.1/DTD/svg11.dtd"><svg width="100%" height="100%" viewBox="0 0 24 24" version="1.1" xmlns="http://www.w3.org/2000/svg" xmlns:xlink="http://www.w3.org/1999/xlink" xml:space="preserve" xmlns:serif="http://www.serif.com/" style="fill-rule:evenodd;clip-rule:evenodd;stroke-linejoin:round;stroke-miterlimit:1.41421;"><rect id="object.filled.compass" x="0" y="0" width="24" height="24" style="fill:none;"/><path d="M12,2.006c5.518,0 9.997,4.479 9.997,9.997c0,5.517 -4.479,9.997 -9.997,9.997c-5.518,0 -9.997,-4.48 -9.997,-9.997c0,-5.518 4.479,-9.997 9.997,-9.997Zm0.001,18.494c0.276,0 0.499,-0.223 0.499,-0.499c0,-0.306 0,-0.696 0,-1.002c0,-0.276 -0.223,-0.499 -0.499,-0.499c-0.001,0 -0.001,0 -0.002,0c-0.276,0 -0.499,0.223 -0.499,0.499c0,0.306 0,0.696 0,1.002c0,0.276 0.223,0.499 0.499,0.499c0.001,0 0.001,0 0.002,0Zm1.854,-6.985c-0.085,0.14 -0.203,0.258 -0.343,0.342c-0.7,0.42 -2.985,1.791 -5,3c-0.394,0.237 -0.898,0.175 -1.222,-0.15c-0.325,-0.324 -0.387,-0.828 -0.15,-1.222c1.209,-2.015 2.58,-4.3 3,-5c0.084,-0.14 0.202,-0.258 0.343,-0.342c0.699,-0.42 2.984,-1.791 5,-3c0.393,-0.237 0.897,-0.175 1.221,0.15c0.325,0.324 0.387,0.828 0.151,1.222c-1.21,2.015 -2.581,4.3 -3,5Zm-5.858,2.485l5,-3l-2,-2l-3,5Zm-3,-3.5c0.133,0 0.26,-0.053 0.354,-0.146c0.093,-0.094 0.146,-0.221 0.146,-0.354c0,-0.133 -0.053,-0.26 -0.146,-0.354c-0.094,-0.093 -0.221,-0.146 -0.354,-0.146c-0.305,0 -0.695,0 -1,0c-0.133,0 -0.26,0.053 -0.353,0.146c-0.094,0.094 -0.147,0.221 -0.147,0.354c0,0.133 0.053,0.26 0.147,0.354c0.093,0.093 0.22,0.146 0.353,0.146c0.305,0 0.695,0 1,0Zm15,0c0.133,0 0.26,-0.053 0.354,-0.146c0.093,-0.094 0.146,-0.221 0.146,-0.354c0,-0.133 -0.053,-0.26 -0.146,-0.354c-0.094,-0.093 -0.221,-0.146 -0.354,-0.146c-0.305,0 -0.695,0 -1,0c-0.133,0 -0.26,0.053 -0.353,0.146c-0.094,0.094 -0.147,0.221 -0.147,0.354c0,0.133 0.053,0.26 0.147,0.354c0.093,0.093 0.22,0.146 0.353,0.146c0.305,0 0.695,0 1,0Zm-7.996,-7c0.276,0 0.499,-0.223 0.499,-0.499c0,-0.306 0,-0.696 0,-1.002c0,-0.276 -0.223,-0.499 -0.499,-0.499c-0.001,0 -0.001,0 -0.002,0c-0.276,0 -0.499,0.223 -0.499,0.499c0,0.306 0,0.696 0,1.002c0,0.276 0.223,0.499 0.499,0.499c0.001,0 0.001,0 0.002,0Z" style="fill:#333;"/></svg>