<?xml version="1.0" encoding="UTF-8" standalone="no"?><!DOCTYPE svg PUBLIC "-//W3C//DTD SVG 1.1//EN" "http://www.w3.org/Graphics/SVG/1.1/DTD/svg11.dtd"><svg width="100%" height="100%" viewBox="0 0 24 24" version="1.1" xmlns="http://www.w3.org/2000/svg" xmlns:xlink="http://www.w3.org/1999/xlink" xml:space="preserve" xmlns:serif="http://www.serif.com/" style="fill-rule:evenodd;clip-rule:evenodd;stroke-linejoin:round;stroke-miterlimit:1.41421;"><rect id="object.regular.mapPin" x="0" y="0" width="24" height="24" style="fill:none;"/><path d="M12.077,7.001l0.077,0.003l0.077,0.005l0.076,0.007l0.075,0.008l0.075,0.011l0.074,0.012l0.073,0.014l0.073,0.016l0.072,0.018l0.072,0.019l0.071,0.021l0.07,0.023l0.069,0.024l0.069,0.026l0.067,0.028l0.067,0.029l0.066,0.031l0.065,0.032l0.064,0.034l0.064,0.036l0.062,0.037l0.061,0.038l0.061,0.04l0.059,0.041l0.058,0.042l0.058,0.044l0.056,0.045l0.055,0.047l0.054,0.048l0.052,0.049l0.052,0.05l0.05,0.052l0.049,0.052l0.048,0.054l0.047,0.055l0.045,0.056l0.044,0.058l0.042,0.058l0.041,0.059l0.04,0.061l0.038,0.061l0.037,0.062l0.036,0.064l0.034,0.064l0.032,0.065l0.031,0.066l0.029,0.067l0.028,0.067l0.026,0.069l0.024,0.069l0.023,0.07l0.021,0.071l0.019,0.072l0.018,0.072l0.016,0.073l0.014,0.073l0.012,0.074l0.011,0.075l0.008,0.075l0.007,0.076l0.005,0.077l0.003,0.077l0.001,0.077l-0.001,0.077l-0.003,0.077l-0.005,0.077l-0.007,0.076l-0.008,0.075l-0.011,0.075l-0.012,0.074l-0.014,0.073l-0.016,0.073l-0.018,0.072l-0.019,0.072l-0.021,0.071l-0.023,0.07l-0.024,0.069l-0.026,0.069l-0.028,0.067l-0.029,0.067l-0.031,0.066l-0.032,0.065l-0.034,0.064l-0.036,0.064l-0.037,0.062l-0.038,0.061l-0.04,0.061l-0.041,0.059l-0.042,0.058l-0.044,0.058l-0.045,0.056l-0.047,0.055l-0.048,0.054l-0.049,0.052l-0.05,0.052l-0.052,0.05l-0.052,0.049l-0.054,0.048l-0.055,0.047l-0.056,0.045l-0.058,0.044l-0.058,0.042l-0.059,0.041l-0.061,0.04l-0.061,0.038l-0.062,0.037l-0.064,0.036l-0.064,0.034l-0.065,0.032l-0.066,0.031l-0.067,0.029l-0.067,0.028l-0.069,0.026l-0.069,0.024l-0.07,0.023l-0.071,0.021l-0.072,0.019l-0.072,0.018l-0.073,0.016l-0.073,0.014l-0.074,0.012l-0.075,0.011l-0.075,0.008l-0.076,0.007l-0.077,0.005l-0.077,0.003l-0.077,0.001l-0.077,-0.001l-0.077,-0.003l-0.077,-0.005l-0.076,-0.007l-0.075,-0.008l-0.075,-0.011l-0.074,-0.012l-0.073,-0.014l-0.073,-0.016l-0.072,-0.018l-0.072,-0.019l-0.071,-0.021l-0.07,-0.023l-0.069,-0.024l-0.069,-0.026l-0.067,-0.028l-0.067,-0.029l-0.066,-0.031l-0.065,-0.032l-0.064,-0.034l-0.064,-0.036l-0.062,-0.037l-0.061,-0.038l-0.061,-0.04l-0.059,-0.041l-0.058,-0.042l-0.058,-0.044l-0.056,-0.045l-0.055,-0.047l-0.054,-0.048l-0.052,-0.049l-0.052,-0.05l-0.05,-0.052l-0.049,-0.052l-0.048,-0.054l-0.047,-0.055l-0.045,-0.056l-0.044,-0.058l-0.042,-0.058l-0.041,-0.059l-0.04,-0.061l-0.038,-0.061l-0.037,-0.062l-0.036,-0.064l-0.034,-0.064l-0.032,-0.065l-0.031,-0.066l-0.029,-0.067l-0.028,-0.067l-0.026,-0.069l-0.024,-0.069l-0.023,-0.07l-0.021,-0.071l-0.019,-0.072l-0.018,-0.072l-0.016,-0.073l-0.014,-0.073l-0.012,-0.074l-0.011,-0.075l-0.008,-0.075l-0.007,-0.076l-0.005,-0.077l-0.003,-0.077l-0.001,-0.077l0.001,-0.077l0.003,-0.077l0.005,-0.077l0.007,-0.076l0.008,-0.075l0.011,-0.075l0.012,-0.074l0.014,-0.073l0.016,-0.073l0.018,-0.072l0.019,-0.072l0.021,-0.071l0.023,-0.07l0.024,-0.069l0.026,-0.069l0.028,-0.067l0.029,-0.067l0.031,-0.066l0.032,-0.065l0.034,-0.064l0.036,-0.064l0.037,-0.062l0.038,-0.061l0.04,-0.061l0.041,-0.059l0.042,-0.058l0.044,-0.058l0.045,-0.056l0.047,-0.055l0.048,-0.054l0.049,-0.052l0.05,-0.052l0.052,-0.05l0.052,-0.049l0.054,-0.048l0.055,-0.047l0.056,-0.045l0.058,-0.044l0.058,-0.042l0.059,-0.041l0.061,-0.04l0.061,-0.038l0.062,-0.037l0.064,-0.036l0.064,-0.034l0.065,-0.032l0.066,-0.031l0.067,-0.029l0.067,-0.028l0.069,-0.026l0.069,-0.024l0.07,-0.023l0.071,-0.021l0.072,-0.019l0.072,-0.018l0.073,-0.016l0.073,-0.014l0.074,-0.012l0.075,-0.011l0.075,-0.008l0.076,-0.007l0.077,-0.005l0.077,-0.003l0.077,-0.001l0.077,0.001Zm-0.129,1l-0.051,0.002l-0.052,0.003l-0.05,0.004l-0.05,0.006l-0.05,0.007l-0.05,0.008l-0.049,0.01l-0.048,0.01l-0.048,0.012l-0.047,0.013l-0.048,0.014l-0.046,0.015l-0.045,0.016l-0.046,0.017l-0.046,0.019l-0.044,0.019l-0.044,0.021l-0.043,0.021l-0.043,0.023l-0.042,0.024l-0.041,0.024l-0.041,0.025l-0.041,0.027l-0.041,0.028l-0.038,0.028l-0.037,0.029l-0.039,0.031l-0.036,0.031l-0.036,0.031l-0.036,0.034l-0.034,0.033l-0.033,0.035l-0.033,0.035l-0.032,0.035l-0.031,0.038l-0.031,0.037l-0.029,0.039l-0.028,0.039l-0.028,0.04l-0.026,0.039l-0.025,0.04l-0.025,0.043l-0.024,0.042l-0.023,0.043l-0.021,0.044l-0.021,0.044l-0.019,0.044l-0.018,0.044l-0.018,0.045l-0.016,0.046l-0.015,0.047l-0.014,0.048l-0.013,0.048l-0.012,0.048l-0.01,0.047l-0.01,0.049l-0.008,0.05l-0.007,0.048l-0.005,0.051l-0.005,0.052l-0.003,0.051l-0.002,0.051l-0.001,0.052l0.001,0.052l0.002,0.051l0.003,0.051l0.005,0.052l0.005,0.051l0.007,0.048l0.008,0.05l0.01,0.048l0.01,0.049l0.012,0.047l0.013,0.048l0.014,0.048l0.015,0.047l0.016,0.045l0.018,0.046l0.018,0.044l0.019,0.044l0.021,0.045l0.021,0.043l0.023,0.043l0.024,0.042l0.025,0.043l0.025,0.04l0.026,0.039l0.028,0.04l0.028,0.04l0.029,0.038l0.03,0.037l0.032,0.038l0.032,0.035l0.033,0.035l0.034,0.035l0.033,0.033l0.036,0.033l0.036,0.032l0.036,0.031l0.039,0.031l0.037,0.029l0.039,0.028l0.04,0.028l0.041,0.027l0.041,0.025l0.041,0.024l0.042,0.024l0.043,0.023l0.043,0.021l0.044,0.021l0.044,0.019l0.045,0.018l0.046,0.018l0.046,0.016l0.047,0.015l0.047,0.014l0.047,0.013l0.048,0.012l0.049,0.01l0.048,0.01l0.05,0.008l0.05,0.007l0.05,0.006l0.05,0.004l0.051,0.003l0.052,0.002l0.052,0.001l0.052,-0.001l0.052,-0.002l0.051,-0.003l0.05,-0.004l0.05,-0.006l0.05,-0.007l0.05,-0.008l0.048,-0.01l0.049,-0.01l0.048,-0.012l0.047,-0.013l0.047,-0.014l0.047,-0.015l0.046,-0.016l0.046,-0.018l0.045,-0.018l0.044,-0.019l0.044,-0.021l0.043,-0.021l0.043,-0.023l0.042,-0.024l0.041,-0.024l0.041,-0.025l0.041,-0.027l0.04,-0.028l0.039,-0.028l0.037,-0.029l0.039,-0.031l0.036,-0.031l0.036,-0.032l0.036,-0.033l0.033,-0.033l0.034,-0.035l0.033,-0.035l0.032,-0.035l0.032,-0.038l0.03,-0.037l0.029,-0.038l0.028,-0.04l0.028,-0.04l0.026,-0.039l0.025,-0.04l0.025,-0.043l0.024,-0.042l0.023,-0.043l0.021,-0.043l0.021,-0.045l0.019,-0.044l0.018,-0.044l0.018,-0.046l0.016,-0.045l0.015,-0.047l0.014,-0.048l0.013,-0.048l0.012,-0.047l0.01,-0.049l0.01,-0.048l0.008,-0.05l0.007,-0.048l0.005,-0.051l0.005,-0.052l0.003,-0.051l0.002,-0.051l0.001,-0.052l-0.001,-0.052l-0.002,-0.051l-0.003,-0.051l-0.005,-0.052l-0.005,-0.051l-0.007,-0.048l-0.008,-0.05l-0.01,-0.049l-0.01,-0.047l-0.012,-0.048l-0.013,-0.048l-0.014,-0.048l-0.015,-0.047l-0.016,-0.046l-0.018,-0.045l-0.018,-0.044l-0.019,-0.044l-0.021,-0.044l-0.021,-0.044l-0.023,-0.043l-0.024,-0.042l-0.025,-0.043l-0.025,-0.04l-0.026,-0.039l-0.028,-0.04l-0.028,-0.039l-0.029,-0.039l-0.031,-0.037l-0.031,-0.038l-0.032,-0.035l-0.033,-0.035l-0.033,-0.035l-0.034,-0.033l-0.036,-0.034l-0.036,-0.031l-0.036,-0.031l-0.039,-0.031l-0.037,-0.029l-0.038,-0.028l-0.041,-0.028l-0.041,-0.027l-0.041,-0.025l-0.041,-0.024l-0.042,-0.024l-0.043,-0.023l-0.043,-0.021l-0.044,-0.021l-0.044,-0.019l-0.046,-0.019l-0.046,-0.017l-0.045,-0.016l-0.046,-0.015l-0.048,-0.014l-0.047,-0.013l-0.048,-0.012l-0.048,-0.01l-0.049,-0.01l-0.05,-0.008l-0.05,-0.007l-0.05,-0.006l-0.05,-0.004l-0.052,-0.003l-0.051,-0.002l-0.052,-0.001l-0.052,0.001Z" style="fill:#333;"/><path d="M12.08,3.5l0.079,0.002l0.08,0.002l0.08,0.004l0.08,0.004l0.079,0.005l0.08,0.006l0.079,0.007l0.08,0.008l0.079,0.009l0.079,0.01l0.079,0.01l0.079,0.012l0.079,0.012l0.079,0.014l0.078,0.014l0.079,0.015l0.078,0.016l0.078,0.017l0.078,0.018l0.077,0.019l0.078,0.02l0.077,0.02l0.077,0.022l0.077,0.022l0.076,0.023l0.077,0.024l0.076,0.025l0.076,0.026l0.075,0.027l0.075,0.027l0.075,0.029l0.075,0.029l0.074,0.03l0.074,0.031l0.073,0.032l0.074,0.033l0.072,0.033l0.073,0.035l0.072,0.035l0.072,0.036l0.071,0.037l0.071,0.037l0.07,0.039l0.07,0.039l0.07,0.04l0.069,0.041l0.069,0.042l0.068,0.043l0.068,0.043l0.067,0.045l0.067,0.045l0.066,0.046l0.066,0.046l0.065,0.048l0.065,0.048l0.064,0.049l0.064,0.05l0.063,0.051l0.062,0.051l0.062,0.052l0.061,0.053l0.061,0.054l0.06,0.055l0.06,0.055l0.058,0.056l0.058,0.057l0.058,0.058l0.057,0.058l0.056,0.059l0.056,0.06l0.054,0.061l0.054,0.061l0.054,0.062l0.052,0.063l0.052,0.064l0.052,0.064l0.05,0.066l0.05,0.065l0.049,0.067l0.048,0.067l0.047,0.068l0.047,0.069l0.046,0.07l0.044,0.07l0.045,0.071l0.043,0.072l0.042,0.072l0.042,0.073l0.041,0.074l0.039,0.074l0.039,0.076l0.038,0.075l0.037,0.077l0.037,0.077l0.035,0.078l0.034,0.079l0.034,0.079l0.032,0.08l0.032,0.081l0.03,0.081l0.03,0.082l0.028,0.083l0.028,0.084l0.027,0.084l0.025,0.084l0.025,0.086l0.023,0.086l0.023,0.087l0.021,0.087l0.02,0.088l0.019,0.089l0.019,0.089l0.017,0.09l0.015,0.09l0.015,0.092l0.014,0.092l0.012,0.092l0.012,0.093l0.01,0.094l0.009,0.094l0.008,0.095l0.007,0.096l0.005,0.096l0.004,0.097l0.004,0.097l0.001,0.098l0.001,0.099l-0.001,0.099l-0.003,0.1l-0.004,0.101l-0.007,0.101l-0.008,0.101l-0.009,0.103l-0.012,0.102l-0.013,0.103l-0.015,0.104l-0.016,0.104l-0.018,0.105l-0.02,0.104l-0.021,0.106l-0.023,0.105l-0.024,0.106l-0.026,0.107l-0.027,0.106l-0.029,0.107l-0.03,0.107l-0.032,0.107l-0.032,0.108l-0.035,0.107l-0.035,0.108l-0.037,0.108l-0.038,0.108l-0.039,0.108l-0.041,0.109l-0.042,0.108l-0.043,0.108l-0.044,0.108l-0.045,0.109l-0.046,0.108l-0.048,0.108l-0.048,0.108l-0.05,0.108l-0.05,0.108l-0.052,0.108l-0.053,0.107l-0.053,0.108l-0.054,0.107l-0.056,0.106l-0.056,0.107l-0.057,0.106l-0.057,0.106l-0.059,0.106l-0.059,0.105l-0.061,0.105l-0.06,0.105l-0.062,0.104l-0.062,0.104l-0.063,0.103l-0.064,0.103l-0.064,0.102l-0.064,0.101l-0.066,0.102l-0.065,0.1l-0.067,0.1l-0.067,0.099l-0.135,0.197l-0.136,0.194l-0.138,0.191l-0.14,0.188l-0.14,0.185l-0.142,0.181l-0.142,0.178l-0.142,0.174l-0.143,0.17l-0.143,0.166l-0.143,0.161l-0.143,0.157l-0.143,0.152l-0.141,0.147l-0.141,0.143l-0.071,0.069l-0.069,0.068l-0.07,0.066l-0.069,0.065l-0.069,0.064l-0.069,0.063l-0.068,0.061l-0.067,0.059l-0.068,0.058l-0.066,0.056l-0.067,0.055l-0.066,0.054l-0.065,0.052l-0.065,0.05l-0.064,0.049l-0.063,0.047l-0.063,0.045l-0.062,0.043l-0.062,0.042l-0.061,0.041l-0.06,0.038l-0.059,0.037l-0.059,0.035l-0.057,0.033l-0.057,0.031l-0.057,0.03l-0.055,0.027l-0.054,0.026l-0.054,0.023l-0.052,0.022l-0.052,0.02l-0.05,0.018l-0.05,0.016l-0.048,0.013l-0.048,0.012l-0.046,0.01l-0.045,0.007l-0.044,0.006l-0.043,0.003l-0.042,0.001l-0.042,-0.001l-0.043,-0.003l-0.044,-0.006l-0.045,-0.007l-0.046,-0.01l-0.048,-0.012l-0.048,-0.013l-0.05,-0.016l-0.05,-0.018l-0.052,-0.02l-0.052,-0.022l-0.054,-0.023l-0.054,-0.026l-0.055,-0.027l-0.057,-0.03l-0.057,-0.031l-0.057,-0.033l-0.059,-0.035l-0.059,-0.037l-0.06,-0.038l-0.061,-0.041l-0.062,-0.042l-0.062,-0.043l-0.063,-0.045l-0.063,-0.047l-0.064,-0.049l-0.065,-0.05l-0.065,-0.052l-0.066,-0.054l-0.067,-0.055l-0.066,-0.056l-0.068,-0.058l-0.067,-0.059l-0.068,-0.061l-0.069,-0.063l-0.069,-0.064l-0.069,-0.065l-0.07,-0.066l-0.069,-0.068l-0.071,-0.069l-0.141,-0.143l-0.141,-0.147l-0.143,-0.152l-0.143,-0.157l-0.143,-0.161l-0.143,-0.166l-0.143,-0.17l-0.142,-0.174l-0.142,-0.178l-0.142,-0.181l-0.14,-0.185l-0.14,-0.188l-0.138,-0.191l-0.136,-0.194l-0.135,-0.197l-0.067,-0.099l-0.067,-0.1l-0.065,-0.1l-0.066,-0.102l-0.064,-0.101l-0.064,-0.102l-0.064,-0.103l-0.063,-0.103l-0.062,-0.104l-0.062,-0.104l-0.06,-0.105l-0.061,-0.105l-0.059,-0.105l-0.059,-0.106l-0.057,-0.106l-0.057,-0.106l-0.056,-0.107l-0.056,-0.106l-0.054,-0.107l-0.053,-0.108l-0.053,-0.107l-0.052,-0.108l-0.05,-0.108l-0.05,-0.108l-0.048,-0.108l-0.048,-0.108l-0.046,-0.108l-0.045,-0.109l-0.044,-0.108l-0.043,-0.108l-0.042,-0.108l-0.041,-0.109l-0.039,-0.108l-0.038,-0.108l-0.037,-0.108l-0.035,-0.108l-0.035,-0.107l-0.032,-0.108l-0.032,-0.107l-0.03,-0.107l-0.029,-0.107l-0.027,-0.106l-0.026,-0.107l-0.024,-0.106l-0.023,-0.105l-0.021,-0.106l-0.02,-0.104l-0.018,-0.105l-0.016,-0.104l-0.015,-0.104l-0.013,-0.103l-0.012,-0.102l-0.009,-0.103l-0.008,-0.101l-0.007,-0.101l-0.004,-0.101l-0.003,-0.1l-0.001,-0.099l0.001,-0.099l0.001,-0.098l0.004,-0.097l0.004,-0.097l0.005,-0.096l0.007,-0.096l0.008,-0.095l0.009,-0.094l0.01,-0.094l0.012,-0.093l0.012,-0.092l0.014,-0.092l0.015,-0.092l0.015,-0.09l0.017,-0.09l0.019,-0.089l0.019,-0.089l0.02,-0.088l0.021,-0.087l0.023,-0.087l0.023,-0.086l0.025,-0.086l0.025,-0.084l0.027,-0.084l0.028,-0.084l0.028,-0.083l0.03,-0.082l0.03,-0.081l0.032,-0.081l0.032,-0.08l0.034,-0.079l0.034,-0.079l0.035,-0.078l0.037,-0.077l0.037,-0.077l0.038,-0.075l0.039,-0.076l0.039,-0.074l0.041,-0.074l0.042,-0.073l0.042,-0.072l0.043,-0.072l0.045,-0.071l0.044,-0.07l0.046,-0.07l0.047,-0.069l0.047,-0.068l0.048,-0.067l0.049,-0.067l0.05,-0.065l0.05,-0.066l0.052,-0.064l0.052,-0.064l0.052,-0.063l0.054,-0.062l0.054,-0.061l0.054,-0.061l0.056,-0.06l0.056,-0.059l0.057,-0.058l0.058,-0.058l0.058,-0.057l0.058,-0.056l0.06,-0.055l0.06,-0.055l0.061,-0.054l0.061,-0.053l0.062,-0.052l0.062,-0.051l0.063,-0.051l0.064,-0.05l0.064,-0.049l0.065,-0.048l0.065,-0.048l0.066,-0.046l0.066,-0.046l0.067,-0.045l0.067,-0.045l0.068,-0.043l0.068,-0.043l0.069,-0.042l0.069,-0.041l0.07,-0.04l0.07,-0.039l0.07,-0.039l0.071,-0.037l0.071,-0.037l0.072,-0.036l0.072,-0.035l0.073,-0.035l0.072,-0.033l0.074,-0.033l0.073,-0.032l0.074,-0.031l0.074,-0.03l0.075,-0.029l0.075,-0.029l0.075,-0.027l0.075,-0.027l0.076,-0.026l0.076,-0.025l0.077,-0.024l0.076,-0.023l0.077,-0.022l0.077,-0.022l0.077,-0.02l0.078,-0.02l0.077,-0.019l0.078,-0.018l0.078,-0.017l0.078,-0.016l0.079,-0.015l0.078,-0.014l0.079,-0.014l0.079,-0.012l0.079,-0.012l0.079,-0.01l0.079,-0.01l0.079,-0.009l0.08,-0.008l0.079,-0.007l0.08,-0.006l0.079,-0.005l0.08,-0.004l0.08,-0.004l0.08,-0.002l0.079,-0.002l0.08,0l0.08,0Zm-0.137,2l-0.055,0.001l-0.057,0.002l-0.057,0.002l-0.054,0.003l-0.057,0.004l-0.057,0.004l-0.057,0.005l-0.055,0.006l-0.056,0.006l-0.057,0.007l-0.057,0.008l-0.055,0.008l-0.056,0.009l-0.056,0.009l-0.057,0.011l-0.055,0.01l-0.056,0.012l-0.057,0.012l-0.055,0.013l-0.055,0.013l-0.055,0.014l-0.055,0.015l-0.056,0.015l-0.055,0.016l-0.054,0.017l-0.054,0.017l-0.055,0.018l-0.055,0.019l-0.054,0.019l-0.053,0.019l-0.054,0.021l-0.053,0.02l-0.053,0.022l-0.053,0.022l-0.053,0.023l-0.052,0.023l-0.051,0.024l-0.053,0.025l-0.051,0.025l-0.052,0.026l-0.05,0.026l-0.051,0.027l-0.051,0.028l-0.048,0.027l-0.05,0.029l-0.049,0.029l-0.048,0.029l-0.05,0.031l-0.048,0.031l-0.047,0.031l-0.047,0.032l-0.047,0.032l-0.046,0.033l-0.047,0.034l-0.046,0.034l-0.044,0.034l-0.045,0.036l-0.044,0.035l-0.045,0.037l-0.044,0.037l-0.041,0.035l-0.043,0.038l-0.043,0.039l-0.041,0.039l-0.041,0.038l-0.04,0.04l-0.04,0.04l-0.04,0.042l-0.04,0.041l-0.038,0.041l-0.037,0.041l-0.039,0.044l-0.036,0.043l-0.036,0.043l-0.037,0.045l-0.035,0.044l-0.035,0.045l-0.034,0.045l-0.034,0.047l-0.034,0.047l-0.032,0.046l-0.032,0.047l-0.032,0.049l-0.031,0.048l-0.03,0.049l-0.031,0.051l-0.028,0.048l-0.029,0.05l-0.028,0.051l-0.027,0.05l-0.027,0.053l-0.027,0.053l-0.026,0.054l-0.025,0.053l-0.024,0.053l-0.023,0.055l-0.023,0.054l-0.023,0.056l-0.022,0.056l-0.021,0.057l-0.02,0.056l-0.021,0.058l-0.019,0.059l-0.018,0.058l-0.019,0.061l-0.017,0.059l-0.016,0.058l-0.016,0.064l-0.015,0.061l-0.014,0.063l-0.014,0.063l-0.013,0.062l-0.012,0.065l-0.012,0.066l-0.01,0.064l-0.01,0.065l-0.009,0.066l-0.008,0.07l-0.008,0.067l-0.006,0.067l-0.006,0.072l-0.005,0.07l-0.004,0.069l-0.003,0.07l-0.002,0.073l-0.001,0.074l-0.001,0.071l0.001,0.065l0.001,0.062l0.003,0.067l0.005,0.069l0.005,0.067l0.006,0.068l0.009,0.071l0.009,0.077l0.011,0.073l0.011,0.073l0.014,0.079l0.014,0.077l0.016,0.078l0.017,0.079l0.019,0.081l0.02,0.084l0.021,0.082l0.022,0.083l0.024,0.085l0.026,0.088l0.026,0.086l0.028,0.086l0.028,0.087l0.03,0.088l0.032,0.091l0.033,0.089l0.033,0.089l0.035,0.091l0.037,0.092l0.037,0.091l0.037,0.09l0.04,0.093l0.041,0.094l0.042,0.092l0.042,0.093l0.044,0.093l0.044,0.093l0.046,0.093l0.047,0.095l0.047,0.092l0.049,0.094l0.049,0.094l0.05,0.093l0.051,0.093l0.052,0.094l0.052,0.094l0.054,0.093l0.053,0.092l0.055,0.091l0.055,0.093l0.057,0.093l0.057,0.092l0.057,0.091l0.057,0.09l0.058,0.09l0.059,0.09l0.06,0.091l0.058,0.086l0.123,0.179l0.122,0.173l0.124,0.172l0.125,0.169l0.125,0.164l0.127,0.163l0.127,0.158l0.126,0.154l0.128,0.151l0.126,0.147l0.126,0.142l0.124,0.136l0.123,0.132l0.123,0.127l0.123,0.124l0.055,0.056l0.06,0.057l0.058,0.056l0.057,0.054l0.057,0.052l0.055,0.05l0.054,0.049l0.055,0.048l0.054,0.047l0.052,0.043l0.05,0.042l0.05,0.04l0.048,0.038l0.047,0.037l0.047,0.035l0.043,0.032l0.041,0.03l0.041,0.029l0.018,0.012l0.018,-0.012l0.041,-0.029l0.041,-0.03l0.043,-0.032l0.047,-0.035l0.047,-0.037l0.048,-0.038l0.05,-0.04l0.05,-0.042l0.052,-0.043l0.054,-0.047l0.055,-0.048l0.054,-0.049l0.055,-0.05l0.057,-0.052l0.057,-0.054l0.058,-0.056l0.06,-0.057l0.055,-0.056l0.123,-0.124l0.123,-0.127l0.123,-0.132l0.124,-0.136l0.126,-0.142l0.126,-0.147l0.128,-0.151l0.126,-0.154l0.127,-0.158l0.127,-0.163l0.125,-0.164l0.125,-0.169l0.124,-0.172l0.122,-0.173l0.123,-0.179l0.058,-0.086l0.06,-0.091l0.059,-0.09l0.058,-0.09l0.057,-0.09l0.057,-0.091l0.057,-0.092l0.057,-0.093l0.055,-0.093l0.055,-0.091l0.053,-0.092l0.054,-0.093l0.052,-0.094l0.052,-0.094l0.051,-0.093l0.05,-0.093l0.049,-0.094l0.049,-0.094l0.047,-0.092l0.047,-0.095l0.046,-0.093l0.044,-0.093l0.044,-0.093l0.042,-0.093l0.042,-0.092l0.041,-0.094l0.04,-0.093l0.037,-0.09l0.037,-0.091l0.037,-0.092l0.035,-0.091l0.033,-0.089l0.033,-0.089l0.032,-0.091l0.03,-0.088l0.028,-0.087l0.028,-0.086l0.026,-0.086l0.026,-0.088l0.024,-0.085l0.022,-0.083l0.021,-0.082l0.02,-0.084l0.019,-0.081l0.017,-0.079l0.016,-0.078l0.014,-0.077l0.014,-0.079l0.011,-0.073l0.011,-0.073l0.009,-0.077l0.009,-0.071l0.006,-0.068l0.005,-0.067l0.005,-0.069l0.003,-0.067l0.001,-0.062l0.001,-0.065l-0.001,-0.071l-0.001,-0.074l-0.002,-0.073l-0.003,-0.07l-0.004,-0.069l-0.005,-0.07l-0.006,-0.072l-0.006,-0.067l-0.008,-0.067l-0.008,-0.07l-0.009,-0.066l-0.01,-0.065l-0.01,-0.064l-0.012,-0.066l-0.012,-0.065l-0.013,-0.062l-0.014,-0.063l-0.014,-0.063l-0.015,-0.061l-0.016,-0.064l-0.016,-0.058l-0.017,-0.059l-0.019,-0.061l-0.018,-0.058l-0.019,-0.059l-0.021,-0.058l-0.02,-0.056l-0.021,-0.057l-0.022,-0.056l-0.023,-0.056l-0.023,-0.054l-0.023,-0.055l-0.024,-0.053l-0.025,-0.053l-0.026,-0.054l-0.027,-0.053l-0.027,-0.053l-0.027,-0.05l-0.028,-0.051l-0.029,-0.05l-0.028,-0.048l-0.031,-0.051l-0.03,-0.049l-0.031,-0.048l-0.032,-0.049l-0.032,-0.047l-0.032,-0.046l-0.034,-0.047l-0.034,-0.047l-0.034,-0.045l-0.035,-0.045l-0.035,-0.044l-0.037,-0.045l-0.036,-0.043l-0.036,-0.043l-0.039,-0.044l-0.037,-0.041l-0.038,-0.041l-0.04,-0.041l-0.04,-0.042l-0.04,-0.04l-0.04,-0.04l-0.041,-0.038l-0.041,-0.039l-0.043,-0.039l-0.043,-0.038l-0.041,-0.035l-0.044,-0.037l-0.045,-0.037l-0.044,-0.035l-0.045,-0.036l-0.044,-0.034l-0.046,-0.034l-0.047,-0.034l-0.046,-0.033l-0.047,-0.032l-0.047,-0.032l-0.047,-0.031l-0.048,-0.031l-0.05,-0.031l-0.048,-0.029l-0.049,-0.029l-0.05,-0.029l-0.048,-0.027l-0.051,-0.028l-0.051,-0.027l-0.05,-0.026l-0.052,-0.026l-0.051,-0.025l-0.053,-0.025l-0.051,-0.024l-0.052,-0.023l-0.053,-0.023l-0.053,-0.022l-0.053,-0.022l-0.053,-0.02l-0.054,-0.021l-0.053,-0.019l-0.054,-0.019l-0.055,-0.019l-0.055,-0.018l-0.054,-0.017l-0.054,-0.017l-0.055,-0.016l-0.056,-0.015l-0.055,-0.015l-0.055,-0.014l-0.055,-0.013l-0.055,-0.013l-0.057,-0.012l-0.056,-0.012l-0.055,-0.01l-0.057,-0.011l-0.056,-0.009l-0.056,-0.009l-0.055,-0.008l-0.057,-0.008l-0.057,-0.007l-0.056,-0.006l-0.055,-0.006l-0.057,-0.005l-0.057,-0.004l-0.057,-0.004l-0.054,-0.003l-0.057,-0.002l-0.057,-0.002l-0.055,-0.001l-0.057,0l-0.057,0Z" style="fill:#333;"/></svg>