<?xml version="1.0" encoding="UTF-8" standalone="no"?><!DOCTYPE svg PUBLIC "-//W3C//DTD SVG 1.1//EN" "http://www.w3.org/Graphics/SVG/1.1/DTD/svg11.dtd"><svg width="100%" height="100%" viewBox="0 0 24 24" version="1.1" xmlns="http://www.w3.org/2000/svg" xmlns:xlink="http://www.w3.org/1999/xlink" xml:space="preserve" xmlns:serif="http://www.serif.com/" style="fill-rule:evenodd;clip-rule:evenodd;stroke-linejoin:round;stroke-miterlimit:1.41421;"><rect id="object.filled.person" x="0" y="0" width="24" height="24" style="fill:none;"/><path d="M12.077,6.001l0.076,0.003l0.076,0.005l0.077,0.006l0.076,0.009l0.074,0.011l0.074,0.012l0.074,0.014l0.072,0.016l0.072,0.017l0.073,0.02l0.071,0.021l0.069,0.023l0.07,0.024l0.07,0.027l0.067,0.027l0.066,0.029l0.067,0.031l0.066,0.033l0.064,0.034l0.063,0.035l0.063,0.038l0.062,0.038l0.059,0.039l0.058,0.04l0.059,0.044l0.058,0.044l0.055,0.044l0.055,0.047l0.054,0.048l0.052,0.048l0.053,0.051l0.049,0.051l0.049,0.052l0.048,0.055l0.046,0.054l0.046,0.057l0.043,0.057l0.043,0.058l0.04,0.059l0.041,0.061l0.038,0.062l0.036,0.061l0.036,0.063l0.034,0.064l0.032,0.065l0.031,0.066l0.03,0.068l0.028,0.068l0.026,0.069l0.024,0.07l0.023,0.07l0.021,0.07l0.019,0.071l0.018,0.073l0.016,0.073l0.014,0.074l0.013,0.074l0.01,0.076l0.009,0.075l0.006,0.075l0.005,0.076l0.003,0.077l0.001,0.077l-0.001,0.077l-0.003,0.077l-0.005,0.076l-0.006,0.075l-0.009,0.075l-0.01,0.076l-0.013,0.074l-0.014,0.074l-0.016,0.073l-0.018,0.073l-0.019,0.071l-0.021,0.07l-0.023,0.07l-0.024,0.07l-0.026,0.069l-0.028,0.068l-0.03,0.068l-0.031,0.066l-0.032,0.065l-0.034,0.064l-0.036,0.063l-0.036,0.061l-0.038,0.062l-0.041,0.061l-0.04,0.059l-0.043,0.058l-0.043,0.057l-0.046,0.057l-0.046,0.054l-0.048,0.055l-0.049,0.052l-0.049,0.051l-0.053,0.051l-0.052,0.048l-0.054,0.048l-0.055,0.047l-0.055,0.044l-0.058,0.044l-0.059,0.044l-0.058,0.04l-0.059,0.039l-0.062,0.038l-0.063,0.038l-0.063,0.035l-0.064,0.034l-0.066,0.033l-0.067,0.031l-0.066,0.029l-0.067,0.027l-0.07,0.027l-0.07,0.024l-0.069,0.023l-0.071,0.021l-0.073,0.02l-0.072,0.017l-0.072,0.016l-0.074,0.014l-0.074,0.012l-0.074,0.011l-0.076,0.009l-0.077,0.006l-0.076,0.005l-0.076,0.003l-0.077,0.001l-0.077,-0.001l-0.076,-0.003l-0.076,-0.005l-0.077,-0.006l-0.076,-0.009l-0.074,-0.011l-0.074,-0.012l-0.074,-0.014l-0.072,-0.016l-0.072,-0.017l-0.073,-0.02l-0.071,-0.021l-0.069,-0.023l-0.07,-0.024l-0.07,-0.027l-0.067,-0.027l-0.066,-0.029l-0.067,-0.031l-0.066,-0.033l-0.064,-0.034l-0.063,-0.035l-0.063,-0.038l-0.062,-0.038l-0.059,-0.039l-0.058,-0.04l-0.059,-0.044l-0.058,-0.044l-0.055,-0.044l-0.055,-0.047l-0.054,-0.048l-0.052,-0.048l-0.053,-0.051l-0.049,-0.051l-0.049,-0.052l-0.048,-0.055l-0.046,-0.054l-0.046,-0.057l-0.043,-0.057l-0.043,-0.058l-0.04,-0.059l-0.041,-0.061l-0.038,-0.062l-0.036,-0.061l-0.036,-0.063l-0.034,-0.064l-0.032,-0.065l-0.031,-0.066l-0.03,-0.068l-0.028,-0.068l-0.026,-0.069l-0.024,-0.07l-0.023,-0.07l-0.021,-0.07l-0.019,-0.071l-0.018,-0.073l-0.016,-0.073l-0.014,-0.074l-0.013,-0.074l-0.01,-0.076l-0.009,-0.075l-0.006,-0.075l-0.005,-0.076l-0.003,-0.077l-0.001,-0.077l0.001,-0.077l0.003,-0.077l0.005,-0.076l0.006,-0.075l0.009,-0.075l0.01,-0.076l0.013,-0.074l0.014,-0.074l0.016,-0.073l0.018,-0.073l0.019,-0.071l0.021,-0.07l0.023,-0.07l0.024,-0.07l0.026,-0.069l0.028,-0.068l0.03,-0.068l0.031,-0.066l0.032,-0.065l0.034,-0.064l0.036,-0.063l0.036,-0.061l0.038,-0.062l0.041,-0.061l0.04,-0.059l0.043,-0.058l0.043,-0.057l0.046,-0.057l0.046,-0.054l0.048,-0.055l0.049,-0.052l0.049,-0.051l0.053,-0.051l0.052,-0.048l0.054,-0.048l0.055,-0.047l0.055,-0.044l0.058,-0.044l0.059,-0.044l0.058,-0.04l0.059,-0.039l0.062,-0.038l0.063,-0.038l0.063,-0.035l0.064,-0.034l0.066,-0.033l0.067,-0.031l0.066,-0.029l0.067,-0.027l0.07,-0.027l0.07,-0.024l0.069,-0.023l0.071,-0.021l0.073,-0.02l0.072,-0.017l0.072,-0.016l0.074,-0.014l0.074,-0.012l0.074,-0.011l0.076,-0.009l0.077,-0.006l0.076,-0.005l0.076,-0.003l0.077,-0.001l0.077,0.001Zm-0.129,1l-0.051,0.002l-0.051,0.003l-0.05,0.004l-0.051,0.006l-0.049,0.007l-0.05,0.008l-0.049,0.01l-0.048,0.01l-0.049,0.012l-0.047,0.013l-0.047,0.014l-0.047,0.015l-0.046,0.016l-0.046,0.018l-0.045,0.018l-0.045,0.02l-0.044,0.02l-0.043,0.022l-0.043,0.023l-0.042,0.023l-0.042,0.025l-0.041,0.025l-0.04,0.027l-0.039,0.027l-0.039,0.029l-0.038,0.029l-0.038,0.03l-0.037,0.031l-0.035,0.032l-0.036,0.033l-0.034,0.033l-0.033,0.034l-0.033,0.036l-0.032,0.035l-0.031,0.037l-0.03,0.038l-0.029,0.038l-0.029,0.039l-0.027,0.039l-0.027,0.04l-0.025,0.041l-0.025,0.042l-0.023,0.042l-0.023,0.043l-0.022,0.043l-0.02,0.044l-0.02,0.045l-0.018,0.045l-0.018,0.046l-0.016,0.046l-0.015,0.047l-0.014,0.047l-0.013,0.047l-0.012,0.049l-0.01,0.048l-0.01,0.049l-0.008,0.05l-0.007,0.049l-0.006,0.051l-0.004,0.05l-0.003,0.051l-0.002,0.051l-0.001,0.052l0.001,0.052l0.002,0.051l0.003,0.051l0.004,0.05l0.006,0.051l0.007,0.049l0.008,0.05l0.01,0.049l0.01,0.048l0.012,0.049l0.013,0.047l0.014,0.047l0.015,0.047l0.016,0.046l0.018,0.046l0.018,0.045l0.02,0.045l0.02,0.044l0.022,0.043l0.023,0.043l0.023,0.042l0.025,0.042l0.025,0.041l0.027,0.04l0.027,0.039l0.029,0.039l0.029,0.038l0.03,0.038l0.031,0.037l0.032,0.035l0.033,0.036l0.033,0.034l0.034,0.033l0.036,0.033l0.035,0.032l0.037,0.031l0.038,0.03l0.038,0.029l0.039,0.029l0.039,0.027l0.04,0.027l0.041,0.025l0.042,0.025l0.042,0.023l0.043,0.023l0.043,0.022l0.044,0.02l0.045,0.02l0.045,0.018l0.046,0.018l0.046,0.016l0.047,0.015l0.047,0.014l0.047,0.013l0.049,0.012l0.048,0.01l0.049,0.01l0.05,0.008l0.049,0.007l0.051,0.006l0.05,0.004l0.051,0.003l0.051,0.002l0.052,0.001l0.052,-0.001l0.051,-0.002l0.051,-0.003l0.05,-0.004l0.051,-0.006l0.049,-0.007l0.05,-0.008l0.049,-0.01l0.048,-0.01l0.049,-0.012l0.047,-0.013l0.047,-0.014l0.047,-0.015l0.046,-0.016l0.046,-0.018l0.045,-0.018l0.045,-0.02l0.044,-0.02l0.043,-0.022l0.043,-0.023l0.042,-0.023l0.042,-0.025l0.041,-0.025l0.04,-0.027l0.039,-0.027l0.039,-0.029l0.038,-0.029l0.038,-0.03l0.037,-0.031l0.035,-0.032l0.036,-0.033l0.034,-0.033l0.033,-0.034l0.033,-0.036l0.032,-0.035l0.031,-0.037l0.03,-0.038l0.029,-0.038l0.029,-0.039l0.027,-0.039l0.027,-0.04l0.025,-0.041l0.025,-0.042l0.023,-0.042l0.023,-0.043l0.022,-0.043l0.02,-0.044l0.02,-0.045l0.018,-0.045l0.018,-0.046l0.016,-0.046l0.015,-0.047l0.014,-0.047l0.013,-0.047l0.012,-0.049l0.01,-0.048l0.01,-0.049l0.008,-0.05l0.007,-0.049l0.006,-0.051l0.004,-0.05l0.003,-0.051l0.002,-0.051l0.001,-0.052l-0.001,-0.052l-0.002,-0.051l-0.003,-0.051l-0.004,-0.05l-0.006,-0.051l-0.007,-0.049l-0.008,-0.05l-0.01,-0.049l-0.01,-0.048l-0.012,-0.049l-0.013,-0.047l-0.014,-0.047l-0.015,-0.047l-0.016,-0.046l-0.018,-0.046l-0.018,-0.045l-0.02,-0.045l-0.02,-0.044l-0.022,-0.043l-0.023,-0.043l-0.023,-0.042l-0.025,-0.042l-0.025,-0.041l-0.027,-0.04l-0.027,-0.039l-0.029,-0.039l-0.029,-0.038l-0.03,-0.038l-0.031,-0.037l-0.032,-0.035l-0.033,-0.036l-0.033,-0.034l-0.034,-0.033l-0.036,-0.033l-0.035,-0.032l-0.037,-0.031l-0.038,-0.03l-0.038,-0.029l-0.039,-0.029l-0.039,-0.027l-0.04,-0.027l-0.041,-0.025l-0.042,-0.025l-0.042,-0.023l-0.043,-0.023l-0.043,-0.022l-0.044,-0.02l-0.045,-0.02l-0.045,-0.018l-0.046,-0.018l-0.046,-0.016l-0.047,-0.015l-0.047,-0.014l-0.047,-0.013l-0.049,-0.012l-0.048,-0.01l-0.049,-0.01l-0.05,-0.008l-0.049,-0.007l-0.051,-0.006l-0.05,-0.004l-0.051,-0.003l-0.051,-0.002l-0.052,-0.001l-0.052,0.001Z" style="fill:#333;"/><path d="M14.41,12.587l0.053,0.003l0.054,0.006l0.053,0.01l0.052,0.011l0.052,0.015l0.051,0.018l0.05,0.02l0.048,0.023l0.048,0.025l0.102,0.058l0.112,0.068l0.109,0.071l0.106,0.072l0.105,0.075l0.103,0.078l0.1,0.081l0.097,0.083l0.094,0.086l0.092,0.088l0.09,0.091l0.086,0.093l0.08,0.093l0.044,0.052l0.039,0.048l0.039,0.051l0.039,0.052l0.036,0.05l0.036,0.051l0.037,0.054l0.034,0.053l0.034,0.054l0.033,0.054l0.031,0.055l0.033,0.058l0.029,0.054l0.028,0.056l0.029,0.058l0.027,0.057l0.026,0.059l0.025,0.059l0.024,0.059l0.022,0.06l0.023,0.062l0.02,0.061l0.019,0.06l0.019,0.063l0.017,0.062l0.016,0.062l0.015,0.064l0.013,0.064l0.012,0.062l0.012,0.065l0.01,0.065l0.008,0.065l0.007,0.066l0.006,0.065l0.005,0.066l0.003,0.065l0.002,0.068l0.001,0.062l0,2.004l-0.002,0.056l-0.004,0.056l-0.008,0.056l-0.011,0.055l-0.014,0.054l-0.017,0.053l-0.02,0.053l-0.023,0.051l-0.026,0.05l-0.028,0.048l-0.031,0.047l-0.034,0.044l-0.036,0.043l-0.039,0.041l-0.041,0.039l-0.043,0.036l-0.044,0.034l-0.047,0.031l-0.048,0.028l-0.05,0.026l-0.051,0.023l-0.053,0.02l-0.053,0.017l-0.054,0.014l-0.055,0.011l-0.056,0.008l-0.056,0.004l-0.056,0.002l-8,0l-0.056,-0.002l-0.056,-0.004l-0.056,-0.008l-0.055,-0.011l-0.054,-0.014l-0.053,-0.017l-0.053,-0.02l-0.051,-0.023l-0.05,-0.026l-0.048,-0.028l-0.047,-0.031l-0.044,-0.034l-0.043,-0.036l-0.041,-0.039l-0.039,-0.041l-0.036,-0.043l-0.034,-0.044l-0.031,-0.047l-0.028,-0.048l-0.026,-0.05l-0.023,-0.051l-0.02,-0.053l-0.017,-0.053l-0.014,-0.054l-0.011,-0.055l-0.008,-0.056l-0.004,-0.056l-0.002,-0.056l0,-2.004l0.001,-0.062l0.002,-0.068l0.003,-0.065l0.005,-0.066l0.006,-0.065l0.007,-0.066l0.008,-0.065l0.01,-0.065l0.012,-0.065l0.012,-0.062l0.013,-0.064l0.015,-0.064l0.016,-0.062l0.017,-0.062l0.019,-0.063l0.019,-0.06l0.02,-0.061l0.023,-0.062l0.022,-0.06l0.024,-0.059l0.025,-0.059l0.026,-0.059l0.027,-0.057l0.029,-0.058l0.028,-0.056l0.029,-0.054l0.033,-0.058l0.031,-0.055l0.033,-0.054l0.034,-0.054l0.034,-0.053l0.037,-0.054l0.036,-0.051l0.036,-0.05l0.039,-0.052l0.039,-0.051l0.039,-0.048l0.044,-0.052l0.08,-0.093l0.086,-0.093l0.09,-0.091l0.092,-0.088l0.094,-0.086l0.097,-0.083l0.1,-0.081l0.103,-0.078l0.105,-0.075l0.106,-0.072l0.109,-0.071l0.112,-0.068l0.102,-0.058l0.048,-0.025l0.048,-0.023l0.05,-0.02l0.051,-0.018l0.052,-0.015l0.052,-0.011l0.053,-0.01l0.054,-0.006l0.053,-0.003l0.054,-0.001l0.054,0.003l0.053,0.005l0.053,0.008l0.053,0.011l0.052,0.014l0.051,0.017l0.064,0.023l0.06,0.02l0.061,0.02l0.061,0.02l0.061,0.019l0.06,0.018l0.062,0.017l0.061,0.017l0.062,0.016l0.061,0.015l0.063,0.015l0.064,0.015l0.062,0.013l0.062,0.013l0.064,0.012l0.064,0.012l0.064,0.011l0.063,0.01l0.065,0.009l0.065,0.009l0.064,0.008l0.066,0.008l0.064,0.007l0.066,0.006l0.066,0.005l0.066,0.005l0.065,0.004l0.067,0.003l0.066,0.003l0.067,0.002l0.067,0.001l0.067,0l0.067,0l0.067,-0.001l0.067,-0.002l0.066,-0.003l0.067,-0.003l0.065,-0.004l0.066,-0.005l0.066,-0.005l0.066,-0.006l0.064,-0.007l0.066,-0.008l0.064,-0.008l0.065,-0.009l0.065,-0.009l0.063,-0.01l0.064,-0.011l0.064,-0.012l0.064,-0.012l0.062,-0.013l0.062,-0.013l0.064,-0.015l0.063,-0.015l0.061,-0.015l0.062,-0.016l0.061,-0.017l0.062,-0.017l0.06,-0.018l0.061,-0.019l0.061,-0.02l0.061,-0.02l0.06,-0.02l0.064,-0.023l0.051,-0.017l0.052,-0.014l0.053,-0.011l0.053,-0.008l0.053,-0.005l0.054,-0.003l0.054,0.001Zm-0.105,1.024l-0.07,0.024l-0.07,0.023l-0.071,0.023l-0.071,0.022l-0.071,0.021l-0.072,0.02l-0.072,0.02l-0.072,0.019l-0.073,0.018l-0.073,0.017l-0.073,0.017l-0.073,0.016l-0.074,0.015l-0.074,0.014l-0.074,0.014l-0.075,0.012l-0.075,0.012l-0.075,0.011l-0.075,0.011l-0.075,0.009l-0.076,0.009l-0.076,0.008l-0.077,0.007l-0.076,0.006l-0.077,0.006l-0.077,0.004l-0.077,0.004l-0.078,0.003l-0.077,0.002l-0.078,0.002l-0.078,0l-0.078,0l-0.078,-0.002l-0.077,-0.002l-0.078,-0.003l-0.077,-0.004l-0.077,-0.004l-0.077,-0.006l-0.076,-0.006l-0.077,-0.007l-0.076,-0.008l-0.076,-0.009l-0.075,-0.009l-0.075,-0.011l-0.075,-0.011l-0.075,-0.012l-0.075,-0.012l-0.074,-0.014l-0.074,-0.014l-0.074,-0.015l-0.073,-0.016l-0.073,-0.017l-0.073,-0.017l-0.073,-0.018l-0.072,-0.019l-0.072,-0.02l-0.072,-0.02l-0.071,-0.021l-0.071,-0.022l-0.071,-0.023l-0.07,-0.023l-0.07,-0.024l-0.07,-0.025l-0.091,0.052l-0.089,0.055l-0.087,0.056l-0.085,0.057l-0.083,0.06l-0.081,0.061l-0.078,0.063l-0.075,0.065l-0.074,0.066l-0.07,0.068l-0.069,0.069l-0.065,0.071l-0.063,0.073l-0.03,0.036l-0.03,0.038l-0.029,0.037l-0.028,0.038l-0.028,0.038l-0.027,0.038l-0.026,0.039l-0.026,0.039l-0.024,0.039l-0.024,0.04l-0.024,0.04l-0.022,0.04l-0.022,0.041l-0.021,0.041l-0.02,0.041l-0.019,0.041l-0.019,0.042l-0.018,0.042l-0.017,0.042l-0.016,0.043l-0.015,0.042l-0.015,0.043l-0.013,0.044l-0.013,0.043l-0.012,0.044l-0.011,0.044l-0.011,0.044l-0.009,0.044l-0.009,0.045l-0.008,0.045l-0.006,0.045l-0.006,0.045l-0.005,0.045l-0.005,0.046l-0.003,0.046l-0.002,0.046l-0.002,0.046l0,0.046l0,2l8,0l0,-2l0,-0.046l-0.002,-0.046l-0.002,-0.046l-0.003,-0.046l-0.005,-0.046l-0.005,-0.045l-0.006,-0.045l-0.006,-0.045l-0.008,-0.045l-0.009,-0.045l-0.009,-0.044l-0.011,-0.044l-0.011,-0.044l-0.012,-0.044l-0.013,-0.043l-0.013,-0.044l-0.015,-0.043l-0.015,-0.042l-0.016,-0.043l-0.017,-0.042l-0.018,-0.042l-0.019,-0.042l-0.019,-0.041l-0.02,-0.041l-0.021,-0.041l-0.022,-0.041l-0.022,-0.04l-0.024,-0.04l-0.024,-0.04l-0.024,-0.039l-0.026,-0.039l-0.026,-0.039l-0.027,-0.038l-0.028,-0.038l-0.028,-0.038l-0.029,-0.037l-0.03,-0.038l-0.03,-0.036l-0.063,-0.073l-0.065,-0.071l-0.069,-0.069l-0.07,-0.068l-0.074,-0.066l-0.075,-0.065l-0.078,-0.063l-0.081,-0.061l-0.083,-0.06l-0.085,-0.057l-0.087,-0.056l-0.089,-0.055l-0.091,-0.052l-0.07,0.025Z" style="fill:#333;"/></svg>