<?xml version="1.0" encoding="UTF-8" standalone="no"?><!DOCTYPE svg PUBLIC "-//W3C//DTD SVG 1.1//EN" "http://www.w3.org/Graphics/SVG/1.1/DTD/svg11.dtd"><svg width="100%" height="100%" viewBox="0 0 24 24" version="1.1" xmlns="http://www.w3.org/2000/svg" xmlns:xlink="http://www.w3.org/1999/xlink" xml:space="preserve" xmlns:serif="http://www.serif.com/" style="fill-rule:evenodd;clip-rule:evenodd;stroke-linejoin:round;stroke-miterlimit:1.41421;"><rect id="object.regular.lock" x="0" y="0" width="24" height="24" style="fill:none;"/><path d="M19,20c0,0.552 -0.448,1 -1,1c-2.577,0 -9.423,0 -12,0c-0.552,0 -1,-0.448 -1,-1c0,-2.26 0,-7.74 0,-10c0,-0.552 0.448,-1 1,-1c0.873,0 2,0 2,0c0,0 0,-0.937 0,-2c0,-1.657 1.343,-3 3,-3c0.654,0 1.346,0 2,0c1.657,0 3,1.343 3,3c0,1.063 0,2 0,2c0,0 1.127,0 2,0c0.552,0 1,0.448 1,1c0,2.26 0,7.74 0,10Zm-2,-9l-10,0l0,8l10,0l0,-8Zm-6,4c0,-0.552 0.448,-1 1,-1c0.552,0 1,0.448 1,1c0,0.552 -0.448,1 -1,1c-0.552,0 -1,-0.448 -1,-1c0,0 0,0 0,0Zm3,-8c0,-0.552 -0.448,-1 -1,-1c-0.611,0 -1.389,0 -2,0c-0.552,0 -1,0.448 -1,1c0,0.873 0,2 0,2l4,0c0,0 0,-1.127 0,-2Z" style="fill:#333;"/></svg>