<?xml version="1.0" encoding="UTF-8" standalone="no"?><!DOCTYPE svg PUBLIC "-//W3C//DTD SVG 1.1//EN" "http://www.w3.org/Graphics/SVG/1.1/DTD/svg11.dtd"><svg width="100%" height="100%" viewBox="0 0 24 24" version="1.1" xmlns="http://www.w3.org/2000/svg" xmlns:xlink="http://www.w3.org/1999/xlink" xml:space="preserve" xmlns:serif="http://www.serif.com/" style="fill-rule:evenodd;clip-rule:evenodd;stroke-linecap:round;stroke-linejoin:round;stroke-miterlimit:1.5;"><rect id="object.thin.compass" x="0.003" y="0" width="24" height="24" style="fill:none;"/><path d="M12.003,2c5.519,0 10,4.481 10,10c0,5.519 -4.481,10 -10,10c-5.519,0 -10,-4.481 -10,-10c0,-5.519 4.481,-10 10,-10Zm0,1c4.967,0 9,4.033 9,9c0,4.967 -4.033,9 -9,9c-4.967,0 -9,-4.033 -9,-9c0,-4.967 4.033,-9 9,-9Z" style="fill:#333;"/><path d="M12.003,4l0,1" style="fill:none;stroke:#333;stroke-width:1px;"/><path d="M12.003,19l0,1" style="fill:none;stroke:#333;stroke-width:1px;"/><path d="M4,12l1,0" style="fill:none;stroke:#333;stroke-width:1px;"/><path d="M20,12l-1,0" style="fill:none;stroke:#333;stroke-width:1px;"/><path d="M13.857,13.515c-0.084,0.14 -0.202,0.258 -0.342,0.342c-0.7,0.42 -2.985,1.791 -5,3c-0.394,0.237 -0.898,0.175 -1.222,-0.15c-0.325,-0.324 -0.387,-0.828 -0.15,-1.222c1.209,-2.015 2.58,-4.3 3,-5c0.084,-0.14 0.202,-0.258 0.342,-0.342c0.7,-0.42 2.985,-1.791 5,-3c0.394,-0.237 0.898,-0.175 1.222,0.15c0.325,0.324 0.387,0.828 0.15,1.222c-1.209,2.015 -2.58,4.3 -3,5Zm-5.857,2.485l5,-3l-2,-2l-3,5Z" style="fill:#333;"/></svg>