<?xml version="1.0" encoding="UTF-8" standalone="no"?><!DOCTYPE svg PUBLIC "-//W3C//DTD SVG 1.1//EN" "http://www.w3.org/Graphics/SVG/1.1/DTD/svg11.dtd"><svg width="100%" height="100%" viewBox="0 0 24 24" version="1.1" xmlns="http://www.w3.org/2000/svg" xmlns:xlink="http://www.w3.org/1999/xlink" xml:space="preserve" xmlns:serif="http://www.serif.com/" style="fill-rule:evenodd;clip-rule:evenodd;stroke-linejoin:round;stroke-miterlimit:1.41421;"><rect id="object.real.window" x="0.003" y="0" width="24" height="24" style="fill:none;"/><path d="M22.003,3c0,-0.552 -0.448,-1 -1,-1l-18,0c-0.552,0 -1,0.448 -1,1l0,18c0,0.552 0.448,1 1,1l18,0c0.552,0 1,-0.448 1,-1l0,-18Z" style="fill:url(#_Linear1);"/><rect x="2.003" y="6" width="20" height="8" style="fill:#333;fill-opacity:0.501961;"/><clipPath id="_clip2"><rect x="2.003" y="6" width="20" height="8"/></clipPath><g clip-path="url(#_clip2)"><g><path d="M1.503,13.5c0,0 4.629,-3.968 6.358,-5.45c0.371,-0.318 0.916,-0.321 1.291,-0.009c1.553,1.294 5.351,4.459 5.351,4.459l0,4l-13,0" style="fill:url(#_Linear3);"/><path d="M1.503,13.5c0,0 4.629,-3.968 6.358,-5.45c0.371,-0.318 0.916,-0.321 1.291,-0.009c1.553,1.294 5.351,4.459 5.351,4.459l0,4l-13,0" style="fill:url(#_Linear4);"/></g><g><path d="M21.503,14l-1,2.5l-12.5,0c0,0 5.469,-4.785 7.363,-6.443c0.368,-0.321 0.914,-0.33 1.292,-0.021c1.458,1.193 4.845,3.964 4.845,3.964Z" style="fill:url(#_Linear5);"/><path d="M21.503,14l-1,2.5l-12.5,0c0,0 5.469,-4.785 7.363,-6.443c0.368,-0.321 0.914,-0.33 1.292,-0.021c1.458,1.193 4.845,3.964 4.845,3.964Z" style="fill:url(#_Linear6);"/></g></g><path d="M11.497,19l-6.994,0c-0.276,0 -0.5,-0.224 -0.5,-0.5c0,-0.276 0.224,-0.5 0.5,-0.5l6.994,0c0.276,0 0.5,0.224 0.5,0.5c0,0.276 -0.224,0.5 -0.5,0.5Zm3.006,-3c0.276,0 0.5,0.224 0.5,0.5c0,0.276 -0.224,0.5 -0.5,0.5l-10,0c-0.276,0 -0.5,-0.224 -0.5,-0.5c0,-0.276 0.224,-0.5 0.5,-0.5l10,0Zm-7.5,-13c0.552,0 1,0.448 1,1c0,0.552 -0.448,1 -1,1c-0.552,0 -1,-0.448 -1,-1c0,-0.552 0.448,-1 1,-1Zm3,0c0.552,0 1,0.448 1,1c0,0.552 -0.448,1 -1,1c-0.552,0 -1,-0.448 -1,-1c0,-0.552 0.448,-1 1,-1Zm-6,0c0.552,0 1,0.448 1,1c0,0.552 -0.448,1 -1,1c-0.552,0 -1,-0.448 -1,-1c0,-0.552 0.448,-1 1,-1Z" style="fill:#333;"/><defs><linearGradient id="_Linear1" x1="0" y1="0" x2="1" y2="0" gradientUnits="userSpaceOnUse" gradientTransform="matrix(-20,20,-20.1914,-19.8104,22.0029,2)"><stop offset="0" style="stop-color:#fff;stop-opacity:1"/><stop offset="1" style="stop-color:#666;stop-opacity:1"/></linearGradient><linearGradient id="_Linear3" x1="0" y1="0" x2="1" y2="0" gradientUnits="userSpaceOnUse" gradientTransform="matrix(-20,20.1914,-20.1914,-20,22.0029,1.80859)"><stop offset="0" style="stop-color:#fff;stop-opacity:1"/><stop offset="1" style="stop-color:#666;stop-opacity:1"/></linearGradient><linearGradient id="_Linear4" x1="0" y1="0" x2="1" y2="0" gradientUnits="userSpaceOnUse" gradientTransform="matrix(-20,20.1914,-20.1914,-20,22.0029,1.80859)"><stop offset="0" style="stop-color:#fff;stop-opacity:1"/><stop offset="1" style="stop-color:#666;stop-opacity:1"/></linearGradient><linearGradient id="_Linear5" x1="0" y1="0" x2="1" y2="0" gradientUnits="userSpaceOnUse" gradientTransform="matrix(-20,20.1914,-20.1914,-20,22.0029,1.80859)"><stop offset="0" style="stop-color:#fff;stop-opacity:1"/><stop offset="1" style="stop-color:#666;stop-opacity:1"/></linearGradient><linearGradient id="_Linear6" x1="0" y1="0" x2="1" y2="0" gradientUnits="userSpaceOnUse" gradientTransform="matrix(-20,20.1914,-20.1914,-20,22.0029,1.80859)"><stop offset="0" style="stop-color:#fff;stop-opacity:1"/><stop offset="1" style="stop-color:#666;stop-opacity:1"/></linearGradient></defs></svg>