<?xml version="1.0" encoding="UTF-8" standalone="no"?><!DOCTYPE svg PUBLIC "-//W3C//DTD SVG 1.1//EN" "http://www.w3.org/Graphics/SVG/1.1/DTD/svg11.dtd"><svg width="100%" height="100%" viewBox="0 0 24 24" version="1.1" xmlns="http://www.w3.org/2000/svg" xmlns:xlink="http://www.w3.org/1999/xlink" xml:space="preserve" xmlns:serif="http://www.serif.com/" style="fill-rule:evenodd;clip-rule:evenodd;stroke-linejoin:round;stroke-miterlimit:1.41421;"><rect id="object.real.key" x="0.003" y="0" width="24" height="24" style="fill:none;"/><path d="M9.877,13c-0.445,1.724 -2.012,3 -3.874,3c-2.208,0 -4,-1.792 -4,-4c0,-2.208 1.792,-4 4,-4c1.862,0 3.429,1.276 3.874,3l11.626,0c0.276,0 0.5,0.224 0.5,0.5l0,3c0,0.276 -0.224,0.5 -0.5,0.5l-4,0c-0.276,0 -0.5,-0.224 -0.5,-0.5l0,-1.5l-7.126,0Zm-3.874,-3c1.104,0 2,0.896 2,2c0,1.104 -0.896,2 -2,2c-1.104,0 -2,-0.896 -2,-2c0,-1.104 0.896,-2 2,-2Z" style="fill:url(#_Linear1);"/><clipPath id="_clip2"><path d="M9.877,13c-0.445,1.724 -2.012,3 -3.874,3c-2.208,0 -4,-1.792 -4,-4c0,-2.208 1.792,-4 4,-4c1.862,0 3.429,1.276 3.874,3l11.626,0c0.276,0 0.5,0.224 0.5,0.5l0,3c0,0.276 -0.224,0.5 -0.5,0.5l-4,0c-0.276,0 -0.5,-0.224 -0.5,-0.5l0,-1.5l-7.126,0Zm-3.874,-3c1.104,0 2,0.896 2,2c0,1.104 -0.896,2 -2,2c-1.104,0 -2,-0.896 -2,-2c0,-1.104 0.896,-2 2,-2Z"/></clipPath><g clip-path="url(#_clip2)"><path d="M23.003,13c0,-0.552 -0.448,-1 -1,-1l-4,0c-0.552,0 -1,0.448 -1,1l0,2c0,0.552 0.448,1 1,1l4,0c0.552,0 1,-0.448 1,-1l0,-2Z" style="fill:#333;fill-opacity:0.501961;"/></g><defs><linearGradient id="_Linear1" x1="0" y1="0" x2="1" y2="0" gradientUnits="userSpaceOnUse" gradientTransform="matrix(-20,20,-20,-20,22.0029,2)"><stop offset="0" style="stop-color:#fff;stop-opacity:1"/><stop offset="1" style="stop-color:#666;stop-opacity:1"/></linearGradient></defs></svg>