<?xml version="1.0" encoding="UTF-8" standalone="no"?><!DOCTYPE svg PUBLIC "-//W3C//DTD SVG 1.1//EN" "http://www.w3.org/Graphics/SVG/1.1/DTD/svg11.dtd"><svg width="100%" height="100%" viewBox="0 0 24 24" version="1.1" xmlns="http://www.w3.org/2000/svg" xmlns:xlink="http://www.w3.org/1999/xlink" xml:space="preserve" xmlns:serif="http://www.serif.com/" style="fill-rule:evenodd;clip-rule:evenodd;stroke-linecap:round;stroke-linejoin:round;stroke-miterlimit:1.5;"><rect id="object.real.suitcase" x="0.003" y="0" width="24" height="24" style="fill:none;"/><path d="M9.503,6.5l0,-2l5,0l0,2" style="fill:none;stroke:#333;stroke-width:1px;"/><path d="M22.003,7c0,-0.552 -0.448,-1 -1,-1l-18,0c-0.552,0 -1,0.448 -1,1l0,12c0,0.552 0.448,1 1,1l18,0c0.552,0 1,-0.448 1,-1l0,-12Z" style="fill:url(#_Linear1);"/><clipPath id="_clip2"><path d="M22.003,7c0,-0.552 -0.448,-1 -1,-1l-18,0c-0.552,0 -1,0.448 -1,1l0,12c0,0.552 0.448,1 1,1l18,0c0.552,0 1,-0.448 1,-1l0,-12Z"/></clipPath><g clip-path="url(#_clip2)"><rect x="18.503" y="6" width="4" height="14" style="fill:#333;fill-opacity:0.501961;"/><rect x="2.003" y="6" width="4" height="14" style="fill:#333;fill-opacity:0.501961;"/></g><defs><linearGradient id="_Linear1" x1="0" y1="0" x2="1" y2="0" gradientUnits="userSpaceOnUse" gradientTransform="matrix(-20,20,-20,-20,22.0029,2)"><stop offset="0" style="stop-color:#fff;stop-opacity:1"/><stop offset="1" style="stop-color:#666;stop-opacity:1"/></linearGradient></defs></svg>