<?xml version="1.0" encoding="UTF-8" standalone="no"?><!DOCTYPE svg PUBLIC "-//W3C//DTD SVG 1.1//EN" "http://www.w3.org/Graphics/SVG/1.1/DTD/svg11.dtd"><svg width="100%" height="100%" viewBox="0 0 24 24" version="1.1" xmlns="http://www.w3.org/2000/svg" xmlns:xlink="http://www.w3.org/1999/xlink" xml:space="preserve" xmlns:serif="http://www.serif.com/" style="fill-rule:evenodd;clip-rule:evenodd;stroke-linecap:round;stroke-linejoin:round;stroke-miterlimit:1.5;"><rect id="object.real.compass" x="0" y="0" width="24" height="24" style="fill:none;"/><circle cx="12" cy="12" r="10" style="fill:url(#_Linear1);"/><path d="M16.077,7.003l0.056,0.006l0.056,0.01l0.055,0.012l0.054,0.015l0.053,0.019l0.053,0.021l0.05,0.025l0.05,0.027l0.048,0.03l0.046,0.033l0.044,0.035l0.042,0.037l0.04,0.04l0.037,0.042l0.035,0.044l0.033,0.046l0.03,0.048l0.027,0.05l0.025,0.05l0.021,0.053l0.019,0.053l0.015,0.054l0.012,0.055l0.01,0.056l0.006,0.056l0.003,0.056l-0.001,0.057l-0.003,0.056l-0.007,0.056l-0.009,0.056l-0.013,0.054l-0.016,0.055l-0.019,0.053l-0.022,0.052l-0.025,0.05l-0.028,0.049l-3,5l-0.029,0.046l-0.031,0.045l-0.035,0.042l-0.036,0.041l-0.038,0.038l-0.041,0.036l-0.042,0.035l-0.045,0.031l-0.046,0.029l-5,3l-0.049,0.028l-0.05,0.025l-0.052,0.022l-0.053,0.019l-0.055,0.016l-0.054,0.013l-0.056,0.009l-0.056,0.007l-0.056,0.003l-0.057,0.001l-0.056,-0.003l-0.056,-0.006l-0.056,-0.01l-0.055,-0.012l-0.054,-0.015l-0.053,-0.019l-0.053,-0.021l-0.05,-0.025l-0.05,-0.027l-0.048,-0.03l-0.046,-0.033l-0.044,-0.035l-0.042,-0.037l-0.04,-0.04l-0.037,-0.042l-0.035,-0.044l-0.033,-0.046l-0.03,-0.048l-0.027,-0.05l-0.025,-0.05l-0.021,-0.053l-0.019,-0.053l-0.015,-0.054l-0.012,-0.055l-0.01,-0.056l-0.006,-0.056l-0.003,-0.056l0.001,-0.057l0.003,-0.056l0.007,-0.056l0.009,-0.056l0.013,-0.054l0.016,-0.055l0.019,-0.053l0.022,-0.052l0.025,-0.05l0.028,-0.049l3,-5l0.029,-0.046l0.031,-0.045l0.035,-0.042l0.036,-0.041l0.038,-0.038l0.041,-0.036l0.042,-0.035l0.045,-0.031l0.046,-0.029l5,-3l0.049,-0.028l0.05,-0.025l0.052,-0.022l0.053,-0.019l0.055,-0.016l0.054,-0.013l0.056,-0.009l0.056,-0.007l0.056,-0.003l0.057,-0.001l0.056,0.003Zm-5.08,3.997l-3,5l5,-3l3,-5l-5,3Z" style="fill:#333;"/><path d="M10.997,11l2,2l3,-5l-5,3Z" style="fill:#333;"/><g><path d="M12,4l0,1" style="fill:none;stroke:#333;stroke-width:1px;"/><path d="M12,19l0,1" style="fill:none;stroke:#333;stroke-width:1px;"/><path d="M3.997,12l1,0" style="fill:none;stroke:#333;stroke-width:1px;"/><path d="M19.997,12l-1,0" style="fill:none;stroke:#333;stroke-width:1px;"/></g><defs><linearGradient id="_Linear1" x1="0" y1="0" x2="1" y2="0" gradientUnits="userSpaceOnUse" gradientTransform="matrix(-20,20,-20,-20,22,2)"><stop offset="0" style="stop-color:#fff;stop-opacity:1"/><stop offset="1" style="stop-color:#666;stop-opacity:1"/></linearGradient></defs></svg>