<?xml version="1.0" encoding="UTF-8" standalone="no"?><!DOCTYPE svg PUBLIC "-//W3C//DTD SVG 1.1//EN" "http://www.w3.org/Graphics/SVG/1.1/DTD/svg11.dtd"><svg width="100%" height="100%" viewBox="0 0 24 24" version="1.1" xmlns="http://www.w3.org/2000/svg" xmlns:xlink="http://www.w3.org/1999/xlink" xml:space="preserve" xmlns:serif="http://www.serif.com/" style="fill-rule:evenodd;clip-rule:evenodd;stroke-linecap:round;stroke-linejoin:round;stroke-miterlimit:1.5;"><rect id="object.thin.shoppingBag" x="0.003" y="0" width="24" height="24" style="fill:none;"/><path d="M9.003,9.5l6,0" style="fill:none;stroke:#333;stroke-width:1px;"/><path d="M8.001,22c-0.796,0 -1.559,-0.316 -2.122,-0.879c-0.563,-0.563 -0.879,-1.326 -0.878,-2.122c0,-3.41 0.001,-8.788 0.002,-10.999c0,-0.552 0.448,-1 1,-1c2.576,0 9.42,0 11.997,0c0.552,0 1,0.448 1,1c0,2.211 0,7.59 0,11c0,1.657 -1.343,3 -3,3c-2.362,0 -5.638,0 -7.999,0Zm-1.998,-14c0,0 0,7.354 0,11c0,0.53 0.211,1.039 0.586,1.414c0.375,0.375 0.884,0.586 1.414,0.586c2.219,0 5.778,0 7.997,0c0.53,0 1.039,-0.211 1.414,-0.586c0.375,-0.375 0.586,-0.884 0.586,-1.414c0,-3.646 0,-11 0,-11l-11.997,0Z" style="fill:#333;"/><path d="M14,8l0,-3l-4,0l0,3l-1,0c0,0 0,-1.815 0,-3c0,-0.265 0.105,-0.52 0.293,-0.707c0.187,-0.188 0.442,-0.293 0.707,-0.293c1.11,0 2.89,0 4,0c0.265,0 0.52,0.105 0.707,0.293c0.188,0.187 0.293,0.442 0.293,0.707c0,1.185 0,3 0,3l-1,0Z" style="fill:#333;"/></svg>