<?xml version="1.0" encoding="UTF-8" standalone="no"?><!DOCTYPE svg PUBLIC "-//W3C//DTD SVG 1.1//EN" "http://www.w3.org/Graphics/SVG/1.1/DTD/svg11.dtd"><svg width="100%" height="100%" viewBox="0 0 24 24" version="1.1" xmlns="http://www.w3.org/2000/svg" xmlns:xlink="http://www.w3.org/1999/xlink" xml:space="preserve" xmlns:serif="http://www.serif.com/" style="fill-rule:evenodd;clip-rule:evenodd;stroke-linecap:round;stroke-linejoin:round;stroke-miterlimit:1.5;"><rect id="object.regular.cog" x="0.003" y="0" width="24" height="24" style="fill:none;"/><path d="M10.003,5.29l0,-2.29l4,0l0,2.29c1.064,0.317 2.022,0.881 2.808,1.625l1.986,-1.147l2,3.464l-1.983,1.145c0.123,0.521 0.189,1.064 0.189,1.623c0,0.559 -0.066,1.102 -0.189,1.623l1.983,1.145l-2,3.464l-1.986,-1.147c-0.786,0.744 -1.744,1.308 -2.808,1.625l0,2.29l-4,0l0,-2.29c-1.064,-0.317 -2.022,-0.881 -2.808,-1.625l-1.986,1.147l-2,-3.464l1.983,-1.145c-0.124,-0.521 -0.189,-1.064 -0.189,-1.623c0,-0.559 0.065,-1.102 0.189,-1.623l-1.983,-1.145l2,-3.464l1.986,1.147c0.786,-0.744 1.744,-1.308 2.808,-1.625Z" style="fill:none;stroke:#333;stroke-width:2px;"/><ellipse cx="12.003" cy="12" rx="2.997" ry="3" style="fill:none;stroke:#333;stroke-width:2px;"/></svg>