<?xml version="1.0" encoding="UTF-8" standalone="no"?><!DOCTYPE svg PUBLIC "-//W3C//DTD SVG 1.1//EN" "http://www.w3.org/Graphics/SVG/1.1/DTD/svg11.dtd"><svg width="100%" height="100%" viewBox="0 0 24 24" version="1.1" xmlns="http://www.w3.org/2000/svg" xmlns:xlink="http://www.w3.org/1999/xlink" xml:space="preserve" xmlns:serif="http://www.serif.com/" style="fill-rule:evenodd;clip-rule:evenodd;stroke-linecap:round;stroke-linejoin:round;stroke-miterlimit:1.5;"><rect id="object.real.picture" x="0.003" y="0" width="24" height="24" style="fill:none;"/><clipPath id="_clip1"><rect x="0.003" y="0" width="24" height="24"/></clipPath><g clip-path="url(#_clip1)"><path d="M7.503,6.5l4.5,-4l4,4" style="fill:none;stroke:#333;stroke-width:1px;"/><path d="M22.003,7c0,-0.552 -0.448,-1 -1,-1l-18,0c-0.552,0 -1,0.448 -1,1l0,14c0,0.552 0.448,1 1,1l18,0c0.552,0 1,-0.448 1,-1l0,-14Z" style="fill:url(#_Linear2);"/><g><path d="M20.003,9c0,-0.552 -0.448,-1 -1,-1l-14,0c-0.552,0 -1,0.448 -1,1l0,10c0,0.552 0.448,1 1,1l14,0c0.552,0 1,-0.448 1,-1l0,-10Z" style="fill:#333;fill-opacity:0.501961;"/><clipPath id="_clip3"><path d="M20.003,9c0,-0.552 -0.448,-1 -1,-1l-14,0c-0.552,0 -1,0.448 -1,1l0,10c0,0.552 0.448,1 1,1l14,0c0.552,0 1,-0.448 1,-1l0,-10Z"/></clipPath><g clip-path="url(#_clip3)"><g><path d="M3.503,15c0,0 3.015,-2.412 4.362,-3.49c0.371,-0.297 0.9,-0.291 1.265,0.013c1.538,1.282 5.373,4.477 5.373,4.477l0,4l-11,0l0,-5" style="fill:url(#_Linear4);"/><path d="M3.503,15c0,0 3.015,-2.412 4.362,-3.49c0.371,-0.297 0.9,-0.291 1.265,0.013c1.538,1.282 5.373,4.477 5.373,4.477l0,4l-11,0l0,-5" style="fill:url(#_Linear5);"/></g><g><path d="M20.503,16.5l0,3.5l-12.5,0c0,0 5.499,-4.812 7.379,-6.457c0.36,-0.315 0.894,-0.331 1.272,-0.036c1.247,0.969 3.849,2.993 3.849,2.993Z" style="fill:url(#_Linear6);"/><path d="M20.503,16.5l0,3.5l-12.5,0c0,0 5.499,-4.812 7.379,-6.457c0.36,-0.315 0.894,-0.331 1.272,-0.036c1.247,0.969 3.849,2.993 3.849,2.993Z" style="fill:url(#_Linear7);"/></g></g><path d="M20.003,9c0,-0.552 -0.448,-1 -1,-1l-14,0c-0.552,0 -1,0.448 -1,1l0,10c0,0.552 0.448,1 1,1l14,0c0.552,0 1,-0.448 1,-1l0,-10Z" style="fill:#333;fill-opacity:0.501961;"/><clipPath id="_clip8"><path d="M20.003,9c0,-0.552 -0.448,-1 -1,-1l-14,0c-0.552,0 -1,0.448 -1,1l0,10c0,0.552 0.448,1 1,1l14,0c0.552,0 1,-0.448 1,-1l0,-10Z"/></clipPath><g clip-path="url(#_clip8)"><g><path d="M3.503,15c0,0 3.015,-2.412 4.362,-3.49c0.371,-0.297 0.9,-0.291 1.265,0.013c1.538,1.282 5.373,4.477 5.373,4.477l0,4l-11,0l0,-5" style="fill:url(#_Linear9);"/><path d="M3.503,15c0,0 3.015,-2.412 4.362,-3.49c0.371,-0.297 0.9,-0.291 1.265,0.013c1.538,1.282 5.373,4.477 5.373,4.477l0,4l-11,0l0,-5" style="fill:url(#_Linear10);"/></g><g><path d="M20.503,16.5l0,3.5l-12.5,0c0,0 5.499,-4.812 7.379,-6.457c0.36,-0.315 0.894,-0.331 1.272,-0.036c1.247,0.969 3.849,2.993 3.849,2.993Z" style="fill:url(#_Linear11);"/><path d="M20.503,16.5l0,3.5l-12.5,0c0,0 5.499,-4.812 7.379,-6.457c0.36,-0.315 0.894,-0.331 1.272,-0.036c1.247,0.969 3.849,2.993 3.849,2.993Z" style="fill:url(#_Linear12);"/></g></g></g></g><defs><linearGradient id="_Linear2" x1="0" y1="0" x2="1" y2="0" gradientUnits="userSpaceOnUse" gradientTransform="matrix(-20,20,-20,-20,22.0029,2)"><stop offset="0" style="stop-color:#fff;stop-opacity:1"/><stop offset="1" style="stop-color:#666;stop-opacity:1"/></linearGradient><linearGradient id="_Linear4" x1="0" y1="0" x2="1" y2="0" gradientUnits="userSpaceOnUse" gradientTransform="matrix(-20,20,-20,-20,22.0029,2)"><stop offset="0" style="stop-color:#fff;stop-opacity:1"/><stop offset="1" style="stop-color:#666;stop-opacity:1"/></linearGradient><linearGradient id="_Linear5" x1="0" y1="0" x2="1" y2="0" gradientUnits="userSpaceOnUse" gradientTransform="matrix(-20,20,-20,-20,22.0029,2)"><stop offset="0" style="stop-color:#fff;stop-opacity:1"/><stop offset="1" style="stop-color:#666;stop-opacity:1"/></linearGradient><linearGradient id="_Linear6" x1="0" y1="0" x2="1" y2="0" gradientUnits="userSpaceOnUse" gradientTransform="matrix(-20,20,-20,-20,22.0029,2)"><stop offset="0" style="stop-color:#fff;stop-opacity:1"/><stop offset="1" style="stop-color:#666;stop-opacity:1"/></linearGradient><linearGradient id="_Linear7" x1="0" y1="0" x2="1" y2="0" gradientUnits="userSpaceOnUse" gradientTransform="matrix(-20,20,-20,-20,22.0029,2)"><stop offset="0" style="stop-color:#fff;stop-opacity:1"/><stop offset="1" style="stop-color:#666;stop-opacity:1"/></linearGradient><linearGradient id="_Linear9" x1="0" y1="0" x2="1" y2="0" gradientUnits="userSpaceOnUse" gradientTransform="matrix(-20,20,-20,-20,22.0029,2)"><stop offset="0" style="stop-color:#fff;stop-opacity:1"/><stop offset="1" style="stop-color:#666;stop-opacity:1"/></linearGradient><linearGradient id="_Linear10" x1="0" y1="0" x2="1" y2="0" gradientUnits="userSpaceOnUse" gradientTransform="matrix(-20,20,-20,-20,22.0029,2)"><stop offset="0" style="stop-color:#fff;stop-opacity:1"/><stop offset="1" style="stop-color:#666;stop-opacity:1"/></linearGradient><linearGradient id="_Linear11" x1="0" y1="0" x2="1" y2="0" gradientUnits="userSpaceOnUse" gradientTransform="matrix(-20,20,-20,-20,22.0029,2)"><stop offset="0" style="stop-color:#fff;stop-opacity:1"/><stop offset="1" style="stop-color:#666;stop-opacity:1"/></linearGradient><linearGradient id="_Linear12" x1="0" y1="0" x2="1" y2="0" gradientUnits="userSpaceOnUse" gradientTransform="matrix(-20,20,-20,-20,22.0029,2)"><stop offset="0" style="stop-color:#fff;stop-opacity:1"/><stop offset="1" style="stop-color:#666;stop-opacity:1"/></linearGradient></defs></svg>