<?xml version="1.0" encoding="UTF-8" standalone="no"?><!DOCTYPE svg PUBLIC "-//W3C//DTD SVG 1.1//EN" "http://www.w3.org/Graphics/SVG/1.1/DTD/svg11.dtd"><svg width="100%" height="100%" viewBox="0 0 24 24" version="1.1" xmlns="http://www.w3.org/2000/svg" xmlns:xlink="http://www.w3.org/1999/xlink" xml:space="preserve" xmlns:serif="http://www.serif.com/" style="fill-rule:evenodd;clip-rule:evenodd;stroke-linejoin:round;stroke-miterlimit:1.41421;"><rect id="ui.regular.dollar" x="0" y="0" width="24" height="24" style="fill:none;"/><path d="M15.998,9c-0.264,0 -0.518,-0.105 -0.705,-0.292c-0.186,-0.187 -0.292,-0.441 -0.292,-0.705c0,-0.161 0,-0.331 0,-0.501c0,-0.398 -0.158,-0.78 -0.439,-1.062c-0.282,-0.282 -0.664,-0.44 -1.063,-0.44c-0.755,0 -1.681,0 -2.496,0c-1.105,0 -2,0.895 -2,2c0,0.329 0,0.671 0,1c0,1.105 0.895,2 2,2c0.609,0 1.302,0 1.994,0c2.209,0 4,1.791 4,4c0,0.332 0,0.668 0,1c0,1.061 -0.421,2.078 -1.172,2.828c-0.75,0.751 -1.767,1.172 -2.828,1.172c-0.877,0 -1.797,0 -2.645,0c-0.89,0 -1.743,-0.353 -2.372,-0.983c-0.628,-0.629 -0.981,-1.482 -0.98,-2.371c0,-0.001 0,-0.002 0,-0.002c0,-0.356 0.288,-0.644 0.644,-0.644c0.127,0 0.263,0 0.398,0c0.253,0 0.495,0.101 0.674,0.279c0.179,0.179 0.28,0.422 0.28,0.675c0,0 0,0.001 0,0.001c0,0.277 0.11,0.543 0.306,0.739c0.196,0.196 0.461,0.306 0.739,0.306c0.814,0 1.97,0 2.96,0c1.105,0 2,-0.895 2,-2c0,-0.329 0,-0.671 0,-1c0,-0.53 -0.21,-1.039 -0.585,-1.414c-0.375,-0.375 -0.884,-0.586 -1.415,-0.586c-0.612,0 -1.308,0 -2.004,0c-1.061,0 -2.078,-0.421 -2.828,-1.172c-0.751,-0.75 -1.172,-1.767 -1.172,-2.828c0,-0.332 0,-0.668 0,-1c0,-1.061 0.421,-2.078 1.172,-2.828c0.75,-0.751 1.767,-1.172 2.828,-1.172c0.819,0 1.675,0 2.476,0c0.935,0 1.831,0.371 2.492,1.032c0.661,0.661 1.032,1.557 1.032,2.492c0,0.168 0,0.329 0,0.479c0,0.264 -0.105,0.518 -0.292,0.705c-0.187,0.187 -0.441,0.292 -0.705,0.292c0,0 -0.001,0 -0.002,0Z" style="fill:#333;"/><path d="M13,3.001c0,-0.552 -0.449,-1.001 -1.001,-1.001c-0.553,0 -1.002,0.449 -1.002,1.001l0,17.998c0,0.552 0.449,1.001 1.002,1.001c0.552,0 1.001,-0.449 1.001,-1.001l0,-17.998Z" style="fill:#333;"/></svg>