<?xml version="1.0" encoding="UTF-8" standalone="no"?><!DOCTYPE svg PUBLIC "-//W3C//DTD SVG 1.1//EN" "http://www.w3.org/Graphics/SVG/1.1/DTD/svg11.dtd"><svg width="100%" height="100%" viewBox="0 0 24 24" version="1.1" xmlns="http://www.w3.org/2000/svg" xmlns:xlink="http://www.w3.org/1999/xlink" xml:space="preserve" xmlns:serif="http://www.serif.com/" style="fill-rule:evenodd;clip-rule:evenodd;stroke-linejoin:round;stroke-miterlimit:1.41421;"><rect id="ui.regular.warning" x="0" y="0" width="24" height="24" style="fill:none;"/><path d="M21.857,18.486c0.186,0.308 0.191,0.693 0.013,1.007c-0.177,0.313 -0.51,0.507 -0.87,0.507c-4.047,0 -13.953,0 -18,0c-0.36,0 -0.693,-0.194 -0.87,-0.507c-0.178,-0.314 -0.173,-0.699 0.012,-1.007c2.049,-3.414 7.002,-11.669 9,-15c0.181,-0.302 0.507,-0.486 0.858,-0.486c0.351,0 0.677,0.184 0.857,0.486c1.999,3.331 6.952,11.586 9,15Zm-17.091,-0.486l14.468,0l-7.234,-12.056l-7.234,12.056Zm6.234,-2c0,-0.552 0.448,-1 1,-1c0.552,0 1,0.448 1,1c0,0.552 -0.448,1 -1,1c-0.552,0 -1,-0.448 -1,-1c0,0 0,0 0,0Zm0,-6c0,-0.265 0.105,-0.52 0.293,-0.707c0.187,-0.188 0.442,-0.293 0.707,-0.293c0.265,0 0.52,0.105 0.707,0.293c0.188,0.187 0.293,0.442 0.293,0.707c0,0.871 0,2.129 0,3c0,0.265 -0.105,0.52 -0.293,0.707c-0.187,0.188 -0.442,0.293 -0.707,0.293c-0.265,0 -0.52,-0.105 -0.707,-0.293c-0.188,-0.187 -0.293,-0.442 -0.293,-0.707c0,-0.871 0,-2.129 0,-3Z" style="fill:#333;"/></svg>