<?xml version="1.0" encoding="UTF-8" standalone="no"?><!DOCTYPE svg PUBLIC "-//W3C//DTD SVG 1.1//EN" "http://www.w3.org/Graphics/SVG/1.1/DTD/svg11.dtd"><svg width="100%" height="100%" viewBox="0 0 24 24" version="1.1" xmlns="http://www.w3.org/2000/svg" xmlns:xlink="http://www.w3.org/1999/xlink" xml:space="preserve" xmlns:serif="http://www.serif.com/" style="fill-rule:evenodd;clip-rule:evenodd;stroke-linejoin:round;stroke-miterlimit:1.41421;"><rect id="ui.thin.dollar" x="0" y="0" width="24" height="24" style="fill:none;"/><path d="M16.294,9c-0.161,0 -0.293,-0.131 -0.293,-0.293c0,0 0,-0.001 0,-0.001c0,-1.494 -1.211,-2.706 -2.706,-2.706c-0.423,0 -0.863,0 -1.292,0c-1.657,0 -3,1.343 -3,3c0,0.796 0.316,1.559 0.879,2.121c0.562,0.563 1.325,0.879 2.121,0.879c0.325,0 0.66,0 0.994,0c2.209,0 4,1.791 4,4c0,0 0,0 0,0c0,2.209 -1.791,4 -4,4c-0.432,0 -0.871,0 -1.299,0c-0.981,0 -1.922,-0.39 -2.616,-1.084c-0.694,-0.694 -1.083,-1.635 -1.082,-2.617c0,0 0,0 0,0c0,-0.165 0.134,-0.299 0.299,-0.299c0.128,0 0.276,0 0.404,0c0.161,0 0.293,0.131 0.293,0.293c0,0 0,0.001 0,0.001c0,1.494 1.211,2.706 2.706,2.706c0.425,0 0.868,0 1.299,0c1.657,0 3,-1.343 3,-3c0,-0.796 -0.316,-1.559 -0.878,-2.121c-0.563,-0.563 -1.326,-0.879 -2.122,-0.879c-0.328,0 -0.666,0 -1.004,0c-1.061,0 -2.078,-0.421 -2.828,-1.172c-0.751,-0.75 -1.172,-1.767 -1.172,-2.828c0,0 0,0 0,0c0,-2.209 1.791,-4 4,-4c0.428,0 0.862,0 1.286,0c0.985,0 1.93,0.391 2.626,1.088c0.697,0.696 1.088,1.641 1.088,2.626c0,0.001 0,0.001 0,0.002c0,0.157 -0.127,0.284 -0.284,0.284c-0.131,0 -0.286,0 -0.419,0Z" style="fill:#333;"/><path d="M13,2.5c0,-0.276 -0.224,-0.5 -0.5,-0.5c-0.276,0 -0.5,0.224 -0.5,0.5l0,19c0,0.276 0.224,0.5 0.5,0.5c0.276,0 0.5,-0.224 0.5,-0.5l0,-19Z" style="fill:#333;"/></svg>