<?xml version="1.0" encoding="UTF-8" standalone="no"?><!DOCTYPE svg PUBLIC "-//W3C//DTD SVG 1.1//EN" "http://www.w3.org/Graphics/SVG/1.1/DTD/svg11.dtd"><svg width="100%" height="100%" viewBox="0 0 24 24" version="1.1" xmlns="http://www.w3.org/2000/svg" xmlns:xlink="http://www.w3.org/1999/xlink" xml:space="preserve" xmlns:serif="http://www.serif.com/" style="fill-rule:evenodd;clip-rule:evenodd;stroke-linejoin:round;stroke-miterlimit:1.41421;"><rect id="ui.thin.play" x="0" y="0" width="24" height="24" style="fill:none;"/><path d="M8.064,5.502l0.067,0.007l0.068,0.011l0.066,0.016l0.065,0.02l0.063,0.025l0.062,0.028l0.06,0.033l9.999,6l0.058,0.038l0.055,0.041l0.052,0.045l0.049,0.048l0.045,0.052l0.042,0.054l0.038,0.058l0.034,0.059l0.029,0.062l0.026,0.064l0.02,0.066l0.017,0.066l0.012,0.068l0.007,0.068l0.002,0.069l-0.002,0.069l-0.007,0.068l-0.012,0.068l-0.017,0.066l-0.02,0.066l-0.026,0.064l-0.029,0.062l-0.034,0.059l-0.038,0.058l-0.042,0.054l-0.045,0.052l-0.049,0.048l-0.052,0.045l-0.055,0.041l-0.058,0.037l-9.999,6l-0.06,0.034l-0.062,0.028l-0.063,0.025l-0.065,0.02l-0.066,0.016l-0.068,0.011l-0.067,0.007l-0.068,0.002l-0.068,-0.003l-0.068,-0.007l-0.067,-0.012l-0.066,-0.016l-0.065,-0.021l-0.063,-0.025l-0.062,-0.03l-0.059,-0.033l-0.057,-0.038l-0.054,-0.041l-0.051,-0.045l-0.048,-0.048l-0.045,-0.051l-0.041,-0.055l-0.037,-0.057l-0.033,-0.059l-0.03,-0.062l-0.025,-0.063l-0.02,-0.065l-0.016,-0.066l-0.012,-0.067l-0.007,-0.068l-0.002,-0.068l0,-12l0.002,-0.068l0.007,-0.068l0.012,-0.067l0.016,-0.066l0.02,-0.065l0.025,-0.063l0.03,-0.062l0.033,-0.059l0.037,-0.057l0.041,-0.055l0.045,-0.051l0.048,-0.048l0.051,-0.045l0.054,-0.041l0.057,-0.038l0.059,-0.033l0.062,-0.03l0.063,-0.025l0.065,-0.021l0.066,-0.016l0.067,-0.012l0.068,-0.007l0.068,-0.003l0.068,0.002Zm-0.064,12.998l10,-6l-10,-6l0,12Z" style="fill:#333;"/></svg>