<?xml version="1.0" encoding="UTF-8" standalone="no"?><!DOCTYPE svg PUBLIC "-//W3C//DTD SVG 1.1//EN" "http://www.w3.org/Graphics/SVG/1.1/DTD/svg11.dtd"><svg width="100%" height="100%" viewBox="0 0 24 24" version="1.1" xmlns="http://www.w3.org/2000/svg" xmlns:xlink="http://www.w3.org/1999/xlink" xml:space="preserve" xmlns:serif="http://www.serif.com/" style="fill-rule:evenodd;clip-rule:evenodd;stroke-linecap:round;stroke-linejoin:round;stroke-miterlimit:1.5;"><rect id="ui.thin.turnOnOff" x="0.003" y="0" width="24" height="24" style="fill:none;"/><path d="M16.246,7.757c2.341,2.342 2.341,6.144 0,8.486c-2.342,2.341 -6.144,2.341 -8.486,0c-2.341,-2.342 -2.341,-6.144 0,-8.486" style="fill:none;stroke:#333;stroke-width:2px;"/><path d="M12.003,7l0,5" style="fill:none;stroke:#333;stroke-width:2px;"/><path d="M12.003,5c3.863,0 7,3.137 7,7c0,3.863 -3.137,7 -7,7c-3.863,0 -7,-3.137 -7,-7c0,-3.863 3.137,-7 7,-7Zm0,1c3.311,0 6,2.689 6,6c0,3.311 -2.689,6 -6,6c-3.312,0 -6,-2.689 -6,-6c0,-3.311 2.688,-6 6,-6Z" style="fill:#333;"/></svg>